<?xml version="1.0" encoding="UTF-8" standalone="no"?>
<svg
   version="1.0"
   width="32.709999mm"
   height="4.1999998mm"
   id="svg269"
   xmlns="http://www.w3.org/2000/svg"
   xmlns:svg="http://www.w3.org/2000/svg">
  <defs
     id="defs3">
    <pattern
       id="EMFhbasepattern"
       patternUnits="userSpaceOnUse"
       width="6"
       height="6"
       x="0"
       y="0" />
  </defs>
  <path
     style="fill:none;stroke:none;"
     d="  M 7.3054094,2.1278413   L 7.3054094,3.5219443   L 8.5392119,3.5219443   M 8.5392119,2.1278413   L 10.974348,2.1278413   M 9.7405459,2.1278413   L 9.7405459,3.5219443   M 11.59125,2.1278413   L 11.59125,3.5219443   M 11.59125,2.1278413   L 11.59125,3.5219443  "
     id="path5" />
  <path
     style="fill:none;stroke:none;"
     d="  M 12.792584,3.5219443   L 12.792584,2.1278413   L 14.026386,3.5219443   L 15.260189,2.1278413   L 15.260189,3.5219443  "
     id="path7" />
  <path
     style="fill:none;stroke:none;"
     d="  M 15.844621,3.5219443   L 17.078424,2.1278413   L 18.312226,3.5219443   M 16.169306,3.1734185   L 17.987541,3.1734185  "
     id="path9" />
  <path
     style="fill:none;stroke:none;"
     d="  M 3.6364705,3.5219443   L 4.8702729,2.1278413   L 6.1040754,3.5219443   M 3.9611553,3.1734185   L 5.7793906,3.1734185  "
     id="path11" />
  <path
     style="fill:#bfbfbf;fill-rule:evenodd;fill-opacity:1;stroke:#000000;stroke-width:0.093589984px;stroke-linecap:round;stroke-linejoin:round;stroke-miterlimit:4;stroke-dasharray:none;stroke-opacity:1;"
     d="  M 123.37031,0.03751281   L 0.037435992,0.03751281   L 0.037435992,15.75538   L 123.37031,15.75538   L 123.37031,0.03751281   z "
     id="path13" />
  <path
     style="fill:#dddddd;fill-rule:evenodd;fill-opacity:1;stroke:#e2e2e2;stroke-width:0.018717997px;stroke-linecap:round;stroke-linejoin:round;stroke-miterlimit:4;stroke-dasharray:none;stroke-opacity:1;"
     d="  M 122.04134,1.1816535   L 1.3476957,1.1816535   L 1.3476957,14.611239   L 122.04134,14.611239   L 122.04134,1.1816535   z "
     id="path15" />
  <path
     style="fill:#000000;fill-rule:evenodd;fill-opacity:1;stroke:#000000;stroke-width:0.018717997px;stroke-linecap:round;stroke-linejoin:round;stroke-miterlimit:4;stroke-dasharray:none;stroke-opacity:1;"
     d="  M 50.519872,6.9398698   L 74.141983,6.9398698   L 74.141983,12.004099   L 50.519872,12.004099   L 50.519872,6.9398698   z "
     id="path17" />
  <path
     style="fill:#eaeaea;fill-rule:evenodd;fill-opacity:1;stroke:#000000;stroke-width:0.018717997px;stroke-linecap:round;stroke-linejoin:round;stroke-miterlimit:4;stroke-dasharray:none;stroke-opacity:1;"
     d="  M 50.613462,7.0148955   L 74.067111,7.0148955   L 74.067111,11.891561   L 50.613462,11.891561   L 50.613462,7.0148955   z "
     id="path19" />
  <path
     style="fill:#000000;fill-rule:evenodd;fill-opacity:1;stroke:#000000;stroke-width:0.018717997px;stroke-linecap:round;stroke-linejoin:round;stroke-miterlimit:4;stroke-dasharray:none;stroke-opacity:1;"
     d="  M 42.882929,6.9398698   L 49.13474,6.9398698   L 49.13474,12.004099   L 42.882929,12.004099   L 42.882929,6.9398698   z "
     id="path21" />
  <path
     style="fill:#eaeaea;fill-rule:evenodd;fill-opacity:1;stroke:#000000;stroke-width:0.018717997px;stroke-linecap:round;stroke-linejoin:round;stroke-miterlimit:4;stroke-dasharray:none;stroke-opacity:1;"
     d="  M 42.976519,7.0148955   L 49.04115,7.0148955   L 49.04115,11.891561   L 42.976519,11.891561   L 42.976519,7.0148955   z "
     id="path23" />
  <path
     style="fill:#000000;fill-rule:evenodd;fill-opacity:1;stroke:#000000;stroke-width:0.018717997px;stroke-linecap:round;stroke-linejoin:round;stroke-miterlimit:4;stroke-dasharray:none;stroke-opacity:1;"
     d="  M 75.789166,6.9398698   L 99.411278,6.9398698   L 99.411278,12.004099   L 75.789166,12.004099   L 75.789166,6.9398698   z "
     id="path25" />
  <path
     style="fill:#eaeaea;fill-rule:evenodd;fill-opacity:1;stroke:#000000;stroke-width:0.018717997px;stroke-linecap:round;stroke-linejoin:round;stroke-miterlimit:4;stroke-dasharray:none;stroke-opacity:1;"
     d="  M 75.882756,7.0148955   L 99.336406,7.0148955   L 99.336406,11.891561   L 75.882756,11.891561   L 75.882756,7.0148955   z "
     id="path27" />
  <path
     style="fill:#7f7f7f;fill-rule:evenodd;fill-opacity:1;stroke:#000000;stroke-width:0.018717997px;stroke-linecap:round;stroke-linejoin:round;stroke-miterlimit:4;stroke-dasharray:none;stroke-opacity:1;"
     d="  M 117.58645,8.0652541   L 112.08336,8.0652541   L 112.08336,12.004099   L 117.58645,12.004099   L 117.58645,8.0652541   z "
     id="path29" />
  <path
     style="fill:#7f7f7f;fill-rule:evenodd;fill-opacity:1;stroke:#000000;stroke-width:0.018717997px;stroke-linecap:round;stroke-linejoin:round;stroke-miterlimit:4;stroke-dasharray:none;stroke-opacity:1;"
     d="  M 108.50822,8.0652541   L 103.00513,8.0652541   L 103.00513,12.004099   L 108.50822,12.004099   L 108.50822,8.0652541   z "
     id="path31" />
  <path
     style="fill:#ff7f00;fill-rule:evenodd;fill-opacity:1;stroke:#000000;stroke-width:0.018717997px;stroke-linecap:round;stroke-linejoin:round;stroke-miterlimit:4;stroke-dasharray:none;stroke-opacity:1;"
     d="  M 10.856438,11.141305   L 9.826948,11.141305   L 9.826948,11.47892   L 10.856438,11.47892   L 10.856438,11.141305   z "
     id="path33" />
  <path
     style="fill:#00ff00;fill-rule:evenodd;fill-opacity:1;stroke:#000000;stroke-width:0.018717997px;stroke-linecap:round;stroke-linejoin:round;stroke-miterlimit:4;stroke-dasharray:none;stroke-opacity:1;"
     d="  M 10.856438,9.6970614   L 9.826948,9.6970614   L 9.826948,10.034677   L 10.856438,10.034677   L 10.856438,9.6970614   z "
     id="path35" />
  <path
     style="fill:#00ff00;fill-rule:evenodd;fill-opacity:1;stroke:#000000;stroke-width:0.018717997px;stroke-linecap:round;stroke-linejoin:round;stroke-miterlimit:4;stroke-dasharray:none;stroke-opacity:1;"
     d="  M 10.856438,8.290331   L 9.826948,8.290331   L 9.826948,8.6279463   L 10.856438,8.6279463   L 10.856438,8.290331   z "
     id="path37" />
  <path
     style="fill:#00ff00;fill-rule:evenodd;fill-opacity:1;stroke:#000000;stroke-width:0.018717997px;stroke-linecap:round;stroke-linejoin:round;stroke-miterlimit:4;stroke-dasharray:none;stroke-opacity:1;"
     d="  M 101.73231,10.934984   L 100.70282,10.934984   L 100.70282,11.272599   L 101.73231,11.272599   L 101.73231,10.934984   z "
     id="path39" />
  <path
     style="fill:#00ff00;fill-rule:evenodd;fill-opacity:1;stroke:#000000;stroke-width:0.018717997px;stroke-linecap:round;stroke-linejoin:round;stroke-miterlimit:4;stroke-dasharray:none;stroke-opacity:1;"
     d="  M 110.81054,10.934984   L 109.78105,10.934984   L 109.78105,11.272599   L 110.81054,11.272599   L 110.81054,10.934984   z "
     id="path41" />
  <text
     xml:space="preserve"
     style="font-size:0.812500px;font-style:normal;font-variant:normal;font-weight:400;font-stretch:Normal;line-height:175.444527%;letter-spacing:0px;word-spacing:0px;fill:#000000;fill-opacity:1;stroke:none;font-family:Arial;text-align:start;text-anchor:start;"
     transform="matrix(1.000000,-0.000000,0.000000,1.000000,11.910063,7.952716)"
     x="0.000000"
     y="0.592313"
     id="text55"><tspan
       x="0.000000"
       y="0.592313"
       id="tspan45"><tspan
         dx="0.000000"
         dy="0.000000"
         style="fill:#000000;font-size:0.812500px;font-style:normal;font-variant:normal;font-weight:400;font-stretch:Normal;font-family:Arial;"
         id="tspan43">POWER</tspan></tspan><tspan
       x="0.000000"
       y="2.017799"
       id="tspan49"><tspan
         dx="0.000000"
         dy="0.000000"
         style="fill:#000000;font-size:0.812500px;font-style:normal;font-variant:normal;font-weight:400;font-stretch:Normal;font-family:Arial;"
         id="tspan47">ALARM</tspan></tspan><tspan
       x="0.000000"
       y="3.443286"
       id="tspan53"><tspan
         dx="0.000000"
         dy="0.000000"
         style="fill:#000000;font-size:0.812500px;font-style:normal;font-variant:normal;font-weight:400;font-stretch:Normal;font-family:Arial;"
         id="tspan51">PoE MAX</tspan></tspan></text>
  <path
     style="fill:#000000;fill-rule:evenodd;fill-opacity:1;stroke:#000000;stroke-width:0.012757873px;stroke-linecap:round;stroke-linejoin:round;stroke-miterlimit:4;stroke-dasharray:none;stroke-opacity:1;"
     d="  M 8.5392119,2.1278413   M 9.7405459,2.1278413   M 11.59125,2.1278413   M 11.59125,2.1278413   M 16.169306,3.1734185   M 3.9611553,3.1734185   M 3.5466889,3.6561001   L 3.5211731,3.6561001   L 3.5084152,3.6434053   L 3.4956574,3.6434053   L 3.4573837,3.605321   L 3.4573837,3.5926262   L 3.4446259,3.5799314   L 3.4446259,2.1073355   L 3.4573837,2.0946407   L 3.4573837,2.0819459   L 3.4701416,2.0692511   L 3.4828995,2.0692511   L 3.4828995,2.0565563   L 3.4956574,2.0438615   L 3.5084152,2.0438615   L 3.5211731,2.0311667   L 5.2562439,2.0311667   L 5.2690018,2.0438615   L 5.2817597,2.0438615   L 5.3200333,2.0819459   L 5.3200333,2.0946407   L 5.3327912,2.1073355   L 5.3327912,2.3993157   L 5.3200333,2.3993157   L 5.3200333,2.3866209   L 5.3072754,2.3866209   L 5.3072754,2.3739261   L 5.2945175,2.3739261   L 5.2945175,2.3612313   L 5.2690018,2.3612313   L 5.2690018,2.3485365   L 3.8656357,2.3485365   L 3.8656357,2.3612313   L 3.8401199,2.3612313   L 3.8401199,2.3739261   L 3.8273621,2.3739261   L 3.8273621,2.3993157   L 3.8146042,2.3993157   L 3.8146042,3.605321   L 3.8273621,3.605321   L 3.8273621,3.6307106   L 3.8401199,3.6307106   L 3.8401199,3.6434053   L 3.8528778,3.6434053   L 3.8528778,3.6561001   L 3.5594467,3.6561001   L 3.5466889,3.6561001   z "
     id="path57" />
  <path
     style="fill:#000000;fill-rule:evenodd;fill-opacity:1;stroke:#000000;stroke-width:0.012757873px;stroke-linecap:round;stroke-linejoin:round;stroke-miterlimit:4;stroke-dasharray:none;stroke-opacity:1;"
     d="  M 5.2052124,2.7166855   L 3.9421829,2.7166855   L 3.9421829,2.7039907   L 3.9166672,2.7039907   L 3.9166672,2.6912959   L 3.9039093,2.6912959   L 3.9039093,2.6659064   L 3.8911514,2.6659064   L 3.8911514,2.9832762   L 3.9039093,2.9832762   L 3.9039093,3.0086657   L 3.9166672,3.0086657   L 3.9166672,3.0213605   L 3.9421829,3.0213605   L 3.9421829,3.0340553   L 5.2307282,3.0340553   L 5.2562439,3.0086657   L 5.2690018,3.0086657   L 5.2945175,2.9832762   L 5.2945175,2.9705814   L 5.3072754,2.9578866   L 5.3072754,2.9451918   L 5.3200333,2.932497   L 5.3200333,2.9071074   L 5.3327912,2.8944126   L 5.3327912,2.8563282   L 5.3200333,2.8436334   L 5.3200333,2.8055491   L 5.2945175,2.7801595   L 5.2945175,2.7674647   L 5.2817597,2.7547699   L 5.2690018,2.7547699   L 5.2690018,2.7420751   L 5.2562439,2.7420751   L 5.243486,2.7293803   L 5.2307282,2.7293803   L 5.2179703,2.7166855   L 5.2052124,2.7166855   z "
     id="path59" />
  <path
     style="fill:#000000;fill-rule:evenodd;fill-opacity:1;stroke:#000000;stroke-width:0.012757873px;stroke-linecap:round;stroke-linejoin:round;stroke-miterlimit:4;stroke-dasharray:none;stroke-opacity:1;"
     d="  M 8.1522812,3.0340553   L 8.1267655,3.0340553   L 8.1267655,3.0213605   L 8.1012497,3.0213605   L 8.1012497,3.0086657   L 8.0884918,3.0086657   L 8.0884918,2.9832762   L 8.075734,2.9832762   L 8.075734,2.6659064   L 8.0884918,2.6659064   L 8.0884918,2.6912959   L 8.1012497,2.6912959   L 8.1012497,2.7039907   L 8.1267655,2.7039907   L 8.1267655,2.7166855   L 9.1473954,2.7166855   L 9.1473954,2.3485365   L 8.0502182,2.3485365   L 8.0502182,2.3612313   L 8.0247025,2.3612313   L 8.0247025,2.3739261   L 8.0119446,2.3739261   L 8.0119446,2.3993157   L 7.9991867,2.3993157   L 7.9991867,3.605321   L 8.0119446,3.605321   L 8.0119446,3.6307106   L 8.0247025,3.6307106   L 8.0247025,3.6434053   L 8.0374604,3.6434053   L 8.0374604,3.6561001   L 7.7057556,3.6561001   L 7.6929978,3.6434053   L 7.6802399,3.6434053   L 7.6419663,3.605321   L 7.6419663,3.5926262   L 7.6292084,3.5799314   L 7.6292084,2.1073355   L 7.6419663,2.0946407   L 7.6419663,2.0819459   L 7.6547241,2.0692511   L 7.667482,2.0692511   L 7.667482,2.0565563   L 7.6802399,2.0438615   L 7.6929978,2.0438615   L 7.7057556,2.0311667   L 9.4408264,2.0311667   L 9.4535843,2.0438615   L 9.4663422,2.0438615   L 9.5046158,2.0819459   L 9.5046158,2.0946407   L 9.5173737,2.1073355   L 9.5173737,2.9071074   L 9.5046158,2.9198022   L 9.5046158,2.9451918   L 9.4918579,2.9451918   L 9.4918579,2.9578866   L 9.4791001,2.9705814   L 9.4791001,2.9832762   L 9.4663422,2.9832762   L 9.4663422,2.9959709   L 9.4535843,2.9959709   L 9.4535843,3.0086657   L 9.4408264,3.0086657   L 9.4408264,3.0213605   L 9.4280686,3.0213605   L 9.4153107,3.0340553   L 9.4280686,3.0467501   L 9.4408264,3.0467501   L 9.4408264,3.0594449   L 9.4535843,3.0594449   L 9.4535843,3.0721397   L 9.4663422,3.0721397   L 9.4663422,3.0848345   L 9.4791001,3.0848345   L 9.4791001,3.0975293   L 9.4918579,3.1102241   L 9.4918579,3.1229189   L 9.5046158,3.1229189   L 9.5046158,3.1483085   L 9.5173737,3.1610032   L 9.5173737,3.605321   L 9.5301316,3.605321   L 9.5301316,3.6307106   L 9.5428894,3.6307106   L 9.5428894,3.6434053   L 9.5556473,3.6434053   L 9.5556473,3.6561001   L 9.2239426,3.6561001   L 9.2111847,3.6434053   L 9.1984268,3.6434053   L 9.1601532,3.605321   L 9.1601532,3.5926262   L 9.1473954,3.5799314   L 9.1473954,3.0340553   L 8.1650391,3.0340553   L 8.1522812,3.0340553   z "
     id="path61" />
  <path
     style="fill:#000000;fill-rule:evenodd;fill-opacity:1;stroke:#000000;stroke-width:0.012757873px;stroke-linecap:round;stroke-linejoin:round;stroke-miterlimit:4;stroke-dasharray:none;stroke-opacity:1;"
     d="  M 10.180783,2.3485365   L 9.7980469,2.3485365   L 9.785289,2.3358418   L 9.7725312,2.3358418   L 9.7342575,2.2977574   L 9.7342575,2.2850626   L 9.7214997,2.2723678   L 9.7214997,2.1073355   L 9.7342575,2.0946407   L 9.7342575,2.0819459   L 9.7470154,2.0692511   L 9.7597733,2.0692511   L 9.7597733,2.0565563   L 9.7725312,2.0438615   L 9.785289,2.0438615   L 9.7980469,2.0311667   L 11.533118,2.0311667   L 11.545876,2.0438615   L 11.558633,2.0438615   L 11.596907,2.0819459   L 11.596907,2.0946407   L 11.609665,2.1073355   L 11.609665,2.3993157   L 11.596907,2.3993157   L 11.596907,2.3866209   L 11.584149,2.3866209   L 11.584149,2.3739261   L 11.571391,2.3739261   L 11.571391,2.3612313   L 11.545876,2.3612313   L 11.545876,2.3485365   L 10.601793,2.3485365   L 10.601793,2.3612313   L 10.576277,2.3612313   L 10.576277,2.3739261   L 10.563519,2.3739261   L 10.563519,2.3993157   L 10.550761,2.3993157   L 10.550761,3.605321   L 10.563519,3.605321   L 10.563519,3.6307106   L 10.576277,3.6307106   L 10.576277,3.6434053   L 10.589035,3.6434053   L 10.589035,3.6561001   L 10.25733,3.6561001   L 10.244572,3.6434053   L 10.231815,3.6434053   L 10.193541,3.605321   L 10.193541,3.5926262   L 10.180783,3.5799314   L 10.180783,2.3866209   L 10.180783,2.3485365   z "
     id="path63" />
  <path
     style="fill:#000000;fill-rule:evenodd;fill-opacity:1;stroke:#000000;stroke-width:0.012757873px;stroke-linecap:round;stroke-linejoin:round;stroke-miterlimit:4;stroke-dasharray:none;stroke-opacity:1;"
     d="  M 12.183769,3.5672366   L 12.183769,3.605321   L 12.196527,3.605321   L 12.196527,3.6307106   L 12.209285,3.6307106   L 12.209285,3.6434053   L 12.222043,3.6434053   L 12.222043,3.6561001   L 11.890338,3.6561001   L 11.87758,3.6434053   L 11.864822,3.6434053   L 11.826549,3.605321   L 11.826549,3.5926262   L 11.813791,3.5799314   L 11.813791,2.0819459   L 11.801033,2.0819459   L 11.801033,2.0565563   L 11.788275,2.0565563   L 11.788275,2.0438615   L 11.775517,2.0438615   L 11.775517,2.0311667   L 12.107222,2.0311667   L 12.11998,2.0438615   L 12.132738,2.0438615   L 12.171011,2.0819459   L 12.171011,2.0946407   L 12.183769,2.1073355   L 12.183769,3.5545418   L 12.183769,3.5672366   z "
     id="path65" />
  <path
     style="fill:#000000;fill-rule:evenodd;fill-opacity:1;stroke:#000000;stroke-width:0.012757873px;stroke-linecap:round;stroke-linejoin:round;stroke-miterlimit:4;stroke-dasharray:none;stroke-opacity:1;"
     d="  M 13.995387,2.3485365   L 12.89821,2.3485365   L 12.89821,2.3612313   L 12.872694,2.3612313   L 12.872694,2.3739261   L 12.859937,2.3739261   L 12.859937,2.3993157   L 12.847179,2.3993157   L 12.847179,3.605321   L 12.859937,3.605321   L 12.859937,3.6307106   L 12.872694,3.6307106   L 12.872694,3.6434053   L 12.885452,3.6434053   L 12.885452,3.6561001   L 12.553748,3.6561001   L 12.54099,3.6434053   L 12.528232,3.6434053   L 12.489958,3.605321   L 12.489958,3.5926262   L 12.4772,3.5799314   L 12.4772,2.1073355   L 12.489958,2.0946407   L 12.489958,2.0819459   L 12.502716,2.0692511   L 12.515474,2.0692511   L 12.515474,2.0565563   L 12.528232,2.0438615   L 12.54099,2.0438615   L 12.553748,2.0311667   L 14.288818,2.0311667   L 14.301576,2.0438615   L 14.314334,2.0438615   L 14.352608,2.0819459   L 14.352608,2.0946407   L 14.365366,2.1073355   L 14.365366,3.605321   L 14.378124,3.605321   L 14.378124,3.6307106   L 14.390881,3.6307106   L 14.390881,3.6434053   L 14.403639,3.6434053   L 14.403639,3.6561001   L 14.071935,3.6561001   L 14.059177,3.6434053   L 14.046419,3.6434053   L 14.008145,3.605321   L 14.008145,3.5926262   L 13.995387,3.5799314   L 13.995387,2.3866209   L 13.995387,2.3485365   z "
     id="path67" />
  <path
     style="fill:#000000;fill-rule:evenodd;fill-opacity:1;stroke:#000000;stroke-width:0.012757873px;stroke-linecap:round;stroke-linejoin:round;stroke-miterlimit:4;stroke-dasharray:none;stroke-opacity:1;"
     d="  M 16.240773,2.7166855   L 15.067049,2.7166855   L 15.054291,2.7039907   L 15.041533,2.7039907   L 15.041533,2.6912959   L 15.028775,2.6912959   L 15.028775,2.6659064   L 15.016017,2.6659064   L 15.016017,2.9832762   L 15.028775,2.9832762   L 15.028775,3.0086657   L 15.041533,3.0086657   L 15.041533,3.0213605   L 15.054291,3.0213605   L 15.067049,3.0340553   L 16.253531,3.0340553   L 16.279047,3.0086657   L 16.291805,3.0086657   L 16.31732,2.9832762   L 16.31732,2.9705814   L 16.330078,2.9578866   L 16.330078,2.9451918   L 16.342836,2.932497   L 16.342836,2.9071074   L 16.355594,2.8944126   L 16.355594,2.8436334   L 16.342836,2.8309387   L 16.342836,2.7928543   L 16.330078,2.7928543   L 16.330078,2.7801595   L 16.291805,2.7420751   L 16.279047,2.7420751   L 16.279047,2.7293803   L 16.266289,2.7293803   L 16.253531,2.7166855   L 16.240773,2.7166855   z "
     id="path69" />
  <path
     style="fill:#000000;fill-rule:evenodd;fill-opacity:1;stroke:#000000;stroke-width:0.012757873px;stroke-linecap:round;stroke-linejoin:round;stroke-miterlimit:4;stroke-dasharray:none;stroke-opacity:1;"
     d="  M 17.121066,2.3485365   L 16.73833,2.3485365   L 16.725572,2.3358418   L 16.712814,2.3358418   L 16.674541,2.2977574   L 16.674541,2.2850626   L 16.661783,2.2723678   L 16.661783,2.1073355   L 16.674541,2.0946407   L 16.674541,2.0819459   L 16.687299,2.0692511   L 16.700057,2.0692511   L 16.700057,2.0565563   L 16.712814,2.0438615   L 16.725572,2.0438615   L 16.73833,2.0311667   L 18.473401,2.0311667   L 18.486159,2.0438615   L 18.498917,2.0438615   L 18.53719,2.0819459   L 18.53719,2.0946407   L 18.549948,2.1073355   L 18.549948,2.3993157   L 18.53719,2.3993157   L 18.53719,2.3866209   L 18.524432,2.3866209   L 18.524432,2.3739261   L 18.511675,2.3739261   L 18.511675,2.3612313   L 18.486159,2.3612313   L 18.486159,2.3485365   L 17.542076,2.3485365   L 17.542076,2.3612313   L 17.51656,2.3612313   L 17.51656,2.3739261   L 17.503803,2.3739261   L 17.503803,2.3993157   L 17.491045,2.3993157   L 17.491045,3.605321   L 17.503803,3.605321   L 17.503803,3.6307106   L 17.51656,3.6307106   L 17.51656,3.6434053   L 17.529318,3.6434053   L 17.529318,3.6561001   L 17.197614,3.6561001   L 17.184856,3.6434053   L 17.172098,3.6434053   L 17.133824,3.605321   L 17.133824,3.5926262   L 17.121066,3.5799314   L 17.121066,2.3866209   L 17.121066,2.3485365   z "
     id="path71" />
  <path
     style="fill:#000000;fill-rule:evenodd;fill-opacity:1;stroke:#000000;stroke-width:0.012757873px;stroke-linecap:round;stroke-linejoin:round;stroke-miterlimit:4;stroke-dasharray:none;stroke-opacity:1;"
     d="  M 16.368352,3.3387303   L 16.393868,3.3387303   L 16.393868,3.3260355   L 16.419383,3.3260355   L 16.419383,3.3133408   L 16.432141,3.3133408   L 16.432141,3.300646   L 16.444899,3.300646   L 16.444899,3.2879512   L 16.457657,3.2879512   L 16.457657,3.5799314   L 16.444899,3.5926262   L 16.444899,3.605321   L 16.432141,3.6180158   L 16.432141,3.6307106   L 16.419383,3.6307106   L 16.406625,3.6434053   L 16.393868,3.6434053   L 16.38111,3.6561001   L 14.646039,3.6561001   L 14.633281,3.6434053   L 14.620523,3.6434053   L 14.582249,3.605321   L 14.582249,3.5926262   L 14.569492,3.5799314   L 14.569492,2.1073355   L 14.582249,2.0946407   L 14.582249,2.0819459   L 14.595007,2.0692511   L 14.607765,2.0692511   L 14.607765,2.0565563   L 14.620523,2.0438615   L 14.633281,2.0438615   L 14.646039,2.0311667   L 16.38111,2.0311667   L 16.393868,2.0438615   L 16.406625,2.0438615   L 16.444899,2.0819459   L 16.444899,2.0946407   L 16.457657,2.1073355   L 16.457657,2.3993157   L 16.444899,2.3993157   L 16.444899,2.3866209   L 16.432141,2.3866209   L 16.432141,2.3739261   L 16.419383,2.3739261   L 16.419383,2.3612313   L 16.393868,2.3612313   L 16.393868,2.3485365   L 14.990501,2.3485365   L 14.990501,2.3612313   L 14.964986,2.3612313   L 14.964986,2.3739261   L 14.952228,2.3739261   L 14.952228,2.3993157   L 14.93947,2.3993157   L 14.93947,3.3387303   L 16.355594,3.3387303   L 16.368352,3.3387303   z "
     id="path73" />
  <path
     style="fill:#ff0000;fill-rule:evenodd;fill-opacity:1;stroke:#ff0000;stroke-width:0.012757873px;stroke-linecap:round;stroke-linejoin:round;stroke-miterlimit:4;stroke-dasharray:none;stroke-opacity:1;"
     d="  M 6.1748108,3.1863928   L 6.1748108,3.6561001   L 6.7871887,3.6561001   L 6.7871887,3.1863928   L 6.1748108,3.1863928   z "
     id="path75" />
  <path
     style="fill:#ff0000;fill-rule:evenodd;fill-opacity:1;stroke:#ff0000;stroke-width:0.012757873px;stroke-linecap:round;stroke-linejoin:round;stroke-miterlimit:4;stroke-dasharray:none;stroke-opacity:1;"
     d="  M 5.5369171,2.6151272   L 6.0599899,2.6151272   L 6.0599899,3.0721397   L 5.5369171,3.0721397   L 5.5369171,2.6151272   z "
     id="path77" />
  <path
     style="fill:#ff0000;fill-rule:evenodd;fill-opacity:1;stroke:#ff0000;stroke-width:0.012757873px;stroke-linecap:round;stroke-linejoin:round;stroke-miterlimit:4;stroke-dasharray:none;stroke-opacity:1;"
     d="  M 6.9020096,3.1863928   L 6.9020096,3.6561001   L 7.0933777,3.6561001   L 7.1061356,3.6434053   L 7.1571671,3.6434053   L 7.169925,3.6307106   L 7.1954407,3.6307106   L 7.2209564,3.6180158   L 7.2337143,3.605321   L 7.2592301,3.5926262   L 7.2847458,3.5672366   L 7.3102616,3.5545418   L 7.3230194,3.541847   L 7.3357773,3.5164574   L 7.3485352,3.5037626   L 7.3995667,3.4022043   L 7.3995667,3.3768147   L 7.4123245,3.3387303   L 7.4123245,3.300646   L 7.4250824,3.2625616   L 7.4250824,3.1863928   L 6.9147675,3.1863928   L 6.9020096,3.1863928   z "
     id="path79" />
  <path
     style="fill:#ff0000;fill-rule:evenodd;fill-opacity:1;stroke:#ff0000;stroke-width:0.012757873px;stroke-linecap:round;stroke-linejoin:round;stroke-miterlimit:4;stroke-dasharray:none;stroke-opacity:1;"
     d="  M 6.9020096,2.6151272   L 7.4250824,2.6151272   L 7.4250824,3.0721397   L 6.9020096,3.0721397   L 6.9020096,2.6151272   z "
     id="path81" />
  <path
     style="fill:#ff0000;fill-rule:evenodd;fill-opacity:1;stroke:#ff0000;stroke-width:0.012757873px;stroke-linecap:round;stroke-linejoin:round;stroke-miterlimit:4;stroke-dasharray:none;stroke-opacity:1;"
     d="  M 6.0599899,3.1863928   L 6.0599899,3.6561001   L 5.8686218,3.6561001   L 5.855864,3.6434053   L 5.8048325,3.6434053   L 5.7920746,3.6307106   L 5.7665589,3.6307106   L 5.7410431,3.6180158   L 5.7282852,3.605321   L 5.7027695,3.5926262   L 5.6772537,3.5672366   L 5.651738,3.5545418   L 5.6389801,3.541847   L 5.6262222,3.5164574   L 5.6134644,3.5037626   L 5.5624329,3.4022043   L 5.5624329,3.3768147   L 5.549675,3.3387303   L 5.549675,3.300646   L 5.5369171,3.2625616   L 5.5369171,3.1863928   L 6.0472321,3.1863928   L 6.0599899,3.1863928   z "
     id="path83" />
  <path
     style="fill:#ff0000;fill-rule:evenodd;fill-opacity:1;stroke:#ff0000;stroke-width:0.012757873px;stroke-linecap:round;stroke-linejoin:round;stroke-miterlimit:4;stroke-dasharray:none;stroke-opacity:1;"
     d="  M 6.1748108,2.0311667   L 6.1748108,2.5008741   L 6.7871887,2.5008741   L 6.7871887,2.0311667   L 6.1748108,2.0311667   z "
     id="path85" />
  <path
     style="fill:#ff0000;fill-rule:evenodd;fill-opacity:1;stroke:#ff0000;stroke-width:0.012757873px;stroke-linecap:round;stroke-linejoin:round;stroke-miterlimit:4;stroke-dasharray:none;stroke-opacity:1;"
     d="  M 6.9020096,2.5008741   L 6.9020096,2.0311667   L 7.0933777,2.0311667   L 7.1061356,2.0438615   L 7.1571671,2.0438615   L 7.169925,2.0565563   L 7.1954407,2.0565563   L 7.2209564,2.0692511   L 7.2337143,2.0819459   L 7.2592301,2.0946407   L 7.2847458,2.1200303   L 7.3102616,2.1327251   L 7.3230194,2.1454199   L 7.3357773,2.1708095   L 7.3485352,2.1835043   L 7.3995667,2.2850626   L 7.3995667,2.3104522   L 7.4123245,2.3485365   L 7.4123245,2.3866209   L 7.4250824,2.4247053   L 7.4250824,2.5008741   L 6.9147675,2.5008741   L 6.9020096,2.5008741   z "
     id="path87" />
  <path
     style="fill:#ff0000;fill-rule:evenodd;fill-opacity:1;stroke:#ff0000;stroke-width:0.012757873px;stroke-linecap:round;stroke-linejoin:round;stroke-miterlimit:4;stroke-dasharray:none;stroke-opacity:1;"
     d="  M 6.0599899,2.5008741   L 6.0599899,2.0311667   L 5.8686218,2.0311667   L 5.855864,2.0438615   L 5.8048325,2.0438615   L 5.7920746,2.0565563   L 5.7665589,2.0565563   L 5.7410431,2.0692511   L 5.7282852,2.0819459   L 5.7027695,2.0946407   L 5.6772537,2.1200303   L 5.651738,2.1327251   L 5.6389801,2.1454199   L 5.6262222,2.1708095   L 5.6134644,2.1835043   L 5.5624329,2.2850626   L 5.5624329,2.3104522   L 5.549675,2.3485365   L 5.549675,2.3866209   L 5.5369171,2.4247053   L 5.5369171,2.5008741   L 6.0472321,2.5008741   L 6.0599899,2.5008741   z "
     id="path89" />
  <text
     xml:space="preserve"
     style="font-size:0.625000px;font-style:normal;font-variant:normal;font-weight:400;font-stretch:Condensed;line-height:125.000000%;letter-spacing:0px;word-spacing:0px;fill:#000000;fill-opacity:1;stroke:none;font-family:Times New Roman;text-align:start;text-anchor:start;"
     transform="matrix(1.000000,-0.000000,0.000000,1.000000,18.053463,3.737348)"
     x="0.000000"
     y="0.000000"
     id="text95"><tspan
       x="0.000000"
       y="0.000000"
       id="tspan93"><tspan
         dx="0.000000"
         dy="0.000000"
         style="fill:#000000;font-size:0.625000px;font-style:normal;font-variant:normal;font-weight:400;font-stretch:Condensed;font-family:Times New Roman;"
         id="tspan91">®</tspan></tspan></text>
  <text
     xml:space="preserve"
     style="font-size:2.000000px;font-style:normal;font-variant:normal;font-weight:700;font-stretch:Normal;line-height:125.000000%;letter-spacing:0px;word-spacing:0px;fill:#000000;fill-opacity:1;stroke:none;font-family:Arial;text-align:start;text-anchor:start;"
     transform="matrix(1.000000,-0.000000,0.000000,1.000000,98.126937,1.800615)"
     x="0.000000"
     y="1.458000"
     id="text103"><tspan
       x="0.000000"
       y="1.458000"
       id="tspan101"><tspan
         dx="0.000000"
         dy="0.000000"
         style="fill:#000000;font-size:2.000000px;font-style:normal;font-variant:normal;font-weight:700;font-stretch:Normal;font-family:Arial;"
         id="tspan97">FortiSwitch 108E-</tspan><tspan
         dx="-0.096575"
         dy="0.000000"
         style="fill:#FF0000;font-size:2.000000px;font-style:normal;font-variant:normal;font-weight:700;font-stretch:Normal;font-family:Arial;"
         id="tspan99">  FPOE</tspan></tspan></text>
  <text
     xml:space="preserve"
     style="font-size:0.875000px;font-style:normal;font-variant:normal;font-weight:400;font-stretch:Normal;line-height:125.000000%;letter-spacing:0px;word-spacing:0px;fill:#000000;fill-opacity:1;stroke:none;font-family:Arial;text-align:start;text-anchor:start;"
     transform="matrix(1.000000,-0.000000,0.000000,1.000000,98.126937,1.800615)"
     x="-54.456705"
     y="11.441564"
     id="text109"><tspan
       x="-54.456705"
       y="11.441564"
       id="tspan107"><tspan
         dx="0.000000"
         dy="0.000000"
         style="fill:#000000;font-size:0.875000px;font-style:normal;font-variant:normal;font-weight:400;font-stretch:Normal;font-family:Arial;"
         id="tspan105">CONSOLE</tspan></tspan></text>
  <text
     xml:space="preserve"
     style="font-size:0.875000px;font-style:normal;font-variant:normal;font-weight:400;font-stretch:Normal;line-height:125.000000%;letter-spacing:0px;word-spacing:0px;fill:#000000;fill-opacity:1;stroke:none;font-family:Arial;text-align:start;text-anchor:start;"
     transform="matrix(1.000000,-0.000000,0.000000,1.000000,98.126937,1.800615)"
     x="-44.868729"
     y="11.441564"
     id="text115"><tspan
       x="-44.868729"
       y="11.441564"
       id="tspan113"><tspan
         dx="0.000000"
         dy="0.000000"
         style="fill:#FF0000;font-size:0.875000px;font-style:normal;font-variant:normal;font-weight:400;font-stretch:Normal;font-family:Arial;"
         id="tspan111">1</tspan></tspan></text>
  <text
     xml:space="preserve"
     style="font-size:0.875000px;font-style:normal;font-variant:normal;font-weight:400;font-stretch:Normal;line-height:125.000000%;letter-spacing:0px;word-spacing:0px;fill:#000000;fill-opacity:1;stroke:none;font-family:Arial;text-align:start;text-anchor:start;"
     transform="matrix(1.000000,-0.000000,0.000000,1.000000,98.126937,1.800615)"
     x="-39.100963"
     y="11.441564"
     id="text121"><tspan
       x="-39.100963"
       y="11.441564"
       id="tspan119"><tspan
         dx="0.000000"
         dy="0.000000"
         style="fill:#FF0000;font-size:0.875000px;font-style:normal;font-variant:normal;font-weight:400;font-stretch:Normal;font-family:Arial;"
         id="tspan117">2</tspan></tspan></text>
  <text
     xml:space="preserve"
     style="font-size:0.875000px;font-style:normal;font-variant:normal;font-weight:400;font-stretch:Normal;line-height:125.000000%;letter-spacing:0px;word-spacing:0px;fill:#000000;fill-opacity:1;stroke:none;font-family:Arial;text-align:start;text-anchor:start;"
     transform="matrix(1.000000,-0.000000,0.000000,1.000000,98.126937,1.800615)"
     x="-33.258290"
     y="11.441564"
     id="text127"><tspan
       x="-33.258290"
       y="11.441564"
       id="tspan125"><tspan
         dx="0.000000"
         dy="0.000000"
         style="fill:#FF0000;font-size:0.875000px;font-style:normal;font-variant:normal;font-weight:400;font-stretch:Normal;font-family:Arial;"
         id="tspan123">3</tspan></tspan></text>
  <text
     xml:space="preserve"
     style="font-size:0.875000px;font-style:normal;font-variant:normal;font-weight:400;font-stretch:Normal;line-height:125.000000%;letter-spacing:0px;word-spacing:0px;fill:#000000;fill-opacity:1;stroke:none;font-family:Arial;text-align:start;text-anchor:start;"
     transform="matrix(1.000000,-0.000000,0.000000,1.000000,98.126937,1.800615)"
     x="-27.490524"
     y="11.441564"
     id="text133"><tspan
       x="-27.490524"
       y="11.441564"
       id="tspan131"><tspan
         dx="0.000000"
         dy="0.000000"
         style="fill:#FF0000;font-size:0.875000px;font-style:normal;font-variant:normal;font-weight:400;font-stretch:Normal;font-family:Arial;"
         id="tspan129">4</tspan></tspan></text>
  <text
     xml:space="preserve"
     style="font-size:0.875000px;font-style:normal;font-variant:normal;font-weight:400;font-stretch:Normal;line-height:125.000000%;letter-spacing:0px;word-spacing:0px;fill:#000000;fill-opacity:1;stroke:none;font-family:Arial;text-align:start;text-anchor:start;"
     transform="matrix(1.000000,-0.000000,0.000000,1.000000,98.126937,1.800615)"
     x="-19.625387"
     y="11.441564"
     id="text139"><tspan
       x="-19.625387"
       y="11.441564"
       id="tspan137"><tspan
         dx="0.000000"
         dy="0.000000"
         style="fill:#FF0000;font-size:0.875000px;font-style:normal;font-variant:normal;font-weight:400;font-stretch:Normal;font-family:Arial;"
         id="tspan135">5</tspan></tspan></text>
  <text
     xml:space="preserve"
     style="font-size:0.875000px;font-style:normal;font-variant:normal;font-weight:400;font-stretch:Normal;line-height:125.000000%;letter-spacing:0px;word-spacing:0px;fill:#000000;fill-opacity:1;stroke:none;font-family:Arial;text-align:start;text-anchor:start;"
     transform="matrix(1.000000,-0.000000,0.000000,1.000000,98.126937,1.800615)"
     x="-13.857621"
     y="11.441564"
     id="text145"><tspan
       x="-13.857621"
       y="11.441564"
       id="tspan143"><tspan
         dx="0.000000"
         dy="0.000000"
         style="fill:#FF0000;font-size:0.875000px;font-style:normal;font-variant:normal;font-weight:400;font-stretch:Normal;font-family:Arial;"
         id="tspan141">6</tspan></tspan></text>
  <text
     xml:space="preserve"
     style="font-size:0.875000px;font-style:normal;font-variant:normal;font-weight:400;font-stretch:Normal;line-height:125.000000%;letter-spacing:0px;word-spacing:0px;fill:#000000;fill-opacity:1;stroke:none;font-family:Arial;text-align:start;text-anchor:start;"
     transform="matrix(1.000000,-0.000000,0.000000,1.000000,98.126937,1.800615)"
     x="-8.014948"
     y="11.441564"
     id="text151"><tspan
       x="-8.014948"
       y="11.441564"
       id="tspan149"><tspan
         dx="0.000000"
         dy="0.000000"
         style="fill:#FF0000;font-size:0.875000px;font-style:normal;font-variant:normal;font-weight:400;font-stretch:Normal;font-family:Arial;"
         id="tspan147">7</tspan></tspan></text>
  <text
     xml:space="preserve"
     style="font-size:0.875000px;font-style:normal;font-variant:normal;font-weight:400;font-stretch:Normal;line-height:125.000000%;letter-spacing:0px;word-spacing:0px;fill:#000000;fill-opacity:1;stroke:none;font-family:Arial;text-align:start;text-anchor:start;"
     transform="matrix(1.000000,-0.000000,0.000000,1.000000,98.126937,1.800615)"
     x="-2.247182"
     y="11.441564"
     id="text157"><tspan
       x="-2.247182"
       y="11.441564"
       id="tspan155"><tspan
         dx="0.000000"
         dy="0.000000"
         style="fill:#FF0000;font-size:0.875000px;font-style:normal;font-variant:normal;font-weight:400;font-stretch:Normal;font-family:Arial;"
         id="tspan153">8</tspan></tspan></text>
  <text
     xml:space="preserve"
     style="font-size:0.875000px;font-style:normal;font-variant:normal;font-weight:400;font-stretch:Normal;line-height:125.000000%;letter-spacing:0px;word-spacing:0px;fill:#000000;fill-opacity:1;stroke:none;font-family:Arial;text-align:start;text-anchor:start;"
     transform="matrix(1.000000,-0.000000,0.000000,1.000000,98.126937,1.800615)"
     x="7.190982"
     y="11.441564"
     id="text163"><tspan
       x="7.190982"
       y="11.441564"
       id="tspan161"><tspan
         dx="0.000000"
         dy="0.000000"
         style="fill:#000000;font-size:0.875000px;font-style:normal;font-variant:normal;font-weight:400;font-stretch:Normal;font-family:Arial;"
         id="tspan159">9</tspan></tspan></text>
  <text
     xml:space="preserve"
     style="font-size:0.875000px;font-style:normal;font-variant:normal;font-weight:400;font-stretch:Normal;line-height:125.000000%;letter-spacing:0px;word-spacing:0px;fill:#000000;fill-opacity:1;stroke:none;font-family:Arial;text-align:start;text-anchor:start;"
     transform="matrix(1.000000,-0.000000,0.000000,1.000000,98.126937,1.800615)"
     x="16.104803"
     y="11.441564"
     id="text169"><tspan
       x="16.104803"
       y="11.441564"
       id="tspan167"><tspan
         dx="0.000000"
         dy="0.000000"
         style="fill:#000000;font-size:0.875000px;font-style:normal;font-variant:normal;font-weight:400;font-stretch:Normal;font-family:Arial;"
         id="tspan165">10</tspan></tspan></text>
  <text
     xml:space="preserve"
     style="font-size:0.687500px;font-style:normal;font-variant:normal;font-weight:400;font-stretch:Normal;line-height:125.000000%;letter-spacing:0px;word-spacing:0px;fill:#000000;fill-opacity:1;stroke:none;font-family:Arial;text-align:start;text-anchor:start;"
     transform="matrix(1.000000,-0.000000,0.000000,1.000000,98.126937,1.800615)"
     x="10.636660"
     y="8.378878"
     id="text175"><tspan
       x="10.636660"
       y="8.378878"
       id="tspan173"><tspan
         dx="0.000000"
         dy="0.000000"
         style="fill:#000000;font-size:0.687500px;font-style:normal;font-variant:normal;font-weight:400;font-stretch:Normal;font-family:Arial;"
         id="tspan171">LINK/ACT</tspan></tspan></text>
  <text
     xml:space="preserve"
     style="font-size:0.687500px;font-style:normal;font-variant:normal;font-weight:400;font-stretch:Normal;line-height:125.000000%;letter-spacing:0px;word-spacing:0px;fill:#000000;fill-opacity:1;stroke:none;font-family:Arial;text-align:start;text-anchor:start;"
     transform="matrix(1.000000,-0.000000,0.000000,1.000000,98.126937,1.800615)"
     x="1.423215"
     y="8.378878"
     id="text181"><tspan
       x="1.423215"
       y="8.378878"
       id="tspan179"><tspan
         dx="0.000000"
         dy="0.000000"
         style="fill:#000000;font-size:0.687500px;font-style:normal;font-variant:normal;font-weight:400;font-stretch:Normal;font-family:Arial;"
         id="tspan177">LINK/ACT</tspan></tspan></text>
  <path
     style="fill:#000000;fill-rule:evenodd;fill-opacity:1;stroke:#161616;stroke-width:0.018579949px;stroke-linecap:round;stroke-linejoin:round;stroke-miterlimit:4;stroke-dasharray:none;stroke-opacity:1;"
     d="  M 43.588562,11.220147   L 43.588562,8.3873378   L 44.777678,8.3873378   L 44.777678,7.7207944   L 45.260757,7.7207944   L 45.260757,7.054251   L 46.672833,7.054251   L 46.672833,7.7207944   L 47.155912,7.7207944   L 47.155912,8.3873378   L 48.345029,8.3873378   L 48.345029,11.220147   L 43.588562,11.220147   z "
     id="path183" />
  <path
     style="fill:#000000;fill-rule:evenodd;fill-opacity:1;stroke:#000000;stroke-width:0.018726515px;stroke-linecap:round;stroke-linejoin:round;stroke-miterlimit:4;stroke-dasharray:none;stroke-opacity:1;"
     d="  M 52.808771,7.1283114   L 52.808771,7.3319774   L 52.509147,7.3319774   L 52.509147,7.9059454   L 51.254471,7.9059454   L 51.254471,7.9614906   L 50.861214,7.9614906   L 50.861214,7.3319774   L 50.93612,7.3319774   L 50.93612,7.9059454   L 51.254471,7.9059454   L 51.254471,9.1834869   L 51.385556,9.1834869   L 51.385556,9.8500303   L 51.254471,9.8500303   L 51.254471,11.294208   L 56.048458,11.294208   L 56.048458,9.8500303   L 55.917373,9.8500303   L 55.917373,9.1834869   L 56.048458,9.1834869   L 56.048458,7.9059454   L 56.366809,7.9059454   L 56.366809,7.3319774   L 56.441715,7.3319774   L 56.441715,7.9614906   L 56.048458,7.9614906   L 56.048458,7.9059454   L 54.793782,7.9059454   L 54.793782,7.3319774   L 54.494158,7.3319774   L 54.494158,7.1283114   L 52.808771,7.1283114   z "
     id="path185" />
  <path
     style="fill:#000000;fill-rule:evenodd;fill-opacity:1;stroke:#494949;stroke-width:0.018726515px;stroke-linecap:round;stroke-linejoin:round;stroke-miterlimit:4;stroke-dasharray:none;stroke-opacity:1;"
     d="  M 52.509147,7.3504925   L 50.93612,7.3504925   L 50.93612,7.9244605   L 52.509147,7.9244605   L 52.509147,7.3504925   z "
     id="path187" />
  <path
     style="fill:#000000;fill-rule:evenodd;fill-opacity:1;stroke:#494949;stroke-width:0.018726515px;stroke-linecap:round;stroke-linejoin:round;stroke-miterlimit:4;stroke-dasharray:none;stroke-opacity:1;"
     d="  M 56.366809,7.3504925   L 54.793782,7.3504925   L 54.793782,7.9244605   L 56.366809,7.9244605   L 56.366809,7.3504925   z "
     id="path189" />
  <path
     style="fill:#000000;fill-rule:evenodd;fill-opacity:1;stroke:#000000;stroke-width:0.018726515px;stroke-linecap:round;stroke-linejoin:round;stroke-miterlimit:4;stroke-dasharray:none;stroke-opacity:1;"
     d="  M 58.651444,7.1283114   L 58.651444,7.3319774   L 58.35182,7.3319774   L 58.35182,7.9059454   L 57.097143,7.9059454   L 57.097143,7.9614906   L 56.703886,7.9614906   L 56.703886,7.3319774   L 56.778792,7.3319774   L 56.778792,7.9059454   L 57.097143,7.9059454   L 57.097143,9.1834869   L 57.228229,9.1834869   L 57.228229,9.8500303   L 57.097143,9.8500303   L 57.097143,11.294208   L 61.891131,11.294208   L 61.891131,9.8500303   L 61.760045,9.8500303   L 61.760045,9.1834869   L 61.891131,9.1834869   L 61.891131,7.9059454   L 62.209482,7.9059454   L 62.209482,7.3319774   L 62.284388,7.3319774   L 62.284388,7.9614906   L 61.891131,7.9614906   L 61.891131,7.9059454   L 60.636455,7.9059454   L 60.636455,7.3319774   L 60.33683,7.3319774   L 60.33683,7.1283114   L 58.651444,7.1283114   z "
     id="path191" />
  <path
     style="fill:#000000;fill-rule:evenodd;fill-opacity:1;stroke:#494949;stroke-width:0.018726515px;stroke-linecap:round;stroke-linejoin:round;stroke-miterlimit:4;stroke-dasharray:none;stroke-opacity:1;"
     d="  M 58.35182,7.3504925   L 56.778792,7.3504925   L 56.778792,7.9244605   L 58.35182,7.9244605   L 58.35182,7.3504925   z "
     id="path193" />
  <path
     style="fill:#000000;fill-rule:evenodd;fill-opacity:1;stroke:#494949;stroke-width:0.018726515px;stroke-linecap:round;stroke-linejoin:round;stroke-miterlimit:4;stroke-dasharray:none;stroke-opacity:1;"
     d="  M 62.209482,7.3504925   L 60.636455,7.3504925   L 60.636455,7.9244605   L 62.209482,7.9244605   L 62.209482,7.3504925   z "
     id="path195" />
  <path
     style="fill:#000000;fill-rule:evenodd;fill-opacity:1;stroke:#000000;stroke-width:0.018726515px;stroke-linecap:round;stroke-linejoin:round;stroke-miterlimit:4;stroke-dasharray:none;stroke-opacity:1;"
     d="  M 64.41921,7.1283114   L 64.41921,7.3319774   L 64.119586,7.3319774   L 64.119586,7.9059454   L 62.86491,7.9059454   L 62.86491,7.9614906   L 62.471653,7.9614906   L 62.471653,7.3319774   L 62.546559,7.3319774   L 62.546559,7.9059454   L 62.86491,7.9059454   L 62.86491,9.1834869   L 62.995995,9.1834869   L 62.995995,9.8500303   L 62.86491,9.8500303   L 62.86491,11.294208   L 67.658898,11.294208   L 67.658898,9.8500303   L 67.527812,9.8500303   L 67.527812,9.1834869   L 67.658898,9.1834869   L 67.658898,7.9059454   L 67.977248,7.9059454   L 67.977248,7.3319774   L 68.052154,7.3319774   L 68.052154,7.9614906   L 67.658898,7.9614906   L 67.658898,7.9059454   L 66.404221,7.9059454   L 66.404221,7.3319774   L 66.104597,7.3319774   L 66.104597,7.1283114   L 64.41921,7.1283114   z "
     id="path197" />
  <path
     style="fill:#000000;fill-rule:evenodd;fill-opacity:1;stroke:#494949;stroke-width:0.018726515px;stroke-linecap:round;stroke-linejoin:round;stroke-miterlimit:4;stroke-dasharray:none;stroke-opacity:1;"
     d="  M 64.119586,7.3504925   L 62.546559,7.3504925   L 62.546559,7.9244605   L 64.119586,7.9244605   L 64.119586,7.3504925   z "
     id="path199" />
  <path
     style="fill:#000000;fill-rule:evenodd;fill-opacity:1;stroke:#494949;stroke-width:0.018726515px;stroke-linecap:round;stroke-linejoin:round;stroke-miterlimit:4;stroke-dasharray:none;stroke-opacity:1;"
     d="  M 67.977248,7.3504925   L 66.404221,7.3504925   L 66.404221,7.9244605   L 67.977248,7.9244605   L 67.977248,7.3504925   z "
     id="path201" />
  <path
     style="fill:#000000;fill-rule:evenodd;fill-opacity:1;stroke:#000000;stroke-width:0.018726515px;stroke-linecap:round;stroke-linejoin:round;stroke-miterlimit:4;stroke-dasharray:none;stroke-opacity:1;"
     d="  M 70.186977,7.1283114   L 70.186977,7.3319774   L 69.887353,7.3319774   L 69.887353,7.9059454   L 68.632676,7.9059454   L 68.632676,7.9614906   L 68.239419,7.9614906   L 68.239419,7.3319774   L 68.314326,7.3319774   L 68.314326,7.9059454   L 68.632676,7.9059454   L 68.632676,9.1834869   L 68.763762,9.1834869   L 68.763762,9.8500303   L 68.632676,9.8500303   L 68.632676,11.294208   L 73.426664,11.294208   L 73.426664,9.8500303   L 73.295578,9.8500303   L 73.295578,9.1834869   L 73.426664,9.1834869   L 73.426664,7.9059454   L 73.745015,7.9059454   L 73.745015,7.3319774   L 73.819921,7.3319774   L 73.819921,7.9614906   L 73.426664,7.9614906   L 73.426664,7.9059454   L 72.171988,7.9059454   L 72.171988,7.3319774   L 71.872363,7.3319774   L 71.872363,7.1283114   L 70.186977,7.1283114   z "
     id="path203" />
  <path
     style="fill:#000000;fill-rule:evenodd;fill-opacity:1;stroke:#494949;stroke-width:0.018726515px;stroke-linecap:round;stroke-linejoin:round;stroke-miterlimit:4;stroke-dasharray:none;stroke-opacity:1;"
     d="  M 69.887353,7.3504925   L 68.314326,7.3504925   L 68.314326,7.9244605   L 69.887353,7.9244605   L 69.887353,7.3504925   z "
     id="path205" />
  <path
     style="fill:#000000;fill-rule:evenodd;fill-opacity:1;stroke:#494949;stroke-width:0.018726515px;stroke-linecap:round;stroke-linejoin:round;stroke-miterlimit:4;stroke-dasharray:none;stroke-opacity:1;"
     d="  M 73.745015,7.3504925   L 72.171988,7.3504925   L 72.171988,7.9244605   L 73.745015,7.9244605   L 73.745015,7.3504925   z "
     id="path207" />
  <path
     style="fill:#000000;fill-rule:evenodd;fill-opacity:1;stroke:#000000;stroke-width:0.018726515px;stroke-linecap:round;stroke-linejoin:round;stroke-miterlimit:4;stroke-dasharray:none;stroke-opacity:1;"
     d="  M 78.052113,7.1283114   L 78.052113,7.3319774   L 77.752489,7.3319774   L 77.752489,7.9059454   L 76.497812,7.9059454   L 76.497812,7.9614906   L 76.104556,7.9614906   L 76.104556,7.3319774   L 76.179462,7.3319774   L 76.179462,7.9059454   L 76.497812,7.9059454   L 76.497812,9.1834869   L 76.628898,9.1834869   L 76.628898,9.8500303   L 76.497812,9.8500303   L 76.497812,11.294208   L 81.2918,11.294208   L 81.2918,9.8500303   L 81.160715,9.8500303   L 81.160715,9.1834869   L 81.2918,9.1834869   L 81.2918,7.9059454   L 81.610151,7.9059454   L 81.610151,7.3319774   L 81.685057,7.3319774   L 81.685057,7.9614906   L 81.2918,7.9614906   L 81.2918,7.9059454   L 80.037124,7.9059454   L 80.037124,7.3319774   L 79.737499,7.3319774   L 79.737499,7.1283114   L 78.052113,7.1283114   z "
     id="path209" />
  <path
     style="fill:#000000;fill-rule:evenodd;fill-opacity:1;stroke:#494949;stroke-width:0.018726515px;stroke-linecap:round;stroke-linejoin:round;stroke-miterlimit:4;stroke-dasharray:none;stroke-opacity:1;"
     d="  M 77.752489,7.3504925   L 76.179462,7.3504925   L 76.179462,7.9244605   L 77.752489,7.9244605   L 77.752489,7.3504925   z "
     id="path211" />
  <path
     style="fill:#000000;fill-rule:evenodd;fill-opacity:1;stroke:#494949;stroke-width:0.018726515px;stroke-linecap:round;stroke-linejoin:round;stroke-miterlimit:4;stroke-dasharray:none;stroke-opacity:1;"
     d="  M 81.610151,7.3504925   L 80.037124,7.3504925   L 80.037124,7.9244605   L 81.610151,7.9244605   L 81.610151,7.3504925   z "
     id="path213" />
  <path
     style="fill:#000000;fill-rule:evenodd;fill-opacity:1;stroke:#000000;stroke-width:0.018726515px;stroke-linecap:round;stroke-linejoin:round;stroke-miterlimit:4;stroke-dasharray:none;stroke-opacity:1;"
     d="  M 83.894786,7.1283114   L 83.894786,7.3319774   L 83.595162,7.3319774   L 83.595162,7.9059454   L 82.340485,7.9059454   L 82.340485,7.9614906   L 81.947228,7.9614906   L 81.947228,7.3319774   L 82.022134,7.3319774   L 82.022134,7.9059454   L 82.340485,7.9059454   L 82.340485,9.1834869   L 82.471571,9.1834869   L 82.471571,9.8500303   L 82.340485,9.8500303   L 82.340485,11.294208   L 87.134473,11.294208   L 87.134473,9.8500303   L 87.003387,9.8500303   L 87.003387,9.1834869   L 87.134473,9.1834869   L 87.134473,7.9059454   L 87.452824,7.9059454   L 87.452824,7.3319774   L 87.52773,7.3319774   L 87.52773,7.9614906   L 87.134473,7.9614906   L 87.134473,7.9059454   L 85.879796,7.9059454   L 85.879796,7.3319774   L 85.580172,7.3319774   L 85.580172,7.1283114   L 83.894786,7.1283114   z "
     id="path215" />
  <path
     style="fill:#000000;fill-rule:evenodd;fill-opacity:1;stroke:#494949;stroke-width:0.018726515px;stroke-linecap:round;stroke-linejoin:round;stroke-miterlimit:4;stroke-dasharray:none;stroke-opacity:1;"
     d="  M 83.595162,7.3504925   L 82.022134,7.3504925   L 82.022134,7.9244605   L 83.595162,7.9244605   L 83.595162,7.3504925   z "
     id="path217" />
  <path
     style="fill:#000000;fill-rule:evenodd;fill-opacity:1;stroke:#494949;stroke-width:0.018726515px;stroke-linecap:round;stroke-linejoin:round;stroke-miterlimit:4;stroke-dasharray:none;stroke-opacity:1;"
     d="  M 87.452824,7.3504925   L 85.879796,7.3504925   L 85.879796,7.9244605   L 87.452824,7.9244605   L 87.452824,7.3504925   z "
     id="path219" />
  <path
     style="fill:#000000;fill-rule:evenodd;fill-opacity:1;stroke:#000000;stroke-width:0.018726515px;stroke-linecap:round;stroke-linejoin:round;stroke-miterlimit:4;stroke-dasharray:none;stroke-opacity:1;"
     d="  M 89.662552,7.1283114   L 89.662552,7.3319774   L 89.362928,7.3319774   L 89.362928,7.9059454   L 88.108252,7.9059454   L 88.108252,7.9614906   L 87.714995,7.9614906   L 87.714995,7.3319774   L 87.789901,7.3319774   L 87.789901,7.9059454   L 88.108252,7.9059454   L 88.108252,9.1834869   L 88.239337,9.1834869   L 88.239337,9.8500303   L 88.108252,9.8500303   L 88.108252,11.294208   L 92.902239,11.294208   L 92.902239,9.8500303   L 92.771154,9.8500303   L 92.771154,9.1834869   L 92.902239,9.1834869   L 92.902239,7.9059454   L 93.22059,7.9059454   L 93.22059,7.3319774   L 93.295496,7.3319774   L 93.295496,7.9614906   L 92.902239,7.9614906   L 92.902239,7.9059454   L 91.647563,7.9059454   L 91.647563,7.3319774   L 91.347939,7.3319774   L 91.347939,7.1283114   L 89.662552,7.1283114   z "
     id="path221" />
  <path
     style="fill:#000000;fill-rule:evenodd;fill-opacity:1;stroke:#494949;stroke-width:0.018726515px;stroke-linecap:round;stroke-linejoin:round;stroke-miterlimit:4;stroke-dasharray:none;stroke-opacity:1;"
     d="  M 89.362928,7.3504925   L 87.789901,7.3504925   L 87.789901,7.9244605   L 89.362928,7.9244605   L 89.362928,7.3504925   z "
     id="path223" />
  <path
     style="fill:#000000;fill-rule:evenodd;fill-opacity:1;stroke:#494949;stroke-width:0.018726515px;stroke-linecap:round;stroke-linejoin:round;stroke-miterlimit:4;stroke-dasharray:none;stroke-opacity:1;"
     d="  M 93.22059,7.3504925   L 91.647563,7.3504925   L 91.647563,7.9244605   L 93.22059,7.9244605   L 93.22059,7.3504925   z "
     id="path225" />
  <path
     style="fill:#000000;fill-rule:evenodd;fill-opacity:1;stroke:#000000;stroke-width:0.018726515px;stroke-linecap:round;stroke-linejoin:round;stroke-miterlimit:4;stroke-dasharray:none;stroke-opacity:1;"
     d="  M 95.430319,7.1283114   L 95.430319,7.3319774   L 95.130695,7.3319774   L 95.130695,7.9059454   L 93.876018,7.9059454   L 93.876018,7.9614906   L 93.482761,7.9614906   L 93.482761,7.3319774   L 93.557667,7.3319774   L 93.557667,7.9059454   L 93.876018,7.9059454   L 93.876018,9.1834869   L 94.007104,9.1834869   L 94.007104,9.8500303   L 93.876018,9.8500303   L 93.876018,11.294208   L 98.670006,11.294208   L 98.670006,9.8500303   L 98.53892,9.8500303   L 98.53892,9.1834869   L 98.670006,9.1834869   L 98.670006,7.9059454   L 98.988357,7.9059454   L 98.988357,7.3319774   L 99.063263,7.3319774   L 99.063263,7.9614906   L 98.670006,7.9614906   L 98.670006,7.9059454   L 97.415329,7.9059454   L 97.415329,7.3319774   L 97.115705,7.3319774   L 97.115705,7.1283114   L 95.430319,7.1283114   z "
     id="path227" />
  <path
     style="fill:#000000;fill-rule:evenodd;fill-opacity:1;stroke:#494949;stroke-width:0.018726515px;stroke-linecap:round;stroke-linejoin:round;stroke-miterlimit:4;stroke-dasharray:none;stroke-opacity:1;"
     d="  M 95.130695,7.3504925   L 93.557667,7.3504925   L 93.557667,7.9244605   L 95.130695,7.9244605   L 95.130695,7.3504925   z "
     id="path229" />
  <path
     style="fill:#000000;fill-rule:evenodd;fill-opacity:1;stroke:#494949;stroke-width:0.018726515px;stroke-linecap:round;stroke-linejoin:round;stroke-miterlimit:4;stroke-dasharray:none;stroke-opacity:1;"
     d="  M 98.988357,7.3504925   L 97.415329,7.3504925   L 97.415329,7.9244605   L 98.988357,7.9244605   L 98.988357,7.3504925   z "
     id="path231" />
  <path
     style="fill:#ffff00;fill-rule:evenodd;fill-opacity:1;stroke:#000000;stroke-width:0.018081907px;stroke-linecap:round;stroke-linejoin:round;stroke-miterlimit:4;stroke-dasharray:none;stroke-opacity:1;"
     d="  M 77.499057,7.4302452   L 76.48647,7.4302452   L 76.48647,7.8459232   L 77.499057,7.8459232   L 77.499057,7.4302452   z "
     id="path233" />
  <path
     style="fill:#83ff00;fill-rule:evenodd;fill-opacity:1;stroke:#000000;stroke-width:0.018081907px;stroke-linecap:round;stroke-linejoin:round;stroke-miterlimit:4;stroke-dasharray:none;stroke-opacity:1;"
     d="  M 81.314339,7.4302452   L 80.301753,7.4302452   L 80.301753,7.8459232   L 81.314339,7.8459232   L 81.314339,7.4302452   z "
     id="path235" />
  <path
     style="fill:#ffff00;fill-rule:evenodd;fill-opacity:1;stroke:#000000;stroke-width:0.018081907px;stroke-linecap:round;stroke-linejoin:round;stroke-miterlimit:4;stroke-dasharray:none;stroke-opacity:1;"
     d="  M 83.339513,7.4302452   L 82.326926,7.4302452   L 82.326926,7.8459232   L 83.339513,7.8459232   L 83.339513,7.4302452   z "
     id="path237" />
  <path
     style="fill:#83ff00;fill-rule:evenodd;fill-opacity:1;stroke:#000000;stroke-width:0.018081907px;stroke-linecap:round;stroke-linejoin:round;stroke-miterlimit:4;stroke-dasharray:none;stroke-opacity:1;"
     d="  M 87.154796,7.4302452   L 86.142209,7.4302452   L 86.142209,7.8459232   L 87.154796,7.8459232   L 87.154796,7.4302452   z "
     id="path239" />
  <path
     style="fill:#ffff00;fill-rule:evenodd;fill-opacity:1;stroke:#000000;stroke-width:0.018081907px;stroke-linecap:round;stroke-linejoin:round;stroke-miterlimit:4;stroke-dasharray:none;stroke-opacity:1;"
     d="  M 89.107642,7.4302452   L 88.095055,7.4302452   L 88.095055,7.8459232   L 89.107642,7.8459232   L 89.107642,7.4302452   z "
     id="path241" />
  <path
     style="fill:#83ff00;fill-rule:evenodd;fill-opacity:1;stroke:#000000;stroke-width:0.018081907px;stroke-linecap:round;stroke-linejoin:round;stroke-miterlimit:4;stroke-dasharray:none;stroke-opacity:1;"
     d="  M 92.922924,7.4302452   L 91.910337,7.4302452   L 91.910337,7.8459232   L 92.922924,7.8459232   L 92.922924,7.4302452   z "
     id="path243" />
  <path
     style="fill:#ffff00;fill-rule:evenodd;fill-opacity:1;stroke:#000000;stroke-width:0.018081907px;stroke-linecap:round;stroke-linejoin:round;stroke-miterlimit:4;stroke-dasharray:none;stroke-opacity:1;"
     d="  M 94.87577,7.4302452   L 93.863184,7.4302452   L 93.863184,7.8459232   L 94.87577,7.8459232   L 94.87577,7.4302452   z "
     id="path245" />
  <path
     style="fill:#83ff00;fill-rule:evenodd;fill-opacity:1;stroke:#000000;stroke-width:0.018081907px;stroke-linecap:round;stroke-linejoin:round;stroke-miterlimit:4;stroke-dasharray:none;stroke-opacity:1;"
     d="  M 98.691053,7.4302452   L 97.678466,7.4302452   L 97.678466,7.8459232   L 98.691053,7.8459232   L 98.691053,7.4302452   z "
     id="path247" />
  <path
     style="fill:#ffff00;fill-rule:evenodd;fill-opacity:1;stroke:#000000;stroke-width:0.018081907px;stroke-linecap:round;stroke-linejoin:round;stroke-miterlimit:4;stroke-dasharray:none;stroke-opacity:1;"
     d="  M 52.256714,7.4302452   L 51.244127,7.4302452   L 51.244127,7.8459232   L 52.256714,7.8459232   L 52.256714,7.4302452   z "
     id="path249" />
  <path
     style="fill:#83ff00;fill-rule:evenodd;fill-opacity:1;stroke:#000000;stroke-width:0.018081907px;stroke-linecap:round;stroke-linejoin:round;stroke-miterlimit:4;stroke-dasharray:none;stroke-opacity:1;"
     d="  M 56.071996,7.4302452   L 55.059409,7.4302452   L 55.059409,7.8459232   L 56.071996,7.8459232   L 56.071996,7.4302452   z "
     id="path251" />
  <path
     style="fill:#ffff00;fill-rule:evenodd;fill-opacity:1;stroke:#000000;stroke-width:0.018081907px;stroke-linecap:round;stroke-linejoin:round;stroke-miterlimit:4;stroke-dasharray:none;stroke-opacity:1;"
     d="  M 58.09717,7.4302452   L 57.084583,7.4302452   L 57.084583,7.8459232   L 58.09717,7.8459232   L 58.09717,7.4302452   z "
     id="path253" />
  <path
     style="fill:#83ff00;fill-rule:evenodd;fill-opacity:1;stroke:#000000;stroke-width:0.018081907px;stroke-linecap:round;stroke-linejoin:round;stroke-miterlimit:4;stroke-dasharray:none;stroke-opacity:1;"
     d="  M 61.912452,7.4302452   L 60.899866,7.4302452   L 60.899866,7.8459232   L 61.912452,7.8459232   L 61.912452,7.4302452   z "
     id="path255" />
  <path
     style="fill:#ffff00;fill-rule:evenodd;fill-opacity:1;stroke:#000000;stroke-width:0.018081907px;stroke-linecap:round;stroke-linejoin:round;stroke-miterlimit:4;stroke-dasharray:none;stroke-opacity:1;"
     d="  M 63.865298,7.4302452   L 62.852712,7.4302452   L 62.852712,7.8459232   L 63.865298,7.8459232   L 63.865298,7.4302452   z "
     id="path257" />
  <path
     style="fill:#83ff00;fill-rule:evenodd;fill-opacity:1;stroke:#000000;stroke-width:0.018081907px;stroke-linecap:round;stroke-linejoin:round;stroke-miterlimit:4;stroke-dasharray:none;stroke-opacity:1;"
     d="  M 67.680581,7.4302452   L 66.667994,7.4302452   L 66.667994,7.8459232   L 67.680581,7.8459232   L 67.680581,7.4302452   z "
     id="path259" />
  <path
     style="fill:#ffff00;fill-rule:evenodd;fill-opacity:1;stroke:#000000;stroke-width:0.018081907px;stroke-linecap:round;stroke-linejoin:round;stroke-miterlimit:4;stroke-dasharray:none;stroke-opacity:1;"
     d="  M 69.633427,7.4302452   L 68.62084,7.4302452   L 68.62084,7.8459232   L 69.633427,7.8459232   L 69.633427,7.4302452   z "
     id="path261" />
  <path
     style="fill:#83ff00;fill-rule:evenodd;fill-opacity:1;stroke:#000000;stroke-width:0.018081907px;stroke-linecap:round;stroke-linejoin:round;stroke-miterlimit:4;stroke-dasharray:none;stroke-opacity:1;"
     d="  M 73.44871,7.4302452   L 72.436123,7.4302452   L 72.436123,7.8459232   L 73.44871,7.8459232   L 73.44871,7.4302452   z "
     id="path263" />
  <path
     style="fill:none;stroke:#000000;stroke-width:0.018726515px;stroke-linecap:round;stroke-linejoin:round;stroke-miterlimit:4;stroke-dasharray:none;stroke-opacity:1;"
     d="  M 108.35161,11.748119   L 103.07074,11.748119   L 103.07074,8.1830452   L 108.35161,8.1830452   L 108.35161,11.748119   z "
     id="path265" />
  <path
     style="fill:none;stroke:#000000;stroke-width:0.018726515px;stroke-linecap:round;stroke-linejoin:round;stroke-miterlimit:4;stroke-dasharray:none;stroke-opacity:1;"
     d="  M 117.49015,11.748119   L 112.20928,11.748119   L 112.20928,8.1830452   L 117.49015,8.1830452   L 117.49015,11.748119   z "
     id="path267" />
</svg>
