<?xml version="1.0" encoding="UTF-8" standalone="no"?>
<svg
   version="1.0"
   width="10.61mm"
   height="29.52mm"
   id="svg317"
   xmlns="http://www.w3.org/2000/svg"
   xmlns:svg="http://www.w3.org/2000/svg">
  <defs
     id="defs3">
    <pattern
       id="EMFhbasepattern"
       patternUnits="userSpaceOnUse"
       width="6"
       height="6"
       x="0"
       y="0" />
  </defs>
  <path
     style="fill:#494949;fill-rule:evenodd;fill-opacity:1;stroke:#000000;stroke-width:0.018706491px;stroke-linecap:round;stroke-linejoin:round;stroke-miterlimit:4;stroke-dasharray:none;stroke-opacity:1;"
     d="  M 39.900946,0.86303049   L 39.900946,0.78798436   L 39.88224,0.73169976   L 39.88224,0.65665363   L 39.844827,0.5816075   L 39.844827,0.54408444   L 39.788707,0.43151524   L 39.751294,0.41275371   L 39.713881,0.33770758   L 39.676468,0.31894605   L 39.657762,0.28142299   L 39.620349,0.26266145   L 39.601642,0.22513839   L 39.526816,0.18761532   L 39.50811,0.15009226   L 39.433284,0.11256919   L 39.395871,0.11256919   L 39.283632,0.056284597   L 39.208806,0.056284597   L 39.152687,0.037523065   L 0.78567264,0.037523065   L 0.72955317,0.056284597   L 0.6547272,0.056284597   L 0.54248825,0.11256919   L 0.50507527,0.11256919   L 0.4302493,0.15009226   L 0.41154281,0.18761532   L 0.33671685,0.22513839   L 0.31801035,0.26266145   L 0.28059737,0.28142299   L 0.26189088,0.31894605   L 0.2244779,0.33770758   L 0.18706491,0.41275371   L 0.14965193,0.43151524   L 0.11223895,0.50656137   L 0.11223895,0.54408444   L 0.056119474,0.65665363   L 0.056119474,0.73169976   L 0.037412983,0.78798436   L 0.037412983,110.78685   L 0.056119474,110.84313   L 0.056119474,110.91818   L 0.11223895,111.03075   L 0.11223895,111.06827   L 0.14965193,111.14332   L 0.18706491,111.16208   L 0.2244779,111.23713   L 0.26189088,111.25589   L 0.28059737,111.29341   L 0.31801035,111.31217   L 0.33671685,111.34969   L 0.41154281,111.38722   L 0.4302493,111.42474   L 0.54248825,111.48103   L 0.57990124,111.48103   L 0.6547272,111.51855   L 0.72955317,111.51855   L 0.78567264,111.53731   L 39.152687,111.53731   L 39.208806,111.51855   L 39.283632,111.51855   L 39.358458,111.48103   L 39.395871,111.48103   L 39.50811,111.42474   L 39.526816,111.38722   L 39.601642,111.34969   L 39.620349,111.31217   L 39.657762,111.29341   L 39.676468,111.25589   L 39.713881,111.23713   L 39.751294,111.16208   L 39.788707,111.14332   L 39.844827,111.03075   L 39.844827,110.99323   L 39.88224,110.91818   L 39.88224,110.84313   L 39.900946,110.78685   L 39.900946,1.1819765   L 39.900946,0.86303049   z "
     id="path5" />
  <path
     style="fill:#282828;fill-rule:evenodd;fill-opacity:1;stroke:none;"
     d="  M 0.037412983,110.7118   L 0.037412983,110.78685   L 0.056119474,110.84313   L 0.056119474,110.91818   L 0.11223895,111.03075   L 0.11223895,111.06827   L 0.14965193,111.14332   L 0.18706491,111.16208   L 0.2244779,111.23713   L 0.26189088,111.25589   L 0.28059737,111.29341   L 0.31801035,111.31217   L 0.33671685,111.34969   L 0.41154281,111.38722   L 0.4302493,111.42474   L 0.54248825,111.48103   L 0.57990124,111.48103   L 0.6547272,111.51855   L 0.72955317,111.51855   L 0.78567264,111.53731   L 39.152687,111.53731   L 39.208806,111.51855   L 39.283632,111.51855   L 39.358458,111.48103   L 39.395871,111.48103   L 39.50811,111.42474   L 39.526816,111.38722   L 39.601642,111.34969   L 39.620349,111.31217   L 39.657762,111.29341   L 39.676468,111.25589   L 39.713881,111.23713   L 39.751294,111.16208   L 39.788707,111.14332   L 39.844827,111.03075   L 39.844827,110.99323   L 39.88224,110.91818   L 39.88224,110.84313   L 39.900946,110.78685   L 39.900946,110.7118   L 0.14965193,110.7118   L 0.037412983,110.7118   z "
     id="path7" />
  <path
     style="fill:#2d2d2d;fill-rule:evenodd;fill-opacity:1;stroke:none;"
     d="  M 39.900946,109.83001   L 0.037412983,109.83001   L 0.037412983,110.7118   L 39.900946,110.7118   L 39.900946,109.83001   z "
     id="path9" />
  <path
     style="fill:#333333;fill-rule:evenodd;fill-opacity:1;stroke:none;"
     d="  M 39.900946,108.94822   L 0.037412983,108.94822   L 0.037412983,109.83001   L 39.900946,109.83001   L 39.900946,108.94822   z "
     id="path11" />
  <path
     style="fill:#383838;fill-rule:evenodd;fill-opacity:1;stroke:none;"
     d="  M 39.900946,108.06643   L 0.037412983,108.06643   L 0.037412983,108.94822   L 39.900946,108.94822   L 39.900946,108.06643   z "
     id="path13" />
  <path
     style="fill:#3d3d3d;fill-rule:evenodd;fill-opacity:1;stroke:none;"
     d="  M 39.900946,107.18463   L 0.037412983,107.18463   L 0.037412983,108.06643   L 39.900946,108.06643   L 39.900946,107.18463   z "
     id="path15" />
  <path
     style="fill:#bfbfbf;fill-rule:evenodd;fill-opacity:1;stroke:#000000;stroke-width:0.018706491px;stroke-linecap:round;stroke-linejoin:round;stroke-miterlimit:4;stroke-dasharray:none;stroke-opacity:1;"
     d="  M 33.783924,24.952838   L 6.1357292,24.952838   L 6.1357292,52.569814   L 33.783924,52.569814   L 33.783924,24.952838   z "
     id="path17" />
  <path
     style="fill:#666666;fill-rule:evenodd;fill-opacity:1;stroke:#666666;stroke-width:0.018706491px;stroke-linecap:round;stroke-linejoin:round;stroke-miterlimit:4;stroke-dasharray:none;stroke-opacity:1;"
     d="  M 39.900946,5.1406599   L 39.096567,5.1406599   L 39.096567,65.327656   L 39.900946,65.327656   L 39.900946,5.1406599   z "
     id="path19" />
  <path
     style="fill:#666666;fill-rule:evenodd;fill-opacity:1;stroke:#666666;stroke-width:0.018706491px;stroke-linecap:round;stroke-linejoin:round;stroke-miterlimit:4;stroke-dasharray:none;stroke-opacity:1;"
     d="  M 0.84179212,5.1406599   L 0.037412983,5.1406599   L 0.037412983,65.327656   L 0.84179212,65.327656   L 0.84179212,5.1406599   z "
     id="path21" />
  <path
     style="fill:none;stroke:#000000;stroke-width:0.018706491px;stroke-linecap:round;stroke-linejoin:round;stroke-miterlimit:4;stroke-dasharray:none;stroke-opacity:1;"
     d="  M 3.9283632,65.327656   L 3.9283632,104.35164   L 3.9470697,104.40793   L 3.9470697,104.46421   L 3.9657762,104.50174   L 4.0218957,104.67059   L 4.0406022,104.70811   L 4.0593086,104.7644   L 4.0780151,104.80192   L 4.1154281,104.83944   L 4.1528411,104.89573   L 4.1715476,104.93325   L 4.3211995,105.08334   L 4.3586125,105.1021   L 4.414732,105.13963   L 4.452145,105.17715   L 4.489558,105.19591   L 4.5456774,105.21467   L 4.5830904,105.23344   L 4.7514488,105.28972   L 4.7888618,105.30848   L 4.8449813,105.30848   L 4.9011008,105.32724   L 5.0133397,105.32724   L 4.9759267,105.346   L 4.9572202,105.38353   L 5.0694592,105.43981   L 5.1629916,105.45857   L 5.2939371,105.47734   L 5.4622955,105.51486   L 5.6493604,105.53362   L 6.1357292,105.57114   L 6.4163266,105.5899   L 6.7343369,105.60867   L 7.0710538,105.62743   L 7.4264771,105.64619   L 7.8006069,105.66495   L 8.2121498,105.68371   L 8.6423991,105.70247   L 9.0913549,105.72123   L 9.5590171,105.74   L 10.045386,105.74   L 10.550461,105.75876   L 11.074243,105.77752   L 11.598025,105.77752   L 12.720414,105.81504   L 13.880217,105.81504   L 14.460118,105.8338   L 15.077432,105.8338   L 15.67604,105.85257   L 17.041614,105.85257   L 17.041614,105.02706   L 22.878039,105.02706   L 22.878039,105.8338   L 23.663712,105.8338   L 24.2062,105.81504   L 25.291176,105.81504   L 25.814958,105.79628   L 26.33874,105.79628   L 26.862522,105.77752   L 27.367597,105.77752   L 28.340335,105.74   L 28.807997,105.74   L 29.275659,105.72123   L 29.724615,105.70247   L 30.154864,105.70247   L 30.585114,105.68371   L 30.996656,105.66495   L 31.389493,105.64619   L 31.763623,105.62743   L 32.119046,105.60867   L 32.455763,105.5899   L 32.773773,105.57114   L 33.372381,105.53362   L 33.634272,105.51486   L 33.877456,105.4961   L 34.288999,105.45857   L 34.457357,105.42105   L 34.607009,105.40229   L 34.737955,105.38353   L 34.831487,105.346   L 34.906313,105.32724   L 35.018552,105.32724   L 35.074671,105.30848   L 35.130791,105.30848   L 35.168204,105.28972   L 35.336562,105.23344   L 35.373975,105.21467   L 35.430095,105.19591   L 35.467508,105.17715   L 35.504921,105.13963   L 35.56104,105.1021   L 35.598453,105.08334   L 35.748105,104.93325   L 35.766812,104.89573   L 35.804225,104.83944   L 35.841638,104.80192   L 35.860344,104.7644   L 35.879051,104.70811   L 35.897757,104.67059   L 35.953877,104.50174   L 35.972583,104.46421   L 35.972583,104.40793   L 35.99129,104.35164   L 35.99129,65.440225   L 35.99129,65.327656  "
     id="path23" />
  <ellipse
     style="fill:#333333;fill-rule:evenodd;fill-opacity:1;stroke:#000000;stroke-width:0.018706491px;stroke-linecap:round;stroke-linejoin:round;stroke-miterlimit:4;stroke-dasharray:none;stroke-opacity:1;"
     cx="19.885"
     cy="70.881069"
     rx="7.5574226"
     ry="7.5574226"
     id="ellipse25" />
  <ellipse
     style="fill:none;stroke:#333333;stroke-width:0.018706491px;stroke-linecap:round;stroke-linejoin:round;stroke-miterlimit:4;stroke-dasharray:none;stroke-opacity:1;"
     cx="19.885"
     cy="70.881069"
     rx="7.5574226"
     ry="7.5574226"
     id="ellipse27" />
  <path
     style="fill:#333333;fill-rule:evenodd;fill-opacity:1;stroke:#000000;stroke-width:0.018706491px;stroke-linecap:round;stroke-linejoin:round;stroke-miterlimit:4;stroke-dasharray:none;stroke-opacity:1;"
     d="  M 11.41096,71.912954   L 11.448373,72.100569   L 11.467079,72.306946   L 11.504492,72.494561   L 11.560612,72.700938   L 11.598025,72.888553   L 11.878622,73.82663   L 11.953448,73.995484   L 12.1031,74.370714   L 12.252752,74.708422   L 12.346284,74.896037   L 12.42111,75.064891   L 12.701708,75.571452   L 12.813947,75.721545   L 12.907479,75.890398   L 13.019718,76.040491   L 13.131957,76.209345   L 13.468674,76.659621   L 13.599619,76.809714   L 13.711858,76.959806   L 13.842804,77.091137   L 13.973749,77.241229   L 14.104695,77.37256   L 14.104695,78.441967   L 4.9759267,78.441967   L 4.9759267,71.912954   L 11.392253,71.912954   L 11.41096,71.912954   z "
     id="path29" />
  <path
     style="fill:#333333;fill-rule:evenodd;fill-opacity:1;stroke:#000000;stroke-width:0.018706491px;stroke-linecap:round;stroke-linejoin:round;stroke-miterlimit:4;stroke-dasharray:none;stroke-opacity:1;"
     d="  M 14.104695,80.580782   L 4.9759267,80.580782   L 4.9759267,84.933457   L 12.327578,84.933457   L 13.356435,83.901573   L 14.104695,83.901573   L 14.104695,80.580782   z "
     id="path31" />
  <path
     style="fill:#333333;fill-rule:evenodd;fill-opacity:1;stroke:#000000;stroke-width:0.018706491px;stroke-linecap:round;stroke-linejoin:round;stroke-miterlimit:4;stroke-dasharray:none;stroke-opacity:1;"
     d="  M 24.52421,80.637066   L 15.395442,80.637066   L 15.395442,83.939096   L 24.52421,83.939096   L 24.52421,80.637066   z "
     id="path33" />
  <path
     style="fill:#333333;fill-rule:evenodd;fill-opacity:1;stroke:#000000;stroke-width:0.018706491px;stroke-linecap:round;stroke-linejoin:round;stroke-miterlimit:4;stroke-dasharray:none;stroke-opacity:1;"
     d="  M 14.104695,85.965341   L 4.9759267,85.965341   L 4.9759267,90.318017   L 14.104695,90.318017   L 14.104695,85.965341   z "
     id="path35" />
  <path
     style="fill:#333333;fill-rule:evenodd;fill-opacity:1;stroke:#000000;stroke-width:0.018706491px;stroke-linecap:round;stroke-linejoin:round;stroke-miterlimit:4;stroke-dasharray:none;stroke-opacity:1;"
     d="  M 24.52421,85.965341   L 15.395442,85.965341   L 15.395442,90.318017   L 24.52421,90.318017   L 24.52421,85.965341   z "
     id="path37" />
  <path
     style="fill:#333333;fill-rule:evenodd;fill-opacity:1;stroke:#000000;stroke-width:0.018706491px;stroke-linecap:round;stroke-linejoin:round;stroke-miterlimit:4;stroke-dasharray:none;stroke-opacity:1;"
     d="  M 34.943726,85.965341   L 25.814958,85.965341   L 25.814958,90.318017   L 34.943726,90.318017   L 34.943726,85.965341   z "
     id="path39" />
  <path
     style="fill:#333333;fill-rule:evenodd;fill-opacity:1;stroke:#000000;stroke-width:0.018706491px;stroke-linecap:round;stroke-linejoin:round;stroke-miterlimit:4;stroke-dasharray:none;stroke-opacity:1;"
     d="  M 14.104695,91.368663   L 4.9759267,91.368663   L 4.9759267,95.721338   L 14.104695,95.721338   L 14.104695,91.368663   z "
     id="path41" />
  <path
     style="fill:#333333;fill-rule:evenodd;fill-opacity:1;stroke:#000000;stroke-width:0.018706491px;stroke-linecap:round;stroke-linejoin:round;stroke-miterlimit:4;stroke-dasharray:none;stroke-opacity:1;"
     d="  M 24.52421,91.368663   L 15.395442,91.368663   L 15.395442,95.721338   L 24.52421,95.721338   L 24.52421,91.368663   z "
     id="path43" />
  <path
     style="fill:#333333;fill-rule:evenodd;fill-opacity:1;stroke:#000000;stroke-width:0.018706491px;stroke-linecap:round;stroke-linejoin:round;stroke-miterlimit:4;stroke-dasharray:none;stroke-opacity:1;"
     d="  M 34.943726,91.368663   L 25.814958,91.368663   L 25.814958,95.721338   L 34.943726,95.721338   L 34.943726,91.368663   z "
     id="path45" />
  <path
     style="fill:#333333;fill-rule:evenodd;fill-opacity:1;stroke:#000000;stroke-width:0.018706491px;stroke-linecap:round;stroke-linejoin:round;stroke-miterlimit:4;stroke-dasharray:none;stroke-opacity:1;"
     d="  M 14.104695,96.753223   L 4.9759267,96.753223   L 4.9759267,101.1059   L 14.104695,101.1059   L 14.104695,96.753223   z "
     id="path47" />
  <path
     style="fill:#333333;fill-rule:evenodd;fill-opacity:1;stroke:#000000;stroke-width:0.018706491px;stroke-linecap:round;stroke-linejoin:round;stroke-miterlimit:4;stroke-dasharray:none;stroke-opacity:1;"
     d="  M 24.52421,96.753223   L 15.395442,96.753223   L 15.395442,101.1059   L 24.52421,101.1059   L 24.52421,96.753223   z "
     id="path49" />
  <path
     style="fill:#333333;fill-rule:evenodd;fill-opacity:1;stroke:#000000;stroke-width:0.018706491px;stroke-linecap:round;stroke-linejoin:round;stroke-miterlimit:4;stroke-dasharray:none;stroke-opacity:1;"
     d="  M 34.943726,96.753223   L 25.814958,96.753223   L 25.814958,101.1059   L 34.943726,101.1059   L 34.943726,96.753223   z "
     id="path51" />
  <path
     style="fill:#333333;fill-rule:evenodd;fill-opacity:1;stroke:#000000;stroke-width:0.018706491px;stroke-linecap:round;stroke-linejoin:round;stroke-miterlimit:4;stroke-dasharray:none;stroke-opacity:1;"
     d="  M 11.392253,70.674692   L 5.0320462,70.674692   L 5.0320462,66.322017   L 12.683001,66.322017   L 12.608175,66.453348   L 12.552056,66.565917   L 12.47723,66.697248   L 12.42111,66.828578   L 12.346284,66.941148   L 12.065687,67.597801   L 12.028274,67.729132   L 11.972155,67.860463   L 11.916035,68.010555   L 11.841209,68.273216   L 11.78509,68.404547   L 11.747677,68.554639   L 11.672851,68.817301   L 11.635438,68.967393   L 11.616731,69.098724   L 11.579318,69.248816   L 11.560612,69.380147   L 11.523199,69.530239   L 11.504492,69.680331   L 11.485786,69.811662   L 11.429666,70.261939   L 11.41096,70.39327   L 11.41096,70.543362   L 11.392253,70.693454   L 11.392253,70.674692   z "
     id="path53" />
  <path
     style="fill:#333333;fill-rule:evenodd;fill-opacity:1;stroke:#000000;stroke-width:0.018706491px;stroke-linecap:round;stroke-linejoin:round;stroke-miterlimit:4;stroke-dasharray:none;stroke-opacity:1;"
     d="  M 28.508693,71.912954   L 28.47128,72.100569   L 28.452574,72.306946   L 28.415161,72.494561   L 28.359041,72.700938   L 28.321628,72.888553   L 28.041031,73.82663   L 27.966205,73.995484   L 27.816553,74.370714   L 27.666901,74.708422   L 27.592075,74.896037   L 27.217945,75.571452   L 27.105706,75.721545   L 27.012174,75.890398   L 26.899935,76.040491   L 26.787696,76.209345   L 26.450979,76.659621   L 26.320033,76.809714   L 26.207795,76.959806   L 26.076849,77.091137   L 25.945904,77.241229   L 25.814958,77.37256   L 25.814958,78.441967   L 34.943726,78.441967   L 34.943726,71.912954   L 28.527399,71.912954   L 28.508693,71.912954   z "
     id="path55" />
  <path
     style="fill:#333333;fill-rule:evenodd;fill-opacity:1;stroke:#000000;stroke-width:0.018706491px;stroke-linecap:round;stroke-linejoin:round;stroke-miterlimit:4;stroke-dasharray:none;stroke-opacity:1;"
     d="  M 28.527399,70.674692   L 34.887607,70.674692   L 34.887607,66.322017   L 27.236652,66.322017   L 27.311478,66.453348   L 27.367597,66.565917   L 27.442423,66.697248   L 27.498542,66.828578   L 27.573368,66.941148   L 27.853966,67.597801   L 27.891379,67.729132   L 27.947498,67.860463   L 28.003618,68.010555   L 28.078444,68.273216   L 28.134563,68.404547   L 28.171976,68.554639   L 28.246802,68.817301   L 28.284215,68.967393   L 28.302922,69.098724   L 28.340335,69.248816   L 28.359041,69.380147   L 28.396454,69.530239   L 28.415161,69.680331   L 28.433867,69.811662   L 28.489987,70.261939   L 28.508693,70.39327   L 28.508693,70.543362   L 28.527399,70.693454   L 28.527399,70.674692   z "
     id="path57" />
  <path
     style="fill:none;stroke:#000000;stroke-width:0.018706491px;stroke-linecap:round;stroke-linejoin:round;stroke-miterlimit:4;stroke-dasharray:none;stroke-opacity:1;"
     d="  M 26.768989,65.327656   L 26.619337,65.14004   L 26.450979,64.971187   L 26.301327,64.783571   L 25.96461,64.445864   L 25.59048,64.145679   L 25.422122,63.995587   L 25.21635,63.845495   L 25.029286,63.695402   L 24.842221,63.564072   L 24.636449,63.432741   L 24.430678,63.320172   L 24.224906,63.188841   L 24.000429,63.076272   L 23.794657,62.982464   L 23.570179,62.869895   L 23.345701,62.776087   L 23.121223,62.701041   L 22.896746,62.607234   L 22.672268,62.532187   L 22.429083,62.457141   L 22.204605,62.400857   L 21.718237,62.288288   L 21.231868,62.213241   L 20.969977,62.175718   L 20.726793,62.156957   L 20.464902,62.138195   L 20.221717,62.119434   L 19.697936,62.119434   L 19.454751,62.138195   L 19.19286,62.156957   L 18.949676,62.175718   L 18.220123,62.288288   L 17.733754,62.400857   L 17.49057,62.475903   L 17.266092,62.532187   L 17.022907,62.607234   L 16.124996,62.982464   L 15.919224,63.095033   L 15.694746,63.207603   L 15.488975,63.320172   L 15.077432,63.582833   L 14.890367,63.714164   L 14.684596,63.845495   L 14.123401,64.295771   L 13.281609,65.14004   L 13.131957,65.327656   L 0.037412983,65.327656   L 0.037412983,5.1406599   L 39.900946,5.1406599   L 39.900946,65.327656   L 26.806402,65.327656   L 26.768989,65.327656  "
     id="path59" />
  <path
     style="fill:#333333;fill-rule:evenodd;fill-opacity:1;stroke:#000000;stroke-width:0.018706491px;stroke-linecap:round;stroke-linejoin:round;stroke-miterlimit:4;stroke-dasharray:none;stroke-opacity:1;"
     d="  M 25.814958,80.580782   L 34.943726,80.580782   L 34.943726,84.933457   L 27.592075,84.933457   L 26.563218,83.901573   L 25.814958,83.901573   L 25.814958,80.580782   z "
     id="path61" />
  <path
     style="fill:#494949;fill-rule:evenodd;fill-opacity:1;stroke:#666666;stroke-width:0.018706491px;stroke-linecap:round;stroke-linejoin:round;stroke-miterlimit:4;stroke-dasharray:none;stroke-opacity:1;"
     d="  M 11.280014,72.081807   L 11.317427,72.269423   L 11.336134,72.457038   L 11.373547,72.644653   L 11.41096,72.813507   L 11.467079,73.001123   L 11.504492,73.188738   L 11.560612,73.357592   L 11.616731,73.545207   L 11.72897,73.882915   L 11.78509,74.07053   L 12.084393,74.745945   L 12.159219,74.896037   L 12.252752,75.064891   L 12.327578,75.233745   L 12.42111,75.383837   L 12.514643,75.552691   L 12.701708,75.852875   L 12.813947,76.002968   L 12.907479,76.15306   L 13.131957,76.453244   L 13.244196,76.584575   L 13.356435,76.734667   L 13.468674,76.865998   L 13.599619,76.997329   L 13.711858,77.12866   L 13.842804,77.25999   L 13.842804,78.273113   L 5.1629916,78.273113   L 5.1629916,72.081807   L 11.261308,72.081807   L 11.280014,72.081807   z "
     id="path63" />
  <path
     style="fill:#494949;fill-rule:evenodd;fill-opacity:1;stroke:#666666;stroke-width:0.018706491px;stroke-linecap:round;stroke-linejoin:round;stroke-miterlimit:4;stroke-dasharray:none;stroke-opacity:1;"
     d="  M 13.880217,80.80592   L 5.2004046,80.80592   L 5.2004046,84.708319   L 12.196632,84.708319   L 13.16937,83.789004   L 13.880217,83.789004   L 13.880217,80.80592   z "
     id="path65" />
  <path
     style="fill:#494949;fill-rule:evenodd;fill-opacity:1;stroke:#666666;stroke-width:0.018706491px;stroke-linecap:round;stroke-linejoin:round;stroke-miterlimit:4;stroke-dasharray:none;stroke-opacity:1;"
     d="  M 24.299732,80.787158   L 15.61992,80.787158   L 15.61992,83.789004   L 24.299732,83.789004   L 24.299732,80.787158   z "
     id="path67" />
  <path
     style="fill:#494949;fill-rule:evenodd;fill-opacity:1;stroke:#666666;stroke-width:0.018706491px;stroke-linecap:round;stroke-linejoin:round;stroke-miterlimit:4;stroke-dasharray:none;stroke-opacity:1;"
     d="  M 13.880217,86.19048   L 5.2004046,86.19048   L 5.2004046,90.092879   L 13.880217,90.092879   L 13.880217,86.19048   z "
     id="path69" />
  <path
     style="fill:#494949;fill-rule:evenodd;fill-opacity:1;stroke:#666666;stroke-width:0.018706491px;stroke-linecap:round;stroke-linejoin:round;stroke-miterlimit:4;stroke-dasharray:none;stroke-opacity:1;"
     d="  M 24.299732,86.19048   L 15.61992,86.19048   L 15.61992,90.092879   L 24.299732,90.092879   L 24.299732,86.19048   z "
     id="path71" />
  <path
     style="fill:#494949;fill-rule:evenodd;fill-opacity:1;stroke:#666666;stroke-width:0.018706491px;stroke-linecap:round;stroke-linejoin:round;stroke-miterlimit:4;stroke-dasharray:none;stroke-opacity:1;"
     d="  M 34.719248,86.19048   L 26.039436,86.19048   L 26.039436,90.092879   L 34.719248,90.092879   L 34.719248,86.19048   z "
     id="path73" />
  <path
     style="fill:#494949;fill-rule:evenodd;fill-opacity:1;stroke:#666666;stroke-width:0.018706491px;stroke-linecap:round;stroke-linejoin:round;stroke-miterlimit:4;stroke-dasharray:none;stroke-opacity:1;"
     d="  M 13.880217,91.593801   L 5.2004046,91.593801   L 5.2004046,95.4962   L 13.880217,95.4962   L 13.880217,91.593801   z "
     id="path75" />
  <path
     style="fill:#494949;fill-rule:evenodd;fill-opacity:1;stroke:#666666;stroke-width:0.018706491px;stroke-linecap:round;stroke-linejoin:round;stroke-miterlimit:4;stroke-dasharray:none;stroke-opacity:1;"
     d="  M 24.299732,91.593801   L 15.61992,91.593801   L 15.61992,95.4962   L 24.299732,95.4962   L 24.299732,91.593801   z "
     id="path77" />
  <path
     style="fill:#494949;fill-rule:evenodd;fill-opacity:1;stroke:#666666;stroke-width:0.018706491px;stroke-linecap:round;stroke-linejoin:round;stroke-miterlimit:4;stroke-dasharray:none;stroke-opacity:1;"
     d="  M 34.719248,91.593801   L 26.039436,91.593801   L 26.039436,95.4962   L 34.719248,95.4962   L 34.719248,91.593801   z "
     id="path79" />
  <path
     style="fill:#494949;fill-rule:evenodd;fill-opacity:1;stroke:#666666;stroke-width:0.018706491px;stroke-linecap:round;stroke-linejoin:round;stroke-miterlimit:4;stroke-dasharray:none;stroke-opacity:1;"
     d="  M 13.880217,96.978361   L 5.2004046,96.978361   L 5.2004046,100.88076   L 13.880217,100.88076   L 13.880217,96.978361   z "
     id="path81" />
  <path
     style="fill:#494949;fill-rule:evenodd;fill-opacity:1;stroke:#666666;stroke-width:0.018706491px;stroke-linecap:round;stroke-linejoin:round;stroke-miterlimit:4;stroke-dasharray:none;stroke-opacity:1;"
     d="  M 24.299732,96.978361   L 15.61992,96.978361   L 15.61992,100.88076   L 24.299732,100.88076   L 24.299732,96.978361   z "
     id="path83" />
  <path
     style="fill:#494949;fill-rule:evenodd;fill-opacity:1;stroke:#666666;stroke-width:0.018706491px;stroke-linecap:round;stroke-linejoin:round;stroke-miterlimit:4;stroke-dasharray:none;stroke-opacity:1;"
     d="  M 34.719248,96.978361   L 26.039436,96.978361   L 26.039436,100.88076   L 34.719248,100.88076   L 34.719248,96.978361   z "
     id="path85" />
  <path
     style="fill:#494949;fill-rule:evenodd;fill-opacity:1;stroke:#666666;stroke-width:0.018706491px;stroke-linecap:round;stroke-linejoin:round;stroke-miterlimit:4;stroke-dasharray:none;stroke-opacity:1;"
     d="  M 11.223895,70.562123   L 5.1816981,70.562123   L 5.1816981,66.434586   L 12.458523,66.434586   L 12.383697,66.547155   L 12.327578,66.659725   L 12.271458,66.791055   L 12.196632,66.903624   L 12.140513,67.034955   L 12.084393,67.147524   L 12.028274,67.278855   L 11.972155,67.391424   L 11.934742,67.522755   L 11.878622,67.635324   L 11.822503,67.766655   L 11.78509,67.897986   L 11.72897,68.029316   L 11.691557,68.141886   L 11.429666,69.061201   L 11.41096,69.211293   L 11.373547,69.342624   L 11.336134,69.605285   L 11.317427,69.755377   L 11.280014,70.018039   L 11.261308,70.168131   L 11.242601,70.299462   L 11.242601,70.449554   L 11.223895,70.580885   L 11.223895,70.562123   z "
     id="path87" />
  <path
     style="fill:#494949;fill-rule:evenodd;fill-opacity:1;stroke:#666666;stroke-width:0.018706491px;stroke-linecap:round;stroke-linejoin:round;stroke-miterlimit:4;stroke-dasharray:none;stroke-opacity:1;"
     d="  M 28.639638,72.081807   L 28.602225,72.269423   L 28.583519,72.457038   L 28.546106,72.644653   L 28.508693,72.813507   L 28.452574,73.001123   L 28.415161,73.188738   L 28.359041,73.357592   L 28.302922,73.545207   L 28.190683,73.882915   L 28.134563,74.07053   L 27.835259,74.745945   L 27.760433,74.896037   L 27.666901,75.064891   L 27.592075,75.233745   L 27.498542,75.383837   L 27.40501,75.552691   L 27.217945,75.852875   L 27.105706,76.002968   L 27.012174,76.15306   L 26.787696,76.453244   L 26.675457,76.584575   L 26.563218,76.734667   L 26.450979,76.865998   L 26.320033,76.997329   L 26.207795,77.12866   L 26.076849,77.25999   L 26.076849,78.273113   L 34.756661,78.273113   L 34.756661,72.081807   L 28.658345,72.081807   L 28.639638,72.081807   z "
     id="path89" />
  <path
     style="fill:#494949;fill-rule:evenodd;fill-opacity:1;stroke:#666666;stroke-width:0.018706491px;stroke-linecap:round;stroke-linejoin:round;stroke-miterlimit:4;stroke-dasharray:none;stroke-opacity:1;"
     d="  M 28.695758,70.562123   L 34.737955,70.562123   L 34.737955,66.434586   L 27.461129,66.434586   L 27.535955,66.547155   L 27.592075,66.659725   L 27.648194,66.791055   L 27.72302,66.903624   L 27.77914,67.034955   L 27.835259,67.147524   L 27.891379,67.278855   L 27.947498,67.391424   L 27.984911,67.522755   L 28.041031,67.635324   L 28.09715,67.766655   L 28.134563,67.897986   L 28.190683,68.029316   L 28.228096,68.141886   L 28.489987,69.061201   L 28.508693,69.211293   L 28.546106,69.342624   L 28.583519,69.605285   L 28.602225,69.755377   L 28.639638,70.018039   L 28.658345,70.168131   L 28.677051,70.299462   L 28.677051,70.449554   L 28.695758,70.580885   L 28.695758,70.562123   z "
     id="path91" />
  <path
     style="fill:#494949;fill-rule:evenodd;fill-opacity:1;stroke:#666666;stroke-width:0.018706491px;stroke-linecap:round;stroke-linejoin:round;stroke-miterlimit:4;stroke-dasharray:none;stroke-opacity:1;"
     d="  M 26.039436,80.80592   L 34.719248,80.80592   L 34.719248,84.708319   L 27.72302,84.708319   L 26.750283,83.789004   L 26.039436,83.789004   L 26.039436,80.80592   z "
     id="path93" />
  <path
     style="fill:#3d3d3d;fill-rule:evenodd;fill-opacity:1;stroke:#000000;stroke-width:0.018706491px;stroke-linecap:round;stroke-linejoin:round;stroke-miterlimit:4;stroke-dasharray:none;stroke-opacity:1;"
     d="  M 34.101934,16.247487   L 34.101934,7.8047975   L 34.083227,7.6922283   L 34.083227,7.5608976   L 34.045814,7.4483284   L 34.027108,7.3357592   L 33.914869,6.9980516   L 33.85875,6.8854824   L 33.821337,6.7916747   L 33.765217,6.6791055   L 33.690391,6.5852979   L 33.634272,6.4914902   L 33.559446,6.3976825   L 33.48462,6.3226364   L 33.409794,6.2288288   L 33.316261,6.1537826   L 33.241435,6.0787365   L 33.147903,6.0036904   L 33.05437,5.9474058   L 32.960838,5.8723596   L 32.848599,5.816075   L 32.755067,5.778552   L 32.642828,5.7222674   L 32.306111,5.6096982   L 32.193872,5.5909367   L 32.081633,5.5534136   L 31.950687,5.5534136   L 31.838448,5.5346521   L 8.0812043,5.5346521   L 7.9689654,5.5534136   L 7.8380199,5.5534136   L 7.725781,5.5909367   L 7.613542,5.6096982   L 7.2768252,5.7222674   L 7.1645862,5.778552   L 7.0710538,5.816075   L 6.9588148,5.8723596   L 6.8652824,5.9474058   L 6.7717499,6.0036904   L 6.6782175,6.0787365   L 6.6033915,6.1537826   L 6.509859,6.2288288   L 6.4350331,6.3226364   L 6.3602071,6.3976825   L 6.2853811,6.4914902   L 6.2292617,6.5852979   L 6.1544357,6.6791055   L 6.0983162,6.7916747   L 6.0609032,6.8854824   L 6.0047838,6.9980516   L 5.8925448,7.3357592   L 5.8738383,7.4483284   L 5.8364253,7.5608976   L 5.8364253,7.6922283   L 5.8177188,7.8047975   L 5.8177188,16.247487   L 0.037412983,16.247487   L 0.037412983,0.78798436   L 0.056119474,0.73169976   L 0.056119474,0.65665363   L 0.11223895,0.54408444   L 0.11223895,0.50656137   L 0.14965193,0.43151524   L 0.18706491,0.41275371   L 0.2244779,0.33770758   L 0.26189088,0.31894605   L 0.28059737,0.28142299   L 0.31801035,0.26266145   L 0.33671685,0.22513839   L 0.41154281,0.18761532   L 0.4302493,0.15009226   L 0.50507527,0.11256919   L 0.54248825,0.11256919   L 0.6547272,0.056284597   L 0.72955317,0.056284597   L 0.78567264,0.037523065   L 39.152687,0.037523065   L 39.208806,0.056284597   L 39.283632,0.056284597   L 39.395871,0.11256919   L 39.433284,0.11256919   L 39.50811,0.15009226   L 39.526816,0.18761532   L 39.601642,0.22513839   L 39.620349,0.26266145   L 39.657762,0.28142299   L 39.676468,0.31894605   L 39.713881,0.33770758   L 39.751294,0.41275371   L 39.788707,0.43151524   L 39.844827,0.54408444   L 39.844827,0.5816075   L 39.88224,0.65665363   L 39.88224,0.73169976   L 39.900946,0.78798436   L 39.900946,16.247487   L 34.12064,16.247487   L 34.101934,16.247487   z "
     id="path95" />
  <path
     style="fill:#333333;fill-rule:evenodd;fill-opacity:1;stroke:#161616;stroke-width:0.018706491px;stroke-linecap:round;stroke-linejoin:round;stroke-miterlimit:4;stroke-dasharray:none;stroke-opacity:1;"
     d="  M 25.59048,7.2982361   L 25.571774,7.2982361   L 25.571774,7.2794746   L 25.553067,7.2794746   L 25.515654,7.2419515   L 25.478241,7.22319   L 25.459535,7.2044284   L 25.422122,7.1856669   L 25.384709,7.1481438   L 25.309883,7.1106208   L 25.27247,7.0730977   L 25.21635,7.0543362   L 25.178938,7.0168131   L 25.141525,6.9980516   L 25.066699,6.9230054   L 25.010579,6.9042439   L 24.973166,6.8667209   L 24.89834,6.8291978   L 24.842221,6.7729132   L 24.767395,6.7353901   L 24.729982,6.6978671   L 24.711275,6.6978671   L 24.711275,6.6791055   L 15.208378,6.6791055   L 15.208378,6.6978671   L 15.189671,6.6978671   L 15.152258,6.7353901   L 15.114845,6.7541517   L 15.096139,6.7729132   L 15.058726,6.7916747   L 15.021313,6.8291978   L 14.946487,6.8667209   L 14.909074,6.9042439   L 14.852954,6.9230054   L 14.778128,6.9980516   L 14.740715,7.0168131   L 14.703302,7.0543362   L 14.647183,7.0730977   L 14.60977,7.1106208   L 14.534944,7.1481438   L 14.478824,7.2044284   L 14.403998,7.2419515   L 14.366585,7.2794746   L 14.347879,7.2794746   L 14.347879,7.2982361   L 9.7273756,7.2982361   L 9.6712561,7.3169976   L 9.6338431,7.3169976   L 9.5964301,7.3357592   L 9.5403106,7.3357592   L 9.5028977,7.3545207   L 9.4654847,7.3545207   L 9.2784198,7.4483284   L 9.2597133,7.4670899   L 9.1848873,7.504613   L 9.0913549,7.5984206   L 9.0726484,7.6359437   L 9.0539419,7.6547052   L 9.0352354,7.6922283   L 9.0165289,7.7109898   L 8.9978224,7.7485129   L 8.9791159,7.7672744   L 8.9791159,7.8423205   L 8.9604094,7.8610821   L 8.9604094,8.0111743   L 8.9791159,8.0299359   L 8.9791159,8.104982   L 8.9978224,8.1237435   L 9.0165289,8.1612666   L 9.0352354,8.1800281   L 9.0539419,8.2175512   L 9.0913549,8.2550742   L 9.1100613,8.2925973   L 9.1287678,8.3113588   L 9.1661808,8.3301204   L 9.2223003,8.386405   L 9.2597133,8.4051665   L 9.2784198,8.423928   L 9.3532457,8.4614511   L 9.3906587,8.4614511   L 9.5028977,8.5177357   L 9.5403106,8.5177357   L 9.5964301,8.5364972   L 9.6712561,8.5364972   L 9.7273756,8.5552588   L 30.192277,8.5552588   L 30.248397,8.5364972   L 30.323223,8.5364972   L 30.379342,8.5177357   L 30.416755,8.5177357   L 30.528994,8.4614511   L 30.566407,8.4614511   L 30.641233,8.423928   L 30.65994,8.4051665   L 30.697352,8.386405   L 30.753472,8.3301204   L 30.790885,8.3113588   L 30.809591,8.2925973   L 30.828298,8.2550742   L 30.865711,8.2175512   L 30.884417,8.1800281   L 30.903124,8.1612666   L 30.92183,8.1237435   L 30.940537,8.104982   L 30.940537,8.0299359   L 30.959243,8.0111743   L 30.959243,7.8610821   L 30.940537,7.8423205   L 30.940537,7.7672744   L 30.92183,7.7485129   L 30.903124,7.7109898   L 30.884417,7.6922283   L 30.865711,7.6547052   L 30.847004,7.6359437   L 30.828298,7.5984206   L 30.734765,7.504613   L 30.65994,7.4670899   L 30.641233,7.4483284   L 30.454168,7.3545207   L 30.416755,7.3545207   L 30.379342,7.3357592   L 30.323223,7.3357592   L 30.28581,7.3169976   L 30.248397,7.3169976   L 30.192277,7.2982361   L 25.609187,7.2982361   L 25.59048,7.2982361   z "
     id="path97" />
  <path
     style="fill:#333333;fill-rule:evenodd;fill-opacity:1;stroke:#161616;stroke-width:0.018706491px;stroke-linecap:round;stroke-linejoin:round;stroke-miterlimit:4;stroke-dasharray:none;stroke-opacity:1;"
     d="  M 25.59048,10.787881   L 25.571774,10.787881   L 25.571774,10.76912   L 25.553067,10.76912   L 25.515654,10.731597   L 25.478241,10.712835   L 25.459535,10.694073   L 25.422122,10.675312   L 25.384709,10.637789   L 25.309883,10.600266   L 25.27247,10.562743   L 25.21635,10.543981   L 25.178938,10.506458   L 25.141525,10.487697   L 25.066699,10.41265   L 25.010579,10.393889   L 24.973166,10.356366   L 24.89834,10.318843   L 24.842221,10.262558   L 24.767395,10.225035   L 24.729982,10.187512   L 24.711275,10.187512   L 24.711275,10.168751   L 15.208378,10.168751   L 15.208378,10.187512   L 15.189671,10.187512   L 15.152258,10.225035   L 15.114845,10.243797   L 15.096139,10.262558   L 15.058726,10.28132   L 15.021313,10.318843   L 14.946487,10.356366   L 14.909074,10.393889   L 14.852954,10.41265   L 14.778128,10.487697   L 14.740715,10.506458   L 14.703302,10.543981   L 14.647183,10.562743   L 14.60977,10.600266   L 14.534944,10.637789   L 14.478824,10.694073   L 14.403998,10.731597   L 14.366585,10.76912   L 14.347879,10.76912   L 14.347879,10.787881   L 9.7273756,10.787881   L 9.6712561,10.806643   L 9.6338431,10.806643   L 9.5964301,10.825404   L 9.5403106,10.825404   L 9.5028977,10.844166   L 9.4654847,10.844166   L 9.2784198,10.937973   L 9.2597133,10.956735   L 9.1848873,10.994258   L 9.0913549,11.088066   L 9.0726484,11.125589   L 9.0539419,11.14435   L 9.0352354,11.181873   L 9.0165289,11.200635   L 8.9978224,11.238158   L 8.9791159,11.256919   L 8.9791159,11.331966   L 8.9604094,11.350727   L 8.9604094,11.500819   L 8.9791159,11.519581   L 8.9791159,11.594627   L 8.9978224,11.613389   L 9.0165289,11.650912   L 9.0352354,11.669673   L 9.0539419,11.707196   L 9.0913549,11.744719   L 9.1100613,11.782242   L 9.1287678,11.801004   L 9.1661808,11.819765   L 9.2223003,11.87605   L 9.2597133,11.894812   L 9.2784198,11.913573   L 9.3532457,11.951096   L 9.3906587,11.951096   L 9.5028977,12.007381   L 9.5403106,12.007381   L 9.5964301,12.026142   L 9.6712561,12.026142   L 9.7273756,12.044904   L 30.192277,12.044904   L 30.248397,12.026142   L 30.323223,12.026142   L 30.379342,12.007381   L 30.416755,12.007381   L 30.528994,11.951096   L 30.566407,11.951096   L 30.641233,11.913573   L 30.65994,11.894812   L 30.697352,11.87605   L 30.753472,11.819765   L 30.790885,11.801004   L 30.809591,11.782242   L 30.828298,11.744719   L 30.865711,11.707196   L 30.884417,11.669673   L 30.903124,11.650912   L 30.92183,11.613389   L 30.940537,11.594627   L 30.940537,11.519581   L 30.959243,11.500819   L 30.959243,11.350727   L 30.940537,11.331966   L 30.940537,11.256919   L 30.92183,11.238158   L 30.903124,11.200635   L 30.884417,11.181873   L 30.865711,11.14435   L 30.847004,11.125589   L 30.828298,11.088066   L 30.734765,10.994258   L 30.65994,10.956735   L 30.641233,10.937973   L 30.454168,10.844166   L 30.416755,10.844166   L 30.379342,10.825404   L 30.323223,10.825404   L 30.28581,10.806643   L 30.248397,10.806643   L 30.192277,10.787881   L 25.609187,10.787881   L 25.59048,10.787881   z "
     id="path99" />
  <path
     style="fill:#333333;fill-rule:evenodd;fill-opacity:1;stroke:#161616;stroke-width:0.018706491px;stroke-linecap:round;stroke-linejoin:round;stroke-miterlimit:4;stroke-dasharray:none;stroke-opacity:1;"
     d="  M 25.59048,14.277526   L 25.571774,14.277526   L 25.571774,14.258765   L 25.553067,14.258765   L 25.515654,14.221242   L 25.478241,14.20248   L 25.459535,14.183718   L 25.422122,14.164957   L 25.384709,14.127434   L 25.309883,14.089911   L 25.27247,14.052388   L 25.21635,14.033626   L 25.178938,13.996103   L 25.141525,13.977342   L 25.066699,13.902295   L 25.010579,13.883534   L 24.973166,13.846011   L 24.89834,13.808488   L 24.842221,13.752203   L 24.767395,13.71468   L 24.729982,13.677157   L 24.711275,13.677157   L 24.711275,13.658396   L 15.208378,13.658396   L 15.208378,13.677157   L 15.189671,13.677157   L 15.152258,13.71468   L 15.114845,13.733442   L 15.096139,13.752203   L 15.058726,13.770965   L 15.021313,13.808488   L 14.946487,13.846011   L 14.909074,13.883534   L 14.852954,13.902295   L 14.778128,13.977342   L 14.740715,13.996103   L 14.703302,14.033626   L 14.647183,14.052388   L 14.60977,14.089911   L 14.534944,14.127434   L 14.478824,14.183718   L 14.403998,14.221242   L 14.366585,14.258765   L 14.347879,14.258765   L 14.347879,14.277526   L 9.7273756,14.277526   L 9.6712561,14.296288   L 9.6338431,14.296288   L 9.5964301,14.315049   L 9.5403106,14.315049   L 9.5028977,14.333811   L 9.4654847,14.333811   L 9.2784198,14.427618   L 9.2597133,14.44638   L 9.1848873,14.483903   L 9.0913549,14.577711   L 9.0726484,14.615234   L 9.0539419,14.633995   L 9.0352354,14.671518   L 9.0165289,14.69028   L 8.9978224,14.727803   L 8.9791159,14.746564   L 8.9791159,14.821611   L 8.9604094,14.840372   L 8.9604094,14.990464   L 8.9791159,15.009226   L 8.9791159,15.084272   L 8.9978224,15.103034   L 9.0165289,15.140557   L 9.0352354,15.159318   L 9.0539419,15.196841   L 9.0913549,15.234364   L 9.1100613,15.271887   L 9.1287678,15.290649   L 9.1661808,15.30941   L 9.2223003,15.365695   L 9.2597133,15.384457   L 9.2784198,15.403218   L 9.3532457,15.440741   L 9.3906587,15.440741   L 9.5028977,15.497026   L 9.5403106,15.497026   L 9.5964301,15.515787   L 9.6712561,15.515787   L 9.7273756,15.534549   L 30.192277,15.534549   L 30.248397,15.515787   L 30.323223,15.515787   L 30.379342,15.497026   L 30.416755,15.497026   L 30.528994,15.440741   L 30.566407,15.440741   L 30.641233,15.403218   L 30.65994,15.384457   L 30.697352,15.365695   L 30.753472,15.30941   L 30.790885,15.290649   L 30.809591,15.271887   L 30.828298,15.234364   L 30.865711,15.196841   L 30.884417,15.159318   L 30.903124,15.140557   L 30.92183,15.103034   L 30.940537,15.084272   L 30.940537,15.009226   L 30.959243,14.990464   L 30.959243,14.840372   L 30.940537,14.821611   L 30.940537,14.746564   L 30.92183,14.727803   L 30.903124,14.69028   L 30.884417,14.671518   L 30.865711,14.633995   L 30.847004,14.615234   L 30.828298,14.577711   L 30.734765,14.483903   L 30.65994,14.44638   L 30.641233,14.427618   L 30.454168,14.333811   L 30.416755,14.333811   L 30.379342,14.315049   L 30.323223,14.315049   L 30.28581,14.296288   L 30.248397,14.296288   L 30.192277,14.277526   L 25.609187,14.277526   L 25.59048,14.277526   z "
     id="path101" />
  <ellipse
     style="fill:#494949;fill-rule:evenodd;fill-opacity:1;stroke:#000000;stroke-width:0.018706491px;stroke-linecap:round;stroke-linejoin:round;stroke-miterlimit:4;stroke-dasharray:none;stroke-opacity:1;"
     cx="19.875647"
     cy="70.871689"
     rx="7.1739395"
     ry="7.1739395"
     id="ellipse103" />
  <ellipse
     style="fill:none;stroke:#666666;stroke-width:0.018706491px;stroke-linecap:round;stroke-linejoin:round;stroke-miterlimit:4;stroke-dasharray:none;stroke-opacity:1;"
     cx="19.875647"
     cy="70.871689"
     rx="7.1739395"
     ry="7.1739395"
     id="ellipse105" />
  <path
     style="fill:#333333;fill-rule:evenodd;fill-opacity:1;stroke:#333333;stroke-width:0.018706491px;stroke-linecap:round;stroke-linejoin:round;stroke-miterlimit:4;stroke-dasharray:none;stroke-opacity:1;"
     d="  M 14.778128,65.552794   L 14.572357,65.759171   L 25.141525,76.359437   L 25.347296,76.15306   L 14.778128,65.552794   z "
     id="path107" />
  <path
     style="fill:#333333;fill-rule:evenodd;fill-opacity:1;stroke:#333333;stroke-width:0.018706491px;stroke-linecap:round;stroke-linejoin:round;stroke-miterlimit:4;stroke-dasharray:none;stroke-opacity:1;"
     d="  M 14.572357,76.15306   L 14.778128,76.359437   L 25.347296,65.759171   L 25.141525,65.552794   L 14.572357,76.15306   z "
     id="path109" />
  <ellipse
     style="fill:#333333;fill-rule:evenodd;fill-opacity:1;stroke:#000000;stroke-width:0.018706491px;stroke-linecap:round;stroke-linejoin:round;stroke-miterlimit:4;stroke-dasharray:none;stroke-opacity:1;"
     cx="19.875647"
     cy="70.871689"
     rx="3.5448801"
     ry="3.5448801"
     id="ellipse111" />
  <ellipse
     style="fill:none;stroke:#333333;stroke-width:0.018706491px;stroke-linecap:round;stroke-linejoin:round;stroke-miterlimit:4;stroke-dasharray:none;stroke-opacity:1;"
     cx="19.875647"
     cy="70.871689"
     rx="3.5448801"
     ry="3.5448801"
     id="ellipse113" />
  <ellipse
     style="fill:#494949;fill-rule:evenodd;fill-opacity:1;stroke:#000000;stroke-width:0.018706491px;stroke-linecap:round;stroke-linejoin:round;stroke-miterlimit:4;stroke-dasharray:none;stroke-opacity:1;"
     cx="19.885"
     cy="70.871689"
     rx="3.19881"
     ry="3.1894568"
     id="ellipse115" />
  <ellipse
     style="fill:none;stroke:#666666;stroke-width:0.018706491px;stroke-linecap:round;stroke-linejoin:round;stroke-miterlimit:4;stroke-dasharray:none;stroke-opacity:1;"
     cx="19.885"
     cy="70.871689"
     rx="3.19881"
     ry="3.1894568"
     id="ellipse117" />
  <path
     style="fill:#ffffff;fill-rule:evenodd;fill-opacity:1;stroke:#ffffff;stroke-width:0.018706491px;stroke-linecap:round;stroke-linejoin:round;stroke-miterlimit:4;stroke-dasharray:none;stroke-opacity:1;"
     d="  M 11.092949,66.903624   L 5.7615994,66.903624   L 5.7615994,67.241332   L 11.092949,67.241332   L 11.092949,66.903624   z "
     id="path119" />
  <path
     style="fill:#ffffff;fill-rule:evenodd;fill-opacity:1;stroke:#ffffff;stroke-width:0.018706491px;stroke-linecap:round;stroke-linejoin:round;stroke-miterlimit:4;stroke-dasharray:none;stroke-opacity:1;"
     d="  M 34.064521,66.903624   L 28.733171,66.903624   L 28.733171,67.241332   L 34.064521,67.241332   L 34.064521,66.903624   z "
     id="path121" />
  <path
     style="fill:#ff0000;fill-rule:evenodd;fill-opacity:1;stroke:#ff0000;stroke-width:0.018706491px;stroke-linecap:round;stroke-linejoin:round;stroke-miterlimit:4;stroke-dasharray:none;stroke-opacity:1;"
     d="  M 30.790885,76.64086   L 29.649789,76.64086   L 29.649789,76.88476   L 29.668495,76.903521   L 29.668495,77.203706   L 29.631082,77.222467   L 29.556257,77.222467   L 29.518844,77.241229   L 29.425311,77.241229   L 29.387898,77.25999   L 29.16342,77.25999   L 29.126007,77.278752   L 28.995062,77.278752   L 28.957649,77.25999   L 28.677051,77.25999   L 28.639638,77.241229   L 28.527399,77.241229   L 28.489987,77.222467   L 28.452574,77.222467   L 28.433867,77.203706   L 28.433867,77.184944   L 28.415161,77.184944   L 28.415161,77.12866   L 28.396454,77.109898   L 28.396454,76.903521   L 28.415161,76.88476   L 28.415161,76.809714   L 28.433867,76.809714   L 28.433867,76.772191   L 28.452574,76.753429   L 28.452574,76.734667   L 28.489987,76.659621   L 28.564812,76.584575   L 28.620932,76.565814   L 28.658345,76.528291   L 28.714464,76.509529   L 28.770584,76.472006   L 28.84541,76.453244   L 28.901529,76.434483   L 28.976355,76.39696   L 29.126007,76.359437   L 29.21954,76.340675   L 29.294366,76.321914   L 29.387898,76.303152   L 29.462724,76.284391   L 29.556257,76.284391   L 29.743321,76.246868   L 29.836854,76.246868   L 29.930386,76.228106   L 30.023919,76.228106   L 30.117451,76.209345   L 30.379342,76.209345   L 30.472875,76.190583   L 31.146308,76.190583   L 31.239841,76.209345   L 31.426906,76.209345   L 31.520438,76.228106   L 31.613971,76.228106   L 31.707503,76.246868   L 31.819742,76.246868   L 31.913274,76.265629   L 32.006807,76.265629   L 32.287404,76.321914   L 32.380937,76.321914   L 32.474469,76.340675   L 32.549295,76.359437   L 32.642828,76.378198   L 32.717654,76.39696   L 32.811186,76.415721   L 32.886012,76.453244   L 32.942131,76.472006   L 33.016957,76.490768   L 33.073077,76.509529   L 33.185316,76.565814   L 33.241435,76.584575   L 33.278848,76.622098   L 33.316261,76.64086   L 33.353674,76.678383   L 33.353674,76.941044   L 33.372381,76.959806   L 33.372381,77.12866   L 33.353674,77.147421   L 33.353674,77.241229   L 33.334968,77.241229   L 33.334968,77.25999   L 33.316261,77.25999   L 33.278848,77.278752   L 33.241435,77.278752   L 33.222729,77.297513   L 33.11049,77.297513   L 33.073077,77.316275   L 32.474469,77.316275   L 32.41835,77.297513   L 32.306111,77.297513   L 32.268698,77.278752   L 32.193872,77.278752   L 32.156459,77.25999   L 32.119046,77.25999   L 32.100339,77.241229   L 32.100339,77.203706   L 32.081633,77.184944   L 32.081633,77.166183   L 32.062926,77.147421   L 32.062926,77.072375   L 32.04422,77.053613   L 32.04422,76.941044   L 32.062926,76.922283   L 32.062926,76.828475   L 32.081633,76.809714   L 32.081633,76.772191   L 32.100339,76.753429   L 32.100339,76.715906   L 32.119046,76.697144   L 32.119046,76.678383   L 32.062926,76.678383   L 32.04422,76.659621   L 31.913274,76.659621   L 31.857155,76.64086   L 31.707503,76.64086   L 31.67009,76.622098   L 31.501732,76.622098   L 31.445612,76.603337   L 30.996656,76.603337   L 30.97795,76.622098   L 30.940537,76.622098   L 30.92183,76.64086   L 30.809591,76.64086   L 30.790885,76.64086   z "
     id="path123" />
  <path
     style="fill:#ff0000;fill-rule:evenodd;fill-opacity:1;stroke:#ff0000;stroke-width:0.018706491px;stroke-linecap:round;stroke-linejoin:round;stroke-miterlimit:4;stroke-dasharray:none;stroke-opacity:1;"
     d="  M 33.353674,77.597698   L 28.415161,77.597698   L 28.415161,77.74779   L 33.353674,77.74779   L 33.353674,77.597698   z "
     id="path125" />
  <ellipse
     style="fill:none;stroke:#ff0000;stroke-width:0.056119476px;stroke-linecap:round;stroke-linejoin:round;stroke-miterlimit:4;stroke-dasharray:none;stroke-opacity:1;"
     cx="33.372381"
     cy="73.207499"
     rx="0.52378176"
     ry="0.52378176"
     id="ellipse127" />
  <path
     style="fill:#ff0000;fill-rule:evenodd;fill-opacity:1;stroke:#ff0000;stroke-width:0.018706491px;stroke-linecap:round;stroke-linejoin:round;stroke-miterlimit:4;stroke-dasharray:none;stroke-opacity:1;"
     d="  M 33.503326,72.757223   L 33.391087,72.757223   L 33.391087,73.845391   L 33.503326,73.845391   L 33.503326,72.757223   z "
     id="path129" />
  <path
     style="fill:#007f00;fill-rule:evenodd;fill-opacity:1;stroke:#007f00;stroke-width:0.018706491px;stroke-linecap:round;stroke-linejoin:round;stroke-miterlimit:4;stroke-dasharray:none;stroke-opacity:1;"
     d="  M 7.3516511,76.678383   L 7.3329447,76.678383   L 7.3329447,76.659621   L 7.3142382,76.659621   L 7.2955317,76.64086   L 7.2581187,76.64086   L 7.2207057,76.603337   L 7.1832927,76.584575   L 7.1645862,76.565814   L 7.0149343,76.490768   L 6.9962278,76.472006   L 6.8091629,76.378198   L 6.7904564,76.359437   L 6.7530434,76.340675   L 6.7343369,76.321914   L 6.6969239,76.303152   L 6.6782175,76.303152   L 6.6408045,76.265629   L 6.6033915,76.265629   L 6.584685,76.246868   L 6.584685,76.265629   L 6.5659785,76.284391   L 6.5659785,76.303152   L 6.547272,76.321914   L 6.547272,76.340675   L 6.5285655,76.340675   L 6.5285655,76.378198   L 6.509859,76.39696   L 6.509859,76.415721   L 6.4911525,76.434483   L 6.4911525,76.472006   L 6.472446,76.490768   L 6.472446,76.509529   L 6.4537396,76.528291   L 6.4537396,76.547052   L 6.4350331,76.565814   L 6.4350331,76.584575   L 6.4163266,76.603337   L 6.4163266,76.622098   L 6.3789136,76.622098   L 6.3415006,76.603337   L 6.3227941,76.603337   L 6.2853811,76.584575   L 6.2666746,76.584575   L 6.2292617,76.565814   L 6.2105552,76.565814   L 6.1357292,76.528291   L 6.1170227,76.509529   L 6.0796097,76.509529   L 6.0609032,76.490768   L 6.0234903,76.472006   L 6.0047838,76.453244   L 5.9673708,76.434483   L 5.9486643,76.415721   L 5.9112513,76.39696   L 5.8925448,76.378198   L 5.8551318,76.378198   L 5.8177188,76.340675   L 5.7803059,76.321914   L 5.7241864,76.265629   L 5.7054799,76.265629   L 5.6680669,76.228106   L 5.6493604,76.228106   L 5.6306539,76.209345   L 5.6306539,76.190583   L 5.6119474,76.190583   L 5.6119474,76.096775   L 5.6306539,76.078014   L 5.6306539,76.059252   L 5.6493604,76.040491   L 5.6493604,76.021729   L 5.6867734,75.984206   L 5.6867734,75.965445   L 5.7615994,75.890398   L 5.7803059,75.890398   L 5.7803059,75.871637   L 5.7990124,75.871637   L 5.8177188,75.852875   L 5.8551318,75.834114   L 5.8925448,75.834114   L 5.9299578,75.815352   L 6.1544357,75.815352   L 6.2105552,75.834114   L 6.2666746,75.834114   L 6.4911525,75.90916   L 6.5659785,75.927922   L 6.622098,75.946683   L 6.6782175,75.984206   L 6.7530434,76.002968   L 6.8091629,76.040491   L 6.8652824,76.059252   L 6.9401083,76.096775   L 6.9962278,76.115537   L 7.0523473,76.15306   L 7.1271732,76.171821   L 7.2394122,76.246868   L 7.2955317,76.265629   L 7.4077706,76.340675   L 7.4451836,76.359437   L 7.5574226,76.434483   L 7.613542,76.453244   L 7.725781,76.528291   L 7.8006069,76.565814   L 7.9689654,76.678383   L 8.0437913,76.734667   L 8.1560303,76.809714   L 8.2121498,76.865998   L 8.3243887,76.941044   L 8.3805082,76.997329   L 8.4927471,77.072375   L 8.5862796,77.166183   L 8.6423991,77.203706   L 8.679812,77.25999   L 8.7359315,77.297513   L 8.7733445,77.335036   L 8.8107575,77.391321   L 8.8855834,77.466367   L 8.9229964,77.541413   L 8.9604094,77.578936   L 8.9791159,77.616459   L 8.9791159,77.635221   L 8.9978224,77.672744   L 8.9978224,77.691506   L 8.9604094,77.729029   L 8.9604094,77.74779   L 8.9417029,77.766552   L 8.9417029,77.785313   L 8.9229964,77.804075   L 8.9229964,77.822836   L 8.9042899,77.822836   L 8.9042899,77.860359   L 8.8855834,77.860359   L 8.8855834,77.879121   L 8.866877,77.897882   L 8.866877,77.916644   L 8.8481705,77.935406   L 8.8481705,77.954167   L 8.829464,77.954167   L 8.829464,77.972929   L 8.8107575,77.99169   L 8.792051,77.99169   L 8.792051,78.010452   L 8.7733445,78.029213   L 8.7359315,78.029213   L 8.717225,78.010452   L 8.6611055,78.010452   L 8.6423991,77.99169   L 8.6236926,77.99169   L 8.5862796,77.972929   L 8.5675731,77.972929   L 8.5488666,77.954167   L 8.5114536,77.935406   L 8.4927471,77.935406   L 8.4740406,77.916644   L 8.4366277,77.897882   L 8.4179212,77.879121   L 8.3805082,77.879121   L 8.3618017,77.860359   L 8.3243887,77.841598   L 8.3056822,77.822836   L 8.2682692,77.804075   L 8.2308562,77.766552   L 8.1934433,77.74779   L 8.1747368,77.729029   L 8.1373238,77.710267   L 8.1186173,77.691506   L 8.0812043,77.672744   L 8.0624978,77.672744   L 8.0250848,77.635221   L 7.9876719,77.616459   L 7.9689654,77.597698   L 7.9689654,77.560175   L 7.9876719,77.541413   L 7.9876719,77.485129   L 8.0063783,77.466367   L 8.0063783,77.428844   L 8.0250848,77.428844   L 8.0250848,77.391321   L 8.0437913,77.391321   L 8.0437913,77.37256   L 8.0624978,77.353798   L 8.0624978,77.335036   L 8.0999108,77.297513   L 8.0999108,77.278752   L 8.1186173,77.278752   L 8.1186173,77.25999   L 8.1373238,77.25999   L 8.2121498,77.184944   L 8.1934433,77.166183   L 8.1747368,77.166183   L 8.1747368,77.147421   L 8.1560303,77.147421   L 8.1373238,77.12866   L 8.0999108,77.109898   L 8.0812043,77.091137   L 8.0437913,77.072375   L 8.0250848,77.053613   L 7.9876719,77.034852   L 7.9689654,76.997329   L 7.8193134,76.922283   L 7.763194,76.865998   L 7.613542,76.790952   L 7.5948355,76.772191   L 7.5574226,76.753429   L 7.5387161,76.753429   L 7.5013031,76.734667   L 7.4825966,76.734667   L 7.4638901,76.715906   L 7.3890641,76.715906   L 7.3890641,76.697144   L 7.3703576,76.697144   L 7.3703576,76.678383   L 7.3516511,76.678383   z "
     id="path131" />
  <text
     xml:space="preserve"
     style="font-size:2.000000px;font-style:normal;font-variant:normal;font-weight:400;font-stretch:Normal;line-height:341.676636%;letter-spacing:0px;word-spacing:0px;fill:#000000;fill-opacity:1;stroke:none;font-family:Arial;text-align:start;text-anchor:start;"
     transform="matrix(1.000000,-0.000000,0.000000,1.000000,5.593241,74.670899)"
     x="0.000000"
     y="0.000000"
     id="text141"><tspan
       x="0.000000"
       y="0.000000"
       id="tspan135"><tspan
         dx="0.000000"
         dy="0.000000"
         style="fill:#007F00;font-size:2.000000px;font-style:normal;font-variant:normal;font-weight:400;font-stretch:Normal;font-family:Arial;"
         id="tspan133">R</tspan></tspan><tspan
       x="0.411543"
       y="9.005536"
       id="tspan139"><tspan
         dx="0.000000"
         dy="0.000000"
         style="fill:#FFFFFF;font-size:2.812500px;font-style:normal;font-variant:normal;font-weight:400;font-stretch:Normal;font-family:Arial;"
         id="tspan137">1</tspan></tspan></text>
  <text
     xml:space="preserve"
     style="font-size:2.812500px;font-style:normal;font-variant:normal;font-weight:400;font-stretch:Normal;line-height:189.449785%;letter-spacing:0px;word-spacing:0px;fill:#000000;fill-opacity:1;stroke:none;font-family:Arial;text-align:start;text-anchor:start;"
     transform="matrix(1.000000,-0.000000,0.000000,1.000000,5.593241,74.670899)"
     x="0.411543"
     y="14.465141"
     id="text151"><tspan
       x="0.411543"
       y="14.465141"
       id="tspan145"><tspan
         dx="0.000000"
         dy="0.000000"
         style="fill:#FFFFFF;font-size:2.812500px;font-style:normal;font-variant:normal;font-weight:400;font-stretch:Normal;font-family:Arial;"
         id="tspan143">4</tspan></tspan><tspan
       x="0.411543"
       y="19.793417"
       id="tspan149"><tspan
         dx="0.000000"
         dy="0.000000"
         style="fill:#FFFFFF;font-size:2.812500px;font-style:normal;font-variant:normal;font-weight:400;font-stretch:Normal;font-family:Arial;"
         id="tspan147">7</tspan></tspan></text>
  <text
     xml:space="preserve"
     style="font-size:2.812500px;font-style:normal;font-variant:normal;font-weight:400;font-stretch:Normal;line-height:210.796239%;letter-spacing:0px;word-spacing:0px;fill:#000000;fill-opacity:1;stroke:none;font-family:Arial;text-align:start;text-anchor:start;"
     transform="matrix(1.000000,-0.000000,0.000000,1.000000,5.593241,74.670899)"
     x="10.812352"
     y="8.536497"
     id="text161"><tspan
       x="10.812352"
       y="8.536497"
       id="tspan155"><tspan
         dx="0.000000"
         dy="0.000000"
         style="fill:#FFFFFF;font-size:2.812500px;font-style:normal;font-variant:normal;font-weight:400;font-stretch:Normal;font-family:Arial;"
         id="tspan153">2</tspan></tspan><tspan
       x="10.812352"
       y="14.465141"
       id="tspan159"><tspan
         dx="0.000000"
         dy="0.000000"
         style="fill:#FFFFFF;font-size:2.812500px;font-style:normal;font-variant:normal;font-weight:400;font-stretch:Normal;font-family:Arial;"
         id="tspan157">5</tspan></tspan></text>
  <text
     xml:space="preserve"
     style="font-size:2.812500px;font-style:normal;font-variant:normal;font-weight:400;font-stretch:Normal;line-height:125.000000%;letter-spacing:0px;word-spacing:0px;fill:#000000;fill-opacity:1;stroke:none;font-family:Arial;text-align:start;text-anchor:start;"
     transform="matrix(1.000000,-0.000000,0.000000,1.000000,5.593241,74.670899)"
     x="10.812352"
     y="19.793417"
     id="text167"><tspan
       x="10.812352"
       y="19.793417"
       id="tspan165"><tspan
         dx="0.000000"
         dy="0.000000"
         style="fill:#FFFFFF;font-size:2.812500px;font-style:normal;font-variant:normal;font-weight:400;font-stretch:Normal;font-family:Arial;"
         id="tspan163">8</tspan></tspan></text>
  <text
     xml:space="preserve"
     style="font-size:2.812500px;font-style:normal;font-variant:normal;font-weight:400;font-stretch:Normal;line-height:194.119322%;letter-spacing:0px;word-spacing:0px;fill:#000000;fill-opacity:1;stroke:none;font-family:Arial;text-align:start;text-anchor:start;"
     transform="matrix(1.000000,-0.000000,0.000000,1.000000,5.593241,74.670899)"
     x="22.054953"
     y="9.005536"
     id="text177"><tspan
       x="22.054953"
       y="9.005536"
       id="tspan171"><tspan
         dx="0.000000"
         dy="0.000000"
         style="fill:#FFFFFF;font-size:2.812500px;font-style:normal;font-variant:normal;font-weight:400;font-stretch:Normal;font-family:Arial;"
         id="tspan169">3</tspan></tspan><tspan
       x="22.054953"
       y="14.465141"
       id="tspan175"><tspan
         dx="0.000000"
         dy="0.000000"
         style="fill:#FFFFFF;font-size:2.812500px;font-style:normal;font-variant:normal;font-weight:400;font-stretch:Normal;font-family:Arial;"
         id="tspan173">6</tspan></tspan></text>
  <text
     xml:space="preserve"
     style="font-size:2.812500px;font-style:normal;font-variant:normal;font-weight:400;font-stretch:Normal;line-height:125.000000%;letter-spacing:0px;word-spacing:0px;fill:#000000;fill-opacity:1;stroke:none;font-family:Arial;text-align:start;text-anchor:start;"
     transform="matrix(1.000000,-0.000000,0.000000,1.000000,5.593241,74.670899)"
     x="22.054953"
     y="19.793417"
     id="text183"><tspan
       x="22.054953"
       y="19.793417"
       id="tspan181"><tspan
         dx="0.000000"
         dy="0.000000"
         style="fill:#FFFFFF;font-size:2.812500px;font-style:normal;font-variant:normal;font-weight:400;font-stretch:Normal;font-family:Arial;"
         id="tspan179">9</tspan></tspan></text>
  <text
     xml:space="preserve"
     style="font-size:2.812500px;font-style:normal;font-variant:normal;font-weight:400;font-stretch:Normal;line-height:125.000000%;letter-spacing:0px;word-spacing:0px;fill:#000000;fill-opacity:1;stroke:none;font-family:Arial;text-align:start;text-anchor:start;"
     transform="matrix(1.000000,-0.000000,0.000000,1.000000,5.593241,74.670899)"
     x="13.131957"
     y="25.046646"
     id="text189"><tspan
       x="13.131957"
       y="25.046646"
       id="tspan187"><tspan
         dx="0.000000"
         dy="0.000000"
         style="fill:#FFFFFF;font-size:2.812500px;font-style:normal;font-variant:normal;font-weight:400;font-stretch:Normal;font-family:Arial;"
         id="tspan185">0</tspan></tspan></text>
  <text
     xml:space="preserve"
     style="font-size:2.812500px;font-style:normal;font-variant:normal;font-weight:400;font-stretch:Normal;line-height:125.000000%;letter-spacing:0px;word-spacing:0px;fill:#000000;fill-opacity:1;stroke:none;font-family:Arial;text-align:start;text-anchor:start;"
     transform="matrix(1.000000,-0.000000,0.000000,1.000000,5.593241,74.670899)"
     x="21.662117"
     y="25.046646"
     id="text195"><tspan
       x="21.662117"
       y="25.046646"
       id="tspan193"><tspan
         dx="0.000000"
         dy="0.000000"
         style="fill:#FFFFFF;font-size:2.812500px;font-style:normal;font-variant:normal;font-weight:400;font-stretch:Normal;font-family:Arial;"
         id="tspan191">#</tspan></tspan></text>
  <text
     xml:space="preserve"
     style="font-size:4.187500px;font-style:normal;font-variant:normal;font-weight:400;font-stretch:Normal;line-height:125.000000%;letter-spacing:0px;word-spacing:0px;fill:#000000;fill-opacity:1;stroke:none;font-family:Arial;text-align:start;text-anchor:start;"
     transform="matrix(1.000000,-0.000000,0.000000,1.000000,5.593241,74.670899)"
     x="0.355423"
     y="26.416238"
     id="text201"><tspan
       x="0.355423"
       y="26.416238"
       id="tspan199"><tspan
         dx="0.000000"
         dy="0.000000"
         style="fill:#FFFFFF;font-size:4.187500px;font-style:normal;font-variant:normal;font-weight:400;font-stretch:Normal;font-family:Arial;"
         id="tspan197">*</tspan></tspan></text>
  <text
     xml:space="preserve"
     style="font-size:1.375000px;font-style:normal;font-variant:normal;font-weight:400;font-stretch:Normal;line-height:394.333299%;letter-spacing:0px;word-spacing:0px;fill:#000000;fill-opacity:1;stroke:none;font-family:Arial;text-align:start;text-anchor:start;"
     transform="matrix(1.000000,-0.000000,0.000000,1.000000,5.593241,74.670899)"
     x="2.656322"
     y="14.352572"
     id="text221"><tspan
       x="2.656322"
       y="14.352572"
       id="tspan209"><tspan
         dx="0.000000"
         dy="0.000000"
         style="fill:#FFFFFF;font-size:1.375000px;font-style:normal;font-variant:normal;font-weight:400;font-stretch:Normal;font-family:Arial;"
         id="tspan203">g</tspan><tspan
         dx="0.000000"
         dy="0.000000"
         style="fill:#FFFFFF;font-size:1.375000px;font-style:normal;font-variant:normal;font-weight:400;font-stretch:Normal;font-family:Arial;"
         id="tspan205">h</tspan><tspan
         dx="0.000000"
         dy="0.000000"
         style="fill:#FFFFFF;font-size:1.375000px;font-style:normal;font-variant:normal;font-weight:400;font-stretch:Normal;font-family:Arial;"
         id="tspan207">i</tspan></tspan><tspan
       x="2.656322"
       y="19.774655"
       id="tspan219"><tspan
         dx="0.000000"
         dy="0.000000"
         style="fill:#FFFFFF;font-size:1.375000px;font-style:normal;font-variant:normal;font-weight:400;font-stretch:Normal;font-family:Arial;"
         id="tspan211">p</tspan><tspan
         dx="0.000000"
         dy="0.000000"
         style="fill:#FFFFFF;font-size:1.375000px;font-style:normal;font-variant:normal;font-weight:400;font-stretch:Normal;font-family:Arial;"
         id="tspan213">q</tspan><tspan
         dx="0.000000"
         dy="0.000000"
         style="fill:#FFFFFF;font-size:1.375000px;font-style:normal;font-variant:normal;font-weight:400;font-stretch:Normal;font-family:Arial;"
         id="tspan215">r</tspan><tspan
         dx="0.000000"
         dy="0.000000"
         style="fill:#FFFFFF;font-size:1.375000px;font-style:normal;font-variant:normal;font-weight:400;font-stretch:Normal;font-family:Arial;"
         id="tspan217">s</tspan></tspan></text>
  <text
     xml:space="preserve"
     style="font-size:1.375000px;font-style:normal;font-variant:normal;font-weight:400;font-stretch:Normal;line-height:394.333299%;letter-spacing:0px;word-spacing:0px;fill:#000000;fill-opacity:1;stroke:none;font-family:Arial;text-align:start;text-anchor:start;"
     transform="matrix(1.000000,-0.000000,0.000000,1.000000,5.593241,74.670899)"
     x="12.944892"
     y="14.352572"
     id="text239"><tspan
       x="12.944892"
       y="14.352572"
       id="tspan229"><tspan
         dx="0.000000"
         dy="0.000000"
         style="fill:#FFFFFF;font-size:1.375000px;font-style:normal;font-variant:normal;font-weight:400;font-stretch:Normal;font-family:Arial;"
         id="tspan223">j</tspan><tspan
         dx="0.000000"
         dy="0.000000"
         style="fill:#FFFFFF;font-size:1.375000px;font-style:normal;font-variant:normal;font-weight:400;font-stretch:Normal;font-family:Arial;"
         id="tspan225">k</tspan><tspan
         dx="0.000000"
         dy="0.000000"
         style="fill:#FFFFFF;font-size:1.375000px;font-style:normal;font-variant:normal;font-weight:400;font-stretch:Normal;font-family:Arial;"
         id="tspan227">l</tspan></tspan><tspan
       x="12.944892"
       y="19.774655"
       id="tspan237"><tspan
         dx="0.000000"
         dy="0.000000"
         style="fill:#FFFFFF;font-size:1.375000px;font-style:normal;font-variant:normal;font-weight:400;font-stretch:Normal;font-family:Arial;"
         id="tspan231">t</tspan><tspan
         dx="0.000000"
         dy="0.000000"
         style="fill:#FFFFFF;font-size:1.375000px;font-style:normal;font-variant:normal;font-weight:400;font-stretch:Normal;font-family:Arial;"
         id="tspan233">u</tspan><tspan
         dx="0.000000"
         dy="0.000000"
         style="fill:#FFFFFF;font-size:1.375000px;font-style:normal;font-variant:normal;font-weight:400;font-stretch:Normal;font-family:Arial;"
         id="tspan235">v</tspan></tspan></text>
  <text
     xml:space="preserve"
     style="font-size:1.375000px;font-style:normal;font-variant:normal;font-weight:400;font-stretch:Normal;line-height:394.333299%;letter-spacing:0px;word-spacing:0px;fill:#000000;fill-opacity:1;stroke:none;font-family:Arial;text-align:start;text-anchor:start;"
     transform="matrix(1.000000,-0.000000,0.000000,1.000000,5.593241,74.670899)"
     x="24.355852"
     y="14.352572"
     id="text259"><tspan
       x="24.355852"
       y="14.352572"
       id="tspan247"><tspan
         dx="0.000000"
         dy="0.000000"
         style="fill:#FFFFFF;font-size:1.375000px;font-style:normal;font-variant:normal;font-weight:400;font-stretch:Normal;font-family:Arial;"
         id="tspan241">m</tspan><tspan
         dx="0.000000"
         dy="0.000000"
         style="fill:#FFFFFF;font-size:1.375000px;font-style:normal;font-variant:normal;font-weight:400;font-stretch:Normal;font-family:Arial;"
         id="tspan243">n</tspan><tspan
         dx="0.000000"
         dy="0.000000"
         style="fill:#FFFFFF;font-size:1.375000px;font-style:normal;font-variant:normal;font-weight:400;font-stretch:Normal;font-family:Arial;"
         id="tspan245">o</tspan></tspan><tspan
       x="24.355852"
       y="19.774655"
       id="tspan257"><tspan
         dx="0.000000"
         dy="0.000000"
         style="fill:#FFFFFF;font-size:1.375000px;font-style:normal;font-variant:normal;font-weight:400;font-stretch:Normal;font-family:Arial;"
         id="tspan249">w</tspan><tspan
         dx="0.000000"
         dy="0.000000"
         style="fill:#FFFFFF;font-size:1.375000px;font-style:normal;font-variant:normal;font-weight:400;font-stretch:Normal;font-family:Arial;"
         id="tspan251">x</tspan><tspan
         dx="0.000000"
         dy="0.000000"
         style="fill:#FFFFFF;font-size:1.375000px;font-style:normal;font-variant:normal;font-weight:400;font-stretch:Normal;font-family:Arial;"
         id="tspan253">y</tspan><tspan
         dx="0.000000"
         dy="0.000000"
         style="fill:#FFFFFF;font-size:1.375000px;font-style:normal;font-variant:normal;font-weight:400;font-stretch:Normal;font-family:Arial;"
         id="tspan255">z</tspan></tspan></text>
  <text
     xml:space="preserve"
     style="font-size:1.375000px;font-style:normal;font-variant:normal;font-weight:400;font-stretch:Normal;line-height:125.000000%;letter-spacing:0px;word-spacing:0px;fill:#000000;fill-opacity:1;stroke:none;font-family:Arial;text-align:start;text-anchor:start;"
     transform="matrix(1.000000,-0.000000,0.000000,1.000000,5.593241,74.670899)"
     x="12.944892"
     y="8.311359"
     id="text269"><tspan
       x="12.944892"
       y="8.311359"
       id="tspan267"><tspan
         dx="0.000000"
         dy="0.000000"
         style="fill:#FFFFFF;font-size:1.375000px;font-style:normal;font-variant:normal;font-weight:400;font-stretch:Normal;font-family:Arial;"
         id="tspan261">a</tspan><tspan
         dx="0.000000"
         dy="0.000000"
         style="fill:#FFFFFF;font-size:1.375000px;font-style:normal;font-variant:normal;font-weight:400;font-stretch:Normal;font-family:Arial;"
         id="tspan263">b</tspan><tspan
         dx="0.000000"
         dy="0.000000"
         style="fill:#FFFFFF;font-size:1.375000px;font-style:normal;font-variant:normal;font-weight:400;font-stretch:Normal;font-family:Arial;"
         id="tspan265">c</tspan></tspan></text>
  <text
     xml:space="preserve"
     style="font-size:1.375000px;font-style:normal;font-variant:normal;font-weight:400;font-stretch:Normal;line-height:125.000000%;letter-spacing:0px;word-spacing:0px;fill:#000000;fill-opacity:1;stroke:none;font-family:Arial;text-align:start;text-anchor:start;"
     transform="matrix(1.000000,-0.000000,0.000000,1.000000,5.593241,74.670899)"
     x="24.355852"
     y="8.986774"
     id="text279"><tspan
       x="24.355852"
       y="8.986774"
       id="tspan277"><tspan
         dx="0.000000"
         dy="0.000000"
         style="fill:#FFFFFF;font-size:1.375000px;font-style:normal;font-variant:normal;font-weight:400;font-stretch:Normal;font-family:Arial;"
         id="tspan271">d</tspan><tspan
         dx="0.000000"
         dy="0.000000"
         style="fill:#FFFFFF;font-size:1.375000px;font-style:normal;font-variant:normal;font-weight:400;font-stretch:Normal;font-family:Arial;"
         id="tspan273">e</tspan><tspan
         dx="0.000000"
         dy="0.000000"
         style="fill:#FFFFFF;font-size:1.375000px;font-style:normal;font-variant:normal;font-weight:400;font-stretch:Normal;font-family:Arial;"
         id="tspan275">f</tspan></tspan></text>
  <text
     xml:space="preserve"
     style="font-size:1.375000px;font-style:normal;font-variant:normal;font-weight:400;font-stretch:Normal;line-height:125.000000%;letter-spacing:0px;word-spacing:0px;fill:#000000;fill-opacity:1;stroke:none;font-family:Arial;text-align:start;text-anchor:start;"
     transform="matrix(1.000000,-0.000000,0.000000,1.000000,5.593241,74.670899)"
     x="2.993039"
     y="25.534446"
     id="text289"><tspan
       x="2.993039"
       y="25.534446"
       id="tspan287"><tspan
         dx="0.000000"
         dy="0.000000"
         style="fill:#FFFFFF;font-size:1.375000px;font-style:normal;font-variant:normal;font-weight:400;font-stretch:Normal;font-family:Arial;"
         id="tspan281">a</tspan><tspan
         dx="0.000000"
         dy="0.000000"
         style="fill:#FFFFFF;font-size:1.375000px;font-style:normal;font-variant:normal;font-weight:400;font-stretch:Normal;font-family:Arial;"
         id="tspan283">/</tspan><tspan
         dx="0.000000"
         dy="0.000000"
         style="fill:#FFFFFF;font-size:1.375000px;font-style:normal;font-variant:normal;font-weight:400;font-stretch:Normal;font-family:Arial;"
         id="tspan285">A</tspan></tspan></text>
  <path
     style="fill:none;stroke:#ffffff;stroke-width:0.018706491px;stroke-linecap:round;stroke-linejoin:round;stroke-miterlimit:4;stroke-dasharray:none;stroke-opacity:1;"
     d="  M 9.0165289,98.179099   L 9.0165289,98.122814   L 8.9978224,98.06653   L 8.9604094,97.991484   L 8.9229964,97.953961   L 8.8481705,97.916438   L 8.7733445,97.916438   L 8.6985185,97.953961   L 8.6611055,97.991484   L 8.6236926,98.06653   L 8.6049861,98.122814   L 8.6049861,98.235384   L 8.6236926,98.291668   L 8.6611055,98.366714   L 8.6985185,98.404237   L 8.7733445,98.44176   L 8.8481705,98.44176   L 8.9229964,98.404237   L 8.9604094,98.366714   L 8.9978224,98.291668   L 9.0165289,98.235384   L 9.0165289,98.179099  "
     id="path291" />
  <path
     style="fill:none;stroke:#ffffff;stroke-width:0.018706491px;stroke-linecap:round;stroke-linejoin:round;stroke-miterlimit:4;stroke-dasharray:none;stroke-opacity:1;"
     d="  M 9.1100613,98.272907   L 9.0726484,98.272907   L 9.0726484,98.31043   L 9.0539419,98.329191   L 9.0539419,98.366714   L 9.0352354,98.385476   L 9.0352354,98.404237   L 9.0165289,98.422999   L 9.0165289,98.44176   L 8.9417029,98.516807   L 8.9229964,98.516807   L 8.9229964,98.535568   L 8.8855834,98.535568   L 8.866877,98.55433   L 8.754638,98.55433   L 8.7359315,98.535568   L 8.6985185,98.535568   L 8.6985185,98.516807   L 8.679812,98.516807   L 8.679812,98.498045   L 8.6611055,98.498045   L 8.6611055,98.479283   L 8.6423991,98.479283   L 8.6236926,98.460522   L 8.6236926,98.44176   L 8.5862796,98.404237   L 8.5862796,98.366714   L 8.5675731,98.347953   L 8.5675731,98.31043   L 8.5488666,98.291668   L 8.5488666,98.104053   L 8.5675731,98.085291   L 8.5675731,98.029007   L 8.5862796,98.010245   L 8.5862796,97.991484   L 8.6049861,97.972722   L 8.6049861,97.953961   L 8.6236926,97.953961   L 8.6236926,97.916438   L 8.6423991,97.916438   L 8.6611055,97.897676   L 8.6611055,97.878914   L 8.679812,97.878914   L 8.679812,97.860153   L 8.6985185,97.860153   L 8.717225,97.841391   L 8.7359315,97.841391   L 8.754638,97.82263   L 8.866877,97.82263   L 8.8855834,97.841391   L 8.9229964,97.841391   L 8.9229964,97.860153   L 8.9417029,97.860153   L 8.9978224,97.916438   L 8.9978224,97.935199   L 9.0165289,97.935199   L 9.0165289,97.953961   L 9.0352354,97.972722   L 9.0352354,98.010245   L 9.0539419,98.029007   L 9.0539419,98.06653   L 9.0726484,98.06653   L 9.0726484,98.085291   L 9.0913549,98.085291   L 9.0913549,98.104053   L 9.1100613,98.104053   L 9.1100613,98.122814   L 10.494342,98.122814   L 10.494342,98.648137   L 10.363396,98.648137   L 10.363396,98.272907   L 10.176331,98.272907   L 10.176331,98.535568   L 10.045386,98.535568   L 10.045386,98.272907   L 9.895734,98.272907   L 9.895734,98.648137   L 9.7460821,98.648137   L 9.7460821,98.272907   L 9.1287678,98.272907   L 9.1100613,98.272907  "
     id="path293" />
  <path
     style="fill:none;stroke:#ffffff;stroke-width:0.018706491px;stroke-linecap:round;stroke-linejoin:round;stroke-miterlimit:4;stroke-dasharray:none;stroke-opacity:1;"
     d="  M 31.688797,99.210983   L 32.119046,99.642498   L 32.062926,99.698783   L 32.062926,99.717545   L 32.04422,99.717545   L 31.9881,99.773829   L 31.819742,99.604975   L 31.782329,99.586214   L 31.763623,99.548691   L 31.72621,99.529929   L 31.707503,99.511168   L 31.688797,99.473645   L 31.651384,99.454883   L 31.632677,99.41736   L 31.595264,99.398599   L 31.426906,99.229745   L 31.052776,99.229745   L 31.015363,99.210983   L 30.65994,99.210983   L 30.65994,99.267268   L 30.641233,99.286029   L 30.641233,99.323552   L 30.622527,99.342314   L 30.622527,99.361076   L 30.60382,99.361076   L 30.60382,99.379837   L 30.585114,99.379837   L 30.585114,99.398599   L 30.566407,99.398599   L 30.566407,99.41736   L 30.547701,99.41736   L 30.528994,99.436122   L 30.510288,99.436122   L 30.491581,99.454883   L 30.435462,99.454883   L 30.416755,99.473645   L 30.210984,99.473645   L 30.192277,99.454883   L 30.136158,99.454883   L 30.117451,99.436122   L 30.098745,99.436122   L 30.061332,99.398599   L 30.042625,99.398599   L 30.042625,99.379837   L 30.005212,99.342314   L 30.005212,99.304791   L 29.986506,99.286029   L 29.986506,99.229745   L 29.874267,99.229745   L 29.85556,99.210983   L 29.743321,99.210983   L 29.762028,99.192222   L 29.780734,99.192222   L 29.85556,99.117176   L 29.874267,99.079653   L 29.892973,99.060891   L 29.892973,99.042129   L 29.91168,99.023368   L 29.91168,98.985845   L 29.930386,98.967083   L 29.930386,98.92956   L 29.949093,98.910799   L 29.949093,98.854514   L 29.967799,98.816991   L 29.967799,98.704422   L 29.986506,98.68566   L 29.986506,98.404237   L 30.005212,98.385476   L 30.005212,98.366714   L 30.023919,98.366714   L 30.023919,98.347953   L 30.117451,98.254145   L 30.136158,98.254145   L 30.136158,98.235384   L 30.154864,98.235384   L 30.173571,98.216622   L 30.192277,98.216622   L 30.22969,98.179099   L 30.267103,98.179099   L 30.304516,98.141576   L 30.323223,98.141576   L 30.248397,98.06653   L 30.248397,98.047768   L 29.967799,97.766345   L 29.967799,97.747584   L 29.892973,97.672538   L 29.949093,97.616253   L 29.967799,97.616253   L 29.967799,97.597491   L 30.023919,97.541207   L 30.192277,97.710061   L 30.210984,97.747584   L 30.248397,97.766345   L 30.267103,97.803868   L 30.304516,97.82263   L 30.323223,97.841391   L 30.341929,97.878914   L 30.379342,97.897676   L 30.398049,97.935199   L 30.566407,98.104053   L 30.566407,98.085291   L 30.60382,98.085291   L 30.60382,98.06653   L 30.697352,98.06653   L 30.716059,98.047768   L 30.828298,98.047768   L 30.847004,98.029007   L 31.165015,98.029007   L 31.202428,98.047768   L 31.314667,98.047768   L 31.35208,98.06653   L 31.426906,98.06653   L 31.464319,98.085291   L 31.520438,98.085291   L 31.595264,98.122814   L 31.632677,98.122814   L 31.707503,98.160337   L 31.744916,98.160337   L 31.763623,98.179099   L 31.838448,98.216622   L 31.857155,98.235384   L 31.894568,98.254145   L 31.913274,98.272907   L 31.950687,98.291668   L 32.025513,98.366714   L 32.025513,98.404237   L 32.04422,98.422999   L 32.04422,98.535568   L 32.062926,98.55433   L 32.062926,98.704422   L 32.081633,98.723183   L 32.081633,98.816991   L 32.100339,98.835753   L 32.100339,98.892037   L 32.119046,98.92956   L 32.119046,98.948322   L 32.137752,98.967083   L 32.137752,99.004606   L 32.156459,99.023368   L 32.156459,99.042129   L 32.175165,99.060891   L 32.193872,99.098414   L 32.193872,99.117176   L 32.231285,99.154699   L 32.231285,99.17346   L 32.249991,99.192222   L 32.268698,99.192222   L 32.287404,99.210983   L 31.707503,99.210983   L 31.688797,99.210983  "
     id="path295" />
  <path
     style="fill:none;stroke:#ffffff;stroke-width:0.018706491px;stroke-linecap:round;stroke-linejoin:round;stroke-miterlimit:4;stroke-dasharray:none;stroke-opacity:1;"
     d="  M 30.435462,98.254145   L 30.416755,98.254145   L 30.416755,98.272907   L 30.379342,98.272907   L 30.360636,98.291668   L 30.341929,98.291668   L 30.341929,98.31043   L 30.323223,98.31043   L 30.28581,98.347953   L 30.267103,98.347953   L 30.267103,98.366714   L 30.248397,98.366714   L 30.22969,98.385476   L 30.22969,98.404237   L 30.210984,98.404237   L 30.210984,98.422999   L 30.192277,98.422999   L 30.192277,98.460522   L 30.173571,98.460522   L 30.173571,98.704422   L 30.154864,98.741945   L 30.154864,98.854514   L 30.136158,98.873276   L 30.136158,98.910799   L 30.117451,98.92956   L 30.117451,98.948322   L 30.098745,98.985845   L 30.098745,99.004606   L 30.042625,99.060891   L 30.042625,99.079653   L 30.023919,99.098414   L 30.005212,99.098414   L 29.986506,99.117176   L 31.29596,99.117176   L 30.454168,98.272907   L 30.435462,98.254145  "
     id="path297" />
  <path
     style="fill:none;stroke:#ffffff;stroke-width:0.018706491px;stroke-linecap:round;stroke-linejoin:round;stroke-miterlimit:4;stroke-dasharray:none;stroke-opacity:1;"
     d="  M 31.595264,99.117176   L 32.025513,99.117176   L 31.969394,99.060891   L 31.969394,99.042129   L 31.950687,99.042129   L 31.950687,99.023368   L 31.931981,99.004606   L 31.931981,98.985845   L 31.913274,98.967083   L 31.913274,98.910799   L 31.894568,98.892037   L 31.894568,98.854514   L 31.875861,98.835753   L 31.875861,98.760706   L 31.857155,98.741945   L 31.857155,98.591853   L 31.838448,98.573091   L 31.838448,98.44176   L 31.801035,98.404237   L 31.801035,98.385476   L 31.763623,98.347953   L 31.744916,98.347953   L 31.72621,98.329191   L 31.688797,98.31043   L 31.651384,98.272907   L 31.613971,98.272907   L 31.595264,98.254145   L 31.557851,98.254145   L 31.539145,98.235384   L 31.501732,98.216622   L 31.464319,98.216622   L 31.445612,98.19786   L 31.408199,98.19786   L 31.370786,98.179099   L 31.314667,98.179099   L 31.277254,98.160337   L 31.183721,98.160337   L 31.165015,98.141576   L 30.865711,98.141576   L 30.847004,98.160337   L 30.716059,98.160337   L 30.697352,98.179099   L 30.641233,98.179099   L 30.97795,98.516807   L 31.034069,98.55433   L 31.071482,98.610614   L 31.127602,98.648137   L 31.165015,98.68566   L 31.202428,98.741945   L 31.258547,98.779468   L 31.576558,99.098414   L 31.595264,99.117176  "
     id="path299" />
  <text
     xml:space="preserve"
     style="font-size:1.937500px;font-style:normal;font-variant:normal;font-weight:400;font-stretch:Normal;line-height:125.000000%;letter-spacing:0px;word-spacing:0px;fill:#000000;fill-opacity:1;stroke:none;font-family:Arial;text-align:start;text-anchor:start;"
     transform="matrix(1.000000,-0.000000,0.000000,1.000000,17.902112,71.669054)"
     x="0.000000"
     y="0.000000"
     id="text307"><tspan
       x="0.000000"
       y="0.000000"
       id="tspan305"><tspan
         dx="0.000000"
         dy="0.000000"
         style="fill:#FFFFFF;font-size:1.937500px;font-style:normal;font-variant:normal;font-weight:400;font-stretch:Normal;font-family:Arial;"
         id="tspan301">O</tspan><tspan
         dx="0.000000"
         dy="0.000000"
         style="fill:#FFFFFF;font-size:1.937500px;font-style:normal;font-variant:normal;font-weight:400;font-stretch:Normal;font-family:Arial;"
         id="tspan303">K</tspan></tspan></text>
  <path
     style="fill:none;stroke:#000000;stroke-width:0.093532458px;stroke-linecap:round;stroke-linejoin:round;stroke-miterlimit:4;stroke-dasharray:none;stroke-opacity:1;"
     d="  M 39.900946,0.86303049   L 39.900946,0.78798436   L 39.88224,0.73169976   L 39.88224,0.65665363   L 39.844827,0.5816075   L 39.844827,0.54408444   L 39.788707,0.43151524   L 39.751294,0.41275371   L 39.713881,0.33770758   L 39.676468,0.31894605   L 39.657762,0.28142299   L 39.620349,0.26266145   L 39.601642,0.22513839   L 39.526816,0.18761532   L 39.50811,0.15009226   L 39.433284,0.11256919   L 39.395871,0.11256919   L 39.283632,0.056284597   L 39.208806,0.056284597   L 39.152687,0.037523065   L 0.78567264,0.037523065   L 0.72955317,0.056284597   L 0.6547272,0.056284597   L 0.54248825,0.11256919   L 0.50507527,0.11256919   L 0.4302493,0.15009226   L 0.41154281,0.18761532   L 0.33671685,0.22513839   L 0.31801035,0.26266145   L 0.28059737,0.28142299   L 0.26189088,0.31894605   L 0.2244779,0.33770758   L 0.18706491,0.41275371   L 0.14965193,0.43151524   L 0.11223895,0.50656137   L 0.11223895,0.54408444   L 0.056119474,0.65665363   L 0.056119474,0.73169976   L 0.037412983,0.78798436   L 0.037412983,110.78685   L 0.056119474,110.84313   L 0.056119474,110.91818   L 0.11223895,111.03075   L 0.11223895,111.06827   L 0.14965193,111.14332   L 0.18706491,111.16208   L 0.2244779,111.23713   L 0.26189088,111.25589   L 0.28059737,111.29341   L 0.31801035,111.31217   L 0.33671685,111.34969   L 0.41154281,111.38722   L 0.4302493,111.42474   L 0.54248825,111.48103   L 0.57990124,111.48103   L 0.6547272,111.51855   L 0.72955317,111.51855   L 0.78567264,111.53731   L 39.152687,111.53731   L 39.208806,111.51855   L 39.283632,111.51855   L 39.358458,111.48103   L 39.395871,111.48103   L 39.50811,111.42474   L 39.526816,111.38722   L 39.601642,111.34969   L 39.620349,111.31217   L 39.657762,111.29341   L 39.676468,111.25589   L 39.713881,111.23713   L 39.751294,111.16208   L 39.788707,111.14332   L 39.844827,111.03075   L 39.844827,110.99323   L 39.88224,110.91818   L 39.88224,110.84313   L 39.900946,110.78685   L 39.900946,1.1819765   L 39.900946,0.86303049   z "
     id="path309" />
  <path
     style="fill:#ffffff;fill-rule:evenodd;fill-opacity:1;stroke:#ffffff;stroke-width:0.018706491px;stroke-linecap:round;stroke-linejoin:round;stroke-miterlimit:4;stroke-dasharray:none;stroke-opacity:1;"
     d="  M 18.781317,71.950477   L 20.034652,73.395115   L 22.485203,69.436431   L 22.653561,69.473954   L 20.072065,73.714061   L 18.612959,72.044284   L 18.781317,71.950477   z "
     id="path311" />
  <path
     style="fill:none;stroke:#000000;stroke-width:0.0080922619px;stroke-linecap:round;stroke-linejoin:round;stroke-miterlimit:4;stroke-dasharray:none;stroke-opacity:1;"
     d="  M 0.28322916,93.071154   L 0,93.071154   L 0,93.355155   L 0.28322916,93.355155   L 0.28322916,93.071154   z "
     id="path313" />
  <path
     style="fill:none;stroke:#000000;stroke-width:0.0080922619px;stroke-linecap:round;stroke-linejoin:round;stroke-miterlimit:4;stroke-dasharray:none;stroke-opacity:1;"
     d="  M 7.1697438,111.31213   L 6.8865146,111.31213   L 6.8865146,111.59613   L 7.1697438,111.59613   L 7.1697438,111.31213   z "
     id="path315" />
</svg>
