<?xml version="1.0" encoding="UTF-8" standalone="no"?>
<svg
   version="1.0"
   width="48.290001mm"
   height="4.5900002mm"
   id="svg271"
   xmlns="http://www.w3.org/2000/svg"
   xmlns:svg="http://www.w3.org/2000/svg">
  <defs
     id="defs3">
    <pattern
       id="EMFhbasepattern"
       patternUnits="userSpaceOnUse"
       width="6"
       height="6"
       x="0"
       y="0" />
  </defs>
  <path
     style="fill:none;stroke:none;"
     d="  M 18.228952,2.3380292   L 18.228952,4.3572362   L 20.037569,4.3572362   M 20.037569,2.3380292   L 23.607207,2.3380292   M 21.79859,2.3380292   L 21.79859,4.3572362   M 24.511515,2.3380292   L 24.511515,4.3572362   M 24.511515,2.3380292   L 24.511515,4.3572362  "
     id="path5" />
  <path
     style="fill:none;stroke:none;"
     d="  M 26.272537,4.3572362   L 26.272537,2.3380292   L 28.081153,4.3572362   L 29.88977,2.3380292   L 29.88977,4.3572362  "
     id="path7" />
  <path
     style="fill:none;stroke:none;"
     d="  M 30.746483,4.3572362   L 32.5551,2.3380292   L 34.363717,4.3572362   M 31.222435,3.8524344   L 33.887765,3.8524344  "
     id="path9" />
  <path
     style="fill:none;stroke:none;"
     d="  M 12.850697,4.3572362   L 14.659314,2.3380292   L 16.467931,4.3572362   M 13.326649,3.8524344   L 15.991979,3.8524344  "
     id="path11" />
  <path
     style="fill:#eaeaea;fill-rule:evenodd;fill-opacity:1;stroke:#000000;stroke-width:0.093635462px;stroke-linecap:round;stroke-linejoin:round;stroke-miterlimit:4;stroke-dasharray:none;stroke-opacity:1;"
     d="  M 182.21461,0.037299209   L 0.037454186,0.037299209   L 0.037454186,17.194935   L 182.21461,17.194935   L 182.21461,0.037299209   z "
     id="path13" />
  <path
     style="fill:#eaeaea;fill-rule:evenodd;fill-opacity:1;stroke:#000000;stroke-width:0.093635462px;stroke-linecap:round;stroke-linejoin:round;stroke-miterlimit:4;stroke-dasharray:none;stroke-opacity:1;"
     d="  M 172.62634,0.57813773   L 172.60761,0.46624011   L 172.58889,0.37299209   L 172.53271,0.27974407   L 172.47652,0.20514565   L 172.38289,0.13054723   L 172.28925,0.074598417   L 172.19562,0.055948813   L 172.08326,0.037299209   L 10.168811,0.037299209   L 10.056449,0.055948813   L 9.9628134,0.074598417   L 9.8691779,0.13054723   L 9.7193612,0.27974407   L 9.6631799,0.37299209   L 9.6444528,0.46624011   L 9.6257257,0.57813773   L 9.6257257,16.654097   L 9.6444528,16.765994   L 9.6631799,16.859242   L 9.7193612,16.95249   L 9.7942695,17.045738   L 9.8691779,17.101687   L 9.9628134,17.157636   L 10.056449,17.176286   L 10.168811,17.194935   L 172.08326,17.194935   L 172.19562,17.176286   L 172.28925,17.157636   L 172.47652,17.045738   L 172.58889,16.859242   L 172.60761,16.765994   L 172.62634,16.654097   L 172.62634,0.57813773   z "
     id="path15" />
  <path
     style="fill:#eaeaea;fill-rule:evenodd;fill-opacity:1;stroke:#bfbfbf;stroke-width:0.018727092px;stroke-linecap:round;stroke-linejoin:round;stroke-miterlimit:4;stroke-dasharray:none;stroke-opacity:1;"
     d="  M 171.93344,1.1376259   L 171.91471,1.0443778   L 171.89598,0.93248022   L 171.78362,0.78328338   L 171.63381,0.67138576   L 171.52144,0.65273615   L 171.42781,0.63408655   L 10.82426,0.63408655   L 10.730624,0.65273615   L 10.618262,0.67138576   L 10.468445,0.78328338   L 10.356082,0.93248022   L 10.337355,1.0443778   L 10.318628,1.1376259   L 10.318628,16.113258   L 10.337355,16.206506   L 10.356082,16.318404   L 10.468445,16.467601   L 10.618262,16.579498   L 10.730624,16.598148   L 10.82426,16.616797   L 171.42781,16.616797   L 171.52144,16.598148   L 171.63381,16.579498   L 171.78362,16.467601   L 171.89598,16.318404   L 171.91471,16.206506   L 171.93344,16.113258   L 171.93344,1.1376259   z "
     id="path17" />
  <path
     style="fill:#ffffff;fill-rule:evenodd;fill-opacity:1;stroke:#000000;stroke-width:0.018727092px;stroke-linecap:round;stroke-linejoin:round;stroke-miterlimit:4;stroke-dasharray:none;stroke-opacity:1;"
     d="  M 5.9364884,2.2193029   L 5.9364884,2.1074053   L 5.9177613,2.0141573   L 5.8803071,1.9022596   L 5.8053988,1.7157636   L 5.7492175,1.6225156   L 5.6930362,1.5479172   L 5.5432195,1.3987203   L 5.4683111,1.3427715   L 5.3746756,1.2868227   L 5.1874047,1.2122243   L 5.0750422,1.1749251   L 4.9814067,1.1562755   L 2.0974344,1.1562755   L 2.0037989,1.1749251   L 1.8914364,1.2122243   L 1.7041654,1.2868227   L 1.61053,1.3427715   L 1.5356216,1.3987203   L 1.3858049,1.5479172   L 1.3296236,1.6225156   L 1.2734423,1.7157636   L 1.1985339,1.9022596   L 1.1610798,2.0141573   L 1.1423527,2.1074053   L 1.1423527,2.3312005   L 1.1610798,2.4244486   L 1.1985339,2.5363462   L 1.2734423,2.7228422   L 1.3296236,2.8160903   L 1.3858049,2.8906887   L 1.5356216,3.0398855   L 1.61053,3.0958343   L 1.7041654,3.1517831   L 1.8914364,3.2263816   L 2.0037989,3.2636808   L 2.0974344,3.2823304   L 4.9814067,3.2823304   L 5.0750422,3.2636808   L 5.1874047,3.2263816   L 5.3746756,3.1517831   L 5.4683111,3.0958343   L 5.5432195,3.0398855   L 5.6930362,2.8906887   L 5.7492175,2.8160903   L 5.8053988,2.7228422   L 5.8803071,2.5363462   L 5.9177613,2.4244486   L 5.9364884,2.3312005   L 5.9364884,2.2193029   z "
     id="path19" />
  <path
     style="fill:#ffffff;fill-rule:evenodd;fill-opacity:1;stroke:#000000;stroke-width:0.018727092px;stroke-linecap:round;stroke-linejoin:round;stroke-miterlimit:4;stroke-dasharray:none;stroke-opacity:1;"
     d="  M 5.9364884,15.012931   L 5.9364884,14.901034   L 5.9177613,14.807786   L 5.8803071,14.695888   L 5.8053988,14.509392   L 5.7492175,14.416144   L 5.6930362,14.341546   L 5.5432195,14.192349   L 5.4683111,14.1364   L 5.3746756,14.080451   L 5.1874047,14.005853   L 5.0750422,13.968554   L 4.9814067,13.949904   L 2.0974344,13.949904   L 2.0037989,13.968554   L 1.8914364,14.005853   L 1.7041654,14.080451   L 1.61053,14.1364   L 1.5356216,14.192349   L 1.3858049,14.341546   L 1.3296236,14.416144   L 1.2734423,14.509392   L 1.1985339,14.695888   L 1.1610798,14.807786   L 1.1423527,14.901034   L 1.1423527,15.124829   L 1.1610798,15.218077   L 1.1985339,15.329975   L 1.2734423,15.516471   L 1.3296236,15.609719   L 1.3858049,15.684317   L 1.5356216,15.833514   L 1.61053,15.889463   L 1.7041654,15.945412   L 1.8914364,16.02001   L 2.0037989,16.057309   L 2.0974344,16.075959   L 4.9814067,16.075959   L 5.0750422,16.057309   L 5.1874047,16.02001   L 5.3746756,15.945412   L 5.4683111,15.889463   L 5.5432195,15.833514   L 5.6930362,15.684317   L 5.7492175,15.609719   L 5.8053988,15.516471   L 5.8803071,15.329975   L 5.9177613,15.218077   L 5.9364884,15.124829   L 5.9364884,15.012931   z "
     id="path21" />
  <path
     style="fill:#ffffff;fill-rule:evenodd;fill-opacity:1;stroke:#000000;stroke-width:0.018727092px;stroke-linecap:round;stroke-linejoin:round;stroke-miterlimit:4;stroke-dasharray:none;stroke-opacity:1;"
     d="  M 181.12844,2.2193029   L 181.12844,2.1074053   L 181.10971,2.0141573   L 181.07226,1.9022596   L 180.99735,1.7157636   L 180.94117,1.6225156   L 180.88499,1.5479172   L 180.73517,1.3987203   L 180.66026,1.3427715   L 180.56663,1.2868227   L 180.37936,1.2122243   L 180.267,1.1749251   L 180.17336,1.1562755   L 177.28939,1.1562755   L 177.19575,1.1749251   L 177.08339,1.2122243   L 176.89612,1.2868227   L 176.80248,1.3427715   L 176.72757,1.3987203   L 176.57776,1.5479172   L 176.52158,1.6225156   L 176.4654,1.7157636   L 176.39049,1.9022596   L 176.35303,2.0141573   L 176.33431,2.1074053   L 176.33431,2.3312005   L 176.35303,2.4244486   L 176.39049,2.5363462   L 176.4654,2.7228422   L 176.52158,2.8160903   L 176.57776,2.8906887   L 176.72757,3.0398855   L 176.80248,3.0958343   L 176.89612,3.1517831   L 177.08339,3.2263816   L 177.19575,3.2636808   L 177.28939,3.2823304   L 180.17336,3.2823304   L 180.267,3.2636808   L 180.37936,3.2263816   L 180.56663,3.1517831   L 180.66026,3.0958343   L 180.73517,3.0398855   L 180.88499,2.8906887   L 180.94117,2.8160903   L 180.99735,2.7228422   L 181.07226,2.5363462   L 181.10971,2.4244486   L 181.12844,2.3312005   L 181.12844,2.2193029   z "
     id="path23" />
  <path
     style="fill:#ffffff;fill-rule:evenodd;fill-opacity:1;stroke:#000000;stroke-width:0.018727092px;stroke-linecap:round;stroke-linejoin:round;stroke-miterlimit:4;stroke-dasharray:none;stroke-opacity:1;"
     d="  M 181.12844,15.012931   L 181.12844,14.901034   L 181.10971,14.807786   L 181.07226,14.695888   L 180.99735,14.509392   L 180.94117,14.416144   L 180.88499,14.341546   L 180.73517,14.192349   L 180.66026,14.1364   L 180.56663,14.080451   L 180.37936,14.005853   L 180.267,13.968554   L 180.17336,13.949904   L 177.28939,13.949904   L 177.19575,13.968554   L 177.08339,14.005853   L 176.89612,14.080451   L 176.80248,14.1364   L 176.72757,14.192349   L 176.57776,14.341546   L 176.52158,14.416144   L 176.4654,14.509392   L 176.39049,14.695888   L 176.35303,14.807786   L 176.33431,14.901034   L 176.33431,15.124829   L 176.35303,15.218077   L 176.39049,15.329975   L 176.4654,15.516471   L 176.52158,15.609719   L 176.57776,15.684317   L 176.72757,15.833514   L 176.80248,15.889463   L 176.89612,15.945412   L 177.08339,16.02001   L 177.19575,16.057309   L 177.28939,16.075959   L 180.17336,16.075959   L 180.267,16.057309   L 180.37936,16.02001   L 180.56663,15.945412   L 180.66026,15.889463   L 180.73517,15.833514   L 180.88499,15.684317   L 180.94117,15.609719   L 180.99735,15.516471   L 181.07226,15.329975   L 181.10971,15.218077   L 181.12844,15.124829   L 181.12844,15.012931   z "
     id="path25" />
  <path
     style="fill:#000000;fill-rule:evenodd;fill-opacity:1;stroke:#000000;stroke-width:0.018700197px;stroke-linecap:round;stroke-linejoin:round;stroke-miterlimit:4;stroke-dasharray:none;stroke-opacity:1;"
     d="  M 20.037569,2.3380292   M 21.79859,2.3380292   M 24.511515,2.3380292   M 24.511515,2.3380292   M 31.222435,3.8524344   M 13.326649,3.8524344   M 12.734834,4.5291101   L 12.697434,4.5291101   L 12.678734,4.5106991   L 12.660033,4.5106991   L 12.603933,4.455466   L 12.603933,4.437055   L 12.585233,4.418644   L 12.585233,2.2829661   L 12.603933,2.264555   L 12.603933,2.246144   L 12.622633,2.227733   L 12.641333,2.227733   L 12.641333,2.209322   L 12.660033,2.190911   L 12.678734,2.190911   L 12.697434,2.1725   L 15.240661,2.1725   L 15.259361,2.190911   L 15.278061,2.190911   L 15.334162,2.246144   L 15.334162,2.264555   L 15.352862,2.2829661   L 15.352862,2.7064194   L 15.334162,2.7064194   L 15.334162,2.6880084   L 15.315461,2.6880084   L 15.315461,2.6695974   L 15.296761,2.6695974   L 15.296761,2.6511864   L 15.259361,2.6511864   L 15.259361,2.6327754   L 13.202339,2.6327754   L 13.202339,2.6511864   L 13.164939,2.6511864   L 13.164939,2.6695974   L 13.146239,2.6695974   L 13.146239,2.7064194   L 13.127538,2.7064194   L 13.127538,4.455466   L 13.146239,4.455466   L 13.146239,4.4922881   L 13.164939,4.4922881   L 13.164939,4.5106991   L 13.183639,4.5106991   L 13.183639,4.5291101   L 12.753534,4.5291101   L 12.734834,4.5291101   z "
     id="path27" />
  <path
     style="fill:#000000;fill-rule:evenodd;fill-opacity:1;stroke:#000000;stroke-width:0.018700197px;stroke-linecap:round;stroke-linejoin:round;stroke-miterlimit:4;stroke-dasharray:none;stroke-opacity:1;"
     d="  M 15.16586,3.1666949   L 13.31454,3.1666949   L 13.31454,3.1482838   L 13.27714,3.1482838   L 13.27714,3.1298728   L 13.25844,3.1298728   L 13.25844,3.0930508   L 13.23974,3.0930508   L 13.23974,3.5533262   L 13.25844,3.5533262   L 13.25844,3.5901482   L 13.27714,3.5901482   L 13.27714,3.6085593   L 13.31454,3.6085593   L 13.31454,3.6269703   L 15.20326,3.6269703   L 15.240661,3.5901482   L 15.259361,3.5901482   L 15.296761,3.5533262   L 15.296761,3.5349152   L 15.315461,3.5165042   L 15.315461,3.4980932   L 15.334162,3.4796821   L 15.334162,3.4428601   L 15.352862,3.4244491   L 15.352862,3.369216   L 15.334162,3.350805   L 15.334162,3.295572   L 15.296761,3.2587499   L 15.296761,3.2403389   L 15.278061,3.2219279   L 15.259361,3.2219279   L 15.259361,3.2035169   L 15.240661,3.2035169   L 15.22196,3.1851059   L 15.20326,3.1851059   L 15.18456,3.1666949   L 15.16586,3.1666949   z "
     id="path29" />
  <path
     style="fill:#000000;fill-rule:evenodd;fill-opacity:1;stroke:#000000;stroke-width:0.018700197px;stroke-linecap:round;stroke-linejoin:round;stroke-miterlimit:4;stroke-dasharray:none;stroke-opacity:1;"
     d="  M 19.485605,3.6269703   L 19.448205,3.6269703   L 19.448205,3.6085593   L 19.410805,3.6085593   L 19.410805,3.5901482   L 19.392104,3.5901482   L 19.392104,3.5533262   L 19.373404,3.5533262   L 19.373404,3.0930508   L 19.392104,3.0930508   L 19.392104,3.1298728   L 19.410805,3.1298728   L 19.410805,3.1482838   L 19.448205,3.1482838   L 19.448205,3.1666949   L 20.944221,3.1666949   L 20.944221,2.6327754   L 19.336004,2.6327754   L 19.336004,2.6511864   L 19.298603,2.6511864   L 19.298603,2.6695974   L 19.279903,2.6695974   L 19.279903,2.7064194   L 19.261203,2.7064194   L 19.261203,4.455466   L 19.279903,4.455466   L 19.279903,4.4922881   L 19.298603,4.4922881   L 19.298603,4.5106991   L 19.317304,4.5106991   L 19.317304,4.5291101   L 18.831098,4.5291101   L 18.812398,4.5106991   L 18.793698,4.5106991   L 18.737598,4.455466   L 18.737598,4.437055   L 18.718897,4.418644   L 18.718897,2.2829661   L 18.737598,2.264555   L 18.737598,2.246144   L 18.756298,2.227733   L 18.774998,2.227733   L 18.774998,2.209322   L 18.793698,2.190911   L 18.812398,2.190911   L 18.831098,2.1725   L 21.374325,2.1725   L 21.393026,2.190911   L 21.411726,2.190911   L 21.467826,2.246144   L 21.467826,2.264555   L 21.486526,2.2829661   L 21.486526,3.4428601   L 21.467826,3.4612711   L 21.467826,3.4980932   L 21.449126,3.4980932   L 21.449126,3.5165042   L 21.430426,3.5349152   L 21.430426,3.5533262   L 21.411726,3.5533262   L 21.411726,3.5717372   L 21.393026,3.5717372   L 21.393026,3.5901482   L 21.374325,3.5901482   L 21.374325,3.6085593   L 21.355625,3.6085593   L 21.336925,3.6269703   L 21.355625,3.6453813   L 21.374325,3.6453813   L 21.374325,3.6637923   L 21.393026,3.6637923   L 21.393026,3.6822033   L 21.411726,3.6822033   L 21.411726,3.7006143   L 21.430426,3.7006143   L 21.430426,3.7190254   L 21.449126,3.7374364   L 21.449126,3.7558474   L 21.467826,3.7558474   L 21.467826,3.7926694   L 21.486526,3.8110804   L 21.486526,4.455466   L 21.505227,4.455466   L 21.505227,4.4922881   L 21.523927,4.4922881   L 21.523927,4.5106991   L 21.542627,4.5106991   L 21.542627,4.5291101   L 21.056422,4.5291101   L 21.037722,4.5106991   L 21.019022,4.5106991   L 20.962921,4.455466   L 20.962921,4.437055   L 20.944221,4.418644   L 20.944221,3.6269703   L 19.504306,3.6269703   L 19.485605,3.6269703   z "
     id="path31" />
  <path
     style="fill:#000000;fill-rule:evenodd;fill-opacity:1;stroke:#000000;stroke-width:0.018700197px;stroke-linecap:round;stroke-linejoin:round;stroke-miterlimit:4;stroke-dasharray:none;stroke-opacity:1;"
     d="  M 22.458937,2.6327754   L 21.897931,2.6327754   L 21.879231,2.6143644   L 21.86053,2.6143644   L 21.80443,2.5591313   L 21.80443,2.5407203   L 21.78573,2.5223093   L 21.78573,2.2829661   L 21.80443,2.264555   L 21.80443,2.246144   L 21.82313,2.227733   L 21.84183,2.227733   L 21.84183,2.209322   L 21.86053,2.190911   L 21.879231,2.190911   L 21.897931,2.1725   L 24.441158,2.1725   L 24.459858,2.190911   L 24.478558,2.190911   L 24.534659,2.246144   L 24.534659,2.264555   L 24.553359,2.2829661   L 24.553359,2.7064194   L 24.534659,2.7064194   L 24.534659,2.6880084   L 24.515958,2.6880084   L 24.515958,2.6695974   L 24.497258,2.6695974   L 24.497258,2.6511864   L 24.459858,2.6511864   L 24.459858,2.6327754   L 23.076043,2.6327754   L 23.076043,2.6511864   L 23.038643,2.6511864   L 23.038643,2.6695974   L 23.019943,2.6695974   L 23.019943,2.7064194   L 23.001242,2.7064194   L 23.001242,4.455466   L 23.019943,4.455466   L 23.019943,4.4922881   L 23.038643,4.4922881   L 23.038643,4.5106991   L 23.057343,4.5106991   L 23.057343,4.5291101   L 22.571138,4.5291101   L 22.552438,4.5106991   L 22.533738,4.5106991   L 22.477637,4.455466   L 22.477637,4.437055   L 22.458937,4.418644   L 22.458937,2.6880084   L 22.458937,2.6327754   z "
     id="path33" />
  <path
     style="fill:#000000;fill-rule:evenodd;fill-opacity:1;stroke:#000000;stroke-width:0.018700197px;stroke-linecap:round;stroke-linejoin:round;stroke-miterlimit:4;stroke-dasharray:none;stroke-opacity:1;"
     d="  M 25.394868,4.400233   L 25.394868,4.455466   L 25.413568,4.455466   L 25.413568,4.4922881   L 25.432268,4.4922881   L 25.432268,4.5106991   L 25.450968,4.5106991   L 25.450968,4.5291101   L 24.964763,4.5291101   L 24.946063,4.5106991   L 24.927363,4.5106991   L 24.871262,4.455466   L 24.871262,4.437055   L 24.852562,4.418644   L 24.852562,2.246144   L 24.833862,2.246144   L 24.833862,2.209322   L 24.815162,2.209322   L 24.815162,2.190911   L 24.796461,2.190911   L 24.796461,2.1725   L 25.282667,2.1725   L 25.301367,2.190911   L 25.320067,2.190911   L 25.376167,2.246144   L 25.376167,2.264555   L 25.394868,2.2829661   L 25.394868,4.381822   L 25.394868,4.400233   z "
     id="path35" />
  <path
     style="fill:#000000;fill-rule:evenodd;fill-opacity:1;stroke:#000000;stroke-width:0.018700197px;stroke-linecap:round;stroke-linejoin:round;stroke-miterlimit:4;stroke-dasharray:none;stroke-opacity:1;"
     d="  M 28.050296,2.6327754   L 26.442079,2.6327754   L 26.442079,2.6511864   L 26.404678,2.6511864   L 26.404678,2.6695974   L 26.385978,2.6695974   L 26.385978,2.7064194   L 26.367278,2.7064194   L 26.367278,4.455466   L 26.385978,4.455466   L 26.385978,4.4922881   L 26.404678,4.4922881   L 26.404678,4.5106991   L 26.423379,4.5106991   L 26.423379,4.5291101   L 25.937173,4.5291101   L 25.918473,4.5106991   L 25.899773,4.5106991   L 25.843672,4.455466   L 25.843672,4.437055   L 25.824972,4.418644   L 25.824972,2.2829661   L 25.843672,2.264555   L 25.843672,2.246144   L 25.862373,2.227733   L 25.881073,2.227733   L 25.881073,2.209322   L 25.899773,2.190911   L 25.918473,2.190911   L 25.937173,2.1725   L 28.4804,2.1725   L 28.4991,2.190911   L 28.517801,2.190911   L 28.573901,2.246144   L 28.573901,2.264555   L 28.592601,2.2829661   L 28.592601,4.455466   L 28.611302,4.455466   L 28.611302,4.4922881   L 28.630002,4.4922881   L 28.630002,4.5106991   L 28.648702,4.5106991   L 28.648702,4.5291101   L 28.162497,4.5291101   L 28.143797,4.5106991   L 28.125096,4.5106991   L 28.068996,4.455466   L 28.068996,4.437055   L 28.050296,4.418644   L 28.050296,2.6880084   L 28.050296,2.6327754   z "
     id="path37" />
  <path
     style="fill:#000000;fill-rule:evenodd;fill-opacity:1;stroke:#000000;stroke-width:0.018700197px;stroke-linecap:round;stroke-linejoin:round;stroke-miterlimit:4;stroke-dasharray:none;stroke-opacity:1;"
     d="  M 31.34153,3.1666949   L 29.621112,3.1666949   L 29.602412,3.1482838   L 29.583712,3.1482838   L 29.583712,3.1298728   L 29.565012,3.1298728   L 29.565012,3.0930508   L 29.546311,3.0930508   L 29.546311,3.5533262   L 29.565012,3.5533262   L 29.565012,3.5901482   L 29.583712,3.5901482   L 29.583712,3.6085593   L 29.602412,3.6085593   L 29.621112,3.6269703   L 31.360231,3.6269703   L 31.397631,3.5901482   L 31.416331,3.5901482   L 31.453732,3.5533262   L 31.453732,3.5349152   L 31.472432,3.5165042   L 31.472432,3.4980932   L 31.491132,3.4796821   L 31.491132,3.4428601   L 31.509832,3.4244491   L 31.509832,3.350805   L 31.491132,3.332394   L 31.491132,3.277161   L 31.472432,3.277161   L 31.472432,3.2587499   L 31.416331,3.2035169   L 31.397631,3.2035169   L 31.397631,3.1851059   L 31.378931,3.1851059   L 31.360231,3.1666949   L 31.34153,3.1666949   z "
     id="path39" />
  <path
     style="fill:#000000;fill-rule:evenodd;fill-opacity:1;stroke:#000000;stroke-width:0.018700197px;stroke-linecap:round;stroke-linejoin:round;stroke-miterlimit:4;stroke-dasharray:none;stroke-opacity:1;"
     d="  M 32.631844,2.6327754   L 32.070838,2.6327754   L 32.052138,2.6143644   L 32.033438,2.6143644   L 31.977337,2.5591313   L 31.977337,2.5407203   L 31.958637,2.5223093   L 31.958637,2.2829661   L 31.977337,2.264555   L 31.977337,2.246144   L 31.996037,2.227733   L 32.014737,2.227733   L 32.014737,2.209322   L 32.033438,2.190911   L 32.052138,2.190911   L 32.070838,2.1725   L 34.614065,2.1725   L 34.632765,2.190911   L 34.651465,2.190911   L 34.707566,2.246144   L 34.707566,2.264555   L 34.726266,2.2829661   L 34.726266,2.7064194   L 34.707566,2.7064194   L 34.707566,2.6880084   L 34.688866,2.6880084   L 34.688866,2.6695974   L 34.670165,2.6695974   L 34.670165,2.6511864   L 34.632765,2.6511864   L 34.632765,2.6327754   L 33.24895,2.6327754   L 33.24895,2.6511864   L 33.21155,2.6511864   L 33.21155,2.6695974   L 33.19285,2.6695974   L 33.19285,2.7064194   L 33.17415,2.7064194   L 33.17415,4.455466   L 33.19285,4.455466   L 33.19285,4.4922881   L 33.21155,4.4922881   L 33.21155,4.5106991   L 33.23025,4.5106991   L 33.23025,4.5291101   L 32.744045,4.5291101   L 32.725345,4.5106991   L 32.706645,4.5106991   L 32.650544,4.455466   L 32.650544,4.437055   L 32.631844,4.418644   L 32.631844,2.6880084   L 32.631844,2.6327754   z "
     id="path41" />
  <path
     style="fill:#000000;fill-rule:evenodd;fill-opacity:1;stroke:#000000;stroke-width:0.018700197px;stroke-linecap:round;stroke-linejoin:round;stroke-miterlimit:4;stroke-dasharray:none;stroke-opacity:1;"
     d="  M 31.528532,4.0688347   L 31.565933,4.0688347   L 31.565933,4.0504237   L 31.603333,4.0504237   L 31.603333,4.0320126   L 31.622033,4.0320126   L 31.622033,4.0136016   L 31.640734,4.0136016   L 31.640734,3.9951906   L 31.659434,3.9951906   L 31.659434,4.418644   L 31.640734,4.437055   L 31.640734,4.455466   L 31.622033,4.473877   L 31.622033,4.4922881   L 31.603333,4.4922881   L 31.584633,4.5106991   L 31.565933,4.5106991   L 31.547233,4.5291101   L 29.004006,4.5291101   L 28.985306,4.5106991   L 28.966605,4.5106991   L 28.910505,4.455466   L 28.910505,4.437055   L 28.891805,4.418644   L 28.891805,2.2829661   L 28.910505,2.264555   L 28.910505,2.246144   L 28.929205,2.227733   L 28.947905,2.227733   L 28.947905,2.209322   L 28.966605,2.190911   L 28.985306,2.190911   L 29.004006,2.1725   L 31.547233,2.1725   L 31.565933,2.190911   L 31.584633,2.190911   L 31.640734,2.246144   L 31.640734,2.264555   L 31.659434,2.2829661   L 31.659434,2.7064194   L 31.640734,2.7064194   L 31.640734,2.6880084   L 31.622033,2.6880084   L 31.622033,2.6695974   L 31.603333,2.6695974   L 31.603333,2.6511864   L 31.565933,2.6511864   L 31.565933,2.6327754   L 29.508911,2.6327754   L 29.508911,2.6511864   L 29.471511,2.6511864   L 29.471511,2.6695974   L 29.45281,2.6695974   L 29.45281,2.7064194   L 29.43411,2.7064194   L 29.43411,4.0688347   L 31.509832,4.0688347   L 31.528532,4.0688347   z "
     id="path43" />
  <path
     style="fill:#ed3440;fill-rule:evenodd;fill-opacity:1;stroke:#ed3440;stroke-width:0.018700197px;stroke-linecap:round;stroke-linejoin:round;stroke-miterlimit:4;stroke-dasharray:none;stroke-opacity:1;"
     d="  M 16.587075,3.8479025   L 16.587075,4.5291101   L 17.484684,4.5291101   L 17.484684,3.8479025   L 16.587075,3.8479025   z "
     id="path45" />
  <path
     style="fill:#ed3440;fill-rule:evenodd;fill-opacity:1;stroke:#ed3440;stroke-width:0.018700197px;stroke-linecap:round;stroke-linejoin:round;stroke-miterlimit:4;stroke-dasharray:none;stroke-opacity:1;"
     d="  M 15.652065,3.0194067   L 16.418773,3.0194067   L 16.418773,3.6822033   L 15.652065,3.6822033   L 15.652065,3.0194067   z "
     id="path47" />
  <path
     style="fill:#ed3440;fill-rule:evenodd;fill-opacity:1;stroke:#ed3440;stroke-width:0.018700197px;stroke-linecap:round;stroke-linejoin:round;stroke-miterlimit:4;stroke-dasharray:none;stroke-opacity:1;"
     d="  M 17.652986,3.8479025   L 17.652986,4.5291101   L 17.933489,4.5291101   L 17.952189,4.5106991   L 18.02699,4.5106991   L 18.04569,4.4922881   L 18.083091,4.4922881   L 18.120491,4.473877   L 18.139191,4.455466   L 18.176592,4.437055   L 18.213992,4.400233   L 18.251392,4.381822   L 18.270093,4.3634109   L 18.288793,4.3265889   L 18.307493,4.3081779   L 18.382294,4.1608898   L 18.382294,4.1240677   L 18.400994,4.0688347   L 18.400994,4.0136016   L 18.419694,3.9583686   L 18.419694,3.8479025   L 17.671686,3.8479025   L 17.652986,3.8479025   z "
     id="path49" />
  <path
     style="fill:#ed3440;fill-rule:evenodd;fill-opacity:1;stroke:#ed3440;stroke-width:0.018700197px;stroke-linecap:round;stroke-linejoin:round;stroke-miterlimit:4;stroke-dasharray:none;stroke-opacity:1;"
     d="  M 17.652986,3.0194067   L 18.419694,3.0194067   L 18.419694,3.6822033   L 17.652986,3.6822033   L 17.652986,3.0194067   z "
     id="path51" />
  <path
     style="fill:#ed3440;fill-rule:evenodd;fill-opacity:1;stroke:#ed3440;stroke-width:0.018700197px;stroke-linecap:round;stroke-linejoin:round;stroke-miterlimit:4;stroke-dasharray:none;stroke-opacity:1;"
     d="  M 16.418773,3.8479025   L 16.418773,4.5291101   L 16.13827,4.5291101   L 16.11957,4.5106991   L 16.044769,4.5106991   L 16.026069,4.4922881   L 15.988669,4.4922881   L 15.951268,4.473877   L 15.932568,4.455466   L 15.895168,4.437055   L 15.857767,4.400233   L 15.820367,4.381822   L 15.801667,4.3634109   L 15.782966,4.3265889   L 15.764266,4.3081779   L 15.689465,4.1608898   L 15.689465,4.1240677   L 15.670765,4.0688347   L 15.670765,4.0136016   L 15.652065,3.9583686   L 15.652065,3.8479025   L 16.400073,3.8479025   L 16.418773,3.8479025   z "
     id="path53" />
  <path
     style="fill:#ed3440;fill-rule:evenodd;fill-opacity:1;stroke:#ed3440;stroke-width:0.018700197px;stroke-linecap:round;stroke-linejoin:round;stroke-miterlimit:4;stroke-dasharray:none;stroke-opacity:1;"
     d="  M 16.587075,2.1725   L 16.587075,2.8537076   L 17.484684,2.8537076   L 17.484684,2.1725   L 16.587075,2.1725   z "
     id="path55" />
  <path
     style="fill:#ed3440;fill-rule:evenodd;fill-opacity:1;stroke:#ed3440;stroke-width:0.018700197px;stroke-linecap:round;stroke-linejoin:round;stroke-miterlimit:4;stroke-dasharray:none;stroke-opacity:1;"
     d="  M 17.652986,2.8537076   L 17.652986,2.1725   L 17.933489,2.1725   L 17.952189,2.190911   L 18.02699,2.190911   L 18.04569,2.209322   L 18.083091,2.209322   L 18.120491,2.227733   L 18.139191,2.246144   L 18.176592,2.264555   L 18.213992,2.3013771   L 18.251392,2.3197881   L 18.270093,2.3381991   L 18.288793,2.3750211   L 18.307493,2.3934322   L 18.382294,2.5407203   L 18.382294,2.5775423   L 18.400994,2.6327754   L 18.400994,2.6880084   L 18.419694,2.7432415   L 18.419694,2.8537076   L 17.671686,2.8537076   L 17.652986,2.8537076   z "
     id="path57" />
  <path
     style="fill:#ed3440;fill-rule:evenodd;fill-opacity:1;stroke:#ed3440;stroke-width:0.018700197px;stroke-linecap:round;stroke-linejoin:round;stroke-miterlimit:4;stroke-dasharray:none;stroke-opacity:1;"
     d="  M 16.418773,2.8537076   L 16.418773,2.1725   L 16.13827,2.1725   L 16.11957,2.190911   L 16.044769,2.190911   L 16.026069,2.209322   L 15.988669,2.209322   L 15.951268,2.227733   L 15.932568,2.246144   L 15.895168,2.264555   L 15.857767,2.3013771   L 15.820367,2.3197881   L 15.801667,2.3381991   L 15.782966,2.3750211   L 15.764266,2.3934322   L 15.689465,2.5407203   L 15.689465,2.5775423   L 15.670765,2.6327754   L 15.670765,2.6880084   L 15.652065,2.7432415   L 15.652065,2.8537076   L 16.400073,2.8537076   L 16.418773,2.8537076   z "
     id="path59" />
  <text
     xml:space="preserve"
     style="font-size:2.687500px;font-style:normal;font-variant:normal;font-weight:400;font-stretch:Normal;line-height:125.000000%;letter-spacing:0px;word-spacing:0px;fill:#000000;fill-opacity:1;stroke:none;font-family:Arial;text-align:start;text-anchor:start;"
     transform="matrix(1.000000,-0.000000,0.000000,1.000000,12.587193,4.934152)"
     x="0.000000"
     y="1.959188"
     id="text65"><tspan
       x="0.000000"
       y="1.959188"
       id="tspan63"><tspan
         dx="0.000000"
         dy="0.000000"
         style="fill:#000000;font-size:2.687500px;font-style:normal;font-variant:normal;font-weight:400;font-stretch:Normal;font-family:Arial;"
         id="tspan61">FortiVoice 100DT</tspan></tspan></text>
  <path
     style="fill:#00ff00;fill-rule:evenodd;fill-opacity:1;stroke:#000000;stroke-width:0.023192052px;stroke-linecap:round;stroke-linejoin:round;stroke-miterlimit:4;stroke-dasharray:none;stroke-opacity:1;"
     d="  M 40.93397,8.9820094   L 40.006288,8.9820094   L 40.006288,9.9079898   L 40.93397,9.9079898   L 40.93397,8.9820094   z "
     id="path67" />
  <path
     style="fill:#00ff00;fill-rule:evenodd;fill-opacity:1;stroke:#000000;stroke-width:0.023192052px;stroke-linecap:round;stroke-linejoin:round;stroke-miterlimit:4;stroke-dasharray:none;stroke-opacity:1;"
     d="  M 40.93397,10.83397   L 40.006288,10.83397   L 40.006288,11.759951   L 40.93397,11.759951   L 40.93397,10.83397   z "
     id="path69" />
  <path
     style="fill:#00ff00;fill-rule:evenodd;fill-opacity:1;stroke:#000000;stroke-width:0.023192052px;stroke-linecap:round;stroke-linejoin:round;stroke-miterlimit:4;stroke-dasharray:none;stroke-opacity:1;"
     d="  M 40.93397,12.70908   L 40.006288,12.70908   L 40.006288,13.635061   L 40.93397,13.635061   L 40.93397,12.70908   z "
     id="path71" />
  <text
     xml:space="preserve"
     style="font-size:0.812500px;font-style:normal;font-variant:normal;font-weight:400;font-stretch:Normal;line-height:230.030418%;letter-spacing:0px;word-spacing:0px;fill:#000000;fill-opacity:1;stroke:none;font-family:Arial;text-align:start;text-anchor:start;"
     transform="matrix(1.000000,-0.000000,0.000000,1.000000,36.038331,8.896426)"
     x="0.000000"
     y="0.592313"
     id="text85"><tspan
       x="0.000000"
       y="0.592313"
       id="tspan75"><tspan
         dx="0.000000"
         dy="0.000000"
         style="fill:#000000;font-size:0.812500px;font-style:normal;font-variant:normal;font-weight:400;font-stretch:Normal;font-family:Arial;"
         id="tspan73">POWER</tspan></tspan><tspan
       x="-0.299695"
       y="2.461310"
       id="tspan79"><tspan
         dx="0.000000"
         dy="0.000000"
         style="fill:#000000;font-size:0.812500px;font-style:normal;font-variant:normal;font-weight:400;font-stretch:Normal;font-family:Arial;"
         id="tspan77">STATUS</tspan></tspan><tspan
       x="0.000000"
       y="4.330307"
       id="tspan83"><tspan
         dx="0.000000"
         dy="0.000000"
         style="fill:#000000;font-size:0.812500px;font-style:normal;font-variant:normal;font-weight:400;font-stretch:Normal;font-family:Arial;"
         id="tspan81">ALARM</tspan></tspan></text>
  <text
     xml:space="preserve"
     style="font-size:0.812500px;font-style:normal;font-variant:normal;font-weight:400;font-stretch:Normal;line-height:125.000000%;letter-spacing:0px;word-spacing:0px;fill:#000000;fill-opacity:1;stroke:none;font-family:Arial;text-align:start;text-anchor:start;"
     transform="matrix(1.000000,-0.000000,0.000000,1.000000,36.038331,8.896426)"
     x="8.466386"
     y="6.423584"
     id="text91"><tspan
       x="8.466386"
       y="6.423584"
       id="tspan89"><tspan
         dx="0.000000"
         dy="0.000000"
         style="fill:#000000;font-size:0.812500px;font-style:normal;font-variant:normal;font-weight:400;font-stretch:Normal;font-family:Arial;"
         id="tspan87">USB MGMT</tspan></tspan></text>
  <text
     xml:space="preserve"
     style="font-size:1.000000px;font-style:normal;font-variant:normal;font-weight:400;font-stretch:Condensed;line-height:125.000000%;letter-spacing:0px;word-spacing:0px;fill:#000000;fill-opacity:1;stroke:none;font-family:Times New Roman;text-align:start;text-anchor:start;"
     transform="matrix(1.000000,-0.000000,0.000000,1.000000,33.718375,4.657633)"
     x="0.000000"
     y="0.000000"
     id="text97"><tspan
       x="0.000000"
       y="0.000000"
       id="tspan95"><tspan
         dx="0.000000"
         dy="0.000000"
         style="fill:#000000;font-size:1.000000px;font-style:normal;font-variant:normal;font-weight:400;font-stretch:Condensed;font-family:Times New Roman;"
         id="tspan93">®</tspan></tspan></text>
  <path
     style="fill:#bfbfbf;fill-rule:evenodd;fill-opacity:1;stroke:#7f7f7f;stroke-width:0.021588054px;stroke-linecap:round;stroke-linejoin:round;stroke-miterlimit:4;stroke-dasharray:none;stroke-opacity:1;"
     d="  M 45.334912,12.72608   L 45.334912,12.659914   L 45.3565,12.659914   L 45.3565,12.615802   L 45.378088,12.593747   L 45.378088,12.571691   L 45.399676,12.571691   L 45.399676,12.549636   L 45.421264,12.549636   L 45.421264,12.52758   L 45.442852,12.52758   L 45.46444,12.505524   L 45.486028,12.505524   L 45.507616,12.483469   L 47.666422,12.483469   L 47.68801,12.505524   L 47.709598,12.505524   L 47.731186,12.52758   L 47.752774,12.52758   L 47.752774,12.549636   L 47.774362,12.549636   L 47.774362,12.571691   L 47.79595,12.571691   L 47.79595,12.593747   L 47.817538,12.615802   L 47.817538,12.659914   L 47.839126,12.659914   L 47.839126,13.123081   L 47.666422,13.299526   L 47.666422,13.652415   L 47.644833,13.674471   L 47.644833,13.696527   L 47.623245,13.696527   L 47.623245,13.718582   L 47.601657,13.718582   L 47.601657,13.740638   L 47.580069,13.740638   L 47.580069,13.762693   L 47.536893,13.762693   L 47.536893,13.784749   L 45.637145,13.784749   L 45.637145,13.762693   L 45.593968,13.762693   L 45.593968,13.740638   L 45.57238,13.740638   L 45.57238,13.718582   L 45.550792,13.718582   L 45.550792,13.696527   L 45.529204,13.696527   L 45.529204,13.674471   L 45.507616,13.652415   L 45.507616,13.299526   L 45.334912,13.123081   L 45.334912,12.748136   L 45.334912,12.72608   z "
     id="path99" />
  <path
     style="fill:#161616;fill-rule:evenodd;fill-opacity:1;stroke:#000000;stroke-width:0.021588054px;stroke-linecap:round;stroke-linejoin:round;stroke-miterlimit:4;stroke-dasharray:none;stroke-opacity:1;"
     d="  M 47.752774,13.101026   L 47.580069,13.27747   L 47.580069,13.608304   L 47.558481,13.63036   L 47.558481,13.652415   L 47.536893,13.652415   L 47.515305,13.674471   L 47.493717,13.674471   L 47.472129,13.696527   L 45.701909,13.696527   L 45.701909,13.674471   L 45.658733,13.674471   L 45.637145,13.652415   L 45.615556,13.652415   L 45.615556,13.63036   L 45.593968,13.608304   L 45.593968,13.27747   L 45.421264,13.101026   L 45.421264,12.72608   L 45.442852,12.72608   L 45.442852,12.681969   L 45.46444,12.681969   L 45.46444,12.637858   L 45.486028,12.637858   L 45.486028,12.615802   L 45.529204,12.615802   L 45.529204,12.593747   L 45.550792,12.593747   L 45.57238,12.571691   L 47.601657,12.571691   L 47.623245,12.593747   L 47.644833,12.593747   L 47.644833,12.615802   L 47.68801,12.615802   L 47.68801,12.637858   L 47.709598,12.637858   L 47.709598,12.681969   L 47.731186,12.681969   L 47.731186,12.72608   L 47.752774,12.72608   L 47.752774,13.07897   L 47.752774,13.101026   z "
     id="path101" />
  <path
     style="fill:#cccccc;fill-rule:evenodd;fill-opacity:1;stroke:#000000;stroke-width:0.021588054px;stroke-linecap:round;stroke-linejoin:round;stroke-miterlimit:4;stroke-dasharray:none;stroke-opacity:1;"
     d="  M 47.428953,13.189248   L 47.428953,13.145137   L 47.407365,13.101026   L 47.364189,13.07897   L 45.831437,13.07897   L 45.788261,13.101026   L 45.766673,13.145137   L 45.766673,13.498026   L 45.788261,13.542137   L 45.831437,13.564193   L 47.364189,13.564193   L 47.407365,13.542137   L 47.428953,13.498026   L 47.428953,13.453915   L 47.428953,13.189248   z "
     id="path103" />
  <path
     style="fill:#d6d6b1;fill-rule:evenodd;fill-opacity:1;stroke:#000000;stroke-width:0.021588054px;stroke-linecap:round;stroke-linejoin:round;stroke-miterlimit:4;stroke-dasharray:none;stroke-opacity:1;"
     d="  M 46.155258,13.012803   L 45.939377,13.012803   L 45.939377,13.07897   L 46.155258,13.07897   L 46.155258,13.012803   z "
     id="path105" />
  <path
     style="fill:#d6d6b1;fill-rule:evenodd;fill-opacity:1;stroke:#000000;stroke-width:0.021588054px;stroke-linecap:round;stroke-linejoin:round;stroke-miterlimit:4;stroke-dasharray:none;stroke-opacity:1;"
     d="  M 46.500667,13.012803   L 46.284786,13.012803   L 46.284786,13.07897   L 46.500667,13.07897   L 46.500667,13.012803   z "
     id="path107" />
  <path
     style="fill:#d6d6b1;fill-rule:evenodd;fill-opacity:1;stroke:#000000;stroke-width:0.021588054px;stroke-linecap:round;stroke-linejoin:round;stroke-miterlimit:4;stroke-dasharray:none;stroke-opacity:1;"
     d="  M 46.867664,13.012803   L 46.651783,13.012803   L 46.651783,13.07897   L 46.867664,13.07897   L 46.867664,13.012803   z "
     id="path109" />
  <path
     style="fill:#d6d6b1;fill-rule:evenodd;fill-opacity:1;stroke:#000000;stroke-width:0.021588054px;stroke-linecap:round;stroke-linejoin:round;stroke-miterlimit:4;stroke-dasharray:none;stroke-opacity:1;"
     d="  M 47.213072,13.012803   L 46.997192,13.012803   L 46.997192,13.07897   L 47.213072,13.07897   L 47.213072,13.012803   z "
     id="path111" />
  <ellipse
     style="fill:#494949;fill-rule:evenodd;fill-opacity:1;stroke:#000000;stroke-width:0.01187786px;stroke-linecap:round;stroke-linejoin:round;stroke-miterlimit:4;stroke-dasharray:none;stroke-opacity:1;"
     cx="40.402542"
     cy="15.195293"
     rx="0.39790832"
     ry="0.39196939"
     id="ellipse113" />
  <ellipse
     style="fill:none;stroke:#000000;stroke-width:0.01187786px;stroke-linecap:round;stroke-linejoin:round;stroke-miterlimit:4;stroke-dasharray:none;stroke-opacity:1;"
     cx="40.402542"
     cy="15.195293"
     rx="0.39790832"
     ry="0.39196939"
     id="ellipse115" />
  <ellipse
     style="fill:#7f7f7f;fill-rule:evenodd;fill-opacity:1;stroke:#000000;stroke-width:0.01187786px;stroke-linecap:round;stroke-linejoin:round;stroke-miterlimit:4;stroke-dasharray:none;stroke-opacity:1;"
     cx="40.396603"
     cy="15.195293"
     rx="0.34445795"
     ry="0.34445795"
     id="ellipse117" />
  <ellipse
     style="fill:none;stroke:#000000;stroke-width:0.01187786px;stroke-linecap:round;stroke-linejoin:round;stroke-miterlimit:4;stroke-dasharray:none;stroke-opacity:1;"
     cx="40.396603"
     cy="15.195293"
     rx="0.34445795"
     ry="0.34445795"
     id="ellipse119" />
  <path
     style="fill:#ffffff;fill-rule:evenodd;fill-opacity:1;stroke:#0a0a0a;stroke-width:0.013851787px;stroke-linecap:round;stroke-linejoin:round;stroke-miterlimit:4;stroke-dasharray:none;stroke-opacity:1;"
     d="  M 145.55458,9.1983576   L 138.98883,9.1983576   L 138.98883,14.180221   L 145.55458,14.180221   L 145.55458,9.1983576   z "
     id="path121" />
  <path
     style="fill:#ffffff;fill-rule:evenodd;fill-opacity:1;stroke:#0a0a0a;stroke-width:0.013851787px;stroke-linecap:round;stroke-linejoin:round;stroke-miterlimit:4;stroke-dasharray:none;stroke-opacity:1;"
     d="  M 95.729702,2.6863719   L 89.163955,2.6863719   L 89.163955,14.135433   L 95.729702,14.135433   L 95.729702,2.6863719   z "
     id="path123" />
  <text
     xml:space="preserve"
     style="font-size:1.062500px;font-style:normal;font-variant:normal;font-weight:400;font-stretch:Normal;line-height:1273.556643%;letter-spacing:0px;word-spacing:0px;fill:#000000;fill-opacity:1;stroke:none;font-family:Arial;text-align:start;text-anchor:start;"
     transform="matrix(1.000000,-0.000000,0.000000,1.000000,90.882528,1.121398)"
     x="0.000000"
     y="0.774563"
     id="text133"><tspan
       x="0.000000"
       y="0.774563"
       id="tspan127"><tspan
         dx="0.000000"
         dy="0.000000"
         style="fill:#000000;font-size:1.062500px;font-style:normal;font-variant:normal;font-weight:400;font-stretch:Normal;font-family:Arial;"
         id="tspan125">LAN 1</tspan></tspan><tspan
       x="0.000000"
       y="14.306102"
       id="tspan131"><tspan
         dx="0.000000"
         dy="0.000000"
         style="fill:#000000;font-size:1.062500px;font-style:normal;font-variant:normal;font-weight:400;font-stretch:Normal;font-family:Arial;"
         id="tspan129">LAN 2</tspan></tspan></text>
  <text
     xml:space="preserve"
     style="font-size:1.062500px;font-style:normal;font-variant:normal;font-weight:400;font-stretch:Normal;line-height:125.000000%;letter-spacing:0px;word-spacing:0px;fill:#000000;fill-opacity:1;stroke:none;font-family:Arial;text-align:start;text-anchor:start;"
     transform="matrix(1.000000,-0.000000,0.000000,1.000000,90.882528,1.121398)"
     x="50.423694"
     y="6.605834"
     id="text139"><tspan
       x="50.423694"
       y="6.605834"
       id="tspan137"><tspan
         dx="0.000000"
         dy="0.000000"
         style="fill:#000000;font-size:1.062500px;font-style:normal;font-variant:normal;font-weight:400;font-stretch:Normal;font-family:Arial;"
         id="tspan135">PRI</tspan></tspan></text>
  <path
     style="fill:#ffffff;fill-rule:evenodd;fill-opacity:1;stroke:#0a0a0a;stroke-width:0.01353702px;stroke-linecap:round;stroke-linejoin:round;stroke-miterlimit:4;stroke-dasharray:none;stroke-opacity:1;"
     d="  M 105.46693,2.6863719   L 99.050381,2.6863719   L 99.050381,14.135433   L 105.46693,14.135433   L 105.46693,2.6863719   z "
     id="path141" />
  <text
     xml:space="preserve"
     style="font-size:1.062500px;font-style:normal;font-variant:normal;font-weight:400;font-stretch:Normal;line-height:125.000000%;letter-spacing:0px;word-spacing:0px;fill:#000000;fill-opacity:1;stroke:none;font-family:Arial;text-align:start;text-anchor:start;"
     transform="matrix(1.000000,-0.000000,0.000000,1.000000,100.697541,1.121398)"
     x="0.000000"
     y="0.774563"
     id="text147"><tspan
       x="0.000000"
       y="0.774563"
       id="tspan145"><tspan
         dx="0.000000"
         dy="0.000000"
         style="fill:#000000;font-size:1.062500px;font-style:normal;font-variant:normal;font-weight:400;font-stretch:Normal;font-family:Arial;"
         id="tspan143">EXT 1</tspan></tspan></text>
  <text
     xml:space="preserve"
     style="font-size:1.062500px;font-style:normal;font-variant:normal;font-weight:400;font-stretch:Normal;line-height:125.000000%;letter-spacing:0px;word-spacing:0px;fill:#000000;fill-opacity:1;stroke:none;font-family:Arial;text-align:start;text-anchor:start;"
     transform="matrix(1.000000,-0.000000,0.000000,1.000000,100.697541,1.121398)"
     x="7.492377"
     y="0.774563"
     id="text153"><tspan
       x="7.492377"
       y="0.774563"
       id="tspan151"><tspan
         dx="0.000000"
         dy="0.000000"
         style="fill:#000000;font-size:1.062500px;font-style:normal;font-variant:normal;font-weight:400;font-stretch:Normal;font-family:Arial;"
         id="tspan149">LINE 3</tspan></tspan></text>
  <text
     xml:space="preserve"
     style="font-size:1.062500px;font-style:normal;font-variant:normal;font-weight:400;font-stretch:Normal;line-height:1273.556643%;letter-spacing:0px;word-spacing:0px;fill:#000000;fill-opacity:1;stroke:none;font-family:Arial;text-align:start;text-anchor:start;"
     transform="matrix(1.000000,-0.000000,0.000000,1.000000,100.697541,1.121398)"
     x="15.059677"
     y="0.774563"
     id="text163"><tspan
       x="15.059677"
       y="0.774563"
       id="tspan157"><tspan
         dx="0.000000"
         dy="0.000000"
         style="fill:#000000;font-size:1.062500px;font-style:normal;font-variant:normal;font-weight:400;font-stretch:Normal;font-family:Arial;"
         id="tspan155">LINE 1</tspan></tspan><tspan
       x="15.059677"
       y="14.306102"
       id="tspan161"><tspan
         dx="0.000000"
         dy="0.000000"
         style="fill:#000000;font-size:1.062500px;font-style:normal;font-variant:normal;font-weight:400;font-stretch:Normal;font-family:Arial;"
         id="tspan159">LINE 2</tspan></tspan></text>
  <text
     xml:space="preserve"
     style="font-size:1.062500px;font-style:normal;font-variant:normal;font-weight:400;font-stretch:Normal;line-height:125.000000%;letter-spacing:0px;word-spacing:0px;fill:#000000;fill-opacity:1;stroke:none;font-family:Arial;text-align:start;text-anchor:start;"
     transform="matrix(1.000000,-0.000000,0.000000,1.000000,100.697541,1.121398)"
     x="7.492377"
     y="14.306102"
     id="text169"><tspan
       x="7.492377"
       y="14.306102"
       id="tspan167"><tspan
         dx="0.000000"
         dy="0.000000"
         style="fill:#000000;font-size:1.062500px;font-style:normal;font-variant:normal;font-weight:400;font-stretch:Normal;font-family:Arial;"
         id="tspan165">LINE 4</tspan></tspan></text>
  <text
     xml:space="preserve"
     style="font-size:1.062500px;font-style:normal;font-variant:normal;font-weight:400;font-stretch:Normal;line-height:125.000000%;letter-spacing:0px;word-spacing:0px;fill:#000000;fill-opacity:1;stroke:none;font-family:Arial;text-align:start;text-anchor:start;"
     transform="matrix(1.000000,-0.000000,0.000000,1.000000,100.697541,1.121398)"
     x="0.000000"
     y="14.306102"
     id="text175"><tspan
       x="0.000000"
       y="14.306102"
       id="tspan173"><tspan
         dx="0.000000"
         dy="0.000000"
         style="fill:#000000;font-size:1.062500px;font-style:normal;font-variant:normal;font-weight:400;font-stretch:Normal;font-family:Arial;"
         id="tspan171">EXT 2</tspan></tspan></text>
  <path
     style="fill:#ffffff;fill-rule:evenodd;fill-opacity:1;stroke:#0a0a0a;stroke-width:0.01353702px;stroke-linecap:round;stroke-linejoin:round;stroke-miterlimit:4;stroke-dasharray:none;stroke-opacity:1;"
     d="  M 120.60132,2.6863719   L 114.18477,2.6863719   L 114.18477,14.135433   L 120.60132,14.135433   L 120.60132,2.6863719   z "
     id="path177" />
  <path
     style="fill:#ffffff;fill-rule:evenodd;fill-opacity:1;stroke:#0a0a0a;stroke-width:0.01353702px;stroke-linecap:round;stroke-linejoin:round;stroke-miterlimit:4;stroke-dasharray:none;stroke-opacity:1;"
     d="  M 113.03412,2.6863719   L 106.61758,2.6863719   L 106.61758,14.135433   L 113.03412,14.135433   L 113.03412,2.6863719   z "
     id="path179" />
  <path
     style="fill:#000000;fill-rule:evenodd;fill-opacity:1;stroke:#000000;stroke-width:0.018730942px;stroke-linecap:round;stroke-linejoin:round;stroke-miterlimit:4;stroke-dasharray:none;stroke-opacity:1;"
     d="  M 91.631765,2.8413549   L 91.631765,3.0443088   L 91.33207,3.0443088   L 91.33207,3.6162699   L 90.077097,3.6162699   L 90.077097,3.6716209   L 89.683747,3.6716209   L 89.683747,3.0443088   L 89.758671,3.0443088   L 89.758671,3.6162699   L 90.077097,3.6162699   L 90.077097,4.8893445   L 90.208214,4.8893445   L 90.208214,5.5535573   L 90.077097,5.5535573   L 90.077097,6.9926851   L 94.872218,6.9926851   L 94.872218,5.5535573   L 94.741101,5.5535573   L 94.741101,4.8893445   L 94.872218,4.8893445   L 94.872218,3.6162699   L 95.190644,3.6162699   L 95.190644,3.0443088   L 95.265568,3.0443088   L 95.265568,3.6716209   L 94.872218,3.6716209   L 94.872218,3.6162699   L 93.617245,3.6162699   L 93.617245,3.0443088   L 93.31755,3.0443088   L 93.31755,2.8413549   L 91.631765,2.8413549   z "
     id="path181" />
  <path
     style="fill:#000000;fill-rule:evenodd;fill-opacity:1;stroke:#494949;stroke-width:0.018730942px;stroke-linecap:round;stroke-linejoin:round;stroke-miterlimit:4;stroke-dasharray:none;stroke-opacity:1;"
     d="  M 91.33207,3.0627592   L 89.758671,3.0627592   L 89.758671,3.6347202   L 91.33207,3.6347202   L 91.33207,3.0627592   z "
     id="path183" />
  <path
     style="fill:#000000;fill-rule:evenodd;fill-opacity:1;stroke:#494949;stroke-width:0.018730942px;stroke-linecap:round;stroke-linejoin:round;stroke-miterlimit:4;stroke-dasharray:none;stroke-opacity:1;"
     d="  M 95.190644,3.0627592   L 93.617245,3.0627592   L 93.617245,3.6347202   L 95.190644,3.6347202   L 95.190644,3.0627592   z "
     id="path185" />
  <path
     style="fill:#000000;fill-rule:evenodd;fill-opacity:1;stroke:#000000;stroke-width:0.018730942px;stroke-linecap:round;stroke-linejoin:round;stroke-miterlimit:4;stroke-dasharray:none;stroke-opacity:1;"
     d="  M 91.631765,14.022271   L 91.631765,13.819317   L 91.33207,13.819317   L 91.33207,13.247356   L 90.077097,13.247356   L 90.077097,13.192005   L 89.683747,13.192005   L 89.683747,13.819317   L 89.758671,13.819317   L 89.758671,13.247356   L 90.077097,13.247356   L 90.077097,11.974281   L 90.208214,11.974281   L 90.208214,11.310068   L 90.077097,11.310068   L 90.077097,9.8709407   L 94.872218,9.8709407   L 94.872218,11.310068   L 94.741101,11.310068   L 94.741101,11.974281   L 94.872218,11.974281   L 94.872218,13.247356   L 95.190644,13.247356   L 95.190644,13.819317   L 95.265568,13.819317   L 95.265568,13.192005   L 94.872218,13.192005   L 94.872218,13.247356   L 93.617245,13.247356   L 93.617245,13.819317   L 93.31755,13.819317   L 93.31755,14.022271   L 91.631765,14.022271   z "
     id="path187" />
  <path
     style="fill:#000000;fill-rule:evenodd;fill-opacity:1;stroke:#494949;stroke-width:0.018730942px;stroke-linecap:round;stroke-linejoin:round;stroke-miterlimit:4;stroke-dasharray:none;stroke-opacity:1;"
     d="  M 91.33207,13.247356   L 89.758671,13.247356   L 89.758671,13.819317   L 91.33207,13.819317   L 91.33207,13.247356   z "
     id="path189" />
  <path
     style="fill:#000000;fill-rule:evenodd;fill-opacity:1;stroke:#494949;stroke-width:0.018730942px;stroke-linecap:round;stroke-linejoin:round;stroke-miterlimit:4;stroke-dasharray:none;stroke-opacity:1;"
     d="  M 95.190644,13.247356   L 93.617245,13.247356   L 93.617245,13.819317   L 95.190644,13.819317   L 95.190644,13.247356   z "
     id="path191" />
  <path
     style="fill:#000000;fill-rule:evenodd;fill-opacity:1;stroke:#000000;stroke-width:0.018730942px;stroke-linecap:round;stroke-linejoin:round;stroke-miterlimit:4;stroke-dasharray:none;stroke-opacity:1;"
     d="  M 101.44678,2.8413549   L 101.44678,3.0443088   L 101.14708,3.0443088   L 101.14708,3.6162699   L 99.89211,3.6162699   L 99.89211,3.6716209   L 99.498761,3.6716209   L 99.498761,3.0443088   L 99.573684,3.0443088   L 99.573684,3.6162699   L 99.89211,3.6162699   L 99.89211,4.8893445   L 100.02323,4.8893445   L 100.02323,5.5535573   L 99.89211,5.5535573   L 99.89211,6.9926851   L 104.68723,6.9926851   L 104.68723,5.5535573   L 104.55611,5.5535573   L 104.55611,4.8893445   L 104.68723,4.8893445   L 104.68723,3.6162699   L 105.00566,3.6162699   L 105.00566,3.0443088   L 105.08058,3.0443088   L 105.08058,3.6716209   L 104.68723,3.6716209   L 104.68723,3.6162699   L 103.43226,3.6162699   L 103.43226,3.0443088   L 103.13256,3.0443088   L 103.13256,2.8413549   L 101.44678,2.8413549   z "
     id="path193" />
  <path
     style="fill:#000000;fill-rule:evenodd;fill-opacity:1;stroke:#494949;stroke-width:0.018730942px;stroke-linecap:round;stroke-linejoin:round;stroke-miterlimit:4;stroke-dasharray:none;stroke-opacity:1;"
     d="  M 101.14708,3.0627592   L 99.573684,3.0627592   L 99.573684,3.6347202   L 101.14708,3.6347202   L 101.14708,3.0627592   z "
     id="path195" />
  <path
     style="fill:#000000;fill-rule:evenodd;fill-opacity:1;stroke:#494949;stroke-width:0.018730942px;stroke-linecap:round;stroke-linejoin:round;stroke-miterlimit:4;stroke-dasharray:none;stroke-opacity:1;"
     d="  M 105.00566,3.0627592   L 103.43226,3.0627592   L 103.43226,3.6347202   L 105.00566,3.6347202   L 105.00566,3.0627592   z "
     id="path197" />
  <path
     style="fill:#000000;fill-rule:evenodd;fill-opacity:1;stroke:#000000;stroke-width:0.018730942px;stroke-linecap:round;stroke-linejoin:round;stroke-miterlimit:4;stroke-dasharray:none;stroke-opacity:1;"
     d="  M 101.44678,14.022271   L 101.44678,13.819317   L 101.14708,13.819317   L 101.14708,13.247356   L 99.89211,13.247356   L 99.89211,13.192005   L 99.498761,13.192005   L 99.498761,13.819317   L 99.573684,13.819317   L 99.573684,13.247356   L 99.89211,13.247356   L 99.89211,11.974281   L 100.02323,11.974281   L 100.02323,11.310068   L 99.89211,11.310068   L 99.89211,9.8709407   L 104.68723,9.8709407   L 104.68723,11.310068   L 104.55611,11.310068   L 104.55611,11.974281   L 104.68723,11.974281   L 104.68723,13.247356   L 105.00566,13.247356   L 105.00566,13.819317   L 105.08058,13.819317   L 105.08058,13.192005   L 104.68723,13.192005   L 104.68723,13.247356   L 103.43226,13.247356   L 103.43226,13.819317   L 103.13256,13.819317   L 103.13256,14.022271   L 101.44678,14.022271   z "
     id="path199" />
  <path
     style="fill:#000000;fill-rule:evenodd;fill-opacity:1;stroke:#494949;stroke-width:0.018730942px;stroke-linecap:round;stroke-linejoin:round;stroke-miterlimit:4;stroke-dasharray:none;stroke-opacity:1;"
     d="  M 101.14708,13.247356   L 99.573684,13.247356   L 99.573684,13.819317   L 101.14708,13.819317   L 101.14708,13.247356   z "
     id="path201" />
  <path
     style="fill:#000000;fill-rule:evenodd;fill-opacity:1;stroke:#494949;stroke-width:0.018730942px;stroke-linecap:round;stroke-linejoin:round;stroke-miterlimit:4;stroke-dasharray:none;stroke-opacity:1;"
     d="  M 105.00566,13.247356   L 103.43226,13.247356   L 103.43226,13.819317   L 105.00566,13.819317   L 105.00566,13.247356   z "
     id="path203" />
  <path
     style="fill:#000000;fill-rule:evenodd;fill-opacity:1;stroke:#000000;stroke-width:0.018730942px;stroke-linecap:round;stroke-linejoin:round;stroke-miterlimit:4;stroke-dasharray:none;stroke-opacity:1;"
     d="  M 116.58138,2.8413549   L 116.58138,3.0443088   L 116.28168,3.0443088   L 116.28168,3.6162699   L 115.02671,3.6162699   L 115.02671,3.6716209   L 114.63336,3.6716209   L 114.63336,3.0443088   L 114.70829,3.0443088   L 114.70829,3.6162699   L 115.02671,3.6162699   L 115.02671,4.8893445   L 115.15783,4.8893445   L 115.15783,5.5535573   L 115.02671,5.5535573   L 115.02671,6.9926851   L 119.82183,6.9926851   L 119.82183,5.5535573   L 119.69072,5.5535573   L 119.69072,4.8893445   L 119.82183,4.8893445   L 119.82183,3.6162699   L 120.14026,3.6162699   L 120.14026,3.0443088   L 120.21518,3.0443088   L 120.21518,3.6716209   L 119.82183,3.6716209   L 119.82183,3.6162699   L 118.56686,3.6162699   L 118.56686,3.0443088   L 118.26716,3.0443088   L 118.26716,2.8413549   L 116.58138,2.8413549   z "
     id="path205" />
  <path
     style="fill:#000000;fill-rule:evenodd;fill-opacity:1;stroke:#494949;stroke-width:0.018730942px;stroke-linecap:round;stroke-linejoin:round;stroke-miterlimit:4;stroke-dasharray:none;stroke-opacity:1;"
     d="  M 116.28168,3.0627592   L 114.70829,3.0627592   L 114.70829,3.6347202   L 116.28168,3.6347202   L 116.28168,3.0627592   z "
     id="path207" />
  <path
     style="fill:#000000;fill-rule:evenodd;fill-opacity:1;stroke:#494949;stroke-width:0.018730942px;stroke-linecap:round;stroke-linejoin:round;stroke-miterlimit:4;stroke-dasharray:none;stroke-opacity:1;"
     d="  M 120.14026,3.0627592   L 118.56686,3.0627592   L 118.56686,3.6347202   L 120.14026,3.6347202   L 120.14026,3.0627592   z "
     id="path209" />
  <path
     style="fill:#000000;fill-rule:evenodd;fill-opacity:1;stroke:#000000;stroke-width:0.018730942px;stroke-linecap:round;stroke-linejoin:round;stroke-miterlimit:4;stroke-dasharray:none;stroke-opacity:1;"
     d="  M 116.58138,14.022271   L 116.58138,13.819317   L 116.28168,13.819317   L 116.28168,13.247356   L 115.02671,13.247356   L 115.02671,13.192005   L 114.63336,13.192005   L 114.63336,13.819317   L 114.70829,13.819317   L 114.70829,13.247356   L 115.02671,13.247356   L 115.02671,11.974281   L 115.15783,11.974281   L 115.15783,11.310068   L 115.02671,11.310068   L 115.02671,9.8709407   L 119.82183,9.8709407   L 119.82183,11.310068   L 119.69072,11.310068   L 119.69072,11.974281   L 119.82183,11.974281   L 119.82183,13.247356   L 120.14026,13.247356   L 120.14026,13.819317   L 120.21518,13.819317   L 120.21518,13.192005   L 119.82183,13.192005   L 119.82183,13.247356   L 118.56686,13.247356   L 118.56686,13.819317   L 118.26716,13.819317   L 118.26716,14.022271   L 116.58138,14.022271   z "
     id="path211" />
  <path
     style="fill:#000000;fill-rule:evenodd;fill-opacity:1;stroke:#494949;stroke-width:0.018730942px;stroke-linecap:round;stroke-linejoin:round;stroke-miterlimit:4;stroke-dasharray:none;stroke-opacity:1;"
     d="  M 116.28168,13.247356   L 114.70829,13.247356   L 114.70829,13.819317   L 116.28168,13.819317   L 116.28168,13.247356   z "
     id="path213" />
  <path
     style="fill:#000000;fill-rule:evenodd;fill-opacity:1;stroke:#494949;stroke-width:0.018730942px;stroke-linecap:round;stroke-linejoin:round;stroke-miterlimit:4;stroke-dasharray:none;stroke-opacity:1;"
     d="  M 120.14026,13.247356   L 118.56686,13.247356   L 118.56686,13.819317   L 120.14026,13.819317   L 120.14026,13.247356   z "
     id="path215" />
  <path
     style="fill:#000000;fill-rule:evenodd;fill-opacity:1;stroke:#000000;stroke-width:0.018730942px;stroke-linecap:round;stroke-linejoin:round;stroke-miterlimit:4;stroke-dasharray:none;stroke-opacity:1;"
     d="  M 109.01408,2.8413549   L 109.01408,3.0443088   L 108.71438,3.0443088   L 108.71438,3.6162699   L 107.45941,3.6162699   L 107.45941,3.6716209   L 107.06606,3.6716209   L 107.06606,3.0443088   L 107.14098,3.0443088   L 107.14098,3.6162699   L 107.45941,3.6162699   L 107.45941,4.8893445   L 107.59053,4.8893445   L 107.59053,5.5535573   L 107.45941,5.5535573   L 107.45941,6.9926851   L 112.25453,6.9926851   L 112.25453,5.5535573   L 112.12342,5.5535573   L 112.12342,4.8893445   L 112.25453,4.8893445   L 112.25453,3.6162699   L 112.57296,3.6162699   L 112.57296,3.0443088   L 112.64788,3.0443088   L 112.64788,3.6716209   L 112.25453,3.6716209   L 112.25453,3.6162699   L 110.99956,3.6162699   L 110.99956,3.0443088   L 110.69986,3.0443088   L 110.69986,2.8413549   L 109.01408,2.8413549   z "
     id="path217" />
  <path
     style="fill:#000000;fill-rule:evenodd;fill-opacity:1;stroke:#494949;stroke-width:0.018730942px;stroke-linecap:round;stroke-linejoin:round;stroke-miterlimit:4;stroke-dasharray:none;stroke-opacity:1;"
     d="  M 108.71438,3.0627592   L 107.14098,3.0627592   L 107.14098,3.6347202   L 108.71438,3.6347202   L 108.71438,3.0627592   z "
     id="path219" />
  <path
     style="fill:#000000;fill-rule:evenodd;fill-opacity:1;stroke:#494949;stroke-width:0.018730942px;stroke-linecap:round;stroke-linejoin:round;stroke-miterlimit:4;stroke-dasharray:none;stroke-opacity:1;"
     d="  M 112.57296,3.0627592   L 110.99956,3.0627592   L 110.99956,3.6347202   L 112.57296,3.6347202   L 112.57296,3.0627592   z "
     id="path221" />
  <path
     style="fill:#000000;fill-rule:evenodd;fill-opacity:1;stroke:#000000;stroke-width:0.018730942px;stroke-linecap:round;stroke-linejoin:round;stroke-miterlimit:4;stroke-dasharray:none;stroke-opacity:1;"
     d="  M 109.01408,14.022271   L 109.01408,13.819317   L 108.71438,13.819317   L 108.71438,13.247356   L 107.45941,13.247356   L 107.45941,13.192005   L 107.06606,13.192005   L 107.06606,13.819317   L 107.14098,13.819317   L 107.14098,13.247356   L 107.45941,13.247356   L 107.45941,11.974281   L 107.59053,11.974281   L 107.59053,11.310068   L 107.45941,11.310068   L 107.45941,9.8709407   L 112.25453,9.8709407   L 112.25453,11.310068   L 112.12342,11.310068   L 112.12342,11.974281   L 112.25453,11.974281   L 112.25453,13.247356   L 112.57296,13.247356   L 112.57296,13.819317   L 112.64788,13.819317   L 112.64788,13.192005   L 112.25453,13.192005   L 112.25453,13.247356   L 110.99956,13.247356   L 110.99956,13.819317   L 110.69986,13.819317   L 110.69986,14.022271   L 109.01408,14.022271   z "
     id="path223" />
  <path
     style="fill:#000000;fill-rule:evenodd;fill-opacity:1;stroke:#494949;stroke-width:0.018730942px;stroke-linecap:round;stroke-linejoin:round;stroke-miterlimit:4;stroke-dasharray:none;stroke-opacity:1;"
     d="  M 108.71438,13.247356   L 107.14098,13.247356   L 107.14098,13.819317   L 108.71438,13.819317   L 108.71438,13.247356   z "
     id="path225" />
  <path
     style="fill:#000000;fill-rule:evenodd;fill-opacity:1;stroke:#494949;stroke-width:0.018730942px;stroke-linecap:round;stroke-linejoin:round;stroke-miterlimit:4;stroke-dasharray:none;stroke-opacity:1;"
     d="  M 112.57296,13.247356   L 110.99956,13.247356   L 110.99956,13.819317   L 112.57296,13.819317   L 112.57296,13.247356   z "
     id="path227" />
  <path
     style="fill:#83ff00;fill-rule:evenodd;fill-opacity:1;stroke:#000000;stroke-width:0.018084278px;stroke-linecap:round;stroke-linejoin:round;stroke-miterlimit:4;stroke-dasharray:none;stroke-opacity:1;"
     d="  M 91.000087,3.1399152   L 89.987367,3.1399152   L 89.987367,3.55397   L 91.000087,3.55397   L 91.000087,3.1399152   z "
     id="path229" />
  <path
     style="fill:#ffff00;fill-rule:evenodd;fill-opacity:1;stroke:#000000;stroke-width:0.018084278px;stroke-linecap:round;stroke-linejoin:round;stroke-miterlimit:4;stroke-dasharray:none;stroke-opacity:1;"
     d="  M 94.888206,3.1399152   L 93.875487,3.1399152   L 93.875487,3.55397   L 94.888206,3.55397   L 94.888206,3.1399152   z "
     id="path231" />
  <path
     style="fill:#83ff00;fill-rule:evenodd;fill-opacity:1;stroke:#000000;stroke-width:0.018084278px;stroke-linecap:round;stroke-linejoin:round;stroke-miterlimit:4;stroke-dasharray:none;stroke-opacity:1;"
     d="  M 100.80177,3.1399152   L 99.789046,3.1399152   L 99.789046,3.55397   L 100.80177,3.55397   L 100.80177,3.1399152   z "
     id="path233" />
  <path
     style="fill:#ffff00;fill-rule:evenodd;fill-opacity:1;stroke:#000000;stroke-width:0.018084278px;stroke-linecap:round;stroke-linejoin:round;stroke-miterlimit:4;stroke-dasharray:none;stroke-opacity:1;"
     d="  M 104.70797,3.1399152   L 103.69525,3.1399152   L 103.69525,3.55397   L 104.70797,3.55397   L 104.70797,3.1399152   z "
     id="path235" />
  <path
     style="fill:#83ff00;fill-rule:evenodd;fill-opacity:1;stroke:#000000;stroke-width:0.018084278px;stroke-linecap:round;stroke-linejoin:round;stroke-miterlimit:4;stroke-dasharray:none;stroke-opacity:1;"
     d="  M 115.93831,3.1399152   L 114.92559,3.1399152   L 114.92559,3.55397   L 115.93831,3.55397   L 115.93831,3.1399152   z "
     id="path237" />
  <path
     style="fill:#ffff00;fill-rule:evenodd;fill-opacity:1;stroke:#000000;stroke-width:0.018084278px;stroke-linecap:round;stroke-linejoin:round;stroke-miterlimit:4;stroke-dasharray:none;stroke-opacity:1;"
     d="  M 119.84451,3.1399152   L 118.83179,3.1399152   L 118.83179,3.55397   L 119.84451,3.55397   L 119.84451,3.1399152   z "
     id="path239" />
  <path
     style="fill:#83ff00;fill-rule:evenodd;fill-opacity:1;stroke:#000000;stroke-width:0.018084278px;stroke-linecap:round;stroke-linejoin:round;stroke-miterlimit:4;stroke-dasharray:none;stroke-opacity:1;"
     d="  M 108.37908,3.1399152   L 107.36636,3.1399152   L 107.36636,3.55397   L 108.37908,3.55397   L 108.37908,3.1399152   z "
     id="path241" />
  <path
     style="fill:#ffff00;fill-rule:evenodd;fill-opacity:1;stroke:#000000;stroke-width:0.018084278px;stroke-linecap:round;stroke-linejoin:round;stroke-miterlimit:4;stroke-dasharray:none;stroke-opacity:1;"
     d="  M 112.2672,3.1399152   L 111.25448,3.1399152   L 111.25448,3.55397   L 112.2672,3.55397   L 112.2672,3.1399152   z "
     id="path243" />
  <path
     style="fill:#83ff00;fill-rule:evenodd;fill-opacity:1;stroke:#000000;stroke-width:0.018084278px;stroke-linecap:round;stroke-linejoin:round;stroke-miterlimit:4;stroke-dasharray:none;stroke-opacity:1;"
     d="  M 91.000087,13.301509   L 89.987367,13.301509   L 89.987367,13.715564   L 91.000087,13.715564   L 91.000087,13.301509   z "
     id="path245" />
  <path
     style="fill:#ffff00;fill-rule:evenodd;fill-opacity:1;stroke:#000000;stroke-width:0.018084278px;stroke-linecap:round;stroke-linejoin:round;stroke-miterlimit:4;stroke-dasharray:none;stroke-opacity:1;"
     d="  M 94.888206,13.301509   L 93.875487,13.301509   L 93.875487,13.715564   L 94.888206,13.715564   L 94.888206,13.301509   z "
     id="path247" />
  <path
     style="fill:#83ff00;fill-rule:evenodd;fill-opacity:1;stroke:#000000;stroke-width:0.018084278px;stroke-linecap:round;stroke-linejoin:round;stroke-miterlimit:4;stroke-dasharray:none;stroke-opacity:1;"
     d="  M 100.80177,13.301509   L 99.789046,13.301509   L 99.789046,13.715564   L 100.80177,13.715564   L 100.80177,13.301509   z "
     id="path249" />
  <path
     style="fill:#ffff00;fill-rule:evenodd;fill-opacity:1;stroke:#000000;stroke-width:0.018084278px;stroke-linecap:round;stroke-linejoin:round;stroke-miterlimit:4;stroke-dasharray:none;stroke-opacity:1;"
     d="  M 104.70797,13.301509   L 103.69525,13.301509   L 103.69525,13.715564   L 104.70797,13.715564   L 104.70797,13.301509   z "
     id="path251" />
  <path
     style="fill:#83ff00;fill-rule:evenodd;fill-opacity:1;stroke:#000000;stroke-width:0.018084278px;stroke-linecap:round;stroke-linejoin:round;stroke-miterlimit:4;stroke-dasharray:none;stroke-opacity:1;"
     d="  M 115.93831,13.301509   L 114.92559,13.301509   L 114.92559,13.715564   L 115.93831,13.715564   L 115.93831,13.301509   z "
     id="path253" />
  <path
     style="fill:#ffff00;fill-rule:evenodd;fill-opacity:1;stroke:#000000;stroke-width:0.018084278px;stroke-linecap:round;stroke-linejoin:round;stroke-miterlimit:4;stroke-dasharray:none;stroke-opacity:1;"
     d="  M 119.84451,13.301509   L 118.83179,13.301509   L 118.83179,13.715564   L 119.84451,13.715564   L 119.84451,13.301509   z "
     id="path255" />
  <path
     style="fill:#83ff00;fill-rule:evenodd;fill-opacity:1;stroke:#000000;stroke-width:0.018084278px;stroke-linecap:round;stroke-linejoin:round;stroke-miterlimit:4;stroke-dasharray:none;stroke-opacity:1;"
     d="  M 108.37908,13.301509   L 107.36636,13.301509   L 107.36636,13.715564   L 108.37908,13.715564   L 108.37908,13.301509   z "
     id="path257" />
  <path
     style="fill:#ffff00;fill-rule:evenodd;fill-opacity:1;stroke:#000000;stroke-width:0.018084278px;stroke-linecap:round;stroke-linejoin:round;stroke-miterlimit:4;stroke-dasharray:none;stroke-opacity:1;"
     d="  M 112.2672,13.301509   L 111.25448,13.301509   L 111.25448,13.715564   L 112.2672,13.715564   L 112.2672,13.301509   z "
     id="path259" />
  <path
     style="fill:#000000;fill-rule:evenodd;fill-opacity:1;stroke:#000000;stroke-width:0.018730942px;stroke-linecap:round;stroke-linejoin:round;stroke-miterlimit:4;stroke-dasharray:none;stroke-opacity:1;"
     d="  M 141.45607,9.2067279   L 141.45607,9.4096818   L 141.15637,9.4096818   L 141.15637,9.9816428   L 139.9014,9.9816428   L 139.9014,10.036994   L 139.50805,10.036994   L 139.50805,9.4096818   L 139.58298,9.4096818   L 139.58298,9.9816428   L 139.9014,9.9816428   L 139.9014,11.254717   L 140.03252,11.254717   L 140.03252,11.91893   L 139.9014,11.91893   L 139.9014,13.358058   L 144.69652,13.358058   L 144.69652,11.91893   L 144.56541,11.91893   L 144.56541,11.254717   L 144.69652,11.254717   L 144.69652,9.9816428   L 145.01495,9.9816428   L 145.01495,9.4096818   L 145.08987,9.4096818   L 145.08987,10.036994   L 144.69652,10.036994   L 144.69652,9.9816428   L 143.44155,9.9816428   L 143.44155,9.4096818   L 143.14185,9.4096818   L 143.14185,9.2067279   L 141.45607,9.2067279   z "
     id="path261" />
  <path
     style="fill:#000000;fill-rule:evenodd;fill-opacity:1;stroke:#494949;stroke-width:0.018730942px;stroke-linecap:round;stroke-linejoin:round;stroke-miterlimit:4;stroke-dasharray:none;stroke-opacity:1;"
     d="  M 141.15637,9.4281321   L 139.58298,9.4281321   L 139.58298,10.000093   L 141.15637,10.000093   L 141.15637,9.4281321   z "
     id="path263" />
  <path
     style="fill:#000000;fill-rule:evenodd;fill-opacity:1;stroke:#494949;stroke-width:0.018730942px;stroke-linecap:round;stroke-linejoin:round;stroke-miterlimit:4;stroke-dasharray:none;stroke-opacity:1;"
     d="  M 145.01495,9.4281321   L 143.44155,9.4281321   L 143.44155,10.000093   L 145.01495,10.000093   L 145.01495,9.4281321   z "
     id="path265" />
  <path
     style="fill:#83ff00;fill-rule:evenodd;fill-opacity:1;stroke:#000000;stroke-width:0.018084278px;stroke-linecap:round;stroke-linejoin:round;stroke-miterlimit:4;stroke-dasharray:none;stroke-opacity:1;"
     d="  M 140.82227,9.4887547   L 139.80955,9.4887547   L 139.80955,9.9028095   L 140.82227,9.9028095   L 140.82227,9.4887547   z "
     id="path267" />
  <path
     style="fill:#ff0000;fill-rule:evenodd;fill-opacity:1;stroke:#000000;stroke-width:0.018084278px;stroke-linecap:round;stroke-linejoin:round;stroke-miterlimit:4;stroke-dasharray:none;stroke-opacity:1;"
     d="  M 144.71039,9.4887547   L 143.69767,9.4887547   L 143.69767,9.9028095   L 144.71039,9.9028095   L 144.71039,9.4887547   z "
     id="path269" />
</svg>
