<?xml version="1.0" encoding="UTF-8" standalone="no"?>
<svg
   version="1.0"
   width="48.290001mm"
   height="4.5900002mm"
   id="svg325"
   xmlns="http://www.w3.org/2000/svg"
   xmlns:svg="http://www.w3.org/2000/svg">
  <defs
     id="defs3">
    <pattern
       id="EMFhbasepattern"
       patternUnits="userSpaceOnUse"
       width="6"
       height="6"
       x="0"
       y="0" />
  </defs>
  <path
     style="fill:none;stroke:none;"
     d="  M 18.228952,2.3380292   L 18.228952,4.3572362   L 20.037569,4.3572362   M 20.037569,2.3380292   L 23.607207,2.3380292   M 21.79859,2.3380292   L 21.79859,4.3572362   M 24.511515,2.3380292   L 24.511515,4.3572362   M 24.511515,2.3380292   L 24.511515,4.3572362  "
     id="path5" />
  <path
     style="fill:none;stroke:none;"
     d="  M 26.272537,4.3572362   L 26.272537,2.3380292   L 28.081153,4.3572362   L 29.88977,2.3380292   L 29.88977,4.3572362  "
     id="path7" />
  <path
     style="fill:none;stroke:none;"
     d="  M 30.746483,4.3572362   L 32.5551,2.3380292   L 34.363717,4.3572362   M 31.222435,3.8524344   L 33.887765,3.8524344  "
     id="path9" />
  <path
     style="fill:none;stroke:none;"
     d="  M 12.850697,4.3572362   L 14.659314,2.3380292   L 16.467931,4.3572362   M 13.326649,3.8524344   L 15.991979,3.8524344  "
     id="path11" />
  <path
     style="fill:#eaeaea;fill-rule:evenodd;fill-opacity:1;stroke:#000000;stroke-width:0.093635462px;stroke-linecap:round;stroke-linejoin:round;stroke-miterlimit:4;stroke-dasharray:none;stroke-opacity:1;"
     d="  M 182.21461,0.037299209   L 0.037454186,0.037299209   L 0.037454186,17.194935   L 182.21461,17.194935   L 182.21461,0.037299209   z "
     id="path13" />
  <path
     style="fill:#eaeaea;fill-rule:evenodd;fill-opacity:1;stroke:#000000;stroke-width:0.093635462px;stroke-linecap:round;stroke-linejoin:round;stroke-miterlimit:4;stroke-dasharray:none;stroke-opacity:1;"
     d="  M 172.62634,0.57813773   L 172.60761,0.46624011   L 172.58889,0.37299209   L 172.53271,0.27974407   L 172.47652,0.20514565   L 172.38289,0.13054723   L 172.28925,0.074598417   L 172.19562,0.055948813   L 172.08326,0.037299209   L 10.168811,0.037299209   L 10.056449,0.055948813   L 9.9628134,0.074598417   L 9.8691779,0.13054723   L 9.7193612,0.27974407   L 9.6631799,0.37299209   L 9.6444528,0.46624011   L 9.6257257,0.57813773   L 9.6257257,16.654097   L 9.6444528,16.765994   L 9.6631799,16.859242   L 9.7193612,16.95249   L 9.7942695,17.045738   L 9.8691779,17.101687   L 9.9628134,17.157636   L 10.056449,17.176286   L 10.168811,17.194935   L 172.08326,17.194935   L 172.19562,17.176286   L 172.28925,17.157636   L 172.47652,17.045738   L 172.58889,16.859242   L 172.60761,16.765994   L 172.62634,16.654097   L 172.62634,0.57813773   z "
     id="path15" />
  <path
     style="fill:#eaeaea;fill-rule:evenodd;fill-opacity:1;stroke:#bfbfbf;stroke-width:0.018727092px;stroke-linecap:round;stroke-linejoin:round;stroke-miterlimit:4;stroke-dasharray:none;stroke-opacity:1;"
     d="  M 171.93344,1.1376259   L 171.91471,1.0443778   L 171.89598,0.93248022   L 171.78362,0.78328338   L 171.63381,0.67138576   L 171.52144,0.65273615   L 171.42781,0.63408655   L 10.82426,0.63408655   L 10.730624,0.65273615   L 10.618262,0.67138576   L 10.468445,0.78328338   L 10.356082,0.93248022   L 10.337355,1.0443778   L 10.318628,1.1376259   L 10.318628,16.113258   L 10.337355,16.206506   L 10.356082,16.318404   L 10.468445,16.467601   L 10.618262,16.579498   L 10.730624,16.598148   L 10.82426,16.616797   L 171.42781,16.616797   L 171.52144,16.598148   L 171.63381,16.579498   L 171.78362,16.467601   L 171.89598,16.318404   L 171.91471,16.206506   L 171.93344,16.113258   L 171.93344,1.1376259   z "
     id="path17" />
  <path
     style="fill:#ffffff;fill-rule:evenodd;fill-opacity:1;stroke:#000000;stroke-width:0.018727092px;stroke-linecap:round;stroke-linejoin:round;stroke-miterlimit:4;stroke-dasharray:none;stroke-opacity:1;"
     d="  M 5.9364884,2.2193029   L 5.9364884,2.1074053   L 5.9177613,2.0141573   L 5.8803071,1.9022596   L 5.8053988,1.7157636   L 5.7492175,1.6225156   L 5.6930362,1.5479172   L 5.5432195,1.3987203   L 5.4683111,1.3427715   L 5.3746756,1.2868227   L 5.1874047,1.2122243   L 5.0750422,1.1749251   L 4.9814067,1.1562755   L 2.0974344,1.1562755   L 2.0037989,1.1749251   L 1.8914364,1.2122243   L 1.7041654,1.2868227   L 1.61053,1.3427715   L 1.5356216,1.3987203   L 1.3858049,1.5479172   L 1.3296236,1.6225156   L 1.2734423,1.7157636   L 1.1985339,1.9022596   L 1.1610798,2.0141573   L 1.1423527,2.1074053   L 1.1423527,2.3312005   L 1.1610798,2.4244486   L 1.1985339,2.5363462   L 1.2734423,2.7228422   L 1.3296236,2.8160903   L 1.3858049,2.8906887   L 1.5356216,3.0398855   L 1.61053,3.0958343   L 1.7041654,3.1517831   L 1.8914364,3.2263816   L 2.0037989,3.2636808   L 2.0974344,3.2823304   L 4.9814067,3.2823304   L 5.0750422,3.2636808   L 5.1874047,3.2263816   L 5.3746756,3.1517831   L 5.4683111,3.0958343   L 5.5432195,3.0398855   L 5.6930362,2.8906887   L 5.7492175,2.8160903   L 5.8053988,2.7228422   L 5.8803071,2.5363462   L 5.9177613,2.4244486   L 5.9364884,2.3312005   L 5.9364884,2.2193029   z "
     id="path19" />
  <path
     style="fill:#ffffff;fill-rule:evenodd;fill-opacity:1;stroke:#000000;stroke-width:0.018727092px;stroke-linecap:round;stroke-linejoin:round;stroke-miterlimit:4;stroke-dasharray:none;stroke-opacity:1;"
     d="  M 5.9364884,15.012931   L 5.9364884,14.901034   L 5.9177613,14.807786   L 5.8803071,14.695888   L 5.8053988,14.509392   L 5.7492175,14.416144   L 5.6930362,14.341546   L 5.5432195,14.192349   L 5.4683111,14.1364   L 5.3746756,14.080451   L 5.1874047,14.005853   L 5.0750422,13.968554   L 4.9814067,13.949904   L 2.0974344,13.949904   L 2.0037989,13.968554   L 1.8914364,14.005853   L 1.7041654,14.080451   L 1.61053,14.1364   L 1.5356216,14.192349   L 1.3858049,14.341546   L 1.3296236,14.416144   L 1.2734423,14.509392   L 1.1985339,14.695888   L 1.1610798,14.807786   L 1.1423527,14.901034   L 1.1423527,15.124829   L 1.1610798,15.218077   L 1.1985339,15.329975   L 1.2734423,15.516471   L 1.3296236,15.609719   L 1.3858049,15.684317   L 1.5356216,15.833514   L 1.61053,15.889463   L 1.7041654,15.945412   L 1.8914364,16.02001   L 2.0037989,16.057309   L 2.0974344,16.075959   L 4.9814067,16.075959   L 5.0750422,16.057309   L 5.1874047,16.02001   L 5.3746756,15.945412   L 5.4683111,15.889463   L 5.5432195,15.833514   L 5.6930362,15.684317   L 5.7492175,15.609719   L 5.8053988,15.516471   L 5.8803071,15.329975   L 5.9177613,15.218077   L 5.9364884,15.124829   L 5.9364884,15.012931   z "
     id="path21" />
  <path
     style="fill:#ffffff;fill-rule:evenodd;fill-opacity:1;stroke:#000000;stroke-width:0.018727092px;stroke-linecap:round;stroke-linejoin:round;stroke-miterlimit:4;stroke-dasharray:none;stroke-opacity:1;"
     d="  M 181.12844,2.2193029   L 181.12844,2.1074053   L 181.10971,2.0141573   L 181.07226,1.9022596   L 180.99735,1.7157636   L 180.94117,1.6225156   L 180.88499,1.5479172   L 180.73517,1.3987203   L 180.66026,1.3427715   L 180.56663,1.2868227   L 180.37936,1.2122243   L 180.267,1.1749251   L 180.17336,1.1562755   L 177.28939,1.1562755   L 177.19575,1.1749251   L 177.08339,1.2122243   L 176.89612,1.2868227   L 176.80248,1.3427715   L 176.72757,1.3987203   L 176.57776,1.5479172   L 176.52158,1.6225156   L 176.4654,1.7157636   L 176.39049,1.9022596   L 176.35303,2.0141573   L 176.33431,2.1074053   L 176.33431,2.3312005   L 176.35303,2.4244486   L 176.39049,2.5363462   L 176.4654,2.7228422   L 176.52158,2.8160903   L 176.57776,2.8906887   L 176.72757,3.0398855   L 176.80248,3.0958343   L 176.89612,3.1517831   L 177.08339,3.2263816   L 177.19575,3.2636808   L 177.28939,3.2823304   L 180.17336,3.2823304   L 180.267,3.2636808   L 180.37936,3.2263816   L 180.56663,3.1517831   L 180.66026,3.0958343   L 180.73517,3.0398855   L 180.88499,2.8906887   L 180.94117,2.8160903   L 180.99735,2.7228422   L 181.07226,2.5363462   L 181.10971,2.4244486   L 181.12844,2.3312005   L 181.12844,2.2193029   z "
     id="path23" />
  <path
     style="fill:#ffffff;fill-rule:evenodd;fill-opacity:1;stroke:#000000;stroke-width:0.018727092px;stroke-linecap:round;stroke-linejoin:round;stroke-miterlimit:4;stroke-dasharray:none;stroke-opacity:1;"
     d="  M 181.12844,15.012931   L 181.12844,14.901034   L 181.10971,14.807786   L 181.07226,14.695888   L 180.99735,14.509392   L 180.94117,14.416144   L 180.88499,14.341546   L 180.73517,14.192349   L 180.66026,14.1364   L 180.56663,14.080451   L 180.37936,14.005853   L 180.267,13.968554   L 180.17336,13.949904   L 177.28939,13.949904   L 177.19575,13.968554   L 177.08339,14.005853   L 176.89612,14.080451   L 176.80248,14.1364   L 176.72757,14.192349   L 176.57776,14.341546   L 176.52158,14.416144   L 176.4654,14.509392   L 176.39049,14.695888   L 176.35303,14.807786   L 176.33431,14.901034   L 176.33431,15.124829   L 176.35303,15.218077   L 176.39049,15.329975   L 176.4654,15.516471   L 176.52158,15.609719   L 176.57776,15.684317   L 176.72757,15.833514   L 176.80248,15.889463   L 176.89612,15.945412   L 177.08339,16.02001   L 177.19575,16.057309   L 177.28939,16.075959   L 180.17336,16.075959   L 180.267,16.057309   L 180.37936,16.02001   L 180.56663,15.945412   L 180.66026,15.889463   L 180.73517,15.833514   L 180.88499,15.684317   L 180.94117,15.609719   L 180.99735,15.516471   L 181.07226,15.329975   L 181.10971,15.218077   L 181.12844,15.124829   L 181.12844,15.012931   z "
     id="path25" />
  <path
     style="fill:#ffffff;fill-rule:evenodd;fill-opacity:1;stroke:#0a0a0a;stroke-width:0.01353702px;stroke-linecap:round;stroke-linejoin:round;stroke-miterlimit:4;stroke-dasharray:none;stroke-opacity:1;"
     d="  M 94.529016,3.3579649   L 88.112468,3.3579649   L 88.112468,14.807026   L 94.529016,14.807026   L 94.529016,3.3579649   z "
     id="path27" />
  <path
     style="fill:#000000;fill-rule:evenodd;fill-opacity:1;stroke:#000000;stroke-width:0.018700197px;stroke-linecap:round;stroke-linejoin:round;stroke-miterlimit:4;stroke-dasharray:none;stroke-opacity:1;"
     d="  M 20.037569,2.3380292   M 21.79859,2.3380292   M 24.511515,2.3380292   M 24.511515,2.3380292   M 31.222435,3.8524344   M 13.326649,3.8524344   M 12.734834,4.5291101   L 12.697434,4.5291101   L 12.678734,4.5106991   L 12.660033,4.5106991   L 12.603933,4.455466   L 12.603933,4.437055   L 12.585233,4.418644   L 12.585233,2.2829661   L 12.603933,2.264555   L 12.603933,2.246144   L 12.622633,2.227733   L 12.641333,2.227733   L 12.641333,2.209322   L 12.660033,2.190911   L 12.678734,2.190911   L 12.697434,2.1725   L 15.240661,2.1725   L 15.259361,2.190911   L 15.278061,2.190911   L 15.334162,2.246144   L 15.334162,2.264555   L 15.352862,2.2829661   L 15.352862,2.7064194   L 15.334162,2.7064194   L 15.334162,2.6880084   L 15.315461,2.6880084   L 15.315461,2.6695974   L 15.296761,2.6695974   L 15.296761,2.6511864   L 15.259361,2.6511864   L 15.259361,2.6327754   L 13.202339,2.6327754   L 13.202339,2.6511864   L 13.164939,2.6511864   L 13.164939,2.6695974   L 13.146239,2.6695974   L 13.146239,2.7064194   L 13.127538,2.7064194   L 13.127538,4.455466   L 13.146239,4.455466   L 13.146239,4.4922881   L 13.164939,4.4922881   L 13.164939,4.5106991   L 13.183639,4.5106991   L 13.183639,4.5291101   L 12.753534,4.5291101   L 12.734834,4.5291101   z "
     id="path29" />
  <path
     style="fill:#000000;fill-rule:evenodd;fill-opacity:1;stroke:#000000;stroke-width:0.018700197px;stroke-linecap:round;stroke-linejoin:round;stroke-miterlimit:4;stroke-dasharray:none;stroke-opacity:1;"
     d="  M 15.16586,3.1666949   L 13.31454,3.1666949   L 13.31454,3.1482838   L 13.27714,3.1482838   L 13.27714,3.1298728   L 13.25844,3.1298728   L 13.25844,3.0930508   L 13.23974,3.0930508   L 13.23974,3.5533262   L 13.25844,3.5533262   L 13.25844,3.5901482   L 13.27714,3.5901482   L 13.27714,3.6085593   L 13.31454,3.6085593   L 13.31454,3.6269703   L 15.20326,3.6269703   L 15.240661,3.5901482   L 15.259361,3.5901482   L 15.296761,3.5533262   L 15.296761,3.5349152   L 15.315461,3.5165042   L 15.315461,3.4980932   L 15.334162,3.4796821   L 15.334162,3.4428601   L 15.352862,3.4244491   L 15.352862,3.369216   L 15.334162,3.350805   L 15.334162,3.295572   L 15.296761,3.2587499   L 15.296761,3.2403389   L 15.278061,3.2219279   L 15.259361,3.2219279   L 15.259361,3.2035169   L 15.240661,3.2035169   L 15.22196,3.1851059   L 15.20326,3.1851059   L 15.18456,3.1666949   L 15.16586,3.1666949   z "
     id="path31" />
  <path
     style="fill:#000000;fill-rule:evenodd;fill-opacity:1;stroke:#000000;stroke-width:0.018700197px;stroke-linecap:round;stroke-linejoin:round;stroke-miterlimit:4;stroke-dasharray:none;stroke-opacity:1;"
     d="  M 19.485605,3.6269703   L 19.448205,3.6269703   L 19.448205,3.6085593   L 19.410805,3.6085593   L 19.410805,3.5901482   L 19.392104,3.5901482   L 19.392104,3.5533262   L 19.373404,3.5533262   L 19.373404,3.0930508   L 19.392104,3.0930508   L 19.392104,3.1298728   L 19.410805,3.1298728   L 19.410805,3.1482838   L 19.448205,3.1482838   L 19.448205,3.1666949   L 20.944221,3.1666949   L 20.944221,2.6327754   L 19.336004,2.6327754   L 19.336004,2.6511864   L 19.298603,2.6511864   L 19.298603,2.6695974   L 19.279903,2.6695974   L 19.279903,2.7064194   L 19.261203,2.7064194   L 19.261203,4.455466   L 19.279903,4.455466   L 19.279903,4.4922881   L 19.298603,4.4922881   L 19.298603,4.5106991   L 19.317304,4.5106991   L 19.317304,4.5291101   L 18.831098,4.5291101   L 18.812398,4.5106991   L 18.793698,4.5106991   L 18.737598,4.455466   L 18.737598,4.437055   L 18.718897,4.418644   L 18.718897,2.2829661   L 18.737598,2.264555   L 18.737598,2.246144   L 18.756298,2.227733   L 18.774998,2.227733   L 18.774998,2.209322   L 18.793698,2.190911   L 18.812398,2.190911   L 18.831098,2.1725   L 21.374325,2.1725   L 21.393026,2.190911   L 21.411726,2.190911   L 21.467826,2.246144   L 21.467826,2.264555   L 21.486526,2.2829661   L 21.486526,3.4428601   L 21.467826,3.4612711   L 21.467826,3.4980932   L 21.449126,3.4980932   L 21.449126,3.5165042   L 21.430426,3.5349152   L 21.430426,3.5533262   L 21.411726,3.5533262   L 21.411726,3.5717372   L 21.393026,3.5717372   L 21.393026,3.5901482   L 21.374325,3.5901482   L 21.374325,3.6085593   L 21.355625,3.6085593   L 21.336925,3.6269703   L 21.355625,3.6453813   L 21.374325,3.6453813   L 21.374325,3.6637923   L 21.393026,3.6637923   L 21.393026,3.6822033   L 21.411726,3.6822033   L 21.411726,3.7006143   L 21.430426,3.7006143   L 21.430426,3.7190254   L 21.449126,3.7374364   L 21.449126,3.7558474   L 21.467826,3.7558474   L 21.467826,3.7926694   L 21.486526,3.8110804   L 21.486526,4.455466   L 21.505227,4.455466   L 21.505227,4.4922881   L 21.523927,4.4922881   L 21.523927,4.5106991   L 21.542627,4.5106991   L 21.542627,4.5291101   L 21.056422,4.5291101   L 21.037722,4.5106991   L 21.019022,4.5106991   L 20.962921,4.455466   L 20.962921,4.437055   L 20.944221,4.418644   L 20.944221,3.6269703   L 19.504306,3.6269703   L 19.485605,3.6269703   z "
     id="path33" />
  <path
     style="fill:#000000;fill-rule:evenodd;fill-opacity:1;stroke:#000000;stroke-width:0.018700197px;stroke-linecap:round;stroke-linejoin:round;stroke-miterlimit:4;stroke-dasharray:none;stroke-opacity:1;"
     d="  M 22.458937,2.6327754   L 21.897931,2.6327754   L 21.879231,2.6143644   L 21.86053,2.6143644   L 21.80443,2.5591313   L 21.80443,2.5407203   L 21.78573,2.5223093   L 21.78573,2.2829661   L 21.80443,2.264555   L 21.80443,2.246144   L 21.82313,2.227733   L 21.84183,2.227733   L 21.84183,2.209322   L 21.86053,2.190911   L 21.879231,2.190911   L 21.897931,2.1725   L 24.441158,2.1725   L 24.459858,2.190911   L 24.478558,2.190911   L 24.534659,2.246144   L 24.534659,2.264555   L 24.553359,2.2829661   L 24.553359,2.7064194   L 24.534659,2.7064194   L 24.534659,2.6880084   L 24.515958,2.6880084   L 24.515958,2.6695974   L 24.497258,2.6695974   L 24.497258,2.6511864   L 24.459858,2.6511864   L 24.459858,2.6327754   L 23.076043,2.6327754   L 23.076043,2.6511864   L 23.038643,2.6511864   L 23.038643,2.6695974   L 23.019943,2.6695974   L 23.019943,2.7064194   L 23.001242,2.7064194   L 23.001242,4.455466   L 23.019943,4.455466   L 23.019943,4.4922881   L 23.038643,4.4922881   L 23.038643,4.5106991   L 23.057343,4.5106991   L 23.057343,4.5291101   L 22.571138,4.5291101   L 22.552438,4.5106991   L 22.533738,4.5106991   L 22.477637,4.455466   L 22.477637,4.437055   L 22.458937,4.418644   L 22.458937,2.6880084   L 22.458937,2.6327754   z "
     id="path35" />
  <path
     style="fill:#000000;fill-rule:evenodd;fill-opacity:1;stroke:#000000;stroke-width:0.018700197px;stroke-linecap:round;stroke-linejoin:round;stroke-miterlimit:4;stroke-dasharray:none;stroke-opacity:1;"
     d="  M 25.394868,4.400233   L 25.394868,4.455466   L 25.413568,4.455466   L 25.413568,4.4922881   L 25.432268,4.4922881   L 25.432268,4.5106991   L 25.450968,4.5106991   L 25.450968,4.5291101   L 24.964763,4.5291101   L 24.946063,4.5106991   L 24.927363,4.5106991   L 24.871262,4.455466   L 24.871262,4.437055   L 24.852562,4.418644   L 24.852562,2.246144   L 24.833862,2.246144   L 24.833862,2.209322   L 24.815162,2.209322   L 24.815162,2.190911   L 24.796461,2.190911   L 24.796461,2.1725   L 25.282667,2.1725   L 25.301367,2.190911   L 25.320067,2.190911   L 25.376167,2.246144   L 25.376167,2.264555   L 25.394868,2.2829661   L 25.394868,4.381822   L 25.394868,4.400233   z "
     id="path37" />
  <path
     style="fill:#000000;fill-rule:evenodd;fill-opacity:1;stroke:#000000;stroke-width:0.018700197px;stroke-linecap:round;stroke-linejoin:round;stroke-miterlimit:4;stroke-dasharray:none;stroke-opacity:1;"
     d="  M 28.050296,2.6327754   L 26.442079,2.6327754   L 26.442079,2.6511864   L 26.404678,2.6511864   L 26.404678,2.6695974   L 26.385978,2.6695974   L 26.385978,2.7064194   L 26.367278,2.7064194   L 26.367278,4.455466   L 26.385978,4.455466   L 26.385978,4.4922881   L 26.404678,4.4922881   L 26.404678,4.5106991   L 26.423379,4.5106991   L 26.423379,4.5291101   L 25.937173,4.5291101   L 25.918473,4.5106991   L 25.899773,4.5106991   L 25.843672,4.455466   L 25.843672,4.437055   L 25.824972,4.418644   L 25.824972,2.2829661   L 25.843672,2.264555   L 25.843672,2.246144   L 25.862373,2.227733   L 25.881073,2.227733   L 25.881073,2.209322   L 25.899773,2.190911   L 25.918473,2.190911   L 25.937173,2.1725   L 28.4804,2.1725   L 28.4991,2.190911   L 28.517801,2.190911   L 28.573901,2.246144   L 28.573901,2.264555   L 28.592601,2.2829661   L 28.592601,4.455466   L 28.611302,4.455466   L 28.611302,4.4922881   L 28.630002,4.4922881   L 28.630002,4.5106991   L 28.648702,4.5106991   L 28.648702,4.5291101   L 28.162497,4.5291101   L 28.143797,4.5106991   L 28.125096,4.5106991   L 28.068996,4.455466   L 28.068996,4.437055   L 28.050296,4.418644   L 28.050296,2.6880084   L 28.050296,2.6327754   z "
     id="path39" />
  <path
     style="fill:#000000;fill-rule:evenodd;fill-opacity:1;stroke:#000000;stroke-width:0.018700197px;stroke-linecap:round;stroke-linejoin:round;stroke-miterlimit:4;stroke-dasharray:none;stroke-opacity:1;"
     d="  M 31.34153,3.1666949   L 29.621112,3.1666949   L 29.602412,3.1482838   L 29.583712,3.1482838   L 29.583712,3.1298728   L 29.565012,3.1298728   L 29.565012,3.0930508   L 29.546311,3.0930508   L 29.546311,3.5533262   L 29.565012,3.5533262   L 29.565012,3.5901482   L 29.583712,3.5901482   L 29.583712,3.6085593   L 29.602412,3.6085593   L 29.621112,3.6269703   L 31.360231,3.6269703   L 31.397631,3.5901482   L 31.416331,3.5901482   L 31.453732,3.5533262   L 31.453732,3.5349152   L 31.472432,3.5165042   L 31.472432,3.4980932   L 31.491132,3.4796821   L 31.491132,3.4428601   L 31.509832,3.4244491   L 31.509832,3.350805   L 31.491132,3.332394   L 31.491132,3.277161   L 31.472432,3.277161   L 31.472432,3.2587499   L 31.416331,3.2035169   L 31.397631,3.2035169   L 31.397631,3.1851059   L 31.378931,3.1851059   L 31.360231,3.1666949   L 31.34153,3.1666949   z "
     id="path41" />
  <path
     style="fill:#000000;fill-rule:evenodd;fill-opacity:1;stroke:#000000;stroke-width:0.018700197px;stroke-linecap:round;stroke-linejoin:round;stroke-miterlimit:4;stroke-dasharray:none;stroke-opacity:1;"
     d="  M 32.631844,2.6327754   L 32.070838,2.6327754   L 32.052138,2.6143644   L 32.033438,2.6143644   L 31.977337,2.5591313   L 31.977337,2.5407203   L 31.958637,2.5223093   L 31.958637,2.2829661   L 31.977337,2.264555   L 31.977337,2.246144   L 31.996037,2.227733   L 32.014737,2.227733   L 32.014737,2.209322   L 32.033438,2.190911   L 32.052138,2.190911   L 32.070838,2.1725   L 34.614065,2.1725   L 34.632765,2.190911   L 34.651465,2.190911   L 34.707566,2.246144   L 34.707566,2.264555   L 34.726266,2.2829661   L 34.726266,2.7064194   L 34.707566,2.7064194   L 34.707566,2.6880084   L 34.688866,2.6880084   L 34.688866,2.6695974   L 34.670165,2.6695974   L 34.670165,2.6511864   L 34.632765,2.6511864   L 34.632765,2.6327754   L 33.24895,2.6327754   L 33.24895,2.6511864   L 33.21155,2.6511864   L 33.21155,2.6695974   L 33.19285,2.6695974   L 33.19285,2.7064194   L 33.17415,2.7064194   L 33.17415,4.455466   L 33.19285,4.455466   L 33.19285,4.4922881   L 33.21155,4.4922881   L 33.21155,4.5106991   L 33.23025,4.5106991   L 33.23025,4.5291101   L 32.744045,4.5291101   L 32.725345,4.5106991   L 32.706645,4.5106991   L 32.650544,4.455466   L 32.650544,4.437055   L 32.631844,4.418644   L 32.631844,2.6880084   L 32.631844,2.6327754   z "
     id="path43" />
  <path
     style="fill:#000000;fill-rule:evenodd;fill-opacity:1;stroke:#000000;stroke-width:0.018700197px;stroke-linecap:round;stroke-linejoin:round;stroke-miterlimit:4;stroke-dasharray:none;stroke-opacity:1;"
     d="  M 31.528532,4.0688347   L 31.565933,4.0688347   L 31.565933,4.0504237   L 31.603333,4.0504237   L 31.603333,4.0320126   L 31.622033,4.0320126   L 31.622033,4.0136016   L 31.640734,4.0136016   L 31.640734,3.9951906   L 31.659434,3.9951906   L 31.659434,4.418644   L 31.640734,4.437055   L 31.640734,4.455466   L 31.622033,4.473877   L 31.622033,4.4922881   L 31.603333,4.4922881   L 31.584633,4.5106991   L 31.565933,4.5106991   L 31.547233,4.5291101   L 29.004006,4.5291101   L 28.985306,4.5106991   L 28.966605,4.5106991   L 28.910505,4.455466   L 28.910505,4.437055   L 28.891805,4.418644   L 28.891805,2.2829661   L 28.910505,2.264555   L 28.910505,2.246144   L 28.929205,2.227733   L 28.947905,2.227733   L 28.947905,2.209322   L 28.966605,2.190911   L 28.985306,2.190911   L 29.004006,2.1725   L 31.547233,2.1725   L 31.565933,2.190911   L 31.584633,2.190911   L 31.640734,2.246144   L 31.640734,2.264555   L 31.659434,2.2829661   L 31.659434,2.7064194   L 31.640734,2.7064194   L 31.640734,2.6880084   L 31.622033,2.6880084   L 31.622033,2.6695974   L 31.603333,2.6695974   L 31.603333,2.6511864   L 31.565933,2.6511864   L 31.565933,2.6327754   L 29.508911,2.6327754   L 29.508911,2.6511864   L 29.471511,2.6511864   L 29.471511,2.6695974   L 29.45281,2.6695974   L 29.45281,2.7064194   L 29.43411,2.7064194   L 29.43411,4.0688347   L 31.509832,4.0688347   L 31.528532,4.0688347   z "
     id="path45" />
  <path
     style="fill:#ed3440;fill-rule:evenodd;fill-opacity:1;stroke:#ed3440;stroke-width:0.018700197px;stroke-linecap:round;stroke-linejoin:round;stroke-miterlimit:4;stroke-dasharray:none;stroke-opacity:1;"
     d="  M 16.587075,3.8479025   L 16.587075,4.5291101   L 17.484684,4.5291101   L 17.484684,3.8479025   L 16.587075,3.8479025   z "
     id="path47" />
  <path
     style="fill:#ed3440;fill-rule:evenodd;fill-opacity:1;stroke:#ed3440;stroke-width:0.018700197px;stroke-linecap:round;stroke-linejoin:round;stroke-miterlimit:4;stroke-dasharray:none;stroke-opacity:1;"
     d="  M 15.652065,3.0194067   L 16.418773,3.0194067   L 16.418773,3.6822033   L 15.652065,3.6822033   L 15.652065,3.0194067   z "
     id="path49" />
  <path
     style="fill:#ed3440;fill-rule:evenodd;fill-opacity:1;stroke:#ed3440;stroke-width:0.018700197px;stroke-linecap:round;stroke-linejoin:round;stroke-miterlimit:4;stroke-dasharray:none;stroke-opacity:1;"
     d="  M 17.652986,3.8479025   L 17.652986,4.5291101   L 17.933489,4.5291101   L 17.952189,4.5106991   L 18.02699,4.5106991   L 18.04569,4.4922881   L 18.083091,4.4922881   L 18.120491,4.473877   L 18.139191,4.455466   L 18.176592,4.437055   L 18.213992,4.400233   L 18.251392,4.381822   L 18.270093,4.3634109   L 18.288793,4.3265889   L 18.307493,4.3081779   L 18.382294,4.1608898   L 18.382294,4.1240677   L 18.400994,4.0688347   L 18.400994,4.0136016   L 18.419694,3.9583686   L 18.419694,3.8479025   L 17.671686,3.8479025   L 17.652986,3.8479025   z "
     id="path51" />
  <path
     style="fill:#ed3440;fill-rule:evenodd;fill-opacity:1;stroke:#ed3440;stroke-width:0.018700197px;stroke-linecap:round;stroke-linejoin:round;stroke-miterlimit:4;stroke-dasharray:none;stroke-opacity:1;"
     d="  M 17.652986,3.0194067   L 18.419694,3.0194067   L 18.419694,3.6822033   L 17.652986,3.6822033   L 17.652986,3.0194067   z "
     id="path53" />
  <path
     style="fill:#ed3440;fill-rule:evenodd;fill-opacity:1;stroke:#ed3440;stroke-width:0.018700197px;stroke-linecap:round;stroke-linejoin:round;stroke-miterlimit:4;stroke-dasharray:none;stroke-opacity:1;"
     d="  M 16.418773,3.8479025   L 16.418773,4.5291101   L 16.13827,4.5291101   L 16.11957,4.5106991   L 16.044769,4.5106991   L 16.026069,4.4922881   L 15.988669,4.4922881   L 15.951268,4.473877   L 15.932568,4.455466   L 15.895168,4.437055   L 15.857767,4.400233   L 15.820367,4.381822   L 15.801667,4.3634109   L 15.782966,4.3265889   L 15.764266,4.3081779   L 15.689465,4.1608898   L 15.689465,4.1240677   L 15.670765,4.0688347   L 15.670765,4.0136016   L 15.652065,3.9583686   L 15.652065,3.8479025   L 16.400073,3.8479025   L 16.418773,3.8479025   z "
     id="path55" />
  <path
     style="fill:#ed3440;fill-rule:evenodd;fill-opacity:1;stroke:#ed3440;stroke-width:0.018700197px;stroke-linecap:round;stroke-linejoin:round;stroke-miterlimit:4;stroke-dasharray:none;stroke-opacity:1;"
     d="  M 16.587075,2.1725   L 16.587075,2.8537076   L 17.484684,2.8537076   L 17.484684,2.1725   L 16.587075,2.1725   z "
     id="path57" />
  <path
     style="fill:#ed3440;fill-rule:evenodd;fill-opacity:1;stroke:#ed3440;stroke-width:0.018700197px;stroke-linecap:round;stroke-linejoin:round;stroke-miterlimit:4;stroke-dasharray:none;stroke-opacity:1;"
     d="  M 17.652986,2.8537076   L 17.652986,2.1725   L 17.933489,2.1725   L 17.952189,2.190911   L 18.02699,2.190911   L 18.04569,2.209322   L 18.083091,2.209322   L 18.120491,2.227733   L 18.139191,2.246144   L 18.176592,2.264555   L 18.213992,2.3013771   L 18.251392,2.3197881   L 18.270093,2.3381991   L 18.288793,2.3750211   L 18.307493,2.3934322   L 18.382294,2.5407203   L 18.382294,2.5775423   L 18.400994,2.6327754   L 18.400994,2.6880084   L 18.419694,2.7432415   L 18.419694,2.8537076   L 17.671686,2.8537076   L 17.652986,2.8537076   z "
     id="path59" />
  <path
     style="fill:#ed3440;fill-rule:evenodd;fill-opacity:1;stroke:#ed3440;stroke-width:0.018700197px;stroke-linecap:round;stroke-linejoin:round;stroke-miterlimit:4;stroke-dasharray:none;stroke-opacity:1;"
     d="  M 16.418773,2.8537076   L 16.418773,2.1725   L 16.13827,2.1725   L 16.11957,2.190911   L 16.044769,2.190911   L 16.026069,2.209322   L 15.988669,2.209322   L 15.951268,2.227733   L 15.932568,2.246144   L 15.895168,2.264555   L 15.857767,2.3013771   L 15.820367,2.3197881   L 15.801667,2.3381991   L 15.782966,2.3750211   L 15.764266,2.3934322   L 15.689465,2.5407203   L 15.689465,2.5775423   L 15.670765,2.6327754   L 15.670765,2.6880084   L 15.652065,2.7432415   L 15.652065,2.8537076   L 16.400073,2.8537076   L 16.418773,2.8537076   z "
     id="path61" />
  <text
     xml:space="preserve"
     style="font-size:2.562500px;font-style:normal;font-variant:normal;font-weight:400;font-stretch:Normal;line-height:125.000000%;letter-spacing:0px;word-spacing:0px;fill:#000000;fill-opacity:1;stroke:none;font-family:Arial;text-align:start;text-anchor:start;"
     transform="matrix(1.000000,-0.000000,0.000000,1.000000,12.587193,5.008912)"
     x="0.000000"
     y="1.868063"
     id="text67"><tspan
       x="0.000000"
       y="1.868063"
       id="tspan65"><tspan
         dx="0.000000"
         dy="0.000000"
         style="fill:#000000;font-size:2.562500px;font-style:normal;font-variant:normal;font-weight:400;font-stretch:Normal;font-family:Arial;"
         id="tspan63">FortiVoice 100D8</tspan></tspan></text>
  <path
     style="fill:#00ff00;fill-rule:evenodd;fill-opacity:1;stroke:#000000;stroke-width:0.023192052px;stroke-linecap:round;stroke-linejoin:round;stroke-miterlimit:4;stroke-dasharray:none;stroke-opacity:1;"
     d="  M 45.433228,8.9820094   L 44.505546,8.9820094   L 44.505546,9.9079898   L 45.433228,9.9079898   L 45.433228,8.9820094   z "
     id="path69" />
  <path
     style="fill:#00ff00;fill-rule:evenodd;fill-opacity:1;stroke:#000000;stroke-width:0.023192052px;stroke-linecap:round;stroke-linejoin:round;stroke-miterlimit:4;stroke-dasharray:none;stroke-opacity:1;"
     d="  M 45.433228,10.83397   L 44.505546,10.83397   L 44.505546,11.759951   L 45.433228,11.759951   L 45.433228,10.83397   z "
     id="path71" />
  <path
     style="fill:#00ff00;fill-rule:evenodd;fill-opacity:1;stroke:#000000;stroke-width:0.023192052px;stroke-linecap:round;stroke-linejoin:round;stroke-miterlimit:4;stroke-dasharray:none;stroke-opacity:1;"
     d="  M 45.433228,12.70908   L 44.505546,12.70908   L 44.505546,13.635061   L 45.433228,13.635061   L 45.433228,12.70908   z "
     id="path73" />
  <text
     xml:space="preserve"
     style="font-size:0.812500px;font-style:normal;font-variant:normal;font-weight:400;font-stretch:Normal;line-height:125.000000%;letter-spacing:0px;word-spacing:0px;fill:#000000;fill-opacity:1;stroke:none;font-family:Arial;text-align:start;text-anchor:start;"
     transform="matrix(1.000000,-0.000000,0.000000,1.000000,40.533757,12.634421)"
     x="0.000000"
     y="0.592313"
     id="text79"><tspan
       x="0.000000"
       y="0.592313"
       id="tspan77"><tspan
         dx="0.000000"
         dy="0.000000"
         style="fill:#000000;font-size:0.812500px;font-style:normal;font-variant:normal;font-weight:400;font-stretch:Normal;font-family:Arial;"
         id="tspan75">POWER</tspan></tspan></text>
  <text
     xml:space="preserve"
     style="font-size:0.812500px;font-style:normal;font-variant:normal;font-weight:400;font-stretch:Normal;line-height:230.030418%;letter-spacing:0px;word-spacing:0px;fill:#000000;fill-opacity:1;stroke:none;font-family:Arial;text-align:start;text-anchor:start;"
     transform="matrix(1.000000,-0.000000,0.000000,1.000000,40.533757,12.634421)"
     x="-0.299695"
     y="-3.145682"
     id="text89"><tspan
       x="-0.299695"
       y="-3.145682"
       id="tspan83"><tspan
         dx="0.000000"
         dy="0.000000"
         style="fill:#000000;font-size:0.812500px;font-style:normal;font-variant:normal;font-weight:400;font-stretch:Normal;font-family:Arial;"
         id="tspan81">STATUS</tspan></tspan><tspan
       x="0.000000"
       y="-1.276685"
       id="tspan87"><tspan
         dx="0.000000"
         dy="0.000000"
         style="fill:#000000;font-size:0.812500px;font-style:normal;font-variant:normal;font-weight:400;font-stretch:Normal;font-family:Arial;"
         id="tspan85">ALARM</tspan></tspan></text>
  <text
     xml:space="preserve"
     style="font-size:0.812500px;font-style:normal;font-variant:normal;font-weight:400;font-stretch:Normal;line-height:125.000000%;letter-spacing:0px;word-spacing:0px;fill:#000000;fill-opacity:1;stroke:none;font-family:Arial;text-align:start;text-anchor:start;"
     transform="matrix(1.000000,-0.000000,0.000000,1.000000,40.533757,12.634421)"
     x="7.117758"
     y="2.685589"
     id="text95"><tspan
       x="7.117758"
       y="2.685589"
       id="tspan93"><tspan
         dx="0.000000"
         dy="0.000000"
         style="fill:#000000;font-size:0.812500px;font-style:normal;font-variant:normal;font-weight:400;font-stretch:Normal;font-family:Arial;"
         id="tspan91">USB MGMT</tspan></tspan></text>
  <text
     xml:space="preserve"
     style="font-size:1.062500px;font-style:normal;font-variant:normal;font-weight:400;font-stretch:Normal;line-height:1273.556643%;letter-spacing:0px;word-spacing:0px;fill:#000000;fill-opacity:1;stroke:none;font-family:Arial;text-align:start;text-anchor:start;"
     transform="matrix(1.000000,-0.000000,0.000000,1.000000,40.533757,12.634421)"
     x="49.224914"
     y="-10.065621"
     id="text105"><tspan
       x="49.224914"
       y="-10.065621"
       id="tspan99"><tspan
         dx="0.000000"
         dy="0.000000"
         style="fill:#000000;font-size:1.062500px;font-style:normal;font-variant:normal;font-weight:400;font-stretch:Normal;font-family:Arial;"
         id="tspan97">LAN 1</tspan></tspan><tspan
       x="49.224914"
       y="3.465918"
       id="tspan103"><tspan
         dx="0.000000"
         dy="0.000000"
         style="fill:#000000;font-size:1.062500px;font-style:normal;font-variant:normal;font-weight:400;font-stretch:Normal;font-family:Arial;"
         id="tspan101">LAN 2</tspan></tspan></text>
  <text
     xml:space="preserve"
     style="font-size:1.000000px;font-style:normal;font-variant:normal;font-weight:400;font-stretch:Condensed;line-height:125.000000%;letter-spacing:0px;word-spacing:0px;fill:#000000;fill-opacity:1;stroke:none;font-family:Times New Roman;text-align:start;text-anchor:start;"
     transform="matrix(1.000000,-0.000000,0.000000,1.000000,33.718375,4.657633)"
     x="0.000000"
     y="0.000000"
     id="text111"><tspan
       x="0.000000"
       y="0.000000"
       id="tspan109"><tspan
         dx="0.000000"
         dy="0.000000"
         style="fill:#000000;font-size:1.000000px;font-style:normal;font-variant:normal;font-weight:400;font-stretch:Condensed;font-family:Times New Roman;"
         id="tspan107">®</tspan></tspan></text>
  <ellipse
     style="fill:#494949;fill-rule:evenodd;fill-opacity:1;stroke:#000000;stroke-width:0.01187786px;stroke-linecap:round;stroke-linejoin:round;stroke-miterlimit:4;stroke-dasharray:none;stroke-opacity:1;"
     cx="44.898312"
     cy="15.195293"
     rx="0.39196939"
     ry="0.39196939"
     id="ellipse113" />
  <ellipse
     style="fill:none;stroke:#000000;stroke-width:0.01187786px;stroke-linecap:round;stroke-linejoin:round;stroke-miterlimit:4;stroke-dasharray:none;stroke-opacity:1;"
     cx="44.898312"
     cy="15.195293"
     rx="0.39196939"
     ry="0.39196939"
     id="ellipse115" />
  <ellipse
     style="fill:#7f7f7f;fill-rule:evenodd;fill-opacity:1;stroke:#000000;stroke-width:0.01187786px;stroke-linecap:round;stroke-linejoin:round;stroke-miterlimit:4;stroke-dasharray:none;stroke-opacity:1;"
     cx="44.898312"
     cy="15.195293"
     rx="0.34445795"
     ry="0.34445795"
     id="ellipse117" />
  <ellipse
     style="fill:none;stroke:#000000;stroke-width:0.01187786px;stroke-linecap:round;stroke-linejoin:round;stroke-miterlimit:4;stroke-dasharray:none;stroke-opacity:1;"
     cx="44.898312"
     cy="15.195293"
     rx="0.34445795"
     ry="0.34445795"
     id="ellipse119" />
  <text
     xml:space="preserve"
     style="font-size:1.062500px;font-style:normal;font-variant:normal;font-weight:400;font-stretch:Normal;line-height:1273.556643%;letter-spacing:0px;word-spacing:0px;fill:#000000;fill-opacity:1;stroke:none;font-family:Arial;text-align:start;text-anchor:start;"
     transform="matrix(1.000000,-0.000000,0.000000,1.000000,110.737325,1.794237)"
     x="0.000000"
     y="0.774563"
     id="text129"><tspan
       x="0.000000"
       y="0.774563"
       id="tspan123"><tspan
         dx="0.000000"
         dy="0.000000"
         style="fill:#000000;font-size:1.062500px;font-style:normal;font-variant:normal;font-weight:400;font-stretch:Normal;font-family:Arial;"
         id="tspan121">7</tspan></tspan><tspan
       x="0.000000"
       y="14.306102"
       id="tspan127"><tspan
         dx="0.000000"
         dy="0.000000"
         style="fill:#000000;font-size:1.062500px;font-style:normal;font-variant:normal;font-weight:400;font-stretch:Normal;font-family:Arial;"
         id="tspan125">8</tspan></tspan></text>
  <path
     style="fill:#ffffff;fill-rule:evenodd;fill-opacity:1;stroke:#0a0a0a;stroke-width:0.01353702px;stroke-linecap:round;stroke-linejoin:round;stroke-miterlimit:4;stroke-dasharray:none;stroke-opacity:1;"
     d="  M 114.38783,3.3579649   L 107.97128,3.3579649   L 107.97128,14.807026   L 114.38783,14.807026   L 114.38783,3.3579649   z "
     id="path131" />
  <text
     xml:space="preserve"
     style="font-size:1.062500px;font-style:normal;font-variant:normal;font-weight:400;font-stretch:Normal;line-height:1273.556643%;letter-spacing:0px;word-spacing:0px;fill:#000000;fill-opacity:1;stroke:none;font-family:Arial;text-align:start;text-anchor:start;"
     transform="matrix(1.000000,-0.000000,0.000000,1.000000,118.978940,1.794237)"
     x="0.000000"
     y="0.774563"
     id="text141"><tspan
       x="0.000000"
       y="0.774563"
       id="tspan135"><tspan
         dx="0.000000"
         dy="0.000000"
         style="fill:#000000;font-size:1.062500px;font-style:normal;font-variant:normal;font-weight:400;font-stretch:Normal;font-family:Arial;"
         id="tspan133">5</tspan></tspan><tspan
       x="0.000000"
       y="14.306102"
       id="tspan139"><tspan
         dx="0.000000"
         dy="0.000000"
         style="fill:#000000;font-size:1.062500px;font-style:normal;font-variant:normal;font-weight:400;font-stretch:Normal;font-family:Arial;"
         id="tspan137">6</tspan></tspan></text>
  <path
     style="fill:#ffffff;fill-rule:evenodd;fill-opacity:1;stroke:#0a0a0a;stroke-width:0.01353702px;stroke-linecap:round;stroke-linejoin:round;stroke-miterlimit:4;stroke-dasharray:none;stroke-opacity:1;"
     d="  M 122.63187,3.3579649   L 116.21532,3.3579649   L 116.21532,14.807026   L 122.63187,14.807026   L 122.63187,3.3579649   z "
     id="path143" />
  <text
     xml:space="preserve"
     style="font-size:1.062500px;font-style:normal;font-variant:normal;font-weight:400;font-stretch:Normal;line-height:1273.556643%;letter-spacing:0px;word-spacing:0px;fill:#000000;fill-opacity:1;stroke:none;font-family:Arial;text-align:start;text-anchor:start;"
     transform="matrix(1.000000,-0.000000,0.000000,1.000000,127.145630,1.794237)"
     x="0.000000"
     y="0.774563"
     id="text153"><tspan
       x="0.000000"
       y="0.774563"
       id="tspan147"><tspan
         dx="0.000000"
         dy="0.000000"
         style="fill:#000000;font-size:1.062500px;font-style:normal;font-variant:normal;font-weight:400;font-stretch:Normal;font-family:Arial;"
         id="tspan145">3</tspan></tspan><tspan
       x="0.000000"
       y="14.306102"
       id="tspan151"><tspan
         dx="0.000000"
         dy="0.000000"
         style="fill:#000000;font-size:1.062500px;font-style:normal;font-variant:normal;font-weight:400;font-stretch:Normal;font-family:Arial;"
         id="tspan149">4</tspan></tspan></text>
  <path
     style="fill:#ffffff;fill-rule:evenodd;fill-opacity:1;stroke:#0a0a0a;stroke-width:0.01353702px;stroke-linecap:round;stroke-linejoin:round;stroke-miterlimit:4;stroke-dasharray:none;stroke-opacity:1;"
     d="  M 130.79469,3.3579649   L 124.37815,3.3579649   L 124.37815,14.807026   L 130.79469,14.807026   L 130.79469,3.3579649   z "
     id="path155" />
  <text
     xml:space="preserve"
     style="font-size:1.062500px;font-style:normal;font-variant:normal;font-weight:400;font-stretch:Normal;line-height:1273.556643%;letter-spacing:0px;word-spacing:0px;fill:#000000;fill-opacity:1;stroke:none;font-family:Arial;text-align:start;text-anchor:start;"
     transform="matrix(1.000000,-0.000000,0.000000,1.000000,135.312321,1.794237)"
     x="0.000000"
     y="0.774563"
     id="text165"><tspan
       x="0.000000"
       y="0.774563"
       id="tspan159"><tspan
         dx="0.000000"
         dy="0.000000"
         style="fill:#000000;font-size:1.062500px;font-style:normal;font-variant:normal;font-weight:400;font-stretch:Normal;font-family:Arial;"
         id="tspan157">1</tspan></tspan><tspan
       x="0.000000"
       y="14.306102"
       id="tspan163"><tspan
         dx="0.000000"
         dy="0.000000"
         style="fill:#000000;font-size:1.062500px;font-style:normal;font-variant:normal;font-weight:400;font-stretch:Normal;font-family:Arial;"
         id="tspan161">2</tspan></tspan></text>
  <path
     style="fill:#ffffff;fill-rule:evenodd;fill-opacity:1;stroke:#0a0a0a;stroke-width:0.01353702px;stroke-linecap:round;stroke-linejoin:round;stroke-miterlimit:4;stroke-dasharray:none;stroke-opacity:1;"
     d="  M 138.95752,3.3579649   L 132.54097,3.3579649   L 132.54097,14.807026   L 138.95752,14.807026   L 138.95752,3.3579649   z "
     id="path167" />
  <path
     style="fill:#ffffff;fill-rule:evenodd;fill-opacity:1;stroke:#0a0a0a;stroke-width:0.01353702px;stroke-linecap:round;stroke-linejoin:round;stroke-miterlimit:4;stroke-dasharray:none;stroke-opacity:1;"
     d="  M 106.21146,3.3579649   L 99.794917,3.3579649   L 99.794917,14.807026   L 106.21146,14.807026   L 106.21146,3.3579649   z "
     id="path169" />
  <text
     xml:space="preserve"
     style="font-size:1.062500px;font-style:normal;font-variant:normal;font-weight:400;font-stretch:Normal;line-height:1273.556643%;letter-spacing:0px;word-spacing:0px;fill:#000000;fill-opacity:1;stroke:none;font-family:Arial;text-align:start;text-anchor:start;"
     transform="matrix(1.000000,-0.000000,0.000000,1.000000,101.446779,1.794237)"
     x="0.000000"
     y="0.774563"
     id="text179"><tspan
       x="0.000000"
       y="0.774563"
       id="tspan173"><tspan
         dx="0.000000"
         dy="0.000000"
         style="fill:#000000;font-size:1.062500px;font-style:normal;font-variant:normal;font-weight:400;font-stretch:Normal;font-family:Arial;"
         id="tspan171">EXT 1</tspan></tspan><tspan
       x="0.000000"
       y="14.306102"
       id="tspan177"><tspan
         dx="0.000000"
         dy="0.000000"
         style="fill:#000000;font-size:1.062500px;font-style:normal;font-variant:normal;font-weight:400;font-stretch:Normal;font-family:Arial;"
         id="tspan175">EXT 2</tspan></tspan></text>
  <text
     xml:space="preserve"
     style="font-size:1.062500px;font-style:normal;font-variant:normal;font-weight:400;font-stretch:Normal;line-height:125.000000%;letter-spacing:0px;word-spacing:0px;fill:#000000;fill-opacity:1;stroke:none;font-family:Arial;text-align:start;text-anchor:start;"
     transform="matrix(1.000000,-0.000000,0.000000,1.000000,101.446779,1.794237)"
     x="20.828807"
     y="-0.122556"
     id="text185"><tspan
       x="20.828807"
       y="-0.122556"
       id="tspan183"><tspan
         dx="0.000000"
         dy="0.000000"
         style="fill:#000000;font-size:1.062500px;font-style:normal;font-variant:normal;font-weight:400;font-stretch:Normal;font-family:Arial;"
         id="tspan181">LINE</tspan></tspan></text>
  <path
     style="fill:none;stroke:#000000;stroke-width:0.028327821px;stroke-linecap:round;stroke-linejoin:round;stroke-miterlimit:4;stroke-dasharray:none;stroke-opacity:1;"
     d="  M 121.61133,1.2669833   L 107.95732,1.2669833   L 107.95732,2.7818547  "
     id="path187" />
  <path
     style="fill:none;stroke:#000000;stroke-width:0.028327821px;stroke-linecap:round;stroke-linejoin:round;stroke-miterlimit:4;stroke-dasharray:none;stroke-opacity:1;"
     d="  M 125.26562,1.2669833   L 138.91963,1.2669833   L 138.91963,2.7818547  "
     id="path189" />
  <path
     style="fill:#bfbfbf;fill-rule:evenodd;fill-opacity:1;stroke:#7f7f7f;stroke-width:0.021588054px;stroke-linecap:round;stroke-linejoin:round;stroke-miterlimit:4;stroke-dasharray:none;stroke-opacity:1;"
     d="  M 48.46518,12.72608   L 48.46518,12.659914   L 48.486768,12.659914   L 48.486768,12.615802   L 48.508356,12.593747   L 48.508356,12.571691   L 48.529944,12.571691   L 48.529944,12.549636   L 48.551532,12.549636   L 48.551532,12.52758   L 48.57312,12.52758   L 48.594708,12.505524   L 48.616296,12.505524   L 48.637884,12.483469   L 50.796689,12.483469   L 50.818277,12.505524   L 50.839865,12.505524   L 50.861453,12.52758   L 50.883041,12.52758   L 50.883041,12.549636   L 50.90463,12.549636   L 50.90463,12.571691   L 50.926218,12.571691   L 50.926218,12.593747   L 50.947806,12.615802   L 50.947806,12.659914   L 50.969394,12.659914   L 50.969394,13.123081   L 50.796689,13.299526   L 50.796689,13.652415   L 50.775101,13.674471   L 50.775101,13.696527   L 50.753513,13.696527   L 50.753513,13.718582   L 50.731925,13.718582   L 50.731925,13.740638   L 50.710337,13.740638   L 50.710337,13.762693   L 50.667161,13.762693   L 50.667161,13.784749   L 48.767412,13.784749   L 48.767412,13.762693   L 48.724236,13.762693   L 48.724236,13.740638   L 48.702648,13.740638   L 48.702648,13.718582   L 48.68106,13.718582   L 48.68106,13.696527   L 48.659472,13.696527   L 48.659472,13.674471   L 48.637884,13.652415   L 48.637884,13.299526   L 48.46518,13.123081   L 48.46518,12.748136   L 48.46518,12.72608   z "
     id="path191" />
  <path
     style="fill:#161616;fill-rule:evenodd;fill-opacity:1;stroke:#000000;stroke-width:0.021588054px;stroke-linecap:round;stroke-linejoin:round;stroke-miterlimit:4;stroke-dasharray:none;stroke-opacity:1;"
     d="  M 50.883041,13.101026   L 50.710337,13.27747   L 50.710337,13.608304   L 50.688749,13.63036   L 50.688749,13.652415   L 50.667161,13.652415   L 50.645573,13.674471   L 50.623985,13.674471   L 50.602397,13.696527   L 48.832176,13.696527   L 48.832176,13.674471   L 48.789,13.674471   L 48.767412,13.652415   L 48.745824,13.652415   L 48.745824,13.63036   L 48.724236,13.608304   L 48.724236,13.27747   L 48.551532,13.101026   L 48.551532,12.72608   L 48.57312,12.72608   L 48.57312,12.681969   L 48.594708,12.681969   L 48.594708,12.637858   L 48.616296,12.637858   L 48.616296,12.615802   L 48.659472,12.615802   L 48.659472,12.593747   L 48.68106,12.593747   L 48.702648,12.571691   L 50.731925,12.571691   L 50.753513,12.593747   L 50.775101,12.593747   L 50.775101,12.615802   L 50.818277,12.615802   L 50.818277,12.637858   L 50.839865,12.637858   L 50.839865,12.681969   L 50.861453,12.681969   L 50.861453,12.72608   L 50.883041,12.72608   L 50.883041,13.07897   L 50.883041,13.101026   z "
     id="path193" />
  <path
     style="fill:#cccccc;fill-rule:evenodd;fill-opacity:1;stroke:#000000;stroke-width:0.021588054px;stroke-linecap:round;stroke-linejoin:round;stroke-miterlimit:4;stroke-dasharray:none;stroke-opacity:1;"
     d="  M 50.559221,13.189248   L 50.559221,13.145137   L 50.537633,13.101026   L 50.494457,13.07897   L 48.961705,13.07897   L 48.918529,13.101026   L 48.896941,13.145137   L 48.896941,13.498026   L 48.918529,13.542137   L 48.961705,13.564193   L 50.494457,13.564193   L 50.537633,13.542137   L 50.559221,13.498026   L 50.559221,13.453915   L 50.559221,13.189248   z "
     id="path195" />
  <path
     style="fill:#d6d6b1;fill-rule:evenodd;fill-opacity:1;stroke:#000000;stroke-width:0.021588054px;stroke-linecap:round;stroke-linejoin:round;stroke-miterlimit:4;stroke-dasharray:none;stroke-opacity:1;"
     d="  M 49.285526,13.012803   L 49.069645,13.012803   L 49.069645,13.07897   L 49.285526,13.07897   L 49.285526,13.012803   z "
     id="path197" />
  <path
     style="fill:#d6d6b1;fill-rule:evenodd;fill-opacity:1;stroke:#000000;stroke-width:0.021588054px;stroke-linecap:round;stroke-linejoin:round;stroke-miterlimit:4;stroke-dasharray:none;stroke-opacity:1;"
     d="  M 49.630934,13.012803   L 49.415054,13.012803   L 49.415054,13.07897   L 49.630934,13.07897   L 49.630934,13.012803   z "
     id="path199" />
  <path
     style="fill:#d6d6b1;fill-rule:evenodd;fill-opacity:1;stroke:#000000;stroke-width:0.021588054px;stroke-linecap:round;stroke-linejoin:round;stroke-miterlimit:4;stroke-dasharray:none;stroke-opacity:1;"
     d="  M 49.997931,13.012803   L 49.782051,13.012803   L 49.782051,13.07897   L 49.997931,13.07897   L 49.997931,13.012803   z "
     id="path201" />
  <path
     style="fill:#d6d6b1;fill-rule:evenodd;fill-opacity:1;stroke:#000000;stroke-width:0.021588054px;stroke-linecap:round;stroke-linejoin:round;stroke-miterlimit:4;stroke-dasharray:none;stroke-opacity:1;"
     d="  M 50.34334,13.012803   L 50.12746,13.012803   L 50.12746,13.07897   L 50.34334,13.07897   L 50.34334,13.012803   z "
     id="path203" />
  <path
     style="fill:#000000;fill-rule:evenodd;fill-opacity:1;stroke:#000000;stroke-width:0.018730942px;stroke-linecap:round;stroke-linejoin:round;stroke-miterlimit:4;stroke-dasharray:none;stroke-opacity:1;"
     d="  M 90.507909,3.5978195   L 90.507909,3.8007734   L 90.208214,3.8007734   L 90.208214,4.3727345   L 88.953241,4.3727345   L 88.953241,4.4280855   L 88.559891,4.4280855   L 88.559891,3.8007734   L 88.634815,3.8007734   L 88.634815,4.3727345   L 88.953241,4.3727345   L 88.953241,5.6458091   L 89.084357,5.6458091   L 89.084357,6.3100219   L 88.953241,6.3100219   L 88.953241,7.7491497   L 93.748362,7.7491497   L 93.748362,6.3100219   L 93.617245,6.3100219   L 93.617245,5.6458091   L 93.748362,5.6458091   L 93.748362,4.3727345   L 94.066788,4.3727345   L 94.066788,3.8007734   L 94.141711,3.8007734   L 94.141711,4.4280855   L 93.748362,4.4280855   L 93.748362,4.3727345   L 92.493389,4.3727345   L 92.493389,3.8007734   L 92.193693,3.8007734   L 92.193693,3.5978195   L 90.507909,3.5978195   z "
     id="path205" />
  <path
     style="fill:#000000;fill-rule:evenodd;fill-opacity:1;stroke:#494949;stroke-width:0.018730942px;stroke-linecap:round;stroke-linejoin:round;stroke-miterlimit:4;stroke-dasharray:none;stroke-opacity:1;"
     d="  M 90.208214,3.8192238   L 88.634815,3.8192238   L 88.634815,4.3911848   L 90.208214,4.3911848   L 90.208214,3.8192238   z "
     id="path207" />
  <path
     style="fill:#000000;fill-rule:evenodd;fill-opacity:1;stroke:#494949;stroke-width:0.018730942px;stroke-linecap:round;stroke-linejoin:round;stroke-miterlimit:4;stroke-dasharray:none;stroke-opacity:1;"
     d="  M 94.066788,3.8192238   L 92.493389,3.8192238   L 92.493389,4.3911848   L 94.066788,4.3911848   L 94.066788,3.8192238   z "
     id="path209" />
  <path
     style="fill:#000000;fill-rule:evenodd;fill-opacity:1;stroke:#000000;stroke-width:0.018730942px;stroke-linecap:round;stroke-linejoin:round;stroke-miterlimit:4;stroke-dasharray:none;stroke-opacity:1;"
     d="  M 90.507909,14.704934   L 90.507909,14.50198   L 90.208214,14.50198   L 90.208214,13.930019   L 88.953241,13.930019   L 88.953241,13.874668   L 88.559891,13.874668   L 88.559891,14.50198   L 88.634815,14.50198   L 88.634815,13.930019   L 88.953241,13.930019   L 88.953241,12.656945   L 89.084357,12.656945   L 89.084357,11.992732   L 88.953241,11.992732   L 88.953241,10.553604   L 93.748362,10.553604   L 93.748362,11.992732   L 93.617245,11.992732   L 93.617245,12.656945   L 93.748362,12.656945   L 93.748362,13.930019   L 94.066788,13.930019   L 94.066788,14.50198   L 94.141711,14.50198   L 94.141711,13.874668   L 93.748362,13.874668   L 93.748362,13.930019   L 92.493389,13.930019   L 92.493389,14.50198   L 92.193693,14.50198   L 92.193693,14.704934   L 90.507909,14.704934   z "
     id="path211" />
  <path
     style="fill:#000000;fill-rule:evenodd;fill-opacity:1;stroke:#494949;stroke-width:0.018730942px;stroke-linecap:round;stroke-linejoin:round;stroke-miterlimit:4;stroke-dasharray:none;stroke-opacity:1;"
     d="  M 90.208214,13.930019   L 88.634815,13.930019   L 88.634815,14.50198   L 90.208214,14.50198   L 90.208214,13.930019   z "
     id="path213" />
  <path
     style="fill:#000000;fill-rule:evenodd;fill-opacity:1;stroke:#494949;stroke-width:0.018730942px;stroke-linecap:round;stroke-linejoin:round;stroke-miterlimit:4;stroke-dasharray:none;stroke-opacity:1;"
     d="  M 94.066788,13.930019   L 92.493389,13.930019   L 92.493389,14.50198   L 94.066788,14.50198   L 94.066788,13.930019   z "
     id="path215" />
  <path
     style="fill:#000000;fill-rule:evenodd;fill-opacity:1;stroke:#000000;stroke-width:0.018730942px;stroke-linecap:round;stroke-linejoin:round;stroke-miterlimit:4;stroke-dasharray:none;stroke-opacity:1;"
     d="  M 102.19602,3.5240181   L 102.19602,3.726972   L 101.89632,3.726972   L 101.89632,4.298933   L 100.64135,4.298933   L 100.64135,4.3542841   L 100.248,4.3542841   L 100.248,3.726972   L 100.32292,3.726972   L 100.32292,4.298933   L 100.64135,4.298933   L 100.64135,5.5720076   L 100.77246,5.5720076   L 100.77246,6.2362205   L 100.64135,6.2362205   L 100.64135,7.6753483   L 105.43647,7.6753483   L 105.43647,6.2362205   L 105.30535,6.2362205   L 105.30535,5.5720076   L 105.43647,5.5720076   L 105.43647,4.298933   L 105.7549,4.298933   L 105.7549,3.726972   L 105.82982,3.726972   L 105.82982,4.3542841   L 105.43647,4.3542841   L 105.43647,4.298933   L 104.1815,4.298933   L 104.1815,3.726972   L 103.8818,3.726972   L 103.8818,3.5240181   L 102.19602,3.5240181   z "
     id="path217" />
  <path
     style="fill:#000000;fill-rule:evenodd;fill-opacity:1;stroke:#494949;stroke-width:0.018730942px;stroke-linecap:round;stroke-linejoin:round;stroke-miterlimit:4;stroke-dasharray:none;stroke-opacity:1;"
     d="  M 101.89632,3.7454224   L 100.32292,3.7454224   L 100.32292,4.3173834   L 101.89632,4.3173834   L 101.89632,3.7454224   z "
     id="path219" />
  <path
     style="fill:#000000;fill-rule:evenodd;fill-opacity:1;stroke:#494949;stroke-width:0.018730942px;stroke-linecap:round;stroke-linejoin:round;stroke-miterlimit:4;stroke-dasharray:none;stroke-opacity:1;"
     d="  M 105.7549,3.7454224   L 104.1815,3.7454224   L 104.1815,4.3173834   L 105.7549,4.3173834   L 105.7549,3.7454224   z "
     id="path221" />
  <path
     style="fill:#000000;fill-rule:evenodd;fill-opacity:1;stroke:#000000;stroke-width:0.018730942px;stroke-linecap:round;stroke-linejoin:round;stroke-miterlimit:4;stroke-dasharray:none;stroke-opacity:1;"
     d="  M 102.19602,14.704934   L 102.19602,14.50198   L 101.89632,14.50198   L 101.89632,13.930019   L 100.64135,13.930019   L 100.64135,13.874668   L 100.248,13.874668   L 100.248,14.50198   L 100.32292,14.50198   L 100.32292,13.930019   L 100.64135,13.930019   L 100.64135,12.656945   L 100.77246,12.656945   L 100.77246,11.992732   L 100.64135,11.992732   L 100.64135,10.553604   L 105.43647,10.553604   L 105.43647,11.992732   L 105.30535,11.992732   L 105.30535,12.656945   L 105.43647,12.656945   L 105.43647,13.930019   L 105.7549,13.930019   L 105.7549,14.50198   L 105.82982,14.50198   L 105.82982,13.874668   L 105.43647,13.874668   L 105.43647,13.930019   L 104.1815,13.930019   L 104.1815,14.50198   L 103.8818,14.50198   L 103.8818,14.704934   L 102.19602,14.704934   z "
     id="path223" />
  <path
     style="fill:#000000;fill-rule:evenodd;fill-opacity:1;stroke:#494949;stroke-width:0.018730942px;stroke-linecap:round;stroke-linejoin:round;stroke-miterlimit:4;stroke-dasharray:none;stroke-opacity:1;"
     d="  M 101.89632,13.930019   L 100.32292,13.930019   L 100.32292,14.50198   L 101.89632,14.50198   L 101.89632,13.930019   z "
     id="path225" />
  <path
     style="fill:#000000;fill-rule:evenodd;fill-opacity:1;stroke:#494949;stroke-width:0.018730942px;stroke-linecap:round;stroke-linejoin:round;stroke-miterlimit:4;stroke-dasharray:none;stroke-opacity:1;"
     d="  M 105.7549,13.930019   L 104.1815,13.930019   L 104.1815,14.50198   L 105.7549,14.50198   L 105.7549,13.930019   z "
     id="path227" />
  <path
     style="fill:#000000;fill-rule:evenodd;fill-opacity:1;stroke:#000000;stroke-width:0.018730942px;stroke-linecap:round;stroke-linejoin:round;stroke-miterlimit:4;stroke-dasharray:none;stroke-opacity:1;"
     d="  M 134.9377,3.5240181   L 134.9377,3.726972   L 134.63801,3.726972   L 134.63801,4.298933   L 133.38303,4.298933   L 133.38303,4.3542841   L 132.98968,4.3542841   L 132.98968,3.726972   L 133.06461,3.726972   L 133.06461,4.298933   L 133.38303,4.298933   L 133.38303,5.5720076   L 133.51415,5.5720076   L 133.51415,6.2362205   L 133.38303,6.2362205   L 133.38303,7.6753483   L 138.17815,7.6753483   L 138.17815,6.2362205   L 138.04704,6.2362205   L 138.04704,5.5720076   L 138.17815,5.5720076   L 138.17815,4.298933   L 138.49658,4.298933   L 138.49658,3.726972   L 138.5715,3.726972   L 138.5715,4.3542841   L 138.17815,4.3542841   L 138.17815,4.298933   L 136.92318,4.298933   L 136.92318,3.726972   L 136.62349,3.726972   L 136.62349,3.5240181   L 134.9377,3.5240181   z "
     id="path229" />
  <path
     style="fill:#000000;fill-rule:evenodd;fill-opacity:1;stroke:#494949;stroke-width:0.018730942px;stroke-linecap:round;stroke-linejoin:round;stroke-miterlimit:4;stroke-dasharray:none;stroke-opacity:1;"
     d="  M 134.63801,3.7454224   L 133.06461,3.7454224   L 133.06461,4.3173834   L 134.63801,4.3173834   L 134.63801,3.7454224   z "
     id="path231" />
  <path
     style="fill:#000000;fill-rule:evenodd;fill-opacity:1;stroke:#494949;stroke-width:0.018730942px;stroke-linecap:round;stroke-linejoin:round;stroke-miterlimit:4;stroke-dasharray:none;stroke-opacity:1;"
     d="  M 138.49658,3.7454224   L 136.92318,3.7454224   L 136.92318,4.3173834   L 138.49658,4.3173834   L 138.49658,3.7454224   z "
     id="path233" />
  <path
     style="fill:#000000;fill-rule:evenodd;fill-opacity:1;stroke:#000000;stroke-width:0.018730942px;stroke-linecap:round;stroke-linejoin:round;stroke-miterlimit:4;stroke-dasharray:none;stroke-opacity:1;"
     d="  M 134.9377,14.704934   L 134.9377,14.50198   L 134.63801,14.50198   L 134.63801,13.930019   L 133.38303,13.930019   L 133.38303,13.874668   L 132.98968,13.874668   L 132.98968,14.50198   L 133.06461,14.50198   L 133.06461,13.930019   L 133.38303,13.930019   L 133.38303,12.656945   L 133.51415,12.656945   L 133.51415,11.992732   L 133.38303,11.992732   L 133.38303,10.553604   L 138.17815,10.553604   L 138.17815,11.992732   L 138.04704,11.992732   L 138.04704,12.656945   L 138.17815,12.656945   L 138.17815,13.930019   L 138.49658,13.930019   L 138.49658,14.50198   L 138.5715,14.50198   L 138.5715,13.874668   L 138.17815,13.874668   L 138.17815,13.930019   L 136.92318,13.930019   L 136.92318,14.50198   L 136.62349,14.50198   L 136.62349,14.704934   L 134.9377,14.704934   z "
     id="path235" />
  <path
     style="fill:#000000;fill-rule:evenodd;fill-opacity:1;stroke:#494949;stroke-width:0.018730942px;stroke-linecap:round;stroke-linejoin:round;stroke-miterlimit:4;stroke-dasharray:none;stroke-opacity:1;"
     d="  M 134.63801,13.930019   L 133.06461,13.930019   L 133.06461,14.50198   L 134.63801,14.50198   L 134.63801,13.930019   z "
     id="path237" />
  <path
     style="fill:#000000;fill-rule:evenodd;fill-opacity:1;stroke:#494949;stroke-width:0.018730942px;stroke-linecap:round;stroke-linejoin:round;stroke-miterlimit:4;stroke-dasharray:none;stroke-opacity:1;"
     d="  M 138.49658,13.930019   L 136.92318,13.930019   L 136.92318,14.50198   L 138.49658,14.50198   L 138.49658,13.930019   z "
     id="path239" />
  <path
     style="fill:#000000;fill-rule:evenodd;fill-opacity:1;stroke:#000000;stroke-width:0.018730942px;stroke-linecap:round;stroke-linejoin:round;stroke-miterlimit:4;stroke-dasharray:none;stroke-opacity:1;"
     d="  M 126.77101,3.5240181   L 126.77101,3.726972   L 126.47132,3.726972   L 126.47132,4.298933   L 125.21634,4.298933   L 125.21634,4.3542841   L 124.82299,4.3542841   L 124.82299,3.726972   L 124.89792,3.726972   L 124.89792,4.298933   L 125.21634,4.298933   L 125.21634,5.5720076   L 125.34746,5.5720076   L 125.34746,6.2362205   L 125.21634,6.2362205   L 125.21634,7.6753483   L 130.01146,7.6753483   L 130.01146,6.2362205   L 129.88035,6.2362205   L 129.88035,5.5720076   L 130.01146,5.5720076   L 130.01146,4.298933   L 130.32989,4.298933   L 130.32989,3.726972   L 130.40481,3.726972   L 130.40481,4.3542841   L 130.01146,4.3542841   L 130.01146,4.298933   L 128.75649,4.298933   L 128.75649,3.726972   L 128.4568,3.726972   L 128.4568,3.5240181   L 126.77101,3.5240181   z "
     id="path241" />
  <path
     style="fill:#000000;fill-rule:evenodd;fill-opacity:1;stroke:#494949;stroke-width:0.018730942px;stroke-linecap:round;stroke-linejoin:round;stroke-miterlimit:4;stroke-dasharray:none;stroke-opacity:1;"
     d="  M 126.47132,3.7454224   L 124.89792,3.7454224   L 124.89792,4.3173834   L 126.47132,4.3173834   L 126.47132,3.7454224   z "
     id="path243" />
  <path
     style="fill:#000000;fill-rule:evenodd;fill-opacity:1;stroke:#494949;stroke-width:0.018730942px;stroke-linecap:round;stroke-linejoin:round;stroke-miterlimit:4;stroke-dasharray:none;stroke-opacity:1;"
     d="  M 130.32989,3.7454224   L 128.75649,3.7454224   L 128.75649,4.3173834   L 130.32989,4.3173834   L 130.32989,3.7454224   z "
     id="path245" />
  <path
     style="fill:#000000;fill-rule:evenodd;fill-opacity:1;stroke:#000000;stroke-width:0.018730942px;stroke-linecap:round;stroke-linejoin:round;stroke-miterlimit:4;stroke-dasharray:none;stroke-opacity:1;"
     d="  M 126.77101,14.704934   L 126.77101,14.50198   L 126.47132,14.50198   L 126.47132,13.930019   L 125.21634,13.930019   L 125.21634,13.874668   L 124.82299,13.874668   L 124.82299,14.50198   L 124.89792,14.50198   L 124.89792,13.930019   L 125.21634,13.930019   L 125.21634,12.656945   L 125.34746,12.656945   L 125.34746,11.992732   L 125.21634,11.992732   L 125.21634,10.553604   L 130.01146,10.553604   L 130.01146,11.992732   L 129.88035,11.992732   L 129.88035,12.656945   L 130.01146,12.656945   L 130.01146,13.930019   L 130.32989,13.930019   L 130.32989,14.50198   L 130.40481,14.50198   L 130.40481,13.874668   L 130.01146,13.874668   L 130.01146,13.930019   L 128.75649,13.930019   L 128.75649,14.50198   L 128.4568,14.50198   L 128.4568,14.704934   L 126.77101,14.704934   z "
     id="path247" />
  <path
     style="fill:#000000;fill-rule:evenodd;fill-opacity:1;stroke:#494949;stroke-width:0.018730942px;stroke-linecap:round;stroke-linejoin:round;stroke-miterlimit:4;stroke-dasharray:none;stroke-opacity:1;"
     d="  M 126.47132,13.930019   L 124.89792,13.930019   L 124.89792,14.50198   L 126.47132,14.50198   L 126.47132,13.930019   z "
     id="path249" />
  <path
     style="fill:#000000;fill-rule:evenodd;fill-opacity:1;stroke:#494949;stroke-width:0.018730942px;stroke-linecap:round;stroke-linejoin:round;stroke-miterlimit:4;stroke-dasharray:none;stroke-opacity:1;"
     d="  M 130.32989,13.930019   L 128.75649,13.930019   L 128.75649,14.50198   L 130.32989,14.50198   L 130.32989,13.930019   z "
     id="path251" />
  <path
     style="fill:#000000;fill-rule:evenodd;fill-opacity:1;stroke:#000000;stroke-width:0.018730942px;stroke-linecap:round;stroke-linejoin:round;stroke-miterlimit:4;stroke-dasharray:none;stroke-opacity:1;"
     d="  M 118.60432,3.5240181   L 118.60432,3.726972   L 118.30463,3.726972   L 118.30463,4.298933   L 117.04965,4.298933   L 117.04965,4.3542841   L 116.6563,4.3542841   L 116.6563,3.726972   L 116.73123,3.726972   L 116.73123,4.298933   L 117.04965,4.298933   L 117.04965,5.5720076   L 117.18077,5.5720076   L 117.18077,6.2362205   L 117.04965,6.2362205   L 117.04965,7.6753483   L 121.84477,7.6753483   L 121.84477,6.2362205   L 121.71366,6.2362205   L 121.71366,5.5720076   L 121.84477,5.5720076   L 121.84477,4.298933   L 122.1632,4.298933   L 122.1632,3.726972   L 122.23812,3.726972   L 122.23812,4.3542841   L 121.84477,4.3542841   L 121.84477,4.298933   L 120.5898,4.298933   L 120.5898,3.726972   L 120.29011,3.726972   L 120.29011,3.5240181   L 118.60432,3.5240181   z "
     id="path253" />
  <path
     style="fill:#000000;fill-rule:evenodd;fill-opacity:1;stroke:#494949;stroke-width:0.018730942px;stroke-linecap:round;stroke-linejoin:round;stroke-miterlimit:4;stroke-dasharray:none;stroke-opacity:1;"
     d="  M 118.30463,3.7454224   L 116.73123,3.7454224   L 116.73123,4.3173834   L 118.30463,4.3173834   L 118.30463,3.7454224   z "
     id="path255" />
  <path
     style="fill:#000000;fill-rule:evenodd;fill-opacity:1;stroke:#494949;stroke-width:0.018730942px;stroke-linecap:round;stroke-linejoin:round;stroke-miterlimit:4;stroke-dasharray:none;stroke-opacity:1;"
     d="  M 122.1632,3.7454224   L 120.5898,3.7454224   L 120.5898,4.3173834   L 122.1632,4.3173834   L 122.1632,3.7454224   z "
     id="path257" />
  <path
     style="fill:#000000;fill-rule:evenodd;fill-opacity:1;stroke:#000000;stroke-width:0.018730942px;stroke-linecap:round;stroke-linejoin:round;stroke-miterlimit:4;stroke-dasharray:none;stroke-opacity:1;"
     d="  M 118.60432,14.704934   L 118.60432,14.50198   L 118.30463,14.50198   L 118.30463,13.930019   L 117.04965,13.930019   L 117.04965,13.874668   L 116.6563,13.874668   L 116.6563,14.50198   L 116.73123,14.50198   L 116.73123,13.930019   L 117.04965,13.930019   L 117.04965,12.656945   L 117.18077,12.656945   L 117.18077,11.992732   L 117.04965,11.992732   L 117.04965,10.553604   L 121.84477,10.553604   L 121.84477,11.992732   L 121.71366,11.992732   L 121.71366,12.656945   L 121.84477,12.656945   L 121.84477,13.930019   L 122.1632,13.930019   L 122.1632,14.50198   L 122.23812,14.50198   L 122.23812,13.874668   L 121.84477,13.874668   L 121.84477,13.930019   L 120.5898,13.930019   L 120.5898,14.50198   L 120.29011,14.50198   L 120.29011,14.704934   L 118.60432,14.704934   z "
     id="path259" />
  <path
     style="fill:#000000;fill-rule:evenodd;fill-opacity:1;stroke:#494949;stroke-width:0.018730942px;stroke-linecap:round;stroke-linejoin:round;stroke-miterlimit:4;stroke-dasharray:none;stroke-opacity:1;"
     d="  M 118.30463,13.930019   L 116.73123,13.930019   L 116.73123,14.50198   L 118.30463,14.50198   L 118.30463,13.930019   z "
     id="path261" />
  <path
     style="fill:#000000;fill-rule:evenodd;fill-opacity:1;stroke:#494949;stroke-width:0.018730942px;stroke-linecap:round;stroke-linejoin:round;stroke-miterlimit:4;stroke-dasharray:none;stroke-opacity:1;"
     d="  M 122.1632,13.930019   L 120.5898,13.930019   L 120.5898,14.50198   L 122.1632,14.50198   L 122.1632,13.930019   z "
     id="path263" />
  <path
     style="fill:#000000;fill-rule:evenodd;fill-opacity:1;stroke:#000000;stroke-width:0.018730942px;stroke-linecap:round;stroke-linejoin:round;stroke-miterlimit:4;stroke-dasharray:none;stroke-opacity:1;"
     d="  M 110.36271,3.5240181   L 110.36271,3.726972   L 110.06301,3.726972   L 110.06301,4.298933   L 108.80804,4.298933   L 108.80804,4.3542841   L 108.41469,4.3542841   L 108.41469,3.726972   L 108.48961,3.726972   L 108.48961,4.298933   L 108.80804,4.298933   L 108.80804,5.5720076   L 108.93916,5.5720076   L 108.93916,6.2362205   L 108.80804,6.2362205   L 108.80804,7.6753483   L 113.60316,7.6753483   L 113.60316,6.2362205   L 113.47204,6.2362205   L 113.47204,5.5720076   L 113.60316,5.5720076   L 113.60316,4.298933   L 113.92159,4.298933   L 113.92159,3.726972   L 113.99651,3.726972   L 113.99651,4.3542841   L 113.60316,4.3542841   L 113.60316,4.298933   L 112.34819,4.298933   L 112.34819,3.726972   L 112.04849,3.726972   L 112.04849,3.5240181   L 110.36271,3.5240181   z "
     id="path265" />
  <path
     style="fill:#000000;fill-rule:evenodd;fill-opacity:1;stroke:#494949;stroke-width:0.018730942px;stroke-linecap:round;stroke-linejoin:round;stroke-miterlimit:4;stroke-dasharray:none;stroke-opacity:1;"
     d="  M 110.06301,3.7454224   L 108.48961,3.7454224   L 108.48961,4.3173834   L 110.06301,4.3173834   L 110.06301,3.7454224   z "
     id="path267" />
  <path
     style="fill:#000000;fill-rule:evenodd;fill-opacity:1;stroke:#494949;stroke-width:0.018730942px;stroke-linecap:round;stroke-linejoin:round;stroke-miterlimit:4;stroke-dasharray:none;stroke-opacity:1;"
     d="  M 113.92159,3.7454224   L 112.34819,3.7454224   L 112.34819,4.3173834   L 113.92159,4.3173834   L 113.92159,3.7454224   z "
     id="path269" />
  <path
     style="fill:#000000;fill-rule:evenodd;fill-opacity:1;stroke:#000000;stroke-width:0.018730942px;stroke-linecap:round;stroke-linejoin:round;stroke-miterlimit:4;stroke-dasharray:none;stroke-opacity:1;"
     d="  M 110.36271,14.704934   L 110.36271,14.50198   L 110.06301,14.50198   L 110.06301,13.930019   L 108.80804,13.930019   L 108.80804,13.874668   L 108.41469,13.874668   L 108.41469,14.50198   L 108.48961,14.50198   L 108.48961,13.930019   L 108.80804,13.930019   L 108.80804,12.656945   L 108.93916,12.656945   L 108.93916,11.992732   L 108.80804,11.992732   L 108.80804,10.553604   L 113.60316,10.553604   L 113.60316,11.992732   L 113.47204,11.992732   L 113.47204,12.656945   L 113.60316,12.656945   L 113.60316,13.930019   L 113.92159,13.930019   L 113.92159,14.50198   L 113.99651,14.50198   L 113.99651,13.874668   L 113.60316,13.874668   L 113.60316,13.930019   L 112.34819,13.930019   L 112.34819,14.50198   L 112.04849,14.50198   L 112.04849,14.704934   L 110.36271,14.704934   z "
     id="path271" />
  <path
     style="fill:#000000;fill-rule:evenodd;fill-opacity:1;stroke:#494949;stroke-width:0.018730942px;stroke-linecap:round;stroke-linejoin:round;stroke-miterlimit:4;stroke-dasharray:none;stroke-opacity:1;"
     d="  M 110.06301,13.930019   L 108.48961,13.930019   L 108.48961,14.50198   L 110.06301,14.50198   L 110.06301,13.930019   z "
     id="path273" />
  <path
     style="fill:#000000;fill-rule:evenodd;fill-opacity:1;stroke:#494949;stroke-width:0.018730942px;stroke-linecap:round;stroke-linejoin:round;stroke-miterlimit:4;stroke-dasharray:none;stroke-opacity:1;"
     d="  M 113.92159,13.930019   L 112.34819,13.930019   L 112.34819,14.50198   L 113.92159,14.50198   L 113.92159,13.930019   z "
     id="path275" />
  <path
     style="fill:#83ff00;fill-rule:evenodd;fill-opacity:1;stroke:#000000;stroke-width:0.018084278px;stroke-linecap:round;stroke-linejoin:round;stroke-miterlimit:4;stroke-dasharray:none;stroke-opacity:1;"
     d="  M 89.860777,3.8817633   L 88.848057,3.8817633   L 88.848057,4.2958181   L 89.860777,4.2958181   L 89.860777,3.8817633   z "
     id="path277" />
  <path
     style="fill:#ffff00;fill-rule:evenodd;fill-opacity:1;stroke:#000000;stroke-width:0.018084278px;stroke-linecap:round;stroke-linejoin:round;stroke-miterlimit:4;stroke-dasharray:none;stroke-opacity:1;"
     d="  M 93.766981,3.8817633   L 92.754261,3.8817633   L 92.754261,4.2958181   L 93.766981,4.2958181   L 93.766981,3.8817633   z "
     id="path279" />
  <path
     style="fill:#83ff00;fill-rule:evenodd;fill-opacity:1;stroke:#000000;stroke-width:0.018084278px;stroke-linecap:round;stroke-linejoin:round;stroke-miterlimit:4;stroke-dasharray:none;stroke-opacity:1;"
     d="  M 109.71731,3.8127542   L 108.70459,3.8127542   L 108.70459,4.2268089   L 109.71731,4.2268089   L 109.71731,3.8127542   z "
     id="path281" />
  <path
     style="fill:#ffff00;fill-rule:evenodd;fill-opacity:1;stroke:#000000;stroke-width:0.018084278px;stroke-linecap:round;stroke-linejoin:round;stroke-miterlimit:4;stroke-dasharray:none;stroke-opacity:1;"
     d="  M 113.62352,3.8127542   L 112.6108,3.8127542   L 112.6108,4.2268089   L 113.62352,4.2268089   L 113.62352,3.8127542   z "
     id="path283" />
  <path
     style="fill:#83ff00;fill-rule:evenodd;fill-opacity:1;stroke:#000000;stroke-width:0.018084278px;stroke-linecap:round;stroke-linejoin:round;stroke-miterlimit:4;stroke-dasharray:none;stroke-opacity:1;"
     d="  M 117.96374,3.8127542   L 116.95103,3.8127542   L 116.95103,4.2268089   L 117.96374,4.2268089   L 117.96374,3.8127542   z "
     id="path285" />
  <path
     style="fill:#ffff00;fill-rule:evenodd;fill-opacity:1;stroke:#000000;stroke-width:0.018084278px;stroke-linecap:round;stroke-linejoin:round;stroke-miterlimit:4;stroke-dasharray:none;stroke-opacity:1;"
     d="  M 121.85186,3.8127542   L 120.83915,3.8127542   L 120.83915,4.2268089   L 121.85186,4.2268089   L 121.85186,3.8127542   z "
     id="path287" />
  <path
     style="fill:#83ff00;fill-rule:evenodd;fill-opacity:1;stroke:#000000;stroke-width:0.018084278px;stroke-linecap:round;stroke-linejoin:round;stroke-miterlimit:4;stroke-dasharray:none;stroke-opacity:1;"
     d="  M 126.13784,3.8127542   L 125.12512,3.8127542   L 125.12512,4.2268089   L 126.13784,4.2268089   L 126.13784,3.8127542   z "
     id="path289" />
  <path
     style="fill:#ffff00;fill-rule:evenodd;fill-opacity:1;stroke:#000000;stroke-width:0.018084278px;stroke-linecap:round;stroke-linejoin:round;stroke-miterlimit:4;stroke-dasharray:none;stroke-opacity:1;"
     d="  M 130.02596,3.8127542   L 129.01324,3.8127542   L 129.01324,4.2268089   L 130.02596,4.2268089   L 130.02596,3.8127542   z "
     id="path291" />
  <path
     style="fill:#83ff00;fill-rule:evenodd;fill-opacity:1;stroke:#000000;stroke-width:0.018084278px;stroke-linecap:round;stroke-linejoin:round;stroke-miterlimit:4;stroke-dasharray:none;stroke-opacity:1;"
     d="  M 134.29385,3.8127542   L 133.28113,3.8127542   L 133.28113,4.2268089   L 134.29385,4.2268089   L 134.29385,3.8127542   z "
     id="path293" />
  <path
     style="fill:#ffff00;fill-rule:evenodd;fill-opacity:1;stroke:#000000;stroke-width:0.018084278px;stroke-linecap:round;stroke-linejoin:round;stroke-miterlimit:4;stroke-dasharray:none;stroke-opacity:1;"
     d="  M 138.20005,3.8127542   L 137.18733,3.8127542   L 137.18733,4.2268089   L 138.20005,4.2268089   L 138.20005,3.8127542   z "
     id="path295" />
  <path
     style="fill:#83ff00;fill-rule:evenodd;fill-opacity:1;stroke:#000000;stroke-width:0.018084278px;stroke-linecap:round;stroke-linejoin:round;stroke-miterlimit:4;stroke-dasharray:none;stroke-opacity:1;"
     d="  M 101.5613,3.8127542   L 100.54859,3.8127542   L 100.54859,4.2268089   L 101.5613,4.2268089   L 101.5613,3.8127542   z "
     id="path297" />
  <path
     style="fill:#ffff00;fill-rule:evenodd;fill-opacity:1;stroke:#000000;stroke-width:0.018084278px;stroke-linecap:round;stroke-linejoin:round;stroke-miterlimit:4;stroke-dasharray:none;stroke-opacity:1;"
     d="  M 105.44942,3.8127542   L 104.43671,3.8127542   L 104.43671,4.2268089   L 105.44942,4.2268089   L 105.44942,3.8127542   z "
     id="path299" />
  <path
     style="fill:#83ff00;fill-rule:evenodd;fill-opacity:1;stroke:#000000;stroke-width:0.018084278px;stroke-linecap:round;stroke-linejoin:round;stroke-miterlimit:4;stroke-dasharray:none;stroke-opacity:1;"
     d="  M 89.860777,13.974348   L 88.848057,13.974348   L 88.848057,14.388403   L 89.860777,14.388403   L 89.860777,13.974348   z "
     id="path301" />
  <path
     style="fill:#ffff00;fill-rule:evenodd;fill-opacity:1;stroke:#000000;stroke-width:0.018084278px;stroke-linecap:round;stroke-linejoin:round;stroke-miterlimit:4;stroke-dasharray:none;stroke-opacity:1;"
     d="  M 93.766981,13.974348   L 92.754261,13.974348   L 92.754261,14.388403   L 93.766981,14.388403   L 93.766981,13.974348   z "
     id="path303" />
  <path
     style="fill:#83ff00;fill-rule:evenodd;fill-opacity:1;stroke:#000000;stroke-width:0.018084278px;stroke-linecap:round;stroke-linejoin:round;stroke-miterlimit:4;stroke-dasharray:none;stroke-opacity:1;"
     d="  M 109.71731,13.974348   L 108.70459,13.974348   L 108.70459,14.388403   L 109.71731,14.388403   L 109.71731,13.974348   z "
     id="path305" />
  <path
     style="fill:#ffff00;fill-rule:evenodd;fill-opacity:1;stroke:#000000;stroke-width:0.018084278px;stroke-linecap:round;stroke-linejoin:round;stroke-miterlimit:4;stroke-dasharray:none;stroke-opacity:1;"
     d="  M 113.62352,13.974348   L 112.6108,13.974348   L 112.6108,14.388403   L 113.62352,14.388403   L 113.62352,13.974348   z "
     id="path307" />
  <path
     style="fill:#83ff00;fill-rule:evenodd;fill-opacity:1;stroke:#000000;stroke-width:0.018084278px;stroke-linecap:round;stroke-linejoin:round;stroke-miterlimit:4;stroke-dasharray:none;stroke-opacity:1;"
     d="  M 117.96374,13.974348   L 116.95103,13.974348   L 116.95103,14.388403   L 117.96374,14.388403   L 117.96374,13.974348   z "
     id="path309" />
  <path
     style="fill:#ffff00;fill-rule:evenodd;fill-opacity:1;stroke:#000000;stroke-width:0.018084278px;stroke-linecap:round;stroke-linejoin:round;stroke-miterlimit:4;stroke-dasharray:none;stroke-opacity:1;"
     d="  M 121.85186,13.974348   L 120.83915,13.974348   L 120.83915,14.388403   L 121.85186,14.388403   L 121.85186,13.974348   z "
     id="path311" />
  <path
     style="fill:#83ff00;fill-rule:evenodd;fill-opacity:1;stroke:#000000;stroke-width:0.018084278px;stroke-linecap:round;stroke-linejoin:round;stroke-miterlimit:4;stroke-dasharray:none;stroke-opacity:1;"
     d="  M 126.13784,13.974348   L 125.12512,13.974348   L 125.12512,14.388403   L 126.13784,14.388403   L 126.13784,13.974348   z "
     id="path313" />
  <path
     style="fill:#ffff00;fill-rule:evenodd;fill-opacity:1;stroke:#000000;stroke-width:0.018084278px;stroke-linecap:round;stroke-linejoin:round;stroke-miterlimit:4;stroke-dasharray:none;stroke-opacity:1;"
     d="  M 130.02596,13.974348   L 129.01324,13.974348   L 129.01324,14.388403   L 130.02596,14.388403   L 130.02596,13.974348   z "
     id="path315" />
  <path
     style="fill:#83ff00;fill-rule:evenodd;fill-opacity:1;stroke:#000000;stroke-width:0.018084278px;stroke-linecap:round;stroke-linejoin:round;stroke-miterlimit:4;stroke-dasharray:none;stroke-opacity:1;"
     d="  M 134.29385,13.974348   L 133.28113,13.974348   L 133.28113,14.388403   L 134.29385,14.388403   L 134.29385,13.974348   z "
     id="path317" />
  <path
     style="fill:#ffff00;fill-rule:evenodd;fill-opacity:1;stroke:#000000;stroke-width:0.018084278px;stroke-linecap:round;stroke-linejoin:round;stroke-miterlimit:4;stroke-dasharray:none;stroke-opacity:1;"
     d="  M 138.20005,13.974348   L 137.18733,13.974348   L 137.18733,14.388403   L 138.20005,14.388403   L 138.20005,13.974348   z "
     id="path319" />
  <path
     style="fill:#83ff00;fill-rule:evenodd;fill-opacity:1;stroke:#000000;stroke-width:0.018084278px;stroke-linecap:round;stroke-linejoin:round;stroke-miterlimit:4;stroke-dasharray:none;stroke-opacity:1;"
     d="  M 101.5613,13.974348   L 100.54859,13.974348   L 100.54859,14.388403   L 101.5613,14.388403   L 101.5613,13.974348   z "
     id="path321" />
  <path
     style="fill:#ffff00;fill-rule:evenodd;fill-opacity:1;stroke:#000000;stroke-width:0.018084278px;stroke-linecap:round;stroke-linejoin:round;stroke-miterlimit:4;stroke-dasharray:none;stroke-opacity:1;"
     d="  M 105.44942,13.974348   L 104.43671,13.974348   L 104.43671,14.388403   L 105.44942,14.388403   L 105.44942,13.974348   z "
     id="path323" />
</svg>
