<?xml version="1.0" encoding="UTF-8" standalone="no"?>
<svg
   version="1.0"
   width="17.17mm"
   height="2.9100001mm"
   id="svg229"
   xmlns="http://www.w3.org/2000/svg"
   xmlns:svg="http://www.w3.org/2000/svg">
  <defs
     id="defs3">
    <pattern
       id="EMFhbasepattern"
       patternUnits="userSpaceOnUse"
       width="6"
       height="6"
       x="0"
       y="0" />
  </defs>
  <path
     style="fill:#efefef;fill-rule:evenodd;fill-opacity:1;stroke:#000000;stroke-width:0.093746692px;stroke-linecap:round;stroke-linejoin:round;stroke-miterlimit:4;stroke-dasharray:none;stroke-opacity:1;"
     d="  M 0.1499947,0.12986625   M 64.722715,0.12986625   M 51.991914,9.2019516   M 51.991914,9.2019516   M 50.548215,9.2019516   M 53.023128,9.4245794   M 64.835211,0.40815108   L 64.835211,0.33394179   L 64.797712,0.2597325   L 64.778963,0.20407554   L 64.722715,0.14841857   L 64.666467,0.092761608   L 64.610219,0.074209287   L 64.535222,0.037104643   L 64.460224,0.037104643   L 0.41248544,0.037104643   L 0.33748808,0.037104643   L 0.26249073,0.074209287   L 0.20624272,0.092761608   L 0.1499947,0.14841857   L 0.09374669,0.20407554   L 0.074997352,0.2597325   L 0.037498676,0.33394179   L 0.037498676,0.40815108   L 0.037498676,10.426405   L 0.037498676,10.500614   L 0.074997352,10.574823   L 0.09374669,10.63048   L 0.1499947,10.686137   L 0.20624272,10.741794   L 0.26249073,10.760347   L 0.33748808,10.797451   L 0.41248544,10.797451   L 64.460224,10.797451   L 64.535222,10.797451   L 64.610219,10.760347   L 64.666467,10.741794   L 64.722715,10.686137   L 64.778963,10.63048   L 64.797712,10.574823   L 64.835211,10.500614   L 64.835211,10.426405   L 64.835211,0.40815108   z "
     id="path5" />
  <path
     style="fill:none;stroke:#7f7f7f;stroke-width:0.093746692px;stroke-linecap:round;stroke-linejoin:round;stroke-miterlimit:4;stroke-dasharray:none;stroke-opacity:1;"
     d="  M 63.260267,1.7439182   L 1.6311924,1.7439182   L 1.6311924,10.797451   L 63.260267,10.797451   L 63.260267,1.7439182  "
     id="path7" />
  <path
     style="fill:none;stroke:#7f7f7f;stroke-width:0.093746692px;stroke-linecap:round;stroke-linejoin:round;stroke-miterlimit:4;stroke-dasharray:none;stroke-opacity:1;"
     d="  M 0.1499947,0.12986625   L 1.6311924,1.7439182  "
     id="path9" />
  <path
     style="fill:none;stroke:#7f7f7f;stroke-width:0.093746692px;stroke-linecap:round;stroke-linejoin:round;stroke-miterlimit:4;stroke-dasharray:none;stroke-opacity:1;"
     d="  M 64.722715,0.12986625   L 63.241517,1.7439182  "
     id="path11" />
  <ellipse
     style="fill:#bfbfbf;fill-rule:evenodd;fill-opacity:1;stroke:#000000;stroke-width:0.018749338px;stroke-linecap:round;stroke-linejoin:round;stroke-miterlimit:4;stroke-dasharray:none;stroke-opacity:1;"
     cx="60.438491"
     cy="6.3727225"
     rx="1.2280816"
     ry="1.2280816"
     id="ellipse13" />
  <ellipse
     style="fill:none;stroke:#161616;stroke-width:0.018749338px;stroke-linecap:round;stroke-linejoin:round;stroke-miterlimit:4;stroke-dasharray:none;stroke-opacity:1;"
     cx="60.438491"
     cy="6.3727225"
     rx="1.2280816"
     ry="1.2280816"
     id="ellipse15" />
  <ellipse
     style="fill:#dddddd;fill-rule:evenodd;fill-opacity:1;stroke:#000000;stroke-width:0.018749338px;stroke-linecap:round;stroke-linejoin:round;stroke-miterlimit:4;stroke-dasharray:none;stroke-opacity:1;"
     cx="60.447866"
     cy="6.3727225"
     rx="0.99371492"
     ry="0.98434025"
     id="ellipse17" />
  <ellipse
     style="fill:none;stroke:#000000;stroke-width:0.018749338px;stroke-linecap:round;stroke-linejoin:round;stroke-miterlimit:4;stroke-dasharray:none;stroke-opacity:1;"
     cx="60.447866"
     cy="6.3727225"
     rx="0.99371492"
     ry="0.98434025"
     id="ellipse19" />
  <path
     style="fill:#7f7f7f;fill-rule:evenodd;fill-opacity:1;stroke:#000000;stroke-width:0.018749338px;stroke-linecap:round;stroke-linejoin:round;stroke-miterlimit:4;stroke-dasharray:none;stroke-opacity:1;"
     d="  M 60.691607,7.1983008   L 60.672858,7.1983008   L 60.654109,7.1983008   L 60.635359,7.1983008   L 60.61661,7.1983008   L 60.597861,7.1983008   L 60.579111,7.1983008   L 60.560362,7.1983008   L 60.541613,7.1983008   L 60.522863,7.1983008   L 60.504114,7.1983008   L 60.485365,7.1983008   L 60.466615,7.1983008   L 60.447866,7.1983008   L 60.429117,7.1983008   L 60.410367,7.1983008   L 60.391618,7.1983008   L 60.391618,7.1797485   L 60.391618,7.1611962   L 60.391618,7.1426439   L 60.391618,7.1240915   L 60.391618,7.1055392   L 60.391618,7.0869869   L 60.391618,7.0684346   L 60.391618,7.0498822   L 60.391618,7.0313299   L 60.391618,7.0127776   L 60.391618,6.9942253   L 60.391618,6.975673   L 60.391618,6.9571206   L 60.391618,6.9385683   L 60.391618,6.920016   L 60.391618,6.9014637   L 60.391618,6.8829113   L 60.391618,6.864359   L 60.391618,6.8458067   L 60.391618,6.8272544   L 60.391618,6.8087021   L 60.372869,6.7901497   L 60.372869,6.7715974   L 60.372869,6.7530451   L 60.354119,6.7344928   L 60.354119,6.7159405   L 60.33537,6.7159405   L 60.33537,6.6973881   L 60.316621,6.6973881   L 60.316621,6.6788358   L 60.297871,6.6788358   L 60.279122,6.6602835   L 60.260373,6.6602835   L 60.241623,6.6602835   L 60.222874,6.6417312   L 60.204124,6.6417312   L 60.185375,6.6417312   L 60.166626,6.6417312   L 60.147876,6.6417312   L 60.129127,6.6417312   L 60.110378,6.6417312   L 60.091628,6.6417312   L 60.072879,6.6417312   L 60.05413,6.6417312   L 60.03538,6.6417312   L 60.016631,6.6417312   L 59.997882,6.6417312   L 59.979132,6.6417312   L 59.960383,6.6417312   L 59.941634,6.6417312   L 59.922884,6.6417312   L 59.904135,6.6417312   L 59.885386,6.6417312   L 59.866636,6.6417312   L 59.847887,6.6417312   L 59.829138,6.6417312   L 59.810388,6.6417312   L 59.810388,6.6231788   L 59.810388,6.6046265   L 59.810388,6.5860742   L 59.810388,6.5675219   L 59.810388,6.5489696   L 59.810388,6.5304172   L 59.810388,6.5118649   L 59.810388,6.4933126   L 59.810388,6.4747603   L 59.810388,6.4562079   L 59.810388,6.4376556   L 59.810388,6.4191033   L 59.810388,6.400551   L 59.810388,6.3819987   L 59.810388,6.3634463   L 59.810388,6.344894   L 59.810388,6.3263417   L 59.810388,6.3077894   L 59.829138,6.3077894   L 59.847887,6.3077894   L 59.866636,6.3077894   L 59.885386,6.3077894   L 59.904135,6.3077894   L 59.922884,6.3077894   L 59.941634,6.3077894   L 59.960383,6.3077894   L 59.979132,6.3077894   L 59.997882,6.3077894   L 60.016631,6.3077894   L 60.03538,6.3077894   L 60.05413,6.3077894   L 60.072879,6.3077894   L 60.091628,6.3077894   L 60.110378,6.3077894   L 60.129127,6.3077894   L 60.147876,6.3077894   L 60.166626,6.3077894   L 60.185375,6.3077894   L 60.204124,6.3077894   L 60.222874,6.3077894   L 60.222874,6.2892371   L 60.241623,6.2892371   L 60.260373,6.2892371   L 60.279122,6.2706847   L 60.297871,6.2521324   L 60.316621,6.2521324   L 60.316621,6.2335801   L 60.33537,6.2335801   L 60.33537,6.2150278   L 60.354119,6.1964754   L 60.354119,6.1779231   L 60.372869,6.1779231   L 60.372869,6.1593708   L 60.372869,6.1408185   L 60.372869,6.1222662   L 60.391618,6.1222662   L 60.391618,6.1037138   L 60.391618,6.0851615   L 60.391618,6.0666092   L 60.391618,6.0480569   L 60.391618,6.0295045   L 60.391618,6.0109522   L 60.391618,5.9923999   L 60.391618,5.9738476   L 60.391618,5.9552953   L 60.391618,5.9367429   L 60.391618,5.9181906   L 60.391618,5.8996383   L 60.391618,5.881086   L 60.391618,5.8625337   L 60.391618,5.8439813   L 60.391618,5.825429   L 60.391618,5.8068767   L 60.391618,5.7883244   L 60.391618,5.769772   L 60.391618,5.7512197   L 60.410367,5.7512197   L 60.429117,5.7512197   L 60.447866,5.7512197   L 60.466615,5.7512197   L 60.485365,5.7512197   L 60.504114,5.7512197   L 60.522863,5.7512197   L 60.541613,5.7512197   L 60.560362,5.7512197   L 60.579111,5.7512197   L 60.597861,5.7512197   L 60.61661,5.7512197   L 60.635359,5.7512197   L 60.654109,5.7512197   L 60.672858,5.7512197   L 60.691607,5.7512197   L 60.691607,5.769772   L 60.691607,5.7883244   L 60.691607,5.8068767   L 60.691607,5.825429   L 60.691607,5.8439813   L 60.691607,5.8625337   L 60.691607,5.881086   L 60.691607,5.8996383   L 60.691607,5.9181906   L 60.691607,5.9367429   L 60.691607,5.9552953   L 60.691607,5.9738476   L 60.691607,5.9923999   L 60.691607,6.0109522   L 60.691607,6.0295045   L 60.691607,6.0480569   L 60.691607,6.0666092   L 60.691607,6.0851615   L 60.691607,6.1037138   L 60.691607,6.1222662   L 60.710357,6.1222662   L 60.710357,6.1408185   L 60.710357,6.1593708   L 60.710357,6.1779231   L 60.729106,6.1779231   L 60.729106,6.1964754   L 60.747855,6.2150278   L 60.766605,6.2335801   L 60.766605,6.2521324   L 60.785354,6.2521324   L 60.804103,6.2706847   L 60.822853,6.2892371   L 60.841602,6.2892371   L 60.860351,6.2892371   L 60.860351,6.3077894   L 60.879101,6.3077894   L 60.89785,6.3077894   L 60.916599,6.3077894   L 60.935349,6.3077894   L 60.954098,6.3077894   L 60.972847,6.3077894   L 60.991597,6.3077894   L 61.010346,6.3077894   L 61.029095,6.3077894   L 61.047845,6.3077894   L 61.066594,6.3077894   L 61.085343,6.3077894   L 61.104093,6.3077894   L 61.122842,6.3077894   L 61.141591,6.3077894   L 61.160341,6.3077894   L 61.17909,6.3077894   L 61.197839,6.3077894   L 61.216589,6.3077894   L 61.235338,6.3077894   L 61.254087,6.3077894   L 61.272837,6.3077894   L 61.272837,6.3263417   L 61.272837,6.344894   L 61.272837,6.3634463   L 61.272837,6.3819987   L 61.272837,6.400551   L 61.272837,6.4191033   L 61.272837,6.4376556   L 61.272837,6.4562079   L 61.272837,6.4747603   L 61.272837,6.4933126   L 61.272837,6.5118649   L 61.272837,6.5304172   L 61.272837,6.5489696   L 61.272837,6.5675219   L 61.272837,6.5860742   L 61.272837,6.6046265   L 61.272837,6.6231788   L 61.272837,6.6417312   L 61.254087,6.6417312   L 61.235338,6.6417312   L 61.216589,6.6417312   L 61.197839,6.6417312   L 61.17909,6.6417312   L 61.160341,6.6417312   L 61.141591,6.6417312   L 61.122842,6.6417312   L 61.104093,6.6417312   L 61.085343,6.6417312   L 61.066594,6.6417312   L 61.047845,6.6417312   L 61.029095,6.6417312   L 61.010346,6.6417312   L 60.991597,6.6417312   L 60.972847,6.6417312   L 60.954098,6.6417312   L 60.935349,6.6417312   L 60.916599,6.6417312   L 60.89785,6.6417312   L 60.879101,6.6417312   L 60.860351,6.6417312   L 60.841602,6.6602835   L 60.822853,6.6602835   L 60.804103,6.6602835   L 60.785354,6.6788358   L 60.766605,6.6788358   L 60.766605,6.6973881   L 60.747855,6.7159405   L 60.729106,6.7159405   L 60.729106,6.7344928   L 60.710357,6.7530451   L 60.710357,6.7715974   L 60.710357,6.7901497   L 60.691607,6.8087021   L 60.691607,6.8272544   L 60.691607,6.8458067   L 60.691607,6.864359   L 60.691607,6.8829113   L 60.691607,6.9014637   L 60.691607,6.920016   L 60.691607,6.9385683   L 60.691607,6.9571206   L 60.691607,6.975673   L 60.691607,6.9942253   L 60.691607,7.0127776   L 60.691607,7.0313299   L 60.691607,7.0498822   L 60.691607,7.0684346   L 60.691607,7.0869869   L 60.691607,7.1055392   L 60.691607,7.1240915   L 60.691607,7.1426439   L 60.691607,7.1611962   L 60.691607,7.1797485   L 60.691607,7.1983008   z "
     id="path21" />
  <path
     style="fill:none;stroke:#000000;stroke-width:0.056248013px;stroke-linecap:round;stroke-linejoin:round;stroke-miterlimit:4;stroke-dasharray:none;stroke-opacity:1;"
     d="  M 61.160341,8.8123528   L 59.885386,8.8123528  "
     id="path23" />
  <path
     style="fill:none;stroke:#000000;stroke-width:0.056248013px;stroke-linecap:round;stroke-linejoin:round;stroke-miterlimit:4;stroke-dasharray:none;stroke-opacity:1;"
     d="  M 60.522863,8.8123528   L 60.522863,8.2186785  "
     id="path25" />
  <path
     style="fill:none;stroke:#000000;stroke-width:0.056248013px;stroke-linecap:round;stroke-linejoin:round;stroke-miterlimit:4;stroke-dasharray:none;stroke-opacity:1;"
     d="  M 60.672858,9.3874748   L 60.372869,9.3874748  "
     id="path27" />
  <path
     style="fill:none;stroke:#000000;stroke-width:0.056248013px;stroke-linecap:round;stroke-linejoin:round;stroke-miterlimit:4;stroke-dasharray:none;stroke-opacity:1;"
     d="  M 60.110378,9.0906376   L 60.935349,9.0906376  "
     id="path29" />
  <ellipse
     style="fill:none;stroke:#000000;stroke-width:0.056248013px;stroke-linecap:round;stroke-linejoin:round;stroke-miterlimit:4;stroke-dasharray:none;stroke-opacity:1;"
     cx="60.438491"
     cy="8.710315"
     rx="0.77809753"
     ry="0.77809753"
     id="ellipse31" />
  <ellipse
     style="fill:none;stroke:#000000;stroke-width:0.056248013px;stroke-linecap:round;stroke-linejoin:round;stroke-miterlimit:4;stroke-dasharray:none;stroke-opacity:1;"
     cx="60.438491"
     cy="8.710315"
     rx="0.77809753"
     ry="0.77809753"
     id="ellipse33" />
  <path
     style="fill:#0a0a0a;fill-rule:evenodd;fill-opacity:1;stroke:#000000;stroke-width:0.018749338px;stroke-linecap:round;stroke-linejoin:round;stroke-miterlimit:4;stroke-dasharray:none;stroke-opacity:1;"
     d="  M 53.548109,4.3783479   L 50.248226,4.3783479   L 50.248226,8.478411   L 53.548109,8.478411   L 53.548109,4.3783479   z "
     id="path35" />
  <path
     style="fill:#494949;fill-rule:evenodd;fill-opacity:1;stroke:#000000;stroke-width:0.018749338px;stroke-linecap:round;stroke-linejoin:round;stroke-miterlimit:4;stroke-dasharray:none;stroke-opacity:1;"
     d="  M 53.510611,4.4154526   L 50.285725,4.4154526   L 50.285725,8.4413064   L 53.510611,8.4413064   L 53.510611,4.4154526   z "
     id="path37" />
  <ellipse
     style="fill:#000000;fill-rule:evenodd;fill-opacity:1;stroke:#000000;stroke-width:0.018749338px;stroke-linecap:round;stroke-linejoin:round;stroke-miterlimit:4;stroke-dasharray:none;stroke-opacity:1;"
     cx="56.510505"
     cy="6.3727225"
     rx="0.5437308"
     ry="0.53435613"
     id="ellipse39" />
  <ellipse
     style="fill:none;stroke:#000000;stroke-width:0.018749338px;stroke-linecap:round;stroke-linejoin:round;stroke-miterlimit:4;stroke-dasharray:none;stroke-opacity:1;"
     cx="56.510505"
     cy="6.3727225"
     rx="0.5437308"
     ry="0.53435613"
     id="ellipse41" />
  <ellipse
     style="fill:#494949;fill-rule:evenodd;fill-opacity:1;stroke:#000000;stroke-width:0.018749338px;stroke-linecap:round;stroke-linejoin:round;stroke-miterlimit:4;stroke-dasharray:none;stroke-opacity:1;"
     cx="56.510505"
     cy="6.3727225"
     rx="0.43123478"
     ry="0.42186011"
     id="ellipse43" />
  <ellipse
     style="fill:none;stroke:#000000;stroke-width:0.018749338px;stroke-linecap:round;stroke-linejoin:round;stroke-miterlimit:4;stroke-dasharray:none;stroke-opacity:1;"
     cx="56.510505"
     cy="6.3727225"
     rx="0.43123478"
     ry="0.42186011"
     id="ellipse45" />
  <path
     style="fill:none;stroke:#000000;stroke-width:0.093746692px;stroke-linecap:round;stroke-linejoin:round;stroke-miterlimit:4;stroke-dasharray:none;stroke-opacity:1;"
     d="  M 64.835211,0.40815108   L 64.835211,0.33394179   L 64.797712,0.2597325   L 64.778963,0.20407554   L 64.722715,0.14841857   L 64.666467,0.092761608   L 64.610219,0.074209287   L 64.535222,0.037104643   L 64.460224,0.037104643   L 0.41248544,0.037104643   L 0.33748808,0.037104643   L 0.26249073,0.074209287   L 0.20624272,0.092761608   L 0.1499947,0.14841857   L 0.09374669,0.20407554   L 0.074997352,0.2597325   L 0.037498676,0.33394179   L 0.037498676,0.40815108   L 0.037498676,10.426405   L 0.037498676,10.500614   L 0.074997352,10.574823   L 0.09374669,10.63048   L 0.1499947,10.686137   L 0.20624272,10.741794   L 0.26249073,10.760347   L 0.33748808,10.797451   L 0.41248544,10.797451   L 64.460224,10.797451   L 64.535222,10.797451   L 64.610219,10.760347   L 64.666467,10.741794   L 64.722715,10.686137   L 64.778963,10.63048   L 64.797712,10.574823   L 64.835211,10.500614   L 64.835211,10.426405   L 64.835211,0.40815108   z "
     id="path47" />
  <path
     style="fill:#000000;fill-rule:evenodd;fill-opacity:1;stroke:#000000;stroke-width:0.018749338px;stroke-linecap:round;stroke-linejoin:round;stroke-miterlimit:4;stroke-dasharray:none;stroke-opacity:1;"
     d="  M 48.185799,3.691912   L 30.392677,3.691912   L 30.392677,8.478411   L 48.185799,8.478411   L 48.185799,3.691912   z "
     id="path49" />
  <path
     style="fill:#bfbfbf;fill-rule:evenodd;fill-opacity:1;stroke:#000000;stroke-width:0.018749338px;stroke-linecap:round;stroke-linejoin:round;stroke-miterlimit:4;stroke-dasharray:none;stroke-opacity:1;"
     d="  M 36.298718,3.7846736   L 30.523922,3.7846736   L 30.523922,8.3856494   L 36.298718,8.3856494   L 36.298718,3.7846736   z "
     id="path51" />
  <path
     style="fill:#bfbfbf;fill-rule:evenodd;fill-opacity:1;stroke:#000000;stroke-width:0.018749338px;stroke-linecap:round;stroke-linejoin:round;stroke-miterlimit:4;stroke-dasharray:none;stroke-opacity:1;"
     d="  M 42.167261,3.7846736   L 36.392465,3.7846736   L 36.392465,8.3856494   L 42.167261,8.3856494   L 42.167261,3.7846736   z "
     id="path53" />
  <path
     style="fill:#bfbfbf;fill-rule:evenodd;fill-opacity:1;stroke:#000000;stroke-width:0.018749338px;stroke-linecap:round;stroke-linejoin:round;stroke-miterlimit:4;stroke-dasharray:none;stroke-opacity:1;"
     d="  M 48.035804,3.7846736   L 42.261008,3.7846736   L 42.261008,8.3856494   L 48.035804,8.3856494   L 48.035804,3.7846736   z "
     id="path55" />
  <path
     style="fill:none;stroke:#000000;stroke-width:0.093746692px;stroke-linecap:round;stroke-linejoin:round;stroke-miterlimit:4;stroke-dasharray:none;stroke-opacity:1;"
     d="  M 39.486106,3.2095517   L 39.392359,3.2095517   L 39.279863,3.2095517   L 39.186117,3.2095517   L 39.073621,3.2095517   L 38.961124,3.2095517   L 38.867378,3.2095517   L 38.754882,3.2095517   L 38.661135,3.2095517   L 38.567388,3.2095517   L 38.454892,3.2095517   L 38.361146,3.2095517   L 38.267399,3.2095517   L 38.173652,3.2095517   L 38.079906,3.2095517   L 37.986159,3.2095517   L 37.911162,3.2095517   L 37.817415,3.2095517   L 37.742418,3.2095517   L 37.66742,3.2095517   L 37.592423,3.2095517   L 37.536175,3.2095517   L 37.461177,3.2095517   L 37.404929,3.2095517   L 37.348681,3.2095517   L 37.311183,3.2095517   L 37.273684,3.2095517   L 37.236185,3.2095517   L 37.198687,3.2095517   L 37.179937,3.2095517   L 37.161188,3.2095517   L 37.142439,3.2095517   L 37.123689,3.2095517   L 37.10494,3.2095517   L 37.086191,3.2095517   L 37.067441,3.2095517   L 37.029943,3.2095517   L 37.011193,3.2095517   L 36.992444,3.228104   L 36.973695,3.228104   L 36.954945,3.228104   L 36.936196,3.228104   L 36.917447,3.2466563   L 36.898697,3.2466563   L 36.879948,3.2466563   L 36.861199,3.2652086   L 36.842449,3.2652086   L 36.8237,3.2837609   L 36.804951,3.2837609   L 36.786201,3.3023133   L 36.767452,3.3023133   L 36.748703,3.3208656   L 36.748703,3.3394179   L 36.729953,3.3579702   L 36.711204,3.3579702   L 36.692455,3.3765225   L 36.692455,3.3950749   L 36.673705,3.4136272   L 36.654956,3.4321795   L 36.654956,3.4507318   L 36.636207,3.4692842   L 36.636207,3.4878365   L 36.617457,3.5249411   L 36.617457,3.5434934  "
     id="path57" />
  <path
     style="fill:none;stroke:#000000;stroke-width:0.093746692px;stroke-linecap:round;stroke-linejoin:round;stroke-miterlimit:4;stroke-dasharray:none;stroke-opacity:1;"
     d="  M 44.679673,3.2095517   L 44.773419,3.2095517   L 44.885915,3.2095517   L 44.979662,3.2095517   L 45.092158,3.2095517   L 45.204654,3.2095517   L 45.298401,3.2095517   L 45.410897,3.2095517   L 45.504643,3.2095517   L 45.59839,3.2095517   L 45.710886,3.2095517   L 45.804633,3.2095517   L 45.89838,3.2095517   L 45.992126,3.2095517   L 46.085873,3.2095517   L 46.17962,3.2095517   L 46.254617,3.2095517   L 46.348364,3.2095517   L 46.423361,3.2095517   L 46.498358,3.2095517   L 46.573356,3.2095517   L 46.629604,3.2095517   L 46.704601,3.2095517   L 46.760849,3.2095517   L 46.817097,3.2095517   L 46.854596,3.2095517   L 46.892094,3.2095517   L 46.929593,3.2095517   L 46.967092,3.2095517   L 46.985841,3.2095517   L 47.004591,3.2095517   L 47.02334,3.2095517   L 47.042089,3.2095517   L 47.060839,3.2095517   L 47.079588,3.2095517   L 47.098337,3.2095517   L 47.135836,3.2095517   L 47.154585,3.2095517   L 47.173335,3.228104   L 47.192084,3.228104   L 47.210833,3.228104   L 47.229583,3.228104   L 47.248332,3.2466563   L 47.267081,3.2466563   L 47.285831,3.2466563   L 47.30458,3.2652086   L 47.323329,3.2652086   L 47.342079,3.2837609   L 47.360828,3.2837609   L 47.379577,3.3023133   L 47.398327,3.3023133   L 47.417076,3.3208656   L 47.417076,3.3394179   L 47.435825,3.3579702   L 47.454575,3.3579702   L 47.473324,3.3765225   L 47.473324,3.3950749   L 47.492073,3.4136272   L 47.510823,3.4321795   L 47.510823,3.4507318   L 47.529572,3.4692842   L 47.529572,3.4878365   L 47.548321,3.5249411   L 47.548321,3.5434934  "
     id="path59" />
  <path
     style="fill:#0a0a0a;fill-rule:evenodd;fill-opacity:1;stroke:#000000;stroke-width:0.018749338px;stroke-linecap:round;stroke-linejoin:round;stroke-miterlimit:4;stroke-dasharray:none;stroke-opacity:1;"
     d="  M 6.8060097,3.2652086   L 4.0686064,3.2652086   L 4.0686064,8.478411   L 6.8060097,8.478411   L 6.8060097,3.2652086   z "
     id="path61" />
  <path
     style="fill:none;stroke:#161616;stroke-width:0.056248013px;stroke-linecap:round;stroke-linejoin:round;stroke-miterlimit:4;stroke-dasharray:none;stroke-opacity:1;"
     d="  M 51.991914,9.2019516   L 53.266869,9.2019516  "
     id="path63" />
  <path
     style="fill:none;stroke:#161616;stroke-width:0.056248013px;stroke-linecap:round;stroke-linejoin:round;stroke-miterlimit:4;stroke-dasharray:none;stroke-opacity:1;"
     d="  M 51.991914,9.2019516   L 53.266869,9.2019516  "
     id="path65" />
  <path
     style="fill:none;stroke:#161616;stroke-width:0.056248013px;stroke-linecap:round;stroke-linejoin:round;stroke-miterlimit:4;stroke-dasharray:none;stroke-opacity:1;"
     d="  M 50.548215,9.2019516   L 51.504432,9.2019516  "
     id="path67" />
  <ellipse
     style="fill:#000000;fill-rule:evenodd;fill-opacity:1;stroke:#000000;stroke-width:0.056248013px;stroke-linecap:round;stroke-linejoin:round;stroke-miterlimit:4;stroke-dasharray:none;stroke-opacity:1;"
     cx="51.785672"
     cy="9.1184661"
     rx="0.13124537"
     ry="0.1218707"
     id="ellipse69" />
  <ellipse
     style="fill:none;stroke:#161616;stroke-width:0.056248013px;stroke-linecap:round;stroke-linejoin:round;stroke-miterlimit:4;stroke-dasharray:none;stroke-opacity:1;"
     cx="51.785672"
     cy="9.1184661"
     rx="0.13124537"
     ry="0.1218707"
     id="ellipse71" />
  <path
     style="fill:none;stroke:#161616;stroke-width:0.056248013px;stroke-linecap:round;stroke-linejoin:round;stroke-miterlimit:4;stroke-dasharray:none;stroke-opacity:1;"
     d="  M 52.216906,9.3874748   L 52.216906,9.4060271   L 52.198157,9.4060271   L 52.198157,9.4245794   L 52.179408,9.4431317   L 52.179408,9.4616841   L 52.160658,9.4616841   L 52.160658,9.4802364   L 52.141909,9.4987887   L 52.12316,9.517341   L 52.10441,9.517341   L 52.085661,9.5358933   L 52.066912,9.5358933   L 52.066912,9.5544457   L 52.048162,9.5544457   L 52.029413,9.5544457   L 52.029413,9.572998   L 52.010664,9.572998   L 51.991914,9.572998   L 51.973165,9.572998   L 51.954416,9.5915503   L 51.935666,9.5915503   L 51.916917,9.5915503   L 51.898168,9.5915503   L 51.879418,9.5915503   L 51.860669,9.5915503   L 51.84192,9.5915503   L 51.82317,9.5915503   L 51.804421,9.5915503   L 51.785672,9.572998   L 51.766922,9.572998   L 51.729424,9.572998   L 51.729424,9.5544457   L 51.710674,9.5544457   L 51.691925,9.5544457   L 51.673176,9.5358933   L 51.654426,9.5358933   L 51.635677,9.517341   L 51.616928,9.4987887   L 51.598178,9.4987887   L 51.598178,9.4802364   L 51.579429,9.4616841   L 51.56068,9.4616841   L 51.54193,9.4431317   L 51.54193,9.4245794   L 51.523181,9.4060271   L 51.523181,9.3874748   L 51.504432,9.3689225   L 51.504432,9.3503701   L 51.485682,9.3318178   L 51.485682,9.3132655   L 51.485682,9.2947132   L 51.466933,9.2761608   L 51.466933,9.2576085   L 51.466933,9.2390562   L 51.466933,9.2205039   L 51.466933,9.2019516   L 51.466933,9.1833992   L 51.466933,9.1648469   L 51.466933,9.1462946   L 51.466933,9.1277423   L 51.485682,9.10919   L 51.485682,9.0906376   L 51.485682,9.0720853   L 51.504432,9.053533   L 51.504432,9.0349807   L 51.523181,9.0164283   L 51.523181,8.997876   L 51.54193,8.9793237   L 51.54193,8.9607714   L 51.56068,8.9422191   L 51.579429,8.9422191   L 51.598178,8.9236667   L 51.598178,8.9051144   L 51.616928,8.9051144   L 51.635677,8.8865621   L 51.654426,8.8680098   L 51.673176,8.8680098   L 51.691925,8.8494574   L 51.710674,8.8494574   L 51.729424,8.8494574   L 51.729424,8.8309051   L 51.766922,8.8309051   L 51.785672,8.8309051   L 51.804421,8.8123528   L 51.82317,8.8123528   L 51.84192,8.8123528   L 51.860669,8.8123528   L 51.879418,8.8123528   L 51.898168,8.8123528   L 51.916917,8.8123528   L 51.935666,8.8123528   L 51.954416,8.8123528   L 51.973165,8.8123528   L 51.991914,8.8309051   L 52.010664,8.8309051   L 52.029413,8.8309051   L 52.048162,8.8494574   L 52.066912,8.8494574   L 52.085661,8.8494574   L 52.085661,8.8680098   L 52.10441,8.8680098   L 52.12316,8.8680098   L 52.12316,8.8865621   L 52.141909,8.8865621   L 52.141909,8.9051144   L 52.160658,8.9051144   L 52.160658,8.9236667   L 52.179408,8.9236667   L 52.179408,8.9422191   L 52.198157,8.9607714   L 52.198157,8.9793237   L 52.216906,8.9793237   L 52.216906,8.997876  "
     id="path73" />
  <ellipse
     style="fill:none;stroke:#161616;stroke-width:0.056248013px;stroke-linecap:round;stroke-linejoin:round;stroke-miterlimit:4;stroke-dasharray:none;stroke-opacity:1;"
     cx="52.948131"
     cy="9.1184661"
     rx="0.31873875"
     ry="0.30936408"
     id="ellipse75" />
  <path
     style="fill:none;stroke:#000000;stroke-width:0.056248013px;stroke-linecap:round;stroke-linejoin:round;stroke-miterlimit:4;stroke-dasharray:none;stroke-opacity:1;"
     d="  M 53.023128,9.4245794   L 53.023128,8.997876  "
     id="path77" />
  <ellipse
     style="fill:none;stroke:#161616;stroke-width:0.056248013px;stroke-linecap:round;stroke-linejoin:round;stroke-miterlimit:4;stroke-dasharray:none;stroke-opacity:1;"
     cx="50.613838"
     cy="9.1184661"
     rx="0.30936408"
     ry="0.30936408"
     id="ellipse79" />
  <path
     style="fill:#000000;fill-rule:evenodd;fill-opacity:1;stroke:#000000;stroke-width:0.018749338px;stroke-linecap:round;stroke-linejoin:round;stroke-miterlimit:4;stroke-dasharray:none;stroke-opacity:1;"
     d="  M 29.586455,3.691912   L 7.7434766,3.691912   L 7.7434766,8.478411   L 29.586455,8.478411   L 29.586455,3.691912   z "
     id="path81" />
  <path
     style="fill:#bfbfbf;fill-rule:evenodd;fill-opacity:1;stroke:#000000;stroke-width:0.018749338px;stroke-linecap:round;stroke-linejoin:round;stroke-miterlimit:4;stroke-dasharray:none;stroke-opacity:1;"
     d="  M 13.143286,3.7846736   L 7.874722,3.7846736   L 7.874722,8.3856494   L 13.143286,8.3856494   L 13.143286,3.7846736   z "
     id="path83" />
  <path
     style="fill:#bfbfbf;fill-rule:evenodd;fill-opacity:1;stroke:#000000;stroke-width:0.018749338px;stroke-linecap:round;stroke-linejoin:round;stroke-miterlimit:4;stroke-dasharray:none;stroke-opacity:1;"
     d="  M 18.561845,3.7846736   L 13.293281,3.7846736   L 13.293281,8.3856494   L 18.561845,8.3856494   L 18.561845,3.7846736   z "
     id="path85" />
  <path
     style="fill:#bfbfbf;fill-rule:evenodd;fill-opacity:1;stroke:#000000;stroke-width:0.018749338px;stroke-linecap:round;stroke-linejoin:round;stroke-miterlimit:4;stroke-dasharray:none;stroke-opacity:1;"
     d="  M 23.999153,3.7846736   L 18.730589,3.7846736   L 18.730589,8.3856494   L 23.999153,8.3856494   L 23.999153,3.7846736   z "
     id="path87" />
  <path
     style="fill:#bfbfbf;fill-rule:evenodd;fill-opacity:1;stroke:#000000;stroke-width:0.018749338px;stroke-linecap:round;stroke-linejoin:round;stroke-miterlimit:4;stroke-dasharray:none;stroke-opacity:1;"
     d="  M 29.45521,3.7846736   L 24.186646,3.7846736   L 24.186646,8.3856494   L 29.45521,8.3856494   L 29.45521,3.7846736   z "
     id="path89" />
  <path
     style="fill:none;stroke:#000000;stroke-width:0.093746692px;stroke-linecap:round;stroke-linejoin:round;stroke-miterlimit:4;stroke-dasharray:none;stroke-opacity:1;"
     d="  M 28.686487,3.5434934   L 28.686487,3.5249411   L 28.667738,3.4878365   L 28.667738,3.4692842   L 28.648989,3.4507318   L 28.648989,3.4321795   L 28.630239,3.4136272   L 28.61149,3.3950749   L 28.61149,3.3765225   L 28.592741,3.3579702   L 28.573991,3.3579702   L 28.555242,3.3394179   L 28.555242,3.3208656   L 28.536493,3.3023133   L 28.517743,3.3023133   L 28.498994,3.2837609   L 28.480245,3.2837609   L 28.461495,3.2652086   L 28.442746,3.2652086   L 28.423996,3.2466563   L 28.405247,3.2466563   L 28.386498,3.2466563   L 28.367748,3.228104   L 28.348999,3.228104   L 28.33025,3.228104   L 28.3115,3.228104   L 28.292751,3.2095517   L 28.274002,3.2095517   L 28.236503,3.2095517   L 28.217754,3.2095517   L 28.199004,3.2095517   L 28.180255,3.2095517   L 28.161506,3.2095517   L 28.142756,3.2095517   L 28.067759,3.2095517   L 27.955263,3.2095517   L 27.805268,3.2095517   L 27.636524,3.2095517   L 27.411532,3.2095517   L 27.167791,3.2095517   L 26.886551,3.2095517   L 26.605311,3.2095517   L 26.286572,3.2095517   L 25.949084,3.2095517   L 25.592846,3.2095517   L 25.236609,3.2095517   L 24.861622,3.2095517   L 24.486636,3.2095517   L 24.111649,3.2095517   L 23.717913,3.2095517   L 23.342926,3.2095517   L 22.967939,3.2095517   L 22.611702,3.2095517   L 22.255464,3.2095517   L 21.917976,3.2095517   L 21.599237,3.2095517   L 21.317997,3.2095517   L 21.036757,3.2095517   L 20.793016,3.2095517   L 20.568024,3.2095517   L 20.39928,3.2095517   L 20.249285,3.2095517   L 20.136789,3.2095517   L 20.061792,3.2095517   L 20.043042,3.2095517  "
     id="path91" />
  <path
     style="fill:none;stroke:#000000;stroke-width:0.093746692px;stroke-linecap:round;stroke-linejoin:round;stroke-miterlimit:4;stroke-dasharray:none;stroke-opacity:1;"
     d="  M 25.667844,3.2095517   L 25.78034,3.2095517   L 25.874087,3.2095517   L 25.986583,3.2095517   L 26.099079,3.2095517   L 26.211575,3.2095517   L 26.324071,3.2095517   L 26.417817,3.2095517   L 26.530313,3.2095517   L 26.642809,3.2095517   L 26.736556,3.2095517   L 26.849052,3.2095517   L 26.942799,3.2095517   L 27.055295,3.2095517   L 27.149042,3.2095517   L 27.242788,3.2095517   L 27.336535,3.2095517   L 27.430282,3.2095517   L 27.505279,3.2095517   L 27.599026,3.2095517   L 27.674023,3.2095517   L 27.74902,3.2095517   L 27.805268,3.2095517   L 27.880266,3.2095517   L 27.936514,3.2095517   L 27.974012,3.2095517   L 28.03026,3.2095517   L 28.067759,3.2095517   L 28.105258,3.2095517   L 28.124007,3.2095517   L 28.142756,3.2095517   L 28.161506,3.2095517   L 28.180255,3.2095517   L 28.199004,3.2095517   L 28.217754,3.2095517   L 28.236503,3.2095517   L 28.274002,3.2095517   L 28.292751,3.2095517   L 28.3115,3.228104   L 28.33025,3.228104   L 28.348999,3.228104   L 28.367748,3.228104   L 28.386498,3.2466563   L 28.405247,3.2466563   L 28.423996,3.2466563   L 28.442746,3.2652086   L 28.461495,3.2652086   L 28.480245,3.2837609   L 28.498994,3.2837609   L 28.517743,3.3023133   L 28.536493,3.3023133   L 28.555242,3.3208656   L 28.555242,3.3394179   L 28.573991,3.3579702   L 28.592741,3.3579702   L 28.61149,3.3765225   L 28.61149,3.3950749   L 28.630239,3.4136272   L 28.648989,3.4321795   L 28.648989,3.4507318   L 28.667738,3.4692842   L 28.667738,3.4878365   L 28.686487,3.5249411   L 28.686487,3.5434934  "
     id="path93" />
  <path
     style="fill:none;stroke:#000000;stroke-width:0.093746692px;stroke-linecap:round;stroke-linejoin:round;stroke-miterlimit:4;stroke-dasharray:none;stroke-opacity:1;"
     d="  M 8.6434448,3.5434934   L 8.6434448,3.5249411   L 8.6621942,3.4878365   L 8.6621942,3.4692842   L 8.6809435,3.4507318   L 8.6809435,3.4321795   L 8.6996929,3.4136272   L 8.7184422,3.3950749   L 8.7184422,3.3765225   L 8.7371915,3.3579702   L 8.7559409,3.3579702   L 8.7746902,3.3394179   L 8.7746902,3.3208656   L 8.7934395,3.3023133   L 8.8121889,3.3023133   L 8.8309382,3.2837609   L 8.8496876,3.2837609   L 8.8684369,3.2652086   L 8.8871862,3.2652086   L 8.9059356,3.2466563   L 8.9246849,3.2466563   L 8.9434343,3.2466563   L 8.9621836,3.228104   L 8.9809329,3.228104   L 8.9996823,3.228104   L 9.0184316,3.228104   L 9.0371809,3.2095517   L 9.0559303,3.2095517   L 9.093429,3.2095517   L 9.1121783,3.2095517   L 9.1309276,3.2095517   L 9.149677,3.2095517   L 9.1684263,3.2095517   L 9.1871756,3.2095517   L 9.262173,3.2095517   L 9.374669,3.2095517   L 9.5246637,3.2095517   L 9.6934078,3.2095517   L 9.9183998,3.2095517   L 10.162141,3.2095517   L 10.443381,3.2095517   L 10.724621,3.2095517   L 11.04336,3.2095517   L 11.380848,3.2095517   L 11.737086,3.2095517   L 12.093323,3.2095517   L 12.46831,3.2095517   L 12.843297,3.2095517   L 13.237033,3.2095517   L 13.612019,3.2095517   L 13.987006,3.2095517   L 14.361993,3.2095517   L 14.71823,3.2095517   L 15.074468,3.2095517   L 15.411956,3.2095517   L 15.730695,3.2095517   L 16.011935,3.2095517   L 16.293175,3.2095517   L 16.536916,3.2095517   L 16.761908,3.2095517   L 16.930652,3.2095517   L 17.080647,3.2095517   L 17.193143,3.2095517   L 17.26814,3.2095517   L 17.28689,3.2095517  "
     id="path95" />
  <path
     style="fill:none;stroke:#000000;stroke-width:0.093746692px;stroke-linecap:round;stroke-linejoin:round;stroke-miterlimit:4;stroke-dasharray:none;stroke-opacity:1;"
     d="  M 11.662088,3.2095517   L 11.549592,3.2095517   L 11.455846,3.2095517   L 11.34335,3.2095517   L 11.230853,3.2095517   L 11.118357,3.2095517   L 11.005861,3.2095517   L 10.912115,3.2095517   L 10.799619,3.2095517   L 10.687123,3.2095517   L 10.593376,3.2095517   L 10.48088,3.2095517   L 10.387133,3.2095517   L 10.274637,3.2095517   L 10.180891,3.2095517   L 10.087144,3.2095517   L 9.9933972,3.2095517   L 9.8996505,3.2095517   L 9.8246531,3.2095517   L 9.7309065,3.2095517   L 9.6559091,3.2095517   L 9.5809117,3.2095517   L 9.5246637,3.2095517   L 9.4496664,3.2095517   L 9.3934184,3.2095517   L 9.3559197,3.2095517   L 9.2996717,3.2095517   L 9.262173,3.2095517   L 9.2246743,3.2095517   L 9.205925,3.2095517   L 9.1871756,3.2095517   L 9.1684263,3.2095517   L 9.149677,3.2095517   L 9.1309276,3.2095517   L 9.1121783,3.2095517   L 9.093429,3.2095517   L 9.0559303,3.2095517   L 9.0371809,3.2095517   L 9.0184316,3.228104   L 8.9996823,3.228104   L 8.9809329,3.228104   L 8.9621836,3.228104   L 8.9434343,3.2466563   L 8.9246849,3.2466563   L 8.9059356,3.2466563   L 8.8871862,3.2652086   L 8.8684369,3.2652086   L 8.8496876,3.2837609   L 8.8309382,3.2837609   L 8.8121889,3.3023133   L 8.7934395,3.3023133   L 8.7746902,3.3208656   L 8.7746902,3.3394179   L 8.7559409,3.3579702   L 8.7371915,3.3579702   L 8.7184422,3.3765225   L 8.7184422,3.3950749   L 8.6996929,3.4136272   L 8.6809435,3.4321795   L 8.6809435,3.4507318   L 8.6621942,3.4692842   L 8.6621942,3.4878365   L 8.6434448,3.5249411   L 8.6434448,3.5434934  "
     id="path97" />
  <text
     xml:space="preserve"
     style="font-size:0.875000px;font-style:normal;font-variant:normal;font-weight:400;font-stretch:Normal;line-height:125.000000%;letter-spacing:0px;word-spacing:0px;fill:#000000;fill-opacity:1;stroke:none;font-family:Arial;text-align:start;text-anchor:start;"
     transform="matrix(1.000000,-0.000000,0.000000,1.000000,17.559525,2.606220)"
     x="0.000000"
     y="0.637875"
     id="text103"><tspan
       x="0.000000"
       y="0.637875"
       id="tspan101"><tspan
         dx="0.000000"
         dy="0.000000"
         style="fill:#000000;font-size:0.875000px;font-style:normal;font-variant:normal;font-weight:400;font-stretch:Normal;font-family:Arial;"
         id="tspan99">LINE</tspan></tspan></text>
  <text
     xml:space="preserve"
     style="font-size:0.875000px;font-style:normal;font-variant:normal;font-weight:400;font-stretch:Normal;line-height:125.000000%;letter-spacing:0px;word-spacing:0px;fill:#000000;fill-opacity:1;stroke:none;font-family:Arial;text-align:start;text-anchor:start;"
     transform="matrix(1.000000,-0.000000,0.000000,1.000000,17.559525,2.606220)"
     x="22.212048"
     y="0.637875"
     id="text109"><tspan
       x="22.212048"
       y="0.637875"
       id="tspan107"><tspan
         dx="0.000000"
         dy="0.000000"
         style="fill:#000000;font-size:0.875000px;font-style:normal;font-variant:normal;font-weight:400;font-stretch:Normal;font-family:Arial;"
         id="tspan105">NETWORK</tspan></tspan></text>
  <text
     xml:space="preserve"
     style="font-size:0.875000px;font-style:normal;font-variant:normal;font-weight:400;font-stretch:Normal;line-height:125.000000%;letter-spacing:0px;word-spacing:0px;fill:#000000;fill-opacity:1;stroke:none;font-family:Arial;text-align:start;text-anchor:start;"
     transform="matrix(1.000000,-0.000000,0.000000,1.000000,17.559525,2.606220)"
     x="-13.132123"
     y="6.594949"
     id="text115"><tspan
       x="-13.132123"
       y="6.594949"
       id="tspan113"><tspan
         dx="0.000000"
         dy="0.000000"
         style="fill:#000000;font-size:0.875000px;font-style:normal;font-variant:normal;font-weight:400;font-stretch:Normal;font-family:Arial;"
         id="tspan111">USB</tspan></tspan></text>
  <text
     xml:space="preserve"
     style="font-size:0.875000px;font-style:normal;font-variant:normal;font-weight:400;font-stretch:Normal;line-height:125.000000%;letter-spacing:0px;word-spacing:0px;fill:#000000;fill-opacity:1;stroke:none;font-family:Arial;text-align:start;text-anchor:start;"
     transform="matrix(1.000000,-0.000000,0.000000,1.000000,17.559525,2.606220)"
     x="-7.429030"
     y="6.594949"
     id="text121"><tspan
       x="-7.429030"
       y="6.594949"
       id="tspan119"><tspan
         dx="0.000000"
         dy="0.000000"
         style="fill:#000000;font-size:0.875000px;font-style:normal;font-variant:normal;font-weight:400;font-stretch:Normal;font-family:Arial;"
         id="tspan117">4</tspan></tspan></text>
  <text
     xml:space="preserve"
     style="font-size:0.875000px;font-style:normal;font-variant:normal;font-weight:400;font-stretch:Normal;line-height:125.000000%;letter-spacing:0px;word-spacing:0px;fill:#000000;fill-opacity:1;stroke:none;font-family:Arial;text-align:start;text-anchor:start;"
     transform="matrix(1.000000,-0.000000,0.000000,1.000000,17.559525,2.606220)"
     x="-1.951058"
     y="6.594949"
     id="text127"><tspan
       x="-1.951058"
       y="6.594949"
       id="tspan125"><tspan
         dx="0.000000"
         dy="0.000000"
         style="fill:#000000;font-size:0.875000px;font-style:normal;font-variant:normal;font-weight:400;font-stretch:Normal;font-family:Arial;"
         id="tspan123">3</tspan></tspan></text>
  <text
     xml:space="preserve"
     style="font-size:0.875000px;font-style:normal;font-variant:normal;font-weight:400;font-stretch:Normal;line-height:125.000000%;letter-spacing:0px;word-spacing:0px;fill:#000000;fill-opacity:1;stroke:none;font-family:Arial;text-align:start;text-anchor:start;"
     transform="matrix(1.000000,-0.000000,0.000000,1.000000,17.559525,2.606220)"
     x="3.526913"
     y="6.594949"
     id="text133"><tspan
       x="3.526913"
       y="6.594949"
       id="tspan131"><tspan
         dx="0.000000"
         dy="0.000000"
         style="fill:#000000;font-size:0.875000px;font-style:normal;font-variant:normal;font-weight:400;font-stretch:Normal;font-family:Arial;"
         id="tspan129">2</tspan></tspan></text>
  <text
     xml:space="preserve"
     style="font-size:0.875000px;font-style:normal;font-variant:normal;font-weight:400;font-stretch:Normal;line-height:125.000000%;letter-spacing:0px;word-spacing:0px;fill:#000000;fill-opacity:1;stroke:none;font-family:Arial;text-align:start;text-anchor:start;"
     transform="matrix(1.000000,-0.000000,0.000000,1.000000,17.559525,2.606220)"
     x="9.004884"
     y="6.594949"
     id="text139"><tspan
       x="9.004884"
       y="6.594949"
       id="tspan137"><tspan
         dx="0.000000"
         dy="0.000000"
         style="fill:#000000;font-size:0.875000px;font-style:normal;font-variant:normal;font-weight:400;font-stretch:Normal;font-family:Arial;"
         id="tspan135">1</tspan></tspan></text>
  <text
     xml:space="preserve"
     style="font-size:0.875000px;font-style:normal;font-variant:normal;font-weight:400;font-stretch:Normal;line-height:125.000000%;letter-spacing:0px;word-spacing:0px;fill:#000000;fill-opacity:1;stroke:none;font-family:Arial;text-align:start;text-anchor:start;"
     transform="matrix(1.000000,-0.000000,0.000000,1.000000,17.559525,2.606220)"
     x="13.957571"
     y="6.594949"
     id="text145"><tspan
       x="13.957571"
       y="6.594949"
       id="tspan143"><tspan
         dx="0.000000"
         dy="0.000000"
         style="fill:#000000;font-size:0.875000px;font-style:normal;font-variant:normal;font-weight:400;font-stretch:Normal;font-family:Arial;"
         id="tspan141">Console</tspan></tspan></text>
  <text
     xml:space="preserve"
     style="font-size:0.875000px;font-style:normal;font-variant:normal;font-weight:400;font-stretch:Normal;line-height:125.000000%;letter-spacing:0px;word-spacing:0px;fill:#000000;fill-opacity:1;stroke:none;font-family:Arial;text-align:start;text-anchor:start;"
     transform="matrix(1.000000,-0.000000,0.000000,1.000000,17.559525,2.606220)"
     x="21.311560"
     y="6.594949"
     id="text151"><tspan
       x="21.311560"
       y="6.594949"
       id="tspan149"><tspan
         dx="0.000000"
         dy="0.000000"
         style="fill:#000000;font-size:0.875000px;font-style:normal;font-variant:normal;font-weight:400;font-stretch:Normal;font-family:Arial;"
         id="tspan147">2</tspan></tspan></text>
  <text
     xml:space="preserve"
     style="font-size:0.875000px;font-style:normal;font-variant:normal;font-weight:400;font-stretch:Normal;line-height:125.000000%;letter-spacing:0px;word-spacing:0px;fill:#000000;fill-opacity:1;stroke:none;font-family:Arial;text-align:start;text-anchor:start;"
     transform="matrix(1.000000,-0.000000,0.000000,1.000000,17.559525,2.606220)"
     x="27.164735"
     y="6.594949"
     id="text157"><tspan
       x="27.164735"
       y="6.594949"
       id="tspan155"><tspan
         dx="0.000000"
         dy="0.000000"
         style="fill:#000000;font-size:0.875000px;font-style:normal;font-variant:normal;font-weight:400;font-stretch:Normal;font-family:Arial;"
         id="tspan153">1</tspan></tspan></text>
  <text
     xml:space="preserve"
     style="font-size:0.875000px;font-style:normal;font-variant:normal;font-weight:400;font-stretch:Normal;line-height:125.000000%;letter-spacing:0px;word-spacing:0px;fill:#000000;fill-opacity:1;stroke:none;font-family:Arial;text-align:start;text-anchor:start;"
     transform="matrix(1.000000,-0.000000,0.000000,1.000000,17.559525,2.606220)"
     x="19.810746"
     y="7.488510"
     id="text163"><tspan
       x="19.810746"
       y="7.488510"
       id="tspan161"><tspan
         dx="0.000000"
         dy="0.000000"
         style="fill:#000000;font-size:0.875000px;font-style:normal;font-variant:normal;font-weight:400;font-stretch:Normal;font-family:Arial;"
         id="tspan159">FortiLink</tspan></tspan></text>
  <text
     xml:space="preserve"
     style="font-size:0.875000px;font-style:normal;font-variant:normal;font-weight:400;font-stretch:Normal;line-height:125.000000%;letter-spacing:0px;word-spacing:0px;fill:#000000;fill-opacity:1;stroke:none;font-family:Arial;text-align:start;text-anchor:start;"
     transform="matrix(1.000000,-0.000000,0.000000,1.000000,17.559525,2.606220)"
     x="32.642706"
     y="1.233582"
     id="text169"><tspan
       x="32.642706"
       y="1.233582"
       id="tspan167"><tspan
         dx="0.000000"
         dy="0.000000"
         style="fill:#000000;font-size:0.875000px;font-style:normal;font-variant:normal;font-weight:400;font-stretch:Normal;font-family:Arial;"
         id="tspan165">12V DC</tspan></tspan></text>
  <text
     xml:space="preserve"
     style="font-size:0.875000px;font-style:normal;font-variant:normal;font-weight:400;font-stretch:Normal;line-height:125.000000%;letter-spacing:0px;word-spacing:0px;fill:#000000;fill-opacity:1;stroke:none;font-family:Arial;text-align:start;text-anchor:start;"
     transform="matrix(1.000000,-0.000000,0.000000,1.000000,17.559525,2.606220)"
     x="37.895555"
     y="5.999242"
     id="text175"><tspan
       x="37.895555"
       y="5.999242"
       id="tspan173"><tspan
         dx="0.000000"
         dy="0.000000"
         style="fill:#000000;font-size:0.875000px;font-style:normal;font-variant:normal;font-weight:400;font-stretch:Normal;font-family:Arial;"
         id="tspan171">Reset</tspan></tspan></text>
  <path
     style="fill:#bfbfbf;fill-rule:evenodd;fill-opacity:1;stroke:#333333;stroke-width:0.02475599px;stroke-linecap:round;stroke-linejoin:round;stroke-miterlimit:4;stroke-dasharray:none;stroke-opacity:1;"
     d="  M 4.4065664,3.4298738   L 4.3818104,3.4298738   L 4.3570544,3.4298738   L 4.3322984,3.4298738   L 4.3322984,3.4506609   L 4.3075424,3.4506609   L 4.3075424,3.471448   L 4.2827864,3.471448   L 4.2827864,3.4922351   L 4.2827864,3.5130222   L 4.2827864,3.5338093   L 4.2827864,3.5545965   L 4.2827864,3.5961707   L 4.2827864,3.658532   L 4.2827864,3.7416805   L 4.2827864,3.8456161   L 4.2827864,3.9703387   L 4.2827864,4.1158485   L 4.2827864,4.2821454   L 4.2827864,4.4484424   L 4.2827864,4.6355264   L 4.2827864,4.8226104   L 4.2827864,5.0304815   L 4.2827864,5.2383527   L 4.2827864,5.4670109   L 4.2827864,5.6748821   L 4.2827864,5.9035403   L 4.2827864,6.1321986   L 4.2827864,6.3400697   L 4.2827864,6.568728   L 4.2827864,6.7765991   L 4.2827864,6.9844702   L 4.2827864,7.1715543   L 4.2827864,7.3586383   L 4.2827864,7.5249352   L 4.2827864,7.6912321   L 4.2827864,7.8367419   L 4.2827864,7.9614646   L 4.2827864,8.0654001   L 4.2827864,8.1485486   L 4.2827864,8.2109099   L 4.2827864,8.2524842   L 4.2827864,8.2732713   L 4.2827864,8.2940584   L 4.2827864,8.3148455   L 4.2827864,8.3356326   L 4.3075424,8.3356326   L 4.3075424,8.3564197   L 4.3322984,8.3564197   L 4.3322984,8.3772069   L 4.3570544,8.3772069   L 4.3818104,8.3772069   L 4.4065664,8.3772069   L 4.4313224,8.3772069   L 4.4560784,8.3772069   L 4.5055904,8.3772069   L 4.5551023,8.3772069   L 4.6046143,8.3772069   L 4.6541263,8.3772069   L 4.7283943,8.3772069   L 4.8026622,8.3772069   L 4.9016862,8.3772069   L 4.9759542,8.3772069   L 5.0749782,8.3772069   L 5.1740021,8.3772069   L 5.2730261,8.3772069   L 5.37205,8.3772069   L 5.471074,8.3772069   L 5.545342,8.3772069   L 5.6443659,8.3772069   L 5.7433899,8.3772069   L 5.8424139,8.3772069   L 5.9414378,8.3772069   L 6.0157058,8.3772069   L 6.1147298,8.3772069   L 6.1889977,8.3772069   L 6.2632657,8.3772069   L 6.3127777,8.3772069   L 6.3622897,8.3772069   L 6.4118017,8.3772069   L 6.4613136,8.3772069   L 6.4860696,8.3772069   L 6.5108256,8.3772069   L 6.5355816,8.3772069   L 6.5603376,8.3772069   L 6.5603376,8.3564197   L 6.5850936,8.3564197   L 6.6098496,8.3564197   L 6.6098496,8.3356326   L 6.6098496,8.3148455   L 6.6346056,8.3148455   L 6.6346056,8.2940584   L 6.6346056,8.2732713   L 6.6346056,8.2524842   L 6.6346056,8.2109099   L 6.6346056,8.1485486   L 6.6346056,8.0654001   L 6.6346056,7.9614646   L 6.6346056,7.8367419   L 6.6346056,7.6912321   L 6.6346056,7.5249352   L 6.6346056,7.3586383   L 6.6346056,7.1715543   L 6.6346056,6.9844702   L 6.6346056,6.7765991   L 6.6346056,6.568728   L 6.6346056,6.3400697   L 6.6346056,6.1321986   L 6.6346056,5.9035403   L 6.6346056,5.6748821   L 6.6346056,5.4670109   L 6.6346056,5.2383527   L 6.6346056,5.0304815   L 6.6346056,4.8226104   L 6.6346056,4.6355264   L 6.6346056,4.4484424   L 6.6346056,4.2821454   L 6.6346056,4.1158485   L 6.6346056,3.9703387   L 6.6346056,3.8456161   L 6.6346056,3.7416805   L 6.6346056,3.658532   L 6.6346056,3.5961707   L 6.6346056,3.5545965   L 6.6346056,3.5338093   L 6.6346056,3.5130222   L 6.6346056,3.4922351   L 6.6098496,3.4922351   L 6.6098496,3.471448   L 6.6098496,3.4506609   L 6.5850936,3.4506609   L 6.5603376,3.4506609   L 6.5603376,3.4298738   L 6.5355816,3.4298738   L 6.5108256,3.4298738   L 6.4860696,3.4298738   L 6.4613136,3.4298738   L 6.4118017,3.4298738   L 6.3622897,3.4298738   L 6.3127777,3.4298738   L 6.2632657,3.4298738   L 6.1889977,3.4298738   L 6.1147298,3.4298738   L 6.0157058,3.4298738   L 5.9414378,3.4298738   L 5.8424139,3.4298738   L 5.7433899,3.4298738   L 5.6443659,3.4298738   L 5.545342,3.4298738   L 5.471074,3.4298738   L 5.37205,3.4298738   L 5.2730261,3.4298738   L 5.1740021,3.4298738   L 5.0749782,3.4298738   L 4.9759542,3.4298738   L 4.9016862,3.4298738   L 4.8026622,3.4298738   L 4.7283943,3.4298738   L 4.6541263,3.4298738   L 4.6046143,3.4298738   L 4.5551023,3.4298738   L 4.5055904,3.4298738   L 4.4560784,3.4298738   L 4.4313224,3.4298738   L 4.4065664,3.4298738   z "
     id="path177" />
  <path
     style="fill:#eaeaea;fill-rule:evenodd;fill-opacity:1;stroke:#333333;stroke-width:0.02475599px;stroke-linecap:round;stroke-linejoin:round;stroke-miterlimit:4;stroke-dasharray:none;stroke-opacity:1;"
     d="  M 6.4118017,3.4922351   L 6.4365577,3.4922351   L 6.4613136,3.4922351   L 6.4613136,3.5130222   L 6.4860696,3.5130222   L 6.5108256,3.5130222   L 6.5108256,3.5338093   L 6.5355816,3.5338093   L 6.5355816,3.5545965   L 6.5355816,3.5753836   L 6.5355816,3.5961707   L 6.5355816,3.6169578   L 6.5355816,3.6793191   L 6.5355816,3.7832547   L 6.5355816,3.8871903   L 6.5355816,3.9911258   L 6.5355816,4.1366356   L 6.5355816,4.3029326   L 6.5355816,4.4692295   L 6.5355816,4.6355264   L 6.5355816,4.8433975   L 6.5355816,5.0304815   L 6.5355816,5.2383527   L 6.5355816,5.4462238   L 6.5355816,5.6748821   L 6.5355816,5.8827532   L 6.5355816,6.0906243   L 6.5355816,6.3192826   L 6.5355816,6.5271537   L 6.5355816,6.7350249   L 6.5355816,6.9221089   L 6.5355816,7.12998   L 6.5355816,7.2962769   L 6.5355816,7.4625739   L 6.5355816,7.6288708   L 6.5355816,7.7743806   L 6.5355816,7.8783161   L 6.5355816,7.9822517   L 6.5355816,8.0861873   L 6.5355816,8.1485486   L 6.5355816,8.1693357   L 6.5355816,8.1901228   L 6.5355816,8.2109099   L 6.5355816,8.2316971   L 6.5108256,8.2316971   L 6.5108256,8.2524842   L 6.4860696,8.2524842   L 6.4613136,8.2524842   L 6.4613136,8.2732713   L 6.4365577,8.2732713   L 6.4118017,8.2732713   L 6.3870457,8.2732713   L 6.3622897,8.2732713   L 6.3375337,8.2732713   L 6.2880217,8.2732713   L 6.2385097,8.2732713   L 6.1642418,8.2732713   L 6.1147298,8.2732713   L 6.0404618,8.2732713   L 5.9661938,8.2732713   L 5.8919259,8.2732713   L 5.7929019,8.2732713   L 5.7186339,8.2732713   L 5.61961,8.2732713   L 5.545342,8.2732713   L 5.446318,8.2732713   L 5.3472941,8.2732713   L 5.2730261,8.2732713   L 5.1740021,8.2732713   L 5.0997341,8.2732713   L 5.0007102,8.2732713   L 4.9264422,8.2732713   L 4.8521742,8.2732713   L 4.7779063,8.2732713   L 4.7283943,8.2732713   L 4.6541263,8.2732713   L 4.6046143,8.2732713   L 4.5551023,8.2732713   L 4.5303463,8.2732713   L 4.5055904,8.2732713   L 4.4808344,8.2732713   L 4.4560784,8.2732713   L 4.4313224,8.2732713   L 4.4313224,8.2524842   L 4.4065664,8.2524842   L 4.3818104,8.2316971   L 4.3818104,8.2109099   L 4.3570544,8.2109099   L 4.3570544,8.1901228   L 4.3570544,8.1693357   L 4.3570544,8.1485486   L 4.3570544,8.0861873   L 4.3570544,7.9822517   L 4.3570544,7.8783161   L 4.3570544,7.7743806   L 4.3570544,7.6288708   L 4.3570544,7.4625739   L 4.3570544,7.2962769   L 4.3570544,7.12998   L 4.3570544,6.9221089   L 4.3570544,6.7350249   L 4.3570544,6.5271537   L 4.3570544,6.3192826   L 4.3570544,6.0906243   L 4.3570544,5.8827532   L 4.3570544,5.6748821   L 4.3570544,5.4462238   L 4.3570544,5.2383527   L 4.3570544,5.0304815   L 4.3570544,4.8433975   L 4.3570544,4.6355264   L 4.3570544,4.4692295   L 4.3570544,4.3029326   L 4.3570544,4.1366356   L 4.3570544,3.9911258   L 4.3570544,3.8871903   L 4.3570544,3.7832547   L 4.3570544,3.6793191   L 4.3570544,3.6169578   L 4.3570544,3.5961707   L 4.3570544,3.5753836   L 4.3570544,3.5545965   L 4.3818104,3.5545965   L 4.3818104,3.5338093   L 4.4065664,3.5130222   L 4.4313224,3.5130222   L 4.4313224,3.4922351   L 4.4560784,3.4922351   L 4.4808344,3.4922351   L 4.5055904,3.4922351   L 4.5303463,3.4922351   L 4.5551023,3.4922351   L 4.6046143,3.4922351   L 4.6541263,3.4922351   L 4.7283943,3.4922351   L 4.7779063,3.4922351   L 4.8521742,3.4922351   L 4.9264422,3.4922351   L 5.0007102,3.4922351   L 5.0997341,3.4922351   L 5.1740021,3.4922351   L 5.2730261,3.4922351   L 5.3472941,3.4922351   L 5.446318,3.4922351   L 5.545342,3.4922351   L 5.61961,3.4922351   L 5.7186339,3.4922351   L 5.7929019,3.4922351   L 5.8919259,3.4922351   L 5.9661938,3.4922351   L 6.0404618,3.4922351   L 6.1147298,3.4922351   L 6.1642418,3.4922351   L 6.2385097,3.4922351   L 6.2880217,3.4922351   L 6.3375337,3.4922351   L 6.3622897,3.4922351   L 6.3870457,3.4922351   L 6.4118017,3.4922351   z "
     id="path179" />
  <path
     style="fill:#0a0a0a;fill-rule:evenodd;fill-opacity:1;stroke:#000000;stroke-width:0.02475599px;stroke-linecap:round;stroke-linejoin:round;stroke-miterlimit:4;stroke-dasharray:none;stroke-opacity:1;"
     d="  M 5.7433899,7.1091929   L 5.7433899,7.6080836   L 5.396806,7.6080836   L 5.396806,7.1091929   L 5.7433899,7.1091929   z "
     id="path181" />
  <path
     style="fill:#0a0a0a;fill-rule:evenodd;fill-opacity:1;stroke:#000000;stroke-width:0.02475599px;stroke-linecap:round;stroke-linejoin:round;stroke-miterlimit:4;stroke-dasharray:none;stroke-opacity:1;"
     d="  M 5.7433899,6.1321986   L 5.7433899,6.6310893   L 5.396806,6.6310893   L 5.396806,6.1321986   L 5.7433899,6.1321986   z "
     id="path183" />
  <path
     style="fill:#0a0a0a;fill-rule:evenodd;fill-opacity:1;stroke:#000000;stroke-width:0.02475599px;stroke-linecap:round;stroke-linejoin:round;stroke-miterlimit:4;stroke-dasharray:none;stroke-opacity:1;"
     d="  M 5.7433899,5.1759913   L 5.7433899,5.6748821   L 5.396806,5.6748821   L 5.396806,5.1759913   L 5.7433899,5.1759913   z "
     id="path185" />
  <path
     style="fill:#0a0a0a;fill-rule:evenodd;fill-opacity:1;stroke:#000000;stroke-width:0.02475599px;stroke-linecap:round;stroke-linejoin:round;stroke-miterlimit:4;stroke-dasharray:none;stroke-opacity:1;"
     d="  M 5.7433899,4.1574228   L 5.7433899,4.6563135   L 5.396806,4.6563135   L 5.396806,4.1574228   L 5.7433899,4.1574228   z "
     id="path187" />
  <path
     style="fill:#eaeaea;fill-rule:evenodd;fill-opacity:1;stroke:#7f7f7f;stroke-width:0.02475599px;stroke-linecap:round;stroke-linejoin:round;stroke-miterlimit:4;stroke-dasharray:none;stroke-opacity:1;"
     d="  M 4.8026622,3.7416805   L 4.7531503,3.7416805   L 4.7036383,3.7624676   L 4.6788823,3.8040418   L 4.6788823,3.8456161   L 4.6788823,7.9198904   L 4.6788823,7.9614646   L 4.7036383,8.0030388   L 4.7531503,8.0238259   L 4.8026622,8.0238259   L 5.2482701,8.0238259   L 5.2977821,8.0238259   L 5.3472941,8.0030388   L 5.37205,7.9614646   L 5.37205,7.9198904   L 5.37205,3.8456161   L 5.37205,3.8040418   L 5.3472941,3.7624676   L 5.2977821,3.7416805   L 5.2482701,3.7416805   L 4.8026622,3.7416805   z "
     id="path189" />
  <path
     style="fill:#f7f7f7;fill-rule:evenodd;fill-opacity:1;stroke:#f7f7f7;stroke-width:0.02475599px;stroke-linecap:round;stroke-linejoin:round;stroke-miterlimit:4;stroke-dasharray:none;stroke-opacity:1;"
     d="  M 5.0254662,3.8871903   L 4.9511982,3.9079774   L 4.9016862,3.9495516   L 4.8521742,3.9911258   L 4.8274182,4.0534872   L 4.8274182,7.6912321   L 4.8521742,7.7535934   L 4.9016862,7.8159548   L 4.9511982,7.8367419   L 5.0254662,7.857529   L 5.0502222,7.857529   L 5.1244901,7.8367419   L 5.1987581,7.8159548   L 5.2235141,7.7535934   L 5.2482701,7.6912321   L 5.2482701,4.0534872   L 5.2235141,3.9911258   L 5.1987581,3.9495516   L 5.1244901,3.9079774   L 5.0502222,3.8871903   L 5.0254662,3.8871903   z "
     id="path191" />
  <path
     style="fill:#bfbfbf;fill-rule:evenodd;fill-opacity:1;stroke:#000000;stroke-width:0.02475599px;stroke-linecap:round;stroke-linejoin:round;stroke-miterlimit:4;stroke-dasharray:none;stroke-opacity:1;"
     d="  M 6.5355816,7.483361   L 6.2385097,7.483361   L 6.2385097,7.0260445   L 6.5355816,7.0260445   L 6.5355816,7.483361   z "
     id="path193" />
  <path
     style="fill:#bfbfbf;fill-rule:evenodd;fill-opacity:1;stroke:#000000;stroke-width:0.02475599px;stroke-linecap:round;stroke-linejoin:round;stroke-miterlimit:4;stroke-dasharray:none;stroke-opacity:1;"
     d="  M 6.5355816,4.3237197   L 6.2385097,4.3237197   L 6.2385097,4.7810362   L 6.5355816,4.7810362   L 6.5355816,4.3237197   z "
     id="path195" />
  <path
     style="fill:none;stroke:#7f7f7f;stroke-width:0.02475599px;stroke-linecap:round;stroke-linejoin:round;stroke-miterlimit:4;stroke-dasharray:none;stroke-opacity:1;"
     d="  M 4.8026622,3.7416805   L 4.7531503,3.7416805   L 4.7036383,3.7624676   L 4.6788823,3.8040418   L 4.6788823,3.8456161   L 4.6788823,7.9198904   L 4.6788823,7.9614646   L 4.7036383,8.0030388   L 4.7531503,8.0238259   L 4.8026622,8.0238259   L 5.2482701,8.0238259   L 5.2977821,8.0238259   L 5.3472941,8.0030388   L 5.37205,7.9614646   L 5.37205,7.9198904   L 5.37205,3.8456161   L 5.37205,3.8040418   L 5.3472941,3.7624676   L 5.2977821,3.7416805   L 5.2482701,3.7416805   L 4.8026622,3.7416805   z "
     id="path197" />
  <path
     style="fill:#000000;fill-rule:evenodd;fill-opacity:1;stroke:#161616;stroke-width:0.018514035px;stroke-linecap:round;stroke-linejoin:round;stroke-miterlimit:4;stroke-dasharray:none;stroke-opacity:1;"
     d="  M 24.845836,4.1686941   L 24.845836,6.996795   L 25.512341,6.996795   L 25.512341,7.6579095   L 26.160332,7.6579095   L 26.160332,8.3006597   L 27.696997,8.3006597   L 27.696997,7.6579095   L 28.363502,7.6579095   L 28.363502,6.996795   L 29.011494,6.996795   L 29.011494,4.1686941   L 24.845836,4.1686941   z "
     id="path199" />
  <path
     style="fill:#000000;fill-rule:evenodd;fill-opacity:1;stroke:#161616;stroke-width:0.018514035px;stroke-linecap:round;stroke-linejoin:round;stroke-miterlimit:4;stroke-dasharray:none;stroke-opacity:1;"
     d="  M 19.365681,4.1686941   L 19.365681,6.996795   L 20.032186,6.996795   L 20.032186,7.6579095   L 20.680178,7.6579095   L 20.680178,8.3006597   L 22.216843,8.3006597   L 22.216843,7.6579095   L 22.883348,7.6579095   L 22.883348,6.996795   L 23.531339,6.996795   L 23.531339,4.1686941   L 19.365681,4.1686941   z "
     id="path201" />
  <path
     style="fill:#000000;fill-rule:evenodd;fill-opacity:1;stroke:#161616;stroke-width:0.018514035px;stroke-linecap:round;stroke-linejoin:round;stroke-miterlimit:4;stroke-dasharray:none;stroke-opacity:1;"
     d="  M 13.885527,4.1686941   L 13.885527,6.996795   L 14.552032,6.996795   L 14.552032,7.6579095   L 15.200023,7.6579095   L 15.200023,8.3006597   L 16.736688,8.3006597   L 16.736688,7.6579095   L 17.403193,7.6579095   L 17.403193,6.996795   L 18.051185,6.996795   L 18.051185,4.1686941   L 13.885527,4.1686941   z "
     id="path203" />
  <path
     style="fill:#000000;fill-rule:evenodd;fill-opacity:1;stroke:#161616;stroke-width:0.018514035px;stroke-linecap:round;stroke-linejoin:round;stroke-miterlimit:4;stroke-dasharray:none;stroke-opacity:1;"
     d="  M 8.4053721,4.1686941   L 8.4053721,6.996795   L 9.0718774,6.996795   L 9.0718774,7.6579095   L 9.7198686,7.6579095   L 9.7198686,8.3006597   L 11.256534,8.3006597   L 11.256534,7.6579095   L 11.923039,7.6579095   L 11.923039,6.996795   L 12.57103,6.996795   L 12.57103,4.1686941   L 8.4053721,4.1686941   z "
     id="path205" />
  <path
     style="fill:#000000;fill-rule:evenodd;fill-opacity:1;stroke:#161616;stroke-width:0.018614914px;stroke-linecap:round;stroke-linejoin:round;stroke-miterlimit:4;stroke-dasharray:none;stroke-opacity:1;"
     d="  M 30.993833,4.1686941   L 30.993833,6.9784307   L 32.185188,6.9784307   L 32.185188,7.6395452   L 32.669176,7.6395452   L 32.669176,8.3006597   L 34.083909,8.3006597   L 34.083909,7.6395452   L 34.567897,7.6395452   L 34.567897,6.9784307   L 35.759252,6.9784307   L 35.759252,4.1686941   L 30.993833,4.1686941   z "
     id="path207" />
  <path
     style="fill:#000000;fill-rule:evenodd;fill-opacity:1;stroke:#161616;stroke-width:0.018614914px;stroke-linecap:round;stroke-linejoin:round;stroke-miterlimit:4;stroke-dasharray:none;stroke-opacity:1;"
     d="  M 42.702615,4.1686941   L 42.702615,6.9784307   L 43.893969,6.9784307   L 43.893969,7.6395452   L 44.377957,7.6395452   L 44.377957,8.3006597   L 45.792691,8.3006597   L 45.792691,7.6395452   L 46.276679,7.6395452   L 46.276679,6.9784307   L 47.468033,6.9784307   L 47.468033,4.1686941   L 42.702615,4.1686941   z "
     id="path209" />
  <path
     style="fill:#000000;fill-rule:evenodd;fill-opacity:1;stroke:#161616;stroke-width:0.018614914px;stroke-linecap:round;stroke-linejoin:round;stroke-miterlimit:4;stroke-dasharray:none;stroke-opacity:1;"
     d="  M 36.838917,4.1686941   L 36.838917,6.9784307   L 38.030271,6.9784307   L 38.030271,7.6395452   L 38.514259,7.6395452   L 38.514259,8.3006597   L 39.928993,8.3006597   L 39.928993,7.6395452   L 40.41298,7.6395452   L 40.41298,6.9784307   L 41.604335,6.9784307   L 41.604335,4.1686941   L 36.838917,4.1686941   z "
     id="path211" />
  <ellipse
     style="fill:#000000;fill-rule:evenodd;fill-opacity:1;stroke:#000000;stroke-width:0.018760176px;stroke-linecap:round;stroke-linejoin:round;stroke-miterlimit:4;stroke-dasharray:none;stroke-opacity:1;"
     cx="51.871886"
     cy="6.115309"
     rx="1.2944521"
     ry="1.285072"
     id="ellipse213" />
  <ellipse
     style="fill:none;stroke:#000000;stroke-width:0.018760176px;stroke-linecap:round;stroke-linejoin:round;stroke-miterlimit:4;stroke-dasharray:none;stroke-opacity:1;"
     cx="51.871886"
     cy="6.115309"
     rx="1.2944521"
     ry="1.285072"
     id="ellipse215" />
  <ellipse
     style="fill:#dddddd;fill-rule:evenodd;fill-opacity:1;stroke:#000000;stroke-width:0.018760176px;stroke-linecap:round;stroke-linejoin:round;stroke-miterlimit:4;stroke-dasharray:none;stroke-opacity:1;"
     cx="51.862506"
     cy="6.115309"
     rx="0.47838448"
     ry="0.47838448"
     id="ellipse217" />
  <ellipse
     style="fill:none;stroke:#000000;stroke-width:0.018760176px;stroke-linecap:round;stroke-linejoin:round;stroke-miterlimit:4;stroke-dasharray:none;stroke-opacity:1;"
     cx="51.862506"
     cy="6.115309"
     rx="0.47838448"
     ry="0.47838448"
     id="ellipse219" />
  <ellipse
     style="fill:#000000;fill-rule:evenodd;fill-opacity:1;stroke:#000000;stroke-width:0.018760176px;stroke-linecap:round;stroke-linejoin:round;stroke-miterlimit:4;stroke-dasharray:none;stroke-opacity:1;"
     cx="51.862506"
     cy="6.115309"
     rx="0.32830308"
     ry="0.32830308"
     id="ellipse221" />
  <ellipse
     style="fill:none;stroke:#000000;stroke-width:0.018760176px;stroke-linecap:round;stroke-linejoin:round;stroke-miterlimit:4;stroke-dasharray:none;stroke-opacity:1;"
     cx="51.862506"
     cy="6.115309"
     rx="0.32830308"
     ry="0.32830308"
     id="ellipse223" />
  <ellipse
     style="fill:#dddddd;fill-rule:evenodd;fill-opacity:1;stroke:#000000;stroke-width:0.018760176px;stroke-linecap:round;stroke-linejoin:round;stroke-miterlimit:4;stroke-dasharray:none;stroke-opacity:1;"
     cx="51.871886"
     cy="6.115309"
     rx="0.30016281"
     ry="0.29078273"
     id="ellipse225" />
  <ellipse
     style="fill:none;stroke:#000000;stroke-width:0.018760176px;stroke-linecap:round;stroke-linejoin:round;stroke-miterlimit:4;stroke-dasharray:none;stroke-opacity:1;"
     cx="51.871886"
     cy="6.115309"
     rx="0.30016281"
     ry="0.29078273"
     id="ellipse227" />
</svg>
