<?xml version="1.0" encoding="UTF-8" standalone="no"?>
<svg
   version="1.0"
   width="23.33mm"
   height="7.29mm"
   id="svg87"
   xmlns="http://www.w3.org/2000/svg"
   xmlns:svg="http://www.w3.org/2000/svg">
  <defs
     id="defs3">
    <pattern
       id="EMFhbasepattern"
       patternUnits="userSpaceOnUse"
       width="6"
       height="6"
       x="0"
       y="0" />
  </defs>
  <path
     style="fill:#eaeaea;fill-rule:evenodd;fill-opacity:1;stroke:#000000;stroke-width:0.093730427px;stroke-linecap:round;stroke-linejoin:round;stroke-miterlimit:4;stroke-dasharray:none;stroke-opacity:1;"
     d="  M 0.037492171,13.789136   L 1.0122886,14.426134   L 1.4809408,14.763369   L 1.9495929,15.119338   L 2.3994989,15.475308   L 2.849405,15.850012   L 3.280565,16.243452   L 3.6929789,16.618157   L 4.1053927,17.030333   L 4.5178066,17.423773   L 4.8927283,17.854683   L 5.26765,18.266858   L 5.6425717,18.697769   L 5.9987474,19.128679   L 6.3361769,19.578325   L 6.9735438,20.477617   L 7.2547351,20.927262   L 7.5546725,21.376908   L 7.8171177,21.845289   L 8.0608168,22.31367   L 8.3045159,22.763316   L 8.5294689,23.231697   L 8.7356759,23.700078   L 9.1105976,24.63684   L 9.2605663,25.105221   L 9.5230115,26.041983   L 9.635488,26.510364   L 9.7104723,26.978745   L 9.7854567,27.42839   L 78.283653,27.42839   L 78.358638,26.978745   L 78.433622,26.510364   L 78.546098,26.041983   L 78.808544,25.105221   L 78.958512,24.63684   L 79.333434,23.700078   L 79.539641,23.231697   L 79.764594,22.763316   L 80.008293,22.31367   L 80.251992,21.845289   L 80.514437,21.376908   L 80.814375,20.927262   L 81.095566,20.477617   L 81.732933,19.578325   L 82.070363,19.128679   L 82.426538,18.697769   L 82.80146,18.266858   L 83.176382,17.854683   L 83.551303,17.423773   L 83.963717,17.030333   L 84.376131,16.618157   L 84.788545,16.243452   L 85.219705,15.850012   L 85.669611,15.475308   L 86.119517,15.119338   L 86.588169,14.763369   L 87.056821,14.426134   L 88.031618,13.789136   L 0.28119128,13.789136   L 0.037492171,13.789136   z "
     id="path5" />
  <path
     style="fill:#bfbfbf;fill-rule:evenodd;fill-opacity:1;stroke:#000000;stroke-width:0.093730427px;stroke-linecap:round;stroke-linejoin:round;stroke-miterlimit:4;stroke-dasharray:none;stroke-opacity:1;"
     d="  M 88.031618,13.789136   L 88.031618,13.114668   L 0.037492171,13.114668   L 0.037492171,13.789136   L 0.11247651,13.845342   L 0.18746086,13.882812   L 0.33742954,13.995224   L 0.41241388,14.032694   L 0.48739822,14.0889   L 0.56238257,14.12637   L 0.63736691,14.182576   L 0.71235125,14.220047   L 0.76858951,14.276252   L 0.84357385,14.313723   L 0.91855819,14.369929   L 0.97479645,14.407399   L 1.0497808,14.44487   L 1.106019,14.501075   L 1.4434486,14.725898   L 1.4809408,14.763369   L 1.537179,14.800839   L 1.5746712,14.819574   L 1.6121634,14.857045   L 1.6496555,14.87578   L 1.7058938,14.931986   L 1.743386,14.950721   L 1.7996242,15.006927   L 1.9308468,15.100603   L 2.0808155,15.213014   L 2.2120381,15.325426   L 2.5119755,15.550249   L 2.6431981,15.66266   L 2.7931667,15.775072   L 2.9431354,15.906218   L 3.074358,16.037365   L 3.2243267,16.149776   L 3.3742954,16.280923   L 3.6554867,16.561952   L 3.8054554,16.693098   L 4.1053927,16.992862   L 4.2366153,17.142744   L 4.5365527,17.442508   L 4.6677753,17.59239   L 4.9677127,17.892154   L 5.0989353,18.060771   L 5.248904,18.229388   L 5.3801266,18.37927   L 5.5113492,18.547887   L 5.6613178,18.716504   L 6.3174308,19.55959   L 81.751679,19.55959   L 81.845409,19.428443   L 81.957886,19.297296   L 82.051616,19.16615   L 82.164093,19.016268   L 82.389046,18.753975   L 82.501522,18.604093   L 82.726476,18.341799   L 82.857698,18.191917   L 82.988921,18.060771   L 83.101397,17.910889   L 83.23262,17.761007   L 83.363842,17.62986   L 83.495065,17.479978   L 83.645034,17.348832   L 83.776256,17.19895   L 84.076194,16.899186   L 84.226162,16.768039   L 84.676068,16.318393   L 84.844783,16.168512   L 85.013498,16.037365   L 85.163467,15.887483   L 85.332181,15.737601   L 85.519642,15.587719   L 85.688357,15.437837   L 85.857072,15.306691   L 86.231994,15.006927   L 86.269486,14.988191   L 86.325724,14.950721   L 86.363216,14.91325   L 86.419454,14.894515   L 86.475693,14.83831   L 86.550677,14.800839   L 86.606915,14.763369   L 86.6819,14.725898   L 86.738138,14.669692   L 86.813122,14.613487   L 86.888106,14.576016   L 86.944345,14.51981   L 87.094313,14.407399   L 87.169298,14.369929   L 87.244282,14.313723   L 87.30052,14.257517   L 87.375505,14.220047   L 87.450489,14.163841   L 87.506727,14.12637   L 87.581712,14.070165   L 87.806665,13.920283   L 87.844157,13.882812   L 87.881649,13.864077   L 87.937887,13.845342   L 87.956633,13.826607   L 87.994126,13.807871   L 88.012872,13.789136   L 88.031618,13.789136   z "
     id="path7" />
  <path
     style="fill:#bfbfbf;fill-rule:evenodd;fill-opacity:1;stroke:#000000;stroke-width:0.093730427px;stroke-linecap:round;stroke-linejoin:round;stroke-miterlimit:4;stroke-dasharray:none;stroke-opacity:1;"
     d="  M 20.489472,4.4964574   L 20.376995,4.4964574   L 20.245772,4.5151927   L 20.058312,4.5151927   L 19.833359,4.5339279   L 19.570913,4.5526632   L 19.270976,4.5713984   L 18.952292,4.5901336   L 18.202449,4.6276041   L 17.790035,4.6650746   L 17.358875,4.6838098   L 16.908969,4.7212803   L 16.459063,4.7400155   L 16.009157,4.777486   L 15.071853,4.8149565   L 14.621947,4.852427   L 14.172041,4.8711622   L 13.722135,4.9086327   L 13.290975,4.9273679   L 12.878561,4.9648384   L 12.503639,4.9835737   L 12.147463,5.0023089   L 11.810034,5.0210441   L 11.510097,5.0397794   L 11.247651,5.0585146   L 11.022698,5.0772499   L 10.835237,5.0772499   L 10.704015,5.0959851   L 10.591538,5.0959851   L 10.554046,5.1147203   L 10.479062,5.1709261   L 10.329093,5.2646022   L 10.141632,5.3957489   L 9.8979332,5.5456308   L 9.6167419,5.7329832   L 9.2980584,5.9390709   L 8.9418828,6.1638937   L 8.548215,6.4261871   L 8.1358011,6.6884804   L 7.7046412,6.969509   L 7.2547351,7.2692729   L 6.786083,7.5690367   L 5.8112865,8.2060348   L 5.3238883,8.5432691   L 4.817744,8.8617682   L 3.8429475,9.4987663   L 3.3742954,9.7985302   L 2.9243893,10.098294   L 2.4932294,10.379323   L 2.0808155,10.641616   L 1.6871477,10.903909   L 1.3309721,11.128732   L 1.0122886,11.33482   L 0.73109734,11.522172   L 0.48739822,11.672054   L 0.29993737,11.803201   L 0.14996868,11.896877   L 0.074984342,11.953083   L 0.037492171,11.971818   L 0.037492171,13.114668   L 0.2624452,13.395696   L 0.97479645,13.639254   L 2.1370538,13.882812   L 3.730471,14.107635   L 5.69881,14.313723   L 8.0233246,14.501075   L 10.685269,14.669692   L 13.628404,14.83831   L 16.833985,14.969456   L 20.264518,15.081868   L 23.882513,15.194279   L 27.669222,15.26922   L 31.587154,15.344161   L 35.617563,15.400367   L 39.685463,15.419102   L 43.809602,15.437837   L 47.933741,15.437837   L 52.020387,15.419102   L 56.050796,15.381631   L 59.968728,15.306691   L 63.774183,15.23175   L 67.42967,15.138073   L 70.878949,15.025662   L 74.103276,14.894515   L 77.083904,14.725898   L 79.764594,14.557281   L 82.126601,14.369929   L 84.151178,14.163841   L 85.782087,13.920283   L 86.981837,13.676725   L 87.750426,13.395696   L 88.031618,13.114668   L 88.031618,11.971818   L 87.994126,11.953083   L 87.919141,11.896877   L 87.769173,11.803201   L 87.581712,11.672054   L 87.338013,11.522172   L 87.056821,11.33482   L 86.738138,11.128732   L 86.381962,10.903909   L 85.988294,10.641616   L 85.575881,10.379323   L 85.144721,10.098294   L 84.694814,9.7985302   L 84.226162,9.4987663   L 82.763968,8.5432691   L 82.257823,8.2060348   L 81.283027,7.5690367   L 80.814375,7.2692729   L 80.364469,6.969509   L 79.933309,6.6884804   L 79.520895,6.4261871   L 79.127227,6.1638937   L 78.771051,5.9390709   L 78.452368,5.7329832   L 78.171177,5.5456308   L 77.927478,5.3957489   L 77.740017,5.2646022   L 77.590048,5.1709261   L 77.515064,5.1147203   L 77.477572,5.0959851   L 77.365095,5.0959851   L 77.233872,5.0772499   L 77.046412,5.0772499   L 76.821459,5.0585146   L 76.559013,5.0397794   L 76.259076,5.0210441   L 75.940393,5.0023089   L 75.190549,4.9648384   L 74.778135,4.9273679   L 74.346975,4.9086327   L 73.897069,4.8711622   L 73.447163,4.852427   L 72.997257,4.8149565   L 72.059953,4.777486   L 71.610047,4.7400155   L 71.160141,4.7212803   L 70.710235,4.6838098   L 70.279075,4.6650746   L 69.866661,4.6276041   L 69.491739,4.6088689   L 69.135563,4.5901336   L 68.798134,4.5713984   L 68.498197,4.5526632   L 68.235751,4.5339279   L 68.010798,4.5151927   L 67.823338,4.5151927   L 67.692115,4.4964574   L 20.620694,4.4964574   L 20.489472,4.4964574   z "
     id="path9" />
  <path
     style="fill:#afafaf;fill-rule:evenodd;fill-opacity:1;stroke:#afafaf;stroke-width:0.018746085px;stroke-linecap:round;stroke-linejoin:round;stroke-miterlimit:4;stroke-dasharray:none;stroke-opacity:1;"
     d="  M 30.706088,4.4964574   L 31.137248,5.1521908   L 31.549662,5.7704537   L 31.980822,6.3512461   L 32.393236,6.8945681   L 32.80565,7.4004195   L 33.218064,7.8875358   L 33.630477,8.3559167   L 34.042891,8.7868272   L 34.455305,9.1802673   L 34.848973,9.5549721   L 35.261387,9.9109416   L 35.673801,10.229441   L 36.067469,10.529204   L 36.479882,10.791498   L 36.87355,11.053791   L 37.285964,11.297349   L 37.698378,11.503437   L 38.092046,11.690789   L 38.50446,11.878142   L 39.329287,12.177906   L 39.741701,12.309052   L 40.154115,12.421464   L 40.566529,12.51514   L 40.997689,12.608816   L 41.410103,12.683757   L 41.841263,12.739963   L 42.272423,12.814904   L 42.703583,12.852374   L 43.153489,12.889845   L 43.584649,12.927315   L 44.034555,12.964786   L 44.428223,12.964786   L 44.821891,12.94605   L 45.234304,12.90858   L 46.059132,12.796168   L 46.490292,12.721227   L 46.940198,12.627551   L 47.371358,12.533875   L 48.27117,12.271582   L 48.721076,12.1217   L 49.189728,11.953083   L 49.639635,11.76573   L 50.108287,11.559643   L 50.558193,11.33482   L 51.008099,11.091262   L 51.476751,10.828968   L 52.376563,10.266911   L 52.826469,9.9484121   L 53.257629,9.6111778   L 53.688789,9.2552082   L 54.119949,8.8805034   L 54.944777,8.0561529   L 55.357191,7.6065072   L 55.750858,7.1568614   L 56.12578,6.6697452   L 56.500702,6.1638937   L 56.856877,5.6205718   L 57.194307,5.0772499   L 57.531737,4.4964574   L 30.781072,4.4964574   L 30.706088,4.4964574   z "
     id="path11" />
  <text
     xml:space="preserve"
     style="font-size:0.875000px;font-style:normal;font-variant:normal;font-weight:400;font-stretch:Normal;line-height:125.000000%;letter-spacing:0px;word-spacing:0px;fill:#000000;fill-opacity:1;stroke:none;font-family:Arial;text-align:start;text-anchor:start;"
     transform="matrix(0.766044,-0.642788,0.642788,0.766044,38.110792,14.725898)"
     x="0.000000"
     y="0.000000"
     id="text25"><tspan
       x="0.000000"
       y="0.000000"
       id="tspan23"><tspan
         dx="0.000000"
         dy="0.000000"
         style="fill:#FFFFFF;font-size:0.875000px;font-style:normal;font-variant:normal;font-weight:400;font-stretch:Normal;font-family:Arial;"
         id="tspan13">I</tspan><tspan
         dx="0.000000"
         dy="0.000000"
         style="fill:#FFFFFF;font-size:0.875000px;font-style:normal;font-variant:normal;font-weight:400;font-stretch:Normal;font-family:Arial;"
         id="tspan15">-</tspan><tspan
         dx="0.000000"
         dy="0.000000"
         style="fill:#FFFFFF;font-size:0.875000px;font-style:normal;font-variant:normal;font-weight:400;font-stretch:Normal;font-family:Arial;"
         id="tspan17">N</tspan><tspan
         dx="0.000000"
         dy="0.000000"
         style="fill:#FFFFFF;font-size:0.875000px;font-style:normal;font-variant:normal;font-weight:400;font-stretch:Normal;font-family:Arial;"
         id="tspan19">E</tspan><tspan
         dx="0.000000"
         dy="0.000000"
         style="fill:#FFFFFF;font-size:0.875000px;font-style:normal;font-variant:normal;font-weight:400;font-stretch:Normal;font-family:Arial;"
         id="tspan21">T</tspan></tspan></text>
  <text
     xml:space="preserve"
     style="font-size:0.875000px;font-style:normal;font-variant:normal;font-weight:400;font-stretch:Normal;line-height:125.000000%;letter-spacing:0px;word-spacing:0px;fill:#000000;fill-opacity:1;stroke:none;font-family:Arial;text-align:start;text-anchor:start;"
     transform="matrix(0.766044,-0.642788,0.642788,0.766044,38.110792,14.725898)"
     x="-1.804312"
     y="-1.611826"
     id="text39"><tspan
       x="-1.804312"
       y="-1.611826"
       id="tspan37"><tspan
         dx="0.000000"
         dy="0.000000"
         style="fill:#FFFFFF;font-size:0.875000px;font-style:normal;font-variant:normal;font-weight:400;font-stretch:Normal;font-family:Arial;"
         id="tspan27">P</tspan><tspan
         dx="0.000000"
         dy="0.000000"
         style="fill:#FFFFFF;font-size:0.875000px;font-style:normal;font-variant:normal;font-weight:400;font-stretch:Normal;font-family:Arial;"
         id="tspan29">O</tspan><tspan
         dx="0.000000"
         dy="0.000000"
         style="fill:#FFFFFF;font-size:0.875000px;font-style:normal;font-variant:normal;font-weight:400;font-stretch:Normal;font-family:Arial;"
         id="tspan31">W</tspan><tspan
         dx="0.000000"
         dy="0.000000"
         style="fill:#FFFFFF;font-size:0.875000px;font-style:normal;font-variant:normal;font-weight:400;font-stretch:Normal;font-family:Arial;"
         id="tspan33">E</tspan><tspan
         dx="0.000000"
         dy="0.000000"
         style="fill:#FFFFFF;font-size:0.875000px;font-style:normal;font-variant:normal;font-weight:400;font-stretch:Normal;font-family:Arial;"
         id="tspan35">R</tspan></tspan></text>
  <path
     style="fill:none;stroke:#000000;stroke-width:0.093730427px;stroke-linecap:round;stroke-linejoin:round;stroke-miterlimit:4;stroke-dasharray:none;stroke-opacity:1;"
     d="  M 20.489472,4.4964574   L 20.376995,4.4964574   L 20.245772,4.5151927   L 20.058312,4.5151927   L 19.833359,4.5339279   L 19.570913,4.5526632   L 19.270976,4.5713984   L 18.952292,4.5901336   L 18.202449,4.6276041   L 17.790035,4.6650746   L 17.358875,4.6838098   L 16.908969,4.7212803   L 16.459063,4.7400155   L 16.009157,4.777486   L 15.071853,4.8149565   L 14.621947,4.852427   L 14.172041,4.8711622   L 13.722135,4.9086327   L 13.290975,4.9273679   L 12.878561,4.9648384   L 12.503639,4.9835737   L 12.147463,5.0023089   L 11.810034,5.0210441   L 11.510097,5.0397794   L 11.247651,5.0585146   L 11.022698,5.0772499   L 10.835237,5.0772499   L 10.704015,5.0959851   L 10.591538,5.0959851   L 10.554046,5.1147203   L 10.479062,5.1709261   L 10.329093,5.2646022   L 10.141632,5.3957489   L 9.8979332,5.5456308   L 9.6167419,5.7329832   L 9.2980584,5.9390709   L 8.9418828,6.1638937   L 8.548215,6.4261871   L 8.1358011,6.6884804   L 7.7046412,6.969509   L 7.2547351,7.2692729   L 6.786083,7.5690367   L 5.8112865,8.2060348   L 5.3238883,8.5432691   L 4.817744,8.8617682   L 3.8429475,9.4987663   L 3.3742954,9.7985302   L 2.9243893,10.098294   L 2.4932294,10.379323   L 2.0808155,10.641616   L 1.6871477,10.903909   L 1.3309721,11.128732   L 1.0122886,11.33482   L 0.73109734,11.522172   L 0.48739822,11.672054   L 0.29993737,11.803201   L 0.14996868,11.896877   L 0.074984342,11.953083   L 0.037492171,11.971818   L 0.037492171,13.114668   L 0.2624452,13.395696   L 0.97479645,13.639254   L 2.1370538,13.882812   L 3.730471,14.107635   L 5.69881,14.313723   L 8.0233246,14.501075   L 10.685269,14.669692   L 13.628404,14.83831   L 16.833985,14.969456   L 20.264518,15.081868   L 23.882513,15.194279   L 27.669222,15.26922   L 31.587154,15.344161   L 35.617563,15.400367   L 39.685463,15.419102   L 43.809602,15.437837   L 47.933741,15.437837   L 52.020387,15.419102   L 56.050796,15.381631   L 59.968728,15.306691   L 63.774183,15.23175   L 67.42967,15.138073   L 70.878949,15.025662   L 74.103276,14.894515   L 77.083904,14.725898   L 79.764594,14.557281   L 82.126601,14.369929   L 84.151178,14.163841   L 85.782087,13.920283   L 86.981837,13.676725   L 87.750426,13.395696   L 88.031618,13.114668   L 88.031618,11.971818   L 87.994126,11.953083   L 87.919141,11.896877   L 87.769173,11.803201   L 87.581712,11.672054   L 87.338013,11.522172   L 87.056821,11.33482   L 86.738138,11.128732   L 86.381962,10.903909   L 85.988294,10.641616   L 85.575881,10.379323   L 85.144721,10.098294   L 84.694814,9.7985302   L 84.226162,9.4987663   L 82.763968,8.5432691   L 82.257823,8.2060348   L 81.283027,7.5690367   L 80.814375,7.2692729   L 80.364469,6.969509   L 79.933309,6.6884804   L 79.520895,6.4261871   L 79.127227,6.1638937   L 78.771051,5.9390709   L 78.452368,5.7329832   L 78.171177,5.5456308   L 77.927478,5.3957489   L 77.740017,5.2646022   L 77.590048,5.1709261   L 77.515064,5.1147203   L 77.477572,5.0959851   L 77.365095,5.0959851   L 77.233872,5.0772499   L 77.046412,5.0772499   L 76.821459,5.0585146   L 76.559013,5.0397794   L 76.259076,5.0210441   L 75.940393,5.0023089   L 75.190549,4.9648384   L 74.778135,4.9273679   L 74.346975,4.9086327   L 73.897069,4.8711622   L 73.447163,4.852427   L 72.997257,4.8149565   L 72.059953,4.777486   L 71.610047,4.7400155   L 71.160141,4.7212803   L 70.710235,4.6838098   L 70.279075,4.6650746   L 69.866661,4.6276041   L 69.491739,4.6088689   L 69.135563,4.5901336   L 68.798134,4.5713984   L 68.498197,4.5526632   L 68.235751,4.5339279   L 68.010798,4.5151927   L 67.823338,4.5151927   L 67.692115,4.4964574   L 20.620694,4.4964574   L 20.489472,4.4964574   z "
     id="path41" />
  <path
     style="fill:#e2e2e2;fill-rule:evenodd;fill-opacity:1;stroke:#000000;stroke-width:0.018746085px;stroke-linecap:round;stroke-linejoin:round;stroke-miterlimit:4;stroke-dasharray:none;stroke-opacity:1;"
     d="  M 41.166404,4.4964574   L 41.166404,4.5526632   L 41.147658,4.5713984   L 41.147658,4.8711622   L 41.166404,4.8898975   L 41.166404,5.3395432   L 41.18515,5.5831013   L 41.203896,5.8453947   L 41.27888,6.4074518   L 41.316373,6.7072157   L 41.428849,7.3067433   L 41.503833,7.6252424   L 41.560072,7.9437415   L 41.653802,8.2622405   L 41.728786,8.5620044   L 41.916247,9.1990025   L 42.009978,9.4987663   L 42.234931,10.098294   L 42.347407,10.379323   L 42.47863,10.660351   L 42.591106,10.922645   L 42.853552,11.409761   L 43.115997,11.821936   L 43.265965,12.009288   L 43.397188,12.177906   L 43.547157,12.327787   L 43.678379,12.440199   L 43.828348,12.533875   L 43.978317,12.608816   L 44.128285,12.646287   L 44.278254,12.665022   L 44.428223,12.646287   L 44.578191,12.608816   L 44.709414,12.533875   L 44.859383,12.440199   L 44.990605,12.327787   L 45.121828,12.177906   L 45.253051,12.009288   L 45.365527,11.821936   L 45.49675,11.615848   L 45.609226,11.409761   L 45.834179,10.922645   L 45.92791,10.660351   L 46.11537,10.098294   L 46.302831,9.4987663   L 46.377816,9.1990025   L 46.527784,8.5620044   L 46.584023,8.2622405   L 46.752737,7.3067433   L 46.865214,6.4074518   L 46.88396,6.1264233   L 46.921452,5.8453947   L 46.921452,5.5831013   L 46.940198,5.3395432   L 46.940198,4.7025451   L 46.921452,4.6838098   L 46.921452,4.5526632   L 46.902706,4.5339279   L 46.902706,4.4964574   L 41.18515,4.4964574   L 41.166404,4.4964574   z "
     id="path43" />
  <ellipse
     style="fill:#00ff00;fill-rule:evenodd;fill-opacity:1;stroke:#000000;stroke-width:0.018746085px;stroke-linecap:round;stroke-linejoin:round;stroke-miterlimit:4;stroke-dasharray:none;stroke-opacity:1;"
     cx="46.733991"
     cy="11.643951"
     rx="0.3936678"
     ry="0.38429475"
     id="ellipse45" />
  <ellipse
     style="fill:none;stroke:#000000;stroke-width:0.018746085px;stroke-linecap:round;stroke-linejoin:round;stroke-miterlimit:4;stroke-dasharray:none;stroke-opacity:1;"
     cx="46.733991"
     cy="11.643951"
     rx="0.3936678"
     ry="0.38429475"
     id="ellipse47" />
  <ellipse
     style="fill:#00ff00;fill-rule:evenodd;fill-opacity:1;stroke:#000000;stroke-width:0.018746085px;stroke-linecap:round;stroke-linejoin:round;stroke-miterlimit:4;stroke-dasharray:none;stroke-opacity:1;"
     cx="48.636719"
     cy="11.016321"
     rx="0.38429475"
     ry="0.3936678"
     id="ellipse49" />
  <ellipse
     style="fill:none;stroke:#000000;stroke-width:0.018746085px;stroke-linecap:round;stroke-linejoin:round;stroke-miterlimit:4;stroke-dasharray:none;stroke-opacity:1;"
     cx="48.636719"
     cy="11.016321"
     rx="0.38429475"
     ry="0.3936678"
     id="ellipse51" />
  <ellipse
     style="fill:#00ff00;fill-rule:evenodd;fill-opacity:1;stroke:#000000;stroke-width:0.018746085px;stroke-linecap:round;stroke-linejoin:round;stroke-miterlimit:4;stroke-dasharray:none;stroke-opacity:1;"
     cx="40.613394"
     cy="11.615848"
     rx="0.38429475"
     ry="0.3936678"
     id="ellipse53" />
  <ellipse
     style="fill:none;stroke:#000000;stroke-width:0.018746085px;stroke-linecap:round;stroke-linejoin:round;stroke-miterlimit:4;stroke-dasharray:none;stroke-opacity:1;"
     cx="40.613394"
     cy="11.615848"
     rx="0.38429475"
     ry="0.3936678"
     id="ellipse55" />
  <ellipse
     style="fill:#00ff00;fill-rule:evenodd;fill-opacity:1;stroke:#000000;stroke-width:0.018746085px;stroke-linecap:round;stroke-linejoin:round;stroke-miterlimit:4;stroke-dasharray:none;stroke-opacity:1;"
     cx="38.907501"
     cy="11.063159"
     rx="0.38429475"
     ry="0.38429475"
     id="ellipse57" />
  <ellipse
     style="fill:none;stroke:#000000;stroke-width:0.018746085px;stroke-linecap:round;stroke-linejoin:round;stroke-miterlimit:4;stroke-dasharray:none;stroke-opacity:1;"
     cx="38.907501"
     cy="11.063159"
     rx="0.38429475"
     ry="0.38429475"
     id="ellipse59" />
  <path
     style="fill:#333333;fill-rule:evenodd;fill-opacity:1;stroke:#000000;stroke-width:0.018746085px;stroke-linecap:round;stroke-linejoin:round;stroke-miterlimit:4;stroke-dasharray:none;stroke-opacity:1;"
     d="  M 42.759821,6.969509   L 45.346781,6.969509   L 45.346781,7.2505376   L 45.328035,7.512831   L 45.328035,7.7563891   L 45.290543,8.2435053   L 45.271797,8.4683282   L 45.234304,8.8805034   L 45.196812,9.0865911   L 45.178066,9.2739435   L 45.15932,9.4425606   L 45.084336,9.7797949   L 45.009351,10.079559   L 44.934367,10.341852   L 44.859383,10.566675   L 44.803144,10.679086   L 44.765652,10.772763   L 44.709414,10.866439   L 44.671922,10.94138   L 44.615684,11.016321   L 44.446969,11.184938   L 44.278254,11.297349   L 44.20327,11.316085   L 44.147031,11.33482   L 44.090793,11.316085   L 43.922078,11.203673   L 43.753364,11.035056   L 43.697125,10.960115   L 43.659633,10.885174   L 43.603395,10.810233   L 43.547157,10.716557   L 43.509665,10.622881   L 43.453426,10.529204   L 43.397188,10.416793   L 43.359696,10.304382   L 43.322204,10.173235   L 43.265965,10.042088   L 43.190981,9.7423244   L 43.134743,9.5924425   L 43.097251,9.4238254   L 43.059758,9.236473   L 43.022266,9.0678558   L 42.984774,8.8617682   L 42.966028,8.6556806   L 42.928536,8.4495929   L 42.891044,8.2247701   L 42.872298,7.9999472   L 42.834805,7.7563891   L 42.816059,7.512831   L 42.778567,7.2505376   L 42.759821,6.969509   z "
     id="path61" />
  <path
     style="fill:#bfbfbf;fill-rule:evenodd;fill-opacity:1;stroke:#000000;stroke-width:0.018746085px;stroke-linecap:round;stroke-linejoin:round;stroke-miterlimit:4;stroke-dasharray:none;stroke-opacity:1;"
     d="  M 45.253051,6.0327471   L 45.253051,5.5831013   L 45.234304,5.3395432   L 45.234304,5.0959851   L 45.196812,4.6088689   L 45.178066,4.3465755   L 45.15932,4.1030174   L 45.121828,3.8407241   L 45.103082,3.5971659   L 45.06559,3.3348726   L 44.915621,2.3606402   L 44.840637,1.9109944   L 44.784398,1.7049068   L 44.746906,1.4988191   L 44.690668,1.2927315   L 44.63443,1.1053791   L 44.578191,0.93676197   L 44.540699,0.76814481   L 44.428223,0.46838098   L 44.371984,0.35596955   L 44.297,0.24355811   L 44.184524,0.093676197   L 44.128285,0.037470479   L 44.053301,0.018735239   L 43.997063,0   L 43.940825,0.018735239   L 43.86584,0.037470479   L 43.809602,0.093676197   L 43.697125,0.24355811   L 43.584649,0.46838098   L 43.472172,0.76814481   L 43.415934,0.93676197   L 43.378442,1.1053791   L 43.322204,1.2927315   L 43.284712,1.4988191   L 43.228473,1.7049068   L 43.190981,1.9109944   L 43.115997,2.3606402   L 43.078505,2.6041983   L 43.059758,2.8477564   L 42.984774,3.3348726   L 42.966028,3.5971659   L 42.947282,3.8407241   L 42.90979,4.1030174   L 42.891044,4.3465755   L 42.891044,4.6088689   L 42.853552,5.0959851   L 42.853552,5.3395432   L 42.834805,5.5831013   L 42.834805,6.0327471   L 42.853552,6.576069   L 42.891044,7.1006557   L 42.947282,7.5877719   L 43.00352,8.0561529   L 43.059758,8.4870634   L 43.134743,8.8805034   L 43.209727,9.2552082   L 43.284712,9.6111778   L 43.378442,9.9109416   L 43.453426,10.19197   L 43.547157,10.435528   L 43.659633,10.641616   L 43.753364,10.810233   L 43.847094,10.94138   L 43.959571,11.035056   L 44.053301,11.091262   L 44.165778,11.109997   L 44.259508,11.091262   L 44.371984,11.035056   L 44.465715,10.922645   L 44.559445,10.772763   L 44.653176,10.58541   L 44.746906,10.341852   L 44.821891,10.060824   L 44.896875,9.7235892   L 44.971859,9.3488844   L 45.046844,8.9179739   L 45.103082,8.4495929   L 45.15932,7.9250062   L 45.196812,7.3442138   L 45.234304,6.7072157   L 45.253051,6.0327471   z "
     id="path63" />
  <text
     xml:space="preserve"
     style="font-size:0.875000px;font-style:normal;font-variant:normal;font-weight:400;font-stretch:Normal;line-height:205.061819%;letter-spacing:0px;word-spacing:0px;fill:#000000;fill-opacity:1;stroke:none;font-family:Arial;text-align:end;text-anchor:end;"
     transform="matrix(-0.529919,-0.848048,0.848048,-0.529919,49.021014,14.426134)"
     x="2.122970"
     y="0.000000"
     id="text85"><tspan
       x="2.122970"
       y="0.000000"
       id="tspan73"><tspan
         dx="0.000000"
         dy="0.000000"
         style="fill:#FFFFFF;font-size:0.875000px;font-style:normal;font-variant:normal;font-weight:400;font-stretch:Normal;font-family:Arial;"
         id="tspan65">V</tspan><tspan
         dx="0.000000"
         dy="0.000000"
         style="fill:#FFFFFF;font-size:0.875000px;font-style:normal;font-variant:normal;font-weight:400;font-stretch:Normal;font-family:Arial;"
         id="tspan67">O</tspan><tspan
         dx="0.000000"
         dy="0.000000"
         style="fill:#FFFFFF;font-size:0.875000px;font-style:normal;font-variant:normal;font-weight:400;font-stretch:Normal;font-family:Arial;"
         id="tspan69">I</tspan><tspan
         dx="0.000000"
         dy="0.000000"
         style="fill:#FFFFFF;font-size:0.875000px;font-style:normal;font-variant:normal;font-weight:400;font-stretch:Normal;font-family:Arial;"
         id="tspan71">P</tspan></tspan><tspan
       x="1.552821"
       y="1.794291"
       id="tspan83"><tspan
         dx="0.000000"
         dy="0.000000"
         style="fill:#FFFFFF;font-size:0.875000px;font-style:normal;font-variant:normal;font-weight:400;font-stretch:Normal;font-family:Arial;"
         id="tspan75">C</tspan><tspan
         dx="0.000000"
         dy="0.000000"
         style="fill:#FFFFFF;font-size:0.875000px;font-style:normal;font-variant:normal;font-weight:400;font-stretch:Normal;font-family:Arial;"
         id="tspan77">A</tspan><tspan
         dx="0.000000"
         dy="0.000000"
         style="fill:#FFFFFF;font-size:0.875000px;font-style:normal;font-variant:normal;font-weight:400;font-stretch:Normal;font-family:Arial;"
         id="tspan79">L</tspan><tspan
         dx="0.000000"
         dy="0.000000"
         style="fill:#FFFFFF;font-size:0.875000px;font-style:normal;font-variant:normal;font-weight:400;font-stretch:Normal;font-family:Arial;"
         id="tspan81">L</tspan></tspan></text>
</svg>
