<?xml version="1.0" encoding="UTF-8" standalone="no"?>
<svg
   version="1.0"
   width="16.139999mm"
   height="3.72mm"
   id="svg299"
   xmlns="http://www.w3.org/2000/svg"
   xmlns:svg="http://www.w3.org/2000/svg">
  <defs
     id="defs3">
    <pattern
       id="EMFhbasepattern"
       patternUnits="userSpaceOnUse"
       width="6"
       height="6"
       x="0"
       y="0" />
  </defs>
  <path
     style="fill:#efefef;fill-rule:evenodd;fill-opacity:1;stroke:#000000;stroke-width:0.093612596px;stroke-linecap:round;stroke-linejoin:round;stroke-miterlimit:4;stroke-dasharray:none;stroke-opacity:1;"
     d="  M 14.695948,9.7014495   M 56.579453,0.037523925   L 0.037445038,0.037523925   L 0.037445038,11.782512   L 56.579453,11.782512   L 56.579453,0.037523925   z "
     id="path5" />
  <path
     style="fill:#efefef;fill-rule:evenodd;fill-opacity:1;stroke:#000000;stroke-width:0.093612596px;stroke-linecap:round;stroke-linejoin:round;stroke-miterlimit:4;stroke-dasharray:none;stroke-opacity:1;"
     d="  M 55.830552,11.782512   L 0.7863458,11.782512   L 0.7863458,13.152136   L 55.830552,13.152136   L 55.830552,11.782512   z "
     id="path7" />
  <path
     style="fill:#333333;fill-rule:evenodd;fill-opacity:1;stroke:#000000;stroke-width:0.093612596px;stroke-linecap:round;stroke-linejoin:round;stroke-miterlimit:4;stroke-dasharray:none;stroke-opacity:1;"
     d="  M 49.034277,13.152136   L 49.034277,13.658709   L 49.371283,13.996424   L 53.078341,13.996424   L 53.415347,13.658709   L 53.415347,13.152136   L 49.034277,13.152136   z "
     id="path9" />
  <path
     style="fill:#333333;fill-rule:evenodd;fill-opacity:1;stroke:#000000;stroke-width:0.093612596px;stroke-linecap:round;stroke-linejoin:round;stroke-miterlimit:4;stroke-dasharray:none;stroke-opacity:1;"
     d="  M 3.1828282,13.152136   L 3.1828282,13.658709   L 3.5198336,13.996424   L 7.2268923,13.996424   L 7.5638977,13.658709   L 7.5638977,13.152136   L 3.1828282,13.152136   z "
     id="path11" />
  <path
     style="fill:#333333;fill-rule:evenodd;fill-opacity:1;stroke:#000000;stroke-width:0.093612596px;stroke-linecap:round;stroke-linejoin:round;stroke-miterlimit:4;stroke-dasharray:none;stroke-opacity:1;"
     d="  M 40.571699,13.996424   L 40.908704,13.658709   L 40.908704,13.152136   L 37.145478,13.152136   L 37.145478,13.658709   L 37.482483,13.996424   L 40.571699,13.996424   z "
     id="path13" />
  <path
     style="fill:none;stroke:#000000;stroke-width:0.018722519px;stroke-linecap:round;stroke-linejoin:round;stroke-miterlimit:4;stroke-dasharray:none;stroke-opacity:1;"
     d="  M 0.037445038,0.037523925   L 56.579453,0.037523925   L 56.579453,0.82552635   L 0.037445038,0.82552635   L 0.037445038,0.037523925   z "
     id="path15" />
  <path
     style="fill:#eaeaea;fill-rule:evenodd;fill-opacity:1;stroke:#7f7f7f;stroke-width:0.018722519px;stroke-linecap:round;stroke-linejoin:round;stroke-miterlimit:4;stroke-dasharray:none;stroke-opacity:1;"
     d="  M 51.112477,2.8705803   L 51.112477,2.7955324   L 51.093754,2.7204846   L 51.075032,2.6454367   L 51.056309,2.5703889   L 51.018864,2.495341   L 50.981419,2.4390551   L 50.943974,2.3827692   L 50.887807,2.3264833   L 50.831639,2.2701975   L 50.775472,2.2326735   L 50.719304,2.1951496   L 50.644414,2.1576257   L 50.569524,2.1388637   L 50.494634,2.1201018   L 50.419744,2.1013398   L 50.344854,2.1013398   L 6.2720439,2.1013398   L 6.1971538,2.1013398   L 6.1222637,2.1201018   L 6.0473736,2.1388637   L 5.9724836,2.1576257   L 5.8975935,2.1951496   L 5.8414259,2.2326735   L 5.7852584,2.2701975   L 5.7290908,2.3264833   L 5.6729233,2.3827692   L 5.6354782,2.4390551   L 5.5980332,2.495341   L 5.5605882,2.5703889   L 5.5418656,2.6454367   L 5.5231431,2.7204846   L 5.5044206,2.7955324   L 5.5044206,2.8705803   L 5.5044206,9.7186965   L 5.5044206,9.7937444   L 5.5231431,9.8687922   L 5.5418656,9.9438401   L 5.5605882,10.018888   L 5.5980332,10.093936   L 5.6354782,10.150222   L 5.6729233,10.206508   L 5.7290908,10.262793   L 5.7852584,10.319079   L 5.8414259,10.356603   L 5.8975935,10.394127   L 5.9724836,10.431651   L 6.0473736,10.450413   L 6.1222637,10.469175   L 6.1971538,10.487937   L 6.2720439,10.487937   L 50.344854,10.487937   L 50.419744,10.487937   L 50.494634,10.469175   L 50.569524,10.450413   L 50.644414,10.431651   L 50.719304,10.394127   L 50.775472,10.356603   L 50.831639,10.319079   L 50.887807,10.262793   L 50.943974,10.206508   L 50.981419,10.150222   L 51.018864,10.093936   L 51.056309,10.018888   L 51.075032,9.9438401   L 51.093754,9.8687922   L 51.112477,9.7937444   L 51.112477,9.7186965   L 51.112477,2.8705803   z "
     id="path17" />
  <path
     style="fill:#1b99e8;fill-rule:evenodd;fill-opacity:1;stroke:#000000;stroke-width:0.018722519px;stroke-linecap:round;stroke-linejoin:round;stroke-miterlimit:4;stroke-dasharray:none;stroke-opacity:1;"
     d="  M 13.030873,3.4146772   L 7.3392275,3.4146772   L 7.3392275,8.2740254   L 13.030873,8.2740254   L 13.030873,3.4146772   z "
     id="path19" />
  <path
     style="fill:#bfbfbf;fill-rule:evenodd;fill-opacity:1;stroke:#000000;stroke-width:0.018722519px;stroke-linecap:round;stroke-linejoin:round;stroke-miterlimit:4;stroke-dasharray:none;stroke-opacity:1;"
     d="  M 43.660914,3.4146772   L 17.711503,3.4146772   L 17.711503,8.2740254   L 43.660914,8.2740254   L 43.660914,3.4146772   z "
     id="path21" />
  <path
     style="fill:#494949;fill-rule:evenodd;fill-opacity:1;stroke:#000000;stroke-width:0.018722519px;stroke-linecap:round;stroke-linejoin:round;stroke-miterlimit:4;stroke-dasharray:none;stroke-opacity:1;"
     d="  M 48.921942,4.3152514   L 45.739114,4.3152514   L 45.739114,8.2740254   L 48.921942,8.2740254   L 48.921942,4.3152514   z "
     id="path23" />
  <path
     style="fill:#848484;fill-rule:evenodd;fill-opacity:1;stroke:#7f7f7f;stroke-width:0.018722519px;stroke-linecap:round;stroke-linejoin:round;stroke-miterlimit:4;stroke-dasharray:none;stroke-opacity:1;"
     d="  M 42.556286,2.3264833   L 39.373458,2.3264833   L 39.373458,3.2270575   L 42.556286,3.2270575   L 42.556286,2.3264833   z "
     id="path25" />
  <path
     style="fill:#bfbfbf;fill-rule:evenodd;fill-opacity:1;stroke:#000000;stroke-width:0.018722519px;stroke-linecap:round;stroke-linejoin:round;stroke-miterlimit:4;stroke-dasharray:none;stroke-opacity:1;"
     d="  M 43.660914,3.4146772   L 17.711503,3.4146772   L 17.711503,8.2740254   L 43.660914,8.2740254   L 43.660914,3.4146772   z "
     id="path27" />
  <text
     xml:space="preserve"
     style="font-size:1.062500px;font-style:normal;font-variant:normal;font-weight:400;font-stretch:Normal;line-height:125.000000%;letter-spacing:0px;word-spacing:0px;fill:#000000;fill-opacity:1;stroke:none;font-family:Arial;text-align:start;text-anchor:start;"
     transform="matrix(1.000000,-0.000000,0.000000,1.000000,7.568550,9.255567)"
     x="0.000000"
     y="0.774563"
     id="text33"><tspan
       x="0.000000"
       y="0.774563"
       id="tspan31"><tspan
         dx="0.000000"
         dy="0.000000"
         style="fill:#000000;font-size:1.062500px;font-style:normal;font-variant:normal;font-weight:400;font-stretch:Normal;font-family:Arial;"
         id="tspan29">CONSOLE</tspan></tspan></text>
  <text
     xml:space="preserve"
     style="font-size:1.062500px;font-style:normal;font-variant:normal;font-weight:400;font-stretch:Normal;line-height:125.000000%;letter-spacing:0px;word-spacing:0px;fill:#000000;fill-opacity:1;stroke:none;font-family:Arial;text-align:start;text-anchor:start;"
     transform="matrix(1.000000,-0.000000,0.000000,1.000000,7.568550,9.255567)"
     x="11.764973"
     y="0.774563"
     id="text39"><tspan
       x="11.764973"
       y="0.774563"
       id="tspan37"><tspan
         dx="0.000000"
         dy="0.000000"
         style="fill:#000000;font-size:1.062500px;font-style:normal;font-variant:normal;font-weight:400;font-stretch:Normal;font-family:Arial;"
         id="tspan35">WAN</tspan></tspan></text>
  <path
     style="fill:#83ff00;fill-rule:evenodd;fill-opacity:1;stroke:#000000;stroke-width:0.018088799px;stroke-linecap:round;stroke-linejoin:round;stroke-miterlimit:4;stroke-dasharray:none;stroke-opacity:1;"
     d="  M 21.09154,8.6513494   L 20.078568,8.6513494   L 20.078568,9.0682818   L 21.09154,9.0682818   L 21.09154,8.6513494   z "
     id="path41" />
  <text
     xml:space="preserve"
     style="font-size:1.062500px;font-style:normal;font-variant:normal;font-weight:400;font-stretch:Normal;line-height:125.000000%;letter-spacing:0px;word-spacing:0px;fill:#000000;fill-opacity:1;stroke:none;font-family:Arial;text-align:start;text-anchor:start;"
     transform="matrix(1.000000,-0.000000,0.000000,1.000000,25.253477,9.255567)"
     x="0.000000"
     y="0.774563"
     id="text47"><tspan
       x="0.000000"
       y="0.774563"
       id="tspan45"><tspan
         dx="0.000000"
         dy="0.000000"
         style="fill:#000000;font-size:1.062500px;font-style:normal;font-variant:normal;font-weight:400;font-stretch:Normal;font-family:Arial;"
         id="tspan43">1</tspan></tspan></text>
  <path
     style="fill:#83ff00;fill-rule:evenodd;fill-opacity:1;stroke:#000000;stroke-width:0.018088799px;stroke-linecap:round;stroke-linejoin:round;stroke-miterlimit:4;stroke-dasharray:none;stroke-opacity:1;"
     d="  M 26.192582,8.6513494   L 25.179609,8.6513494   L 25.179609,9.0682818   L 26.192582,9.0682818   L 26.192582,8.6513494   z "
     id="path49" />
  <text
     xml:space="preserve"
     style="font-size:1.062500px;font-style:normal;font-variant:normal;font-weight:400;font-stretch:Normal;line-height:125.000000%;letter-spacing:0px;word-spacing:0px;fill:#000000;fill-opacity:1;stroke:none;font-family:Arial;text-align:start;text-anchor:start;"
     transform="matrix(1.000000,-0.000000,0.000000,1.000000,30.274198,9.255567)"
     x="0.000000"
     y="0.774563"
     id="text55"><tspan
       x="0.000000"
       y="0.774563"
       id="tspan53"><tspan
         dx="0.000000"
         dy="0.000000"
         style="fill:#000000;font-size:1.062500px;font-style:normal;font-variant:normal;font-weight:400;font-stretch:Normal;font-family:Arial;"
         id="tspan51">2</tspan></tspan></text>
  <path
     style="fill:#83ff00;fill-rule:evenodd;fill-opacity:1;stroke:#000000;stroke-width:0.018088799px;stroke-linecap:round;stroke-linejoin:round;stroke-miterlimit:4;stroke-dasharray:none;stroke-opacity:1;"
     d="  M 31.221268,8.6513494   L 30.208295,8.6513494   L 30.208295,9.0682818   L 31.221268,9.0682818   L 31.221268,8.6513494   z "
     id="path57" />
  <text
     xml:space="preserve"
     style="font-size:1.062500px;font-style:normal;font-variant:normal;font-weight:400;font-stretch:Normal;line-height:125.000000%;letter-spacing:0px;word-spacing:0px;fill:#000000;fill-opacity:1;stroke:none;font-family:Arial;text-align:start;text-anchor:start;"
     transform="matrix(1.000000,-0.000000,0.000000,1.000000,40.390576,9.255567)"
     x="0.000000"
     y="0.774563"
     id="text63"><tspan
       x="0.000000"
       y="0.774563"
       id="tspan61"><tspan
         dx="0.000000"
         dy="0.000000"
         style="fill:#000000;font-size:1.062500px;font-style:normal;font-variant:normal;font-weight:400;font-stretch:Normal;font-family:Arial;"
         id="tspan59">4</tspan></tspan></text>
  <path
     style="fill:#83ff00;fill-rule:evenodd;fill-opacity:1;stroke:#000000;stroke-width:0.018088799px;stroke-linecap:round;stroke-linejoin:round;stroke-miterlimit:4;stroke-dasharray:none;stroke-opacity:1;"
     d="  M 41.332907,8.6513494   L 40.319934,8.6513494   L 40.319934,9.0682818   L 41.332907,9.0682818   L 41.332907,8.6513494   z "
     id="path65" />
  <text
     xml:space="preserve"
     style="font-size:1.062500px;font-style:normal;font-variant:normal;font-weight:400;font-stretch:Normal;line-height:125.000000%;letter-spacing:0px;word-spacing:0px;fill:#000000;fill-opacity:1;stroke:none;font-family:Arial;text-align:start;text-anchor:start;"
     transform="matrix(1.000000,-0.000000,0.000000,1.000000,35.369855,9.255567)"
     x="0.000000"
     y="0.774563"
     id="text71"><tspan
       x="0.000000"
       y="0.774563"
       id="tspan69"><tspan
         dx="0.000000"
         dy="0.000000"
         style="fill:#000000;font-size:1.062500px;font-style:normal;font-variant:normal;font-weight:400;font-stretch:Normal;font-family:Arial;"
         id="tspan67">3</tspan></tspan></text>
  <path
     style="fill:#83ff00;fill-rule:evenodd;fill-opacity:1;stroke:#000000;stroke-width:0.018088799px;stroke-linecap:round;stroke-linejoin:round;stroke-miterlimit:4;stroke-dasharray:none;stroke-opacity:1;"
     d="  M 36.304221,8.6513494   L 35.291248,8.6513494   L 35.291248,9.0682818   L 36.304221,9.0682818   L 36.304221,8.6513494   z "
     id="path73" />
  <text
     xml:space="preserve"
     style="font-size:0.812500px;font-style:normal;font-variant:normal;font-weight:400;font-stretch:Normal;line-height:125.000000%;letter-spacing:0px;word-spacing:0px;fill:#000000;fill-opacity:1;stroke:none;font-family:Arial;text-align:start;text-anchor:start;"
     transform="matrix(1.000000,-0.000000,0.000000,1.000000,39.416406,2.257455)"
     x="0.000000"
     y="0.592313"
     id="text79"><tspan
       x="0.000000"
       y="0.592313"
       id="tspan77"><tspan
         dx="0.000000"
         dy="0.000000"
         style="fill:#FFFFFF;font-size:0.812500px;font-style:normal;font-variant:normal;font-weight:400;font-stretch:Normal;font-family:Arial;"
         id="tspan75">POE PD</tspan></tspan></text>
  <text
     xml:space="preserve"
     style="font-size:1.062500px;font-style:normal;font-variant:normal;font-weight:400;font-stretch:Normal;line-height:125.000000%;letter-spacing:0px;word-spacing:0px;fill:#000000;fill-opacity:1;stroke:none;font-family:Arial;text-align:start;text-anchor:start;"
     transform="matrix(1.000000,-0.000000,0.000000,1.000000,39.416406,2.257455)"
     x="6.144763"
     y="7.772674"
     id="text85"><tspan
       x="6.144763"
       y="7.772674"
       id="tspan83"><tspan
         dx="0.000000"
         dy="0.000000"
         style="fill:#000000;font-size:1.062500px;font-style:normal;font-variant:normal;font-weight:400;font-stretch:Normal;font-family:Arial;"
         id="tspan81">12VDC</tspan></tspan></text>
  <ellipse
     style="fill:#000000;fill-rule:evenodd;fill-opacity:1;stroke:#000000;stroke-width:0.077510275px;stroke-linecap:round;stroke-linejoin:round;stroke-miterlimit:4;stroke-dasharray:none;stroke-opacity:1;"
     cx="14.447915"
     cy="9.6213325"
     rx="0.10851439"
     ry="0.10076336"
     id="ellipse87" />
  <ellipse
     style="fill:none;stroke:#000000;stroke-width:0.077510275px;stroke-linecap:round;stroke-linejoin:round;stroke-miterlimit:4;stroke-dasharray:none;stroke-opacity:1;"
     cx="14.447915"
     cy="9.6213325"
     rx="0.10851439"
     ry="0.10076336"
     id="ellipse89" />
  <path
     style="fill:none;stroke:#000000;stroke-width:0.077510275px;stroke-linecap:round;stroke-linejoin:round;stroke-miterlimit:4;stroke-dasharray:none;stroke-opacity:1;"
     d="  M 14.695948,9.7014495   L 16.137639,9.7014495  "
     id="path91" />
  <path
     style="fill:none;stroke:#000000;stroke-width:0.077510275px;stroke-linecap:round;stroke-linejoin:round;stroke-miterlimit:4;stroke-dasharray:none;stroke-opacity:1;"
     d="  M 14.881973,9.7014495   L 15.192014,9.4101147   L 15.564063,9.4101147  "
     id="path93" />
  <path
     style="fill:none;stroke:#000000;stroke-width:0.077510275px;stroke-linecap:round;stroke-linejoin:round;stroke-miterlimit:4;stroke-dasharray:none;stroke-opacity:1;"
     d="  M 15.145508,9.7014495   L 15.455549,9.9927843   L 15.68808,9.9927843  "
     id="path95" />
  <ellipse
     style="fill:#000000;fill-rule:evenodd;fill-opacity:1;stroke:#000000;stroke-width:0.077510275px;stroke-linecap:round;stroke-linejoin:round;stroke-miterlimit:4;stroke-dasharray:none;stroke-opacity:1;"
     cx="15.595068"
     cy="9.3299976"
     rx="0.046506166"
     ry="0.038755138"
     id="ellipse97" />
  <ellipse
     style="fill:none;stroke:#000000;stroke-width:0.077510275px;stroke-linecap:round;stroke-linejoin:round;stroke-miterlimit:4;stroke-dasharray:none;stroke-opacity:1;"
     cx="15.595068"
     cy="9.3299976"
     rx="0.046506166"
     ry="0.038755138"
     id="ellipse99" />
  <path
     style="fill:#000000;fill-rule:evenodd;fill-opacity:1;stroke:#000000;stroke-width:0.077510275px;stroke-linecap:round;stroke-linejoin:round;stroke-miterlimit:4;stroke-dasharray:none;stroke-opacity:1;"
     d="  M 15.920611,9.8908172   L 15.68808,9.8908172   L 15.68808,10.109318   L 15.920611,10.109318   L 15.920611,9.8908172   z "
     id="path101" />
  <path
     style="fill:#000000;fill-rule:evenodd;fill-opacity:1;stroke:#000000;stroke-width:0.077510275px;stroke-linecap:round;stroke-linejoin:round;stroke-miterlimit:4;stroke-dasharray:none;stroke-opacity:1;"
     d="  M 16.494187,9.7014495   L 16.137639,9.5849156   L 16.137639,9.8179835   L 16.494187,9.7014495   z "
     id="path103" />
  <path
     style="fill:#1e82b5;fill-rule:evenodd;fill-opacity:1;stroke:#161616;stroke-width:0.017137293px;stroke-linecap:round;stroke-linejoin:round;stroke-miterlimit:4;stroke-dasharray:none;stroke-opacity:1;"
     d="  M 8.0202532,7.6445977   L 8.0202532,4.6002889   L 9.1170399,4.6002889   L 9.1170399,4.194381   L 9.5626095,4.194381   L 9.5626095,3.8392117   L 10.865044,3.8392117   L 10.865044,4.194381   L 11.310613,4.194381   L 11.310613,4.6002889   L 12.4074,4.6002889   L 12.4074,7.6445977   L 11.824732,7.6445977   L 11.824732,7.1203001   L 8.6029211,7.1203001   L 8.6029211,7.6445977   L 8.0202532,7.6445977   z "
     id="path105" />
  <path
     style="fill:#d6d6b1;fill-rule:evenodd;fill-opacity:1;stroke:#000000;stroke-width:0.017137293px;stroke-linecap:round;stroke-linejoin:round;stroke-miterlimit:4;stroke-dasharray:none;stroke-opacity:1;"
     d="  M 8.8599805,7.0188231   L 8.7057449,7.0188231   L 8.7057449,7.1033872   L 8.8599805,7.1033872   L 8.8599805,7.0188231   z "
     id="path107" />
  <path
     style="fill:#d6d6b1;fill-rule:evenodd;fill-opacity:1;stroke:#000000;stroke-width:0.017137293px;stroke-linecap:round;stroke-linejoin:round;stroke-miterlimit:4;stroke-dasharray:none;stroke-opacity:1;"
     d="  M 9.2541383,7.0188231   L 9.0999026,7.0188231   L 9.0999026,7.1033872   L 9.2541383,7.1033872   L 9.2541383,7.0188231   z "
     id="path109" />
  <path
     style="fill:#d6d6b1;fill-rule:evenodd;fill-opacity:1;stroke:#000000;stroke-width:0.017137293px;stroke-linecap:round;stroke-linejoin:round;stroke-miterlimit:4;stroke-dasharray:none;stroke-opacity:1;"
     d="  M 9.6654333,7.0188231   L 9.5111977,7.0188231   L 9.5111977,7.1033872   L 9.6654333,7.1033872   L 9.6654333,7.0188231   z "
     id="path111" />
  <path
     style="fill:#d6d6b1;fill-rule:evenodd;fill-opacity:1;stroke:#000000;stroke-width:0.017137293px;stroke-linecap:round;stroke-linejoin:round;stroke-miterlimit:4;stroke-dasharray:none;stroke-opacity:1;"
     d="  M 10.076728,7.0188231   L 9.9224927,7.0188231   L 9.9224927,7.1033872   L 10.076728,7.1033872   L 10.076728,7.0188231   z "
     id="path113" />
  <path
     style="fill:#d6d6b1;fill-rule:evenodd;fill-opacity:1;stroke:#000000;stroke-width:0.017137293px;stroke-linecap:round;stroke-linejoin:round;stroke-miterlimit:4;stroke-dasharray:none;stroke-opacity:1;"
     d="  M 10.488023,7.0188231   L 10.333788,7.0188231   L 10.333788,7.1033872   L 10.488023,7.1033872   L 10.488023,7.0188231   z "
     id="path115" />
  <path
     style="fill:#d6d6b1;fill-rule:evenodd;fill-opacity:1;stroke:#000000;stroke-width:0.017137293px;stroke-linecap:round;stroke-linejoin:round;stroke-miterlimit:4;stroke-dasharray:none;stroke-opacity:1;"
     d="  M 10.899318,7.0188231   L 10.745083,7.0188231   L 10.745083,7.1033872   L 10.899318,7.1033872   L 10.899318,7.0188231   z "
     id="path117" />
  <path
     style="fill:#d6d6b1;fill-rule:evenodd;fill-opacity:1;stroke:#000000;stroke-width:0.017137293px;stroke-linecap:round;stroke-linejoin:round;stroke-miterlimit:4;stroke-dasharray:none;stroke-opacity:1;"
     d="  M 11.310613,7.0188231   L 11.156378,7.0188231   L 11.156378,7.1033872   L 11.310613,7.1033872   L 11.310613,7.0188231   z "
     id="path119" />
  <path
     style="fill:#d6d6b1;fill-rule:evenodd;fill-opacity:1;stroke:#000000;stroke-width:0.017137293px;stroke-linecap:round;stroke-linejoin:round;stroke-miterlimit:4;stroke-dasharray:none;stroke-opacity:1;"
     d="  M 11.739046,7.0188231   L 11.58481,7.0188231   L 11.58481,7.1033872   L 11.739046,7.1033872   L 11.739046,7.0188231   z "
     id="path121" />
  <path
     style="fill:#bfbfbf;fill-rule:evenodd;fill-opacity:1;stroke:#7f7f7f;stroke-width:0.018289726px;stroke-linecap:round;stroke-linejoin:round;stroke-miterlimit:4;stroke-dasharray:none;stroke-opacity:1;"
     d="  M 14.394014,8.1663123   L 14.394014,8.1849996   L 14.394014,8.2036868   L 14.394014,8.222374   L 14.412304,8.222374   L 14.412304,8.2410612   L 14.412304,8.2597484   L 14.430594,8.2784356   L 14.430594,8.2971228   L 14.448883,8.2971228   L 14.448883,8.31581   L 14.467173,8.31581   L 14.467173,8.3344973   L 14.485463,8.3344973   L 14.503753,8.3531845   L 14.522042,8.3531845   L 14.540332,8.3531845   L 14.540332,8.3718717   L 14.558622,8.3718717   L 14.576912,8.3718717   L 14.595201,8.3718717   L 14.613491,8.3718717   L 14.631781,8.3718717   L 14.66836,8.3718717   L 14.70494,8.3718717   L 14.741519,8.3718717   L 14.796388,8.3718717   L 14.851257,8.3718717   L 14.924416,8.3718717   L 14.979285,8.3718717   L 15.052444,8.3718717   L 15.125603,8.3718717   L 15.198762,8.3718717   L 15.271921,8.3718717   L 15.36337,8.3718717   L 15.436529,8.3718717   L 15.509688,8.3718717   L 15.601136,8.3718717   L 15.674295,8.3718717   L 15.747454,8.3718717   L 15.820613,8.3718717   L 15.893772,8.3718717   L 15.948641,8.3718717   L 16.0218,8.3718717   L 16.076669,8.3718717   L 16.131538,8.3718717   L 16.168118,8.3718717   L 16.204697,8.3718717   L 16.241277,8.3718717   L 16.259566,8.3718717   L 16.277856,8.3718717   L 16.296146,8.3718717   L 16.314435,8.3718717   L 16.332725,8.3718717   L 16.332725,8.3531845   L 16.351015,8.3531845   L 16.369305,8.3531845   L 16.387594,8.3344973   L 16.405884,8.3344973   L 16.405884,8.31581   L 16.424174,8.31581   L 16.424174,8.2971228   L 16.442464,8.2971228   L 16.442464,8.2784356   L 16.460753,8.2597484   L 16.460753,8.2410612   L 16.460753,8.222374   L 16.479043,8.222374   L 16.479043,8.2036868   L 16.479043,8.1849996   L 16.479043,8.1663123   L 16.479043,8.1476251   L 16.479043,8.1102507   L 16.479043,8.0541891   L 16.479043,7.9794402   L 16.479043,7.8673169   L 16.479043,7.7365064   L 16.479043,7.6056959   L 16.479043,7.4561982   L 16.479043,7.2880133   L 16.479043,7.1011412   L 16.479043,6.914269   L 16.479043,6.7273969   L 16.479043,6.5218375   L 16.479043,6.3162782   L 16.479043,6.0920316   L 16.479043,5.8864723   L 16.479043,5.6809129   L 16.479043,5.4566664   L 16.479043,5.251107   L 16.479043,5.0455477   L 16.479043,4.8586755   L 16.479043,4.6718034   L 16.479043,4.4849313   L 16.479043,4.3167463   L 16.479043,4.1672486   L 16.479043,4.0364381   L 16.479043,3.9056276   L 16.479043,3.7935044   L 16.479043,3.7187555   L 16.479043,3.6626939   L 16.479043,3.6253194   L 16.479043,3.6066322   L 16.479043,3.587945   L 16.479043,3.5692578   L 16.479043,3.5505706   L 16.460753,3.5505706   L 16.460753,3.5318834   L 16.460753,3.5131962   L 16.442464,3.4945089   L 16.442464,3.4758217   L 16.424174,3.4758217   L 16.424174,3.4571345   L 16.405884,3.4571345   L 16.405884,3.4384473   L 16.387594,3.4384473   L 16.369305,3.4197601   L 16.351015,3.4197601   L 16.332725,3.4197601   L 16.332725,3.4010729   L 16.314435,3.4010729   L 16.296146,3.4010729   L 16.277856,3.4010729   L 16.259566,3.4010729   L 16.241277,3.4010729   L 16.204697,3.4010729   L 16.168118,3.4010729   L 16.131538,3.4010729   L 16.076669,3.4010729   L 16.0218,3.4010729   L 15.948641,3.4010729   L 15.893772,3.4010729   L 15.820613,3.4010729   L 15.747454,3.4010729   L 15.674295,3.4010729   L 15.601136,3.4010729   L 15.509688,3.4010729   L 15.436529,3.4010729   L 15.36337,3.4010729   L 15.271921,3.4010729   L 15.198762,3.4010729   L 15.125603,3.4010729   L 15.052444,3.4010729   L 14.979285,3.4010729   L 14.924416,3.4010729   L 14.851257,3.4010729   L 14.796388,3.4010729   L 14.741519,3.4010729   L 14.70494,3.4010729   L 14.66836,3.4010729   L 14.631781,3.4010729   L 14.613491,3.4010729   L 14.595201,3.4010729   L 14.576912,3.4010729   L 14.558622,3.4010729   L 14.540332,3.4010729   L 14.540332,3.4197601   L 14.522042,3.4197601   L 14.503753,3.4197601   L 14.485463,3.4384473   L 14.467173,3.4384473   L 14.467173,3.4571345   L 14.448883,3.4571345   L 14.448883,3.4758217   L 14.430594,3.4758217   L 14.430594,3.4945089   L 14.412304,3.5131962   L 14.412304,3.5318834   L 14.412304,3.5505706   L 14.394014,3.5505706   L 14.394014,3.5692578   L 14.394014,3.587945   L 14.394014,3.6066322   L 14.394014,3.6253194   L 14.394014,3.6626939   L 14.394014,3.7187555   L 14.394014,3.7935044   L 14.394014,3.9056276   L 14.394014,4.0364381   L 14.394014,4.1672486   L 14.394014,4.3167463   L 14.394014,4.4849313   L 14.394014,4.6718034   L 14.394014,4.8586755   L 14.394014,5.0455477   L 14.394014,5.251107   L 14.394014,5.4566664   L 14.394014,5.6809129   L 14.394014,5.8864723   L 14.394014,6.0920316   L 14.394014,6.3162782   L 14.394014,6.5218375   L 14.394014,6.7273969   L 14.394014,6.914269   L 14.394014,7.1011412   L 14.394014,7.2880133   L 14.394014,7.4561982   L 14.394014,7.6056959   L 14.394014,7.7365064   L 14.394014,7.8673169   L 14.394014,7.9794402   L 14.394014,8.0541891   L 14.394014,8.1102507   L 14.394014,8.1476251   L 14.394014,8.1663123   z "
     id="path123" />
  <path
     style="fill:#7f7f7f;fill-rule:evenodd;fill-opacity:1;stroke:#bfbfbf;stroke-width:0.018289726px;stroke-linecap:round;stroke-linejoin:round;stroke-miterlimit:4;stroke-dasharray:none;stroke-opacity:1;"
     d="  M 14.558622,8.0915635   L 14.558622,8.1102507   L 14.558622,8.1289379   L 14.558622,8.1476251   L 14.576912,8.1476251   L 14.576912,8.1663123   L 14.595201,8.1849996   L 14.613491,8.1849996   L 14.613491,8.2036868   L 14.631781,8.2036868   L 14.65007,8.2036868   L 14.66836,8.2036868   L 14.68665,8.2036868   L 14.70494,8.2036868   L 14.741519,8.2036868   L 14.778099,8.2036868   L 14.814678,8.2036868   L 14.851257,8.2036868   L 14.906127,8.2036868   L 14.960996,8.2036868   L 15.034155,8.2036868   L 15.089024,8.2036868   L 15.162183,8.2036868   L 15.235342,8.2036868   L 15.308501,8.2036868   L 15.381659,8.2036868   L 15.454818,8.2036868   L 15.509688,8.2036868   L 15.582846,8.2036868   L 15.656005,8.2036868   L 15.729164,8.2036868   L 15.802323,8.2036868   L 15.857192,8.2036868   L 15.930351,8.2036868   L 15.98522,8.2036868   L 16.04009,8.2036868   L 16.076669,8.2036868   L 16.113249,8.2036868   L 16.149828,8.2036868   L 16.186407,8.2036868   L 16.204697,8.2036868   L 16.222987,8.2036868   L 16.241277,8.2036868   L 16.259566,8.2036868   L 16.277856,8.1849996   L 16.296146,8.1849996   L 16.296146,8.1663123   L 16.314435,8.1663123   L 16.314435,8.1476251   L 16.332725,8.1289379   L 16.332725,8.1102507   L 16.332725,8.0915635   L 16.332725,8.0728763   L 16.332725,8.0355018   L 16.332725,7.9794402   L 16.332725,7.9046913   L 16.332725,7.7925681   L 16.332725,7.6804448   L 16.332725,7.5496343   L 16.332725,7.4001366   L 16.332725,7.2319517   L 16.332725,7.0637667   L 16.332725,6.8768946   L 16.332725,6.6900225   L 16.332725,6.4844631   L 16.332725,6.297591   L 16.332725,6.0920316   L 16.332725,5.8864723   L 16.332725,5.6622257   L 16.332725,5.4566664   L 16.332725,5.2697942   L 16.332725,5.0642349   L 16.332725,4.8773627   L 16.332725,4.6904906   L 16.332725,4.5223057   L 16.332725,4.3541208   L 16.332725,4.2046231   L 16.332725,4.0738126   L 16.332725,3.9616893   L 16.332725,3.849566   L 16.332725,3.7748171   L 16.332725,3.7187555   L 16.332725,3.6813811   L 16.332725,3.6626939   L 16.332725,3.6440067   L 16.332725,3.6253194   L 16.314435,3.6253194   L 16.314435,3.6066322   L 16.296146,3.6066322   L 16.296146,3.587945   L 16.277856,3.587945   L 16.259566,3.5692578   L 16.241277,3.5692578   L 16.222987,3.5692578   L 16.204697,3.5692578   L 16.186407,3.5692578   L 16.149828,3.5692578   L 16.113249,3.5692578   L 16.076669,3.5692578   L 16.04009,3.5692578   L 15.98522,3.5692578   L 15.930351,3.5692578   L 15.857192,3.5692578   L 15.802323,3.5692578   L 15.729164,3.5692578   L 15.656005,3.5692578   L 15.582846,3.5692578   L 15.509688,3.5692578   L 15.454818,3.5692578   L 15.381659,3.5692578   L 15.308501,3.5692578   L 15.235342,3.5692578   L 15.162183,3.5692578   L 15.089024,3.5692578   L 15.034155,3.5692578   L 14.960996,3.5692578   L 14.906127,3.5692578   L 14.851257,3.5692578   L 14.814678,3.5692578   L 14.778099,3.5692578   L 14.741519,3.5692578   L 14.70494,3.5692578   L 14.68665,3.5692578   L 14.66836,3.5692578   L 14.65007,3.5692578   L 14.631781,3.5692578   L 14.613491,3.5692578   L 14.613491,3.587945   L 14.595201,3.587945   L 14.576912,3.6066322   L 14.576912,3.6253194   L 14.558622,3.6253194   L 14.558622,3.6440067   L 14.558622,3.6626939   L 14.558622,3.6813811   L 14.558622,3.7187555   L 14.558622,3.7748171   L 14.558622,3.849566   L 14.558622,3.9616893   L 14.558622,4.0738126   L 14.558622,4.2046231   L 14.558622,4.3541208   L 14.558622,4.5223057   L 14.558622,4.6904906   L 14.558622,4.8773627   L 14.558622,5.0642349   L 14.558622,5.2697942   L 14.558622,5.4566664   L 14.558622,5.6622257   L 14.558622,5.8864723   L 14.558622,6.0920316   L 14.558622,6.297591   L 14.558622,6.4844631   L 14.558622,6.6900225   L 14.558622,6.8768946   L 14.558622,7.0637667   L 14.558622,7.2319517   L 14.558622,7.4001366   L 14.558622,7.5496343   L 14.558622,7.6804448   L 14.558622,7.7925681   L 14.558622,7.9046913   L 14.558622,7.9794402   L 14.558622,8.0355018   L 14.558622,8.0728763   L 14.558622,8.0915635   z "
     id="path125" />
  <path
     style="fill:#bfbfbf;fill-rule:evenodd;fill-opacity:1;stroke:#bfbfbf;stroke-width:0.018289726px;stroke-linecap:round;stroke-linejoin:round;stroke-miterlimit:4;stroke-dasharray:none;stroke-opacity:1;"
     d="  M 15.546267,7.1011412   L 15.546267,7.5122599   L 15.454818,7.5122599   L 15.454818,7.1011412   L 15.546267,7.1011412   z "
     id="path127" />
  <path
     style="fill:#bfbfbf;fill-rule:evenodd;fill-opacity:1;stroke:#bfbfbf;stroke-width:0.018289726px;stroke-linecap:round;stroke-linejoin:round;stroke-miterlimit:4;stroke-dasharray:none;stroke-opacity:1;"
     d="  M 15.546267,6.1667805   L 15.546267,6.5778992   L 15.454818,6.5778992   L 15.454818,6.1667805   L 15.546267,6.1667805   z "
     id="path129" />
  <path
     style="fill:#bfbfbf;fill-rule:evenodd;fill-opacity:1;stroke:#bfbfbf;stroke-width:0.018289726px;stroke-linecap:round;stroke-linejoin:round;stroke-miterlimit:4;stroke-dasharray:none;stroke-opacity:1;"
     d="  M 15.546267,5.251107   L 15.546267,5.6622257   L 15.454818,5.6622257   L 15.454818,5.251107   L 15.546267,5.251107   z "
     id="path131" />
  <path
     style="fill:#bfbfbf;fill-rule:evenodd;fill-opacity:1;stroke:#bfbfbf;stroke-width:0.018289726px;stroke-linecap:round;stroke-linejoin:round;stroke-miterlimit:4;stroke-dasharray:none;stroke-opacity:1;"
     d="  M 15.546267,4.2980591   L 15.546267,4.7091778   L 15.454818,4.7091778   L 15.454818,4.2980591   L 15.546267,4.2980591   z "
     id="path133" />
  <path
     style="fill:#bfbfbf;fill-rule:evenodd;fill-opacity:1;stroke:#bfbfbf;stroke-width:0.018289726px;stroke-linecap:round;stroke-linejoin:round;stroke-miterlimit:4;stroke-dasharray:none;stroke-opacity:1;"
     d="  M 14.979285,3.849566   L 14.942706,3.849566   L 14.906127,3.8682532   L 14.887837,3.9056276   L 14.887837,3.9430021   L 14.887837,7.8299425   L 14.887837,7.8673169   L 14.906127,7.9046913   L 14.942706,7.9233786   L 14.979285,7.9233786   L 15.36337,7.9233786   L 15.399949,7.9233786   L 15.436529,7.9046913   L 15.454818,7.8673169   L 15.454818,7.8299425   L 15.454818,3.9430021   L 15.454818,3.9056276   L 15.436529,3.8682532   L 15.399949,3.849566   L 15.36337,3.849566   L 14.979285,3.849566   z "
     id="path135" />
  <path
     style="fill:#bfbfbf;fill-rule:evenodd;fill-opacity:1;stroke:#bfbfbf;stroke-width:0.018289726px;stroke-linecap:round;stroke-linejoin:round;stroke-miterlimit:4;stroke-dasharray:none;stroke-opacity:1;"
     d="  M 15.162183,3.9990637   L 15.089024,4.0177509   L 15.052444,4.0551253   L 15.015865,4.0924998   L 14.997575,4.1672486   L 14.997575,7.6056959   L 15.015865,7.6804448   L 15.052444,7.7178192   L 15.089024,7.7551936   L 15.162183,7.7738809   L 15.235342,7.7551936   L 15.271921,7.7178192   L 15.308501,7.6804448   L 15.32679,7.6056959   L 15.32679,4.1672486   L 15.308501,4.0924998   L 15.271921,4.0551253   L 15.235342,4.0177509   L 15.162183,3.9990637   z "
     id="path137" />
  <path
     style="fill:#eaeaea;fill-rule:evenodd;fill-opacity:1;stroke:#7f7f7f;stroke-width:0.018289726px;stroke-linecap:round;stroke-linejoin:round;stroke-miterlimit:4;stroke-dasharray:none;stroke-opacity:1;"
     d="  M 14.723229,8.2036868   L 14.723229,8.222374   L 14.723229,8.2410612   L 14.723229,8.2597484   L 14.723229,8.2784356   L 14.723229,8.2971228   L 14.723229,8.31581   L 14.723229,8.3344973   L 14.723229,8.3531845   L 14.723229,8.3718717   L 14.723229,8.3905589   L 14.723229,8.4092461   L 14.741519,8.4092461   L 14.741519,8.4279333   L 14.759809,8.4279333   L 14.759809,8.4466205   L 14.778099,8.4466205   L 14.796388,8.4653078   L 14.814678,8.4653078   L 14.832968,8.4653078   L 14.851257,8.4653078   L 14.869547,8.4653078   L 14.887837,8.4653078   L 14.906127,8.4653078   L 14.942706,8.4653078   L 14.979285,8.4653078   L 15.015865,8.4653078   L 15.070734,8.4653078   L 15.107314,8.4653078   L 15.162183,8.4653078   L 15.217052,8.4653078   L 15.271921,8.4653078   L 15.32679,8.4653078   L 15.381659,8.4653078   L 15.436529,8.4653078   L 15.491398,8.4653078   L 15.546267,8.4653078   L 15.601136,8.4653078   L 15.656005,8.4653078   L 15.710875,8.4653078   L 15.765744,8.4653078   L 15.802323,8.4653078   L 15.857192,8.4653078   L 15.893772,8.4653078   L 15.930351,8.4653078   L 15.966931,8.4653078   L 15.98522,8.4653078   L 16.00351,8.4653078   L 16.0218,8.4653078   L 16.04009,8.4653078   L 16.058379,8.4653078   L 16.076669,8.4653078   L 16.094959,8.4466205   L 16.113249,8.4466205   L 16.113249,8.4279333   L 16.131538,8.4279333   L 16.131538,8.4092461   L 16.149828,8.4092461   L 16.149828,8.3905589   L 16.149828,8.3718717   L 16.149828,8.3531845   L 16.149828,8.3344973   L 16.149828,8.31581   L 16.149828,8.2971228   L 16.149828,8.2784356   L 16.149828,8.2597484   L 16.149828,8.2410612   L 16.149828,8.222374   L 16.149828,8.2036868   L 16.131538,8.2036868   L 16.113249,8.2036868   L 16.094959,8.2036868   L 16.058379,8.2036868   L 16.0218,8.2036868   L 15.966931,8.2036868   L 15.930351,8.2036868   L 15.875482,8.2036868   L 15.820613,8.2036868   L 15.765744,8.2036868   L 15.692585,8.2036868   L 15.637716,8.2036868   L 15.564557,8.2036868   L 15.509688,8.2036868   L 15.436529,8.2036868   L 15.36337,8.2036868   L 15.308501,8.2036868   L 15.235342,8.2036868   L 15.180472,8.2036868   L 15.107314,8.2036868   L 15.052444,8.2036868   L 14.997575,8.2036868   L 14.942706,8.2036868   L 14.906127,8.2036868   L 14.851257,8.2036868   L 14.814678,8.2036868   L 14.778099,8.2036868   L 14.759809,8.2036868   L 14.741519,8.2036868   L 14.723229,8.2036868   z "
     id="path139" />
  <path
     style="fill:#eaeaea;fill-rule:evenodd;fill-opacity:1;stroke:#7f7f7f;stroke-width:0.018289726px;stroke-linecap:round;stroke-linejoin:round;stroke-miterlimit:4;stroke-dasharray:none;stroke-opacity:1;"
     d="  M 14.723229,3.5692578   L 14.723229,3.5505706   L 14.723229,3.5318834   L 14.723229,3.5131962   L 14.723229,3.4945089   L 14.723229,3.4758217   L 14.723229,3.4571345   L 14.723229,3.4384473   L 14.723229,3.4197601   L 14.723229,3.4010729   L 14.723229,3.3823857   L 14.723229,3.3636984   L 14.741519,3.3636984   L 14.741519,3.3450112   L 14.759809,3.3450112   L 14.759809,3.326324   L 14.778099,3.326324   L 14.796388,3.3076368   L 14.814678,3.3076368   L 14.832968,3.3076368   L 14.851257,3.3076368   L 14.869547,3.3076368   L 14.887837,3.3076368   L 14.906127,3.3076368   L 14.942706,3.3076368   L 14.979285,3.3076368   L 15.015865,3.3076368   L 15.070734,3.3076368   L 15.107314,3.3076368   L 15.162183,3.3076368   L 15.217052,3.3076368   L 15.271921,3.3076368   L 15.32679,3.3076368   L 15.381659,3.3076368   L 15.436529,3.3076368   L 15.491398,3.3076368   L 15.546267,3.3076368   L 15.601136,3.3076368   L 15.656005,3.3076368   L 15.710875,3.3076368   L 15.765744,3.3076368   L 15.802323,3.3076368   L 15.857192,3.3076368   L 15.893772,3.3076368   L 15.930351,3.3076368   L 15.966931,3.3076368   L 15.98522,3.3076368   L 16.00351,3.3076368   L 16.0218,3.3076368   L 16.04009,3.3076368   L 16.058379,3.3076368   L 16.076669,3.3076368   L 16.094959,3.326324   L 16.113249,3.326324   L 16.113249,3.3450112   L 16.131538,3.3450112   L 16.131538,3.3636984   L 16.149828,3.3636984   L 16.149828,3.3823857   L 16.149828,3.4010729   L 16.149828,3.4197601   L 16.149828,3.4384473   L 16.149828,3.4571345   L 16.149828,3.4758217   L 16.149828,3.4945089   L 16.149828,3.5131962   L 16.149828,3.5318834   L 16.149828,3.5505706   L 16.149828,3.5692578   L 16.131538,3.5692578   L 16.113249,3.5692578   L 16.094959,3.5692578   L 16.058379,3.5692578   L 16.0218,3.5692578   L 15.966931,3.5692578   L 15.930351,3.5692578   L 15.875482,3.5692578   L 15.820613,3.5692578   L 15.765744,3.5692578   L 15.692585,3.5692578   L 15.637716,3.5692578   L 15.564557,3.5692578   L 15.509688,3.5692578   L 15.436529,3.5692578   L 15.36337,3.5692578   L 15.308501,3.5692578   L 15.235342,3.5692578   L 15.180472,3.5692578   L 15.107314,3.5692578   L 15.052444,3.5692578   L 14.997575,3.5692578   L 14.942706,3.5692578   L 14.906127,3.5692578   L 14.851257,3.5692578   L 14.814678,3.5692578   L 14.778099,3.5692578   L 14.759809,3.5692578   L 14.741519,3.5692578   L 14.723229,3.5692578   z "
     id="path141" />
  <path
     style="fill:#eaeaea;fill-rule:evenodd;fill-opacity:1;stroke:#7f7f7f;stroke-width:0.018289726px;stroke-linecap:round;stroke-linejoin:round;stroke-miterlimit:4;stroke-dasharray:none;stroke-opacity:1;"
     d="  M 14.558622,7.9420658   L 14.540332,7.9420658   L 14.522042,7.9420658   L 14.503753,7.9420658   L 14.485463,7.9420658   L 14.467173,7.9420658   L 14.448883,7.9420658   L 14.430594,7.9420658   L 14.412304,7.9420658   L 14.394014,7.9420658   L 14.375725,7.9420658   L 14.357435,7.9420658   L 14.357435,7.9233786   L 14.339145,7.9233786   L 14.320855,7.9233786   L 14.320855,7.9046913   L 14.320855,7.8860041   L 14.302566,7.8860041   L 14.302566,7.8673169   L 14.302566,7.8486297   L 14.302566,7.8299425   L 14.302566,7.8112553   L 14.302566,7.7925681   L 14.302566,7.7365064   L 14.302566,7.6617576   L 14.302566,7.5683215   L 14.302566,7.4748854   L 14.302566,7.3627622   L 14.302566,7.2319517   L 14.302566,7.082454   L 14.302566,6.9329562   L 14.302566,6.7834585   L 14.302566,6.6152736   L 14.302566,6.4470887   L 14.302566,6.2602166   L 14.302566,6.0920316   L 14.302566,5.9051595   L 14.302566,5.7182874   L 14.302566,5.5501024   L 14.302566,5.3632303   L 14.302566,5.1950454   L 14.302566,5.0268605   L 14.302566,4.8773627   L 14.302566,4.727865   L 14.302566,4.5783673   L 14.302566,4.4475568   L 14.302566,4.3354336   L 14.302566,4.2419975   L 14.302566,4.1485614   L 14.302566,4.0738126   L 14.302566,4.0177509   L 14.302566,3.9990637   L 14.302566,3.9803765   L 14.302566,3.9616893   L 14.302566,3.9430021   L 14.302566,3.9243149   L 14.320855,3.9243149   L 14.320855,3.9056276   L 14.339145,3.8869404   L 14.357435,3.8869404   L 14.357435,3.8682532   L 14.375725,3.8682532   L 14.394014,3.8682532   L 14.412304,3.8682532   L 14.430594,3.8682532   L 14.448883,3.8682532   L 14.467173,3.8682532   L 14.485463,3.8682532   L 14.503753,3.8682532   L 14.522042,3.8682532   L 14.540332,3.8682532   L 14.558622,3.8682532   L 14.558622,3.8869404   L 14.558622,3.9056276   L 14.558622,3.9616893   L 14.558622,4.0364381   L 14.558622,4.1298742   L 14.558622,4.2419975   L 14.558622,4.372808   L 14.558622,4.5036185   L 14.558622,4.6531162   L 14.558622,4.8213011   L 14.558622,4.989486   L 14.558622,5.157671   L 14.558622,5.3445431   L 14.558622,5.5314152   L 14.558622,5.7182874   L 14.558622,5.9051595   L 14.558622,6.0920316   L 14.558622,6.2789038   L 14.558622,6.4657759   L 14.558622,6.652648   L 14.558622,6.820833   L 14.558622,6.9890179   L 14.558622,7.1572028   L 14.558622,7.3067005   L 14.558622,7.437511   L 14.558622,7.5683215   L 14.558622,7.6804448   L 14.558622,7.7738809   L 14.558622,7.8486297   L 14.558622,7.9046913   L 14.558622,7.9233786   L 14.558622,7.9420658   z "
     id="path143" />
  <path
     style="fill:#eaeaea;fill-rule:evenodd;fill-opacity:1;stroke:#7f7f7f;stroke-width:0.018289726px;stroke-linecap:round;stroke-linejoin:round;stroke-miterlimit:4;stroke-dasharray:none;stroke-opacity:1;"
     d="  M 16.332725,7.9420658   L 16.351015,7.9420658   L 16.369305,7.9420658   L 16.387594,7.9420658   L 16.405884,7.9420658   L 16.424174,7.9420658   L 16.442464,7.9420658   L 16.460753,7.9420658   L 16.479043,7.9420658   L 16.497333,7.9420658   L 16.515622,7.9420658   L 16.533912,7.9420658   L 16.533912,7.9233786   L 16.552202,7.9233786   L 16.570492,7.9233786   L 16.570492,7.9046913   L 16.570492,7.8860041   L 16.588781,7.8860041   L 16.588781,7.8673169   L 16.588781,7.8486297   L 16.588781,7.8299425   L 16.588781,7.8112553   L 16.588781,7.7925681   L 16.588781,7.7365064   L 16.588781,7.6617576   L 16.588781,7.5683215   L 16.588781,7.4748854   L 16.588781,7.3627622   L 16.588781,7.2319517   L 16.588781,7.082454   L 16.588781,6.9329562   L 16.588781,6.7834585   L 16.588781,6.6152736   L 16.588781,6.4470887   L 16.588781,6.2602166   L 16.588781,6.0920316   L 16.588781,5.9051595   L 16.588781,5.7182874   L 16.588781,5.5501024   L 16.588781,5.3632303   L 16.588781,5.1950454   L 16.588781,5.0268605   L 16.588781,4.8773627   L 16.588781,4.727865   L 16.588781,4.5783673   L 16.588781,4.4475568   L 16.588781,4.3354336   L 16.588781,4.2419975   L 16.588781,4.1485614   L 16.588781,4.0738126   L 16.588781,4.0177509   L 16.588781,3.9990637   L 16.588781,3.9803765   L 16.588781,3.9616893   L 16.588781,3.9430021   L 16.588781,3.9243149   L 16.570492,3.9243149   L 16.570492,3.9056276   L 16.552202,3.8869404   L 16.533912,3.8869404   L 16.533912,3.8682532   L 16.515622,3.8682532   L 16.497333,3.8682532   L 16.479043,3.8682532   L 16.460753,3.8682532   L 16.442464,3.8682532   L 16.424174,3.8682532   L 16.405884,3.8682532   L 16.387594,3.8682532   L 16.369305,3.8682532   L 16.351015,3.8682532   L 16.332725,3.8682532   L 16.332725,3.8869404   L 16.332725,3.9056276   L 16.332725,3.9616893   L 16.332725,4.0364381   L 16.332725,4.1298742   L 16.332725,4.2419975   L 16.332725,4.372808   L 16.332725,4.5036185   L 16.332725,4.6531162   L 16.332725,4.8213011   L 16.332725,4.989486   L 16.332725,5.157671   L 16.332725,5.3445431   L 16.332725,5.5314152   L 16.332725,5.7182874   L 16.332725,5.9051595   L 16.332725,6.0920316   L 16.332725,6.2789038   L 16.332725,6.4657759   L 16.332725,6.652648   L 16.332725,6.820833   L 16.332725,6.9890179   L 16.332725,7.1572028   L 16.332725,7.3067005   L 16.332725,7.437511   L 16.332725,7.5683215   L 16.332725,7.6804448   L 16.332725,7.7738809   L 16.332725,7.8486297   L 16.332725,7.9046913   L 16.332725,7.9233786   L 16.332725,7.9420658   z "
     id="path145" />
  <path
     style="fill:#7f7f7f;fill-rule:evenodd;fill-opacity:1;stroke:#161616;stroke-width:0.017151767px;stroke-linecap:round;stroke-linejoin:round;stroke-miterlimit:4;stroke-dasharray:none;stroke-opacity:1;"
     d="  M 18.43815,7.6445977   L 18.43815,6.2915715   L 18.215177,6.2915715   L 18.215177,5.3782789   L 18.43815,5.3782789   L 18.43815,4.6002889   L 19.535863,4.6002889   L 19.535863,4.194381   L 19.981809,4.194381   L 19.981809,3.8392117   L 21.285343,3.8392117   L 21.285343,4.194381   L 21.731289,4.194381   L 21.731289,4.6002889   L 22.829002,4.6002889   L 22.829002,5.3782789   L 23.051975,5.3782789   L 23.051975,6.2915715   L 22.829002,6.2915715   L 22.829002,7.6445977   L 22.245842,7.6445977   L 22.245842,7.1203001   L 19.02131,7.1203001   L 19.02131,7.6445977   L 18.43815,7.6445977   z "
     id="path147" />
  <path
     style="fill:#d6d6b1;fill-rule:evenodd;fill-opacity:1;stroke:#000000;stroke-width:0.017151767px;stroke-linecap:round;stroke-linejoin:round;stroke-miterlimit:4;stroke-dasharray:none;stroke-opacity:1;"
     d="  M 19.278586,7.0188231   L 19.12422,7.0188231   L 19.12422,7.1033872   L 19.278586,7.1033872   L 19.278586,7.0188231   z "
     id="path149" />
  <path
     style="fill:#d6d6b1;fill-rule:evenodd;fill-opacity:1;stroke:#000000;stroke-width:0.017151767px;stroke-linecap:round;stroke-linejoin:round;stroke-miterlimit:4;stroke-dasharray:none;stroke-opacity:1;"
     d="  M 19.673077,7.0188231   L 19.518711,7.0188231   L 19.518711,7.1033872   L 19.673077,7.1033872   L 19.673077,7.0188231   z "
     id="path151" />
  <path
     style="fill:#d6d6b1;fill-rule:evenodd;fill-opacity:1;stroke:#000000;stroke-width:0.017151767px;stroke-linecap:round;stroke-linejoin:round;stroke-miterlimit:4;stroke-dasharray:none;stroke-opacity:1;"
     d="  M 20.084719,7.0188231   L 19.930353,7.0188231   L 19.930353,7.1033872   L 20.084719,7.1033872   L 20.084719,7.0188231   z "
     id="path153" />
  <path
     style="fill:#d6d6b1;fill-rule:evenodd;fill-opacity:1;stroke:#000000;stroke-width:0.017151767px;stroke-linecap:round;stroke-linejoin:round;stroke-miterlimit:4;stroke-dasharray:none;stroke-opacity:1;"
     d="  M 20.496362,7.0188231   L 20.341996,7.0188231   L 20.341996,7.1033872   L 20.496362,7.1033872   L 20.496362,7.0188231   z "
     id="path155" />
  <path
     style="fill:#d6d6b1;fill-rule:evenodd;fill-opacity:1;stroke:#000000;stroke-width:0.017151767px;stroke-linecap:round;stroke-linejoin:round;stroke-miterlimit:4;stroke-dasharray:none;stroke-opacity:1;"
     d="  M 20.908004,7.0188231   L 20.753638,7.0188231   L 20.753638,7.1033872   L 20.908004,7.1033872   L 20.908004,7.0188231   z "
     id="path157" />
  <path
     style="fill:#d6d6b1;fill-rule:evenodd;fill-opacity:1;stroke:#000000;stroke-width:0.017151767px;stroke-linecap:round;stroke-linejoin:round;stroke-miterlimit:4;stroke-dasharray:none;stroke-opacity:1;"
     d="  M 21.319647,7.0188231   L 21.165281,7.0188231   L 21.165281,7.1033872   L 21.319647,7.1033872   L 21.319647,7.0188231   z "
     id="path159" />
  <path
     style="fill:#d6d6b1;fill-rule:evenodd;fill-opacity:1;stroke:#000000;stroke-width:0.017151767px;stroke-linecap:round;stroke-linejoin:round;stroke-miterlimit:4;stroke-dasharray:none;stroke-opacity:1;"
     d="  M 21.731289,7.0188231   L 21.576923,7.0188231   L 21.576923,7.1033872   L 21.731289,7.1033872   L 21.731289,7.0188231   z "
     id="path161" />
  <path
     style="fill:#d6d6b1;fill-rule:evenodd;fill-opacity:1;stroke:#000000;stroke-width:0.017151767px;stroke-linecap:round;stroke-linejoin:round;stroke-miterlimit:4;stroke-dasharray:none;stroke-opacity:1;"
     d="  M 22.160083,7.0188231   L 22.005717,7.0188231   L 22.005717,7.1033872   L 22.160083,7.1033872   L 22.160083,7.0188231   z "
     id="path163" />
  <path
     style="fill:#7f7f7f;fill-rule:evenodd;fill-opacity:1;stroke:#161616;stroke-width:0.017151767px;stroke-linecap:round;stroke-linejoin:round;stroke-miterlimit:4;stroke-dasharray:none;stroke-opacity:1;"
     d="  M 23.532225,7.6445977   L 23.532225,6.2915715   L 23.309252,6.2915715   L 23.309252,5.3782789   L 23.532225,5.3782789   L 23.532225,4.6002889   L 24.629938,4.6002889   L 24.629938,4.194381   L 25.075884,4.194381   L 25.075884,3.8392117   L 26.379418,3.8392117   L 26.379418,4.194381   L 26.825364,4.194381   L 26.825364,4.6002889   L 27.923077,4.6002889   L 27.923077,5.3782789   L 28.14605,5.3782789   L 28.14605,6.2915715   L 27.923077,6.2915715   L 27.923077,7.6445977   L 27.339917,7.6445977   L 27.339917,7.1203001   L 24.115385,7.1203001   L 24.115385,7.6445977   L 23.532225,7.6445977   z "
     id="path165" />
  <path
     style="fill:#d6d6b1;fill-rule:evenodd;fill-opacity:1;stroke:#000000;stroke-width:0.017151767px;stroke-linecap:round;stroke-linejoin:round;stroke-miterlimit:4;stroke-dasharray:none;stroke-opacity:1;"
     d="  M 24.372661,7.0188231   L 24.218295,7.0188231   L 24.218295,7.1033872   L 24.372661,7.1033872   L 24.372661,7.0188231   z "
     id="path167" />
  <path
     style="fill:#d6d6b1;fill-rule:evenodd;fill-opacity:1;stroke:#000000;stroke-width:0.017151767px;stroke-linecap:round;stroke-linejoin:round;stroke-miterlimit:4;stroke-dasharray:none;stroke-opacity:1;"
     d="  M 24.767152,7.0188231   L 24.612786,7.0188231   L 24.612786,7.1033872   L 24.767152,7.1033872   L 24.767152,7.0188231   z "
     id="path169" />
  <path
     style="fill:#d6d6b1;fill-rule:evenodd;fill-opacity:1;stroke:#000000;stroke-width:0.017151767px;stroke-linecap:round;stroke-linejoin:round;stroke-miterlimit:4;stroke-dasharray:none;stroke-opacity:1;"
     d="  M 25.178794,7.0188231   L 25.024428,7.0188231   L 25.024428,7.1033872   L 25.178794,7.1033872   L 25.178794,7.0188231   z "
     id="path171" />
  <path
     style="fill:#d6d6b1;fill-rule:evenodd;fill-opacity:1;stroke:#000000;stroke-width:0.017151767px;stroke-linecap:round;stroke-linejoin:round;stroke-miterlimit:4;stroke-dasharray:none;stroke-opacity:1;"
     d="  M 25.590437,7.0188231   L 25.436071,7.0188231   L 25.436071,7.1033872   L 25.590437,7.1033872   L 25.590437,7.0188231   z "
     id="path173" />
  <path
     style="fill:#d6d6b1;fill-rule:evenodd;fill-opacity:1;stroke:#000000;stroke-width:0.017151767px;stroke-linecap:round;stroke-linejoin:round;stroke-miterlimit:4;stroke-dasharray:none;stroke-opacity:1;"
     d="  M 26.002079,7.0188231   L 25.847713,7.0188231   L 25.847713,7.1033872   L 26.002079,7.1033872   L 26.002079,7.0188231   z "
     id="path175" />
  <path
     style="fill:#d6d6b1;fill-rule:evenodd;fill-opacity:1;stroke:#000000;stroke-width:0.017151767px;stroke-linecap:round;stroke-linejoin:round;stroke-miterlimit:4;stroke-dasharray:none;stroke-opacity:1;"
     d="  M 26.413721,7.0188231   L 26.259356,7.0188231   L 26.259356,7.1033872   L 26.413721,7.1033872   L 26.413721,7.0188231   z "
     id="path177" />
  <path
     style="fill:#d6d6b1;fill-rule:evenodd;fill-opacity:1;stroke:#000000;stroke-width:0.017151767px;stroke-linecap:round;stroke-linejoin:round;stroke-miterlimit:4;stroke-dasharray:none;stroke-opacity:1;"
     d="  M 26.825364,7.0188231   L 26.670998,7.0188231   L 26.670998,7.1033872   L 26.825364,7.1033872   L 26.825364,7.0188231   z "
     id="path179" />
  <path
     style="fill:#d6d6b1;fill-rule:evenodd;fill-opacity:1;stroke:#000000;stroke-width:0.017151767px;stroke-linecap:round;stroke-linejoin:round;stroke-miterlimit:4;stroke-dasharray:none;stroke-opacity:1;"
     d="  M 27.254158,7.0188231   L 27.099792,7.0188231   L 27.099792,7.1033872   L 27.254158,7.1033872   L 27.254158,7.0188231   z "
     id="path181" />
  <path
     style="fill:#7f7f7f;fill-rule:evenodd;fill-opacity:1;stroke:#161616;stroke-width:0.017151767px;stroke-linecap:round;stroke-linejoin:round;stroke-miterlimit:4;stroke-dasharray:none;stroke-opacity:1;"
     d="  M 28.557692,7.6445977   L 28.557692,6.2915715   L 28.334719,6.2915715   L 28.334719,5.3782789   L 28.557692,5.3782789   L 28.557692,4.6002889   L 29.655405,4.6002889   L 29.655405,4.194381   L 30.101351,4.194381   L 30.101351,3.8392117   L 31.404886,3.8392117   L 31.404886,4.194381   L 31.850832,4.194381   L 31.850832,4.6002889   L 32.948545,4.6002889   L 32.948545,5.3782789   L 33.171518,5.3782789   L 33.171518,6.2915715   L 32.948545,6.2915715   L 32.948545,7.6445977   L 32.365385,7.6445977   L 32.365385,7.1203001   L 29.140852,7.1203001   L 29.140852,7.6445977   L 28.557692,7.6445977   z "
     id="path183" />
  <path
     style="fill:#d6d6b1;fill-rule:evenodd;fill-opacity:1;stroke:#000000;stroke-width:0.017151767px;stroke-linecap:round;stroke-linejoin:round;stroke-miterlimit:4;stroke-dasharray:none;stroke-opacity:1;"
     d="  M 29.398129,7.0188231   L 29.243763,7.0188231   L 29.243763,7.1033872   L 29.398129,7.1033872   L 29.398129,7.0188231   z "
     id="path185" />
  <path
     style="fill:#d6d6b1;fill-rule:evenodd;fill-opacity:1;stroke:#000000;stroke-width:0.017151767px;stroke-linecap:round;stroke-linejoin:round;stroke-miterlimit:4;stroke-dasharray:none;stroke-opacity:1;"
     d="  M 29.79262,7.0188231   L 29.638254,7.0188231   L 29.638254,7.1033872   L 29.79262,7.1033872   L 29.79262,7.0188231   z "
     id="path187" />
  <path
     style="fill:#d6d6b1;fill-rule:evenodd;fill-opacity:1;stroke:#000000;stroke-width:0.017151767px;stroke-linecap:round;stroke-linejoin:round;stroke-miterlimit:4;stroke-dasharray:none;stroke-opacity:1;"
     d="  M 30.204262,7.0188231   L 30.049896,7.0188231   L 30.049896,7.1033872   L 30.204262,7.1033872   L 30.204262,7.0188231   z "
     id="path189" />
  <path
     style="fill:#d6d6b1;fill-rule:evenodd;fill-opacity:1;stroke:#000000;stroke-width:0.017151767px;stroke-linecap:round;stroke-linejoin:round;stroke-miterlimit:4;stroke-dasharray:none;stroke-opacity:1;"
     d="  M 30.615904,7.0188231   L 30.461538,7.0188231   L 30.461538,7.1033872   L 30.615904,7.1033872   L 30.615904,7.0188231   z "
     id="path191" />
  <path
     style="fill:#d6d6b1;fill-rule:evenodd;fill-opacity:1;stroke:#000000;stroke-width:0.017151767px;stroke-linecap:round;stroke-linejoin:round;stroke-miterlimit:4;stroke-dasharray:none;stroke-opacity:1;"
     d="  M 31.027547,7.0188231   L 30.873181,7.0188231   L 30.873181,7.1033872   L 31.027547,7.1033872   L 31.027547,7.0188231   z "
     id="path193" />
  <path
     style="fill:#d6d6b1;fill-rule:evenodd;fill-opacity:1;stroke:#000000;stroke-width:0.017151767px;stroke-linecap:round;stroke-linejoin:round;stroke-miterlimit:4;stroke-dasharray:none;stroke-opacity:1;"
     d="  M 31.439189,7.0188231   L 31.284823,7.0188231   L 31.284823,7.1033872   L 31.439189,7.1033872   L 31.439189,7.0188231   z "
     id="path195" />
  <path
     style="fill:#d6d6b1;fill-rule:evenodd;fill-opacity:1;stroke:#000000;stroke-width:0.017151767px;stroke-linecap:round;stroke-linejoin:round;stroke-miterlimit:4;stroke-dasharray:none;stroke-opacity:1;"
     d="  M 31.850832,7.0188231   L 31.696466,7.0188231   L 31.696466,7.1033872   L 31.850832,7.1033872   L 31.850832,7.0188231   z "
     id="path197" />
  <path
     style="fill:#d6d6b1;fill-rule:evenodd;fill-opacity:1;stroke:#000000;stroke-width:0.017151767px;stroke-linecap:round;stroke-linejoin:round;stroke-miterlimit:4;stroke-dasharray:none;stroke-opacity:1;"
     d="  M 32.279626,7.0188231   L 32.12526,7.0188231   L 32.12526,7.1033872   L 32.279626,7.1033872   L 32.279626,7.0188231   z "
     id="path199" />
  <path
     style="fill:#7f7f7f;fill-rule:evenodd;fill-opacity:1;stroke:#161616;stroke-width:0.017151767px;stroke-linecap:round;stroke-linejoin:round;stroke-miterlimit:4;stroke-dasharray:none;stroke-opacity:1;"
     d="  M 33.651767,7.6445977   L 33.651767,6.2915715   L 33.428794,6.2915715   L 33.428794,5.3782789   L 33.651767,5.3782789   L 33.651767,4.6002889   L 34.74948,4.6002889   L 34.74948,4.194381   L 35.195426,4.194381   L 35.195426,3.8392117   L 36.49896,3.8392117   L 36.49896,4.194381   L 36.944906,4.194381   L 36.944906,4.6002889   L 38.04262,4.6002889   L 38.04262,5.3782789   L 38.265593,5.3782789   L 38.265593,6.2915715   L 38.04262,6.2915715   L 38.04262,7.6445977   L 37.459459,7.6445977   L 37.459459,7.1203001   L 34.234927,7.1203001   L 34.234927,7.6445977   L 33.651767,7.6445977   z "
     id="path201" />
  <path
     style="fill:#d6d6b1;fill-rule:evenodd;fill-opacity:1;stroke:#000000;stroke-width:0.017151767px;stroke-linecap:round;stroke-linejoin:round;stroke-miterlimit:4;stroke-dasharray:none;stroke-opacity:1;"
     d="  M 34.492204,7.0188231   L 34.337838,7.0188231   L 34.337838,7.1033872   L 34.492204,7.1033872   L 34.492204,7.0188231   z "
     id="path203" />
  <path
     style="fill:#d6d6b1;fill-rule:evenodd;fill-opacity:1;stroke:#000000;stroke-width:0.017151767px;stroke-linecap:round;stroke-linejoin:round;stroke-miterlimit:4;stroke-dasharray:none;stroke-opacity:1;"
     d="  M 34.886694,7.0188231   L 34.732328,7.0188231   L 34.732328,7.1033872   L 34.886694,7.1033872   L 34.886694,7.0188231   z "
     id="path205" />
  <path
     style="fill:#d6d6b1;fill-rule:evenodd;fill-opacity:1;stroke:#000000;stroke-width:0.017151767px;stroke-linecap:round;stroke-linejoin:round;stroke-miterlimit:4;stroke-dasharray:none;stroke-opacity:1;"
     d="  M 35.298337,7.0188231   L 35.143971,7.0188231   L 35.143971,7.1033872   L 35.298337,7.1033872   L 35.298337,7.0188231   z "
     id="path207" />
  <path
     style="fill:#d6d6b1;fill-rule:evenodd;fill-opacity:1;stroke:#000000;stroke-width:0.017151767px;stroke-linecap:round;stroke-linejoin:round;stroke-miterlimit:4;stroke-dasharray:none;stroke-opacity:1;"
     d="  M 35.709979,7.0188231   L 35.555613,7.0188231   L 35.555613,7.1033872   L 35.709979,7.1033872   L 35.709979,7.0188231   z "
     id="path209" />
  <path
     style="fill:#d6d6b1;fill-rule:evenodd;fill-opacity:1;stroke:#000000;stroke-width:0.017151767px;stroke-linecap:round;stroke-linejoin:round;stroke-miterlimit:4;stroke-dasharray:none;stroke-opacity:1;"
     d="  M 36.121622,7.0188231   L 35.967256,7.0188231   L 35.967256,7.1033872   L 36.121622,7.1033872   L 36.121622,7.0188231   z "
     id="path211" />
  <path
     style="fill:#d6d6b1;fill-rule:evenodd;fill-opacity:1;stroke:#000000;stroke-width:0.017151767px;stroke-linecap:round;stroke-linejoin:round;stroke-miterlimit:4;stroke-dasharray:none;stroke-opacity:1;"
     d="  M 36.533264,7.0188231   L 36.378898,7.0188231   L 36.378898,7.1033872   L 36.533264,7.1033872   L 36.533264,7.0188231   z "
     id="path213" />
  <path
     style="fill:#d6d6b1;fill-rule:evenodd;fill-opacity:1;stroke:#000000;stroke-width:0.017151767px;stroke-linecap:round;stroke-linejoin:round;stroke-miterlimit:4;stroke-dasharray:none;stroke-opacity:1;"
     d="  M 36.944906,7.0188231   L 36.790541,7.0188231   L 36.790541,7.1033872   L 36.944906,7.1033872   L 36.944906,7.0188231   z "
     id="path215" />
  <path
     style="fill:#d6d6b1;fill-rule:evenodd;fill-opacity:1;stroke:#000000;stroke-width:0.017151767px;stroke-linecap:round;stroke-linejoin:round;stroke-miterlimit:4;stroke-dasharray:none;stroke-opacity:1;"
     d="  M 37.373701,7.0188231   L 37.219335,7.0188231   L 37.219335,7.1033872   L 37.373701,7.1033872   L 37.373701,7.0188231   z "
     id="path217" />
  <path
     style="fill:#7f7f7f;fill-rule:evenodd;fill-opacity:1;stroke:#161616;stroke-width:0.017151767px;stroke-linecap:round;stroke-linejoin:round;stroke-miterlimit:4;stroke-dasharray:none;stroke-opacity:1;"
     d="  M 38.660083,7.6445977   L 38.660083,6.2915715   L 38.43711,6.2915715   L 38.43711,5.3782789   L 38.660083,5.3782789   L 38.660083,4.6002889   L 39.757796,4.6002889   L 39.757796,4.194381   L 40.203742,4.194381   L 40.203742,3.8392117   L 41.507277,3.8392117   L 41.507277,4.194381   L 41.953222,4.194381   L 41.953222,4.6002889   L 43.050936,4.6002889   L 43.050936,5.3782789   L 43.273909,5.3782789   L 43.273909,6.2915715   L 43.050936,6.2915715   L 43.050936,7.6445977   L 42.467775,7.6445977   L 42.467775,7.1203001   L 39.243243,7.1203001   L 39.243243,7.6445977   L 38.660083,7.6445977   z "
     id="path219" />
  <path
     style="fill:#d6d6b1;fill-rule:evenodd;fill-opacity:1;stroke:#000000;stroke-width:0.017151767px;stroke-linecap:round;stroke-linejoin:round;stroke-miterlimit:4;stroke-dasharray:none;stroke-opacity:1;"
     d="  M 39.50052,7.0188231   L 39.346154,7.0188231   L 39.346154,7.1033872   L 39.50052,7.1033872   L 39.50052,7.0188231   z "
     id="path221" />
  <path
     style="fill:#d6d6b1;fill-rule:evenodd;fill-opacity:1;stroke:#000000;stroke-width:0.017151767px;stroke-linecap:round;stroke-linejoin:round;stroke-miterlimit:4;stroke-dasharray:none;stroke-opacity:1;"
     d="  M 39.89501,7.0188231   L 39.740644,7.0188231   L 39.740644,7.1033872   L 39.89501,7.1033872   L 39.89501,7.0188231   z "
     id="path223" />
  <path
     style="fill:#d6d6b1;fill-rule:evenodd;fill-opacity:1;stroke:#000000;stroke-width:0.017151767px;stroke-linecap:round;stroke-linejoin:round;stroke-miterlimit:4;stroke-dasharray:none;stroke-opacity:1;"
     d="  M 40.306653,7.0188231   L 40.152287,7.0188231   L 40.152287,7.1033872   L 40.306653,7.1033872   L 40.306653,7.0188231   z "
     id="path225" />
  <path
     style="fill:#d6d6b1;fill-rule:evenodd;fill-opacity:1;stroke:#000000;stroke-width:0.017151767px;stroke-linecap:round;stroke-linejoin:round;stroke-miterlimit:4;stroke-dasharray:none;stroke-opacity:1;"
     d="  M 40.718295,7.0188231   L 40.563929,7.0188231   L 40.563929,7.1033872   L 40.718295,7.1033872   L 40.718295,7.0188231   z "
     id="path227" />
  <path
     style="fill:#d6d6b1;fill-rule:evenodd;fill-opacity:1;stroke:#000000;stroke-width:0.017151767px;stroke-linecap:round;stroke-linejoin:round;stroke-miterlimit:4;stroke-dasharray:none;stroke-opacity:1;"
     d="  M 41.129938,7.0188231   L 40.975572,7.0188231   L 40.975572,7.1033872   L 41.129938,7.1033872   L 41.129938,7.0188231   z "
     id="path229" />
  <path
     style="fill:#d6d6b1;fill-rule:evenodd;fill-opacity:1;stroke:#000000;stroke-width:0.017151767px;stroke-linecap:round;stroke-linejoin:round;stroke-miterlimit:4;stroke-dasharray:none;stroke-opacity:1;"
     d="  M 41.54158,7.0188231   L 41.387214,7.0188231   L 41.387214,7.1033872   L 41.54158,7.1033872   L 41.54158,7.0188231   z "
     id="path231" />
  <path
     style="fill:#d6d6b1;fill-rule:evenodd;fill-opacity:1;stroke:#000000;stroke-width:0.017151767px;stroke-linecap:round;stroke-linejoin:round;stroke-miterlimit:4;stroke-dasharray:none;stroke-opacity:1;"
     d="  M 41.953222,7.0188231   L 41.798857,7.0188231   L 41.798857,7.1033872   L 41.953222,7.1033872   L 41.953222,7.0188231   z "
     id="path233" />
  <path
     style="fill:#d6d6b1;fill-rule:evenodd;fill-opacity:1;stroke:#000000;stroke-width:0.017151767px;stroke-linecap:round;stroke-linejoin:round;stroke-miterlimit:4;stroke-dasharray:none;stroke-opacity:1;"
     d="  M 42.382017,7.0188231   L 42.227651,7.0188231   L 42.227651,7.1033872   L 42.382017,7.1033872   L 42.382017,7.0188231   z "
     id="path235" />
  <ellipse
     style="fill:#000000;fill-rule:evenodd;fill-opacity:1;stroke:#000000;stroke-width:0.018734034px;stroke-linecap:round;stroke-linejoin:round;stroke-miterlimit:4;stroke-dasharray:none;stroke-opacity:1;"
     cx="47.303435"
     cy="6.0292871"
     rx="1.2926483"
     ry="1.2832813"
     id="ellipse237" />
  <ellipse
     style="fill:none;stroke:#000000;stroke-width:0.018734034px;stroke-linecap:round;stroke-linejoin:round;stroke-miterlimit:4;stroke-dasharray:none;stroke-opacity:1;"
     cx="47.303435"
     cy="6.0292871"
     rx="1.2926483"
     ry="1.2832813"
     id="ellipse239" />
  <ellipse
     style="fill:#dddddd;fill-rule:evenodd;fill-opacity:1;stroke:#000000;stroke-width:0.018734034px;stroke-linecap:round;stroke-linejoin:round;stroke-miterlimit:4;stroke-dasharray:none;stroke-opacity:1;"
     cx="47.294068"
     cy="6.0292871"
     rx="0.47771785"
     ry="0.47771785"
     id="ellipse241" />
  <ellipse
     style="fill:none;stroke:#000000;stroke-width:0.018734034px;stroke-linecap:round;stroke-linejoin:round;stroke-miterlimit:4;stroke-dasharray:none;stroke-opacity:1;"
     cx="47.294068"
     cy="6.0292871"
     rx="0.47771785"
     ry="0.47771785"
     id="ellipse243" />
  <ellipse
     style="fill:#000000;fill-rule:evenodd;fill-opacity:1;stroke:#000000;stroke-width:0.018734034px;stroke-linecap:round;stroke-linejoin:round;stroke-miterlimit:4;stroke-dasharray:none;stroke-opacity:1;"
     cx="47.294068"
     cy="6.0292871"
     rx="0.32784559"
     ry="0.32784559"
     id="ellipse245" />
  <ellipse
     style="fill:none;stroke:#000000;stroke-width:0.018734034px;stroke-linecap:round;stroke-linejoin:round;stroke-miterlimit:4;stroke-dasharray:none;stroke-opacity:1;"
     cx="47.294068"
     cy="6.0292871"
     rx="0.32784559"
     ry="0.32784559"
     id="ellipse247" />
  <ellipse
     style="fill:#dddddd;fill-rule:evenodd;fill-opacity:1;stroke:#000000;stroke-width:0.018734034px;stroke-linecap:round;stroke-linejoin:round;stroke-miterlimit:4;stroke-dasharray:none;stroke-opacity:1;"
     cx="47.294068"
     cy="6.0292871"
     rx="0.29037752"
     ry="0.29037752"
     id="ellipse249" />
  <ellipse
     style="fill:none;stroke:#000000;stroke-width:0.018734034px;stroke-linecap:round;stroke-linejoin:round;stroke-miterlimit:4;stroke-dasharray:none;stroke-opacity:1;"
     cx="47.294068"
     cy="6.0292871"
     rx="0.29037752"
     ry="0.29037752"
     id="ellipse251" />
  <path
     style="fill:#d6d6b1;fill-rule:evenodd;fill-opacity:1;stroke:#000000;stroke-width:0.014529711px;stroke-linecap:round;stroke-linejoin:round;stroke-miterlimit:4;stroke-dasharray:none;stroke-opacity:1;"
     d="  M 60.894018,5.424443   L 60.894018,7.6408821   L 57.929957,7.6408821   L 57.929957,5.424443   L 60.894018,5.424443   z "
     id="path253" />
  <path
     style="fill:#bcbc7e;fill-rule:evenodd;fill-opacity:1;stroke:#000000;stroke-width:0.014529711px;stroke-linecap:round;stroke-linejoin:round;stroke-miterlimit:4;stroke-dasharray:none;stroke-opacity:1;"
     d="  M 57.290649,5.1182245   L 57.290649,5.1036426   L 57.290649,5.074479   L 57.290649,5.0598971   L 57.290649,5.0453153   L 57.290649,5.0161516   L 57.290649,5.0015698   L 57.290649,4.9869879   L 57.290649,4.9724061   L 57.27612,4.9432424   L 57.27612,4.9286606   L 57.27612,4.9140788   L 57.27612,4.8994969   L 57.27612,4.8849151   L 57.27612,4.8703333   L 57.26159,4.8411696   L 57.26159,4.8265877   L 57.26159,4.8120059   L 57.26159,4.7974241   L 57.26159,4.7828422   L 57.24706,4.7682604   L 57.24706,4.7536786   L 57.24706,4.7390967   L 57.24706,4.7245149   L 57.23253,4.7099331   L 57.23253,4.6953512   L 57.23253,4.6807694   L 57.218001,4.6807694   L 57.218001,4.6661876   L 57.203471,4.6661876   L 57.188941,4.6661876   L 57.174412,4.6661876   L 57.159882,4.6661876   L 57.145352,4.6661876   L 57.116293,4.6661876   L 57.101763,4.6661876   L 57.087233,4.6661876   L 57.058174,4.6661876   L 57.043644,4.6661876   L 57.014585,4.6661876   L 57.000055,4.6661876   L 56.970996,4.6661876   L 56.941936,4.6661876   L 56.927406,4.6661876   L 56.898347,4.6661876   L 56.883817,4.6661876   L 56.854758,4.6661876   L 56.840228,4.6661876   L 56.825699,4.6661876   L 56.796639,4.6661876   L 56.782109,4.6661876   L 56.76758,4.6661876   L 56.75305,4.6661876   L 56.73852,4.6661876   L 56.723991,4.6661876   L 56.723991,4.6807694   L 56.709461,4.6807694   L 56.709461,4.6953512   L 56.709461,4.7099331   L 56.694931,4.7245149   L 56.694931,4.7390967   L 56.694931,4.7536786   L 56.694931,4.7682604   L 56.680401,4.7828422   L 56.680401,4.7974241   L 56.680401,4.8120059   L 56.680401,4.8265877   L 56.680401,4.8411696   L 56.665872,4.8703333   L 56.665872,4.8849151   L 56.665872,4.8994969   L 56.665872,4.9140788   L 56.665872,4.9286606   L 56.665872,4.9432424   L 56.665872,4.9724061   L 56.651342,4.9869879   L 56.651342,5.0015698   L 56.651342,5.0161516   L 56.651342,5.0453153   L 56.651342,5.0598971   L 56.651342,5.074479   L 56.651342,5.1036426   L 56.651342,5.1182245   L 56.651342,5.1328063   L 56.651342,5.1473881   L 56.651342,5.1911337   L 56.651342,5.2348792   L 56.651342,5.3077883   L 56.651342,5.3806975   L 56.651342,5.4681885   L 56.651342,5.5556796   L 56.651342,5.6577524   L 56.651342,5.7744071   L 56.651342,5.8910618   L 56.651342,6.0077165   L 56.651342,6.138953   L 56.651342,6.2701895   L 56.651342,6.401426   L 56.651342,6.5326626   L 56.651342,6.6638991   L 56.651342,6.7951356   L 56.651342,6.9263721   L 56.651342,7.0576087   L 56.651342,7.1742634   L 56.651342,7.290918   L 56.651342,7.4075727   L 56.651342,7.5096456   L 56.651342,7.5971366   L 56.651342,7.6846276   L 56.651342,7.7575368   L 56.651342,7.830446   L 56.651342,7.8741915   L 56.651342,7.917937   L 56.651342,7.9325188   L 56.651342,7.9471007   L 56.651342,7.9616825   L 56.651342,7.9908462   L 56.651342,8.005428   L 56.651342,8.0200099   L 56.651342,8.0491735   L 56.651342,8.0637554   L 56.651342,8.0783372   L 56.665872,8.092919   L 56.665872,8.1220827   L 56.665872,8.1366645   L 56.665872,8.1512464   L 56.665872,8.1658282   L 56.665872,8.1804101   L 56.665872,8.1949919   L 56.680401,8.2241556   L 56.680401,8.2387374   L 56.680401,8.2533192   L 56.680401,8.2679011   L 56.680401,8.2824829   L 56.694931,8.2970647   L 56.694931,8.3116466   L 56.694931,8.3262284   L 56.694931,8.3408102   L 56.709461,8.3553921   L 56.709461,8.3699739   L 56.709461,8.3845558   L 56.723991,8.3845558   L 56.723991,8.3991376   L 56.73852,8.3991376   L 56.75305,8.3991376   L 56.76758,8.3991376   L 56.782109,8.3991376   L 56.796639,8.3991376   L 56.825699,8.3991376   L 56.840228,8.3991376   L 56.854758,8.3991376   L 56.883817,8.3991376   L 56.898347,8.3991376   L 56.927406,8.3991376   L 56.941936,8.3991376   L 56.970996,8.3991376   L 57.000055,8.3991376   L 57.014585,8.3991376   L 57.043644,8.3991376   L 57.058174,8.3991376   L 57.087233,8.3991376   L 57.101763,8.3991376   L 57.116293,8.3991376   L 57.145352,8.3991376   L 57.159882,8.3991376   L 57.174412,8.3991376   L 57.188941,8.3991376   L 57.203471,8.3991376   L 57.218001,8.3991376   L 57.218001,8.3845558   L 57.23253,8.3845558   L 57.23253,8.3699739   L 57.23253,8.3553921   L 57.24706,8.3408102   L 57.24706,8.3262284   L 57.24706,8.3116466   L 57.24706,8.2970647   L 57.26159,8.2824829   L 57.26159,8.2679011   L 57.26159,8.2533192   L 57.26159,8.2387374   L 57.26159,8.2241556   L 57.27612,8.1949919   L 57.27612,8.1804101   L 57.27612,8.1658282   L 57.27612,8.1512464   L 57.27612,8.1366645   L 57.27612,8.1220827   L 57.290649,8.092919   L 57.290649,8.0783372   L 57.290649,8.0637554   L 57.290649,8.0491735   L 57.290649,8.0200099   L 57.290649,8.005428   L 57.290649,7.9908462   L 57.290649,7.9616825   L 57.290649,7.9471007   L 57.290649,7.9325188   L 57.290649,7.917937   L 57.290649,7.8741915   L 57.290649,7.830446   L 57.290649,7.7575368   L 57.290649,7.6846276   L 57.290649,7.5971366   L 57.290649,7.5096456   L 57.290649,7.4075727   L 57.290649,7.290918   L 57.290649,7.1742634   L 57.290649,7.0576087   L 57.290649,6.9263721   L 57.290649,6.7951356   L 57.290649,6.6638991   L 57.290649,6.5326626   L 57.290649,6.401426   L 57.290649,6.2701895   L 57.290649,6.138953   L 57.290649,6.0077165   L 57.290649,5.8910618   L 57.290649,5.7744071   L 57.290649,5.6577524   L 57.290649,5.5556796   L 57.290649,5.4681885   L 57.290649,5.3806975   L 57.290649,5.3077883   L 57.290649,5.2348792   L 57.290649,5.1911337   L 57.290649,5.1473881   L 57.290649,5.1328063   L 57.290649,5.1182245   z "
     id="path255" />
  <path
     style="fill:#cccc9b;fill-rule:evenodd;fill-opacity:1;stroke:#a5a54c;stroke-width:0.014529711px;stroke-linecap:round;stroke-linejoin:round;stroke-miterlimit:4;stroke-dasharray:none;stroke-opacity:1;"
     d="  M 57.218001,8.3991376   L 57.218001,8.3845558   L 57.23253,8.3845558   L 57.23253,8.3699739   L 57.23253,8.3553921   L 57.24706,8.3408102   L 57.24706,8.3262284   L 57.24706,8.3116466   L 57.24706,8.2970647   L 57.26159,8.2824829   L 57.26159,8.2679011   L 57.26159,8.2533192   L 57.26159,8.2387374   L 57.26159,8.2241556   L 57.27612,8.1949919   L 57.27612,8.1804101   L 57.27612,8.1658282   L 57.27612,8.1512464   L 57.27612,8.1366645   L 57.27612,8.1220827   L 57.290649,8.092919   L 57.290649,8.0783372   L 57.290649,8.0637554   L 57.290649,8.0491735   L 57.290649,8.0200099   L 57.290649,8.005428   L 57.290649,7.9908462   L 57.290649,7.9616825   L 57.290649,7.9471007   L 57.290649,7.9325188   L 57.290649,7.917937   L 57.27612,7.9033552   L 57.27612,7.8887733   L 57.27612,7.8741915   L 57.27612,7.8596097   L 57.27612,7.8450278   L 57.27612,7.830446   L 57.27612,7.8158641   L 57.27612,7.8012823   L 57.26159,7.7867005   L 57.26159,7.7721186   L 57.26159,7.7575368   L 57.26159,7.742955   L 57.26159,7.7283731   L 57.26159,7.7137913   L 57.26159,7.6992095   L 57.26159,7.6846276   L 57.26159,7.6700458   L 57.24706,7.655464   L 57.24706,7.6408821   L 57.24706,7.6263003   L 57.24706,7.6117184   L 57.24706,7.5971366   L 57.24706,7.5825548   L 57.23253,7.5679729   L 57.23253,7.5388093   L 57.23253,7.5242274   L 57.23253,7.5096456   L 57.23253,7.4950638   L 57.218001,7.4804819   L 57.218001,7.4659001   L 57.218001,7.4367364   L 57.23253,7.4221546   L 57.23253,7.3929909   L 57.23253,7.3638272   L 57.23253,7.3346636   L 57.24706,7.3054999   L 57.24706,7.2763362   L 57.24706,7.2471725   L 57.24706,7.2180089   L 57.24706,7.1888452   L 57.26159,7.1596815   L 57.26159,7.1305179   L 57.26159,7.1013542   L 57.26159,7.0721905   L 57.26159,7.0430268   L 57.27612,7.0138632   L 57.27612,6.9846995   L 57.27612,6.9555358   L 57.27612,6.9117903   L 57.27612,6.8826266   L 57.27612,6.853463   L 57.27612,6.8242993   L 57.290649,6.7951356   L 57.290649,6.7659719   L 57.290649,6.7368083   L 57.290649,6.7076446   L 57.290649,6.6784809   L 57.290649,6.6493173   L 57.290649,6.6201536   L 57.290649,6.5909899   L 57.290649,6.5618262   L 57.290649,6.5326626   L 57.290649,6.5034989   L 57.290649,6.4743352   L 57.290649,6.4451716   L 57.290649,6.4160079   L 57.290649,6.3868442   L 57.290649,6.3576805   L 57.290649,6.3285169   L 57.290649,6.2993532   L 57.290649,6.2701895   L 57.27612,6.2410259   L 57.27612,6.2118622   L 57.27612,6.1826985   L 57.27612,6.1535348   L 57.27612,6.1097893   L 57.27612,6.0806257   L 57.27612,6.051462   L 57.26159,6.0222983   L 57.26159,5.9931346   L 57.26159,5.963971   L 57.26159,5.9348073   L 57.26159,5.9056436   L 57.24706,5.8764799   L 57.24706,5.8473163   L 57.24706,5.8181526   L 57.24706,5.7889889   L 57.24706,5.7598253   L 57.23253,5.7306616   L 57.23253,5.7014979   L 57.23253,5.6723342   L 57.23253,5.6431706   L 57.218001,5.6285887   L 57.218001,5.5994251   L 57.218001,5.5848432   L 57.23253,5.5702614   L 57.23253,5.5556796   L 57.23253,5.5410977   L 57.23253,5.5265159   L 57.23253,5.4973522   L 57.24706,5.4827704   L 57.24706,5.4681885   L 57.24706,5.4536067   L 57.24706,5.4390249   L 57.24706,5.424443   L 57.24706,5.4098612   L 57.26159,5.3952794   L 57.26159,5.3806975   L 57.26159,5.3661157   L 57.26159,5.3515338   L 57.26159,5.336952   L 57.26159,5.3223702   L 57.26159,5.3077883   L 57.26159,5.2932065   L 57.26159,5.2786247   L 57.27612,5.2640428   L 57.27612,5.249461   L 57.27612,5.2348792   L 57.27612,5.2202973   L 57.27612,5.2057155   L 57.27612,5.1911337   L 57.27612,5.1765518   L 57.27612,5.16197   L 57.290649,5.1473881   L 57.290649,5.1328063   L 57.290649,5.1182245   L 57.290649,5.1036426   L 57.290649,5.074479   L 57.290649,5.0598971   L 57.290649,5.0453153   L 57.290649,5.0161516   L 57.290649,5.0015698   L 57.290649,4.9869879   L 57.290649,4.9724061   L 57.27612,4.9432424   L 57.27612,4.9286606   L 57.27612,4.9140788   L 57.27612,4.8994969   L 57.27612,4.8849151   L 57.27612,4.8703333   L 57.26159,4.8411696   L 57.26159,4.8265877   L 57.26159,4.8120059   L 57.26159,4.7974241   L 57.26159,4.7828422   L 57.24706,4.7682604   L 57.24706,4.7536786   L 57.24706,4.7390967   L 57.24706,4.7245149   L 57.23253,4.7099331   L 57.23253,4.6953512   L 57.23253,4.6807694   L 57.218001,4.6807694   L 57.218001,4.6661876   L 57.203471,4.6661876   L 57.188941,4.6661876   L 57.174412,4.6661876   L 57.159882,4.6661876   L 57.145352,4.6661876   L 57.116293,4.6661876   L 57.101763,4.6661876   L 57.087233,4.6661876   L 57.058174,4.6661876   L 57.043644,4.6661876   L 57.014585,4.6661876   L 57.000055,4.6661876   L 56.970996,4.6661876   L 56.941936,4.6661876   L 56.927406,4.6661876   L 56.898347,4.6661876   L 56.883817,4.6661876   L 56.854758,4.6661876   L 56.840228,4.6661876   L 56.825699,4.6661876   L 56.796639,4.6661876   L 56.782109,4.6661876   L 56.76758,4.6661876   L 56.75305,4.6661876   L 56.73852,4.6661876   L 56.723991,4.6661876   L 56.723991,4.6807694   L 56.709461,4.6807694   L 56.709461,4.6953512   L 56.709461,4.7099331   L 56.694931,4.7245149   L 56.694931,4.7390967   L 56.694931,4.7536786   L 56.694931,4.7682604   L 56.680401,4.7828422   L 56.680401,4.7974241   L 56.680401,4.8120059   L 56.680401,4.8265877   L 56.680401,4.8411696   L 56.665872,4.8703333   L 56.665872,4.8849151   L 56.665872,4.8994969   L 56.665872,4.9140788   L 56.665872,4.9286606   L 56.665872,4.9432424   L 56.665872,4.9724061   L 56.651342,4.9869879   L 56.651342,5.0015698   L 56.651342,5.0161516   L 56.651342,5.0453153   L 56.651342,5.0598971   L 56.651342,5.074479   L 56.651342,5.1036426   L 56.651342,5.1182245   L 56.651342,5.1328063   L 56.651342,5.1473881   L 56.665872,5.16197   L 56.665872,5.1765518   L 56.665872,5.1911337   L 56.665872,5.2057155   L 56.665872,5.2202973   L 56.665872,5.2348792   L 56.665872,5.249461   L 56.665872,5.2640428   L 56.680401,5.2786247   L 56.680401,5.2932065   L 56.680401,5.3077883   L 56.680401,5.3223702   L 56.680401,5.336952   L 56.680401,5.3515338   L 56.680401,5.3661157   L 56.680401,5.3806975   L 56.680401,5.3952794   L 56.694931,5.4098612   L 56.694931,5.424443   L 56.694931,5.4390249   L 56.694931,5.4536067   L 56.694931,5.4681885   L 56.694931,5.4827704   L 56.709461,5.4973522   L 56.709461,5.5265159   L 56.709461,5.5410977   L 56.709461,5.5556796   L 56.709461,5.5702614   L 56.723991,5.5848432   L 56.723991,5.5994251   L 56.723991,5.6285887   L 56.709461,5.6431706   L 56.709461,5.6723342   L 56.709461,5.7014979   L 56.709461,5.7306616   L 56.694931,5.7598253   L 56.694931,5.7889889   L 56.694931,5.8181526   L 56.694931,5.8473163   L 56.694931,5.8764799   L 56.680401,5.9056436   L 56.680401,5.9348073   L 56.680401,5.963971   L 56.680401,5.9931346   L 56.680401,6.0222983   L 56.665872,6.051462   L 56.665872,6.0806257   L 56.665872,6.1097893   L 56.665872,6.1535348   L 56.665872,6.1826985   L 56.665872,6.2118622   L 56.665872,6.2410259   L 56.651342,6.2701895   L 56.651342,6.2993532   L 56.651342,6.3285169   L 56.651342,6.3576805   L 56.651342,6.3868442   L 56.651342,6.4160079   L 56.651342,6.4451716   L 56.651342,6.4743352   L 56.651342,6.5034989   L 56.651342,6.5326626   L 56.651342,6.5618262   L 56.651342,6.5909899   L 56.651342,6.6201536   L 56.651342,6.6493173   L 56.651342,6.6784809   L 56.651342,6.7076446   L 56.651342,6.7368083   L 56.651342,6.7659719   L 56.651342,6.7951356   L 56.665872,6.8242993   L 56.665872,6.853463   L 56.665872,6.8826266   L 56.665872,6.9117903   L 56.665872,6.9555358   L 56.665872,6.9846995   L 56.665872,7.0138632   L 56.680401,7.0430268   L 56.680401,7.0721905   L 56.680401,7.1013542   L 56.680401,7.1305179   L 56.680401,7.1596815   L 56.694931,7.1888452   L 56.694931,7.2180089   L 56.694931,7.2471725   L 56.694931,7.2763362   L 56.694931,7.3054999   L 56.709461,7.3346636   L 56.709461,7.3638272   L 56.709461,7.3929909   L 56.709461,7.4221546   L 56.723991,7.4367364   L 56.723991,7.4659001   L 56.723991,7.4804819   L 56.709461,7.4950638   L 56.709461,7.5096456   L 56.709461,7.5242274   L 56.709461,7.5388093   L 56.709461,7.5679729   L 56.694931,7.5825548   L 56.694931,7.5971366   L 56.694931,7.6117184   L 56.694931,7.6263003   L 56.694931,7.6408821   L 56.694931,7.655464   L 56.680401,7.6700458   L 56.680401,7.6846276   L 56.680401,7.6992095   L 56.680401,7.7137913   L 56.680401,7.7283731   L 56.680401,7.742955   L 56.680401,7.7575368   L 56.680401,7.7721186   L 56.680401,7.7867005   L 56.665872,7.8012823   L 56.665872,7.8158641   L 56.665872,7.830446   L 56.665872,7.8450278   L 56.665872,7.8596097   L 56.665872,7.8741915   L 56.665872,7.8887733   L 56.665872,7.9033552   L 56.651342,7.917937   L 56.651342,7.9325188   L 56.651342,7.9471007   L 56.651342,7.9616825   L 56.651342,7.9908462   L 56.651342,8.005428   L 56.651342,8.0200099   L 56.651342,8.0491735   L 56.651342,8.0637554   L 56.651342,8.0783372   L 56.665872,8.092919   L 56.665872,8.1220827   L 56.665872,8.1366645   L 56.665872,8.1512464   L 56.665872,8.1658282   L 56.665872,8.1804101   L 56.665872,8.1949919   L 56.680401,8.2241556   L 56.680401,8.2387374   L 56.680401,8.2533192   L 56.680401,8.2679011   L 56.680401,8.2824829   L 56.694931,8.2970647   L 56.694931,8.3116466   L 56.694931,8.3262284   L 56.694931,8.3408102   L 56.709461,8.3553921   L 56.709461,8.3699739   L 56.709461,8.3845558   L 56.723991,8.3845558   L 56.723991,8.3991376   L 56.73852,8.3991376   L 56.75305,8.3991376   L 56.76758,8.3991376   L 56.782109,8.3991376   L 56.796639,8.3991376   L 56.825699,8.3991376   L 56.840228,8.3991376   L 56.854758,8.3991376   L 56.883817,8.3991376   L 56.898347,8.3991376   L 56.927406,8.3991376   L 56.941936,8.3991376   L 56.970996,8.3991376   L 57.000055,8.3991376   L 57.014585,8.3991376   L 57.043644,8.3991376   L 57.058174,8.3991376   L 57.087233,8.3991376   L 57.101763,8.3991376   L 57.116293,8.3991376   L 57.145352,8.3991376   L 57.159882,8.3991376   L 57.174412,8.3991376   L 57.188941,8.3991376   L 57.203471,8.3991376   L 57.218001,8.3991376   z "
     id="path257" />
  <path
     style="fill:#e2e2cc;fill-rule:evenodd;fill-opacity:1;stroke:#a5a54c;stroke-width:0.014529711px;stroke-linecap:round;stroke-linejoin:round;stroke-miterlimit:4;stroke-dasharray:none;stroke-opacity:1;"
     d="  M 56.723991,5.5994251   L 56.723991,5.6285887   L 56.709461,5.6431706   L 56.709461,5.6723342   L 56.709461,5.7014979   L 56.709461,5.7306616   L 56.694931,5.7598253   L 56.694931,5.7889889   L 56.694931,5.8181526   L 56.694931,5.8473163   L 56.694931,5.8764799   L 56.680401,5.9056436   L 56.680401,5.9348073   L 56.680401,5.963971   L 56.680401,5.9931346   L 56.680401,6.0222983   L 56.665872,6.051462   L 56.665872,6.0806257   L 56.665872,6.1097893   L 56.665872,6.1535348   L 56.665872,6.1826985   L 56.665872,6.2118622   L 56.665872,6.2410259   L 56.651342,6.2701895   L 56.651342,6.2993532   L 56.651342,6.3285169   L 56.651342,6.3576805   L 56.651342,6.3868442   L 56.651342,6.4160079   L 56.651342,6.4451716   L 56.651342,6.4743352   L 56.651342,6.5034989   L 56.651342,6.5326626   L 56.651342,6.5618262   L 56.651342,6.5909899   L 56.651342,6.6201536   L 56.651342,6.6493173   L 56.651342,6.6784809   L 56.651342,6.7076446   L 56.651342,6.7368083   L 56.651342,6.7659719   L 56.651342,6.7951356   L 56.665872,6.8242993   L 56.665872,6.853463   L 56.665872,6.8826266   L 56.665872,6.9117903   L 56.665872,6.9555358   L 56.665872,6.9846995   L 56.665872,7.0138632   L 56.680401,7.0430268   L 56.680401,7.0721905   L 56.680401,7.1013542   L 56.680401,7.1305179   L 56.680401,7.1596815   L 56.694931,7.1888452   L 56.694931,7.2180089   L 56.694931,7.2471725   L 56.694931,7.2763362   L 56.694931,7.3054999   L 56.709461,7.3346636   L 56.709461,7.3638272   L 56.709461,7.3929909   L 56.709461,7.4221546   L 56.723991,7.4367364   L 56.723991,7.4659001   L 56.73852,7.4659001   L 56.75305,7.4659001   L 56.76758,7.4659001   L 56.782109,7.4659001   L 56.796639,7.4659001   L 56.825699,7.4659001   L 56.840228,7.4659001   L 56.854758,7.4659001   L 56.883817,7.4659001   L 56.898347,7.4659001   L 56.927406,7.4659001   L 56.941936,7.4659001   L 56.970996,7.4659001   L 57.000055,7.4659001   L 57.014585,7.4659001   L 57.043644,7.4659001   L 57.058174,7.4659001   L 57.087233,7.4659001   L 57.101763,7.4659001   L 57.116293,7.4659001   L 57.145352,7.4659001   L 57.159882,7.4659001   L 57.174412,7.4659001   L 57.188941,7.4659001   L 57.203471,7.4659001   L 57.218001,7.4659001   L 57.218001,7.4367364   L 57.23253,7.4221546   L 57.23253,7.3929909   L 57.23253,7.3638272   L 57.23253,7.3346636   L 57.24706,7.3054999   L 57.24706,7.2763362   L 57.24706,7.2471725   L 57.24706,7.2180089   L 57.24706,7.1888452   L 57.26159,7.1596815   L 57.26159,7.1305179   L 57.26159,7.1013542   L 57.26159,7.0721905   L 57.26159,7.0430268   L 57.27612,7.0138632   L 57.27612,6.9846995   L 57.27612,6.9555358   L 57.27612,6.9117903   L 57.27612,6.8826266   L 57.27612,6.853463   L 57.27612,6.8242993   L 57.290649,6.7951356   L 57.290649,6.7659719   L 57.290649,6.7368083   L 57.290649,6.7076446   L 57.290649,6.6784809   L 57.290649,6.6493173   L 57.290649,6.6201536   L 57.290649,6.5909899   L 57.290649,6.5618262   L 57.290649,6.5326626   L 57.290649,6.5034989   L 57.290649,6.4743352   L 57.290649,6.4451716   L 57.290649,6.4160079   L 57.290649,6.3868442   L 57.290649,6.3576805   L 57.290649,6.3285169   L 57.290649,6.2993532   L 57.290649,6.2701895   L 57.27612,6.2410259   L 57.27612,6.2118622   L 57.27612,6.1826985   L 57.27612,6.1535348   L 57.27612,6.1097893   L 57.27612,6.0806257   L 57.27612,6.051462   L 57.26159,6.0222983   L 57.26159,5.9931346   L 57.26159,5.963971   L 57.26159,5.9348073   L 57.26159,5.9056436   L 57.24706,5.8764799   L 57.24706,5.8473163   L 57.24706,5.8181526   L 57.24706,5.7889889   L 57.24706,5.7598253   L 57.23253,5.7306616   L 57.23253,5.7014979   L 57.23253,5.6723342   L 57.23253,5.6431706   L 57.218001,5.6285887   L 57.218001,5.5994251   L 57.203471,5.5994251   L 57.188941,5.5994251   L 57.174412,5.5994251   L 57.159882,5.5994251   L 57.145352,5.5994251   L 57.116293,5.5994251   L 57.101763,5.5994251   L 57.087233,5.5994251   L 57.058174,5.5994251   L 57.043644,5.5994251   L 57.014585,5.5994251   L 57.000055,5.5994251   L 56.970996,5.5994251   L 56.941936,5.5994251   L 56.927406,5.5994251   L 56.898347,5.5994251   L 56.883817,5.5994251   L 56.854758,5.5994251   L 56.840228,5.5994251   L 56.825699,5.5994251   L 56.796639,5.5994251   L 56.782109,5.5994251   L 56.76758,5.5994251   L 56.75305,5.5994251   L 56.73852,5.5994251   L 56.723991,5.5994251   z "
     id="path259" />
  <path
     style="fill:none;stroke:#000000;stroke-width:0.014529711px;stroke-linecap:round;stroke-linejoin:round;stroke-miterlimit:4;stroke-dasharray:none;stroke-opacity:1;"
     d="  M 57.290649,5.1182245   L 57.290649,5.1036426   L 57.290649,5.074479   L 57.290649,5.0598971   L 57.290649,5.0453153   L 57.290649,5.0161516   L 57.290649,5.0015698   L 57.290649,4.9869879   L 57.290649,4.9724061   L 57.27612,4.9432424   L 57.27612,4.9286606   L 57.27612,4.9140788   L 57.27612,4.8994969   L 57.27612,4.8849151   L 57.27612,4.8703333   L 57.26159,4.8411696   L 57.26159,4.8265877   L 57.26159,4.8120059   L 57.26159,4.7974241   L 57.26159,4.7828422   L 57.24706,4.7682604   L 57.24706,4.7536786   L 57.24706,4.7390967   L 57.24706,4.7245149   L 57.23253,4.7099331   L 57.23253,4.6953512   L 57.23253,4.6807694   L 57.218001,4.6807694   L 57.218001,4.6661876   L 57.203471,4.6661876   L 57.188941,4.6661876   L 57.174412,4.6661876   L 57.159882,4.6661876   L 57.145352,4.6661876   L 57.116293,4.6661876   L 57.101763,4.6661876   L 57.087233,4.6661876   L 57.058174,4.6661876   L 57.043644,4.6661876   L 57.014585,4.6661876   L 57.000055,4.6661876   L 56.970996,4.6661876   L 56.941936,4.6661876   L 56.927406,4.6661876   L 56.898347,4.6661876   L 56.883817,4.6661876   L 56.854758,4.6661876   L 56.840228,4.6661876   L 56.825699,4.6661876   L 56.796639,4.6661876   L 56.782109,4.6661876   L 56.76758,4.6661876   L 56.75305,4.6661876   L 56.73852,4.6661876   L 56.723991,4.6661876   L 56.723991,4.6807694   L 56.709461,4.6807694   L 56.709461,4.6953512   L 56.709461,4.7099331   L 56.694931,4.7245149   L 56.694931,4.7390967   L 56.694931,4.7536786   L 56.694931,4.7682604   L 56.680401,4.7828422   L 56.680401,4.7974241   L 56.680401,4.8120059   L 56.680401,4.8265877   L 56.680401,4.8411696   L 56.665872,4.8703333   L 56.665872,4.8849151   L 56.665872,4.8994969   L 56.665872,4.9140788   L 56.665872,4.9286606   L 56.665872,4.9432424   L 56.665872,4.9724061   L 56.651342,4.9869879   L 56.651342,5.0015698   L 56.651342,5.0161516   L 56.651342,5.0453153   L 56.651342,5.0598971   L 56.651342,5.074479   L 56.651342,5.1036426   L 56.651342,5.1182245   L 56.651342,5.1328063   L 56.651342,5.1473881   L 56.651342,5.1911337   L 56.651342,5.2348792   L 56.651342,5.3077883   L 56.651342,5.3806975   L 56.651342,5.4681885   L 56.651342,5.5556796   L 56.651342,5.6577524   L 56.651342,5.7744071   L 56.651342,5.8910618   L 56.651342,6.0077165   L 56.651342,6.138953   L 56.651342,6.2701895   L 56.651342,6.401426   L 56.651342,6.5326626   L 56.651342,6.6638991   L 56.651342,6.7951356   L 56.651342,6.9263721   L 56.651342,7.0576087   L 56.651342,7.1742634   L 56.651342,7.290918   L 56.651342,7.4075727   L 56.651342,7.5096456   L 56.651342,7.5971366   L 56.651342,7.6846276   L 56.651342,7.7575368   L 56.651342,7.830446   L 56.651342,7.8741915   L 56.651342,7.917937   L 56.651342,7.9325188   L 56.651342,7.9471007   L 56.651342,7.9616825   L 56.651342,7.9908462   L 56.651342,8.005428   L 56.651342,8.0200099   L 56.651342,8.0491735   L 56.651342,8.0637554   L 56.651342,8.0783372   L 56.665872,8.092919   L 56.665872,8.1220827   L 56.665872,8.1366645   L 56.665872,8.1512464   L 56.665872,8.1658282   L 56.665872,8.1804101   L 56.665872,8.1949919   L 56.680401,8.2241556   L 56.680401,8.2387374   L 56.680401,8.2533192   L 56.680401,8.2679011   L 56.680401,8.2824829   L 56.694931,8.2970647   L 56.694931,8.3116466   L 56.694931,8.3262284   L 56.694931,8.3408102   L 56.709461,8.3553921   L 56.709461,8.3699739   L 56.709461,8.3845558   L 56.723991,8.3845558   L 56.723991,8.3991376   L 56.73852,8.3991376   L 56.75305,8.3991376   L 56.76758,8.3991376   L 56.782109,8.3991376   L 56.796639,8.3991376   L 56.825699,8.3991376   L 56.840228,8.3991376   L 56.854758,8.3991376   L 56.883817,8.3991376   L 56.898347,8.3991376   L 56.927406,8.3991376   L 56.941936,8.3991376   L 56.970996,8.3991376   L 57.000055,8.3991376   L 57.014585,8.3991376   L 57.043644,8.3991376   L 57.058174,8.3991376   L 57.087233,8.3991376   L 57.101763,8.3991376   L 57.116293,8.3991376   L 57.145352,8.3991376   L 57.159882,8.3991376   L 57.174412,8.3991376   L 57.188941,8.3991376   L 57.203471,8.3991376   L 57.218001,8.3991376   L 57.218001,8.3845558   L 57.23253,8.3845558   L 57.23253,8.3699739   L 57.23253,8.3553921   L 57.24706,8.3408102   L 57.24706,8.3262284   L 57.24706,8.3116466   L 57.24706,8.2970647   L 57.26159,8.2824829   L 57.26159,8.2679011   L 57.26159,8.2533192   L 57.26159,8.2387374   L 57.26159,8.2241556   L 57.27612,8.1949919   L 57.27612,8.1804101   L 57.27612,8.1658282   L 57.27612,8.1512464   L 57.27612,8.1366645   L 57.27612,8.1220827   L 57.290649,8.092919   L 57.290649,8.0783372   L 57.290649,8.0637554   L 57.290649,8.0491735   L 57.290649,8.0200099   L 57.290649,8.005428   L 57.290649,7.9908462   L 57.290649,7.9616825   L 57.290649,7.9471007   L 57.290649,7.9325188   L 57.290649,7.917937   L 57.290649,7.8741915   L 57.290649,7.830446   L 57.290649,7.7575368   L 57.290649,7.6846276   L 57.290649,7.5971366   L 57.290649,7.5096456   L 57.290649,7.4075727   L 57.290649,7.290918   L 57.290649,7.1742634   L 57.290649,7.0576087   L 57.290649,6.9263721   L 57.290649,6.7951356   L 57.290649,6.6638991   L 57.290649,6.5326626   L 57.290649,6.401426   L 57.290649,6.2701895   L 57.290649,6.138953   L 57.290649,6.0077165   L 57.290649,5.8910618   L 57.290649,5.7744071   L 57.290649,5.6577524   L 57.290649,5.5556796   L 57.290649,5.4681885   L 57.290649,5.3806975   L 57.290649,5.3077883   L 57.290649,5.2348792   L 57.290649,5.1911337   L 57.290649,5.1473881   L 57.290649,5.1328063   L 57.290649,5.1182245   z "
     id="path261" />
  <path
     style="fill:#cccc9b;fill-rule:evenodd;fill-opacity:1;stroke:#000000;stroke-width:0.014529711px;stroke-linecap:round;stroke-linejoin:round;stroke-miterlimit:4;stroke-dasharray:none;stroke-opacity:1;"
     d="  M 58.031664,5.2786247   L 58.017135,5.2640428   L 58.002605,5.249461   L 57.988075,5.2640428   L 57.973546,5.2786247   L 57.973546,7.7867005   L 57.988075,7.8012823   L 58.002605,7.8158641   L 58.017135,7.8012823   L 58.031664,7.7867005   L 58.031664,5.2786247   z "
     id="path263" />
  <path
     style="fill:#cccc9b;fill-rule:evenodd;fill-opacity:1;stroke:#000000;stroke-width:0.014529711px;stroke-linecap:round;stroke-linejoin:round;stroke-miterlimit:4;stroke-dasharray:none;stroke-opacity:1;"
     d="  M 58.24961,5.2786247   L 58.23508,5.2640428   L 58.220551,5.249461   L 58.206021,5.2640428   L 58.191491,5.2786247   L 58.191491,7.7867005   L 58.206021,7.8012823   L 58.220551,7.8158641   L 58.23508,7.8012823   L 58.24961,7.7867005   L 58.24961,5.2786247   z "
     id="path265" />
  <path
     style="fill:#cccc9b;fill-rule:evenodd;fill-opacity:1;stroke:#000000;stroke-width:0.014529711px;stroke-linecap:round;stroke-linejoin:round;stroke-miterlimit:4;stroke-dasharray:none;stroke-opacity:1;"
     d="  M 58.453026,5.2786247   L 58.438496,5.2640428   L 58.423967,5.249461   L 58.409437,5.2640428   L 58.394907,5.2786247   L 58.394907,7.7867005   L 58.409437,7.8012823   L 58.423967,7.8158641   L 58.438496,7.8012823   L 58.453026,7.7867005   L 58.453026,5.2786247   z "
     id="path267" />
  <path
     style="fill:#cccc9b;fill-rule:evenodd;fill-opacity:1;stroke:#000000;stroke-width:0.014529711px;stroke-linecap:round;stroke-linejoin:round;stroke-miterlimit:4;stroke-dasharray:none;stroke-opacity:1;"
     d="  M 58.656442,5.2786247   L 58.641912,5.2640428   L 58.627383,5.249461   L 58.612853,5.2640428   L 58.598323,5.2786247   L 58.598323,7.7867005   L 58.612853,7.8012823   L 58.627383,7.8158641   L 58.641912,7.8012823   L 58.656442,7.7867005   L 58.656442,5.2786247   z "
     id="path269" />
  <path
     style="fill:#d6d6b1;fill-rule:evenodd;fill-opacity:1;stroke:#000000;stroke-width:0.014529711px;stroke-linecap:round;stroke-linejoin:round;stroke-miterlimit:4;stroke-dasharray:none;stroke-opacity:1;"
     d="  M 57.929957,4.9432424   L 57.929957,8.1220827   L 57.27612,8.1220827   L 57.27612,4.9432424   L 57.929957,4.9432424   z "
     id="path271" />
  <path
     style="fill:#e2e2cc;fill-rule:evenodd;fill-opacity:1;stroke:#e2e2cc;stroke-width:0.014529711px;stroke-linecap:round;stroke-linejoin:round;stroke-miterlimit:4;stroke-dasharray:none;stroke-opacity:1;"
     d="  M 57.929957,7.1596815   L 57.929957,7.3929909   L 57.27612,7.3929909   L 57.27612,7.1596815   L 57.929957,7.1596815   z "
     id="path273" />
  <path
     style="fill:#e2e2cc;fill-rule:evenodd;fill-opacity:1;stroke:#e2e2cc;stroke-width:0.014529711px;stroke-linecap:round;stroke-linejoin:round;stroke-miterlimit:4;stroke-dasharray:none;stroke-opacity:1;"
     d="  M 57.929957,5.6723342   L 57.929957,5.9056436   L 57.27612,5.9056436   L 57.27612,5.6723342   L 57.929957,5.6723342   z "
     id="path275" />
  <path
     style="fill:none;stroke:#000000;stroke-width:0.014529711px;stroke-linecap:round;stroke-linejoin:round;stroke-miterlimit:4;stroke-dasharray:none;stroke-opacity:1;"
     d="  M 57.929957,4.9432424   L 57.929957,8.1220827   L 57.27612,8.1220827   L 57.27612,4.9432424   L 57.929957,4.9432424   z "
     id="path277" />
  <path
     style="fill:#cccc9b;fill-rule:evenodd;fill-opacity:1;stroke:#000000;stroke-width:0.014529711px;stroke-linecap:round;stroke-linejoin:round;stroke-miterlimit:4;stroke-dasharray:none;stroke-opacity:1;"
     d="  M 58.859858,5.2786247   L 58.845328,5.2640428   L 58.830799,5.249461   L 58.816269,5.2640428   L 58.801739,5.2786247   L 58.801739,7.7867005   L 58.816269,7.8012823   L 58.830799,7.8158641   L 58.845328,7.8012823   L 58.859858,7.7867005   L 58.859858,5.2786247   z "
     id="path279" />
  <path
     style="fill:#cccc9b;fill-rule:evenodd;fill-opacity:1;stroke:#000000;stroke-width:0.014529711px;stroke-linecap:round;stroke-linejoin:round;stroke-miterlimit:4;stroke-dasharray:none;stroke-opacity:1;"
     d="  M 59.063274,5.2786247   L 59.048744,5.2640428   L 59.034215,5.249461   L 59.019685,5.2640428   L 59.005155,5.2786247   L 59.005155,7.7867005   L 59.019685,7.8012823   L 59.034215,7.8158641   L 59.048744,7.8012823   L 59.063274,7.7867005   L 59.063274,5.2786247   z "
     id="path281" />
  <path
     style="fill:#cccc9b;fill-rule:evenodd;fill-opacity:1;stroke:#000000;stroke-width:0.014529711px;stroke-linecap:round;stroke-linejoin:round;stroke-miterlimit:4;stroke-dasharray:none;stroke-opacity:1;"
     d="  M 59.26669,5.2786247   L 59.25216,5.2640428   L 59.23763,5.249461   L 59.223101,5.2640428   L 59.208571,5.2786247   L 59.208571,7.7867005   L 59.223101,7.8012823   L 59.23763,7.8158641   L 59.25216,7.8012823   L 59.26669,7.7867005   L 59.26669,5.2786247   z "
     id="path283" />
  <path
     style="fill:#cccc9b;fill-rule:evenodd;fill-opacity:1;stroke:#000000;stroke-width:0.014529711px;stroke-linecap:round;stroke-linejoin:round;stroke-miterlimit:4;stroke-dasharray:none;stroke-opacity:1;"
     d="  M 59.470106,5.2786247   L 59.455576,5.2640428   L 59.441046,5.249461   L 59.426517,5.2640428   L 59.411987,5.2786247   L 59.411987,7.7867005   L 59.426517,7.8012823   L 59.441046,7.8158641   L 59.455576,7.8012823   L 59.470106,7.7867005   L 59.470106,5.2786247   z "
     id="path285" />
  <path
     style="fill:#cccc9b;fill-rule:evenodd;fill-opacity:1;stroke:#000000;stroke-width:0.014529711px;stroke-linecap:round;stroke-linejoin:round;stroke-miterlimit:4;stroke-dasharray:none;stroke-opacity:1;"
     d="  M 59.673522,5.2786247   L 59.658992,5.2640428   L 59.644462,5.249461   L 59.629933,5.2640428   L 59.615403,5.2786247   L 59.615403,7.7867005   L 59.629933,7.8012823   L 59.644462,7.8158641   L 59.658992,7.8012823   L 59.673522,7.7867005   L 59.673522,5.2786247   z "
     id="path287" />
  <path
     style="fill:#cccc9b;fill-rule:evenodd;fill-opacity:1;stroke:#000000;stroke-width:0.014529711px;stroke-linecap:round;stroke-linejoin:round;stroke-miterlimit:4;stroke-dasharray:none;stroke-opacity:1;"
     d="  M 59.876938,5.2786247   L 59.862408,5.2640428   L 59.847878,5.249461   L 59.833349,5.2640428   L 59.818819,5.2786247   L 59.818819,7.7867005   L 59.833349,7.8012823   L 59.847878,7.8158641   L 59.862408,7.8012823   L 59.876938,7.7867005   L 59.876938,5.2786247   z "
     id="path289" />
  <path
     style="fill:#cccc9b;fill-rule:evenodd;fill-opacity:1;stroke:#000000;stroke-width:0.014529711px;stroke-linecap:round;stroke-linejoin:round;stroke-miterlimit:4;stroke-dasharray:none;stroke-opacity:1;"
     d="  M 60.065824,5.2786247   L 60.051294,5.2640428   L 60.036765,5.249461   L 60.022235,5.2640428   L 60.007705,5.2786247   L 60.007705,7.7867005   L 60.022235,7.8012823   L 60.036765,7.8158641   L 60.051294,7.8012823   L 60.065824,7.7867005   L 60.065824,5.2786247   z "
     id="path291" />
  <path
     style="fill:#cccc9b;fill-rule:evenodd;fill-opacity:1;stroke:#000000;stroke-width:0.014529711px;stroke-linecap:round;stroke-linejoin:round;stroke-miterlimit:4;stroke-dasharray:none;stroke-opacity:1;"
     d="  M 60.26924,5.2786247   L 60.25471,5.2640428   L 60.240181,5.249461   L 60.225651,5.2640428   L 60.211121,5.2786247   L 60.211121,7.7867005   L 60.225651,7.8012823   L 60.240181,7.8158641   L 60.25471,7.8012823   L 60.26924,7.7867005   L 60.26924,5.2786247   z "
     id="path293" />
  <path
     style="fill:#cccc9b;fill-rule:evenodd;fill-opacity:1;stroke:#000000;stroke-width:0.014529711px;stroke-linecap:round;stroke-linejoin:round;stroke-miterlimit:4;stroke-dasharray:none;stroke-opacity:1;"
     d="  M 60.472656,5.2786247   L 60.458126,5.2640428   L 60.443596,5.249461   L 60.429067,5.2640428   L 60.414537,5.2786247   L 60.414537,7.7867005   L 60.429067,7.8012823   L 60.443596,7.8158641   L 60.458126,7.8012823   L 60.472656,7.7867005   L 60.472656,5.2786247   z "
     id="path295" />
  <path
     style="fill:#cccc9b;fill-rule:evenodd;fill-opacity:1;stroke:#000000;stroke-width:0.014529711px;stroke-linecap:round;stroke-linejoin:round;stroke-miterlimit:4;stroke-dasharray:none;stroke-opacity:1;"
     d="  M 60.676072,5.2786247   L 60.661542,5.2640428   L 60.647012,5.249461   L 60.632483,5.2640428   L 60.617953,5.2786247   L 60.617953,7.7867005   L 60.632483,7.8012823   L 60.647012,7.8158641   L 60.661542,7.8012823   L 60.676072,7.7867005   L 60.676072,5.2786247   z "
     id="path297" />
</svg>
