<?xml version="1.0" encoding="UTF-8" standalone="no"?>
<svg
   version="1.0"
   width="3.52mm"
   height="13.5mm"
   id="svg27"
   xmlns="http://www.w3.org/2000/svg"
   xmlns:svg="http://www.w3.org/2000/svg">
  <defs
     id="defs3">
    <pattern
       id="EMFhbasepattern"
       patternUnits="userSpaceOnUse"
       width="6"
       height="6"
       x="0"
       y="0" />
  </defs>
  <path
     style="fill:#efefef;fill-rule:evenodd;fill-opacity:1;stroke:#000000;stroke-width:0.018692896px;stroke-linecap:round;stroke-linejoin:round;stroke-miterlimit:4;stroke-dasharray:none;stroke-opacity:1;"
     d="  M 5.776105,46.54579   L 4.7106099,46.54579   L 4.7106099,49.696352   L 5.776105,49.696352   L 5.776105,46.54579   z "
     id="path5" />
  <path
     style="fill:#efefef;fill-rule:evenodd;fill-opacity:1;stroke:#000000;stroke-width:0.018692896px;stroke-linecap:round;stroke-linejoin:round;stroke-miterlimit:4;stroke-dasharray:none;stroke-opacity:1;"
     d="  M 12.860713,45.30807   L 5.776105,45.30807   L 5.776105,50.934072   L 12.860713,50.934072   L 12.860713,45.30807   z "
     id="path7" />
  <path
     style="fill:#efefef;fill-rule:evenodd;fill-opacity:1;stroke:#000000;stroke-width:0.018692896px;stroke-linecap:round;stroke-linejoin:round;stroke-miterlimit:4;stroke-dasharray:none;stroke-opacity:1;"
     d="  M 0,50.108925   L 0,38.369334   L 0.018692896,38.088034   L 0.037385793,37.731721   L 0.056078689,37.28164   L 0.074771585,36.737793   L 0.093464482,36.118933   L 0.11215738,35.443813   L 0.14954317,34.712433   L 0.16823607,33.924792   L 0.20562186,33.099645   L 0.24300765,32.218239   L 0.26170055,31.318078   L 0.29908634,30.399164   L 0.44862951,26.648496   L 0.4860153,25.729583   L 0.5047082,24.829422   L 0.54209399,23.948015   L 0.57947979,23.122868   L 0.59817268,22.335228   L 0.63555848,21.603848   L 0.65425137,20.928728   L 0.67294427,20.309867   L 0.69163716,19.766021   L 0.71033006,19.31594   L 0.72902296,18.959627   L 0.74771585,18.678327   L 0.74771585,18.434533   L 0.76640875,18.397027   L 0.76640875,18.378273   L 0.78510165,18.340767   L 0.78510165,18.322013   L 0.80379454,18.284507   L 0.82248744,18.228247   L 0.84118033,18.19074   L 0.84118033,18.153233   L 0.87856613,18.040713   L 0.89725902,18.003207   L 0.97203061,17.778167   L 0.99072351,17.74066   L 1.0281093,17.62814   L 1.0281093,17.590633   L 1.0468022,17.553126   L 1.0654951,17.496866   L 1.084188,17.45936   L 1.084188,17.440606   L 1.1028809,17.4031   L 1.1028809,17.384346   L 1.1215738,17.34684   L 1.1215738,1.2752271   L 1.1402667,1.2002138   L 1.1589596,1.1439538   L 1.1589596,1.0689404   L 1.1776525,0.99392703   L 1.2150383,0.93766701   L 1.2337312,0.86265365   L 1.2524241,0.80639363   L 1.3271956,0.69387359   L 1.3645814,0.61886023   L 1.4019672,0.58135355   L 1.439353,0.52509353   L 1.4954317,0.46883351   L 1.5328175,0.41257348   L 1.5888962,0.3750668   L 1.6449749,0.31880678   L 1.7010536,0.2813001   L 1.7384394,0.24379342   L 1.8132109,0.20628674   L 1.9253683,0.13127338   L 1.981447,0.11252004   L 2.0562186,0.093766701   L 2.1122973,0.056260021   L 2.1870689,0.03750668   L 2.2618405,0.03750668   L 2.3179191,0.01875334   L 2.3926907,0   L 2.71047,0   L 2.7852416,0.01875334   L 2.8413202,0.03750668   L 2.9160918,0.03750668   L 2.9908634,0.056260021   L 3.0469421,0.093766701   L 3.1217137,0.11252004   L 3.1777924,0.13127338   L 3.2899498,0.20628674   L 3.3647213,0.24379342   L 3.4021071,0.2813001   L 3.4581858,0.31880678   L 3.5142645,0.3750668   L 3.5703432,0.41257348   L 3.607729,0.46883351   L 3.6638077,0.52509353   L 3.7011935,0.58135355   L 3.7385793,0.61886023   L 3.7759651,0.69387359   L 3.8507366,0.80639363   L 3.8694295,0.86265365   L 3.8881224,0.93766701   L 3.9255082,0.99392703   L 3.9442011,1.0689404   L 3.9442011,1.1439538   L 3.962894,1.2002138   L 3.9815869,1.2752271   L 3.9815869,17.34684   L 4.0002798,17.384346   L 4.0002798,17.4031   L 4.0189727,17.440606   L 4.0189727,17.45936   L 4.0376656,17.496866   L 4.0563585,17.553126   L 4.0750514,17.590633   L 4.0750514,17.62814   L 4.1124372,17.74066   L 4.1311301,17.778167   L 4.2059017,18.003207   L 4.2245946,18.040713   L 4.2619804,18.153233   L 4.2619804,18.19074   L 4.2806733,18.228247   L 4.2993662,18.284507   L 4.3180591,18.322013   L 4.3180591,18.340767   L 4.3367519,18.378273   L 4.3367519,18.397027   L 4.3554448,18.434533   L 4.3554448,18.678327   L 4.3741377,18.959627   L 4.3928306,19.31594   L 4.4115235,19.766021   L 4.4302164,20.309867   L 4.4489093,20.928728   L 4.4676022,21.603848   L 4.504988,22.335228   L 4.5236809,23.122868   L 4.5610667,23.948015   L 4.5984525,24.829422   L 4.6171454,25.729583   L 4.6545312,26.648496   L 4.8040744,30.399164   L 4.8414601,31.318078   L 4.860153,32.218239   L 4.8975388,33.099645   L 4.9349246,33.924792   L 4.9536175,34.712433   L 4.9910033,35.443813   L 5.0096962,36.118933   L 5.0283891,36.737793   L 5.047082,37.28164   L 5.0657749,37.731721   L 5.0844678,38.088034   L 5.1031607,38.369334   L 5.1031607,45.02677   L 5.0844678,45.045523   L 5.0844678,45.064277   L 5.0657749,45.08303   L 5.0657749,45.101783   L 5.0283891,45.13929   L 5.0283891,45.158043   L 4.9723104,45.214303   L 4.9536175,45.214303   L 4.8975388,45.270563   L 4.8788459,45.270563   L 4.8414601,45.30807   L 4.8227673,45.30807   L 4.8227673,45.326823   L 4.8040744,45.345577   L 4.7853815,45.345577   L 4.7106099,45.42059   L 4.7106099,49.883885   L 4.6732241,49.921392   L 4.6545312,49.958898   L 4.6171454,49.977652   L 4.5984525,50.015158   L 4.5236809,50.090172   L 4.4676022,50.127678   L 4.4302164,50.183938   L 4.3741377,50.221445   L 4.2619804,50.333965   L 4.1872088,50.371472   L 4.1311301,50.427732   L 4.0563585,50.483992   L 3.9815869,50.521499   L 3.9068153,50.577759   L 3.8133509,50.634019   L 3.7385793,50.671525   L 3.6451148,50.727785   L 3.3647213,50.840305   L 3.252564,50.877812   L 3.1590995,50.896565   L 3.0469421,50.934072   L 2.9347847,50.952825   L 2.8226273,50.952825   L 2.71047,50.971579   L 0.42993662,50.971579   L 0.41124372,50.952825   L 0.37385793,50.952825   L 0.35516503,50.934072   L 0.33647213,50.934072   L 0.29908634,50.915319   L 0.18692896,50.802799   L 0.16823607,50.765292   L 0.14954317,50.746539   L 0.13085027,50.709032   L 0.11215738,50.690279   L 0.074771585,50.615265   L 0.074771585,50.577759   L 0.056078689,50.559005   L 0.037385793,50.521499   L 0.037385793,50.427732   L 0.018692896,50.390225   L 0.018692896,50.296458   L 0,50.258952   L 0,50.165185   L 0,50.108925   z "
     id="path9" />
  <path
     style="fill:#f7f7f7;fill-rule:evenodd;fill-opacity:1;stroke:#e2e2e2;stroke-width:0.018692896px;stroke-linecap:round;stroke-linejoin:round;stroke-miterlimit:4;stroke-dasharray:none;stroke-opacity:1;"
     d="  M 3.9815869,17.384346   L 1.1028809,17.384346   L 0.74771585,18.434533   L 4.3554448,18.434533   L 3.9815869,17.384346   z "
     id="path11" />
  <path
     style="fill:#bfbfbf;fill-rule:evenodd;fill-opacity:1;stroke:#bfbfbf;stroke-width:0.018692896px;stroke-linecap:round;stroke-linejoin:round;stroke-miterlimit:4;stroke-dasharray:none;stroke-opacity:1;"
     d="  M 3.9815869,5.8697955   L 1.1215738,5.8697955   L 1.1215738,6.0385756   L 3.9815869,6.0385756   L 3.9815869,5.8697955   z "
     id="path13" />
  <path
     style="fill:#bfbfbf;fill-rule:evenodd;fill-opacity:1;stroke:#bfbfbf;stroke-width:0.018692896px;stroke-linecap:round;stroke-linejoin:round;stroke-miterlimit:4;stroke-dasharray:none;stroke-opacity:1;"
     d="  M 3.9815869,7.3700627   L 1.1215738,7.3700627   L 1.1215738,7.5388428   L 3.9815869,7.5388428   L 3.9815869,7.3700627   z "
     id="path15" />
  <path
     style="fill:#bfbfbf;fill-rule:evenodd;fill-opacity:1;stroke:#bfbfbf;stroke-width:0.018692896px;stroke-linecap:round;stroke-linejoin:round;stroke-miterlimit:4;stroke-dasharray:none;stroke-opacity:1;"
     d="  M 4.860153,32.574552   L 0.22431476,32.574552   L 0.22431476,32.743332   L 4.860153,32.743332   L 4.860153,32.574552   z "
     id="path17" />
  <path
     style="fill:#bfbfbf;fill-rule:evenodd;fill-opacity:1;stroke:#bfbfbf;stroke-width:0.018692896px;stroke-linecap:round;stroke-linejoin:round;stroke-miterlimit:4;stroke-dasharray:none;stroke-opacity:1;"
     d="  M 4.9536175,34.581159   L 0.14954317,34.581159   L 0.14954317,34.749939   L 4.9536175,34.749939   L 4.9536175,34.581159   z "
     id="path19" />
  <path
     style="fill:#bfbfbf;fill-rule:evenodd;fill-opacity:1;stroke:#bfbfbf;stroke-width:0.018692896px;stroke-linecap:round;stroke-linejoin:round;stroke-miterlimit:4;stroke-dasharray:none;stroke-opacity:1;"
     d="  M 5.1031607,38.425594   L 0,38.425594   L 0,38.594374   L 5.1031607,38.594374   L 5.1031607,38.425594   z "
     id="path21" />
  <path
     style="fill:#bfbfbf;fill-rule:evenodd;fill-opacity:1;stroke:#bfbfbf;stroke-width:0.018692896px;stroke-linecap:round;stroke-linejoin:round;stroke-miterlimit:4;stroke-dasharray:none;stroke-opacity:1;"
     d="  M 5.1031607,40.432202   L 0,40.432202   L 0,40.600982   L 5.1031607,40.600982   L 5.1031607,40.432202   z "
     id="path23" />
  <path
     style="fill:none;stroke:none;"
     d="  M 13.234465,47.858215   L 12.747077,47.858215   L 12.747077,48.348351   L 13.234465,48.348351   L 13.234465,47.858215  "
     id="path25" />
</svg>
