<?xml version="1.0" encoding="UTF-8" standalone="no"?>
<svg
   version="1.0"
   width="3.48mm"
   height="13.5mm"
   id="svg27"
   xmlns="http://www.w3.org/2000/svg"
   xmlns:svg="http://www.w3.org/2000/svg">
  <defs
     id="defs3">
    <pattern
       id="EMFhbasepattern"
       patternUnits="userSpaceOnUse"
       width="6"
       height="6"
       x="0"
       y="0" />
  </defs>
  <path
     style="fill:#efefef;fill-rule:evenodd;fill-opacity:1;stroke:#000000;stroke-width:0.018704783px;stroke-linecap:round;stroke-linejoin:round;stroke-miterlimit:4;stroke-dasharray:none;stroke-opacity:1;"
     d="  M 7.2948656,46.54579   L 8.3610383,46.54579   L 8.3610383,49.696352   L 7.2948656,49.696352   L 7.2948656,46.54579   z "
     id="path5" />
  <path
     style="fill:#efefef;fill-rule:evenodd;fill-opacity:1;stroke:#000000;stroke-width:0.018704783px;stroke-linecap:round;stroke-linejoin:round;stroke-miterlimit:4;stroke-dasharray:none;stroke-opacity:1;"
     d="  M 7.3135704,45.30807   L 0.2244574,45.30807   L 0.2244574,50.934072   L 7.3135704,50.934072   L 7.3135704,45.30807   z "
     id="path7" />
  <path
     style="fill:#efefef;fill-rule:evenodd;fill-opacity:1;stroke:#000000;stroke-width:0.018704783px;stroke-linecap:round;stroke-linejoin:round;stroke-miterlimit:4;stroke-dasharray:none;stroke-opacity:1;"
     d="  M 13.074644,50.108925   L 13.074644,38.369334   L 13.055939,38.088034   L 13.037234,37.731721   L 13.018529,37.28164   L 12.999825,36.737793   L 12.98112,36.118933   L 12.962415,35.443813   L 12.925005,34.712433   L 12.906301,33.924792   L 12.868891,33.099645   L 12.831482,32.218239   L 12.812777,31.318078   L 12.775367,30.399164   L 12.625729,26.648496   L 12.588319,25.729583   L 12.569615,24.829422   L 12.532205,23.948015   L 12.494795,23.122868   L 12.476091,22.335228   L 12.438681,21.603848   L 12.419976,20.928728   L 12.401272,20.309867   L 12.382567,19.766021   L 12.363862,19.31594   L 12.345157,18.959627   L 12.326452,18.678327   L 12.326452,18.434533   L 12.307748,18.397027   L 12.307748,18.378273   L 12.289043,18.340767   L 12.289043,18.322013   L 12.270338,18.284507   L 12.251633,18.228247   L 12.232928,18.19074   L 12.232928,18.153233   L 12.195519,18.040713   L 12.176814,18.003207   L 12.101995,17.778167   L 12.08329,17.74066   L 12.045881,17.62814   L 12.045881,17.590633   L 12.027176,17.553126   L 12.008471,17.496866   L 11.989766,17.45936   L 11.989766,17.440606   L 11.971062,17.4031   L 11.971062,17.384346   L 11.952357,17.34684   L 11.952357,1.2752271   L 11.933652,1.2002138   L 11.914947,1.1439538   L 11.914947,1.0689404   L 11.896242,0.99392703   L 11.858833,0.93766701   L 11.840128,0.86265365   L 11.821423,0.80639363   L 11.746604,0.69387359   L 11.709195,0.61886023   L 11.671785,0.58135355   L 11.634375,0.52509353   L 11.578261,0.46883351   L 11.540851,0.41257348   L 11.484737,0.3750668   L 11.428623,0.31880678   L 11.372508,0.2813001   L 11.335099,0.24379342   L 11.26028,0.20628674   L 11.148051,0.13127338   L 11.091937,0.11252004   L 11.017118,0.093766701   L 10.961003,0.056260021   L 10.886184,0.03750668   L 10.811365,0.03750668   L 10.755251,0.01875334   L 10.680431,0   L 10.36245,0   L 10.287631,0.01875334   L 10.231517,0.03750668   L 10.156697,0.03750668   L 10.081878,0.056260021   L 10.025764,0.093766701   L 9.9509449,0.11252004   L 9.8948305,0.13127338   L 9.7826018,0.20628674   L 9.7077827,0.24379342   L 9.6703731,0.2813001   L 9.6142588,0.31880678   L 9.5581444,0.3750668   L 9.5020301,0.41257348   L 9.4646205,0.46883351   L 9.4085061,0.52509353   L 9.3710966,0.58135355   L 9.333687,0.61886023   L 9.2962774,0.69387359   L 9.2214583,0.80639363   L 9.2027535,0.86265365   L 9.1840487,0.93766701   L 9.1466392,0.99392703   L 9.1279344,1.0689404   L 9.1279344,1.1439538   L 9.1092296,1.2002138   L 9.0905248,1.2752271   L 9.0905248,17.34684   L 9.07182,17.384346   L 9.07182,17.4031   L 9.0531153,17.440606   L 9.0531153,17.45936   L 9.0344105,17.496866   L 9.0157057,17.553126   L 8.9970009,17.590633   L 8.9970009,17.62814   L 8.9595913,17.74066   L 8.9408866,17.778167   L 8.8660674,18.003207   L 8.8473626,18.040713   L 8.8099531,18.153233   L 8.8099531,18.19074   L 8.7912483,18.228247   L 8.7725435,18.284507   L 8.7538387,18.322013   L 8.7538387,18.340767   L 8.7351339,18.378273   L 8.7351339,18.397027   L 8.7164292,18.434533   L 8.7164292,18.678327   L 8.6977244,18.959627   L 8.6790196,19.31594   L 8.6603148,19.766021   L 8.64161,20.309867   L 8.6229052,20.928728   L 8.6042005,21.603848   L 8.5667909,22.335228   L 8.5480861,23.122868   L 8.5106765,23.948015   L 8.473267,24.829422   L 8.4545622,25.729583   L 8.4171526,26.648496   L 8.2675143,30.399164   L 8.2301048,31.318078   L 8.2114,32.218239   L 8.1739904,33.099645   L 8.1365809,33.924792   L 8.1178761,34.712433   L 8.0804665,35.443813   L 8.0617617,36.118933   L 8.0430569,36.737793   L 8.0243522,37.28164   L 8.0056474,37.731721   L 7.9869426,38.088034   L 7.9682378,38.369334   L 7.9682378,45.02677   L 7.9869426,45.045523   L 7.9869426,45.064277   L 8.0056474,45.08303   L 8.0056474,45.101783   L 8.0430569,45.13929   L 8.0430569,45.158043   L 8.0991713,45.214303   L 8.1178761,45.214303   L 8.1739904,45.270563   L 8.1926952,45.270563   L 8.2301048,45.30807   L 8.2488096,45.30807   L 8.2488096,45.326823   L 8.2675143,45.345577   L 8.2862191,45.345577   L 8.3610383,45.42059   L 8.3610383,49.883885   L 8.3984478,49.921392   L 8.4171526,49.958898   L 8.4545622,49.977652   L 8.473267,50.015158   L 8.5480861,50.090172   L 8.6042005,50.127678   L 8.64161,50.183938   L 8.6977244,50.221445   L 8.8099531,50.333965   L 8.8847722,50.371472   L 8.9408866,50.427732   L 9.0157057,50.483992   L 9.0905248,50.521499   L 9.165344,50.577759   L 9.2588679,50.634019   L 9.333687,50.671525   L 9.4272109,50.727785   L 9.7077827,50.840305   L 9.8200114,50.877812   L 9.9135353,50.896565   L 10.025764,50.934072   L 10.137993,50.952825   L 10.250221,50.952825   L 10.36245,50.971579   L 12.644434,50.971579   L 12.663138,50.952825   L 12.700548,50.952825   L 12.719253,50.934072   L 12.737958,50.934072   L 12.775367,50.915319   L 12.887596,50.802799   L 12.906301,50.765292   L 12.925005,50.746539   L 12.94371,50.709032   L 12.962415,50.690279   L 12.999825,50.615265   L 12.999825,50.577759   L 13.018529,50.559005   L 13.037234,50.521499   L 13.037234,50.427732   L 13.055939,50.390225   L 13.055939,50.296458   L 13.074644,50.258952   L 13.074644,50.165185   L 13.074644,50.108925   z "
     id="path9" />
  <path
     style="fill:#f7f7f7;fill-rule:evenodd;fill-opacity:1;stroke:#e2e2e2;stroke-width:0.018704783px;stroke-linecap:round;stroke-linejoin:round;stroke-miterlimit:4;stroke-dasharray:none;stroke-opacity:1;"
     d="  M 9.0905248,17.384346   L 11.971062,17.384346   L 12.326452,18.434533   L 8.7164292,18.434533   L 9.0905248,17.384346   z "
     id="path11" />
  <path
     style="fill:#bfbfbf;fill-rule:evenodd;fill-opacity:1;stroke:#bfbfbf;stroke-width:0.018704783px;stroke-linecap:round;stroke-linejoin:round;stroke-miterlimit:4;stroke-dasharray:none;stroke-opacity:1;"
     d="  M 11.971062,5.8697955   L 9.1092296,5.8697955   L 9.1092296,6.0385756   L 11.971062,6.0385756   L 11.971062,5.8697955   z "
     id="path13" />
  <path
     style="fill:#bfbfbf;fill-rule:evenodd;fill-opacity:1;stroke:#bfbfbf;stroke-width:0.018704783px;stroke-linecap:round;stroke-linejoin:round;stroke-miterlimit:4;stroke-dasharray:none;stroke-opacity:1;"
     d="  M 11.971062,7.3700627   L 9.1092296,7.3700627   L 9.1092296,7.5388428   L 11.971062,7.5388428   L 11.971062,7.3700627   z "
     id="path15" />
  <path
     style="fill:#bfbfbf;fill-rule:evenodd;fill-opacity:1;stroke:#bfbfbf;stroke-width:0.018704783px;stroke-linecap:round;stroke-linejoin:round;stroke-miterlimit:4;stroke-dasharray:none;stroke-opacity:1;"
     d="  M 8.2114,32.574552   L 12.850186,32.574552   L 12.850186,32.743332   L 8.2114,32.743332   L 8.2114,32.574552   z "
     id="path17" />
  <path
     style="fill:#bfbfbf;fill-rule:evenodd;fill-opacity:1;stroke:#bfbfbf;stroke-width:0.018704783px;stroke-linecap:round;stroke-linejoin:round;stroke-miterlimit:4;stroke-dasharray:none;stroke-opacity:1;"
     d="  M 8.1178761,34.581159   L 12.925005,34.581159   L 12.925005,34.749939   L 8.1178761,34.749939   L 8.1178761,34.581159   z "
     id="path19" />
  <path
     style="fill:#bfbfbf;fill-rule:evenodd;fill-opacity:1;stroke:#bfbfbf;stroke-width:0.018704783px;stroke-linecap:round;stroke-linejoin:round;stroke-miterlimit:4;stroke-dasharray:none;stroke-opacity:1;"
     d="  M 7.9682378,38.425594   L 13.074644,38.425594   L 13.074644,38.594374   L 7.9682378,38.594374   L 7.9682378,38.425594   z "
     id="path21" />
  <path
     style="fill:#bfbfbf;fill-rule:evenodd;fill-opacity:1;stroke:#bfbfbf;stroke-width:0.018704783px;stroke-linecap:round;stroke-linejoin:round;stroke-miterlimit:4;stroke-dasharray:none;stroke-opacity:1;"
     d="  M 7.9682378,40.432202   L 13.074644,40.432202   L 13.074644,40.600982   L 7.9682378,40.600982   L 7.9682378,40.432202   z "
     id="path23" />
  <path
     style="fill:none;stroke:none;"
     d="  M 0.48701912,47.858215   L 0,47.858215   L 0,48.348351   L 0.48701912,48.348351   L 0.48701912,47.858215  "
     id="path25" />
</svg>
