<?xml version="1.0" encoding="UTF-8" standalone="no"?>
<svg
   version="1.0"
   width="1.76mm"
   height="0.95999998mm"
   id="svg57"
   xmlns="http://www.w3.org/2000/svg"
   xmlns:svg="http://www.w3.org/2000/svg">
  <defs
     id="defs3">
    <pattern
       id="EMFhbasepattern"
       patternUnits="userSpaceOnUse"
       width="6"
       height="6"
       x="0"
       y="0" />
  </defs>
  <path
     style="fill:#dddddd;fill-rule:evenodd;fill-opacity:1;stroke:#000000;stroke-width:0.018519849px;stroke-linecap:round;stroke-linejoin:round;stroke-miterlimit:4;stroke-dasharray:none;stroke-opacity:1;"
     d="  M 1.1819316,1.6856451   M 3.3980532,1.6856451   M 6.518987,3.6400503   L 0,3.6400503   L 0,0   L 6.518987,0   L 6.518987,3.6400503   z "
     id="path5" />
  <path
     style="fill:#dddddd;fill-rule:evenodd;fill-opacity:1;stroke:#000000;stroke-width:0.018519849px;stroke-linecap:round;stroke-linejoin:round;stroke-miterlimit:4;stroke-dasharray:none;stroke-opacity:1;"
     d="  M 5.8707922,3.6400503   L 0.64819473,3.6400503   L 0.64819473,0   L 5.8707922,0   L 5.8707922,3.6400503   z "
     id="path7" />
  <path
     style="fill:#999974;fill-rule:evenodd;fill-opacity:1;stroke:#000000;stroke-width:0.018467681px;stroke-linecap:round;stroke-linejoin:round;stroke-miterlimit:4;stroke-dasharray:none;stroke-opacity:1;"
     d="  M 5.7619164,3.5628407   L 0.81257795,3.5628407   L 0.81257795,0.07662023   L 5.7619164,0.07662023   L 5.7619164,3.5628407   z "
     id="path9" />
  <path
     style="fill:#ccccb9;fill-rule:evenodd;fill-opacity:1;stroke:#7f7f7f;stroke-width:0.018467681px;stroke-linecap:round;stroke-linejoin:round;stroke-miterlimit:4;stroke-dasharray:none;stroke-opacity:1;"
     d="  M 5.6880457,0.40225621   L 5.6880457,0.34479104   L 5.6326426,0.22986069   L 5.5218365,0.17239552   L 1.0526578,0.17239552   L 0.94185172,0.22986069   L 0.88644867,0.34479104   L 0.88644867,3.313825   L 0.94185172,3.4287553   L 1.0526578,3.4862205   L 5.5218365,3.4862205   L 5.6326426,3.4287553   L 5.6880457,3.313825   L 5.6880457,3.2563598   L 5.6880457,0.40225621   z "
     id="path11" />
  <path
     style="fill:#938476;fill-rule:evenodd;fill-opacity:1;stroke:#000000;stroke-width:0.018467681px;stroke-linecap:round;stroke-linejoin:round;stroke-miterlimit:4;stroke-dasharray:none;stroke-opacity:1;"
     d="  M 1.1819316,3.2563598   L 1.1819316,1.1684585   L 1.3481407,1.1684585   L 1.3481407,0.95775288   L 1.1819316,0.95775288   L 1.1819316,0.6321169   L 1.5328175,0.6321169   L 1.5328175,0.24901575   L 2.7332167,0.24901575   L 2.7332167,0.6321169   L 3.1025704,0.6321169   L 3.1025704,0.95775288   L 2.9363612,0.95775288   L 2.9363612,1.1684585   L 3.1025704,1.1684585   L 3.1025704,3.2563598   L 1.1819316,3.2563598   z "
     id="path13" />
  <path
     style="fill:#938476;fill-rule:evenodd;fill-opacity:1;stroke:#000000;stroke-width:0.018467681px;stroke-linecap:round;stroke-linejoin:round;stroke-miterlimit:4;stroke-dasharray:none;stroke-opacity:1;"
     d="  M 1.1819316,0.80451242   L 1.1819316,0.6321169   L 1.5328175,0.6321169   L 1.5328175,0.22986069   L 2.7332167,0.22986069   L 2.7332167,0.6321169   L 3.1025704,0.6321169   L 3.1025704,0.80451242   L 1.1819316,0.80451242   z "
     id="path15" />
  <path
     style="fill:#706257;fill-rule:evenodd;fill-opacity:1;stroke:#000000;stroke-width:0.018467681px;stroke-linecap:round;stroke-linejoin:round;stroke-miterlimit:4;stroke-dasharray:none;stroke-opacity:1;"
     d="  M 1.1819316,0.80451242   L 1.1819316,0.88113265   L 3.1025704,0.88113265   L 3.1025704,0.80451242   L 1.1819316,0.80451242   z "
     id="path17" />
  <path
     style="fill:none;stroke:#000000;stroke-width:0.018467681px;stroke-linecap:round;stroke-linejoin:round;stroke-miterlimit:4;stroke-dasharray:none;stroke-opacity:1;"
     d="  M 1.1819316,1.6856451   L 3.0841027,1.6856451  "
     id="path19" />
  <path
     style="fill:#a09183;fill-rule:evenodd;fill-opacity:1;stroke:#000000;stroke-width:0.018467681px;stroke-linecap:round;stroke-linejoin:round;stroke-miterlimit:4;stroke-dasharray:none;stroke-opacity:1;"
     d="  M 2.8255551,3.2563598   L 2.8994259,3.1797396   L 2.9178936,3.1414294   L 2.9548289,3.1031193   L 2.9732966,3.0648092   L 2.9917643,3.007344   L 3.0286996,2.9307238   L 3.0471673,2.8732586   L 3.0841027,2.7966384   L 3.0841027,2.7008631   L 3.1025704,2.6433979   L 3.1025704,2.4518474   L 3.0841027,2.3943822   L 3.0841027,2.2986069   L 3.0471673,2.2219867   L 3.0286996,2.1645215   L 2.9917643,2.0879013   L 2.9732966,2.0304361   L 2.9548289,1.992126   L 2.9178936,1.9538159   L 2.8994259,1.9155058   L 2.7516844,1.7622653   L 2.7147491,1.7431102   L 2.6778137,1.7048001   L 2.6408783,1.6856451   L 2.5854753,1.66649   L 2.5116046,1.6281799   L 2.4562015,1.6090248   L 2.3823308,1.5707147   L 2.2899924,1.5707147   L 2.2345894,1.5515597   L 2.0499126,1.5515597   L 1.9945095,1.5707147   L 1.9021711,1.5707147   L 1.8283004,1.6090248   L 1.7728973,1.6281799   L 1.6990266,1.66649   L 1.6436236,1.6856451   L 1.6066882,1.7048001   L 1.5697529,1.7431102   L 1.5328175,1.7622653   L 1.3850761,1.9155058   L 1.3666084,1.9538159   L 1.329673,1.992126   L 1.3112053,2.0304361   L 1.2927376,2.0879013   L 1.2558023,2.1645215   L 1.2373346,2.2219867   L 1.2003992,2.2986069   L 1.2003992,2.3943822   L 1.1819316,2.4518474   L 1.1819316,2.6433979   L 1.2003992,2.7008631   L 1.2003992,2.7966384   L 1.2373346,2.8732586   L 1.2558023,2.9307238   L 1.2927376,3.007344   L 1.3112053,3.0648092   L 1.329673,3.1031193   L 1.3666084,3.1414294   L 1.3850761,3.1797396   L 1.4589468,3.2563598   L 2.8070875,3.2563598   L 2.8255551,3.2563598   z "
     id="path21" />
  <ellipse
     style="fill:none;stroke:#494949;stroke-width:0.018467681px;stroke-linecap:round;stroke-linejoin:round;stroke-miterlimit:4;stroke-dasharray:none;stroke-opacity:1;"
     cx="2.0591464"
     cy="2.4710024"
     rx="0.37858745"
     ry="0.38782129"
     id="ellipse23" />
  <ellipse
     style="fill:#706257;fill-rule:evenodd;fill-opacity:1;stroke:#000000;stroke-width:0.018467681px;stroke-linecap:round;stroke-linejoin:round;stroke-miterlimit:4;stroke-dasharray:none;stroke-opacity:1;"
     cx="2.0591464"
     cy="2.4710024"
     rx="0.23084601"
     ry="0.24007985"
     id="ellipse25" />
  <ellipse
     style="fill:none;stroke:#000000;stroke-width:0.018467681px;stroke-linecap:round;stroke-linejoin:round;stroke-miterlimit:4;stroke-dasharray:none;stroke-opacity:1;"
     cx="2.0591464"
     cy="2.4710024"
     rx="0.23084601"
     ry="0.24007985"
     id="ellipse27" />
  <ellipse
     style="fill:#9b8c81;fill-rule:evenodd;fill-opacity:1;stroke:#000000;stroke-width:0.018467681px;stroke-linecap:round;stroke-linejoin:round;stroke-miterlimit:4;stroke-dasharray:none;stroke-opacity:1;"
     cx="2.0591464"
     cy="2.4710024"
     rx="0.21237833"
     ry="0.22161217"
     id="ellipse29" />
  <ellipse
     style="fill:none;stroke:#000000;stroke-width:0.018467681px;stroke-linecap:round;stroke-linejoin:round;stroke-miterlimit:4;stroke-dasharray:none;stroke-opacity:1;"
     cx="2.0591464"
     cy="2.4710024"
     rx="0.21237833"
     ry="0.22161217"
     id="ellipse31" />
  <path
     style="fill:#4f443c;fill-rule:evenodd;fill-opacity:1;stroke:#000000;stroke-width:0.018467681px;stroke-linecap:round;stroke-linejoin:round;stroke-miterlimit:4;stroke-dasharray:none;stroke-opacity:1;"
     d="  M 2.197654,2.2602968   L 2.1053156,2.2602968   L 2.1053156,2.8541036   L 2.197654,2.8541036   L 2.197654,2.2602968   z "
     id="path33" />
  <path
     style="fill:#938476;fill-rule:evenodd;fill-opacity:1;stroke:#000000;stroke-width:0.018467681px;stroke-linecap:round;stroke-linejoin:round;stroke-miterlimit:4;stroke-dasharray:none;stroke-opacity:1;"
     d="  M 3.3980532,3.2563598   L 3.3980532,1.1684585   L 3.5642624,1.1684585   L 3.5642624,0.95775288   L 3.3980532,0.95775288   L 3.3980532,0.6321169   L 3.7489392,0.6321169   L 3.7489392,0.24901575   L 4.9493384,0.24901575   L 4.9493384,0.6321169   L 5.318692,0.6321169   L 5.318692,0.95775288   L 5.1524829,0.95775288   L 5.1524829,1.1684585   L 5.318692,1.1684585   L 5.318692,3.2563598   L 3.3980532,3.2563598   z "
     id="path35" />
  <path
     style="fill:#938476;fill-rule:evenodd;fill-opacity:1;stroke:#000000;stroke-width:0.018467681px;stroke-linecap:round;stroke-linejoin:round;stroke-miterlimit:4;stroke-dasharray:none;stroke-opacity:1;"
     d="  M 3.3980532,0.80451242   L 3.3980532,0.6321169   L 3.7489392,0.6321169   L 3.7489392,0.22986069   L 4.9493384,0.22986069   L 4.9493384,0.6321169   L 5.318692,0.6321169   L 5.318692,0.80451242   L 3.3980532,0.80451242   z "
     id="path37" />
  <path
     style="fill:#706257;fill-rule:evenodd;fill-opacity:1;stroke:#000000;stroke-width:0.018467681px;stroke-linecap:round;stroke-linejoin:round;stroke-miterlimit:4;stroke-dasharray:none;stroke-opacity:1;"
     d="  M 3.3980532,0.80451242   L 3.3980532,0.88113265   L 5.318692,0.88113265   L 5.318692,0.80451242   L 3.3980532,0.80451242   z "
     id="path39" />
  <path
     style="fill:none;stroke:#000000;stroke-width:0.018467681px;stroke-linecap:round;stroke-linejoin:round;stroke-miterlimit:4;stroke-dasharray:none;stroke-opacity:1;"
     d="  M 3.3980532,1.6856451   L 5.3002244,1.6856451  "
     id="path41" />
  <path
     style="fill:#a09183;fill-rule:evenodd;fill-opacity:1;stroke:#000000;stroke-width:0.018467681px;stroke-linecap:round;stroke-linejoin:round;stroke-miterlimit:4;stroke-dasharray:none;stroke-opacity:1;"
     d="  M 5.0416768,3.2563598   L 5.1155476,3.1797396   L 5.1340152,3.1414294   L 5.1709506,3.1031193   L 5.1894183,3.0648092   L 5.207886,3.007344   L 5.2448213,2.9307238   L 5.263289,2.8732586   L 5.3002244,2.7966384   L 5.3002244,2.7008631   L 5.318692,2.6433979   L 5.318692,2.4518474   L 5.3002244,2.3943822   L 5.3002244,2.2986069   L 5.263289,2.2219867   L 5.2448213,2.1645215   L 5.207886,2.0879013   L 5.1894183,2.0304361   L 5.1709506,1.992126   L 5.1340152,1.9538159   L 5.1155476,1.9155058   L 4.9678061,1.7622653   L 4.9308707,1.7431102   L 4.8939354,1.7048001   L 4.857,1.6856451   L 4.801597,1.66649   L 4.7277263,1.6281799   L 4.6723232,1.6090248   L 4.5984525,1.5707147   L 4.5061141,1.5707147   L 4.4507111,1.5515597   L 4.2660342,1.5515597   L 4.2106312,1.5707147   L 4.1182928,1.5707147   L 4.0444221,1.6090248   L 3.989019,1.6281799   L 3.9151483,1.66649   L 3.8597453,1.6856451   L 3.8228099,1.7048001   L 3.7858745,1.7431102   L 3.7489392,1.7622653   L 3.6011977,1.9155058   L 3.5827301,1.9538159   L 3.5457947,1.992126   L 3.527327,2.0304361   L 3.5088593,2.0879013   L 3.471924,2.1645215   L 3.4534563,2.2219867   L 3.4165209,2.2986069   L 3.4165209,2.3943822   L 3.3980532,2.4518474   L 3.3980532,2.6433979   L 3.4165209,2.7008631   L 3.4165209,2.7966384   L 3.4534563,2.8732586   L 3.471924,2.9307238   L 3.5088593,3.007344   L 3.527327,3.0648092   L 3.5457947,3.1031193   L 3.5827301,3.1414294   L 3.6011977,3.1797396   L 3.6750685,3.2563598   L 5.0232092,3.2563598   L 5.0416768,3.2563598   z "
     id="path43" />
  <ellipse
     style="fill:none;stroke:#494949;stroke-width:0.018467681px;stroke-linecap:round;stroke-linejoin:round;stroke-miterlimit:4;stroke-dasharray:none;stroke-opacity:1;"
     cx="4.2752681"
     cy="2.4710024"
     rx="0.37858745"
     ry="0.38782129"
     id="ellipse45" />
  <ellipse
     style="fill:#706257;fill-rule:evenodd;fill-opacity:1;stroke:#000000;stroke-width:0.018467681px;stroke-linecap:round;stroke-linejoin:round;stroke-miterlimit:4;stroke-dasharray:none;stroke-opacity:1;"
     cx="4.2752681"
     cy="2.4710024"
     rx="0.23084601"
     ry="0.24007985"
     id="ellipse47" />
  <ellipse
     style="fill:none;stroke:#000000;stroke-width:0.018467681px;stroke-linecap:round;stroke-linejoin:round;stroke-miterlimit:4;stroke-dasharray:none;stroke-opacity:1;"
     cx="4.2752681"
     cy="2.4710024"
     rx="0.23084601"
     ry="0.24007985"
     id="ellipse49" />
  <ellipse
     style="fill:#9b8c81;fill-rule:evenodd;fill-opacity:1;stroke:#000000;stroke-width:0.018467681px;stroke-linecap:round;stroke-linejoin:round;stroke-miterlimit:4;stroke-dasharray:none;stroke-opacity:1;"
     cx="4.2752681"
     cy="2.4710024"
     rx="0.21237833"
     ry="0.22161217"
     id="ellipse51" />
  <ellipse
     style="fill:none;stroke:#000000;stroke-width:0.018467681px;stroke-linecap:round;stroke-linejoin:round;stroke-miterlimit:4;stroke-dasharray:none;stroke-opacity:1;"
     cx="4.2752681"
     cy="2.4710024"
     rx="0.21237833"
     ry="0.22161217"
     id="ellipse53" />
  <path
     style="fill:#4f443c;fill-rule:evenodd;fill-opacity:1;stroke:#000000;stroke-width:0.018467681px;stroke-linecap:round;stroke-linejoin:round;stroke-miterlimit:4;stroke-dasharray:none;stroke-opacity:1;"
     d="  M 4.4137757,2.2602968   L 4.3214373,2.2602968   L 4.3214373,2.8541036   L 4.4137757,2.8541036   L 4.4137757,2.2602968   z "
     id="path55" />
</svg>
