<?xml version="1.0" encoding="UTF-8" standalone="no"?>
<svg
   version="1.0"
   width="21.620001mm"
   height="3.8399999mm"
   id="svg285"
   xmlns="http://www.w3.org/2000/svg"
   xmlns:svg="http://www.w3.org/2000/svg">
  <defs
     id="defs3">
    <pattern
       id="EMFhbasepattern"
       patternUnits="userSpaceOnUse"
       width="6"
       height="6"
       x="0"
       y="0" />
  </defs>
  <path
     style="fill:#eaeaea;fill-rule:evenodd;fill-opacity:1;stroke:#000000;stroke-width:0.09356422px;stroke-linecap:round;stroke-linejoin:round;stroke-miterlimit:4;stroke-dasharray:none;stroke-opacity:1;"
     d="  M 43.002116,11.035586   M 40.251328,11.035586   M 1.5164363,7.1661832   M 0.82374319,8.3331952   M 1.0484004,8.5520099   M 1.0484004,8.5520099   M 1.2917791,8.7890593   M 0.037425689,12.407984   L 0.037425689,12.501984   L 0.056138533,12.539584   L 0.056138533,12.577184   L 0.074851377,12.595984   L 0.074851377,12.633584   L 0.093564221,12.652384   L 0.093564221,12.689984   L 0.11227707,12.708783   L 0.13098991,12.746383   L 0.1684156,12.783983   L 0.18712844,12.821583   L 0.26197982,12.896783   L 0.29940551,12.915583   L 0.3368312,12.953183   L 0.37425689,12.971983   L 0.39296973,12.990783   L 0.43039542,12.990783   L 0.44910826,13.009583   L 0.48653395,13.009583   L 0.5052468,13.028383   L 0.54267248,13.028383   L 0.58009817,13.047183   L 80.933052,13.047183   L 80.970477,13.028383   L 81.007903,13.028383   L 81.026616,13.009583   L 81.064041,13.009583   L 81.082754,12.990783   L 81.12018,12.990783   L 81.138893,12.971983   L 81.176319,12.953183   L 81.213744,12.915583   L 81.25117,12.896783   L 81.326021,12.821583   L 81.344734,12.783983   L 81.38216,12.746383   L 81.400873,12.708783   L 81.419585,12.689984   L 81.419585,12.652384   L 81.438298,12.633584   L 81.438298,12.595984   L 81.457011,12.577184   L 81.457011,12.539584   L 81.475724,12.501984   L 81.475724,0.58279924   L 81.457011,0.54519929   L 81.457011,0.50759934   L 81.438298,0.48879937   L 81.438298,0.45119941   L 81.419585,0.43239944   L 81.419585,0.39479949   L 81.400873,0.37599951   L 81.38216,0.33839956   L 81.344734,0.30079961   L 81.326021,0.26319966   L 81.25117,0.18799976   L 81.213744,0.16919978   L 81.176319,0.13159983   L 81.138893,0.11279985   L 81.12018,0.093999878   L 81.082754,0.093999878   L 81.064041,0.075199902   L 81.026616,0.075199902   L 81.007903,0.056399927   L 80.970477,0.056399927   L 80.933052,0.037599951   L 0.58009817,0.037599951   L 0.54267248,0.056399927   L 0.5052468,0.056399927   L 0.48653395,0.075199902   L 0.44910826,0.075199902   L 0.43039542,0.093999878   L 0.39296973,0.093999878   L 0.37425689,0.11279985   L 0.3368312,0.13159983   L 0.29940551,0.16919978   L 0.26197982,0.18799976   L 0.18712844,0.26319966   L 0.1684156,0.30079961   L 0.13098991,0.33839956   L 0.11227707,0.37599951   L 0.093564221,0.39479949   L 0.093564221,0.43239944   L 0.074851377,0.45119941   L 0.074851377,0.48879937   L 0.056138533,0.50759934   L 0.056138533,0.54519929   L 0.037425689,0.58279924   L 0.037425689,12.370384   L 0.037425689,12.407984   z "
     id="path5" />
  <path
     style="fill:#333333;fill-rule:evenodd;fill-opacity:1;stroke:#000000;stroke-width:0.09356422px;stroke-linecap:round;stroke-linejoin:round;stroke-miterlimit:4;stroke-dasharray:none;stroke-opacity:1;"
     d="  M 6.8863267,13.047183   L 1.5157404,13.047183   L 1.7777202,14.475981   L 6.6243469,14.475981   L 6.8863267,13.047183   z "
     id="path7" />
  <path
     style="fill:#333333;fill-rule:evenodd;fill-opacity:1;stroke:#000000;stroke-width:0.09356422px;stroke-linecap:round;stroke-linejoin:round;stroke-miterlimit:4;stroke-dasharray:none;stroke-opacity:1;"
     d="  M 80.016122,13.047183   L 74.645536,13.047183   L 74.907516,14.475981   L 79.754142,14.475981   L 80.016122,13.047183   z "
     id="path9" />
  <path
     style="fill:#000000;fill-rule:evenodd;fill-opacity:1;stroke:#000000;stroke-width:0.018712845px;stroke-linecap:round;stroke-linejoin:round;stroke-miterlimit:4;stroke-dasharray:none;stroke-opacity:1;"
     d="  M 11.770379,2.4063969   L 11.770379,2.331197   L 11.751666,2.274797   L 11.676815,2.1619972   L 11.564538,2.0867973   L 11.508399,2.0679973   L 10.123649,2.0679973   L 10.06751,2.0867973   L 9.9552332,2.1619972   L 9.8803818,2.274797   L 9.8616689,2.331197   L 9.8616689,2.4815968   L 9.8803818,2.5379967   L 9.9552332,2.6507966   L 10.06751,2.7259965   L 10.123649,2.7447964   L 11.508399,2.7447964   L 11.564538,2.7259965   L 11.676815,2.6507966   L 11.751666,2.5379967   L 11.770379,2.4815968   L 11.770379,2.4063969   z "
     id="path11" />
  <path
     style="fill:#000000;fill-rule:evenodd;fill-opacity:1;stroke:#000000;stroke-width:0.018712845px;stroke-linecap:round;stroke-linejoin:round;stroke-miterlimit:4;stroke-dasharray:none;stroke-opacity:1;"
     d="  M 14.689583,2.4063969   L 14.689583,2.331197   L 14.67087,2.274797   L 14.596019,2.1619972   L 14.483741,2.0867973   L 14.427603,2.0679973   L 13.042852,2.0679973   L 12.986714,2.0867973   L 12.874437,2.1619972   L 12.799585,2.274797   L 12.780873,2.331197   L 12.780873,2.4815968   L 12.799585,2.5379967   L 12.874437,2.6507966   L 12.986714,2.7259965   L 13.042852,2.7447964   L 14.427603,2.7447964   L 14.483741,2.7259965   L 14.596019,2.6507966   L 14.67087,2.5379967   L 14.689583,2.4815968   L 14.689583,2.4063969   z "
     id="path13" />
  <path
     style="fill:#000000;fill-rule:evenodd;fill-opacity:1;stroke:#000000;stroke-width:0.018712845px;stroke-linecap:round;stroke-linejoin:round;stroke-miterlimit:4;stroke-dasharray:none;stroke-opacity:1;"
     d="  M 17.590074,2.4063969   L 17.590074,2.331197   L 17.571361,2.274797   L 17.496509,2.1619972   L 17.384232,2.0867973   L 17.328094,2.0679973   L 15.943343,2.0679973   L 15.887205,2.0867973   L 15.774928,2.1619972   L 15.700076,2.274797   L 15.681364,2.331197   L 15.681364,2.4815968   L 15.700076,2.5379967   L 15.774928,2.6507966   L 15.887205,2.7259965   L 15.943343,2.7447964   L 17.328094,2.7447964   L 17.384232,2.7259965   L 17.496509,2.6507966   L 17.571361,2.5379967   L 17.590074,2.4815968   L 17.590074,2.4063969   z "
     id="path15" />
  <path
     style="fill:#000000;fill-rule:evenodd;fill-opacity:1;stroke:#000000;stroke-width:0.018712845px;stroke-linecap:round;stroke-linejoin:round;stroke-miterlimit:4;stroke-dasharray:none;stroke-opacity:1;"
     d="  M 20.509277,2.4063969   L 20.509277,2.331197   L 20.490564,2.274797   L 20.415713,2.1619972   L 20.303436,2.0867973   L 20.247298,2.0679973   L 18.862547,2.0679973   L 18.806409,2.0867973   L 18.694131,2.1619972   L 18.61928,2.274797   L 18.600567,2.331197   L 18.600567,2.4815968   L 18.61928,2.5379967   L 18.694131,2.6507966   L 18.806409,2.7259965   L 18.862547,2.7447964   L 20.247298,2.7447964   L 20.303436,2.7259965   L 20.415713,2.6507966   L 20.490564,2.5379967   L 20.509277,2.4815968   L 20.509277,2.4063969   z "
     id="path17" />
  <path
     style="fill:#000000;fill-rule:evenodd;fill-opacity:1;stroke:#000000;stroke-width:0.018712845px;stroke-linecap:round;stroke-linejoin:round;stroke-miterlimit:4;stroke-dasharray:none;stroke-opacity:1;"
     d="  M 23.409768,2.4063969   L 23.409768,2.331197   L 23.391055,2.274797   L 23.316204,2.1619972   L 23.203927,2.0867973   L 23.147788,2.0679973   L 21.763038,2.0679973   L 21.706899,2.0867973   L 21.594622,2.1619972   L 21.519771,2.274797   L 21.501058,2.331197   L 21.501058,2.4815968   L 21.519771,2.5379967   L 21.594622,2.6507966   L 21.706899,2.7259965   L 21.763038,2.7447964   L 23.147788,2.7447964   L 23.203927,2.7259965   L 23.316204,2.6507966   L 23.391055,2.5379967   L 23.409768,2.4815968   L 23.409768,2.4063969   z "
     id="path19" />
  <path
     style="fill:#000000;fill-rule:evenodd;fill-opacity:1;stroke:#000000;stroke-width:0.018712845px;stroke-linecap:round;stroke-linejoin:round;stroke-miterlimit:4;stroke-dasharray:none;stroke-opacity:1;"
     d="  M 26.328972,2.4063969   L 26.328972,2.331197   L 26.310259,2.274797   L 26.235408,2.1619972   L 26.123131,2.0867973   L 26.066992,2.0679973   L 24.682242,2.0679973   L 24.626103,2.0867973   L 24.513826,2.1619972   L 24.438975,2.274797   L 24.420262,2.331197   L 24.420262,2.4815968   L 24.438975,2.5379967   L 24.513826,2.6507966   L 24.626103,2.7259965   L 24.682242,2.7447964   L 26.066992,2.7447964   L 26.123131,2.7259965   L 26.235408,2.6507966   L 26.310259,2.5379967   L 26.328972,2.4815968   L 26.328972,2.4063969   z "
     id="path21" />
  <path
     style="fill:#000000;fill-rule:evenodd;fill-opacity:1;stroke:#000000;stroke-width:0.018712845px;stroke-linecap:round;stroke-linejoin:round;stroke-miterlimit:4;stroke-dasharray:none;stroke-opacity:1;"
     d="  M 29.229463,2.4063969   L 29.229463,2.331197   L 29.21075,2.274797   L 29.135899,2.1619972   L 29.023621,2.0867973   L 28.967483,2.0679973   L 27.582732,2.0679973   L 27.526594,2.0867973   L 27.414317,2.1619972   L 27.339466,2.274797   L 27.320753,2.331197   L 27.320753,2.4815968   L 27.339466,2.5379967   L 27.414317,2.6507966   L 27.526594,2.7259965   L 27.582732,2.7447964   L 28.967483,2.7447964   L 29.023621,2.7259965   L 29.135899,2.6507966   L 29.21075,2.5379967   L 29.229463,2.4815968   L 29.229463,2.4063969   z "
     id="path23" />
  <path
     style="fill:#000000;fill-rule:evenodd;fill-opacity:1;stroke:#000000;stroke-width:0.018712845px;stroke-linecap:round;stroke-linejoin:round;stroke-miterlimit:4;stroke-dasharray:none;stroke-opacity:1;"
     d="  M 32.148666,2.4063969   L 32.148666,2.331197   L 32.129954,2.274797   L 32.055102,2.1619972   L 31.942825,2.0867973   L 31.886687,2.0679973   L 30.501936,2.0679973   L 30.445798,2.0867973   L 30.333521,2.1619972   L 30.258669,2.274797   L 30.239956,2.331197   L 30.239956,2.4815968   L 30.258669,2.5379967   L 30.333521,2.6507966   L 30.445798,2.7259965   L 30.501936,2.7447964   L 31.886687,2.7447964   L 31.942825,2.7259965   L 32.055102,2.6507966   L 32.129954,2.5379967   L 32.148666,2.4815968   L 32.148666,2.4063969   z "
     id="path25" />
  <path
     style="fill:#000000;fill-rule:evenodd;fill-opacity:1;stroke:#000000;stroke-width:0.018712845px;stroke-linecap:round;stroke-linejoin:round;stroke-miterlimit:4;stroke-dasharray:none;stroke-opacity:1;"
     d="  M 35.049157,2.4063969   L 35.049157,2.331197   L 35.030445,2.274797   L 34.955593,2.1619972   L 34.843316,2.0867973   L 34.787178,2.0679973   L 33.402427,2.0679973   L 33.346289,2.0867973   L 33.234011,2.1619972   L 33.15916,2.274797   L 33.140447,2.331197   L 33.140447,2.4815968   L 33.15916,2.5379967   L 33.234011,2.6507966   L 33.346289,2.7259965   L 33.402427,2.7447964   L 34.787178,2.7447964   L 34.843316,2.7259965   L 34.955593,2.6507966   L 35.030445,2.5379967   L 35.049157,2.4815968   L 35.049157,2.4063969   z "
     id="path27" />
  <path
     style="fill:#000000;fill-rule:evenodd;fill-opacity:1;stroke:#000000;stroke-width:0.018712845px;stroke-linecap:round;stroke-linejoin:round;stroke-miterlimit:4;stroke-dasharray:none;stroke-opacity:1;"
     d="  M 37.968361,2.4063969   L 37.968361,2.331197   L 37.949648,2.274797   L 37.874797,2.1619972   L 37.76252,2.0867973   L 37.706381,2.0679973   L 36.321631,2.0679973   L 36.265492,2.0867973   L 36.153215,2.1619972   L 36.078364,2.274797   L 36.059651,2.331197   L 36.059651,2.4815968   L 36.078364,2.5379967   L 36.153215,2.6507966   L 36.265492,2.7259965   L 36.321631,2.7447964   L 37.706381,2.7447964   L 37.76252,2.7259965   L 37.874797,2.6507966   L 37.949648,2.5379967   L 37.968361,2.4815968   L 37.968361,2.4063969   z "
     id="path29" />
  <path
     style="fill:#000000;fill-rule:evenodd;fill-opacity:1;stroke:#000000;stroke-width:0.018712845px;stroke-linecap:round;stroke-linejoin:round;stroke-miterlimit:4;stroke-dasharray:none;stroke-opacity:1;"
     d="  M 43.788056,2.4063969   L 43.788056,2.331197   L 43.769343,2.274797   L 43.694491,2.1619972   L 43.582214,2.0867973   L 43.526076,2.0679973   L 42.141325,2.0679973   L 42.085187,2.0867973   L 41.97291,2.1619972   L 41.898058,2.274797   L 41.879346,2.331197   L 41.879346,2.4815968   L 41.898058,2.5379967   L 41.97291,2.6507966   L 42.085187,2.7259965   L 42.141325,2.7447964   L 43.526076,2.7447964   L 43.582214,2.7259965   L 43.694491,2.6507966   L 43.769343,2.5379967   L 43.788056,2.4815968   L 43.788056,2.4063969   z "
     id="path31" />
  <path
     style="fill:#000000;fill-rule:evenodd;fill-opacity:1;stroke:#000000;stroke-width:0.018712845px;stroke-linecap:round;stroke-linejoin:round;stroke-miterlimit:4;stroke-dasharray:none;stroke-opacity:1;"
     d="  M 46.688546,2.4063969   L 46.688546,2.331197   L 46.669834,2.274797   L 46.594982,2.1619972   L 46.482705,2.0867973   L 46.426567,2.0679973   L 45.041816,2.0679973   L 44.985678,2.0867973   L 44.873401,2.1619972   L 44.798549,2.274797   L 44.779836,2.331197   L 44.779836,2.4815968   L 44.798549,2.5379967   L 44.873401,2.6507966   L 44.985678,2.7259965   L 45.041816,2.7447964   L 46.426567,2.7447964   L 46.482705,2.7259965   L 46.594982,2.6507966   L 46.669834,2.5379967   L 46.688546,2.4815968   L 46.688546,2.4063969   z "
     id="path33" />
  <path
     style="fill:#000000;fill-rule:evenodd;fill-opacity:1;stroke:#000000;stroke-width:0.018712845px;stroke-linecap:round;stroke-linejoin:round;stroke-miterlimit:4;stroke-dasharray:none;stroke-opacity:1;"
     d="  M 49.60775,2.4063969   L 49.60775,2.331197   L 49.589037,2.274797   L 49.514186,2.1619972   L 49.401909,2.0867973   L 49.34577,2.0679973   L 47.96102,2.0679973   L 47.904881,2.0867973   L 47.792604,2.1619972   L 47.717753,2.274797   L 47.69904,2.331197   L 47.69904,2.4815968   L 47.717753,2.5379967   L 47.792604,2.6507966   L 47.904881,2.7259965   L 47.96102,2.7447964   L 49.34577,2.7447964   L 49.401909,2.7259965   L 49.514186,2.6507966   L 49.589037,2.5379967   L 49.60775,2.4815968   L 49.60775,2.4063969   z "
     id="path35" />
  <path
     style="fill:#000000;fill-rule:evenodd;fill-opacity:1;stroke:#000000;stroke-width:0.018712845px;stroke-linecap:round;stroke-linejoin:round;stroke-miterlimit:4;stroke-dasharray:none;stroke-opacity:1;"
     d="  M 52.508241,2.4063969   L 52.508241,2.331197   L 52.489528,2.274797   L 52.414677,2.1619972   L 52.3024,2.0867973   L 52.246261,2.0679973   L 50.861511,2.0679973   L 50.805372,2.0867973   L 50.693095,2.1619972   L 50.618244,2.274797   L 50.599531,2.331197   L 50.599531,2.4815968   L 50.618244,2.5379967   L 50.693095,2.6507966   L 50.805372,2.7259965   L 50.861511,2.7447964   L 52.246261,2.7447964   L 52.3024,2.7259965   L 52.414677,2.6507966   L 52.489528,2.5379967   L 52.508241,2.4815968   L 52.508241,2.4063969   z "
     id="path37" />
  <path
     style="fill:#000000;fill-rule:evenodd;fill-opacity:1;stroke:#000000;stroke-width:0.018712845px;stroke-linecap:round;stroke-linejoin:round;stroke-miterlimit:4;stroke-dasharray:none;stroke-opacity:1;"
     d="  M 55.427445,2.4063969   L 55.427445,2.331197   L 55.408732,2.274797   L 55.333881,2.1619972   L 55.221603,2.0867973   L 55.165465,2.0679973   L 53.780714,2.0679973   L 53.724576,2.0867973   L 53.612299,2.1619972   L 53.537448,2.274797   L 53.518735,2.331197   L 53.518735,2.4815968   L 53.537448,2.5379967   L 53.612299,2.6507966   L 53.724576,2.7259965   L 53.780714,2.7447964   L 55.165465,2.7447964   L 55.221603,2.7259965   L 55.333881,2.6507966   L 55.408732,2.5379967   L 55.427445,2.4815968   L 55.427445,2.4063969   z "
     id="path39" />
  <path
     style="fill:#000000;fill-rule:evenodd;fill-opacity:1;stroke:#000000;stroke-width:0.018712845px;stroke-linecap:round;stroke-linejoin:round;stroke-miterlimit:4;stroke-dasharray:none;stroke-opacity:1;"
     d="  M 58.327936,2.4063969   L 58.327936,2.331197   L 58.309223,2.274797   L 58.234371,2.1619972   L 58.122094,2.0867973   L 58.065956,2.0679973   L 56.681205,2.0679973   L 56.625067,2.0867973   L 56.51279,2.1619972   L 56.437938,2.274797   L 56.419226,2.331197   L 56.419226,2.4815968   L 56.437938,2.5379967   L 56.51279,2.6507966   L 56.625067,2.7259965   L 56.681205,2.7447964   L 58.065956,2.7447964   L 58.122094,2.7259965   L 58.234371,2.6507966   L 58.309223,2.5379967   L 58.327936,2.4815968   L 58.327936,2.4063969   z "
     id="path41" />
  <path
     style="fill:#000000;fill-rule:evenodd;fill-opacity:1;stroke:#000000;stroke-width:0.018712845px;stroke-linecap:round;stroke-linejoin:round;stroke-miterlimit:4;stroke-dasharray:none;stroke-opacity:1;"
     d="  M 61.247139,2.4063969   L 61.247139,2.331197   L 61.228427,2.274797   L 61.153575,2.1619972   L 61.041298,2.0867973   L 60.98516,2.0679973   L 59.600409,2.0679973   L 59.544271,2.0867973   L 59.431993,2.1619972   L 59.357142,2.274797   L 59.338429,2.331197   L 59.338429,2.4815968   L 59.357142,2.5379967   L 59.431993,2.6507966   L 59.544271,2.7259965   L 59.600409,2.7447964   L 60.98516,2.7447964   L 61.041298,2.7259965   L 61.153575,2.6507966   L 61.228427,2.5379967   L 61.247139,2.4815968   L 61.247139,2.4063969   z "
     id="path43" />
  <path
     style="fill:#000000;fill-rule:evenodd;fill-opacity:1;stroke:#000000;stroke-width:0.018712845px;stroke-linecap:round;stroke-linejoin:round;stroke-miterlimit:4;stroke-dasharray:none;stroke-opacity:1;"
     d="  M 64.14763,2.4063969   L 64.14763,2.331197   L 64.128917,2.274797   L 64.054066,2.1619972   L 63.941789,2.0867973   L 63.88565,2.0679973   L 62.5009,2.0679973   L 62.444761,2.0867973   L 62.332484,2.1619972   L 62.257633,2.274797   L 62.23892,2.331197   L 62.23892,2.4815968   L 62.257633,2.5379967   L 62.332484,2.6507966   L 62.444761,2.7259965   L 62.5009,2.7447964   L 63.88565,2.7447964   L 63.941789,2.7259965   L 64.054066,2.6507966   L 64.128917,2.5379967   L 64.14763,2.4815968   L 64.14763,2.4063969   z "
     id="path45" />
  <path
     style="fill:#000000;fill-rule:evenodd;fill-opacity:1;stroke:#000000;stroke-width:0.018712845px;stroke-linecap:round;stroke-linejoin:round;stroke-miterlimit:4;stroke-dasharray:none;stroke-opacity:1;"
     d="  M 67.066834,2.4063969   L 67.066834,2.331197   L 67.048121,2.274797   L 66.97327,2.1619972   L 66.860993,2.0867973   L 66.804854,2.0679973   L 65.420104,2.0679973   L 65.363965,2.0867973   L 65.251688,2.1619972   L 65.176837,2.274797   L 65.158124,2.331197   L 65.158124,2.4815968   L 65.176837,2.5379967   L 65.251688,2.6507966   L 65.363965,2.7259965   L 65.420104,2.7447964   L 66.804854,2.7447964   L 66.860993,2.7259965   L 66.97327,2.6507966   L 67.048121,2.5379967   L 67.066834,2.4815968   L 67.066834,2.4063969   z "
     id="path47" />
  <path
     style="fill:#000000;fill-rule:evenodd;fill-opacity:1;stroke:#000000;stroke-width:0.018712845px;stroke-linecap:round;stroke-linejoin:round;stroke-miterlimit:4;stroke-dasharray:none;stroke-opacity:1;"
     d="  M 11.770379,1.0903986   L 11.770379,1.0151987   L 11.751666,0.95879875   L 11.676815,0.8459989   L 11.564538,0.770799   L 11.508399,0.75199902   L 10.123649,0.75199902   L 10.06751,0.770799   L 9.9552332,0.8459989   L 9.8803818,0.95879875   L 9.8616689,1.0151987   L 9.8616689,1.1655985   L 9.8803818,1.2219984   L 9.9552332,1.3347983   L 10.06751,1.4099982   L 10.123649,1.4287981   L 11.508399,1.4287981   L 11.564538,1.4099982   L 11.676815,1.3347983   L 11.751666,1.2219984   L 11.770379,1.1655985   L 11.770379,1.0903986   z "
     id="path49" />
  <path
     style="fill:#000000;fill-rule:evenodd;fill-opacity:1;stroke:#000000;stroke-width:0.018712845px;stroke-linecap:round;stroke-linejoin:round;stroke-miterlimit:4;stroke-dasharray:none;stroke-opacity:1;"
     d="  M 14.689583,1.0903986   L 14.689583,1.0151987   L 14.67087,0.95879875   L 14.596019,0.8459989   L 14.483741,0.770799   L 14.427603,0.75199902   L 13.042852,0.75199902   L 12.986714,0.770799   L 12.874437,0.8459989   L 12.799585,0.95879875   L 12.780873,1.0151987   L 12.780873,1.1655985   L 12.799585,1.2219984   L 12.874437,1.3347983   L 12.986714,1.4099982   L 13.042852,1.4287981   L 14.427603,1.4287981   L 14.483741,1.4099982   L 14.596019,1.3347983   L 14.67087,1.2219984   L 14.689583,1.1655985   L 14.689583,1.0903986   z "
     id="path51" />
  <path
     style="fill:#000000;fill-rule:evenodd;fill-opacity:1;stroke:#000000;stroke-width:0.018712845px;stroke-linecap:round;stroke-linejoin:round;stroke-miterlimit:4;stroke-dasharray:none;stroke-opacity:1;"
     d="  M 17.590074,1.0903986   L 17.590074,1.0151987   L 17.571361,0.95879875   L 17.496509,0.8459989   L 17.384232,0.770799   L 17.328094,0.75199902   L 15.943343,0.75199902   L 15.887205,0.770799   L 15.774928,0.8459989   L 15.700076,0.95879875   L 15.681364,1.0151987   L 15.681364,1.1655985   L 15.700076,1.2219984   L 15.774928,1.3347983   L 15.887205,1.4099982   L 15.943343,1.4287981   L 17.328094,1.4287981   L 17.384232,1.4099982   L 17.496509,1.3347983   L 17.571361,1.2219984   L 17.590074,1.1655985   L 17.590074,1.0903986   z "
     id="path53" />
  <path
     style="fill:#000000;fill-rule:evenodd;fill-opacity:1;stroke:#000000;stroke-width:0.018712845px;stroke-linecap:round;stroke-linejoin:round;stroke-miterlimit:4;stroke-dasharray:none;stroke-opacity:1;"
     d="  M 20.509277,1.0903986   L 20.509277,1.0151987   L 20.490564,0.95879875   L 20.415713,0.8459989   L 20.303436,0.770799   L 20.247298,0.75199902   L 18.862547,0.75199902   L 18.806409,0.770799   L 18.694131,0.8459989   L 18.61928,0.95879875   L 18.600567,1.0151987   L 18.600567,1.1655985   L 18.61928,1.2219984   L 18.694131,1.3347983   L 18.806409,1.4099982   L 18.862547,1.4287981   L 20.247298,1.4287981   L 20.303436,1.4099982   L 20.415713,1.3347983   L 20.490564,1.2219984   L 20.509277,1.1655985   L 20.509277,1.0903986   z "
     id="path55" />
  <path
     style="fill:#000000;fill-rule:evenodd;fill-opacity:1;stroke:#000000;stroke-width:0.018712845px;stroke-linecap:round;stroke-linejoin:round;stroke-miterlimit:4;stroke-dasharray:none;stroke-opacity:1;"
     d="  M 23.409768,1.0903986   L 23.409768,1.0151987   L 23.391055,0.95879875   L 23.316204,0.8459989   L 23.203927,0.770799   L 23.147788,0.75199902   L 21.763038,0.75199902   L 21.706899,0.770799   L 21.594622,0.8459989   L 21.519771,0.95879875   L 21.501058,1.0151987   L 21.501058,1.1655985   L 21.519771,1.2219984   L 21.594622,1.3347983   L 21.706899,1.4099982   L 21.763038,1.4287981   L 23.147788,1.4287981   L 23.203927,1.4099982   L 23.316204,1.3347983   L 23.391055,1.2219984   L 23.409768,1.1655985   L 23.409768,1.0903986   z "
     id="path57" />
  <path
     style="fill:#000000;fill-rule:evenodd;fill-opacity:1;stroke:#000000;stroke-width:0.018712845px;stroke-linecap:round;stroke-linejoin:round;stroke-miterlimit:4;stroke-dasharray:none;stroke-opacity:1;"
     d="  M 26.328972,1.0903986   L 26.328972,1.0151987   L 26.310259,0.95879875   L 26.235408,0.8459989   L 26.123131,0.770799   L 26.066992,0.75199902   L 24.682242,0.75199902   L 24.626103,0.770799   L 24.513826,0.8459989   L 24.438975,0.95879875   L 24.420262,1.0151987   L 24.420262,1.1655985   L 24.438975,1.2219984   L 24.513826,1.3347983   L 24.626103,1.4099982   L 24.682242,1.4287981   L 26.066992,1.4287981   L 26.123131,1.4099982   L 26.235408,1.3347983   L 26.310259,1.2219984   L 26.328972,1.1655985   L 26.328972,1.0903986   z "
     id="path59" />
  <path
     style="fill:#000000;fill-rule:evenodd;fill-opacity:1;stroke:#000000;stroke-width:0.018712845px;stroke-linecap:round;stroke-linejoin:round;stroke-miterlimit:4;stroke-dasharray:none;stroke-opacity:1;"
     d="  M 29.229463,1.0903986   L 29.229463,1.0151987   L 29.21075,0.95879875   L 29.135899,0.8459989   L 29.023621,0.770799   L 28.967483,0.75199902   L 27.582732,0.75199902   L 27.526594,0.770799   L 27.414317,0.8459989   L 27.339466,0.95879875   L 27.320753,1.0151987   L 27.320753,1.1655985   L 27.339466,1.2219984   L 27.414317,1.3347983   L 27.526594,1.4099982   L 27.582732,1.4287981   L 28.967483,1.4287981   L 29.023621,1.4099982   L 29.135899,1.3347983   L 29.21075,1.2219984   L 29.229463,1.1655985   L 29.229463,1.0903986   z "
     id="path61" />
  <path
     style="fill:#000000;fill-rule:evenodd;fill-opacity:1;stroke:#000000;stroke-width:0.018712845px;stroke-linecap:round;stroke-linejoin:round;stroke-miterlimit:4;stroke-dasharray:none;stroke-opacity:1;"
     d="  M 32.148666,1.0903986   L 32.148666,1.0151987   L 32.129954,0.95879875   L 32.055102,0.8459989   L 31.942825,0.770799   L 31.886687,0.75199902   L 30.501936,0.75199902   L 30.445798,0.770799   L 30.333521,0.8459989   L 30.258669,0.95879875   L 30.239956,1.0151987   L 30.239956,1.1655985   L 30.258669,1.2219984   L 30.333521,1.3347983   L 30.445798,1.4099982   L 30.501936,1.4287981   L 31.886687,1.4287981   L 31.942825,1.4099982   L 32.055102,1.3347983   L 32.129954,1.2219984   L 32.148666,1.1655985   L 32.148666,1.0903986   z "
     id="path63" />
  <path
     style="fill:#000000;fill-rule:evenodd;fill-opacity:1;stroke:#000000;stroke-width:0.018712845px;stroke-linecap:round;stroke-linejoin:round;stroke-miterlimit:4;stroke-dasharray:none;stroke-opacity:1;"
     d="  M 35.049157,1.0903986   L 35.049157,1.0151987   L 35.030445,0.95879875   L 34.955593,0.8459989   L 34.843316,0.770799   L 34.787178,0.75199902   L 33.402427,0.75199902   L 33.346289,0.770799   L 33.234011,0.8459989   L 33.15916,0.95879875   L 33.140447,1.0151987   L 33.140447,1.1655985   L 33.15916,1.2219984   L 33.234011,1.3347983   L 33.346289,1.4099982   L 33.402427,1.4287981   L 34.787178,1.4287981   L 34.843316,1.4099982   L 34.955593,1.3347983   L 35.030445,1.2219984   L 35.049157,1.1655985   L 35.049157,1.0903986   z "
     id="path65" />
  <path
     style="fill:#000000;fill-rule:evenodd;fill-opacity:1;stroke:#000000;stroke-width:0.018712845px;stroke-linecap:round;stroke-linejoin:round;stroke-miterlimit:4;stroke-dasharray:none;stroke-opacity:1;"
     d="  M 37.968361,1.0903986   L 37.968361,1.0151987   L 37.949648,0.95879875   L 37.874797,0.8459989   L 37.76252,0.770799   L 37.706381,0.75199902   L 36.321631,0.75199902   L 36.265492,0.770799   L 36.153215,0.8459989   L 36.078364,0.95879875   L 36.059651,1.0151987   L 36.059651,1.1655985   L 36.078364,1.2219984   L 36.153215,1.3347983   L 36.265492,1.4099982   L 36.321631,1.4287981   L 37.706381,1.4287981   L 37.76252,1.4099982   L 37.874797,1.3347983   L 37.949648,1.2219984   L 37.968361,1.1655985   L 37.968361,1.0903986   z "
     id="path67" />
  <path
     style="fill:#000000;fill-rule:evenodd;fill-opacity:1;stroke:#000000;stroke-width:0.018712845px;stroke-linecap:round;stroke-linejoin:round;stroke-miterlimit:4;stroke-dasharray:none;stroke-opacity:1;"
     d="  M 43.788056,1.0903986   L 43.788056,1.0151987   L 43.769343,0.95879875   L 43.694491,0.8459989   L 43.582214,0.770799   L 43.526076,0.75199902   L 42.141325,0.75199902   L 42.085187,0.770799   L 41.97291,0.8459989   L 41.898058,0.95879875   L 41.879346,1.0151987   L 41.879346,1.1655985   L 41.898058,1.2219984   L 41.97291,1.3347983   L 42.085187,1.4099982   L 42.141325,1.4287981   L 43.526076,1.4287981   L 43.582214,1.4099982   L 43.694491,1.3347983   L 43.769343,1.2219984   L 43.788056,1.1655985   L 43.788056,1.0903986   z "
     id="path69" />
  <path
     style="fill:#000000;fill-rule:evenodd;fill-opacity:1;stroke:#000000;stroke-width:0.018712845px;stroke-linecap:round;stroke-linejoin:round;stroke-miterlimit:4;stroke-dasharray:none;stroke-opacity:1;"
     d="  M 46.688546,1.0903986   L 46.688546,1.0151987   L 46.669834,0.95879875   L 46.594982,0.8459989   L 46.482705,0.770799   L 46.426567,0.75199902   L 45.041816,0.75199902   L 44.985678,0.770799   L 44.873401,0.8459989   L 44.798549,0.95879875   L 44.779836,1.0151987   L 44.779836,1.1655985   L 44.798549,1.2219984   L 44.873401,1.3347983   L 44.985678,1.4099982   L 45.041816,1.4287981   L 46.426567,1.4287981   L 46.482705,1.4099982   L 46.594982,1.3347983   L 46.669834,1.2219984   L 46.688546,1.1655985   L 46.688546,1.0903986   z "
     id="path71" />
  <path
     style="fill:#000000;fill-rule:evenodd;fill-opacity:1;stroke:#000000;stroke-width:0.018712845px;stroke-linecap:round;stroke-linejoin:round;stroke-miterlimit:4;stroke-dasharray:none;stroke-opacity:1;"
     d="  M 49.60775,1.0903986   L 49.60775,1.0151987   L 49.589037,0.95879875   L 49.514186,0.8459989   L 49.401909,0.770799   L 49.34577,0.75199902   L 47.96102,0.75199902   L 47.904881,0.770799   L 47.792604,0.8459989   L 47.717753,0.95879875   L 47.69904,1.0151987   L 47.69904,1.1655985   L 47.717753,1.2219984   L 47.792604,1.3347983   L 47.904881,1.4099982   L 47.96102,1.4287981   L 49.34577,1.4287981   L 49.401909,1.4099982   L 49.514186,1.3347983   L 49.589037,1.2219984   L 49.60775,1.1655985   L 49.60775,1.0903986   z "
     id="path73" />
  <path
     style="fill:#000000;fill-rule:evenodd;fill-opacity:1;stroke:#000000;stroke-width:0.018712845px;stroke-linecap:round;stroke-linejoin:round;stroke-miterlimit:4;stroke-dasharray:none;stroke-opacity:1;"
     d="  M 52.508241,1.0903986   L 52.508241,1.0151987   L 52.489528,0.95879875   L 52.414677,0.8459989   L 52.3024,0.770799   L 52.246261,0.75199902   L 50.861511,0.75199902   L 50.805372,0.770799   L 50.693095,0.8459989   L 50.618244,0.95879875   L 50.599531,1.0151987   L 50.599531,1.1655985   L 50.618244,1.2219984   L 50.693095,1.3347983   L 50.805372,1.4099982   L 50.861511,1.4287981   L 52.246261,1.4287981   L 52.3024,1.4099982   L 52.414677,1.3347983   L 52.489528,1.2219984   L 52.508241,1.1655985   L 52.508241,1.0903986   z "
     id="path75" />
  <path
     style="fill:#000000;fill-rule:evenodd;fill-opacity:1;stroke:#000000;stroke-width:0.018712845px;stroke-linecap:round;stroke-linejoin:round;stroke-miterlimit:4;stroke-dasharray:none;stroke-opacity:1;"
     d="  M 55.427445,1.0903986   L 55.427445,1.0151987   L 55.408732,0.95879875   L 55.333881,0.8459989   L 55.221603,0.770799   L 55.165465,0.75199902   L 53.780714,0.75199902   L 53.724576,0.770799   L 53.612299,0.8459989   L 53.537448,0.95879875   L 53.518735,1.0151987   L 53.518735,1.1655985   L 53.537448,1.2219984   L 53.612299,1.3347983   L 53.724576,1.4099982   L 53.780714,1.4287981   L 55.165465,1.4287981   L 55.221603,1.4099982   L 55.333881,1.3347983   L 55.408732,1.2219984   L 55.427445,1.1655985   L 55.427445,1.0903986   z "
     id="path77" />
  <path
     style="fill:#000000;fill-rule:evenodd;fill-opacity:1;stroke:#000000;stroke-width:0.018712845px;stroke-linecap:round;stroke-linejoin:round;stroke-miterlimit:4;stroke-dasharray:none;stroke-opacity:1;"
     d="  M 58.327936,1.0903986   L 58.327936,1.0151987   L 58.309223,0.95879875   L 58.234371,0.8459989   L 58.122094,0.770799   L 58.065956,0.75199902   L 56.681205,0.75199902   L 56.625067,0.770799   L 56.51279,0.8459989   L 56.437938,0.95879875   L 56.419226,1.0151987   L 56.419226,1.1655985   L 56.437938,1.2219984   L 56.51279,1.3347983   L 56.625067,1.4099982   L 56.681205,1.4287981   L 58.065956,1.4287981   L 58.122094,1.4099982   L 58.234371,1.3347983   L 58.309223,1.2219984   L 58.327936,1.1655985   L 58.327936,1.0903986   z "
     id="path79" />
  <path
     style="fill:#000000;fill-rule:evenodd;fill-opacity:1;stroke:#000000;stroke-width:0.018712845px;stroke-linecap:round;stroke-linejoin:round;stroke-miterlimit:4;stroke-dasharray:none;stroke-opacity:1;"
     d="  M 61.247139,1.0903986   L 61.247139,1.0151987   L 61.228427,0.95879875   L 61.153575,0.8459989   L 61.041298,0.770799   L 60.98516,0.75199902   L 59.600409,0.75199902   L 59.544271,0.770799   L 59.431993,0.8459989   L 59.357142,0.95879875   L 59.338429,1.0151987   L 59.338429,1.1655985   L 59.357142,1.2219984   L 59.431993,1.3347983   L 59.544271,1.4099982   L 59.600409,1.4287981   L 60.98516,1.4287981   L 61.041298,1.4099982   L 61.153575,1.3347983   L 61.228427,1.2219984   L 61.247139,1.1655985   L 61.247139,1.0903986   z "
     id="path81" />
  <path
     style="fill:#000000;fill-rule:evenodd;fill-opacity:1;stroke:#000000;stroke-width:0.018712845px;stroke-linecap:round;stroke-linejoin:round;stroke-miterlimit:4;stroke-dasharray:none;stroke-opacity:1;"
     d="  M 64.14763,1.0903986   L 64.14763,1.0151987   L 64.128917,0.95879875   L 64.054066,0.8459989   L 63.941789,0.770799   L 63.88565,0.75199902   L 62.5009,0.75199902   L 62.444761,0.770799   L 62.332484,0.8459989   L 62.257633,0.95879875   L 62.23892,1.0151987   L 62.23892,1.1655985   L 62.257633,1.2219984   L 62.332484,1.3347983   L 62.444761,1.4099982   L 62.5009,1.4287981   L 63.88565,1.4287981   L 63.941789,1.4099982   L 64.054066,1.3347983   L 64.128917,1.2219984   L 64.14763,1.1655985   L 64.14763,1.0903986   z "
     id="path83" />
  <path
     style="fill:#000000;fill-rule:evenodd;fill-opacity:1;stroke:#000000;stroke-width:0.018712845px;stroke-linecap:round;stroke-linejoin:round;stroke-miterlimit:4;stroke-dasharray:none;stroke-opacity:1;"
     d="  M 67.066834,1.0903986   L 67.066834,1.0151987   L 67.048121,0.95879875   L 66.97327,0.8459989   L 66.860993,0.770799   L 66.804854,0.75199902   L 65.420104,0.75199902   L 65.363965,0.770799   L 65.251688,0.8459989   L 65.176837,0.95879875   L 65.158124,1.0151987   L 65.158124,1.1655985   L 65.176837,1.2219984   L 65.251688,1.3347983   L 65.363965,1.4099982   L 65.420104,1.4287981   L 66.804854,1.4287981   L 66.860993,1.4099982   L 66.97327,1.3347983   L 67.048121,1.2219984   L 67.066834,1.1655985   L 67.066834,1.0903986   z "
     id="path85" />
  <ellipse
     style="fill:#000000;fill-rule:evenodd;fill-opacity:1;stroke:#000000;stroke-width:0.018712845px;stroke-linecap:round;stroke-linejoin:round;stroke-miterlimit:4;stroke-dasharray:none;stroke-opacity:1;"
     cx="3.1437578"
     cy="8.3377892"
     rx="0.29940551"
     ry="0.29004909"
     id="ellipse87" />
  <ellipse
     style="fill:none;stroke:#000000;stroke-width:0.018712845px;stroke-linecap:round;stroke-linejoin:round;stroke-miterlimit:4;stroke-dasharray:none;stroke-opacity:1;"
     cx="3.1437578"
     cy="8.3377892"
     rx="0.29940551"
     ry="0.29004909"
     id="ellipse89" />
  <ellipse
     style="fill:#333333;fill-rule:evenodd;fill-opacity:1;stroke:#000000;stroke-width:0.018712845px;stroke-linecap:round;stroke-linejoin:round;stroke-miterlimit:4;stroke-dasharray:none;stroke-opacity:1;"
     cx="3.1344014"
     cy="8.3471892"
     rx="0.21519771"
     ry="0.22455413"
     id="ellipse91" />
  <ellipse
     style="fill:none;stroke:#000000;stroke-width:0.018712845px;stroke-linecap:round;stroke-linejoin:round;stroke-miterlimit:4;stroke-dasharray:none;stroke-opacity:1;"
     cx="3.1344014"
     cy="8.3471892"
     rx="0.21519771"
     ry="0.22455413"
     id="ellipse93" />
  <path
     style="fill:#666666;fill-rule:evenodd;fill-opacity:1;stroke:#000000;stroke-width:0.018712845px;stroke-linecap:round;stroke-linejoin:round;stroke-miterlimit:4;stroke-dasharray:none;stroke-opacity:1;"
     d="  M 19.704625,3.9103949   L 13.604238,3.9103949   L 13.604238,9.0991882   L 19.704625,9.0991882   L 19.704625,3.9103949   z "
     id="path95" />
  <path
     style="fill:#666666;fill-rule:evenodd;fill-opacity:1;stroke:#000000;stroke-width:0.018712845px;stroke-linecap:round;stroke-linejoin:round;stroke-miterlimit:4;stroke-dasharray:none;stroke-opacity:1;"
     d="  M 75.431475,3.9103949   L 48.971514,3.9103949   L 48.971514,9.0991882   L 75.431475,9.0991882   L 75.431475,3.9103949   z "
     id="path97" />
  <path
     style="fill:#bfbfbf;fill-rule:evenodd;fill-opacity:1;stroke:#000000;stroke-width:0.018712845px;stroke-linecap:round;stroke-linejoin:round;stroke-miterlimit:4;stroke-dasharray:none;stroke-opacity:1;"
     d="  M 19.554922,4.0419948   L 13.753941,4.0419948   L 13.753941,8.9675884   L 19.554922,8.9675884   L 19.554922,4.0419948   z "
     id="path99" />
  <path
     style="fill:#bfbfbf;fill-rule:evenodd;fill-opacity:1;stroke:#000000;stroke-width:0.018712845px;stroke-linecap:round;stroke-linejoin:round;stroke-miterlimit:4;stroke-dasharray:none;stroke-opacity:1;"
     d="  M 75.281773,4.0419948   L 49.121216,4.0419948   L 49.121216,8.9675884   L 75.281773,8.9675884   L 75.281773,4.0419948   z "
     id="path101" />
  <path
     style="fill:none;stroke:#000000;stroke-width:0.074851379px;stroke-linecap:round;stroke-linejoin:round;stroke-miterlimit:4;stroke-dasharray:none;stroke-opacity:1;"
     d="  M 41.879346,11.148386   L 41.617366,11.148386   L 41.617366,11.129586   L 41.57994,11.129586   L 41.57994,11.110786   L 41.561227,11.110786   L 41.542514,11.091986   L 41.542514,11.073186   L 41.523801,11.073186   L 41.523801,11.054386   L 41.505089,11.035586   L 41.505089,10.941586   L 41.523801,10.941586   L 41.523801,10.903986   L 41.542514,10.903986   L 41.542514,10.885186   L 41.561227,10.885186   L 41.561227,10.866386   L 41.57994,10.866386   L 41.57994,10.847586   L 41.617366,10.847586   L 41.617366,10.828786   L 42.029048,10.828786   L 42.047761,10.847586   L 42.066474,10.847586   L 42.066474,10.866386   L 42.085187,10.866386   L 42.1039,10.885186   L 42.1039,10.903986   L 42.122612,10.903986   L 42.122612,10.941586   L 42.141325,10.941586   L 42.141325,11.035586   L 42.122612,11.035586   L 42.122612,11.073186   L 42.1039,11.073186   L 42.1039,11.110786   L 42.085187,11.110786   L 42.085187,11.129586  "
     id="path103" />
  <path
     style="fill:none;stroke:#000000;stroke-width:0.074851379px;stroke-linecap:round;stroke-linejoin:round;stroke-miterlimit:4;stroke-dasharray:none;stroke-opacity:1;"
     d="  M 42.253602,10.922786   L 42.515582,10.922786   L 42.515582,10.941586   L 42.553008,10.941586   L 42.553008,10.960386   L 42.571721,10.960386   L 42.571721,10.979186   L 42.590434,10.979186   L 42.590434,10.997986   L 42.609146,10.997986   L 42.609146,11.016786   L 42.627859,11.035586   L 42.627859,11.129586   L 42.609146,11.129586   L 42.609146,11.167185   L 42.590434,11.167185   L 42.590434,11.185985   L 42.571721,11.185985   L 42.571721,11.204785   L 42.553008,11.204785   L 42.553008,11.223585   L 42.515582,11.223585   L 42.515582,11.242385   L 42.1039,11.242385   L 42.085187,11.223585   L 42.066474,11.223585   L 42.066474,11.204785   L 42.047761,11.204785   L 42.047761,11.185985   L 42.029048,11.185985   L 42.029048,11.167185   L 42.010335,11.167185   L 42.010335,11.129586   L 41.991623,11.129586   L 41.991623,11.016786   L 42.010335,11.016786   L 42.010335,10.979186   L 42.029048,10.979186   L 42.029048,10.960386   L 42.047761,10.941586  "
     id="path105" />
  <path
     style="fill:#000000;fill-rule:evenodd;fill-opacity:1;stroke:#000000;stroke-width:0.018712845px;stroke-linecap:round;stroke-linejoin:round;stroke-miterlimit:4;stroke-dasharray:none;stroke-opacity:1;"
     d="  M 69.967325,2.4063969   L 69.967325,2.331197   L 69.948612,2.274797   L 69.873761,2.1619972   L 69.761484,2.0867973   L 69.705345,2.0679973   L 68.320594,2.0679973   L 68.264456,2.0867973   L 68.152179,2.1619972   L 68.077328,2.274797   L 68.058615,2.331197   L 68.058615,2.4815968   L 68.077328,2.5379967   L 68.152179,2.6507966   L 68.264456,2.7259965   L 68.320594,2.7447964   L 69.705345,2.7447964   L 69.761484,2.7259965   L 69.873761,2.6507966   L 69.948612,2.5379967   L 69.967325,2.4815968   L 69.967325,2.4063969   z "
     id="path107" />
  <path
     style="fill:#000000;fill-rule:evenodd;fill-opacity:1;stroke:#000000;stroke-width:0.018712845px;stroke-linecap:round;stroke-linejoin:round;stroke-miterlimit:4;stroke-dasharray:none;stroke-opacity:1;"
     d="  M 69.967325,1.0903986   L 69.967325,1.0151987   L 69.948612,0.95879875   L 69.873761,0.8459989   L 69.761484,0.770799   L 69.705345,0.75199902   L 68.320594,0.75199902   L 68.264456,0.770799   L 68.152179,0.8459989   L 68.077328,0.95879875   L 68.058615,1.0151987   L 68.058615,1.1655985   L 68.077328,1.2219984   L 68.152179,1.3347983   L 68.264456,1.4099982   L 68.320594,1.4287981   L 69.705345,1.4287981   L 69.761484,1.4099982   L 69.873761,1.3347983   L 69.948612,1.2219984   L 69.967325,1.1655985   L 69.967325,1.0903986   z "
     id="path109" />
  <path
     style="fill:#000000;fill-rule:evenodd;fill-opacity:1;stroke:#000000;stroke-width:0.018712845px;stroke-linecap:round;stroke-linejoin:round;stroke-miterlimit:4;stroke-dasharray:none;stroke-opacity:1;"
     d="  M 72.867816,2.4063969   L 72.867816,2.331197   L 72.849103,2.274797   L 72.774251,2.1619972   L 72.661974,2.0867973   L 72.605836,2.0679973   L 71.221085,2.0679973   L 71.164947,2.0867973   L 71.05267,2.1619972   L 70.977818,2.274797   L 70.959106,2.331197   L 70.959106,2.4815968   L 70.977818,2.5379967   L 71.05267,2.6507966   L 71.164947,2.7259965   L 71.221085,2.7447964   L 72.605836,2.7447964   L 72.661974,2.7259965   L 72.774251,2.6507966   L 72.849103,2.5379967   L 72.867816,2.4815968   L 72.867816,2.4063969   z "
     id="path111" />
  <path
     style="fill:#000000;fill-rule:evenodd;fill-opacity:1;stroke:#000000;stroke-width:0.018712845px;stroke-linecap:round;stroke-linejoin:round;stroke-miterlimit:4;stroke-dasharray:none;stroke-opacity:1;"
     d="  M 72.867816,1.0903986   L 72.867816,1.0151987   L 72.849103,0.95879875   L 72.774251,0.8459989   L 72.661974,0.770799   L 72.605836,0.75199902   L 71.221085,0.75199902   L 71.164947,0.770799   L 71.05267,0.8459989   L 70.977818,0.95879875   L 70.959106,1.0151987   L 70.959106,1.1655985   L 70.977818,1.2219984   L 71.05267,1.3347983   L 71.164947,1.4099982   L 71.221085,1.4287981   L 72.605836,1.4287981   L 72.661974,1.4099982   L 72.774251,1.3347983   L 72.849103,1.2219984   L 72.867816,1.1655985   L 72.867816,1.0903986   z "
     id="path113" />
  <path
     style="fill:#666666;fill-rule:evenodd;fill-opacity:1;stroke:#000000;stroke-width:0.018712845px;stroke-linecap:round;stroke-linejoin:round;stroke-miterlimit:4;stroke-dasharray:none;stroke-opacity:1;"
     d="  M 47.886169,3.9103949   L 21.426207,3.9103949   L 21.426207,9.0991882   L 47.886169,9.0991882   L 47.886169,3.9103949   z "
     id="path115" />
  <path
     style="fill:#bfbfbf;fill-rule:evenodd;fill-opacity:1;stroke:#000000;stroke-width:0.018712845px;stroke-linecap:round;stroke-linejoin:round;stroke-miterlimit:4;stroke-dasharray:none;stroke-opacity:1;"
     d="  M 47.736466,4.0419948   L 21.575909,4.0419948   L 21.575909,8.9675884   L 47.736466,8.9675884   L 47.736466,4.0419948   z "
     id="path117" />
  <path
     style="fill:none;stroke:#000000;stroke-width:0.074851379px;stroke-linecap:round;stroke-linejoin:round;stroke-miterlimit:4;stroke-dasharray:none;stroke-opacity:1;"
     d="  M 43.002116,11.035586   L 43.900333,11.035586  "
     id="path119" />
  <path
     style="fill:none;stroke:#000000;stroke-width:0.074851379px;stroke-linecap:round;stroke-linejoin:round;stroke-miterlimit:4;stroke-dasharray:none;stroke-opacity:1;"
     d="  M 40.251328,11.035586   L 41.149545,11.035586  "
     id="path121" />
  <path
     style="fill:none;stroke:#000000;stroke-width:0.018721435px;stroke-linecap:round;stroke-linejoin:round;stroke-miterlimit:4;stroke-dasharray:none;stroke-opacity:1;"
     d="  M 1.5164363,7.1661832   L 1.5164363,8.132615  "
     id="path123" />
  <path
     style="fill:none;stroke:#000000;stroke-width:0.018721435px;stroke-linecap:round;stroke-linejoin:round;stroke-miterlimit:4;stroke-dasharray:none;stroke-opacity:1;"
     d="  M 0.82374319,8.3331952   L 2.2091295,8.3331952  "
     id="path125" />
  <path
     style="fill:none;stroke:#000000;stroke-width:0.018721435px;stroke-linecap:round;stroke-linejoin:round;stroke-miterlimit:4;stroke-dasharray:none;stroke-opacity:1;"
     d="  M 1.0484004,8.5520099   L 2.0031937,8.5520099  "
     id="path127" />
  <path
     style="fill:none;stroke:#000000;stroke-width:0.018721435px;stroke-linecap:round;stroke-linejoin:round;stroke-miterlimit:4;stroke-dasharray:none;stroke-opacity:1;"
     d="  M 1.0484004,8.5520099   L 2.0031937,8.5520099  "
     id="path129" />
  <path
     style="fill:none;stroke:#000000;stroke-width:0.018721435px;stroke-linecap:round;stroke-linejoin:round;stroke-miterlimit:4;stroke-dasharray:none;stroke-opacity:1;"
     d="  M 1.2917791,8.7890593   L 1.7410936,8.7890593  "
     id="path131" />
  <text
     xml:space="preserve"
     style="font-size:1.062500px;font-style:normal;font-variant:normal;font-weight:400;font-stretch:Normal;line-height:125.000000%;letter-spacing:0px;word-spacing:0px;fill:#000000;fill-opacity:1;stroke:none;font-family:Arial;text-align:start;text-anchor:start;"
     transform="matrix(1.000000,-0.000000,0.000000,1.000000,22.765266,10.329077)"
     x="0.000000"
     y="0.774563"
     id="text137"><tspan
       x="0.000000"
       y="0.774563"
       id="tspan135"><tspan
         dx="0.000000"
         dy="0.000000"
         style="fill:#000000;font-size:1.062500px;font-style:normal;font-variant:normal;font-weight:400;font-stretch:Normal;font-family:Arial;"
         id="tspan133">WAN2</tspan></tspan></text>
  <text
     xml:space="preserve"
     style="font-size:1.062500px;font-style:normal;font-variant:normal;font-weight:400;font-stretch:Normal;line-height:125.000000%;letter-spacing:0px;word-spacing:0px;fill:#000000;fill-opacity:1;stroke:none;font-family:Arial;text-align:start;text-anchor:start;"
     transform="matrix(1.000000,-0.000000,0.000000,1.000000,22.765266,10.329077)"
     x="5.167116"
     y="0.774563"
     id="text143"><tspan
       x="5.167116"
       y="0.774563"
       id="tspan141"><tspan
         dx="0.000000"
         dy="0.000000"
         style="fill:#000000;font-size:1.062500px;font-style:normal;font-variant:normal;font-weight:400;font-stretch:Normal;font-family:Arial;"
         id="tspan139">WAN1</tspan></tspan></text>
  <text
     xml:space="preserve"
     style="font-size:1.062500px;font-style:normal;font-variant:normal;font-weight:400;font-stretch:Normal;line-height:125.000000%;letter-spacing:0px;word-spacing:0px;fill:#000000;fill-opacity:1;stroke:none;font-family:Arial;text-align:start;text-anchor:start;"
     transform="matrix(1.000000,-0.000000,0.000000,1.000000,22.765266,10.329077)"
     x="10.708661"
     y="0.774563"
     id="text149"><tspan
       x="10.708661"
       y="0.774563"
       id="tspan147"><tspan
         dx="0.000000"
         dy="0.000000"
         style="fill:#000000;font-size:1.062500px;font-style:normal;font-variant:normal;font-weight:400;font-stretch:Normal;font-family:Arial;"
         id="tspan145">DMZ</tspan></tspan></text>
  <text
     xml:space="preserve"
     style="font-size:1.187500px;font-style:normal;font-variant:normal;font-weight:400;font-stretch:Normal;line-height:125.000000%;letter-spacing:0px;word-spacing:0px;fill:#000000;fill-opacity:1;stroke:none;font-family:Arial;text-align:start;text-anchor:start;"
     transform="matrix(1.000000,-0.000000,0.000000,1.000000,22.765266,10.329077)"
     x="49.274820"
     y="0.790293"
     id="text155"><tspan
       x="49.274820"
       y="0.790293"
       id="tspan153"><tspan
         dx="0.000000"
         dy="0.000000"
         style="fill:#000000;font-size:1.187500px;font-style:normal;font-variant:normal;font-weight:400;font-stretch:Normal;font-family:Arial;"
         id="tspan151">1</tspan></tspan></text>
  <text
     xml:space="preserve"
     style="font-size:1.187500px;font-style:normal;font-variant:normal;font-weight:400;font-stretch:Normal;line-height:125.000000%;letter-spacing:0px;word-spacing:0px;fill:#000000;fill-opacity:1;stroke:none;font-family:Arial;text-align:start;text-anchor:start;"
     transform="matrix(1.000000,-0.000000,0.000000,1.000000,22.765266,10.329077)"
     x="28.681240"
     y="0.790293"
     id="text161"><tspan
       x="28.681240"
       y="0.790293"
       id="tspan159"><tspan
         dx="0.000000"
         dy="0.000000"
         style="fill:#000000;font-size:1.187500px;font-style:normal;font-variant:normal;font-weight:400;font-stretch:Normal;font-family:Arial;"
         id="tspan157">5</tspan></tspan></text>
  <text
     xml:space="preserve"
     style="font-size:1.187500px;font-style:normal;font-variant:normal;font-weight:400;font-stretch:Normal;line-height:125.000000%;letter-spacing:0px;word-spacing:0px;fill:#000000;fill-opacity:1;stroke:none;font-family:Arial;text-align:start;text-anchor:start;"
     transform="matrix(1.000000,-0.000000,0.000000,1.000000,22.765266,10.329077)"
     x="33.848356"
     y="0.790293"
     id="text167"><tspan
       x="33.848356"
       y="0.790293"
       id="tspan165"><tspan
         dx="0.000000"
         dy="0.000000"
         style="fill:#000000;font-size:1.187500px;font-style:normal;font-variant:normal;font-weight:400;font-stretch:Normal;font-family:Arial;"
         id="tspan163">4</tspan></tspan></text>
  <text
     xml:space="preserve"
     style="font-size:1.187500px;font-style:normal;font-variant:normal;font-weight:400;font-stretch:Normal;line-height:125.000000%;letter-spacing:0px;word-spacing:0px;fill:#000000;fill-opacity:1;stroke:none;font-family:Arial;text-align:start;text-anchor:start;"
     transform="matrix(1.000000,-0.000000,0.000000,1.000000,22.765266,10.329077)"
     x="39.015473"
     y="0.790293"
     id="text173"><tspan
       x="39.015473"
       y="0.790293"
       id="tspan171"><tspan
         dx="0.000000"
         dy="0.000000"
         style="fill:#000000;font-size:1.187500px;font-style:normal;font-variant:normal;font-weight:400;font-stretch:Normal;font-family:Arial;"
         id="tspan169">3</tspan></tspan></text>
  <text
     xml:space="preserve"
     style="font-size:1.187500px;font-style:normal;font-variant:normal;font-weight:400;font-stretch:Normal;line-height:125.000000%;letter-spacing:0px;word-spacing:0px;fill:#000000;fill-opacity:1;stroke:none;font-family:Arial;text-align:start;text-anchor:start;"
     transform="matrix(1.000000,-0.000000,0.000000,1.000000,22.765266,10.329077)"
     x="44.107703"
     y="0.790293"
     id="text179"><tspan
       x="44.107703"
       y="0.790293"
       id="tspan177"><tspan
         dx="0.000000"
         dy="0.000000"
         style="fill:#000000;font-size:1.187500px;font-style:normal;font-variant:normal;font-weight:400;font-stretch:Normal;font-family:Arial;"
         id="tspan175">2</tspan></tspan></text>
  <text
     xml:space="preserve"
     style="font-size:1.187500px;font-style:normal;font-variant:normal;font-weight:400;font-stretch:Normal;line-height:125.000000%;letter-spacing:0px;word-spacing:0px;fill:#000000;fill-opacity:1;stroke:none;font-family:Arial;text-align:start;text-anchor:start;"
     transform="matrix(1.000000,-0.000000,0.000000,1.000000,22.765266,10.329077)"
     x="21.641980"
     y="0.790293"
     id="text185"><tspan
       x="21.641980"
       y="0.790293"
       id="tspan183"><tspan
         dx="0.000000"
         dy="0.000000"
         style="fill:#000000;font-size:1.187500px;font-style:normal;font-variant:normal;font-weight:400;font-stretch:Normal;font-family:Arial;"
         id="tspan181">A</tspan></tspan></text>
  <text
     xml:space="preserve"
     style="font-size:1.187500px;font-style:normal;font-variant:normal;font-weight:400;font-stretch:Normal;line-height:125.000000%;letter-spacing:0px;word-spacing:0px;fill:#000000;fill-opacity:1;stroke:none;font-family:Arial;text-align:start;text-anchor:start;"
     transform="matrix(1.000000,-0.000000,0.000000,1.000000,22.765266,10.329077)"
     x="16.474864"
     y="0.790293"
     id="text191"><tspan
       x="16.474864"
       y="0.790293"
       id="tspan189"><tspan
         dx="0.000000"
         dy="0.000000"
         style="fill:#000000;font-size:1.187500px;font-style:normal;font-variant:normal;font-weight:400;font-stretch:Normal;font-family:Arial;"
         id="tspan187">B</tspan></tspan></text>
  <text
     xml:space="preserve"
     style="font-size:1.062500px;font-style:normal;font-variant:normal;font-weight:400;font-stretch:Normal;line-height:125.000000%;letter-spacing:0px;word-spacing:0px;fill:#000000;fill-opacity:1;stroke:none;font-family:Arial;text-align:start;text-anchor:start;"
     transform="matrix(1.000000,-0.000000,0.000000,1.000000,22.765266,10.329077)"
     x="-8.686746"
     y="0.774563"
     id="text197"><tspan
       x="-8.686746"
       y="0.774563"
       id="tspan195"><tspan
         dx="0.000000"
         dy="0.000000"
         style="fill:#000000;font-size:1.062500px;font-style:normal;font-variant:normal;font-weight:400;font-stretch:Normal;font-family:Arial;"
         id="tspan193">CONSOLE</tspan></tspan></text>
  <text
     xml:space="preserve"
     style="font-size:1.062500px;font-style:normal;font-variant:normal;font-weight:400;font-stretch:Normal;line-height:125.000000%;letter-spacing:0px;word-spacing:0px;fill:#000000;fill-opacity:1;stroke:none;font-family:Arial;text-align:start;text-anchor:start;"
     transform="matrix(1.000000,-0.000000,0.000000,1.000000,22.765266,10.329077)"
     x="-13.105005"
     y="0.774563"
     id="text203"><tspan
       x="-13.105005"
       y="0.774563"
       id="tspan201"><tspan
         dx="0.000000"
         dy="0.000000"
         style="fill:#000000;font-size:1.062500px;font-style:normal;font-variant:normal;font-weight:400;font-stretch:Normal;font-family:Arial;"
         id="tspan199">USB</tspan></tspan></text>
  <text
     xml:space="preserve"
     style="font-size:1.062500px;font-style:normal;font-variant:normal;font-weight:400;font-stretch:Normal;line-height:125.000000%;letter-spacing:0px;word-spacing:0px;fill:#000000;fill-opacity:1;stroke:none;font-family:Arial;text-align:start;text-anchor:start;"
     transform="matrix(1.000000,-0.000000,0.000000,1.000000,22.765266,10.329077)"
     x="-17.747921"
     y="0.774563"
     id="text209"><tspan
       x="-17.747921"
       y="0.774563"
       id="tspan207"><tspan
         dx="0.000000"
         dy="0.000000"
         style="fill:#000000;font-size:1.062500px;font-style:normal;font-variant:normal;font-weight:400;font-stretch:Normal;font-family:Arial;"
         id="tspan205">DC+12V</tspan></tspan></text>
  <text
     xml:space="preserve"
     style="font-size:0.812500px;font-style:normal;font-variant:normal;font-weight:400;font-stretch:Normal;line-height:125.000000%;letter-spacing:0px;word-spacing:0px;fill:#000000;fill-opacity:1;stroke:none;font-family:Arial;text-align:start;text-anchor:start;"
     transform="matrix(1.000000,-0.000000,0.000000,1.000000,22.765266,10.329077)"
     x="-20.743351"
     y="-0.689398"
     id="text215"><tspan
       x="-20.743351"
       y="-0.689398"
       id="tspan213"><tspan
         dx="0.000000"
         dy="0.000000"
         style="fill:#000000;font-size:0.812500px;font-style:normal;font-variant:normal;font-weight:400;font-stretch:Normal;font-family:Arial;"
         id="tspan211">RESET</tspan></tspan></text>
  <ellipse
     style="fill:#666666;fill-rule:evenodd;fill-opacity:1;stroke:#000000;stroke-width:0.026004648px;stroke-linecap:round;stroke-linejoin:round;stroke-miterlimit:4;stroke-dasharray:none;stroke-opacity:1;"
     cx="3.0685484"
     cy="5.810004"
     rx="0.83214873"
     ry="0.83214873"
     id="ellipse217" />
  <ellipse
     style="fill:none;stroke:#000000;stroke-width:0.026004648px;stroke-linecap:round;stroke-linejoin:round;stroke-miterlimit:4;stroke-dasharray:none;stroke-opacity:1;"
     cx="3.0685484"
     cy="5.810004"
     rx="0.83214873"
     ry="0.83214873"
     id="ellipse219" />
  <ellipse
     style="fill:#7f7f7f;fill-rule:evenodd;fill-opacity:1;stroke:#000000;stroke-width:0.026004648px;stroke-linecap:round;stroke-linejoin:round;stroke-miterlimit:4;stroke-dasharray:none;stroke-opacity:1;"
     cx="3.0685484"
     cy="5.810004"
     rx="0.75413479"
     ry="0.75413479"
     id="ellipse221" />
  <ellipse
     style="fill:none;stroke:#7f7f7f;stroke-width:0.026004648px;stroke-linecap:round;stroke-linejoin:round;stroke-miterlimit:4;stroke-dasharray:none;stroke-opacity:1;"
     cx="3.0685484"
     cy="5.810004"
     rx="0.75413479"
     ry="0.75413479"
     id="ellipse223" />
  <path
     style="fill:#494949;fill-rule:evenodd;fill-opacity:1;stroke:#161616;stroke-width:0.026004648px;stroke-linecap:round;stroke-linejoin:round;stroke-miterlimit:4;stroke-dasharray:none;stroke-opacity:1;"
     d="  M 2.4964462,5.7576616   L 2.4704415,5.7576616   L 2.4444369,5.7838328   L 2.4444369,5.810004   L 2.4184322,5.810004   L 2.4184322,5.9670311   L 2.4444369,5.9670311   L 2.4444369,5.9932023   L 2.4704415,6.0193735   L 3.0165391,6.0193735   L 3.0165391,6.5951396   L 3.0425438,6.5951396   L 3.0425438,6.6213108   L 3.0685484,6.6213108   L 3.0685484,6.647482   L 3.2245763,6.647482   L 3.2245763,6.6213108   L 3.250581,6.6213108   L 3.250581,6.5951396   L 3.2765856,6.5951396   L 3.2765856,6.0193735   L 3.8486879,6.0193735   L 3.8486879,5.9932023   L 3.8746925,5.9932023   L 3.8746925,5.9670311   L 3.9006972,5.9670311   L 3.9006972,5.810004   L 3.8746925,5.810004   L 3.8746925,5.7838328   L 3.8486879,5.7838328   L 3.8486879,5.7576616   L 3.2765856,5.7576616   L 3.2765856,5.2080666   L 3.250581,5.1818954   L 3.2245763,5.1818954   L 3.2245763,5.1557242   L 3.0685484,5.1557242   L 3.0685484,5.1818954   L 3.0425438,5.1818954   L 3.0165391,5.2080666   L 3.0165391,5.7576616   L 2.5224508,5.7576616   L 2.4964462,5.7576616   z "
     id="path225" />
  <path
     style="fill:none;stroke:#bfbfbf;stroke-width:0.026004648px;stroke-linecap:round;stroke-linejoin:round;stroke-miterlimit:4;stroke-dasharray:none;stroke-opacity:1;"
     d="  M 2.3924276,5.8361752   L 2.3924276,5.9670311   L 2.4184322,5.9932023   L 2.4444369,5.9932023   L 2.4444369,6.0193735   L 3.0165391,6.0193735   L 3.0165391,6.6213108   L 3.0425438,6.647482   L 3.0685484,6.647482   L 3.0685484,6.6736532   L 3.1465624,6.6736532   L 3.172567,6.6736532  "
     id="path227" />
  <path
     style="fill:none;stroke:#bfbfbf;stroke-width:0.026004648px;stroke-linecap:round;stroke-linejoin:round;stroke-miterlimit:4;stroke-dasharray:none;stroke-opacity:1;"
     d="  M 3.0165391,5.2080666   L 3.0165391,5.7314904   L 3.0165391,5.7576616  "
     id="path229" />
  <path
     style="fill:#494949;fill-rule:evenodd;fill-opacity:1;stroke:#000000;stroke-width:0.020557242px;stroke-linecap:round;stroke-linejoin:round;stroke-miterlimit:4;stroke-dasharray:none;stroke-opacity:1;"
     d="  M 8.1201102,3.5326567   L 8.1201102,3.4906012   L 8.099553,3.4906012   L 8.099553,3.4485458   L 8.0789957,3.4485458   L 8.0789957,3.4275181   L 8.0584385,3.4275181   L 8.0378813,3.4064904   L 8.017324,3.4064904   L 7.9967668,3.3854627   L 7.8528661,3.3854627   L 7.8528661,3.4064904   L 7.8117516,3.4064904   L 7.7911944,3.4275181   L 7.7706371,3.4275181   L 7.7706371,3.4485458   L 7.7500799,3.4485458   L 7.7500799,3.4906012   L 7.7295227,3.4906012   L 7.7295227,4.5209594   L 7.7089654,4.5419872   L 7.7089654,4.5840426   L 7.6884082,4.6050703   L 7.6884082,4.626098   L 7.6678509,4.626098   L 7.6678509,4.6471258   L 7.6061792,4.7102089   L 7.585622,4.7102089   L 7.585622,4.7312366   L 7.5650647,4.7312366   L 7.5445075,4.7522643   L 7.503393,4.7522643   L 7.503393,4.7732921   L 7.4622785,4.7732921   L 7.4417213,4.7943198   L 6.7427751,4.7943198   L 6.7222178,4.7732921   L 6.6811034,4.7732921   L 6.6811034,4.7522643   L 6.6399889,4.7522643   L 6.6194316,4.7312366   L 6.5988744,4.7312366   L 6.5988744,4.7102089   L 6.5783171,4.7102089   L 6.5166454,4.6471258   L 6.5166454,4.626098   L 6.4960882,4.626098   L 6.4960882,4.6050703   L 6.4755309,4.5840426   L 6.4755309,4.5419872   L 6.4549737,4.5209594   L 6.4549737,3.4906012   L 6.4344165,3.4906012   L 6.4344165,3.4485458   L 6.4138592,3.4485458   L 6.4138592,3.4275181   L 6.393302,3.4275181   L 6.3727447,3.4064904   L 6.3316303,3.4064904   L 6.3316303,3.3854627   L 6.1877296,3.3854627   L 6.1671723,3.4064904   L 6.1466151,3.4064904   L 6.1260578,3.4275181   L 6.1055006,3.4275181   L 6.1055006,3.4485458   L 6.0849434,3.4485458   L 6.0849434,3.4906012   L 6.0643861,3.4906012   L 6.0643861,9.1470575   L 8.1201102,9.1470575   L 8.1201102,3.5536844   L 8.1201102,3.5326567   z "
     id="path231" />
  <path
     style="fill:#666666;fill-rule:evenodd;fill-opacity:1;stroke:#000000;stroke-width:0.020557242px;stroke-linecap:round;stroke-linejoin:round;stroke-miterlimit:4;stroke-dasharray:none;stroke-opacity:1;"
     d="  M 7.9145378,5.4251513   L 6.2699585,5.4251513   L 6.2699585,8.9998635   L 7.9145378,8.9998635   L 7.9145378,5.4251513   z "
     id="path233" />
  <path
     style="fill:#333333;fill-rule:evenodd;fill-opacity:1;stroke:#000000;stroke-width:0.020557242px;stroke-linecap:round;stroke-linejoin:round;stroke-miterlimit:4;stroke-dasharray:none;stroke-opacity:1;"
     d="  M 7.7295227,7.3597014   L 6.4549737,7.3597014   L 6.4549737,8.66342   L 7.7295227,8.66342   L 7.7295227,7.3597014   z "
     id="path235" />
  <path
     style="fill:#333333;fill-rule:evenodd;fill-opacity:1;stroke:#000000;stroke-width:0.020557242px;stroke-linecap:round;stroke-linejoin:round;stroke-miterlimit:4;stroke-dasharray:none;stroke-opacity:1;"
     d="  M 7.7295227,5.7826225   L 6.4549737,5.7826225   L 6.4549737,6.7709253   L 6.7633323,7.0863411   L 7.4417213,7.0863411   L 7.7295227,6.791953   L 7.7295227,5.7826225   z "
     id="path237" />
  <path
     style="fill:#eaeaea;fill-rule:evenodd;fill-opacity:1;stroke:#000000;stroke-width:0.020557242px;stroke-linecap:round;stroke-linejoin:round;stroke-miterlimit:4;stroke-dasharray:none;stroke-opacity:1;"
     d="  M 7.2567061,7.8433389   L 6.9277902,7.8433389   L 6.9277902,8.1797824   L 7.2567061,8.1797824   L 7.2567061,7.8433389   z "
     id="path239" />
  <path
     style="fill:#eaeaea;fill-rule:evenodd;fill-opacity:1;stroke:#000000;stroke-width:0.020557242px;stroke-linecap:round;stroke-linejoin:round;stroke-miterlimit:4;stroke-dasharray:none;stroke-opacity:1;"
     d="  M 7.2567061,6.2662601   L 6.9277902,6.2662601   L 6.9277902,6.6027036   L 7.2567061,6.6027036   L 7.2567061,6.2662601   z "
     id="path241" />
  <path
     style="fill:#7f7f7f;fill-rule:evenodd;fill-opacity:1;stroke:#000000;stroke-width:0.020557242px;stroke-linecap:round;stroke-linejoin:round;stroke-miterlimit:4;stroke-dasharray:none;stroke-opacity:1;"
     d="  M 7.5445075,5.151791   L 6.6399889,5.151791   L 6.6399889,5.4251513   L 7.5445075,5.4251513   L 7.5445075,5.151791   z "
     id="path243" />
  <path
     style="fill:#333333;fill-rule:evenodd;fill-opacity:1;stroke:#000000;stroke-width:0.020557242px;stroke-linecap:round;stroke-linejoin:round;stroke-miterlimit:4;stroke-dasharray:none;stroke-opacity:1;"
     d="  M 7.7295227,3.8691002   L 6.4549737,3.8691002   L 6.4549737,4.4999317   L 6.4755309,4.5209594   L 6.4755309,4.5630149   L 6.4960882,4.5840426   L 6.4960882,4.6050703   L 6.5372027,4.6471258   L 6.5372027,4.6681535   L 6.5577599,4.6681535   L 6.5577599,4.6891812   L 6.5783171,4.6891812   L 6.5988744,4.7102089   L 6.5988744,4.7312366   L 6.6399889,4.7312366   L 6.6605461,4.7522643   L 6.6811034,4.7522643   L 6.6811034,4.7732921   L 6.7427751,4.7732921   L 6.7633323,4.7943198   L 7.421164,4.7943198   L 7.4417213,4.7732921   L 7.503393,4.7732921   L 7.503393,4.7522643   L 7.5239502,4.7522643   L 7.5445075,4.7312366   L 7.585622,4.7312366   L 7.585622,4.7102089   L 7.6061792,4.6891812   L 7.6267364,4.6891812   L 7.6267364,4.6681535   L 7.6472937,4.6681535   L 7.6472937,4.6471258   L 7.6884082,4.6050703   L 7.6884082,4.5840426   L 7.7089654,4.5630149   L 7.7089654,4.5209594   L 7.7295227,4.4999317   L 7.7295227,3.8901279   L 7.7295227,3.8691002   z "
     id="path245" />
  <path
     style="fill:#bfbfbf;fill-rule:evenodd;fill-opacity:1;stroke:#000000;stroke-width:0.018721435px;stroke-linecap:round;stroke-linejoin:round;stroke-miterlimit:4;stroke-dasharray:none;stroke-opacity:1;"
     d="  M 11.86939,8.8777284   L 11.86939,8.9342744   L 11.850669,8.9342744   L 11.850669,8.9719718   L 11.831948,8.9908204   L 11.831948,9.0096691   L 11.813226,9.0096691   L 11.813226,9.0285178   L 11.794505,9.0285178   L 11.794505,9.0473665   L 11.775783,9.0473665   L 11.757062,9.0662152   L 11.719619,9.0662152   L 11.719619,9.0850638   L 9.8849182,9.0850638   L 9.8849182,9.0662152   L 9.8474754,9.0662152   L 9.8287539,9.0473665   L 9.8100325,9.0473665   L 9.8100325,9.0285178   L 9.7913111,9.0285178   L 9.7913111,9.0096691   L 9.7725896,9.0096691   L 9.7725896,8.9908204   L 9.7538682,8.9719718   L 9.7538682,8.9342744   L 9.7351467,8.9342744   L 9.7351467,4.2221044   L 9.7538682,4.2221044   L 9.7538682,4.184407   L 9.7725896,4.1655583   L 9.7725896,4.1467096   L 9.7913111,4.1467096   L 9.7913111,4.127861   L 9.8100325,4.127861   L 9.8100325,4.1090123   L 9.8287539,4.1090123   L 9.8474754,4.0901636   L 9.8849182,4.0901636   L 9.8849182,4.0713149   L 11.719619,4.0713149   L 11.719619,4.0901636   L 11.757062,4.0901636   L 11.775783,4.1090123   L 11.794505,4.1090123   L 11.794505,4.127861   L 11.813226,4.127861   L 11.813226,4.1467096   L 11.831948,4.1467096   L 11.831948,4.1655583   L 11.850669,4.184407   L 11.850669,4.2221044   L 11.86939,4.2221044   L 11.86939,8.8588797   L 11.86939,8.8777284   z "
     id="path247" />
  <path
     style="fill:#000000;fill-rule:evenodd;fill-opacity:1;stroke:#7f7f7f;stroke-width:0.018721435px;stroke-linecap:round;stroke-linejoin:round;stroke-miterlimit:4;stroke-dasharray:none;stroke-opacity:1;"
     d="  M 11.700898,8.8023336   L 11.700898,8.8588797   L 11.682176,8.8588797   L 11.682176,8.896577   L 11.644733,8.896577   L 11.644733,8.9154257   L 9.959804,8.9154257   L 9.9410825,8.896577   L 9.9223611,8.896577   L 9.9223611,8.8777284   L 9.9036397,8.8777284   L 9.9036397,8.8588797   L 9.8849182,8.840031   L 9.8849182,4.2974991   L 9.9036397,4.2974991   L 9.9036397,4.2786504   L 9.9223611,4.2786504   L 9.9223611,4.2598017   L 9.9410825,4.2598017   L 9.959804,4.240953   L 11.644733,4.240953   L 11.644733,4.2598017   L 11.682176,4.2598017   L 11.682176,4.2974991   L 11.700898,4.2974991   L 11.700898,8.783485   L 11.700898,8.8023336   z "
     id="path249" />
  <path
     style="fill:#bfbfbf;fill-rule:evenodd;fill-opacity:1;stroke:#000000;stroke-width:0.018721435px;stroke-linecap:round;stroke-linejoin:round;stroke-miterlimit:4;stroke-dasharray:none;stroke-opacity:1;"
     d="  M 10.764826,7.8033536   L 10.764826,8.2180246   L 10.858433,8.2180246   L 10.858433,7.8033536   L 10.764826,7.8033536   z "
     id="path251" />
  <path
     style="fill:#bfbfbf;fill-rule:evenodd;fill-opacity:1;stroke:#000000;stroke-width:0.018721435px;stroke-linecap:round;stroke-linejoin:round;stroke-miterlimit:4;stroke-dasharray:none;stroke-opacity:1;"
     d="  M 10.764826,6.8609196   L 10.764826,7.2755906   L 10.858433,7.2755906   L 10.858433,6.8609196   L 10.764826,6.8609196   z "
     id="path253" />
  <path
     style="fill:#bfbfbf;fill-rule:evenodd;fill-opacity:1;stroke:#000000;stroke-width:0.018721435px;stroke-linecap:round;stroke-linejoin:round;stroke-miterlimit:4;stroke-dasharray:none;stroke-opacity:1;"
     d="  M 10.764826,5.9373343   L 10.764826,6.3520052   L 10.858433,6.3520052   L 10.858433,5.9373343   L 10.764826,5.9373343   z "
     id="path255" />
  <path
     style="fill:#bfbfbf;fill-rule:evenodd;fill-opacity:1;stroke:#000000;stroke-width:0.018721435px;stroke-linecap:round;stroke-linejoin:round;stroke-miterlimit:4;stroke-dasharray:none;stroke-opacity:1;"
     d="  M 10.764826,4.9760516   L 10.764826,5.3907225   L 10.858433,5.3907225   L 10.858433,4.9760516   L 10.764826,4.9760516   z "
     id="path257" />
  <path
     style="fill:#0000ff;fill-rule:evenodd;fill-opacity:1;stroke:#000000;stroke-width:0.018721435px;stroke-linecap:round;stroke-linejoin:round;stroke-miterlimit:4;stroke-dasharray:none;stroke-opacity:1;"
     d="  M 10.970762,4.5236832   L 10.933319,4.5236832   L 10.895876,4.5425319   L 10.877154,4.5802293   L 10.877154,8.5761495   L 10.895876,8.6138468   L 10.933319,8.6326955   L 11.401355,8.6326955   L 11.438797,8.6138468   L 11.457519,8.5761495   L 11.457519,4.5802293   L 11.438797,4.5425319   L 11.401355,4.5236832   L 11.363912,4.5236832   L 10.970762,4.5236832   z "
     id="path259" />
  <path
     style="fill:#3232ff;fill-rule:evenodd;fill-opacity:1;stroke:#3232ff;stroke-width:0.018721435px;stroke-linecap:round;stroke-linejoin:round;stroke-miterlimit:4;stroke-dasharray:none;stroke-opacity:1;"
     d="  M 11.157976,4.6744727   L 11.08309,4.6933214   L 11.008204,4.7687161   L 10.989483,4.8441108   L 10.989483,8.312268   L 11.008204,8.3876627   L 11.08309,8.4630574   L 11.157976,8.4819061   L 11.232862,8.4630574   L 11.307747,8.3876627   L 11.326469,8.312268   L 11.326469,4.8441108   L 11.307747,4.7687161   L 11.232862,4.6933214   L 11.157976,4.6744727   z "
     id="path261" />
  <path
     style="fill:#000000;fill-rule:evenodd;fill-opacity:1;stroke:#161616;stroke-width:0.018576441px;stroke-linecap:round;stroke-linejoin:round;stroke-miterlimit:4;stroke-dasharray:none;stroke-opacity:1;"
     d="  M 14.303859,8.3362265   L 14.303859,5.4892563   L 15.492752,5.4892563   L 15.492752,4.819381   L 15.975739,4.819381   L 15.975739,4.1495056   L 17.387549,4.1495056   L 17.387549,4.819381   L 17.870536,4.819381   L 17.870536,5.4892563   L 19.059428,5.4892563   L 19.059428,8.3362265   L 14.303859,8.3362265   z "
     id="path263" />
  <path
     style="fill:#000000;fill-rule:evenodd;fill-opacity:1;stroke:#161616;stroke-width:0.018576441px;stroke-linecap:round;stroke-linejoin:round;stroke-miterlimit:4;stroke-dasharray:none;stroke-opacity:1;"
     d="  M 70.088911,4.819381   L 70.088911,7.6663512   L 71.277804,7.6663512   L 71.277804,8.3362265   L 71.760791,8.3362265   L 71.760791,9.0061019   L 73.172601,9.0061019   L 73.172601,8.3362265   L 73.655588,8.3362265   L 73.655588,7.6663512   L 74.84448,7.6663512   L 74.84448,4.819381   L 70.088911,4.819381   z "
     id="path265" />
  <path
     style="fill:#000000;fill-rule:evenodd;fill-opacity:1;stroke:#161616;stroke-width:0.018576441px;stroke-linecap:round;stroke-linejoin:round;stroke-miterlimit:4;stroke-dasharray:none;stroke-opacity:1;"
     d="  M 64.924661,4.819381   L 64.924661,7.6663512   L 66.113553,7.6663512   L 66.113553,8.3362265   L 66.596541,8.3362265   L 66.596541,9.0061019   L 68.00835,9.0061019   L 68.00835,8.3362265   L 68.491337,8.3362265   L 68.491337,7.6663512   L 69.68023,7.6663512   L 69.68023,4.819381   L 64.924661,4.819381   z "
     id="path267" />
  <path
     style="fill:#000000;fill-rule:evenodd;fill-opacity:1;stroke:#161616;stroke-width:0.018576441px;stroke-linecap:round;stroke-linejoin:round;stroke-miterlimit:4;stroke-dasharray:none;stroke-opacity:1;"
     d="  M 59.834716,4.819381   L 59.834716,7.6663512   L 61.023608,7.6663512   L 61.023608,8.3362265   L 61.506596,8.3362265   L 61.506596,9.0061019   L 62.918405,9.0061019   L 62.918405,8.3362265   L 63.401393,8.3362265   L 63.401393,7.6663512   L 64.590285,7.6663512   L 64.590285,4.819381   L 59.834716,4.819381   z "
     id="path269" />
  <path
     style="fill:#000000;fill-rule:evenodd;fill-opacity:1;stroke:#161616;stroke-width:0.018576441px;stroke-linecap:round;stroke-linejoin:round;stroke-miterlimit:4;stroke-dasharray:none;stroke-opacity:1;"
     d="  M 54.670465,4.819381   L 54.670465,7.6663512   L 55.859358,7.6663512   L 55.859358,8.3362265   L 56.342345,8.3362265   L 56.342345,9.0061019   L 57.754155,9.0061019   L 57.754155,8.3362265   L 58.237142,8.3362265   L 58.237142,7.6663512   L 59.426034,7.6663512   L 59.426034,4.819381   L 54.670465,4.819381   z "
     id="path271" />
  <path
     style="fill:#000000;fill-rule:evenodd;fill-opacity:1;stroke:#161616;stroke-width:0.018576441px;stroke-linecap:round;stroke-linejoin:round;stroke-miterlimit:4;stroke-dasharray:none;stroke-opacity:1;"
     d="  M 49.506215,4.819381   L 49.506215,7.6663512   L 50.695107,7.6663512   L 50.695107,8.3362265   L 51.178095,8.3362265   L 51.178095,9.0061019   L 52.589904,9.0061019   L 52.589904,8.3362265   L 53.072892,8.3362265   L 53.072892,7.6663512   L 54.261784,7.6663512   L 54.261784,4.819381   L 49.506215,4.819381   z "
     id="path273" />
  <path
     style="fill:#000000;fill-rule:evenodd;fill-opacity:1;stroke:#161616;stroke-width:0.018576441px;stroke-linecap:round;stroke-linejoin:round;stroke-miterlimit:4;stroke-dasharray:none;stroke-opacity:1;"
     d="  M 42.54005,4.819381   L 42.54005,7.6663512   L 43.728942,7.6663512   L 43.728942,8.3362265   L 44.211929,8.3362265   L 44.211929,9.0061019   L 45.623739,9.0061019   L 45.623739,8.3362265   L 46.106726,8.3362265   L 46.106726,7.6663512   L 47.295618,7.6663512   L 47.295618,4.819381   L 42.54005,4.819381   z "
     id="path275" />
  <path
     style="fill:#000000;fill-rule:evenodd;fill-opacity:1;stroke:#161616;stroke-width:0.018576441px;stroke-linecap:round;stroke-linejoin:round;stroke-miterlimit:4;stroke-dasharray:none;stroke-opacity:1;"
     d="  M 37.375799,4.819381   L 37.375799,7.6663512   L 38.564691,7.6663512   L 38.564691,8.3362265   L 39.047679,8.3362265   L 39.047679,9.0061019   L 40.459488,9.0061019   L 40.459488,8.3362265   L 40.942476,8.3362265   L 40.942476,7.6663512   L 42.131368,7.6663512   L 42.131368,4.819381   L 37.375799,4.819381   z "
     id="path277" />
  <path
     style="fill:#000000;fill-rule:evenodd;fill-opacity:1;stroke:#161616;stroke-width:0.018576441px;stroke-linecap:round;stroke-linejoin:round;stroke-miterlimit:4;stroke-dasharray:none;stroke-opacity:1;"
     d="  M 32.267278,4.819381   L 32.267278,7.6663512   L 33.45617,7.6663512   L 33.45617,8.3362265   L 33.939157,8.3362265   L 33.939157,9.0061019   L 35.350967,9.0061019   L 35.350967,8.3362265   L 35.833954,8.3362265   L 35.833954,7.6663512   L 37.022847,7.6663512   L 37.022847,4.819381   L 32.267278,4.819381   z "
     id="path279" />
  <path
     style="fill:#000000;fill-rule:evenodd;fill-opacity:1;stroke:#161616;stroke-width:0.018576441px;stroke-linecap:round;stroke-linejoin:round;stroke-miterlimit:4;stroke-dasharray:none;stroke-opacity:1;"
     d="  M 27.103027,4.819381   L 27.103027,7.6663512   L 28.291919,7.6663512   L 28.291919,8.3362265   L 28.774907,8.3362265   L 28.774907,9.0061019   L 30.186716,9.0061019   L 30.186716,8.3362265   L 30.669704,8.3362265   L 30.669704,7.6663512   L 31.858596,7.6663512   L 31.858596,4.819381   L 27.103027,4.819381   z "
     id="path281" />
  <path
     style="fill:#000000;fill-rule:evenodd;fill-opacity:1;stroke:#161616;stroke-width:0.018576441px;stroke-linecap:round;stroke-linejoin:round;stroke-miterlimit:4;stroke-dasharray:none;stroke-opacity:1;"
     d="  M 21.938777,4.819381   L 21.938777,7.6663512   L 23.127669,7.6663512   L 23.127669,8.3362265   L 23.610656,8.3362265   L 23.610656,9.0061019   L 25.022466,9.0061019   L 25.022466,8.3362265   L 25.505453,8.3362265   L 25.505453,7.6663512   L 26.694346,7.6663512   L 26.694346,4.819381   L 21.938777,4.819381   z "
     id="path283" />
</svg>
