<?xml version="1.0" encoding="UTF-8" standalone="no"?>
<svg
   version="1.0"
   width="21.620001mm"
   height="3.8399999mm"
   id="svg189"
   xmlns="http://www.w3.org/2000/svg"
   xmlns:svg="http://www.w3.org/2000/svg">
  <defs
     id="defs3">
    <pattern
       id="EMFhbasepattern"
       patternUnits="userSpaceOnUse"
       width="6"
       height="6"
       x="0"
       y="0" />
  </defs>
  <path
     style="fill:#e2e2e2;fill-rule:evenodd;fill-opacity:1;stroke:#000000;stroke-width:0.093871646px;stroke-linecap:round;stroke-linejoin:round;stroke-miterlimit:4;stroke-dasharray:none;stroke-opacity:1;"
     d="  M 9.4102574,6.3564265   M 8.7152883,7.5121404   M 8.9406837,7.7288368   M 8.9406837,7.7288368   M 9.184862,7.9635912   M 81.743428,0.037235937   L 0.037548658,0.037235937   L 0.037548658,14.335836   L 81.743428,14.335836   L 81.743428,0.037235937   z "
     id="path5" />
  <path
     style="fill:none;stroke:#7f7f7f;stroke-width:0.093871646px;stroke-linecap:round;stroke-linejoin:round;stroke-miterlimit:4;stroke-dasharray:none;stroke-opacity:1;"
     d="  M 80.936132,0.74471875   L 0.86361913,0.74471875   L 0.86361913,13.646971   L 80.936132,13.646971   L 80.936132,0.74471875   z "
     id="path7" />
  <path
     style="fill:#7f7f7f;fill-rule:evenodd;fill-opacity:1;stroke:#7f7f7f;stroke-width:0.018774329px;stroke-linecap:round;stroke-linejoin:round;stroke-miterlimit:4;stroke-dasharray:none;stroke-opacity:1;"
     d="  M 71.34245,4.8779078   L 41.829205,4.8779078   L 41.829205,10.984602   L 71.34245,10.984602   L 71.34245,4.8779078   z "
     id="path9" />
  <path
     style="fill:#e2e2e2;fill-rule:evenodd;fill-opacity:1;stroke:#333333;stroke-width:0.018774329px;stroke-linecap:round;stroke-linejoin:round;stroke-miterlimit:4;stroke-dasharray:none;stroke-opacity:1;"
     d="  M 71.060835,5.1571773   L 42.167143,5.1571773   L 42.167143,10.72395   L 71.060835,10.72395   L 71.060835,5.1571773   z "
     id="path11" />
  <path
     style="fill:#7f7f7f;fill-rule:evenodd;fill-opacity:1;stroke:#7f7f7f;stroke-width:0.018774329px;stroke-linecap:round;stroke-linejoin:round;stroke-miterlimit:4;stroke-dasharray:none;stroke-opacity:1;"
     d="  M 23.242619,4.8779078   L 16.671604,4.8779078   L 16.671604,10.984602   L 23.242619,10.984602   L 23.242619,4.8779078   z "
     id="path13" />
  <path
     style="fill:#e2e2e2;fill-rule:evenodd;fill-opacity:1;stroke:#333333;stroke-width:0.018774329px;stroke-linecap:round;stroke-linejoin:round;stroke-miterlimit:4;stroke-dasharray:none;stroke-opacity:1;"
     d="  M 22.94223,5.1571773   L 16.990768,5.1571773   L 16.990768,10.72395   L 22.94223,10.72395   L 22.94223,5.1571773   z "
     id="path15" />
  <path
     style="fill:#333333;fill-rule:evenodd;fill-opacity:1;stroke:#000000;stroke-width:0.018774329px;stroke-linecap:round;stroke-linejoin:round;stroke-miterlimit:4;stroke-dasharray:none;stroke-opacity:1;"
     d="  M 14.512556,4.5055484   L 12.653898,4.5055484   L 12.653898,10.984602   L 14.512556,10.984602   L 14.512556,4.5055484   z "
     id="path17" />
  <path
     style="fill:#494949;fill-rule:evenodd;fill-opacity:1;stroke:#000000;stroke-width:0.018774329px;stroke-linecap:round;stroke-linejoin:round;stroke-miterlimit:4;stroke-dasharray:none;stroke-opacity:1;"
     d="  M 14.324813,4.5055484   L 12.822867,4.5055484   L 12.822867,5.1013234   L 13.14203,5.4364469   L 14.061972,5.4364469   L 14.324813,5.1385594   L 14.324813,4.5055484   z "
     id="path19" />
  <ellipse
     style="fill:#666666;fill-rule:evenodd;fill-opacity:1;stroke:#000000;stroke-width:0.026090091px;stroke-linecap:round;stroke-linejoin:round;stroke-miterlimit:4;stroke-dasharray:none;stroke-opacity:1;"
     cx="73.130525"
     cy="10.989156"
     rx="0.83488291"
     ry="0.83488291"
     id="ellipse21" />
  <ellipse
     style="fill:none;stroke:#000000;stroke-width:0.026090091px;stroke-linecap:round;stroke-linejoin:round;stroke-miterlimit:4;stroke-dasharray:none;stroke-opacity:1;"
     cx="73.130525"
     cy="10.989156"
     rx="0.83488291"
     ry="0.83488291"
     id="ellipse23" />
  <ellipse
     style="fill:#7f7f7f;fill-rule:evenodd;fill-opacity:1;stroke:#000000;stroke-width:0.026090091px;stroke-linecap:round;stroke-linejoin:round;stroke-miterlimit:4;stroke-dasharray:none;stroke-opacity:1;"
     cx="73.130525"
     cy="10.989156"
     rx="0.75661264"
     ry="0.75661264"
     id="ellipse25" />
  <ellipse
     style="fill:none;stroke:#7f7f7f;stroke-width:0.026090091px;stroke-linecap:round;stroke-linejoin:round;stroke-miterlimit:4;stroke-dasharray:none;stroke-opacity:1;"
     cx="73.130525"
     cy="10.989156"
     rx="0.75661264"
     ry="0.75661264"
     id="ellipse27" />
  <path
     style="fill:#494949;fill-rule:evenodd;fill-opacity:1;stroke:#161616;stroke-width:0.026090091px;stroke-linecap:round;stroke-linejoin:round;stroke-miterlimit:4;stroke-dasharray:none;stroke-opacity:1;"
     d="  M 72.556543,10.93732   L 72.530453,10.93732   L 72.504363,10.963238   L 72.504363,10.989156   L 72.478273,10.989156   L 72.478273,11.144663   L 72.504363,11.144663   L 72.504363,11.17058   L 72.530453,11.196498   L 73.078345,11.196498   L 73.078345,11.76669   L 73.104435,11.76669   L 73.104435,11.792608   L 73.130525,11.792608   L 73.130525,11.818526   L 73.287066,11.818526   L 73.287066,11.792608   L 73.313156,11.792608   L 73.313156,11.76669   L 73.339246,11.76669   L 73.339246,11.196498   L 73.913228,11.196498   L 73.913228,11.17058   L 73.939318,11.17058   L 73.939318,11.144663   L 73.965408,11.144663   L 73.965408,10.989156   L 73.939318,10.989156   L 73.939318,10.963238   L 73.913228,10.963238   L 73.913228,10.93732   L 73.339246,10.93732   L 73.339246,10.393046   L 73.313156,10.367128   L 73.287066,10.367128   L 73.287066,10.34121   L 73.130525,10.34121   L 73.130525,10.367128   L 73.104435,10.367128   L 73.078345,10.393046   L 73.078345,10.93732   L 72.582633,10.93732   L 72.556543,10.93732   z "
     id="path29" />
  <path
     style="fill:none;stroke:#bfbfbf;stroke-width:0.026090091px;stroke-linecap:round;stroke-linejoin:round;stroke-miterlimit:4;stroke-dasharray:none;stroke-opacity:1;"
     d="  M 72.452183,11.015073   L 72.452183,11.144663   L 72.478273,11.17058   L 72.504363,11.17058   L 72.504363,11.196498   L 73.078345,11.196498   L 73.078345,11.792608   L 73.104435,11.818526   L 73.130525,11.818526   L 73.130525,11.844444   L 73.208795,11.844444   L 73.234885,11.844444  "
     id="path31" />
  <path
     style="fill:none;stroke:#bfbfbf;stroke-width:0.026090091px;stroke-linecap:round;stroke-linejoin:round;stroke-miterlimit:4;stroke-dasharray:none;stroke-opacity:1;"
     d="  M 73.078345,10.393046   L 73.078345,10.911402   L 73.078345,10.93732  "
     id="path33" />
  <ellipse
     style="fill:#666666;fill-rule:evenodd;fill-opacity:1;stroke:#000000;stroke-width:0.026090091px;stroke-linecap:round;stroke-linejoin:round;stroke-miterlimit:4;stroke-dasharray:none;stroke-opacity:1;"
     cx="6.3920723"
     cy="10.989156"
     rx="0.83488291"
     ry="0.83488291"
     id="ellipse35" />
  <ellipse
     style="fill:none;stroke:#000000;stroke-width:0.026090091px;stroke-linecap:round;stroke-linejoin:round;stroke-miterlimit:4;stroke-dasharray:none;stroke-opacity:1;"
     cx="6.3920723"
     cy="10.989156"
     rx="0.83488291"
     ry="0.83488291"
     id="ellipse37" />
  <ellipse
     style="fill:#7f7f7f;fill-rule:evenodd;fill-opacity:1;stroke:#000000;stroke-width:0.026090091px;stroke-linecap:round;stroke-linejoin:round;stroke-miterlimit:4;stroke-dasharray:none;stroke-opacity:1;"
     cx="6.3920723"
     cy="10.989156"
     rx="0.75661264"
     ry="0.75661264"
     id="ellipse39" />
  <ellipse
     style="fill:none;stroke:#7f7f7f;stroke-width:0.026090091px;stroke-linecap:round;stroke-linejoin:round;stroke-miterlimit:4;stroke-dasharray:none;stroke-opacity:1;"
     cx="6.3920723"
     cy="10.989156"
     rx="0.75661264"
     ry="0.75661264"
     id="ellipse41" />
  <path
     style="fill:#494949;fill-rule:evenodd;fill-opacity:1;stroke:#161616;stroke-width:0.026090091px;stroke-linecap:round;stroke-linejoin:round;stroke-miterlimit:4;stroke-dasharray:none;stroke-opacity:1;"
     d="  M 5.8180903,10.93732   L 5.7920002,10.93732   L 5.7659101,10.963238   L 5.7659101,10.989156   L 5.73982,10.989156   L 5.73982,11.144663   L 5.7659101,11.144663   L 5.7659101,11.17058   L 5.7920002,11.196498   L 6.3398921,11.196498   L 6.3398921,11.76669   L 6.3659822,11.76669   L 6.3659822,11.792608   L 6.3920723,11.792608   L 6.3920723,11.818526   L 6.5486128,11.818526   L 6.5486128,11.792608   L 6.5747029,11.792608   L 6.5747029,11.76669   L 6.600793,11.76669   L 6.600793,11.196498   L 7.174775,11.196498   L 7.174775,11.17058   L 7.2008651,11.17058   L 7.2008651,11.144663   L 7.2269552,11.144663   L 7.2269552,10.989156   L 7.2008651,10.989156   L 7.2008651,10.963238   L 7.174775,10.963238   L 7.174775,10.93732   L 6.600793,10.93732   L 6.600793,10.393046   L 6.5747029,10.367128   L 6.5486128,10.367128   L 6.5486128,10.34121   L 6.3920723,10.34121   L 6.3920723,10.367128   L 6.3659822,10.367128   L 6.3398921,10.393046   L 6.3398921,10.93732   L 5.8441804,10.93732   L 5.8180903,10.93732   z "
     id="path43" />
  <path
     style="fill:none;stroke:#bfbfbf;stroke-width:0.026090091px;stroke-linecap:round;stroke-linejoin:round;stroke-miterlimit:4;stroke-dasharray:none;stroke-opacity:1;"
     d="  M 5.7137299,11.015073   L 5.7137299,11.144663   L 5.73982,11.17058   L 5.7659101,11.17058   L 5.7659101,11.196498   L 6.3398921,11.196498   L 6.3398921,11.792608   L 6.3659822,11.818526   L 6.3920723,11.818526   L 6.3920723,11.844444   L 6.4703426,11.844444   L 6.4964327,11.844444  "
     id="path45" />
  <path
     style="fill:none;stroke:#bfbfbf;stroke-width:0.026090091px;stroke-linecap:round;stroke-linejoin:round;stroke-miterlimit:4;stroke-dasharray:none;stroke-opacity:1;"
     d="  M 6.3398921,10.393046   L 6.3398921,10.911402   L 6.3398921,10.93732  "
     id="path47" />
  <path
     style="fill:none;stroke:#000000;stroke-width:0.018782949px;stroke-linecap:round;stroke-linejoin:round;stroke-miterlimit:4;stroke-dasharray:none;stroke-opacity:1;"
     d="  M 9.4102574,6.3564265   L 9.4102574,7.3135021  "
     id="path49" />
  <path
     style="fill:none;stroke:#000000;stroke-width:0.018782949px;stroke-linecap:round;stroke-linejoin:round;stroke-miterlimit:4;stroke-dasharray:none;stroke-opacity:1;"
     d="  M 8.7152883,7.5121404   L 10.105227,7.5121404  "
     id="path51" />
  <path
     style="fill:none;stroke:#000000;stroke-width:0.018782949px;stroke-linecap:round;stroke-linejoin:round;stroke-miterlimit:4;stroke-dasharray:none;stroke-opacity:1;"
     d="  M 8.9406837,7.7288368   L 9.8986141,7.7288368  "
     id="path53" />
  <path
     style="fill:none;stroke:#000000;stroke-width:0.018782949px;stroke-linecap:round;stroke-linejoin:round;stroke-miterlimit:4;stroke-dasharray:none;stroke-opacity:1;"
     d="  M 8.9406837,7.7288368   L 9.8986141,7.7288368  "
     id="path55" />
  <path
     style="fill:none;stroke:#000000;stroke-width:0.018782949px;stroke-linecap:round;stroke-linejoin:round;stroke-miterlimit:4;stroke-dasharray:none;stroke-opacity:1;"
     d="  M 9.184862,7.9635912   L 9.6356528,7.9635912  "
     id="path57" />
  <ellipse
     style="fill:#000000;fill-rule:evenodd;fill-opacity:1;stroke:#000000;stroke-width:0.01126977px;stroke-linecap:round;stroke-linejoin:round;stroke-miterlimit:4;stroke-dasharray:none;stroke-opacity:1;"
     cx="10.531599"
     cy="8.8342913"
     rx="0.24230004"
     ry="0.24793493"
     id="ellipse59" />
  <ellipse
     style="fill:none;stroke:#0a0a0a;stroke-width:0.01126977px;stroke-linecap:round;stroke-linejoin:round;stroke-miterlimit:4;stroke-dasharray:none;stroke-opacity:1;"
     cx="10.531599"
     cy="8.8342913"
     rx="0.24230004"
     ry="0.24793493"
     id="ellipse61" />
  <ellipse
     style="fill:#666666;fill-rule:evenodd;fill-opacity:1;stroke:#000000;stroke-width:0.026090091px;stroke-linecap:round;stroke-linejoin:round;stroke-miterlimit:4;stroke-dasharray:none;stroke-opacity:1;"
     cx="39.448218"
     cy="3.9654264"
     rx="0.83488291"
     ry="0.83488291"
     id="ellipse63" />
  <ellipse
     style="fill:none;stroke:#000000;stroke-width:0.026090091px;stroke-linecap:round;stroke-linejoin:round;stroke-miterlimit:4;stroke-dasharray:none;stroke-opacity:1;"
     cx="39.448218"
     cy="3.9654264"
     rx="0.83488291"
     ry="0.83488291"
     id="ellipse65" />
  <ellipse
     style="fill:#7f7f7f;fill-rule:evenodd;fill-opacity:1;stroke:#000000;stroke-width:0.026090091px;stroke-linecap:round;stroke-linejoin:round;stroke-miterlimit:4;stroke-dasharray:none;stroke-opacity:1;"
     cx="39.448218"
     cy="3.9654264"
     rx="0.75661264"
     ry="0.75661264"
     id="ellipse67" />
  <ellipse
     style="fill:none;stroke:#7f7f7f;stroke-width:0.026090091px;stroke-linecap:round;stroke-linejoin:round;stroke-miterlimit:4;stroke-dasharray:none;stroke-opacity:1;"
     cx="39.448218"
     cy="3.9654264"
     rx="0.75661264"
     ry="0.75661264"
     id="ellipse69" />
  <path
     style="fill:#494949;fill-rule:evenodd;fill-opacity:1;stroke:#161616;stroke-width:0.026090091px;stroke-linecap:round;stroke-linejoin:round;stroke-miterlimit:4;stroke-dasharray:none;stroke-opacity:1;"
     d="  M 38.874236,3.9135908   L 38.848146,3.9135908   L 38.822055,3.9395086   L 38.822055,3.9654264   L 38.795965,3.9654264   L 38.795965,4.1209333   L 38.822055,4.1209333   L 38.822055,4.1468512   L 38.848146,4.172769   L 39.396037,4.172769   L 39.396037,4.742961   L 39.422128,4.742961   L 39.422128,4.7688788   L 39.448218,4.7688788   L 39.448218,4.7947967   L 39.604758,4.7947967   L 39.604758,4.7688788   L 39.630848,4.7688788   L 39.630848,4.742961   L 39.656938,4.742961   L 39.656938,4.172769   L 40.23092,4.172769   L 40.23092,4.1468512   L 40.25701,4.1468512   L 40.25701,4.1209333   L 40.283101,4.1209333   L 40.283101,3.9654264   L 40.25701,3.9654264   L 40.25701,3.9395086   L 40.23092,3.9395086   L 40.23092,3.9135908   L 39.656938,3.9135908   L 39.656938,3.3693166   L 39.630848,3.3433988   L 39.604758,3.3433988   L 39.604758,3.3174809   L 39.448218,3.3174809   L 39.448218,3.3433988   L 39.422128,3.3433988   L 39.396037,3.3693166   L 39.396037,3.9135908   L 38.900326,3.9135908   L 38.874236,3.9135908   z "
     id="path71" />
  <path
     style="fill:none;stroke:#bfbfbf;stroke-width:0.026090091px;stroke-linecap:round;stroke-linejoin:round;stroke-miterlimit:4;stroke-dasharray:none;stroke-opacity:1;"
     d="  M 38.769875,3.9913442   L 38.769875,4.1209333   L 38.795965,4.1468512   L 38.822055,4.1468512   L 38.822055,4.172769   L 39.396037,4.172769   L 39.396037,4.7688788   L 39.422128,4.7947967   L 39.448218,4.7947967   L 39.448218,4.8207145   L 39.526488,4.8207145   L 39.552578,4.8207145  "
     id="path73" />
  <path
     style="fill:none;stroke:#bfbfbf;stroke-width:0.026090091px;stroke-linecap:round;stroke-linejoin:round;stroke-miterlimit:4;stroke-dasharray:none;stroke-opacity:1;"
     d="  M 39.396037,3.3693166   L 39.396037,3.887673   L 39.396037,3.9135908  "
     id="path75" />
  <text
     xml:space="preserve"
     style="font-size:0.875000px;font-style:normal;font-variant:normal;font-weight:400;font-stretch:Normal;line-height:125.000000%;letter-spacing:0px;word-spacing:0px;fill:#000000;fill-opacity:1;stroke:none;font-family:Arial;text-align:start;text-anchor:start;"
     transform="matrix(1.000000,-0.000000,0.000000,1.000000,11.795692,11.722375)"
     x="0.000000"
     y="0.637875"
     id="text81"><tspan
       x="0.000000"
       y="0.637875"
       id="tspan79"><tspan
         dx="0.000000"
         dy="0.000000"
         style="fill:#000000;font-size:0.875000px;font-style:normal;font-variant:normal;font-weight:400;font-stretch:Normal;font-family:Arial;"
         id="tspan77">DC+12V</tspan></tspan></text>
  <text
     xml:space="preserve"
     style="font-size:0.875000px;font-style:normal;font-variant:normal;font-weight:400;font-stretch:Normal;line-height:125.000000%;letter-spacing:0px;word-spacing:0px;fill:#000000;fill-opacity:1;stroke:none;font-family:Arial;text-align:start;text-anchor:start;"
     transform="matrix(1.000000,-0.000000,0.000000,1.000000,11.795692,11.722375)"
     x="5.935412"
     y="0.637875"
     id="text87"><tspan
       x="5.935412"
       y="0.637875"
       id="tspan85"><tspan
         dx="0.000000"
         dy="0.000000"
         style="fill:#000000;font-size:0.875000px;font-style:normal;font-variant:normal;font-weight:400;font-stretch:Normal;font-family:Arial;"
         id="tspan83">CONSOLE</tspan></tspan></text>
  <text
     xml:space="preserve"
     style="font-size:0.875000px;font-style:normal;font-variant:normal;font-weight:400;font-stretch:Normal;line-height:125.000000%;letter-spacing:0px;word-spacing:0px;fill:#000000;fill-opacity:1;stroke:none;font-family:Arial;text-align:start;text-anchor:start;"
     transform="matrix(1.000000,-0.000000,0.000000,1.000000,11.795692,11.722375)"
     x="32.306672"
     y="0.637875"
     id="text93"><tspan
       x="32.306672"
       y="0.637875"
       id="tspan91"><tspan
         dx="0.000000"
         dy="0.000000"
         style="fill:#000000;font-size:0.875000px;font-style:normal;font-variant:normal;font-weight:400;font-stretch:Normal;font-family:Arial;"
         id="tspan89">WAN</tspan></tspan></text>
  <text
     xml:space="preserve"
     style="font-size:0.875000px;font-style:normal;font-variant:normal;font-weight:400;font-stretch:Normal;line-height:125.000000%;letter-spacing:0px;word-spacing:0px;fill:#000000;fill-opacity:1;stroke:none;font-family:Arial;text-align:start;text-anchor:start;"
     transform="matrix(1.000000,-0.000000,0.000000,1.000000,11.795692,11.722375)"
     x="38.692875"
     y="0.637875"
     id="text99"><tspan
       x="38.692875"
       y="0.637875"
       id="tspan97"><tspan
         dx="0.000000"
         dy="0.000000"
         style="fill:#000000;font-size:0.875000px;font-style:normal;font-variant:normal;font-weight:400;font-stretch:Normal;font-family:Arial;"
         id="tspan95">4</tspan></tspan></text>
  <text
     xml:space="preserve"
     style="font-size:0.875000px;font-style:normal;font-variant:normal;font-weight:400;font-stretch:Normal;line-height:125.000000%;letter-spacing:0px;word-spacing:0px;fill:#000000;fill-opacity:1;stroke:none;font-family:Arial;text-align:start;text-anchor:start;"
     transform="matrix(1.000000,-0.000000,0.000000,1.000000,11.795692,11.722375)"
     x="44.327759"
     y="0.637875"
     id="text105"><tspan
       x="44.327759"
       y="0.637875"
       id="tspan103"><tspan
         dx="0.000000"
         dy="0.000000"
         style="fill:#000000;font-size:0.875000px;font-style:normal;font-variant:normal;font-weight:400;font-stretch:Normal;font-family:Arial;"
         id="tspan101">3</tspan></tspan></text>
  <text
     xml:space="preserve"
     style="font-size:0.875000px;font-style:normal;font-variant:normal;font-weight:400;font-stretch:Normal;line-height:125.000000%;letter-spacing:0px;word-spacing:0px;fill:#000000;fill-opacity:1;stroke:none;font-family:Arial;text-align:start;text-anchor:start;"
     transform="matrix(1.000000,-0.000000,0.000000,1.000000,11.795692,11.722375)"
     x="49.962644"
     y="0.637875"
     id="text111"><tspan
       x="49.962644"
       y="0.637875"
       id="tspan109"><tspan
         dx="0.000000"
         dy="0.000000"
         style="fill:#000000;font-size:0.875000px;font-style:normal;font-variant:normal;font-weight:400;font-stretch:Normal;font-family:Arial;"
         id="tspan107">2</tspan></tspan></text>
  <text
     xml:space="preserve"
     style="font-size:0.875000px;font-style:normal;font-variant:normal;font-weight:400;font-stretch:Normal;line-height:125.000000%;letter-spacing:0px;word-spacing:0px;fill:#000000;fill-opacity:1;stroke:none;font-family:Arial;text-align:start;text-anchor:start;"
     transform="matrix(1.000000,-0.000000,0.000000,1.000000,11.795692,11.722375)"
     x="55.597529"
     y="0.637875"
     id="text117"><tspan
       x="55.597529"
       y="0.637875"
       id="tspan115"><tspan
         dx="0.000000"
         dy="0.000000"
         style="fill:#000000;font-size:0.875000px;font-style:normal;font-variant:normal;font-weight:400;font-stretch:Normal;font-family:Arial;"
         id="tspan113">1</tspan></tspan></text>
  <ellipse
     style="fill:#000000;fill-rule:evenodd;fill-opacity:1;stroke:#000000;stroke-width:0.018782949px;stroke-linecap:round;stroke-linejoin:round;stroke-miterlimit:4;stroke-dasharray:none;stroke-opacity:1;"
     cx="4.789652"
     cy="4.3118926"
     rx="1.2584576"
     ry="1.2584576"
     id="ellipse119" />
  <ellipse
     style="fill:none;stroke:#000000;stroke-width:0.018782949px;stroke-linecap:round;stroke-linejoin:round;stroke-miterlimit:4;stroke-dasharray:none;stroke-opacity:1;"
     cx="4.789652"
     cy="4.3118926"
     rx="1.2584576"
     ry="1.2584576"
     id="ellipse121" />
  <ellipse
     style="fill:#bcbc7e;fill-rule:evenodd;fill-opacity:1;stroke:#000000;stroke-width:0.018782949px;stroke-linecap:round;stroke-linejoin:round;stroke-miterlimit:4;stroke-dasharray:none;stroke-opacity:1;"
     cx="4.7802605"
     cy="4.3118926"
     rx="0.98610482"
     ry="0.99549629"
     id="ellipse123" />
  <ellipse
     style="fill:none;stroke:#bcbc7e;stroke-width:0.018782949px;stroke-linecap:round;stroke-linejoin:round;stroke-miterlimit:4;stroke-dasharray:none;stroke-opacity:1;"
     cx="4.7802605"
     cy="4.3118926"
     rx="0.98610482"
     ry="0.99549629"
     id="ellipse125" />
  <ellipse
     style="fill:#000000;fill-rule:evenodd;fill-opacity:1;stroke:#000000;stroke-width:0.018782949px;stroke-linecap:round;stroke-linejoin:round;stroke-miterlimit:4;stroke-dasharray:none;stroke-opacity:1;"
     cx="4.789652"
     cy="4.3025595"
     rx="0.11269769"
     ry="0.10330622"
     id="ellipse127" />
  <ellipse
     style="fill:none;stroke:#000000;stroke-width:0.018782949px;stroke-linecap:round;stroke-linejoin:round;stroke-miterlimit:4;stroke-dasharray:none;stroke-opacity:1;"
     cx="4.789652"
     cy="4.3025595"
     rx="0.11269769"
     ry="0.10330622"
     id="ellipse129" />
  <ellipse
     style="fill:#000000;fill-rule:evenodd;fill-opacity:1;stroke:#000000;stroke-width:0.018782949px;stroke-linecap:round;stroke-linejoin:round;stroke-miterlimit:4;stroke-dasharray:none;stroke-opacity:1;"
     cx="76.841044"
     cy="4.3118926"
     rx="1.2584576"
     ry="1.2584576"
     id="ellipse131" />
  <ellipse
     style="fill:none;stroke:#000000;stroke-width:0.018782949px;stroke-linecap:round;stroke-linejoin:round;stroke-miterlimit:4;stroke-dasharray:none;stroke-opacity:1;"
     cx="76.841044"
     cy="4.3118926"
     rx="1.2584576"
     ry="1.2584576"
     id="ellipse133" />
  <ellipse
     style="fill:#bcbc7e;fill-rule:evenodd;fill-opacity:1;stroke:#000000;stroke-width:0.018782949px;stroke-linecap:round;stroke-linejoin:round;stroke-miterlimit:4;stroke-dasharray:none;stroke-opacity:1;"
     cx="76.831652"
     cy="4.3118926"
     rx="0.98610482"
     ry="0.99549629"
     id="ellipse135" />
  <ellipse
     style="fill:none;stroke:#bcbc7e;stroke-width:0.018782949px;stroke-linecap:round;stroke-linejoin:round;stroke-miterlimit:4;stroke-dasharray:none;stroke-opacity:1;"
     cx="76.831652"
     cy="4.3118926"
     rx="0.98610482"
     ry="0.99549629"
     id="ellipse137" />
  <ellipse
     style="fill:#000000;fill-rule:evenodd;fill-opacity:1;stroke:#000000;stroke-width:0.018782949px;stroke-linecap:round;stroke-linejoin:round;stroke-miterlimit:4;stroke-dasharray:none;stroke-opacity:1;"
     cx="76.841044"
     cy="4.3025595"
     rx="0.11269769"
     ry="0.10330622"
     id="ellipse139" />
  <ellipse
     style="fill:none;stroke:#000000;stroke-width:0.018782949px;stroke-linecap:round;stroke-linejoin:round;stroke-miterlimit:4;stroke-dasharray:none;stroke-opacity:1;"
     cx="76.841044"
     cy="4.3025595"
     rx="0.11269769"
     ry="0.10330622"
     id="ellipse141" />
  <ellipse
     style="fill:#999999;fill-rule:evenodd;fill-opacity:1;stroke:#000000;stroke-width:0.025576282px;stroke-linecap:round;stroke-linejoin:round;stroke-miterlimit:4;stroke-dasharray:none;stroke-opacity:1;"
     cx="9.2841903"
     cy="4.6001159"
     rx="1.0997801"
     ry="1.0997801"
     id="ellipse143" />
  <ellipse
     style="fill:none;stroke:#000000;stroke-width:0.025576282px;stroke-linecap:round;stroke-linejoin:round;stroke-miterlimit:4;stroke-dasharray:none;stroke-opacity:1;"
     cx="9.2841903"
     cy="4.6001159"
     rx="1.0997801"
     ry="1.0997801"
     id="ellipse145" />
  <ellipse
     style="fill:#666666;fill-rule:evenodd;fill-opacity:1;stroke:#000000;stroke-width:0.025576282px;stroke-linecap:round;stroke-linejoin:round;stroke-miterlimit:4;stroke-dasharray:none;stroke-opacity:1;"
     cx="9.2841903"
     cy="4.6001159"
     rx="0.81844102"
     ry="0.81844102"
     id="ellipse147" />
  <ellipse
     style="fill:none;stroke:#000000;stroke-width:0.025576282px;stroke-linecap:round;stroke-linejoin:round;stroke-miterlimit:4;stroke-dasharray:none;stroke-opacity:1;"
     cx="9.2841903"
     cy="4.6001159"
     rx="0.81844102"
     ry="0.81844102"
     id="ellipse149" />
  <ellipse
     style="fill:#7f7f7f;fill-rule:evenodd;fill-opacity:1;stroke:#000000;stroke-width:0.025576282px;stroke-linecap:round;stroke-linejoin:round;stroke-miterlimit:4;stroke-dasharray:none;stroke-opacity:1;"
     cx="9.2841903"
     cy="4.5874084"
     rx="0.74171217"
     ry="0.72892403"
     id="ellipse151" />
  <ellipse
     style="fill:none;stroke:#7f7f7f;stroke-width:0.025576282px;stroke-linecap:round;stroke-linejoin:round;stroke-miterlimit:4;stroke-dasharray:none;stroke-opacity:1;"
     cx="9.2841903"
     cy="4.5874084"
     rx="0.74171217"
     ry="0.72892403"
     id="ellipse153" />
  <path
     style="fill:#494949;fill-rule:evenodd;fill-opacity:1;stroke:#161616;stroke-width:0.025576282px;stroke-linecap:round;stroke-linejoin:round;stroke-miterlimit:4;stroke-dasharray:none;stroke-opacity:1;"
     d="  M 8.7215121,4.5492859   L 8.6959358,4.5492859   L 8.6703595,4.5747009   L 8.6703595,4.6001159   L 8.6447832,4.6001159   L 8.6447832,4.7526059   L 8.6703595,4.7526059   L 8.6703595,4.7780209   L 8.6959358,4.8034359   L 9.2330377,4.8034359   L 9.2330377,5.362566   L 9.258614,5.362566   L 9.258614,5.387981   L 9.2841903,5.387981   L 9.2841903,5.4133961   L 9.437648,5.4133961   L 9.437648,5.387981   L 9.4632243,5.387981   L 9.4632243,5.362566   L 9.4888005,5.362566   L 9.4888005,4.8034359   L 10.051479,4.8034359   L 10.051479,4.7780209   L 10.077055,4.7780209   L 10.077055,4.7526059   L 10.102631,4.7526059   L 10.102631,4.6001159   L 10.077055,4.6001159   L 10.077055,4.5747009   L 10.051479,4.5747009   L 10.051479,4.5492859   L 9.4888005,4.5492859   L 9.4888005,4.0155708   L 9.4632243,3.9901558   L 9.437648,3.9901558   L 9.437648,3.9647408   L 9.2841903,3.9647408   L 9.2841903,3.9901558   L 9.258614,3.9901558   L 9.2330377,4.0155708   L 9.2330377,4.5492859   L 8.7470884,4.5492859   L 8.7215121,4.5492859   z "
     id="path155" />
  <path
     style="fill:none;stroke:#bfbfbf;stroke-width:0.025576282px;stroke-linecap:round;stroke-linejoin:round;stroke-miterlimit:4;stroke-dasharray:none;stroke-opacity:1;"
     d="  M 8.619207,4.6255309   L 8.619207,4.7526059   L 8.6447832,4.7780209   L 8.6703595,4.7780209   L 8.6703595,4.8034359   L 9.2330377,4.8034359   L 9.2330377,5.387981   L 9.258614,5.4133961   L 9.2841903,5.4133961   L 9.2841903,5.4388111   L 9.3609191,5.4388111   L 9.3864954,5.4388111  "
     id="path157" />
  <path
     style="fill:none;stroke:#bfbfbf;stroke-width:0.025576282px;stroke-linecap:round;stroke-linejoin:round;stroke-miterlimit:4;stroke-dasharray:none;stroke-opacity:1;"
     d="  M 9.2330377,4.0155708   L 9.2330377,4.5238709   L 9.2330377,4.5492859  "
     id="path159" />
  <path
     style="fill:#000000;fill-rule:evenodd;fill-opacity:1;stroke:#000000;stroke-width:0.012169943px;stroke-linecap:round;stroke-linejoin:round;stroke-miterlimit:4;stroke-dasharray:none;stroke-opacity:1;"
     d="  M 14.482232,6.7223658   L 14.482232,10.87801   L 12.77844,10.87801   L 12.77844,6.7223658   L 13.107028,6.7223658   L 13.107028,7.0523729   L 14.153643,7.0523729   L 14.153643,6.7223658   L 14.482232,6.7223658   z "
     id="path161" />
  <path
     style="fill:#666666;fill-rule:evenodd;fill-opacity:1;stroke:#000000;stroke-width:0.012169943px;stroke-linecap:round;stroke-linejoin:round;stroke-miterlimit:4;stroke-dasharray:none;stroke-opacity:1;"
     d="  M 14.433552,7.1745977   L 12.82712,7.1745977   L 12.82712,10.816898   L 14.433552,10.816898   L 14.433552,7.1745977   z "
     id="path163" />
  <path
     style="fill:#000000;fill-rule:evenodd;fill-opacity:1;stroke:#000000;stroke-width:0.012169943px;stroke-linecap:round;stroke-linejoin:round;stroke-miterlimit:4;stroke-dasharray:none;stroke-opacity:1;"
     d="  M 14.263173,9.1424175   L 12.997499,9.1424175   L 12.997499,10.413556   L 14.263173,10.413556   L 14.263173,9.1424175   z "
     id="path165" />
  <ellipse
     style="fill:#bfbfbf;fill-rule:evenodd;fill-opacity:1;stroke:#000000;stroke-width:0.012169943px;stroke-linecap:round;stroke-linejoin:round;stroke-miterlimit:4;stroke-dasharray:none;stroke-opacity:1;"
     cx="13.551231"
     cy="9.6985405"
     rx="0.079104628"
     ry="0.079104628"
     id="ellipse167" />
  <ellipse
     style="fill:none;stroke:#000000;stroke-width:0.012169943px;stroke-linecap:round;stroke-linejoin:round;stroke-miterlimit:4;stroke-dasharray:none;stroke-opacity:1;"
     cx="13.551231"
     cy="9.6985405"
     rx="0.079104628"
     ry="0.079104628"
     id="ellipse169" />
  <path
     style="fill:#000000;fill-rule:evenodd;fill-opacity:1;stroke:#000000;stroke-width:0.012169943px;stroke-linecap:round;stroke-linejoin:round;stroke-miterlimit:4;stroke-dasharray:none;stroke-opacity:1;"
     d="  M 14.263173,7.6023846   L 12.997499,7.6023846   L 12.997499,8.5557383   L 13.313917,8.8735229   L 13.971094,8.8735229   L 14.263173,8.5801833   L 14.263173,7.6023846   z "
     id="path171" />
  <ellipse
     style="fill:#bfbfbf;fill-rule:evenodd;fill-opacity:1;stroke:#000000;stroke-width:0.012169943px;stroke-linecap:round;stroke-linejoin:round;stroke-miterlimit:4;stroke-dasharray:none;stroke-opacity:1;"
     cx="13.551231"
     cy="8.1646188"
     rx="0.079104628"
     ry="0.073019657"
     id="ellipse173" />
  <ellipse
     style="fill:none;stroke:#000000;stroke-width:0.012169943px;stroke-linecap:round;stroke-linejoin:round;stroke-miterlimit:4;stroke-dasharray:none;stroke-opacity:1;"
     cx="13.551231"
     cy="8.1646188"
     rx="0.079104628"
     ry="0.073019657"
     id="ellipse175" />
  <path
     style="fill:#000000;fill-rule:evenodd;fill-opacity:1;stroke:#161616;stroke-width:0.018637476px;stroke-linecap:round;stroke-linejoin:round;stroke-miterlimit:4;stroke-dasharray:none;stroke-opacity:1;"
     d="  M 17.649691,9.6007294   L 17.649691,6.7813213   L 18.84249,6.7813213   L 18.84249,6.1179312   L 19.327064,6.1179312   L 19.327064,5.4545411   L 20.743512,5.4545411   L 20.743512,6.1179312   L 21.228087,6.1179312   L 21.228087,6.7813213   L 22.420885,6.7813213   L 22.420885,9.6007294   L 17.649691,9.6007294   z "
     id="path177" />
  <path
     style="fill:#000000;fill-rule:evenodd;fill-opacity:1;stroke:#161616;stroke-width:0.018637476px;stroke-linecap:round;stroke-linejoin:round;stroke-miterlimit:4;stroke-dasharray:none;stroke-opacity:1;"
     d="  M 65.361633,6.3574887   L 65.361633,9.1768968   L 66.554431,9.1768968   L 66.554431,9.8402869   L 67.039006,9.8402869   L 67.039006,10.503677   L 68.455454,10.503677   L 68.455454,9.8402869   L 68.940029,9.8402869   L 68.940029,9.1768968   L 70.132827,9.1768968   L 70.132827,6.3574887   L 65.361633,6.3574887   z "
     id="path179" />
  <path
     style="fill:#000000;fill-rule:evenodd;fill-opacity:1;stroke:#161616;stroke-width:0.018637476px;stroke-linecap:round;stroke-linejoin:round;stroke-miterlimit:4;stroke-dasharray:none;stroke-opacity:1;"
     d="  M 59.733115,6.3574887   L 59.733115,9.1768968   L 60.925913,9.1768968   L 60.925913,9.8402869   L 61.410488,9.8402869   L 61.410488,10.503677   L 62.826936,10.503677   L 62.826936,9.8402869   L 63.31151,9.8402869   L 63.31151,9.1768968   L 64.504309,9.1768968   L 64.504309,6.3574887   L 59.733115,6.3574887   z "
     id="path181" />
  <path
     style="fill:#000000;fill-rule:evenodd;fill-opacity:1;stroke:#161616;stroke-width:0.018637476px;stroke-linecap:round;stroke-linejoin:round;stroke-miterlimit:4;stroke-dasharray:none;stroke-opacity:1;"
     d="  M 54.104597,6.3574887   L 54.104597,9.1768968   L 55.297395,9.1768968   L 55.297395,9.8402869   L 55.78197,9.8402869   L 55.78197,10.503677   L 57.198418,10.503677   L 57.198418,9.8402869   L 57.682992,9.8402869   L 57.682992,9.1768968   L 58.875791,9.1768968   L 58.875791,6.3574887   L 54.104597,6.3574887   z "
     id="path183" />
  <path
     style="fill:#000000;fill-rule:evenodd;fill-opacity:1;stroke:#161616;stroke-width:0.018637476px;stroke-linecap:round;stroke-linejoin:round;stroke-miterlimit:4;stroke-dasharray:none;stroke-opacity:1;"
     d="  M 48.457441,6.3574887   L 48.457441,9.1768968   L 49.65024,9.1768968   L 49.65024,9.8402869   L 50.134814,9.8402869   L 50.134814,10.503677   L 51.551262,10.503677   L 51.551262,9.8402869   L 52.035837,9.8402869   L 52.035837,9.1768968   L 53.228635,9.1768968   L 53.228635,6.3574887   L 48.457441,6.3574887   z "
     id="path185" />
  <path
     style="fill:#000000;fill-rule:evenodd;fill-opacity:1;stroke:#161616;stroke-width:0.018637476px;stroke-linecap:round;stroke-linejoin:round;stroke-miterlimit:4;stroke-dasharray:none;stroke-opacity:1;"
     d="  M 42.828923,6.3574887   L 42.828923,9.1768968   L 44.021721,9.1768968   L 44.021721,9.8402869   L 44.506296,9.8402869   L 44.506296,10.503677   L 45.922744,10.503677   L 45.922744,9.8402869   L 46.407319,9.8402869   L 46.407319,9.1768968   L 47.600117,9.1768968   L 47.600117,6.3574887   L 42.828923,6.3574887   z "
     id="path187" />
</svg>
