<?xml version="1.0" encoding="UTF-8" standalone="no"?>
<svg
   version="1.0"
   width="1.76mm"
   height="13.52mm"
   id="svg19"
   xmlns="http://www.w3.org/2000/svg"
   xmlns:svg="http://www.w3.org/2000/svg">
  <defs
     id="defs3">
    <pattern
       id="EMFhbasepattern"
       patternUnits="userSpaceOnUse"
       width="6"
       height="6"
       x="0"
       y="0" />
  </defs>
  <ellipse
     style="fill:#efefef;fill-rule:evenodd;fill-opacity:1;stroke:#000000;stroke-width:0.018519849px;stroke-linecap:round;stroke-linejoin:round;stroke-miterlimit:4;stroke-dasharray:none;stroke-opacity:1;"
     cx="3.1761542"
     cy="48.570197"
     rx="2.213122"
     ry="2.213122"
     id="ellipse5" />
  <ellipse
     style="fill:none;stroke:#000000;stroke-width:0.018519849px;stroke-linecap:round;stroke-linejoin:round;stroke-miterlimit:4;stroke-dasharray:none;stroke-opacity:1;"
     cx="3.1761542"
     cy="48.570197"
     rx="2.213122"
     ry="2.213122"
     id="ellipse7" />
  <path
     style="fill:#efefef;fill-rule:evenodd;fill-opacity:1;stroke:#000000;stroke-width:0.018519849px;stroke-linecap:round;stroke-linejoin:round;stroke-miterlimit:4;stroke-dasharray:none;stroke-opacity:1;"
     d="  M 6.0374709,49.724173   L 6.0374709,45.333435   L 6.518987,45.333435   L 6.518987,2.0640223   L 6.4449076,1.6136901   L 6.4078679,1.5198709   L 6.3708282,1.4072879   L 6.3523083,1.3134687   L 6.2967488,1.2008857   L 6.2226694,1.0132473   L 6.1671098,0.9194281   L 6.1115503,0.84437275   L 6.0559907,0.75055355   L 5.9448716,0.60044284   L 5.7411533,0.39404062   L 5.5189151,0.22516607   L 5.4263158,0.18763839   L 5.3522364,0.13134687   L 5.278157,0.11258303   L 5.0929586,0.037527678   L 5.0188792,0.018763839   L 4.9262799,0.018763839   L 4.8336807,0   L 1.6853063,0   L 1.592707,0.018763839   L 1.5001078,0.018763839   L 1.4260284,0.037527678   L 1.2408299,0.11258303   L 1.1667505,0.13134687   L 1.0926711,0.18763839   L 1.0000719,0.22516607   L 0.77783367,0.39404062   L 0.57411533,0.60044284   L 0.46299623,0.75055355   L 0.40743668,0.84437275   L 0.35187714,0.9194281   L 0.29631759,1.0132473   L 0.22223819,1.2008857   L 0.16667864,1.3134687   L 0.14815879,1.4072879   L 0.1111191,1.5198709   L 0.074079397,1.6136901   L 0,2.0640223   L 0,45.446018   L 0.61115503,45.446018   L 0.61115503,49.724173   L 6.018951,49.724173   L 6.0374709,49.724173   z "
     id="path9" />
  <path
     style="fill:#e2e2e2;fill-rule:evenodd;fill-opacity:1;stroke:#e2e2e2;stroke-width:0.018519849px;stroke-linecap:round;stroke-linejoin:round;stroke-miterlimit:4;stroke-dasharray:none;stroke-opacity:1;"
     d="  M 3.1483744,19.214171   L 2.8705766,19.945961   L 2.6112988,20.734042   L 2.3520209,21.559651   L 2.1297827,22.441551   L 1.9075445,23.360979   L 1.722346,24.317935   L 1.5371475,25.312419   L 1.351949,26.325666   L 1.2037902,27.338913   L 1.0556314,28.389688   L 0.79635352,30.491238   L 0.68523442,31.560777   L 0.59263518,32.611552   L 0.50003593,33.643563   L 0.42595653,34.65681   L 0.35187714,35.651294   L 0.29631759,36.627013   L 0.24075804,37.565205   L 0.18519849,38.46587   L 0.14815879,39.329006   L 0.1111191,40.154615   L 0.074079397,40.905169   L 0.055559548,41.599431   L 0.037039699,42.237401   L 0.018519849,42.81908   L 0.018519849,43.30694   L 0,43.719744   L 0,44.507826   L 6.518987,44.507826   L 6.518987,43.719744   L 6.5004671,43.30694   L 6.5004671,42.81908   L 6.4819473,42.237401   L 6.4634274,41.599431   L 6.4263877,40.905169   L 6.4078679,40.135851   L 6.3708282,39.329006   L 6.3337885,38.46587   L 6.2782289,37.565205   L 6.2226694,36.627013   L 6.14859,35.651294   L 6.0745106,34.65681   L 6.0004312,33.624799   L 5.8893121,32.592788   L 5.7967128,31.542013   L 5.407796,28.389688   L 5.2411174,27.338913   L 5.0744387,26.306902   L 4.8892402,25.293655   L 4.6855219,24.317935   L 4.4818035,23.360979   L 4.2410455,22.441551   L 4.0002874,21.559651   L 3.7410096,20.734042   L 3.444692,19.945961   L 3.1483744,19.214171   z "
     id="path11" />
  <path
     style="fill:#efefef;fill-rule:evenodd;fill-opacity:1;stroke:#efefef;stroke-width:0.018519849px;stroke-linecap:round;stroke-linejoin:round;stroke-miterlimit:4;stroke-dasharray:none;stroke-opacity:1;"
     d="  M 3.1854141,19.214171   L 2.9631759,19.945961   L 2.7409377,20.734042   L 2.5372194,21.559651   L 2.3520209,22.441551   L 2.1853422,23.360979   L 2.0186636,24.317935   L 1.8705048,25.312419   L 1.722346,26.325666   L 1.6112269,27.338913   L 1.4815879,28.389688   L 1.3704688,29.440463   L 1.2778696,30.491238   L 1.1852704,31.560777   L 1.111191,32.611552   L 1.0371116,33.643563   L 0.96303216,34.65681   L 0.90747262,35.651294   L 0.87043292,36.627013   L 0.81487337,37.565205   L 0.77783367,38.46587   L 0.74079397,39.329006   L 0.72227412,40.154615   L 0.70375427,40.905169   L 0.68523442,41.599431   L 0.66671457,42.237401   L 0.64819473,42.81908   L 0.64819473,43.30694   L 0.62967488,43.719744   L 0.62967488,44.507826   L 5.8893121,44.507826   L 5.8893121,43.719744   L 5.8707922,43.30694   L 5.8707922,42.81908   L 5.8522724,42.237401   L 5.8337525,41.599431   L 5.8152327,40.905169   L 5.7967128,40.135851   L 5.778193,39.329006   L 5.7411533,38.46587   L 5.7041136,37.565205   L 5.648554,36.627013   L 5.5929945,35.651294   L 5.5374349,34.65681   L 5.3892761,32.592788   L 5.3151967,31.542013   L 5.2040777,30.491238   L 5.1114784,29.440463   L 5.0003593,28.389688   L 4.8707204,27.338913   L 4.7410814,26.306902   L 4.5929226,25.293655   L 4.426244,24.317935   L 4.2595653,23.360979   L 4.0743668,22.441551   L 3.8706485,21.559651   L 3.6484103,20.734042   L 3.4261721,19.945961   L 3.1854141,19.214171   z "
     id="path13" />
  <path
     style="fill:#efefef;fill-rule:evenodd;fill-opacity:1;stroke:#bfbfbf;stroke-width:0.018519849px;stroke-linecap:round;stroke-linejoin:round;stroke-miterlimit:4;stroke-dasharray:none;stroke-opacity:1;"
     d="  M 6.518987,40.267198   L 0,40.267198   L 0,45.446018   L 6.518987,45.446018   L 6.518987,40.267198   z "
     id="path15" />
  <path
     style="fill:none;stroke:none;"
     d="  M 3.5387644,50.6431   L 3.0545124,50.6431   L 3.0545124,51.133929   L 3.5387644,51.133929   L 3.5387644,50.6431  "
     id="path17" />
</svg>
