<?xml version="1.0" encoding="UTF-8" standalone="no"?>
<svg
   version="1.0"
   width="48.209999mm"
   height="13.29mm"
   id="svg227"
   xmlns="http://www.w3.org/2000/svg"
   xmlns:svg="http://www.w3.org/2000/svg">
  <defs
     id="defs3">
    <pattern
       id="EMFhbasepattern"
       patternUnits="userSpaceOnUse"
       width="6"
       height="6"
       x="0"
       y="0" />
  </defs>
  <path
     style="fill:none;stroke:none;"
     d="  M 151.7253,2.5799384   L 151.7253,4.7346122   L 153.63759,4.7346122   M 153.63759,2.5799384   L 157.41186,2.5799384   M 155.49956,2.5799384   L 155.49956,4.7346122   M 158.368,2.5799384   L 158.368,4.7346122   M 158.368,2.5799384   L 158.368,4.7346122  "
     id="path5" />
  <path
     style="fill:none;stroke:none;"
     d="  M 160.22997,4.7346122   L 160.22997,2.5799384   L 162.14226,4.7346122   L 164.05456,2.5799384   L 164.05456,4.7346122  "
     id="path7" />
  <path
     style="fill:none;stroke:none;"
     d="  M 164.96038,4.7346122   L 166.87267,2.5799384   L 168.78496,4.7346122   M 165.46361,4.1959437   L 168.28173,4.1959437  "
     id="path9" />
  <path
     style="fill:none;stroke:none;"
     d="  M 146.03875,4.7346122   L 147.95104,2.5799384   L 149.86333,4.7346122   M 146.54198,4.1959437   L 149.3601,4.1959437  "
     id="path11" />
  <path
     style="fill:none;stroke:none;"
     d="  M 151.7253,2.5799384   L 151.7253,4.7346122   L 153.63759,4.7346122   M 153.63759,2.5799384   L 157.41186,2.5799384   M 155.49956,2.5799384   L 155.49956,4.7346122   M 158.368,2.5799384   L 158.368,4.7346122   M 158.368,2.5799384   L 158.368,4.7346122  "
     id="path13" />
  <path
     style="fill:none;stroke:none;"
     d="  M 160.22997,4.7346122   L 160.22997,2.5799384   L 162.14226,4.7346122   L 164.05456,2.5799384   L 164.05456,4.7346122  "
     id="path15" />
  <path
     style="fill:none;stroke:none;"
     d="  M 164.96038,4.7346122   L 166.87267,2.5799384   L 168.78496,4.7346122   M 165.46361,4.1959437   L 168.28173,4.1959437  "
     id="path17" />
  <path
     style="fill:none;stroke:none;"
     d="  M 146.03875,4.7346122   L 147.95104,2.5799384   L 149.86333,4.7346122   M 146.54198,4.1959437   L 149.3601,4.1959437  "
     id="path19" />
  <path
     style="fill:#666666;fill-rule:evenodd;fill-opacity:1;stroke:#000000;stroke-width:0.093625084px;stroke-linecap:round;stroke-linejoin:round;stroke-miterlimit:4;stroke-dasharray:none;stroke-opacity:1;"
     d="  M 172.30761,0.037497812   L 9.6246587,0.037497812   L 9.6246587,50.134574   L 172.30761,50.134574   L 172.30761,0.037497812   z "
     id="path21" />
  <path
     style="fill:#666666;fill-rule:evenodd;fill-opacity:1;stroke:#000000;stroke-width:0.093625084px;stroke-linecap:round;stroke-linejoin:round;stroke-miterlimit:4;stroke-dasharray:none;stroke-opacity:1;"
     d="  M 9.6246587,0.037497812   L 0.037450034,0.037497812   L 0.037450034,50.134574   L 9.6246587,50.134574   L 9.6246587,0.037497812   z "
     id="path23" />
  <path
     style="fill:#494949;fill-rule:evenodd;fill-opacity:1;stroke:#000000;stroke-width:0.093625084px;stroke-linecap:round;stroke-linejoin:round;stroke-miterlimit:4;stroke-dasharray:none;stroke-opacity:1;"
     d="  M 9.6246587,0.037497812   L 8.9880082,0.037497812   L 8.9880082,50.134574   L 9.6246587,50.134574   L 9.6246587,0.037497812   z "
     id="path25" />
  <path
     style="fill:#ffffff;fill-rule:evenodd;fill-opacity:1;stroke:#000000;stroke-width:0.093625084px;stroke-linecap:round;stroke-linejoin:round;stroke-miterlimit:4;stroke-dasharray:none;stroke-opacity:1;"
     d="  M 6.6848311,13.986684   L 6.6848311,13.836693   L 6.609931,13.53671   L 6.572481,13.405468   L 6.5163059,13.274225   L 6.4414059,13.161732   L 6.2541557,12.936745   L 6.0294555,12.749256   L 5.9171054,12.67426   L 5.7860303,12.618014   L 5.6549551,12.580516   L 5.3553549,12.50552   L 3.4266781,12.50552   L 3.1270778,12.580516   L 2.9960027,12.618014   L 2.8649276,12.67426   L 2.7525775,12.749256   L 2.5278773,12.936745   L 2.3406271,13.161732   L 2.2657271,13.274225   L 2.209552,13.405468   L 2.172102,13.53671   L 2.0972019,13.836693   L 2.0972019,14.136675   L 2.172102,14.436658   L 2.209552,14.5679   L 2.2657271,14.699142   L 2.3406271,14.811636   L 2.5278773,15.036623   L 2.7525775,15.224112   L 2.8649276,15.299107   L 2.9960027,15.355354   L 3.1270778,15.392852   L 3.4266781,15.467847   L 5.3553549,15.467847   L 5.6549551,15.392852   L 5.7860303,15.355354   L 5.9171054,15.299107   L 6.0294555,15.224112   L 6.2541557,15.036623   L 6.4414059,14.811636   L 6.5163059,14.699142   L 6.572481,14.5679   L 6.609931,14.436658   L 6.6848311,14.136675   L 6.6848311,13.986684   z "
     id="path27" />
  <path
     style="fill:#ffffff;fill-rule:evenodd;fill-opacity:1;stroke:#000000;stroke-width:0.093625084px;stroke-linecap:round;stroke-linejoin:round;stroke-miterlimit:4;stroke-dasharray:none;stroke-opacity:1;"
     d="  M 6.6848311,36.185388   L 6.6848311,36.035397   L 6.609931,35.735415   L 6.572481,35.604172   L 6.5163059,35.47293   L 6.4414059,35.360436   L 6.2541557,35.13545   L 6.0294555,34.947961   L 5.9171054,34.872965   L 5.7860303,34.816718   L 5.6549551,34.77922   L 5.3553549,34.704225   L 3.4266781,34.704225   L 3.1270778,34.77922   L 2.9960027,34.816718   L 2.8649276,34.872965   L 2.7525775,34.947961   L 2.5278773,35.13545   L 2.3406271,35.360436   L 2.2657271,35.47293   L 2.209552,35.604172   L 2.172102,35.735415   L 2.0972019,36.035397   L 2.0972019,36.33538   L 2.172102,36.635362   L 2.209552,36.766604   L 2.2657271,36.897847   L 2.3406271,37.01034   L 2.5278773,37.235327   L 2.7525775,37.422816   L 2.8649276,37.497812   L 2.9960027,37.554058   L 3.1270778,37.591556   L 3.4266781,37.666552   L 5.3553549,37.666552   L 5.6549551,37.591556   L 5.7860303,37.554058   L 5.9171054,37.497812   L 6.0294555,37.422816   L 6.2541557,37.235327   L 6.4414059,37.01034   L 6.5163059,36.897847   L 6.572481,36.766604   L 6.609931,36.635362   L 6.6848311,36.33538   L 6.6848311,36.185388   z "
     id="path29" />
  <path
     style="fill:#666666;fill-rule:evenodd;fill-opacity:1;stroke:#000000;stroke-width:0.093625084px;stroke-linecap:round;stroke-linejoin:round;stroke-miterlimit:4;stroke-dasharray:none;stroke-opacity:1;"
     d="  M 172.30761,0.037497812   L 181.89482,0.037497812   L 181.89482,50.134574   L 172.30761,50.134574   L 172.30761,0.037497812   z "
     id="path31" />
  <path
     style="fill:#494949;fill-rule:evenodd;fill-opacity:1;stroke:#000000;stroke-width:0.093625084px;stroke-linecap:round;stroke-linejoin:round;stroke-miterlimit:4;stroke-dasharray:none;stroke-opacity:1;"
     d="  M 172.30761,0.037497812   L 172.94426,0.037497812   L 172.94426,50.134574   L 172.30761,50.134574   L 172.30761,0.037497812   z "
     id="path33" />
  <path
     style="fill:#ffffff;fill-rule:evenodd;fill-opacity:1;stroke:#000000;stroke-width:0.093625084px;stroke-linecap:round;stroke-linejoin:round;stroke-miterlimit:4;stroke-dasharray:none;stroke-opacity:1;"
     d="  M 179.85379,13.986684   L 179.85379,13.836693   L 179.77889,13.53671   L 179.74144,13.405468   L 179.68526,13.274225   L 179.61036,13.161732   L 179.42311,12.936745   L 179.19841,12.749256   L 179.08606,12.67426   L 178.95499,12.618014   L 178.82391,12.580516   L 178.52431,12.50552   L 176.59564,12.50552   L 176.29604,12.580516   L 176.16496,12.618014   L 176.03388,12.67426   L 175.92153,12.749256   L 175.69683,12.936745   L 175.50958,13.161732   L 175.43468,13.274225   L 175.37851,13.405468   L 175.34106,13.53671   L 175.26616,13.836693   L 175.26616,14.136675   L 175.34106,14.436658   L 175.37851,14.5679   L 175.43468,14.699142   L 175.50958,14.811636   L 175.69683,15.036623   L 175.92153,15.224112   L 176.03388,15.299107   L 176.16496,15.355354   L 176.29604,15.392852   L 176.59564,15.467847   L 178.52431,15.467847   L 178.82391,15.392852   L 178.95499,15.355354   L 179.08606,15.299107   L 179.19841,15.224112   L 179.42311,15.036623   L 179.61036,14.811636   L 179.68526,14.699142   L 179.74144,14.5679   L 179.77889,14.436658   L 179.85379,14.136675   L 179.85379,13.986684   z "
     id="path35" />
  <path
     style="fill:#ffffff;fill-rule:evenodd;fill-opacity:1;stroke:#000000;stroke-width:0.093625084px;stroke-linecap:round;stroke-linejoin:round;stroke-miterlimit:4;stroke-dasharray:none;stroke-opacity:1;"
     d="  M 179.85379,36.185388   L 179.85379,36.035397   L 179.77889,35.735415   L 179.74144,35.604172   L 179.68526,35.47293   L 179.61036,35.360436   L 179.42311,35.13545   L 179.19841,34.947961   L 179.08606,34.872965   L 178.95499,34.816718   L 178.82391,34.77922   L 178.52431,34.704225   L 176.59564,34.704225   L 176.29604,34.77922   L 176.16496,34.816718   L 176.03388,34.872965   L 175.92153,34.947961   L 175.69683,35.13545   L 175.50958,35.360436   L 175.43468,35.47293   L 175.37851,35.604172   L 175.34106,35.735415   L 175.26616,36.035397   L 175.26616,36.33538   L 175.34106,36.635362   L 175.37851,36.766604   L 175.43468,36.897847   L 175.50958,37.01034   L 175.69683,37.235327   L 175.92153,37.422816   L 176.03388,37.497812   L 176.16496,37.554058   L 176.29604,37.591556   L 176.59564,37.666552   L 178.52431,37.666552   L 178.82391,37.591556   L 178.95499,37.554058   L 179.08606,37.497812   L 179.19841,37.422816   L 179.42311,37.235327   L 179.61036,37.01034   L 179.68526,36.897847   L 179.74144,36.766604   L 179.77889,36.635362   L 179.85379,36.33538   L 179.85379,36.185388   z "
     id="path37" />
  <path
     style="fill:#494949;fill-rule:evenodd;fill-opacity:1;stroke:#000000;stroke-width:0.018725017px;stroke-linecap:round;stroke-linejoin:round;stroke-miterlimit:4;stroke-dasharray:none;stroke-opacity:1;"
     d="  M 11.646961,45.916071   L 137.59143,45.916071   L 137.59143,22.236202   L 11.646961,22.236202   L 11.646961,45.916071   z "
     id="path39" />
  <path
     style="fill:#494949;fill-rule:evenodd;fill-opacity:1;stroke:#000000;stroke-width:0.018725017px;stroke-linecap:round;stroke-linejoin:round;stroke-miterlimit:4;stroke-dasharray:none;stroke-opacity:1;"
     d="  M 18.818642,1.6499037   L 137.5727,1.6499037   L 137.5727,17.717716   L 18.818642,17.717716   L 18.818642,1.6499037   z "
     id="path41" />
  <path
     style="fill:#666666;fill-rule:evenodd;fill-opacity:1;stroke:#000000;stroke-width:0.018725017px;stroke-linecap:round;stroke-linejoin:round;stroke-miterlimit:4;stroke-dasharray:none;stroke-opacity:1;"
     d="  M 19.118242,1.799895   L 137.1982,1.799895   L 137.1982,17.548976   L 19.118242,17.548976   L 19.118242,1.799895   z "
     id="path43" />
  <path
     style="fill:#494949;fill-rule:evenodd;fill-opacity:1;stroke:#000000;stroke-width:0.018725017px;stroke-linecap:round;stroke-linejoin:round;stroke-miterlimit:4;stroke-dasharray:none;stroke-opacity:1;"
     d="  M 86.078903,1.799895   L 131.20619,1.799895   L 131.20619,2.2686176   L 86.078903,2.2686176   L 86.078903,1.799895   z "
     id="path45" />
  <path
     style="fill:#494949;fill-rule:evenodd;fill-opacity:1;stroke:#000000;stroke-width:0.018725017px;stroke-linecap:round;stroke-linejoin:round;stroke-miterlimit:4;stroke-dasharray:none;stroke-opacity:1;"
     d="  M 86.078903,17.080253   L 131.20619,17.080253   L 131.20619,17.548976   L 86.078903,17.548976   L 86.078903,17.080253   z "
     id="path47" />
  <path
     style="fill:#494949;fill-rule:evenodd;fill-opacity:1;stroke:#000000;stroke-width:0.018725017px;stroke-linecap:round;stroke-linejoin:round;stroke-miterlimit:4;stroke-dasharray:none;stroke-opacity:1;"
     d="  M 30.652853,1.799895   L 75.780144,1.799895   L 75.780144,2.2686176   L 30.652853,2.2686176   L 30.652853,1.799895   z "
     id="path49" />
  <path
     style="fill:#494949;fill-rule:evenodd;fill-opacity:1;stroke:#000000;stroke-width:0.018725017px;stroke-linecap:round;stroke-linejoin:round;stroke-miterlimit:4;stroke-dasharray:none;stroke-opacity:1;"
     d="  M 30.652853,17.080253   L 75.780144,17.080253   L 75.780144,17.548976   L 30.652853,17.548976   L 30.652853,17.080253   z "
     id="path51" />
  <path
     style="fill:#494949;fill-rule:evenodd;fill-opacity:1;stroke:#000000;stroke-width:0.018725017px;stroke-linecap:round;stroke-linejoin:round;stroke-miterlimit:4;stroke-dasharray:none;stroke-opacity:1;"
     d="  M 24.155272,1.799895   L 77.633921,1.799895   L 77.633921,17.548976   L 24.155272,17.548976   L 24.155272,1.799895   z "
     id="path53" />
  <path
     style="fill:#494949;fill-rule:evenodd;fill-opacity:1;stroke:#000000;stroke-width:0.018725017px;stroke-linecap:round;stroke-linejoin:round;stroke-miterlimit:4;stroke-dasharray:none;stroke-opacity:1;"
     d="  M 78.682521,1.799895   L 132.16117,1.799895   L 132.16117,17.548976   L 78.682521,17.548976   L 78.682521,1.799895   z "
     id="path55" />
  <ellipse
     style="fill:#bfbfbf;fill-rule:evenodd;fill-opacity:1;stroke:#000000;stroke-width:0.032675475px;stroke-linecap:round;stroke-linejoin:round;stroke-miterlimit:4;stroke-dasharray:none;stroke-opacity:1;"
     cx="21.582151"
     cy="9.6720521"
     rx="1.4213831"
     ry="1.4213831"
     id="ellipse57" />
  <ellipse
     style="fill:none;stroke:#000000;stroke-width:0.032675475px;stroke-linecap:round;stroke-linejoin:round;stroke-miterlimit:4;stroke-dasharray:none;stroke-opacity:1;"
     cx="21.582151"
     cy="9.6720521"
     rx="1.4213831"
     ry="1.4213831"
     id="ellipse59" />
  <ellipse
     style="fill:#666666;fill-rule:evenodd;fill-opacity:1;stroke:#000000;stroke-width:0.032675475px;stroke-linecap:round;stroke-linejoin:round;stroke-miterlimit:4;stroke-dasharray:none;stroke-opacity:1;"
     cx="21.582151"
     cy="9.6720521"
     rx="1.0619529"
     ry="1.0619529"
     id="ellipse61" />
  <ellipse
     style="fill:none;stroke:#000000;stroke-width:0.032675475px;stroke-linecap:round;stroke-linejoin:round;stroke-miterlimit:4;stroke-dasharray:none;stroke-opacity:1;"
     cx="21.582151"
     cy="9.6720521"
     rx="1.0619529"
     ry="1.0619529"
     id="ellipse63" />
  <ellipse
     style="fill:#dddddd;fill-rule:evenodd;fill-opacity:1;stroke:#000000;stroke-width:0.032675475px;stroke-linecap:round;stroke-linejoin:round;stroke-miterlimit:4;stroke-dasharray:none;stroke-opacity:1;"
     cx="21.582151"
     cy="9.6720521"
     rx="0.96392649"
     ry="0.96392649"
     id="ellipse65" />
  <ellipse
     style="fill:none;stroke:#dddddd;stroke-width:0.032675475px;stroke-linecap:round;stroke-linejoin:round;stroke-miterlimit:4;stroke-dasharray:none;stroke-opacity:1;"
     cx="21.582151"
     cy="9.6720521"
     rx="0.96392649"
     ry="0.96392649"
     id="ellipse67" />
  <path
     style="fill:#494949;fill-rule:evenodd;fill-opacity:1;stroke:#161616;stroke-width:0.032675475px;stroke-linecap:round;stroke-linejoin:round;stroke-miterlimit:4;stroke-dasharray:none;stroke-opacity:1;"
     d="  M 20.846952,9.5902242   L 20.814277,9.5902242   L 20.781602,9.6229554   L 20.781602,9.6556865   L 20.748926,9.6556865   L 20.748926,9.8520734   L 20.781602,9.8520734   L 20.781602,9.8848045   L 20.814277,9.9175357   L 21.500462,9.9175357   L 21.500462,10.637621   L 21.533137,10.637621   L 21.533137,10.670352   L 21.565813,10.670352   L 21.565813,10.703083   L 21.761866,10.703083   L 21.761866,10.670352   L 21.794541,10.670352   L 21.794541,10.637621   L 21.827217,10.637621   L 21.827217,9.9175357   L 22.546077,9.9175357   L 22.546077,9.8848045   L 22.578753,9.8848045   L 22.578753,9.8520734   L 22.611428,9.8520734   L 22.611428,9.6556865   L 22.578753,9.6556865   L 22.578753,9.6229554   L 22.546077,9.6229554   L 22.546077,9.5902242   L 21.827217,9.5902242   L 21.827217,8.9028703   L 21.794541,8.8701392   L 21.761866,8.8701392   L 21.761866,8.837408   L 21.565813,8.837408   L 21.565813,8.8701392   L 21.533137,8.8701392   L 21.500462,8.9028703   L 21.500462,9.5902242   L 20.879628,9.5902242   L 20.846952,9.5902242   z "
     id="path69" />
  <path
     style="fill:none;stroke:#bfbfbf;stroke-width:0.032675475px;stroke-linecap:round;stroke-linejoin:round;stroke-miterlimit:4;stroke-dasharray:none;stroke-opacity:1;"
     d="  M 20.716251,9.6884177   L 20.716251,9.8520734   L 20.748926,9.8848045   L 20.781602,9.8848045   L 20.781602,9.9175357   L 21.500462,9.9175357   L 21.500462,10.670352   L 21.533137,10.703083   L 21.565813,10.703083   L 21.565813,10.735814   L 21.663839,10.735814   L 21.696515,10.735814  "
     id="path71" />
  <path
     style="fill:none;stroke:#bfbfbf;stroke-width:0.032675475px;stroke-linecap:round;stroke-linejoin:round;stroke-miterlimit:4;stroke-dasharray:none;stroke-opacity:1;"
     d="  M 21.500462,8.9028703   L 21.500462,9.5574931   L 21.500462,9.5902242  "
     id="path73" />
  <ellipse
     style="fill:#bfbfbf;fill-rule:evenodd;fill-opacity:1;stroke:#000000;stroke-width:0.032675475px;stroke-linecap:round;stroke-linejoin:round;stroke-miterlimit:4;stroke-dasharray:none;stroke-opacity:1;"
     cx="134.60662"
     cy="9.6720521"
     rx="1.4213831"
     ry="1.4213831"
     id="ellipse75" />
  <ellipse
     style="fill:none;stroke:#000000;stroke-width:0.032675475px;stroke-linecap:round;stroke-linejoin:round;stroke-miterlimit:4;stroke-dasharray:none;stroke-opacity:1;"
     cx="134.60662"
     cy="9.6720521"
     rx="1.4213831"
     ry="1.4213831"
     id="ellipse77" />
  <ellipse
     style="fill:#666666;fill-rule:evenodd;fill-opacity:1;stroke:#000000;stroke-width:0.032675475px;stroke-linecap:round;stroke-linejoin:round;stroke-miterlimit:4;stroke-dasharray:none;stroke-opacity:1;"
     cx="134.60662"
     cy="9.6720521"
     rx="1.0619529"
     ry="1.0619529"
     id="ellipse79" />
  <ellipse
     style="fill:none;stroke:#000000;stroke-width:0.032675475px;stroke-linecap:round;stroke-linejoin:round;stroke-miterlimit:4;stroke-dasharray:none;stroke-opacity:1;"
     cx="134.60662"
     cy="9.6720521"
     rx="1.0619529"
     ry="1.0619529"
     id="ellipse81" />
  <ellipse
     style="fill:#dddddd;fill-rule:evenodd;fill-opacity:1;stroke:#000000;stroke-width:0.032675475px;stroke-linecap:round;stroke-linejoin:round;stroke-miterlimit:4;stroke-dasharray:none;stroke-opacity:1;"
     cx="134.60662"
     cy="9.6720521"
     rx="0.96392649"
     ry="0.96392649"
     id="ellipse83" />
  <ellipse
     style="fill:none;stroke:#dddddd;stroke-width:0.032675475px;stroke-linecap:round;stroke-linejoin:round;stroke-miterlimit:4;stroke-dasharray:none;stroke-opacity:1;"
     cx="134.60662"
     cy="9.6720521"
     rx="0.96392649"
     ry="0.96392649"
     id="ellipse85" />
  <path
     style="fill:#494949;fill-rule:evenodd;fill-opacity:1;stroke:#161616;stroke-width:0.032675475px;stroke-linecap:round;stroke-linejoin:round;stroke-miterlimit:4;stroke-dasharray:none;stroke-opacity:1;"
     d="  M 133.87142,9.5902242   L 133.83874,9.5902242   L 133.80607,9.6229554   L 133.80607,9.6556865   L 133.77339,9.6556865   L 133.77339,9.8520734   L 133.80607,9.8520734   L 133.80607,9.8848045   L 133.83874,9.9175357   L 134.52493,9.9175357   L 134.52493,10.637621   L 134.5576,10.637621   L 134.5576,10.670352   L 134.59028,10.670352   L 134.59028,10.703083   L 134.78633,10.703083   L 134.78633,10.670352   L 134.81901,10.670352   L 134.81901,10.637621   L 134.85168,10.637621   L 134.85168,9.9175357   L 135.57054,9.9175357   L 135.57054,9.8848045   L 135.60322,9.8848045   L 135.60322,9.8520734   L 135.63589,9.8520734   L 135.63589,9.6556865   L 135.60322,9.6556865   L 135.60322,9.6229554   L 135.57054,9.6229554   L 135.57054,9.5902242   L 134.85168,9.5902242   L 134.85168,8.9028703   L 134.81901,8.8701392   L 134.78633,8.8701392   L 134.78633,8.837408   L 134.59028,8.837408   L 134.59028,8.8701392   L 134.5576,8.8701392   L 134.52493,8.9028703   L 134.52493,9.5902242   L 133.90409,9.5902242   L 133.87142,9.5902242   z "
     id="path87" />
  <path
     style="fill:none;stroke:#bfbfbf;stroke-width:0.032675475px;stroke-linecap:round;stroke-linejoin:round;stroke-miterlimit:4;stroke-dasharray:none;stroke-opacity:1;"
     d="  M 133.74072,9.6884177   L 133.74072,9.8520734   L 133.77339,9.8848045   L 133.80607,9.8848045   L 133.80607,9.9175357   L 134.52493,9.9175357   L 134.52493,10.670352   L 134.5576,10.703083   L 134.59028,10.703083   L 134.59028,10.735814   L 134.6883,10.735814   L 134.72098,10.735814  "
     id="path89" />
  <path
     style="fill:none;stroke:#bfbfbf;stroke-width:0.032675475px;stroke-linecap:round;stroke-linejoin:round;stroke-miterlimit:4;stroke-dasharray:none;stroke-opacity:1;"
     d="  M 134.52493,8.9028703   L 134.52493,9.5574931   L 134.52493,9.5902242  "
     id="path91" />
  <ellipse
     style="fill:#666666;fill-rule:evenodd;fill-opacity:1;stroke:#000000;stroke-width:0.027054671px;stroke-linecap:round;stroke-linejoin:round;stroke-miterlimit:4;stroke-dasharray:none;stroke-opacity:1;"
     cx="11.362962"
     cy="13.250124"
     rx="0.86574946"
     ry="0.86574946"
     id="ellipse93" />
  <ellipse
     style="fill:none;stroke:#000000;stroke-width:0.027054671px;stroke-linecap:round;stroke-linejoin:round;stroke-miterlimit:4;stroke-dasharray:none;stroke-opacity:1;"
     cx="11.362962"
     cy="13.250124"
     rx="0.86574946"
     ry="0.86574946"
     id="ellipse95" />
  <ellipse
     style="fill:#7f7f7f;fill-rule:evenodd;fill-opacity:1;stroke:#000000;stroke-width:0.027054671px;stroke-linecap:round;stroke-linejoin:round;stroke-miterlimit:4;stroke-dasharray:none;stroke-opacity:1;"
     cx="11.362962"
     cy="13.250124"
     rx="0.78458545"
     ry="0.78458545"
     id="ellipse97" />
  <ellipse
     style="fill:none;stroke:#7f7f7f;stroke-width:0.027054671px;stroke-linecap:round;stroke-linejoin:round;stroke-miterlimit:4;stroke-dasharray:none;stroke-opacity:1;"
     cx="11.362962"
     cy="13.250124"
     rx="0.78458545"
     ry="0.78458545"
     id="ellipse99" />
  <path
     style="fill:#494949;fill-rule:evenodd;fill-opacity:1;stroke:#161616;stroke-width:0.027054671px;stroke-linecap:round;stroke-linejoin:round;stroke-miterlimit:4;stroke-dasharray:none;stroke-opacity:1;"
     d="  M 10.767759,13.195931   L 10.740704,13.195931   L 10.71365,13.223028   L 10.71365,13.250124   L 10.686595,13.250124   L 10.686595,13.412702   L 10.71365,13.412702   L 10.71365,13.439799   L 10.740704,13.466895   L 11.308852,13.466895   L 11.308852,14.063015   L 11.335907,14.063015   L 11.335907,14.090111   L 11.362962,14.090111   L 11.362962,14.117208   L 11.52529,14.117208   L 11.52529,14.090111   L 11.552344,14.090111   L 11.552344,14.063015   L 11.579399,14.063015   L 11.579399,13.466895   L 12.174602,13.466895   L 12.174602,13.439799   L 12.201656,13.439799   L 12.201656,13.412702   L 12.228711,13.412702   L 12.228711,13.250124   L 12.201656,13.250124   L 12.201656,13.223028   L 12.174602,13.223028   L 12.174602,13.195931   L 11.579399,13.195931   L 11.579399,12.626908   L 11.552344,12.599811   L 11.52529,12.599811   L 11.52529,12.572715   L 11.362962,12.572715   L 11.362962,12.599811   L 11.335907,12.599811   L 11.308852,12.626908   L 11.308852,13.195931   L 10.794814,13.195931   L 10.767759,13.195931   z "
     id="path101" />
  <path
     style="fill:none;stroke:#bfbfbf;stroke-width:0.027054671px;stroke-linecap:round;stroke-linejoin:round;stroke-miterlimit:4;stroke-dasharray:none;stroke-opacity:1;"
     d="  M 10.65954,13.27722   L 10.65954,13.412702   L 10.686595,13.439799   L 10.71365,13.439799   L 10.71365,13.466895   L 11.308852,13.466895   L 11.308852,14.090111   L 11.335907,14.117208   L 11.362962,14.117208   L 11.362962,14.144304   L 11.444126,14.144304   L 11.47118,14.144304  "
     id="path103" />
  <path
     style="fill:none;stroke:#bfbfbf;stroke-width:0.027054671px;stroke-linecap:round;stroke-linejoin:round;stroke-miterlimit:4;stroke-dasharray:none;stroke-opacity:1;"
     d="  M 11.308852,12.626908   L 11.308852,13.168835   L 11.308852,13.195931  "
     id="path105" />
  <ellipse
     style="fill:#161616;fill-rule:evenodd;fill-opacity:1;stroke:#000000;stroke-width:0.036205672px;stroke-linecap:round;stroke-linejoin:round;stroke-miterlimit:4;stroke-dasharray:none;stroke-opacity:1;"
     cx="141.12972"
     cy="8.7068618"
     rx="0.97755319"
     ry="0.97755319"
     id="ellipse107" />
  <ellipse
     style="fill:none;stroke:#0a0a0a;stroke-width:0.036205672px;stroke-linecap:round;stroke-linejoin:round;stroke-miterlimit:4;stroke-dasharray:none;stroke-opacity:1;"
     cx="141.12972"
     cy="8.7068618"
     rx="0.97755319"
     ry="0.97755319"
     id="ellipse109" />
  <ellipse
     style="fill:#00ff00;fill-rule:evenodd;fill-opacity:1;stroke:#000000;stroke-width:0.035962395px;stroke-linecap:round;stroke-linejoin:round;stroke-miterlimit:4;stroke-dasharray:none;stroke-opacity:1;"
     cx="141.11644"
     cy="8.6624115"
     rx="0.79117268"
     ry="0.77319148"
     id="ellipse111" />
  <ellipse
     style="fill:none;stroke:#000000;stroke-width:0.035962395px;stroke-linecap:round;stroke-linejoin:round;stroke-miterlimit:4;stroke-dasharray:none;stroke-opacity:1;"
     cx="141.11644"
     cy="8.6624115"
     rx="0.79117268"
     ry="0.77319148"
     id="ellipse113" />
  <ellipse
     style="fill:#161616;fill-rule:evenodd;fill-opacity:1;stroke:#000000;stroke-width:0.036205672px;stroke-linecap:round;stroke-linejoin:round;stroke-miterlimit:4;stroke-dasharray:none;stroke-opacity:1;"
     cx="141.12972"
     cy="4.5711025"
     rx="0.97755319"
     ry="0.97755319"
     id="ellipse115" />
  <ellipse
     style="fill:none;stroke:#0a0a0a;stroke-width:0.036205672px;stroke-linecap:round;stroke-linejoin:round;stroke-miterlimit:4;stroke-dasharray:none;stroke-opacity:1;"
     cx="141.12972"
     cy="4.5711025"
     rx="0.97755319"
     ry="0.97755319"
     id="ellipse117" />
  <ellipse
     style="fill:#00ff00;fill-rule:evenodd;fill-opacity:1;stroke:#000000;stroke-width:0.035962395px;stroke-linecap:round;stroke-linejoin:round;stroke-miterlimit:4;stroke-dasharray:none;stroke-opacity:1;"
     cx="141.11644"
     cy="4.5383112"
     rx="0.79117268"
     ry="0.79117268"
     id="ellipse119" />
  <ellipse
     style="fill:none;stroke:#000000;stroke-width:0.035962395px;stroke-linecap:round;stroke-linejoin:round;stroke-miterlimit:4;stroke-dasharray:none;stroke-opacity:1;"
     cx="141.11644"
     cy="4.5383112"
     rx="0.79117268"
     ry="0.79117268"
     id="ellipse121" />
  <text
     xml:space="preserve"
     style="font-size:1.187500px;font-style:normal;font-variant:normal;font-weight:400;font-stretch:Normal;line-height:372.888318%;letter-spacing:0px;word-spacing:0px;fill:#000000;fill-opacity:1;stroke:none;font-family:Arial;text-align:start;text-anchor:start;"
     transform="matrix(1.000000,-0.000000,0.000000,1.000000,139.267888,5.854031)"
     x="0.000000"
     y="0.865688"
     id="text131"><tspan
       x="0.000000"
       y="0.865688"
       id="tspan125"><tspan
         dx="0.000000"
         dy="0.000000"
         style="fill:#FFFFFF;font-size:1.187500px;font-style:normal;font-variant:normal;font-weight:400;font-stretch:Normal;font-family:Arial;"
         id="tspan123">PSU A</tspan></tspan><tspan
       x="0.000000"
       y="5.293736"
       id="tspan129"><tspan
         dx="0.000000"
         dy="0.000000"
         style="fill:#FFFFFF;font-size:1.187500px;font-style:normal;font-variant:normal;font-weight:400;font-stretch:Normal;font-family:Arial;"
         id="tspan127">PSU B</tspan></tspan></text>
  <path
     style="fill:#ffffff;fill-rule:evenodd;fill-opacity:1;stroke:#ffffff;stroke-width:0.019770721px;stroke-linecap:round;stroke-linejoin:round;stroke-miterlimit:4;stroke-dasharray:none;stroke-opacity:1;"
     d="  M 153.63759,2.5799384   M 155.49956,2.5799384   M 158.368,2.5799384   M 158.368,2.5799384   M 165.46361,4.1959437   M 146.54198,4.1959437   M 145.86838,4.907112   L 145.82884,4.907112   L 145.80907,4.8874835   L 145.7893,4.8874835   L 145.72998,4.8285982   L 145.72998,4.8089698   L 145.71021,4.7893413   L 145.71021,2.5124413   L 145.72998,2.4928129   L 145.72998,2.4731844   L 145.74975,2.453556   L 145.76953,2.453556   L 145.76953,2.4339276   L 145.7893,2.4142991   L 145.80907,2.4142991   L 145.82884,2.3946707   L 148.51766,2.3946707   L 148.53743,2.4142991   L 148.5572,2.4142991   L 148.61651,2.4731844   L 148.61651,2.4928129   L 148.63628,2.5124413   L 148.63628,2.9638956   L 148.61651,2.9638956   L 148.61651,2.9442672   L 148.59674,2.9442672   L 148.59674,2.9246388   L 148.57697,2.9246388   L 148.57697,2.9050103   L 148.53743,2.9050103   L 148.53743,2.8853819   L 146.36265,2.8853819   L 146.36265,2.9050103   L 146.32311,2.9050103   L 146.32311,2.9246388   L 146.30333,2.9246388   L 146.30333,2.9638956   L 146.28356,2.9638956   L 146.28356,4.8285982   L 146.30333,4.8285982   L 146.30333,4.8678551   L 146.32311,4.8678551   L 146.32311,4.8874835   L 146.34288,4.8874835   L 146.34288,4.907112   L 145.88815,4.907112   L 145.86838,4.907112   z "
     id="path133" />
  <path
     style="fill:#ffffff;fill-rule:evenodd;fill-opacity:1;stroke:#ffffff;stroke-width:0.019770721px;stroke-linecap:round;stroke-linejoin:round;stroke-miterlimit:4;stroke-dasharray:none;stroke-opacity:1;"
     d="  M 148.43857,3.4546068   L 146.48127,3.4546068   L 146.48127,3.4349784   L 146.44173,3.4349784   L 146.44173,3.41535   L 146.42196,3.41535   L 146.42196,3.3760931   L 146.40219,3.3760931   L 146.40219,3.8668043   L 146.42196,3.8668043   L 146.42196,3.9060611   L 146.44173,3.9060611   L 146.44173,3.9256896   L 146.48127,3.9256896   L 146.48127,3.945318   L 148.47811,3.945318   L 148.51766,3.9060611   L 148.53743,3.9060611   L 148.57697,3.8668043   L 148.57697,3.8471758   L 148.59674,3.8275474   L 148.59674,3.8079189   L 148.61651,3.7882905   L 148.61651,3.7490336   L 148.63628,3.7294051   L 148.63628,3.6705198   L 148.61651,3.6508913   L 148.61651,3.592006   L 148.57697,3.5527491   L 148.57697,3.5331206   L 148.5572,3.5134922   L 148.53743,3.5134922   L 148.53743,3.4938637   L 148.51766,3.4938637   L 148.49788,3.4742353   L 148.47811,3.4742353   L 148.45834,3.4546068   L 148.43857,3.4546068   z "
     id="path135" />
  <path
     style="fill:#ffffff;fill-rule:evenodd;fill-opacity:1;stroke:#ffffff;stroke-width:0.019770721px;stroke-linecap:round;stroke-linejoin:round;stroke-miterlimit:4;stroke-dasharray:none;stroke-opacity:1;"
     d="  M 153.00561,3.945318   L 152.96607,3.945318   L 152.96607,3.9256896   L 152.92653,3.9256896   L 152.92653,3.9060611   L 152.90676,3.9060611   L 152.90676,3.8668043   L 152.88698,3.8668043   L 152.88698,3.3760931   L 152.90676,3.3760931   L 152.90676,3.41535   L 152.92653,3.41535   L 152.92653,3.4349784   L 152.96607,3.4349784   L 152.96607,3.4546068   L 154.54773,3.4546068   L 154.54773,2.8853819   L 152.84744,2.8853819   L 152.84744,2.9050103   L 152.8079,2.9050103   L 152.8079,2.9246388   L 152.78813,2.9246388   L 152.78813,2.9638956   L 152.76836,2.9638956   L 152.76836,4.8285982   L 152.78813,4.8285982   L 152.78813,4.8678551   L 152.8079,4.8678551   L 152.8079,4.8874835   L 152.82767,4.8874835   L 152.82767,4.907112   L 152.31363,4.907112   L 152.29386,4.8874835   L 152.27409,4.8874835   L 152.21478,4.8285982   L 152.21478,4.8089698   L 152.19501,4.7893413   L 152.19501,2.5124413   L 152.21478,2.4928129   L 152.21478,2.4731844   L 152.23455,2.453556   L 152.25432,2.453556   L 152.25432,2.4339276   L 152.27409,2.4142991   L 152.29386,2.4142991   L 152.31363,2.3946707   L 155.00245,2.3946707   L 155.02222,2.4142991   L 155.04199,2.4142991   L 155.10131,2.4731844   L 155.10131,2.4928129   L 155.12108,2.5124413   L 155.12108,3.7490336   L 155.10131,3.768662   L 155.10131,3.8079189   L 155.08153,3.8079189   L 155.08153,3.8275474   L 155.06176,3.8471758   L 155.06176,3.8668043   L 155.04199,3.8668043   L 155.04199,3.8864327   L 155.02222,3.8864327   L 155.02222,3.9060611   L 155.00245,3.9060611   L 155.00245,3.9256896   L 154.98268,3.9256896   L 154.96291,3.945318   L 154.98268,3.9649465   L 155.00245,3.9649465   L 155.00245,3.9845749   L 155.02222,3.9845749   L 155.02222,4.0042034   L 155.04199,4.0042034   L 155.04199,4.0238318   L 155.06176,4.0238318   L 155.06176,4.0434603   L 155.08153,4.0630887   L 155.08153,4.0827172   L 155.10131,4.0827172   L 155.10131,4.1219741   L 155.12108,4.1416025   L 155.12108,4.8285982   L 155.14085,4.8285982   L 155.14085,4.8678551   L 155.16062,4.8678551   L 155.16062,4.8874835   L 155.18039,4.8874835   L 155.18039,4.907112   L 154.66635,4.907112   L 154.64658,4.8874835   L 154.62681,4.8874835   L 154.5675,4.8285982   L 154.5675,4.8089698   L 154.54773,4.7893413   L 154.54773,3.945318   L 153.02538,3.945318   L 153.00561,3.945318   z "
     id="path137" />
  <path
     style="fill:#ffffff;fill-rule:evenodd;fill-opacity:1;stroke:#ffffff;stroke-width:0.019770721px;stroke-linecap:round;stroke-linejoin:round;stroke-miterlimit:4;stroke-dasharray:none;stroke-opacity:1;"
     d="  M 156.14915,2.8853819   L 155.55603,2.8853819   L 155.53626,2.8657534   L 155.51649,2.8657534   L 155.45718,2.8068681   L 155.45718,2.7872396   L 155.43741,2.7676112   L 155.43741,2.5124413   L 155.45718,2.4928129   L 155.45718,2.4731844   L 155.47695,2.453556   L 155.49672,2.453556   L 155.49672,2.4339276   L 155.51649,2.4142991   L 155.53626,2.4142991   L 155.55603,2.3946707   L 158.24485,2.3946707   L 158.26462,2.4142991   L 158.28439,2.4142991   L 158.3437,2.4731844   L 158.3437,2.4928129   L 158.36347,2.5124413   L 158.36347,2.9638956   L 158.3437,2.9638956   L 158.3437,2.9442672   L 158.32393,2.9442672   L 158.32393,2.9246388   L 158.30416,2.9246388   L 158.30416,2.9050103   L 158.26462,2.9050103   L 158.26462,2.8853819   L 156.80159,2.8853819   L 156.80159,2.9050103   L 156.76205,2.9050103   L 156.76205,2.9246388   L 156.74228,2.9246388   L 156.74228,2.9638956   L 156.7225,2.9638956   L 156.7225,4.8285982   L 156.74228,4.8285982   L 156.74228,4.8678551   L 156.76205,4.8678551   L 156.76205,4.8874835   L 156.78182,4.8874835   L 156.78182,4.907112   L 156.26778,4.907112   L 156.24801,4.8874835   L 156.22824,4.8874835   L 156.16892,4.8285982   L 156.16892,4.8089698   L 156.14915,4.7893413   L 156.14915,2.9442672   L 156.14915,2.8853819   z "
     id="path139" />
  <path
     style="fill:#ffffff;fill-rule:evenodd;fill-opacity:1;stroke:#ffffff;stroke-width:0.019770721px;stroke-linecap:round;stroke-linejoin:round;stroke-miterlimit:4;stroke-dasharray:none;stroke-opacity:1;"
     d="  M 159.25316,4.7697129   L 159.25316,4.8285982   L 159.27293,4.8285982   L 159.27293,4.8678551   L 159.2927,4.8678551   L 159.2927,4.8874835   L 159.31247,4.8874835   L 159.31247,4.907112   L 158.79843,4.907112   L 158.77866,4.8874835   L 158.75889,4.8874835   L 158.69958,4.8285982   L 158.69958,4.8089698   L 158.67981,4.7893413   L 158.67981,2.4731844   L 158.66004,2.4731844   L 158.66004,2.4339276   L 158.64026,2.4339276   L 158.64026,2.4142991   L 158.62049,2.4142991   L 158.62049,2.3946707   L 159.13453,2.3946707   L 159.1543,2.4142991   L 159.17407,2.4142991   L 159.23339,2.4731844   L 159.23339,2.4928129   L 159.25316,2.5124413   L 159.25316,4.7500844   L 159.25316,4.7697129   z "
     id="path141" />
  <path
     style="fill:#ffffff;fill-rule:evenodd;fill-opacity:1;stroke:#ffffff;stroke-width:0.019770721px;stroke-linecap:round;stroke-linejoin:round;stroke-miterlimit:4;stroke-dasharray:none;stroke-opacity:1;"
     d="  M 162.0606,2.8853819   L 160.36032,2.8853819   L 160.36032,2.9050103   L 160.32078,2.9050103   L 160.32078,2.9246388   L 160.30101,2.9246388   L 160.30101,2.9638956   L 160.28123,2.9638956   L 160.28123,4.8285982   L 160.30101,4.8285982   L 160.30101,4.8678551   L 160.32078,4.8678551   L 160.32078,4.8874835   L 160.34055,4.8874835   L 160.34055,4.907112   L 159.82651,4.907112   L 159.80674,4.8874835   L 159.78697,4.8874835   L 159.72765,4.8285982   L 159.72765,4.8089698   L 159.70788,4.7893413   L 159.70788,2.5124413   L 159.72765,2.4928129   L 159.72765,2.4731844   L 159.74743,2.453556   L 159.7672,2.453556   L 159.7672,2.4339276   L 159.78697,2.4142991   L 159.80674,2.4142991   L 159.82651,2.3946707   L 162.51533,2.3946707   L 162.5351,2.4142991   L 162.55487,2.4142991   L 162.61418,2.4731844   L 162.61418,2.4928129   L 162.63395,2.5124413   L 162.63395,4.8285982   L 162.65372,4.8285982   L 162.65372,4.8678551   L 162.67349,4.8678551   L 162.67349,4.8874835   L 162.69326,4.8874835   L 162.69326,4.907112   L 162.17922,4.907112   L 162.15945,4.8874835   L 162.13968,4.8874835   L 162.08037,4.8285982   L 162.08037,4.8089698   L 162.0606,4.7893413   L 162.0606,2.9442672   L 162.0606,2.8853819   z "
     id="path143" />
  <path
     style="fill:#ffffff;fill-rule:evenodd;fill-opacity:1;stroke:#ffffff;stroke-width:0.019770721px;stroke-linecap:round;stroke-linejoin:round;stroke-miterlimit:4;stroke-dasharray:none;stroke-opacity:1;"
     d="  M 165.54025,3.4546068   L 163.72134,3.4546068   L 163.70157,3.4349784   L 163.6818,3.4349784   L 163.6818,3.41535   L 163.66203,3.41535   L 163.66203,3.3760931   L 163.64226,3.3760931   L 163.64226,3.8668043   L 163.66203,3.8668043   L 163.66203,3.9060611   L 163.6818,3.9060611   L 163.6818,3.9256896   L 163.70157,3.9256896   L 163.72134,3.945318   L 165.56002,3.945318   L 165.59956,3.9060611   L 165.61933,3.9060611   L 165.65887,3.8668043   L 165.65887,3.8471758   L 165.67864,3.8275474   L 165.67864,3.8079189   L 165.69841,3.7882905   L 165.69841,3.7490336   L 165.71818,3.7294051   L 165.71818,3.6508913   L 165.69841,3.6312629   L 165.69841,3.5723775   L 165.67864,3.5723775   L 165.67864,3.5527491   L 165.61933,3.4938637   L 165.59956,3.4938637   L 165.59956,3.4742353   L 165.57979,3.4742353   L 165.56002,3.4546068   L 165.54025,3.4546068   z "
     id="path145" />
  <path
     style="fill:#ffffff;fill-rule:evenodd;fill-opacity:1;stroke:#ffffff;stroke-width:0.019770721px;stroke-linecap:round;stroke-linejoin:round;stroke-miterlimit:4;stroke-dasharray:none;stroke-opacity:1;"
     d="  M 166.90443,2.8853819   L 166.3113,2.8853819   L 166.29153,2.8657534   L 166.27176,2.8657534   L 166.21245,2.8068681   L 166.21245,2.7872396   L 166.19268,2.7676112   L 166.19268,2.5124413   L 166.21245,2.4928129   L 166.21245,2.4731844   L 166.23222,2.453556   L 166.25199,2.453556   L 166.25199,2.4339276   L 166.27176,2.4142991   L 166.29153,2.4142991   L 166.3113,2.3946707   L 169.00012,2.3946707   L 169.01989,2.4142991   L 169.03966,2.4142991   L 169.09898,2.4731844   L 169.09898,2.4928129   L 169.11875,2.5124413   L 169.11875,2.9638956   L 169.09898,2.9638956   L 169.09898,2.9442672   L 169.07921,2.9442672   L 169.07921,2.9246388   L 169.05943,2.9246388   L 169.05943,2.9050103   L 169.01989,2.9050103   L 169.01989,2.8853819   L 167.55686,2.8853819   L 167.55686,2.9050103   L 167.51732,2.9050103   L 167.51732,2.9246388   L 167.49755,2.9246388   L 167.49755,2.9638956   L 167.47778,2.9638956   L 167.47778,4.8285982   L 167.49755,4.8285982   L 167.49755,4.8678551   L 167.51732,4.8678551   L 167.51732,4.8874835   L 167.53709,4.8874835   L 167.53709,4.907112   L 167.02305,4.907112   L 167.00328,4.8874835   L 166.98351,4.8874835   L 166.9242,4.8285982   L 166.9242,4.8089698   L 166.90443,4.7893413   L 166.90443,2.9442672   L 166.90443,2.8853819   z "
     id="path147" />
  <path
     style="fill:#ffffff;fill-rule:evenodd;fill-opacity:1;stroke:#ffffff;stroke-width:0.019770721px;stroke-linecap:round;stroke-linejoin:round;stroke-miterlimit:4;stroke-dasharray:none;stroke-opacity:1;"
     d="  M 165.73795,4.4164008   L 165.77749,4.4164008   L 165.77749,4.3967723   L 165.81704,4.3967723   L 165.81704,4.3771439   L 165.83681,4.3771439   L 165.83681,4.3575155   L 165.85658,4.3575155   L 165.85658,4.337887   L 165.87635,4.337887   L 165.87635,4.7893413   L 165.85658,4.8089698   L 165.85658,4.8285982   L 165.83681,4.8482267   L 165.83681,4.8678551   L 165.81704,4.8678551   L 165.79727,4.8874835   L 165.77749,4.8874835   L 165.75772,4.907112   L 163.06891,4.907112   L 163.04914,4.8874835   L 163.02936,4.8874835   L 162.97005,4.8285982   L 162.97005,4.8089698   L 162.95028,4.7893413   L 162.95028,2.5124413   L 162.97005,2.4928129   L 162.97005,2.4731844   L 162.98982,2.453556   L 163.00959,2.453556   L 163.00959,2.4339276   L 163.02936,2.4142991   L 163.04914,2.4142991   L 163.06891,2.3946707   L 165.75772,2.3946707   L 165.77749,2.4142991   L 165.79727,2.4142991   L 165.85658,2.4731844   L 165.85658,2.4928129   L 165.87635,2.5124413   L 165.87635,2.9638956   L 165.85658,2.9638956   L 165.85658,2.9442672   L 165.83681,2.9442672   L 165.83681,2.9246388   L 165.81704,2.9246388   L 165.81704,2.9050103   L 165.77749,2.9050103   L 165.77749,2.8853819   L 163.60272,2.8853819   L 163.60272,2.9050103   L 163.56317,2.9050103   L 163.56317,2.9246388   L 163.5434,2.9246388   L 163.5434,2.9638956   L 163.52363,2.9638956   L 163.52363,4.4164008   L 165.71818,4.4164008   L 165.73795,4.4164008   z "
     id="path149" />
  <path
     style="fill:#ed3440;fill-rule:evenodd;fill-opacity:1;stroke:#ed3440;stroke-width:0.019770721px;stroke-linecap:round;stroke-linejoin:round;stroke-miterlimit:4;stroke-dasharray:none;stroke-opacity:1;"
     d="  M 149.94115,4.1808594   L 149.94115,4.907112   L 150.89014,4.907112   L 150.89014,4.1808594   L 149.94115,4.1808594   z "
     id="path151" />
  <path
     style="fill:#ed3440;fill-rule:evenodd;fill-opacity:1;stroke:#ed3440;stroke-width:0.019770721px;stroke-linecap:round;stroke-linejoin:round;stroke-miterlimit:4;stroke-dasharray:none;stroke-opacity:1;"
     d="  M 148.95261,3.2975793   L 149.76321,3.2975793   L 149.76321,4.0042034   L 148.95261,4.0042034   L 148.95261,3.2975793   z "
     id="path153" />
  <path
     style="fill:#ed3440;fill-rule:evenodd;fill-opacity:1;stroke:#ed3440;stroke-width:0.019770721px;stroke-linecap:round;stroke-linejoin:round;stroke-miterlimit:4;stroke-dasharray:none;stroke-opacity:1;"
     d="  M 151.06808,4.1808594   L 151.06808,4.907112   L 151.36464,4.907112   L 151.38441,4.8874835   L 151.46349,4.8874835   L 151.48326,4.8678551   L 151.52281,4.8678551   L 151.56235,4.8482267   L 151.58212,4.8285982   L 151.62166,4.8089698   L 151.6612,4.7697129   L 151.70074,4.7500844   L 151.72051,4.730456   L 151.74028,4.6911991   L 151.76005,4.6715706   L 151.83914,4.514543   L 151.83914,4.4752861   L 151.85891,4.4164008   L 151.85891,4.3575155   L 151.87868,4.2986301   L 151.87868,4.1808594   L 151.08785,4.1808594   L 151.06808,4.1808594   z "
     id="path155" />
  <path
     style="fill:#ed3440;fill-rule:evenodd;fill-opacity:1;stroke:#ed3440;stroke-width:0.019770721px;stroke-linecap:round;stroke-linejoin:round;stroke-miterlimit:4;stroke-dasharray:none;stroke-opacity:1;"
     d="  M 151.06808,3.2975793   L 151.87868,3.2975793   L 151.87868,4.0042034   L 151.06808,4.0042034   L 151.06808,3.2975793   z "
     id="path157" />
  <path
     style="fill:#ed3440;fill-rule:evenodd;fill-opacity:1;stroke:#ed3440;stroke-width:0.019770721px;stroke-linecap:round;stroke-linejoin:round;stroke-miterlimit:4;stroke-dasharray:none;stroke-opacity:1;"
     d="  M 149.76321,4.1808594   L 149.76321,4.907112   L 149.46665,4.907112   L 149.44688,4.8874835   L 149.3678,4.8874835   L 149.34803,4.8678551   L 149.30848,4.8678551   L 149.26894,4.8482267   L 149.24917,4.8285982   L 149.20963,4.8089698   L 149.17009,4.7697129   L 149.13055,4.7500844   L 149.11078,4.730456   L 149.09101,4.6911991   L 149.07124,4.6715706   L 148.99215,4.514543   L 148.99215,4.4752861   L 148.97238,4.4164008   L 148.97238,4.3575155   L 148.95261,4.2986301   L 148.95261,4.1808594   L 149.74344,4.1808594   L 149.76321,4.1808594   z "
     id="path159" />
  <path
     style="fill:#ed3440;fill-rule:evenodd;fill-opacity:1;stroke:#ed3440;stroke-width:0.019770721px;stroke-linecap:round;stroke-linejoin:round;stroke-miterlimit:4;stroke-dasharray:none;stroke-opacity:1;"
     d="  M 149.94115,2.3946707   L 149.94115,3.1209232   L 150.89014,3.1209232   L 150.89014,2.3946707   L 149.94115,2.3946707   z "
     id="path161" />
  <path
     style="fill:#ed3440;fill-rule:evenodd;fill-opacity:1;stroke:#ed3440;stroke-width:0.019770721px;stroke-linecap:round;stroke-linejoin:round;stroke-miterlimit:4;stroke-dasharray:none;stroke-opacity:1;"
     d="  M 151.06808,3.1209232   L 151.06808,2.3946707   L 151.36464,2.3946707   L 151.38441,2.4142991   L 151.46349,2.4142991   L 151.48326,2.4339276   L 151.52281,2.4339276   L 151.56235,2.453556   L 151.58212,2.4731844   L 151.62166,2.4928129   L 151.6612,2.5320698   L 151.70074,2.5516982   L 151.72051,2.5713267   L 151.74028,2.6105836   L 151.76005,2.630212   L 151.83914,2.7872396   L 151.83914,2.8264965   L 151.85891,2.8853819   L 151.85891,2.9442672   L 151.87868,3.0031525   L 151.87868,3.1209232   L 151.08785,3.1209232   L 151.06808,3.1209232   z "
     id="path163" />
  <path
     style="fill:#ed3440;fill-rule:evenodd;fill-opacity:1;stroke:#ed3440;stroke-width:0.019770721px;stroke-linecap:round;stroke-linejoin:round;stroke-miterlimit:4;stroke-dasharray:none;stroke-opacity:1;"
     d="  M 149.76321,3.1209232   L 149.76321,2.3946707   L 149.46665,2.3946707   L 149.44688,2.4142991   L 149.3678,2.4142991   L 149.34803,2.4339276   L 149.30848,2.4339276   L 149.26894,2.453556   L 149.24917,2.4731844   L 149.20963,2.4928129   L 149.17009,2.5320698   L 149.13055,2.5516982   L 149.11078,2.5713267   L 149.09101,2.6105836   L 149.07124,2.630212   L 148.99215,2.7872396   L 148.99215,2.8264965   L 148.97238,2.8853819   L 148.97238,2.9442672   L 148.95261,3.0031525   L 148.95261,3.1209232   L 149.74344,3.1209232   L 149.76321,3.1209232   z "
     id="path165" />
  <text
     xml:space="preserve"
     style="font-size:1.125000px;font-style:normal;font-variant:normal;font-weight:400;font-stretch:Condensed;line-height:125.000000%;letter-spacing:0px;word-spacing:0px;fill:#000000;fill-opacity:1;stroke:none;font-family:Times New Roman;text-align:start;text-anchor:start;"
     transform="matrix(1.000000,-0.000000,0.000000,1.000000,167.957737,5.283638)"
     x="0.000000"
     y="0.000000"
     id="text171"><tspan
       x="0.000000"
       y="0.000000"
       id="tspan169"><tspan
         dx="0.000000"
         dy="0.000000"
         style="fill:#FFFFFF;font-size:1.125000px;font-style:normal;font-variant:normal;font-weight:400;font-stretch:Condensed;font-family:Times New Roman;"
         id="tspan167">™</tspan></tspan></text>
  <path
     style="fill:#ffffff;fill-rule:evenodd;fill-opacity:1;stroke:#ffffff;stroke-width:0.016796172px;stroke-linecap:round;stroke-linejoin:round;stroke-miterlimit:4;stroke-dasharray:none;stroke-opacity:1;"
     d="  M 148.45368,45.451337   M 150.10714,45.451337   M 152.65436,45.451337   M 152.65436,45.451337   M 158.95537,47.115259   M 142.15267,47.115259   M 145.00134,47.515562   L 144.96775,47.515562   L 144.96775,47.498725   L 144.95095,47.498725   L 144.93416,47.481887   L 144.91736,47.481887   L 144.91736,47.448212   L 144.90057,47.431374   L 144.90057,45.612919   L 144.91736,45.596082   L 144.91736,45.562407   L 144.93416,45.562407   L 144.95095,45.545569   L 144.96775,45.545569   L 144.96775,45.528731   L 147.11766,45.528731   L 147.11766,45.545569   L 147.13446,45.545569   L 147.15125,45.562407   L 147.16805,45.562407   L 147.16805,45.596082   L 147.18485,45.612919   L 147.18485,45.966508   L 147.16805,45.966508   L 147.16805,45.932833   L 147.15125,45.932833   L 147.15125,45.915995   L 147.13446,45.915995   L 147.11766,45.899158   L 145.40445,45.899158   L 145.38766,45.915995   L 145.37086,45.915995   L 145.37086,45.932833   L 145.35406,45.932833   L 145.35406,45.966508   L 145.33727,45.983345   L 145.33727,47.448212   L 145.35406,47.46505   L 145.35406,47.481887   L 145.37086,47.481887   L 145.37086,47.498725   L 145.38766,47.498725   L 145.38766,47.515562   L 145.01814,47.515562   L 145.00134,47.515562   z "
     id="path173" />
  <path
     style="fill:#ffffff;fill-rule:evenodd;fill-opacity:1;stroke:#ffffff;stroke-width:0.016796172px;stroke-linecap:round;stroke-linejoin:round;stroke-miterlimit:4;stroke-dasharray:none;stroke-opacity:1;"
     d="  M 147.05048,46.370609   L 145.50523,46.370609   L 145.50523,46.353771   L 145.47164,46.353771   L 145.47164,46.336934   L 145.45484,46.336934   L 145.45484,46.303259   L 145.43804,46.303259   L 145.43804,46.690522   L 145.45484,46.690522   L 145.45484,46.724197   L 145.47164,46.724197   L 145.47164,46.741035   L 145.50523,46.741035   L 145.50523,46.757872   L 147.08407,46.757872   L 147.10086,46.741035   L 147.11766,46.741035   L 147.13446,46.724197   L 147.13446,46.70736   L 147.18485,46.656847   L 147.18485,46.623172   L 147.20164,46.606335   L 147.20164,46.505309   L 147.18485,46.488472   L 147.18485,46.471634   L 147.16805,46.454797   L 147.16805,46.437959   L 147.15125,46.421122   L 147.13446,46.421122   L 147.13446,46.404284   L 147.11766,46.404284   L 147.10086,46.387446   L 147.08407,46.387446   L 147.06727,46.370609   L 147.05048,46.370609   z "
     id="path175" />
  <path
     style="fill:#ffffff;fill-rule:evenodd;fill-opacity:1;stroke:#ffffff;stroke-width:0.016796172px;stroke-linecap:round;stroke-linejoin:round;stroke-miterlimit:4;stroke-dasharray:none;stroke-opacity:1;"
     d="  M 149.85544,46.943086   L 149.83864,46.943086   L 149.80505,46.90941   L 149.80505,46.892573   L 149.78825,46.892573   L 149.78825,46.606335   L 149.80505,46.606335   L 149.80505,46.623172   L 149.82184,46.623172   L 149.82184,46.64001   L 150.77923,46.64001   L 150.77923,46.303259   L 149.75466,46.303259   L 149.75466,46.320096   L 149.73786,46.320096   L 149.73786,46.336934   L 149.72107,46.336934   L 149.72107,47.481887   L 149.73786,47.481887   L 149.73786,47.498725   L 149.75466,47.498725   L 149.75466,47.515562   L 149.43553,47.515562   L 149.43553,47.498725   L 149.40194,47.498725   L 149.40194,47.481887   L 149.38514,47.481887   L 149.38514,47.448212   L 149.36835,47.448212   L 149.36835,46.067533   L 149.38514,46.067533   L 149.38514,46.033858   L 149.40194,46.033858   L 149.40194,46.01702   L 149.43553,46.01702   L 149.43553,46.000183   L 151.06476,46.000183   L 151.06476,46.01702   L 151.09835,46.01702   L 151.09835,46.033858   L 151.11515,46.033858   L 151.11515,46.067533   L 151.13195,46.067533   L 151.13195,46.825223   L 151.11515,46.825223   L 151.11515,46.858898   L 151.09835,46.858898   L 151.09835,46.875735   L 151.08156,46.875735   L 151.08156,46.892573   L 151.03117,46.943086   L 151.04796,46.943086   L 151.04796,46.959923   L 151.06476,46.959923   L 151.06476,46.976761   L 151.08156,46.976761   L 151.08156,46.993598   L 151.09835,46.993598   L 151.09835,47.010436   L 151.11515,47.010436   L 151.11515,47.044111   L 151.13195,47.044111   L 151.13195,47.481887   L 151.14874,47.481887   L 151.14874,47.498725   L 151.16554,47.498725   L 151.16554,47.515562   L 150.84641,47.515562   L 150.84641,47.498725   L 150.81282,47.498725   L 150.81282,47.481887   L 150.79602,47.481887   L 150.79602,47.448212   L 150.77923,47.448212   L 150.77923,46.943086   L 149.87223,46.943086   L 149.85544,46.943086   z "
     id="path177" />
  <path
     style="fill:#ffffff;fill-rule:evenodd;fill-opacity:1;stroke:#ffffff;stroke-width:0.016796172px;stroke-linecap:round;stroke-linejoin:round;stroke-miterlimit:4;stroke-dasharray:none;stroke-opacity:1;"
     d="  M 151.73661,46.303259   L 151.38389,46.303259   L 151.38389,46.286421   L 151.3503,46.286421   L 151.3503,46.269584   L 151.3335,46.269584   L 151.3335,46.235908   L 151.3167,46.235908   L 151.3167,46.067533   L 151.3335,46.067533   L 151.3335,46.033858   L 151.3503,46.033858   L 151.3503,46.01702   L 151.38389,46.01702   L 151.38389,46.000183   L 152.99632,46.000183   L 152.99632,46.01702   L 153.02991,46.01702   L 153.02991,46.033858   L 153.04671,46.033858   L 153.04671,46.067533   L 153.06351,46.067533   L 153.06351,46.353771   L 153.02991,46.320096   L 153.01312,46.320096   L 153.01312,46.303259   L 152.12292,46.303259   L 152.12292,46.320096   L 152.10612,46.320096   L 152.10612,46.336934   L 152.08933,46.336934   L 152.08933,47.481887   L 152.10612,47.481887   L 152.10612,47.498725   L 152.12292,47.498725   L 152.12292,47.515562   L 151.80379,47.515562   L 151.80379,47.498725   L 151.7702,47.498725   L 151.7702,47.481887   L 151.7534,47.481887   L 151.7534,47.448212   L 151.73661,47.448212   L 151.73661,46.336934   L 151.73661,46.303259   z "
     id="path179" />
  <path
     style="fill:#ffffff;fill-rule:evenodd;fill-opacity:1;stroke:#ffffff;stroke-width:0.016796172px;stroke-linecap:round;stroke-linejoin:round;stroke-miterlimit:4;stroke-dasharray:none;stroke-opacity:1;"
     d="  M 153.60098,47.431374   L 153.60098,47.481887   L 153.61778,47.481887   L 153.61778,47.498725   L 153.63458,47.498725   L 153.63458,47.515562   L 153.31545,47.515562   L 153.31545,47.498725   L 153.28186,47.498725   L 153.28186,47.481887   L 153.26506,47.481887   L 153.26506,47.448212   L 153.24826,47.448212   L 153.24826,46.033858   L 153.23147,46.033858   L 153.23147,46.01702   L 153.21467,46.01702   L 153.21467,46.000183   L 153.5338,46.000183   L 153.5338,46.01702   L 153.56739,46.01702   L 153.56739,46.033858   L 153.58419,46.033858   L 153.58419,46.067533   L 153.60098,46.067533   L 153.60098,47.414537   L 153.60098,47.431374   z "
     id="path181" />
  <path
     style="fill:#ffffff;fill-rule:evenodd;fill-opacity:1;stroke:#ffffff;stroke-width:0.016796172px;stroke-linecap:round;stroke-linejoin:round;stroke-miterlimit:4;stroke-dasharray:none;stroke-opacity:1;"
     d="  M 147.75592,46.370609   L 147.75592,46.336934   L 147.77271,46.336934   L 147.77271,46.320096   L 147.8063,46.320096   L 147.8063,46.303259   L 148.83087,46.303259   L 148.83087,47.178811   L 148.81407,47.178811   L 148.81407,47.195649   L 148.78048,47.195649   L 148.78048,47.212486   L 147.47038,47.212486   L 147.47038,47.195649   L 147.45358,47.195649   L 147.43679,47.178811   L 147.43679,47.161974   L 147.41999,47.161974   L 147.41999,47.448212   L 147.43679,47.448212   L 147.43679,47.481887   L 147.45358,47.481887   L 147.45358,47.498725   L 147.48718,47.498725   L 147.48718,47.515562   L 149.09961,47.515562   L 149.09961,47.498725   L 149.1332,47.498725   L 149.1332,47.481887   L 149.15,47.481887   L 149.15,47.448212   L 149.16679,47.448212   L 149.16679,46.067533   L 149.15,46.067533   L 149.15,46.033858   L 149.1332,46.033858   L 149.1332,46.01702   L 149.09961,46.01702   L 149.09961,46.000183   L 147.48718,46.000183   L 147.48718,46.01702   L 147.45358,46.01702   L 147.45358,46.033858   L 147.43679,46.033858   L 147.43679,46.067533   L 147.41999,46.067533   L 147.41999,47.060948   L 147.43679,47.060948   L 147.43679,47.094623   L 147.45358,47.094623   L 147.45358,47.111461   L 147.48718,47.111461   L 147.48718,47.128299   L 147.75592,47.128299   L 147.75592,46.387446   L 147.75592,46.370609   z "
     id="path183" />
  <path
     style="fill:#ffffff;fill-rule:evenodd;fill-opacity:1;stroke:#ffffff;stroke-width:0.016796172px;stroke-linecap:round;stroke-linejoin:round;stroke-miterlimit:4;stroke-dasharray:none;stroke-opacity:1;"
     d="  M 162.06625,46.64001   L 160.95771,46.64001   L 160.95771,46.623172   L 160.94091,46.623172   L 160.94091,46.589497   L 160.92411,46.589497   L 160.92411,46.892573   L 160.94091,46.892573   L 160.94091,46.90941   L 160.95771,46.90941   L 160.95771,46.926248   L 162.08305,46.926248   L 162.08305,46.90941   L 162.09985,46.892573   L 162.11664,46.892573   L 162.11664,46.875735   L 162.13344,46.875735   L 162.13344,46.858898   L 162.15023,46.84206   L 162.15023,46.791548   L 162.16703,46.791548   L 162.16703,46.757872   L 162.15023,46.741035   L 162.15023,46.70736   L 162.13344,46.690522   L 162.13344,46.673685   L 162.11664,46.673685   L 162.11664,46.656847   L 162.09985,46.656847   L 162.08305,46.64001   L 162.06625,46.64001   z "
     id="path185" />
  <path
     style="fill:#ffffff;fill-rule:evenodd;fill-opacity:1;stroke:#ffffff;stroke-width:0.016796172px;stroke-linecap:round;stroke-linejoin:round;stroke-miterlimit:4;stroke-dasharray:none;stroke-opacity:1;"
     d="  M 162.15023,47.212486   L 162.18383,47.212486   L 162.18383,47.195649   L 162.20062,47.195649   L 162.23421,47.161974   L 162.23421,47.448212   L 162.21742,47.448212   L 162.21742,47.481887   L 162.20062,47.481887   L 162.20062,47.498725   L 162.16703,47.498725   L 162.16703,47.515562   L 160.5546,47.515562   L 160.5546,47.498725   L 160.52101,47.498725   L 160.52101,47.481887   L 160.50421,47.481887   L 160.50421,47.448212   L 160.48741,47.448212   L 160.48741,46.067533   L 160.50421,46.067533   L 160.50421,46.033858   L 160.52101,46.033858   L 160.52101,46.01702   L 160.5546,46.01702   L 160.5546,46.000183   L 162.16703,46.000183   L 162.16703,46.01702   L 162.20062,46.01702   L 162.20062,46.033858   L 162.21742,46.033858   L 162.21742,46.067533   L 162.23421,46.067533   L 162.23421,46.353771   L 162.20062,46.320096   L 162.18383,46.320096   L 162.18383,46.303259   L 160.87372,46.303259   L 160.87372,46.320096   L 160.84013,46.320096   L 160.84013,46.336934   L 160.82334,46.336934   L 160.82334,47.212486   L 162.13344,47.212486   L 162.15023,47.212486   z "
     id="path187" />
  <path
     style="fill:#ffffff;fill-rule:evenodd;fill-opacity:1;stroke:#ffffff;stroke-width:0.016796172px;stroke-linecap:round;stroke-linejoin:round;stroke-miterlimit:4;stroke-dasharray:none;stroke-opacity:1;"
     d="  M 158.97576,46.303259   L 158.62304,46.303259   L 158.62304,46.286421   L 158.58945,46.286421   L 158.58945,46.269584   L 158.57265,46.269584   L 158.57265,46.235908   L 158.55585,46.235908   L 158.55585,46.067533   L 158.57265,46.067533   L 158.57265,46.033858   L 158.58945,46.033858   L 158.58945,46.01702   L 158.62304,46.01702   L 158.62304,46.000183   L 160.23547,46.000183   L 160.23547,46.01702   L 160.26906,46.01702   L 160.26906,46.033858   L 160.28586,46.033858   L 160.28586,46.067533   L 160.30265,46.067533   L 160.30265,46.353771   L 160.26906,46.320096   L 160.25227,46.320096   L 160.25227,46.303259   L 159.36207,46.303259   L 159.36207,46.320096   L 159.34527,46.320096   L 159.34527,46.336934   L 159.32848,46.336934   L 159.32848,47.481887   L 159.34527,47.481887   L 159.34527,47.498725   L 159.36207,47.498725   L 159.36207,47.515562   L 159.04294,47.515562   L 159.04294,47.498725   L 159.00935,47.498725   L 159.00935,47.481887   L 158.99255,47.481887   L 158.99255,47.448212   L 158.97576,47.448212   L 158.97576,46.336934   L 158.97576,46.303259   z "
     id="path189" />
  <path
     style="fill:#ffffff;fill-rule:evenodd;fill-opacity:1;stroke:#ffffff;stroke-width:0.016796172px;stroke-linecap:round;stroke-linejoin:round;stroke-miterlimit:4;stroke-dasharray:none;stroke-opacity:1;"
     d="  M 157.0442,46.943086   L 157.0274,46.943086   L 156.99381,46.90941   L 156.99381,46.892573   L 156.97701,46.892573   L 156.97701,46.606335   L 156.99381,46.606335   L 156.99381,46.623172   L 157.01061,46.623172   L 157.01061,46.64001   L 157.96799,46.64001   L 157.96799,46.303259   L 156.94342,46.303259   L 156.94342,46.320096   L 156.92662,46.320096   L 156.92662,46.336934   L 156.90983,46.336934   L 156.90983,47.481887   L 156.92662,47.481887   L 156.92662,47.498725   L 156.94342,47.498725   L 156.94342,47.515562   L 156.62429,47.515562   L 156.62429,47.498725   L 156.5907,47.498725   L 156.5907,47.481887   L 156.5739,47.481887   L 156.5739,47.448212   L 156.55711,47.448212   L 156.55711,46.067533   L 156.5739,46.067533   L 156.5739,46.033858   L 156.5907,46.033858   L 156.5907,46.01702   L 156.62429,46.01702   L 156.62429,46.000183   L 158.25352,46.000183   L 158.25352,46.01702   L 158.27032,46.01702   L 158.27032,46.033858   L 158.28711,46.033858   L 158.28711,46.050695   L 158.30391,46.067533   L 158.30391,47.46505   L 158.32071,47.46505   L 158.32071,47.481887   L 158.3543,47.515562   L 158.03517,47.515562   L 158.03517,47.498725   L 158.00158,47.498725   L 158.00158,47.481887   L 157.98478,47.481887   L 157.98478,47.448212   L 157.96799,47.448212   L 157.96799,46.943086   L 157.06099,46.943086   L 157.0442,46.943086   z "
     id="path191" />
  <path
     style="fill:#ffffff;fill-rule:evenodd;fill-opacity:1;stroke:#ffffff;stroke-width:0.016796172px;stroke-linecap:round;stroke-linejoin:round;stroke-miterlimit:4;stroke-dasharray:none;stroke-opacity:1;"
     d="  M 154.13846,47.515562   L 154.10487,47.515562   L 154.10487,47.498725   L 154.08807,47.498725   L 154.07128,47.481887   L 154.05448,47.481887   L 154.05448,47.448212   L 154.03768,47.431374   L 154.03768,45.612919   L 154.05448,45.596082   L 154.05448,45.562407   L 154.07128,45.562407   L 154.08807,45.545569   L 154.10487,45.545569   L 154.10487,45.528731   L 156.25478,45.528731   L 156.25478,45.545569   L 156.27157,45.545569   L 156.28837,45.562407   L 156.30517,45.562407   L 156.30517,45.596082   L 156.32196,45.612919   L 156.32196,45.966508   L 156.30517,45.966508   L 156.30517,45.932833   L 156.28837,45.932833   L 156.28837,45.915995   L 156.27157,45.915995   L 156.25478,45.899158   L 154.54157,45.899158   L 154.52477,45.915995   L 154.50798,45.915995   L 154.50798,45.932833   L 154.49118,45.932833   L 154.49118,45.966508   L 154.47438,45.983345   L 154.47438,47.448212   L 154.49118,47.46505   L 154.49118,47.481887   L 154.50798,47.481887   L 154.50798,47.498725   L 154.52477,47.498725   L 154.52477,47.515562   L 154.15526,47.515562   L 154.13846,47.515562   z "
     id="path193" />
  <path
     style="fill:#ffffff;fill-rule:evenodd;fill-opacity:1;stroke:#ffffff;stroke-width:0.016796172px;stroke-linecap:round;stroke-linejoin:round;stroke-miterlimit:4;stroke-dasharray:none;stroke-opacity:1;"
     d="  M 156.32196,47.397699   L 156.32196,47.431374   L 156.30517,47.448212   L 156.30517,47.481887   L 156.28837,47.481887   L 156.27157,47.498725   L 156.25478,47.498725   L 156.25478,47.515562   L 154.64235,47.515562   L 154.62555,47.498725   L 154.59196,47.498725   L 154.59196,47.481887   L 154.57516,47.46505   L 154.57516,47.448212   L 154.55836,47.448212   L 154.55836,47.077786   L 154.57516,47.077786   L 154.57516,47.094623   L 154.59196,47.111461   L 154.59196,47.128299   L 154.62555,47.128299   L 154.64235,47.145136   L 155.81808,47.145136   L 155.86847,47.094623   L 155.86847,47.077786   L 155.88526,47.060948   L 155.88526,46.825223   L 155.86847,46.825223   L 155.86847,46.808385   L 155.85167,46.808385   L 155.85167,46.791548   L 155.83487,46.791548   L 155.81808,46.77471   L 155.06225,46.77471   L 155.06225,46.791548   L 155.02866,46.791548   L 155.02866,46.808385   L 155.01186,46.808385   L 155.01186,46.825223   L 154.99506,46.825223   L 154.99506,46.454797   L 155.01186,46.454797   L 155.01186,46.437959   L 155.02866,46.437959   L 155.02866,46.421122   L 155.04545,46.421122   L 155.04545,46.404284   L 155.07905,46.404284   L 155.07905,46.387446   L 156.25478,46.387446   L 156.25478,46.404284   L 156.27157,46.404284   L 156.27157,46.421122   L 156.28837,46.421122   L 156.28837,46.437959   L 156.30517,46.437959   L 156.30517,46.471634   L 156.32196,46.471634   L 156.32196,47.380862   L 156.32196,47.397699   z "
     id="path195" />
  <path
     style="fill:#ed3440;fill-rule:evenodd;fill-opacity:1;stroke:#ed3440;stroke-width:0.016796172px;stroke-linecap:round;stroke-linejoin:round;stroke-miterlimit:4;stroke-dasharray:none;stroke-opacity:1;"
     d="  M 142.44833,47.094623   L 142.44833,47.852313   L 143.4225,47.852313   L 143.4225,47.094623   L 142.44833,47.094623   z "
     id="path197" />
  <path
     style="fill:#ed3440;fill-rule:evenodd;fill-opacity:1;stroke:#ed3440;stroke-width:0.016796172px;stroke-linecap:round;stroke-linejoin:round;stroke-miterlimit:4;stroke-dasharray:none;stroke-opacity:1;"
     d="  M 141.44055,46.185396   L 142.26357,46.185396   L 142.26357,46.926248   L 141.44055,46.926248   L 141.44055,46.185396   z "
     id="path199" />
  <path
     style="fill:#ed3440;fill-rule:evenodd;fill-opacity:1;stroke:#ed3440;stroke-width:0.016796172px;stroke-linecap:round;stroke-linejoin:round;stroke-miterlimit:4;stroke-dasharray:none;stroke-opacity:1;"
     d="  M 143.60726,47.094623   L 143.60726,47.852313   L 143.876,47.852313   L 143.90959,47.835476   L 143.97678,47.835476   L 144.01037,47.818638   L 144.04396,47.818638   L 144.11115,47.784963   L 144.12794,47.768125   L 144.19513,47.73445   L 144.21192,47.700775   L 144.24552,47.683938   L 144.26231,47.650263   L 144.2959,47.633425   L 144.3295,47.566075   L 144.34629,47.515562   L 144.36309,47.481887   L 144.41348,47.330349   L 144.41348,47.279836   L 144.43027,47.229324   L 144.43027,47.094623   L 143.62406,47.094623   L 143.60726,47.094623   z "
     id="path201" />
  <path
     style="fill:#ed3440;fill-rule:evenodd;fill-opacity:1;stroke:#ed3440;stroke-width:0.016796172px;stroke-linecap:round;stroke-linejoin:round;stroke-miterlimit:4;stroke-dasharray:none;stroke-opacity:1;"
     d="  M 143.60726,46.185396   L 144.43027,46.185396   L 144.43027,46.926248   L 143.60726,46.926248   L 143.60726,46.185396   z "
     id="path203" />
  <path
     style="fill:#ed3440;fill-rule:evenodd;fill-opacity:1;stroke:#ed3440;stroke-width:0.016796172px;stroke-linecap:round;stroke-linejoin:round;stroke-miterlimit:4;stroke-dasharray:none;stroke-opacity:1;"
     d="  M 142.26357,47.094623   L 142.26357,47.852313   L 141.99483,47.852313   L 141.96124,47.835476   L 141.89405,47.835476   L 141.86046,47.818638   L 141.82687,47.818638   L 141.75968,47.784963   L 141.74289,47.768125   L 141.6757,47.73445   L 141.65891,47.700775   L 141.62531,47.683938   L 141.60852,47.650263   L 141.57492,47.633425   L 141.54133,47.566075   L 141.52454,47.515562   L 141.50774,47.481887   L 141.45735,47.330349   L 141.45735,47.279836   L 141.44055,47.229324   L 141.44055,47.094623   L 142.24677,47.094623   L 142.26357,47.094623   z "
     id="path205" />
  <path
     style="fill:#ed3440;fill-rule:evenodd;fill-opacity:1;stroke:#ed3440;stroke-width:0.016796172px;stroke-linecap:round;stroke-linejoin:round;stroke-miterlimit:4;stroke-dasharray:none;stroke-opacity:1;"
     d="  M 142.44833,45.259331   L 142.44833,46.01702   L 143.4225,46.01702   L 143.4225,45.259331   L 142.44833,45.259331   z "
     id="path207" />
  <path
     style="fill:#ed3440;fill-rule:evenodd;fill-opacity:1;stroke:#ed3440;stroke-width:0.016796172px;stroke-linecap:round;stroke-linejoin:round;stroke-miterlimit:4;stroke-dasharray:none;stroke-opacity:1;"
     d="  M 143.60726,46.01702   L 143.60726,45.259331   L 143.876,45.259331   L 143.90959,45.276168   L 143.97678,45.276168   L 144.01037,45.293006   L 144.04396,45.293006   L 144.11115,45.326681   L 144.12794,45.343518   L 144.19513,45.377194   L 144.21192,45.410869   L 144.24552,45.427706   L 144.26231,45.461381   L 144.2959,45.478219   L 144.3295,45.545569   L 144.34629,45.596082   L 144.36309,45.629757   L 144.41348,45.781295   L 144.41348,45.831807   L 144.43027,45.88232   L 144.43027,46.01702   L 143.62406,46.01702   L 143.60726,46.01702   z "
     id="path209" />
  <path
     style="fill:#ed3440;fill-rule:evenodd;fill-opacity:1;stroke:#ed3440;stroke-width:0.016796172px;stroke-linecap:round;stroke-linejoin:round;stroke-miterlimit:4;stroke-dasharray:none;stroke-opacity:1;"
     d="  M 142.26357,46.01702   L 142.26357,45.259331   L 141.99483,45.259331   L 141.96124,45.276168   L 141.89405,45.276168   L 141.86046,45.293006   L 141.82687,45.293006   L 141.75968,45.326681   L 141.74289,45.343518   L 141.6757,45.377194   L 141.65891,45.410869   L 141.62531,45.427706   L 141.60852,45.461381   L 141.57492,45.478219   L 141.54133,45.545569   L 141.52454,45.596082   L 141.50774,45.629757   L 141.45735,45.781295   L 141.45735,45.831807   L 141.44055,45.88232   L 141.44055,46.01702   L 142.24677,46.01702   L 142.26357,46.01702   z "
     id="path211" />
  <text
     xml:space="preserve"
     style="font-size:2.375000px;font-style:normal;font-variant:normal;font-weight:400;font-stretch:Normal;line-height:125.000000%;letter-spacing:0px;word-spacing:0px;fill:#000000;fill-opacity:1;stroke:none;font-family:Arial;text-align:start;text-anchor:start;"
     transform="matrix(1.000000,-0.000000,0.000000,1.000000,163.540506,45.031004)"
     x="0.000000"
     y="1.731375"
     id="text217"><tspan
       x="0.000000"
       y="1.731375"
       id="tspan215"><tspan
         dx="0.000000"
         dy="0.000000"
         style="fill:#FFFFFF;font-size:2.375000px;font-style:normal;font-variant:normal;font-weight:400;font-stretch:Normal;font-family:Arial;"
         id="tspan213">5020</tspan></tspan></text>
  <path
     style="fill:none;stroke:#000000;stroke-width:0.018715387px;stroke-linecap:round;stroke-linejoin:round;stroke-miterlimit:4;stroke-dasharray:none;stroke-opacity:1;"
     d="  M 24.273858,1.8720943   L 77.725005,1.8720943   L 77.725005,17.597687   L 24.273858,17.597687   L 24.273858,1.8720943   z "
     id="path219" />
  <path
     style="fill:none;stroke:#000000;stroke-width:0.018715387px;stroke-linecap:round;stroke-linejoin:round;stroke-miterlimit:4;stroke-dasharray:none;stroke-opacity:1;"
     d="  M 78.585913,1.8720943   L 132.03706,1.8720943   L 132.03706,17.597687   L 78.585913,17.597687   L 78.585913,1.8720943   z "
     id="path221" />
  <path
     style="fill:none;stroke:#000000;stroke-width:0.018723091px;stroke-linecap:round;stroke-linejoin:round;stroke-miterlimit:4;stroke-dasharray:none;stroke-opacity:1;"
     d="  M 12.132563,33.728139   L 137.05302,33.728139   L 137.05302,22.659635   L 12.132563,22.659635   L 12.132563,33.728139   z "
     id="path223" />
  <path
     style="fill:none;stroke:#000000;stroke-width:0.018723091px;stroke-linecap:round;stroke-linejoin:round;stroke-miterlimit:4;stroke-dasharray:none;stroke-opacity:1;"
     d="  M 12.132563,45.281939   L 137.05302,45.281939   L 137.05302,34.213436   L 12.132563,34.213436   L 12.132563,45.281939   z "
     id="path225" />
</svg>
