<?xml version="1.0" encoding="UTF-8" standalone="no"?>
<svg
   version="1.0"
   width="48.209999mm"
   height="22.18mm"
   id="svg165"
   xmlns="http://www.w3.org/2000/svg"
   xmlns:svg="http://www.w3.org/2000/svg">
  <defs
     id="defs3">
    <pattern
       id="EMFhbasepattern"
       patternUnits="userSpaceOnUse"
       width="6"
       height="6"
       x="0"
       y="0" />
  </defs>
  <path
     style="fill:none;stroke:none;"
     d="  M 136.45647,0.88690538   L 136.45647,2.6607161   L 138.03881,2.6607161   M 138.03881,0.88690538   L 141.16186,0.88690538   M 139.57952,0.88690538   L 139.57952,2.6607161   M 141.95303,0.88690538   L 141.95303,2.6607161   M 141.95303,0.88690538   L 141.95303,2.6607161  "
     id="path5" />
  <path
     style="fill:none;stroke:none;"
     d="  M 143.49374,2.6607161   L 143.49374,0.88690538   L 145.07608,2.6607161   L 146.65843,0.88690538   L 146.65843,2.6607161  "
     id="path7" />
  <path
     style="fill:none;stroke:none;"
     d="  M 147.40796,2.6607161   L 148.99031,0.88690538   L 150.57265,2.6607161   M 147.82437,2.2172634   L 150.15625,2.2172634  "
     id="path9" />
  <path
     style="fill:none;stroke:none;"
     d="  M 131.75107,2.6607161   L 133.33342,0.88690538   L 134.91576,2.6607161   M 132.16748,2.2172634   L 134.49935,2.2172634  "
     id="path11" />
  <path
     style="fill:#666666;fill-rule:evenodd;fill-opacity:1;stroke:#000000;stroke-width:0.093625084px;stroke-linecap:round;stroke-linejoin:round;stroke-miterlimit:4;stroke-dasharray:none;stroke-opacity:1;"
     d="  M 181.89482,0.037489583   L 0.037450034,0.037489583   L 0.037450034,83.714239   L 181.89482,83.714239   L 181.89482,0.037489583   z "
     id="path13" />
  <path
     style="fill:#494949;fill-rule:evenodd;fill-opacity:1;stroke:#000000;stroke-width:0.093625084px;stroke-linecap:round;stroke-linejoin:round;stroke-miterlimit:4;stroke-dasharray:none;stroke-opacity:1;"
     d="  M 172.30761,0.037489583   L 9.6246587,0.037489583   L 9.6246587,83.714239   L 172.30761,83.714239   L 172.30761,0.037489583   z "
     id="path15" />
  <path
     style="fill:#ffffff;fill-rule:evenodd;fill-opacity:1;stroke:#000000;stroke-width:0.018725017px;stroke-linecap:round;stroke-linejoin:round;stroke-miterlimit:4;stroke-dasharray:none;stroke-opacity:1;"
     d="  M 7.3776567,11.584281   L 7.3776567,11.415578   L 7.3027566,11.078172   L 7.2465816,10.928214   L 7.1716815,10.778255   L 7.0967814,10.647042   L 7.0031564,10.515828   L 6.8908063,10.384615   L 6.7597311,10.272146   L 6.628656,10.178422   L 6.4975809,10.103443   L 6.3477808,10.028464   L 6.1979806,9.9722292   L 5.8609303,9.89725   L 3.5015782,9.89725   L 3.1645279,9.9722292   L 3.0147277,10.028464   L 2.8649276,10.103443   L 2.7338525,10.178422   L 2.6027774,10.272146   L 2.4717022,10.384615   L 2.3593521,10.515828   L 2.2657271,10.647042   L 2.190827,10.778255   L 2.1159269,10.928214   L 2.0597519,11.078172   L 1.9848518,11.415578   L 1.9848518,11.752984   L 2.0597519,12.090391   L 2.1159269,12.240349   L 2.190827,12.390307   L 2.2657271,12.521521   L 2.3593521,12.652734   L 2.4717022,12.783948   L 2.6027774,12.896417   L 2.7338525,12.990141   L 2.8649276,13.06512   L 3.0147277,13.140099   L 3.1645279,13.196333   L 3.5015782,13.271312   L 5.8609303,13.271312   L 6.1979806,13.196333   L 6.3477808,13.140099   L 6.4975809,13.06512   L 6.628656,12.990141   L 6.7597311,12.896417   L 6.8908063,12.783948   L 7.0031564,12.652734   L 7.0967814,12.521521   L 7.1716815,12.390307   L 7.2465816,12.240349   L 7.3027566,12.090391   L 7.3776567,11.752984   L 7.3776567,11.584281   z "
     id="path17" />
  <path
     style="fill:#ffffff;fill-rule:evenodd;fill-opacity:1;stroke:#000000;stroke-width:0.018725017px;stroke-linecap:round;stroke-linejoin:round;stroke-miterlimit:4;stroke-dasharray:none;stroke-opacity:1;"
     d="  M 7.3776567,72.167448   L 7.3776567,71.998745   L 7.3027566,71.661338   L 7.2465816,71.51138   L 7.1716815,71.361422   L 7.0967814,71.230208   L 7.0031564,71.098995   L 6.8908063,70.967781   L 6.7597311,70.855312   L 6.628656,70.761588   L 6.4975809,70.686609   L 6.3477808,70.61163   L 6.1979806,70.555396   L 5.8609303,70.480417   L 3.5015782,70.480417   L 3.1645279,70.555396   L 3.0147277,70.61163   L 2.8649276,70.686609   L 2.7338525,70.761588   L 2.6027774,70.855312   L 2.4717022,70.967781   L 2.3593521,71.098995   L 2.2657271,71.230208   L 2.190827,71.361422   L 2.1159269,71.51138   L 2.0597519,71.661338   L 1.9848518,71.998745   L 1.9848518,72.336151   L 2.0597519,72.673557   L 2.1159269,72.823516   L 2.190827,72.973474   L 2.2657271,73.104687   L 2.3593521,73.235901   L 2.4717022,73.367115   L 2.6027774,73.479583   L 2.7338525,73.573307   L 2.8649276,73.648286   L 3.0147277,73.723266   L 3.1645279,73.7795   L 3.5015782,73.854479   L 5.8609303,73.854479   L 6.1979806,73.7795   L 6.3477808,73.723266   L 6.4975809,73.648286   L 6.628656,73.573307   L 6.7597311,73.479583   L 6.8908063,73.367115   L 7.0031564,73.235901   L 7.0967814,73.104687   L 7.1716815,72.973474   L 7.2465816,72.823516   L 7.3027566,72.673557   L 7.3776567,72.336151   L 7.3776567,72.167448   z "
     id="path19" />
  <path
     style="fill:#ffffff;fill-rule:evenodd;fill-opacity:1;stroke:#000000;stroke-width:0.018725017px;stroke-linecap:round;stroke-linejoin:round;stroke-miterlimit:4;stroke-dasharray:none;stroke-opacity:1;"
     d="  M 180.24701,11.584281   L 180.24701,11.415578   L 180.17211,11.078172   L 180.11594,10.928214   L 180.04104,10.778255   L 179.96614,10.647042   L 179.87251,10.515828   L 179.76016,10.384615   L 179.62909,10.272146   L 179.49801,10.178422   L 179.36694,10.103443   L 179.21714,10.028464   L 179.06734,9.9722292   L 178.73029,9.89725   L 176.37094,9.89725   L 176.03388,9.9722292   L 175.88408,10.028464   L 175.73428,10.103443   L 175.60321,10.178422   L 175.47213,10.272146   L 175.34106,10.384615   L 175.22871,10.515828   L 175.13508,10.647042   L 175.06018,10.778255   L 174.98528,10.928214   L 174.92911,11.078172   L 174.85421,11.415578   L 174.85421,11.752984   L 174.92911,12.090391   L 174.98528,12.240349   L 175.06018,12.390307   L 175.13508,12.521521   L 175.22871,12.652734   L 175.34106,12.783948   L 175.47213,12.896417   L 175.60321,12.990141   L 175.73428,13.06512   L 175.88408,13.140099   L 176.03388,13.196333   L 176.37094,13.271312   L 178.73029,13.271312   L 179.06734,13.196333   L 179.21714,13.140099   L 179.36694,13.06512   L 179.49801,12.990141   L 179.62909,12.896417   L 179.76016,12.783948   L 179.87251,12.652734   L 179.96614,12.521521   L 180.04104,12.390307   L 180.11594,12.240349   L 180.17211,12.090391   L 180.24701,11.752984   L 180.24701,11.584281   z "
     id="path21" />
  <path
     style="fill:#ffffff;fill-rule:evenodd;fill-opacity:1;stroke:#000000;stroke-width:0.018725017px;stroke-linecap:round;stroke-linejoin:round;stroke-miterlimit:4;stroke-dasharray:none;stroke-opacity:1;"
     d="  M 180.24701,72.167448   L 180.24701,71.998745   L 180.17211,71.661338   L 180.11594,71.51138   L 180.04104,71.361422   L 179.96614,71.230208   L 179.87251,71.098995   L 179.76016,70.967781   L 179.62909,70.855312   L 179.49801,70.761588   L 179.36694,70.686609   L 179.21714,70.61163   L 179.06734,70.555396   L 178.73029,70.480417   L 176.37094,70.480417   L 176.03388,70.555396   L 175.88408,70.61163   L 175.73428,70.686609   L 175.60321,70.761588   L 175.47213,70.855312   L 175.34106,70.967781   L 175.22871,71.098995   L 175.13508,71.230208   L 175.06018,71.361422   L 174.98528,71.51138   L 174.92911,71.661338   L 174.85421,71.998745   L 174.85421,72.336151   L 174.92911,72.673557   L 174.98528,72.823516   L 175.06018,72.973474   L 175.13508,73.104687   L 175.22871,73.235901   L 175.34106,73.367115   L 175.47213,73.479583   L 175.60321,73.573307   L 175.73428,73.648286   L 175.88408,73.723266   L 176.03388,73.7795   L 176.37094,73.854479   L 178.73029,73.854479   L 179.06734,73.7795   L 179.21714,73.723266   L 179.36694,73.648286   L 179.49801,73.573307   L 179.62909,73.479583   L 179.76016,73.367115   L 179.87251,73.235901   L 179.96614,73.104687   L 180.04104,72.973474   L 180.11594,72.823516   L 180.17211,72.673557   L 180.24701,72.336151   L 180.24701,72.167448   z "
     id="path23" />
  <path
     style="fill:#666666;fill-rule:evenodd;fill-opacity:1;stroke:#000000;stroke-width:0.018725017px;stroke-linecap:round;stroke-linejoin:round;stroke-miterlimit:4;stroke-dasharray:none;stroke-opacity:1;"
     d="  M 26.664424,5.3985   L 26.664424,0.037489583   L 152.47781,0.037489583   L 152.47781,5.3985   L 26.664424,5.3985   z "
     id="path25" />
  <path
     style="fill:none;stroke:#ffffff;stroke-width:0.018725017px;stroke-linecap:round;stroke-linejoin:round;stroke-miterlimit:4;stroke-dasharray:none;stroke-opacity:1;"
     d="  M 32.057229,5.2110521   L 32.057229,4.2363229   L 33.536505,4.2363229  "
     id="path27" />
  <text
     xml:space="preserve"
     style="font-size:1.312500px;font-style:normal;font-variant:normal;font-weight:400;font-stretch:Normal;line-height:125.000000%;letter-spacing:0px;word-spacing:0px;fill:#000000;fill-opacity:1;stroke:none;font-family:Arial;text-align:start;text-anchor:start;"
     transform="matrix(1.000000,-0.000000,0.000000,1.000000,33.630131,4.742432)"
     x="0.000000"
     y="0.000000"
     id="text37"><tspan
       x="0.000000"
       y="0.000000"
       id="tspan35"><tspan
         dx="0.000000"
         dy="0.000000"
         style="fill:#FFFFFF;font-size:1.312500px;font-style:normal;font-variant:normal;font-weight:400;font-stretch:Normal;font-family:Arial;"
         id="tspan29">S</tspan><tspan
         dx="0.000000"
         dy="0.000000"
         style="fill:#FFFFFF;font-size:1.312500px;font-style:normal;font-variant:normal;font-weight:400;font-stretch:Normal;font-family:Arial;"
         id="tspan31">M</tspan><tspan
         dx="0.000000"
         dy="0.000000"
         style="fill:#FFFFFF;font-size:1.312500px;font-style:normal;font-variant:normal;font-weight:400;font-stretch:Normal;font-family:Arial;"
         id="tspan33">1</tspan></tspan></text>
  <path
     style="fill:none;stroke:#ffffff;stroke-width:0.018725017px;stroke-linecap:round;stroke-linejoin:round;stroke-miterlimit:4;stroke-dasharray:none;stroke-opacity:1;"
     d="  M 121.67516,5.2110521   L 121.67516,4.2363229   L 123.15444,4.2363229  "
     id="path39" />
  <text
     xml:space="preserve"
     style="font-size:1.312500px;font-style:normal;font-variant:normal;font-weight:400;font-stretch:Normal;line-height:125.000000%;letter-spacing:0px;word-spacing:0px;fill:#000000;fill-opacity:1;stroke:none;font-family:Arial;text-align:start;text-anchor:start;"
     transform="matrix(1.000000,-0.000000,0.000000,1.000000,123.248062,4.742432)"
     x="0.000000"
     y="0.000000"
     id="text49"><tspan
       x="0.000000"
       y="0.000000"
       id="tspan47"><tspan
         dx="0.000000"
         dy="0.000000"
         style="fill:#FFFFFF;font-size:1.312500px;font-style:normal;font-variant:normal;font-weight:400;font-stretch:Normal;font-family:Arial;"
         id="tspan41">S</tspan><tspan
         dx="0.000000"
         dy="0.000000"
         style="fill:#FFFFFF;font-size:1.312500px;font-style:normal;font-variant:normal;font-weight:400;font-stretch:Normal;font-family:Arial;"
         id="tspan43">M</tspan><tspan
         dx="0.000000"
         dy="0.000000"
         style="fill:#FFFFFF;font-size:1.312500px;font-style:normal;font-variant:normal;font-weight:400;font-stretch:Normal;font-family:Arial;"
         id="tspan45">2</tspan></tspan></text>
  <path
     style="fill:none;stroke:#ffffff;stroke-width:0.018725017px;stroke-linecap:round;stroke-linejoin:round;stroke-miterlimit:4;stroke-dasharray:none;stroke-opacity:1;"
     d="  M 65.144334,5.2110521   L 65.144334,4.2363229   L 66.623611,4.2363229  "
     id="path51" />
  <text
     xml:space="preserve"
     style="font-size:1.312500px;font-style:normal;font-variant:normal;font-weight:400;font-stretch:Normal;line-height:125.000000%;letter-spacing:0px;word-spacing:0px;fill:#000000;fill-opacity:1;stroke:none;font-family:Arial;text-align:start;text-anchor:start;"
     transform="matrix(1.000000,-0.000000,0.000000,1.000000,66.717236,4.742432)"
     x="0.000000"
     y="0.000000"
     id="text61"><tspan
       x="0.000000"
       y="0.000000"
       id="tspan59"><tspan
         dx="0.000000"
         dy="0.000000"
         style="fill:#FFFFFF;font-size:1.312500px;font-style:normal;font-variant:normal;font-weight:400;font-stretch:Normal;font-family:Arial;"
         id="tspan53">S</tspan><tspan
         dx="0.000000"
         dy="0.000000"
         style="fill:#FFFFFF;font-size:1.312500px;font-style:normal;font-variant:normal;font-weight:400;font-stretch:Normal;font-family:Arial;"
         id="tspan55">A</tspan><tspan
         dx="0.000000"
         dy="0.000000"
         style="fill:#FFFFFF;font-size:1.312500px;font-style:normal;font-variant:normal;font-weight:400;font-stretch:Normal;font-family:Arial;"
         id="tspan57">P</tspan></tspan></text>
  <path
     style="fill:#666666;fill-rule:evenodd;fill-opacity:1;stroke:#000000;stroke-width:0.018725017px;stroke-linecap:round;stroke-linejoin:round;stroke-miterlimit:4;stroke-dasharray:none;stroke-opacity:1;"
     d="  M 152.17821,0.037489583   L 154.61247,0.037489583   L 154.61247,83.714239   L 152.17821,83.714239   L 152.17821,0.037489583   z "
     id="path63" />
  <path
     style="fill:#f7f7f7;fill-rule:evenodd;fill-opacity:1;stroke:#ffffff;stroke-width:0.018725017px;stroke-linecap:round;stroke-linejoin:round;stroke-miterlimit:4;stroke-dasharray:none;stroke-opacity:1;"
     d="  M 153.32044,1.0122187   L 153.65749,1.9119687   L 153.45151,1.9119687   L 153.45151,3.7864479   L 153.18936,3.7864479   L 153.18936,1.9119687   L 152.98339,1.9119687   L 153.32044,1.0122187   z "
     id="path65" />
  <path
     style="fill:none;stroke:#000000;stroke-width:0.018709615px;stroke-linecap:round;stroke-linejoin:round;stroke-miterlimit:4;stroke-dasharray:none;stroke-opacity:1;"
     d="  M 62.452695,5.6321025   L 26.979265,5.6321025   L 26.979265,13.696674   L 62.452695,13.696674   L 62.452695,5.6321025   z "
     id="path67" />
  <path
     style="fill:none;stroke:#000000;stroke-width:0.018709615px;stroke-linecap:round;stroke-linejoin:round;stroke-miterlimit:4;stroke-dasharray:none;stroke-opacity:1;"
     d="  M 151.90336,5.6321025   L 116.42993,5.6321025   L 116.42993,13.696674   L 151.90336,13.696674   L 151.90336,5.6321025   z "
     id="path69" />
  <text
     xml:space="preserve"
     style="font-size:1.375000px;font-style:normal;font-variant:normal;font-weight:400;font-stretch:Normal;line-height:125.000000%;letter-spacing:0px;word-spacing:0px;fill:#000000;fill-opacity:1;stroke:none;font-family:Arial;text-align:start;text-anchor:start;"
     transform="matrix(0.000000,-1.000000,1.000000,0.000000,152.677760,28.054761)"
     x="0.000000"
     y="1.002375"
     id="text75"><tspan
       x="0.000000"
       y="1.002375"
       id="tspan73"><tspan
         dx="0.000000"
         dy="0.000000"
         style="fill:#FFFFFF;font-size:1.375000px;font-style:normal;font-variant:normal;font-weight:400;font-stretch:Normal;font-family:Arial;"
         id="tspan71">FILTER</tspan></tspan></text>
  <text
     xml:space="preserve"
     style="font-size:1.375000px;font-style:normal;font-variant:normal;font-weight:400;font-stretch:Normal;line-height:125.000000%;letter-spacing:0px;word-spacing:0px;fill:#000000;fill-opacity:1;stroke:none;font-family:Arial;text-align:start;text-anchor:start;"
     transform="matrix(0.000000,-1.000000,1.000000,0.000000,152.677760,28.054761)"
     x="20.553488"
     y="1.152206"
     id="text81"><tspan
       x="20.553488"
       y="1.152206"
       id="tspan79"><tspan
         dx="0.000000"
         dy="0.000000"
         style="fill:#FFFFFF;font-size:1.375000px;font-style:normal;font-variant:normal;font-weight:400;font-stretch:Normal;font-family:Arial;"
         id="tspan77">TOP</tspan></tspan></text>
  <path
     style="fill:none;stroke:#ffffff;stroke-width:0.026843151px;stroke-linecap:round;stroke-linejoin:round;stroke-miterlimit:4;stroke-dasharray:none;stroke-opacity:1;"
     d="  M 110.51325,4.2304434   L 111.1038,2.6969076   L 108.52686,2.6969076   L 107.93631,4.2304434  "
     id="path83" />
  <path
     style="fill:none;stroke:#ffffff;stroke-width:0.026843151px;stroke-linecap:round;stroke-linejoin:round;stroke-miterlimit:4;stroke-dasharray:none;stroke-opacity:1;"
     d="  M 109.22478,4.1775628   L 109.81533,2.6969076   L 109.81533,1.0576108  "
     id="path85" />
  <path
     style="fill:#ffffff;fill-rule:evenodd;fill-opacity:1;stroke:#ffffff;stroke-width:0.016359769px;stroke-linecap:round;stroke-linejoin:round;stroke-miterlimit:4;stroke-dasharray:none;stroke-opacity:1;"
     d="  M 138.03881,0.88690538   M 139.57952,0.88690538   M 141.95303,0.88690538   M 141.95303,0.88690538   M 147.82437,2.2172634   M 132.16748,2.2172634   M 131.59799,2.811285   L 131.56527,2.811285   L 131.54891,2.7951282   L 131.53255,2.7951282   L 131.48347,2.7466578   L 131.48347,2.730501   L 131.46711,2.7143441   L 131.46711,0.84015414   L 131.48347,0.82399733   L 131.48347,0.80784052   L 131.49983,0.79168371   L 131.51619,0.79168371   L 131.51619,0.7755269   L 131.53255,0.75937009   L 131.54891,0.75937009   L 131.56527,0.74321328   L 133.79019,0.74321328   L 133.80655,0.75937009   L 133.82291,0.75937009   L 133.87199,0.80784052   L 133.87199,0.82399733   L 133.88835,0.84015414   L 133.88835,1.2117608   L 133.87199,1.2117608   L 133.87199,1.195604   L 133.85563,1.195604   L 133.85563,1.1794472   L 133.83927,1.1794472   L 133.83927,1.1632903   L 133.80655,1.1632903   L 133.80655,1.1471335   L 132.00698,1.1471335   L 132.00698,1.1632903   L 131.97426,1.1632903   L 131.97426,1.1794472   L 131.9579,1.1794472   L 131.9579,1.2117608   L 131.94154,1.2117608   L 131.94154,2.7466578   L 131.9579,2.7466578   L 131.9579,2.7789714   L 131.97426,2.7789714   L 131.97426,2.7951282   L 131.99062,2.7951282   L 131.99062,2.811285   L 131.61435,2.811285   L 131.59799,2.811285   z "
     id="path87" />
  <path
     style="fill:#ffffff;fill-rule:evenodd;fill-opacity:1;stroke:#ffffff;stroke-width:0.016359769px;stroke-linecap:round;stroke-linejoin:round;stroke-miterlimit:4;stroke-dasharray:none;stroke-opacity:1;"
     d="  M 133.72476,1.615681   L 132.10514,1.615681   L 132.10514,1.5995242   L 132.07242,1.5995242   L 132.07242,1.5833674   L 132.05606,1.5833674   L 132.05606,1.5510538   L 132.0397,1.5510538   L 132.0397,1.9549741   L 132.05606,1.9549741   L 132.05606,1.9872877   L 132.07242,1.9872877   L 132.07242,2.0034445   L 132.10514,2.0034445   L 132.10514,2.0196013   L 133.75747,2.0196013   L 133.79019,1.9872877   L 133.80655,1.9872877   L 133.83927,1.9549741   L 133.83927,1.9388172   L 133.85563,1.9226604   L 133.85563,1.9065036   L 133.87199,1.8903468   L 133.87199,1.8580332   L 133.88835,1.8418764   L 133.88835,1.793406   L 133.87199,1.7772491   L 133.87199,1.7287787   L 133.83927,1.6964651   L 133.83927,1.6803083   L 133.82291,1.6641515   L 133.80655,1.6641515   L 133.80655,1.6479947   L 133.79019,1.6479947   L 133.77383,1.6318378   L 133.75747,1.6318378   L 133.74112,1.615681   L 133.72476,1.615681   z "
     id="path89" />
  <path
     style="fill:#ffffff;fill-rule:evenodd;fill-opacity:1;stroke:#ffffff;stroke-width:0.016359769px;stroke-linecap:round;stroke-linejoin:round;stroke-miterlimit:4;stroke-dasharray:none;stroke-opacity:1;"
     d="  M 137.50386,2.0196013   L 137.47114,2.0196013   L 137.47114,2.0034445   L 137.43842,2.0034445   L 137.43842,1.9872877   L 137.42206,1.9872877   L 137.42206,1.9549741   L 137.4057,1.9549741   L 137.4057,1.5510538   L 137.42206,1.5510538   L 137.42206,1.5833674   L 137.43842,1.5833674   L 137.43842,1.5995242   L 137.47114,1.5995242   L 137.47114,1.615681   L 138.77992,1.615681   L 138.77992,1.1471335   L 137.37298,1.1471335   L 137.37298,1.1632903   L 137.34026,1.1632903   L 137.34026,1.1794472   L 137.3239,1.1794472   L 137.3239,1.2117608   L 137.30754,1.2117608   L 137.30754,2.7466578   L 137.3239,2.7466578   L 137.3239,2.7789714   L 137.34026,2.7789714   L 137.34026,2.7951282   L 137.35662,2.7951282   L 137.35662,2.811285   L 136.93127,2.811285   L 136.91491,2.7951282   L 136.89855,2.7951282   L 136.84947,2.7466578   L 136.84947,2.730501   L 136.83311,2.7143441   L 136.83311,0.84015414   L 136.84947,0.82399733   L 136.84947,0.80784052   L 136.86583,0.79168371   L 136.88219,0.79168371   L 136.88219,0.7755269   L 136.89855,0.75937009   L 136.91491,0.75937009   L 136.93127,0.74321328   L 139.1562,0.74321328   L 139.17256,0.75937009   L 139.18892,0.75937009   L 139.238,0.80784052   L 139.238,0.82399733   L 139.25436,0.84015414   L 139.25436,1.8580332   L 139.238,1.87419   L 139.238,1.9065036   L 139.22164,1.9065036   L 139.22164,1.9226604   L 139.20528,1.9388172   L 139.20528,1.9549741   L 139.18892,1.9549741   L 139.18892,1.9711309   L 139.17256,1.9711309   L 139.17256,1.9872877   L 139.1562,1.9872877   L 139.1562,2.0034445   L 139.13984,2.0034445   L 139.12348,2.0196013   L 139.13984,2.0357581   L 139.1562,2.0357581   L 139.1562,2.0519149   L 139.17256,2.0519149   L 139.17256,2.0680717   L 139.18892,2.0680717   L 139.18892,2.0842285   L 139.20528,2.0842285   L 139.20528,2.1003854   L 139.22164,2.1165422   L 139.22164,2.132699   L 139.238,2.132699   L 139.238,2.1650126   L 139.25436,2.1811694   L 139.25436,2.7466578   L 139.27072,2.7466578   L 139.27072,2.7789714   L 139.28708,2.7789714   L 139.28708,2.7951282   L 139.30344,2.7951282   L 139.30344,2.811285   L 138.87808,2.811285   L 138.86172,2.7951282   L 138.84536,2.7951282   L 138.79628,2.7466578   L 138.79628,2.730501   L 138.77992,2.7143441   L 138.77992,2.0196013   L 137.52022,2.0196013   L 137.50386,2.0196013   z "
     id="path91" />
  <path
     style="fill:#ffffff;fill-rule:evenodd;fill-opacity:1;stroke:#ffffff;stroke-width:0.016359769px;stroke-linecap:round;stroke-linejoin:round;stroke-miterlimit:4;stroke-dasharray:none;stroke-opacity:1;"
     d="  M 140.10507,1.1471335   L 139.61427,1.1471335   L 139.59791,1.1309767   L 139.58155,1.1309767   L 139.53247,1.0825063   L 139.53247,1.0663495   L 139.51611,1.0501927   L 139.51611,0.84015414   L 139.53247,0.82399733   L 139.53247,0.80784052   L 139.54883,0.79168371   L 139.56519,0.79168371   L 139.56519,0.7755269   L 139.58155,0.75937009   L 139.59791,0.75937009   L 139.61427,0.74321328   L 141.8392,0.74321328   L 141.85556,0.75937009   L 141.87192,0.75937009   L 141.921,0.80784052   L 141.921,0.82399733   L 141.93736,0.84015414   L 141.93736,1.2117608   L 141.921,1.2117608   L 141.921,1.195604   L 141.90464,1.195604   L 141.90464,1.1794472   L 141.88828,1.1794472   L 141.88828,1.1632903   L 141.85556,1.1632903   L 141.85556,1.1471335   L 140.64494,1.1471335   L 140.64494,1.1632903   L 140.61222,1.1632903   L 140.61222,1.1794472   L 140.59586,1.1794472   L 140.59586,1.2117608   L 140.5795,1.2117608   L 140.5795,2.7466578   L 140.59586,2.7466578   L 140.59586,2.7789714   L 140.61222,2.7789714   L 140.61222,2.7951282   L 140.62858,2.7951282   L 140.62858,2.811285   L 140.20322,2.811285   L 140.18686,2.7951282   L 140.1705,2.7951282   L 140.12143,2.7466578   L 140.12143,2.730501   L 140.10507,2.7143441   L 140.10507,1.195604   L 140.10507,1.1471335   z "
     id="path93" />
  <path
     style="fill:#ffffff;fill-rule:evenodd;fill-opacity:1;stroke:#ffffff;stroke-width:0.016359769px;stroke-linecap:round;stroke-linejoin:round;stroke-miterlimit:4;stroke-dasharray:none;stroke-opacity:1;"
     d="  M 142.67355,2.6981873   L 142.67355,2.7466578   L 142.68991,2.7466578   L 142.68991,2.7789714   L 142.70627,2.7789714   L 142.70627,2.7951282   L 142.72263,2.7951282   L 142.72263,2.811285   L 142.29727,2.811285   L 142.28091,2.7951282   L 142.26455,2.7951282   L 142.21548,2.7466578   L 142.21548,2.730501   L 142.19912,2.7143441   L 142.19912,0.80784052   L 142.18276,0.80784052   L 142.18276,0.7755269   L 142.1664,0.7755269   L 142.1664,0.75937009   L 142.15004,0.75937009   L 142.15004,0.74321328   L 142.57539,0.74321328   L 142.59175,0.75937009   L 142.60811,0.75937009   L 142.65719,0.80784052   L 142.65719,0.82399733   L 142.67355,0.84015414   L 142.67355,2.6820305   L 142.67355,2.6981873   z "
     id="path95" />
  <path
     style="fill:#ffffff;fill-rule:evenodd;fill-opacity:1;stroke:#ffffff;stroke-width:0.016359769px;stroke-linecap:round;stroke-linejoin:round;stroke-miterlimit:4;stroke-dasharray:none;stroke-opacity:1;"
     d="  M 144.99664,1.1471335   L 143.5897,1.1471335   L 143.5897,1.1632903   L 143.55698,1.1632903   L 143.55698,1.1794472   L 143.54062,1.1794472   L 143.54062,1.2117608   L 143.52426,1.2117608   L 143.52426,2.7466578   L 143.54062,2.7466578   L 143.54062,2.7789714   L 143.55698,2.7789714   L 143.55698,2.7951282   L 143.57334,2.7951282   L 143.57334,2.811285   L 143.14798,2.811285   L 143.13162,2.7951282   L 143.11526,2.7951282   L 143.06618,2.7466578   L 143.06618,2.730501   L 143.04982,2.7143441   L 143.04982,0.84015414   L 143.06618,0.82399733   L 143.06618,0.80784052   L 143.08254,0.79168371   L 143.0989,0.79168371   L 143.0989,0.7755269   L 143.11526,0.75937009   L 143.13162,0.75937009   L 143.14798,0.74321328   L 145.37291,0.74321328   L 145.38927,0.75937009   L 145.40563,0.75937009   L 145.45471,0.80784052   L 145.45471,0.82399733   L 145.47107,0.84015414   L 145.47107,2.7466578   L 145.48743,2.7466578   L 145.48743,2.7789714   L 145.50379,2.7789714   L 145.50379,2.7951282   L 145.52015,2.7951282   L 145.52015,2.811285   L 145.0948,2.811285   L 145.07844,2.7951282   L 145.06208,2.7951282   L 145.013,2.7466578   L 145.013,2.730501   L 144.99664,2.7143441   L 144.99664,1.195604   L 144.99664,1.1471335   z "
     id="path97" />
  <path
     style="fill:#ffffff;fill-rule:evenodd;fill-opacity:1;stroke:#ffffff;stroke-width:0.016359769px;stroke-linecap:round;stroke-linejoin:round;stroke-miterlimit:4;stroke-dasharray:none;stroke-opacity:1;"
     d="  M 147.87596,1.615681   L 146.37086,1.615681   L 146.3545,1.5995242   L 146.33814,1.5995242   L 146.33814,1.5833674   L 146.32178,1.5833674   L 146.32178,1.5510538   L 146.30542,1.5510538   L 146.30542,1.9549741   L 146.32178,1.9549741   L 146.32178,1.9872877   L 146.33814,1.9872877   L 146.33814,2.0034445   L 146.3545,2.0034445   L 146.37086,2.0196013   L 147.89232,2.0196013   L 147.92504,1.9872877   L 147.94139,1.9872877   L 147.97411,1.9549741   L 147.97411,1.9388172   L 147.99047,1.9226604   L 147.99047,1.9065036   L 148.00683,1.8903468   L 148.00683,1.8580332   L 148.02319,1.8418764   L 148.02319,1.7772491   L 148.00683,1.7610923   L 148.00683,1.7126219   L 147.99047,1.7126219   L 147.99047,1.6964651   L 147.94139,1.6479947   L 147.92504,1.6479947   L 147.92504,1.6318378   L 147.90868,1.6318378   L 147.89232,1.615681   L 147.87596,1.615681   z "
     id="path99" />
  <path
     style="fill:#ffffff;fill-rule:evenodd;fill-opacity:1;stroke:#ffffff;stroke-width:0.016359769px;stroke-linecap:round;stroke-linejoin:round;stroke-miterlimit:4;stroke-dasharray:none;stroke-opacity:1;"
     d="  M 149.00478,1.1471335   L 148.51399,1.1471335   L 148.49763,1.1309767   L 148.48127,1.1309767   L 148.43219,1.0825063   L 148.43219,1.0663495   L 148.41583,1.0501927   L 148.41583,0.84015414   L 148.43219,0.82399733   L 148.43219,0.80784052   L 148.44855,0.79168371   L 148.46491,0.79168371   L 148.46491,0.7755269   L 148.48127,0.75937009   L 148.49763,0.75937009   L 148.51399,0.74321328   L 150.73892,0.74321328   L 150.75528,0.75937009   L 150.77164,0.75937009   L 150.82071,0.80784052   L 150.82071,0.82399733   L 150.83707,0.84015414   L 150.83707,1.2117608   L 150.82071,1.2117608   L 150.82071,1.195604   L 150.80435,1.195604   L 150.80435,1.1794472   L 150.78799,1.1794472   L 150.78799,1.1632903   L 150.75528,1.1632903   L 150.75528,1.1471335   L 149.54465,1.1471335   L 149.54465,1.1632903   L 149.51193,1.1632903   L 149.51193,1.1794472   L 149.49557,1.1794472   L 149.49557,1.2117608   L 149.47921,1.2117608   L 149.47921,2.7466578   L 149.49557,2.7466578   L 149.49557,2.7789714   L 149.51193,2.7789714   L 149.51193,2.7951282   L 149.52829,2.7951282   L 149.52829,2.811285   L 149.10294,2.811285   L 149.08658,2.7951282   L 149.07022,2.7951282   L 149.02114,2.7466578   L 149.02114,2.730501   L 149.00478,2.7143441   L 149.00478,1.195604   L 149.00478,1.1471335   z "
     id="path101" />
  <path
     style="fill:#ffffff;fill-rule:evenodd;fill-opacity:1;stroke:#ffffff;stroke-width:0.016359769px;stroke-linecap:round;stroke-linejoin:round;stroke-miterlimit:4;stroke-dasharray:none;stroke-opacity:1;"
     d="  M 148.03955,2.4073647   L 148.07227,2.4073647   L 148.07227,2.3912079   L 148.10499,2.3912079   L 148.10499,2.3750511   L 148.12135,2.3750511   L 148.12135,2.3588943   L 148.13771,2.3588943   L 148.13771,2.3427375   L 148.15407,2.3427375   L 148.15407,2.7143441   L 148.13771,2.730501   L 148.13771,2.7466578   L 148.12135,2.7628146   L 148.12135,2.7789714   L 148.10499,2.7789714   L 148.08863,2.7951282   L 148.07227,2.7951282   L 148.05591,2.811285   L 145.83098,2.811285   L 145.81462,2.7951282   L 145.79827,2.7951282   L 145.74919,2.7466578   L 145.74919,2.730501   L 145.73283,2.7143441   L 145.73283,0.84015414   L 145.74919,0.82399733   L 145.74919,0.80784052   L 145.76555,0.79168371   L 145.78191,0.79168371   L 145.78191,0.7755269   L 145.79827,0.75937009   L 145.81462,0.75937009   L 145.83098,0.74321328   L 148.05591,0.74321328   L 148.07227,0.75937009   L 148.08863,0.75937009   L 148.13771,0.80784052   L 148.13771,0.82399733   L 148.15407,0.84015414   L 148.15407,1.2117608   L 148.13771,1.2117608   L 148.13771,1.195604   L 148.12135,1.195604   L 148.12135,1.1794472   L 148.10499,1.1794472   L 148.10499,1.1632903   L 148.07227,1.1632903   L 148.07227,1.1471335   L 146.2727,1.1471335   L 146.2727,1.1632903   L 146.23998,1.1632903   L 146.23998,1.1794472   L 146.22362,1.1794472   L 146.22362,1.2117608   L 146.20726,1.2117608   L 146.20726,2.4073647   L 148.02319,2.4073647   L 148.03955,2.4073647   z "
     id="path103" />
  <path
     style="fill:#ed3440;fill-rule:evenodd;fill-opacity:1;stroke:#ed3440;stroke-width:0.016359769px;stroke-linecap:round;stroke-linejoin:round;stroke-miterlimit:4;stroke-dasharray:none;stroke-opacity:1;"
     d="  M 134.9681,2.213483   L 134.9681,2.811285   L 135.75337,2.811285   L 135.75337,2.213483   L 134.9681,2.213483   z "
     id="path105" />
  <path
     style="fill:#ed3440;fill-rule:evenodd;fill-opacity:1;stroke:#ed3440;stroke-width:0.016359769px;stroke-linecap:round;stroke-linejoin:round;stroke-miterlimit:4;stroke-dasharray:none;stroke-opacity:1;"
     d="  M 134.15011,1.4864266   L 134.82086,1.4864266   L 134.82086,2.0680717   L 134.15011,2.0680717   L 134.15011,1.4864266   z "
     id="path107" />
  <path
     style="fill:#ed3440;fill-rule:evenodd;fill-opacity:1;stroke:#ed3440;stroke-width:0.016359769px;stroke-linecap:round;stroke-linejoin:round;stroke-miterlimit:4;stroke-dasharray:none;stroke-opacity:1;"
     d="  M 135.9006,2.213483   L 135.9006,2.811285   L 136.146,2.811285   L 136.16236,2.7951282   L 136.2278,2.7951282   L 136.24416,2.7789714   L 136.27688,2.7789714   L 136.3096,2.7628146   L 136.32596,2.7466578   L 136.35868,2.730501   L 136.3914,2.6981873   L 136.42412,2.6820305   L 136.44048,2.6658737   L 136.45684,2.6335601   L 136.4732,2.6174033   L 136.53864,2.4881488   L 136.53864,2.4558352   L 136.555,2.4073647   L 136.555,2.3588943   L 136.57136,2.3104239   L 136.57136,2.213483   L 135.91696,2.213483   L 135.9006,2.213483   z "
     id="path109" />
  <path
     style="fill:#ed3440;fill-rule:evenodd;fill-opacity:1;stroke:#ed3440;stroke-width:0.016359769px;stroke-linecap:round;stroke-linejoin:round;stroke-miterlimit:4;stroke-dasharray:none;stroke-opacity:1;"
     d="  M 135.9006,1.4864266   L 136.57136,1.4864266   L 136.57136,2.0680717   L 135.9006,2.0680717   L 135.9006,1.4864266   z "
     id="path111" />
  <path
     style="fill:#ed3440;fill-rule:evenodd;fill-opacity:1;stroke:#ed3440;stroke-width:0.016359769px;stroke-linecap:round;stroke-linejoin:round;stroke-miterlimit:4;stroke-dasharray:none;stroke-opacity:1;"
     d="  M 134.82086,2.213483   L 134.82086,2.811285   L 134.57546,2.811285   L 134.5591,2.7951282   L 134.49366,2.7951282   L 134.4773,2.7789714   L 134.44459,2.7789714   L 134.41187,2.7628146   L 134.39551,2.7466578   L 134.36279,2.730501   L 134.33007,2.6981873   L 134.29735,2.6820305   L 134.28099,2.6658737   L 134.26463,2.6335601   L 134.24827,2.6174033   L 134.18283,2.4881488   L 134.18283,2.4558352   L 134.16647,2.4073647   L 134.16647,2.3588943   L 134.15011,2.3104239   L 134.15011,2.213483   L 134.8045,2.213483   L 134.82086,2.213483   z "
     id="path113" />
  <path
     style="fill:#ed3440;fill-rule:evenodd;fill-opacity:1;stroke:#ed3440;stroke-width:0.016359769px;stroke-linecap:round;stroke-linejoin:round;stroke-miterlimit:4;stroke-dasharray:none;stroke-opacity:1;"
     d="  M 134.9681,0.74321328   L 134.9681,1.3410153   L 135.75337,1.3410153   L 135.75337,0.74321328   L 134.9681,0.74321328   z "
     id="path115" />
  <path
     style="fill:#ed3440;fill-rule:evenodd;fill-opacity:1;stroke:#ed3440;stroke-width:0.016359769px;stroke-linecap:round;stroke-linejoin:round;stroke-miterlimit:4;stroke-dasharray:none;stroke-opacity:1;"
     d="  M 135.9006,1.3410153   L 135.9006,0.74321328   L 136.146,0.74321328   L 136.16236,0.75937009   L 136.2278,0.75937009   L 136.24416,0.7755269   L 136.27688,0.7755269   L 136.3096,0.79168371   L 136.32596,0.80784052   L 136.35868,0.82399733   L 136.3914,0.85631095   L 136.42412,0.87246776   L 136.44048,0.88862457   L 136.45684,0.92093819   L 136.4732,0.937095   L 136.53864,1.0663495   L 136.53864,1.0986631   L 136.555,1.1471335   L 136.555,1.195604   L 136.57136,1.2440744   L 136.57136,1.3410153   L 135.91696,1.3410153   L 135.9006,1.3410153   z "
     id="path117" />
  <path
     style="fill:#ed3440;fill-rule:evenodd;fill-opacity:1;stroke:#ed3440;stroke-width:0.016359769px;stroke-linecap:round;stroke-linejoin:round;stroke-miterlimit:4;stroke-dasharray:none;stroke-opacity:1;"
     d="  M 134.82086,1.3410153   L 134.82086,0.74321328   L 134.57546,0.74321328   L 134.5591,0.75937009   L 134.49366,0.75937009   L 134.4773,0.7755269   L 134.44459,0.7755269   L 134.41187,0.79168371   L 134.39551,0.80784052   L 134.36279,0.82399733   L 134.33007,0.85631095   L 134.29735,0.87246776   L 134.28099,0.88862457   L 134.26463,0.92093819   L 134.24827,0.937095   L 134.18283,1.0663495   L 134.18283,1.0986631   L 134.16647,1.1471335   L 134.16647,1.195604   L 134.15011,1.2440744   L 134.15011,1.3410153   L 134.8045,1.3410153   L 134.82086,1.3410153   z "
     id="path119" />
  <text
     xml:space="preserve"
     style="font-size:0.687500px;font-style:normal;font-variant:normal;font-weight:400;font-stretch:Normal;line-height:125.000000%;letter-spacing:0px;word-spacing:0px;fill:#000000;fill-opacity:1;stroke:none;font-family:Arial;text-align:start;text-anchor:start;"
     transform="matrix(1.000000,-0.000000,0.000000,1.000000,150.205549,2.025344)"
     x="0.000000"
     y="0.501188"
     id="text125"><tspan
       x="0.000000"
       y="0.501188"
       id="tspan123"><tspan
         dx="0.000000"
         dy="0.000000"
         style="fill:#FFFFFF;font-size:0.687500px;font-style:normal;font-variant:normal;font-weight:400;font-stretch:Normal;font-family:Arial;"
         id="tspan121">®</tspan></tspan></text>
  <text
     xml:space="preserve"
     style="font-size:1.562500px;font-style:normal;font-variant:normal;font-weight:400;font-stretch:Normal;line-height:125.000000%;letter-spacing:0px;word-spacing:0px;fill:#000000;fill-opacity:1;stroke:none;font-family:Arial;text-align:start;text-anchor:start;"
     transform="matrix(1.000000,-0.000000,0.000000,1.000000,150.205549,2.025344)"
     x="-18.728871"
     y="2.264253"
     id="text131"><tspan
       x="-18.728871"
       y="2.264253"
       id="tspan129"><tspan
         dx="0.000000"
         dy="0.000000"
         style="fill:#FFFFFF;font-size:1.562500px;font-style:normal;font-variant:normal;font-weight:400;font-stretch:Normal;font-family:Arial;"
         id="tspan127">FortiGate 5060</tspan></tspan></text>
  <path
     style="fill:none;stroke:#000000;stroke-width:0.018709615px;stroke-linecap:round;stroke-linejoin:round;stroke-miterlimit:4;stroke-dasharray:none;stroke-opacity:1;"
     d="  M 62.714629,5.6321025   L 116.24284,5.6321025   L 116.24284,13.696674   L 62.714629,13.696674   L 62.714629,5.6321025   z "
     id="path133" />
  <path
     style="fill:none;stroke:#000000;stroke-width:0.018723091px;stroke-linecap:round;stroke-linejoin:round;stroke-miterlimit:4;stroke-dasharray:none;stroke-opacity:1;"
     d="  M 26.96125,83.45339   L 151.88171,83.45339   L 151.88171,72.389706   L 26.96125,72.389706   L 26.96125,83.45339   z "
     id="path135" />
  <path
     style="fill:none;stroke:#000000;stroke-width:0.018723091px;stroke-linecap:round;stroke-linejoin:round;stroke-miterlimit:4;stroke-dasharray:none;stroke-opacity:1;"
     d="  M 26.96125,71.811334   L 151.88171,71.811334   L 151.88171,60.74765   L 26.96125,60.74765   L 26.96125,71.811334   z "
     id="path137" />
  <path
     style="fill:none;stroke:#000000;stroke-width:0.018723091px;stroke-linecap:round;stroke-linejoin:round;stroke-miterlimit:4;stroke-dasharray:none;stroke-opacity:1;"
     d="  M 26.96125,60.187936   L 151.88171,60.187936   L 151.88171,49.124251   L 26.96125,49.124251   L 26.96125,60.187936   z "
     id="path139" />
  <path
     style="fill:none;stroke:#000000;stroke-width:0.018723091px;stroke-linecap:round;stroke-linejoin:round;stroke-miterlimit:4;stroke-dasharray:none;stroke-opacity:1;"
     d="  M 26.96125,48.564537   L 151.88171,48.564537   L 151.88171,37.500853   L 26.96125,37.500853   L 26.96125,48.564537   z "
     id="path141" />
  <path
     style="fill:none;stroke:#000000;stroke-width:0.018723091px;stroke-linecap:round;stroke-linejoin:round;stroke-miterlimit:4;stroke-dasharray:none;stroke-opacity:1;"
     d="  M 26.96125,36.941138   L 151.88171,36.941138   L 151.88171,25.877454   L 26.96125,25.877454   L 26.96125,36.941138   z "
     id="path143" />
  <path
     style="fill:none;stroke:#000000;stroke-width:0.018723091px;stroke-linecap:round;stroke-linejoin:round;stroke-miterlimit:4;stroke-dasharray:none;stroke-opacity:1;"
     d="  M 26.96125,25.31774   L 151.88171,25.31774   L 151.88171,14.254055   L 26.96125,14.254055   L 26.96125,25.31774   z "
     id="path145" />
  <path
     style="fill:none;stroke:#000000;stroke-width:0.018728871px;stroke-linecap:round;stroke-linejoin:round;stroke-miterlimit:4;stroke-dasharray:none;stroke-opacity:1;"
     d="  M 26.782286,0.074979167   L 9.5891822,0.074979167   L 9.5891822,83.751729   L 26.782286,83.751729   L 26.782286,0.074979167   z "
     id="path147" />
  <path
     style="fill:none;stroke:#000000;stroke-width:0.018728871px;stroke-linecap:round;stroke-linejoin:round;stroke-miterlimit:4;stroke-dasharray:none;stroke-opacity:1;"
     d="  M 171.9685,0.074979167   L 154.77539,0.074979167   L 154.77539,83.751729   L 171.9685,83.751729   L 171.9685,0.074979167   z "
     id="path149" />
  <path
     style="fill:#999999;fill-rule:evenodd;fill-opacity:1;stroke:#000000;stroke-width:0.046373527px;stroke-linecap:round;stroke-linejoin:round;stroke-miterlimit:4;stroke-dasharray:none;stroke-opacity:1;"
     d="  M 107.77207,2.5998832   L 106.79823,0.95785171   L 104.89692,0.95785171   L 103.96944,2.5998832   L 104.94329,4.2419147   L 106.8446,4.2419147   L 107.77207,2.5998832   z "
     id="path151" />
  <ellipse
     style="fill:#dddddd;fill-rule:evenodd;fill-opacity:1;stroke:#000000;stroke-width:0.046373527px;stroke-linecap:round;stroke-linejoin:round;stroke-miterlimit:4;stroke-dasharray:none;stroke-opacity:1;"
     cx="105.77801"
     cy="2.5314652"
     rx="1.3448322"
     ry="1.368019"
     id="ellipse153" />
  <ellipse
     style="fill:none;stroke:#bfbfbf;stroke-width:0.046373527px;stroke-linecap:round;stroke-linejoin:round;stroke-miterlimit:4;stroke-dasharray:none;stroke-opacity:1;"
     cx="105.77801"
     cy="2.5314652"
     rx="1.3448322"
     ry="1.368019"
     id="ellipse155" />
  <ellipse
     style="fill:#999999;fill-rule:evenodd;fill-opacity:1;stroke:#000000;stroke-width:0.046373527px;stroke-linecap:round;stroke-linejoin:round;stroke-miterlimit:4;stroke-dasharray:none;stroke-opacity:1;"
     cx="105.8012"
     cy="2.5314652"
     rx="1.275272"
     ry="1.275272"
     id="ellipse157" />
  <ellipse
     style="fill:none;stroke:#bfbfbf;stroke-width:0.046373527px;stroke-linecap:round;stroke-linejoin:round;stroke-miterlimit:4;stroke-dasharray:none;stroke-opacity:1;"
     cx="105.8012"
     cy="2.5314652"
     rx="1.275272"
     ry="1.275272"
     id="ellipse159" />
  <ellipse
     style="fill:#a5a5a5;fill-rule:evenodd;fill-opacity:1;stroke:#000000;stroke-width:0.046373527px;stroke-linecap:round;stroke-linejoin:round;stroke-miterlimit:4;stroke-dasharray:none;stroke-opacity:1;"
     cx="105.8012"
     cy="2.5314652"
     rx="0.53329555"
     ry="0.53329555"
     id="ellipse161" />
  <ellipse
     style="fill:none;stroke:#999999;stroke-width:0.046373527px;stroke-linecap:round;stroke-linejoin:round;stroke-miterlimit:4;stroke-dasharray:none;stroke-opacity:1;"
     cx="105.8012"
     cy="2.5314652"
     rx="0.53329555"
     ry="0.53329555"
     id="ellipse163" />
</svg>
