<?xml version="1.0" encoding="UTF-8" standalone="no"?>
<svg
   version="1.0"
   width="48.209999mm"
   height="62.02mm"
   id="svg349"
   xmlns="http://www.w3.org/2000/svg"
   xmlns:svg="http://www.w3.org/2000/svg">
  <defs
     id="defs3">
    <pattern
       id="EMFhbasepattern"
       patternUnits="userSpaceOnUse"
       width="6"
       height="6"
       x="0"
       y="0" />
  </defs>
  <path
     style="fill:none;stroke:none;"
     d="  M 20.273992,7.607064   L 20.273992,10.64989   L 22.96774,10.64989   M 22.96774,7.607064   L 28.284346,7.607064   M 25.590599,7.607064   L 25.590599,10.64989   M 29.63122,7.607064   L 29.63122,10.64989   M 29.63122,7.607064   L 29.63122,10.64989  "
     id="path5" />
  <path
     style="fill:none;stroke:none;"
     d="  M 32.254079,10.64989   L 32.254079,7.607064   L 34.947826,10.64989   L 37.641573,7.607064   L 37.641573,10.64989  "
     id="path7" />
  <path
     style="fill:none;stroke:none;"
     d="  M 38.917559,10.64989   L 41.611306,7.607064   L 44.305053,10.64989   M 39.62644,9.8891832   L 43.596173,9.8891832  "
     id="path9" />
  <path
     style="fill:none;stroke:none;"
     d="  M 12.263639,10.64989   L 14.957386,7.607064   L 17.651133,10.64989   M 12.97252,9.8891832   L 16.942252,9.8891832  "
     id="path11" />
  <path
     style="fill:#666666;fill-rule:evenodd;fill-opacity:1;stroke:#000000;stroke-width:0.093625084px;stroke-linecap:round;stroke-linejoin:round;stroke-miterlimit:4;stroke-dasharray:none;stroke-opacity:1;"
     d="  M 181.89482,0.037526449   L 0.037450034,0.037526449   L 0.037450034,234.50278   L 181.89482,234.50278   L 181.89482,0.037526449   z "
     id="path13" />
  <path
     style="fill:#494949;fill-rule:evenodd;fill-opacity:1;stroke:#000000;stroke-width:0.093625084px;stroke-linecap:round;stroke-linejoin:round;stroke-miterlimit:4;stroke-dasharray:none;stroke-opacity:1;"
     d="  M 174.70441,60.22995   L 7.2278566,60.22995   L 7.2278566,186.39387   L 174.70441,186.39387   L 174.70441,60.22995   z "
     id="path15" />
  <path
     style="fill:#494949;fill-rule:evenodd;fill-opacity:1;stroke:#000000;stroke-width:0.093625084px;stroke-linecap:round;stroke-linejoin:round;stroke-miterlimit:4;stroke-dasharray:none;stroke-opacity:1;"
     d="  M 174.70441,182.92267   L 7.2278566,182.92267   L 7.2278566,234.50278   L 174.70441,234.50278   L 174.70441,182.92267   z "
     id="path17" />
  <path
     style="fill:#bfbfbf;fill-rule:evenodd;fill-opacity:1;stroke:#000000;stroke-width:0.018725017px;stroke-linecap:round;stroke-linejoin:round;stroke-miterlimit:4;stroke-dasharray:none;stroke-opacity:1;"
     d="  M 174.70441,182.92267   L 7.2278566,182.92267   L 7.2278566,190.9721   L 174.70441,190.9721   L 174.70441,182.92267   z "
     id="path19" />
  <path
     style="fill:#dddddd;fill-rule:evenodd;fill-opacity:1;stroke:#dddddd;stroke-width:0.018725017px;stroke-linecap:round;stroke-linejoin:round;stroke-miterlimit:4;stroke-dasharray:none;stroke-opacity:1;"
     d="  M 174.70441,182.92267   L 7.2278566,182.92267   L 7.2278566,183.1666   L 174.70441,183.1666   L 174.70441,182.92267   z "
     id="path21" />
  <path
     style="fill:none;stroke:#000000;stroke-width:0.018725017px;stroke-linecap:round;stroke-linejoin:round;stroke-miterlimit:4;stroke-dasharray:none;stroke-opacity:1;"
     d="  M 174.70441,182.92267   L 7.2278566,182.92267   L 7.2278566,190.9721   L 174.70441,190.9721   L 174.70441,182.92267   z "
     id="path23" />
  <path
     style="fill:#bfbfbf;fill-rule:evenodd;fill-opacity:1;stroke:#000000;stroke-width:0.018725017px;stroke-linecap:round;stroke-linejoin:round;stroke-miterlimit:4;stroke-dasharray:none;stroke-opacity:1;"
     d="  M 174.70441,63.701147   L 7.2278566,63.701147   L 7.2278566,60.22995   L 174.70441,60.22995   L 174.70441,63.701147   z "
     id="path25" />
  <path
     style="fill:#dddddd;fill-rule:evenodd;fill-opacity:1;stroke:#dddddd;stroke-width:0.018725017px;stroke-linecap:round;stroke-linejoin:round;stroke-miterlimit:4;stroke-dasharray:none;stroke-opacity:1;"
     d="  M 174.70441,63.701147   L 7.2278566,63.701147   L 7.2278566,63.457225   L 174.70441,63.457225   L 174.70441,63.701147   z "
     id="path27" />
  <ellipse
     style="fill:#494949;fill-rule:evenodd;fill-opacity:1;stroke:#000000;stroke-width:0.018725017px;stroke-linecap:round;stroke-linejoin:round;stroke-miterlimit:4;stroke-dasharray:none;stroke-opacity:1;"
     cx="3.5952033"
     cy="204.17203"
     rx="2.5091523"
     ry="2.4997898"
     id="ellipse29" />
  <ellipse
     style="fill:none;stroke:#494949;stroke-width:0.018725017px;stroke-linecap:round;stroke-linejoin:round;stroke-miterlimit:4;stroke-dasharray:none;stroke-opacity:1;"
     cx="3.5952033"
     cy="204.17203"
     rx="2.5091523"
     ry="2.4997898"
     id="ellipse31" />
  <path
     style="fill:none;stroke:#ffffff;stroke-width:0.056175049px;stroke-linecap:round;stroke-linejoin:round;stroke-miterlimit:4;stroke-dasharray:none;stroke-opacity:1;"
     d="  M 4.362929,205.6637   L 4.7748793,204.57544   L 2.9772777,204.57544   L 2.5653273,205.6637  "
     id="path33" />
  <path
     style="fill:none;stroke:#ffffff;stroke-width:0.056175049px;stroke-linecap:round;stroke-linejoin:round;stroke-miterlimit:4;stroke-dasharray:none;stroke-opacity:1;"
     d="  M 3.4641281,205.62618   L 3.8760785,204.57544   L 3.8760785,203.41212  "
     id="path35" />
  <ellipse
     style="fill:#ffffff;fill-rule:evenodd;fill-opacity:1;stroke:#000000;stroke-width:0.018725017px;stroke-linecap:round;stroke-linejoin:round;stroke-miterlimit:4;stroke-dasharray:none;stroke-opacity:1;"
     cx="3.8199035"
     cy="203.20572"
     rx="0.35577532"
     ry="0.35577532"
     id="ellipse37" />
  <ellipse
     style="fill:none;stroke:#ffffff;stroke-width:0.018725017px;stroke-linecap:round;stroke-linejoin:round;stroke-miterlimit:4;stroke-dasharray:none;stroke-opacity:1;"
     cx="3.8199035"
     cy="203.20572"
     rx="0.35577532"
     ry="0.35577532"
     id="ellipse39" />
  <ellipse
     style="fill:#494949;fill-rule:evenodd;fill-opacity:1;stroke:#000000;stroke-width:0.018725017px;stroke-linecap:round;stroke-linejoin:round;stroke-miterlimit:4;stroke-dasharray:none;stroke-opacity:1;"
     cx="3.810541"
     cy="203.19634"
     rx="0.25278773"
     ry="0.25278773"
     id="ellipse41" />
  <ellipse
     style="fill:none;stroke:#ffffff;stroke-width:0.018725017px;stroke-linecap:round;stroke-linejoin:round;stroke-miterlimit:4;stroke-dasharray:none;stroke-opacity:1;"
     cx="3.810541"
     cy="203.19634"
     rx="0.25278773"
     ry="0.25278773"
     id="ellipse43" />
  <path
     style="fill:#bfbfbf;fill-rule:evenodd;fill-opacity:1;stroke:#000000;stroke-width:0.093625084px;stroke-linecap:round;stroke-linejoin:round;stroke-miterlimit:4;stroke-dasharray:none;stroke-opacity:1;"
     d="  M 174.70441,222.17534   L 7.2278566,222.17534   L 7.2278566,232.60769   L 174.70441,232.60769   L 174.70441,222.17534   z "
     id="path45" />
  <path
     style="fill:#ffffff;fill-rule:evenodd;fill-opacity:1;stroke:#000000;stroke-width:0.018725017px;stroke-linecap:round;stroke-linejoin:round;stroke-miterlimit:4;stroke-dasharray:none;stroke-opacity:1;"
     d="  M 180.77131,165.56669   L 180.77131,165.41659   L 180.69641,165.11637   L 180.65896,164.98503   L 180.50916,164.72235   L 180.43426,164.60977   L 180.22829,164.40337   L 180.11594,164.32832   L 179.85379,164.17821   L 179.72271,164.14069   L 179.42311,164.06563   L 177.17611,164.06563   L 176.87651,164.14069   L 176.74544,164.17821   L 176.48329,164.32832   L 176.37094,164.40337   L 176.27731,164.51595   L 176.16496,164.60977   L 176.09006,164.72235   L 175.94026,164.98503   L 175.90281,165.11637   L 175.82791,165.41659   L 175.82791,165.7168   L 175.90281,166.01701   L 175.94026,166.14835   L 176.09006,166.41104   L 176.16496,166.52362   L 176.37094,166.73001   L 176.48329,166.80507   L 176.74544,166.95517   L 176.87651,166.9927   L 177.17611,167.06775   L 179.42311,167.06775   L 179.72271,166.9927   L 179.85379,166.95517   L 180.11594,166.80507   L 180.22829,166.73001   L 180.34064,166.6362   L 180.43426,166.52362   L 180.50916,166.41104   L 180.65896,166.14835   L 180.69641,166.01701   L 180.77131,165.7168   L 180.77131,165.56669   z "
     id="path47" />
  <path
     style="fill:#ffffff;fill-rule:evenodd;fill-opacity:1;stroke:#000000;stroke-width:0.018725017px;stroke-linecap:round;stroke-linejoin:round;stroke-miterlimit:4;stroke-dasharray:none;stroke-opacity:1;"
     d="  M 180.77131,176.44936   L 180.77131,176.29926   L 180.69641,175.99904   L 180.65896,175.8677   L 180.50916,175.60502   L 180.43426,175.49244   L 180.22829,175.28604   L 180.11594,175.21099   L 179.85379,175.06088   L 179.72271,175.02336   L 179.42311,174.9483   L 177.17611,174.9483   L 176.87651,175.02336   L 176.74544,175.06088   L 176.48329,175.21099   L 176.37094,175.28604   L 176.27731,175.39862   L 176.16496,175.49244   L 176.09006,175.60502   L 175.94026,175.8677   L 175.90281,175.99904   L 175.82791,176.29926   L 175.82791,176.59947   L 175.90281,176.89968   L 175.94026,177.03102   L 176.09006,177.29371   L 176.16496,177.40629   L 176.37094,177.61268   L 176.48329,177.68774   L 176.74544,177.83784   L 176.87651,177.87537   L 177.17611,177.95042   L 179.42311,177.95042   L 179.72271,177.87537   L 179.85379,177.83784   L 180.11594,177.68774   L 180.22829,177.61268   L 180.34064,177.51887   L 180.43426,177.40629   L 180.50916,177.29371   L 180.65896,177.03102   L 180.69641,176.89968   L 180.77131,176.59947   L 180.77131,176.44936   z "
     id="path49" />
  <path
     style="fill:#ffffff;fill-rule:evenodd;fill-opacity:1;stroke:#000000;stroke-width:0.018725017px;stroke-linecap:round;stroke-linejoin:round;stroke-miterlimit:4;stroke-dasharray:none;stroke-opacity:1;"
     d="  M 180.77131,213.84447   L 180.77131,213.69436   L 180.69641,213.39415   L 180.65896,213.26281   L 180.50916,213.00012   L 180.43426,212.88754   L 180.22829,212.68115   L 180.11594,212.6061   L 179.85379,212.45599   L 179.72271,212.41846   L 179.42311,212.34341   L 177.17611,212.34341   L 176.87651,212.41846   L 176.74544,212.45599   L 176.48329,212.6061   L 176.37094,212.68115   L 176.27731,212.79373   L 176.16496,212.88754   L 176.09006,213.00012   L 175.94026,213.26281   L 175.90281,213.39415   L 175.82791,213.69436   L 175.82791,213.99457   L 175.90281,214.29479   L 175.94026,214.42613   L 176.09006,214.68881   L 176.16496,214.80139   L 176.37094,215.00779   L 176.48329,215.08284   L 176.74544,215.23295   L 176.87651,215.27047   L 177.17611,215.34553   L 179.42311,215.34553   L 179.72271,215.27047   L 179.85379,215.23295   L 180.11594,215.08284   L 180.22829,215.00779   L 180.34064,214.91397   L 180.43426,214.80139   L 180.50916,214.68881   L 180.65896,214.42613   L 180.69641,214.29479   L 180.77131,213.99457   L 180.77131,213.84447   z "
     id="path51" />
  <path
     style="fill:#ffffff;fill-rule:evenodd;fill-opacity:1;stroke:#000000;stroke-width:0.018725017px;stroke-linecap:round;stroke-linejoin:round;stroke-miterlimit:4;stroke-dasharray:none;stroke-opacity:1;"
     d="  M 180.77131,119.09019   L 180.77131,118.94008   L 180.69641,118.63987   L 180.65896,118.50853   L 180.50916,118.24584   L 180.43426,118.13326   L 180.22829,117.92687   L 180.11594,117.85181   L 179.85379,117.70171   L 179.72271,117.66418   L 179.42311,117.58913   L 177.17611,117.58913   L 176.87651,117.66418   L 176.74544,117.70171   L 176.48329,117.85181   L 176.37094,117.92687   L 176.27731,118.03944   L 176.16496,118.13326   L 176.09006,118.24584   L 175.94026,118.50853   L 175.90281,118.63987   L 175.82791,118.94008   L 175.82791,119.24029   L 175.90281,119.5405   L 175.94026,119.67185   L 176.09006,119.93453   L 176.16496,120.04711   L 176.37094,120.25351   L 176.48329,120.32856   L 176.74544,120.47866   L 176.87651,120.51619   L 177.17611,120.59124   L 179.42311,120.59124   L 179.72271,120.51619   L 179.85379,120.47866   L 180.11594,120.32856   L 180.22829,120.25351   L 180.34064,120.15969   L 180.43426,120.04711   L 180.50916,119.93453   L 180.65896,119.67185   L 180.69641,119.5405   L 180.77131,119.24029   L 180.77131,119.09019   z "
     id="path53" />
  <path
     style="fill:#ffffff;fill-rule:evenodd;fill-opacity:1;stroke:#000000;stroke-width:0.018725017px;stroke-linecap:round;stroke-linejoin:round;stroke-miterlimit:4;stroke-dasharray:none;stroke-opacity:1;"
     d="  M 180.77131,129.97286   L 180.77131,129.82275   L 180.69641,129.52254   L 180.65896,129.3912   L 180.50916,129.12851   L 180.43426,129.01593   L 180.22829,128.80954   L 180.11594,128.73448   L 179.85379,128.58438   L 179.72271,128.54685   L 179.42311,128.4718   L 177.17611,128.4718   L 176.87651,128.54685   L 176.74544,128.58438   L 176.48329,128.73448   L 176.37094,128.80954   L 176.27731,128.92211   L 176.16496,129.01593   L 176.09006,129.12851   L 175.94026,129.3912   L 175.90281,129.52254   L 175.82791,129.82275   L 175.82791,130.12296   L 175.90281,130.42317   L 175.94026,130.55452   L 176.09006,130.8172   L 176.16496,130.92978   L 176.37094,131.13618   L 176.48329,131.21123   L 176.74544,131.36133   L 176.87651,131.39886   L 177.17611,131.47391   L 179.42311,131.47391   L 179.72271,131.39886   L 179.85379,131.36133   L 180.11594,131.21123   L 180.22829,131.13618   L 180.34064,131.04236   L 180.43426,130.92978   L 180.50916,130.8172   L 180.65896,130.55452   L 180.69641,130.42317   L 180.77131,130.12296   L 180.77131,129.97286   z "
     id="path55" />
  <path
     style="fill:#ffffff;fill-rule:evenodd;fill-opacity:1;stroke:#000000;stroke-width:0.018725017px;stroke-linecap:round;stroke-linejoin:round;stroke-miterlimit:4;stroke-dasharray:none;stroke-opacity:1;"
     d="  M 180.77131,72.594915   L 180.77131,72.444809   L 180.69641,72.144598   L 180.65896,72.013255   L 180.50916,71.75057   L 180.43426,71.637991   L 180.22829,71.431595   L 180.11594,71.356542   L 179.85379,71.206437   L 179.72271,71.16891   L 179.42311,71.093857   L 177.17611,71.093857   L 176.87651,71.16891   L 176.74544,71.206437   L 176.48329,71.356542   L 176.37094,71.431595   L 176.27731,71.544175   L 176.16496,71.637991   L 176.09006,71.75057   L 175.94026,72.013255   L 175.90281,72.144598   L 175.82791,72.444809   L 175.82791,72.745021   L 175.90281,73.045233   L 175.94026,73.176575   L 176.09006,73.43926   L 176.16496,73.55184   L 176.37094,73.758235   L 176.48329,73.833288   L 176.74544,73.983394   L 176.87651,74.02092   L 177.17611,74.095973   L 179.42311,74.095973   L 179.72271,74.02092   L 179.85379,73.983394   L 180.11594,73.833288   L 180.22829,73.758235   L 180.34064,73.664419   L 180.43426,73.55184   L 180.50916,73.43926   L 180.65896,73.176575   L 180.69641,73.045233   L 180.77131,72.745021   L 180.77131,72.594915   z "
     id="path57" />
  <path
     style="fill:#ffffff;fill-rule:evenodd;fill-opacity:1;stroke:#000000;stroke-width:0.018725017px;stroke-linecap:round;stroke-linejoin:round;stroke-miterlimit:4;stroke-dasharray:none;stroke-opacity:1;"
     d="  M 180.77131,83.477585   L 180.77131,83.32748   L 180.69641,83.027268   L 180.65896,82.895925   L 180.50916,82.63324   L 180.43426,82.520661   L 180.22829,82.314266   L 180.11594,82.239213   L 179.85379,82.089107   L 179.72271,82.05158   L 179.42311,81.976527   L 177.17611,81.976527   L 176.87651,82.05158   L 176.74544,82.089107   L 176.48329,82.239213   L 176.37094,82.314266   L 176.27731,82.426845   L 176.16496,82.520661   L 176.09006,82.63324   L 175.94026,82.895925   L 175.90281,83.027268   L 175.82791,83.32748   L 175.82791,83.627691   L 175.90281,83.927903   L 175.94026,84.059245   L 176.09006,84.321931   L 176.16496,84.43451   L 176.37094,84.640905   L 176.48329,84.715958   L 176.74544,84.866064   L 176.87651,84.90359   L 177.17611,84.978643   L 179.42311,84.978643   L 179.72271,84.90359   L 179.85379,84.866064   L 180.11594,84.715958   L 180.22829,84.640905   L 180.34064,84.547089   L 180.43426,84.43451   L 180.50916,84.321931   L 180.65896,84.059245   L 180.69641,83.927903   L 180.77131,83.627691   L 180.77131,83.477585   z "
     id="path59" />
  <path
     style="fill:#ffffff;fill-rule:evenodd;fill-opacity:1;stroke:#000000;stroke-width:0.018725017px;stroke-linecap:round;stroke-linejoin:round;stroke-miterlimit:4;stroke-dasharray:none;stroke-opacity:1;"
     d="  M 180.77131,20.7146   L 180.77131,20.564494   L 180.69641,20.264282   L 180.65896,20.13294   L 180.50916,19.870255   L 180.43426,19.757675   L 180.22829,19.55128   L 180.11594,19.476227   L 179.85379,19.326121   L 179.72271,19.288595   L 179.42311,19.213542   L 177.17611,19.213542   L 176.87651,19.288595   L 176.74544,19.326121   L 176.48329,19.476227   L 176.37094,19.55128   L 176.27731,19.663859   L 176.16496,19.757675   L 176.09006,19.870255   L 175.94026,20.13294   L 175.90281,20.264282   L 175.82791,20.564494   L 175.82791,20.864706   L 175.90281,21.164917   L 175.94026,21.29626   L 176.09006,21.558945   L 176.16496,21.671524   L 176.37094,21.87792   L 176.48329,21.952973   L 176.74544,22.103078   L 176.87651,22.140605   L 177.17611,22.215658   L 179.42311,22.215658   L 179.72271,22.140605   L 179.85379,22.103078   L 180.11594,21.952973   L 180.22829,21.87792   L 180.34064,21.784104   L 180.43426,21.671524   L 180.50916,21.558945   L 180.65896,21.29626   L 180.69641,21.164917   L 180.77131,20.864706   L 180.77131,20.7146   z "
     id="path61" />
  <path
     style="fill:#ffffff;fill-rule:evenodd;fill-opacity:1;stroke:#000000;stroke-width:0.018725017px;stroke-linecap:round;stroke-linejoin:round;stroke-miterlimit:4;stroke-dasharray:none;stroke-opacity:1;"
     d="  M 180.77131,31.59727   L 180.77131,31.447164   L 180.69641,31.146953   L 180.65896,31.01561   L 180.50916,30.752925   L 180.43426,30.640345   L 180.22829,30.43395   L 180.11594,30.358897   L 179.85379,30.208791   L 179.72271,30.171265   L 179.42311,30.096212   L 177.17611,30.096212   L 176.87651,30.171265   L 176.74544,30.208791   L 176.48329,30.358897   L 176.37094,30.43395   L 176.27731,30.546529   L 176.16496,30.640345   L 176.09006,30.752925   L 175.94026,31.01561   L 175.90281,31.146953   L 175.82791,31.447164   L 175.82791,31.747376   L 175.90281,32.047587   L 175.94026,32.17893   L 176.09006,32.441615   L 176.16496,32.554194   L 176.37094,32.76059   L 176.48329,32.835643   L 176.74544,32.985749   L 176.87651,33.023275   L 177.17611,33.098328   L 179.42311,33.098328   L 179.72271,33.023275   L 179.85379,32.985749   L 180.11594,32.835643   L 180.22829,32.76059   L 180.34064,32.666774   L 180.43426,32.554194   L 180.50916,32.441615   L 180.65896,32.17893   L 180.69641,32.047587   L 180.77131,31.747376   L 180.77131,31.59727   z "
     id="path63" />
  <path
     style="fill:#ffffff;fill-rule:evenodd;fill-opacity:1;stroke:#000000;stroke-width:0.018725017px;stroke-linecap:round;stroke-linejoin:round;stroke-miterlimit:4;stroke-dasharray:none;stroke-opacity:1;"
     d="  M 6.1043555,165.56669   L 6.1043555,165.41659   L 6.0294555,165.11637   L 5.9920054,164.98503   L 5.8422053,164.72235   L 5.7673052,164.60977   L 5.5613301,164.40337   L 5.44898,164.32832   L 5.1868297,164.17821   L 5.0557546,164.14069   L 4.7561543,164.06563   L 2.5091523,164.06563   L 2.209552,164.14069   L 2.0784769,164.17821   L 1.8163267,164.32832   L 1.7039765,164.40337   L 1.6103515,164.51595   L 1.4980014,164.60977   L 1.4231013,164.72235   L 1.2733012,164.98503   L 1.2358511,165.11637   L 1.1609511,165.41659   L 1.1609511,165.7168   L 1.2358511,166.01701   L 1.2733012,166.14835   L 1.4231013,166.41104   L 1.4980014,166.52362   L 1.7039765,166.73001   L 1.8163267,166.80507   L 2.0784769,166.95517   L 2.209552,166.9927   L 2.5091523,167.06775   L 4.7561543,167.06775   L 5.0557546,166.9927   L 5.1868297,166.95517   L 5.44898,166.80507   L 5.5613301,166.73001   L 5.6736802,166.6362   L 5.7673052,166.52362   L 5.8422053,166.41104   L 5.9920054,166.14835   L 6.0294555,166.01701   L 6.1043555,165.7168   L 6.1043555,165.56669   z "
     id="path65" />
  <path
     style="fill:#ffffff;fill-rule:evenodd;fill-opacity:1;stroke:#000000;stroke-width:0.018725017px;stroke-linecap:round;stroke-linejoin:round;stroke-miterlimit:4;stroke-dasharray:none;stroke-opacity:1;"
     d="  M 6.1043555,176.44936   L 6.1043555,176.29926   L 6.0294555,175.99904   L 5.9920054,175.8677   L 5.8422053,175.60502   L 5.7673052,175.49244   L 5.5613301,175.28604   L 5.44898,175.21099   L 5.1868297,175.06088   L 5.0557546,175.02336   L 4.7561543,174.9483   L 2.5091523,174.9483   L 2.209552,175.02336   L 2.0784769,175.06088   L 1.8163267,175.21099   L 1.7039765,175.28604   L 1.6103515,175.39862   L 1.4980014,175.49244   L 1.4231013,175.60502   L 1.2733012,175.8677   L 1.2358511,175.99904   L 1.1609511,176.29926   L 1.1609511,176.59947   L 1.2358511,176.89968   L 1.2733012,177.03102   L 1.4231013,177.29371   L 1.4980014,177.40629   L 1.7039765,177.61268   L 1.8163267,177.68774   L 2.0784769,177.83784   L 2.209552,177.87537   L 2.5091523,177.95042   L 4.7561543,177.95042   L 5.0557546,177.87537   L 5.1868297,177.83784   L 5.44898,177.68774   L 5.5613301,177.61268   L 5.6736802,177.51887   L 5.7673052,177.40629   L 5.8422053,177.29371   L 5.9920054,177.03102   L 6.0294555,176.89968   L 6.1043555,176.59947   L 6.1043555,176.44936   z "
     id="path67" />
  <path
     style="fill:#ffffff;fill-rule:evenodd;fill-opacity:1;stroke:#000000;stroke-width:0.018725017px;stroke-linecap:round;stroke-linejoin:round;stroke-miterlimit:4;stroke-dasharray:none;stroke-opacity:1;"
     d="  M 6.1043555,213.84447   L 6.1043555,213.69436   L 6.0294555,213.39415   L 5.9920054,213.26281   L 5.8422053,213.00012   L 5.7673052,212.88754   L 5.5613301,212.68115   L 5.44898,212.6061   L 5.1868297,212.45599   L 5.0557546,212.41846   L 4.7561543,212.34341   L 2.5091523,212.34341   L 2.209552,212.41846   L 2.0784769,212.45599   L 1.8163267,212.6061   L 1.7039765,212.68115   L 1.6103515,212.79373   L 1.4980014,212.88754   L 1.4231013,213.00012   L 1.2733012,213.26281   L 1.2358511,213.39415   L 1.1609511,213.69436   L 1.1609511,213.99457   L 1.2358511,214.29479   L 1.2733012,214.42613   L 1.4231013,214.68881   L 1.4980014,214.80139   L 1.7039765,215.00779   L 1.8163267,215.08284   L 2.0784769,215.23295   L 2.209552,215.27047   L 2.5091523,215.34553   L 4.7561543,215.34553   L 5.0557546,215.27047   L 5.1868297,215.23295   L 5.44898,215.08284   L 5.5613301,215.00779   L 5.6736802,214.91397   L 5.7673052,214.80139   L 5.8422053,214.68881   L 5.9920054,214.42613   L 6.0294555,214.29479   L 6.1043555,213.99457   L 6.1043555,213.84447   z "
     id="path69" />
  <path
     style="fill:#ffffff;fill-rule:evenodd;fill-opacity:1;stroke:#000000;stroke-width:0.018725017px;stroke-linecap:round;stroke-linejoin:round;stroke-miterlimit:4;stroke-dasharray:none;stroke-opacity:1;"
     d="  M 6.1043555,119.09019   L 6.1043555,118.94008   L 6.0294555,118.63987   L 5.9920054,118.50853   L 5.8422053,118.24584   L 5.7673052,118.13326   L 5.5613301,117.92687   L 5.44898,117.85181   L 5.1868297,117.70171   L 5.0557546,117.66418   L 4.7561543,117.58913   L 2.5091523,117.58913   L 2.209552,117.66418   L 2.0784769,117.70171   L 1.8163267,117.85181   L 1.7039765,117.92687   L 1.6103515,118.03944   L 1.4980014,118.13326   L 1.4231013,118.24584   L 1.2733012,118.50853   L 1.2358511,118.63987   L 1.1609511,118.94008   L 1.1609511,119.24029   L 1.2358511,119.5405   L 1.2733012,119.67185   L 1.4231013,119.93453   L 1.4980014,120.04711   L 1.7039765,120.25351   L 1.8163267,120.32856   L 2.0784769,120.47866   L 2.209552,120.51619   L 2.5091523,120.59124   L 4.7561543,120.59124   L 5.0557546,120.51619   L 5.1868297,120.47866   L 5.44898,120.32856   L 5.5613301,120.25351   L 5.6736802,120.15969   L 5.7673052,120.04711   L 5.8422053,119.93453   L 5.9920054,119.67185   L 6.0294555,119.5405   L 6.1043555,119.24029   L 6.1043555,119.09019   z "
     id="path71" />
  <path
     style="fill:#ffffff;fill-rule:evenodd;fill-opacity:1;stroke:#000000;stroke-width:0.018725017px;stroke-linecap:round;stroke-linejoin:round;stroke-miterlimit:4;stroke-dasharray:none;stroke-opacity:1;"
     d="  M 6.1043555,129.97286   L 6.1043555,129.82275   L 6.0294555,129.52254   L 5.9920054,129.3912   L 5.8422053,129.12851   L 5.7673052,129.01593   L 5.5613301,128.80954   L 5.44898,128.73448   L 5.1868297,128.58438   L 5.0557546,128.54685   L 4.7561543,128.4718   L 2.5091523,128.4718   L 2.209552,128.54685   L 2.0784769,128.58438   L 1.8163267,128.73448   L 1.7039765,128.80954   L 1.6103515,128.92211   L 1.4980014,129.01593   L 1.4231013,129.12851   L 1.2733012,129.3912   L 1.2358511,129.52254   L 1.1609511,129.82275   L 1.1609511,130.12296   L 1.2358511,130.42317   L 1.2733012,130.55452   L 1.4231013,130.8172   L 1.4980014,130.92978   L 1.7039765,131.13618   L 1.8163267,131.21123   L 2.0784769,131.36133   L 2.209552,131.39886   L 2.5091523,131.47391   L 4.7561543,131.47391   L 5.0557546,131.39886   L 5.1868297,131.36133   L 5.44898,131.21123   L 5.5613301,131.13618   L 5.6736802,131.04236   L 5.7673052,130.92978   L 5.8422053,130.8172   L 5.9920054,130.55452   L 6.0294555,130.42317   L 6.1043555,130.12296   L 6.1043555,129.97286   z "
     id="path73" />
  <path
     style="fill:#ffffff;fill-rule:evenodd;fill-opacity:1;stroke:#000000;stroke-width:0.018725017px;stroke-linecap:round;stroke-linejoin:round;stroke-miterlimit:4;stroke-dasharray:none;stroke-opacity:1;"
     d="  M 6.1043555,72.594915   L 6.1043555,72.444809   L 6.0294555,72.144598   L 5.9920054,72.013255   L 5.8422053,71.75057   L 5.7673052,71.637991   L 5.5613301,71.431595   L 5.44898,71.356542   L 5.1868297,71.206437   L 5.0557546,71.16891   L 4.7561543,71.093857   L 2.5091523,71.093857   L 2.209552,71.16891   L 2.0784769,71.206437   L 1.8163267,71.356542   L 1.7039765,71.431595   L 1.6103515,71.544175   L 1.4980014,71.637991   L 1.4231013,71.75057   L 1.2733012,72.013255   L 1.2358511,72.144598   L 1.1609511,72.444809   L 1.1609511,72.745021   L 1.2358511,73.045233   L 1.2733012,73.176575   L 1.4231013,73.43926   L 1.4980014,73.55184   L 1.7039765,73.758235   L 1.8163267,73.833288   L 2.0784769,73.983394   L 2.209552,74.02092   L 2.5091523,74.095973   L 4.7561543,74.095973   L 5.0557546,74.02092   L 5.1868297,73.983394   L 5.44898,73.833288   L 5.5613301,73.758235   L 5.6736802,73.664419   L 5.7673052,73.55184   L 5.8422053,73.43926   L 5.9920054,73.176575   L 6.0294555,73.045233   L 6.1043555,72.745021   L 6.1043555,72.594915   z "
     id="path75" />
  <path
     style="fill:#ffffff;fill-rule:evenodd;fill-opacity:1;stroke:#000000;stroke-width:0.018725017px;stroke-linecap:round;stroke-linejoin:round;stroke-miterlimit:4;stroke-dasharray:none;stroke-opacity:1;"
     d="  M 6.1043555,83.477585   L 6.1043555,83.32748   L 6.0294555,83.027268   L 5.9920054,82.895925   L 5.8422053,82.63324   L 5.7673052,82.520661   L 5.5613301,82.314266   L 5.44898,82.239213   L 5.1868297,82.089107   L 5.0557546,82.05158   L 4.7561543,81.976527   L 2.5091523,81.976527   L 2.209552,82.05158   L 2.0784769,82.089107   L 1.8163267,82.239213   L 1.7039765,82.314266   L 1.6103515,82.426845   L 1.4980014,82.520661   L 1.4231013,82.63324   L 1.2733012,82.895925   L 1.2358511,83.027268   L 1.1609511,83.32748   L 1.1609511,83.627691   L 1.2358511,83.927903   L 1.2733012,84.059245   L 1.4231013,84.321931   L 1.4980014,84.43451   L 1.7039765,84.640905   L 1.8163267,84.715958   L 2.0784769,84.866064   L 2.209552,84.90359   L 2.5091523,84.978643   L 4.7561543,84.978643   L 5.0557546,84.90359   L 5.1868297,84.866064   L 5.44898,84.715958   L 5.5613301,84.640905   L 5.6736802,84.547089   L 5.7673052,84.43451   L 5.8422053,84.321931   L 5.9920054,84.059245   L 6.0294555,83.927903   L 6.1043555,83.627691   L 6.1043555,83.477585   z "
     id="path77" />
  <path
     style="fill:#ffffff;fill-rule:evenodd;fill-opacity:1;stroke:#000000;stroke-width:0.018725017px;stroke-linecap:round;stroke-linejoin:round;stroke-miterlimit:4;stroke-dasharray:none;stroke-opacity:1;"
     d="  M 6.1043555,20.7146   L 6.1043555,20.564494   L 6.0294555,20.264282   L 5.9920054,20.13294   L 5.8422053,19.870255   L 5.7673052,19.757675   L 5.5613301,19.55128   L 5.44898,19.476227   L 5.1868297,19.326121   L 5.0557546,19.288595   L 4.7561543,19.213542   L 2.5091523,19.213542   L 2.209552,19.288595   L 2.0784769,19.326121   L 1.8163267,19.476227   L 1.7039765,19.55128   L 1.6103515,19.663859   L 1.4980014,19.757675   L 1.4231013,19.870255   L 1.2733012,20.13294   L 1.2358511,20.264282   L 1.1609511,20.564494   L 1.1609511,20.864706   L 1.2358511,21.164917   L 1.2733012,21.29626   L 1.4231013,21.558945   L 1.4980014,21.671524   L 1.7039765,21.87792   L 1.8163267,21.952973   L 2.0784769,22.103078   L 2.209552,22.140605   L 2.5091523,22.215658   L 4.7561543,22.215658   L 5.0557546,22.140605   L 5.1868297,22.103078   L 5.44898,21.952973   L 5.5613301,21.87792   L 5.6736802,21.784104   L 5.7673052,21.671524   L 5.8422053,21.558945   L 5.9920054,21.29626   L 6.0294555,21.164917   L 6.1043555,20.864706   L 6.1043555,20.7146   z "
     id="path79" />
  <path
     style="fill:#ffffff;fill-rule:evenodd;fill-opacity:1;stroke:#000000;stroke-width:0.018725017px;stroke-linecap:round;stroke-linejoin:round;stroke-miterlimit:4;stroke-dasharray:none;stroke-opacity:1;"
     d="  M 6.1043555,31.59727   L 6.1043555,31.447164   L 6.0294555,31.146953   L 5.9920054,31.01561   L 5.8422053,30.752925   L 5.7673052,30.640345   L 5.5613301,30.43395   L 5.44898,30.358897   L 5.1868297,30.208791   L 5.0557546,30.171265   L 4.7561543,30.096212   L 2.5091523,30.096212   L 2.209552,30.171265   L 2.0784769,30.208791   L 1.8163267,30.358897   L 1.7039765,30.43395   L 1.6103515,30.546529   L 1.4980014,30.640345   L 1.4231013,30.752925   L 1.2733012,31.01561   L 1.2358511,31.146953   L 1.1609511,31.447164   L 1.1609511,31.747376   L 1.2358511,32.047587   L 1.2733012,32.17893   L 1.4231013,32.441615   L 1.4980014,32.554194   L 1.7039765,32.76059   L 1.8163267,32.835643   L 2.0784769,32.985749   L 2.209552,33.023275   L 2.5091523,33.098328   L 4.7561543,33.098328   L 5.0557546,33.023275   L 5.1868297,32.985749   L 5.44898,32.835643   L 5.5613301,32.76059   L 5.6736802,32.666774   L 5.7673052,32.554194   L 5.8422053,32.441615   L 5.9920054,32.17893   L 6.0294555,32.047587   L 6.1043555,31.747376   L 6.1043555,31.59727   z "
     id="path81" />
  <path
     style="fill:none;stroke:#000000;stroke-width:0.018725017px;stroke-linecap:round;stroke-linejoin:round;stroke-miterlimit:4;stroke-dasharray:none;stroke-opacity:1;"
     d="  M 174.70441,188.6267   L 7.2278566,188.6267   L 7.2278566,190.9721   L 174.70441,190.9721   L 174.70441,188.6267   z "
     id="path83" />
  <path
     style="fill:#bfbfbf;fill-rule:evenodd;fill-opacity:1;stroke:#000000;stroke-width:0.018725017px;stroke-linecap:round;stroke-linejoin:round;stroke-miterlimit:4;stroke-dasharray:none;stroke-opacity:1;"
     d="  M 9.6246587,190.99086   L 7.2278566,190.99086   L 7.2278566,220.73057   L 9.6246587,220.73057   L 9.6246587,190.99086   z "
     id="path85" />
  <path
     style="fill:#bfbfbf;fill-rule:evenodd;fill-opacity:1;stroke:#000000;stroke-width:0.018725017px;stroke-linecap:round;stroke-linejoin:round;stroke-miterlimit:4;stroke-dasharray:none;stroke-opacity:1;"
     d="  M 174.70441,190.99086   L 172.30761,190.99086   L 172.30761,220.73057   L 174.70441,220.73057   L 174.70441,190.99086   z "
     id="path87" />
  <path
     style="fill:#bfbfbf;fill-rule:evenodd;fill-opacity:1;stroke:#7f7f7f;stroke-width:0.018725017px;stroke-linecap:round;stroke-linejoin:round;stroke-miterlimit:4;stroke-dasharray:none;stroke-opacity:1;"
     d="  M 157.96424,199.32173   L 23.968022,199.32173   L 23.968022,201.66714   L 157.96424,201.66714   L 157.96424,199.32173   z "
     id="path89" />
  <path
     style="fill:#bfbfbf;fill-rule:evenodd;fill-opacity:1;stroke:#7f7f7f;stroke-width:0.018725017px;stroke-linecap:round;stroke-linejoin:round;stroke-miterlimit:4;stroke-dasharray:none;stroke-opacity:1;"
     d="  M 157.96424,210.01677   L 23.968022,210.01677   L 23.968022,212.36217   L 157.96424,212.36217   L 157.96424,210.01677   z "
     id="path91" />
  <path
     style="fill:#bfbfbf;fill-rule:evenodd;fill-opacity:1;stroke:#7f7f7f;stroke-width:0.018725017px;stroke-linecap:round;stroke-linejoin:round;stroke-miterlimit:4;stroke-dasharray:none;stroke-opacity:1;"
     d="  M 91.565333,190.99086   L 90.366932,190.99086   L 90.366932,232.60769   L 91.565333,232.60769   L 91.565333,190.99086   z "
     id="path93" />
  <path
     style="fill:#bfbfbf;fill-rule:evenodd;fill-opacity:1;stroke:#7f7f7f;stroke-width:0.018725017px;stroke-linecap:round;stroke-linejoin:round;stroke-miterlimit:4;stroke-dasharray:none;stroke-opacity:1;"
     d="  M 23.968022,190.99086   L 23.368821,190.99086   L 23.368821,220.74934   L 23.968022,220.74934   L 23.968022,190.99086   z "
     id="path95" />
  <path
     style="fill:#bfbfbf;fill-rule:evenodd;fill-opacity:1;stroke:#7f7f7f;stroke-width:0.018725017px;stroke-linecap:round;stroke-linejoin:round;stroke-miterlimit:4;stroke-dasharray:none;stroke-opacity:1;"
     d="  M 23.368821,190.99086   L 20.447719,192.66079   L 16.702715,198.96523   L 19.698718,218.17877   L 23.368821,220.7681   L 23.368821,190.99086   z "
     id="path97" />
  <path
     style="fill:#bfbfbf;fill-rule:evenodd;fill-opacity:1;stroke:#7f7f7f;stroke-width:0.018725017px;stroke-linecap:round;stroke-linejoin:round;stroke-miterlimit:4;stroke-dasharray:none;stroke-opacity:1;"
     d="  M 157.96424,190.99086   L 158.56344,190.99086   L 158.56344,220.74934   L 157.96424,220.74934   L 157.96424,190.99086   z "
     id="path99" />
  <path
     style="fill:#bfbfbf;fill-rule:evenodd;fill-opacity:1;stroke:#7f7f7f;stroke-width:0.018725017px;stroke-linecap:round;stroke-linejoin:round;stroke-miterlimit:4;stroke-dasharray:none;stroke-opacity:1;"
     d="  M 158.56344,190.99086   L 161.48455,192.66079   L 165.22955,198.96523   L 162.23355,218.17877   L 158.56344,220.7681   L 158.56344,190.99086   z "
     id="path101" />
  <path
     style="fill:#666666;fill-rule:evenodd;fill-opacity:1;stroke:#000000;stroke-width:0.018725017px;stroke-linecap:round;stroke-linejoin:round;stroke-miterlimit:4;stroke-dasharray:none;stroke-opacity:1;"
     d="  M 177.10121,56.627411   L 180.73386,56.627411   L 180.79004,56.608648   L 180.86494,56.608648   L 181.08964,56.533595   L 181.14581,56.496069   L 181.20199,56.477305   L 181.25816,56.439779   L 181.29561,56.421016   L 181.40796,56.345963   L 181.44541,56.308436   L 181.48286,56.252147   L 181.53904,56.21462   L 181.57649,56.177094   L 181.65139,56.064515   L 181.67012,56.026988   L 181.70757,55.970698   L 181.72629,55.914409   L 181.76374,55.858119   L 181.83864,55.63296   L 181.83864,55.557907   L 181.85737,55.501618   L 181.85737,53.250031   L 181.83864,53.193741   L 181.83864,53.118688   L 181.76374,52.89353   L 181.72629,52.83724   L 181.70757,52.78095   L 181.67012,52.724661   L 181.65139,52.687134   L 181.57649,52.574555   L 181.53904,52.537028   L 181.48286,52.499502   L 181.44541,52.443212   L 181.40796,52.405686   L 181.29561,52.330633   L 181.25816,52.31187   L 181.20199,52.274343   L 181.14581,52.25558   L 181.08964,52.218054   L 180.86494,52.143001   L 180.79004,52.143001   L 180.73386,52.124237   L 177.10121,52.124237   L 177.10121,56.608648   L 177.10121,56.627411   z "
     id="path103" />
  <ellipse
     style="fill:#e2e2e2;fill-rule:evenodd;fill-opacity:1;stroke:#000000;stroke-width:0.018725017px;stroke-linecap:round;stroke-linejoin:round;stroke-miterlimit:4;stroke-dasharray:none;stroke-opacity:1;"
     cx="179.56355"
     cy="54.300771"
     rx="1.638439"
     ry="1.6478015"
     id="ellipse105" />
  <ellipse
     style="fill:none;stroke:#000000;stroke-width:0.018725017px;stroke-linecap:round;stroke-linejoin:round;stroke-miterlimit:4;stroke-dasharray:none;stroke-opacity:1;"
     cx="179.56355"
     cy="54.300771"
     rx="1.638439"
     ry="1.6478015"
     id="ellipse107" />
  <ellipse
     style="fill:#666666;fill-rule:evenodd;fill-opacity:1;stroke:#000000;stroke-width:0.018725017px;stroke-linecap:round;stroke-linejoin:round;stroke-miterlimit:4;stroke-dasharray:none;stroke-opacity:1;"
     cx="179.57291"
     cy="54.29139"
     rx="1.2358511"
     ry="1.2264886"
     id="ellipse109" />
  <ellipse
     style="fill:none;stroke:#000000;stroke-width:0.018725017px;stroke-linecap:round;stroke-linejoin:round;stroke-miterlimit:4;stroke-dasharray:none;stroke-opacity:1;"
     cx="179.57291"
     cy="54.29139"
     rx="1.2358511"
     ry="1.2264886"
     id="ellipse111" />
  <ellipse
     style="fill:#e2e2e2;fill-rule:evenodd;fill-opacity:1;stroke:#000000;stroke-width:0.018725017px;stroke-linecap:round;stroke-linejoin:round;stroke-miterlimit:4;stroke-dasharray:none;stroke-opacity:1;"
     cx="179.57291"
     cy="54.29139"
     rx="1.123501"
     ry="1.1141385"
     id="ellipse113" />
  <ellipse
     style="fill:none;stroke:#7f7f7f;stroke-width:0.018725017px;stroke-linecap:round;stroke-linejoin:round;stroke-miterlimit:4;stroke-dasharray:none;stroke-opacity:1;"
     cx="179.57291"
     cy="54.29139"
     rx="1.123501"
     ry="1.1141385"
     id="ellipse115" />
  <path
     style="fill:#494949;fill-rule:evenodd;fill-opacity:1;stroke:#161616;stroke-width:0.018725017px;stroke-linecap:round;stroke-linejoin:round;stroke-miterlimit:4;stroke-dasharray:none;stroke-opacity:1;"
     d="  M 178.71156,54.188192   L 178.67411,54.188192   L 178.67411,54.206955   L 178.63666,54.206955   L 178.63666,54.244482   L 178.61794,54.244482   L 178.61794,54.263245   L 178.59921,54.282008   L 178.59921,54.46964   L 178.61794,54.488404   L 178.61794,54.507167   L 178.63666,54.52593   L 178.63666,54.544693   L 178.67411,54.544693   L 178.67411,54.563457   L 179.46056,54.563457   L 179.46056,55.351512   L 179.47929,55.370275   L 179.47929,55.389038   L 179.53546,55.445328   L 179.55419,55.445328   L 179.57291,55.464091   L 179.72271,55.464091   L 179.74144,55.445328   L 179.76016,55.445328   L 179.77889,55.426565   L 179.79761,55.426565   L 179.79761,55.407802   L 179.81634,55.389038   L 179.81634,55.370275   L 179.83506,55.351512   L 179.83506,54.563457   L 180.62151,54.563457   L 180.64024,54.544693   L 180.65896,54.544693   L 180.67769,54.52593   L 180.69641,54.52593   L 180.69641,54.507167   L 180.71514,54.488404   L 180.71514,54.46964   L 180.73386,54.450877   L 180.73386,54.300771   L 180.71514,54.282008   L 180.71514,54.263245   L 180.65896,54.206955   L 180.64024,54.206955   L 180.62151,54.188192   L 179.83506,54.188192   L 179.83506,53.400137   L 179.81634,53.400137   L 179.81634,53.36261   L 179.79761,53.36261   L 179.77889,53.343847   L 179.76016,53.343847   L 179.74144,53.325084   L 179.55419,53.325084   L 179.53546,53.343847   L 179.51674,53.343847   L 179.51674,53.36261   L 179.47929,53.36261   L 179.47929,53.400137   L 179.46056,53.400137   L 179.46056,54.188192   L 178.73029,54.188192   L 178.71156,54.188192   z "
     id="path117" />
  <path
     style="fill:#666666;fill-rule:evenodd;fill-opacity:1;stroke:#000000;stroke-width:0.018725017px;stroke-linecap:round;stroke-linejoin:round;stroke-miterlimit:4;stroke-dasharray:none;stroke-opacity:1;"
     d="  M 4.8310544,56.627411   L 1.1984011,56.627411   L 1.142226,56.608648   L 1.067326,56.608648   L 0.84262577,56.533595   L 0.78645071,56.496069   L 0.73027566,56.477305   L 0.67410061,56.439779   L 0.63665058,56.421016   L 0.52430048,56.345963   L 0.48685044,56.308436   L 0.44940041,56.252147   L 0.39322536,56.21462   L 0.35577532,56.177094   L 0.28087526,56.064515   L 0.26215024,56.026988   L 0.2247002,55.970698   L 0.20597519,55.914409   L 0.16852515,55.858119   L 0.093625085,55.63296   L 0.093625085,55.557907   L 0.074900068,55.501618   L 0.074900068,53.250031   L 0.093625085,53.193741   L 0.093625085,53.118688   L 0.16852515,52.89353   L 0.20597519,52.83724   L 0.2247002,52.78095   L 0.26215024,52.724661   L 0.28087526,52.687134   L 0.35577532,52.574555   L 0.39322536,52.537028   L 0.44940041,52.499502   L 0.48685044,52.443212   L 0.52430048,52.405686   L 0.63665058,52.330633   L 0.67410061,52.31187   L 0.73027566,52.274343   L 0.78645071,52.25558   L 0.84262577,52.218054   L 1.067326,52.143001   L 1.142226,52.143001   L 1.1984011,52.124237   L 4.8310544,52.124237   L 4.8310544,56.608648   L 4.8310544,56.627411   z "
     id="path119" />
  <ellipse
     style="fill:#e2e2e2;fill-rule:evenodd;fill-opacity:1;stroke:#000000;stroke-width:0.018725017px;stroke-linecap:round;stroke-linejoin:round;stroke-miterlimit:4;stroke-dasharray:none;stroke-opacity:1;"
     cx="2.2001895"
     cy="54.300771"
     rx="1.638439"
     ry="1.6478015"
     id="ellipse121" />
  <ellipse
     style="fill:none;stroke:#000000;stroke-width:0.018725017px;stroke-linecap:round;stroke-linejoin:round;stroke-miterlimit:4;stroke-dasharray:none;stroke-opacity:1;"
     cx="2.2001895"
     cy="54.300771"
     rx="1.638439"
     ry="1.6478015"
     id="ellipse123" />
  <ellipse
     style="fill:#666666;fill-rule:evenodd;fill-opacity:1;stroke:#000000;stroke-width:0.018725017px;stroke-linecap:round;stroke-linejoin:round;stroke-miterlimit:4;stroke-dasharray:none;stroke-opacity:1;"
     cx="2.209552"
     cy="54.29139"
     rx="1.2358511"
     ry="1.2264886"
     id="ellipse125" />
  <ellipse
     style="fill:none;stroke:#000000;stroke-width:0.018725017px;stroke-linecap:round;stroke-linejoin:round;stroke-miterlimit:4;stroke-dasharray:none;stroke-opacity:1;"
     cx="2.209552"
     cy="54.29139"
     rx="1.2358511"
     ry="1.2264886"
     id="ellipse127" />
  <ellipse
     style="fill:#e2e2e2;fill-rule:evenodd;fill-opacity:1;stroke:#000000;stroke-width:0.018725017px;stroke-linecap:round;stroke-linejoin:round;stroke-miterlimit:4;stroke-dasharray:none;stroke-opacity:1;"
     cx="2.2001895"
     cy="54.29139"
     rx="1.1141385"
     ry="1.1141385"
     id="ellipse129" />
  <ellipse
     style="fill:none;stroke:#7f7f7f;stroke-width:0.018725017px;stroke-linecap:round;stroke-linejoin:round;stroke-miterlimit:4;stroke-dasharray:none;stroke-opacity:1;"
     cx="2.2001895"
     cy="54.29139"
     rx="1.1141385"
     ry="1.1141385"
     id="ellipse131" />
  <path
     style="fill:#494949;fill-rule:evenodd;fill-opacity:1;stroke:#161616;stroke-width:0.018725017px;stroke-linecap:round;stroke-linejoin:round;stroke-miterlimit:4;stroke-dasharray:none;stroke-opacity:1;"
     d="  M 3.2207029,54.188192   L 3.258153,54.188192   L 3.258153,54.206955   L 3.295603,54.206955   L 3.295603,54.225719   L 3.314328,54.244482   L 3.314328,54.263245   L 3.333053,54.282008   L 3.333053,54.46964   L 3.314328,54.488404   L 3.314328,54.52593   L 3.295603,54.52593   L 3.295603,54.544693   L 3.258153,54.544693   L 3.258153,54.563457   L 2.4717022,54.563457   L 2.4717022,55.351512   L 2.4529772,55.370275   L 2.4529772,55.389038   L 2.4342522,55.407802   L 2.4342522,55.426565   L 2.4155272,55.426565   L 2.3968022,55.445328   L 2.3780772,55.445328   L 2.3593521,55.464091   L 2.209552,55.464091   L 2.190827,55.445328   L 2.172102,55.445328   L 2.1159269,55.389038   L 2.1159269,55.370275   L 2.0972019,55.351512   L 2.0972019,54.563457   L 1.3107512,54.563457   L 1.2920262,54.544693   L 1.2733012,54.544693   L 1.2171261,54.488404   L 1.2171261,54.46964   L 1.1984011,54.450877   L 1.1984011,54.300771   L 1.2171261,54.282008   L 1.2171261,54.263245   L 1.2358511,54.244482   L 1.2545761,54.244482   L 1.2545761,54.225719   L 1.2733012,54.206955   L 1.2920262,54.206955   L 1.3107512,54.188192   L 2.0972019,54.188192   L 2.0972019,53.400137   L 2.1159269,53.400137   L 2.1159269,53.36261   L 2.153377,53.36261   L 2.153377,53.343847   L 2.172102,53.343847   L 2.190827,53.325084   L 2.3780772,53.325084   L 2.3968022,53.343847   L 2.4155272,53.343847   L 2.4342522,53.36261   L 2.4529772,53.36261   L 2.4529772,53.400137   L 2.4717022,53.400137   L 2.4717022,54.188192   L 3.2019779,54.188192   L 3.2207029,54.188192   z "
     id="path133" />
  <path
     style="fill:#000000;fill-rule:evenodd;fill-opacity:1;stroke:#000000;stroke-width:0.093625084px;stroke-linecap:round;stroke-linejoin:round;stroke-miterlimit:4;stroke-dasharray:none;stroke-opacity:1;"
     d="  M 177.10121,1.088267   L 4.8310544,1.088267   L 4.8310544,56.627411   L 177.10121,56.627411   L 177.10121,1.088267   z "
     id="path135" />
  <path
     style="fill:#494949;fill-rule:evenodd;fill-opacity:1;stroke:#000000;stroke-width:0.018725017px;stroke-linecap:round;stroke-linejoin:round;stroke-miterlimit:4;stroke-dasharray:none;stroke-opacity:1;"
     d="  M 81.903224,232.58893   L 81.903224,222.1941   L 15.841364,222.1941   L 15.841364,232.58893   L 81.903224,232.58893   z "
     id="path137" />
  <path
     style="fill:#666666;fill-rule:evenodd;fill-opacity:1;stroke:#000000;stroke-width:0.093625084px;stroke-linecap:round;stroke-linejoin:round;stroke-miterlimit:4;stroke-dasharray:none;stroke-opacity:1;"
     d="  M 175.97771,2.2891134   L 5.9545554,2.2891134   L 5.9545554,56.627411   L 175.97771,56.627411   L 175.97771,2.2891134   z "
     id="path139" />
  <path
     style="fill:#666666;fill-rule:evenodd;fill-opacity:1;stroke:#000000;stroke-width:0.018725017px;stroke-linecap:round;stroke-linejoin:round;stroke-miterlimit:4;stroke-dasharray:none;stroke-opacity:1;"
     d="  M 18.575217,1.088267   L 10.86051,1.088267   L 10.86051,2.2891134   L 18.575217,2.2891134   L 18.575217,1.088267   z "
     id="path141" />
  <path
     style="fill:#666666;fill-rule:evenodd;fill-opacity:1;stroke:#000000;stroke-width:0.018725017px;stroke-linecap:round;stroke-linejoin:round;stroke-miterlimit:4;stroke-dasharray:none;stroke-opacity:1;"
     d="  M 37.637284,1.088267   L 29.922577,1.088267   L 29.922577,2.2891134   L 37.637284,2.2891134   L 37.637284,1.088267   z "
     id="path143" />
  <path
     style="fill:#666666;fill-rule:evenodd;fill-opacity:1;stroke:#000000;stroke-width:0.018725017px;stroke-linecap:round;stroke-linejoin:round;stroke-miterlimit:4;stroke-dasharray:none;stroke-opacity:1;"
     d="  M 56.699352,1.088267   L 48.984645,1.088267   L 48.984645,2.2891134   L 56.699352,2.2891134   L 56.699352,1.088267   z "
     id="path145" />
  <path
     style="fill:#666666;fill-rule:evenodd;fill-opacity:1;stroke:#000000;stroke-width:0.018725017px;stroke-linecap:round;stroke-linejoin:round;stroke-miterlimit:4;stroke-dasharray:none;stroke-opacity:1;"
     d="  M 75.761419,1.088267   L 68.046712,1.088267   L 68.046712,2.2891134   L 75.761419,2.2891134   L 75.761419,1.088267   z "
     id="path147" />
  <path
     style="fill:#666666;fill-rule:evenodd;fill-opacity:1;stroke:#000000;stroke-width:0.018725017px;stroke-linecap:round;stroke-linejoin:round;stroke-miterlimit:4;stroke-dasharray:none;stroke-opacity:1;"
     d="  M 94.823486,1.088267   L 87.108779,1.088267   L 87.108779,2.2891134   L 94.823486,2.2891134   L 94.823486,1.088267   z "
     id="path149" />
  <path
     style="fill:#666666;fill-rule:evenodd;fill-opacity:1;stroke:#000000;stroke-width:0.018725017px;stroke-linecap:round;stroke-linejoin:round;stroke-miterlimit:4;stroke-dasharray:none;stroke-opacity:1;"
     d="  M 113.88555,1.088267   L 106.17085,1.088267   L 106.17085,2.2891134   L 113.88555,2.2891134   L 113.88555,1.088267   z "
     id="path151" />
  <path
     style="fill:#666666;fill-rule:evenodd;fill-opacity:1;stroke:#000000;stroke-width:0.018725017px;stroke-linecap:round;stroke-linejoin:round;stroke-miterlimit:4;stroke-dasharray:none;stroke-opacity:1;"
     d="  M 132.94762,1.088267   L 125.23291,1.088267   L 125.23291,2.2891134   L 132.94762,2.2891134   L 132.94762,1.088267   z "
     id="path153" />
  <path
     style="fill:#666666;fill-rule:evenodd;fill-opacity:1;stroke:#000000;stroke-width:0.018725017px;stroke-linecap:round;stroke-linejoin:round;stroke-miterlimit:4;stroke-dasharray:none;stroke-opacity:1;"
     d="  M 152.00969,1.088267   L 144.29498,1.088267   L 144.29498,2.2891134   L 152.00969,2.2891134   L 152.00969,1.088267   z "
     id="path155" />
  <path
     style="fill:#666666;fill-rule:evenodd;fill-opacity:1;stroke:#000000;stroke-width:0.018725017px;stroke-linecap:round;stroke-linejoin:round;stroke-miterlimit:4;stroke-dasharray:none;stroke-opacity:1;"
     d="  M 171.07176,1.088267   L 163.35705,1.088267   L 163.35705,2.2891134   L 171.07176,2.2891134   L 171.07176,1.088267   z "
     id="path157" />
  <path
     style="fill:#494949;fill-rule:evenodd;fill-opacity:1;stroke:#000000;stroke-width:0.018725017px;stroke-linecap:round;stroke-linejoin:round;stroke-miterlimit:4;stroke-dasharray:none;stroke-opacity:1;"
     d="  M 166.0909,232.58893   L 166.0909,222.1941   L 100.02904,222.1941   L 100.02904,232.58893   L 166.0909,232.58893   z "
     id="path159" />
  <path
     style="fill:#bfbfbf;fill-rule:evenodd;fill-opacity:1;stroke:#000000;stroke-width:0.018725017px;stroke-linecap:round;stroke-linejoin:round;stroke-miterlimit:4;stroke-dasharray:none;stroke-opacity:1;"
     d="  M 174.70441,220.73057   L 7.2278566,220.73057   L 7.2278566,222.17534   L 174.70441,222.17534   L 174.70441,220.73057   z "
     id="path161" />
  <path
     style="fill:#bfbfbf;fill-rule:evenodd;fill-opacity:1;stroke:#000000;stroke-width:0.018725017px;stroke-linecap:round;stroke-linejoin:round;stroke-miterlimit:4;stroke-dasharray:none;stroke-opacity:1;"
     d="  M 174.70441,63.701147   L 7.2278566,63.701147   L 7.2278566,56.627411   L 174.70441,56.627411   L 174.70441,63.701147   z "
     id="path163" />
  <ellipse
     style="fill:#e2e2e2;fill-rule:evenodd;fill-opacity:1;stroke:#000000;stroke-width:0.018725017px;stroke-linecap:round;stroke-linejoin:round;stroke-miterlimit:4;stroke-dasharray:none;stroke-opacity:1;"
     cx="86.097628"
     cy="227.31646"
     rx="1.6478015"
     ry="1.6478015"
     id="ellipse165" />
  <ellipse
     style="fill:none;stroke:#000000;stroke-width:0.018725017px;stroke-linecap:round;stroke-linejoin:round;stroke-miterlimit:4;stroke-dasharray:none;stroke-opacity:1;"
     cx="86.097628"
     cy="227.31646"
     rx="1.6478015"
     ry="1.6478015"
     id="ellipse167" />
  <ellipse
     style="fill:#666666;fill-rule:evenodd;fill-opacity:1;stroke:#000000;stroke-width:0.018725017px;stroke-linecap:round;stroke-linejoin:round;stroke-miterlimit:4;stroke-dasharray:none;stroke-opacity:1;"
     cx="86.097628"
     cy="227.30708"
     rx="1.2358511"
     ry="1.2264886"
     id="ellipse169" />
  <ellipse
     style="fill:none;stroke:#000000;stroke-width:0.018725017px;stroke-linecap:round;stroke-linejoin:round;stroke-miterlimit:4;stroke-dasharray:none;stroke-opacity:1;"
     cx="86.097628"
     cy="227.30708"
     rx="1.2358511"
     ry="1.2264886"
     id="ellipse171" />
  <ellipse
     style="fill:#e2e2e2;fill-rule:evenodd;fill-opacity:1;stroke:#000000;stroke-width:0.018725017px;stroke-linecap:round;stroke-linejoin:round;stroke-miterlimit:4;stroke-dasharray:none;stroke-opacity:1;"
     cx="86.088266"
     cy="227.30708"
     rx="1.1141385"
     ry="1.1141385"
     id="ellipse173" />
  <ellipse
     style="fill:none;stroke:#7f7f7f;stroke-width:0.018725017px;stroke-linecap:round;stroke-linejoin:round;stroke-miterlimit:4;stroke-dasharray:none;stroke-opacity:1;"
     cx="86.088266"
     cy="227.30708"
     rx="1.1141385"
     ry="1.1141385"
     id="ellipse175" />
  <path
     style="fill:#494949;fill-rule:evenodd;fill-opacity:1;stroke:#161616;stroke-width:0.018725017px;stroke-linecap:round;stroke-linejoin:round;stroke-miterlimit:4;stroke-dasharray:none;stroke-opacity:1;"
     d="  M 87.108779,227.20388   L 87.146229,227.20388   L 87.146229,227.22265   L 87.183679,227.22265   L 87.183679,227.24141   L 87.202404,227.26017   L 87.202404,227.27894   L 87.221129,227.2977   L 87.221129,227.48533   L 87.202404,227.5041   L 87.202404,227.54162   L 87.183679,227.54162   L 87.183679,227.56039   L 87.146229,227.56039   L 87.146229,227.57915   L 86.359778,227.57915   L 86.359778,228.3672   L 86.341053,228.38597   L 86.341053,228.40473   L 86.322328,228.42349   L 86.322328,228.44226   L 86.303603,228.44226   L 86.284878,228.46102   L 86.266153,228.46102   L 86.247428,228.47978   L 86.097628,228.47978   L 86.078903,228.46102   L 86.060178,228.46102   L 86.004003,228.40473   L 86.004003,228.38597   L 85.985278,228.3672   L 85.985278,227.57915   L 85.198827,227.57915   L 85.180102,227.56039   L 85.161377,227.56039   L 85.105202,227.5041   L 85.105202,227.48533   L 85.086477,227.46657   L 85.086477,227.31646   L 85.105202,227.2977   L 85.105202,227.27894   L 85.123927,227.26017   L 85.142652,227.26017   L 85.142652,227.24141   L 85.161377,227.22265   L 85.180102,227.22265   L 85.198827,227.20388   L 85.985278,227.20388   L 85.985278,226.41583   L 86.004003,226.41583   L 86.004003,226.3783   L 86.041453,226.3783   L 86.041453,226.35954   L 86.060178,226.35954   L 86.078903,226.34078   L 86.266153,226.34078   L 86.284878,226.35954   L 86.303603,226.35954   L 86.322328,226.3783   L 86.341053,226.3783   L 86.341053,226.41583   L 86.359778,226.41583   L 86.359778,227.20388   L 87.090054,227.20388   L 87.108779,227.20388   z "
     id="path177" />
  <text
     xml:space="preserve"
     style="font-size:0.937500px;font-style:normal;font-variant:normal;font-weight:400;font-stretch:Condensed;line-height:125.000000%;letter-spacing:0px;word-spacing:0px;fill:#000000;fill-opacity:1;stroke:none;font-family:Times New Roman;text-align:start;text-anchor:start;"
     transform="matrix(1.000000,-0.000000,0.000000,1.000000,44.123264,10.728185)"
     x="0.000000"
     y="0.000000"
     id="text183"><tspan
       x="0.000000"
       y="0.000000"
       id="tspan181"><tspan
         dx="0.000000"
         dy="0.000000"
         style="fill:#FFFFFF;font-size:0.937500px;font-style:normal;font-variant:normal;font-weight:400;font-stretch:Condensed;font-family:Times New Roman;"
         id="tspan179"></tspan></tspan></text>
  <path
     style="fill:#ffffff;fill-rule:evenodd;fill-opacity:1;stroke:#ffffff;stroke-width:0.027858192px;stroke-linecap:round;stroke-linejoin:round;stroke-miterlimit:4;stroke-dasharray:none;stroke-opacity:1;"
     d="  M 22.96774,7.607064   M 25.590599,7.607064   M 29.63122,7.607064   M 29.63122,7.607064   M 39.62644,9.8891832   M 12.97252,9.8891832   M 12.062597,10.891905   L 12.006881,10.891905   L 11.979023,10.864191   L 11.951165,10.864191   L 11.86759,10.781046   L 11.86759,10.753332   L 11.839732,10.725617   L 11.839732,7.5107033   L 11.86759,7.4829885   L 11.86759,7.4552737   L 11.895448,7.4275589   L 11.923307,7.4275589   L 11.923307,7.3998442   L 11.951165,7.3721294   L 11.979023,7.3721294   L 12.006881,7.3444146   L 15.795595,7.3444146   L 15.823454,7.3721294   L 15.851312,7.3721294   L 15.934886,7.4552737   L 15.934886,7.4829885   L 15.962744,7.5107033   L 15.962744,8.148143   L 15.934886,8.148143   L 15.934886,8.1204282   L 15.907028,8.1204282   L 15.907028,8.0927135   L 15.87917,8.0927135   L 15.87917,8.0649987   L 15.823454,8.0649987   L 15.823454,8.0372839   L 12.759052,8.0372839   L 12.759052,8.0649987   L 12.703336,8.0649987   L 12.703336,8.0927135   L 12.675478,8.0927135   L 12.675478,8.148143   L 12.64762,8.148143   L 12.64762,10.781046   L 12.675478,10.781046   L 12.675478,10.836476   L 12.703336,10.836476   L 12.703336,10.864191   L 12.731194,10.864191   L 12.731194,10.891905   L 12.090456,10.891905   L 12.062597,10.891905   z "
     id="path185" />
  <path
     style="fill:#ffffff;fill-rule:evenodd;fill-opacity:1;stroke:#ffffff;stroke-width:0.027858192px;stroke-linecap:round;stroke-linejoin:round;stroke-miterlimit:4;stroke-dasharray:none;stroke-opacity:1;"
     d="  M 15.684163,8.8410123   L 12.926201,8.8410123   L 12.926201,8.8132975   L 12.870485,8.8132975   L 12.870485,8.7855828   L 12.842627,8.7855828   L 12.842627,8.7301532   L 12.814769,8.7301532   L 12.814769,9.4230225   L 12.842627,9.4230225   L 12.842627,9.4784521   L 12.870485,9.4784521   L 12.870485,9.5061669   L 12.926201,9.5061669   L 12.926201,9.5338816   L 15.739879,9.5338816   L 15.795595,9.4784521   L 15.823454,9.4784521   L 15.87917,9.4230225   L 15.87917,9.3953078   L 15.907028,9.367593   L 15.907028,9.3398782   L 15.934886,9.3121634   L 15.934886,9.2567339   L 15.962744,9.2290191   L 15.962744,9.1458748   L 15.934886,9.11816   L 15.934886,9.0350157   L 15.87917,8.9795862   L 15.87917,8.9518714   L 15.851312,8.9241566   L 15.823454,8.9241566   L 15.823454,8.8964419   L 15.795595,8.8964419   L 15.767737,8.8687271   L 15.739879,8.8687271   L 15.712021,8.8410123   L 15.684163,8.8410123   z "
     id="path187" />
  <path
     style="fill:#ffffff;fill-rule:evenodd;fill-opacity:1;stroke:#ffffff;stroke-width:0.027858192px;stroke-linecap:round;stroke-linejoin:round;stroke-miterlimit:4;stroke-dasharray:none;stroke-opacity:1;"
     d="  M 22.119405,9.5338816   L 22.063689,9.5338816   L 22.063689,9.5061669   L 22.007972,9.5061669   L 22.007972,9.4784521   L 21.980114,9.4784521   L 21.980114,9.4230225   L 21.952256,9.4230225   L 21.952256,8.7301532   L 21.980114,8.7301532   L 21.980114,8.7855828   L 22.007972,8.7855828   L 22.007972,8.8132975   L 22.063689,8.8132975   L 22.063689,8.8410123   L 24.292344,8.8410123   L 24.292344,8.0372839   L 21.89654,8.0372839   L 21.89654,8.0649987   L 21.840823,8.0649987   L 21.840823,8.0927135   L 21.812965,8.0927135   L 21.812965,8.148143   L 21.785107,8.148143   L 21.785107,10.781046   L 21.812965,10.781046   L 21.812965,10.836476   L 21.840823,10.836476   L 21.840823,10.864191   L 21.868681,10.864191   L 21.868681,10.891905   L 21.144368,10.891905   L 21.11651,10.864191   L 21.088652,10.864191   L 21.005077,10.781046   L 21.005077,10.753332   L 20.977219,10.725617   L 20.977219,7.5107033   L 21.005077,7.4829885   L 21.005077,7.4552737   L 21.032936,7.4275589   L 21.060794,7.4275589   L 21.060794,7.3998442   L 21.088652,7.3721294   L 21.11651,7.3721294   L 21.144368,7.3444146   L 24.933083,7.3444146   L 24.960941,7.3721294   L 24.988799,7.3721294   L 25.072374,7.4552737   L 25.072374,7.4829885   L 25.100232,7.5107033   L 25.100232,9.2567339   L 25.072374,9.2844487   L 25.072374,9.3398782   L 25.044515,9.3398782   L 25.044515,9.367593   L 25.016657,9.3953078   L 25.016657,9.4230225   L 24.988799,9.4230225   L 24.988799,9.4507373   L 24.960941,9.4507373   L 24.960941,9.4784521   L 24.933083,9.4784521   L 24.933083,9.5061669   L 24.905224,9.5061669   L 24.877366,9.5338816   L 24.905224,9.5615964   L 24.933083,9.5615964   L 24.933083,9.5893112   L 24.960941,9.5893112   L 24.960941,9.6170259   L 24.988799,9.6170259   L 24.988799,9.6447407   L 25.016657,9.6447407   L 25.016657,9.6724555   L 25.044515,9.7001703   L 25.044515,9.727885   L 25.072374,9.727885   L 25.072374,9.7833146   L 25.100232,9.8110293   L 25.100232,10.781046   L 25.12809,10.781046   L 25.12809,10.836476   L 25.155948,10.836476   L 25.155948,10.864191   L 25.183806,10.864191   L 25.183806,10.891905   L 24.459493,10.891905   L 24.431635,10.864191   L 24.403777,10.864191   L 24.320202,10.781046   L 24.320202,10.753332   L 24.292344,10.725617   L 24.292344,9.5338816   L 22.147263,9.5338816   L 22.119405,9.5338816   z "
     id="path189" />
  <path
     style="fill:#ffffff;fill-rule:evenodd;fill-opacity:1;stroke:#ffffff;stroke-width:0.027858192px;stroke-linecap:round;stroke-linejoin:round;stroke-miterlimit:4;stroke-dasharray:none;stroke-opacity:1;"
     d="  M 26.548858,8.0372839   L 25.713112,8.0372839   L 25.685254,8.0095692   L 25.657396,8.0095692   L 25.573821,7.9264248   L 25.573821,7.8987101   L 25.545963,7.8709953   L 25.545963,7.5107033   L 25.573821,7.4829885   L 25.573821,7.4552737   L 25.601679,7.4275589   L 25.629537,7.4275589   L 25.629537,7.3998442   L 25.657396,7.3721294   L 25.685254,7.3721294   L 25.713112,7.3444146   L 29.501826,7.3444146   L 29.529684,7.3721294   L 29.557543,7.3721294   L 29.641117,7.4552737   L 29.641117,7.4829885   L 29.668975,7.5107033   L 29.668975,8.148143   L 29.641117,8.148143   L 29.641117,8.1204282   L 29.613259,8.1204282   L 29.613259,8.0927135   L 29.585401,8.0927135   L 29.585401,8.0649987   L 29.529684,8.0649987   L 29.529684,8.0372839   L 27.468178,8.0372839   L 27.468178,8.0649987   L 27.412462,8.0649987   L 27.412462,8.0927135   L 27.384604,8.0927135   L 27.384604,8.148143   L 27.356745,8.148143   L 27.356745,10.781046   L 27.384604,10.781046   L 27.384604,10.836476   L 27.412462,10.836476   L 27.412462,10.864191   L 27.44032,10.864191   L 27.44032,10.891905   L 26.716007,10.891905   L 26.688149,10.864191   L 26.660291,10.864191   L 26.576716,10.781046   L 26.576716,10.753332   L 26.548858,10.725617   L 26.548858,8.1204282   L 26.548858,8.0372839   z "
     id="path191" />
  <path
     style="fill:#ffffff;fill-rule:evenodd;fill-opacity:1;stroke:#ffffff;stroke-width:0.027858192px;stroke-linecap:round;stroke-linejoin:round;stroke-miterlimit:4;stroke-dasharray:none;stroke-opacity:1;"
     d="  M 30.922594,10.697902   L 30.922594,10.781046   L 30.950452,10.781046   L 30.950452,10.836476   L 30.97831,10.836476   L 30.97831,10.864191   L 31.006169,10.864191   L 31.006169,10.891905   L 30.281856,10.891905   L 30.253997,10.864191   L 30.226139,10.864191   L 30.142565,10.781046   L 30.142565,10.753332   L 30.114706,10.725617   L 30.114706,7.4552737   L 30.086848,7.4552737   L 30.086848,7.3998442   L 30.05899,7.3998442   L 30.05899,7.3721294   L 30.031132,7.3721294   L 30.031132,7.3444146   L 30.755445,7.3444146   L 30.783303,7.3721294   L 30.811161,7.3721294   L 30.894736,7.4552737   L 30.894736,7.4829885   L 30.922594,7.5107033   L 30.922594,10.670187   L 30.922594,10.697902   z "
     id="path193" />
  <path
     style="fill:#ffffff;fill-rule:evenodd;fill-opacity:1;stroke:#ffffff;stroke-width:0.027858192px;stroke-linecap:round;stroke-linejoin:round;stroke-miterlimit:4;stroke-dasharray:none;stroke-opacity:1;"
     d="  M 34.878457,8.0372839   L 32.482653,8.0372839   L 32.482653,8.0649987   L 32.426936,8.0649987   L 32.426936,8.0927135   L 32.399078,8.0927135   L 32.399078,8.148143   L 32.37122,8.148143   L 32.37122,10.781046   L 32.399078,10.781046   L 32.399078,10.836476   L 32.426936,10.836476   L 32.426936,10.864191   L 32.454795,10.864191   L 32.454795,10.891905   L 31.730482,10.891905   L 31.702623,10.864191   L 31.674765,10.864191   L 31.591191,10.781046   L 31.591191,10.753332   L 31.563332,10.725617   L 31.563332,7.5107033   L 31.591191,7.4829885   L 31.591191,7.4552737   L 31.619049,7.4275589   L 31.646907,7.4275589   L 31.646907,7.3998442   L 31.674765,7.3721294   L 31.702623,7.3721294   L 31.730482,7.3444146   L 35.519196,7.3444146   L 35.547054,7.3721294   L 35.574912,7.3721294   L 35.658487,7.4552737   L 35.658487,7.4829885   L 35.686345,7.5107033   L 35.686345,10.781046   L 35.714203,10.781046   L 35.714203,10.836476   L 35.742061,10.836476   L 35.742061,10.864191   L 35.76992,10.864191   L 35.76992,10.891905   L 35.045607,10.891905   L 35.017748,10.864191   L 34.98989,10.864191   L 34.906316,10.781046   L 34.906316,10.753332   L 34.878457,10.725617   L 34.878457,8.1204282   L 34.878457,8.0372839   z "
     id="path195" />
  <path
     style="fill:#ffffff;fill-rule:evenodd;fill-opacity:1;stroke:#ffffff;stroke-width:0.027858192px;stroke-linecap:round;stroke-linejoin:round;stroke-miterlimit:4;stroke-dasharray:none;stroke-opacity:1;"
     d="  M 39.781499,8.8410123   L 37.218546,8.8410123   L 37.190687,8.8132975   L 37.162829,8.8132975   L 37.162829,8.7855828   L 37.134971,8.7855828   L 37.134971,8.7301532   L 37.107113,8.7301532   L 37.107113,9.4230225   L 37.134971,9.4230225   L 37.134971,9.4784521   L 37.162829,9.4784521   L 37.162829,9.5061669   L 37.190687,9.5061669   L 37.218546,9.5338816   L 39.809358,9.5338816   L 39.865074,9.4784521   L 39.892932,9.4784521   L 39.948648,9.4230225   L 39.948648,9.3953078   L 39.976507,9.367593   L 39.976507,9.3398782   L 40.004365,9.3121634   L 40.004365,9.2567339   L 40.032223,9.2290191   L 40.032223,9.11816   L 40.004365,9.0904453   L 40.004365,9.007301   L 39.976507,9.007301   L 39.976507,8.9795862   L 39.892932,8.8964419   L 39.865074,8.8964419   L 39.865074,8.8687271   L 39.837216,8.8687271   L 39.809358,8.8410123   L 39.781499,8.8410123   z "
     id="path197" />
  <path
     style="fill:#ffffff;fill-rule:evenodd;fill-opacity:1;stroke:#ffffff;stroke-width:0.027858192px;stroke-linecap:round;stroke-linejoin:round;stroke-miterlimit:4;stroke-dasharray:none;stroke-opacity:1;"
     d="  M 41.703715,8.0372839   L 40.867969,8.0372839   L 40.840111,8.0095692   L 40.812252,8.0095692   L 40.728678,7.9264248   L 40.728678,7.8987101   L 40.70082,7.8709953   L 40.70082,7.5107033   L 40.728678,7.4829885   L 40.728678,7.4552737   L 40.756536,7.4275589   L 40.784394,7.4275589   L 40.784394,7.3998442   L 40.812252,7.3721294   L 40.840111,7.3721294   L 40.867969,7.3444146   L 44.656683,7.3444146   L 44.684541,7.3721294   L 44.712399,7.3721294   L 44.795974,7.4552737   L 44.795974,7.4829885   L 44.823832,7.5107033   L 44.823832,8.148143   L 44.795974,8.148143   L 44.795974,8.1204282   L 44.768116,8.1204282   L 44.768116,8.0927135   L 44.740258,8.0927135   L 44.740258,8.0649987   L 44.684541,8.0649987   L 44.684541,8.0372839   L 42.623035,8.0372839   L 42.623035,8.0649987   L 42.567319,8.0649987   L 42.567319,8.0927135   L 42.53946,8.0927135   L 42.53946,8.148143   L 42.511602,8.148143   L 42.511602,10.781046   L 42.53946,10.781046   L 42.53946,10.836476   L 42.567319,10.836476   L 42.567319,10.864191   L 42.595177,10.864191   L 42.595177,10.891905   L 41.870864,10.891905   L 41.843006,10.864191   L 41.815147,10.864191   L 41.731573,10.781046   L 41.731573,10.753332   L 41.703715,10.725617   L 41.703715,8.1204282   L 41.703715,8.0372839   z "
     id="path199" />
  <path
     style="fill:#ffffff;fill-rule:evenodd;fill-opacity:1;stroke:#ffffff;stroke-width:0.027858192px;stroke-linecap:round;stroke-linejoin:round;stroke-miterlimit:4;stroke-dasharray:none;stroke-opacity:1;"
     d="  M 40.060081,10.199036   L 40.115798,10.199036   L 40.115798,10.171321   L 40.171514,10.171321   L 40.171514,10.143607   L 40.199372,10.143607   L 40.199372,10.115892   L 40.22723,10.115892   L 40.22723,10.088177   L 40.255089,10.088177   L 40.255089,10.725617   L 40.22723,10.753332   L 40.22723,10.781046   L 40.199372,10.808761   L 40.199372,10.836476   L 40.171514,10.836476   L 40.143656,10.864191   L 40.115798,10.864191   L 40.087939,10.891905   L 36.299225,10.891905   L 36.271367,10.864191   L 36.243509,10.864191   L 36.159934,10.781046   L 36.159934,10.753332   L 36.132076,10.725617   L 36.132076,7.5107033   L 36.159934,7.4829885   L 36.159934,7.4552737   L 36.187792,7.4275589   L 36.215651,7.4275589   L 36.215651,7.3998442   L 36.243509,7.3721294   L 36.271367,7.3721294   L 36.299225,7.3444146   L 40.087939,7.3444146   L 40.115798,7.3721294   L 40.143656,7.3721294   L 40.22723,7.4552737   L 40.22723,7.4829885   L 40.255089,7.5107033   L 40.255089,8.148143   L 40.22723,8.148143   L 40.22723,8.1204282   L 40.199372,8.1204282   L 40.199372,8.0927135   L 40.171514,8.0927135   L 40.171514,8.0649987   L 40.115798,8.0649987   L 40.115798,8.0372839   L 37.051396,8.0372839   L 37.051396,8.0649987   L 36.99568,8.0649987   L 36.99568,8.0927135   L 36.967822,8.0927135   L 36.967822,8.148143   L 36.939964,8.148143   L 36.939964,10.199036   L 40.032223,10.199036   L 40.060081,10.199036   z "
     id="path201" />
  <path
     style="fill:#ed3440;fill-rule:evenodd;fill-opacity:1;stroke:#ed3440;stroke-width:0.027858192px;stroke-linecap:round;stroke-linejoin:round;stroke-miterlimit:4;stroke-dasharray:none;stroke-opacity:1;"
     d="  M 17.801385,9.8664589   L 17.801385,10.891905   L 19.138578,10.891905   L 19.138578,9.8664589   L 17.801385,9.8664589   z "
     id="path203" />
  <path
     style="fill:#ed3440;fill-rule:evenodd;fill-opacity:1;stroke:#ed3440;stroke-width:0.027858192px;stroke-linecap:round;stroke-linejoin:round;stroke-miterlimit:4;stroke-dasharray:none;stroke-opacity:1;"
     d="  M 16.408476,8.6192941   L 17.550661,8.6192941   L 17.550661,9.6170259   L 16.408476,9.6170259   L 16.408476,8.6192941   z "
     id="path205" />
  <path
     style="fill:#ed3440;fill-rule:evenodd;fill-opacity:1;stroke:#ed3440;stroke-width:0.027858192px;stroke-linecap:round;stroke-linejoin:round;stroke-miterlimit:4;stroke-dasharray:none;stroke-opacity:1;"
     d="  M 19.389302,9.8664589   L 19.389302,10.891905   L 19.807175,10.891905   L 19.835033,10.864191   L 19.946466,10.864191   L 19.974324,10.836476   L 20.030041,10.836476   L 20.085757,10.808761   L 20.113615,10.781046   L 20.169332,10.753332   L 20.225048,10.697902   L 20.280764,10.670187   L 20.308623,10.642473   L 20.336481,10.587043   L 20.364339,10.559328   L 20.475772,10.33761   L 20.475772,10.28218   L 20.50363,10.199036   L 20.50363,10.115892   L 20.531488,10.032748   L 20.531488,9.8664589   L 19.41716,9.8664589   L 19.389302,9.8664589   z "
     id="path207" />
  <path
     style="fill:#ed3440;fill-rule:evenodd;fill-opacity:1;stroke:#ed3440;stroke-width:0.027858192px;stroke-linecap:round;stroke-linejoin:round;stroke-miterlimit:4;stroke-dasharray:none;stroke-opacity:1;"
     d="  M 19.389302,8.6192941   L 20.531488,8.6192941   L 20.531488,9.6170259   L 19.389302,9.6170259   L 19.389302,8.6192941   z "
     id="path209" />
  <path
     style="fill:#ed3440;fill-rule:evenodd;fill-opacity:1;stroke:#ed3440;stroke-width:0.027858192px;stroke-linecap:round;stroke-linejoin:round;stroke-miterlimit:4;stroke-dasharray:none;stroke-opacity:1;"
     d="  M 17.550661,9.8664589   L 17.550661,10.891905   L 17.132789,10.891905   L 17.10493,10.864191   L 16.993498,10.864191   L 16.965639,10.836476   L 16.909923,10.836476   L 16.854207,10.808761   L 16.826348,10.781046   L 16.770632,10.753332   L 16.714916,10.697902   L 16.659199,10.670187   L 16.631341,10.642473   L 16.603483,10.587043   L 16.575625,10.559328   L 16.464192,10.33761   L 16.464192,10.28218   L 16.436334,10.199036   L 16.436334,10.115892   L 16.408476,10.032748   L 16.408476,9.8664589   L 17.522803,9.8664589   L 17.550661,9.8664589   z "
     id="path211" />
  <path
     style="fill:#ed3440;fill-rule:evenodd;fill-opacity:1;stroke:#ed3440;stroke-width:0.027858192px;stroke-linecap:round;stroke-linejoin:round;stroke-miterlimit:4;stroke-dasharray:none;stroke-opacity:1;"
     d="  M 17.801385,7.3444146   L 17.801385,8.3698612   L 19.138578,8.3698612   L 19.138578,7.3444146   L 17.801385,7.3444146   z "
     id="path213" />
  <path
     style="fill:#ed3440;fill-rule:evenodd;fill-opacity:1;stroke:#ed3440;stroke-width:0.027858192px;stroke-linecap:round;stroke-linejoin:round;stroke-miterlimit:4;stroke-dasharray:none;stroke-opacity:1;"
     d="  M 19.389302,8.3698612   L 19.389302,7.3444146   L 19.807175,7.3444146   L 19.835033,7.3721294   L 19.946466,7.3721294   L 19.974324,7.3998442   L 20.030041,7.3998442   L 20.085757,7.4275589   L 20.113615,7.4552737   L 20.169332,7.4829885   L 20.225048,7.538418   L 20.280764,7.5661328   L 20.308623,7.5938476   L 20.336481,7.6492771   L 20.364339,7.6769919   L 20.475772,7.8987101   L 20.475772,7.9541396   L 20.50363,8.0372839   L 20.50363,8.1204282   L 20.531488,8.2035726   L 20.531488,8.3698612   L 19.41716,8.3698612   L 19.389302,8.3698612   z "
     id="path215" />
  <path
     style="fill:#ed3440;fill-rule:evenodd;fill-opacity:1;stroke:#ed3440;stroke-width:0.027858192px;stroke-linecap:round;stroke-linejoin:round;stroke-miterlimit:4;stroke-dasharray:none;stroke-opacity:1;"
     d="  M 17.550661,8.3698612   L 17.550661,7.3444146   L 17.132789,7.3444146   L 17.10493,7.3721294   L 16.993498,7.3721294   L 16.965639,7.3998442   L 16.909923,7.3998442   L 16.854207,7.4275589   L 16.826348,7.4552737   L 16.770632,7.4829885   L 16.714916,7.538418   L 16.659199,7.5661328   L 16.631341,7.5938476   L 16.603483,7.6492771   L 16.575625,7.6769919   L 16.464192,7.8987101   L 16.464192,7.9541396   L 16.436334,8.0372839   L 16.436334,8.1204282   L 16.408476,8.2035726   L 16.408476,8.3698612   L 17.522803,8.3698612   L 17.550661,8.3698612   z "
     id="path217" />
  <text
     xml:space="preserve"
     style="font-size:2.375000px;font-style:normal;font-variant:normal;font-weight:400;font-stretch:Normal;line-height:125.000000%;letter-spacing:0px;word-spacing:0px;fill:#000000;fill-opacity:1;stroke:none;font-family:Arial;text-align:start;text-anchor:start;"
     transform="matrix(1.000000,-0.000000,0.000000,1.000000,166.612041,57.424653)"
     x="0.000000"
     y="1.731375"
     id="text223"><tspan
       x="0.000000"
       y="1.731375"
       id="tspan221"><tspan
         dx="0.000000"
         dy="0.000000"
         style="fill:#000000;font-size:2.375000px;font-style:normal;font-variant:normal;font-weight:400;font-stretch:Normal;font-family:Arial;"
         id="tspan219">14</tspan></tspan></text>
  <text
     xml:space="preserve"
     style="font-size:2.375000px;font-style:normal;font-variant:normal;font-weight:400;font-stretch:Normal;line-height:125.000000%;letter-spacing:0px;word-spacing:0px;fill:#000000;fill-opacity:1;stroke:none;font-family:Arial;text-align:start;text-anchor:start;"
     transform="matrix(1.000000,-0.000000,0.000000,1.000000,166.612041,57.424653)"
     x="-11.911562"
     y="1.731375"
     id="text229"><tspan
       x="-11.911562"
       y="1.731375"
       id="tspan227"><tspan
         dx="0.000000"
         dy="0.000000"
         style="fill:#000000;font-size:2.375000px;font-style:normal;font-variant:normal;font-weight:400;font-stretch:Normal;font-family:Arial;"
         id="tspan225">12</tspan></tspan></text>
  <text
     xml:space="preserve"
     style="font-size:2.375000px;font-style:normal;font-variant:normal;font-weight:400;font-stretch:Normal;line-height:125.000000%;letter-spacing:0px;word-spacing:0px;fill:#000000;fill-opacity:1;stroke:none;font-family:Arial;text-align:start;text-anchor:start;"
     transform="matrix(1.000000,-0.000000,0.000000,1.000000,166.612041,57.424653)"
     x="-23.898040"
     y="1.731375"
     id="text235"><tspan
       x="-23.898040"
       y="1.731375"
       id="tspan233"><tspan
         dx="0.000000"
         dy="0.000000"
         style="fill:#000000;font-size:2.375000px;font-style:normal;font-variant:normal;font-weight:400;font-stretch:Normal;font-family:Arial;"
         id="tspan231">10</tspan></tspan></text>
  <text
     xml:space="preserve"
     style="font-size:2.375000px;font-style:normal;font-variant:normal;font-weight:400;font-stretch:Normal;line-height:125.000000%;letter-spacing:0px;word-spacing:0px;fill:#000000;fill-opacity:1;stroke:none;font-family:Arial;text-align:start;text-anchor:start;"
     transform="matrix(1.000000,-0.000000,0.000000,1.000000,166.612041,57.424653)"
     x="-35.135363"
     y="1.731375"
     id="text241"><tspan
       x="-35.135363"
       y="1.731375"
       id="tspan239"><tspan
         dx="0.000000"
         dy="0.000000"
         style="fill:#000000;font-size:2.375000px;font-style:normal;font-variant:normal;font-weight:400;font-stretch:Normal;font-family:Arial;"
         id="tspan237">8</tspan></tspan></text>
  <text
     xml:space="preserve"
     style="font-size:2.375000px;font-style:normal;font-variant:normal;font-weight:400;font-stretch:Normal;line-height:125.000000%;letter-spacing:0px;word-spacing:0px;fill:#000000;fill-opacity:1;stroke:none;font-family:Arial;text-align:start;text-anchor:start;"
     transform="matrix(1.000000,-0.000000,0.000000,1.000000,166.612041,57.424653)"
     x="-47.121841"
     y="1.731375"
     id="text247"><tspan
       x="-47.121841"
       y="1.731375"
       id="tspan245"><tspan
         dx="0.000000"
         dy="0.000000"
         style="fill:#000000;font-size:2.375000px;font-style:normal;font-variant:normal;font-weight:400;font-stretch:Normal;font-family:Arial;"
         id="tspan243">6</tspan></tspan></text>
  <text
     xml:space="preserve"
     style="font-size:2.375000px;font-style:normal;font-variant:normal;font-weight:400;font-stretch:Normal;line-height:125.000000%;letter-spacing:0px;word-spacing:0px;fill:#000000;fill-opacity:1;stroke:none;font-family:Arial;text-align:start;text-anchor:start;"
     transform="matrix(1.000000,-0.000000,0.000000,1.000000,166.612041,57.424653)"
     x="-59.033403"
     y="1.806440"
     id="text253"><tspan
       x="-59.033403"
       y="1.806440"
       id="tspan251"><tspan
         dx="0.000000"
         dy="0.000000"
         style="fill:#000000;font-size:2.375000px;font-style:normal;font-variant:normal;font-weight:400;font-stretch:Normal;font-family:Arial;"
         id="tspan249">4</tspan></tspan></text>
  <text
     xml:space="preserve"
     style="font-size:2.375000px;font-style:normal;font-variant:normal;font-weight:400;font-stretch:Normal;line-height:125.000000%;letter-spacing:0px;word-spacing:0px;fill:#000000;fill-opacity:1;stroke:none;font-family:Arial;text-align:start;text-anchor:start;"
     transform="matrix(1.000000,-0.000000,0.000000,1.000000,166.612041,57.424653)"
     x="-70.944965"
     y="1.806440"
     id="text259"><tspan
       x="-70.944965"
       y="1.806440"
       id="tspan257"><tspan
         dx="0.000000"
         dy="0.000000"
         style="fill:#000000;font-size:2.375000px;font-style:normal;font-variant:normal;font-weight:400;font-stretch:Normal;font-family:Arial;"
         id="tspan255">2</tspan></tspan></text>
  <text
     xml:space="preserve"
     style="font-size:2.375000px;font-style:normal;font-variant:normal;font-weight:400;font-stretch:Normal;line-height:125.000000%;letter-spacing:0px;word-spacing:0px;fill:#000000;fill-opacity:1;stroke:none;font-family:Arial;text-align:start;text-anchor:start;"
     transform="matrix(1.000000,-0.000000,0.000000,1.000000,166.612041,57.424653)"
     x="-82.931443"
     y="1.731375"
     id="text265"><tspan
       x="-82.931443"
       y="1.731375"
       id="tspan263"><tspan
         dx="0.000000"
         dy="0.000000"
         style="fill:#000000;font-size:2.375000px;font-style:normal;font-variant:normal;font-weight:400;font-stretch:Normal;font-family:Arial;"
         id="tspan261">1</tspan></tspan></text>
  <text
     xml:space="preserve"
     style="font-size:2.375000px;font-style:normal;font-variant:normal;font-weight:400;font-stretch:Normal;line-height:125.000000%;letter-spacing:0px;word-spacing:0px;fill:#000000;fill-opacity:1;stroke:none;font-family:Arial;text-align:start;text-anchor:start;"
     transform="matrix(1.000000,-0.000000,0.000000,1.000000,166.612041,57.424653)"
     x="-94.843005"
     y="1.731375"
     id="text271"><tspan
       x="-94.843005"
       y="1.731375"
       id="tspan269"><tspan
         dx="0.000000"
         dy="0.000000"
         style="fill:#000000;font-size:2.375000px;font-style:normal;font-variant:normal;font-weight:400;font-stretch:Normal;font-family:Arial;"
         id="tspan267">3</tspan></tspan></text>
  <text
     xml:space="preserve"
     style="font-size:2.375000px;font-style:normal;font-variant:normal;font-weight:400;font-stretch:Normal;line-height:125.000000%;letter-spacing:0px;word-spacing:0px;fill:#000000;fill-opacity:1;stroke:none;font-family:Arial;text-align:start;text-anchor:start;"
     transform="matrix(1.000000,-0.000000,0.000000,1.000000,166.612041,57.424653)"
     x="-106.754567"
     y="1.731375"
     id="text277"><tspan
       x="-106.754567"
       y="1.731375"
       id="tspan275"><tspan
         dx="0.000000"
         dy="0.000000"
         style="fill:#000000;font-size:2.375000px;font-style:normal;font-variant:normal;font-weight:400;font-stretch:Normal;font-family:Arial;"
         id="tspan273">5</tspan></tspan></text>
  <text
     xml:space="preserve"
     style="font-size:2.375000px;font-style:normal;font-variant:normal;font-weight:400;font-stretch:Normal;line-height:125.000000%;letter-spacing:0px;word-spacing:0px;fill:#000000;fill-opacity:1;stroke:none;font-family:Arial;text-align:start;text-anchor:start;"
     transform="matrix(1.000000,-0.000000,0.000000,1.000000,166.612041,57.424653)"
     x="-118.741045"
     y="1.731375"
     id="text283"><tspan
       x="-118.741045"
       y="1.731375"
       id="tspan281"><tspan
         dx="0.000000"
         dy="0.000000"
         style="fill:#000000;font-size:2.375000px;font-style:normal;font-variant:normal;font-weight:400;font-stretch:Normal;font-family:Arial;"
         id="tspan279">7</tspan></tspan></text>
  <text
     xml:space="preserve"
     style="font-size:2.375000px;font-style:normal;font-variant:normal;font-weight:400;font-stretch:Normal;line-height:125.000000%;letter-spacing:0px;word-spacing:0px;fill:#000000;fill-opacity:1;stroke:none;font-family:Arial;text-align:start;text-anchor:start;"
     transform="matrix(1.000000,-0.000000,0.000000,1.000000,166.612041,57.424653)"
     x="-130.652607"
     y="1.731375"
     id="text289"><tspan
       x="-130.652607"
       y="1.731375"
       id="tspan287"><tspan
         dx="0.000000"
         dy="0.000000"
         style="fill:#000000;font-size:2.375000px;font-style:normal;font-variant:normal;font-weight:400;font-stretch:Normal;font-family:Arial;"
         id="tspan285">9</tspan></tspan></text>
  <text
     xml:space="preserve"
     style="font-size:2.375000px;font-style:normal;font-variant:normal;font-weight:400;font-stretch:Normal;line-height:125.000000%;letter-spacing:0px;word-spacing:0px;fill:#000000;fill-opacity:1;stroke:none;font-family:Arial;text-align:start;text-anchor:start;"
     transform="matrix(1.000000,-0.000000,0.000000,1.000000,166.612041,57.424653)"
     x="-143.313325"
     y="1.731375"
     id="text295"><tspan
       x="-143.313325"
       y="1.731375"
       id="tspan293"><tspan
         dx="0.000000"
         dy="0.000000"
         style="fill:#000000;font-size:2.375000px;font-style:normal;font-variant:normal;font-weight:400;font-stretch:Normal;font-family:Arial;"
         id="tspan291">11</tspan></tspan></text>
  <text
     xml:space="preserve"
     style="font-size:2.375000px;font-style:normal;font-variant:normal;font-weight:400;font-stretch:Normal;line-height:125.000000%;letter-spacing:0px;word-spacing:0px;fill:#000000;fill-opacity:1;stroke:none;font-family:Arial;text-align:start;text-anchor:start;"
     transform="matrix(1.000000,-0.000000,0.000000,1.000000,166.612041,57.424653)"
     x="-155.224887"
     y="1.731375"
     id="text301"><tspan
       x="-155.224887"
       y="1.731375"
       id="tspan299"><tspan
         dx="0.000000"
         dy="0.000000"
         style="fill:#000000;font-size:2.375000px;font-style:normal;font-variant:normal;font-weight:400;font-stretch:Normal;font-family:Arial;"
         id="tspan297">13</tspan></tspan></text>
  <ellipse
     style="fill:#bfbfbf;fill-rule:evenodd;fill-opacity:1;stroke:#000000;stroke-width:0.028256167px;stroke-linecap:round;stroke-linejoin:round;stroke-miterlimit:4;stroke-dasharray:none;stroke-opacity:1;"
     cx="3.546149"
     cy="198.30816"
     rx="1.5117049"
     ry="1.4975768"
     id="ellipse303" />
  <ellipse
     style="fill:none;stroke:#494949;stroke-width:0.028256167px;stroke-linecap:round;stroke-linejoin:round;stroke-miterlimit:4;stroke-dasharray:none;stroke-opacity:1;"
     cx="3.546149"
     cy="198.30816"
     rx="1.5117049"
     ry="1.4975768"
     id="ellipse305" />
  <ellipse
     style="fill:#000000;fill-rule:evenodd;fill-opacity:1;stroke:#000000;stroke-width:0.028256167px;stroke-linecap:round;stroke-linejoin:round;stroke-miterlimit:4;stroke-dasharray:none;stroke-opacity:1;"
     cx="3.546149"
     cy="198.30816"
     rx="0.83355693"
     ry="0.81942884"
     id="ellipse307" />
  <ellipse
     style="fill:none;stroke:#494949;stroke-width:0.028256167px;stroke-linecap:round;stroke-linejoin:round;stroke-miterlimit:4;stroke-dasharray:none;stroke-opacity:1;"
     cx="3.546149"
     cy="198.30816"
     rx="0.83355693"
     ry="0.81942884"
     id="ellipse309" />
  <text
     xml:space="preserve"
     style="font-size:3.062500px;font-style:normal;font-variant:normal;font-weight:400;font-stretch:Normal;line-height:125.000000%;letter-spacing:0px;word-spacing:0px;fill:#000000;fill-opacity:1;stroke:none;font-family:Arial;text-align:start;text-anchor:start;"
     transform="matrix(1.000000,-0.000000,0.000000,1.000000,148.332662,48.116605)"
     x="0.000000"
     y="2.232563"
     id="text315"><tspan
       x="0.000000"
       y="2.232563"
       id="tspan313"><tspan
         dx="0.000000"
         dy="0.000000"
         style="fill:#FFFFFF;font-size:3.062500px;font-style:normal;font-variant:normal;font-weight:400;font-stretch:Normal;font-family:Arial;"
         id="tspan311">FortiGate 5144C</tspan></tspan></text>
  <path
     style="fill:none;stroke:#000000;stroke-width:0.018634891px;stroke-linecap:round;stroke-linejoin:round;stroke-miterlimit:4;stroke-dasharray:none;stroke-opacity:1;"
     d="  M 90.155605,185.89505   L 90.155605,60.726843   L 79.105114,60.726843   L 79.105114,185.89505   L 90.155605,185.89505   z "
     id="path317" />
  <path
     style="fill:none;stroke:#000000;stroke-width:0.018634891px;stroke-linecap:round;stroke-linejoin:round;stroke-miterlimit:4;stroke-dasharray:none;stroke-opacity:1;"
     d="  M 102.15648,185.89505   L 102.15648,60.726843   L 91.105984,60.726843   L 91.105984,185.89505   L 102.15648,185.89505   z "
     id="path319" />
  <path
     style="fill:none;stroke:#000000;stroke-width:0.018634891px;stroke-linecap:round;stroke-linejoin:round;stroke-miterlimit:4;stroke-dasharray:none;stroke-opacity:1;"
     d="  M 78.247909,185.89505   L 78.247909,60.726843   L 67.197419,60.726843   L 67.197419,185.89505   L 78.247909,185.89505   z "
     id="path321" />
  <path
     style="fill:none;stroke:#000000;stroke-width:0.018634891px;stroke-linecap:round;stroke-linejoin:round;stroke-miterlimit:4;stroke-dasharray:none;stroke-opacity:1;"
     d="  M 114.06417,185.89505   L 114.06417,60.726843   L 103.01368,60.726843   L 103.01368,185.89505   L 114.06417,185.89505   z "
     id="path323" />
  <path
     style="fill:none;stroke:#000000;stroke-width:0.018634891px;stroke-linecap:round;stroke-linejoin:round;stroke-miterlimit:4;stroke-dasharray:none;stroke-opacity:1;"
     d="  M 66.340214,185.89505   L 66.340214,60.726843   L 55.289723,60.726843   L 55.289723,185.89505   L 66.340214,185.89505   z "
     id="path325" />
  <path
     style="fill:none;stroke:#000000;stroke-width:0.018634891px;stroke-linecap:round;stroke-linejoin:round;stroke-miterlimit:4;stroke-dasharray:none;stroke-opacity:1;"
     d="  M 125.97187,185.89505   L 125.97187,60.726843   L 114.92138,60.726843   L 114.92138,185.89505   L 125.97187,185.89505   z "
     id="path327" />
  <path
     style="fill:none;stroke:#000000;stroke-width:0.018634891px;stroke-linecap:round;stroke-linejoin:round;stroke-miterlimit:4;stroke-dasharray:none;stroke-opacity:1;"
     d="  M 54.357978,185.89505   L 54.357978,60.726843   L 43.307488,60.726843   L 43.307488,185.89505   L 54.357978,185.89505   z "
     id="path329" />
  <path
     style="fill:none;stroke:#000000;stroke-width:0.018634891px;stroke-linecap:round;stroke-linejoin:round;stroke-miterlimit:4;stroke-dasharray:none;stroke-opacity:1;"
     d="  M 137.9541,185.89505   L 137.9541,60.726843   L 126.90361,60.726843   L 126.90361,185.89505   L 137.9541,185.89505   z "
     id="path331" />
  <path
     style="fill:none;stroke:#000000;stroke-width:0.018634891px;stroke-linecap:round;stroke-linejoin:round;stroke-miterlimit:4;stroke-dasharray:none;stroke-opacity:1;"
     d="  M 42.431648,185.89505   L 42.431648,60.726843   L 31.381157,60.726843   L 31.381157,185.89505   L 42.431648,185.89505   z "
     id="path333" />
  <path
     style="fill:none;stroke:#000000;stroke-width:0.018634891px;stroke-linecap:round;stroke-linejoin:round;stroke-miterlimit:4;stroke-dasharray:none;stroke-opacity:1;"
     d="  M 149.88043,185.89505   L 149.88043,60.726843   L 138.82994,60.726843   L 138.82994,185.89505   L 149.88043,185.89505   z "
     id="path335" />
  <path
     style="fill:none;stroke:#000000;stroke-width:0.018634891px;stroke-linecap:round;stroke-linejoin:round;stroke-miterlimit:4;stroke-dasharray:none;stroke-opacity:1;"
     d="  M 30.449413,185.89505   L 30.449413,60.726843   L 19.398922,60.726843   L 19.398922,185.89505   L 30.449413,185.89505   z "
     id="path337" />
  <path
     style="fill:none;stroke:#000000;stroke-width:0.018634891px;stroke-linecap:round;stroke-linejoin:round;stroke-miterlimit:4;stroke-dasharray:none;stroke-opacity:1;"
     d="  M 161.86267,185.89505   L 161.86267,60.726843   L 150.81218,60.726843   L 150.81218,185.89505   L 161.86267,185.89505   z "
     id="path339" />
  <path
     style="fill:none;stroke:#000000;stroke-width:0.018634891px;stroke-linecap:round;stroke-linejoin:round;stroke-miterlimit:4;stroke-dasharray:none;stroke-opacity:1;"
     d="  M 18.541717,185.89505   L 18.541717,60.726843   L 7.4912264,60.726843   L 7.4912264,185.89505   L 18.541717,185.89505   z "
     id="path341" />
  <path
     style="fill:none;stroke:#000000;stroke-width:0.018634891px;stroke-linecap:round;stroke-linejoin:round;stroke-miterlimit:4;stroke-dasharray:none;stroke-opacity:1;"
     d="  M 173.77036,185.89505   L 173.77036,60.726843   L 162.71987,60.726843   L 162.71987,185.89505   L 173.77036,185.89505   z "
     id="path343" />
  <path
     style="fill:none;stroke:#000000;stroke-width:0.018717313px;stroke-linecap:round;stroke-linejoin:round;stroke-miterlimit:4;stroke-dasharray:none;stroke-opacity:1;"
     d="  M 81.906961,222.11706   L 15.872281,222.11706   L 15.872281,232.51355   L 81.906961,232.51355   L 81.906961,222.11706  "
     id="path345" />
  <path
     style="fill:none;stroke:#000000;stroke-width:0.018717313px;stroke-linecap:round;stroke-linejoin:round;stroke-miterlimit:4;stroke-dasharray:none;stroke-opacity:1;"
     d="  M 166.04128,222.11706   L 100.0066,222.11706   L 100.0066,232.51355   L 166.04128,232.51355   L 166.04128,222.11706  "
     id="path347" />
</svg>
