<?xml version="1.0" encoding="UTF-8" standalone="no"?>
<svg
   version="1.0"
   width="21.620001mm"
   height="4.4000001mm"
   id="svg369"
   xmlns="http://www.w3.org/2000/svg"
   xmlns:svg="http://www.w3.org/2000/svg">
  <defs
     id="defs3">
    <pattern
       id="EMFhbasepattern"
       patternUnits="userSpaceOnUse"
       width="6"
       height="6"
       x="0"
       y="0" />
  </defs>
  <path
     style="fill:#ededed;fill-rule:evenodd;fill-opacity:1;stroke:#000000;stroke-width:0.09356422px;stroke-linecap:round;stroke-linejoin:round;stroke-miterlimit:4;stroke-dasharray:none;stroke-opacity:1;"
     d="  M 3.3136942,11.280691   M 2.621001,12.445149   M 2.8456583,12.663485   M 2.8456583,12.663485   M 3.0890369,12.900016   M 81.475724,0.41293258   L 81.475724,0.33785393   L 81.438298,0.26277528   L 81.419585,0.20646629   L 81.307308,0.093848314   L 81.25117,0.075078651   L 81.176319,0.037539326   L 0.3368312,0.037539326   L 0.26197982,0.075078651   L 0.20584129,0.093848314   L 0.093564221,0.20646629   L 0.074851377,0.26277528   L 0.037425689,0.33785393   L 0.037425689,16.254528   L 0.074851377,16.329607   L 0.093564221,16.385916   L 0.20584129,16.498534   L 0.26197982,16.517303   L 0.3368312,16.554843   L 81.176319,16.554843   L 81.25117,16.517303   L 81.307308,16.498534   L 81.419585,16.385916   L 81.438298,16.329607   L 81.475724,16.254528   L 81.475724,16.179449   L 81.475724,0.41293258   z "
     id="path5" />
  <path
     style="fill:none;stroke:#000000;stroke-width:0.09356422px;stroke-linecap:round;stroke-linejoin:round;stroke-miterlimit:4;stroke-dasharray:none;stroke-opacity:1;"
     d="  M 81.176319,0.78832584   L 81.176319,0.67570786   L 81.157606,0.6569382   L 81.157606,0.60062921   L 81.138893,0.58185955   L 81.138893,0.56308988   L 81.12018,0.54432022   L 81.12018,0.52555056   L 81.101467,0.5067809   L 81.101467,0.48801123   L 81.045329,0.43170224   L 81.026616,0.43170224   L 81.026616,0.41293258   L 81.007903,0.41293258   L 80.98919,0.39416292   L 80.970477,0.39416292   L 80.951764,0.37539326   L 80.895626,0.37539326   L 80.876913,0.35662359   L 0.63623671,0.35662359   L 0.61752386,0.37539326   L 0.56138533,0.37539326   L 0.54267248,0.39416292   L 0.52395964,0.39416292   L 0.5052468,0.41293258   L 0.48653395,0.41293258   L 0.48653395,0.43170224   L 0.46782111,0.43170224   L 0.44910826,0.45047191   L 0.44910826,0.46924157   L 0.43039542,0.46924157   L 0.41168257,0.48801123   L 0.41168257,0.5067809   L 0.39296973,0.52555056   L 0.39296973,0.54432022   L 0.37425689,0.56308988   L 0.37425689,0.58185955   L 0.35554404,0.60062921   L 0.35554404,0.6569382   L 0.3368312,0.67570786   L 0.3368312,15.897904   L 0.35554404,15.935444   L 0.35554404,15.991753   L 0.37425689,16.010522   L 0.37425689,16.029292   L 0.39296973,16.048062   L 0.39296973,16.066831   L 0.41168257,16.085601   L 0.41168257,16.104371   L 0.43039542,16.104371   L 0.44910826,16.12314   L 0.44910826,16.14191   L 0.46782111,16.14191   L 0.48653395,16.16068   L 0.48653395,16.179449   L 0.5052468,16.179449   L 0.52395964,16.198219   L 0.54267248,16.198219   L 0.56138533,16.216989   L 0.61752386,16.216989   L 0.63623671,16.235758   L 80.876913,16.235758   L 80.895626,16.216989   L 80.951764,16.216989   L 80.970477,16.198219   L 80.98919,16.198219   L 81.007903,16.179449   L 81.026616,16.179449   L 81.026616,16.16068   L 81.045329,16.14191   L 81.064041,16.14191   L 81.082754,16.12314   L 81.082754,16.104371   L 81.101467,16.104371   L 81.101467,16.085601   L 81.12018,16.066831   L 81.12018,16.048062   L 81.138893,16.029292   L 81.138893,16.010522   L 81.157606,15.991753   L 81.157606,15.935444   L 81.176319,15.897904   L 81.176319,0.82586516   L 81.176319,0.78832584  "
     id="path7" />
  <path
     style="fill:#000000;fill-rule:evenodd;fill-opacity:1;stroke:#000000;stroke-width:0.018712845px;stroke-linecap:round;stroke-linejoin:round;stroke-miterlimit:4;stroke-dasharray:none;stroke-opacity:1;"
     d="  M 75.618604,3.1533034   L 31.287876,3.1533034   L 31.287876,13.439079   L 75.618604,13.439079   L 75.618604,3.1533034   z "
     id="path9" />
  <path
     style="fill:#dddddd;fill-rule:evenodd;fill-opacity:1;stroke:#000000;stroke-width:0.018712845px;stroke-linecap:round;stroke-linejoin:round;stroke-miterlimit:4;stroke-dasharray:none;stroke-opacity:1;"
     d="  M 75.431475,3.3034607   L 31.475004,3.3034607   L 31.475004,13.288921   L 75.431475,13.288921   L 75.431475,3.3034607   z "
     id="path11" />
  <path
     style="fill:none;stroke:#000000;stroke-width:0.018712845px;stroke-linecap:round;stroke-linejoin:round;stroke-miterlimit:4;stroke-dasharray:none;stroke-opacity:1;"
     d="  M 81.176319,2.1772809   L 80.652359,2.1772809   L 80.652359,10.360854   L 81.176319,10.360854   L 81.176319,2.1772809  "
     id="path13" />
  <path
     style="fill:none;stroke:#000000;stroke-width:0.018712845px;stroke-linecap:round;stroke-linejoin:round;stroke-miterlimit:4;stroke-dasharray:none;stroke-opacity:1;"
     d="  M 0.86079084,2.1772809   L 0.3368312,2.1772809   L 0.3368312,10.360854   L 0.86079084,10.360854   L 0.86079084,2.1772809  "
     id="path15" />
  <path
     style="fill:#333333;fill-rule:evenodd;fill-opacity:1;stroke:#000000;stroke-width:0.018712845px;stroke-linecap:round;stroke-linejoin:round;stroke-miterlimit:4;stroke-dasharray:none;stroke-opacity:1;"
     d="  M 29.491443,4.0917865   L 29.491443,4.0167078   L 29.454017,3.9416292   L 29.435304,3.8853202   L 29.323027,3.7727022   L 29.266888,3.7539326   L 29.192037,3.7163932   L 29.023621,3.7163932   L 28.94877,3.7539326   L 28.892632,3.7727022   L 28.780355,3.8853202   L 28.761642,3.9416292   L 28.724216,4.0167078   L 28.724216,5.3493539   L 28.761642,5.4244326   L 28.780355,5.4807415   L 28.892632,5.5933595   L 28.94877,5.6121292   L 29.023621,5.6496685   L 29.192037,5.6496685   L 29.266888,5.6121292   L 29.323027,5.5933595   L 29.435304,5.4807415   L 29.454017,5.4244326   L 29.491443,5.3493539   L 29.491443,5.2742753   L 29.491443,4.0917865   z "
     id="path17" />
  <path
     style="fill:#333333;fill-rule:evenodd;fill-opacity:1;stroke:#000000;stroke-width:0.018712845px;stroke-linecap:round;stroke-linejoin:round;stroke-miterlimit:4;stroke-dasharray:none;stroke-opacity:1;"
     d="  M 29.491443,6.4943033   L 29.491443,6.4192247   L 29.454017,6.344146   L 29.435304,6.287837   L 29.323027,6.1752191   L 29.266888,6.1564494   L 29.192037,6.1189101   L 29.023621,6.1189101   L 28.94877,6.1564494   L 28.892632,6.1752191   L 28.780355,6.287837   L 28.761642,6.344146   L 28.724216,6.4192247   L 28.724216,7.7518707   L 28.761642,7.8269494   L 28.780355,7.8832584   L 28.892632,7.9958764   L 28.94877,8.014646   L 29.023621,8.0521854   L 29.192037,8.0521854   L 29.266888,8.014646   L 29.323027,7.9958764   L 29.435304,7.8832584   L 29.454017,7.8269494   L 29.491443,7.7518707   L 29.491443,7.6767921   L 29.491443,6.4943033   z "
     id="path19" />
  <path
     style="fill:#333333;fill-rule:evenodd;fill-opacity:1;stroke:#000000;stroke-width:0.018712845px;stroke-linecap:round;stroke-linejoin:round;stroke-miterlimit:4;stroke-dasharray:none;stroke-opacity:1;"
     d="  M 29.491443,8.8968202   L 29.491443,8.8217415   L 29.454017,8.7466629   L 29.435304,8.6903539   L 29.323027,8.5777359   L 29.266888,8.5589662   L 29.192037,8.5214269   L 29.023621,8.5214269   L 28.94877,8.5589662   L 28.892632,8.5777359   L 28.780355,8.6903539   L 28.761642,8.7466629   L 28.724216,8.8217415   L 28.724216,10.154388   L 28.761642,10.229466   L 28.780355,10.285775   L 28.892632,10.398393   L 28.94877,10.417163   L 29.023621,10.454702   L 29.192037,10.454702   L 29.266888,10.417163   L 29.323027,10.398393   L 29.435304,10.285775   L 29.454017,10.229466   L 29.491443,10.154388   L 29.491443,10.079309   L 29.491443,8.8968202   z "
     id="path21" />
  <path
     style="fill:#333333;fill-rule:evenodd;fill-opacity:1;stroke:#000000;stroke-width:0.018712845px;stroke-linecap:round;stroke-linejoin:round;stroke-miterlimit:4;stroke-dasharray:none;stroke-opacity:1;"
     d="  M 29.491443,11.299337   L 29.491443,11.224258   L 29.454017,11.14918   L 29.435304,11.092871   L 29.323027,10.980253   L 29.266888,10.961483   L 29.192037,10.923944   L 29.023621,10.923944   L 28.94877,10.961483   L 28.892632,10.980253   L 28.780355,11.092871   L 28.761642,11.14918   L 28.724216,11.224258   L 28.724216,12.556904   L 28.761642,12.631983   L 28.780355,12.688292   L 28.892632,12.80091   L 28.94877,12.81968   L 29.023621,12.857219   L 29.192037,12.857219   L 29.266888,12.81968   L 29.323027,12.80091   L 29.435304,12.688292   L 29.454017,12.631983   L 29.491443,12.556904   L 29.491443,12.481826   L 29.491443,11.299337   z "
     id="path23" />
  <path
     style="fill:#333333;fill-rule:evenodd;fill-opacity:1;stroke:#000000;stroke-width:0.018712845px;stroke-linecap:round;stroke-linejoin:round;stroke-miterlimit:4;stroke-dasharray:none;stroke-opacity:1;"
     d="  M 28.125405,1.7080393   L 28.125405,1.6329607   L 28.087979,1.557882   L 28.069266,1.501573   L 27.956989,1.388955   L 27.900851,1.3701854   L 27.825999,1.3326461   L 27.657584,1.3326461   L 27.582732,1.3701854   L 27.526594,1.388955   L 27.414317,1.501573   L 27.395604,1.557882   L 27.358178,1.6329607   L 27.358178,2.9656067   L 27.395604,3.0406854   L 27.414317,3.0969944   L 27.526594,3.2096123   L 27.582732,3.228382   L 27.657584,3.2659213   L 27.825999,3.2659213   L 27.900851,3.228382   L 27.956989,3.2096123   L 28.069266,3.0969944   L 28.087979,3.0406854   L 28.125405,2.9656067   L 28.125405,2.8905281   L 28.125405,1.7080393   z "
     id="path25" />
  <path
     style="fill:#333333;fill-rule:evenodd;fill-opacity:1;stroke:#000000;stroke-width:0.018712845px;stroke-linecap:round;stroke-linejoin:round;stroke-miterlimit:4;stroke-dasharray:none;stroke-opacity:1;"
     d="  M 28.125405,4.0917865   L 28.125405,4.0167078   L 28.087979,3.9416292   L 28.069266,3.8853202   L 27.956989,3.7727022   L 27.900851,3.7539326   L 27.825999,3.7163932   L 27.657584,3.7163932   L 27.582732,3.7539326   L 27.526594,3.7727022   L 27.414317,3.8853202   L 27.395604,3.9416292   L 27.358178,4.0167078   L 27.358178,5.3493539   L 27.395604,5.4244326   L 27.414317,5.4807415   L 27.526594,5.5933595   L 27.582732,5.6121292   L 27.657584,5.6496685   L 27.825999,5.6496685   L 27.900851,5.6121292   L 27.956989,5.5933595   L 28.069266,5.4807415   L 28.087979,5.4244326   L 28.125405,5.3493539   L 28.125405,5.2742753   L 28.125405,4.0917865   z "
     id="path27" />
  <path
     style="fill:#333333;fill-rule:evenodd;fill-opacity:1;stroke:#000000;stroke-width:0.018712845px;stroke-linecap:round;stroke-linejoin:round;stroke-miterlimit:4;stroke-dasharray:none;stroke-opacity:1;"
     d="  M 28.125405,6.4943033   L 28.125405,6.4192247   L 28.087979,6.344146   L 28.069266,6.287837   L 27.956989,6.1752191   L 27.900851,6.1564494   L 27.825999,6.1189101   L 27.657584,6.1189101   L 27.582732,6.1564494   L 27.526594,6.1752191   L 27.414317,6.287837   L 27.395604,6.344146   L 27.358178,6.4192247   L 27.358178,7.7518707   L 27.395604,7.8269494   L 27.414317,7.8832584   L 27.526594,7.9958764   L 27.582732,8.014646   L 27.657584,8.0521854   L 27.825999,8.0521854   L 27.900851,8.014646   L 27.956989,7.9958764   L 28.069266,7.8832584   L 28.087979,7.8269494   L 28.125405,7.7518707   L 28.125405,7.6767921   L 28.125405,6.4943033   z "
     id="path29" />
  <path
     style="fill:#333333;fill-rule:evenodd;fill-opacity:1;stroke:#000000;stroke-width:0.018712845px;stroke-linecap:round;stroke-linejoin:round;stroke-miterlimit:4;stroke-dasharray:none;stroke-opacity:1;"
     d="  M 28.125405,8.8968202   L 28.125405,8.8217415   L 28.087979,8.7466629   L 28.069266,8.6903539   L 27.956989,8.5777359   L 27.900851,8.5589662   L 27.825999,8.5214269   L 27.657584,8.5214269   L 27.582732,8.5589662   L 27.526594,8.5777359   L 27.414317,8.6903539   L 27.395604,8.7466629   L 27.358178,8.8217415   L 27.358178,10.154388   L 27.395604,10.229466   L 27.414317,10.285775   L 27.526594,10.398393   L 27.582732,10.417163   L 27.657584,10.454702   L 27.825999,10.454702   L 27.900851,10.417163   L 27.956989,10.398393   L 28.069266,10.285775   L 28.087979,10.229466   L 28.125405,10.154388   L 28.125405,10.079309   L 28.125405,8.8968202   z "
     id="path31" />
  <path
     style="fill:#333333;fill-rule:evenodd;fill-opacity:1;stroke:#000000;stroke-width:0.018712845px;stroke-linecap:round;stroke-linejoin:round;stroke-miterlimit:4;stroke-dasharray:none;stroke-opacity:1;"
     d="  M 28.125405,11.299337   L 28.125405,11.224258   L 28.087979,11.14918   L 28.069266,11.092871   L 27.956989,10.980253   L 27.900851,10.961483   L 27.825999,10.923944   L 27.657584,10.923944   L 27.582732,10.961483   L 27.526594,10.980253   L 27.414317,11.092871   L 27.395604,11.14918   L 27.358178,11.224258   L 27.358178,12.556904   L 27.395604,12.631983   L 27.414317,12.688292   L 27.526594,12.80091   L 27.582732,12.81968   L 27.657584,12.857219   L 27.825999,12.857219   L 27.900851,12.81968   L 27.956989,12.80091   L 28.069266,12.688292   L 28.087979,12.631983   L 28.125405,12.556904   L 28.125405,12.481826   L 28.125405,11.299337   z "
     id="path33" />
  <path
     style="fill:#333333;fill-rule:evenodd;fill-opacity:1;stroke:#000000;stroke-width:0.018712845px;stroke-linecap:round;stroke-linejoin:round;stroke-miterlimit:4;stroke-dasharray:none;stroke-opacity:1;"
     d="  M 28.125405,13.720624   L 28.125405,13.645545   L 28.087979,13.570466   L 28.069266,13.514157   L 27.956989,13.401539   L 27.900851,13.38277   L 27.825999,13.34523   L 27.657584,13.34523   L 27.582732,13.38277   L 27.526594,13.401539   L 27.414317,13.514157   L 27.395604,13.570466   L 27.358178,13.645545   L 27.358178,14.978191   L 27.395604,15.05327   L 27.414317,15.109579   L 27.526594,15.222197   L 27.582732,15.240966   L 27.657584,15.278506   L 27.825999,15.278506   L 27.900851,15.240966   L 27.956989,15.222197   L 28.069266,15.109579   L 28.087979,15.05327   L 28.125405,14.978191   L 28.125405,14.903112   L 28.125405,13.720624   z "
     id="path35" />
  <path
     style="fill:#333333;fill-rule:evenodd;fill-opacity:1;stroke:#000000;stroke-width:0.018712845px;stroke-linecap:round;stroke-linejoin:round;stroke-miterlimit:4;stroke-dasharray:none;stroke-opacity:1;"
     d="  M 26.77808,1.7080393   L 26.77808,1.6329607   L 26.740654,1.557882   L 26.721942,1.501573   L 26.609665,1.388955   L 26.553526,1.3701854   L 26.478675,1.3326461   L 26.310259,1.3326461   L 26.235408,1.3701854   L 26.179269,1.388955   L 26.066992,1.501573   L 26.048279,1.557882   L 26.010854,1.6329607   L 26.010854,2.9656067   L 26.048279,3.0406854   L 26.066992,3.0969944   L 26.179269,3.2096123   L 26.235408,3.228382   L 26.310259,3.2659213   L 26.478675,3.2659213   L 26.553526,3.228382   L 26.609665,3.2096123   L 26.721942,3.0969944   L 26.740654,3.0406854   L 26.77808,2.9656067   L 26.77808,2.8905281   L 26.77808,1.7080393   z "
     id="path37" />
  <path
     style="fill:#333333;fill-rule:evenodd;fill-opacity:1;stroke:#000000;stroke-width:0.018712845px;stroke-linecap:round;stroke-linejoin:round;stroke-miterlimit:4;stroke-dasharray:none;stroke-opacity:1;"
     d="  M 26.77808,4.0917865   L 26.77808,4.0167078   L 26.740654,3.9416292   L 26.721942,3.8853202   L 26.609665,3.7727022   L 26.553526,3.7539326   L 26.478675,3.7163932   L 26.310259,3.7163932   L 26.235408,3.7539326   L 26.179269,3.7727022   L 26.066992,3.8853202   L 26.048279,3.9416292   L 26.010854,4.0167078   L 26.010854,5.3493539   L 26.048279,5.4244326   L 26.066992,5.4807415   L 26.179269,5.5933595   L 26.235408,5.6121292   L 26.310259,5.6496685   L 26.478675,5.6496685   L 26.553526,5.6121292   L 26.609665,5.5933595   L 26.721942,5.4807415   L 26.740654,5.4244326   L 26.77808,5.3493539   L 26.77808,5.2742753   L 26.77808,4.0917865   z "
     id="path39" />
  <path
     style="fill:#333333;fill-rule:evenodd;fill-opacity:1;stroke:#000000;stroke-width:0.018712845px;stroke-linecap:round;stroke-linejoin:round;stroke-miterlimit:4;stroke-dasharray:none;stroke-opacity:1;"
     d="  M 26.77808,6.4943033   L 26.77808,6.4192247   L 26.740654,6.344146   L 26.721942,6.287837   L 26.609665,6.1752191   L 26.553526,6.1564494   L 26.478675,6.1189101   L 26.310259,6.1189101   L 26.235408,6.1564494   L 26.179269,6.1752191   L 26.066992,6.287837   L 26.048279,6.344146   L 26.010854,6.4192247   L 26.010854,7.7518707   L 26.048279,7.8269494   L 26.066992,7.8832584   L 26.179269,7.9958764   L 26.235408,8.014646   L 26.310259,8.0521854   L 26.478675,8.0521854   L 26.553526,8.014646   L 26.609665,7.9958764   L 26.721942,7.8832584   L 26.740654,7.8269494   L 26.77808,7.7518707   L 26.77808,7.6767921   L 26.77808,6.4943033   z "
     id="path41" />
  <path
     style="fill:#333333;fill-rule:evenodd;fill-opacity:1;stroke:#000000;stroke-width:0.018712845px;stroke-linecap:round;stroke-linejoin:round;stroke-miterlimit:4;stroke-dasharray:none;stroke-opacity:1;"
     d="  M 26.77808,8.8968202   L 26.77808,8.8217415   L 26.740654,8.7466629   L 26.721942,8.6903539   L 26.609665,8.5777359   L 26.553526,8.5589662   L 26.478675,8.5214269   L 26.310259,8.5214269   L 26.235408,8.5589662   L 26.179269,8.5777359   L 26.066992,8.6903539   L 26.048279,8.7466629   L 26.010854,8.8217415   L 26.010854,10.154388   L 26.048279,10.229466   L 26.066992,10.285775   L 26.179269,10.398393   L 26.235408,10.417163   L 26.310259,10.454702   L 26.478675,10.454702   L 26.553526,10.417163   L 26.609665,10.398393   L 26.721942,10.285775   L 26.740654,10.229466   L 26.77808,10.154388   L 26.77808,10.079309   L 26.77808,8.8968202   z "
     id="path43" />
  <path
     style="fill:#333333;fill-rule:evenodd;fill-opacity:1;stroke:#000000;stroke-width:0.018712845px;stroke-linecap:round;stroke-linejoin:round;stroke-miterlimit:4;stroke-dasharray:none;stroke-opacity:1;"
     d="  M 26.77808,11.299337   L 26.77808,11.224258   L 26.740654,11.14918   L 26.721942,11.092871   L 26.609665,10.980253   L 26.553526,10.961483   L 26.478675,10.923944   L 26.310259,10.923944   L 26.235408,10.961483   L 26.179269,10.980253   L 26.066992,11.092871   L 26.048279,11.14918   L 26.010854,11.224258   L 26.010854,12.556904   L 26.048279,12.631983   L 26.066992,12.688292   L 26.179269,12.80091   L 26.235408,12.81968   L 26.310259,12.857219   L 26.478675,12.857219   L 26.553526,12.81968   L 26.609665,12.80091   L 26.721942,12.688292   L 26.740654,12.631983   L 26.77808,12.556904   L 26.77808,12.481826   L 26.77808,11.299337   z "
     id="path45" />
  <path
     style="fill:#333333;fill-rule:evenodd;fill-opacity:1;stroke:#000000;stroke-width:0.018712845px;stroke-linecap:round;stroke-linejoin:round;stroke-miterlimit:4;stroke-dasharray:none;stroke-opacity:1;"
     d="  M 26.77808,13.720624   L 26.77808,13.645545   L 26.740654,13.570466   L 26.721942,13.514157   L 26.609665,13.401539   L 26.553526,13.38277   L 26.478675,13.34523   L 26.310259,13.34523   L 26.235408,13.38277   L 26.179269,13.401539   L 26.066992,13.514157   L 26.048279,13.570466   L 26.010854,13.645545   L 26.010854,14.978191   L 26.048279,15.05327   L 26.066992,15.109579   L 26.179269,15.222197   L 26.235408,15.240966   L 26.310259,15.278506   L 26.478675,15.278506   L 26.553526,15.240966   L 26.609665,15.222197   L 26.721942,15.109579   L 26.740654,15.05327   L 26.77808,14.978191   L 26.77808,14.903112   L 26.77808,13.720624   z "
     id="path47" />
  <path
     style="fill:#333333;fill-rule:evenodd;fill-opacity:1;stroke:#000000;stroke-width:0.018712845px;stroke-linecap:round;stroke-linejoin:round;stroke-miterlimit:4;stroke-dasharray:none;stroke-opacity:1;"
     d="  M 25.430755,1.7080393   L 25.430755,1.6329607   L 25.39333,1.557882   L 25.374617,1.501573   L 25.26234,1.388955   L 25.206201,1.3701854   L 25.13135,1.3326461   L 24.962934,1.3326461   L 24.888083,1.3701854   L 24.831944,1.388955   L 24.719667,1.501573   L 24.700954,1.557882   L 24.663529,1.6329607   L 24.663529,2.9656067   L 24.700954,3.0406854   L 24.719667,3.0969944   L 24.831944,3.2096123   L 24.888083,3.228382   L 24.962934,3.2659213   L 25.13135,3.2659213   L 25.206201,3.228382   L 25.26234,3.2096123   L 25.374617,3.0969944   L 25.39333,3.0406854   L 25.430755,2.9656067   L 25.430755,2.8905281   L 25.430755,1.7080393   z "
     id="path49" />
  <path
     style="fill:#333333;fill-rule:evenodd;fill-opacity:1;stroke:#000000;stroke-width:0.018712845px;stroke-linecap:round;stroke-linejoin:round;stroke-miterlimit:4;stroke-dasharray:none;stroke-opacity:1;"
     d="  M 25.430755,4.0917865   L 25.430755,4.0167078   L 25.39333,3.9416292   L 25.374617,3.8853202   L 25.26234,3.7727022   L 25.206201,3.7539326   L 25.13135,3.7163932   L 24.962934,3.7163932   L 24.888083,3.7539326   L 24.831944,3.7727022   L 24.719667,3.8853202   L 24.700954,3.9416292   L 24.663529,4.0167078   L 24.663529,5.3493539   L 24.700954,5.4244326   L 24.719667,5.4807415   L 24.831944,5.5933595   L 24.888083,5.6121292   L 24.962934,5.6496685   L 25.13135,5.6496685   L 25.206201,5.6121292   L 25.26234,5.5933595   L 25.374617,5.4807415   L 25.39333,5.4244326   L 25.430755,5.3493539   L 25.430755,5.2742753   L 25.430755,4.0917865   z "
     id="path51" />
  <path
     style="fill:#333333;fill-rule:evenodd;fill-opacity:1;stroke:#000000;stroke-width:0.018712845px;stroke-linecap:round;stroke-linejoin:round;stroke-miterlimit:4;stroke-dasharray:none;stroke-opacity:1;"
     d="  M 25.430755,6.4943033   L 25.430755,6.4192247   L 25.39333,6.344146   L 25.374617,6.287837   L 25.26234,6.1752191   L 25.206201,6.1564494   L 25.13135,6.1189101   L 24.962934,6.1189101   L 24.888083,6.1564494   L 24.831944,6.1752191   L 24.719667,6.287837   L 24.700954,6.344146   L 24.663529,6.4192247   L 24.663529,7.7518707   L 24.700954,7.8269494   L 24.719667,7.8832584   L 24.831944,7.9958764   L 24.888083,8.014646   L 24.962934,8.0521854   L 25.13135,8.0521854   L 25.206201,8.014646   L 25.26234,7.9958764   L 25.374617,7.8832584   L 25.39333,7.8269494   L 25.430755,7.7518707   L 25.430755,7.6767921   L 25.430755,6.4943033   z "
     id="path53" />
  <path
     style="fill:#333333;fill-rule:evenodd;fill-opacity:1;stroke:#000000;stroke-width:0.018712845px;stroke-linecap:round;stroke-linejoin:round;stroke-miterlimit:4;stroke-dasharray:none;stroke-opacity:1;"
     d="  M 25.430755,8.8968202   L 25.430755,8.8217415   L 25.39333,8.7466629   L 25.374617,8.6903539   L 25.26234,8.5777359   L 25.206201,8.5589662   L 25.13135,8.5214269   L 24.962934,8.5214269   L 24.888083,8.5589662   L 24.831944,8.5777359   L 24.719667,8.6903539   L 24.700954,8.7466629   L 24.663529,8.8217415   L 24.663529,10.154388   L 24.700954,10.229466   L 24.719667,10.285775   L 24.831944,10.398393   L 24.888083,10.417163   L 24.962934,10.454702   L 25.13135,10.454702   L 25.206201,10.417163   L 25.26234,10.398393   L 25.374617,10.285775   L 25.39333,10.229466   L 25.430755,10.154388   L 25.430755,10.079309   L 25.430755,8.8968202   z "
     id="path55" />
  <path
     style="fill:#333333;fill-rule:evenodd;fill-opacity:1;stroke:#000000;stroke-width:0.018712845px;stroke-linecap:round;stroke-linejoin:round;stroke-miterlimit:4;stroke-dasharray:none;stroke-opacity:1;"
     d="  M 25.430755,11.299337   L 25.430755,11.224258   L 25.39333,11.14918   L 25.374617,11.092871   L 25.26234,10.980253   L 25.206201,10.961483   L 25.13135,10.923944   L 24.962934,10.923944   L 24.888083,10.961483   L 24.831944,10.980253   L 24.719667,11.092871   L 24.700954,11.14918   L 24.663529,11.224258   L 24.663529,12.556904   L 24.700954,12.631983   L 24.719667,12.688292   L 24.831944,12.80091   L 24.888083,12.81968   L 24.962934,12.857219   L 25.13135,12.857219   L 25.206201,12.81968   L 25.26234,12.80091   L 25.374617,12.688292   L 25.39333,12.631983   L 25.430755,12.556904   L 25.430755,12.481826   L 25.430755,11.299337   z "
     id="path57" />
  <path
     style="fill:#333333;fill-rule:evenodd;fill-opacity:1;stroke:#000000;stroke-width:0.018712845px;stroke-linecap:round;stroke-linejoin:round;stroke-miterlimit:4;stroke-dasharray:none;stroke-opacity:1;"
     d="  M 25.430755,13.720624   L 25.430755,13.645545   L 25.39333,13.570466   L 25.374617,13.514157   L 25.26234,13.401539   L 25.206201,13.38277   L 25.13135,13.34523   L 24.962934,13.34523   L 24.888083,13.38277   L 24.831944,13.401539   L 24.719667,13.514157   L 24.700954,13.570466   L 24.663529,13.645545   L 24.663529,14.978191   L 24.700954,15.05327   L 24.719667,15.109579   L 24.831944,15.222197   L 24.888083,15.240966   L 24.962934,15.278506   L 25.13135,15.278506   L 25.206201,15.240966   L 25.26234,15.222197   L 25.374617,15.109579   L 25.39333,15.05327   L 25.430755,14.978191   L 25.430755,14.903112   L 25.430755,13.720624   z "
     id="path59" />
  <path
     style="fill:#333333;fill-rule:evenodd;fill-opacity:1;stroke:#000000;stroke-width:0.018712845px;stroke-linecap:round;stroke-linejoin:round;stroke-miterlimit:4;stroke-dasharray:none;stroke-opacity:1;"
     d="  M 24.083431,1.7080393   L 24.083431,1.6329607   L 24.046005,1.557882   L 24.027292,1.501573   L 23.915015,1.388955   L 23.858876,1.3701854   L 23.784025,1.3326461   L 23.615609,1.3326461   L 23.540758,1.3701854   L 23.48462,1.388955   L 23.372343,1.501573   L 23.35363,1.557882   L 23.316204,1.6329607   L 23.316204,2.9656067   L 23.35363,3.0406854   L 23.372343,3.0969944   L 23.48462,3.2096123   L 23.540758,3.228382   L 23.615609,3.2659213   L 23.784025,3.2659213   L 23.858876,3.228382   L 23.915015,3.2096123   L 24.027292,3.0969944   L 24.046005,3.0406854   L 24.083431,2.9656067   L 24.083431,2.8905281   L 24.083431,1.7080393   z "
     id="path61" />
  <path
     style="fill:#333333;fill-rule:evenodd;fill-opacity:1;stroke:#000000;stroke-width:0.018712845px;stroke-linecap:round;stroke-linejoin:round;stroke-miterlimit:4;stroke-dasharray:none;stroke-opacity:1;"
     d="  M 24.083431,4.0917865   L 24.083431,4.0167078   L 24.046005,3.9416292   L 24.027292,3.8853202   L 23.915015,3.7727022   L 23.858876,3.7539326   L 23.784025,3.7163932   L 23.615609,3.7163932   L 23.540758,3.7539326   L 23.48462,3.7727022   L 23.372343,3.8853202   L 23.35363,3.9416292   L 23.316204,4.0167078   L 23.316204,5.3493539   L 23.35363,5.4244326   L 23.372343,5.4807415   L 23.48462,5.5933595   L 23.540758,5.6121292   L 23.615609,5.6496685   L 23.784025,5.6496685   L 23.858876,5.6121292   L 23.915015,5.5933595   L 24.027292,5.4807415   L 24.046005,5.4244326   L 24.083431,5.3493539   L 24.083431,5.2742753   L 24.083431,4.0917865   z "
     id="path63" />
  <path
     style="fill:#333333;fill-rule:evenodd;fill-opacity:1;stroke:#000000;stroke-width:0.018712845px;stroke-linecap:round;stroke-linejoin:round;stroke-miterlimit:4;stroke-dasharray:none;stroke-opacity:1;"
     d="  M 24.083431,6.4943033   L 24.083431,6.4192247   L 24.046005,6.344146   L 24.027292,6.287837   L 23.915015,6.1752191   L 23.858876,6.1564494   L 23.784025,6.1189101   L 23.615609,6.1189101   L 23.540758,6.1564494   L 23.48462,6.1752191   L 23.372343,6.287837   L 23.35363,6.344146   L 23.316204,6.4192247   L 23.316204,7.7518707   L 23.35363,7.8269494   L 23.372343,7.8832584   L 23.48462,7.9958764   L 23.540758,8.014646   L 23.615609,8.0521854   L 23.784025,8.0521854   L 23.858876,8.014646   L 23.915015,7.9958764   L 24.027292,7.8832584   L 24.046005,7.8269494   L 24.083431,7.7518707   L 24.083431,7.6767921   L 24.083431,6.4943033   z "
     id="path65" />
  <path
     style="fill:#333333;fill-rule:evenodd;fill-opacity:1;stroke:#000000;stroke-width:0.018712845px;stroke-linecap:round;stroke-linejoin:round;stroke-miterlimit:4;stroke-dasharray:none;stroke-opacity:1;"
     d="  M 24.083431,8.8968202   L 24.083431,8.8217415   L 24.046005,8.7466629   L 24.027292,8.6903539   L 23.915015,8.5777359   L 23.858876,8.5589662   L 23.784025,8.5214269   L 23.615609,8.5214269   L 23.540758,8.5589662   L 23.48462,8.5777359   L 23.372343,8.6903539   L 23.35363,8.7466629   L 23.316204,8.8217415   L 23.316204,10.154388   L 23.35363,10.229466   L 23.372343,10.285775   L 23.48462,10.398393   L 23.540758,10.417163   L 23.615609,10.454702   L 23.784025,10.454702   L 23.858876,10.417163   L 23.915015,10.398393   L 24.027292,10.285775   L 24.046005,10.229466   L 24.083431,10.154388   L 24.083431,10.079309   L 24.083431,8.8968202   z "
     id="path67" />
  <path
     style="fill:#333333;fill-rule:evenodd;fill-opacity:1;stroke:#000000;stroke-width:0.018712845px;stroke-linecap:round;stroke-linejoin:round;stroke-miterlimit:4;stroke-dasharray:none;stroke-opacity:1;"
     d="  M 24.083431,11.299337   L 24.083431,11.224258   L 24.046005,11.14918   L 24.027292,11.092871   L 23.915015,10.980253   L 23.858876,10.961483   L 23.784025,10.923944   L 23.615609,10.923944   L 23.540758,10.961483   L 23.48462,10.980253   L 23.372343,11.092871   L 23.35363,11.14918   L 23.316204,11.224258   L 23.316204,12.556904   L 23.35363,12.631983   L 23.372343,12.688292   L 23.48462,12.80091   L 23.540758,12.81968   L 23.615609,12.857219   L 23.784025,12.857219   L 23.858876,12.81968   L 23.915015,12.80091   L 24.027292,12.688292   L 24.046005,12.631983   L 24.083431,12.556904   L 24.083431,12.481826   L 24.083431,11.299337   z "
     id="path69" />
  <path
     style="fill:#333333;fill-rule:evenodd;fill-opacity:1;stroke:#000000;stroke-width:0.018712845px;stroke-linecap:round;stroke-linejoin:round;stroke-miterlimit:4;stroke-dasharray:none;stroke-opacity:1;"
     d="  M 24.083431,13.720624   L 24.083431,13.645545   L 24.046005,13.570466   L 24.027292,13.514157   L 23.915015,13.401539   L 23.858876,13.38277   L 23.784025,13.34523   L 23.615609,13.34523   L 23.540758,13.38277   L 23.48462,13.401539   L 23.372343,13.514157   L 23.35363,13.570466   L 23.316204,13.645545   L 23.316204,14.978191   L 23.35363,15.05327   L 23.372343,15.109579   L 23.48462,15.222197   L 23.540758,15.240966   L 23.615609,15.278506   L 23.784025,15.278506   L 23.858876,15.240966   L 23.915015,15.222197   L 24.027292,15.109579   L 24.046005,15.05327   L 24.083431,14.978191   L 24.083431,14.903112   L 24.083431,13.720624   z "
     id="path71" />
  <path
     style="fill:#333333;fill-rule:evenodd;fill-opacity:1;stroke:#000000;stroke-width:0.018712845px;stroke-linecap:round;stroke-linejoin:round;stroke-miterlimit:4;stroke-dasharray:none;stroke-opacity:1;"
     d="  M 22.736106,1.7080393   L 22.736106,1.6329607   L 22.69868,1.557882   L 22.679967,1.501573   L 22.56769,1.388955   L 22.511552,1.3701854   L 22.4367,1.3326461   L 22.268285,1.3326461   L 22.193433,1.3701854   L 22.137295,1.388955   L 22.025018,1.501573   L 22.006305,1.557882   L 21.968879,1.6329607   L 21.968879,2.9656067   L 22.006305,3.0406854   L 22.025018,3.0969944   L 22.137295,3.2096123   L 22.193433,3.228382   L 22.268285,3.2659213   L 22.4367,3.2659213   L 22.511552,3.228382   L 22.56769,3.2096123   L 22.679967,3.0969944   L 22.69868,3.0406854   L 22.736106,2.9656067   L 22.736106,2.8905281   L 22.736106,1.7080393   z "
     id="path73" />
  <path
     style="fill:#333333;fill-rule:evenodd;fill-opacity:1;stroke:#000000;stroke-width:0.018712845px;stroke-linecap:round;stroke-linejoin:round;stroke-miterlimit:4;stroke-dasharray:none;stroke-opacity:1;"
     d="  M 22.736106,4.0917865   L 22.736106,4.0167078   L 22.69868,3.9416292   L 22.679967,3.8853202   L 22.56769,3.7727022   L 22.511552,3.7539326   L 22.4367,3.7163932   L 22.268285,3.7163932   L 22.193433,3.7539326   L 22.137295,3.7727022   L 22.025018,3.8853202   L 22.006305,3.9416292   L 21.968879,4.0167078   L 21.968879,5.3493539   L 22.006305,5.4244326   L 22.025018,5.4807415   L 22.137295,5.5933595   L 22.193433,5.6121292   L 22.268285,5.6496685   L 22.4367,5.6496685   L 22.511552,5.6121292   L 22.56769,5.5933595   L 22.679967,5.4807415   L 22.69868,5.4244326   L 22.736106,5.3493539   L 22.736106,5.2742753   L 22.736106,4.0917865   z "
     id="path75" />
  <path
     style="fill:#333333;fill-rule:evenodd;fill-opacity:1;stroke:#000000;stroke-width:0.018712845px;stroke-linecap:round;stroke-linejoin:round;stroke-miterlimit:4;stroke-dasharray:none;stroke-opacity:1;"
     d="  M 22.736106,6.4943033   L 22.736106,6.4192247   L 22.69868,6.344146   L 22.679967,6.287837   L 22.56769,6.1752191   L 22.511552,6.1564494   L 22.4367,6.1189101   L 22.268285,6.1189101   L 22.193433,6.1564494   L 22.137295,6.1752191   L 22.025018,6.287837   L 22.006305,6.344146   L 21.968879,6.4192247   L 21.968879,7.7518707   L 22.006305,7.8269494   L 22.025018,7.8832584   L 22.137295,7.9958764   L 22.193433,8.014646   L 22.268285,8.0521854   L 22.4367,8.0521854   L 22.511552,8.014646   L 22.56769,7.9958764   L 22.679967,7.8832584   L 22.69868,7.8269494   L 22.736106,7.7518707   L 22.736106,7.6767921   L 22.736106,6.4943033   z "
     id="path77" />
  <path
     style="fill:#333333;fill-rule:evenodd;fill-opacity:1;stroke:#000000;stroke-width:0.018712845px;stroke-linecap:round;stroke-linejoin:round;stroke-miterlimit:4;stroke-dasharray:none;stroke-opacity:1;"
     d="  M 22.736106,8.8968202   L 22.736106,8.8217415   L 22.69868,8.7466629   L 22.679967,8.6903539   L 22.56769,8.5777359   L 22.511552,8.5589662   L 22.4367,8.5214269   L 22.268285,8.5214269   L 22.193433,8.5589662   L 22.137295,8.5777359   L 22.025018,8.6903539   L 22.006305,8.7466629   L 21.968879,8.8217415   L 21.968879,10.154388   L 22.006305,10.229466   L 22.025018,10.285775   L 22.137295,10.398393   L 22.193433,10.417163   L 22.268285,10.454702   L 22.4367,10.454702   L 22.511552,10.417163   L 22.56769,10.398393   L 22.679967,10.285775   L 22.69868,10.229466   L 22.736106,10.154388   L 22.736106,10.079309   L 22.736106,8.8968202   z "
     id="path79" />
  <path
     style="fill:#333333;fill-rule:evenodd;fill-opacity:1;stroke:#000000;stroke-width:0.018712845px;stroke-linecap:round;stroke-linejoin:round;stroke-miterlimit:4;stroke-dasharray:none;stroke-opacity:1;"
     d="  M 22.736106,11.299337   L 22.736106,11.224258   L 22.69868,11.14918   L 22.679967,11.092871   L 22.56769,10.980253   L 22.511552,10.961483   L 22.4367,10.923944   L 22.268285,10.923944   L 22.193433,10.961483   L 22.137295,10.980253   L 22.025018,11.092871   L 22.006305,11.14918   L 21.968879,11.224258   L 21.968879,12.556904   L 22.006305,12.631983   L 22.025018,12.688292   L 22.137295,12.80091   L 22.193433,12.81968   L 22.268285,12.857219   L 22.4367,12.857219   L 22.511552,12.81968   L 22.56769,12.80091   L 22.679967,12.688292   L 22.69868,12.631983   L 22.736106,12.556904   L 22.736106,12.481826   L 22.736106,11.299337   z "
     id="path81" />
  <path
     style="fill:#333333;fill-rule:evenodd;fill-opacity:1;stroke:#000000;stroke-width:0.018712845px;stroke-linecap:round;stroke-linejoin:round;stroke-miterlimit:4;stroke-dasharray:none;stroke-opacity:1;"
     d="  M 22.736106,13.720624   L 22.736106,13.645545   L 22.69868,13.570466   L 22.679967,13.514157   L 22.56769,13.401539   L 22.511552,13.38277   L 22.4367,13.34523   L 22.268285,13.34523   L 22.193433,13.38277   L 22.137295,13.401539   L 22.025018,13.514157   L 22.006305,13.570466   L 21.968879,13.645545   L 21.968879,14.978191   L 22.006305,15.05327   L 22.025018,15.109579   L 22.137295,15.222197   L 22.193433,15.240966   L 22.268285,15.278506   L 22.4367,15.278506   L 22.511552,15.240966   L 22.56769,15.222197   L 22.679967,15.109579   L 22.69868,15.05327   L 22.736106,14.978191   L 22.736106,14.903112   L 22.736106,13.720624   z "
     id="path83" />
  <path
     style="fill:#333333;fill-rule:evenodd;fill-opacity:1;stroke:#000000;stroke-width:0.018712845px;stroke-linecap:round;stroke-linejoin:round;stroke-miterlimit:4;stroke-dasharray:none;stroke-opacity:1;"
     d="  M 21.388781,1.7080393   L 21.388781,1.6329607   L 21.351355,1.557882   L 21.332642,1.501573   L 21.220365,1.388955   L 21.164227,1.3701854   L 21.089376,1.3326461   L 20.92096,1.3326461   L 20.846109,1.3701854   L 20.78997,1.388955   L 20.677693,1.501573   L 20.65898,1.557882   L 20.621554,1.6329607   L 20.621554,2.9656067   L 20.65898,3.0406854   L 20.677693,3.0969944   L 20.78997,3.2096123   L 20.846109,3.228382   L 20.92096,3.2659213   L 21.089376,3.2659213   L 21.164227,3.228382   L 21.220365,3.2096123   L 21.332642,3.0969944   L 21.351355,3.0406854   L 21.388781,2.9656067   L 21.388781,2.8905281   L 21.388781,1.7080393   z "
     id="path85" />
  <path
     style="fill:#333333;fill-rule:evenodd;fill-opacity:1;stroke:#000000;stroke-width:0.018712845px;stroke-linecap:round;stroke-linejoin:round;stroke-miterlimit:4;stroke-dasharray:none;stroke-opacity:1;"
     d="  M 21.388781,4.0917865   L 21.388781,4.0167078   L 21.351355,3.9416292   L 21.332642,3.8853202   L 21.220365,3.7727022   L 21.164227,3.7539326   L 21.089376,3.7163932   L 20.92096,3.7163932   L 20.846109,3.7539326   L 20.78997,3.7727022   L 20.677693,3.8853202   L 20.65898,3.9416292   L 20.621554,4.0167078   L 20.621554,5.3493539   L 20.65898,5.4244326   L 20.677693,5.4807415   L 20.78997,5.5933595   L 20.846109,5.6121292   L 20.92096,5.6496685   L 21.089376,5.6496685   L 21.164227,5.6121292   L 21.220365,5.5933595   L 21.332642,5.4807415   L 21.351355,5.4244326   L 21.388781,5.3493539   L 21.388781,5.2742753   L 21.388781,4.0917865   z "
     id="path87" />
  <path
     style="fill:#333333;fill-rule:evenodd;fill-opacity:1;stroke:#000000;stroke-width:0.018712845px;stroke-linecap:round;stroke-linejoin:round;stroke-miterlimit:4;stroke-dasharray:none;stroke-opacity:1;"
     d="  M 21.388781,6.4943033   L 21.388781,6.4192247   L 21.351355,6.344146   L 21.332642,6.287837   L 21.220365,6.1752191   L 21.164227,6.1564494   L 21.089376,6.1189101   L 20.92096,6.1189101   L 20.846109,6.1564494   L 20.78997,6.1752191   L 20.677693,6.287837   L 20.65898,6.344146   L 20.621554,6.4192247   L 20.621554,7.7518707   L 20.65898,7.8269494   L 20.677693,7.8832584   L 20.78997,7.9958764   L 20.846109,8.014646   L 20.92096,8.0521854   L 21.089376,8.0521854   L 21.164227,8.014646   L 21.220365,7.9958764   L 21.332642,7.8832584   L 21.351355,7.8269494   L 21.388781,7.7518707   L 21.388781,7.6767921   L 21.388781,6.4943033   z "
     id="path89" />
  <path
     style="fill:#333333;fill-rule:evenodd;fill-opacity:1;stroke:#000000;stroke-width:0.018712845px;stroke-linecap:round;stroke-linejoin:round;stroke-miterlimit:4;stroke-dasharray:none;stroke-opacity:1;"
     d="  M 21.388781,8.8968202   L 21.388781,8.8217415   L 21.351355,8.7466629   L 21.332642,8.6903539   L 21.220365,8.5777359   L 21.164227,8.5589662   L 21.089376,8.5214269   L 20.92096,8.5214269   L 20.846109,8.5589662   L 20.78997,8.5777359   L 20.677693,8.6903539   L 20.65898,8.7466629   L 20.621554,8.8217415   L 20.621554,10.154388   L 20.65898,10.229466   L 20.677693,10.285775   L 20.78997,10.398393   L 20.846109,10.417163   L 20.92096,10.454702   L 21.089376,10.454702   L 21.164227,10.417163   L 21.220365,10.398393   L 21.332642,10.285775   L 21.351355,10.229466   L 21.388781,10.154388   L 21.388781,10.079309   L 21.388781,8.8968202   z "
     id="path91" />
  <path
     style="fill:#333333;fill-rule:evenodd;fill-opacity:1;stroke:#000000;stroke-width:0.018712845px;stroke-linecap:round;stroke-linejoin:round;stroke-miterlimit:4;stroke-dasharray:none;stroke-opacity:1;"
     d="  M 21.388781,11.299337   L 21.388781,11.224258   L 21.351355,11.14918   L 21.332642,11.092871   L 21.220365,10.980253   L 21.164227,10.961483   L 21.089376,10.923944   L 20.92096,10.923944   L 20.846109,10.961483   L 20.78997,10.980253   L 20.677693,11.092871   L 20.65898,11.14918   L 20.621554,11.224258   L 20.621554,12.556904   L 20.65898,12.631983   L 20.677693,12.688292   L 20.78997,12.80091   L 20.846109,12.81968   L 20.92096,12.857219   L 21.089376,12.857219   L 21.164227,12.81968   L 21.220365,12.80091   L 21.332642,12.688292   L 21.351355,12.631983   L 21.388781,12.556904   L 21.388781,12.481826   L 21.388781,11.299337   z "
     id="path93" />
  <path
     style="fill:#333333;fill-rule:evenodd;fill-opacity:1;stroke:#000000;stroke-width:0.018712845px;stroke-linecap:round;stroke-linejoin:round;stroke-miterlimit:4;stroke-dasharray:none;stroke-opacity:1;"
     d="  M 21.388781,13.720624   L 21.388781,13.645545   L 21.351355,13.570466   L 21.332642,13.514157   L 21.220365,13.401539   L 21.164227,13.38277   L 21.089376,13.34523   L 20.92096,13.34523   L 20.846109,13.38277   L 20.78997,13.401539   L 20.677693,13.514157   L 20.65898,13.570466   L 20.621554,13.645545   L 20.621554,14.978191   L 20.65898,15.05327   L 20.677693,15.109579   L 20.78997,15.222197   L 20.846109,15.240966   L 20.92096,15.278506   L 21.089376,15.278506   L 21.164227,15.240966   L 21.220365,15.222197   L 21.332642,15.109579   L 21.351355,15.05327   L 21.388781,14.978191   L 21.388781,14.903112   L 21.388781,13.720624   z "
     id="path95" />
  <path
     style="fill:#333333;fill-rule:evenodd;fill-opacity:1;stroke:#000000;stroke-width:0.018712845px;stroke-linecap:round;stroke-linejoin:round;stroke-miterlimit:4;stroke-dasharray:none;stroke-opacity:1;"
     d="  M 20.041456,1.7080393   L 20.041456,1.6329607   L 20.004031,1.557882   L 19.985318,1.501573   L 19.873041,1.388955   L 19.816902,1.3701854   L 19.742051,1.3326461   L 19.573635,1.3326461   L 19.498784,1.3701854   L 19.442645,1.388955   L 19.330368,1.501573   L 19.311655,1.557882   L 19.27423,1.6329607   L 19.27423,2.9656067   L 19.311655,3.0406854   L 19.330368,3.0969944   L 19.442645,3.2096123   L 19.498784,3.228382   L 19.573635,3.2659213   L 19.742051,3.2659213   L 19.816902,3.228382   L 19.873041,3.2096123   L 19.985318,3.0969944   L 20.004031,3.0406854   L 20.041456,2.9656067   L 20.041456,2.8905281   L 20.041456,1.7080393   z "
     id="path97" />
  <path
     style="fill:#333333;fill-rule:evenodd;fill-opacity:1;stroke:#000000;stroke-width:0.018712845px;stroke-linecap:round;stroke-linejoin:round;stroke-miterlimit:4;stroke-dasharray:none;stroke-opacity:1;"
     d="  M 20.041456,4.0917865   L 20.041456,4.0167078   L 20.004031,3.9416292   L 19.985318,3.8853202   L 19.873041,3.7727022   L 19.816902,3.7539326   L 19.742051,3.7163932   L 19.573635,3.7163932   L 19.498784,3.7539326   L 19.442645,3.7727022   L 19.330368,3.8853202   L 19.311655,3.9416292   L 19.27423,4.0167078   L 19.27423,5.3493539   L 19.311655,5.4244326   L 19.330368,5.4807415   L 19.442645,5.5933595   L 19.498784,5.6121292   L 19.573635,5.6496685   L 19.742051,5.6496685   L 19.816902,5.6121292   L 19.873041,5.5933595   L 19.985318,5.4807415   L 20.004031,5.4244326   L 20.041456,5.3493539   L 20.041456,5.2742753   L 20.041456,4.0917865   z "
     id="path99" />
  <path
     style="fill:#333333;fill-rule:evenodd;fill-opacity:1;stroke:#000000;stroke-width:0.018712845px;stroke-linecap:round;stroke-linejoin:round;stroke-miterlimit:4;stroke-dasharray:none;stroke-opacity:1;"
     d="  M 20.041456,6.4943033   L 20.041456,6.4192247   L 20.004031,6.344146   L 19.985318,6.287837   L 19.873041,6.1752191   L 19.816902,6.1564494   L 19.742051,6.1189101   L 19.573635,6.1189101   L 19.498784,6.1564494   L 19.442645,6.1752191   L 19.330368,6.287837   L 19.311655,6.344146   L 19.27423,6.4192247   L 19.27423,7.7518707   L 19.311655,7.8269494   L 19.330368,7.8832584   L 19.442645,7.9958764   L 19.498784,8.014646   L 19.573635,8.0521854   L 19.742051,8.0521854   L 19.816902,8.014646   L 19.873041,7.9958764   L 19.985318,7.8832584   L 20.004031,7.8269494   L 20.041456,7.7518707   L 20.041456,7.6767921   L 20.041456,6.4943033   z "
     id="path101" />
  <path
     style="fill:#333333;fill-rule:evenodd;fill-opacity:1;stroke:#000000;stroke-width:0.018712845px;stroke-linecap:round;stroke-linejoin:round;stroke-miterlimit:4;stroke-dasharray:none;stroke-opacity:1;"
     d="  M 20.041456,8.8968202   L 20.041456,8.8217415   L 20.004031,8.7466629   L 19.985318,8.6903539   L 19.873041,8.5777359   L 19.816902,8.5589662   L 19.742051,8.5214269   L 19.573635,8.5214269   L 19.498784,8.5589662   L 19.442645,8.5777359   L 19.330368,8.6903539   L 19.311655,8.7466629   L 19.27423,8.8217415   L 19.27423,10.154388   L 19.311655,10.229466   L 19.330368,10.285775   L 19.442645,10.398393   L 19.498784,10.417163   L 19.573635,10.454702   L 19.742051,10.454702   L 19.816902,10.417163   L 19.873041,10.398393   L 19.985318,10.285775   L 20.004031,10.229466   L 20.041456,10.154388   L 20.041456,10.079309   L 20.041456,8.8968202   z "
     id="path103" />
  <path
     style="fill:#333333;fill-rule:evenodd;fill-opacity:1;stroke:#000000;stroke-width:0.018712845px;stroke-linecap:round;stroke-linejoin:round;stroke-miterlimit:4;stroke-dasharray:none;stroke-opacity:1;"
     d="  M 20.041456,11.299337   L 20.041456,11.224258   L 20.004031,11.14918   L 19.985318,11.092871   L 19.873041,10.980253   L 19.816902,10.961483   L 19.742051,10.923944   L 19.573635,10.923944   L 19.498784,10.961483   L 19.442645,10.980253   L 19.330368,11.092871   L 19.311655,11.14918   L 19.27423,11.224258   L 19.27423,12.556904   L 19.311655,12.631983   L 19.330368,12.688292   L 19.442645,12.80091   L 19.498784,12.81968   L 19.573635,12.857219   L 19.742051,12.857219   L 19.816902,12.81968   L 19.873041,12.80091   L 19.985318,12.688292   L 20.004031,12.631983   L 20.041456,12.556904   L 20.041456,12.481826   L 20.041456,11.299337   z "
     id="path105" />
  <path
     style="fill:#333333;fill-rule:evenodd;fill-opacity:1;stroke:#000000;stroke-width:0.018712845px;stroke-linecap:round;stroke-linejoin:round;stroke-miterlimit:4;stroke-dasharray:none;stroke-opacity:1;"
     d="  M 20.041456,13.720624   L 20.041456,13.645545   L 20.004031,13.570466   L 19.985318,13.514157   L 19.873041,13.401539   L 19.816902,13.38277   L 19.742051,13.34523   L 19.573635,13.34523   L 19.498784,13.38277   L 19.442645,13.401539   L 19.330368,13.514157   L 19.311655,13.570466   L 19.27423,13.645545   L 19.27423,14.978191   L 19.311655,15.05327   L 19.330368,15.109579   L 19.442645,15.222197   L 19.498784,15.240966   L 19.573635,15.278506   L 19.742051,15.278506   L 19.816902,15.240966   L 19.873041,15.222197   L 19.985318,15.109579   L 20.004031,15.05327   L 20.041456,14.978191   L 20.041456,14.903112   L 20.041456,13.720624   z "
     id="path107" />
  <path
     style="fill:#333333;fill-rule:evenodd;fill-opacity:1;stroke:#000000;stroke-width:0.018712845px;stroke-linecap:round;stroke-linejoin:round;stroke-miterlimit:4;stroke-dasharray:none;stroke-opacity:1;"
     d="  M 18.694131,1.7080393   L 18.694131,1.6329607   L 18.656706,1.557882   L 18.637993,1.501573   L 18.525716,1.388955   L 18.469577,1.3701854   L 18.394726,1.3326461   L 18.22631,1.3326461   L 18.151459,1.3701854   L 18.09532,1.388955   L 17.983043,1.501573   L 17.964331,1.557882   L 17.926905,1.6329607   L 17.926905,2.9656067   L 17.964331,3.0406854   L 17.983043,3.0969944   L 18.09532,3.2096123   L 18.151459,3.228382   L 18.22631,3.2659213   L 18.394726,3.2659213   L 18.469577,3.228382   L 18.525716,3.2096123   L 18.637993,3.0969944   L 18.656706,3.0406854   L 18.694131,2.9656067   L 18.694131,2.8905281   L 18.694131,1.7080393   z "
     id="path109" />
  <path
     style="fill:#333333;fill-rule:evenodd;fill-opacity:1;stroke:#000000;stroke-width:0.018712845px;stroke-linecap:round;stroke-linejoin:round;stroke-miterlimit:4;stroke-dasharray:none;stroke-opacity:1;"
     d="  M 18.694131,4.0917865   L 18.694131,4.0167078   L 18.656706,3.9416292   L 18.637993,3.8853202   L 18.525716,3.7727022   L 18.469577,3.7539326   L 18.394726,3.7163932   L 18.22631,3.7163932   L 18.151459,3.7539326   L 18.09532,3.7727022   L 17.983043,3.8853202   L 17.964331,3.9416292   L 17.926905,4.0167078   L 17.926905,5.3493539   L 17.964331,5.4244326   L 17.983043,5.4807415   L 18.09532,5.5933595   L 18.151459,5.6121292   L 18.22631,5.6496685   L 18.394726,5.6496685   L 18.469577,5.6121292   L 18.525716,5.5933595   L 18.637993,5.4807415   L 18.656706,5.4244326   L 18.694131,5.3493539   L 18.694131,5.2742753   L 18.694131,4.0917865   z "
     id="path111" />
  <path
     style="fill:#333333;fill-rule:evenodd;fill-opacity:1;stroke:#000000;stroke-width:0.018712845px;stroke-linecap:round;stroke-linejoin:round;stroke-miterlimit:4;stroke-dasharray:none;stroke-opacity:1;"
     d="  M 18.694131,6.4943033   L 18.694131,6.4192247   L 18.656706,6.344146   L 18.637993,6.287837   L 18.525716,6.1752191   L 18.469577,6.1564494   L 18.394726,6.1189101   L 18.22631,6.1189101   L 18.151459,6.1564494   L 18.09532,6.1752191   L 17.983043,6.287837   L 17.964331,6.344146   L 17.926905,6.4192247   L 17.926905,7.7518707   L 17.964331,7.8269494   L 17.983043,7.8832584   L 18.09532,7.9958764   L 18.151459,8.014646   L 18.22631,8.0521854   L 18.394726,8.0521854   L 18.469577,8.014646   L 18.525716,7.9958764   L 18.637993,7.8832584   L 18.656706,7.8269494   L 18.694131,7.7518707   L 18.694131,7.6767921   L 18.694131,6.4943033   z "
     id="path113" />
  <path
     style="fill:#333333;fill-rule:evenodd;fill-opacity:1;stroke:#000000;stroke-width:0.018712845px;stroke-linecap:round;stroke-linejoin:round;stroke-miterlimit:4;stroke-dasharray:none;stroke-opacity:1;"
     d="  M 18.694131,8.8968202   L 18.694131,8.8217415   L 18.656706,8.7466629   L 18.637993,8.6903539   L 18.525716,8.5777359   L 18.469577,8.5589662   L 18.394726,8.5214269   L 18.22631,8.5214269   L 18.151459,8.5589662   L 18.09532,8.5777359   L 17.983043,8.6903539   L 17.964331,8.7466629   L 17.926905,8.8217415   L 17.926905,10.154388   L 17.964331,10.229466   L 17.983043,10.285775   L 18.09532,10.398393   L 18.151459,10.417163   L 18.22631,10.454702   L 18.394726,10.454702   L 18.469577,10.417163   L 18.525716,10.398393   L 18.637993,10.285775   L 18.656706,10.229466   L 18.694131,10.154388   L 18.694131,10.079309   L 18.694131,8.8968202   z "
     id="path115" />
  <path
     style="fill:#333333;fill-rule:evenodd;fill-opacity:1;stroke:#000000;stroke-width:0.018712845px;stroke-linecap:round;stroke-linejoin:round;stroke-miterlimit:4;stroke-dasharray:none;stroke-opacity:1;"
     d="  M 18.694131,11.299337   L 18.694131,11.224258   L 18.656706,11.14918   L 18.637993,11.092871   L 18.525716,10.980253   L 18.469577,10.961483   L 18.394726,10.923944   L 18.22631,10.923944   L 18.151459,10.961483   L 18.09532,10.980253   L 17.983043,11.092871   L 17.964331,11.14918   L 17.926905,11.224258   L 17.926905,12.556904   L 17.964331,12.631983   L 17.983043,12.688292   L 18.09532,12.80091   L 18.151459,12.81968   L 18.22631,12.857219   L 18.394726,12.857219   L 18.469577,12.81968   L 18.525716,12.80091   L 18.637993,12.688292   L 18.656706,12.631983   L 18.694131,12.556904   L 18.694131,12.481826   L 18.694131,11.299337   z "
     id="path117" />
  <path
     style="fill:#333333;fill-rule:evenodd;fill-opacity:1;stroke:#000000;stroke-width:0.018712845px;stroke-linecap:round;stroke-linejoin:round;stroke-miterlimit:4;stroke-dasharray:none;stroke-opacity:1;"
     d="  M 18.694131,13.720624   L 18.694131,13.645545   L 18.656706,13.570466   L 18.637993,13.514157   L 18.525716,13.401539   L 18.469577,13.38277   L 18.394726,13.34523   L 18.22631,13.34523   L 18.151459,13.38277   L 18.09532,13.401539   L 17.983043,13.514157   L 17.964331,13.570466   L 17.926905,13.645545   L 17.926905,14.978191   L 17.964331,15.05327   L 17.983043,15.109579   L 18.09532,15.222197   L 18.151459,15.240966   L 18.22631,15.278506   L 18.394726,15.278506   L 18.469577,15.240966   L 18.525716,15.222197   L 18.637993,15.109579   L 18.656706,15.05327   L 18.694131,14.978191   L 18.694131,14.903112   L 18.694131,13.720624   z "
     id="path119" />
  <path
     style="fill:#333333;fill-rule:evenodd;fill-opacity:1;stroke:#000000;stroke-width:0.018712845px;stroke-linecap:round;stroke-linejoin:round;stroke-miterlimit:4;stroke-dasharray:none;stroke-opacity:1;"
     d="  M 17.346807,1.7080393   L 17.346807,1.6329607   L 17.309381,1.557882   L 17.290668,1.501573   L 17.178391,1.388955   L 17.122253,1.3701854   L 17.047401,1.3326461   L 16.878986,1.3326461   L 16.804134,1.3701854   L 16.747996,1.388955   L 16.635719,1.501573   L 16.617006,1.557882   L 16.57958,1.6329607   L 16.57958,2.9656067   L 16.617006,3.0406854   L 16.635719,3.0969944   L 16.747996,3.2096123   L 16.804134,3.228382   L 16.878986,3.2659213   L 17.047401,3.2659213   L 17.122253,3.228382   L 17.178391,3.2096123   L 17.290668,3.0969944   L 17.309381,3.0406854   L 17.346807,2.9656067   L 17.346807,2.8905281   L 17.346807,1.7080393   z "
     id="path121" />
  <path
     style="fill:#333333;fill-rule:evenodd;fill-opacity:1;stroke:#000000;stroke-width:0.018712845px;stroke-linecap:round;stroke-linejoin:round;stroke-miterlimit:4;stroke-dasharray:none;stroke-opacity:1;"
     d="  M 17.346807,4.0917865   L 17.346807,4.0167078   L 17.309381,3.9416292   L 17.290668,3.8853202   L 17.178391,3.7727022   L 17.122253,3.7539326   L 17.047401,3.7163932   L 16.878986,3.7163932   L 16.804134,3.7539326   L 16.747996,3.7727022   L 16.635719,3.8853202   L 16.617006,3.9416292   L 16.57958,4.0167078   L 16.57958,5.3493539   L 16.617006,5.4244326   L 16.635719,5.4807415   L 16.747996,5.5933595   L 16.804134,5.6121292   L 16.878986,5.6496685   L 17.047401,5.6496685   L 17.122253,5.6121292   L 17.178391,5.5933595   L 17.290668,5.4807415   L 17.309381,5.4244326   L 17.346807,5.3493539   L 17.346807,5.2742753   L 17.346807,4.0917865   z "
     id="path123" />
  <path
     style="fill:#333333;fill-rule:evenodd;fill-opacity:1;stroke:#000000;stroke-width:0.018712845px;stroke-linecap:round;stroke-linejoin:round;stroke-miterlimit:4;stroke-dasharray:none;stroke-opacity:1;"
     d="  M 17.346807,6.4943033   L 17.346807,6.4192247   L 17.309381,6.344146   L 17.290668,6.287837   L 17.178391,6.1752191   L 17.122253,6.1564494   L 17.047401,6.1189101   L 16.878986,6.1189101   L 16.804134,6.1564494   L 16.747996,6.1752191   L 16.635719,6.287837   L 16.617006,6.344146   L 16.57958,6.4192247   L 16.57958,7.7518707   L 16.617006,7.8269494   L 16.635719,7.8832584   L 16.747996,7.9958764   L 16.804134,8.014646   L 16.878986,8.0521854   L 17.047401,8.0521854   L 17.122253,8.014646   L 17.178391,7.9958764   L 17.290668,7.8832584   L 17.309381,7.8269494   L 17.346807,7.7518707   L 17.346807,7.6767921   L 17.346807,6.4943033   z "
     id="path125" />
  <path
     style="fill:#333333;fill-rule:evenodd;fill-opacity:1;stroke:#000000;stroke-width:0.018712845px;stroke-linecap:round;stroke-linejoin:round;stroke-miterlimit:4;stroke-dasharray:none;stroke-opacity:1;"
     d="  M 17.346807,8.8968202   L 17.346807,8.8217415   L 17.309381,8.7466629   L 17.290668,8.6903539   L 17.178391,8.5777359   L 17.122253,8.5589662   L 17.047401,8.5214269   L 16.878986,8.5214269   L 16.804134,8.5589662   L 16.747996,8.5777359   L 16.635719,8.6903539   L 16.617006,8.7466629   L 16.57958,8.8217415   L 16.57958,10.154388   L 16.617006,10.229466   L 16.635719,10.285775   L 16.747996,10.398393   L 16.804134,10.417163   L 16.878986,10.454702   L 17.047401,10.454702   L 17.122253,10.417163   L 17.178391,10.398393   L 17.290668,10.285775   L 17.309381,10.229466   L 17.346807,10.154388   L 17.346807,10.079309   L 17.346807,8.8968202   z "
     id="path127" />
  <path
     style="fill:#333333;fill-rule:evenodd;fill-opacity:1;stroke:#000000;stroke-width:0.018712845px;stroke-linecap:round;stroke-linejoin:round;stroke-miterlimit:4;stroke-dasharray:none;stroke-opacity:1;"
     d="  M 17.346807,11.299337   L 17.346807,11.224258   L 17.309381,11.14918   L 17.290668,11.092871   L 17.178391,10.980253   L 17.122253,10.961483   L 17.047401,10.923944   L 16.878986,10.923944   L 16.804134,10.961483   L 16.747996,10.980253   L 16.635719,11.092871   L 16.617006,11.14918   L 16.57958,11.224258   L 16.57958,12.556904   L 16.617006,12.631983   L 16.635719,12.688292   L 16.747996,12.80091   L 16.804134,12.81968   L 16.878986,12.857219   L 17.047401,12.857219   L 17.122253,12.81968   L 17.178391,12.80091   L 17.290668,12.688292   L 17.309381,12.631983   L 17.346807,12.556904   L 17.346807,12.481826   L 17.346807,11.299337   z "
     id="path129" />
  <path
     style="fill:#333333;fill-rule:evenodd;fill-opacity:1;stroke:#000000;stroke-width:0.018712845px;stroke-linecap:round;stroke-linejoin:round;stroke-miterlimit:4;stroke-dasharray:none;stroke-opacity:1;"
     d="  M 17.346807,13.720624   L 17.346807,13.645545   L 17.309381,13.570466   L 17.290668,13.514157   L 17.178391,13.401539   L 17.122253,13.38277   L 17.047401,13.34523   L 16.878986,13.34523   L 16.804134,13.38277   L 16.747996,13.401539   L 16.635719,13.514157   L 16.617006,13.570466   L 16.57958,13.645545   L 16.57958,14.978191   L 16.617006,15.05327   L 16.635719,15.109579   L 16.747996,15.222197   L 16.804134,15.240966   L 16.878986,15.278506   L 17.047401,15.278506   L 17.122253,15.240966   L 17.178391,15.222197   L 17.290668,15.109579   L 17.309381,15.05327   L 17.346807,14.978191   L 17.346807,14.903112   L 17.346807,13.720624   z "
     id="path131" />
  <path
     style="fill:#333333;fill-rule:evenodd;fill-opacity:1;stroke:#000000;stroke-width:0.018712845px;stroke-linecap:round;stroke-linejoin:round;stroke-miterlimit:4;stroke-dasharray:none;stroke-opacity:1;"
     d="  M 16.018195,4.0917865   L 16.018195,4.0167078   L 15.980769,3.9416292   L 15.962056,3.8853202   L 15.849779,3.7727022   L 15.793641,3.7539326   L 15.718789,3.7163932   L 15.550374,3.7163932   L 15.475522,3.7539326   L 15.419384,3.7727022   L 15.307107,3.8853202   L 15.288394,3.9416292   L 15.250968,4.0167078   L 15.250968,5.3493539   L 15.288394,5.4244326   L 15.307107,5.4807415   L 15.419384,5.5933595   L 15.475522,5.6121292   L 15.550374,5.6496685   L 15.718789,5.6496685   L 15.793641,5.6121292   L 15.849779,5.5933595   L 15.962056,5.4807415   L 15.980769,5.4244326   L 16.018195,5.3493539   L 16.018195,5.2742753   L 16.018195,4.0917865   z "
     id="path133" />
  <path
     style="fill:#333333;fill-rule:evenodd;fill-opacity:1;stroke:#000000;stroke-width:0.018712845px;stroke-linecap:round;stroke-linejoin:round;stroke-miterlimit:4;stroke-dasharray:none;stroke-opacity:1;"
     d="  M 16.018195,6.4943033   L 16.018195,6.4192247   L 15.980769,6.344146   L 15.962056,6.287837   L 15.849779,6.1752191   L 15.793641,6.1564494   L 15.718789,6.1189101   L 15.550374,6.1189101   L 15.475522,6.1564494   L 15.419384,6.1752191   L 15.307107,6.287837   L 15.288394,6.344146   L 15.250968,6.4192247   L 15.250968,7.7518707   L 15.288394,7.8269494   L 15.307107,7.8832584   L 15.419384,7.9958764   L 15.475522,8.014646   L 15.550374,8.0521854   L 15.718789,8.0521854   L 15.793641,8.014646   L 15.849779,7.9958764   L 15.962056,7.8832584   L 15.980769,7.8269494   L 16.018195,7.7518707   L 16.018195,7.6767921   L 16.018195,6.4943033   z "
     id="path135" />
  <path
     style="fill:#333333;fill-rule:evenodd;fill-opacity:1;stroke:#000000;stroke-width:0.018712845px;stroke-linecap:round;stroke-linejoin:round;stroke-miterlimit:4;stroke-dasharray:none;stroke-opacity:1;"
     d="  M 16.018195,8.8968202   L 16.018195,8.8217415   L 15.980769,8.7466629   L 15.962056,8.6903539   L 15.849779,8.5777359   L 15.793641,8.5589662   L 15.718789,8.5214269   L 15.550374,8.5214269   L 15.475522,8.5589662   L 15.419384,8.5777359   L 15.307107,8.6903539   L 15.288394,8.7466629   L 15.250968,8.8217415   L 15.250968,10.154388   L 15.288394,10.229466   L 15.307107,10.285775   L 15.419384,10.398393   L 15.475522,10.417163   L 15.550374,10.454702   L 15.718789,10.454702   L 15.793641,10.417163   L 15.849779,10.398393   L 15.962056,10.285775   L 15.980769,10.229466   L 16.018195,10.154388   L 16.018195,10.079309   L 16.018195,8.8968202   z "
     id="path137" />
  <path
     style="fill:#333333;fill-rule:evenodd;fill-opacity:1;stroke:#000000;stroke-width:0.018712845px;stroke-linecap:round;stroke-linejoin:round;stroke-miterlimit:4;stroke-dasharray:none;stroke-opacity:1;"
     d="  M 16.018195,11.299337   L 16.018195,11.224258   L 15.980769,11.14918   L 15.962056,11.092871   L 15.849779,10.980253   L 15.793641,10.961483   L 15.718789,10.923944   L 15.550374,10.923944   L 15.475522,10.961483   L 15.419384,10.980253   L 15.307107,11.092871   L 15.288394,11.14918   L 15.250968,11.224258   L 15.250968,12.556904   L 15.288394,12.631983   L 15.307107,12.688292   L 15.419384,12.80091   L 15.475522,12.81968   L 15.550374,12.857219   L 15.718789,12.857219   L 15.793641,12.81968   L 15.849779,12.80091   L 15.962056,12.688292   L 15.980769,12.631983   L 16.018195,12.556904   L 16.018195,12.481826   L 16.018195,11.299337   z "
     id="path139" />
  <path
     style="fill:#7f7f7f;fill-rule:evenodd;fill-opacity:1;stroke:#7f7f7f;stroke-width:0.018712845px;stroke-linecap:round;stroke-linejoin:round;stroke-miterlimit:4;stroke-dasharray:none;stroke-opacity:1;"
     d="  M 74.851377,8.296191   L 74.851377,8.2211123   L 74.832664,8.1648033   L 74.757813,8.0521854   L 74.645536,7.9771067   L 74.589397,7.958337   L 32.298369,7.958337   L 32.242231,7.9771067   L 32.129954,8.0521854   L 32.055102,8.1648033   L 32.036389,8.2211123   L 32.036389,8.3712696   L 32.055102,8.4275786   L 32.129954,8.5401966   L 32.242231,8.6152752   L 32.298369,8.6340449   L 74.589397,8.6340449   L 74.645536,8.6152752   L 74.757813,8.5401966   L 74.832664,8.4275786   L 74.851377,8.3712696   L 74.851377,8.296191   z "
     id="path141" />
  <ellipse
     style="fill:#000000;fill-rule:evenodd;fill-opacity:1;stroke:#000000;stroke-width:0.018721435px;stroke-linecap:round;stroke-linejoin:round;stroke-miterlimit:4;stroke-dasharray:none;stroke-opacity:1;"
     cx="2.9673476"
     cy="3.5837104"
     rx="1.2449755"
     ry="1.2449755"
     id="ellipse143" />
  <ellipse
     style="fill:none;stroke:#000000;stroke-width:0.018721435px;stroke-linecap:round;stroke-linejoin:round;stroke-miterlimit:4;stroke-dasharray:none;stroke-opacity:1;"
     cx="2.9673476"
     cy="3.5837104"
     rx="1.2449755"
     ry="1.2449755"
     id="ellipse145" />
  <ellipse
     style="fill:#bcbc7e;fill-rule:evenodd;fill-opacity:1;stroke:#000000;stroke-width:0.018721435px;stroke-linecap:round;stroke-linejoin:round;stroke-miterlimit:4;stroke-dasharray:none;stroke-opacity:1;"
     cx="2.9673476"
     cy="3.5837104"
     rx="0.98287539"
     ry="0.98287539"
     id="ellipse147" />
  <ellipse
     style="fill:none;stroke:#bcbc7e;stroke-width:0.018721435px;stroke-linecap:round;stroke-linejoin:round;stroke-miterlimit:4;stroke-dasharray:none;stroke-opacity:1;"
     cx="2.9673476"
     cy="3.5837104"
     rx="0.98287539"
     ry="0.98287539"
     id="ellipse149" />
  <ellipse
     style="fill:#000000;fill-rule:evenodd;fill-opacity:1;stroke:#000000;stroke-width:0.018721435px;stroke-linecap:round;stroke-linejoin:round;stroke-miterlimit:4;stroke-dasharray:none;stroke-opacity:1;"
     cx="2.9673476"
     cy="3.5837104"
     rx="0.1029679"
     ry="0.1029679"
     id="ellipse151" />
  <ellipse
     style="fill:none;stroke:#000000;stroke-width:0.018721435px;stroke-linecap:round;stroke-linejoin:round;stroke-miterlimit:4;stroke-dasharray:none;stroke-opacity:1;"
     cx="2.9673476"
     cy="3.5837104"
     rx="0.1029679"
     ry="0.1029679"
     id="ellipse153" />
  <ellipse
     style="fill:#000000;fill-rule:evenodd;fill-opacity:1;stroke:#000000;stroke-width:0.018721435px;stroke-linecap:round;stroke-linejoin:round;stroke-miterlimit:4;stroke-dasharray:none;stroke-opacity:1;"
     cx="77.927978"
     cy="3.5837104"
     rx="1.2449755"
     ry="1.2449755"
     id="ellipse155" />
  <ellipse
     style="fill:none;stroke:#000000;stroke-width:0.018721435px;stroke-linecap:round;stroke-linejoin:round;stroke-miterlimit:4;stroke-dasharray:none;stroke-opacity:1;"
     cx="77.927978"
     cy="3.5837104"
     rx="1.2449755"
     ry="1.2449755"
     id="ellipse157" />
  <ellipse
     style="fill:#bcbc7e;fill-rule:evenodd;fill-opacity:1;stroke:#000000;stroke-width:0.018721435px;stroke-linecap:round;stroke-linejoin:round;stroke-miterlimit:4;stroke-dasharray:none;stroke-opacity:1;"
     cx="77.937338"
     cy="3.5837104"
     rx="0.99223611"
     ry="0.98287539"
     id="ellipse159" />
  <ellipse
     style="fill:none;stroke:#bcbc7e;stroke-width:0.018721435px;stroke-linecap:round;stroke-linejoin:round;stroke-miterlimit:4;stroke-dasharray:none;stroke-opacity:1;"
     cx="77.937338"
     cy="3.5837104"
     rx="0.99223611"
     ry="0.98287539"
     id="ellipse161" />
  <ellipse
     style="fill:#000000;fill-rule:evenodd;fill-opacity:1;stroke:#000000;stroke-width:0.018721435px;stroke-linecap:round;stroke-linejoin:round;stroke-miterlimit:4;stroke-dasharray:none;stroke-opacity:1;"
     cx="77.937338"
     cy="3.5837104"
     rx="0.11232862"
     ry="0.1029679"
     id="ellipse163" />
  <ellipse
     style="fill:none;stroke:#000000;stroke-width:0.018721435px;stroke-linecap:round;stroke-linejoin:round;stroke-miterlimit:4;stroke-dasharray:none;stroke-opacity:1;"
     cx="77.937338"
     cy="3.5837104"
     rx="0.11232862"
     ry="0.1029679"
     id="ellipse165" />
  <text
     xml:space="preserve"
     style="font-size:0.812500px;font-style:normal;font-variant:normal;font-weight:400;font-stretch:Normal;line-height:125.000000%;letter-spacing:0px;word-spacing:0px;fill:#000000;fill-opacity:1;stroke:none;font-family:Arial;text-align:start;text-anchor:start;"
     transform="matrix(1.000000,-0.000000,0.000000,1.000000,10.558890,13.469484)"
     x="0.000000"
     y="0.592313"
     id="text171"><tspan
       x="0.000000"
       y="0.592313"
       id="tspan169"><tspan
         dx="0.000000"
         dy="0.000000"
         style="fill:#000000;font-size:0.812500px;font-style:normal;font-variant:normal;font-weight:400;font-stretch:Normal;font-family:Arial;"
         id="tspan167">USB</tspan></tspan></text>
  <ellipse
     style="fill:#666666;fill-rule:evenodd;fill-opacity:1;stroke:#000000;stroke-width:0.013729054px;stroke-linecap:round;stroke-linejoin:round;stroke-miterlimit:4;stroke-dasharray:none;stroke-opacity:1;"
     cx="3.2469211"
     cy="13.938772"
     rx="0.32263275"
     ry="0.31576822"
     id="ellipse173" />
  <ellipse
     style="fill:none;stroke:#0a0a0a;stroke-width:0.013729054px;stroke-linecap:round;stroke-linejoin:round;stroke-miterlimit:4;stroke-dasharray:none;stroke-opacity:1;"
     cx="3.2469211"
     cy="13.938772"
     rx="0.32263275"
     ry="0.31576822"
     id="ellipse175" />
  <text
     xml:space="preserve"
     style="font-size:0.812500px;font-style:normal;font-variant:normal;font-weight:400;font-stretch:Normal;line-height:125.000000%;letter-spacing:0px;word-spacing:0px;fill:#000000;fill-opacity:1;stroke:none;font-family:Arial;text-align:start;text-anchor:start;"
     transform="matrix(1.000000,-0.000000,0.000000,1.000000,39.240130,1.730716)"
     x="0.000000"
     y="0.592313"
     id="text181"><tspan
       x="0.000000"
       y="0.592313"
       id="tspan179"><tspan
         dx="0.000000"
         dy="0.000000"
         style="fill:#000000;font-size:0.812500px;font-style:normal;font-variant:normal;font-weight:400;font-stretch:Normal;font-family:Arial;"
         id="tspan177">13</tspan></tspan></text>
  <text
     xml:space="preserve"
     style="font-size:0.812500px;font-style:normal;font-variant:normal;font-weight:400;font-stretch:Normal;line-height:1481.816861%;letter-spacing:0px;word-spacing:0px;fill:#000000;fill-opacity:1;stroke:none;font-family:Arial;text-align:start;text-anchor:start;"
     transform="matrix(1.000000,-0.000000,0.000000,1.000000,39.240130,1.730716)"
     x="5.466659"
     y="0.592313"
     id="text191"><tspan
       x="5.466659"
       y="0.592313"
       id="tspan185"><tspan
         dx="0.000000"
         dy="0.000000"
         style="fill:#000000;font-size:0.812500px;font-style:normal;font-variant:normal;font-weight:400;font-stretch:Normal;font-family:Arial;"
         id="tspan183">11</tspan></tspan><tspan
       x="5.466659"
       y="12.632074"
       id="tspan189"><tspan
         dx="0.000000"
         dy="0.000000"
         style="fill:#000000;font-size:0.812500px;font-style:normal;font-variant:normal;font-weight:400;font-stretch:Normal;font-family:Arial;"
         id="tspan187">12</tspan></tspan></text>
  <text
     xml:space="preserve"
     style="font-size:0.812500px;font-style:normal;font-variant:normal;font-weight:400;font-stretch:Normal;line-height:125.000000%;letter-spacing:0px;word-spacing:0px;fill:#000000;fill-opacity:1;stroke:none;font-family:Arial;text-align:start;text-anchor:start;"
     transform="matrix(1.000000,-0.000000,0.000000,1.000000,39.240130,1.730716)"
     x="0.000000"
     y="12.632074"
     id="text197"><tspan
       x="0.000000"
       y="12.632074"
       id="tspan195"><tspan
         dx="0.000000"
         dy="0.000000"
         style="fill:#000000;font-size:0.812500px;font-style:normal;font-variant:normal;font-weight:400;font-stretch:Normal;font-family:Arial;"
         id="tspan193">14</tspan></tspan></text>
  <text
     xml:space="preserve"
     style="font-size:0.812500px;font-style:normal;font-variant:normal;font-weight:400;font-stretch:Normal;line-height:125.000000%;letter-spacing:0px;word-spacing:0px;fill:#000000;fill-opacity:1;stroke:none;font-family:Arial;text-align:start;text-anchor:start;"
     transform="matrix(1.000000,-0.000000,0.000000,1.000000,39.240130,1.730716)"
     x="11.157976"
     y="0.592313"
     id="text203"><tspan
       x="11.157976"
       y="0.592313"
       id="tspan201"><tspan
         dx="0.000000"
         dy="0.000000"
         style="fill:#000000;font-size:0.812500px;font-style:normal;font-variant:normal;font-weight:400;font-stretch:Normal;font-family:Arial;"
         id="tspan199">9</tspan></tspan></text>
  <text
     xml:space="preserve"
     style="font-size:0.812500px;font-style:normal;font-variant:normal;font-weight:400;font-stretch:Normal;line-height:125.000000%;letter-spacing:0px;word-spacing:0px;fill:#000000;fill-opacity:1;stroke:none;font-family:Arial;text-align:start;text-anchor:start;"
     transform="matrix(1.000000,-0.000000,0.000000,1.000000,39.240130,1.730716)"
     x="16.624635"
     y="0.592313"
     id="text209"><tspan
       x="16.624635"
       y="0.592313"
       id="tspan207"><tspan
         dx="0.000000"
         dy="0.000000"
         style="fill:#000000;font-size:0.812500px;font-style:normal;font-variant:normal;font-weight:400;font-stretch:Normal;font-family:Arial;"
         id="tspan205">7</tspan></tspan></text>
  <text
     xml:space="preserve"
     style="font-size:0.812500px;font-style:normal;font-variant:normal;font-weight:400;font-stretch:Normal;line-height:125.000000%;letter-spacing:0px;word-spacing:0px;fill:#000000;fill-opacity:1;stroke:none;font-family:Arial;text-align:start;text-anchor:start;"
     transform="matrix(1.000000,-0.000000,0.000000,1.000000,39.240130,1.730716)"
     x="22.166180"
     y="0.592313"
     id="text215"><tspan
       x="22.166180"
       y="0.592313"
       id="tspan213"><tspan
         dx="0.000000"
         dy="0.000000"
         style="fill:#000000;font-size:0.812500px;font-style:normal;font-variant:normal;font-weight:400;font-stretch:Normal;font-family:Arial;"
         id="tspan211">5</tspan></tspan></text>
  <text
     xml:space="preserve"
     style="font-size:0.812500px;font-style:normal;font-variant:normal;font-weight:400;font-stretch:Normal;line-height:125.000000%;letter-spacing:0px;word-spacing:0px;fill:#000000;fill-opacity:1;stroke:none;font-family:Arial;text-align:start;text-anchor:start;"
     transform="matrix(1.000000,-0.000000,0.000000,1.000000,39.240130,1.730716)"
     x="27.632840"
     y="0.592313"
     id="text221"><tspan
       x="27.632840"
       y="0.592313"
       id="tspan219"><tspan
         dx="0.000000"
         dy="0.000000"
         style="fill:#000000;font-size:0.812500px;font-style:normal;font-variant:normal;font-weight:400;font-stretch:Normal;font-family:Arial;"
         id="tspan217">3</tspan></tspan></text>
  <text
     xml:space="preserve"
     style="font-size:0.812500px;font-style:normal;font-variant:normal;font-weight:400;font-stretch:Normal;line-height:125.000000%;letter-spacing:0px;word-spacing:0px;fill:#000000;fill-opacity:1;stroke:none;font-family:Arial;text-align:start;text-anchor:start;"
     transform="matrix(1.000000,-0.000000,0.000000,1.000000,39.240130,1.730716)"
     x="33.099499"
     y="0.592313"
     id="text227"><tspan
       x="33.099499"
       y="0.592313"
       id="tspan225"><tspan
         dx="0.000000"
         dy="0.000000"
         style="fill:#000000;font-size:0.812500px;font-style:normal;font-variant:normal;font-weight:400;font-stretch:Normal;font-family:Arial;"
         id="tspan223">1</tspan></tspan></text>
  <text
     xml:space="preserve"
     style="font-size:0.812500px;font-style:normal;font-variant:normal;font-weight:400;font-stretch:Normal;line-height:125.000000%;letter-spacing:0px;word-spacing:0px;fill:#000000;fill-opacity:1;stroke:none;font-family:Arial;text-align:start;text-anchor:start;"
     transform="matrix(1.000000,-0.000000,0.000000,1.000000,39.240130,1.730716)"
     x="-6.290403"
     y="0.592313"
     id="text233"><tspan
       x="-6.290403"
       y="0.592313"
       id="tspan231"><tspan
         dx="0.000000"
         dy="0.000000"
         style="fill:#000000;font-size:0.812500px;font-style:normal;font-variant:normal;font-weight:400;font-stretch:Normal;font-family:Arial;"
         id="tspan229">WAN 1</tspan></tspan></text>
  <text
     xml:space="preserve"
     style="font-size:0.812500px;font-style:normal;font-variant:normal;font-weight:400;font-stretch:Normal;line-height:125.000000%;letter-spacing:0px;word-spacing:0px;fill:#000000;fill-opacity:1;stroke:none;font-family:Arial;text-align:start;text-anchor:start;"
     transform="matrix(1.000000,-0.000000,0.000000,1.000000,39.240130,1.730716)"
     x="10.933319"
     y="12.632074"
     id="text239"><tspan
       x="10.933319"
       y="12.632074"
       id="tspan237"><tspan
         dx="0.000000"
         dy="0.000000"
         style="fill:#000000;font-size:0.812500px;font-style:normal;font-variant:normal;font-weight:400;font-stretch:Normal;font-family:Arial;"
         id="tspan235">10</tspan></tspan></text>
  <text
     xml:space="preserve"
     style="font-size:0.812500px;font-style:normal;font-variant:normal;font-weight:400;font-stretch:Normal;line-height:125.000000%;letter-spacing:0px;word-spacing:0px;fill:#000000;fill-opacity:1;stroke:none;font-family:Arial;text-align:start;text-anchor:start;"
     transform="matrix(1.000000,-0.000000,0.000000,1.000000,39.240130,1.730716)"
     x="16.849292"
     y="12.632074"
     id="text245"><tspan
       x="16.849292"
       y="12.632074"
       id="tspan243"><tspan
         dx="0.000000"
         dy="0.000000"
         style="fill:#000000;font-size:0.812500px;font-style:normal;font-variant:normal;font-weight:400;font-stretch:Normal;font-family:Arial;"
         id="tspan241">8</tspan></tspan></text>
  <text
     xml:space="preserve"
     style="font-size:0.812500px;font-style:normal;font-variant:normal;font-weight:400;font-stretch:Normal;line-height:125.000000%;letter-spacing:0px;word-spacing:0px;fill:#000000;fill-opacity:1;stroke:none;font-family:Arial;text-align:start;text-anchor:start;"
     transform="matrix(1.000000,-0.000000,0.000000,1.000000,39.240130,1.730716)"
     x="22.241066"
     y="12.632074"
     id="text251"><tspan
       x="22.241066"
       y="12.632074"
       id="tspan249"><tspan
         dx="0.000000"
         dy="0.000000"
         style="fill:#000000;font-size:0.812500px;font-style:normal;font-variant:normal;font-weight:400;font-stretch:Normal;font-family:Arial;"
         id="tspan247">6</tspan></tspan></text>
  <text
     xml:space="preserve"
     style="font-size:0.812500px;font-style:normal;font-variant:normal;font-weight:400;font-stretch:Normal;line-height:125.000000%;letter-spacing:0px;word-spacing:0px;fill:#000000;fill-opacity:1;stroke:none;font-family:Arial;text-align:start;text-anchor:start;"
     transform="matrix(1.000000,-0.000000,0.000000,1.000000,39.240130,1.730716)"
     x="27.707725"
     y="12.632074"
     id="text257"><tspan
       x="27.707725"
       y="12.632074"
       id="tspan255"><tspan
         dx="0.000000"
         dy="0.000000"
         style="fill:#000000;font-size:0.812500px;font-style:normal;font-variant:normal;font-weight:400;font-stretch:Normal;font-family:Arial;"
         id="tspan253">4</tspan></tspan></text>
  <text
     xml:space="preserve"
     style="font-size:0.812500px;font-style:normal;font-variant:normal;font-weight:400;font-stretch:Normal;line-height:125.000000%;letter-spacing:0px;word-spacing:0px;fill:#000000;fill-opacity:1;stroke:none;font-family:Arial;text-align:start;text-anchor:start;"
     transform="matrix(1.000000,-0.000000,0.000000,1.000000,39.240130,1.730716)"
     x="33.099499"
     y="12.632074"
     id="text263"><tspan
       x="33.099499"
       y="12.632074"
       id="tspan261"><tspan
         dx="0.000000"
         dy="0.000000"
         style="fill:#000000;font-size:0.812500px;font-style:normal;font-variant:normal;font-weight:400;font-stretch:Normal;font-family:Arial;"
         id="tspan259">2</tspan></tspan></text>
  <text
     xml:space="preserve"
     style="font-size:0.812500px;font-style:normal;font-variant:normal;font-weight:400;font-stretch:Normal;line-height:125.000000%;letter-spacing:0px;word-spacing:0px;fill:#000000;fill-opacity:1;stroke:none;font-family:Arial;text-align:start;text-anchor:start;"
     transform="matrix(1.000000,-0.000000,0.000000,1.000000,39.240130,1.730716)"
     x="-6.290403"
     y="12.632074"
     id="text269"><tspan
       x="-6.290403"
       y="12.632074"
       id="tspan267"><tspan
         dx="0.000000"
         dy="0.000000"
         style="fill:#000000;font-size:0.812500px;font-style:normal;font-variant:normal;font-weight:400;font-stretch:Normal;font-family:Arial;"
         id="tspan265">WAN 2</tspan></tspan></text>
  <text
     xml:space="preserve"
     style="font-size:0.812500px;font-style:normal;font-variant:normal;font-weight:400;font-stretch:Normal;line-height:125.000000%;letter-spacing:0px;word-spacing:0px;fill:#000000;fill-opacity:1;stroke:none;font-family:Arial;text-align:start;text-anchor:start;"
     transform="matrix(1.000000,-0.000000,0.000000,1.000000,39.240130,1.730716)"
     x="-33.249270"
     y="12.331080"
     id="text275"><tspan
       x="-33.249270"
       y="12.331080"
       id="tspan273"><tspan
         dx="0.000000"
         dy="0.000000"
         style="fill:#000000;font-size:0.812500px;font-style:normal;font-variant:normal;font-weight:400;font-stretch:Normal;font-family:Arial;"
         id="tspan271">DC+12V</tspan></tspan></text>
  <path
     style="fill:none;stroke:#000000;stroke-width:0.018721435px;stroke-linecap:round;stroke-linejoin:round;stroke-miterlimit:4;stroke-dasharray:none;stroke-opacity:1;"
     d="  M 3.3136942,11.280691   L 3.3136942,12.245008  "
     id="path277" />
  <path
     style="fill:none;stroke:#000000;stroke-width:0.018721435px;stroke-linecap:round;stroke-linejoin:round;stroke-miterlimit:4;stroke-dasharray:none;stroke-opacity:1;"
     d="  M 2.621001,12.445149   L 4.0063873,12.445149  "
     id="path279" />
  <path
     style="fill:none;stroke:#000000;stroke-width:0.018721435px;stroke-linecap:round;stroke-linejoin:round;stroke-miterlimit:4;stroke-dasharray:none;stroke-opacity:1;"
     d="  M 2.8456583,12.663485   L 3.8004515,12.663485  "
     id="path281" />
  <path
     style="fill:none;stroke:#000000;stroke-width:0.018721435px;stroke-linecap:round;stroke-linejoin:round;stroke-miterlimit:4;stroke-dasharray:none;stroke-opacity:1;"
     d="  M 2.8456583,12.663485   L 3.8004515,12.663485  "
     id="path283" />
  <path
     style="fill:none;stroke:#000000;stroke-width:0.018721435px;stroke-linecap:round;stroke-linejoin:round;stroke-miterlimit:4;stroke-dasharray:none;stroke-opacity:1;"
     d="  M 3.0890369,12.900016   L 3.5383514,12.900016  "
     id="path285" />
  <path
     style="fill:#000000;fill-rule:evenodd;fill-opacity:1;stroke:#161616;stroke-width:0.018576441px;stroke-linecap:round;stroke-linejoin:round;stroke-miterlimit:4;stroke-dasharray:none;stroke-opacity:1;"
     d="  M 70.237523,7.628234   L 70.237523,4.7885264   L 71.426415,4.7885264   L 71.426415,4.12036   L 71.909403,4.12036   L 71.909403,3.4521935   L 73.321212,3.4521935   L 73.321212,4.12036   L 73.8042,4.12036   L 73.8042,4.7885264   L 74.993092,4.7885264   L 74.993092,7.628234   L 70.237523,7.628234   z "
     id="path287" />
  <path
     style="fill:#000000;fill-rule:evenodd;fill-opacity:1;stroke:#161616;stroke-width:0.018576441px;stroke-linecap:round;stroke-linejoin:round;stroke-miterlimit:4;stroke-dasharray:none;stroke-opacity:1;"
     d="  M 70.237523,9.0202475   L 70.237523,11.859955   L 71.426415,11.859955   L 71.426415,12.528121   L 71.909403,12.528121   L 71.909403,13.196288   L 73.321212,13.196288   L 73.321212,12.528121   L 73.8042,12.528121   L 73.8042,11.859955   L 74.993092,11.859955   L 74.993092,9.0202475   L 70.237523,9.0202475   z "
     id="path289" />
  <path
     style="fill:#000000;fill-rule:evenodd;fill-opacity:1;stroke:#161616;stroke-width:0.018576441px;stroke-linecap:round;stroke-linejoin:round;stroke-miterlimit:4;stroke-dasharray:none;stroke-opacity:1;"
     d="  M 64.776049,7.628234   L 64.776049,4.7885264   L 65.964942,4.7885264   L 65.964942,4.12036   L 66.447929,4.12036   L 66.447929,3.4521935   L 67.859738,3.4521935   L 67.859738,4.12036   L 68.342726,4.12036   L 68.342726,4.7885264   L 69.531618,4.7885264   L 69.531618,7.628234   L 64.776049,7.628234   z "
     id="path291" />
  <path
     style="fill:#000000;fill-rule:evenodd;fill-opacity:1;stroke:#161616;stroke-width:0.018576441px;stroke-linecap:round;stroke-linejoin:round;stroke-miterlimit:4;stroke-dasharray:none;stroke-opacity:1;"
     d="  M 64.776049,9.0202475   L 64.776049,11.859955   L 65.964942,11.859955   L 65.964942,12.528121   L 66.447929,12.528121   L 66.447929,13.196288   L 67.859738,13.196288   L 67.859738,12.528121   L 68.342726,12.528121   L 68.342726,11.859955   L 69.531618,11.859955   L 69.531618,9.0202475   L 64.776049,9.0202475   z "
     id="path293" />
  <path
     style="fill:#000000;fill-rule:evenodd;fill-opacity:1;stroke:#161616;stroke-width:0.018576441px;stroke-linecap:round;stroke-linejoin:round;stroke-miterlimit:4;stroke-dasharray:none;stroke-opacity:1;"
     d="  M 59.314576,7.628234   L 59.314576,4.7885264   L 60.503468,4.7885264   L 60.503468,4.12036   L 60.986455,4.12036   L 60.986455,3.4521935   L 62.398265,3.4521935   L 62.398265,4.12036   L 62.881252,4.12036   L 62.881252,4.7885264   L 64.070145,4.7885264   L 64.070145,7.628234   L 59.314576,7.628234   z "
     id="path295" />
  <path
     style="fill:#000000;fill-rule:evenodd;fill-opacity:1;stroke:#161616;stroke-width:0.018576441px;stroke-linecap:round;stroke-linejoin:round;stroke-miterlimit:4;stroke-dasharray:none;stroke-opacity:1;"
     d="  M 59.314576,9.0202475   L 59.314576,11.859955   L 60.503468,11.859955   L 60.503468,12.528121   L 60.986455,12.528121   L 60.986455,13.196288   L 62.398265,13.196288   L 62.398265,12.528121   L 62.881252,12.528121   L 62.881252,11.859955   L 64.070145,11.859955   L 64.070145,9.0202475   L 59.314576,9.0202475   z "
     id="path297" />
  <path
     style="fill:#000000;fill-rule:evenodd;fill-opacity:1;stroke:#161616;stroke-width:0.018576441px;stroke-linecap:round;stroke-linejoin:round;stroke-miterlimit:4;stroke-dasharray:none;stroke-opacity:1;"
     d="  M 53.834526,7.628234   L 53.834526,4.7885264   L 55.023418,4.7885264   L 55.023418,4.12036   L 55.506405,4.12036   L 55.506405,3.4521935   L 56.918215,3.4521935   L 56.918215,4.12036   L 57.401202,4.12036   L 57.401202,4.7885264   L 58.590094,4.7885264   L 58.590094,7.628234   L 53.834526,7.628234   z "
     id="path299" />
  <path
     style="fill:#000000;fill-rule:evenodd;fill-opacity:1;stroke:#161616;stroke-width:0.018576441px;stroke-linecap:round;stroke-linejoin:round;stroke-miterlimit:4;stroke-dasharray:none;stroke-opacity:1;"
     d="  M 53.834526,9.0202475   L 53.834526,11.859955   L 55.023418,11.859955   L 55.023418,12.528121   L 55.506405,12.528121   L 55.506405,13.196288   L 56.918215,13.196288   L 56.918215,12.528121   L 57.401202,12.528121   L 57.401202,11.859955   L 58.590094,11.859955   L 58.590094,9.0202475   L 53.834526,9.0202475   z "
     id="path301" />
  <path
     style="fill:#000000;fill-rule:evenodd;fill-opacity:1;stroke:#161616;stroke-width:0.018576441px;stroke-linecap:round;stroke-linejoin:round;stroke-miterlimit:4;stroke-dasharray:none;stroke-opacity:1;"
     d="  M 48.298746,7.628234   L 48.298746,4.7885264   L 49.487638,4.7885264   L 49.487638,4.12036   L 49.970626,4.12036   L 49.970626,3.4521935   L 51.382435,3.4521935   L 51.382435,4.12036   L 51.865423,4.12036   L 51.865423,4.7885264   L 53.054315,4.7885264   L 53.054315,7.628234   L 48.298746,7.628234   z "
     id="path303" />
  <path
     style="fill:#000000;fill-rule:evenodd;fill-opacity:1;stroke:#161616;stroke-width:0.018576441px;stroke-linecap:round;stroke-linejoin:round;stroke-miterlimit:4;stroke-dasharray:none;stroke-opacity:1;"
     d="  M 48.298746,9.0202475   L 48.298746,11.859955   L 49.487638,11.859955   L 49.487638,12.528121   L 49.970626,12.528121   L 49.970626,13.196288   L 51.382435,13.196288   L 51.382435,12.528121   L 51.865423,12.528121   L 51.865423,11.859955   L 53.054315,11.859955   L 53.054315,9.0202475   L 48.298746,9.0202475   z "
     id="path305" />
  <path
     style="fill:#000000;fill-rule:evenodd;fill-opacity:1;stroke:#161616;stroke-width:0.018576441px;stroke-linecap:round;stroke-linejoin:round;stroke-miterlimit:4;stroke-dasharray:none;stroke-opacity:1;"
     d="  M 42.837273,7.628234   L 42.837273,4.7885264   L 44.026165,4.7885264   L 44.026165,4.12036   L 44.509152,4.12036   L 44.509152,3.4521935   L 45.920962,3.4521935   L 45.920962,4.12036   L 46.403949,4.12036   L 46.403949,4.7885264   L 47.592842,4.7885264   L 47.592842,7.628234   L 42.837273,7.628234   z "
     id="path307" />
  <path
     style="fill:#000000;fill-rule:evenodd;fill-opacity:1;stroke:#161616;stroke-width:0.018576441px;stroke-linecap:round;stroke-linejoin:round;stroke-miterlimit:4;stroke-dasharray:none;stroke-opacity:1;"
     d="  M 42.837273,9.0202475   L 42.837273,11.859955   L 44.026165,11.859955   L 44.026165,12.528121   L 44.509152,12.528121   L 44.509152,13.196288   L 45.920962,13.196288   L 45.920962,12.528121   L 46.403949,12.528121   L 46.403949,11.859955   L 47.592842,11.859955   L 47.592842,9.0202475   L 42.837273,9.0202475   z "
     id="path309" />
  <path
     style="fill:#000000;fill-rule:evenodd;fill-opacity:1;stroke:#161616;stroke-width:0.018576441px;stroke-linecap:round;stroke-linejoin:round;stroke-miterlimit:4;stroke-dasharray:none;stroke-opacity:1;"
     d="  M 37.375799,7.628234   L 37.375799,4.7885264   L 38.564691,4.7885264   L 38.564691,4.12036   L 39.047679,4.12036   L 39.047679,3.4521935   L 40.459488,3.4521935   L 40.459488,4.12036   L 40.942476,4.12036   L 40.942476,4.7885264   L 42.131368,4.7885264   L 42.131368,7.628234   L 37.375799,7.628234   z "
     id="path311" />
  <path
     style="fill:#000000;fill-rule:evenodd;fill-opacity:1;stroke:#161616;stroke-width:0.018576441px;stroke-linecap:round;stroke-linejoin:round;stroke-miterlimit:4;stroke-dasharray:none;stroke-opacity:1;"
     d="  M 37.375799,9.0202475   L 37.375799,11.859955   L 38.564691,11.859955   L 38.564691,12.528121   L 39.047679,12.528121   L 39.047679,13.196288   L 40.459488,13.196288   L 40.459488,12.528121   L 40.942476,12.528121   L 40.942476,11.859955   L 42.131368,11.859955   L 42.131368,9.0202475   L 37.375799,9.0202475   z "
     id="path313" />
  <path
     style="fill:#000000;fill-rule:evenodd;fill-opacity:1;stroke:#161616;stroke-width:0.018576441px;stroke-linecap:round;stroke-linejoin:round;stroke-miterlimit:4;stroke-dasharray:none;stroke-opacity:1;"
     d="  M 31.895749,7.628234   L 31.895749,4.7885264   L 33.084641,4.7885264   L 33.084641,4.12036   L 33.567629,4.12036   L 33.567629,3.4521935   L 34.979438,3.4521935   L 34.979438,4.12036   L 35.462426,4.12036   L 35.462426,4.7885264   L 36.651318,4.7885264   L 36.651318,7.628234   L 31.895749,7.628234   z "
     id="path315" />
  <path
     style="fill:#000000;fill-rule:evenodd;fill-opacity:1;stroke:#161616;stroke-width:0.018576441px;stroke-linecap:round;stroke-linejoin:round;stroke-miterlimit:4;stroke-dasharray:none;stroke-opacity:1;"
     d="  M 31.895749,9.0202475   L 31.895749,11.859955   L 33.084641,11.859955   L 33.084641,12.528121   L 33.567629,12.528121   L 33.567629,13.196288   L 34.979438,13.196288   L 34.979438,12.528121   L 35.462426,12.528121   L 35.462426,11.859955   L 36.651318,11.859955   L 36.651318,9.0202475   L 31.895749,9.0202475   z "
     id="path317" />
  <path
     style="fill:#bfbfbf;fill-rule:evenodd;fill-opacity:1;stroke:#000000;stroke-width:0.015492131px;stroke-linecap:round;stroke-linejoin:round;stroke-miterlimit:4;stroke-dasharray:none;stroke-opacity:1;"
     d="  M 10.565633,12.275963   L 10.565633,12.323117   L 10.581125,12.323117   L 10.581125,12.354554   L 10.596617,12.370272   L 10.596617,12.385991   L 10.612109,12.385991   L 10.612109,12.401709   L 10.627602,12.401709   L 10.627602,12.417427   L 10.643094,12.417427   L 10.658586,12.433145   L 10.68957,12.433145   L 10.68957,12.448864   L 12.207799,12.448864   L 12.207799,12.433145   L 12.238783,12.433145   L 12.254275,12.417427   L 12.269767,12.417427   L 12.269767,12.401709   L 12.28526,12.401709   L 12.28526,12.385991   L 12.300752,12.385991   L 12.300752,12.370272   L 12.316244,12.354554   L 12.316244,12.323117   L 12.331736,12.323117   L 12.331736,8.3935519   L 12.316244,8.3935519   L 12.316244,8.3621154   L 12.300752,8.3463972   L 12.300752,8.3306789   L 12.28526,8.3306789   L 12.28526,8.3149606   L 12.269767,8.3149606   L 12.269767,8.2992424   L 12.254275,8.2992424   L 12.238783,8.2835241   L 12.207799,8.2835241   L 12.207799,8.2678058   L 10.68957,8.2678058   L 10.68957,8.2835241   L 10.658586,8.2835241   L 10.643094,8.2992424   L 10.627602,8.2992424   L 10.627602,8.3149606   L 10.612109,8.3149606   L 10.612109,8.3306789   L 10.596617,8.3306789   L 10.596617,8.3463972   L 10.581125,8.3621154   L 10.581125,8.3935519   L 10.565633,8.3935519   L 10.565633,12.260244   L 10.565633,12.275963   z "
     id="path319" />
  <path
     style="fill:#000000;fill-rule:evenodd;fill-opacity:1;stroke:#333333;stroke-width:0.015492131px;stroke-linecap:round;stroke-linejoin:round;stroke-miterlimit:4;stroke-dasharray:none;stroke-opacity:1;"
     d="  M 10.705062,12.21309   L 10.705062,12.260244   L 10.720554,12.260244   L 10.720554,12.275963   L 10.736046,12.291681   L 10.751539,12.291681   L 10.751539,12.307399   L 12.14583,12.307399   L 12.161323,12.291681   L 12.176815,12.291681   L 12.176815,12.275963   L 12.192307,12.275963   L 12.192307,12.260244   L 12.207799,12.244526   L 12.207799,8.456425   L 12.192307,8.456425   L 12.192307,8.4407067   L 12.176815,8.4407067   L 12.176815,8.4249885   L 12.161323,8.4249885   L 12.14583,8.4092702   L 10.751539,8.4092702   L 10.751539,8.4249885   L 10.736046,8.4249885   L 10.720554,8.4407067   L 10.720554,8.456425   L 10.705062,8.456425   L 10.705062,12.197371   L 10.705062,12.21309   z "
     id="path321" />
  <path
     style="fill:#e2e2cc;fill-rule:evenodd;fill-opacity:1;stroke:#000000;stroke-width:0.015492131px;stroke-linecap:round;stroke-linejoin:round;stroke-miterlimit:4;stroke-dasharray:none;stroke-opacity:1;"
     d="  M 11.479669,11.380022   L 11.479669,11.725823   L 11.402208,11.725823   L 11.402208,11.380022   L 11.479669,11.380022   z "
     id="path323" />
  <path
     style="fill:#e2e2cc;fill-rule:evenodd;fill-opacity:1;stroke:#000000;stroke-width:0.015492131px;stroke-linecap:round;stroke-linejoin:round;stroke-miterlimit:4;stroke-dasharray:none;stroke-opacity:1;"
     d="  M 11.479669,10.594109   L 11.479669,10.93991   L 11.402208,10.93991   L 11.402208,10.594109   L 11.479669,10.594109   z "
     id="path325" />
  <path
     style="fill:#e2e2cc;fill-rule:evenodd;fill-opacity:1;stroke:#000000;stroke-width:0.015492131px;stroke-linecap:round;stroke-linejoin:round;stroke-miterlimit:4;stroke-dasharray:none;stroke-opacity:1;"
     d="  M 11.479669,9.8239138   L 11.479669,10.169716   L 11.402208,10.169716   L 11.402208,9.8239138   L 11.479669,9.8239138   z "
     id="path327" />
  <path
     style="fill:#e2e2cc;fill-rule:evenodd;fill-opacity:1;stroke:#000000;stroke-width:0.015492131px;stroke-linecap:round;stroke-linejoin:round;stroke-miterlimit:4;stroke-dasharray:none;stroke-opacity:1;"
     d="  M 11.479669,9.0222824   L 11.479669,9.3680842   L 11.402208,9.3680842   L 11.402208,9.0222824   L 11.479669,9.0222824   z "
     id="path329" />
  <path
     style="fill:#7f7f7f;fill-rule:evenodd;fill-opacity:1;stroke:#000000;stroke-width:0.015492131px;stroke-linecap:round;stroke-linejoin:round;stroke-miterlimit:4;stroke-dasharray:none;stroke-opacity:1;"
     d="  M 10.999413,8.6450441   L 10.968428,8.6450441   L 10.937444,8.6607624   L 10.921952,8.6921989   L 10.921952,12.02447   L 10.937444,12.055907   L 10.968428,12.071625   L 11.355732,12.071625   L 11.386716,12.055907   L 11.402208,12.02447   L 11.402208,8.6921989   L 11.386716,8.6607624   L 11.355732,8.6450441   L 11.324747,8.6450441   L 10.999413,8.6450441   z "
     id="path331" />
  <path
     style="fill:#999999;fill-rule:evenodd;fill-opacity:1;stroke:#999999;stroke-width:0.015492131px;stroke-linecap:round;stroke-linejoin:round;stroke-miterlimit:4;stroke-dasharray:none;stroke-opacity:1;"
     d="  M 11.154334,8.7707902   L 11.092366,8.7865085   L 11.030397,8.8493815   L 11.014905,8.9122546   L 11.014905,11.804415   L 11.030397,11.867288   L 11.092366,11.930161   L 11.154334,11.945879   L 11.216303,11.930161   L 11.278271,11.867288   L 11.293763,11.804415   L 11.293763,8.9122546   L 11.278271,8.8493815   L 11.216303,8.7865085   L 11.154334,8.7707902   z "
     id="path333" />
  <path
     style="fill:#000000;fill-rule:evenodd;fill-opacity:1;stroke:#000000;stroke-width:0.018458709px;stroke-linecap:round;stroke-linejoin:round;stroke-miterlimit:4;stroke-dasharray:none;stroke-opacity:1;"
     d="  M 8.8786389,6.023436   L 8.8786389,12.383586   L 6.2944197,12.383586   L 6.2944197,6.023436   L 6.7928048,6.023436   L 6.7928048,6.5285068   L 8.3802538,6.5285068   L 8.3802538,6.023436   L 8.8786389,6.023436   z "
     id="path335" />
  <path
     style="fill:#666666;fill-rule:evenodd;fill-opacity:1;stroke:#000000;stroke-width:0.018458709px;stroke-linecap:round;stroke-linejoin:round;stroke-miterlimit:4;stroke-dasharray:none;stroke-opacity:1;"
     d="  M 8.8048041,6.71557   L 6.3682545,6.71557   L 6.3682545,12.290054   L 8.8048041,12.290054   L 8.8048041,6.71557   z "
     id="path337" />
  <path
     style="fill:#000000;fill-rule:evenodd;fill-opacity:1;stroke:#000000;stroke-width:0.018458709px;stroke-linecap:round;stroke-linejoin:round;stroke-miterlimit:4;stroke-dasharray:none;stroke-opacity:1;"
     d="  M 8.5463822,9.727288   L 6.6266765,9.727288   L 6.6266765,11.672746   L 8.5463822,11.672746   L 8.5463822,9.727288   z "
     id="path339" />
  <ellipse
     style="fill:#bfbfbf;fill-rule:evenodd;fill-opacity:1;stroke:#000000;stroke-width:0.018458709px;stroke-linecap:round;stroke-linejoin:round;stroke-miterlimit:4;stroke-dasharray:none;stroke-opacity:1;"
     cx="7.5034651"
     cy="10.615838"
     rx="0.15689902"
     ry="0.15689902"
     id="ellipse341" />
  <ellipse
     style="fill:none;stroke:#000000;stroke-width:0.018458709px;stroke-linecap:round;stroke-linejoin:round;stroke-miterlimit:4;stroke-dasharray:none;stroke-opacity:1;"
     cx="7.5034651"
     cy="10.615838"
     rx="0.15689902"
     ry="0.15689902"
     id="ellipse343" />
  <path
     style="fill:#000000;fill-rule:evenodd;fill-opacity:1;stroke:#000000;stroke-width:0.018458709px;stroke-linecap:round;stroke-linejoin:round;stroke-miterlimit:4;stroke-dasharray:none;stroke-opacity:1;"
     d="  M 8.5463822,7.3702913   L 6.6266765,7.3702913   L 6.6266765,8.8293845   L 7.1066029,9.3157489   L 8.1033732,9.3157489   L 8.5463822,8.8667972   L 8.5463822,7.3702913   z "
     id="path345" />
  <ellipse
     style="fill:#bfbfbf;fill-rule:evenodd;fill-opacity:1;stroke:#000000;stroke-width:0.018458709px;stroke-linecap:round;stroke-linejoin:round;stroke-miterlimit:4;stroke-dasharray:none;stroke-opacity:1;"
     cx="7.5034651"
     cy="8.2588417"
     rx="0.15689902"
     ry="0.15689902"
     id="ellipse347" />
  <ellipse
     style="fill:none;stroke:#000000;stroke-width:0.018458709px;stroke-linecap:round;stroke-linejoin:round;stroke-miterlimit:4;stroke-dasharray:none;stroke-opacity:1;"
     cx="7.5034651"
     cy="8.2588417"
     rx="0.15689902"
     ry="0.15689902"
     id="ellipse349" />
  <ellipse
     style="fill:#666666;fill-rule:evenodd;fill-opacity:1;stroke:#000000;stroke-width:0.038485408px;stroke-linecap:round;stroke-linejoin:round;stroke-miterlimit:4;stroke-dasharray:none;stroke-opacity:1;"
     cx="3.2327741"
     cy="9.3204908"
     rx="1.2700184"
     ry="1.2700184"
     id="ellipse351" />
  <ellipse
     style="fill:none;stroke:#000000;stroke-width:0.038485408px;stroke-linecap:round;stroke-linejoin:round;stroke-miterlimit:4;stroke-dasharray:none;stroke-opacity:1;"
     cx="3.2327741"
     cy="9.3204908"
     rx="1.2700184"
     ry="1.2700184"
     id="ellipse353" />
  <ellipse
     style="fill:#7f7f7f;fill-rule:evenodd;fill-opacity:1;stroke:#000000;stroke-width:0.038485408px;stroke-linecap:round;stroke-linejoin:round;stroke-miterlimit:4;stroke-dasharray:none;stroke-opacity:1;"
     cx="3.2327741"
     cy="9.3204908"
     rx="1.1545622"
     ry="1.1545622"
     id="ellipse355" />
  <ellipse
     style="fill:none;stroke:#7f7f7f;stroke-width:0.038485408px;stroke-linecap:round;stroke-linejoin:round;stroke-miterlimit:4;stroke-dasharray:none;stroke-opacity:1;"
     cx="3.2327741"
     cy="9.3204908"
     rx="1.1545622"
     ry="1.1545622"
     id="ellipse357" />
  <path
     style="fill:#494949;fill-rule:evenodd;fill-opacity:1;stroke:#161616;stroke-width:0.038485408px;stroke-linecap:round;stroke-linejoin:round;stroke-miterlimit:4;stroke-dasharray:none;stroke-opacity:1;"
     d="  M 2.3476098,9.204468   L 2.3091244,9.204468   L 2.270639,9.2431423   L 2.270639,9.2818165   L 2.2321536,9.2818165   L 2.2321536,9.5138619   L 2.270639,9.5138619   L 2.270639,9.5525362   L 2.3091244,9.5912104   L 3.1173179,9.5912104   L 3.1173179,10.442044   L 3.1558033,10.442044   L 3.1558033,10.480718   L 3.1942887,10.480718   L 3.1942887,10.519392   L 3.4252011,10.519392   L 3.4252011,10.480718   L 3.4636865,10.480718   L 3.4636865,10.442044   L 3.502172,10.442044   L 3.502172,9.5912104   L 4.3488509,9.5912104   L 4.3488509,9.5525362   L 4.3873363,9.5525362   L 4.3873363,9.5138619   L 4.4258217,9.5138619   L 4.4258217,9.2818165   L 4.3873363,9.2818165   L 4.3873363,9.2431423   L 4.3488509,9.2431423   L 4.3488509,9.204468   L 3.502172,9.204468   L 3.502172,8.3923091   L 3.4636865,8.3536349   L 3.4252011,8.3536349   L 3.4252011,8.3149606   L 3.1942887,8.3149606   L 3.1942887,8.3536349   L 3.1558033,8.3536349   L 3.1173179,8.3923091   L 3.1173179,9.204468   L 2.3860952,9.204468   L 2.3476098,9.204468   z "
     id="path359" />
  <path
     style="fill:none;stroke:#bfbfbf;stroke-width:0.038485408px;stroke-linecap:round;stroke-linejoin:round;stroke-miterlimit:4;stroke-dasharray:none;stroke-opacity:1;"
     d="  M 2.1936681,9.3204908   L 2.1936681,9.5138619   L 2.2321536,9.5525362   L 2.270639,9.5525362   L 2.270639,9.5912104   L 3.1173179,9.5912104   L 3.1173179,10.480718   L 3.1558033,10.519392   L 3.1942887,10.519392   L 3.1942887,10.558066   L 3.3097449,10.558066   L 3.3482303,10.558066  "
     id="path361" />
  <path
     style="fill:none;stroke:#bfbfbf;stroke-width:0.038485408px;stroke-linecap:round;stroke-linejoin:round;stroke-miterlimit:4;stroke-dasharray:none;stroke-opacity:1;"
     d="  M 3.1173179,8.3923091   L 3.1173179,9.1657938   L 3.1173179,9.204468  "
     id="path363" />
  <path
     style="fill:none;stroke:none;"
     d="  M 3.3324156,3.4594451   L 2.8456583,3.4594451   L 2.8456583,3.9511429   L 3.3324156,3.9511429   L 3.3324156,3.4594451  "
     id="path365" />
  <path
     style="fill:none;stroke:none;"
     d="  M 78.293046,3.4594451   L 77.806288,3.4594451   L 77.806288,3.9511429   L 78.293046,3.9511429   L 78.293046,3.4594451  "
     id="path367" />
</svg>
