<?xml version="1.0" encoding="UTF-8" standalone="no"?>
<svg
   version="1.0"
   width="21.620001mm"
   height="3.8399999mm"
   id="svg273"
   xmlns="http://www.w3.org/2000/svg"
   xmlns:svg="http://www.w3.org/2000/svg">
  <defs
     id="defs3">
    <pattern
       id="EMFhbasepattern"
       patternUnits="userSpaceOnUse"
       width="6"
       height="6"
       x="0"
       y="0" />
  </defs>
  <path
     style="fill:#dddddd;fill-rule:evenodd;fill-opacity:1;stroke:#000000;stroke-width:0.09356422px;stroke-linecap:round;stroke-linejoin:round;stroke-miterlimit:4;stroke-dasharray:none;stroke-opacity:1;"
     d="  M 69.662464,1.0576046   M 68.96977,2.2246167   M 69.194428,2.4434314   M 69.194428,2.4434314   M 69.437806,2.6804807   M 0.037425689,12.407984   L 0.037425689,12.501984   L 0.056138533,12.539584   L 0.056138533,12.577184   L 0.074851377,12.595984   L 0.074851377,12.633584   L 0.093564221,12.652384   L 0.093564221,12.689984   L 0.11227707,12.708783   L 0.13098991,12.746383   L 0.1684156,12.783983   L 0.18712844,12.821583   L 0.26197982,12.896783   L 0.29940551,12.915583   L 0.3368312,12.953183   L 0.37425689,12.971983   L 0.39296973,12.990783   L 0.43039542,12.990783   L 0.44910826,13.009583   L 0.48653395,13.009583   L 0.5052468,13.028383   L 0.54267248,13.028383   L 0.58009817,13.047183   L 80.933052,13.047183   L 80.970477,13.028383   L 81.007903,13.028383   L 81.026616,13.009583   L 81.064041,13.009583   L 81.082754,12.990783   L 81.12018,12.990783   L 81.138893,12.971983   L 81.176319,12.953183   L 81.213744,12.915583   L 81.25117,12.896783   L 81.326021,12.821583   L 81.344734,12.783983   L 81.38216,12.746383   L 81.400873,12.708783   L 81.419585,12.689984   L 81.419585,12.652384   L 81.438298,12.633584   L 81.438298,12.595984   L 81.457011,12.577184   L 81.457011,12.539584   L 81.475724,12.501984   L 81.475724,0.58279924   L 81.457011,0.54519929   L 81.457011,0.50759934   L 81.438298,0.48879937   L 81.438298,0.45119941   L 81.419585,0.43239944   L 81.419585,0.39479949   L 81.400873,0.37599951   L 81.38216,0.33839956   L 81.344734,0.30079961   L 81.326021,0.26319966   L 81.25117,0.18799976   L 81.213744,0.16919978   L 81.176319,0.13159983   L 81.138893,0.11279985   L 81.12018,0.093999878   L 81.082754,0.093999878   L 81.064041,0.075199902   L 81.026616,0.075199902   L 81.007903,0.056399927   L 80.970477,0.056399927   L 80.933052,0.037599951   L 0.58009817,0.037599951   L 0.54267248,0.056399927   L 0.5052468,0.056399927   L 0.48653395,0.075199902   L 0.44910826,0.075199902   L 0.43039542,0.093999878   L 0.39296973,0.093999878   L 0.37425689,0.11279985   L 0.3368312,0.13159983   L 0.29940551,0.16919978   L 0.26197982,0.18799976   L 0.18712844,0.26319966   L 0.1684156,0.30079961   L 0.13098991,0.33839956   L 0.11227707,0.37599951   L 0.093564221,0.39479949   L 0.093564221,0.43239944   L 0.074851377,0.45119941   L 0.074851377,0.48879937   L 0.056138533,0.50759934   L 0.056138533,0.54519929   L 0.037425689,0.58279924   L 0.037425689,12.370384   L 0.037425689,12.407984   z "
     id="path5" />
  <path
     style="fill:#7f7f7f;fill-rule:evenodd;fill-opacity:1;stroke:#000000;stroke-width:0.09356422px;stroke-linecap:round;stroke-linejoin:round;stroke-miterlimit:4;stroke-dasharray:none;stroke-opacity:1;"
     d="  M 72.942667,13.968382   L 8.5704827,13.968382   L 7.6535533,13.047183   L 73.859596,13.047183   L 72.942667,13.968382   z "
     id="path7" />
  <path
     style="fill:#cccccc;fill-rule:evenodd;fill-opacity:1;stroke:#000000;stroke-width:0.09356422px;stroke-linecap:round;stroke-linejoin:round;stroke-miterlimit:4;stroke-dasharray:none;stroke-opacity:1;"
     d="  M 6.8863267,13.047183   L 1.5157404,13.047183   L 1.7777202,14.475981   L 6.6243469,14.475981   L 6.8863267,13.047183   z "
     id="path9" />
  <path
     style="fill:#cccccc;fill-rule:evenodd;fill-opacity:1;stroke:#000000;stroke-width:0.09356422px;stroke-linecap:round;stroke-linejoin:round;stroke-miterlimit:4;stroke-dasharray:none;stroke-opacity:1;"
     d="  M 80.016122,13.047183   L 74.645536,13.047183   L 74.907516,14.475981   L 79.754142,14.475981   L 80.016122,13.047183   z "
     id="path11" />
  <path
     style="fill:#ffffff;fill-rule:evenodd;fill-opacity:1;stroke:#000000;stroke-width:0.018712845px;stroke-linecap:round;stroke-linejoin:round;stroke-miterlimit:4;stroke-dasharray:none;stroke-opacity:1;"
     d="  M 19.704625,3.9103949   L 13.604238,3.9103949   L 13.604238,9.0991882   L 19.704625,9.0991882   L 19.704625,3.9103949   z "
     id="path13" />
  <path
     style="fill:#ffffff;fill-rule:evenodd;fill-opacity:1;stroke:#000000;stroke-width:0.018712845px;stroke-linecap:round;stroke-linejoin:round;stroke-miterlimit:4;stroke-dasharray:none;stroke-opacity:1;"
     d="  M 47.886169,3.9103949   L 21.426207,3.9103949   L 21.426207,9.0991882   L 47.886169,9.0991882   L 47.886169,3.9103949   z "
     id="path15" />
  <path
     style="fill:#ffffff;fill-rule:evenodd;fill-opacity:1;stroke:#000000;stroke-width:0.018712845px;stroke-linecap:round;stroke-linejoin:round;stroke-miterlimit:4;stroke-dasharray:none;stroke-opacity:1;"
     d="  M 75.431475,3.9103949   L 48.971514,3.9103949   L 48.971514,9.0991882   L 75.431475,9.0991882   L 75.431475,3.9103949   z "
     id="path17" />
  <path
     style="fill:#000000;fill-rule:evenodd;fill-opacity:1;stroke:#000000;stroke-width:0.018712845px;stroke-linecap:round;stroke-linejoin:round;stroke-miterlimit:4;stroke-dasharray:none;stroke-opacity:1;"
     d="  M 11.770379,2.4063969   L 11.770379,2.331197   L 11.751666,2.274797   L 11.676815,2.1619972   L 11.564538,2.0867973   L 11.508399,2.0679973   L 10.123649,2.0679973   L 10.06751,2.0867973   L 9.9552332,2.1619972   L 9.8803818,2.274797   L 9.8616689,2.331197   L 9.8616689,2.4815968   L 9.8803818,2.5379967   L 9.9552332,2.6507966   L 10.06751,2.7259965   L 10.123649,2.7447964   L 11.508399,2.7447964   L 11.564538,2.7259965   L 11.676815,2.6507966   L 11.751666,2.5379967   L 11.770379,2.4815968   L 11.770379,2.4063969   z "
     id="path19" />
  <path
     style="fill:#000000;fill-rule:evenodd;fill-opacity:1;stroke:#000000;stroke-width:0.018712845px;stroke-linecap:round;stroke-linejoin:round;stroke-miterlimit:4;stroke-dasharray:none;stroke-opacity:1;"
     d="  M 14.689583,2.4063969   L 14.689583,2.331197   L 14.67087,2.274797   L 14.596019,2.1619972   L 14.483741,2.0867973   L 14.427603,2.0679973   L 13.042852,2.0679973   L 12.986714,2.0867973   L 12.874437,2.1619972   L 12.799585,2.274797   L 12.780873,2.331197   L 12.780873,2.4815968   L 12.799585,2.5379967   L 12.874437,2.6507966   L 12.986714,2.7259965   L 13.042852,2.7447964   L 14.427603,2.7447964   L 14.483741,2.7259965   L 14.596019,2.6507966   L 14.67087,2.5379967   L 14.689583,2.4815968   L 14.689583,2.4063969   z "
     id="path21" />
  <path
     style="fill:#000000;fill-rule:evenodd;fill-opacity:1;stroke:#000000;stroke-width:0.018712845px;stroke-linecap:round;stroke-linejoin:round;stroke-miterlimit:4;stroke-dasharray:none;stroke-opacity:1;"
     d="  M 17.590074,2.4063969   L 17.590074,2.331197   L 17.571361,2.274797   L 17.496509,2.1619972   L 17.384232,2.0867973   L 17.328094,2.0679973   L 15.943343,2.0679973   L 15.887205,2.0867973   L 15.774928,2.1619972   L 15.700076,2.274797   L 15.681364,2.331197   L 15.681364,2.4815968   L 15.700076,2.5379967   L 15.774928,2.6507966   L 15.887205,2.7259965   L 15.943343,2.7447964   L 17.328094,2.7447964   L 17.384232,2.7259965   L 17.496509,2.6507966   L 17.571361,2.5379967   L 17.590074,2.4815968   L 17.590074,2.4063969   z "
     id="path23" />
  <path
     style="fill:#000000;fill-rule:evenodd;fill-opacity:1;stroke:#000000;stroke-width:0.018712845px;stroke-linecap:round;stroke-linejoin:round;stroke-miterlimit:4;stroke-dasharray:none;stroke-opacity:1;"
     d="  M 20.509277,2.4063969   L 20.509277,2.331197   L 20.490564,2.274797   L 20.415713,2.1619972   L 20.303436,2.0867973   L 20.247298,2.0679973   L 18.862547,2.0679973   L 18.806409,2.0867973   L 18.694131,2.1619972   L 18.61928,2.274797   L 18.600567,2.331197   L 18.600567,2.4815968   L 18.61928,2.5379967   L 18.694131,2.6507966   L 18.806409,2.7259965   L 18.862547,2.7447964   L 20.247298,2.7447964   L 20.303436,2.7259965   L 20.415713,2.6507966   L 20.490564,2.5379967   L 20.509277,2.4815968   L 20.509277,2.4063969   z "
     id="path25" />
  <path
     style="fill:#000000;fill-rule:evenodd;fill-opacity:1;stroke:#000000;stroke-width:0.018712845px;stroke-linecap:round;stroke-linejoin:round;stroke-miterlimit:4;stroke-dasharray:none;stroke-opacity:1;"
     d="  M 23.409768,2.4063969   L 23.409768,2.331197   L 23.391055,2.274797   L 23.316204,2.1619972   L 23.203927,2.0867973   L 23.147788,2.0679973   L 21.763038,2.0679973   L 21.706899,2.0867973   L 21.594622,2.1619972   L 21.519771,2.274797   L 21.501058,2.331197   L 21.501058,2.4815968   L 21.519771,2.5379967   L 21.594622,2.6507966   L 21.706899,2.7259965   L 21.763038,2.7447964   L 23.147788,2.7447964   L 23.203927,2.7259965   L 23.316204,2.6507966   L 23.391055,2.5379967   L 23.409768,2.4815968   L 23.409768,2.4063969   z "
     id="path27" />
  <path
     style="fill:#000000;fill-rule:evenodd;fill-opacity:1;stroke:#000000;stroke-width:0.018712845px;stroke-linecap:round;stroke-linejoin:round;stroke-miterlimit:4;stroke-dasharray:none;stroke-opacity:1;"
     d="  M 26.328972,2.4063969   L 26.328972,2.331197   L 26.310259,2.274797   L 26.235408,2.1619972   L 26.123131,2.0867973   L 26.066992,2.0679973   L 24.682242,2.0679973   L 24.626103,2.0867973   L 24.513826,2.1619972   L 24.438975,2.274797   L 24.420262,2.331197   L 24.420262,2.4815968   L 24.438975,2.5379967   L 24.513826,2.6507966   L 24.626103,2.7259965   L 24.682242,2.7447964   L 26.066992,2.7447964   L 26.123131,2.7259965   L 26.235408,2.6507966   L 26.310259,2.5379967   L 26.328972,2.4815968   L 26.328972,2.4063969   z "
     id="path29" />
  <path
     style="fill:#000000;fill-rule:evenodd;fill-opacity:1;stroke:#000000;stroke-width:0.018712845px;stroke-linecap:round;stroke-linejoin:round;stroke-miterlimit:4;stroke-dasharray:none;stroke-opacity:1;"
     d="  M 29.229463,2.4063969   L 29.229463,2.331197   L 29.21075,2.274797   L 29.135899,2.1619972   L 29.023621,2.0867973   L 28.967483,2.0679973   L 27.582732,2.0679973   L 27.526594,2.0867973   L 27.414317,2.1619972   L 27.339466,2.274797   L 27.320753,2.331197   L 27.320753,2.4815968   L 27.339466,2.5379967   L 27.414317,2.6507966   L 27.526594,2.7259965   L 27.582732,2.7447964   L 28.967483,2.7447964   L 29.023621,2.7259965   L 29.135899,2.6507966   L 29.21075,2.5379967   L 29.229463,2.4815968   L 29.229463,2.4063969   z "
     id="path31" />
  <path
     style="fill:#000000;fill-rule:evenodd;fill-opacity:1;stroke:#000000;stroke-width:0.018712845px;stroke-linecap:round;stroke-linejoin:round;stroke-miterlimit:4;stroke-dasharray:none;stroke-opacity:1;"
     d="  M 32.148666,2.4063969   L 32.148666,2.331197   L 32.129954,2.274797   L 32.055102,2.1619972   L 31.942825,2.0867973   L 31.886687,2.0679973   L 30.501936,2.0679973   L 30.445798,2.0867973   L 30.333521,2.1619972   L 30.258669,2.274797   L 30.239956,2.331197   L 30.239956,2.4815968   L 30.258669,2.5379967   L 30.333521,2.6507966   L 30.445798,2.7259965   L 30.501936,2.7447964   L 31.886687,2.7447964   L 31.942825,2.7259965   L 32.055102,2.6507966   L 32.129954,2.5379967   L 32.148666,2.4815968   L 32.148666,2.4063969   z "
     id="path33" />
  <path
     style="fill:#000000;fill-rule:evenodd;fill-opacity:1;stroke:#000000;stroke-width:0.018712845px;stroke-linecap:round;stroke-linejoin:round;stroke-miterlimit:4;stroke-dasharray:none;stroke-opacity:1;"
     d="  M 35.049157,2.4063969   L 35.049157,2.331197   L 35.030445,2.274797   L 34.955593,2.1619972   L 34.843316,2.0867973   L 34.787178,2.0679973   L 33.402427,2.0679973   L 33.346289,2.0867973   L 33.234011,2.1619972   L 33.15916,2.274797   L 33.140447,2.331197   L 33.140447,2.4815968   L 33.15916,2.5379967   L 33.234011,2.6507966   L 33.346289,2.7259965   L 33.402427,2.7447964   L 34.787178,2.7447964   L 34.843316,2.7259965   L 34.955593,2.6507966   L 35.030445,2.5379967   L 35.049157,2.4815968   L 35.049157,2.4063969   z "
     id="path35" />
  <path
     style="fill:#000000;fill-rule:evenodd;fill-opacity:1;stroke:#000000;stroke-width:0.018712845px;stroke-linecap:round;stroke-linejoin:round;stroke-miterlimit:4;stroke-dasharray:none;stroke-opacity:1;"
     d="  M 37.968361,2.4063969   L 37.968361,2.331197   L 37.949648,2.274797   L 37.874797,2.1619972   L 37.76252,2.0867973   L 37.706381,2.0679973   L 36.321631,2.0679973   L 36.265492,2.0867973   L 36.153215,2.1619972   L 36.078364,2.274797   L 36.059651,2.331197   L 36.059651,2.4815968   L 36.078364,2.5379967   L 36.153215,2.6507966   L 36.265492,2.7259965   L 36.321631,2.7447964   L 37.706381,2.7447964   L 37.76252,2.7259965   L 37.874797,2.6507966   L 37.949648,2.5379967   L 37.968361,2.4815968   L 37.968361,2.4063969   z "
     id="path37" />
  <path
     style="fill:#000000;fill-rule:evenodd;fill-opacity:1;stroke:#000000;stroke-width:0.018712845px;stroke-linecap:round;stroke-linejoin:round;stroke-miterlimit:4;stroke-dasharray:none;stroke-opacity:1;"
     d="  M 40.868852,2.4063969   L 40.868852,2.331197   L 40.850139,2.274797   L 40.775288,2.1619972   L 40.663011,2.0867973   L 40.606872,2.0679973   L 39.222122,2.0679973   L 39.165983,2.0867973   L 39.053706,2.1619972   L 38.978855,2.274797   L 38.960142,2.331197   L 38.960142,2.4815968   L 38.978855,2.5379967   L 39.053706,2.6507966   L 39.165983,2.7259965   L 39.222122,2.7447964   L 40.606872,2.7447964   L 40.663011,2.7259965   L 40.775288,2.6507966   L 40.850139,2.5379967   L 40.868852,2.4815968   L 40.868852,2.4063969   z "
     id="path39" />
  <path
     style="fill:#000000;fill-rule:evenodd;fill-opacity:1;stroke:#000000;stroke-width:0.018712845px;stroke-linecap:round;stroke-linejoin:round;stroke-miterlimit:4;stroke-dasharray:none;stroke-opacity:1;"
     d="  M 43.788056,2.4063969   L 43.788056,2.331197   L 43.769343,2.274797   L 43.694491,2.1619972   L 43.582214,2.0867973   L 43.526076,2.0679973   L 42.141325,2.0679973   L 42.085187,2.0867973   L 41.97291,2.1619972   L 41.898058,2.274797   L 41.879346,2.331197   L 41.879346,2.4815968   L 41.898058,2.5379967   L 41.97291,2.6507966   L 42.085187,2.7259965   L 42.141325,2.7447964   L 43.526076,2.7447964   L 43.582214,2.7259965   L 43.694491,2.6507966   L 43.769343,2.5379967   L 43.788056,2.4815968   L 43.788056,2.4063969   z "
     id="path41" />
  <path
     style="fill:#000000;fill-rule:evenodd;fill-opacity:1;stroke:#000000;stroke-width:0.018712845px;stroke-linecap:round;stroke-linejoin:round;stroke-miterlimit:4;stroke-dasharray:none;stroke-opacity:1;"
     d="  M 46.688546,2.4063969   L 46.688546,2.331197   L 46.669834,2.274797   L 46.594982,2.1619972   L 46.482705,2.0867973   L 46.426567,2.0679973   L 45.041816,2.0679973   L 44.985678,2.0867973   L 44.873401,2.1619972   L 44.798549,2.274797   L 44.779836,2.331197   L 44.779836,2.4815968   L 44.798549,2.5379967   L 44.873401,2.6507966   L 44.985678,2.7259965   L 45.041816,2.7447964   L 46.426567,2.7447964   L 46.482705,2.7259965   L 46.594982,2.6507966   L 46.669834,2.5379967   L 46.688546,2.4815968   L 46.688546,2.4063969   z "
     id="path43" />
  <path
     style="fill:#000000;fill-rule:evenodd;fill-opacity:1;stroke:#000000;stroke-width:0.018712845px;stroke-linecap:round;stroke-linejoin:round;stroke-miterlimit:4;stroke-dasharray:none;stroke-opacity:1;"
     d="  M 49.60775,2.4063969   L 49.60775,2.331197   L 49.589037,2.274797   L 49.514186,2.1619972   L 49.401909,2.0867973   L 49.34577,2.0679973   L 47.96102,2.0679973   L 47.904881,2.0867973   L 47.792604,2.1619972   L 47.717753,2.274797   L 47.69904,2.331197   L 47.69904,2.4815968   L 47.717753,2.5379967   L 47.792604,2.6507966   L 47.904881,2.7259965   L 47.96102,2.7447964   L 49.34577,2.7447964   L 49.401909,2.7259965   L 49.514186,2.6507966   L 49.589037,2.5379967   L 49.60775,2.4815968   L 49.60775,2.4063969   z "
     id="path45" />
  <path
     style="fill:#000000;fill-rule:evenodd;fill-opacity:1;stroke:#000000;stroke-width:0.018712845px;stroke-linecap:round;stroke-linejoin:round;stroke-miterlimit:4;stroke-dasharray:none;stroke-opacity:1;"
     d="  M 52.508241,2.4063969   L 52.508241,2.331197   L 52.489528,2.274797   L 52.414677,2.1619972   L 52.3024,2.0867973   L 52.246261,2.0679973   L 50.861511,2.0679973   L 50.805372,2.0867973   L 50.693095,2.1619972   L 50.618244,2.274797   L 50.599531,2.331197   L 50.599531,2.4815968   L 50.618244,2.5379967   L 50.693095,2.6507966   L 50.805372,2.7259965   L 50.861511,2.7447964   L 52.246261,2.7447964   L 52.3024,2.7259965   L 52.414677,2.6507966   L 52.489528,2.5379967   L 52.508241,2.4815968   L 52.508241,2.4063969   z "
     id="path47" />
  <path
     style="fill:#000000;fill-rule:evenodd;fill-opacity:1;stroke:#000000;stroke-width:0.018712845px;stroke-linecap:round;stroke-linejoin:round;stroke-miterlimit:4;stroke-dasharray:none;stroke-opacity:1;"
     d="  M 55.427445,2.4063969   L 55.427445,2.331197   L 55.408732,2.274797   L 55.333881,2.1619972   L 55.221603,2.0867973   L 55.165465,2.0679973   L 53.780714,2.0679973   L 53.724576,2.0867973   L 53.612299,2.1619972   L 53.537448,2.274797   L 53.518735,2.331197   L 53.518735,2.4815968   L 53.537448,2.5379967   L 53.612299,2.6507966   L 53.724576,2.7259965   L 53.780714,2.7447964   L 55.165465,2.7447964   L 55.221603,2.7259965   L 55.333881,2.6507966   L 55.408732,2.5379967   L 55.427445,2.4815968   L 55.427445,2.4063969   z "
     id="path49" />
  <path
     style="fill:#000000;fill-rule:evenodd;fill-opacity:1;stroke:#000000;stroke-width:0.018712845px;stroke-linecap:round;stroke-linejoin:round;stroke-miterlimit:4;stroke-dasharray:none;stroke-opacity:1;"
     d="  M 58.327936,2.4063969   L 58.327936,2.331197   L 58.309223,2.274797   L 58.234371,2.1619972   L 58.122094,2.0867973   L 58.065956,2.0679973   L 56.681205,2.0679973   L 56.625067,2.0867973   L 56.51279,2.1619972   L 56.437938,2.274797   L 56.419226,2.331197   L 56.419226,2.4815968   L 56.437938,2.5379967   L 56.51279,2.6507966   L 56.625067,2.7259965   L 56.681205,2.7447964   L 58.065956,2.7447964   L 58.122094,2.7259965   L 58.234371,2.6507966   L 58.309223,2.5379967   L 58.327936,2.4815968   L 58.327936,2.4063969   z "
     id="path51" />
  <path
     style="fill:#000000;fill-rule:evenodd;fill-opacity:1;stroke:#000000;stroke-width:0.018712845px;stroke-linecap:round;stroke-linejoin:round;stroke-miterlimit:4;stroke-dasharray:none;stroke-opacity:1;"
     d="  M 61.247139,2.4063969   L 61.247139,2.331197   L 61.228427,2.274797   L 61.153575,2.1619972   L 61.041298,2.0867973   L 60.98516,2.0679973   L 59.600409,2.0679973   L 59.544271,2.0867973   L 59.431993,2.1619972   L 59.357142,2.274797   L 59.338429,2.331197   L 59.338429,2.4815968   L 59.357142,2.5379967   L 59.431993,2.6507966   L 59.544271,2.7259965   L 59.600409,2.7447964   L 60.98516,2.7447964   L 61.041298,2.7259965   L 61.153575,2.6507966   L 61.228427,2.5379967   L 61.247139,2.4815968   L 61.247139,2.4063969   z "
     id="path53" />
  <path
     style="fill:#000000;fill-rule:evenodd;fill-opacity:1;stroke:#000000;stroke-width:0.018712845px;stroke-linecap:round;stroke-linejoin:round;stroke-miterlimit:4;stroke-dasharray:none;stroke-opacity:1;"
     d="  M 64.14763,2.4063969   L 64.14763,2.331197   L 64.128917,2.274797   L 64.054066,2.1619972   L 63.941789,2.0867973   L 63.88565,2.0679973   L 62.5009,2.0679973   L 62.444761,2.0867973   L 62.332484,2.1619972   L 62.257633,2.274797   L 62.23892,2.331197   L 62.23892,2.4815968   L 62.257633,2.5379967   L 62.332484,2.6507966   L 62.444761,2.7259965   L 62.5009,2.7447964   L 63.88565,2.7447964   L 63.941789,2.7259965   L 64.054066,2.6507966   L 64.128917,2.5379967   L 64.14763,2.4815968   L 64.14763,2.4063969   z "
     id="path55" />
  <path
     style="fill:#000000;fill-rule:evenodd;fill-opacity:1;stroke:#000000;stroke-width:0.018712845px;stroke-linecap:round;stroke-linejoin:round;stroke-miterlimit:4;stroke-dasharray:none;stroke-opacity:1;"
     d="  M 67.066834,2.4063969   L 67.066834,2.331197   L 67.048121,2.274797   L 66.97327,2.1619972   L 66.860993,2.0867973   L 66.804854,2.0679973   L 65.420104,2.0679973   L 65.363965,2.0867973   L 65.251688,2.1619972   L 65.176837,2.274797   L 65.158124,2.331197   L 65.158124,2.4815968   L 65.176837,2.5379967   L 65.251688,2.6507966   L 65.363965,2.7259965   L 65.420104,2.7447964   L 66.804854,2.7447964   L 66.860993,2.7259965   L 66.97327,2.6507966   L 67.048121,2.5379967   L 67.066834,2.4815968   L 67.066834,2.4063969   z "
     id="path57" />
  <path
     style="fill:#000000;fill-rule:evenodd;fill-opacity:1;stroke:#000000;stroke-width:0.018712845px;stroke-linecap:round;stroke-linejoin:round;stroke-miterlimit:4;stroke-dasharray:none;stroke-opacity:1;"
     d="  M 11.770379,1.0903986   L 11.770379,1.0151987   L 11.751666,0.95879875   L 11.676815,0.8459989   L 11.564538,0.770799   L 11.508399,0.75199902   L 10.123649,0.75199902   L 10.06751,0.770799   L 9.9552332,0.8459989   L 9.8803818,0.95879875   L 9.8616689,1.0151987   L 9.8616689,1.1655985   L 9.8803818,1.2219984   L 9.9552332,1.3347983   L 10.06751,1.4099982   L 10.123649,1.4287981   L 11.508399,1.4287981   L 11.564538,1.4099982   L 11.676815,1.3347983   L 11.751666,1.2219984   L 11.770379,1.1655985   L 11.770379,1.0903986   z "
     id="path59" />
  <path
     style="fill:#000000;fill-rule:evenodd;fill-opacity:1;stroke:#000000;stroke-width:0.018712845px;stroke-linecap:round;stroke-linejoin:round;stroke-miterlimit:4;stroke-dasharray:none;stroke-opacity:1;"
     d="  M 14.689583,1.0903986   L 14.689583,1.0151987   L 14.67087,0.95879875   L 14.596019,0.8459989   L 14.483741,0.770799   L 14.427603,0.75199902   L 13.042852,0.75199902   L 12.986714,0.770799   L 12.874437,0.8459989   L 12.799585,0.95879875   L 12.780873,1.0151987   L 12.780873,1.1655985   L 12.799585,1.2219984   L 12.874437,1.3347983   L 12.986714,1.4099982   L 13.042852,1.4287981   L 14.427603,1.4287981   L 14.483741,1.4099982   L 14.596019,1.3347983   L 14.67087,1.2219984   L 14.689583,1.1655985   L 14.689583,1.0903986   z "
     id="path61" />
  <path
     style="fill:#000000;fill-rule:evenodd;fill-opacity:1;stroke:#000000;stroke-width:0.018712845px;stroke-linecap:round;stroke-linejoin:round;stroke-miterlimit:4;stroke-dasharray:none;stroke-opacity:1;"
     d="  M 17.590074,1.0903986   L 17.590074,1.0151987   L 17.571361,0.95879875   L 17.496509,0.8459989   L 17.384232,0.770799   L 17.328094,0.75199902   L 15.943343,0.75199902   L 15.887205,0.770799   L 15.774928,0.8459989   L 15.700076,0.95879875   L 15.681364,1.0151987   L 15.681364,1.1655985   L 15.700076,1.2219984   L 15.774928,1.3347983   L 15.887205,1.4099982   L 15.943343,1.4287981   L 17.328094,1.4287981   L 17.384232,1.4099982   L 17.496509,1.3347983   L 17.571361,1.2219984   L 17.590074,1.1655985   L 17.590074,1.0903986   z "
     id="path63" />
  <path
     style="fill:#000000;fill-rule:evenodd;fill-opacity:1;stroke:#000000;stroke-width:0.018712845px;stroke-linecap:round;stroke-linejoin:round;stroke-miterlimit:4;stroke-dasharray:none;stroke-opacity:1;"
     d="  M 20.509277,1.0903986   L 20.509277,1.0151987   L 20.490564,0.95879875   L 20.415713,0.8459989   L 20.303436,0.770799   L 20.247298,0.75199902   L 18.862547,0.75199902   L 18.806409,0.770799   L 18.694131,0.8459989   L 18.61928,0.95879875   L 18.600567,1.0151987   L 18.600567,1.1655985   L 18.61928,1.2219984   L 18.694131,1.3347983   L 18.806409,1.4099982   L 18.862547,1.4287981   L 20.247298,1.4287981   L 20.303436,1.4099982   L 20.415713,1.3347983   L 20.490564,1.2219984   L 20.509277,1.1655985   L 20.509277,1.0903986   z "
     id="path65" />
  <path
     style="fill:#000000;fill-rule:evenodd;fill-opacity:1;stroke:#000000;stroke-width:0.018712845px;stroke-linecap:round;stroke-linejoin:round;stroke-miterlimit:4;stroke-dasharray:none;stroke-opacity:1;"
     d="  M 23.409768,1.0903986   L 23.409768,1.0151987   L 23.391055,0.95879875   L 23.316204,0.8459989   L 23.203927,0.770799   L 23.147788,0.75199902   L 21.763038,0.75199902   L 21.706899,0.770799   L 21.594622,0.8459989   L 21.519771,0.95879875   L 21.501058,1.0151987   L 21.501058,1.1655985   L 21.519771,1.2219984   L 21.594622,1.3347983   L 21.706899,1.4099982   L 21.763038,1.4287981   L 23.147788,1.4287981   L 23.203927,1.4099982   L 23.316204,1.3347983   L 23.391055,1.2219984   L 23.409768,1.1655985   L 23.409768,1.0903986   z "
     id="path67" />
  <path
     style="fill:#000000;fill-rule:evenodd;fill-opacity:1;stroke:#000000;stroke-width:0.018712845px;stroke-linecap:round;stroke-linejoin:round;stroke-miterlimit:4;stroke-dasharray:none;stroke-opacity:1;"
     d="  M 26.328972,1.0903986   L 26.328972,1.0151987   L 26.310259,0.95879875   L 26.235408,0.8459989   L 26.123131,0.770799   L 26.066992,0.75199902   L 24.682242,0.75199902   L 24.626103,0.770799   L 24.513826,0.8459989   L 24.438975,0.95879875   L 24.420262,1.0151987   L 24.420262,1.1655985   L 24.438975,1.2219984   L 24.513826,1.3347983   L 24.626103,1.4099982   L 24.682242,1.4287981   L 26.066992,1.4287981   L 26.123131,1.4099982   L 26.235408,1.3347983   L 26.310259,1.2219984   L 26.328972,1.1655985   L 26.328972,1.0903986   z "
     id="path69" />
  <path
     style="fill:#000000;fill-rule:evenodd;fill-opacity:1;stroke:#000000;stroke-width:0.018712845px;stroke-linecap:round;stroke-linejoin:round;stroke-miterlimit:4;stroke-dasharray:none;stroke-opacity:1;"
     d="  M 29.229463,1.0903986   L 29.229463,1.0151987   L 29.21075,0.95879875   L 29.135899,0.8459989   L 29.023621,0.770799   L 28.967483,0.75199902   L 27.582732,0.75199902   L 27.526594,0.770799   L 27.414317,0.8459989   L 27.339466,0.95879875   L 27.320753,1.0151987   L 27.320753,1.1655985   L 27.339466,1.2219984   L 27.414317,1.3347983   L 27.526594,1.4099982   L 27.582732,1.4287981   L 28.967483,1.4287981   L 29.023621,1.4099982   L 29.135899,1.3347983   L 29.21075,1.2219984   L 29.229463,1.1655985   L 29.229463,1.0903986   z "
     id="path71" />
  <path
     style="fill:#000000;fill-rule:evenodd;fill-opacity:1;stroke:#000000;stroke-width:0.018712845px;stroke-linecap:round;stroke-linejoin:round;stroke-miterlimit:4;stroke-dasharray:none;stroke-opacity:1;"
     d="  M 32.148666,1.0903986   L 32.148666,1.0151987   L 32.129954,0.95879875   L 32.055102,0.8459989   L 31.942825,0.770799   L 31.886687,0.75199902   L 30.501936,0.75199902   L 30.445798,0.770799   L 30.333521,0.8459989   L 30.258669,0.95879875   L 30.239956,1.0151987   L 30.239956,1.1655985   L 30.258669,1.2219984   L 30.333521,1.3347983   L 30.445798,1.4099982   L 30.501936,1.4287981   L 31.886687,1.4287981   L 31.942825,1.4099982   L 32.055102,1.3347983   L 32.129954,1.2219984   L 32.148666,1.1655985   L 32.148666,1.0903986   z "
     id="path73" />
  <path
     style="fill:#000000;fill-rule:evenodd;fill-opacity:1;stroke:#000000;stroke-width:0.018712845px;stroke-linecap:round;stroke-linejoin:round;stroke-miterlimit:4;stroke-dasharray:none;stroke-opacity:1;"
     d="  M 35.049157,1.0903986   L 35.049157,1.0151987   L 35.030445,0.95879875   L 34.955593,0.8459989   L 34.843316,0.770799   L 34.787178,0.75199902   L 33.402427,0.75199902   L 33.346289,0.770799   L 33.234011,0.8459989   L 33.15916,0.95879875   L 33.140447,1.0151987   L 33.140447,1.1655985   L 33.15916,1.2219984   L 33.234011,1.3347983   L 33.346289,1.4099982   L 33.402427,1.4287981   L 34.787178,1.4287981   L 34.843316,1.4099982   L 34.955593,1.3347983   L 35.030445,1.2219984   L 35.049157,1.1655985   L 35.049157,1.0903986   z "
     id="path75" />
  <path
     style="fill:#000000;fill-rule:evenodd;fill-opacity:1;stroke:#000000;stroke-width:0.018712845px;stroke-linecap:round;stroke-linejoin:round;stroke-miterlimit:4;stroke-dasharray:none;stroke-opacity:1;"
     d="  M 37.968361,1.0903986   L 37.968361,1.0151987   L 37.949648,0.95879875   L 37.874797,0.8459989   L 37.76252,0.770799   L 37.706381,0.75199902   L 36.321631,0.75199902   L 36.265492,0.770799   L 36.153215,0.8459989   L 36.078364,0.95879875   L 36.059651,1.0151987   L 36.059651,1.1655985   L 36.078364,1.2219984   L 36.153215,1.3347983   L 36.265492,1.4099982   L 36.321631,1.4287981   L 37.706381,1.4287981   L 37.76252,1.4099982   L 37.874797,1.3347983   L 37.949648,1.2219984   L 37.968361,1.1655985   L 37.968361,1.0903986   z "
     id="path77" />
  <path
     style="fill:#000000;fill-rule:evenodd;fill-opacity:1;stroke:#000000;stroke-width:0.018712845px;stroke-linecap:round;stroke-linejoin:round;stroke-miterlimit:4;stroke-dasharray:none;stroke-opacity:1;"
     d="  M 40.868852,1.0903986   L 40.868852,1.0151987   L 40.850139,0.95879875   L 40.775288,0.8459989   L 40.663011,0.770799   L 40.606872,0.75199902   L 39.222122,0.75199902   L 39.165983,0.770799   L 39.053706,0.8459989   L 38.978855,0.95879875   L 38.960142,1.0151987   L 38.960142,1.1655985   L 38.978855,1.2219984   L 39.053706,1.3347983   L 39.165983,1.4099982   L 39.222122,1.4287981   L 40.606872,1.4287981   L 40.663011,1.4099982   L 40.775288,1.3347983   L 40.850139,1.2219984   L 40.868852,1.1655985   L 40.868852,1.0903986   z "
     id="path79" />
  <path
     style="fill:#000000;fill-rule:evenodd;fill-opacity:1;stroke:#000000;stroke-width:0.018712845px;stroke-linecap:round;stroke-linejoin:round;stroke-miterlimit:4;stroke-dasharray:none;stroke-opacity:1;"
     d="  M 43.788056,1.0903986   L 43.788056,1.0151987   L 43.769343,0.95879875   L 43.694491,0.8459989   L 43.582214,0.770799   L 43.526076,0.75199902   L 42.141325,0.75199902   L 42.085187,0.770799   L 41.97291,0.8459989   L 41.898058,0.95879875   L 41.879346,1.0151987   L 41.879346,1.1655985   L 41.898058,1.2219984   L 41.97291,1.3347983   L 42.085187,1.4099982   L 42.141325,1.4287981   L 43.526076,1.4287981   L 43.582214,1.4099982   L 43.694491,1.3347983   L 43.769343,1.2219984   L 43.788056,1.1655985   L 43.788056,1.0903986   z "
     id="path81" />
  <path
     style="fill:#000000;fill-rule:evenodd;fill-opacity:1;stroke:#000000;stroke-width:0.018712845px;stroke-linecap:round;stroke-linejoin:round;stroke-miterlimit:4;stroke-dasharray:none;stroke-opacity:1;"
     d="  M 46.688546,1.0903986   L 46.688546,1.0151987   L 46.669834,0.95879875   L 46.594982,0.8459989   L 46.482705,0.770799   L 46.426567,0.75199902   L 45.041816,0.75199902   L 44.985678,0.770799   L 44.873401,0.8459989   L 44.798549,0.95879875   L 44.779836,1.0151987   L 44.779836,1.1655985   L 44.798549,1.2219984   L 44.873401,1.3347983   L 44.985678,1.4099982   L 45.041816,1.4287981   L 46.426567,1.4287981   L 46.482705,1.4099982   L 46.594982,1.3347983   L 46.669834,1.2219984   L 46.688546,1.1655985   L 46.688546,1.0903986   z "
     id="path83" />
  <path
     style="fill:#000000;fill-rule:evenodd;fill-opacity:1;stroke:#000000;stroke-width:0.018712845px;stroke-linecap:round;stroke-linejoin:round;stroke-miterlimit:4;stroke-dasharray:none;stroke-opacity:1;"
     d="  M 49.60775,1.0903986   L 49.60775,1.0151987   L 49.589037,0.95879875   L 49.514186,0.8459989   L 49.401909,0.770799   L 49.34577,0.75199902   L 47.96102,0.75199902   L 47.904881,0.770799   L 47.792604,0.8459989   L 47.717753,0.95879875   L 47.69904,1.0151987   L 47.69904,1.1655985   L 47.717753,1.2219984   L 47.792604,1.3347983   L 47.904881,1.4099982   L 47.96102,1.4287981   L 49.34577,1.4287981   L 49.401909,1.4099982   L 49.514186,1.3347983   L 49.589037,1.2219984   L 49.60775,1.1655985   L 49.60775,1.0903986   z "
     id="path85" />
  <path
     style="fill:#000000;fill-rule:evenodd;fill-opacity:1;stroke:#000000;stroke-width:0.018712845px;stroke-linecap:round;stroke-linejoin:round;stroke-miterlimit:4;stroke-dasharray:none;stroke-opacity:1;"
     d="  M 52.508241,1.0903986   L 52.508241,1.0151987   L 52.489528,0.95879875   L 52.414677,0.8459989   L 52.3024,0.770799   L 52.246261,0.75199902   L 50.861511,0.75199902   L 50.805372,0.770799   L 50.693095,0.8459989   L 50.618244,0.95879875   L 50.599531,1.0151987   L 50.599531,1.1655985   L 50.618244,1.2219984   L 50.693095,1.3347983   L 50.805372,1.4099982   L 50.861511,1.4287981   L 52.246261,1.4287981   L 52.3024,1.4099982   L 52.414677,1.3347983   L 52.489528,1.2219984   L 52.508241,1.1655985   L 52.508241,1.0903986   z "
     id="path87" />
  <path
     style="fill:#000000;fill-rule:evenodd;fill-opacity:1;stroke:#000000;stroke-width:0.018712845px;stroke-linecap:round;stroke-linejoin:round;stroke-miterlimit:4;stroke-dasharray:none;stroke-opacity:1;"
     d="  M 55.427445,1.0903986   L 55.427445,1.0151987   L 55.408732,0.95879875   L 55.333881,0.8459989   L 55.221603,0.770799   L 55.165465,0.75199902   L 53.780714,0.75199902   L 53.724576,0.770799   L 53.612299,0.8459989   L 53.537448,0.95879875   L 53.518735,1.0151987   L 53.518735,1.1655985   L 53.537448,1.2219984   L 53.612299,1.3347983   L 53.724576,1.4099982   L 53.780714,1.4287981   L 55.165465,1.4287981   L 55.221603,1.4099982   L 55.333881,1.3347983   L 55.408732,1.2219984   L 55.427445,1.1655985   L 55.427445,1.0903986   z "
     id="path89" />
  <path
     style="fill:#000000;fill-rule:evenodd;fill-opacity:1;stroke:#000000;stroke-width:0.018712845px;stroke-linecap:round;stroke-linejoin:round;stroke-miterlimit:4;stroke-dasharray:none;stroke-opacity:1;"
     d="  M 58.327936,1.0903986   L 58.327936,1.0151987   L 58.309223,0.95879875   L 58.234371,0.8459989   L 58.122094,0.770799   L 58.065956,0.75199902   L 56.681205,0.75199902   L 56.625067,0.770799   L 56.51279,0.8459989   L 56.437938,0.95879875   L 56.419226,1.0151987   L 56.419226,1.1655985   L 56.437938,1.2219984   L 56.51279,1.3347983   L 56.625067,1.4099982   L 56.681205,1.4287981   L 58.065956,1.4287981   L 58.122094,1.4099982   L 58.234371,1.3347983   L 58.309223,1.2219984   L 58.327936,1.1655985   L 58.327936,1.0903986   z "
     id="path91" />
  <path
     style="fill:#000000;fill-rule:evenodd;fill-opacity:1;stroke:#000000;stroke-width:0.018712845px;stroke-linecap:round;stroke-linejoin:round;stroke-miterlimit:4;stroke-dasharray:none;stroke-opacity:1;"
     d="  M 61.247139,1.0903986   L 61.247139,1.0151987   L 61.228427,0.95879875   L 61.153575,0.8459989   L 61.041298,0.770799   L 60.98516,0.75199902   L 59.600409,0.75199902   L 59.544271,0.770799   L 59.431993,0.8459989   L 59.357142,0.95879875   L 59.338429,1.0151987   L 59.338429,1.1655985   L 59.357142,1.2219984   L 59.431993,1.3347983   L 59.544271,1.4099982   L 59.600409,1.4287981   L 60.98516,1.4287981   L 61.041298,1.4099982   L 61.153575,1.3347983   L 61.228427,1.2219984   L 61.247139,1.1655985   L 61.247139,1.0903986   z "
     id="path93" />
  <path
     style="fill:#000000;fill-rule:evenodd;fill-opacity:1;stroke:#000000;stroke-width:0.018712845px;stroke-linecap:round;stroke-linejoin:round;stroke-miterlimit:4;stroke-dasharray:none;stroke-opacity:1;"
     d="  M 64.14763,1.0903986   L 64.14763,1.0151987   L 64.128917,0.95879875   L 64.054066,0.8459989   L 63.941789,0.770799   L 63.88565,0.75199902   L 62.5009,0.75199902   L 62.444761,0.770799   L 62.332484,0.8459989   L 62.257633,0.95879875   L 62.23892,1.0151987   L 62.23892,1.1655985   L 62.257633,1.2219984   L 62.332484,1.3347983   L 62.444761,1.4099982   L 62.5009,1.4287981   L 63.88565,1.4287981   L 63.941789,1.4099982   L 64.054066,1.3347983   L 64.128917,1.2219984   L 64.14763,1.1655985   L 64.14763,1.0903986   z "
     id="path95" />
  <path
     style="fill:#000000;fill-rule:evenodd;fill-opacity:1;stroke:#000000;stroke-width:0.018712845px;stroke-linecap:round;stroke-linejoin:round;stroke-miterlimit:4;stroke-dasharray:none;stroke-opacity:1;"
     d="  M 67.066834,1.0903986   L 67.066834,1.0151987   L 67.048121,0.95879875   L 66.97327,0.8459989   L 66.860993,0.770799   L 66.804854,0.75199902   L 65.420104,0.75199902   L 65.363965,0.770799   L 65.251688,0.8459989   L 65.176837,0.95879875   L 65.158124,1.0151987   L 65.158124,1.1655985   L 65.176837,1.2219984   L 65.251688,1.3347983   L 65.363965,1.4099982   L 65.420104,1.4287981   L 66.804854,1.4287981   L 66.860993,1.4099982   L 66.97327,1.3347983   L 67.048121,1.2219984   L 67.066834,1.1655985   L 67.066834,1.0903986   z "
     id="path97" />
  <ellipse
     style="fill:#000000;fill-rule:evenodd;fill-opacity:1;stroke:#000000;stroke-width:0.018712845px;stroke-linecap:round;stroke-linejoin:round;stroke-miterlimit:4;stroke-dasharray:none;stroke-opacity:1;"
     cx="3.1437578"
     cy="8.6103888"
     rx="0.29940551"
     ry="0.29940551"
     id="ellipse99" />
  <ellipse
     style="fill:none;stroke:#000000;stroke-width:0.018712845px;stroke-linecap:round;stroke-linejoin:round;stroke-miterlimit:4;stroke-dasharray:none;stroke-opacity:1;"
     cx="3.1437578"
     cy="8.6103888"
     rx="0.29940551"
     ry="0.29940551"
     id="ellipse101" />
  <ellipse
     style="fill:#333333;fill-rule:evenodd;fill-opacity:1;stroke:#000000;stroke-width:0.018712845px;stroke-linecap:round;stroke-linejoin:round;stroke-miterlimit:4;stroke-dasharray:none;stroke-opacity:1;"
     cx="3.1344014"
     cy="8.6009888"
     rx="0.21519771"
     ry="0.21519771"
     id="ellipse103" />
  <ellipse
     style="fill:none;stroke:#000000;stroke-width:0.018712845px;stroke-linecap:round;stroke-linejoin:round;stroke-miterlimit:4;stroke-dasharray:none;stroke-opacity:1;"
     cx="3.1344014"
     cy="8.6009888"
     rx="0.21519771"
     ry="0.21519771"
     id="ellipse105" />
  <path
     style="fill:none;stroke:#000000;stroke-width:0.018721435px;stroke-linecap:round;stroke-linejoin:round;stroke-miterlimit:4;stroke-dasharray:none;stroke-opacity:1;"
     d="  M 69.662464,1.0576046   L 69.662464,2.0240365  "
     id="path107" />
  <path
     style="fill:none;stroke:#000000;stroke-width:0.018721435px;stroke-linecap:round;stroke-linejoin:round;stroke-miterlimit:4;stroke-dasharray:none;stroke-opacity:1;"
     d="  M 68.96977,2.2246167   L 70.355157,2.2246167  "
     id="path109" />
  <path
     style="fill:none;stroke:#000000;stroke-width:0.018721435px;stroke-linecap:round;stroke-linejoin:round;stroke-miterlimit:4;stroke-dasharray:none;stroke-opacity:1;"
     d="  M 69.194428,2.4434314   L 70.149221,2.4434314  "
     id="path111" />
  <path
     style="fill:none;stroke:#000000;stroke-width:0.018721435px;stroke-linecap:round;stroke-linejoin:round;stroke-miterlimit:4;stroke-dasharray:none;stroke-opacity:1;"
     d="  M 69.194428,2.4434314   L 70.149221,2.4434314  "
     id="path113" />
  <path
     style="fill:none;stroke:#000000;stroke-width:0.018721435px;stroke-linecap:round;stroke-linejoin:round;stroke-miterlimit:4;stroke-dasharray:none;stroke-opacity:1;"
     d="  M 69.437806,2.6804807   L 69.887121,2.6804807  "
     id="path115" />
  <text
     xml:space="preserve"
     style="font-size:0.812500px;font-style:normal;font-variant:normal;font-weight:400;font-stretch:Normal;line-height:125.000000%;letter-spacing:0px;word-spacing:0px;fill:#000000;fill-opacity:1;stroke:none;font-family:Arial;text-align:start;text-anchor:start;"
     transform="matrix(1.000000,-0.000000,0.000000,1.000000,24.038324,9.876708)"
     x="0.000000"
     y="0.592313"
     id="text121"><tspan
       x="0.000000"
       y="0.592313"
       id="tspan119"><tspan
         dx="0.000000"
         dy="0.000000"
         style="fill:#000000;font-size:0.812500px;font-style:normal;font-variant:normal;font-weight:400;font-stretch:Normal;font-family:Arial;"
         id="tspan117">8</tspan></tspan></text>
  <text
     xml:space="preserve"
     style="font-size:0.812500px;font-style:normal;font-variant:normal;font-weight:400;font-stretch:Normal;line-height:125.000000%;letter-spacing:0px;word-spacing:0px;fill:#000000;fill-opacity:1;stroke:none;font-family:Arial;text-align:start;text-anchor:start;"
     transform="matrix(1.000000,-0.000000,0.000000,1.000000,24.038324,9.876708)"
     x="5.167116"
     y="0.592313"
     id="text127"><tspan
       x="5.167116"
       y="0.592313"
       id="tspan125"><tspan
         dx="0.000000"
         dy="0.000000"
         style="fill:#000000;font-size:0.812500px;font-style:normal;font-variant:normal;font-weight:400;font-stretch:Normal;font-family:Arial;"
         id="tspan123">7</tspan></tspan></text>
  <text
     xml:space="preserve"
     style="font-size:0.812500px;font-style:normal;font-variant:normal;font-weight:400;font-stretch:Normal;line-height:125.000000%;letter-spacing:0px;word-spacing:0px;fill:#000000;fill-opacity:1;stroke:none;font-family:Arial;text-align:start;text-anchor:start;"
     transform="matrix(1.000000,-0.000000,0.000000,1.000000,24.038324,9.876708)"
     x="10.334233"
     y="0.592313"
     id="text133"><tspan
       x="10.334233"
       y="0.592313"
       id="tspan131"><tspan
         dx="0.000000"
         dy="0.000000"
         style="fill:#000000;font-size:0.812500px;font-style:normal;font-variant:normal;font-weight:400;font-stretch:Normal;font-family:Arial;"
         id="tspan129">6</tspan></tspan></text>
  <text
     xml:space="preserve"
     style="font-size:0.812500px;font-style:normal;font-variant:normal;font-weight:400;font-stretch:Normal;line-height:125.000000%;letter-spacing:0px;word-spacing:0px;fill:#000000;fill-opacity:1;stroke:none;font-family:Arial;text-align:start;text-anchor:start;"
     transform="matrix(1.000000,-0.000000,0.000000,1.000000,24.038324,9.876708)"
     x="47.178019"
     y="0.592313"
     id="text139"><tspan
       x="47.178019"
       y="0.592313"
       id="tspan137"><tspan
         dx="0.000000"
         dy="0.000000"
         style="fill:#000000;font-size:0.812500px;font-style:normal;font-variant:normal;font-weight:400;font-stretch:Normal;font-family:Arial;"
         id="tspan135">WAN1</tspan></tspan></text>
  <text
     xml:space="preserve"
     style="font-size:0.812500px;font-style:normal;font-variant:normal;font-weight:400;font-stretch:Normal;line-height:125.000000%;letter-spacing:0px;word-spacing:0px;fill:#000000;fill-opacity:1;stroke:none;font-family:Arial;text-align:start;text-anchor:start;"
     transform="matrix(1.000000,-0.000000,0.000000,1.000000,24.038324,9.876708)"
     x="27.557954"
     y="0.592313"
     id="text145"><tspan
       x="27.557954"
       y="0.592313"
       id="tspan143"><tspan
         dx="0.000000"
         dy="0.000000"
         style="fill:#000000;font-size:0.812500px;font-style:normal;font-variant:normal;font-weight:400;font-stretch:Normal;font-family:Arial;"
         id="tspan141">3</tspan></tspan></text>
  <text
     xml:space="preserve"
     style="font-size:0.812500px;font-style:normal;font-variant:normal;font-weight:400;font-stretch:Normal;line-height:125.000000%;letter-spacing:0px;word-spacing:0px;fill:#000000;fill-opacity:1;stroke:none;font-family:Arial;text-align:start;text-anchor:start;"
     transform="matrix(1.000000,-0.000000,0.000000,1.000000,24.038324,9.876708)"
     x="32.725070"
     y="0.592313"
     id="text151"><tspan
       x="32.725070"
       y="0.592313"
       id="tspan149"><tspan
         dx="0.000000"
         dy="0.000000"
         style="fill:#000000;font-size:0.812500px;font-style:normal;font-variant:normal;font-weight:400;font-stretch:Normal;font-family:Arial;"
         id="tspan147">2</tspan></tspan></text>
  <text
     xml:space="preserve"
     style="font-size:0.812500px;font-style:normal;font-variant:normal;font-weight:400;font-stretch:Normal;line-height:125.000000%;letter-spacing:0px;word-spacing:0px;fill:#000000;fill-opacity:1;stroke:none;font-family:Arial;text-align:start;text-anchor:start;"
     transform="matrix(1.000000,-0.000000,0.000000,1.000000,24.038324,9.876708)"
     x="37.892187"
     y="0.592313"
     id="text157"><tspan
       x="37.892187"
       y="0.592313"
       id="tspan155"><tspan
         dx="0.000000"
         dy="0.000000"
         style="fill:#000000;font-size:0.812500px;font-style:normal;font-variant:normal;font-weight:400;font-stretch:Normal;font-family:Arial;"
         id="tspan153">1</tspan></tspan></text>
  <text
     xml:space="preserve"
     style="font-size:0.812500px;font-style:normal;font-variant:normal;font-weight:400;font-stretch:Normal;line-height:125.000000%;letter-spacing:0px;word-spacing:0px;fill:#000000;fill-opacity:1;stroke:none;font-family:Arial;text-align:start;text-anchor:start;"
     transform="matrix(1.000000,-0.000000,0.000000,1.000000,24.038324,9.876708)"
     x="42.010902"
     y="0.592313"
     id="text163"><tspan
       x="42.010902"
       y="0.592313"
       id="tspan161"><tspan
         dx="0.000000"
         dy="0.000000"
         style="fill:#000000;font-size:0.812500px;font-style:normal;font-variant:normal;font-weight:400;font-stretch:Normal;font-family:Arial;"
         id="tspan159">WAN2</tspan></tspan></text>
  <text
     xml:space="preserve"
     style="font-size:0.812500px;font-style:normal;font-variant:normal;font-weight:400;font-stretch:Normal;line-height:125.000000%;letter-spacing:0px;word-spacing:0px;fill:#000000;fill-opacity:1;stroke:none;font-family:Arial;text-align:start;text-anchor:start;"
     transform="matrix(1.000000,-0.000000,0.000000,1.000000,24.038324,9.876708)"
     x="20.593580"
     y="0.592313"
     id="text169"><tspan
       x="20.593580"
       y="0.592313"
       id="tspan167"><tspan
         dx="0.000000"
         dy="0.000000"
         style="fill:#000000;font-size:0.812500px;font-style:normal;font-variant:normal;font-weight:400;font-stretch:Normal;font-family:Arial;"
         id="tspan165">4</tspan></tspan></text>
  <text
     xml:space="preserve"
     style="font-size:0.812500px;font-style:normal;font-variant:normal;font-weight:400;font-stretch:Normal;line-height:125.000000%;letter-spacing:0px;word-spacing:0px;fill:#000000;fill-opacity:1;stroke:none;font-family:Arial;text-align:start;text-anchor:start;"
     transform="matrix(1.000000,-0.000000,0.000000,1.000000,24.038324,9.876708)"
     x="15.426463"
     y="0.592313"
     id="text175"><tspan
       x="15.426463"
       y="0.592313"
       id="tspan173"><tspan
         dx="0.000000"
         dy="0.000000"
         style="fill:#000000;font-size:0.812500px;font-style:normal;font-variant:normal;font-weight:400;font-stretch:Normal;font-family:Arial;"
         id="tspan171">5</tspan></tspan></text>
  <text
     xml:space="preserve"
     style="font-size:0.812500px;font-style:normal;font-variant:normal;font-weight:400;font-stretch:Normal;line-height:125.000000%;letter-spacing:0px;word-spacing:0px;fill:#000000;fill-opacity:1;stroke:none;font-family:Arial;text-align:start;text-anchor:start;"
     transform="matrix(1.000000,-0.000000,0.000000,1.000000,24.038324,9.876708)"
     x="-9.285832"
     y="0.592313"
     id="text181"><tspan
       x="-9.285832"
       y="0.592313"
       id="tspan179"><tspan
         dx="0.000000"
         dy="0.000000"
         style="fill:#000000;font-size:0.812500px;font-style:normal;font-variant:normal;font-weight:400;font-stretch:Normal;font-family:Arial;"
         id="tspan177">CONSOLE</tspan></tspan></text>
  <text
     xml:space="preserve"
     style="font-size:0.812500px;font-style:normal;font-variant:normal;font-weight:400;font-stretch:Normal;line-height:125.000000%;letter-spacing:0px;word-spacing:0px;fill:#000000;fill-opacity:1;stroke:none;font-family:Arial;text-align:start;text-anchor:start;"
     transform="matrix(1.000000,-0.000000,0.000000,1.000000,24.038324,9.876708)"
     x="-14.153406"
     y="0.592313"
     id="text187"><tspan
       x="-14.153406"
       y="0.592313"
       id="tspan185"><tspan
         dx="0.000000"
         dy="0.000000"
         style="fill:#000000;font-size:0.812500px;font-style:normal;font-variant:normal;font-weight:400;font-stretch:Normal;font-family:Arial;"
         id="tspan183">USB</tspan></tspan></text>
  <text
     xml:space="preserve"
     style="font-size:0.812500px;font-style:normal;font-variant:normal;font-weight:400;font-stretch:Normal;line-height:125.000000%;letter-spacing:0px;word-spacing:0px;fill:#000000;fill-opacity:1;stroke:none;font-family:Arial;text-align:start;text-anchor:start;"
     transform="matrix(1.000000,-0.000000,0.000000,1.000000,24.038324,9.876708)"
     x="-18.496779"
     y="0.592313"
     id="text193"><tspan
       x="-18.496779"
       y="0.592313"
       id="tspan191"><tspan
         dx="0.000000"
         dy="0.000000"
         style="fill:#000000;font-size:0.812500px;font-style:normal;font-variant:normal;font-weight:400;font-stretch:Normal;font-family:Arial;"
         id="tspan189">DC+54V</tspan></tspan></text>
  <text
     xml:space="preserve"
     style="font-size:0.812500px;font-style:normal;font-variant:normal;font-weight:400;font-stretch:Normal;line-height:125.000000%;letter-spacing:0px;word-spacing:0px;fill:#000000;fill-opacity:1;stroke:none;font-family:Arial;text-align:start;text-anchor:start;"
     transform="matrix(1.000000,-0.000000,0.000000,1.000000,24.038324,9.876708)"
     x="-22.016409"
     y="-0.010845"
     id="text199"><tspan
       x="-22.016409"
       y="-0.010845"
       id="tspan197"><tspan
         dx="0.000000"
         dy="0.000000"
         style="fill:#000000;font-size:0.812500px;font-style:normal;font-variant:normal;font-weight:400;font-stretch:Normal;font-family:Arial;"
         id="tspan195">RESET</tspan></tspan></text>
  <ellipse
     style="fill:#999999;fill-rule:evenodd;fill-opacity:1;stroke:#000000;stroke-width:0.020713888px;stroke-linecap:round;stroke-linejoin:round;stroke-miterlimit:4;stroke-dasharray:none;stroke-opacity:1;"
     cx="71.939332"
     cy="1.7824155"
     rx="0.86998328"
     ry="0.88034022"
     id="ellipse201" />
  <ellipse
     style="fill:none;stroke:#000000;stroke-width:0.020713888px;stroke-linecap:round;stroke-linejoin:round;stroke-miterlimit:4;stroke-dasharray:none;stroke-opacity:1;"
     cx="71.939332"
     cy="1.7824155"
     rx="0.86998328"
     ry="0.88034022"
     id="ellipse203" />
  <ellipse
     style="fill:#666666;fill-rule:evenodd;fill-opacity:1;stroke:#000000;stroke-width:0.020713888px;stroke-linecap:round;stroke-linejoin:round;stroke-miterlimit:4;stroke-dasharray:none;stroke-opacity:1;"
     cx="71.939332"
     cy="1.771992"
     rx="0.64213052"
     ry="0.64213052"
     id="ellipse205" />
  <ellipse
     style="fill:none;stroke:#000000;stroke-width:0.020713888px;stroke-linecap:round;stroke-linejoin:round;stroke-miterlimit:4;stroke-dasharray:none;stroke-opacity:1;"
     cx="71.939332"
     cy="1.771992"
     rx="0.64213052"
     ry="0.64213052"
     id="ellipse207" />
  <ellipse
     style="fill:#7f7f7f;fill-rule:evenodd;fill-opacity:1;stroke:#000000;stroke-width:0.020713888px;stroke-linecap:round;stroke-linejoin:round;stroke-miterlimit:4;stroke-dasharray:none;stroke-opacity:1;"
     cx="71.939332"
     cy="1.7824155"
     rx="0.57998885"
     ry="0.5903458"
     id="ellipse209" />
  <ellipse
     style="fill:none;stroke:#7f7f7f;stroke-width:0.020713888px;stroke-linecap:round;stroke-linejoin:round;stroke-miterlimit:4;stroke-dasharray:none;stroke-opacity:1;"
     cx="71.939332"
     cy="1.7824155"
     rx="0.57998885"
     ry="0.5903458"
     id="ellipse211" />
  <path
     style="fill:#494949;fill-rule:evenodd;fill-opacity:1;stroke:#161616;stroke-width:0.020713888px;stroke-linecap:round;stroke-linejoin:round;stroke-miterlimit:4;stroke-dasharray:none;stroke-opacity:1;"
     d="  M 71.50434,1.751145   L 71.483626,1.751145   L 71.462912,1.771992   L 71.462912,1.7928389   L 71.442198,1.7928389   L 71.442198,1.9179207   L 71.462912,1.9179207   L 71.462912,1.9387677   L 71.483626,1.9596146   L 71.918618,1.9596146   L 71.918618,2.4182479   L 71.939332,2.4182479   L 71.939332,2.4390948   L 71.960045,2.4390948   L 71.960045,2.4599418   L 72.084329,2.4599418   L 72.084329,2.4390948   L 72.105043,2.4390948   L 72.105043,2.4182479   L 72.125757,2.4182479   L 72.125757,1.9596146   L 72.581462,1.9596146   L 72.581462,1.9387677   L 72.602176,1.9387677   L 72.602176,1.9179207   L 72.62289,1.9179207   L 72.62289,1.7928389   L 72.602176,1.7928389   L 72.602176,1.771992   L 72.581462,1.771992   L 72.581462,1.751145   L 72.125757,1.751145   L 72.125757,1.3133588   L 72.105043,1.2925118   L 72.084329,1.2925118   L 72.084329,1.2716648   L 71.960045,1.2716648   L 71.960045,1.2925118   L 71.939332,1.2925118   L 71.918618,1.3133588   L 71.918618,1.751145   L 71.525054,1.751145   L 71.50434,1.751145   z "
     id="path213" />
  <path
     style="fill:none;stroke:#bfbfbf;stroke-width:0.020713888px;stroke-linecap:round;stroke-linejoin:round;stroke-miterlimit:4;stroke-dasharray:none;stroke-opacity:1;"
     d="  M 71.421484,1.8136859   L 71.421484,1.9179207   L 71.442198,1.9387677   L 71.462912,1.9387677   L 71.462912,1.9596146   L 71.918618,1.9596146   L 71.918618,2.4390948   L 71.939332,2.4599418   L 71.960045,2.4599418   L 71.960045,2.4807888   L 72.022187,2.4807888   L 72.042901,2.4807888  "
     id="path215" />
  <path
     style="fill:none;stroke:#bfbfbf;stroke-width:0.020713888px;stroke-linecap:round;stroke-linejoin:round;stroke-miterlimit:4;stroke-dasharray:none;stroke-opacity:1;"
     d="  M 71.918618,1.3133588   L 71.918618,1.730298   L 71.918618,1.751145  "
     id="path217" />
  <path
     style="fill:#000000;fill-rule:evenodd;fill-opacity:1;stroke:#161616;stroke-width:0.018576441px;stroke-linecap:round;stroke-linejoin:round;stroke-miterlimit:4;stroke-dasharray:none;stroke-opacity:1;"
     d="  M 70.088911,4.819381   L 70.088911,7.6663512   L 71.277804,7.6663512   L 71.277804,8.3362265   L 71.760791,8.3362265   L 71.760791,9.0061019   L 73.172601,9.0061019   L 73.172601,8.3362265   L 73.655588,8.3362265   L 73.655588,7.6663512   L 74.84448,7.6663512   L 74.84448,4.819381   L 70.088911,4.819381   z "
     id="path219" />
  <path
     style="fill:#000000;fill-rule:evenodd;fill-opacity:1;stroke:#161616;stroke-width:0.018576441px;stroke-linecap:round;stroke-linejoin:round;stroke-miterlimit:4;stroke-dasharray:none;stroke-opacity:1;"
     d="  M 64.924661,4.819381   L 64.924661,7.6663512   L 66.113553,7.6663512   L 66.113553,8.3362265   L 66.596541,8.3362265   L 66.596541,9.0061019   L 68.00835,9.0061019   L 68.00835,8.3362265   L 68.491337,8.3362265   L 68.491337,7.6663512   L 69.68023,7.6663512   L 69.68023,4.819381   L 64.924661,4.819381   z "
     id="path221" />
  <path
     style="fill:#000000;fill-rule:evenodd;fill-opacity:1;stroke:#161616;stroke-width:0.018576441px;stroke-linecap:round;stroke-linejoin:round;stroke-miterlimit:4;stroke-dasharray:none;stroke-opacity:1;"
     d="  M 59.834716,4.819381   L 59.834716,7.6663512   L 61.023608,7.6663512   L 61.023608,8.3362265   L 61.506596,8.3362265   L 61.506596,9.0061019   L 62.918405,9.0061019   L 62.918405,8.3362265   L 63.401393,8.3362265   L 63.401393,7.6663512   L 64.590285,7.6663512   L 64.590285,4.819381   L 59.834716,4.819381   z "
     id="path223" />
  <path
     style="fill:#000000;fill-rule:evenodd;fill-opacity:1;stroke:#161616;stroke-width:0.018576441px;stroke-linecap:round;stroke-linejoin:round;stroke-miterlimit:4;stroke-dasharray:none;stroke-opacity:1;"
     d="  M 54.670465,4.819381   L 54.670465,7.6663512   L 55.859358,7.6663512   L 55.859358,8.3362265   L 56.342345,8.3362265   L 56.342345,9.0061019   L 57.754155,9.0061019   L 57.754155,8.3362265   L 58.237142,8.3362265   L 58.237142,7.6663512   L 59.426034,7.6663512   L 59.426034,4.819381   L 54.670465,4.819381   z "
     id="path225" />
  <path
     style="fill:#000000;fill-rule:evenodd;fill-opacity:1;stroke:#161616;stroke-width:0.018576441px;stroke-linecap:round;stroke-linejoin:round;stroke-miterlimit:4;stroke-dasharray:none;stroke-opacity:1;"
     d="  M 49.506215,4.819381   L 49.506215,7.6663512   L 50.695107,7.6663512   L 50.695107,8.3362265   L 51.178095,8.3362265   L 51.178095,9.0061019   L 52.589904,9.0061019   L 52.589904,8.3362265   L 53.072892,8.3362265   L 53.072892,7.6663512   L 54.261784,7.6663512   L 54.261784,4.819381   L 49.506215,4.819381   z "
     id="path227" />
  <path
     style="fill:#000000;fill-rule:evenodd;fill-opacity:1;stroke:#161616;stroke-width:0.018576441px;stroke-linecap:round;stroke-linejoin:round;stroke-miterlimit:4;stroke-dasharray:none;stroke-opacity:1;"
     d="  M 42.54005,4.819381   L 42.54005,7.6663512   L 43.728942,7.6663512   L 43.728942,8.3362265   L 44.211929,8.3362265   L 44.211929,9.0061019   L 45.623739,9.0061019   L 45.623739,8.3362265   L 46.106726,8.3362265   L 46.106726,7.6663512   L 47.295618,7.6663512   L 47.295618,4.819381   L 42.54005,4.819381   z "
     id="path229" />
  <path
     style="fill:#000000;fill-rule:evenodd;fill-opacity:1;stroke:#161616;stroke-width:0.018576441px;stroke-linecap:round;stroke-linejoin:round;stroke-miterlimit:4;stroke-dasharray:none;stroke-opacity:1;"
     d="  M 37.375799,4.819381   L 37.375799,7.6663512   L 38.564691,7.6663512   L 38.564691,8.3362265   L 39.047679,8.3362265   L 39.047679,9.0061019   L 40.459488,9.0061019   L 40.459488,8.3362265   L 40.942476,8.3362265   L 40.942476,7.6663512   L 42.131368,7.6663512   L 42.131368,4.819381   L 37.375799,4.819381   z "
     id="path231" />
  <path
     style="fill:#000000;fill-rule:evenodd;fill-opacity:1;stroke:#161616;stroke-width:0.018576441px;stroke-linecap:round;stroke-linejoin:round;stroke-miterlimit:4;stroke-dasharray:none;stroke-opacity:1;"
     d="  M 32.267278,4.819381   L 32.267278,7.6663512   L 33.45617,7.6663512   L 33.45617,8.3362265   L 33.939157,8.3362265   L 33.939157,9.0061019   L 35.350967,9.0061019   L 35.350967,8.3362265   L 35.833954,8.3362265   L 35.833954,7.6663512   L 37.022847,7.6663512   L 37.022847,4.819381   L 32.267278,4.819381   z "
     id="path233" />
  <path
     style="fill:#000000;fill-rule:evenodd;fill-opacity:1;stroke:#161616;stroke-width:0.018576441px;stroke-linecap:round;stroke-linejoin:round;stroke-miterlimit:4;stroke-dasharray:none;stroke-opacity:1;"
     d="  M 27.103027,4.819381   L 27.103027,7.6663512   L 28.291919,7.6663512   L 28.291919,8.3362265   L 28.774907,8.3362265   L 28.774907,9.0061019   L 30.186716,9.0061019   L 30.186716,8.3362265   L 30.669704,8.3362265   L 30.669704,7.6663512   L 31.858596,7.6663512   L 31.858596,4.819381   L 27.103027,4.819381   z "
     id="path235" />
  <path
     style="fill:#000000;fill-rule:evenodd;fill-opacity:1;stroke:#161616;stroke-width:0.018576441px;stroke-linecap:round;stroke-linejoin:round;stroke-miterlimit:4;stroke-dasharray:none;stroke-opacity:1;"
     d="  M 21.938777,4.819381   L 21.938777,7.6663512   L 23.127669,7.6663512   L 23.127669,8.3362265   L 23.610656,8.3362265   L 23.610656,9.0061019   L 25.022466,9.0061019   L 25.022466,8.3362265   L 25.505453,8.3362265   L 25.505453,7.6663512   L 26.694346,7.6663512   L 26.694346,4.819381   L 21.938777,4.819381   z "
     id="path237" />
  <path
     style="fill:#000000;fill-rule:evenodd;fill-opacity:1;stroke:#161616;stroke-width:0.018576441px;stroke-linecap:round;stroke-linejoin:round;stroke-miterlimit:4;stroke-dasharray:none;stroke-opacity:1;"
     d="  M 14.303859,8.3362265   L 14.303859,5.4892563   L 15.492752,5.4892563   L 15.492752,4.819381   L 15.975739,4.819381   L 15.975739,4.1495056   L 17.387549,4.1495056   L 17.387549,4.819381   L 17.870536,4.819381   L 17.870536,5.4892563   L 19.059428,5.4892563   L 19.059428,8.3362265   L 14.303859,8.3362265   z "
     id="path239" />
  <path
     style="fill:#bfbfbf;fill-rule:evenodd;fill-opacity:1;stroke:#000000;stroke-width:0.018721435px;stroke-linecap:round;stroke-linejoin:round;stroke-miterlimit:4;stroke-dasharray:none;stroke-opacity:1;"
     d="  M 11.86939,8.8777284   L 11.86939,8.9342744   L 11.850669,8.9342744   L 11.850669,8.9719718   L 11.831948,8.9908204   L 11.831948,9.0096691   L 11.813226,9.0096691   L 11.813226,9.0285178   L 11.794505,9.0285178   L 11.794505,9.0473665   L 11.775783,9.0473665   L 11.757062,9.0662152   L 11.719619,9.0662152   L 11.719619,9.0850638   L 9.8849182,9.0850638   L 9.8849182,9.0662152   L 9.8474754,9.0662152   L 9.8287539,9.0473665   L 9.8100325,9.0473665   L 9.8100325,9.0285178   L 9.7913111,9.0285178   L 9.7913111,9.0096691   L 9.7725896,9.0096691   L 9.7725896,8.9908204   L 9.7538682,8.9719718   L 9.7538682,8.9342744   L 9.7351467,8.9342744   L 9.7351467,4.2221044   L 9.7538682,4.2221044   L 9.7538682,4.184407   L 9.7725896,4.1655583   L 9.7725896,4.1467096   L 9.7913111,4.1467096   L 9.7913111,4.127861   L 9.8100325,4.127861   L 9.8100325,4.1090123   L 9.8287539,4.1090123   L 9.8474754,4.0901636   L 9.8849182,4.0901636   L 9.8849182,4.0713149   L 11.719619,4.0713149   L 11.719619,4.0901636   L 11.757062,4.0901636   L 11.775783,4.1090123   L 11.794505,4.1090123   L 11.794505,4.127861   L 11.813226,4.127861   L 11.813226,4.1467096   L 11.831948,4.1467096   L 11.831948,4.1655583   L 11.850669,4.184407   L 11.850669,4.2221044   L 11.86939,4.2221044   L 11.86939,8.8588797   L 11.86939,8.8777284   z "
     id="path241" />
  <path
     style="fill:#000000;fill-rule:evenodd;fill-opacity:1;stroke:#7f7f7f;stroke-width:0.018721435px;stroke-linecap:round;stroke-linejoin:round;stroke-miterlimit:4;stroke-dasharray:none;stroke-opacity:1;"
     d="  M 11.700898,8.8023336   L 11.700898,8.8588797   L 11.682176,8.8588797   L 11.682176,8.896577   L 11.644733,8.896577   L 11.644733,8.9154257   L 9.959804,8.9154257   L 9.9410825,8.896577   L 9.9223611,8.896577   L 9.9223611,8.8777284   L 9.9036397,8.8777284   L 9.9036397,8.8588797   L 9.8849182,8.840031   L 9.8849182,4.2974991   L 9.9036397,4.2974991   L 9.9036397,4.2786504   L 9.9223611,4.2786504   L 9.9223611,4.2598017   L 9.9410825,4.2598017   L 9.959804,4.240953   L 11.644733,4.240953   L 11.644733,4.2598017   L 11.682176,4.2598017   L 11.682176,4.2974991   L 11.700898,4.2974991   L 11.700898,8.783485   L 11.700898,8.8023336   z "
     id="path243" />
  <path
     style="fill:#bfbfbf;fill-rule:evenodd;fill-opacity:1;stroke:#000000;stroke-width:0.018721435px;stroke-linecap:round;stroke-linejoin:round;stroke-miterlimit:4;stroke-dasharray:none;stroke-opacity:1;"
     d="  M 10.764826,7.8033536   L 10.764826,8.2180246   L 10.858433,8.2180246   L 10.858433,7.8033536   L 10.764826,7.8033536   z "
     id="path245" />
  <path
     style="fill:#bfbfbf;fill-rule:evenodd;fill-opacity:1;stroke:#000000;stroke-width:0.018721435px;stroke-linecap:round;stroke-linejoin:round;stroke-miterlimit:4;stroke-dasharray:none;stroke-opacity:1;"
     d="  M 10.764826,6.8609196   L 10.764826,7.2755906   L 10.858433,7.2755906   L 10.858433,6.8609196   L 10.764826,6.8609196   z "
     id="path247" />
  <path
     style="fill:#bfbfbf;fill-rule:evenodd;fill-opacity:1;stroke:#000000;stroke-width:0.018721435px;stroke-linecap:round;stroke-linejoin:round;stroke-miterlimit:4;stroke-dasharray:none;stroke-opacity:1;"
     d="  M 10.764826,5.9373343   L 10.764826,6.3520052   L 10.858433,6.3520052   L 10.858433,5.9373343   L 10.764826,5.9373343   z "
     id="path249" />
  <path
     style="fill:#bfbfbf;fill-rule:evenodd;fill-opacity:1;stroke:#000000;stroke-width:0.018721435px;stroke-linecap:round;stroke-linejoin:round;stroke-miterlimit:4;stroke-dasharray:none;stroke-opacity:1;"
     d="  M 10.764826,4.9760516   L 10.764826,5.3907225   L 10.858433,5.3907225   L 10.858433,4.9760516   L 10.764826,4.9760516   z "
     id="path251" />
  <path
     style="fill:#0000ff;fill-rule:evenodd;fill-opacity:1;stroke:#000000;stroke-width:0.018721435px;stroke-linecap:round;stroke-linejoin:round;stroke-miterlimit:4;stroke-dasharray:none;stroke-opacity:1;"
     d="  M 10.970762,4.5236832   L 10.933319,4.5236832   L 10.895876,4.5425319   L 10.877154,4.5802293   L 10.877154,8.5761495   L 10.895876,8.6138468   L 10.933319,8.6326955   L 11.401355,8.6326955   L 11.438797,8.6138468   L 11.457519,8.5761495   L 11.457519,4.5802293   L 11.438797,4.5425319   L 11.401355,4.5236832   L 11.363912,4.5236832   L 10.970762,4.5236832   z "
     id="path253" />
  <path
     style="fill:#3232ff;fill-rule:evenodd;fill-opacity:1;stroke:#3232ff;stroke-width:0.018721435px;stroke-linecap:round;stroke-linejoin:round;stroke-miterlimit:4;stroke-dasharray:none;stroke-opacity:1;"
     d="  M 11.157976,4.6744727   L 11.08309,4.6933214   L 11.008204,4.7687161   L 10.989483,4.8441108   L 10.989483,8.312268   L 11.008204,8.3876627   L 11.08309,8.4630574   L 11.157976,8.4819061   L 11.232862,8.4630574   L 11.307747,8.3876627   L 11.326469,8.312268   L 11.326469,4.8441108   L 11.307747,4.7687161   L 11.232862,4.6933214   L 11.157976,4.6744727   z "
     id="path255" />
  <path
     style="fill:#000000;fill-rule:evenodd;fill-opacity:1;stroke:#000000;stroke-width:0.01476563px;stroke-linecap:round;stroke-linejoin:round;stroke-miterlimit:4;stroke-dasharray:none;stroke-opacity:1;"
     d="  M 8.1358622,3.9194062   L 8.1358622,9.1658553   L 6.068674,9.1658553   L 6.068674,3.9194062   L 6.467346,3.9194062   L 6.467346,4.3360359   L 7.7371902,4.3360359   L 7.7371902,3.9194062   L 8.1358622,3.9194062   z "
     id="path257" />
  <path
     style="fill:#666666;fill-rule:evenodd;fill-opacity:1;stroke:#000000;stroke-width:0.01476563px;stroke-linecap:round;stroke-linejoin:round;stroke-miterlimit:4;stroke-dasharray:none;stroke-opacity:1;"
     d="  M 8.0767997,4.4903433   L 6.1277365,4.4903433   L 6.1277365,9.0887017   L 8.0767997,9.0887017   L 8.0767997,4.4903433   z "
     id="path259" />
  <path
     style="fill:#000000;fill-rule:evenodd;fill-opacity:1;stroke:#000000;stroke-width:0.01476563px;stroke-linecap:round;stroke-linejoin:round;stroke-miterlimit:4;stroke-dasharray:none;stroke-opacity:1;"
     d="  M 7.8700809,6.9746913   L 6.3344553,6.9746913   L 6.3344553,8.5794875   L 7.8700809,8.5794875   L 7.8700809,6.9746913   z "
     id="path261" />
  <ellipse
     style="fill:#bfbfbf;fill-rule:evenodd;fill-opacity:1;stroke:#000000;stroke-width:0.01476563px;stroke-linecap:round;stroke-linejoin:round;stroke-miterlimit:4;stroke-dasharray:none;stroke-opacity:1;"
     cx="7.0210571"
     cy="7.6922203"
     rx="0.11074223"
     ry="0.11074223"
     id="ellipse263" />
  <ellipse
     style="fill:none;stroke:#000000;stroke-width:0.01476563px;stroke-linecap:round;stroke-linejoin:round;stroke-miterlimit:4;stroke-dasharray:none;stroke-opacity:1;"
     cx="7.0210571"
     cy="7.6922203"
     rx="0.11074223"
     ry="0.11074223"
     id="ellipse265" />
  <path
     style="fill:#000000;fill-rule:evenodd;fill-opacity:1;stroke:#000000;stroke-width:0.01476563px;stroke-linecap:round;stroke-linejoin:round;stroke-miterlimit:4;stroke-dasharray:none;stroke-opacity:1;"
     d="  M 7.8700809,5.0304189   L 6.3344553,5.0304189   L 6.3344553,6.2340161   L 6.7183617,6.6352151   L 7.5157058,6.6352151   L 7.8700809,6.2648775   L 7.8700809,5.0304189   z "
     id="path267" />
  <ellipse
     style="fill:#bfbfbf;fill-rule:evenodd;fill-opacity:1;stroke:#000000;stroke-width:0.01476563px;stroke-linecap:round;stroke-linejoin:round;stroke-miterlimit:4;stroke-dasharray:none;stroke-opacity:1;"
     cx="7.0210571"
     cy="5.7556634"
     rx="0.11074223"
     ry="0.11812504"
     id="ellipse269" />
  <ellipse
     style="fill:none;stroke:#000000;stroke-width:0.01476563px;stroke-linecap:round;stroke-linejoin:round;stroke-miterlimit:4;stroke-dasharray:none;stroke-opacity:1;"
     cx="7.0210571"
     cy="5.7556634"
     rx="0.11074223"
     ry="0.11812504"
     id="ellipse271" />
</svg>
