<?xml version="1.0" encoding="UTF-8" standalone="no"?>
<svg
   version="1.0"
   width="23.41mm"
   height="4.4000001mm"
   id="svg273"
   xmlns="http://www.w3.org/2000/svg"
   xmlns:svg="http://www.w3.org/2000/svg">
  <defs
     id="defs3">
    <pattern
       id="EMFhbasepattern"
       patternUnits="userSpaceOnUse"
       width="6"
       height="6"
       x="0"
       y="0" />
  </defs>
  <path
     style="fill:#efefef;fill-rule:evenodd;fill-opacity:1;stroke:#000000;stroke-width:0.018708458px;stroke-linecap:round;stroke-linejoin:round;stroke-miterlimit:4;stroke-dasharray:none;stroke-opacity:1;"
     d="  M 11.287004,6.8118257   M 10.693576,7.8497046   M 10.82413,8.0525085   M 10.82413,8.0525085   M 10.99029,8.2553124   M 3.3675225,5.4807415   L 0.14966766,5.4807415   L 0.14966766,11.11164   L 3.3675225,11.11164   L 3.3675225,5.4807415   z "
     id="path5" />
  <path
     style="fill:#efefef;fill-rule:evenodd;fill-opacity:1;stroke:#000000;stroke-width:0.018708458px;stroke-linecap:round;stroke-linejoin:round;stroke-miterlimit:4;stroke-dasharray:none;stroke-opacity:1;"
     d="  M 88.004587,5.4807415   L 84.786732,5.4807415   L 84.786732,11.11164   L 88.004587,11.11164   L 88.004587,5.4807415   z "
     id="path7" />
  <path
     style="fill:#ededed;fill-rule:evenodd;fill-opacity:1;stroke:#000000;stroke-width:0.093542293px;stroke-linecap:round;stroke-linejoin:round;stroke-miterlimit:4;stroke-dasharray:none;stroke-opacity:1;"
     d="  M 84.786732,0.41293258   L 84.786732,0.33785393   L 84.749315,0.26277528   L 84.730607,0.20646629   L 84.618356,0.093848314   L 84.56223,0.075078651   L 84.487397,0.037539326   L 3.6668578,0.037539326   L 3.5920239,0.075078651   L 3.5358986,0.093848314   L 3.4236478,0.20646629   L 3.4049394,0.26277528   L 3.3675225,0.33785393   L 3.3675225,16.254528   L 3.4049394,16.329607   L 3.4236478,16.385916   L 3.5358986,16.498534   L 3.5920239,16.517303   L 3.6668578,16.554843   L 84.487397,16.554843   L 84.56223,16.517303   L 84.618356,16.498534   L 84.730607,16.385916   L 84.749315,16.329607   L 84.786732,16.254528   L 84.786732,16.179449   L 84.786732,0.41293258   z "
     id="path9" />
  <path
     style="fill:#efefef;fill-rule:evenodd;fill-opacity:1;stroke:#000000;stroke-width:0.093542293px;stroke-linecap:round;stroke-linejoin:round;stroke-miterlimit:4;stroke-dasharray:none;stroke-opacity:1;"
     d="  M 3.7416916,0.037539326   L 3.6668578,0.037539326   L 3.6481493,0.056308988   L 3.5920239,0.056308988   L 3.5733155,0.075078651   L 3.554607,0.075078651   L 3.5358986,0.093848314   L 3.5171901,0.093848314   L 3.5171901,0.11261798   L 3.4984817,0.11261798   L 3.4797732,0.13138764   L 3.4797732,0.1501573   L 3.4610647,0.1501573   L 3.4423563,0.16892697   L 3.4423563,0.18769663   L 3.4236478,0.18769663   L 3.4236478,0.20646629   L 3.4049394,0.22523595   L 3.4049394,0.24400562   L 3.3862309,0.26277528   L 3.3862309,0.31908427   L 3.3675225,0.33785393   L 3.3675225,1.388955   L 3.6668578,1.388955   L 3.6668578,0.52555056   L 3.6855662,0.5067809   L 3.6855662,0.45047191   L 3.7042747,0.41293258   L 3.7042747,0.39416292   L 3.7229832,0.37539326   L 3.7229832,0.35662359   L 3.7791085,0.30031461   L 3.7791085,0.28154494   L 3.797817,0.28154494   L 3.8165254,0.26277528   L 3.8165254,0.24400562   L 3.8352339,0.24400562   L 3.8539424,0.22523595   L 3.8913593,0.22523595   L 3.9100677,0.20646629   L 3.9474847,0.20646629   L 3.9661931,0.18769663   L 84.188061,0.18769663   L 84.20677,0.20646629   L 84.244187,0.20646629   L 84.262895,0.22523595   L 84.300312,0.22523595   L 84.31902,0.24400562   L 84.337729,0.24400562   L 84.337729,0.26277528   L 84.356437,0.28154494   L 84.375146,0.28154494   L 84.393854,0.30031461   L 84.393854,0.31908427   L 84.431271,0.35662359   L 84.431271,0.37539326   L 84.44998,0.39416292   L 84.44998,0.41293258   L 84.468688,0.45047191   L 84.468688,0.5067809   L 84.487397,0.52555056   L 84.487397,1.388955   L 84.786732,1.388955   L 84.786732,0.33785393   L 84.768023,0.31908427   L 84.768023,0.26277528   L 84.749315,0.24400562   L 84.749315,0.22523595   L 84.730607,0.20646629   L 84.730607,0.18769663   L 84.711898,0.18769663   L 84.711898,0.16892697   L 84.655773,0.11261798   L 84.637064,0.11261798   L 84.637064,0.093848314   L 84.618356,0.093848314   L 84.599647,0.075078651   L 84.580939,0.075078651   L 84.56223,0.056308988   L 84.506105,0.056308988   L 84.487397,0.037539326   L 3.9661931,0.037539326   L 3.7416916,0.037539326   z "
     id="path11" />
  <path
     style="fill:#efefef;fill-rule:evenodd;fill-opacity:1;stroke:#000000;stroke-width:0.093542293px;stroke-linecap:round;stroke-linejoin:round;stroke-miterlimit:4;stroke-dasharray:none;stroke-opacity:1;"
     d="  M 3.7416916,16.554843   L 3.6668578,16.554843   L 3.6481493,16.536073   L 3.5920239,16.536073   L 3.5733155,16.517303   L 3.554607,16.517303   L 3.5358986,16.498534   L 3.5171901,16.498534   L 3.5171901,16.479764   L 3.4984817,16.479764   L 3.4423563,16.423455   L 3.4423563,16.404685   L 3.4236478,16.404685   L 3.4236478,16.385916   L 3.4049394,16.367146   L 3.4049394,16.348376   L 3.3862309,16.329607   L 3.3862309,16.273298   L 3.3675225,16.254528   L 3.3675225,15.203427   L 3.6668578,15.203427   L 3.6668578,16.066831   L 3.6855662,16.085601   L 3.6855662,16.16068   L 3.7042747,16.179449   L 3.7042747,16.198219   L 3.7229832,16.216989   L 3.7229832,16.235758   L 3.7791085,16.292067   L 3.7791085,16.310837   L 3.797817,16.310837   L 3.8165254,16.329607   L 3.8165254,16.348376   L 3.8352339,16.348376   L 3.8539424,16.367146   L 3.8726508,16.367146   L 3.8913593,16.385916   L 3.9474847,16.385916   L 3.9661931,16.404685   L 84.188061,16.404685   L 84.20677,16.385916   L 84.262895,16.385916   L 84.281604,16.367146   L 84.300312,16.367146   L 84.31902,16.348376   L 84.337729,16.348376   L 84.337729,16.329607   L 84.356437,16.310837   L 84.375146,16.310837   L 84.393854,16.292067   L 84.393854,16.273298   L 84.431271,16.235758   L 84.431271,16.216989   L 84.44998,16.198219   L 84.44998,16.179449   L 84.468688,16.16068   L 84.468688,16.085601   L 84.487397,16.066831   L 84.487397,15.203427   L 84.786732,15.203427   L 84.786732,16.254528   L 84.768023,16.273298   L 84.768023,16.329607   L 84.749315,16.348376   L 84.749315,16.367146   L 84.730607,16.385916   L 84.730607,16.404685   L 84.711898,16.404685   L 84.711898,16.423455   L 84.69319,16.442225   L 84.69319,16.460994   L 84.674481,16.460994   L 84.655773,16.479764   L 84.637064,16.479764   L 84.637064,16.498534   L 84.618356,16.498534   L 84.599647,16.517303   L 84.580939,16.517303   L 84.56223,16.536073   L 84.506105,16.536073   L 84.487397,16.554843   L 3.9661931,16.554843   L 3.7416916,16.554843   z "
     id="path13" />
  <path
     style="fill:#000000;fill-rule:evenodd;fill-opacity:1;stroke:#000000;stroke-width:0.018708458px;stroke-linecap:round;stroke-linejoin:round;stroke-miterlimit:4;stroke-dasharray:none;stroke-opacity:1;"
     d="  M 31.710836,3.1533034   L 25.013208,3.1533034   L 25.013208,13.439079   L 31.710836,13.439079   L 31.710836,3.1533034   z "
     id="path15" />
  <path
     style="fill:#aaa29b;fill-rule:evenodd;fill-opacity:1;stroke:#000000;stroke-width:0.018708458px;stroke-linecap:round;stroke-linejoin:round;stroke-miterlimit:4;stroke-dasharray:none;stroke-opacity:1;"
     d="  M 25.162876,3.3034607   L 31.561169,3.3034607   L 31.561169,13.288921   L 25.162876,13.288921   L 25.162876,3.3034607   z "
     id="path17" />
  <path
     style="fill:#aaa29b;fill-rule:evenodd;fill-opacity:1;stroke:#efefef;stroke-width:0.018708458px;stroke-linecap:round;stroke-linejoin:round;stroke-miterlimit:4;stroke-dasharray:none;stroke-opacity:1;"
     d="  M 14.817099,8.2211123   L 19.756132,8.2211123   L 19.756132,13.026146   L 14.817099,13.026146   L 14.817099,8.2211123   z "
     id="path19" />
  <path
     style="fill:#000000;fill-rule:evenodd;fill-opacity:1;stroke:#000000;stroke-width:0.018708458px;stroke-linecap:round;stroke-linejoin:round;stroke-miterlimit:4;stroke-dasharray:none;stroke-opacity:1;"
     d="  M 65.161559,3.1533034   L 32.085006,3.1533034   L 32.085006,13.439079   L 65.161559,13.439079   L 65.161559,3.1533034   z "
     id="path21" />
  <path
     style="fill:#000000;fill-rule:evenodd;fill-opacity:1;stroke:#000000;stroke-width:0.018708458px;stroke-linecap:round;stroke-linejoin:round;stroke-miterlimit:4;stroke-dasharray:none;stroke-opacity:1;"
     d="  M 73.168779,3.1533034   L 66.471152,3.1533034   L 66.471152,13.439079   L 73.168779,13.439079   L 73.168779,3.1533034   z "
     id="path23" />
  <path
     style="fill:#aaa29b;fill-rule:evenodd;fill-opacity:1;stroke:#000000;stroke-width:0.018708458px;stroke-linecap:round;stroke-linejoin:round;stroke-miterlimit:4;stroke-dasharray:none;stroke-opacity:1;"
     d="  M 66.620819,3.3034607   L 73.019112,3.3034607   L 73.019112,13.288921   L 66.620819,13.288921   L 66.620819,3.3034607   z "
     id="path25" />
  <path
     style="fill:#aaa29b;fill-rule:evenodd;fill-opacity:1;stroke:#000000;stroke-width:0.018708458px;stroke-linecap:round;stroke-linejoin:round;stroke-miterlimit:4;stroke-dasharray:none;stroke-opacity:1;"
     d="  M 65.011892,3.3034607   L 32.234673,3.3034607   L 32.234673,13.288921   L 65.011892,13.288921   L 65.011892,3.3034607   z "
     id="path27" />
  <ellipse
     style="fill:none;stroke:#0a0a0a;stroke-width:0.011868563px;stroke-linecap:round;stroke-linejoin:round;stroke-miterlimit:4;stroke-dasharray:none;stroke-opacity:1;"
     cx="11.203924"
     cy="7.4321671"
     rx="0.87827368"
     ry="0.87827368"
     id="ellipse29" />
  <path
     style="fill:none;stroke:#000000;stroke-width:0.035605691px;stroke-linecap:round;stroke-linejoin:round;stroke-miterlimit:4;stroke-dasharray:none;stroke-opacity:1;"
     d="  M 11.287004,6.8118257   L 11.287004,7.6826896  "
     id="path31" />
  <path
     style="fill:none;stroke:#000000;stroke-width:0.035605691px;stroke-linecap:round;stroke-linejoin:round;stroke-miterlimit:4;stroke-dasharray:none;stroke-opacity:1;"
     d="  M 10.693576,7.8497046   L 11.880432,7.8497046  "
     id="path33" />
  <path
     style="fill:none;stroke:#000000;stroke-width:0.035605691px;stroke-linecap:round;stroke-linejoin:round;stroke-miterlimit:4;stroke-dasharray:none;stroke-opacity:1;"
     d="  M 10.82413,8.0525085   L 11.749878,8.0525085  "
     id="path35" />
  <path
     style="fill:none;stroke:#000000;stroke-width:0.035605691px;stroke-linecap:round;stroke-linejoin:round;stroke-miterlimit:4;stroke-dasharray:none;stroke-opacity:1;"
     d="  M 10.82413,8.0525085   L 11.749878,8.0525085  "
     id="path37" />
  <path
     style="fill:none;stroke:#000000;stroke-width:0.035605691px;stroke-linecap:round;stroke-linejoin:round;stroke-miterlimit:4;stroke-dasharray:none;stroke-opacity:1;"
     d="  M 10.99029,8.2553124   L 11.583718,8.2553124  "
     id="path39" />
  <text
     xml:space="preserve"
     style="font-size:0.812500px;font-style:normal;font-variant:normal;font-weight:400;font-stretch:Normal;line-height:125.000000%;letter-spacing:0px;word-spacing:0px;fill:#000000;fill-opacity:1;stroke:none;font-family:Arial;text-align:start;text-anchor:start;"
     transform="matrix(1.000000,-0.000000,0.000000,1.000000,16.470425,6.471372)"
     x="0.000000"
     y="0.592313"
     id="text45"><tspan
       x="0.000000"
       y="0.592313"
       id="tspan43"><tspan
         dx="0.000000"
         dy="0.000000"
         style="fill:#000000;font-size:0.812500px;font-style:normal;font-variant:normal;font-weight:400;font-stretch:Normal;font-family:Arial;"
         id="tspan41">USB</tspan></tspan></text>
  <text
     xml:space="preserve"
     style="font-size:0.812500px;font-style:normal;font-variant:normal;font-weight:400;font-stretch:Normal;line-height:120.397620%;letter-spacing:0px;word-spacing:0px;fill:#000000;fill-opacity:1;stroke:none;font-family:Arial;text-align:start;text-anchor:start;"
     transform="matrix(1.000000,-0.000000,0.000000,1.000000,16.470425,6.471372)"
     x="-5.165724"
     y="7.590424"
     id="text55"><tspan
       x="-5.165724"
       y="7.590424"
       id="tspan49"><tspan
         dx="0.000000"
         dy="0.000000"
         style="fill:#000000;font-size:0.812500px;font-style:normal;font-variant:normal;font-weight:400;font-stretch:Normal;font-family:Arial;"
         id="tspan47">USB</tspan></tspan><tspan
       x="-5.465186"
       y="8.568655"
       id="tspan53"><tspan
         dx="0.000000"
         dy="0.000000"
         style="fill:#000000;font-size:0.812500px;font-style:normal;font-variant:normal;font-weight:400;font-stretch:Normal;font-family:Arial;"
         id="tspan51">MGMT</tspan></tspan></text>
  <ellipse
     style="fill:#666666;fill-rule:evenodd;fill-opacity:1;stroke:#000000;stroke-width:0.013725161px;stroke-linecap:round;stroke-linejoin:round;stroke-miterlimit:4;stroke-dasharray:none;stroke-opacity:1;"
     cx="17.307427"
     cy="13.938772"
     rx="0.31567868"
     ry="0.31567868"
     id="ellipse57" />
  <ellipse
     style="fill:none;stroke:#0a0a0a;stroke-width:0.013725161px;stroke-linecap:round;stroke-linejoin:round;stroke-miterlimit:4;stroke-dasharray:none;stroke-opacity:1;"
     cx="17.307427"
     cy="13.938772"
     rx="0.31567868"
     ry="0.31567868"
     id="ellipse59" />
  <text
     xml:space="preserve"
     style="font-size:1.375000px;font-style:normal;font-variant:normal;font-weight:400;font-stretch:Normal;line-height:125.000000%;letter-spacing:0px;word-spacing:0px;fill:#000000;fill-opacity:1;stroke:none;font-family:Arial;text-align:start;text-anchor:start;"
     transform="matrix(1.000000,-0.000000,0.000000,1.000000,27.550529,1.504970)"
     x="0.000000"
     y="1.002375"
     id="text65"><tspan
       x="0.000000"
       y="1.002375"
       id="tspan63"><tspan
         dx="0.000000"
         dy="0.000000"
         style="fill:#000000;font-size:1.375000px;font-style:normal;font-variant:normal;font-weight:400;font-stretch:Normal;font-family:Arial;"
         id="tspan61">13</tspan></tspan></text>
  <text
     xml:space="preserve"
     style="font-size:1.375000px;font-style:normal;font-variant:normal;font-weight:400;font-stretch:Normal;line-height:875.619054%;letter-spacing:0px;word-spacing:0px;fill:#000000;fill-opacity:1;stroke:none;font-family:Arial;text-align:start;text-anchor:start;"
     transform="matrix(1.000000,-0.000000,0.000000,1.000000,27.550529,1.504970)"
     x="6.887632"
     y="1.002375"
     id="text75"><tspan
       x="6.887632"
       y="1.002375"
       id="tspan69"><tspan
         dx="0.000000"
         dy="0.000000"
         style="fill:#000000;font-size:1.375000px;font-style:normal;font-variant:normal;font-weight:400;font-stretch:Normal;font-family:Arial;"
         id="tspan67">11</tspan></tspan><tspan
       x="6.887632"
       y="13.042137"
       id="tspan73"><tspan
         dx="0.000000"
         dy="0.000000"
         style="fill:#000000;font-size:1.375000px;font-style:normal;font-variant:normal;font-weight:400;font-stretch:Normal;font-family:Arial;"
         id="tspan71">12</tspan></tspan></text>
  <text
     xml:space="preserve"
     style="font-size:1.375000px;font-style:normal;font-variant:normal;font-weight:400;font-stretch:Normal;line-height:125.000000%;letter-spacing:0px;word-spacing:0px;fill:#000000;fill-opacity:1;stroke:none;font-family:Arial;text-align:start;text-anchor:start;"
     transform="matrix(1.000000,-0.000000,0.000000,1.000000,27.550529,1.504970)"
     x="0.000000"
     y="13.042137"
     id="text81"><tspan
       x="0.000000"
       y="13.042137"
       id="tspan79"><tspan
         dx="0.000000"
         dy="0.000000"
         style="fill:#000000;font-size:1.375000px;font-style:normal;font-variant:normal;font-weight:400;font-stretch:Normal;font-family:Arial;"
         id="tspan77">14</tspan></tspan></text>
  <text
     xml:space="preserve"
     style="font-size:1.375000px;font-style:normal;font-variant:normal;font-weight:400;font-stretch:Normal;line-height:125.000000%;letter-spacing:0px;word-spacing:0px;fill:#000000;fill-opacity:1;stroke:none;font-family:Arial;text-align:start;text-anchor:start;"
     transform="matrix(1.000000,-0.000000,0.000000,1.000000,27.550529,1.504970)"
     x="12.577415"
     y="1.002375"
     id="text87"><tspan
       x="12.577415"
       y="1.002375"
       id="tspan85"><tspan
         dx="0.000000"
         dy="0.000000"
         style="fill:#000000;font-size:1.375000px;font-style:normal;font-variant:normal;font-weight:400;font-stretch:Normal;font-family:Arial;"
         id="tspan83">9</tspan></tspan></text>
  <text
     xml:space="preserve"
     style="font-size:1.375000px;font-style:normal;font-variant:normal;font-weight:400;font-stretch:Normal;line-height:125.000000%;letter-spacing:0px;word-spacing:0px;fill:#000000;fill-opacity:1;stroke:none;font-family:Arial;text-align:start;text-anchor:start;"
     transform="matrix(1.000000,-0.000000,0.000000,1.000000,27.550529,1.504970)"
     x="18.042602"
     y="1.002375"
     id="text93"><tspan
       x="18.042602"
       y="1.002375"
       id="tspan91"><tspan
         dx="0.000000"
         dy="0.000000"
         style="fill:#000000;font-size:1.375000px;font-style:normal;font-variant:normal;font-weight:400;font-stretch:Normal;font-family:Arial;"
         id="tspan89">7</tspan></tspan></text>
  <text
     xml:space="preserve"
     style="font-size:1.375000px;font-style:normal;font-variant:normal;font-weight:400;font-stretch:Normal;line-height:125.000000%;letter-spacing:0px;word-spacing:0px;fill:#000000;fill-opacity:1;stroke:none;font-family:Arial;text-align:start;text-anchor:start;"
     transform="matrix(1.000000,-0.000000,0.000000,1.000000,27.550529,1.504970)"
     x="23.283192"
     y="1.002375"
     id="text99"><tspan
       x="23.283192"
       y="1.002375"
       id="tspan97"><tspan
         dx="0.000000"
         dy="0.000000"
         style="fill:#000000;font-size:1.375000px;font-style:normal;font-variant:normal;font-weight:400;font-stretch:Normal;font-family:Arial;"
         id="tspan95">5</tspan></tspan></text>
  <text
     xml:space="preserve"
     style="font-size:1.375000px;font-style:normal;font-variant:normal;font-weight:400;font-stretch:Normal;line-height:125.000000%;letter-spacing:0px;word-spacing:0px;fill:#000000;fill-opacity:1;stroke:none;font-family:Arial;text-align:start;text-anchor:start;"
     transform="matrix(1.000000,-0.000000,0.000000,1.000000,27.550529,1.504970)"
     x="28.673513"
     y="1.002375"
     id="text105"><tspan
       x="28.673513"
       y="1.002375"
       id="tspan103"><tspan
         dx="0.000000"
         dy="0.000000"
         style="fill:#000000;font-size:1.375000px;font-style:normal;font-variant:normal;font-weight:400;font-stretch:Normal;font-family:Arial;"
         id="tspan101">3</tspan></tspan></text>
  <text
     xml:space="preserve"
     style="font-size:1.375000px;font-style:normal;font-variant:normal;font-weight:400;font-stretch:Normal;line-height:125.000000%;letter-spacing:0px;word-spacing:0px;fill:#000000;fill-opacity:1;stroke:none;font-family:Arial;text-align:start;text-anchor:start;"
     transform="matrix(1.000000,-0.000000,0.000000,1.000000,27.550529,1.504970)"
     x="33.914102"
     y="1.002375"
     id="text111"><tspan
       x="33.914102"
       y="1.002375"
       id="tspan109"><tspan
         dx="0.000000"
         dy="0.000000"
         style="fill:#000000;font-size:1.375000px;font-style:normal;font-variant:normal;font-weight:400;font-stretch:Normal;font-family:Arial;"
         id="tspan107">1</tspan></tspan></text>
  <text
     xml:space="preserve"
     style="font-size:1.375000px;font-style:normal;font-variant:normal;font-weight:400;font-stretch:Normal;line-height:125.000000%;letter-spacing:0px;word-spacing:0px;fill:#000000;fill-opacity:1;stroke:none;font-family:Arial;text-align:start;text-anchor:start;"
     transform="matrix(1.000000,-0.000000,0.000000,1.000000,27.550529,1.504970)"
     x="40.053079"
     y="1.002375"
     id="text117"><tspan
       x="40.053079"
       y="1.002375"
       id="tspan115"><tspan
         dx="0.000000"
         dy="0.000000"
         style="fill:#000000;font-size:1.375000px;font-style:normal;font-variant:normal;font-weight:400;font-stretch:Normal;font-family:Arial;"
         id="tspan113">WAN 1</tspan></tspan></text>
  <text
     xml:space="preserve"
     style="font-size:1.375000px;font-style:normal;font-variant:normal;font-weight:400;font-stretch:Normal;line-height:125.000000%;letter-spacing:0px;word-spacing:0px;fill:#000000;fill-opacity:1;stroke:none;font-family:Arial;text-align:start;text-anchor:start;"
     transform="matrix(1.000000,-0.000000,0.000000,1.000000,27.550529,1.504970)"
     x="12.128222"
     y="13.042137"
     id="text123"><tspan
       x="12.128222"
       y="13.042137"
       id="tspan121"><tspan
         dx="0.000000"
         dy="0.000000"
         style="fill:#000000;font-size:1.375000px;font-style:normal;font-variant:normal;font-weight:400;font-stretch:Normal;font-family:Arial;"
         id="tspan119">10</tspan></tspan></text>
  <text
     xml:space="preserve"
     style="font-size:1.375000px;font-style:normal;font-variant:normal;font-weight:400;font-stretch:Normal;line-height:125.000000%;letter-spacing:0px;word-spacing:0px;fill:#000000;fill-opacity:1;stroke:none;font-family:Arial;text-align:start;text-anchor:start;"
     transform="matrix(1.000000,-0.000000,0.000000,1.000000,27.550529,1.504970)"
     x="17.967736"
     y="13.042137"
     id="text129"><tspan
       x="17.967736"
       y="13.042137"
       id="tspan127"><tspan
         dx="0.000000"
         dy="0.000000"
         style="fill:#000000;font-size:1.375000px;font-style:normal;font-variant:normal;font-weight:400;font-stretch:Normal;font-family:Arial;"
         id="tspan125">8</tspan></tspan></text>
  <text
     xml:space="preserve"
     style="font-size:1.375000px;font-style:normal;font-variant:normal;font-weight:400;font-stretch:Normal;line-height:125.000000%;letter-spacing:0px;word-spacing:0px;fill:#000000;fill-opacity:1;stroke:none;font-family:Arial;text-align:start;text-anchor:start;"
     transform="matrix(1.000000,-0.000000,0.000000,1.000000,27.550529,1.504970)"
     x="23.358057"
     y="13.042137"
     id="text135"><tspan
       x="23.358057"
       y="13.042137"
       id="tspan133"><tspan
         dx="0.000000"
         dy="0.000000"
         style="fill:#000000;font-size:1.375000px;font-style:normal;font-variant:normal;font-weight:400;font-stretch:Normal;font-family:Arial;"
         id="tspan131">6</tspan></tspan></text>
  <text
     xml:space="preserve"
     style="font-size:1.375000px;font-style:normal;font-variant:normal;font-weight:400;font-stretch:Normal;line-height:125.000000%;letter-spacing:0px;word-spacing:0px;fill:#000000;fill-opacity:1;stroke:none;font-family:Arial;text-align:start;text-anchor:start;"
     transform="matrix(1.000000,-0.000000,0.000000,1.000000,27.550529,1.504970)"
     x="28.748378"
     y="13.042137"
     id="text141"><tspan
       x="28.748378"
       y="13.042137"
       id="tspan139"><tspan
         dx="0.000000"
         dy="0.000000"
         style="fill:#000000;font-size:1.375000px;font-style:normal;font-variant:normal;font-weight:400;font-stretch:Normal;font-family:Arial;"
         id="tspan137">4</tspan></tspan></text>
  <text
     xml:space="preserve"
     style="font-size:1.375000px;font-style:normal;font-variant:normal;font-weight:400;font-stretch:Normal;line-height:125.000000%;letter-spacing:0px;word-spacing:0px;fill:#000000;fill-opacity:1;stroke:none;font-family:Arial;text-align:start;text-anchor:start;"
     transform="matrix(1.000000,-0.000000,0.000000,1.000000,27.550529,1.504970)"
     x="34.138699"
     y="13.042137"
     id="text147"><tspan
       x="34.138699"
       y="13.042137"
       id="tspan145"><tspan
         dx="0.000000"
         dy="0.000000"
         style="fill:#000000;font-size:1.375000px;font-style:normal;font-variant:normal;font-weight:400;font-stretch:Normal;font-family:Arial;"
         id="tspan143">2</tspan></tspan></text>
  <text
     xml:space="preserve"
     style="font-size:1.375000px;font-style:normal;font-variant:normal;font-weight:400;font-stretch:Normal;line-height:125.000000%;letter-spacing:0px;word-spacing:0px;fill:#000000;fill-opacity:1;stroke:none;font-family:Arial;text-align:start;text-anchor:start;"
     transform="matrix(1.000000,-0.000000,0.000000,1.000000,27.550529,1.504970)"
     x="40.053079"
     y="13.042137"
     id="text153"><tspan
       x="40.053079"
       y="13.042137"
       id="tspan151"><tspan
         dx="0.000000"
         dy="0.000000"
         style="fill:#000000;font-size:1.375000px;font-style:normal;font-variant:normal;font-weight:400;font-stretch:Normal;font-family:Arial;"
         id="tspan149">WAN 2</tspan></tspan></text>
  <text
     xml:space="preserve"
     style="font-size:1.062500px;font-style:normal;font-variant:normal;font-weight:400;font-stretch:Normal;line-height:125.000000%;letter-spacing:0px;word-spacing:0px;fill:#000000;fill-opacity:1;stroke:none;font-family:Arial;text-align:start;text-anchor:start;"
     transform="matrix(1.000000,-0.000000,0.000000,1.000000,27.550529,1.504970)"
     x="-23.058595"
     y="13.040070"
     id="text159"><tspan
       x="-23.058595"
       y="13.040070"
       id="tspan157"><tspan
         dx="0.000000"
         dy="0.000000"
         style="fill:#000000;font-size:1.062500px;font-style:normal;font-variant:normal;font-weight:400;font-stretch:Normal;font-family:Arial;"
         id="tspan155">DC+12V</tspan></tspan></text>
  <path
     style="fill:#000000;fill-rule:evenodd;fill-opacity:1;stroke:#161616;stroke-width:0.018570693px;stroke-linecap:round;stroke-linejoin:round;stroke-miterlimit:4;stroke-dasharray:none;stroke-opacity:1;"
     d="  M 67.448758,7.7210349   L 67.448758,4.8813273   L 68.637282,4.8813273   L 68.637282,4.2131609   L 69.12012,4.2131609   L 69.12012,3.5449944   L 70.531493,3.5449944   L 70.531493,4.2131609   L 71.014331,4.2131609   L 71.014331,4.8813273   L 72.202855,4.8813273   L 72.202855,7.7210349   L 67.448758,7.7210349   z "
     id="path161" />
  <path
     style="fill:#000000;fill-rule:evenodd;fill-opacity:1;stroke:#161616;stroke-width:0.018570693px;stroke-linecap:round;stroke-linejoin:round;stroke-miterlimit:4;stroke-dasharray:none;stroke-opacity:1;"
     d="  M 67.448758,8.9460067   L 67.448758,11.785714   L 68.637282,11.785714   L 68.637282,12.453881   L 69.12012,12.453881   L 69.12012,13.122047   L 70.531493,13.122047   L 70.531493,12.453881   L 71.014331,12.453881   L 71.014331,11.785714   L 72.202855,11.785714   L 72.202855,8.9460067   L 67.448758,8.9460067   z "
     id="path163" />
  <path
     style="fill:#000000;fill-rule:evenodd;fill-opacity:1;stroke:#161616;stroke-width:0.018570693px;stroke-linecap:round;stroke-linejoin:round;stroke-miterlimit:4;stroke-dasharray:none;stroke-opacity:1;"
     d="  M 59.593355,7.7210349   L 59.593355,4.8813273   L 60.781879,4.8813273   L 60.781879,4.2131609   L 61.264717,4.2131609   L 61.264717,3.5449944   L 62.67609,3.5449944   L 62.67609,4.2131609   L 63.158928,4.2131609   L 63.158928,4.8813273   L 64.347452,4.8813273   L 64.347452,7.7210349   L 59.593355,7.7210349   z "
     id="path165" />
  <path
     style="fill:#000000;fill-rule:evenodd;fill-opacity:1;stroke:#161616;stroke-width:0.018570693px;stroke-linecap:round;stroke-linejoin:round;stroke-miterlimit:4;stroke-dasharray:none;stroke-opacity:1;"
     d="  M 59.593355,8.9460067   L 59.593355,11.785714   L 60.781879,11.785714   L 60.781879,12.453881   L 61.264717,12.453881   L 61.264717,13.122047   L 62.67609,13.122047   L 62.67609,12.453881   L 63.158928,12.453881   L 63.158928,11.785714   L 64.347452,11.785714   L 64.347452,8.9460067   L 59.593355,8.9460067   z "
     id="path167" />
  <path
     style="fill:#000000;fill-rule:evenodd;fill-opacity:1;stroke:#161616;stroke-width:0.018570693px;stroke-linecap:round;stroke-linejoin:round;stroke-miterlimit:4;stroke-dasharray:none;stroke-opacity:1;"
     d="  M 54.282136,7.7210349   L 54.282136,4.8813273   L 55.470661,4.8813273   L 55.470661,4.2131609   L 55.953499,4.2131609   L 55.953499,3.5449944   L 57.364872,3.5449944   L 57.364872,4.2131609   L 57.84771,4.2131609   L 57.84771,4.8813273   L 59.036234,4.8813273   L 59.036234,7.7210349   L 54.282136,7.7210349   z "
     id="path169" />
  <path
     style="fill:#000000;fill-rule:evenodd;fill-opacity:1;stroke:#161616;stroke-width:0.018570693px;stroke-linecap:round;stroke-linejoin:round;stroke-miterlimit:4;stroke-dasharray:none;stroke-opacity:1;"
     d="  M 54.282136,8.9460067   L 54.282136,11.785714   L 55.470661,11.785714   L 55.470661,12.453881   L 55.953499,12.453881   L 55.953499,13.122047   L 57.364872,13.122047   L 57.364872,12.453881   L 57.84771,12.453881   L 57.84771,11.785714   L 59.036234,11.785714   L 59.036234,8.9460067   L 54.282136,8.9460067   z "
     id="path171" />
  <path
     style="fill:#000000;fill-rule:evenodd;fill-opacity:1;stroke:#161616;stroke-width:0.018570693px;stroke-linecap:round;stroke-linejoin:round;stroke-miterlimit:4;stroke-dasharray:none;stroke-opacity:1;"
     d="  M 48.878065,7.7210349   L 48.878065,4.8813273   L 50.066589,4.8813273   L 50.066589,4.2131609   L 50.549427,4.2131609   L 50.549427,3.5449944   L 51.9608,3.5449944   L 51.9608,4.2131609   L 52.443638,4.2131609   L 52.443638,4.8813273   L 53.632162,4.8813273   L 53.632162,7.7210349   L 48.878065,7.7210349   z "
     id="path173" />
  <path
     style="fill:#000000;fill-rule:evenodd;fill-opacity:1;stroke:#161616;stroke-width:0.018570693px;stroke-linecap:round;stroke-linejoin:round;stroke-miterlimit:4;stroke-dasharray:none;stroke-opacity:1;"
     d="  M 48.878065,8.9460067   L 48.878065,11.785714   L 50.066589,11.785714   L 50.066589,12.453881   L 50.549427,12.453881   L 50.549427,13.122047   L 51.9608,13.122047   L 51.9608,12.453881   L 52.443638,12.453881   L 52.443638,11.785714   L 53.632162,11.785714   L 53.632162,8.9460067   L 48.878065,8.9460067   z "
     id="path175" />
  <path
     style="fill:#000000;fill-rule:evenodd;fill-opacity:1;stroke:#161616;stroke-width:0.018570693px;stroke-linecap:round;stroke-linejoin:round;stroke-miterlimit:4;stroke-dasharray:none;stroke-opacity:1;"
     d="  M 43.566846,7.7210349   L 43.566846,4.8813273   L 44.755371,4.8813273   L 44.755371,4.2131609   L 45.238209,4.2131609   L 45.238209,3.5449944   L 46.649582,3.5449944   L 46.649582,4.2131609   L 47.13242,4.2131609   L 47.13242,4.8813273   L 48.320944,4.8813273   L 48.320944,7.7210349   L 43.566846,7.7210349   z "
     id="path177" />
  <path
     style="fill:#000000;fill-rule:evenodd;fill-opacity:1;stroke:#161616;stroke-width:0.018570693px;stroke-linecap:round;stroke-linejoin:round;stroke-miterlimit:4;stroke-dasharray:none;stroke-opacity:1;"
     d="  M 43.566846,8.9460067   L 43.566846,11.785714   L 44.755371,11.785714   L 44.755371,12.453881   L 45.238209,12.453881   L 45.238209,13.122047   L 46.649582,13.122047   L 46.649582,12.453881   L 47.13242,12.453881   L 47.13242,11.785714   L 48.320944,11.785714   L 48.320944,8.9460067   L 43.566846,8.9460067   z "
     id="path179" />
  <path
     style="fill:#000000;fill-rule:evenodd;fill-opacity:1;stroke:#161616;stroke-width:0.018570693px;stroke-linecap:round;stroke-linejoin:round;stroke-miterlimit:4;stroke-dasharray:none;stroke-opacity:1;"
     d="  M 38.181345,7.7210349   L 38.181345,4.8813273   L 39.36987,4.8813273   L 39.36987,4.2131609   L 39.852708,4.2131609   L 39.852708,3.5449944   L 41.26408,3.5449944   L 41.26408,4.2131609   L 41.746918,4.2131609   L 41.746918,4.8813273   L 42.935443,4.8813273   L 42.935443,7.7210349   L 38.181345,7.7210349   z "
     id="path181" />
  <path
     style="fill:#000000;fill-rule:evenodd;fill-opacity:1;stroke:#161616;stroke-width:0.018570693px;stroke-linecap:round;stroke-linejoin:round;stroke-miterlimit:4;stroke-dasharray:none;stroke-opacity:1;"
     d="  M 38.181345,8.9460067   L 38.181345,11.785714   L 39.36987,11.785714   L 39.36987,12.453881   L 39.852708,12.453881   L 39.852708,13.122047   L 41.26408,13.122047   L 41.26408,12.453881   L 41.746918,12.453881   L 41.746918,11.785714   L 42.935443,11.785714   L 42.935443,8.9460067   L 38.181345,8.9460067   z "
     id="path183" />
  <path
     style="fill:#000000;fill-rule:evenodd;fill-opacity:1;stroke:#161616;stroke-width:0.018570693px;stroke-linecap:round;stroke-linejoin:round;stroke-miterlimit:4;stroke-dasharray:none;stroke-opacity:1;"
     d="  M 32.870127,7.7210349   L 32.870127,4.8813273   L 34.058651,4.8813273   L 34.058651,4.2131609   L 34.541489,4.2131609   L 34.541489,3.5449944   L 35.952862,3.5449944   L 35.952862,4.2131609   L 36.4357,4.2131609   L 36.4357,4.8813273   L 37.624225,4.8813273   L 37.624225,7.7210349   L 32.870127,7.7210349   z "
     id="path185" />
  <path
     style="fill:#000000;fill-rule:evenodd;fill-opacity:1;stroke:#161616;stroke-width:0.018570693px;stroke-linecap:round;stroke-linejoin:round;stroke-miterlimit:4;stroke-dasharray:none;stroke-opacity:1;"
     d="  M 32.870127,8.9460067   L 32.870127,11.785714   L 34.058651,11.785714   L 34.058651,12.453881   L 34.541489,12.453881   L 34.541489,13.122047   L 35.952862,13.122047   L 35.952862,12.453881   L 36.4357,12.453881   L 36.4357,11.785714   L 37.624225,11.785714   L 37.624225,8.9460067   L 32.870127,8.9460067   z "
     id="path187" />
  <path
     style="fill:#000000;fill-rule:evenodd;fill-opacity:1;stroke:#161616;stroke-width:0.018570693px;stroke-linecap:round;stroke-linejoin:round;stroke-miterlimit:4;stroke-dasharray:none;stroke-opacity:1;"
     d="  M 25.9804,7.7210349   L 25.9804,4.8813273   L 27.168924,4.8813273   L 27.168924,4.2131609   L 27.651762,4.2131609   L 27.651762,3.5449944   L 29.063135,3.5449944   L 29.063135,4.2131609   L 29.545973,4.2131609   L 29.545973,4.8813273   L 30.734497,4.8813273   L 30.734497,7.7210349   L 25.9804,7.7210349   z "
     id="path189" />
  <path
     style="fill:#000000;fill-rule:evenodd;fill-opacity:1;stroke:#161616;stroke-width:0.018570693px;stroke-linecap:round;stroke-linejoin:round;stroke-miterlimit:4;stroke-dasharray:none;stroke-opacity:1;"
     d="  M 25.9804,8.9460067   L 25.9804,11.785714   L 27.168924,11.785714   L 27.168924,12.453881   L 27.651762,12.453881   L 27.651762,13.122047   L 29.063135,13.122047   L 29.063135,12.453881   L 29.545973,12.453881   L 29.545973,11.785714   L 30.734497,11.785714   L 30.734497,8.9460067   L 25.9804,8.9460067   z "
     id="path191" />
  <path
     style="fill:#bfbfbf;fill-rule:evenodd;fill-opacity:1;stroke:#000000;stroke-width:0.015644541px;stroke-linecap:round;stroke-linejoin:round;stroke-miterlimit:4;stroke-dasharray:none;stroke-opacity:1;"
     d="  M 15.441163,8.4239582   L 15.394229,8.4239582   L 15.394229,8.4395293   L 15.36294,8.4395293   L 15.347296,8.4551004   L 15.331651,8.4551004   L 15.331651,8.4706715   L 15.316006,8.4706715   L 15.316006,8.4862426   L 15.300362,8.4862426   L 15.300362,8.5018137   L 15.284717,8.5173848   L 15.284717,8.5485269   L 15.269073,8.5485269   L 15.269073,10.074493   L 15.284717,10.074493   L 15.284717,10.105636   L 15.300362,10.121207   L 15.300362,10.136778   L 15.316006,10.136778   L 15.316006,10.152349   L 15.331651,10.152349   L 15.331651,10.16792   L 15.347296,10.16792   L 15.36294,10.183491   L 15.394229,10.183491   L 15.394229,10.199062   L 19.305365,10.199062   L 19.305365,10.183491   L 19.336654,10.183491   L 19.352298,10.16792   L 19.367943,10.16792   L 19.367943,10.152349   L 19.383587,10.152349   L 19.383587,10.136778   L 19.399232,10.136778   L 19.399232,10.121207   L 19.414876,10.105636   L 19.414876,10.074493   L 19.430521,10.074493   L 19.430521,8.5485269   L 19.414876,8.5485269   L 19.414876,8.5173848   L 19.399232,8.5018137   L 19.399232,8.4862426   L 19.383587,8.4862426   L 19.383587,8.4706715   L 19.367943,8.4706715   L 19.367943,8.4551004   L 19.352298,8.4551004   L 19.336654,8.4395293   L 19.305365,8.4395293   L 19.305365,8.4239582   L 15.456807,8.4239582   L 15.441163,8.4239582   z "
     id="path193" />
  <path
     style="fill:#000000;fill-rule:evenodd;fill-opacity:1;stroke:#333333;stroke-width:0.015644541px;stroke-linecap:round;stroke-linejoin:round;stroke-miterlimit:4;stroke-dasharray:none;stroke-opacity:1;"
     d="  M 15.503741,8.564098   L 15.456807,8.564098   L 15.456807,8.5796691   L 15.441163,8.5796691   L 15.441163,8.5952402   L 15.425518,8.5952402   L 15.425518,8.6108113   L 15.409874,8.6108113   L 15.409874,10.012209   L 15.425518,10.02778   L 15.425518,10.043351   L 15.441163,10.043351   L 15.441163,10.058922   L 15.456807,10.058922   L 15.472452,10.074493   L 19.242786,10.074493   L 19.242786,10.058922   L 19.258431,10.058922   L 19.258431,10.043351   L 19.274076,10.043351   L 19.274076,10.02778   L 19.28972,10.012209   L 19.28972,8.6108113   L 19.274076,8.6108113   L 19.274076,8.5952402   L 19.258431,8.5796691   L 19.242786,8.5796691   L 19.242786,8.564098   L 15.519386,8.564098   L 15.503741,8.564098   z "
     id="path195" />
  <path
     style="fill:#e2e2cc;fill-rule:evenodd;fill-opacity:1;stroke:#000000;stroke-width:0.015644541px;stroke-linecap:round;stroke-linejoin:round;stroke-miterlimit:4;stroke-dasharray:none;stroke-opacity:1;"
     d="  M 16.332902,9.3426524   L 15.988722,9.3426524   L 15.988722,9.264797   L 16.332902,9.264797   L 16.332902,9.3426524   z "
     id="path197" />
  <path
     style="fill:#e2e2cc;fill-rule:evenodd;fill-opacity:1;stroke:#000000;stroke-width:0.015644541px;stroke-linecap:round;stroke-linejoin:round;stroke-miterlimit:4;stroke-dasharray:none;stroke-opacity:1;"
     d="  M 17.115129,9.3426524   L 16.770949,9.3426524   L 16.770949,9.264797   L 17.115129,9.264797   L 17.115129,9.3426524   z "
     id="path199" />
  <path
     style="fill:#e2e2cc;fill-rule:evenodd;fill-opacity:1;stroke:#000000;stroke-width:0.015644541px;stroke-linecap:round;stroke-linejoin:round;stroke-miterlimit:4;stroke-dasharray:none;stroke-opacity:1;"
     d="  M 17.881711,9.3426524   L 17.537531,9.3426524   L 17.537531,9.264797   L 17.881711,9.264797   L 17.881711,9.3426524   z "
     id="path201" />
  <path
     style="fill:#e2e2cc;fill-rule:evenodd;fill-opacity:1;stroke:#000000;stroke-width:0.015644541px;stroke-linecap:round;stroke-linejoin:round;stroke-miterlimit:4;stroke-dasharray:none;stroke-opacity:1;"
     d="  M 18.679583,9.3426524   L 18.335403,9.3426524   L 18.335403,9.264797   L 18.679583,9.264797   L 18.679583,9.3426524   z "
     id="path203" />
  <path
     style="fill:#7f7f7f;fill-rule:evenodd;fill-opacity:1;stroke:#000000;stroke-width:0.015644541px;stroke-linecap:round;stroke-linejoin:round;stroke-miterlimit:4;stroke-dasharray:none;stroke-opacity:1;"
     d="  M 19.055052,8.8599487   L 19.055052,8.8288065   L 19.039407,8.7976643   L 19.008118,8.7820932   L 15.691475,8.7820932   L 15.660186,8.7976643   L 15.644542,8.8288065   L 15.644542,9.2180837   L 15.660186,9.2492259   L 15.691475,9.264797   L 19.008118,9.264797   L 19.039407,9.2492259   L 19.055052,9.2180837   L 19.055052,9.1869415   L 19.055052,8.8599487   z "
     id="path205" />
  <path
     style="fill:#999999;fill-rule:evenodd;fill-opacity:1;stroke:#999999;stroke-width:0.015644541px;stroke-linecap:round;stroke-linejoin:round;stroke-miterlimit:4;stroke-dasharray:none;stroke-opacity:1;"
     d="  M 18.929896,9.0156596   L 18.914251,8.9533752   L 18.851673,8.8910909   L 18.789095,8.8755198   L 15.910499,8.8755198   L 15.847921,8.8910909   L 15.785343,8.9533752   L 15.769698,9.0156596   L 15.785343,9.0779439   L 15.847921,9.1402283   L 15.910499,9.1557993   L 18.789095,9.1557993   L 18.851673,9.1402283   L 18.914251,9.0779439   L 18.929896,9.0156596   z "
     id="path207" />
  <path
     style="fill:#bfbfbf;fill-rule:evenodd;fill-opacity:1;stroke:#000000;stroke-width:0.015644541px;stroke-linecap:round;stroke-linejoin:round;stroke-miterlimit:4;stroke-dasharray:none;stroke-opacity:1;"
     d="  M 15.441163,11.071043   L 15.394229,11.071043   L 15.394229,11.086614   L 15.36294,11.086614   L 15.347296,11.102185   L 15.331651,11.102185   L 15.331651,11.117756   L 15.316006,11.117756   L 15.316006,11.133327   L 15.300362,11.133327   L 15.300362,11.148899   L 15.284717,11.16447   L 15.284717,11.195612   L 15.269073,11.195612   L 15.269073,12.721578   L 15.284717,12.721578   L 15.284717,12.752721   L 15.300362,12.768292   L 15.300362,12.783863   L 15.316006,12.783863   L 15.316006,12.799434   L 15.331651,12.799434   L 15.331651,12.815005   L 15.347296,12.815005   L 15.36294,12.830576   L 15.394229,12.830576   L 15.394229,12.846147   L 19.305365,12.846147   L 19.305365,12.830576   L 19.336654,12.830576   L 19.352298,12.815005   L 19.367943,12.815005   L 19.367943,12.799434   L 19.383587,12.799434   L 19.383587,12.783863   L 19.399232,12.783863   L 19.399232,12.768292   L 19.414876,12.752721   L 19.414876,12.721578   L 19.430521,12.721578   L 19.430521,11.195612   L 19.414876,11.195612   L 19.414876,11.16447   L 19.399232,11.148899   L 19.399232,11.133327   L 19.383587,11.133327   L 19.383587,11.117756   L 19.367943,11.117756   L 19.367943,11.102185   L 19.352298,11.102185   L 19.336654,11.086614   L 19.305365,11.086614   L 19.305365,11.071043   L 15.456807,11.071043   L 15.441163,11.071043   z "
     id="path209" />
  <path
     style="fill:#000000;fill-rule:evenodd;fill-opacity:1;stroke:#333333;stroke-width:0.015644541px;stroke-linecap:round;stroke-linejoin:round;stroke-miterlimit:4;stroke-dasharray:none;stroke-opacity:1;"
     d="  M 15.503741,11.211183   L 15.456807,11.211183   L 15.456807,11.226754   L 15.441163,11.226754   L 15.441163,11.242325   L 15.425518,11.242325   L 15.425518,11.257896   L 15.409874,11.257896   L 15.409874,12.659294   L 15.425518,12.674865   L 15.425518,12.690436   L 15.441163,12.690436   L 15.441163,12.706007   L 15.456807,12.706007   L 15.472452,12.721578   L 19.242786,12.721578   L 19.242786,12.706007   L 19.258431,12.706007   L 19.258431,12.690436   L 19.274076,12.690436   L 19.274076,12.674865   L 19.28972,12.659294   L 19.28972,11.257896   L 19.274076,11.257896   L 19.274076,11.242325   L 19.258431,11.226754   L 19.242786,11.226754   L 19.242786,11.211183   L 15.519386,11.211183   L 15.503741,11.211183   z "
     id="path211" />
  <path
     style="fill:#e2e2cc;fill-rule:evenodd;fill-opacity:1;stroke:#000000;stroke-width:0.015644541px;stroke-linecap:round;stroke-linejoin:round;stroke-miterlimit:4;stroke-dasharray:none;stroke-opacity:1;"
     d="  M 16.332902,11.989737   L 15.988722,11.989737   L 15.988722,11.911882   L 16.332902,11.911882   L 16.332902,11.989737   z "
     id="path213" />
  <path
     style="fill:#e2e2cc;fill-rule:evenodd;fill-opacity:1;stroke:#000000;stroke-width:0.015644541px;stroke-linecap:round;stroke-linejoin:round;stroke-miterlimit:4;stroke-dasharray:none;stroke-opacity:1;"
     d="  M 17.115129,11.989737   L 16.770949,11.989737   L 16.770949,11.911882   L 17.115129,11.911882   L 17.115129,11.989737   z "
     id="path215" />
  <path
     style="fill:#e2e2cc;fill-rule:evenodd;fill-opacity:1;stroke:#000000;stroke-width:0.015644541px;stroke-linecap:round;stroke-linejoin:round;stroke-miterlimit:4;stroke-dasharray:none;stroke-opacity:1;"
     d="  M 17.881711,11.989737   L 17.537531,11.989737   L 17.537531,11.911882   L 17.881711,11.911882   L 17.881711,11.989737   z "
     id="path217" />
  <path
     style="fill:#e2e2cc;fill-rule:evenodd;fill-opacity:1;stroke:#000000;stroke-width:0.015644541px;stroke-linecap:round;stroke-linejoin:round;stroke-miterlimit:4;stroke-dasharray:none;stroke-opacity:1;"
     d="  M 18.679583,11.989737   L 18.335403,11.989737   L 18.335403,11.911882   L 18.679583,11.911882   L 18.679583,11.989737   z "
     id="path219" />
  <path
     style="fill:#7f7f7f;fill-rule:evenodd;fill-opacity:1;stroke:#000000;stroke-width:0.015644541px;stroke-linecap:round;stroke-linejoin:round;stroke-miterlimit:4;stroke-dasharray:none;stroke-opacity:1;"
     d="  M 19.055052,11.507034   L 19.055052,11.475891   L 19.039407,11.444749   L 19.008118,11.429178   L 15.691475,11.429178   L 15.660186,11.444749   L 15.644542,11.475891   L 15.644542,11.865169   L 15.660186,11.896311   L 15.691475,11.911882   L 19.008118,11.911882   L 19.039407,11.896311   L 19.055052,11.865169   L 19.055052,11.834026   L 19.055052,11.507034   z "
     id="path221" />
  <path
     style="fill:#999999;fill-rule:evenodd;fill-opacity:1;stroke:#999999;stroke-width:0.015644541px;stroke-linecap:round;stroke-linejoin:round;stroke-miterlimit:4;stroke-dasharray:none;stroke-opacity:1;"
     d="  M 18.929896,11.662744   L 18.914251,11.60046   L 18.851673,11.538176   L 18.789095,11.522605   L 15.910499,11.522605   L 15.847921,11.538176   L 15.785343,11.60046   L 15.769698,11.662744   L 15.785343,11.725029   L 15.847921,11.787313   L 15.910499,11.802884   L 18.789095,11.802884   L 18.851673,11.787313   L 18.914251,11.725029   L 18.929896,11.662744   z "
     id="path223" />
  <path
     style="fill:#bfbfbf;fill-rule:evenodd;fill-opacity:1;stroke:#7f7f7f;stroke-width:0.027284855px;stroke-linecap:round;stroke-linejoin:round;stroke-miterlimit:4;stroke-dasharray:none;stroke-opacity:1;"
     d="  M 10.641093,11.748784   L 10.641093,11.663648   L 10.668378,11.663648   L 10.668378,11.60689   L 10.695663,11.578512   L 10.695663,11.550133   L 10.722948,11.550133   L 10.722948,11.521754   L 10.750233,11.521754   L 10.750233,11.493376   L 10.777518,11.493376   L 10.804802,11.464997   L 10.832087,11.464997   L 10.859372,11.436618   L 13.587858,11.436618   L 13.615143,11.464997   L 13.642427,11.464997   L 13.669712,11.493376   L 13.696997,11.493376   L 13.696997,11.521754   L 13.724282,11.521754   L 13.724282,11.550133   L 13.751567,11.550133   L 13.751567,11.578512   L 13.778852,11.60689   L 13.778852,11.663648   L 13.806137,11.663648   L 13.806137,12.259601   L 13.587858,12.48663   L 13.587858,12.94069   L 13.560573,12.969068   L 13.560573,12.997447   L 13.533288,12.997447   L 13.533288,13.025826   L 13.506003,13.025826   L 13.506003,13.054204   L 13.478718,13.054204   L 13.478718,13.082583   L 13.424149,13.082583   L 13.424149,13.110962   L 11.023081,13.110962   L 11.023081,13.082583   L 10.968512,13.082583   L 10.968512,13.054204   L 10.941227,13.054204   L 10.941227,13.025826   L 10.913942,13.025826   L 10.913942,12.997447   L 10.886657,12.997447   L 10.886657,12.969068   L 10.859372,12.94069   L 10.859372,12.48663   L 10.641093,12.259601   L 10.641093,11.777163   L 10.641093,11.748784   z "
     id="path225" />
  <path
     style="fill:#161616;fill-rule:evenodd;fill-opacity:1;stroke:#000000;stroke-width:0.027284855px;stroke-linecap:round;stroke-linejoin:round;stroke-miterlimit:4;stroke-dasharray:none;stroke-opacity:1;"
     d="  M 13.696997,12.231222   L 13.478718,12.458252   L 13.478718,12.883932   L 13.451433,12.912311   L 13.451433,12.94069   L 13.424149,12.94069   L 13.396864,12.969068   L 13.369579,12.969068   L 13.342294,12.997447   L 11.104936,12.997447   L 11.104936,12.969068   L 11.050366,12.969068   L 11.023081,12.94069   L 10.995796,12.94069   L 10.995796,12.912311   L 10.968512,12.883932   L 10.968512,12.458252   L 10.750233,12.231222   L 10.750233,11.748784   L 10.777518,11.748784   L 10.777518,11.692027   L 10.804802,11.692027   L 10.804802,11.635269   L 10.832087,11.635269   L 10.832087,11.60689   L 10.886657,11.60689   L 10.886657,11.578512   L 10.913942,11.578512   L 10.941227,11.550133   L 13.506003,11.550133   L 13.533288,11.578512   L 13.560573,11.578512   L 13.560573,11.60689   L 13.615143,11.60689   L 13.615143,11.635269   L 13.642427,11.635269   L 13.642427,11.692027   L 13.669712,11.692027   L 13.669712,11.748784   L 13.696997,11.748784   L 13.696997,12.202843   L 13.696997,12.231222   z "
     id="path227" />
  <path
     style="fill:#cccccc;fill-rule:evenodd;fill-opacity:1;stroke:#000000;stroke-width:0.027284855px;stroke-linecap:round;stroke-linejoin:round;stroke-miterlimit:4;stroke-dasharray:none;stroke-opacity:1;"
     d="  M 13.287724,12.344737   L 13.287724,12.287979   L 13.260439,12.231222   L 13.20587,12.202843   L 11.268645,12.202843   L 11.214075,12.231222   L 11.18679,12.287979   L 11.18679,12.742039   L 11.214075,12.798796   L 11.268645,12.827175   L 13.20587,12.827175   L 13.260439,12.798796   L 13.287724,12.742039   L 13.287724,12.685281   L 13.287724,12.344737   z "
     id="path229" />
  <path
     style="fill:#d6d6b1;fill-rule:evenodd;fill-opacity:1;stroke:#000000;stroke-width:0.027284855px;stroke-linecap:round;stroke-linejoin:round;stroke-miterlimit:4;stroke-dasharray:none;stroke-opacity:1;"
     d="  M 11.677918,12.117707   L 11.405069,12.117707   L 11.405069,12.202843   L 11.677918,12.202843   L 11.677918,12.117707   z "
     id="path231" />
  <path
     style="fill:#d6d6b1;fill-rule:evenodd;fill-opacity:1;stroke:#000000;stroke-width:0.027284855px;stroke-linecap:round;stroke-linejoin:round;stroke-miterlimit:4;stroke-dasharray:none;stroke-opacity:1;"
     d="  M 12.114476,12.117707   L 11.841627,12.117707   L 11.841627,12.202843   L 12.114476,12.202843   L 12.114476,12.117707   z "
     id="path233" />
  <path
     style="fill:#d6d6b1;fill-rule:evenodd;fill-opacity:1;stroke:#000000;stroke-width:0.027284855px;stroke-linecap:round;stroke-linejoin:round;stroke-miterlimit:4;stroke-dasharray:none;stroke-opacity:1;"
     d="  M 12.578318,12.117707   L 12.305469,12.117707   L 12.305469,12.202843   L 12.578318,12.202843   L 12.578318,12.117707   z "
     id="path235" />
  <path
     style="fill:#d6d6b1;fill-rule:evenodd;fill-opacity:1;stroke:#000000;stroke-width:0.027284855px;stroke-linecap:round;stroke-linejoin:round;stroke-miterlimit:4;stroke-dasharray:none;stroke-opacity:1;"
     d="  M 13.014876,12.117707   L 12.742027,12.117707   L 12.742027,12.202843   L 13.014876,12.202843   L 13.014876,12.117707   z "
     id="path237" />
  <ellipse
     style="fill:#666666;fill-rule:evenodd;fill-opacity:1;stroke:#000000;stroke-width:0.047840923px;stroke-linecap:round;stroke-linejoin:round;stroke-miterlimit:4;stroke-dasharray:none;stroke-opacity:1;"
     cx="11.170856"
     cy="3.8691002"
     rx="1.602671"
     ry="1.602671"
     id="ellipse239" />
  <ellipse
     style="fill:none;stroke:#000000;stroke-width:0.047840923px;stroke-linecap:round;stroke-linejoin:round;stroke-miterlimit:4;stroke-dasharray:none;stroke-opacity:1;"
     cx="11.170856"
     cy="3.8691002"
     rx="1.602671"
     ry="1.602671"
     id="ellipse241" />
  <ellipse
     style="fill:#cccc9b;fill-rule:evenodd;fill-opacity:1;stroke:#000000;stroke-width:0.047840923px;stroke-linecap:round;stroke-linejoin:round;stroke-miterlimit:4;stroke-dasharray:none;stroke-opacity:1;"
     cx="11.170856"
     cy="3.8691002"
     rx="1.4591482"
     ry="1.4591482"
     id="ellipse243" />
  <ellipse
     style="fill:none;stroke:#cccc9b;stroke-width:0.047840923px;stroke-linecap:round;stroke-linejoin:round;stroke-miterlimit:4;stroke-dasharray:none;stroke-opacity:1;"
     cx="11.170856"
     cy="3.8691002"
     rx="1.4591482"
     ry="1.4591482"
     id="ellipse245" />
  <path
     style="fill:#494949;fill-rule:evenodd;fill-opacity:1;stroke:#161616;stroke-width:0.047840923px;stroke-linecap:round;stroke-linejoin:round;stroke-miterlimit:4;stroke-dasharray:none;stroke-opacity:1;"
     d="  M 10.046594,3.7008784   L 9.9987532,3.7008784   L 9.9509122,3.7489418   L 9.9509122,3.7970051   L 9.9030713,3.7970051   L 9.9030713,4.0853853   L 9.9509122,4.0853853   L 9.9509122,4.1334486   L 9.9987532,4.181512   L 11.003413,4.181512   L 11.003413,5.2389058   L 11.051253,5.2389058   L 11.051253,5.2869692   L 11.099094,5.2869692   L 11.099094,5.3350325   L 11.38614,5.3350325   L 11.38614,5.2869692   L 11.433981,5.2869692   L 11.433981,5.2389058   L 11.481822,5.2389058   L 11.481822,4.181512   L 12.534322,4.181512   L 12.534322,4.1334486   L 12.582163,4.1334486   L 12.582163,4.0853853   L 12.630004,4.0853853   L 12.630004,3.7970051   L 12.582163,3.7970051   L 12.582163,3.7489418   L 12.534322,3.7489418   L 12.534322,3.7008784   L 11.481822,3.7008784   L 11.481822,2.6915479   L 11.433981,2.6434846   L 11.38614,2.6434846   L 11.38614,2.5954212   L 11.099094,2.5954212   L 11.099094,2.6434846   L 11.051253,2.6434846   L 11.003413,2.6915479   L 11.003413,3.7008784   L 10.094435,3.7008784   L 10.046594,3.7008784   z "
     id="path247" />
  <path
     style="fill:none;stroke:#bfbfbf;stroke-width:0.047840923px;stroke-linecap:round;stroke-linejoin:round;stroke-miterlimit:4;stroke-dasharray:none;stroke-opacity:1;"
     d="  M 9.8552304,3.8450685   L 9.8552304,4.0853853   L 9.9030713,4.1334486   L 9.9509122,4.1334486   L 9.9509122,4.181512   L 11.003413,4.181512   L 11.003413,5.2869692   L 11.051253,5.3350325   L 11.099094,5.3350325   L 11.099094,5.3830959   L 11.242617,5.3830959   L 11.290458,5.3830959  "
     id="path249" />
  <path
     style="fill:none;stroke:#bfbfbf;stroke-width:0.047840923px;stroke-linecap:round;stroke-linejoin:round;stroke-miterlimit:4;stroke-dasharray:none;stroke-opacity:1;"
     d="  M 11.003413,2.6915479   L 11.003413,3.6528151   L 11.003413,3.7008784  "
     id="path251" />
  <path
     style="fill:#000000;fill-rule:evenodd;fill-opacity:1;stroke:#000000;stroke-width:0.018454215px;stroke-linecap:round;stroke-linejoin:round;stroke-miterlimit:4;stroke-dasharray:none;stroke-opacity:1;"
     d="  M 7.8984036,6.771689   L 7.8984036,13.131839   L 5.3148136,13.131839   L 5.3148136,6.771689   L 5.8130774,6.771689   L 5.8130774,7.2767597   L 7.4001398,7.2767597   L 7.4001398,6.771689   L 7.8984036,6.771689   z "
     id="path253" />
  <path
     style="fill:#efefef;fill-rule:evenodd;fill-opacity:1;stroke:#000000;stroke-width:0.018454215px;stroke-linecap:round;stroke-linejoin:round;stroke-miterlimit:4;stroke-dasharray:none;stroke-opacity:1;"
     d="  M 7.8245867,7.4638229   L 5.3886305,7.4638229   L 5.3886305,13.038307   L 7.8245867,13.038307   L 7.8245867,7.4638229   z "
     id="path255" />
  <path
     style="fill:#000000;fill-rule:evenodd;fill-opacity:1;stroke:#000000;stroke-width:0.018454215px;stroke-linecap:round;stroke-linejoin:round;stroke-miterlimit:4;stroke-dasharray:none;stroke-opacity:1;"
     d="  M 7.5662277,10.475541   L 5.6469895,10.475541   L 5.6469895,12.420999   L 7.5662277,12.420999   L 7.5662277,10.475541   z "
     id="path257" />
  <ellipse
     style="fill:#bfbfbf;fill-rule:evenodd;fill-opacity:1;stroke:#000000;stroke-width:0.018454215px;stroke-linecap:round;stroke-linejoin:round;stroke-miterlimit:4;stroke-dasharray:none;stroke-opacity:1;"
     cx="6.5235646"
     cy="11.373444"
     rx="0.15686082"
     ry="0.16608793"
     id="ellipse259" />
  <ellipse
     style="fill:none;stroke:#000000;stroke-width:0.018454215px;stroke-linecap:round;stroke-linejoin:round;stroke-miterlimit:4;stroke-dasharray:none;stroke-opacity:1;"
     cx="6.5235646"
     cy="11.373444"
     rx="0.15686082"
     ry="0.16608793"
     id="ellipse261" />
  <path
     style="fill:#000000;fill-rule:evenodd;fill-opacity:1;stroke:#000000;stroke-width:0.018454215px;stroke-linecap:round;stroke-linejoin:round;stroke-miterlimit:4;stroke-dasharray:none;stroke-opacity:1;"
     d="  M 7.5662277,8.1185442   L 5.6469895,8.1185442   L 5.6469895,9.5776374   L 6.126799,10.064002   L 7.1233266,10.064002   L 7.5662277,9.6150501   L 7.5662277,8.1185442   z "
     id="path263" />
  <ellipse
     style="fill:#bfbfbf;fill-rule:evenodd;fill-opacity:1;stroke:#000000;stroke-width:0.018454215px;stroke-linecap:round;stroke-linejoin:round;stroke-miterlimit:4;stroke-dasharray:none;stroke-opacity:1;"
     cx="6.5235646"
     cy="9.0070946"
     rx="0.15686082"
     ry="0.15686082"
     id="ellipse265" />
  <ellipse
     style="fill:none;stroke:#000000;stroke-width:0.018454215px;stroke-linecap:round;stroke-linejoin:round;stroke-miterlimit:4;stroke-dasharray:none;stroke-opacity:1;"
     cx="6.5235646"
     cy="9.0070946"
     rx="0.15686082"
     ry="0.15686082"
     id="ellipse267" />
  <path
     style="fill:none;stroke:none;"
     d="  M 0.48662619,8.0603314   L 0,8.0603314   L 0,8.5520292   L 0.48662619,8.5520292   L 0.48662619,8.0603314  "
     id="path269" />
  <path
     style="fill:none;stroke:none;"
     d="  M 88.229072,8.0603314   L 87.742446,8.0603314   L 87.742446,8.5520292   L 88.229072,8.5520292   L 88.229072,8.0603314  "
     id="path271" />
</svg>
