<?xml version="1.0" encoding="UTF-8" standalone="no"?>
<svg
   version="1.0"
   width="21.540001mm"
   height="3.76mm"
   id="svg327"
   xmlns="http://www.w3.org/2000/svg"
   xmlns:svg="http://www.w3.org/2000/svg">
  <defs
     id="defs3">
    <pattern
       id="EMFhbasepattern"
       patternUnits="userSpaceOnUse"
       width="6"
       height="6"
       x="0"
       y="0" />
  </defs>
  <path
     style="fill:#ededed;fill-rule:evenodd;fill-opacity:1;stroke:#000000;stroke-width:0.093540728px;stroke-linecap:round;stroke-linejoin:round;stroke-miterlimit:4;stroke-dasharray:none;stroke-opacity:1;"
     d="  M 3.4626019,0.6733515   M 2.7700815,1.8380676   M 2.9946827,2.0564519   M 2.9946827,2.0564519   M 3.2380007,2.2930348   M 81.155937,0.41304782   L 81.155937,0.33794822   L 81.11852,0.26284861   L 81.099812,0.20652391   L 80.987563,0.093874505   L 80.931439,0.075099604   L 80.856606,0.037549802   L 0.33674663,0.037549802   L 0.26191404,0.075099604   L 0.2057896,0.093874505   L 0.093540729,0.20652391   L 0.074832583,0.26284861   L 0.037416292,0.33794822   L 0.037416292,13.855877   L 0.074832583,13.930977   L 0.093540729,13.987301   L 0.2057896,14.099951   L 0.26191404,14.118726   L 0.33674663,14.156275   L 80.856606,14.156275   L 80.931439,14.118726   L 80.987563,14.099951   L 81.099812,13.987301   L 81.11852,13.930977   L 81.155937,13.855877   L 81.155937,13.780777   L 81.155937,0.41304782   z "
     id="path5" />
  <ellipse
     style="fill:#bfbfbf;fill-rule:evenodd;fill-opacity:1;stroke:#000000;stroke-width:0.018708145px;stroke-linecap:round;stroke-linejoin:round;stroke-miterlimit:4;stroke-dasharray:none;stroke-opacity:1;"
     cx="79.462849"
     cy="3.2480579"
     rx="0.81380434"
     ry="0.82315842"
     id="ellipse7" />
  <ellipse
     style="fill:none;stroke:#000000;stroke-width:0.018708145px;stroke-linecap:round;stroke-linejoin:round;stroke-miterlimit:4;stroke-dasharray:none;stroke-opacity:1;"
     cx="79.462849"
     cy="3.2480579"
     rx="0.81380434"
     ry="0.82315842"
     id="ellipse9" />
  <ellipse
     style="fill:#dddddd;fill-rule:evenodd;fill-opacity:1;stroke:#000000;stroke-width:0.018708145px;stroke-linecap:round;stroke-linejoin:round;stroke-miterlimit:4;stroke-dasharray:none;stroke-opacity:1;"
     cx="79.462849"
     cy="3.2386704"
     rx="0.72026361"
     ry="0.72026361"
     id="ellipse11" />
  <ellipse
     style="fill:none;stroke:#7f7f7f;stroke-width:0.018708145px;stroke-linecap:round;stroke-linejoin:round;stroke-miterlimit:4;stroke-dasharray:none;stroke-opacity:1;"
     cx="79.462849"
     cy="3.2386704"
     rx="0.72026361"
     ry="0.72026361"
     id="ellipse13" />
  <path
     style="fill:#494949;fill-rule:evenodd;fill-opacity:1;stroke:#161616;stroke-width:0.018708145px;stroke-linecap:round;stroke-linejoin:round;stroke-miterlimit:4;stroke-dasharray:none;stroke-opacity:1;"
     d="  M 78.910959,3.1917332   L 78.873543,3.1917332   L 78.873543,3.2105081   L 78.854835,3.2105081   L 78.854835,3.229283   L 78.836127,3.2480579   L 78.836127,3.417032   L 78.854835,3.417032   L 78.854835,3.4358069   L 78.873543,3.4358069   L 78.873543,3.4545818   L 79.416079,3.4545818   L 79.416079,3.9990539   L 79.434787,3.9990539   L 79.434787,4.0366037   L 79.453495,4.0366037   L 79.453495,4.0553786   L 79.472204,4.0553786   L 79.490912,4.0741535   L 79.621869,4.0741535   L 79.621869,4.0553786   L 79.640577,4.0553786   L 79.640577,4.0366037   L 79.659285,4.0366037   L 79.659285,4.0178288   L 79.677993,3.9990539   L 79.677993,3.4545818   L 80.220529,3.4545818   L 80.239238,3.4358069   L 80.257946,3.4358069   L 80.257946,3.417032   L 80.276654,3.417032   L 80.276654,3.3982571   L 80.295362,3.3982571   L 80.295362,3.2668328   L 80.276654,3.2480579   L 80.276654,3.229283   L 80.257946,3.229283   L 80.257946,3.2105081   L 80.220529,3.2105081   L 80.220529,3.1917332   L 79.677993,3.1917332   L 79.677993,2.647261   L 79.659285,2.647261   L 79.659285,2.6284861   L 79.640577,2.6284861   L 79.640577,2.6097112   L 79.472204,2.6097112   L 79.453495,2.6284861   L 79.434787,2.6284861   L 79.434787,2.647261   L 79.416079,2.647261   L 79.416079,3.1917332   L 78.929667,3.1917332   L 78.910959,3.1917332   z "
     id="path15" />
  <path
     style="fill:none;stroke:#bfbfbf;stroke-width:0.018708145px;stroke-linecap:round;stroke-linejoin:round;stroke-miterlimit:4;stroke-dasharray:none;stroke-opacity:1;"
     d="  M 78.79871,3.2668328   L 78.79871,3.417032   L 78.817418,3.417032   L 78.836127,3.4358069   L 79.434787,3.4358069   L 79.434787,4.0553786   L 79.453495,4.0553786   L 79.453495,4.0741535   L 79.472204,4.0741535   L 79.472204,4.0929284   L 79.565744,4.0929284   L 79.584452,4.0929284  "
     id="path17" />
  <path
     style="fill:none;stroke:#bfbfbf;stroke-width:0.018708145px;stroke-linecap:round;stroke-linejoin:round;stroke-miterlimit:4;stroke-dasharray:none;stroke-opacity:1;"
     d="  M 79.416079,2.6660359   L 79.416079,3.1541834   L 79.416079,3.1917332  "
     id="path19" />
  <path
     style="fill:#efefef;fill-rule:evenodd;fill-opacity:1;stroke:#000000;stroke-width:0.093540728px;stroke-linecap:round;stroke-linejoin:round;stroke-miterlimit:4;stroke-dasharray:none;stroke-opacity:1;"
     d="  M 0.41157921,0.037549802   L 0.33674663,0.037549802   L 0.31803848,0.056324703   L 0.28062219,0.056324703   L 0.26191404,0.075099604   L 0.22449775,0.075099604   L 0.22449775,0.093874505   L 0.2057896,0.093874505   L 0.093540729,0.20652391   L 0.093540729,0.22529881   L 0.074832583,0.22529881   L 0.074832583,0.26284861   L 0.056124438,0.28162351   L 0.056124438,0.31917332   L 0.037416292,0.33794822   L 0.037416292,1.2579184   L 0.31803848,1.2579184   L 0.31803848,0.48814742   L 0.33674663,0.46937252   L 0.33674663,0.43182272   L 0.35545477,0.41304782   L 0.35545477,0.37549802   L 0.37416292,0.37549802   L 0.37416292,0.35672312   L 0.48641179,0.24407371   L 0.50511994,0.24407371   L 0.50511994,0.22529881   L 0.54253623,0.22529881   L 0.56124438,0.20652391   L 0.59866067,0.20652391   L 0.61736881,0.18774901   L 80.575984,0.18774901   L 80.594692,0.20652391   L 80.632109,0.20652391   L 80.650817,0.22529881   L 80.688233,0.22529881   L 80.688233,0.24407371   L 80.706941,0.24407371   L 80.81919,0.35672312   L 80.81919,0.37549802   L 80.837898,0.37549802   L 80.837898,0.41304782   L 80.856606,0.43182272   L 80.856606,0.46937252   L 80.875314,0.48814742   L 80.875314,1.2579184   L 81.155937,1.2579184   L 81.155937,0.33794822   L 81.137229,0.31917332   L 81.137229,0.28162351   L 81.11852,0.26284861   L 81.11852,0.22529881   L 81.099812,0.22529881   L 81.099812,0.20652391   L 80.987563,0.093874505   L 80.968855,0.093874505   L 80.968855,0.075099604   L 80.931439,0.075099604   L 80.912731,0.056324703   L 80.875314,0.056324703   L 80.856606,0.037549802   L 0.63607696,0.037549802   L 0.41157921,0.037549802   z "
     id="path21" />
  <path
     style="fill:#efefef;fill-rule:evenodd;fill-opacity:1;stroke:#000000;stroke-width:0.093540728px;stroke-linecap:round;stroke-linejoin:round;stroke-miterlimit:4;stroke-dasharray:none;stroke-opacity:1;"
     d="  M 0.41157921,14.156275   L 0.33674663,14.156275   L 0.31803848,14.1375   L 0.28062219,14.1375   L 0.26191404,14.118726   L 0.22449775,14.118726   L 0.22449775,14.099951   L 0.2057896,14.099951   L 0.093540729,13.987301   L 0.093540729,13.968526   L 0.074832583,13.968526   L 0.074832583,13.930977   L 0.056124438,13.912202   L 0.056124438,13.874652   L 0.037416292,13.855877   L 0.037416292,12.935907   L 0.31803848,12.935907   L 0.31803848,13.705678   L 0.33674663,13.724453   L 0.33674663,13.762002   L 0.35545477,13.780777   L 0.35545477,13.818327   L 0.37416292,13.818327   L 0.37416292,13.837102   L 0.48641179,13.949751   L 0.50511994,13.949751   L 0.50511994,13.968526   L 0.54253623,13.968526   L 0.56124438,13.987301   L 0.59866067,13.987301   L 0.61736881,14.006076   L 80.575984,14.006076   L 80.594692,13.987301   L 80.632109,13.987301   L 80.650817,13.968526   L 80.688233,13.968526   L 80.688233,13.949751   L 80.706941,13.949751   L 80.81919,13.837102   L 80.81919,13.818327   L 80.837898,13.818327   L 80.837898,13.780777   L 80.856606,13.762002   L 80.856606,13.724453   L 80.875314,13.705678   L 80.875314,12.935907   L 81.155937,12.935907   L 81.155937,13.855877   L 81.137229,13.874652   L 81.137229,13.912202   L 81.11852,13.930977   L 81.11852,13.968526   L 81.099812,13.968526   L 81.099812,13.987301   L 80.987563,14.099951   L 80.968855,14.099951   L 80.968855,14.118726   L 80.931439,14.118726   L 80.912731,14.1375   L 80.875314,14.1375   L 80.856606,14.156275   L 0.63607696,14.156275   L 0.41157921,14.156275   z "
     id="path23" />
  <ellipse
     style="fill:#bfbfbf;fill-rule:evenodd;fill-opacity:1;stroke:#000000;stroke-width:0.018708145px;stroke-linecap:round;stroke-linejoin:round;stroke-miterlimit:4;stroke-dasharray:none;stroke-opacity:1;"
     cx="1.5714843"
     cy="3.2480579"
     rx="0.82315842"
     ry="0.82315842"
     id="ellipse25" />
  <ellipse
     style="fill:none;stroke:#000000;stroke-width:0.018708145px;stroke-linecap:round;stroke-linejoin:round;stroke-miterlimit:4;stroke-dasharray:none;stroke-opacity:1;"
     cx="1.5714843"
     cy="3.2480579"
     rx="0.82315842"
     ry="0.82315842"
     id="ellipse27" />
  <ellipse
     style="fill:#dddddd;fill-rule:evenodd;fill-opacity:1;stroke:#000000;stroke-width:0.018708145px;stroke-linecap:round;stroke-linejoin:round;stroke-miterlimit:4;stroke-dasharray:none;stroke-opacity:1;"
     cx="1.5621302"
     cy="3.2386704"
     rx="0.72026361"
     ry="0.72026361"
     id="ellipse29" />
  <ellipse
     style="fill:none;stroke:#7f7f7f;stroke-width:0.018708145px;stroke-linecap:round;stroke-linejoin:round;stroke-miterlimit:4;stroke-dasharray:none;stroke-opacity:1;"
     cx="1.5621302"
     cy="3.2386704"
     rx="0.72026361"
     ry="0.72026361"
     id="ellipse31" />
  <path
     style="fill:#494949;fill-rule:evenodd;fill-opacity:1;stroke:#161616;stroke-width:0.018708145px;stroke-linecap:round;stroke-linejoin:round;stroke-miterlimit:4;stroke-dasharray:none;stroke-opacity:1;"
     d="  M 2.2823938,3.1917332   L 2.3198101,3.1917332   L 2.3198101,3.2105081   L 2.3385182,3.2105081   L 2.3385182,3.229283   L 2.3572264,3.2480579   L 2.3572264,3.417032   L 2.3385182,3.417032   L 2.3385182,3.4358069   L 2.3198101,3.4358069   L 2.3198101,3.4545818   L 1.7772739,3.4545818   L 1.7772739,3.9990539   L 1.7585657,3.9990539   L 1.7585657,4.0366037   L 1.7398576,4.0366037   L 1.7398576,4.0553786   L 1.7211494,4.0553786   L 1.7024413,4.0741535   L 1.5714843,4.0741535   L 1.5714843,4.0553786   L 1.5527761,4.0553786   L 1.5527761,4.0366037   L 1.534068,4.0366037   L 1.534068,4.0178288   L 1.5153598,3.9990539   L 1.5153598,3.4545818   L 0.97282358,3.4545818   L 0.95411544,3.4358069   L 0.93540729,3.4358069   L 0.93540729,3.417032   L 0.91669915,3.417032   L 0.91669915,3.3982571   L 0.897991,3.3982571   L 0.897991,3.2668328   L 0.91669915,3.2480579   L 0.91669915,3.229283   L 0.93540729,3.229283   L 0.93540729,3.2105081   L 0.97282358,3.2105081   L 0.97282358,3.1917332   L 1.5153598,3.1917332   L 1.5153598,2.647261   L 1.534068,2.647261   L 1.534068,2.6284861   L 1.5527761,2.6284861   L 1.5527761,2.6097112   L 1.7211494,2.6097112   L 1.7398576,2.6284861   L 1.7585657,2.6284861   L 1.7585657,2.647261   L 1.7772739,2.647261   L 1.7772739,3.1917332   L 2.2636856,3.1917332   L 2.2823938,3.1917332   z "
     id="path33" />
  <path
     style="fill:none;stroke:#bfbfbf;stroke-width:0.018708145px;stroke-linecap:round;stroke-linejoin:round;stroke-miterlimit:4;stroke-dasharray:none;stroke-opacity:1;"
     d="  M 2.3946427,3.2668328   L 2.3946427,3.417032   L 2.3759345,3.417032   L 2.3572264,3.4358069   L 1.7585657,3.4358069   L 1.7585657,4.0553786   L 1.7398576,4.0553786   L 1.7398576,4.0741535   L 1.7211494,4.0741535   L 1.7211494,4.0929284   L 1.6276087,4.0929284   L 1.6089005,4.0929284  "
     id="path35" />
  <path
     style="fill:none;stroke:#bfbfbf;stroke-width:0.018708145px;stroke-linecap:round;stroke-linejoin:round;stroke-miterlimit:4;stroke-dasharray:none;stroke-opacity:1;"
     d="  M 1.7772739,2.6660359   L 1.7772739,3.1541834   L 1.7772739,3.1917332  "
     id="path37" />
  <path
     style="fill:#000000;fill-rule:evenodd;fill-opacity:1;stroke:#000000;stroke-width:0.018708145px;stroke-linecap:round;stroke-linejoin:round;stroke-miterlimit:4;stroke-dasharray:none;stroke-opacity:1;"
     d="  M 18.146901,1.708516   L 18.146901,1.6521913   L 18.128193,1.5958666   L 18.109485,1.5583168   L 18.034653,1.4832172   L 17.997236,1.4644423   L 17.941112,1.4456674   L 16.612834,1.4456674   L 16.556709,1.4644423   L 16.519293,1.4832172   L 16.44446,1.5583168   L 16.425752,1.5958666   L 16.407044,1.6521913   L 16.407044,1.7648407   L 16.425752,1.8211654   L 16.44446,1.8587152   L 16.519293,1.9338148   L 16.556709,1.9525897   L 16.612834,1.9713646   L 17.941112,1.9713646   L 17.997236,1.9525897   L 18.034653,1.9338148   L 18.109485,1.8587152   L 18.128193,1.8211654   L 18.146901,1.7648407   L 18.146901,1.708516   z "
     id="path39" />
  <path
     style="fill:#000000;fill-rule:evenodd;fill-opacity:1;stroke:#000000;stroke-width:0.018708145px;stroke-linecap:round;stroke-linejoin:round;stroke-miterlimit:4;stroke-dasharray:none;stroke-opacity:1;"
     d="  M 21.065372,1.708516   L 21.065372,1.6521913   L 21.046664,1.5958666   L 21.027956,1.5583168   L 20.953123,1.4832172   L 20.915707,1.4644423   L 20.859583,1.4456674   L 19.531304,1.4456674   L 19.47518,1.4644423   L 19.437764,1.4832172   L 19.362931,1.5583168   L 19.344223,1.5958666   L 19.325515,1.6521913   L 19.325515,1.7648407   L 19.344223,1.8211654   L 19.362931,1.8587152   L 19.437764,1.9338148   L 19.47518,1.9525897   L 19.531304,1.9713646   L 20.859583,1.9713646   L 20.915707,1.9525897   L 20.953123,1.9338148   L 21.027956,1.8587152   L 21.046664,1.8211654   L 21.065372,1.7648407   L 21.065372,1.708516   z "
     id="path41" />
  <path
     style="fill:#000000;fill-rule:evenodd;fill-opacity:1;stroke:#000000;stroke-width:0.018708145px;stroke-linecap:round;stroke-linejoin:round;stroke-miterlimit:4;stroke-dasharray:none;stroke-opacity:1;"
     d="  M 23.965135,1.708516   L 23.965135,1.6521913   L 23.946427,1.5958666   L 23.927719,1.5583168   L 23.852886,1.4832172   L 23.81547,1.4644423   L 23.759345,1.4456674   L 22.431067,1.4456674   L 22.374942,1.4644423   L 22.337526,1.4832172   L 22.262694,1.5583168   L 22.243985,1.5958666   L 22.225277,1.6521913   L 22.225277,1.7648407   L 22.243985,1.8211654   L 22.262694,1.8587152   L 22.337526,1.9338148   L 22.374942,1.9525897   L 22.431067,1.9713646   L 23.759345,1.9713646   L 23.81547,1.9525897   L 23.852886,1.9338148   L 23.927719,1.8587152   L 23.946427,1.8211654   L 23.965135,1.7648407   L 23.965135,1.708516   z "
     id="path43" />
  <path
     style="fill:#000000;fill-rule:evenodd;fill-opacity:1;stroke:#000000;stroke-width:0.018708145px;stroke-linecap:round;stroke-linejoin:round;stroke-miterlimit:4;stroke-dasharray:none;stroke-opacity:1;"
     d="  M 26.883606,1.708516   L 26.883606,1.6521913   L 26.864897,1.5958666   L 26.846189,1.5583168   L 26.771357,1.4832172   L 26.73394,1.4644423   L 26.677816,1.4456674   L 25.349538,1.4456674   L 25.293413,1.4644423   L 25.255997,1.4832172   L 25.181164,1.5583168   L 25.162456,1.5958666   L 25.143748,1.6521913   L 25.143748,1.7648407   L 25.162456,1.8211654   L 25.181164,1.8587152   L 25.255997,1.9338148   L 25.293413,1.9525897   L 25.349538,1.9713646   L 26.677816,1.9713646   L 26.73394,1.9525897   L 26.771357,1.9338148   L 26.846189,1.8587152   L 26.864897,1.8211654   L 26.883606,1.7648407   L 26.883606,1.708516   z "
     id="path45" />
  <path
     style="fill:#000000;fill-rule:evenodd;fill-opacity:1;stroke:#000000;stroke-width:0.018708145px;stroke-linecap:round;stroke-linejoin:round;stroke-miterlimit:4;stroke-dasharray:none;stroke-opacity:1;"
     d="  M 29.802076,1.708516   L 29.802076,1.6521913   L 29.783368,1.5958666   L 29.76466,1.5583168   L 29.689827,1.4832172   L 29.652411,1.4644423   L 29.596287,1.4456674   L 28.268008,1.4456674   L 28.211884,1.4644423   L 28.174468,1.4832172   L 28.099635,1.5583168   L 28.080927,1.5958666   L 28.062219,1.6521913   L 28.062219,1.7648407   L 28.080927,1.8211654   L 28.099635,1.8587152   L 28.174468,1.9338148   L 28.211884,1.9525897   L 28.268008,1.9713646   L 29.596287,1.9713646   L 29.652411,1.9525897   L 29.689827,1.9338148   L 29.76466,1.8587152   L 29.783368,1.8211654   L 29.802076,1.7648407   L 29.802076,1.708516   z "
     id="path47" />
  <path
     style="fill:#000000;fill-rule:evenodd;fill-opacity:1;stroke:#000000;stroke-width:0.018708145px;stroke-linecap:round;stroke-linejoin:round;stroke-miterlimit:4;stroke-dasharray:none;stroke-opacity:1;"
     d="  M 32.720547,1.708516   L 32.720547,1.6521913   L 32.701839,1.5958666   L 32.683131,1.5583168   L 32.608298,1.4832172   L 32.570882,1.4644423   L 32.514757,1.4456674   L 31.186479,1.4456674   L 31.130355,1.4644423   L 31.092938,1.4832172   L 31.018106,1.5583168   L 30.999398,1.5958666   L 30.98069,1.6521913   L 30.98069,1.7648407   L 30.999398,1.8211654   L 31.018106,1.8587152   L 31.092938,1.9338148   L 31.130355,1.9525897   L 31.186479,1.9713646   L 32.514757,1.9713646   L 32.570882,1.9525897   L 32.608298,1.9338148   L 32.683131,1.8587152   L 32.701839,1.8211654   L 32.720547,1.7648407   L 32.720547,1.708516   z "
     id="path49" />
  <path
     style="fill:#000000;fill-rule:evenodd;fill-opacity:1;stroke:#000000;stroke-width:0.018708145px;stroke-linecap:round;stroke-linejoin:round;stroke-miterlimit:4;stroke-dasharray:none;stroke-opacity:1;"
     d="  M 35.62031,1.708516   L 35.62031,1.6521913   L 35.601602,1.5958666   L 35.582893,1.5583168   L 35.508061,1.4832172   L 35.470645,1.4644423   L 35.41452,1.4456674   L 34.086242,1.4456674   L 34.030117,1.4644423   L 33.992701,1.4832172   L 33.917868,1.5583168   L 33.89916,1.5958666   L 33.880452,1.6521913   L 33.880452,1.7648407   L 33.89916,1.8211654   L 33.917868,1.8587152   L 33.992701,1.9338148   L 34.030117,1.9525897   L 34.086242,1.9713646   L 35.41452,1.9713646   L 35.470645,1.9525897   L 35.508061,1.9338148   L 35.582893,1.8587152   L 35.601602,1.8211654   L 35.62031,1.7648407   L 35.62031,1.708516   z "
     id="path51" />
  <path
     style="fill:#000000;fill-rule:evenodd;fill-opacity:1;stroke:#000000;stroke-width:0.018708145px;stroke-linecap:round;stroke-linejoin:round;stroke-miterlimit:4;stroke-dasharray:none;stroke-opacity:1;"
     d="  M 38.53878,1.708516   L 38.53878,1.6521913   L 38.520072,1.5958666   L 38.501364,1.5583168   L 38.426532,1.4832172   L 38.389115,1.4644423   L 38.332991,1.4456674   L 37.004712,1.4456674   L 36.948588,1.4644423   L 36.911172,1.4832172   L 36.836339,1.5583168   L 36.817631,1.5958666   L 36.798923,1.6521913   L 36.798923,1.7648407   L 36.817631,1.8211654   L 36.836339,1.8587152   L 36.911172,1.9338148   L 36.948588,1.9525897   L 37.004712,1.9713646   L 38.332991,1.9713646   L 38.389115,1.9525897   L 38.426532,1.9338148   L 38.501364,1.8587152   L 38.520072,1.8211654   L 38.53878,1.7648407   L 38.53878,1.708516   z "
     id="path53" />
  <path
     style="fill:#000000;fill-rule:evenodd;fill-opacity:1;stroke:#000000;stroke-width:0.018708145px;stroke-linecap:round;stroke-linejoin:round;stroke-miterlimit:4;stroke-dasharray:none;stroke-opacity:1;"
     d="  M 41.457251,1.708516   L 41.457251,1.6521913   L 41.438543,1.5958666   L 41.419835,1.5583168   L 41.345002,1.4832172   L 41.307586,1.4644423   L 41.251462,1.4456674   L 39.923183,1.4456674   L 39.867059,1.4644423   L 39.829642,1.4832172   L 39.75481,1.5583168   L 39.736102,1.5958666   L 39.717394,1.6521913   L 39.717394,1.7648407   L 39.736102,1.8211654   L 39.75481,1.8587152   L 39.829642,1.9338148   L 39.867059,1.9525897   L 39.923183,1.9713646   L 41.251462,1.9713646   L 41.307586,1.9525897   L 41.345002,1.9338148   L 41.419835,1.8587152   L 41.438543,1.8211654   L 41.457251,1.7648407   L 41.457251,1.708516   z "
     id="path55" />
  <path
     style="fill:#000000;fill-rule:evenodd;fill-opacity:1;stroke:#000000;stroke-width:0.018708145px;stroke-linecap:round;stroke-linejoin:round;stroke-miterlimit:4;stroke-dasharray:none;stroke-opacity:1;"
     d="  M 44.375722,1.708516   L 44.375722,1.6521913   L 44.357014,1.5958666   L 44.338306,1.5583168   L 44.263473,1.4832172   L 44.226057,1.4644423   L 44.169932,1.4456674   L 42.841654,1.4456674   L 42.78553,1.4644423   L 42.748113,1.4832172   L 42.673281,1.5583168   L 42.654573,1.5958666   L 42.635864,1.6521913   L 42.635864,1.7648407   L 42.654573,1.8211654   L 42.673281,1.8587152   L 42.748113,1.9338148   L 42.78553,1.9525897   L 42.841654,1.9713646   L 44.169932,1.9713646   L 44.226057,1.9525897   L 44.263473,1.9338148   L 44.338306,1.8587152   L 44.357014,1.8211654   L 44.375722,1.7648407   L 44.375722,1.708516   z "
     id="path57" />
  <path
     style="fill:#000000;fill-rule:evenodd;fill-opacity:1;stroke:#000000;stroke-width:0.018708145px;stroke-linecap:round;stroke-linejoin:round;stroke-miterlimit:4;stroke-dasharray:none;stroke-opacity:1;"
     d="  M 47.275485,1.708516   L 47.275485,1.6521913   L 47.256776,1.5958666   L 47.238068,1.5583168   L 47.163236,1.4832172   L 47.125819,1.4644423   L 47.069695,1.4456674   L 45.741417,1.4456674   L 45.685292,1.4644423   L 45.647876,1.4832172   L 45.573043,1.5583168   L 45.554335,1.5958666   L 45.535627,1.6521913   L 45.535627,1.7648407   L 45.554335,1.8211654   L 45.573043,1.8587152   L 45.647876,1.9338148   L 45.685292,1.9525897   L 45.741417,1.9713646   L 47.069695,1.9713646   L 47.125819,1.9525897   L 47.163236,1.9338148   L 47.238068,1.8587152   L 47.256776,1.8211654   L 47.275485,1.7648407   L 47.275485,1.708516   z "
     id="path59" />
  <path
     style="fill:#000000;fill-rule:evenodd;fill-opacity:1;stroke:#000000;stroke-width:0.018708145px;stroke-linecap:round;stroke-linejoin:round;stroke-miterlimit:4;stroke-dasharray:none;stroke-opacity:1;"
     d="  M 50.193955,1.708516   L 50.193955,1.6521913   L 50.175247,1.5958666   L 50.156539,1.5583168   L 50.081706,1.4832172   L 50.04429,1.4644423   L 49.988166,1.4456674   L 48.659887,1.4456674   L 48.603763,1.4644423   L 48.566347,1.4832172   L 48.491514,1.5583168   L 48.472806,1.5958666   L 48.454098,1.6521913   L 48.454098,1.7648407   L 48.472806,1.8211654   L 48.491514,1.8587152   L 48.566347,1.9338148   L 48.603763,1.9525897   L 48.659887,1.9713646   L 49.988166,1.9713646   L 50.04429,1.9525897   L 50.081706,1.9338148   L 50.156539,1.8587152   L 50.175247,1.8211654   L 50.193955,1.7648407   L 50.193955,1.708516   z "
     id="path61" />
  <path
     style="fill:#000000;fill-rule:evenodd;fill-opacity:1;stroke:#000000;stroke-width:0.018708145px;stroke-linecap:round;stroke-linejoin:round;stroke-miterlimit:4;stroke-dasharray:none;stroke-opacity:1;"
     d="  M 53.112426,1.708516   L 53.112426,1.6521913   L 53.093718,1.5958666   L 53.07501,1.5583168   L 53.000177,1.4832172   L 52.962761,1.4644423   L 52.906636,1.4456674   L 51.578358,1.4456674   L 51.522234,1.4644423   L 51.484817,1.4832172   L 51.409985,1.5583168   L 51.391277,1.5958666   L 51.372568,1.6521913   L 51.372568,1.7648407   L 51.391277,1.8211654   L 51.409985,1.8587152   L 51.484817,1.9338148   L 51.522234,1.9525897   L 51.578358,1.9713646   L 52.906636,1.9713646   L 52.962761,1.9525897   L 53.000177,1.9338148   L 53.07501,1.8587152   L 53.093718,1.8211654   L 53.112426,1.7648407   L 53.112426,1.708516   z "
     id="path63" />
  <path
     style="fill:#000000;fill-rule:evenodd;fill-opacity:1;stroke:#000000;stroke-width:0.018708145px;stroke-linecap:round;stroke-linejoin:round;stroke-miterlimit:4;stroke-dasharray:none;stroke-opacity:1;"
     d="  M 56.030897,1.708516   L 56.030897,1.6521913   L 56.012189,1.5958666   L 55.99348,1.5583168   L 55.918648,1.4832172   L 55.881232,1.4644423   L 55.825107,1.4456674   L 54.496829,1.4456674   L 54.440704,1.4644423   L 54.403288,1.4832172   L 54.328456,1.5583168   L 54.309747,1.5958666   L 54.291039,1.6521913   L 54.291039,1.7648407   L 54.309747,1.8211654   L 54.328456,1.8587152   L 54.403288,1.9338148   L 54.440704,1.9525897   L 54.496829,1.9713646   L 55.825107,1.9713646   L 55.881232,1.9525897   L 55.918648,1.9338148   L 55.99348,1.8587152   L 56.012189,1.8211654   L 56.030897,1.7648407   L 56.030897,1.708516   z "
     id="path65" />
  <path
     style="fill:#000000;fill-rule:evenodd;fill-opacity:1;stroke:#000000;stroke-width:0.018708145px;stroke-linecap:round;stroke-linejoin:round;stroke-miterlimit:4;stroke-dasharray:none;stroke-opacity:1;"
     d="  M 58.930659,1.708516   L 58.930659,1.6521913   L 58.911951,1.5958666   L 58.893243,1.5583168   L 58.818411,1.4832172   L 58.780994,1.4644423   L 58.72487,1.4456674   L 57.396591,1.4456674   L 57.340467,1.4644423   L 57.303051,1.4832172   L 57.228218,1.5583168   L 57.20951,1.5958666   L 57.190802,1.6521913   L 57.190802,1.7648407   L 57.20951,1.8211654   L 57.228218,1.8587152   L 57.303051,1.9338148   L 57.340467,1.9525897   L 57.396591,1.9713646   L 58.72487,1.9713646   L 58.780994,1.9525897   L 58.818411,1.9338148   L 58.893243,1.8587152   L 58.911951,1.8211654   L 58.930659,1.7648407   L 58.930659,1.708516   z "
     id="path67" />
  <path
     style="fill:#000000;fill-rule:evenodd;fill-opacity:1;stroke:#000000;stroke-width:0.018708145px;stroke-linecap:round;stroke-linejoin:round;stroke-miterlimit:4;stroke-dasharray:none;stroke-opacity:1;"
     d="  M 61.84913,1.708516   L 61.84913,1.6521913   L 61.830422,1.5958666   L 61.811714,1.5583168   L 61.736881,1.4832172   L 61.699465,1.4644423   L 61.643341,1.4456674   L 60.315062,1.4456674   L 60.258938,1.4644423   L 60.221521,1.4832172   L 60.146689,1.5583168   L 60.127981,1.5958666   L 60.109273,1.6521913   L 60.109273,1.7648407   L 60.127981,1.8211654   L 60.146689,1.8587152   L 60.221521,1.9338148   L 60.258938,1.9525897   L 60.315062,1.9713646   L 61.643341,1.9713646   L 61.699465,1.9525897   L 61.736881,1.9338148   L 61.811714,1.8587152   L 61.830422,1.8211654   L 61.84913,1.7648407   L 61.84913,1.708516   z "
     id="path69" />
  <path
     style="fill:#000000;fill-rule:evenodd;fill-opacity:1;stroke:#000000;stroke-width:0.018708145px;stroke-linecap:round;stroke-linejoin:round;stroke-miterlimit:4;stroke-dasharray:none;stroke-opacity:1;"
     d="  M 64.786309,1.708516   L 64.786309,1.6521913   L 64.767601,1.5958666   L 64.748893,1.5583168   L 64.67406,1.4832172   L 64.636644,1.4644423   L 64.580519,1.4456674   L 63.252241,1.4456674   L 63.196117,1.4644423   L 63.1587,1.4832172   L 63.083868,1.5583168   L 63.06516,1.5958666   L 63.046451,1.6521913   L 63.046451,1.7648407   L 63.06516,1.8211654   L 63.083868,1.8587152   L 63.1587,1.9338148   L 63.196117,1.9525897   L 63.252241,1.9713646   L 64.580519,1.9713646   L 64.636644,1.9525897   L 64.67406,1.9338148   L 64.748893,1.8587152   L 64.767601,1.8211654   L 64.786309,1.7648407   L 64.786309,1.708516   z "
     id="path71" />
  <path
     style="fill:#000000;fill-rule:evenodd;fill-opacity:1;stroke:#000000;stroke-width:0.018708145px;stroke-linecap:round;stroke-linejoin:round;stroke-miterlimit:4;stroke-dasharray:none;stroke-opacity:1;"
     d="  M 18.146901,3.4358069   L 18.146901,3.3794822   L 18.128193,3.3231575   L 18.109485,3.2856077   L 18.034653,3.2105081   L 17.997236,3.1917332   L 17.941112,3.1729583   L 16.612834,3.1729583   L 16.556709,3.1917332   L 16.519293,3.2105081   L 16.44446,3.2856077   L 16.425752,3.3231575   L 16.407044,3.3794822   L 16.407044,3.4921316   L 16.425752,3.5484563   L 16.44446,3.5860061   L 16.519293,3.6611057   L 16.556709,3.6798806   L 16.612834,3.6986555   L 17.941112,3.6986555   L 17.997236,3.6798806   L 18.034653,3.6611057   L 18.109485,3.5860061   L 18.128193,3.5484563   L 18.146901,3.4921316   L 18.146901,3.4358069   z "
     id="path73" />
  <path
     style="fill:#000000;fill-rule:evenodd;fill-opacity:1;stroke:#000000;stroke-width:0.018708145px;stroke-linecap:round;stroke-linejoin:round;stroke-miterlimit:4;stroke-dasharray:none;stroke-opacity:1;"
     d="  M 21.065372,3.4358069   L 21.065372,3.3794822   L 21.046664,3.3231575   L 21.027956,3.2856077   L 20.953123,3.2105081   L 20.915707,3.1917332   L 20.859583,3.1729583   L 19.531304,3.1729583   L 19.47518,3.1917332   L 19.437764,3.2105081   L 19.362931,3.2856077   L 19.344223,3.3231575   L 19.325515,3.3794822   L 19.325515,3.4921316   L 19.344223,3.5484563   L 19.362931,3.5860061   L 19.437764,3.6611057   L 19.47518,3.6798806   L 19.531304,3.6986555   L 20.859583,3.6986555   L 20.915707,3.6798806   L 20.953123,3.6611057   L 21.027956,3.5860061   L 21.046664,3.5484563   L 21.065372,3.4921316   L 21.065372,3.4358069   z "
     id="path75" />
  <path
     style="fill:#000000;fill-rule:evenodd;fill-opacity:1;stroke:#000000;stroke-width:0.018708145px;stroke-linecap:round;stroke-linejoin:round;stroke-miterlimit:4;stroke-dasharray:none;stroke-opacity:1;"
     d="  M 23.965135,3.4358069   L 23.965135,3.3794822   L 23.946427,3.3231575   L 23.927719,3.2856077   L 23.852886,3.2105081   L 23.81547,3.1917332   L 23.759345,3.1729583   L 22.431067,3.1729583   L 22.374942,3.1917332   L 22.337526,3.2105081   L 22.262694,3.2856077   L 22.243985,3.3231575   L 22.225277,3.3794822   L 22.225277,3.4921316   L 22.243985,3.5484563   L 22.262694,3.5860061   L 22.337526,3.6611057   L 22.374942,3.6798806   L 22.431067,3.6986555   L 23.759345,3.6986555   L 23.81547,3.6798806   L 23.852886,3.6611057   L 23.927719,3.5860061   L 23.946427,3.5484563   L 23.965135,3.4921316   L 23.965135,3.4358069   z "
     id="path77" />
  <path
     style="fill:#000000;fill-rule:evenodd;fill-opacity:1;stroke:#000000;stroke-width:0.018708145px;stroke-linecap:round;stroke-linejoin:round;stroke-miterlimit:4;stroke-dasharray:none;stroke-opacity:1;"
     d="  M 26.883606,3.4358069   L 26.883606,3.3794822   L 26.864897,3.3231575   L 26.846189,3.2856077   L 26.771357,3.2105081   L 26.73394,3.1917332   L 26.677816,3.1729583   L 25.349538,3.1729583   L 25.293413,3.1917332   L 25.255997,3.2105081   L 25.181164,3.2856077   L 25.162456,3.3231575   L 25.143748,3.3794822   L 25.143748,3.4921316   L 25.162456,3.5484563   L 25.181164,3.5860061   L 25.255997,3.6611057   L 25.293413,3.6798806   L 25.349538,3.6986555   L 26.677816,3.6986555   L 26.73394,3.6798806   L 26.771357,3.6611057   L 26.846189,3.5860061   L 26.864897,3.5484563   L 26.883606,3.4921316   L 26.883606,3.4358069   z "
     id="path79" />
  <path
     style="fill:#000000;fill-rule:evenodd;fill-opacity:1;stroke:#000000;stroke-width:0.018708145px;stroke-linecap:round;stroke-linejoin:round;stroke-miterlimit:4;stroke-dasharray:none;stroke-opacity:1;"
     d="  M 29.802076,3.4358069   L 29.802076,3.3794822   L 29.783368,3.3231575   L 29.76466,3.2856077   L 29.689827,3.2105081   L 29.652411,3.1917332   L 29.596287,3.1729583   L 28.268008,3.1729583   L 28.211884,3.1917332   L 28.174468,3.2105081   L 28.099635,3.2856077   L 28.080927,3.3231575   L 28.062219,3.3794822   L 28.062219,3.4921316   L 28.080927,3.5484563   L 28.099635,3.5860061   L 28.174468,3.6611057   L 28.211884,3.6798806   L 28.268008,3.6986555   L 29.596287,3.6986555   L 29.652411,3.6798806   L 29.689827,3.6611057   L 29.76466,3.5860061   L 29.783368,3.5484563   L 29.802076,3.4921316   L 29.802076,3.4358069   z "
     id="path81" />
  <path
     style="fill:#000000;fill-rule:evenodd;fill-opacity:1;stroke:#000000;stroke-width:0.018708145px;stroke-linecap:round;stroke-linejoin:round;stroke-miterlimit:4;stroke-dasharray:none;stroke-opacity:1;"
     d="  M 32.720547,3.4358069   L 32.720547,3.3794822   L 32.701839,3.3231575   L 32.683131,3.2856077   L 32.608298,3.2105081   L 32.570882,3.1917332   L 32.514757,3.1729583   L 31.186479,3.1729583   L 31.130355,3.1917332   L 31.092938,3.2105081   L 31.018106,3.2856077   L 30.999398,3.3231575   L 30.98069,3.3794822   L 30.98069,3.4921316   L 30.999398,3.5484563   L 31.018106,3.5860061   L 31.092938,3.6611057   L 31.130355,3.6798806   L 31.186479,3.6986555   L 32.514757,3.6986555   L 32.570882,3.6798806   L 32.608298,3.6611057   L 32.683131,3.5860061   L 32.701839,3.5484563   L 32.720547,3.4921316   L 32.720547,3.4358069   z "
     id="path83" />
  <path
     style="fill:#000000;fill-rule:evenodd;fill-opacity:1;stroke:#000000;stroke-width:0.018708145px;stroke-linecap:round;stroke-linejoin:round;stroke-miterlimit:4;stroke-dasharray:none;stroke-opacity:1;"
     d="  M 35.62031,3.4358069   L 35.62031,3.3794822   L 35.601602,3.3231575   L 35.582893,3.2856077   L 35.508061,3.2105081   L 35.470645,3.1917332   L 35.41452,3.1729583   L 34.086242,3.1729583   L 34.030117,3.1917332   L 33.992701,3.2105081   L 33.917868,3.2856077   L 33.89916,3.3231575   L 33.880452,3.3794822   L 33.880452,3.4921316   L 33.89916,3.5484563   L 33.917868,3.5860061   L 33.992701,3.6611057   L 34.030117,3.6798806   L 34.086242,3.6986555   L 35.41452,3.6986555   L 35.470645,3.6798806   L 35.508061,3.6611057   L 35.582893,3.5860061   L 35.601602,3.5484563   L 35.62031,3.4921316   L 35.62031,3.4358069   z "
     id="path85" />
  <path
     style="fill:#000000;fill-rule:evenodd;fill-opacity:1;stroke:#000000;stroke-width:0.018708145px;stroke-linecap:round;stroke-linejoin:round;stroke-miterlimit:4;stroke-dasharray:none;stroke-opacity:1;"
     d="  M 38.53878,3.4358069   L 38.53878,3.3794822   L 38.520072,3.3231575   L 38.501364,3.2856077   L 38.426532,3.2105081   L 38.389115,3.1917332   L 38.332991,3.1729583   L 37.004712,3.1729583   L 36.948588,3.1917332   L 36.911172,3.2105081   L 36.836339,3.2856077   L 36.817631,3.3231575   L 36.798923,3.3794822   L 36.798923,3.4921316   L 36.817631,3.5484563   L 36.836339,3.5860061   L 36.911172,3.6611057   L 36.948588,3.6798806   L 37.004712,3.6986555   L 38.332991,3.6986555   L 38.389115,3.6798806   L 38.426532,3.6611057   L 38.501364,3.5860061   L 38.520072,3.5484563   L 38.53878,3.4921316   L 38.53878,3.4358069   z "
     id="path87" />
  <path
     style="fill:#000000;fill-rule:evenodd;fill-opacity:1;stroke:#000000;stroke-width:0.018708145px;stroke-linecap:round;stroke-linejoin:round;stroke-miterlimit:4;stroke-dasharray:none;stroke-opacity:1;"
     d="  M 41.457251,3.4358069   L 41.457251,3.3794822   L 41.438543,3.3231575   L 41.419835,3.2856077   L 41.345002,3.2105081   L 41.307586,3.1917332   L 41.251462,3.1729583   L 39.923183,3.1729583   L 39.867059,3.1917332   L 39.829642,3.2105081   L 39.75481,3.2856077   L 39.736102,3.3231575   L 39.717394,3.3794822   L 39.717394,3.4921316   L 39.736102,3.5484563   L 39.75481,3.5860061   L 39.829642,3.6611057   L 39.867059,3.6798806   L 39.923183,3.6986555   L 41.251462,3.6986555   L 41.307586,3.6798806   L 41.345002,3.6611057   L 41.419835,3.5860061   L 41.438543,3.5484563   L 41.457251,3.4921316   L 41.457251,3.4358069   z "
     id="path89" />
  <path
     style="fill:#000000;fill-rule:evenodd;fill-opacity:1;stroke:#000000;stroke-width:0.018708145px;stroke-linecap:round;stroke-linejoin:round;stroke-miterlimit:4;stroke-dasharray:none;stroke-opacity:1;"
     d="  M 44.375722,3.4358069   L 44.375722,3.3794822   L 44.357014,3.3231575   L 44.338306,3.2856077   L 44.263473,3.2105081   L 44.226057,3.1917332   L 44.169932,3.1729583   L 42.841654,3.1729583   L 42.78553,3.1917332   L 42.748113,3.2105081   L 42.673281,3.2856077   L 42.654573,3.3231575   L 42.635864,3.3794822   L 42.635864,3.4921316   L 42.654573,3.5484563   L 42.673281,3.5860061   L 42.748113,3.6611057   L 42.78553,3.6798806   L 42.841654,3.6986555   L 44.169932,3.6986555   L 44.226057,3.6798806   L 44.263473,3.6611057   L 44.338306,3.5860061   L 44.357014,3.5484563   L 44.375722,3.4921316   L 44.375722,3.4358069   z "
     id="path91" />
  <path
     style="fill:#000000;fill-rule:evenodd;fill-opacity:1;stroke:#000000;stroke-width:0.018708145px;stroke-linecap:round;stroke-linejoin:round;stroke-miterlimit:4;stroke-dasharray:none;stroke-opacity:1;"
     d="  M 47.275485,3.4358069   L 47.275485,3.3794822   L 47.256776,3.3231575   L 47.238068,3.2856077   L 47.163236,3.2105081   L 47.125819,3.1917332   L 47.069695,3.1729583   L 45.741417,3.1729583   L 45.685292,3.1917332   L 45.647876,3.2105081   L 45.573043,3.2856077   L 45.554335,3.3231575   L 45.535627,3.3794822   L 45.535627,3.4921316   L 45.554335,3.5484563   L 45.573043,3.5860061   L 45.647876,3.6611057   L 45.685292,3.6798806   L 45.741417,3.6986555   L 47.069695,3.6986555   L 47.125819,3.6798806   L 47.163236,3.6611057   L 47.238068,3.5860061   L 47.256776,3.5484563   L 47.275485,3.4921316   L 47.275485,3.4358069   z "
     id="path93" />
  <path
     style="fill:#000000;fill-rule:evenodd;fill-opacity:1;stroke:#000000;stroke-width:0.018708145px;stroke-linecap:round;stroke-linejoin:round;stroke-miterlimit:4;stroke-dasharray:none;stroke-opacity:1;"
     d="  M 50.193955,3.4358069   L 50.193955,3.3794822   L 50.175247,3.3231575   L 50.156539,3.2856077   L 50.081706,3.2105081   L 50.04429,3.1917332   L 49.988166,3.1729583   L 48.659887,3.1729583   L 48.603763,3.1917332   L 48.566347,3.2105081   L 48.491514,3.2856077   L 48.472806,3.3231575   L 48.454098,3.3794822   L 48.454098,3.4921316   L 48.472806,3.5484563   L 48.491514,3.5860061   L 48.566347,3.6611057   L 48.603763,3.6798806   L 48.659887,3.6986555   L 49.988166,3.6986555   L 50.04429,3.6798806   L 50.081706,3.6611057   L 50.156539,3.5860061   L 50.175247,3.5484563   L 50.193955,3.4921316   L 50.193955,3.4358069   z "
     id="path95" />
  <path
     style="fill:#000000;fill-rule:evenodd;fill-opacity:1;stroke:#000000;stroke-width:0.018708145px;stroke-linecap:round;stroke-linejoin:round;stroke-miterlimit:4;stroke-dasharray:none;stroke-opacity:1;"
     d="  M 53.112426,3.4358069   L 53.112426,3.3794822   L 53.093718,3.3231575   L 53.07501,3.2856077   L 53.000177,3.2105081   L 52.962761,3.1917332   L 52.906636,3.1729583   L 51.578358,3.1729583   L 51.522234,3.1917332   L 51.484817,3.2105081   L 51.409985,3.2856077   L 51.391277,3.3231575   L 51.372568,3.3794822   L 51.372568,3.4921316   L 51.391277,3.5484563   L 51.409985,3.5860061   L 51.484817,3.6611057   L 51.522234,3.6798806   L 51.578358,3.6986555   L 52.906636,3.6986555   L 52.962761,3.6798806   L 53.000177,3.6611057   L 53.07501,3.5860061   L 53.093718,3.5484563   L 53.112426,3.4921316   L 53.112426,3.4358069   z "
     id="path97" />
  <path
     style="fill:#000000;fill-rule:evenodd;fill-opacity:1;stroke:#000000;stroke-width:0.018708145px;stroke-linecap:round;stroke-linejoin:round;stroke-miterlimit:4;stroke-dasharray:none;stroke-opacity:1;"
     d="  M 56.030897,3.4358069   L 56.030897,3.3794822   L 56.012189,3.3231575   L 55.99348,3.2856077   L 55.918648,3.2105081   L 55.881232,3.1917332   L 55.825107,3.1729583   L 54.496829,3.1729583   L 54.440704,3.1917332   L 54.403288,3.2105081   L 54.328456,3.2856077   L 54.309747,3.3231575   L 54.291039,3.3794822   L 54.291039,3.4921316   L 54.309747,3.5484563   L 54.328456,3.5860061   L 54.403288,3.6611057   L 54.440704,3.6798806   L 54.496829,3.6986555   L 55.825107,3.6986555   L 55.881232,3.6798806   L 55.918648,3.6611057   L 55.99348,3.5860061   L 56.012189,3.5484563   L 56.030897,3.4921316   L 56.030897,3.4358069   z "
     id="path99" />
  <path
     style="fill:#000000;fill-rule:evenodd;fill-opacity:1;stroke:#000000;stroke-width:0.018708145px;stroke-linecap:round;stroke-linejoin:round;stroke-miterlimit:4;stroke-dasharray:none;stroke-opacity:1;"
     d="  M 58.930659,3.4358069   L 58.930659,3.3794822   L 58.911951,3.3231575   L 58.893243,3.2856077   L 58.818411,3.2105081   L 58.780994,3.1917332   L 58.72487,3.1729583   L 57.396591,3.1729583   L 57.340467,3.1917332   L 57.303051,3.2105081   L 57.228218,3.2856077   L 57.20951,3.3231575   L 57.190802,3.3794822   L 57.190802,3.4921316   L 57.20951,3.5484563   L 57.228218,3.5860061   L 57.303051,3.6611057   L 57.340467,3.6798806   L 57.396591,3.6986555   L 58.72487,3.6986555   L 58.780994,3.6798806   L 58.818411,3.6611057   L 58.893243,3.5860061   L 58.911951,3.5484563   L 58.930659,3.4921316   L 58.930659,3.4358069   z "
     id="path101" />
  <path
     style="fill:#000000;fill-rule:evenodd;fill-opacity:1;stroke:#000000;stroke-width:0.018708145px;stroke-linecap:round;stroke-linejoin:round;stroke-miterlimit:4;stroke-dasharray:none;stroke-opacity:1;"
     d="  M 61.84913,3.4358069   L 61.84913,3.3794822   L 61.830422,3.3231575   L 61.811714,3.2856077   L 61.736881,3.2105081   L 61.699465,3.1917332   L 61.643341,3.1729583   L 60.315062,3.1729583   L 60.258938,3.1917332   L 60.221521,3.2105081   L 60.146689,3.2856077   L 60.127981,3.3231575   L 60.109273,3.3794822   L 60.109273,3.4921316   L 60.127981,3.5484563   L 60.146689,3.5860061   L 60.221521,3.6611057   L 60.258938,3.6798806   L 60.315062,3.6986555   L 61.643341,3.6986555   L 61.699465,3.6798806   L 61.736881,3.6611057   L 61.811714,3.5860061   L 61.830422,3.5484563   L 61.84913,3.4921316   L 61.84913,3.4358069   z "
     id="path103" />
  <path
     style="fill:#000000;fill-rule:evenodd;fill-opacity:1;stroke:#000000;stroke-width:0.018708145px;stroke-linecap:round;stroke-linejoin:round;stroke-miterlimit:4;stroke-dasharray:none;stroke-opacity:1;"
     d="  M 64.786309,3.4358069   L 64.786309,3.3794822   L 64.767601,3.3231575   L 64.748893,3.2856077   L 64.67406,3.2105081   L 64.636644,3.1917332   L 64.580519,3.1729583   L 63.252241,3.1729583   L 63.196117,3.1917332   L 63.1587,3.2105081   L 63.083868,3.2856077   L 63.06516,3.3231575   L 63.046451,3.3794822   L 63.046451,3.4921316   L 63.06516,3.5484563   L 63.083868,3.5860061   L 63.1587,3.6611057   L 63.196117,3.6798806   L 63.252241,3.6986555   L 64.580519,3.6986555   L 64.636644,3.6798806   L 64.67406,3.6611057   L 64.748893,3.5860061   L 64.767601,3.5484563   L 64.786309,3.4921316   L 64.786309,3.4358069   z "
     id="path105" />
  <ellipse
     style="fill:#494949;fill-rule:evenodd;fill-opacity:1;stroke:#000000;stroke-width:0.013695966px;stroke-linecap:round;stroke-linejoin:round;stroke-miterlimit:4;stroke-dasharray:none;stroke-opacity:1;"
     cx="4.6566281"
     cy="9.0513198"
     rx="0.46566281"
     ry="0.46566281"
     id="ellipse107" />
  <ellipse
     style="fill:none;stroke:#000000;stroke-width:0.013695966px;stroke-linecap:round;stroke-linejoin:round;stroke-miterlimit:4;stroke-dasharray:none;stroke-opacity:1;"
     cx="4.6566281"
     cy="9.0513198"
     rx="0.46566281"
     ry="0.46566281"
     id="ellipse109" />
  <ellipse
     style="fill:#000000;fill-rule:evenodd;fill-opacity:1;stroke:#000000;stroke-width:0.013695966px;stroke-linecap:round;stroke-linejoin:round;stroke-miterlimit:4;stroke-dasharray:none;stroke-opacity:1;"
     cx="4.6497802"
     cy="9.0582081"
     rx="0.41772694"
     ry="0.41772694"
     id="ellipse111" />
  <ellipse
     style="fill:none;stroke:#000000;stroke-width:0.013695966px;stroke-linecap:round;stroke-linejoin:round;stroke-miterlimit:4;stroke-dasharray:none;stroke-opacity:1;"
     cx="4.6497802"
     cy="9.0582081"
     rx="0.41772694"
     ry="0.41772694"
     id="ellipse113" />
  <text
     xml:space="preserve"
     style="font-size:0.875000px;font-style:normal;font-variant:normal;font-weight:400;font-stretch:Normal;line-height:125.000000%;letter-spacing:0px;word-spacing:0px;fill:#000000;fill-opacity:1;stroke:none;font-family:Arial;text-align:start;text-anchor:start;"
     transform="matrix(1.000000,-0.000000,0.000000,1.000000,3.144417,10.014671)"
     x="0.000000"
     y="0.637875"
     id="text119"><tspan
       x="0.000000"
       y="0.637875"
       id="tspan117"><tspan
         dx="0.000000"
         dy="0.000000"
         style="fill:#000000;font-size:0.875000px;font-style:normal;font-variant:normal;font-weight:400;font-stretch:Normal;font-family:Arial;"
         id="tspan115">RESET</tspan></tspan></text>
  <path
     style="fill:none;stroke:#000000;stroke-width:0.018716767px;stroke-linecap:round;stroke-linejoin:round;stroke-miterlimit:4;stroke-dasharray:none;stroke-opacity:1;"
     d="  M 3.4626019,0.6733515   L 3.4626019,1.637882  "
     id="path121" />
  <path
     style="fill:none;stroke:#000000;stroke-width:0.018716767px;stroke-linecap:round;stroke-linejoin:round;stroke-miterlimit:4;stroke-dasharray:none;stroke-opacity:1;"
     d="  M 2.7700815,1.8380676   L 4.1551223,1.8380676  "
     id="path123" />
  <path
     style="fill:none;stroke:#000000;stroke-width:0.018716767px;stroke-linecap:round;stroke-linejoin:round;stroke-miterlimit:4;stroke-dasharray:none;stroke-opacity:1;"
     d="  M 2.9946827,2.0564519   L 3.9492379,2.0564519  "
     id="path125" />
  <path
     style="fill:none;stroke:#000000;stroke-width:0.018716767px;stroke-linecap:round;stroke-linejoin:round;stroke-miterlimit:4;stroke-dasharray:none;stroke-opacity:1;"
     d="  M 2.9946827,2.0564519   L 3.9492379,2.0564519  "
     id="path127" />
  <path
     style="fill:none;stroke:#000000;stroke-width:0.018716767px;stroke-linecap:round;stroke-linejoin:round;stroke-miterlimit:4;stroke-dasharray:none;stroke-opacity:1;"
     d="  M 3.2380007,2.2930348   L 3.6872031,2.2930348  "
     id="path129" />
  <text
     xml:space="preserve"
     style="font-size:0.875000px;font-style:normal;font-variant:normal;font-weight:400;font-stretch:Normal;line-height:125.000000%;letter-spacing:0px;word-spacing:0px;fill:#000000;fill-opacity:1;stroke:none;font-family:Arial;text-align:start;text-anchor:start;"
     transform="matrix(1.000000,-0.000000,0.000000,1.000000,15.347749,11.671233)"
     x="0.000000"
     y="0.637875"
     id="text135"><tspan
       x="0.000000"
       y="0.637875"
       id="tspan133"><tspan
         dx="0.000000"
         dy="0.000000"
         style="fill:#000000;font-size:0.875000px;font-style:normal;font-variant:normal;font-weight:400;font-stretch:Normal;font-family:Arial;"
         id="tspan131">USB</tspan></tspan></text>
  <text
     xml:space="preserve"
     style="font-size:0.875000px;font-style:normal;font-variant:normal;font-weight:400;font-stretch:Normal;line-height:125.000000%;letter-spacing:0px;word-spacing:0px;fill:#000000;fill-opacity:1;stroke:none;font-family:Arial;text-align:start;text-anchor:start;"
     transform="matrix(1.000000,-0.000000,0.000000,1.000000,15.347749,11.671233)"
     x="-4.117689"
     y="-0.039810"
     id="text141"><tspan
       x="-4.117689"
       y="-0.039810"
       id="tspan139"><tspan
         dx="0.000000"
         dy="0.000000"
         style="fill:#000000;font-size:0.875000px;font-style:normal;font-variant:normal;font-weight:400;font-stretch:Normal;font-family:Arial;"
         id="tspan137">USB</tspan></tspan></text>
  <text
     xml:space="preserve"
     style="font-size:0.875000px;font-style:normal;font-variant:normal;font-weight:400;font-stretch:Normal;line-height:125.000000%;letter-spacing:0px;word-spacing:0px;fill:#000000;fill-opacity:1;stroke:none;font-family:Arial;text-align:start;text-anchor:start;"
     transform="matrix(1.000000,-0.000000,0.000000,1.000000,15.347749,11.671233)"
     x="-9.508118"
     y="0.637875"
     id="text147"><tspan
       x="-9.508118"
       y="0.637875"
       id="tspan145"><tspan
         dx="0.000000"
         dy="0.000000"
         style="fill:#000000;font-size:0.875000px;font-style:normal;font-variant:normal;font-weight:400;font-stretch:Normal;font-family:Arial;"
         id="tspan143">DC + 12V</tspan></tspan></text>
  <text
     xml:space="preserve"
     style="font-size:0.875000px;font-style:normal;font-variant:normal;font-weight:400;font-stretch:Normal;line-height:125.000000%;letter-spacing:0px;word-spacing:0px;fill:#000000;fill-opacity:1;stroke:none;font-family:Arial;text-align:start;text-anchor:start;"
     transform="matrix(1.000000,-0.000000,0.000000,1.000000,15.347749,11.671233)"
     x="-4.417157"
     y="1.014366"
     id="text153"><tspan
       x="-4.417157"
       y="1.014366"
       id="tspan151"><tspan
         dx="0.000000"
         dy="0.000000"
         style="fill:#000000;font-size:0.875000px;font-style:normal;font-variant:normal;font-weight:400;font-stretch:Normal;font-family:Arial;"
         id="tspan149">MGMT</tspan></tspan></text>
  <path
     style="fill:#bfbfbf;fill-rule:evenodd;fill-opacity:1;stroke:#0a0a0a;stroke-width:0.056606807px;stroke-linecap:round;stroke-linejoin:round;stroke-miterlimit:4;stroke-dasharray:none;stroke-opacity:1;"
     d="  M 45.455267,5.8006004   L 18.62364,5.8006004   L 18.62364,10.890343   L 45.455267,10.890343   L 45.455267,5.8006004   z "
     id="path155" />
  <path
     style="fill:#bfbfbf;fill-rule:evenodd;fill-opacity:1;stroke:#0a0a0a;stroke-width:0.056606807px;stroke-linecap:round;stroke-linejoin:round;stroke-miterlimit:4;stroke-dasharray:none;stroke-opacity:1;"
     d="  M 73.135996,5.8006004   L 46.304369,5.8006004   L 46.304369,10.890343   L 73.135996,10.890343   L 73.135996,5.8006004   z "
     id="path157" />
  <text
     xml:space="preserve"
     style="font-size:0.875000px;font-style:normal;font-variant:normal;font-weight:400;font-stretch:Normal;line-height:125.000000%;letter-spacing:0px;word-spacing:0px;fill:#000000;fill-opacity:1;stroke:none;font-family:Arial;text-align:start;text-anchor:start;"
     transform="matrix(1.000000,-0.000000,0.000000,1.000000,20.438710,11.671233)"
     x="0.000000"
     y="0.637875"
     id="text163"><tspan
       x="0.000000"
       y="0.637875"
       id="tspan161"><tspan
         dx="0.000000"
         dy="0.000000"
         style="fill:#000000;font-size:0.875000px;font-style:normal;font-variant:normal;font-weight:400;font-stretch:Normal;font-family:Arial;"
         id="tspan159">WAN2</tspan></tspan></text>
  <text
     xml:space="preserve"
     style="font-size:0.875000px;font-style:normal;font-variant:normal;font-weight:400;font-stretch:Normal;line-height:125.000000%;letter-spacing:0px;word-spacing:0px;fill:#000000;fill-opacity:1;stroke:none;font-family:Arial;text-align:start;text-anchor:start;"
     transform="matrix(1.000000,-0.000000,0.000000,1.000000,20.438710,11.671233)"
     x="5.240695"
     y="0.637875"
     id="text169"><tspan
       x="5.240695"
       y="0.637875"
       id="tspan167"><tspan
         dx="0.000000"
         dy="0.000000"
         style="fill:#000000;font-size:0.875000px;font-style:normal;font-variant:normal;font-weight:400;font-stretch:Normal;font-family:Arial;"
         id="tspan165">WAN1</tspan></tspan></text>
  <text
     xml:space="preserve"
     style="font-size:0.875000px;font-style:normal;font-variant:normal;font-weight:400;font-stretch:Normal;line-height:125.000000%;letter-spacing:0px;word-spacing:0px;fill:#000000;fill-opacity:1;stroke:none;font-family:Arial;text-align:start;text-anchor:start;"
     transform="matrix(1.000000,-0.000000,0.000000,1.000000,20.438710,11.671233)"
     x="10.705991"
     y="0.637875"
     id="text175"><tspan
       x="10.705991"
       y="0.637875"
       id="tspan173"><tspan
         dx="0.000000"
         dy="0.000000"
         style="fill:#000000;font-size:0.875000px;font-style:normal;font-variant:normal;font-weight:400;font-stretch:Normal;font-family:Arial;"
         id="tspan171">DMZ</tspan></tspan></text>
  <text
     xml:space="preserve"
     style="font-size:0.875000px;font-style:normal;font-variant:normal;font-weight:400;font-stretch:Normal;line-height:125.000000%;letter-spacing:0px;word-spacing:0px;fill:#000000;fill-opacity:1;stroke:none;font-family:Arial;text-align:start;text-anchor:start;"
     transform="matrix(1.000000,-0.000000,0.000000,1.000000,20.438710,11.671233)"
     x="16.695356"
     y="0.637875"
     id="text181"><tspan
       x="16.695356"
       y="0.637875"
       id="tspan179"><tspan
         dx="0.000000"
         dy="0.000000"
         style="fill:#000000;font-size:0.875000px;font-style:normal;font-variant:normal;font-weight:400;font-stretch:Normal;font-family:Arial;"
         id="tspan177">7</tspan></tspan></text>
  <text
     xml:space="preserve"
     style="font-size:0.875000px;font-style:normal;font-variant:normal;font-weight:400;font-stretch:Normal;line-height:125.000000%;letter-spacing:0px;word-spacing:0px;fill:#000000;fill-opacity:1;stroke:none;font-family:Arial;text-align:start;text-anchor:start;"
     transform="matrix(1.000000,-0.000000,0.000000,1.000000,20.438710,11.671233)"
     x="21.861184"
     y="0.637875"
     id="text187"><tspan
       x="21.861184"
       y="0.637875"
       id="tspan185"><tspan
         dx="0.000000"
         dy="0.000000"
         style="fill:#000000;font-size:0.875000px;font-style:normal;font-variant:normal;font-weight:400;font-stretch:Normal;font-family:Arial;"
         id="tspan183">6</tspan></tspan></text>
  <text
     xml:space="preserve"
     style="font-size:0.875000px;font-style:normal;font-variant:normal;font-weight:400;font-stretch:Normal;line-height:125.000000%;letter-spacing:0px;word-spacing:0px;fill:#000000;fill-opacity:1;stroke:none;font-family:Arial;text-align:start;text-anchor:start;"
     transform="matrix(1.000000,-0.000000,0.000000,1.000000,20.438710,11.671233)"
     x="28.748954"
     y="0.637875"
     id="text193"><tspan
       x="28.748954"
       y="0.637875"
       id="tspan191"><tspan
         dx="0.000000"
         dy="0.000000"
         style="fill:#000000;font-size:0.875000px;font-style:normal;font-variant:normal;font-weight:400;font-stretch:Normal;font-family:Arial;"
         id="tspan189">5</tspan></tspan></text>
  <text
     xml:space="preserve"
     style="font-size:0.875000px;font-style:normal;font-variant:normal;font-weight:400;font-stretch:Normal;line-height:125.000000%;letter-spacing:0px;word-spacing:0px;fill:#000000;fill-opacity:1;stroke:none;font-family:Arial;text-align:start;text-anchor:start;"
     transform="matrix(1.000000,-0.000000,0.000000,1.000000,20.438710,11.671233)"
     x="49.561999"
     y="0.637875"
     id="text199"><tspan
       x="49.561999"
       y="0.637875"
       id="tspan197"><tspan
         dx="0.000000"
         dy="0.000000"
         style="fill:#000000;font-size:0.875000px;font-style:normal;font-variant:normal;font-weight:400;font-stretch:Normal;font-family:Arial;"
         id="tspan195">1</tspan></tspan></text>
  <text
     xml:space="preserve"
     style="font-size:0.875000px;font-style:normal;font-variant:normal;font-weight:400;font-stretch:Normal;line-height:125.000000%;letter-spacing:0px;word-spacing:0px;fill:#000000;fill-opacity:1;stroke:none;font-family:Arial;text-align:start;text-anchor:start;"
     transform="matrix(1.000000,-0.000000,0.000000,1.000000,20.438710,11.671233)"
     x="33.989649"
     y="0.637875"
     id="text205"><tspan
       x="33.989649"
       y="0.637875"
       id="tspan203"><tspan
         dx="0.000000"
         dy="0.000000"
         style="fill:#000000;font-size:0.875000px;font-style:normal;font-variant:normal;font-weight:400;font-stretch:Normal;font-family:Arial;"
         id="tspan201">4</tspan></tspan></text>
  <text
     xml:space="preserve"
     style="font-size:0.875000px;font-style:normal;font-variant:normal;font-weight:400;font-stretch:Normal;line-height:125.000000%;letter-spacing:0px;word-spacing:0px;fill:#000000;fill-opacity:1;stroke:none;font-family:Arial;text-align:start;text-anchor:start;"
     transform="matrix(1.000000,-0.000000,0.000000,1.000000,20.438710,11.671233)"
     x="39.155477"
     y="0.637875"
     id="text211"><tspan
       x="39.155477"
       y="0.637875"
       id="tspan209"><tspan
         dx="0.000000"
         dy="0.000000"
         style="fill:#000000;font-size:0.875000px;font-style:normal;font-variant:normal;font-weight:400;font-stretch:Normal;font-family:Arial;"
         id="tspan207">3</tspan></tspan></text>
  <text
     xml:space="preserve"
     style="font-size:0.875000px;font-style:normal;font-variant:normal;font-weight:400;font-stretch:Normal;line-height:125.000000%;letter-spacing:0px;word-spacing:0px;fill:#000000;fill-opacity:1;stroke:none;font-family:Arial;text-align:start;text-anchor:start;"
     transform="matrix(1.000000,-0.000000,0.000000,1.000000,20.438710,11.671233)"
     x="44.396172"
     y="0.637875"
     id="text217"><tspan
       x="44.396172"
       y="0.637875"
       id="tspan215"><tspan
         dx="0.000000"
         dy="0.000000"
         style="fill:#000000;font-size:0.875000px;font-style:normal;font-variant:normal;font-weight:400;font-stretch:Normal;font-family:Arial;"
         id="tspan213">2</tspan></tspan></text>
  <ellipse
     style="fill:#000000;fill-rule:evenodd;fill-opacity:1;stroke:#000000;stroke-width:0.018716767px;stroke-linecap:round;stroke-linejoin:round;stroke-miterlimit:4;stroke-dasharray:none;stroke-opacity:1;"
     cx="70.131726"
     cy="2.3060098"
     rx="1.2540234"
     ry="1.244665"
     id="ellipse219" />
  <ellipse
     style="fill:none;stroke:#000000;stroke-width:0.018716767px;stroke-linecap:round;stroke-linejoin:round;stroke-miterlimit:4;stroke-dasharray:none;stroke-opacity:1;"
     cx="70.131726"
     cy="2.3060098"
     rx="1.2540234"
     ry="1.244665"
     id="ellipse221" />
  <ellipse
     style="fill:#bcbc7e;fill-rule:evenodd;fill-opacity:1;stroke:#000000;stroke-width:0.018716767px;stroke-linecap:round;stroke-linejoin:round;stroke-miterlimit:4;stroke-dasharray:none;stroke-opacity:1;"
     cx="70.131726"
     cy="2.3060098"
     rx="0.99198866"
     ry="0.98263027"
     id="ellipse223" />
  <ellipse
     style="fill:none;stroke:#bcbc7e;stroke-width:0.018716767px;stroke-linecap:round;stroke-linejoin:round;stroke-miterlimit:4;stroke-dasharray:none;stroke-opacity:1;"
     cx="70.131726"
     cy="2.3060098"
     rx="0.99198866"
     ry="0.98263027"
     id="ellipse225" />
  <ellipse
     style="fill:#000000;fill-rule:evenodd;fill-opacity:1;stroke:#000000;stroke-width:0.018716767px;stroke-linecap:round;stroke-linejoin:round;stroke-miterlimit:4;stroke-dasharray:none;stroke-opacity:1;"
     cx="70.131726"
     cy="2.3060098"
     rx="0.1123006"
     ry="0.10294222"
     id="ellipse227" />
  <ellipse
     style="fill:none;stroke:#000000;stroke-width:0.018716767px;stroke-linecap:round;stroke-linejoin:round;stroke-miterlimit:4;stroke-dasharray:none;stroke-opacity:1;"
     cx="70.131726"
     cy="2.3060098"
     rx="0.1123006"
     ry="0.10294222"
     id="ellipse229" />
  <ellipse
     style="fill:#000000;fill-rule:evenodd;fill-opacity:1;stroke:#000000;stroke-width:0.018716767px;stroke-linecap:round;stroke-linejoin:round;stroke-miterlimit:4;stroke-dasharray:none;stroke-opacity:1;"
     cx="12.184615"
     cy="2.3060098"
     rx="1.2540234"
     ry="1.244665"
     id="ellipse231" />
  <ellipse
     style="fill:none;stroke:#000000;stroke-width:0.018716767px;stroke-linecap:round;stroke-linejoin:round;stroke-miterlimit:4;stroke-dasharray:none;stroke-opacity:1;"
     cx="12.184615"
     cy="2.3060098"
     rx="1.2540234"
     ry="1.244665"
     id="ellipse233" />
  <ellipse
     style="fill:#bcbc7e;fill-rule:evenodd;fill-opacity:1;stroke:#000000;stroke-width:0.018716767px;stroke-linecap:round;stroke-linejoin:round;stroke-miterlimit:4;stroke-dasharray:none;stroke-opacity:1;"
     cx="12.184615"
     cy="2.3060098"
     rx="0.99198866"
     ry="0.98263027"
     id="ellipse235" />
  <ellipse
     style="fill:none;stroke:#bcbc7e;stroke-width:0.018716767px;stroke-linecap:round;stroke-linejoin:round;stroke-miterlimit:4;stroke-dasharray:none;stroke-opacity:1;"
     cx="12.184615"
     cy="2.3060098"
     rx="0.99198866"
     ry="0.98263027"
     id="ellipse237" />
  <ellipse
     style="fill:#000000;fill-rule:evenodd;fill-opacity:1;stroke:#000000;stroke-width:0.018716767px;stroke-linecap:round;stroke-linejoin:round;stroke-miterlimit:4;stroke-dasharray:none;stroke-opacity:1;"
     cx="12.184615"
     cy="2.3060098"
     rx="0.1123006"
     ry="0.10294222"
     id="ellipse239" />
  <ellipse
     style="fill:none;stroke:#000000;stroke-width:0.018716767px;stroke-linecap:round;stroke-linejoin:round;stroke-miterlimit:4;stroke-dasharray:none;stroke-opacity:1;"
     cx="12.184615"
     cy="2.3060098"
     rx="0.1123006"
     ry="0.10294222"
     id="ellipse241" />
  <path
     style="fill:#000000;fill-rule:evenodd;fill-opacity:1;stroke:#161616;stroke-width:0.018571278px;stroke-linecap:round;stroke-linejoin:round;stroke-miterlimit:4;stroke-dasharray:none;stroke-opacity:1;"
     d="  M 67.822307,6.5583229   L 67.822307,9.4008821   L 69.010868,9.4008821   L 69.010868,10.06972   L 69.493722,10.06972   L 69.493722,10.738557   L 70.905139,10.738557   L 70.905139,10.06972   L 71.387992,10.06972   L 71.387992,9.4008821   L 72.576554,9.4008821   L 72.576554,6.5583229   L 67.822307,6.5583229   z "
     id="path243" />
  <path
     style="fill:#000000;fill-rule:evenodd;fill-opacity:1;stroke:#161616;stroke-width:0.018571278px;stroke-linecap:round;stroke-linejoin:round;stroke-miterlimit:4;stroke-dasharray:none;stroke-opacity:1;"
     d="  M 62.659491,6.5583229   L 62.659491,9.4008821   L 63.848053,9.4008821   L 63.848053,10.06972   L 64.330906,10.06972   L 64.330906,10.738557   L 65.742324,10.738557   L 65.742324,10.06972   L 66.225177,10.06972   L 66.225177,9.4008821   L 67.413739,9.4008821   L 67.413739,6.5583229   L 62.659491,6.5583229   z "
     id="path245" />
  <path
     style="fill:#000000;fill-rule:evenodd;fill-opacity:1;stroke:#161616;stroke-width:0.018571278px;stroke-linecap:round;stroke-linejoin:round;stroke-miterlimit:4;stroke-dasharray:none;stroke-opacity:1;"
     d="  M 57.422391,6.5583229   L 57.422391,9.4008821   L 58.610953,9.4008821   L 58.610953,10.06972   L 59.093806,10.06972   L 59.093806,10.738557   L 60.505223,10.738557   L 60.505223,10.06972   L 60.988076,10.06972   L 60.988076,9.4008821   L 62.176638,9.4008821   L 62.176638,6.5583229   L 57.422391,6.5583229   z "
     id="path247" />
  <path
     style="fill:#000000;fill-rule:evenodd;fill-opacity:1;stroke:#161616;stroke-width:0.018571278px;stroke-linecap:round;stroke-linejoin:round;stroke-miterlimit:4;stroke-dasharray:none;stroke-opacity:1;"
     d="  M 52.259576,6.5583229   L 52.259576,9.4008821   L 53.448138,9.4008821   L 53.448138,10.06972   L 53.930991,10.06972   L 53.930991,10.738557   L 55.342408,10.738557   L 55.342408,10.06972   L 55.825261,10.06972   L 55.825261,9.4008821   L 57.013823,9.4008821   L 57.013823,6.5583229   L 52.259576,6.5583229   z "
     id="path249" />
  <path
     style="fill:#000000;fill-rule:evenodd;fill-opacity:1;stroke:#161616;stroke-width:0.018571278px;stroke-linecap:round;stroke-linejoin:round;stroke-miterlimit:4;stroke-dasharray:none;stroke-opacity:1;"
     d="  M 47.022475,6.5583229   L 47.022475,9.4008821   L 48.211037,9.4008821   L 48.211037,10.06972   L 48.69389,10.06972   L 48.69389,10.738557   L 50.105308,10.738557   L 50.105308,10.06972   L 50.588161,10.06972   L 50.588161,9.4008821   L 51.776723,9.4008821   L 51.776723,6.5583229   L 47.022475,6.5583229   z "
     id="path251" />
  <path
     style="fill:#000000;fill-rule:evenodd;fill-opacity:1;stroke:#161616;stroke-width:0.018571278px;stroke-linecap:round;stroke-linejoin:round;stroke-miterlimit:4;stroke-dasharray:none;stroke-opacity:1;"
     d="  M 40.132531,6.5583229   L 40.132531,9.4008821   L 41.321093,9.4008821   L 41.321093,10.06972   L 41.803946,10.06972   L 41.803946,10.738557   L 43.215364,10.738557   L 43.215364,10.06972   L 43.698217,10.06972   L 43.698217,9.4008821   L 44.886779,9.4008821   L 44.886779,6.5583229   L 40.132531,6.5583229   z "
     id="path253" />
  <path
     style="fill:#000000;fill-rule:evenodd;fill-opacity:1;stroke:#161616;stroke-width:0.018571278px;stroke-linecap:round;stroke-linejoin:round;stroke-miterlimit:4;stroke-dasharray:none;stroke-opacity:1;"
     d="  M 34.969716,6.5583229   L 34.969716,9.4008821   L 36.158278,9.4008821   L 36.158278,10.06972   L 36.641131,10.06972   L 36.641131,10.738557   L 38.052548,10.738557   L 38.052548,10.06972   L 38.535401,10.06972   L 38.535401,9.4008821   L 39.723963,9.4008821   L 39.723963,6.5583229   L 34.969716,6.5583229   z "
     id="path255" />
  <path
     style="fill:#000000;fill-rule:evenodd;fill-opacity:1;stroke:#161616;stroke-width:0.018571278px;stroke-linecap:round;stroke-linejoin:round;stroke-miterlimit:4;stroke-dasharray:none;stroke-opacity:1;"
     d="  M 29.714045,6.5583229   L 29.714045,9.4008821   L 30.902606,9.4008821   L 30.902606,10.06972   L 31.38546,10.06972   L 31.38546,10.738557   L 32.796877,10.738557   L 32.796877,10.06972   L 33.27973,10.06972   L 33.27973,9.4008821   L 34.468292,9.4008821   L 34.468292,6.5583229   L 29.714045,6.5583229   z "
     id="path257" />
  <path
     style="fill:#000000;fill-rule:evenodd;fill-opacity:1;stroke:#161616;stroke-width:0.018571278px;stroke-linecap:round;stroke-linejoin:round;stroke-miterlimit:4;stroke-dasharray:none;stroke-opacity:1;"
     d="  M 24.551229,6.5583229   L 24.551229,9.4008821   L 25.739791,9.4008821   L 25.739791,10.06972   L 26.222644,10.06972   L 26.222644,10.738557   L 27.634061,10.738557   L 27.634061,10.06972   L 28.116915,10.06972   L 28.116915,9.4008821   L 29.305476,9.4008821   L 29.305476,6.5583229   L 24.551229,6.5583229   z "
     id="path259" />
  <path
     style="fill:#000000;fill-rule:evenodd;fill-opacity:1;stroke:#161616;stroke-width:0.018571278px;stroke-linecap:round;stroke-linejoin:round;stroke-miterlimit:4;stroke-dasharray:none;stroke-opacity:1;"
     d="  M 19.314129,6.5583229   L 19.314129,9.4008821   L 20.502691,9.4008821   L 20.502691,10.06972   L 20.985544,10.06972   L 20.985544,10.738557   L 22.396961,10.738557   L 22.396961,10.06972   L 22.879814,10.06972   L 22.879814,9.4008821   L 24.068376,9.4008821   L 24.068376,6.5583229   L 19.314129,6.5583229   z "
     id="path261" />
  <path
     style="fill:#bfbfbf;fill-rule:evenodd;fill-opacity:1;stroke:#000000;stroke-width:0.018716767px;stroke-linecap:round;stroke-linejoin:round;stroke-miterlimit:4;stroke-dasharray:none;stroke-opacity:1;"
     d="  M 15.198015,10.673531   L 15.198015,10.730005   L 15.216732,10.730005   L 15.216732,10.767654   L 15.235448,10.786479   L 15.235448,10.805303   L 15.254165,10.805303   L 15.254165,10.824128   L 15.272882,10.824128   L 15.272882,10.842952   L 15.291599,10.842952   L 15.310315,10.861777   L 15.347749,10.861777   L 15.347749,10.880601   L 17.181992,10.880601   L 17.181992,10.861777   L 17.219426,10.861777   L 17.238143,10.842952   L 17.256859,10.842952   L 17.256859,10.824128   L 17.275576,10.824128   L 17.275576,10.805303   L 17.294293,10.805303   L 17.294293,10.786479   L 17.31301,10.767654   L 17.31301,10.730005   L 17.331726,10.730005   L 17.331726,6.0238624   L 17.31301,6.0238624   L 17.31301,5.9862133   L 17.294293,5.9673887   L 17.294293,5.9485641   L 17.275576,5.9485641   L 17.275576,5.9297396   L 17.256859,5.9297396   L 17.256859,5.910915   L 17.238143,5.910915   L 17.219426,5.8920904   L 17.181992,5.8920904   L 17.181992,5.8732658   L 15.347749,5.8732658   L 15.347749,5.8920904   L 15.310315,5.8920904   L 15.291599,5.910915   L 15.272882,5.910915   L 15.272882,5.9297396   L 15.254165,5.9297396   L 15.254165,5.9485641   L 15.235448,5.9485641   L 15.235448,5.9673887   L 15.216732,5.9862133   L 15.216732,6.0238624   L 15.198015,6.0238624   L 15.198015,10.654707   L 15.198015,10.673531   z "
     id="path263" />
  <path
     style="fill:#000000;fill-rule:evenodd;fill-opacity:1;stroke:#f7ddb9;stroke-width:0.018716767px;stroke-linecap:round;stroke-linejoin:round;stroke-miterlimit:4;stroke-dasharray:none;stroke-opacity:1;"
     d="  M 15.366466,10.598233   L 15.366466,10.654707   L 15.385183,10.654707   L 15.385183,10.673531   L 15.403899,10.692356   L 15.422616,10.692356   L 15.422616,10.71118   L 17.107125,10.71118   L 17.125842,10.692356   L 17.144559,10.692356   L 17.144559,10.673531   L 17.163275,10.673531   L 17.163275,10.654707   L 17.181992,10.635882   L 17.181992,6.0991607   L 17.163275,6.0991607   L 17.163275,6.0803361   L 17.144559,6.0803361   L 17.144559,6.0615115   L 17.125842,6.0615115   L 17.107125,6.042687   L 15.422616,6.042687   L 15.422616,6.0615115   L 15.403899,6.0615115   L 15.385183,6.0803361   L 15.385183,6.0991607   L 15.366466,6.0991607   L 15.366466,10.579408   L 15.366466,10.598233   z "
     id="path265" />
  <path
     style="fill:#e2e2cc;fill-rule:evenodd;fill-opacity:1;stroke:#000000;stroke-width:0.018716767px;stroke-linecap:round;stroke-linejoin:round;stroke-miterlimit:4;stroke-dasharray:none;stroke-opacity:1;"
     d="  M 16.302304,9.6005307   L 16.302304,10.014671   L 16.20872,10.014671   L 16.20872,9.6005307   L 16.302304,9.6005307   z "
     id="path267" />
  <path
     style="fill:#e2e2cc;fill-rule:evenodd;fill-opacity:1;stroke:#000000;stroke-width:0.018716767px;stroke-linecap:round;stroke-linejoin:round;stroke-miterlimit:4;stroke-dasharray:none;stroke-opacity:1;"
     d="  M 16.302304,8.6593022   L 16.302304,9.0734427   L 16.20872,9.0734427   L 16.20872,8.6593022   L 16.302304,8.6593022   z "
     id="path269" />
  <path
     style="fill:#e2e2cc;fill-rule:evenodd;fill-opacity:1;stroke:#000000;stroke-width:0.018716767px;stroke-linecap:round;stroke-linejoin:round;stroke-miterlimit:4;stroke-dasharray:none;stroke-opacity:1;"
     d="  M 16.302304,7.7368983   L 16.302304,8.1510388   L 16.20872,8.1510388   L 16.20872,7.7368983   L 16.302304,7.7368983   z "
     id="path271" />
  <path
     style="fill:#e2e2cc;fill-rule:evenodd;fill-opacity:1;stroke:#000000;stroke-width:0.018716767px;stroke-linecap:round;stroke-linejoin:round;stroke-miterlimit:4;stroke-dasharray:none;stroke-opacity:1;"
     d="  M 16.302304,6.7768452   L 16.302304,7.1909857   L 16.20872,7.1909857   L 16.20872,6.7768452   L 16.302304,6.7768452   z "
     id="path273" />
  <path
     style="fill:#7f7f7f;fill-rule:evenodd;fill-opacity:1;stroke:#000000;stroke-width:0.018716767px;stroke-linecap:round;stroke-linejoin:round;stroke-miterlimit:4;stroke-dasharray:none;stroke-opacity:1;"
     d="  M 15.722084,6.3250555   L 15.684651,6.3250555   L 15.647217,6.3438801   L 15.628501,6.3815292   L 15.628501,10.372338   L 15.647217,10.409987   L 15.684651,10.428812   L 16.15257,10.428812   L 16.190004,10.409987   L 16.20872,10.372338   L 16.20872,6.3815292   L 16.190004,6.3438801   L 16.15257,6.3250555   L 16.115136,6.3250555   L 15.722084,6.3250555   z "
     id="path275" />
  <path
     style="fill:#999999;fill-rule:evenodd;fill-opacity:1;stroke:#999999;stroke-width:0.018716767px;stroke-linecap:round;stroke-linejoin:round;stroke-miterlimit:4;stroke-dasharray:none;stroke-opacity:1;"
     d="  M 15.909252,6.4756521   L 15.834385,6.4944767   L 15.759518,6.5697749   L 15.740801,6.6450732   L 15.740801,10.108794   L 15.759518,10.184092   L 15.834385,10.259391   L 15.909252,10.278215   L 15.984119,10.259391   L 16.058986,10.184092   L 16.077703,10.108794   L 16.077703,6.6450732   L 16.058986,6.5697749   L 15.984119,6.4944767   L 15.909252,6.4756521   z "
     id="path277" />
  <path
     style="fill:#bfbfbf;fill-rule:evenodd;fill-opacity:1;stroke:#7f7f7f;stroke-width:0.025376685px;stroke-linecap:round;stroke-linejoin:round;stroke-miterlimit:4;stroke-dasharray:none;stroke-opacity:1;"
     d="  M 10.785091,9.539428   L 10.785091,9.4616609   L 10.810468,9.4616609   L 10.810468,9.4098162   L 10.835845,9.3838938   L 10.835845,9.3579715   L 10.861221,9.3579715   L 10.861221,9.3320491   L 10.886598,9.3320491   L 10.886598,9.3061268   L 10.911975,9.3061268   L 10.937351,9.2802044   L 10.962728,9.2802044   L 10.988105,9.2542821   L 13.525773,9.2542821   L 13.55115,9.2802044   L 13.576527,9.2802044   L 13.601903,9.3061268   L 13.62728,9.3061268   L 13.62728,9.3320491   L 13.652657,9.3320491   L 13.652657,9.3579715   L 13.678033,9.3579715   L 13.678033,9.3838938   L 13.70341,9.4098162   L 13.70341,9.4616609   L 13.728787,9.4616609   L 13.728787,10.00603   L 13.525773,10.213409   L 13.525773,10.628167   L 13.500397,10.654089   L 13.500397,10.680012   L 13.47502,10.680012   L 13.47502,10.705934   L 13.449643,10.705934   L 13.449643,10.731857   L 13.424266,10.731857   L 13.424266,10.757779   L 13.373513,10.757779   L 13.373513,10.783701   L 11.140365,10.783701   L 11.140365,10.757779   L 11.089611,10.757779   L 11.089611,10.731857   L 11.064235,10.731857   L 11.064235,10.705934   L 11.038858,10.705934   L 11.038858,10.680012   L 11.013481,10.680012   L 11.013481,10.654089   L 10.988105,10.628167   L 10.988105,10.213409   L 10.785091,10.00603   L 10.785091,9.5653504   L 10.785091,9.539428   z "
     id="path279" />
  <path
     style="fill:#161616;fill-rule:evenodd;fill-opacity:1;stroke:#000000;stroke-width:0.025376685px;stroke-linecap:round;stroke-linejoin:round;stroke-miterlimit:4;stroke-dasharray:none;stroke-opacity:1;"
     d="  M 13.62728,9.9801081   L 13.424266,10.187487   L 13.424266,10.576322   L 13.39889,10.602245   L 13.39889,10.628167   L 13.373513,10.628167   L 13.348136,10.654089   L 13.32276,10.654089   L 13.297383,10.680012   L 11.216495,10.680012   L 11.216495,10.654089   L 11.165741,10.654089   L 11.140365,10.628167   L 11.114988,10.628167   L 11.114988,10.602245   L 11.089611,10.576322   L 11.089611,10.187487   L 10.886598,9.9801081   L 10.886598,9.539428   L 10.911975,9.539428   L 10.911975,9.4875833   L 10.937351,9.4875833   L 10.937351,9.4357386   L 10.962728,9.4357386   L 10.962728,9.4098162   L 11.013481,9.4098162   L 11.013481,9.3838938   L 11.038858,9.3838938   L 11.064235,9.3579715   L 13.449643,9.3579715   L 13.47502,9.3838938   L 13.500397,9.3838938   L 13.500397,9.4098162   L 13.55115,9.4098162   L 13.55115,9.4357386   L 13.576527,9.4357386   L 13.576527,9.4875833   L 13.601903,9.4875833   L 13.601903,9.539428   L 13.62728,9.539428   L 13.62728,9.9541857   L 13.62728,9.9801081   z "
     id="path281" />
  <path
     style="fill:#cccccc;fill-rule:evenodd;fill-opacity:1;stroke:#000000;stroke-width:0.025376685px;stroke-linecap:round;stroke-linejoin:round;stroke-miterlimit:4;stroke-dasharray:none;stroke-opacity:1;"
     d="  M 13.24663,10.083798   L 13.24663,10.031953   L 13.221253,9.9801081   L 13.1705,9.9541857   L 11.368755,9.9541857   L 11.318002,9.9801081   L 11.292625,10.031953   L 11.292625,10.446711   L 11.318002,10.498555   L 11.368755,10.524478   L 13.1705,10.524478   L 13.221253,10.498555   L 13.24663,10.446711   L 13.24663,10.394866   L 13.24663,10.083798   z "
     id="path283" />
  <path
     style="fill:#d6d6b1;fill-rule:evenodd;fill-opacity:1;stroke:#000000;stroke-width:0.025376685px;stroke-linecap:round;stroke-linejoin:round;stroke-miterlimit:4;stroke-dasharray:none;stroke-opacity:1;"
     d="  M 11.749405,9.8764187   L 11.495638,9.8764187   L 11.495638,9.9541857   L 11.749405,9.9541857   L 11.749405,9.8764187   z "
     id="path285" />
  <path
     style="fill:#d6d6b1;fill-rule:evenodd;fill-opacity:1;stroke:#000000;stroke-width:0.025376685px;stroke-linecap:round;stroke-linejoin:round;stroke-miterlimit:4;stroke-dasharray:none;stroke-opacity:1;"
     d="  M 12.155432,9.8764187   L 11.901665,9.8764187   L 11.901665,9.9541857   L 12.155432,9.9541857   L 12.155432,9.8764187   z "
     id="path287" />
  <path
     style="fill:#d6d6b1;fill-rule:evenodd;fill-opacity:1;stroke:#000000;stroke-width:0.025376685px;stroke-linecap:round;stroke-linejoin:round;stroke-miterlimit:4;stroke-dasharray:none;stroke-opacity:1;"
     d="  M 12.586836,9.8764187   L 12.333069,9.8764187   L 12.333069,9.9541857   L 12.586836,9.9541857   L 12.586836,9.8764187   z "
     id="path289" />
  <path
     style="fill:#d6d6b1;fill-rule:evenodd;fill-opacity:1;stroke:#000000;stroke-width:0.025376685px;stroke-linecap:round;stroke-linejoin:round;stroke-miterlimit:4;stroke-dasharray:none;stroke-opacity:1;"
     d="  M 12.992863,9.8764187   L 12.739096,9.8764187   L 12.739096,9.9541857   L 12.992863,9.9541857   L 12.992863,9.8764187   z "
     id="path291" />
  <path
     style="fill:#000000;fill-rule:evenodd;fill-opacity:1;stroke:#000000;stroke-width:0.018453151px;stroke-linecap:round;stroke-linejoin:round;stroke-miterlimit:4;stroke-dasharray:none;stroke-opacity:1;"
     d="  M 9.1712159,4.4379419   L 9.1712159,10.80461   L 6.5877748,10.80461   L 6.5877748,4.4379419   L 7.0860099,4.4379419   L 7.0860099,4.9435302   L 8.6729808,4.9435302   L 8.6729808,4.4379419   L 9.1712159,4.4379419   z "
     id="path293" />
  <path
     style="fill:#666666;fill-rule:evenodd;fill-opacity:1;stroke:#000000;stroke-width:0.018453151px;stroke-linecap:round;stroke-linejoin:round;stroke-miterlimit:4;stroke-dasharray:none;stroke-opacity:1;"
     d="  M 9.0974033,5.1307852   L 6.6615874,5.1307852   L 6.6615874,10.710982   L 9.0974033,10.710982   L 9.0974033,5.1307852   z "
     id="path295" />
  <path
     style="fill:#000000;fill-rule:evenodd;fill-opacity:1;stroke:#000000;stroke-width:0.018453151px;stroke-linecap:round;stroke-linejoin:round;stroke-miterlimit:4;stroke-dasharray:none;stroke-opacity:1;"
     d="  M 8.8390592,8.1455896   L 6.9199315,8.1455896   L 6.9199315,10.093041   L 8.8390592,10.093041   L 8.8390592,8.1455896   z "
     id="path297" />
  <ellipse
     style="fill:#bfbfbf;fill-rule:evenodd;fill-opacity:1;stroke:#000000;stroke-width:0.018453151px;stroke-linecap:round;stroke-linejoin:round;stroke-miterlimit:4;stroke-dasharray:none;stroke-opacity:1;"
     cx="7.7964562"
     cy="9.0444133"
     rx="0.15685178"
     ry="0.16607836"
     id="ellipse299" />
  <ellipse
     style="fill:none;stroke:#000000;stroke-width:0.018453151px;stroke-linecap:round;stroke-linejoin:round;stroke-miterlimit:4;stroke-dasharray:none;stroke-opacity:1;"
     cx="7.7964562"
     cy="9.0444133"
     rx="0.15685178"
     ry="0.16607836"
     id="ellipse301" />
  <path
     style="fill:#000000;fill-rule:evenodd;fill-opacity:1;stroke:#000000;stroke-width:0.018453151px;stroke-linecap:round;stroke-linejoin:round;stroke-miterlimit:4;stroke-dasharray:none;stroke-opacity:1;"
     d="  M 8.8390592,5.7861774   L 6.9199315,5.7861774   L 6.9199315,7.2467659   L 7.3997134,7.7336287   L 8.3961836,7.7336287   L 8.8390592,7.2842169   L 8.8390592,5.7861774   z "
     id="path303" />
  <ellipse
     style="fill:#bfbfbf;fill-rule:evenodd;fill-opacity:1;stroke:#000000;stroke-width:0.018453151px;stroke-linecap:round;stroke-linejoin:round;stroke-miterlimit:4;stroke-dasharray:none;stroke-opacity:1;"
     cx="7.7964562"
     cy="6.6850011"
     rx="0.15685178"
     ry="0.16607836"
     id="ellipse305" />
  <ellipse
     style="fill:none;stroke:#000000;stroke-width:0.018453151px;stroke-linecap:round;stroke-linejoin:round;stroke-miterlimit:4;stroke-dasharray:none;stroke-opacity:1;"
     cx="7.7964562"
     cy="6.6850011"
     rx="0.15685178"
     ry="0.16607836"
     id="ellipse307" />
  <ellipse
     style="fill:#666666;fill-rule:evenodd;fill-opacity:1;stroke:#000000;stroke-width:0.034318026px;stroke-linecap:round;stroke-linejoin:round;stroke-miterlimit:4;stroke-dasharray:none;stroke-opacity:1;"
     cx="6.0571317"
     cy="2.0898014"
     rx="1.1153359"
     ry="1.1153359"
     id="ellipse309" />
  <ellipse
     style="fill:none;stroke:#000000;stroke-width:0.034318026px;stroke-linecap:round;stroke-linejoin:round;stroke-miterlimit:4;stroke-dasharray:none;stroke-opacity:1;"
     cx="6.0571317"
     cy="2.0898014"
     rx="1.1153359"
     ry="1.1153359"
     id="ellipse311" />
  <ellipse
     style="fill:#cccc9b;fill-rule:evenodd;fill-opacity:1;stroke:#000000;stroke-width:0.034318026px;stroke-linecap:round;stroke-linejoin:round;stroke-miterlimit:4;stroke-dasharray:none;stroke-opacity:1;"
     cx="6.0571317"
     cy="2.1070725"
     rx="1.0123818"
     ry="1.0295408"
     id="ellipse313" />
  <ellipse
     style="fill:none;stroke:#cccc9b;stroke-width:0.034318026px;stroke-linecap:round;stroke-linejoin:round;stroke-miterlimit:4;stroke-dasharray:none;stroke-opacity:1;"
     cx="6.0571317"
     cy="2.1070725"
     rx="1.0123818"
     ry="1.0295408"
     id="ellipse315" />
  <path
     style="fill:#494949;fill-rule:evenodd;fill-opacity:1;stroke:#161616;stroke-width:0.034318026px;stroke-linecap:round;stroke-linejoin:round;stroke-miterlimit:4;stroke-dasharray:none;stroke-opacity:1;"
     d="  M 5.2849761,2.003446   L 5.2506581,2.003446   L 5.2163401,2.0379882   L 5.2163401,2.0725303   L 5.182022,2.0725303   L 5.182022,2.2797834   L 5.2163401,2.2797834   L 5.2163401,2.3143255   L 5.2506581,2.3488677   L 5.9713366,2.3488677   L 5.9713366,3.1087955   L 6.0056547,3.1087955   L 6.0056547,3.1433377   L 6.0399727,3.1433377   L 6.0399727,3.1778798   L 6.2458809,3.1778798   L 6.2458809,3.1433377   L 6.2801989,3.1433377   L 6.2801989,3.1087955   L 6.3145169,3.1087955   L 6.3145169,2.3488677   L 7.0695135,2.3488677   L 7.0695135,2.3143255   L 7.1038315,2.3143255   L 7.1038315,2.2797834   L 7.1381496,2.2797834   L 7.1381496,2.0725303   L 7.1038315,2.0725303   L 7.1038315,2.0379882   L 7.0695135,2.0379882   L 7.0695135,2.003446   L 6.3145169,2.003446   L 6.3145169,1.2780604   L 6.2801989,1.2435182   L 6.2458809,1.2435182   L 6.2458809,1.208976   L 6.0399727,1.208976   L 6.0399727,1.2435182   L 6.0056547,1.2435182   L 5.9713366,1.2780604   L 5.9713366,2.003446   L 5.3192941,2.003446   L 5.2849761,2.003446   z "
     id="path317" />
  <path
     style="fill:none;stroke:#bfbfbf;stroke-width:0.034318026px;stroke-linecap:round;stroke-linejoin:round;stroke-miterlimit:4;stroke-dasharray:none;stroke-opacity:1;"
     d="  M 5.147704,2.1070725   L 5.147704,2.2797834   L 5.182022,2.3143255   L 5.2163401,2.3143255   L 5.2163401,2.3488677   L 5.9713366,2.3488677   L 5.9713366,3.1433377   L 6.0056547,3.1778798   L 6.0399727,3.1778798   L 6.0399727,3.212422   L 6.1429268,3.212422   L 6.1772448,3.212422  "
     id="path319" />
  <path
     style="fill:none;stroke:#bfbfbf;stroke-width:0.034318026px;stroke-linecap:round;stroke-linejoin:round;stroke-miterlimit:4;stroke-dasharray:none;stroke-opacity:1;"
     d="  M 5.9713366,1.2780604   L 5.9713366,1.9689038   L 5.9713366,2.003446  "
     id="path321" />
  <path
     style="fill:none;stroke:none;"
     d="  M 12.540234,2.0380734   L 12.053598,2.0380734   L 12.053598,2.5300222   L 12.540234,2.5300222   L 12.540234,2.0380734  "
     id="path323" />
  <path
     style="fill:none;stroke:none;"
     d="  M 70.487345,2.0380734   L 70.000709,2.0380734   L 70.000709,2.5300222   L 70.487345,2.5300222   L 70.487345,2.0380734  "
     id="path325" />
</svg>
