<?xml version="1.0" encoding="UTF-8" standalone="no"?>
<svg
   version="1.0"
   width="21.620001mm"
   height="4.3600001mm"
   id="svg365"
   xmlns="http://www.w3.org/2000/svg"
   xmlns:svg="http://www.w3.org/2000/svg">
  <defs
     id="defs3">
    <pattern
       id="EMFhbasepattern"
       patternUnits="userSpaceOnUse"
       width="6"
       height="6"
       x="0"
       y="0" />
  </defs>
  <path
     style="fill:#eaeaea;fill-rule:evenodd;fill-opacity:1;stroke:#000000;stroke-width:0.09356422px;stroke-linecap:round;stroke-linejoin:round;stroke-miterlimit:4;stroke-dasharray:none;stroke-opacity:1;"
     d="  M 2.9392655,12.56157   M 2.2465723,13.725015   M 2.4712296,13.943161   M 2.4712296,13.943161   M 2.7146082,14.179486   M 81.475724,0.037517126   L 0.037425689,0.037517126   L 0.037425689,16.394984   L 81.475724,16.394984   L 81.475724,0.037517126   z "
     id="path5" />
  <path
     style="fill:none;stroke:#000000;stroke-width:0.018712845px;stroke-linecap:round;stroke-linejoin:round;stroke-miterlimit:4;stroke-dasharray:none;stroke-opacity:1;"
     d="  M 0.59881102,1.8383392   L 0.074851377,1.8383392   L 0.074851377,10.917484   L 0.59881102,10.917484   L 0.59881102,1.8383392  "
     id="path7" />
  <path
     style="fill:none;stroke:#000000;stroke-width:0.018712845px;stroke-linecap:round;stroke-linejoin:round;stroke-miterlimit:4;stroke-dasharray:none;stroke-opacity:1;"
     d="  M 81.438298,1.8383392   L 80.914339,1.8383392   L 80.914339,10.917484   L 81.438298,10.917484   L 81.438298,1.8383392  "
     id="path9" />
  <path
     style="fill:#dddddd;fill-rule:evenodd;fill-opacity:1;stroke:#000000;stroke-width:0.018712845px;stroke-linecap:round;stroke-linejoin:round;stroke-miterlimit:4;stroke-dasharray:none;stroke-opacity:1;"
     d="  M 77.190483,2.6449574   L 34.637475,2.6449574   L 34.637475,13.337338   L 77.190483,13.337338   L 77.190483,2.6449574   z "
     id="path11" />
  <path
     style="fill:#161616;fill-rule:evenodd;fill-opacity:1;stroke:#000000;stroke-width:0.018712845px;stroke-linecap:round;stroke-linejoin:round;stroke-miterlimit:4;stroke-dasharray:none;stroke-opacity:1;"
     d="  M 9.8803818,6.5279799   L 6.9986038,6.5279799   L 6.9986038,13.18727   L 9.8803818,13.18727   L 9.8803818,6.5279799   z "
     id="path13" />
  <ellipse
     style="fill:#000000;fill-rule:evenodd;fill-opacity:1;stroke:#000000;stroke-width:0.018712845px;stroke-linecap:round;stroke-linejoin:round;stroke-miterlimit:4;stroke-dasharray:none;stroke-opacity:1;"
     cx="15.026414"
     cy="14.106439"
     rx="0.26197982"
     ry="0.26197982"
     id="ellipse15" />
  <ellipse
     style="fill:none;stroke:#000000;stroke-width:0.018712845px;stroke-linecap:round;stroke-linejoin:round;stroke-miterlimit:4;stroke-dasharray:none;stroke-opacity:1;"
     cx="15.026414"
     cy="14.106439"
     rx="0.26197982"
     ry="0.26197982"
     id="ellipse17" />
  <path
     style="fill:#494949;fill-rule:evenodd;fill-opacity:1;stroke:#000000;stroke-width:0.018712845px;stroke-linecap:round;stroke-linejoin:round;stroke-miterlimit:4;stroke-dasharray:none;stroke-opacity:1;"
     d="  M 8.5704827,7.5221837   L 8.3085029,7.5221837   L 8.3085029,8.1599748   L 8.5704827,8.1599748   L 8.5704827,7.5221837   z "
     id="path19" />
  <path
     style="fill:#bfbfbf;fill-rule:evenodd;fill-opacity:1;stroke:#000000;stroke-width:0.018712845px;stroke-linecap:round;stroke-linejoin:round;stroke-miterlimit:4;stroke-dasharray:none;stroke-opacity:1;"
     d="  M 76.25484,7.9911478   L 76.25484,7.9161135   L 76.179989,7.766045   L 76.142563,7.7097693   L 76.067712,7.6534936   L 76.011573,7.6159765   L 75.918009,7.5784594   L 35.535691,7.5784594   L 35.385989,7.6534936   L 35.273711,7.766045   L 35.19886,7.9161135   L 35.19886,8.066182   L 35.236286,8.1599748   L 35.273711,8.2162505   L 35.32985,8.2912848   L 35.385989,8.3288019   L 35.535691,8.4038362   L 75.918009,8.4038362   L 76.011573,8.366319   L 76.067712,8.3288019   L 76.142563,8.2912848   L 76.179989,8.2162505   L 76.217415,8.1599748   L 76.25484,8.066182   L 76.25484,7.9911478   z "
     id="path21" />
  <path
     style="fill:#7f7f7f;fill-rule:evenodd;fill-opacity:1;stroke:#000000;stroke-width:0.018712845px;stroke-linecap:round;stroke-linejoin:round;stroke-miterlimit:4;stroke-dasharray:none;stroke-opacity:1;"
     d="  M 32.841042,3.7141954   L 32.822329,3.6204026   L 32.803616,3.5078513   L 32.691339,3.3577827   L 32.541636,3.2452314   L 32.429359,3.2264728   L 32.335795,3.2077142   L 32.242231,3.2264728   L 32.129954,3.2452314   L 31.980251,3.3577827   L 31.867974,3.5078513   L 31.849261,3.6204026   L 31.830548,3.7141954   L 31.830548,4.8584678   L 31.849261,4.9522606   L 31.867974,5.064812   L 31.980251,5.2148805   L 32.129954,5.3274318   L 32.242231,5.3461904   L 32.335795,5.364949   L 32.429359,5.3461904   L 32.541636,5.3274318   L 32.691339,5.2148805   L 32.803616,5.064812   L 32.822329,4.9522606   L 32.841042,4.8584678   L 32.841042,3.7141954   z "
     id="path23" />
  <path
     style="fill:#7f7f7f;fill-rule:evenodd;fill-opacity:1;stroke:#000000;stroke-width:0.018712845px;stroke-linecap:round;stroke-linejoin:round;stroke-miterlimit:4;stroke-dasharray:none;stroke-opacity:1;"
     d="  M 32.841042,6.3216357   L 32.822329,6.2278429   L 32.803616,6.1152915   L 32.691339,5.965223   L 32.541636,5.8526716   L 32.429359,5.833913   L 32.335795,5.8151545   L 32.242231,5.833913   L 32.129954,5.8526716   L 31.980251,5.965223   L 31.867974,6.1152915   L 31.849261,6.2278429   L 31.830548,6.3216357   L 31.830548,7.465908   L 31.849261,7.5597008   L 31.867974,7.6722522   L 31.980251,7.8223207   L 32.129954,7.9348721   L 32.242231,7.9536306   L 32.335795,7.9723892   L 32.429359,7.9536306   L 32.541636,7.9348721   L 32.691339,7.8223207   L 32.803616,7.6722522   L 32.822329,7.5597008   L 32.841042,7.465908   L 32.841042,6.3216357   z "
     id="path25" />
  <path
     style="fill:#7f7f7f;fill-rule:evenodd;fill-opacity:1;stroke:#000000;stroke-width:0.018712845px;stroke-linecap:round;stroke-linejoin:round;stroke-miterlimit:4;stroke-dasharray:none;stroke-opacity:1;"
     d="  M 32.841042,11.555275   L 32.822329,11.461482   L 32.803616,11.348931   L 32.691339,11.198862   L 32.541636,11.086311   L 32.429359,11.067552   L 32.335795,11.048794   L 32.242231,11.067552   L 32.129954,11.086311   L 31.980251,11.198862   L 31.867974,11.348931   L 31.849261,11.461482   L 31.830548,11.555275   L 31.830548,12.699547   L 31.849261,12.79334   L 31.867974,12.905891   L 31.980251,13.05596   L 32.129954,13.168511   L 32.242231,13.18727   L 32.335795,13.206028   L 32.429359,13.18727   L 32.541636,13.168511   L 32.691339,13.05596   L 32.803616,12.905891   L 32.822329,12.79334   L 32.841042,12.699547   L 32.841042,11.555275   z "
     id="path27" />
  <path
     style="fill:#7f7f7f;fill-rule:evenodd;fill-opacity:1;stroke:#000000;stroke-width:0.018712845px;stroke-linecap:round;stroke-linejoin:round;stroke-miterlimit:4;stroke-dasharray:none;stroke-opacity:1;"
     d="  M 32.841042,8.9478345   L 32.822329,8.8540417   L 32.803616,8.7414903   L 32.691339,8.5914218   L 32.541636,8.4788704   L 32.429359,8.4601118   L 32.335795,8.4413533   L 32.242231,8.4601118   L 32.129954,8.4788704   L 31.980251,8.5914218   L 31.867974,8.7414903   L 31.849261,8.8540417   L 31.830548,8.9478345   L 31.830548,10.092107   L 31.849261,10.1859   L 31.867974,10.298451   L 31.980251,10.44852   L 32.129954,10.561071   L 32.242231,10.579829   L 32.335795,10.598588   L 32.429359,10.579829   L 32.541636,10.561071   L 32.691339,10.44852   L 32.803616,10.298451   L 32.822329,10.1859   L 32.841042,10.092107   L 32.841042,8.9478345   z "
     id="path29" />
  <path
     style="fill:#7f7f7f;fill-rule:evenodd;fill-opacity:1;stroke:#000000;stroke-width:0.018712845px;stroke-linecap:round;stroke-linejoin:round;stroke-miterlimit:4;stroke-dasharray:none;stroke-opacity:1;"
     d="  M 31.344014,1.1255138   L 31.325301,1.031721   L 31.306588,0.91916958   L 31.194311,0.76910108   L 31.044609,0.6565497   L 30.932332,0.63779114   L 30.838767,0.61903257   L 30.745203,0.63779114   L 30.632926,0.6565497   L 30.483223,0.76910108   L 30.370946,0.91916958   L 30.352233,1.031721   L 30.333521,1.1255138   L 30.333521,2.2697861   L 30.352233,2.3635789   L 30.370946,2.4761303   L 30.483223,2.6261988   L 30.632926,2.7387502   L 30.745203,2.7575087   L 30.838767,2.7762673   L 30.932332,2.7575087   L 31.044609,2.7387502   L 31.194311,2.6261988   L 31.306588,2.4761303   L 31.325301,2.3635789   L 31.344014,2.2697861   L 31.344014,1.1255138   z "
     id="path31" />
  <path
     style="fill:#7f7f7f;fill-rule:evenodd;fill-opacity:1;stroke:#000000;stroke-width:0.018712845px;stroke-linecap:round;stroke-linejoin:round;stroke-miterlimit:4;stroke-dasharray:none;stroke-opacity:1;"
     d="  M 31.344014,3.7141954   L 31.325301,3.6204026   L 31.306588,3.5078513   L 31.194311,3.3577827   L 31.044609,3.2452314   L 30.932332,3.2264728   L 30.838767,3.2077142   L 30.745203,3.2264728   L 30.632926,3.2452314   L 30.483223,3.3577827   L 30.370946,3.5078513   L 30.352233,3.6204026   L 30.333521,3.7141954   L 30.333521,4.8584678   L 30.352233,4.9522606   L 30.370946,5.064812   L 30.483223,5.2148805   L 30.632926,5.3274318   L 30.745203,5.3461904   L 30.838767,5.364949   L 30.932332,5.3461904   L 31.044609,5.3274318   L 31.194311,5.2148805   L 31.306588,5.064812   L 31.325301,4.9522606   L 31.344014,4.8584678   L 31.344014,3.7141954   z "
     id="path33" />
  <path
     style="fill:#7f7f7f;fill-rule:evenodd;fill-opacity:1;stroke:#000000;stroke-width:0.018712845px;stroke-linecap:round;stroke-linejoin:round;stroke-miterlimit:4;stroke-dasharray:none;stroke-opacity:1;"
     d="  M 31.344014,6.3216357   L 31.325301,6.2278429   L 31.306588,6.1152915   L 31.194311,5.965223   L 31.044609,5.8526716   L 30.932332,5.833913   L 30.838767,5.8151545   L 30.745203,5.833913   L 30.632926,5.8526716   L 30.483223,5.965223   L 30.370946,6.1152915   L 30.352233,6.2278429   L 30.333521,6.3216357   L 30.333521,7.465908   L 30.352233,7.5597008   L 30.370946,7.6722522   L 30.483223,7.8223207   L 30.632926,7.9348721   L 30.745203,7.9536306   L 30.838767,7.9723892   L 30.932332,7.9536306   L 31.044609,7.9348721   L 31.194311,7.8223207   L 31.306588,7.6722522   L 31.325301,7.5597008   L 31.344014,7.465908   L 31.344014,6.3216357   z "
     id="path35" />
  <path
     style="fill:#7f7f7f;fill-rule:evenodd;fill-opacity:1;stroke:#000000;stroke-width:0.018712845px;stroke-linecap:round;stroke-linejoin:round;stroke-miterlimit:4;stroke-dasharray:none;stroke-opacity:1;"
     d="  M 31.344014,11.555275   L 31.325301,11.461482   L 31.306588,11.348931   L 31.194311,11.198862   L 31.044609,11.086311   L 30.932332,11.067552   L 30.838767,11.048794   L 30.745203,11.067552   L 30.632926,11.086311   L 30.483223,11.198862   L 30.370946,11.348931   L 30.352233,11.461482   L 30.333521,11.555275   L 30.333521,12.699547   L 30.352233,12.79334   L 30.370946,12.905891   L 30.483223,13.05596   L 30.632926,13.168511   L 30.745203,13.18727   L 30.838767,13.206028   L 30.932332,13.18727   L 31.044609,13.168511   L 31.194311,13.05596   L 31.306588,12.905891   L 31.325301,12.79334   L 31.344014,12.699547   L 31.344014,11.555275   z "
     id="path37" />
  <path
     style="fill:#7f7f7f;fill-rule:evenodd;fill-opacity:1;stroke:#000000;stroke-width:0.018712845px;stroke-linecap:round;stroke-linejoin:round;stroke-miterlimit:4;stroke-dasharray:none;stroke-opacity:1;"
     d="  M 31.344014,14.181474   L 31.325301,14.087681   L 31.306588,13.975129   L 31.194311,13.825061   L 31.044609,13.712509   L 30.932332,13.693751   L 30.838767,13.674992   L 30.745203,13.693751   L 30.632926,13.712509   L 30.483223,13.825061   L 30.370946,13.975129   L 30.352233,14.087681   L 30.333521,14.181474   L 30.333521,15.325746   L 30.352233,15.419539   L 30.370946,15.53209   L 30.483223,15.682159   L 30.632926,15.79471   L 30.745203,15.813468   L 30.838767,15.832227   L 30.932332,15.813468   L 31.044609,15.79471   L 31.194311,15.682159   L 31.306588,15.53209   L 31.325301,15.419539   L 31.344014,15.325746   L 31.344014,14.181474   z "
     id="path39" />
  <path
     style="fill:#7f7f7f;fill-rule:evenodd;fill-opacity:1;stroke:#000000;stroke-width:0.018712845px;stroke-linecap:round;stroke-linejoin:round;stroke-miterlimit:4;stroke-dasharray:none;stroke-opacity:1;"
     d="  M 31.344014,8.9478345   L 31.325301,8.8540417   L 31.306588,8.7414903   L 31.194311,8.5914218   L 31.044609,8.4788704   L 30.932332,8.4601118   L 30.838767,8.4413533   L 30.745203,8.4601118   L 30.632926,8.4788704   L 30.483223,8.5914218   L 30.370946,8.7414903   L 30.352233,8.8540417   L 30.333521,8.9478345   L 30.333521,10.092107   L 30.352233,10.1859   L 30.370946,10.298451   L 30.483223,10.44852   L 30.632926,10.561071   L 30.745203,10.579829   L 30.838767,10.598588   L 30.932332,10.579829   L 31.044609,10.561071   L 31.194311,10.44852   L 31.306588,10.298451   L 31.325301,10.1859   L 31.344014,10.092107   L 31.344014,8.9478345   z "
     id="path41" />
  <path
     style="fill:#7f7f7f;fill-rule:evenodd;fill-opacity:1;stroke:#000000;stroke-width:0.018712845px;stroke-linecap:round;stroke-linejoin:round;stroke-miterlimit:4;stroke-dasharray:none;stroke-opacity:1;"
     d="  M 29.846987,1.1255138   L 29.828274,1.031721   L 29.809561,0.91916958   L 29.697284,0.76910108   L 29.547581,0.6565497   L 29.435304,0.63779114   L 29.34174,0.61903257   L 29.248176,0.63779114   L 29.135899,0.6565497   L 28.986196,0.76910108   L 28.873919,0.91916958   L 28.855206,1.031721   L 28.836493,1.1255138   L 28.836493,2.2697861   L 28.855206,2.3635789   L 28.873919,2.4761303   L 28.986196,2.6261988   L 29.135899,2.7387502   L 29.248176,2.7575087   L 29.34174,2.7762673   L 29.435304,2.7575087   L 29.547581,2.7387502   L 29.697284,2.6261988   L 29.809561,2.4761303   L 29.828274,2.3635789   L 29.846987,2.2697861   L 29.846987,1.1255138   z "
     id="path43" />
  <path
     style="fill:#7f7f7f;fill-rule:evenodd;fill-opacity:1;stroke:#000000;stroke-width:0.018712845px;stroke-linecap:round;stroke-linejoin:round;stroke-miterlimit:4;stroke-dasharray:none;stroke-opacity:1;"
     d="  M 29.846987,3.7141954   L 29.828274,3.6204026   L 29.809561,3.5078513   L 29.697284,3.3577827   L 29.547581,3.2452314   L 29.435304,3.2264728   L 29.34174,3.2077142   L 29.248176,3.2264728   L 29.135899,3.2452314   L 28.986196,3.3577827   L 28.873919,3.5078513   L 28.855206,3.6204026   L 28.836493,3.7141954   L 28.836493,4.8584678   L 28.855206,4.9522606   L 28.873919,5.064812   L 28.986196,5.2148805   L 29.135899,5.3274318   L 29.248176,5.3461904   L 29.34174,5.364949   L 29.435304,5.3461904   L 29.547581,5.3274318   L 29.697284,5.2148805   L 29.809561,5.064812   L 29.828274,4.9522606   L 29.846987,4.8584678   L 29.846987,3.7141954   z "
     id="path45" />
  <path
     style="fill:#7f7f7f;fill-rule:evenodd;fill-opacity:1;stroke:#000000;stroke-width:0.018712845px;stroke-linecap:round;stroke-linejoin:round;stroke-miterlimit:4;stroke-dasharray:none;stroke-opacity:1;"
     d="  M 29.846987,6.3216357   L 29.828274,6.2278429   L 29.809561,6.1152915   L 29.697284,5.965223   L 29.547581,5.8526716   L 29.435304,5.833913   L 29.34174,5.8151545   L 29.248176,5.833913   L 29.135899,5.8526716   L 28.986196,5.965223   L 28.873919,6.1152915   L 28.855206,6.2278429   L 28.836493,6.3216357   L 28.836493,7.465908   L 28.855206,7.5597008   L 28.873919,7.6722522   L 28.986196,7.8223207   L 29.135899,7.9348721   L 29.248176,7.9536306   L 29.34174,7.9723892   L 29.435304,7.9536306   L 29.547581,7.9348721   L 29.697284,7.8223207   L 29.809561,7.6722522   L 29.828274,7.5597008   L 29.846987,7.465908   L 29.846987,6.3216357   z "
     id="path47" />
  <path
     style="fill:#7f7f7f;fill-rule:evenodd;fill-opacity:1;stroke:#000000;stroke-width:0.018712845px;stroke-linecap:round;stroke-linejoin:round;stroke-miterlimit:4;stroke-dasharray:none;stroke-opacity:1;"
     d="  M 29.846987,11.555275   L 29.828274,11.461482   L 29.809561,11.348931   L 29.697284,11.198862   L 29.547581,11.086311   L 29.435304,11.067552   L 29.34174,11.048794   L 29.248176,11.067552   L 29.135899,11.086311   L 28.986196,11.198862   L 28.873919,11.348931   L 28.855206,11.461482   L 28.836493,11.555275   L 28.836493,12.699547   L 28.855206,12.79334   L 28.873919,12.905891   L 28.986196,13.05596   L 29.135899,13.168511   L 29.248176,13.18727   L 29.34174,13.206028   L 29.435304,13.18727   L 29.547581,13.168511   L 29.697284,13.05596   L 29.809561,12.905891   L 29.828274,12.79334   L 29.846987,12.699547   L 29.846987,11.555275   z "
     id="path49" />
  <path
     style="fill:#7f7f7f;fill-rule:evenodd;fill-opacity:1;stroke:#000000;stroke-width:0.018712845px;stroke-linecap:round;stroke-linejoin:round;stroke-miterlimit:4;stroke-dasharray:none;stroke-opacity:1;"
     d="  M 29.846987,14.181474   L 29.828274,14.087681   L 29.809561,13.975129   L 29.697284,13.825061   L 29.547581,13.712509   L 29.435304,13.693751   L 29.34174,13.674992   L 29.248176,13.693751   L 29.135899,13.712509   L 28.986196,13.825061   L 28.873919,13.975129   L 28.855206,14.087681   L 28.836493,14.181474   L 28.836493,15.325746   L 28.855206,15.419539   L 28.873919,15.53209   L 28.986196,15.682159   L 29.135899,15.79471   L 29.248176,15.813468   L 29.34174,15.832227   L 29.435304,15.813468   L 29.547581,15.79471   L 29.697284,15.682159   L 29.809561,15.53209   L 29.828274,15.419539   L 29.846987,15.325746   L 29.846987,14.181474   z "
     id="path51" />
  <path
     style="fill:#7f7f7f;fill-rule:evenodd;fill-opacity:1;stroke:#000000;stroke-width:0.018712845px;stroke-linecap:round;stroke-linejoin:round;stroke-miterlimit:4;stroke-dasharray:none;stroke-opacity:1;"
     d="  M 29.846987,8.9478345   L 29.828274,8.8540417   L 29.809561,8.7414903   L 29.697284,8.5914218   L 29.547581,8.4788704   L 29.435304,8.4601118   L 29.34174,8.4413533   L 29.248176,8.4601118   L 29.135899,8.4788704   L 28.986196,8.5914218   L 28.873919,8.7414903   L 28.855206,8.8540417   L 28.836493,8.9478345   L 28.836493,10.092107   L 28.855206,10.1859   L 28.873919,10.298451   L 28.986196,10.44852   L 29.135899,10.561071   L 29.248176,10.579829   L 29.34174,10.598588   L 29.435304,10.579829   L 29.547581,10.561071   L 29.697284,10.44852   L 29.809561,10.298451   L 29.828274,10.1859   L 29.846987,10.092107   L 29.846987,8.9478345   z "
     id="path53" />
  <path
     style="fill:#7f7f7f;fill-rule:evenodd;fill-opacity:1;stroke:#000000;stroke-width:0.018712845px;stroke-linecap:round;stroke-linejoin:round;stroke-miterlimit:4;stroke-dasharray:none;stroke-opacity:1;"
     d="  M 28.349959,1.1255138   L 28.331246,1.031721   L 28.312533,0.91916958   L 28.200256,0.76910108   L 28.050554,0.6565497   L 27.938277,0.63779114   L 27.844712,0.61903257   L 27.751148,0.63779114   L 27.638871,0.6565497   L 27.489168,0.76910108   L 27.376891,0.91916958   L 27.358178,1.031721   L 27.339466,1.1255138   L 27.339466,2.2697861   L 27.358178,2.3635789   L 27.376891,2.4761303   L 27.489168,2.6261988   L 27.638871,2.7387502   L 27.751148,2.7575087   L 27.844712,2.7762673   L 27.938277,2.7575087   L 28.050554,2.7387502   L 28.200256,2.6261988   L 28.312533,2.4761303   L 28.331246,2.3635789   L 28.349959,2.2697861   L 28.349959,1.1255138   z "
     id="path55" />
  <path
     style="fill:#7f7f7f;fill-rule:evenodd;fill-opacity:1;stroke:#000000;stroke-width:0.018712845px;stroke-linecap:round;stroke-linejoin:round;stroke-miterlimit:4;stroke-dasharray:none;stroke-opacity:1;"
     d="  M 28.349959,3.7141954   L 28.331246,3.6204026   L 28.312533,3.5078513   L 28.200256,3.3577827   L 28.050554,3.2452314   L 27.938277,3.2264728   L 27.844712,3.2077142   L 27.751148,3.2264728   L 27.638871,3.2452314   L 27.489168,3.3577827   L 27.376891,3.5078513   L 27.358178,3.6204026   L 27.339466,3.7141954   L 27.339466,4.8584678   L 27.358178,4.9522606   L 27.376891,5.064812   L 27.489168,5.2148805   L 27.638871,5.3274318   L 27.751148,5.3461904   L 27.844712,5.364949   L 27.938277,5.3461904   L 28.050554,5.3274318   L 28.200256,5.2148805   L 28.312533,5.064812   L 28.331246,4.9522606   L 28.349959,4.8584678   L 28.349959,3.7141954   z "
     id="path57" />
  <path
     style="fill:#7f7f7f;fill-rule:evenodd;fill-opacity:1;stroke:#000000;stroke-width:0.018712845px;stroke-linecap:round;stroke-linejoin:round;stroke-miterlimit:4;stroke-dasharray:none;stroke-opacity:1;"
     d="  M 28.349959,6.3216357   L 28.331246,6.2278429   L 28.312533,6.1152915   L 28.200256,5.965223   L 28.050554,5.8526716   L 27.938277,5.833913   L 27.844712,5.8151545   L 27.751148,5.833913   L 27.638871,5.8526716   L 27.489168,5.965223   L 27.376891,6.1152915   L 27.358178,6.2278429   L 27.339466,6.3216357   L 27.339466,7.465908   L 27.358178,7.5597008   L 27.376891,7.6722522   L 27.489168,7.8223207   L 27.638871,7.9348721   L 27.751148,7.9536306   L 27.844712,7.9723892   L 27.938277,7.9536306   L 28.050554,7.9348721   L 28.200256,7.8223207   L 28.312533,7.6722522   L 28.331246,7.5597008   L 28.349959,7.465908   L 28.349959,6.3216357   z "
     id="path59" />
  <path
     style="fill:#7f7f7f;fill-rule:evenodd;fill-opacity:1;stroke:#000000;stroke-width:0.018712845px;stroke-linecap:round;stroke-linejoin:round;stroke-miterlimit:4;stroke-dasharray:none;stroke-opacity:1;"
     d="  M 28.349959,11.555275   L 28.331246,11.461482   L 28.312533,11.348931   L 28.200256,11.198862   L 28.050554,11.086311   L 27.938277,11.067552   L 27.844712,11.048794   L 27.751148,11.067552   L 27.638871,11.086311   L 27.489168,11.198862   L 27.376891,11.348931   L 27.358178,11.461482   L 27.339466,11.555275   L 27.339466,12.699547   L 27.358178,12.79334   L 27.376891,12.905891   L 27.489168,13.05596   L 27.638871,13.168511   L 27.751148,13.18727   L 27.844712,13.206028   L 27.938277,13.18727   L 28.050554,13.168511   L 28.200256,13.05596   L 28.312533,12.905891   L 28.331246,12.79334   L 28.349959,12.699547   L 28.349959,11.555275   z "
     id="path61" />
  <path
     style="fill:#7f7f7f;fill-rule:evenodd;fill-opacity:1;stroke:#000000;stroke-width:0.018712845px;stroke-linecap:round;stroke-linejoin:round;stroke-miterlimit:4;stroke-dasharray:none;stroke-opacity:1;"
     d="  M 28.349959,14.181474   L 28.331246,14.087681   L 28.312533,13.975129   L 28.200256,13.825061   L 28.050554,13.712509   L 27.938277,13.693751   L 27.844712,13.674992   L 27.751148,13.693751   L 27.638871,13.712509   L 27.489168,13.825061   L 27.376891,13.975129   L 27.358178,14.087681   L 27.339466,14.181474   L 27.339466,15.325746   L 27.358178,15.419539   L 27.376891,15.53209   L 27.489168,15.682159   L 27.638871,15.79471   L 27.751148,15.813468   L 27.844712,15.832227   L 27.938277,15.813468   L 28.050554,15.79471   L 28.200256,15.682159   L 28.312533,15.53209   L 28.331246,15.419539   L 28.349959,15.325746   L 28.349959,14.181474   z "
     id="path63" />
  <path
     style="fill:#7f7f7f;fill-rule:evenodd;fill-opacity:1;stroke:#000000;stroke-width:0.018712845px;stroke-linecap:round;stroke-linejoin:round;stroke-miterlimit:4;stroke-dasharray:none;stroke-opacity:1;"
     d="  M 28.349959,8.9478345   L 28.331246,8.8540417   L 28.312533,8.7414903   L 28.200256,8.5914218   L 28.050554,8.4788704   L 27.938277,8.4601118   L 27.844712,8.4413533   L 27.751148,8.4601118   L 27.638871,8.4788704   L 27.489168,8.5914218   L 27.376891,8.7414903   L 27.358178,8.8540417   L 27.339466,8.9478345   L 27.339466,10.092107   L 27.358178,10.1859   L 27.376891,10.298451   L 27.489168,10.44852   L 27.638871,10.561071   L 27.751148,10.579829   L 27.844712,10.598588   L 27.938277,10.579829   L 28.050554,10.561071   L 28.200256,10.44852   L 28.312533,10.298451   L 28.331246,10.1859   L 28.349959,10.092107   L 28.349959,8.9478345   z "
     id="path65" />
  <path
     style="fill:#7f7f7f;fill-rule:evenodd;fill-opacity:1;stroke:#000000;stroke-width:0.018712845px;stroke-linecap:round;stroke-linejoin:round;stroke-miterlimit:4;stroke-dasharray:none;stroke-opacity:1;"
     d="  M 26.852932,1.1255138   L 26.834219,1.031721   L 26.815506,0.91916958   L 26.703229,0.76910108   L 26.553526,0.6565497   L 26.441249,0.63779114   L 26.347685,0.61903257   L 26.254121,0.63779114   L 26.141843,0.6565497   L 25.992141,0.76910108   L 25.879864,0.91916958   L 25.861151,1.031721   L 25.842438,1.1255138   L 25.842438,2.2697861   L 25.861151,2.3635789   L 25.879864,2.4761303   L 25.992141,2.6261988   L 26.141843,2.7387502   L 26.254121,2.7575087   L 26.347685,2.7762673   L 26.441249,2.7575087   L 26.553526,2.7387502   L 26.703229,2.6261988   L 26.815506,2.4761303   L 26.834219,2.3635789   L 26.852932,2.2697861   L 26.852932,1.1255138   z "
     id="path67" />
  <path
     style="fill:#7f7f7f;fill-rule:evenodd;fill-opacity:1;stroke:#000000;stroke-width:0.018712845px;stroke-linecap:round;stroke-linejoin:round;stroke-miterlimit:4;stroke-dasharray:none;stroke-opacity:1;"
     d="  M 26.852932,3.7141954   L 26.834219,3.6204026   L 26.815506,3.5078513   L 26.703229,3.3577827   L 26.553526,3.2452314   L 26.441249,3.2264728   L 26.347685,3.2077142   L 26.254121,3.2264728   L 26.141843,3.2452314   L 25.992141,3.3577827   L 25.879864,3.5078513   L 25.861151,3.6204026   L 25.842438,3.7141954   L 25.842438,4.8584678   L 25.861151,4.9522606   L 25.879864,5.064812   L 25.992141,5.2148805   L 26.141843,5.3274318   L 26.254121,5.3461904   L 26.347685,5.364949   L 26.441249,5.3461904   L 26.553526,5.3274318   L 26.703229,5.2148805   L 26.815506,5.064812   L 26.834219,4.9522606   L 26.852932,4.8584678   L 26.852932,3.7141954   z "
     id="path69" />
  <path
     style="fill:#7f7f7f;fill-rule:evenodd;fill-opacity:1;stroke:#000000;stroke-width:0.018712845px;stroke-linecap:round;stroke-linejoin:round;stroke-miterlimit:4;stroke-dasharray:none;stroke-opacity:1;"
     d="  M 26.852932,6.3216357   L 26.834219,6.2278429   L 26.815506,6.1152915   L 26.703229,5.965223   L 26.553526,5.8526716   L 26.441249,5.833913   L 26.347685,5.8151545   L 26.254121,5.833913   L 26.141843,5.8526716   L 25.992141,5.965223   L 25.879864,6.1152915   L 25.861151,6.2278429   L 25.842438,6.3216357   L 25.842438,7.465908   L 25.861151,7.5597008   L 25.879864,7.6722522   L 25.992141,7.8223207   L 26.141843,7.9348721   L 26.254121,7.9536306   L 26.347685,7.9723892   L 26.441249,7.9536306   L 26.553526,7.9348721   L 26.703229,7.8223207   L 26.815506,7.6722522   L 26.834219,7.5597008   L 26.852932,7.465908   L 26.852932,6.3216357   z "
     id="path71" />
  <path
     style="fill:#7f7f7f;fill-rule:evenodd;fill-opacity:1;stroke:#000000;stroke-width:0.018712845px;stroke-linecap:round;stroke-linejoin:round;stroke-miterlimit:4;stroke-dasharray:none;stroke-opacity:1;"
     d="  M 26.852932,11.555275   L 26.834219,11.461482   L 26.815506,11.348931   L 26.703229,11.198862   L 26.553526,11.086311   L 26.441249,11.067552   L 26.347685,11.048794   L 26.254121,11.067552   L 26.141843,11.086311   L 25.992141,11.198862   L 25.879864,11.348931   L 25.861151,11.461482   L 25.842438,11.555275   L 25.842438,12.699547   L 25.861151,12.79334   L 25.879864,12.905891   L 25.992141,13.05596   L 26.141843,13.168511   L 26.254121,13.18727   L 26.347685,13.206028   L 26.441249,13.18727   L 26.553526,13.168511   L 26.703229,13.05596   L 26.815506,12.905891   L 26.834219,12.79334   L 26.852932,12.699547   L 26.852932,11.555275   z "
     id="path73" />
  <path
     style="fill:#7f7f7f;fill-rule:evenodd;fill-opacity:1;stroke:#000000;stroke-width:0.018712845px;stroke-linecap:round;stroke-linejoin:round;stroke-miterlimit:4;stroke-dasharray:none;stroke-opacity:1;"
     d="  M 26.852932,14.181474   L 26.834219,14.087681   L 26.815506,13.975129   L 26.703229,13.825061   L 26.553526,13.712509   L 26.441249,13.693751   L 26.347685,13.674992   L 26.254121,13.693751   L 26.141843,13.712509   L 25.992141,13.825061   L 25.879864,13.975129   L 25.861151,14.087681   L 25.842438,14.181474   L 25.842438,15.325746   L 25.861151,15.419539   L 25.879864,15.53209   L 25.992141,15.682159   L 26.141843,15.79471   L 26.254121,15.813468   L 26.347685,15.832227   L 26.441249,15.813468   L 26.553526,15.79471   L 26.703229,15.682159   L 26.815506,15.53209   L 26.834219,15.419539   L 26.852932,15.325746   L 26.852932,14.181474   z "
     id="path75" />
  <path
     style="fill:#7f7f7f;fill-rule:evenodd;fill-opacity:1;stroke:#000000;stroke-width:0.018712845px;stroke-linecap:round;stroke-linejoin:round;stroke-miterlimit:4;stroke-dasharray:none;stroke-opacity:1;"
     d="  M 26.852932,8.9478345   L 26.834219,8.8540417   L 26.815506,8.7414903   L 26.703229,8.5914218   L 26.553526,8.4788704   L 26.441249,8.4601118   L 26.347685,8.4413533   L 26.254121,8.4601118   L 26.141843,8.4788704   L 25.992141,8.5914218   L 25.879864,8.7414903   L 25.861151,8.8540417   L 25.842438,8.9478345   L 25.842438,10.092107   L 25.861151,10.1859   L 25.879864,10.298451   L 25.992141,10.44852   L 26.141843,10.561071   L 26.254121,10.579829   L 26.347685,10.598588   L 26.441249,10.579829   L 26.553526,10.561071   L 26.703229,10.44852   L 26.815506,10.298451   L 26.834219,10.1859   L 26.852932,10.092107   L 26.852932,8.9478345   z "
     id="path77" />
  <path
     style="fill:#7f7f7f;fill-rule:evenodd;fill-opacity:1;stroke:#000000;stroke-width:0.018712845px;stroke-linecap:round;stroke-linejoin:round;stroke-miterlimit:4;stroke-dasharray:none;stroke-opacity:1;"
     d="  M 25.355904,1.1255138   L 25.337191,1.031721   L 25.318478,0.91916958   L 25.206201,0.76910108   L 25.056499,0.6565497   L 24.944221,0.63779114   L 24.850657,0.61903257   L 24.757093,0.63779114   L 24.644816,0.6565497   L 24.495113,0.76910108   L 24.382836,0.91916958   L 24.364123,1.031721   L 24.34541,1.1255138   L 24.34541,2.2697861   L 24.364123,2.3635789   L 24.382836,2.4761303   L 24.495113,2.6261988   L 24.644816,2.7387502   L 24.757093,2.7575087   L 24.850657,2.7762673   L 24.944221,2.7575087   L 25.056499,2.7387502   L 25.206201,2.6261988   L 25.318478,2.4761303   L 25.337191,2.3635789   L 25.355904,2.2697861   L 25.355904,1.1255138   z "
     id="path79" />
  <path
     style="fill:#7f7f7f;fill-rule:evenodd;fill-opacity:1;stroke:#000000;stroke-width:0.018712845px;stroke-linecap:round;stroke-linejoin:round;stroke-miterlimit:4;stroke-dasharray:none;stroke-opacity:1;"
     d="  M 25.355904,3.7141954   L 25.337191,3.6204026   L 25.318478,3.5078513   L 25.206201,3.3577827   L 25.056499,3.2452314   L 24.944221,3.2264728   L 24.850657,3.2077142   L 24.757093,3.2264728   L 24.644816,3.2452314   L 24.495113,3.3577827   L 24.382836,3.5078513   L 24.364123,3.6204026   L 24.34541,3.7141954   L 24.34541,4.8584678   L 24.364123,4.9522606   L 24.382836,5.064812   L 24.495113,5.2148805   L 24.644816,5.3274318   L 24.757093,5.3461904   L 24.850657,5.364949   L 24.944221,5.3461904   L 25.056499,5.3274318   L 25.206201,5.2148805   L 25.318478,5.064812   L 25.337191,4.9522606   L 25.355904,4.8584678   L 25.355904,3.7141954   z "
     id="path81" />
  <path
     style="fill:#7f7f7f;fill-rule:evenodd;fill-opacity:1;stroke:#000000;stroke-width:0.018712845px;stroke-linecap:round;stroke-linejoin:round;stroke-miterlimit:4;stroke-dasharray:none;stroke-opacity:1;"
     d="  M 25.355904,6.3216357   L 25.337191,6.2278429   L 25.318478,6.1152915   L 25.206201,5.965223   L 25.056499,5.8526716   L 24.944221,5.833913   L 24.850657,5.8151545   L 24.757093,5.833913   L 24.644816,5.8526716   L 24.495113,5.965223   L 24.382836,6.1152915   L 24.364123,6.2278429   L 24.34541,6.3216357   L 24.34541,7.465908   L 24.364123,7.5597008   L 24.382836,7.6722522   L 24.495113,7.8223207   L 24.644816,7.9348721   L 24.757093,7.9536306   L 24.850657,7.9723892   L 24.944221,7.9536306   L 25.056499,7.9348721   L 25.206201,7.8223207   L 25.318478,7.6722522   L 25.337191,7.5597008   L 25.355904,7.465908   L 25.355904,6.3216357   z "
     id="path83" />
  <path
     style="fill:#7f7f7f;fill-rule:evenodd;fill-opacity:1;stroke:#000000;stroke-width:0.018712845px;stroke-linecap:round;stroke-linejoin:round;stroke-miterlimit:4;stroke-dasharray:none;stroke-opacity:1;"
     d="  M 25.355904,11.555275   L 25.337191,11.461482   L 25.318478,11.348931   L 25.206201,11.198862   L 25.056499,11.086311   L 24.944221,11.067552   L 24.850657,11.048794   L 24.757093,11.067552   L 24.644816,11.086311   L 24.495113,11.198862   L 24.382836,11.348931   L 24.364123,11.461482   L 24.34541,11.555275   L 24.34541,12.699547   L 24.364123,12.79334   L 24.382836,12.905891   L 24.495113,13.05596   L 24.644816,13.168511   L 24.757093,13.18727   L 24.850657,13.206028   L 24.944221,13.18727   L 25.056499,13.168511   L 25.206201,13.05596   L 25.318478,12.905891   L 25.337191,12.79334   L 25.355904,12.699547   L 25.355904,11.555275   z "
     id="path85" />
  <path
     style="fill:#7f7f7f;fill-rule:evenodd;fill-opacity:1;stroke:#000000;stroke-width:0.018712845px;stroke-linecap:round;stroke-linejoin:round;stroke-miterlimit:4;stroke-dasharray:none;stroke-opacity:1;"
     d="  M 25.355904,14.181474   L 25.337191,14.087681   L 25.318478,13.975129   L 25.206201,13.825061   L 25.056499,13.712509   L 24.944221,13.693751   L 24.850657,13.674992   L 24.757093,13.693751   L 24.644816,13.712509   L 24.495113,13.825061   L 24.382836,13.975129   L 24.364123,14.087681   L 24.34541,14.181474   L 24.34541,15.325746   L 24.364123,15.419539   L 24.382836,15.53209   L 24.495113,15.682159   L 24.644816,15.79471   L 24.757093,15.813468   L 24.850657,15.832227   L 24.944221,15.813468   L 25.056499,15.79471   L 25.206201,15.682159   L 25.318478,15.53209   L 25.337191,15.419539   L 25.355904,15.325746   L 25.355904,14.181474   z "
     id="path87" />
  <path
     style="fill:#7f7f7f;fill-rule:evenodd;fill-opacity:1;stroke:#000000;stroke-width:0.018712845px;stroke-linecap:round;stroke-linejoin:round;stroke-miterlimit:4;stroke-dasharray:none;stroke-opacity:1;"
     d="  M 25.355904,8.9478345   L 25.337191,8.8540417   L 25.318478,8.7414903   L 25.206201,8.5914218   L 25.056499,8.4788704   L 24.944221,8.4601118   L 24.850657,8.4413533   L 24.757093,8.4601118   L 24.644816,8.4788704   L 24.495113,8.5914218   L 24.382836,8.7414903   L 24.364123,8.8540417   L 24.34541,8.9478345   L 24.34541,10.092107   L 24.364123,10.1859   L 24.382836,10.298451   L 24.495113,10.44852   L 24.644816,10.561071   L 24.757093,10.579829   L 24.850657,10.598588   L 24.944221,10.579829   L 25.056499,10.561071   L 25.206201,10.44852   L 25.318478,10.298451   L 25.337191,10.1859   L 25.355904,10.092107   L 25.355904,8.9478345   z "
     id="path89" />
  <path
     style="fill:#7f7f7f;fill-rule:evenodd;fill-opacity:1;stroke:#000000;stroke-width:0.018712845px;stroke-linecap:round;stroke-linejoin:round;stroke-miterlimit:4;stroke-dasharray:none;stroke-opacity:1;"
     d="  M 23.858876,1.1255138   L 23.840164,1.031721   L 23.821451,0.91916958   L 23.709174,0.76910108   L 23.559471,0.6565497   L 23.447194,0.63779114   L 23.35363,0.61903257   L 23.260065,0.63779114   L 23.147788,0.6565497   L 22.998086,0.76910108   L 22.885809,0.91916958   L 22.867096,1.031721   L 22.848383,1.1255138   L 22.848383,2.2697861   L 22.867096,2.3635789   L 22.885809,2.4761303   L 22.998086,2.6261988   L 23.147788,2.7387502   L 23.260065,2.7575087   L 23.35363,2.7762673   L 23.447194,2.7575087   L 23.559471,2.7387502   L 23.709174,2.6261988   L 23.821451,2.4761303   L 23.840164,2.3635789   L 23.858876,2.2697861   L 23.858876,1.1255138   z "
     id="path91" />
  <path
     style="fill:#7f7f7f;fill-rule:evenodd;fill-opacity:1;stroke:#000000;stroke-width:0.018712845px;stroke-linecap:round;stroke-linejoin:round;stroke-miterlimit:4;stroke-dasharray:none;stroke-opacity:1;"
     d="  M 23.858876,3.7141954   L 23.840164,3.6204026   L 23.821451,3.5078513   L 23.709174,3.3577827   L 23.559471,3.2452314   L 23.447194,3.2264728   L 23.35363,3.2077142   L 23.260065,3.2264728   L 23.147788,3.2452314   L 22.998086,3.3577827   L 22.885809,3.5078513   L 22.867096,3.6204026   L 22.848383,3.7141954   L 22.848383,4.8584678   L 22.867096,4.9522606   L 22.885809,5.064812   L 22.998086,5.2148805   L 23.147788,5.3274318   L 23.260065,5.3461904   L 23.35363,5.364949   L 23.447194,5.3461904   L 23.559471,5.3274318   L 23.709174,5.2148805   L 23.821451,5.064812   L 23.840164,4.9522606   L 23.858876,4.8584678   L 23.858876,3.7141954   z "
     id="path93" />
  <path
     style="fill:#7f7f7f;fill-rule:evenodd;fill-opacity:1;stroke:#000000;stroke-width:0.018712845px;stroke-linecap:round;stroke-linejoin:round;stroke-miterlimit:4;stroke-dasharray:none;stroke-opacity:1;"
     d="  M 23.858876,6.3216357   L 23.840164,6.2278429   L 23.821451,6.1152915   L 23.709174,5.965223   L 23.559471,5.8526716   L 23.447194,5.833913   L 23.35363,5.8151545   L 23.260065,5.833913   L 23.147788,5.8526716   L 22.998086,5.965223   L 22.885809,6.1152915   L 22.867096,6.2278429   L 22.848383,6.3216357   L 22.848383,7.465908   L 22.867096,7.5597008   L 22.885809,7.6722522   L 22.998086,7.8223207   L 23.147788,7.9348721   L 23.260065,7.9536306   L 23.35363,7.9723892   L 23.447194,7.9536306   L 23.559471,7.9348721   L 23.709174,7.8223207   L 23.821451,7.6722522   L 23.840164,7.5597008   L 23.858876,7.465908   L 23.858876,6.3216357   z "
     id="path95" />
  <path
     style="fill:#7f7f7f;fill-rule:evenodd;fill-opacity:1;stroke:#000000;stroke-width:0.018712845px;stroke-linecap:round;stroke-linejoin:round;stroke-miterlimit:4;stroke-dasharray:none;stroke-opacity:1;"
     d="  M 23.858876,11.555275   L 23.840164,11.461482   L 23.821451,11.348931   L 23.709174,11.198862   L 23.559471,11.086311   L 23.447194,11.067552   L 23.35363,11.048794   L 23.260065,11.067552   L 23.147788,11.086311   L 22.998086,11.198862   L 22.885809,11.348931   L 22.867096,11.461482   L 22.848383,11.555275   L 22.848383,12.699547   L 22.867096,12.79334   L 22.885809,12.905891   L 22.998086,13.05596   L 23.147788,13.168511   L 23.260065,13.18727   L 23.35363,13.206028   L 23.447194,13.18727   L 23.559471,13.168511   L 23.709174,13.05596   L 23.821451,12.905891   L 23.840164,12.79334   L 23.858876,12.699547   L 23.858876,11.555275   z "
     id="path97" />
  <path
     style="fill:#7f7f7f;fill-rule:evenodd;fill-opacity:1;stroke:#000000;stroke-width:0.018712845px;stroke-linecap:round;stroke-linejoin:round;stroke-miterlimit:4;stroke-dasharray:none;stroke-opacity:1;"
     d="  M 23.858876,14.181474   L 23.840164,14.087681   L 23.821451,13.975129   L 23.709174,13.825061   L 23.559471,13.712509   L 23.447194,13.693751   L 23.35363,13.674992   L 23.260065,13.693751   L 23.147788,13.712509   L 22.998086,13.825061   L 22.885809,13.975129   L 22.867096,14.087681   L 22.848383,14.181474   L 22.848383,15.325746   L 22.867096,15.419539   L 22.885809,15.53209   L 22.998086,15.682159   L 23.147788,15.79471   L 23.260065,15.813468   L 23.35363,15.832227   L 23.447194,15.813468   L 23.559471,15.79471   L 23.709174,15.682159   L 23.821451,15.53209   L 23.840164,15.419539   L 23.858876,15.325746   L 23.858876,14.181474   z "
     id="path99" />
  <path
     style="fill:#7f7f7f;fill-rule:evenodd;fill-opacity:1;stroke:#000000;stroke-width:0.018712845px;stroke-linecap:round;stroke-linejoin:round;stroke-miterlimit:4;stroke-dasharray:none;stroke-opacity:1;"
     d="  M 23.858876,8.9478345   L 23.840164,8.8540417   L 23.821451,8.7414903   L 23.709174,8.5914218   L 23.559471,8.4788704   L 23.447194,8.4601118   L 23.35363,8.4413533   L 23.260065,8.4601118   L 23.147788,8.4788704   L 22.998086,8.5914218   L 22.885809,8.7414903   L 22.867096,8.8540417   L 22.848383,8.9478345   L 22.848383,10.092107   L 22.867096,10.1859   L 22.885809,10.298451   L 22.998086,10.44852   L 23.147788,10.561071   L 23.260065,10.579829   L 23.35363,10.598588   L 23.447194,10.579829   L 23.559471,10.561071   L 23.709174,10.44852   L 23.821451,10.298451   L 23.840164,10.1859   L 23.858876,10.092107   L 23.858876,8.9478345   z "
     id="path101" />
  <path
     style="fill:#7f7f7f;fill-rule:evenodd;fill-opacity:1;stroke:#000000;stroke-width:0.018712845px;stroke-linecap:round;stroke-linejoin:round;stroke-miterlimit:4;stroke-dasharray:none;stroke-opacity:1;"
     d="  M 22.361849,1.1255138   L 22.343136,1.031721   L 22.324423,0.91916958   L 22.212146,0.76910108   L 22.062443,0.6565497   L 21.950166,0.63779114   L 21.856602,0.61903257   L 21.763038,0.63779114   L 21.650761,0.6565497   L 21.501058,0.76910108   L 21.388781,0.91916958   L 21.370068,1.031721   L 21.351355,1.1255138   L 21.351355,2.2697861   L 21.370068,2.3635789   L 21.388781,2.4761303   L 21.501058,2.6261988   L 21.650761,2.7387502   L 21.763038,2.7575087   L 21.856602,2.7762673   L 21.950166,2.7575087   L 22.062443,2.7387502   L 22.212146,2.6261988   L 22.324423,2.4761303   L 22.343136,2.3635789   L 22.361849,2.2697861   L 22.361849,1.1255138   z "
     id="path103" />
  <path
     style="fill:#7f7f7f;fill-rule:evenodd;fill-opacity:1;stroke:#000000;stroke-width:0.018712845px;stroke-linecap:round;stroke-linejoin:round;stroke-miterlimit:4;stroke-dasharray:none;stroke-opacity:1;"
     d="  M 22.361849,3.7141954   L 22.343136,3.6204026   L 22.324423,3.5078513   L 22.212146,3.3577827   L 22.062443,3.2452314   L 21.950166,3.2264728   L 21.856602,3.2077142   L 21.763038,3.2264728   L 21.650761,3.2452314   L 21.501058,3.3577827   L 21.388781,3.5078513   L 21.370068,3.6204026   L 21.351355,3.7141954   L 21.351355,4.8584678   L 21.370068,4.9522606   L 21.388781,5.064812   L 21.501058,5.2148805   L 21.650761,5.3274318   L 21.763038,5.3461904   L 21.856602,5.364949   L 21.950166,5.3461904   L 22.062443,5.3274318   L 22.212146,5.2148805   L 22.324423,5.064812   L 22.343136,4.9522606   L 22.361849,4.8584678   L 22.361849,3.7141954   z "
     id="path105" />
  <path
     style="fill:#7f7f7f;fill-rule:evenodd;fill-opacity:1;stroke:#000000;stroke-width:0.018712845px;stroke-linecap:round;stroke-linejoin:round;stroke-miterlimit:4;stroke-dasharray:none;stroke-opacity:1;"
     d="  M 22.361849,6.3216357   L 22.343136,6.2278429   L 22.324423,6.1152915   L 22.212146,5.965223   L 22.062443,5.8526716   L 21.950166,5.833913   L 21.856602,5.8151545   L 21.763038,5.833913   L 21.650761,5.8526716   L 21.501058,5.965223   L 21.388781,6.1152915   L 21.370068,6.2278429   L 21.351355,6.3216357   L 21.351355,7.465908   L 21.370068,7.5597008   L 21.388781,7.6722522   L 21.501058,7.8223207   L 21.650761,7.9348721   L 21.763038,7.9536306   L 21.856602,7.9723892   L 21.950166,7.9536306   L 22.062443,7.9348721   L 22.212146,7.8223207   L 22.324423,7.6722522   L 22.343136,7.5597008   L 22.361849,7.465908   L 22.361849,6.3216357   z "
     id="path107" />
  <path
     style="fill:#7f7f7f;fill-rule:evenodd;fill-opacity:1;stroke:#000000;stroke-width:0.018712845px;stroke-linecap:round;stroke-linejoin:round;stroke-miterlimit:4;stroke-dasharray:none;stroke-opacity:1;"
     d="  M 22.361849,11.555275   L 22.343136,11.461482   L 22.324423,11.348931   L 22.212146,11.198862   L 22.062443,11.086311   L 21.950166,11.067552   L 21.856602,11.048794   L 21.763038,11.067552   L 21.650761,11.086311   L 21.501058,11.198862   L 21.388781,11.348931   L 21.370068,11.461482   L 21.351355,11.555275   L 21.351355,12.699547   L 21.370068,12.79334   L 21.388781,12.905891   L 21.501058,13.05596   L 21.650761,13.168511   L 21.763038,13.18727   L 21.856602,13.206028   L 21.950166,13.18727   L 22.062443,13.168511   L 22.212146,13.05596   L 22.324423,12.905891   L 22.343136,12.79334   L 22.361849,12.699547   L 22.361849,11.555275   z "
     id="path109" />
  <path
     style="fill:#7f7f7f;fill-rule:evenodd;fill-opacity:1;stroke:#000000;stroke-width:0.018712845px;stroke-linecap:round;stroke-linejoin:round;stroke-miterlimit:4;stroke-dasharray:none;stroke-opacity:1;"
     d="  M 22.361849,14.181474   L 22.343136,14.087681   L 22.324423,13.975129   L 22.212146,13.825061   L 22.062443,13.712509   L 21.950166,13.693751   L 21.856602,13.674992   L 21.763038,13.693751   L 21.650761,13.712509   L 21.501058,13.825061   L 21.388781,13.975129   L 21.370068,14.087681   L 21.351355,14.181474   L 21.351355,15.325746   L 21.370068,15.419539   L 21.388781,15.53209   L 21.501058,15.682159   L 21.650761,15.79471   L 21.763038,15.813468   L 21.856602,15.832227   L 21.950166,15.813468   L 22.062443,15.79471   L 22.212146,15.682159   L 22.324423,15.53209   L 22.343136,15.419539   L 22.361849,15.325746   L 22.361849,14.181474   z "
     id="path111" />
  <path
     style="fill:#7f7f7f;fill-rule:evenodd;fill-opacity:1;stroke:#000000;stroke-width:0.018712845px;stroke-linecap:round;stroke-linejoin:round;stroke-miterlimit:4;stroke-dasharray:none;stroke-opacity:1;"
     d="  M 22.361849,8.9478345   L 22.343136,8.8540417   L 22.324423,8.7414903   L 22.212146,8.5914218   L 22.062443,8.4788704   L 21.950166,8.4601118   L 21.856602,8.4413533   L 21.763038,8.4601118   L 21.650761,8.4788704   L 21.501058,8.5914218   L 21.388781,8.7414903   L 21.370068,8.8540417   L 21.351355,8.9478345   L 21.351355,10.092107   L 21.370068,10.1859   L 21.388781,10.298451   L 21.501058,10.44852   L 21.650761,10.561071   L 21.763038,10.579829   L 21.856602,10.598588   L 21.950166,10.579829   L 22.062443,10.561071   L 22.212146,10.44852   L 22.324423,10.298451   L 22.343136,10.1859   L 22.361849,10.092107   L 22.361849,8.9478345   z "
     id="path113" />
  <path
     style="fill:#7f7f7f;fill-rule:evenodd;fill-opacity:1;stroke:#000000;stroke-width:0.018712845px;stroke-linecap:round;stroke-linejoin:round;stroke-miterlimit:4;stroke-dasharray:none;stroke-opacity:1;"
     d="  M 20.864821,1.1255138   L 20.846109,1.031721   L 20.827396,0.91916958   L 20.715119,0.76910108   L 20.565416,0.6565497   L 20.453139,0.63779114   L 20.359575,0.61903257   L 20.26601,0.63779114   L 20.153733,0.6565497   L 20.004031,0.76910108   L 19.891753,0.91916958   L 19.873041,1.031721   L 19.854328,1.1255138   L 19.854328,2.2697861   L 19.873041,2.3635789   L 19.891753,2.4761303   L 20.004031,2.6261988   L 20.153733,2.7387502   L 20.26601,2.7575087   L 20.359575,2.7762673   L 20.453139,2.7575087   L 20.565416,2.7387502   L 20.715119,2.6261988   L 20.827396,2.4761303   L 20.846109,2.3635789   L 20.864821,2.2697861   L 20.864821,1.1255138   z "
     id="path115" />
  <path
     style="fill:#7f7f7f;fill-rule:evenodd;fill-opacity:1;stroke:#000000;stroke-width:0.018712845px;stroke-linecap:round;stroke-linejoin:round;stroke-miterlimit:4;stroke-dasharray:none;stroke-opacity:1;"
     d="  M 20.864821,3.7141954   L 20.846109,3.6204026   L 20.827396,3.5078513   L 20.715119,3.3577827   L 20.565416,3.2452314   L 20.453139,3.2264728   L 20.359575,3.2077142   L 20.26601,3.2264728   L 20.153733,3.2452314   L 20.004031,3.3577827   L 19.891753,3.5078513   L 19.873041,3.6204026   L 19.854328,3.7141954   L 19.854328,4.8584678   L 19.873041,4.9522606   L 19.891753,5.064812   L 20.004031,5.2148805   L 20.153733,5.3274318   L 20.26601,5.3461904   L 20.359575,5.364949   L 20.453139,5.3461904   L 20.565416,5.3274318   L 20.715119,5.2148805   L 20.827396,5.064812   L 20.846109,4.9522606   L 20.864821,4.8584678   L 20.864821,3.7141954   z "
     id="path117" />
  <path
     style="fill:#7f7f7f;fill-rule:evenodd;fill-opacity:1;stroke:#000000;stroke-width:0.018712845px;stroke-linecap:round;stroke-linejoin:round;stroke-miterlimit:4;stroke-dasharray:none;stroke-opacity:1;"
     d="  M 20.864821,6.3216357   L 20.846109,6.2278429   L 20.827396,6.1152915   L 20.715119,5.965223   L 20.565416,5.8526716   L 20.453139,5.833913   L 20.359575,5.8151545   L 20.26601,5.833913   L 20.153733,5.8526716   L 20.004031,5.965223   L 19.891753,6.1152915   L 19.873041,6.2278429   L 19.854328,6.3216357   L 19.854328,7.465908   L 19.873041,7.5597008   L 19.891753,7.6722522   L 20.004031,7.8223207   L 20.153733,7.9348721   L 20.26601,7.9536306   L 20.359575,7.9723892   L 20.453139,7.9536306   L 20.565416,7.9348721   L 20.715119,7.8223207   L 20.827396,7.6722522   L 20.846109,7.5597008   L 20.864821,7.465908   L 20.864821,6.3216357   z "
     id="path119" />
  <path
     style="fill:#7f7f7f;fill-rule:evenodd;fill-opacity:1;stroke:#000000;stroke-width:0.018712845px;stroke-linecap:round;stroke-linejoin:round;stroke-miterlimit:4;stroke-dasharray:none;stroke-opacity:1;"
     d="  M 20.864821,11.555275   L 20.846109,11.461482   L 20.827396,11.348931   L 20.715119,11.198862   L 20.565416,11.086311   L 20.453139,11.067552   L 20.359575,11.048794   L 20.26601,11.067552   L 20.153733,11.086311   L 20.004031,11.198862   L 19.891753,11.348931   L 19.873041,11.461482   L 19.854328,11.555275   L 19.854328,12.699547   L 19.873041,12.79334   L 19.891753,12.905891   L 20.004031,13.05596   L 20.153733,13.168511   L 20.26601,13.18727   L 20.359575,13.206028   L 20.453139,13.18727   L 20.565416,13.168511   L 20.715119,13.05596   L 20.827396,12.905891   L 20.846109,12.79334   L 20.864821,12.699547   L 20.864821,11.555275   z "
     id="path121" />
  <path
     style="fill:#7f7f7f;fill-rule:evenodd;fill-opacity:1;stroke:#000000;stroke-width:0.018712845px;stroke-linecap:round;stroke-linejoin:round;stroke-miterlimit:4;stroke-dasharray:none;stroke-opacity:1;"
     d="  M 20.864821,14.181474   L 20.846109,14.087681   L 20.827396,13.975129   L 20.715119,13.825061   L 20.565416,13.712509   L 20.453139,13.693751   L 20.359575,13.674992   L 20.26601,13.693751   L 20.153733,13.712509   L 20.004031,13.825061   L 19.891753,13.975129   L 19.873041,14.087681   L 19.854328,14.181474   L 19.854328,15.325746   L 19.873041,15.419539   L 19.891753,15.53209   L 20.004031,15.682159   L 20.153733,15.79471   L 20.26601,15.813468   L 20.359575,15.832227   L 20.453139,15.813468   L 20.565416,15.79471   L 20.715119,15.682159   L 20.827396,15.53209   L 20.846109,15.419539   L 20.864821,15.325746   L 20.864821,14.181474   z "
     id="path123" />
  <path
     style="fill:#7f7f7f;fill-rule:evenodd;fill-opacity:1;stroke:#000000;stroke-width:0.018712845px;stroke-linecap:round;stroke-linejoin:round;stroke-miterlimit:4;stroke-dasharray:none;stroke-opacity:1;"
     d="  M 20.864821,8.9478345   L 20.846109,8.8540417   L 20.827396,8.7414903   L 20.715119,8.5914218   L 20.565416,8.4788704   L 20.453139,8.4601118   L 20.359575,8.4413533   L 20.26601,8.4601118   L 20.153733,8.4788704   L 20.004031,8.5914218   L 19.891753,8.7414903   L 19.873041,8.8540417   L 19.854328,8.9478345   L 19.854328,10.092107   L 19.873041,10.1859   L 19.891753,10.298451   L 20.004031,10.44852   L 20.153733,10.561071   L 20.26601,10.579829   L 20.359575,10.598588   L 20.453139,10.579829   L 20.565416,10.561071   L 20.715119,10.44852   L 20.827396,10.298451   L 20.846109,10.1859   L 20.864821,10.092107   L 20.864821,8.9478345   z "
     id="path125" />
  <path
     style="fill:#7f7f7f;fill-rule:evenodd;fill-opacity:1;stroke:#000000;stroke-width:0.018712845px;stroke-linecap:round;stroke-linejoin:round;stroke-miterlimit:4;stroke-dasharray:none;stroke-opacity:1;"
     d="  M 19.367794,1.1255138   L 19.349081,1.031721   L 19.330368,0.91916958   L 19.218091,0.76910108   L 19.068388,0.6565497   L 18.956111,0.63779114   L 18.862547,0.61903257   L 18.768983,0.63779114   L 18.656706,0.6565497   L 18.507003,0.76910108   L 18.394726,0.91916958   L 18.376013,1.031721   L 18.3573,1.1255138   L 18.3573,2.2697861   L 18.376013,2.3635789   L 18.394726,2.4761303   L 18.507003,2.6261988   L 18.656706,2.7387502   L 18.768983,2.7575087   L 18.862547,2.7762673   L 18.956111,2.7575087   L 19.068388,2.7387502   L 19.218091,2.6261988   L 19.330368,2.4761303   L 19.349081,2.3635789   L 19.367794,2.2697861   L 19.367794,1.1255138   z "
     id="path127" />
  <path
     style="fill:#7f7f7f;fill-rule:evenodd;fill-opacity:1;stroke:#000000;stroke-width:0.018712845px;stroke-linecap:round;stroke-linejoin:round;stroke-miterlimit:4;stroke-dasharray:none;stroke-opacity:1;"
     d="  M 19.367794,3.7141954   L 19.349081,3.6204026   L 19.330368,3.5078513   L 19.218091,3.3577827   L 19.068388,3.2452314   L 18.956111,3.2264728   L 18.862547,3.2077142   L 18.768983,3.2264728   L 18.656706,3.2452314   L 18.507003,3.3577827   L 18.394726,3.5078513   L 18.376013,3.6204026   L 18.3573,3.7141954   L 18.3573,4.8584678   L 18.376013,4.9522606   L 18.394726,5.064812   L 18.507003,5.2148805   L 18.656706,5.3274318   L 18.768983,5.3461904   L 18.862547,5.364949   L 18.956111,5.3461904   L 19.068388,5.3274318   L 19.218091,5.2148805   L 19.330368,5.064812   L 19.349081,4.9522606   L 19.367794,4.8584678   L 19.367794,3.7141954   z "
     id="path129" />
  <path
     style="fill:#7f7f7f;fill-rule:evenodd;fill-opacity:1;stroke:#000000;stroke-width:0.018712845px;stroke-linecap:round;stroke-linejoin:round;stroke-miterlimit:4;stroke-dasharray:none;stroke-opacity:1;"
     d="  M 19.367794,6.3216357   L 19.349081,6.2278429   L 19.330368,6.1152915   L 19.218091,5.965223   L 19.068388,5.8526716   L 18.956111,5.833913   L 18.862547,5.8151545   L 18.768983,5.833913   L 18.656706,5.8526716   L 18.507003,5.965223   L 18.394726,6.1152915   L 18.376013,6.2278429   L 18.3573,6.3216357   L 18.3573,7.465908   L 18.376013,7.5597008   L 18.394726,7.6722522   L 18.507003,7.8223207   L 18.656706,7.9348721   L 18.768983,7.9536306   L 18.862547,7.9723892   L 18.956111,7.9536306   L 19.068388,7.9348721   L 19.218091,7.8223207   L 19.330368,7.6722522   L 19.349081,7.5597008   L 19.367794,7.465908   L 19.367794,6.3216357   z "
     id="path131" />
  <path
     style="fill:#7f7f7f;fill-rule:evenodd;fill-opacity:1;stroke:#000000;stroke-width:0.018712845px;stroke-linecap:round;stroke-linejoin:round;stroke-miterlimit:4;stroke-dasharray:none;stroke-opacity:1;"
     d="  M 19.367794,11.555275   L 19.349081,11.461482   L 19.330368,11.348931   L 19.218091,11.198862   L 19.068388,11.086311   L 18.956111,11.067552   L 18.862547,11.048794   L 18.768983,11.067552   L 18.656706,11.086311   L 18.507003,11.198862   L 18.394726,11.348931   L 18.376013,11.461482   L 18.3573,11.555275   L 18.3573,12.699547   L 18.376013,12.79334   L 18.394726,12.905891   L 18.507003,13.05596   L 18.656706,13.168511   L 18.768983,13.18727   L 18.862547,13.206028   L 18.956111,13.18727   L 19.068388,13.168511   L 19.218091,13.05596   L 19.330368,12.905891   L 19.349081,12.79334   L 19.367794,12.699547   L 19.367794,11.555275   z "
     id="path133" />
  <path
     style="fill:#7f7f7f;fill-rule:evenodd;fill-opacity:1;stroke:#000000;stroke-width:0.018712845px;stroke-linecap:round;stroke-linejoin:round;stroke-miterlimit:4;stroke-dasharray:none;stroke-opacity:1;"
     d="  M 19.367794,14.181474   L 19.349081,14.087681   L 19.330368,13.975129   L 19.218091,13.825061   L 19.068388,13.712509   L 18.956111,13.693751   L 18.862547,13.674992   L 18.768983,13.693751   L 18.656706,13.712509   L 18.507003,13.825061   L 18.394726,13.975129   L 18.376013,14.087681   L 18.3573,14.181474   L 18.3573,15.325746   L 18.376013,15.419539   L 18.394726,15.53209   L 18.507003,15.682159   L 18.656706,15.79471   L 18.768983,15.813468   L 18.862547,15.832227   L 18.956111,15.813468   L 19.068388,15.79471   L 19.218091,15.682159   L 19.330368,15.53209   L 19.349081,15.419539   L 19.367794,15.325746   L 19.367794,14.181474   z "
     id="path135" />
  <path
     style="fill:#7f7f7f;fill-rule:evenodd;fill-opacity:1;stroke:#000000;stroke-width:0.018712845px;stroke-linecap:round;stroke-linejoin:round;stroke-miterlimit:4;stroke-dasharray:none;stroke-opacity:1;"
     d="  M 19.367794,8.9478345   L 19.349081,8.8540417   L 19.330368,8.7414903   L 19.218091,8.5914218   L 19.068388,8.4788704   L 18.956111,8.4601118   L 18.862547,8.4413533   L 18.768983,8.4601118   L 18.656706,8.4788704   L 18.507003,8.5914218   L 18.394726,8.7414903   L 18.376013,8.8540417   L 18.3573,8.9478345   L 18.3573,10.092107   L 18.376013,10.1859   L 18.394726,10.298451   L 18.507003,10.44852   L 18.656706,10.561071   L 18.768983,10.579829   L 18.862547,10.598588   L 18.956111,10.579829   L 19.068388,10.561071   L 19.218091,10.44852   L 19.330368,10.298451   L 19.349081,10.1859   L 19.367794,10.092107   L 19.367794,8.9478345   z "
     id="path137" />
  <path
     style="fill:#7f7f7f;fill-rule:evenodd;fill-opacity:1;stroke:#000000;stroke-width:0.018712845px;stroke-linecap:round;stroke-linejoin:round;stroke-miterlimit:4;stroke-dasharray:none;stroke-opacity:1;"
     d="  M 17.870766,3.7141954   L 17.852053,3.6204026   L 17.833341,3.5078513   L 17.721064,3.3577827   L 17.571361,3.2452314   L 17.459084,3.2264728   L 17.365519,3.2077142   L 17.271955,3.2264728   L 17.159678,3.2452314   L 17.009975,3.3577827   L 16.897698,3.5078513   L 16.878986,3.6204026   L 16.860273,3.7141954   L 16.860273,4.8584678   L 16.878986,4.9522606   L 16.897698,5.064812   L 17.009975,5.2148805   L 17.159678,5.3274318   L 17.271955,5.3461904   L 17.365519,5.364949   L 17.459084,5.3461904   L 17.571361,5.3274318   L 17.721064,5.2148805   L 17.833341,5.064812   L 17.852053,4.9522606   L 17.870766,4.8584678   L 17.870766,3.7141954   z "
     id="path139" />
  <path
     style="fill:#7f7f7f;fill-rule:evenodd;fill-opacity:1;stroke:#000000;stroke-width:0.018712845px;stroke-linecap:round;stroke-linejoin:round;stroke-miterlimit:4;stroke-dasharray:none;stroke-opacity:1;"
     d="  M 17.870766,6.3216357   L 17.852053,6.2278429   L 17.833341,6.1152915   L 17.721064,5.965223   L 17.571361,5.8526716   L 17.459084,5.833913   L 17.365519,5.8151545   L 17.271955,5.833913   L 17.159678,5.8526716   L 17.009975,5.965223   L 16.897698,6.1152915   L 16.878986,6.2278429   L 16.860273,6.3216357   L 16.860273,7.465908   L 16.878986,7.5597008   L 16.897698,7.6722522   L 17.009975,7.8223207   L 17.159678,7.9348721   L 17.271955,7.9536306   L 17.365519,7.9723892   L 17.459084,7.9536306   L 17.571361,7.9348721   L 17.721064,7.8223207   L 17.833341,7.6722522   L 17.852053,7.5597008   L 17.870766,7.465908   L 17.870766,6.3216357   z "
     id="path141" />
  <path
     style="fill:#7f7f7f;fill-rule:evenodd;fill-opacity:1;stroke:#000000;stroke-width:0.018712845px;stroke-linecap:round;stroke-linejoin:round;stroke-miterlimit:4;stroke-dasharray:none;stroke-opacity:1;"
     d="  M 17.870766,11.555275   L 17.852053,11.461482   L 17.833341,11.348931   L 17.721064,11.198862   L 17.571361,11.086311   L 17.459084,11.067552   L 17.365519,11.048794   L 17.271955,11.067552   L 17.159678,11.086311   L 17.009975,11.198862   L 16.897698,11.348931   L 16.878986,11.461482   L 16.860273,11.555275   L 16.860273,12.699547   L 16.878986,12.79334   L 16.897698,12.905891   L 17.009975,13.05596   L 17.159678,13.168511   L 17.271955,13.18727   L 17.365519,13.206028   L 17.459084,13.18727   L 17.571361,13.168511   L 17.721064,13.05596   L 17.833341,12.905891   L 17.852053,12.79334   L 17.870766,12.699547   L 17.870766,11.555275   z "
     id="path143" />
  <path
     style="fill:#7f7f7f;fill-rule:evenodd;fill-opacity:1;stroke:#000000;stroke-width:0.018712845px;stroke-linecap:round;stroke-linejoin:round;stroke-miterlimit:4;stroke-dasharray:none;stroke-opacity:1;"
     d="  M 17.870766,8.9478345   L 17.852053,8.8540417   L 17.833341,8.7414903   L 17.721064,8.5914218   L 17.571361,8.4788704   L 17.459084,8.4601118   L 17.365519,8.4413533   L 17.271955,8.4601118   L 17.159678,8.4788704   L 17.009975,8.5914218   L 16.897698,8.7414903   L 16.878986,8.8540417   L 16.860273,8.9478345   L 16.860273,10.092107   L 16.878986,10.1859   L 16.897698,10.298451   L 17.009975,10.44852   L 17.159678,10.561071   L 17.271955,10.579829   L 17.365519,10.598588   L 17.459084,10.579829   L 17.571361,10.561071   L 17.721064,10.44852   L 17.833341,10.298451   L 17.852053,10.1859   L 17.870766,10.092107   L 17.870766,8.9478345   z "
     id="path145" />
  <path
     style="fill:#bfbfbf;fill-rule:evenodd;fill-opacity:1;stroke:#000000;stroke-width:0.018712845px;stroke-linecap:round;stroke-linejoin:round;stroke-miterlimit:4;stroke-dasharray:none;stroke-opacity:1;"
     d="  M 8.9634524,6.5279799   L 7.9155331,6.5279799   L 7.9155331,6.7905997   L 8.9634524,6.7905997   L 8.9634524,6.5279799   z "
     id="path147" />
  <path
     style="fill:#bfbfbf;fill-rule:evenodd;fill-opacity:1;stroke:#000000;stroke-width:0.018712845px;stroke-linecap:round;stroke-linejoin:round;stroke-miterlimit:4;stroke-dasharray:none;stroke-opacity:1;"
     d="  M 9.0757295,6.7905997   L 7.8406818,6.7905997   L 7.8406818,7.3908738   L 7.8593946,7.4096323   L 7.8593946,7.465908   L 7.8781074,7.4846666   L 7.8781074,7.5034251   L 7.8968203,7.5221837   L 7.8968203,7.5409423   L 7.9155331,7.5409423   L 7.9155331,7.5597008   L 7.9716717,7.6159765   L 7.9903845,7.6159765   L 7.9903845,7.6347351   L 8.0090974,7.6347351   L 8.0278102,7.6534936   L 8.046523,7.6534936   L 8.0652359,7.6722522   L 8.1213744,7.6722522   L 8.1400873,7.6910108   L 8.776324,7.6910108   L 8.7950368,7.6722522   L 8.8511753,7.6722522   L 8.8698882,7.6534936   L 8.888601,7.6534936   L 8.9073139,7.6347351   L 8.9260267,7.6347351   L 8.9260267,7.6159765   L 8.9447396,7.6159765   L 8.9634524,7.5972179   L 8.9821653,7.5972179   L 8.9821653,7.5784594   L 9.0008781,7.5597008   L 9.0008781,7.5409423   L 9.0195909,7.5409423   L 9.0195909,7.5221837   L 9.0383038,7.5034251   L 9.0383038,7.4846666   L 9.0570166,7.465908   L 9.0570166,7.4096323   L 9.0757295,7.3908738   L 9.0757295,6.8093583   L 9.0757295,6.7905997   z "
     id="path149" />
  <path
     style="fill:none;stroke:#000000;stroke-width:0.018721435px;stroke-linecap:round;stroke-linejoin:round;stroke-miterlimit:4;stroke-dasharray:none;stroke-opacity:1;"
     d="  M 2.9392655,12.56157   L 2.9392655,13.525048  "
     id="path151" />
  <path
     style="fill:none;stroke:#000000;stroke-width:0.018721435px;stroke-linecap:round;stroke-linejoin:round;stroke-miterlimit:4;stroke-dasharray:none;stroke-opacity:1;"
     d="  M 2.2465723,13.725015   L 3.6319586,13.725015  "
     id="path153" />
  <path
     style="fill:none;stroke:#000000;stroke-width:0.018721435px;stroke-linecap:round;stroke-linejoin:round;stroke-miterlimit:4;stroke-dasharray:none;stroke-opacity:1;"
     d="  M 2.4712296,13.943161   L 3.4260228,13.943161  "
     id="path155" />
  <path
     style="fill:none;stroke:#000000;stroke-width:0.018721435px;stroke-linecap:round;stroke-linejoin:round;stroke-miterlimit:4;stroke-dasharray:none;stroke-opacity:1;"
     d="  M 2.4712296,13.943161   L 3.4260228,13.943161  "
     id="path157" />
  <path
     style="fill:none;stroke:#000000;stroke-width:0.018721435px;stroke-linecap:round;stroke-linejoin:round;stroke-miterlimit:4;stroke-dasharray:none;stroke-opacity:1;"
     d="  M 2.7146082,14.179486   L 3.1639227,14.179486  "
     id="path159" />
  <text
     xml:space="preserve"
     style="font-size:1.062500px;font-style:normal;font-variant:normal;font-weight:400;font-stretch:Normal;line-height:125.000000%;letter-spacing:0px;word-spacing:0px;fill:#000000;fill-opacity:1;stroke:none;font-family:Arial;text-align:start;text-anchor:start;"
     transform="matrix(1.000000,-0.000000,0.000000,1.000000,6.290403,13.913029)"
     x="0.000000"
     y="0.774563"
     id="text165"><tspan
       x="0.000000"
       y="0.774563"
       id="tspan163"><tspan
         dx="0.000000"
         dy="0.000000"
         style="fill:#000000;font-size:1.062500px;font-style:normal;font-variant:normal;font-weight:400;font-stretch:Normal;font-family:Arial;"
         id="tspan161">DC+12V</tspan></tspan></text>
  <ellipse
     style="fill:#999999;fill-rule:evenodd;fill-opacity:1;stroke:#000000;stroke-width:0.023102146px;stroke-linecap:round;stroke-linejoin:round;stroke-miterlimit:4;stroke-dasharray:none;stroke-opacity:1;"
     cx="79.02089"
     cy="14.509854"
     rx="0.98184121"
     ry="0.98184121"
     id="ellipse167" />
  <ellipse
     style="fill:none;stroke:#000000;stroke-width:0.023102146px;stroke-linecap:round;stroke-linejoin:round;stroke-miterlimit:4;stroke-dasharray:none;stroke-opacity:1;"
     cx="79.02089"
     cy="14.509854"
     rx="0.98184121"
     ry="0.98184121"
     id="ellipse169" />
  <ellipse
     style="fill:#666666;fill-rule:evenodd;fill-opacity:1;stroke:#000000;stroke-width:0.023102146px;stroke-linecap:round;stroke-linejoin:round;stroke-miterlimit:4;stroke-dasharray:none;stroke-opacity:1;"
     cx="79.02089"
     cy="14.509854"
     rx="0.7277176"
     ry="0.7277176"
     id="ellipse171" />
  <ellipse
     style="fill:none;stroke:#000000;stroke-width:0.023102146px;stroke-linecap:round;stroke-linejoin:round;stroke-miterlimit:4;stroke-dasharray:none;stroke-opacity:1;"
     cx="79.02089"
     cy="14.509854"
     rx="0.7277176"
     ry="0.7277176"
     id="ellipse173" />
  <ellipse
     style="fill:#7f7f7f;fill-rule:evenodd;fill-opacity:1;stroke:#000000;stroke-width:0.023102146px;stroke-linecap:round;stroke-linejoin:round;stroke-miterlimit:4;stroke-dasharray:none;stroke-opacity:1;"
     cx="79.02089"
     cy="14.509854"
     rx="0.65841116"
     ry="0.65841116"
     id="ellipse175" />
  <ellipse
     style="fill:none;stroke:#7f7f7f;stroke-width:0.023102146px;stroke-linecap:round;stroke-linejoin:round;stroke-miterlimit:4;stroke-dasharray:none;stroke-opacity:1;"
     cx="79.02089"
     cy="14.509854"
     rx="0.65841116"
     ry="0.65841116"
     id="ellipse177" />
  <path
     style="fill:#494949;fill-rule:evenodd;fill-opacity:1;stroke:#161616;stroke-width:0.023102146px;stroke-linecap:round;stroke-linejoin:round;stroke-miterlimit:4;stroke-dasharray:none;stroke-opacity:1;"
     d="  M 78.524194,14.475058   L 78.501092,14.475058   L 78.47799,14.498255   L 78.47799,14.521453   L 78.454888,14.521453   L 78.454888,14.660636   L 78.47799,14.660636   L 78.47799,14.683833   L 78.501092,14.70703   L 78.986237,14.70703   L 78.986237,15.217369   L 79.009339,15.217369   L 79.009339,15.240566   L 79.032441,15.240566   L 79.032441,15.263763   L 79.171054,15.263763   L 79.171054,15.240566   L 79.194157,15.240566   L 79.194157,15.217369   L 79.217259,15.217369   L 79.217259,14.70703   L 79.725506,14.70703   L 79.725506,14.683833   L 79.748608,14.683833   L 79.748608,14.660636   L 79.77171,14.660636   L 79.77171,14.521453   L 79.748608,14.521453   L 79.748608,14.498255   L 79.725506,14.498255   L 79.725506,14.475058   L 79.217259,14.475058   L 79.217259,13.987917   L 79.194157,13.96472   L 79.171054,13.96472   L 79.171054,13.941522   L 79.032441,13.941522   L 79.032441,13.96472   L 79.009339,13.96472   L 78.986237,13.987917   L 78.986237,14.475058   L 78.547296,14.475058   L 78.524194,14.475058   z "
     id="path179" />
  <path
     style="fill:none;stroke:#bfbfbf;stroke-width:0.023102146px;stroke-linecap:round;stroke-linejoin:round;stroke-miterlimit:4;stroke-dasharray:none;stroke-opacity:1;"
     d="  M 78.431786,14.54465   L 78.431786,14.660636   L 78.454888,14.683833   L 78.47799,14.683833   L 78.47799,14.70703   L 78.986237,14.70703   L 78.986237,15.240566   L 79.009339,15.263763   L 79.032441,15.263763   L 79.032441,15.286961   L 79.101748,15.286961   L 79.12485,15.286961  "
     id="path181" />
  <path
     style="fill:none;stroke:#bfbfbf;stroke-width:0.023102146px;stroke-linecap:round;stroke-linejoin:round;stroke-miterlimit:4;stroke-dasharray:none;stroke-opacity:1;"
     d="  M 78.986237,13.987917   L 78.986237,14.451861   L 78.986237,14.475058  "
     id="path183" />
  <text
     xml:space="preserve"
     style="font-size:1.062500px;font-style:normal;font-variant:normal;font-weight:400;font-stretch:Normal;line-height:125.000000%;letter-spacing:0px;word-spacing:0px;fill:#000000;fill-opacity:1;stroke:none;font-family:Arial;text-align:start;text-anchor:start;"
     transform="matrix(1.000000,-0.000000,0.000000,1.000000,36.843786,0.827261)"
     x="0.000000"
     y="0.774563"
     id="text189"><tspan
       x="0.000000"
       y="0.774563"
       id="tspan187"><tspan
         dx="0.000000"
         dy="0.000000"
         style="fill:#000000;font-size:1.062500px;font-style:normal;font-variant:normal;font-weight:400;font-stretch:Normal;font-family:Arial;"
         id="tspan185">11</tspan></tspan></text>
  <text
     xml:space="preserve"
     style="font-size:1.062500px;font-style:normal;font-variant:normal;font-weight:400;font-stretch:Normal;line-height:125.000000%;letter-spacing:0px;word-spacing:0px;fill:#000000;fill-opacity:1;stroke:none;font-family:Arial;text-align:start;text-anchor:start;"
     transform="matrix(1.000000,-0.000000,0.000000,1.000000,36.843786,0.827261)"
     x="5.541545"
     y="0.774563"
     id="text195"><tspan
       x="5.541545"
       y="0.774563"
       id="tspan193"><tspan
         dx="0.000000"
         dy="0.000000"
         style="fill:#000000;font-size:1.062500px;font-style:normal;font-variant:normal;font-weight:400;font-stretch:Normal;font-family:Arial;"
         id="tspan191">9</tspan></tspan></text>
  <text
     xml:space="preserve"
     style="font-size:1.062500px;font-style:normal;font-variant:normal;font-weight:400;font-stretch:Normal;line-height:125.000000%;letter-spacing:0px;word-spacing:0px;fill:#000000;fill-opacity:1;stroke:none;font-family:Arial;text-align:start;text-anchor:start;"
     transform="matrix(1.000000,-0.000000,0.000000,1.000000,36.843786,0.827261)"
     x="10.783547"
     y="0.774563"
     id="text201"><tspan
       x="10.783547"
       y="0.774563"
       id="tspan199"><tspan
         dx="0.000000"
         dy="0.000000"
         style="fill:#000000;font-size:1.062500px;font-style:normal;font-variant:normal;font-weight:400;font-stretch:Normal;font-family:Arial;"
         id="tspan197">7</tspan></tspan></text>
  <text
     xml:space="preserve"
     style="font-size:1.062500px;font-style:normal;font-variant:normal;font-weight:400;font-stretch:Normal;line-height:125.000000%;letter-spacing:0px;word-spacing:0px;fill:#000000;fill-opacity:1;stroke:none;font-family:Arial;text-align:start;text-anchor:start;"
     transform="matrix(1.000000,-0.000000,0.000000,1.000000,36.843786,0.827261)"
     x="16.025549"
     y="0.774563"
     id="text207"><tspan
       x="16.025549"
       y="0.774563"
       id="tspan205"><tspan
         dx="0.000000"
         dy="0.000000"
         style="fill:#000000;font-size:1.062500px;font-style:normal;font-variant:normal;font-weight:400;font-stretch:Normal;font-family:Arial;"
         id="tspan203">5</tspan></tspan></text>
  <text
     xml:space="preserve"
     style="font-size:1.062500px;font-style:normal;font-variant:normal;font-weight:400;font-stretch:Normal;line-height:125.000000%;letter-spacing:0px;word-spacing:0px;fill:#000000;fill-opacity:1;stroke:none;font-family:Arial;text-align:start;text-anchor:start;"
     transform="matrix(1.000000,-0.000000,0.000000,1.000000,36.843786,0.827261)"
     x="21.342437"
     y="0.774563"
     id="text213"><tspan
       x="21.342437"
       y="0.774563"
       id="tspan211"><tspan
         dx="0.000000"
         dy="0.000000"
         style="fill:#000000;font-size:1.062500px;font-style:normal;font-variant:normal;font-weight:400;font-stretch:Normal;font-family:Arial;"
         id="tspan209">3</tspan></tspan></text>
  <text
     xml:space="preserve"
     style="font-size:1.062500px;font-style:normal;font-variant:normal;font-weight:400;font-stretch:Normal;line-height:125.000000%;letter-spacing:0px;word-spacing:0px;fill:#000000;fill-opacity:1;stroke:none;font-family:Arial;text-align:start;text-anchor:start;"
     transform="matrix(1.000000,-0.000000,0.000000,1.000000,36.843786,0.827261)"
     x="26.584439"
     y="0.774563"
     id="text219"><tspan
       x="26.584439"
       y="0.774563"
       id="tspan217"><tspan
         dx="0.000000"
         dy="0.000000"
         style="fill:#000000;font-size:1.062500px;font-style:normal;font-variant:normal;font-weight:400;font-stretch:Normal;font-family:Arial;"
         id="tspan215">1</tspan></tspan></text>
  <text
     xml:space="preserve"
     style="font-size:1.062500px;font-style:normal;font-variant:normal;font-weight:400;font-stretch:Normal;line-height:125.000000%;letter-spacing:0px;word-spacing:0px;fill:#000000;fill-opacity:1;stroke:none;font-family:Arial;text-align:start;text-anchor:start;"
     transform="matrix(1.000000,-0.000000,0.000000,1.000000,36.843786,0.827261)"
     x="31.077584"
     y="0.774563"
     id="text225"><tspan
       x="31.077584"
       y="0.774563"
       id="tspan223"><tspan
         dx="0.000000"
         dy="0.000000"
         style="fill:#000000;font-size:1.062500px;font-style:normal;font-variant:normal;font-weight:400;font-stretch:Normal;font-family:Arial;"
         id="tspan221">DMZ</tspan></tspan></text>
  <text
     xml:space="preserve"
     style="font-size:1.062500px;font-style:normal;font-variant:normal;font-weight:400;font-stretch:Normal;line-height:125.000000%;letter-spacing:0px;word-spacing:0px;fill:#000000;fill-opacity:1;stroke:none;font-family:Arial;text-align:start;text-anchor:start;"
     transform="matrix(1.000000,-0.000000,0.000000,1.000000,36.843786,0.827261)"
     x="35.795386"
     y="0.774563"
     id="text231"><tspan
       x="35.795386"
       y="0.774563"
       id="tspan229"><tspan
         dx="0.000000"
         dy="0.000000"
         style="fill:#000000;font-size:1.062500px;font-style:normal;font-variant:normal;font-weight:400;font-stretch:Normal;font-family:Arial;"
         id="tspan227">WAN 1</tspan></tspan></text>
  <text
     xml:space="preserve"
     style="font-size:1.062500px;font-style:normal;font-variant:normal;font-weight:400;font-stretch:Normal;line-height:125.000000%;letter-spacing:0px;word-spacing:0px;fill:#000000;fill-opacity:1;stroke:none;font-family:Arial;text-align:start;text-anchor:start;"
     transform="matrix(1.000000,-0.000000,0.000000,1.000000,36.843786,0.827261)"
     x="0.000000"
     y="13.860330"
     id="text237"><tspan
       x="0.000000"
       y="13.860330"
       id="tspan235"><tspan
         dx="0.000000"
         dy="0.000000"
         style="fill:#000000;font-size:1.062500px;font-style:normal;font-variant:normal;font-weight:400;font-stretch:Normal;font-family:Arial;"
         id="tspan233">12</tspan></tspan></text>
  <text
     xml:space="preserve"
     style="font-size:1.062500px;font-style:normal;font-variant:normal;font-weight:400;font-stretch:Normal;line-height:125.000000%;letter-spacing:0px;word-spacing:0px;fill:#000000;fill-opacity:1;stroke:none;font-family:Arial;text-align:start;text-anchor:start;"
     transform="matrix(1.000000,-0.000000,0.000000,1.000000,36.843786,0.827261)"
     x="5.242002"
     y="13.860330"
     id="text243"><tspan
       x="5.242002"
       y="13.860330"
       id="tspan241"><tspan
         dx="0.000000"
         dy="0.000000"
         style="fill:#000000;font-size:1.062500px;font-style:normal;font-variant:normal;font-weight:400;font-stretch:Normal;font-family:Arial;"
         id="tspan239">10</tspan></tspan></text>
  <text
     xml:space="preserve"
     style="font-size:1.062500px;font-style:normal;font-variant:normal;font-weight:400;font-stretch:Normal;line-height:125.000000%;letter-spacing:0px;word-spacing:0px;fill:#000000;fill-opacity:1;stroke:none;font-family:Arial;text-align:start;text-anchor:start;"
     transform="matrix(1.000000,-0.000000,0.000000,1.000000,36.843786,0.827261)"
     x="10.783547"
     y="13.860330"
     id="text249"><tspan
       x="10.783547"
       y="13.860330"
       id="tspan247"><tspan
         dx="0.000000"
         dy="0.000000"
         style="fill:#000000;font-size:1.062500px;font-style:normal;font-variant:normal;font-weight:400;font-stretch:Normal;font-family:Arial;"
         id="tspan245">8</tspan></tspan></text>
  <text
     xml:space="preserve"
     style="font-size:1.062500px;font-style:normal;font-variant:normal;font-weight:400;font-stretch:Normal;line-height:125.000000%;letter-spacing:0px;word-spacing:0px;fill:#000000;fill-opacity:1;stroke:none;font-family:Arial;text-align:start;text-anchor:start;"
     transform="matrix(1.000000,-0.000000,0.000000,1.000000,36.843786,0.827261)"
     x="16.025549"
     y="13.860330"
     id="text255"><tspan
       x="16.025549"
       y="13.860330"
       id="tspan253"><tspan
         dx="0.000000"
         dy="0.000000"
         style="fill:#000000;font-size:1.062500px;font-style:normal;font-variant:normal;font-weight:400;font-stretch:Normal;font-family:Arial;"
         id="tspan251">6</tspan></tspan></text>
  <text
     xml:space="preserve"
     style="font-size:1.062500px;font-style:normal;font-variant:normal;font-weight:400;font-stretch:Normal;line-height:125.000000%;letter-spacing:0px;word-spacing:0px;fill:#000000;fill-opacity:1;stroke:none;font-family:Arial;text-align:start;text-anchor:start;"
     transform="matrix(1.000000,-0.000000,0.000000,1.000000,36.843786,0.827261)"
     x="21.342437"
     y="13.860330"
     id="text261"><tspan
       x="21.342437"
       y="13.860330"
       id="tspan259"><tspan
         dx="0.000000"
         dy="0.000000"
         style="fill:#000000;font-size:1.062500px;font-style:normal;font-variant:normal;font-weight:400;font-stretch:Normal;font-family:Arial;"
         id="tspan257">4</tspan></tspan></text>
  <text
     xml:space="preserve"
     style="font-size:1.062500px;font-style:normal;font-variant:normal;font-weight:400;font-stretch:Normal;line-height:125.000000%;letter-spacing:0px;word-spacing:0px;fill:#000000;fill-opacity:1;stroke:none;font-family:Arial;text-align:start;text-anchor:start;"
     transform="matrix(1.000000,-0.000000,0.000000,1.000000,36.843786,0.827261)"
     x="26.584439"
     y="13.860330"
     id="text267"><tspan
       x="26.584439"
       y="13.860330"
       id="tspan265"><tspan
         dx="0.000000"
         dy="0.000000"
         style="fill:#000000;font-size:1.062500px;font-style:normal;font-variant:normal;font-weight:400;font-stretch:Normal;font-family:Arial;"
         id="tspan263">2</tspan></tspan></text>
  <text
     xml:space="preserve"
     style="font-size:1.062500px;font-style:normal;font-variant:normal;font-weight:400;font-stretch:Normal;line-height:125.000000%;letter-spacing:0px;word-spacing:0px;fill:#000000;fill-opacity:1;stroke:none;font-family:Arial;text-align:start;text-anchor:start;"
     transform="matrix(1.000000,-0.000000,0.000000,1.000000,36.843786,0.827261)"
     x="31.452013"
     y="13.860330"
     id="text273"><tspan
       x="31.452013"
       y="13.860330"
       id="tspan271"><tspan
         dx="0.000000"
         dy="0.000000"
         style="fill:#000000;font-size:1.062500px;font-style:normal;font-variant:normal;font-weight:400;font-stretch:Normal;font-family:Arial;"
         id="tspan269">HA</tspan></tspan></text>
  <text
     xml:space="preserve"
     style="font-size:1.062500px;font-style:normal;font-variant:normal;font-weight:400;font-stretch:Normal;line-height:125.000000%;letter-spacing:0px;word-spacing:0px;fill:#000000;fill-opacity:1;stroke:none;font-family:Arial;text-align:start;text-anchor:start;"
     transform="matrix(1.000000,-0.000000,0.000000,1.000000,36.843786,0.827261)"
     x="35.795386"
     y="13.860330"
     id="text279"><tspan
       x="35.795386"
       y="13.860330"
       id="tspan277"><tspan
         dx="0.000000"
         dy="0.000000"
         style="fill:#000000;font-size:1.062500px;font-style:normal;font-variant:normal;font-weight:400;font-stretch:Normal;font-family:Arial;"
         id="tspan275">WAN 2</tspan></tspan></text>
  <ellipse
     style="fill:#999999;fill-rule:evenodd;fill-opacity:1;stroke:#000000;stroke-width:0.023102146px;stroke-linecap:round;stroke-linejoin:round;stroke-miterlimit:4;stroke-dasharray:none;stroke-opacity:1;"
     cx="32.816598"
     cy="14.509854"
     rx="0.98184121"
     ry="0.98184121"
     id="ellipse281" />
  <ellipse
     style="fill:none;stroke:#000000;stroke-width:0.023102146px;stroke-linecap:round;stroke-linejoin:round;stroke-miterlimit:4;stroke-dasharray:none;stroke-opacity:1;"
     cx="32.816598"
     cy="14.509854"
     rx="0.98184121"
     ry="0.98184121"
     id="ellipse283" />
  <ellipse
     style="fill:#666666;fill-rule:evenodd;fill-opacity:1;stroke:#000000;stroke-width:0.023102146px;stroke-linecap:round;stroke-linejoin:round;stroke-miterlimit:4;stroke-dasharray:none;stroke-opacity:1;"
     cx="32.816598"
     cy="14.509854"
     rx="0.7277176"
     ry="0.7277176"
     id="ellipse285" />
  <ellipse
     style="fill:none;stroke:#000000;stroke-width:0.023102146px;stroke-linecap:round;stroke-linejoin:round;stroke-miterlimit:4;stroke-dasharray:none;stroke-opacity:1;"
     cx="32.816598"
     cy="14.509854"
     rx="0.7277176"
     ry="0.7277176"
     id="ellipse287" />
  <ellipse
     style="fill:#7f7f7f;fill-rule:evenodd;fill-opacity:1;stroke:#000000;stroke-width:0.023102146px;stroke-linecap:round;stroke-linejoin:round;stroke-miterlimit:4;stroke-dasharray:none;stroke-opacity:1;"
     cx="32.816598"
     cy="14.509854"
     rx="0.65841116"
     ry="0.65841116"
     id="ellipse289" />
  <ellipse
     style="fill:none;stroke:#7f7f7f;stroke-width:0.023102146px;stroke-linecap:round;stroke-linejoin:round;stroke-miterlimit:4;stroke-dasharray:none;stroke-opacity:1;"
     cx="32.816598"
     cy="14.509854"
     rx="0.65841116"
     ry="0.65841116"
     id="ellipse291" />
  <path
     style="fill:#494949;fill-rule:evenodd;fill-opacity:1;stroke:#161616;stroke-width:0.023102146px;stroke-linecap:round;stroke-linejoin:round;stroke-miterlimit:4;stroke-dasharray:none;stroke-opacity:1;"
     d="  M 32.319902,14.475058   L 32.2968,14.475058   L 32.273698,14.498255   L 32.273698,14.521453   L 32.250596,14.521453   L 32.250596,14.660636   L 32.273698,14.660636   L 32.273698,14.683833   L 32.2968,14.70703   L 32.781945,14.70703   L 32.781945,15.217369   L 32.805047,15.217369   L 32.805047,15.240566   L 32.828149,15.240566   L 32.828149,15.263763   L 32.966762,15.263763   L 32.966762,15.240566   L 32.989864,15.240566   L 32.989864,15.217369   L 33.012967,15.217369   L 33.012967,14.70703   L 33.521214,14.70703   L 33.521214,14.683833   L 33.544316,14.683833   L 33.544316,14.660636   L 33.567418,14.660636   L 33.567418,14.521453   L 33.544316,14.521453   L 33.544316,14.498255   L 33.521214,14.498255   L 33.521214,14.475058   L 33.012967,14.475058   L 33.012967,13.987917   L 32.989864,13.96472   L 32.966762,13.96472   L 32.966762,13.941522   L 32.828149,13.941522   L 32.828149,13.96472   L 32.805047,13.96472   L 32.781945,13.987917   L 32.781945,14.475058   L 32.343004,14.475058   L 32.319902,14.475058   z "
     id="path293" />
  <path
     style="fill:none;stroke:#bfbfbf;stroke-width:0.023102146px;stroke-linecap:round;stroke-linejoin:round;stroke-miterlimit:4;stroke-dasharray:none;stroke-opacity:1;"
     d="  M 32.227494,14.54465   L 32.227494,14.660636   L 32.250596,14.683833   L 32.273698,14.683833   L 32.273698,14.70703   L 32.781945,14.70703   L 32.781945,15.240566   L 32.805047,15.263763   L 32.828149,15.263763   L 32.828149,15.286961   L 32.897456,15.286961   L 32.920558,15.286961  "
     id="path295" />
  <path
     style="fill:none;stroke:#bfbfbf;stroke-width:0.023102146px;stroke-linecap:round;stroke-linejoin:round;stroke-miterlimit:4;stroke-dasharray:none;stroke-opacity:1;"
     d="  M 32.781945,13.987917   L 32.781945,14.451861   L 32.781945,14.475058  "
     id="path297" />
  <path
     style="fill:#000000;fill-rule:evenodd;fill-opacity:1;stroke:#161616;stroke-width:0.018576441px;stroke-linecap:round;stroke-linejoin:round;stroke-miterlimit:4;stroke-dasharray:none;stroke-opacity:1;"
     d="  M 71.965132,6.9552442   L 71.965132,4.1175045   L 73.154024,4.1175045   L 73.154024,3.4498011   L 73.637012,3.4498011   L 73.637012,2.7820977   L 75.048821,2.7820977   L 75.048821,3.4498011   L 75.531809,3.4498011   L 75.531809,4.1175045   L 76.720701,4.1175045   L 76.720701,6.9552442   L 71.965132,6.9552442   z "
     id="path299" />
  <path
     style="fill:#000000;fill-rule:evenodd;fill-opacity:1;stroke:#161616;stroke-width:0.018576441px;stroke-linecap:round;stroke-linejoin:round;stroke-miterlimit:4;stroke-dasharray:none;stroke-opacity:1;"
     d="  M 71.965132,8.9398072   L 71.965132,11.777547   L 73.154024,11.777547   L 73.154024,12.44525   L 73.637012,12.44525   L 73.637012,13.112954   L 75.048821,13.112954   L 75.048821,12.44525   L 75.531809,12.44525   L 75.531809,11.777547   L 76.720701,11.777547   L 76.720701,8.9398072   L 71.965132,8.9398072   z "
     id="path301" />
  <path
     style="fill:#000000;fill-rule:evenodd;fill-opacity:1;stroke:#161616;stroke-width:0.018576441px;stroke-linecap:round;stroke-linejoin:round;stroke-miterlimit:4;stroke-dasharray:none;stroke-opacity:1;"
     d="  M 66.726576,6.9552442   L 66.726576,4.1175045   L 67.915468,4.1175045   L 67.915468,3.4498011   L 68.398455,3.4498011   L 68.398455,2.7820977   L 69.810265,2.7820977   L 69.810265,3.4498011   L 70.293252,3.4498011   L 70.293252,4.1175045   L 71.482144,4.1175045   L 71.482144,6.9552442   L 66.726576,6.9552442   z "
     id="path303" />
  <path
     style="fill:#000000;fill-rule:evenodd;fill-opacity:1;stroke:#161616;stroke-width:0.018576441px;stroke-linecap:round;stroke-linejoin:round;stroke-miterlimit:4;stroke-dasharray:none;stroke-opacity:1;"
     d="  M 66.726576,8.9398072   L 66.726576,11.777547   L 67.915468,11.777547   L 67.915468,12.44525   L 68.398455,12.44525   L 68.398455,13.112954   L 69.810265,13.112954   L 69.810265,12.44525   L 70.293252,12.44525   L 70.293252,11.777547   L 71.482144,11.777547   L 71.482144,8.9398072   L 66.726576,8.9398072   z "
     id="path305" />
  <path
     style="fill:#000000;fill-rule:evenodd;fill-opacity:1;stroke:#161616;stroke-width:0.018576441px;stroke-linecap:round;stroke-linejoin:round;stroke-miterlimit:4;stroke-dasharray:none;stroke-opacity:1;"
     d="  M 61.488019,6.9552442   L 61.488019,4.1175045   L 62.676911,4.1175045   L 62.676911,3.4498011   L 63.159899,3.4498011   L 63.159899,2.7820977   L 64.571708,2.7820977   L 64.571708,3.4498011   L 65.054696,3.4498011   L 65.054696,4.1175045   L 66.243588,4.1175045   L 66.243588,6.9552442   L 61.488019,6.9552442   z "
     id="path307" />
  <path
     style="fill:#000000;fill-rule:evenodd;fill-opacity:1;stroke:#161616;stroke-width:0.018576441px;stroke-linecap:round;stroke-linejoin:round;stroke-miterlimit:4;stroke-dasharray:none;stroke-opacity:1;"
     d="  M 61.488019,8.9398072   L 61.488019,11.777547   L 62.676911,11.777547   L 62.676911,12.44525   L 63.159899,12.44525   L 63.159899,13.112954   L 64.571708,13.112954   L 64.571708,12.44525   L 65.054696,12.44525   L 65.054696,11.777547   L 66.243588,11.777547   L 66.243588,8.9398072   L 61.488019,8.9398072   z "
     id="path309" />
  <path
     style="fill:#000000;fill-rule:evenodd;fill-opacity:1;stroke:#161616;stroke-width:0.018576441px;stroke-linecap:round;stroke-linejoin:round;stroke-miterlimit:4;stroke-dasharray:none;stroke-opacity:1;"
     d="  M 56.230887,6.9552442   L 56.230887,4.1175045   L 57.419779,4.1175045   L 57.419779,3.4498011   L 57.902766,3.4498011   L 57.902766,2.7820977   L 59.314576,2.7820977   L 59.314576,3.4498011   L 59.797563,3.4498011   L 59.797563,4.1175045   L 60.986455,4.1175045   L 60.986455,6.9552442   L 56.230887,6.9552442   z "
     id="path311" />
  <path
     style="fill:#000000;fill-rule:evenodd;fill-opacity:1;stroke:#161616;stroke-width:0.018576441px;stroke-linecap:round;stroke-linejoin:round;stroke-miterlimit:4;stroke-dasharray:none;stroke-opacity:1;"
     d="  M 56.230887,8.9398072   L 56.230887,11.777547   L 57.419779,11.777547   L 57.419779,12.44525   L 57.902766,12.44525   L 57.902766,13.112954   L 59.314576,13.112954   L 59.314576,12.44525   L 59.797563,12.44525   L 59.797563,11.777547   L 60.986455,11.777547   L 60.986455,8.9398072   L 56.230887,8.9398072   z "
     id="path313" />
  <path
     style="fill:#000000;fill-rule:evenodd;fill-opacity:1;stroke:#161616;stroke-width:0.018576441px;stroke-linecap:round;stroke-linejoin:round;stroke-miterlimit:4;stroke-dasharray:none;stroke-opacity:1;"
     d="  M 50.918024,6.9552442   L 50.918024,4.1175045   L 52.106917,4.1175045   L 52.106917,3.4498011   L 52.589904,3.4498011   L 52.589904,2.7820977   L 54.001714,2.7820977   L 54.001714,3.4498011   L 54.484701,3.4498011   L 54.484701,4.1175045   L 55.673593,4.1175045   L 55.673593,6.9552442   L 50.918024,6.9552442   z "
     id="path315" />
  <path
     style="fill:#000000;fill-rule:evenodd;fill-opacity:1;stroke:#161616;stroke-width:0.018576441px;stroke-linecap:round;stroke-linejoin:round;stroke-miterlimit:4;stroke-dasharray:none;stroke-opacity:1;"
     d="  M 50.918024,8.9398072   L 50.918024,11.777547   L 52.106917,11.777547   L 52.106917,12.44525   L 52.589904,12.44525   L 52.589904,13.112954   L 54.001714,13.112954   L 54.001714,12.44525   L 54.484701,12.44525   L 54.484701,11.777547   L 55.673593,11.777547   L 55.673593,8.9398072   L 50.918024,8.9398072   z "
     id="path317" />
  <path
     style="fill:#000000;fill-rule:evenodd;fill-opacity:1;stroke:#161616;stroke-width:0.018576441px;stroke-linecap:round;stroke-linejoin:round;stroke-miterlimit:4;stroke-dasharray:none;stroke-opacity:1;"
     d="  M 45.679468,6.9552442   L 45.679468,4.1175045   L 46.86836,4.1175045   L 46.86836,3.4498011   L 47.351348,3.4498011   L 47.351348,2.7820977   L 48.763157,2.7820977   L 48.763157,3.4498011   L 49.246145,3.4498011   L 49.246145,4.1175045   L 50.435037,4.1175045   L 50.435037,6.9552442   L 45.679468,6.9552442   z "
     id="path319" />
  <path
     style="fill:#000000;fill-rule:evenodd;fill-opacity:1;stroke:#161616;stroke-width:0.018576441px;stroke-linecap:round;stroke-linejoin:round;stroke-miterlimit:4;stroke-dasharray:none;stroke-opacity:1;"
     d="  M 45.679468,8.9398072   L 45.679468,11.777547   L 46.86836,11.777547   L 46.86836,12.44525   L 47.351348,12.44525   L 47.351348,13.112954   L 48.763157,13.112954   L 48.763157,12.44525   L 49.246145,12.44525   L 49.246145,11.777547   L 50.435037,11.777547   L 50.435037,8.9398072   L 45.679468,8.9398072   z "
     id="path321" />
  <path
     style="fill:#000000;fill-rule:evenodd;fill-opacity:1;stroke:#161616;stroke-width:0.018576441px;stroke-linecap:round;stroke-linejoin:round;stroke-miterlimit:4;stroke-dasharray:none;stroke-opacity:1;"
     d="  M 40.440912,6.9552442   L 40.440912,4.1175045   L 41.629804,4.1175045   L 41.629804,3.4498011   L 42.112791,3.4498011   L 42.112791,2.7820977   L 43.524601,2.7820977   L 43.524601,3.4498011   L 44.007588,3.4498011   L 44.007588,4.1175045   L 45.196481,4.1175045   L 45.196481,6.9552442   L 40.440912,6.9552442   z "
     id="path323" />
  <path
     style="fill:#000000;fill-rule:evenodd;fill-opacity:1;stroke:#161616;stroke-width:0.018576441px;stroke-linecap:round;stroke-linejoin:round;stroke-miterlimit:4;stroke-dasharray:none;stroke-opacity:1;"
     d="  M 40.440912,8.9398072   L 40.440912,11.777547   L 41.629804,11.777547   L 41.629804,12.44525   L 42.112791,12.44525   L 42.112791,13.112954   L 43.524601,13.112954   L 43.524601,12.44525   L 44.007588,12.44525   L 44.007588,11.777547   L 45.196481,11.777547   L 45.196481,8.9398072   L 40.440912,8.9398072   z "
     id="path325" />
  <path
     style="fill:#000000;fill-rule:evenodd;fill-opacity:1;stroke:#161616;stroke-width:0.018576441px;stroke-linecap:round;stroke-linejoin:round;stroke-miterlimit:4;stroke-dasharray:none;stroke-opacity:1;"
     d="  M 35.202355,6.9552442   L 35.202355,4.1175045   L 36.391248,4.1175045   L 36.391248,3.4498011   L 36.874235,3.4498011   L 36.874235,2.7820977   L 38.286045,2.7820977   L 38.286045,3.4498011   L 38.769032,3.4498011   L 38.769032,4.1175045   L 39.957924,4.1175045   L 39.957924,6.9552442   L 35.202355,6.9552442   z "
     id="path327" />
  <path
     style="fill:#000000;fill-rule:evenodd;fill-opacity:1;stroke:#161616;stroke-width:0.018576441px;stroke-linecap:round;stroke-linejoin:round;stroke-miterlimit:4;stroke-dasharray:none;stroke-opacity:1;"
     d="  M 35.202355,8.9398072   L 35.202355,11.777547   L 36.391248,11.777547   L 36.391248,12.44525   L 36.874235,12.44525   L 36.874235,13.112954   L 38.286045,13.112954   L 38.286045,12.44525   L 38.769032,12.44525   L 38.769032,11.777547   L 39.957924,11.777547   L 39.957924,8.9398072   L 35.202355,8.9398072   z "
     id="path329" />
  <path
     style="fill:#000000;fill-rule:evenodd;fill-opacity:1;stroke:#000000;stroke-width:0.01476563px;stroke-linecap:round;stroke-linejoin:round;stroke-miterlimit:4;stroke-dasharray:none;stroke-opacity:1;"
     d="  M 9.4795346,7.8984283   L 9.4795346,12.984537   L 7.4123463,12.984537   L 7.4123463,7.8984283   L 7.8110184,7.8984283   L 7.8110184,8.3023252   L 9.0808626,8.3023252   L 9.0808626,7.8984283   L 9.4795346,7.8984283   z "
     id="path331" />
  <path
     style="fill:#666666;fill-rule:evenodd;fill-opacity:1;stroke:#000000;stroke-width:0.01476563px;stroke-linecap:round;stroke-linejoin:round;stroke-miterlimit:4;stroke-dasharray:none;stroke-opacity:1;"
     d="  M 9.420472,8.4519167   L 7.4714089,8.4519167   L 7.4714089,12.909742   L 9.420472,12.909742   L 9.420472,8.4519167   z "
     id="path333" />
  <path
     style="fill:#000000;fill-rule:evenodd;fill-opacity:1;stroke:#000000;stroke-width:0.01476563px;stroke-linecap:round;stroke-linejoin:round;stroke-miterlimit:4;stroke-dasharray:none;stroke-opacity:1;"
     d="  M 9.2137532,10.860339   L 7.6781277,10.860339   L 7.6781277,12.41609   L 9.2137532,12.41609   L 9.2137532,10.860339   z "
     id="path335" />
  <ellipse
     style="fill:#bfbfbf;fill-rule:evenodd;fill-opacity:1;stroke:#000000;stroke-width:0.01476563px;stroke-linecap:round;stroke-linejoin:round;stroke-miterlimit:4;stroke-dasharray:none;stroke-opacity:1;"
     cx="8.3721123"
     cy="11.555939"
     rx="0.11812504"
     ry="0.11074223"
     id="ellipse337" />
  <ellipse
     style="fill:none;stroke:#000000;stroke-width:0.01476563px;stroke-linecap:round;stroke-linejoin:round;stroke-miterlimit:4;stroke-dasharray:none;stroke-opacity:1;"
     cx="8.3721123"
     cy="11.555939"
     rx="0.11812504"
     ry="0.11074223"
     id="ellipse339" />
  <path
     style="fill:#000000;fill-rule:evenodd;fill-opacity:1;stroke:#000000;stroke-width:0.01476563px;stroke-linecap:round;stroke-linejoin:round;stroke-miterlimit:4;stroke-dasharray:none;stroke-opacity:1;"
     d="  M 9.2137532,8.9754867   L 7.6781277,8.9754867   L 7.6781277,10.1423   L 8.0620341,10.531238   L 8.8593781,10.531238   L 9.2137532,10.172218   L 9.2137532,8.9754867   z "
     id="path341" />
  <ellipse
     style="fill:#bfbfbf;fill-rule:evenodd;fill-opacity:1;stroke:#000000;stroke-width:0.01476563px;stroke-linecap:round;stroke-linejoin:round;stroke-miterlimit:4;stroke-dasharray:none;stroke-opacity:1;"
     cx="8.3721123"
     cy="9.671087"
     rx="0.11812504"
     ry="0.11074223"
     id="ellipse343" />
  <ellipse
     style="fill:none;stroke:#000000;stroke-width:0.01476563px;stroke-linecap:round;stroke-linejoin:round;stroke-miterlimit:4;stroke-dasharray:none;stroke-opacity:1;"
     cx="8.3721123"
     cy="9.671087"
     rx="0.11812504"
     ry="0.11074223"
     id="ellipse345" />
  <ellipse
     style="fill:#999999;fill-rule:evenodd;fill-opacity:1;stroke:#000000;stroke-width:0.028674604px;stroke-linecap:round;stroke-linejoin:round;stroke-miterlimit:4;stroke-dasharray:none;stroke-opacity:1;"
     cx="2.8244486"
     cy="10.711271"
     rx="1.2473453"
     ry="1.233008"
     id="ellipse347" />
  <ellipse
     style="fill:none;stroke:#000000;stroke-width:0.028674604px;stroke-linecap:round;stroke-linejoin:round;stroke-miterlimit:4;stroke-dasharray:none;stroke-opacity:1;"
     cx="2.8244486"
     cy="10.711271"
     rx="1.2473453"
     ry="1.233008"
     id="ellipse349" />
  <ellipse
     style="fill:#666666;fill-rule:evenodd;fill-opacity:1;stroke:#000000;stroke-width:0.028674604px;stroke-linecap:round;stroke-linejoin:round;stroke-miterlimit:4;stroke-dasharray:none;stroke-opacity:1;"
     cx="2.8101112"
     cy="10.711271"
     rx="0.91758735"
     ry="0.91758735"
     id="ellipse351" />
  <ellipse
     style="fill:none;stroke:#000000;stroke-width:0.028674604px;stroke-linecap:round;stroke-linejoin:round;stroke-miterlimit:4;stroke-dasharray:none;stroke-opacity:1;"
     cx="2.8101112"
     cy="10.711271"
     rx="0.91758735"
     ry="0.91758735"
     id="ellipse353" />
  <ellipse
     style="fill:#7f7f7f;fill-rule:evenodd;fill-opacity:1;stroke:#000000;stroke-width:0.028674604px;stroke-linecap:round;stroke-linejoin:round;stroke-miterlimit:4;stroke-dasharray:none;stroke-opacity:1;"
     cx="2.8244486"
     cy="10.725667"
     rx="0.84590083"
     ry="0.84590083"
     id="ellipse355" />
  <ellipse
     style="fill:none;stroke:#7f7f7f;stroke-width:0.028674604px;stroke-linecap:round;stroke-linejoin:round;stroke-miterlimit:4;stroke-dasharray:none;stroke-opacity:1;"
     cx="2.8244486"
     cy="10.725667"
     rx="0.84590083"
     ry="0.84590083"
     id="ellipse357" />
  <path
     style="fill:#494949;fill-rule:evenodd;fill-opacity:1;stroke:#161616;stroke-width:0.028674604px;stroke-linecap:round;stroke-linejoin:round;stroke-miterlimit:4;stroke-dasharray:none;stroke-opacity:1;"
     d="  M 2.1792699,10.653683   L 2.1505953,10.653683   L 2.1219207,10.682477   L 2.1219207,10.711271   L 2.0932461,10.711271   L 2.0932461,10.884033   L 2.1219207,10.884033   L 2.1219207,10.912827   L 2.1505953,10.94162   L 2.752762,10.94162   L 2.752762,11.575083   L 2.7814366,11.575083   L 2.7814366,11.603876   L 2.8101112,11.603876   L 2.8101112,11.63267   L 2.9821589,11.63267   L 2.9821589,11.603876   L 3.0108335,11.603876   L 3.0108335,11.575083   L 3.0395081,11.575083   L 3.0395081,10.94162   L 3.6703494,10.94162   L 3.6703494,10.912827   L 3.699024,10.912827   L 3.699024,10.884033   L 3.7276986,10.884033   L 3.7276986,10.711271   L 3.699024,10.711271   L 3.699024,10.682477   L 3.6703494,10.682477   L 3.6703494,10.653683   L 3.0395081,10.653683   L 3.0395081,10.049015   L 3.0108335,10.020221   L 2.9821589,10.020221   L 2.9821589,9.9914271   L 2.8101112,9.9914271   L 2.8101112,10.020221   L 2.7814366,10.020221   L 2.752762,10.049015   L 2.752762,10.653683   L 2.2079446,10.653683   L 2.1792699,10.653683   z "
     id="path359" />
  <path
     style="fill:none;stroke:#bfbfbf;stroke-width:0.028674604px;stroke-linecap:round;stroke-linejoin:round;stroke-miterlimit:4;stroke-dasharray:none;stroke-opacity:1;"
     d="  M 2.0645715,10.740064   L 2.0645715,10.884033   L 2.0932461,10.912827   L 2.1219207,10.912827   L 2.1219207,10.94162   L 2.752762,10.94162   L 2.752762,11.603876   L 2.7814366,11.63267   L 2.8101112,11.63267   L 2.8101112,11.661464   L 2.8961351,11.661464   L 2.9248097,11.661464  "
     id="path361" />
  <path
     style="fill:none;stroke:#bfbfbf;stroke-width:0.028674604px;stroke-linecap:round;stroke-linejoin:round;stroke-miterlimit:4;stroke-dasharray:none;stroke-opacity:1;"
     d="  M 2.752762,10.049015   L 2.752762,10.624889   L 2.752762,10.653683  "
     id="path363" />
</svg>
