<?xml version="1.0" encoding="UTF-8" standalone="no"?>
<svg
   version="1.0"
   width="21.620001mm"
   height="4.3600001mm"
   id="svg301"
   xmlns="http://www.w3.org/2000/svg"
   xmlns:svg="http://www.w3.org/2000/svg">
  <defs
     id="defs3">
    <pattern
       id="EMFhbasepattern"
       patternUnits="userSpaceOnUse"
       width="6"
       height="6"
       x="0"
       y="0" />
  </defs>
  <path
     style="fill:#eaeaea;fill-rule:evenodd;fill-opacity:1;stroke:#000000;stroke-width:0.09356422px;stroke-linecap:round;stroke-linejoin:round;stroke-miterlimit:4;stroke-dasharray:none;stroke-opacity:1;"
     d="  M 1.8425834,10.006556   M 1.0405177,11.380847   M 1.3006471,11.638527   M 1.3006471,11.638527   M 1.582454,11.917679   M 0.037425689,14.969333   L 0.037425689,15.044367   L 0.056138533,15.063126   L 0.056138533,15.119402   L 0.074851377,15.13816   L 0.074851377,15.156919   L 0.093564221,15.175677   L 0.093564221,15.194436   L 0.13098991,15.231953   L 0.13098991,15.250712   L 0.24326698,15.363263   L 0.26197982,15.363263   L 0.29940551,15.40078   L 0.31811835,15.40078   L 0.3368312,15.419539   L 0.35554404,15.419539   L 0.37425689,15.438297   L 0.43039542,15.438297   L 0.44910826,15.457056   L 81.064041,15.457056   L 81.082754,15.438297   L 81.138893,15.438297   L 81.157606,15.419539   L 81.176319,15.419539   L 81.195031,15.40078   L 81.213744,15.40078   L 81.25117,15.363263   L 81.269883,15.363263   L 81.38216,15.250712   L 81.38216,15.231953   L 81.419585,15.194436   L 81.419585,15.175677   L 81.438298,15.156919   L 81.438298,15.13816   L 81.457011,15.119402   L 81.457011,15.063126   L 81.475724,15.044367   L 81.475724,0.45020551   L 81.457011,0.43144695   L 81.457011,0.37517126   L 81.438298,0.35641269   L 81.438298,0.33765413   L 81.419585,0.31889557   L 81.419585,0.30013701   L 81.38216,0.26261988   L 81.38216,0.24386132   L 81.269883,0.13130994   L 81.25117,0.13130994   L 81.213744,0.093792814   L 81.195031,0.093792814   L 81.176319,0.075034251   L 81.157606,0.075034251   L 81.138893,0.056275689   L 81.082754,0.056275689   L 81.064041,0.037517126   L 0.44910826,0.037517126   L 0.43039542,0.056275689   L 0.37425689,0.056275689   L 0.35554404,0.075034251   L 0.3368312,0.075034251   L 0.31811835,0.093792814   L 0.29940551,0.093792814   L 0.26197982,0.13130994   L 0.24326698,0.13130994   L 0.13098991,0.24386132   L 0.13098991,0.26261988   L 0.093564221,0.30013701   L 0.093564221,0.31889557   L 0.074851377,0.33765413   L 0.074851377,0.35641269   L 0.056138533,0.37517126   L 0.056138533,0.43144695   L 0.037425689,0.45020551   L 0.037425689,14.931816   L 0.037425689,14.969333   z "
     id="path5" />
  <path
     style="fill:#333333;fill-rule:evenodd;fill-opacity:1;stroke:#000000;stroke-width:0.09356422px;stroke-linecap:round;stroke-linejoin:round;stroke-miterlimit:4;stroke-dasharray:none;stroke-opacity:1;"
     d="  M 4.4723698,15.457056   L 5.408012,16.394984   L 76.105138,16.394984   L 77.04078,15.457056   L 4.4723698,15.457056   z "
     id="path7" />
  <path
     style="fill:#000000;fill-rule:evenodd;fill-opacity:1;stroke:#000000;stroke-width:0.018712845px;stroke-linecap:round;stroke-linejoin:round;stroke-miterlimit:4;stroke-dasharray:none;stroke-opacity:1;"
     d="  M 79.791568,7.2595638   L 74.046725,7.2595638   L 74.046725,12.174307   L 79.791568,12.174307   L 79.791568,7.2595638   z "
     id="path9" />
  <path
     style="fill:#ffffff;fill-rule:evenodd;fill-opacity:1;stroke:#000000;stroke-width:0.018712845px;stroke-linecap:round;stroke-linejoin:round;stroke-miterlimit:4;stroke-dasharray:none;stroke-opacity:1;"
     d="  M 79.679291,7.3721152   L 74.159002,7.3721152   L 74.159002,12.080514   L 79.679291,12.080514   L 79.679291,7.3721152   z "
     id="path11" />
  <path
     style="fill:#000000;fill-rule:evenodd;fill-opacity:1;stroke:#000000;stroke-width:0.018712845px;stroke-linecap:round;stroke-linejoin:round;stroke-miterlimit:4;stroke-dasharray:none;stroke-opacity:1;"
     d="  M 18.151459,7.4096323   L 12.182062,7.4096323   L 12.182062,12.324376   L 18.151459,12.324376   L 18.151459,7.4096323   z "
     id="path13" />
  <path
     style="fill:#ffffff;fill-rule:evenodd;fill-opacity:1;stroke:#000000;stroke-width:0.018712845px;stroke-linecap:round;stroke-linejoin:round;stroke-miterlimit:4;stroke-dasharray:none;stroke-opacity:1;"
     d="  M 18.039182,7.5409423   L 12.294339,7.5409423   L 12.294339,12.249342   L 18.039182,12.249342   L 18.039182,7.5409423   z "
     id="path15" />
  <path
     style="fill:#000000;fill-rule:evenodd;fill-opacity:1;stroke:#000000;stroke-width:0.018712845px;stroke-linecap:round;stroke-linejoin:round;stroke-miterlimit:4;stroke-dasharray:none;stroke-opacity:1;"
     d="  M 73.522765,6.7905997   L 50.056858,6.7905997   L 50.056858,12.286859   L 73.522765,12.286859   L 73.522765,6.7905997   z "
     id="path17" />
  <path
     style="fill:#7f7f7f;fill-rule:evenodd;fill-opacity:1;stroke:#000000;stroke-width:0.018712845px;stroke-linecap:round;stroke-linejoin:round;stroke-miterlimit:4;stroke-dasharray:none;stroke-opacity:1;"
     d="  M 73.373062,6.9031511   L 50.206561,6.9031511   L 50.206561,12.174307   L 73.373062,12.174307   L 73.373062,6.9031511   z "
     id="path19" />
  <path
     style="fill:#ffffff;fill-rule:evenodd;fill-opacity:1;stroke:#000000;stroke-width:0.018712845px;stroke-linecap:round;stroke-linejoin:round;stroke-miterlimit:4;stroke-dasharray:none;stroke-opacity:1;"
     d="  M 56.194671,7.3721152   L 50.674382,7.3721152   L 50.674382,12.080514   L 56.194671,12.080514   L 56.194671,7.3721152   z "
     id="path21" />
  <path
     style="fill:#ffffff;fill-rule:evenodd;fill-opacity:1;stroke:#000000;stroke-width:0.018712845px;stroke-linecap:round;stroke-linejoin:round;stroke-miterlimit:4;stroke-dasharray:none;stroke-opacity:1;"
     d="  M 61.771099,7.3721152   L 56.25081,7.3721152   L 56.25081,12.080514   L 61.771099,12.080514   L 61.771099,7.3721152   z "
     id="path23" />
  <path
     style="fill:#ffffff;fill-rule:evenodd;fill-opacity:1;stroke:#000000;stroke-width:0.018712845px;stroke-linecap:round;stroke-linejoin:round;stroke-miterlimit:4;stroke-dasharray:none;stroke-opacity:1;"
     d="  M 67.347527,7.3721152   L 61.827238,7.3721152   L 61.827238,12.080514   L 67.347527,12.080514   L 67.347527,7.3721152   z "
     id="path25" />
  <path
     style="fill:#ffffff;fill-rule:evenodd;fill-opacity:1;stroke:#000000;stroke-width:0.018712845px;stroke-linecap:round;stroke-linejoin:round;stroke-miterlimit:4;stroke-dasharray:none;stroke-opacity:1;"
     d="  M 72.923954,7.3721152   L 67.403665,7.3721152   L 67.403665,12.080514   L 72.923954,12.080514   L 72.923954,7.3721152   z "
     id="path27" />
  <path
     style="fill:#000000;fill-rule:evenodd;fill-opacity:1;stroke:#000000;stroke-width:0.018712845px;stroke-linecap:round;stroke-linejoin:round;stroke-miterlimit:4;stroke-dasharray:none;stroke-opacity:1;"
     d="  M 20.022743,6.8093583   L 49.158642,6.8093583   L 49.158642,12.305617   L 20.022743,12.305617   L 20.022743,6.8093583   z "
     id="path29" />
  <path
     style="fill:#7f7f7f;fill-rule:evenodd;fill-opacity:1;stroke:#000000;stroke-width:0.018712845px;stroke-linecap:round;stroke-linejoin:round;stroke-miterlimit:4;stroke-dasharray:none;stroke-opacity:1;"
     d="  M 49.008939,6.9219097   L 20.153733,6.9219097   L 20.153733,12.193066   L 49.008939,12.193066   L 49.008939,6.9219097   z "
     id="path31" />
  <ellipse
     style="fill:#000000;fill-rule:evenodd;fill-opacity:1;stroke:#000000;stroke-width:0.018712845px;stroke-linecap:round;stroke-linejoin:round;stroke-miterlimit:4;stroke-dasharray:none;stroke-opacity:1;"
     cx="7.7845432"
     cy="13.496786"
     rx="0.29940551"
     ry="0.29004909"
     id="ellipse33" />
  <ellipse
     style="fill:none;stroke:#000000;stroke-width:0.018712845px;stroke-linecap:round;stroke-linejoin:round;stroke-miterlimit:4;stroke-dasharray:none;stroke-opacity:1;"
     cx="7.7845432"
     cy="13.496786"
     rx="0.29940551"
     ry="0.29004909"
     id="ellipse35" />
  <ellipse
     style="fill:#494949;fill-rule:evenodd;fill-opacity:1;stroke:#000000;stroke-width:0.018712845px;stroke-linecap:round;stroke-linejoin:round;stroke-miterlimit:4;stroke-dasharray:none;stroke-opacity:1;"
     cx="7.7751868"
     cy="13.496786"
     rx="0.21519771"
     ry="0.21519771"
     id="ellipse37" />
  <ellipse
     style="fill:none;stroke:#666666;stroke-width:0.018712845px;stroke-linecap:round;stroke-linejoin:round;stroke-miterlimit:4;stroke-dasharray:none;stroke-opacity:1;"
     cx="7.7751868"
     cy="13.496786"
     rx="0.21519771"
     ry="0.21519771"
     id="ellipse39" />
  <path
     style="fill:#000000;fill-rule:evenodd;fill-opacity:1;stroke:#000000;stroke-width:0.018712845px;stroke-linecap:round;stroke-linejoin:round;stroke-miterlimit:4;stroke-dasharray:none;stroke-opacity:1;"
     d="  M 11.040578,2.3823375   L 11.040578,2.2885447   L 10.965727,2.1384762   L 10.909588,2.0634419   L 10.834737,2.0071662   L 10.685034,1.932132   L 9.2254322,1.932132   L 9.0757295,2.0071662   L 9.0008781,2.0634419   L 8.9447396,2.1384762   L 8.8698882,2.2885447   L 8.8698882,2.4948889   L 8.9447396,2.6449574   L 9.0008781,2.7199916   L 9.0757295,2.7762673   L 9.2254322,2.8513016   L 10.685034,2.8513016   L 10.834737,2.7762673   L 10.909588,2.7199916   L 10.965727,2.6449574   L 11.040578,2.4948889   L 11.040578,2.401096   L 11.040578,2.3823375   z "
     id="path41" />
  <path
     style="fill:#000000;fill-rule:evenodd;fill-opacity:1;stroke:#000000;stroke-width:0.018712845px;stroke-linecap:round;stroke-linejoin:round;stroke-miterlimit:4;stroke-dasharray:none;stroke-opacity:1;"
     d="  M 14.128197,2.3823375   L 14.128197,2.2885447   L 14.053346,2.1384762   L 13.997208,2.0634419   L 13.922356,2.0071662   L 13.772653,1.932132   L 12.313052,1.932132   L 12.163349,2.0071662   L 12.088497,2.0634419   L 12.032359,2.1384762   L 11.957508,2.2885447   L 11.957508,2.4948889   L 12.032359,2.6449574   L 12.088497,2.7199916   L 12.163349,2.7762673   L 12.313052,2.8513016   L 13.772653,2.8513016   L 13.922356,2.7762673   L 13.997208,2.7199916   L 14.053346,2.6449574   L 14.128197,2.4948889   L 14.128197,2.401096   L 14.128197,2.3823375   z "
     id="path43" />
  <path
     style="fill:#000000;fill-rule:evenodd;fill-opacity:1;stroke:#000000;stroke-width:0.018712845px;stroke-linecap:round;stroke-linejoin:round;stroke-miterlimit:4;stroke-dasharray:none;stroke-opacity:1;"
     d="  M 17.215817,2.3823375   L 17.215817,2.2885447   L 17.140965,2.1384762   L 17.084827,2.0634419   L 17.009975,2.0071662   L 16.860273,1.932132   L 15.400671,1.932132   L 15.250968,2.0071662   L 15.176117,2.0634419   L 15.119978,2.1384762   L 15.045127,2.2885447   L 15.045127,2.4948889   L 15.119978,2.6449574   L 15.176117,2.7199916   L 15.250968,2.7762673   L 15.400671,2.8513016   L 16.860273,2.8513016   L 17.009975,2.7762673   L 17.084827,2.7199916   L 17.140965,2.6449574   L 17.215817,2.4948889   L 17.215817,2.401096   L 17.215817,2.3823375   z "
     id="path45" />
  <path
     style="fill:#000000;fill-rule:evenodd;fill-opacity:1;stroke:#000000;stroke-width:0.018712845px;stroke-linecap:round;stroke-linejoin:round;stroke-miterlimit:4;stroke-dasharray:none;stroke-opacity:1;"
     d="  M 20.303436,2.3823375   L 20.303436,2.2885447   L 20.228585,2.1384762   L 20.172446,2.0634419   L 20.097595,2.0071662   L 19.947892,1.932132   L 18.48829,1.932132   L 18.338587,2.0071662   L 18.263736,2.0634419   L 18.207597,2.1384762   L 18.132746,2.2885447   L 18.132746,2.4948889   L 18.207597,2.6449574   L 18.263736,2.7199916   L 18.338587,2.7762673   L 18.48829,2.8513016   L 19.947892,2.8513016   L 20.097595,2.7762673   L 20.172446,2.7199916   L 20.228585,2.6449574   L 20.303436,2.4948889   L 20.303436,2.401096   L 20.303436,2.3823375   z "
     id="path47" />
  <path
     style="fill:#000000;fill-rule:evenodd;fill-opacity:1;stroke:#000000;stroke-width:0.018712845px;stroke-linecap:round;stroke-linejoin:round;stroke-miterlimit:4;stroke-dasharray:none;stroke-opacity:1;"
     d="  M 23.391055,2.3823375   L 23.391055,2.2885447   L 23.316204,2.1384762   L 23.260065,2.0634419   L 23.185214,2.0071662   L 23.035511,1.932132   L 21.575909,1.932132   L 21.426207,2.0071662   L 21.351355,2.0634419   L 21.295217,2.1384762   L 21.220365,2.2885447   L 21.220365,2.4948889   L 21.295217,2.6449574   L 21.351355,2.7199916   L 21.426207,2.7762673   L 21.575909,2.8513016   L 23.035511,2.8513016   L 23.185214,2.7762673   L 23.260065,2.7199916   L 23.316204,2.6449574   L 23.391055,2.4948889   L 23.391055,2.401096   L 23.391055,2.3823375   z "
     id="path49" />
  <path
     style="fill:#000000;fill-rule:evenodd;fill-opacity:1;stroke:#000000;stroke-width:0.018712845px;stroke-linecap:round;stroke-linejoin:round;stroke-miterlimit:4;stroke-dasharray:none;stroke-opacity:1;"
     d="  M 26.478675,2.3823375   L 26.478675,2.2885447   L 26.403823,2.1384762   L 26.347685,2.0634419   L 26.272833,2.0071662   L 26.123131,1.932132   L 24.663529,1.932132   L 24.513826,2.0071662   L 24.438975,2.0634419   L 24.382836,2.1384762   L 24.307985,2.2885447   L 24.307985,2.4948889   L 24.382836,2.6449574   L 24.438975,2.7199916   L 24.513826,2.7762673   L 24.663529,2.8513016   L 26.123131,2.8513016   L 26.272833,2.7762673   L 26.347685,2.7199916   L 26.403823,2.6449574   L 26.478675,2.4948889   L 26.478675,2.401096   L 26.478675,2.3823375   z "
     id="path51" />
  <path
     style="fill:#000000;fill-rule:evenodd;fill-opacity:1;stroke:#000000;stroke-width:0.018712845px;stroke-linecap:round;stroke-linejoin:round;stroke-miterlimit:4;stroke-dasharray:none;stroke-opacity:1;"
     d="  M 29.566294,2.3823375   L 29.566294,2.2885447   L 29.491443,2.1384762   L 29.435304,2.0634419   L 29.360453,2.0071662   L 29.21075,1.932132   L 27.751148,1.932132   L 27.601445,2.0071662   L 27.526594,2.0634419   L 27.470455,2.1384762   L 27.395604,2.2885447   L 27.395604,2.4948889   L 27.470455,2.6449574   L 27.526594,2.7199916   L 27.601445,2.7762673   L 27.751148,2.8513016   L 29.21075,2.8513016   L 29.360453,2.7762673   L 29.435304,2.7199916   L 29.491443,2.6449574   L 29.566294,2.4948889   L 29.566294,2.401096   L 29.566294,2.3823375   z "
     id="path53" />
  <path
     style="fill:#000000;fill-rule:evenodd;fill-opacity:1;stroke:#000000;stroke-width:0.018712845px;stroke-linecap:round;stroke-linejoin:round;stroke-miterlimit:4;stroke-dasharray:none;stroke-opacity:1;"
     d="  M 32.653913,2.3823375   L 32.653913,2.2885447   L 32.579062,2.1384762   L 32.522923,2.0634419   L 32.448072,2.0071662   L 32.298369,1.932132   L 30.838767,1.932132   L 30.689065,2.0071662   L 30.614213,2.0634419   L 30.558075,2.1384762   L 30.483223,2.2885447   L 30.483223,2.4948889   L 30.558075,2.6449574   L 30.614213,2.7199916   L 30.689065,2.7762673   L 30.838767,2.8513016   L 32.298369,2.8513016   L 32.448072,2.7762673   L 32.522923,2.7199916   L 32.579062,2.6449574   L 32.653913,2.4948889   L 32.653913,2.401096   L 32.653913,2.3823375   z "
     id="path55" />
  <path
     style="fill:#000000;fill-rule:evenodd;fill-opacity:1;stroke:#000000;stroke-width:0.018712845px;stroke-linecap:round;stroke-linejoin:round;stroke-miterlimit:4;stroke-dasharray:none;stroke-opacity:1;"
     d="  M 35.741533,2.3823375   L 35.741533,2.2885447   L 35.666681,2.1384762   L 35.610543,2.0634419   L 35.535691,2.0071662   L 35.385989,1.932132   L 33.926387,1.932132   L 33.776684,2.0071662   L 33.701833,2.0634419   L 33.645694,2.1384762   L 33.570843,2.2885447   L 33.570843,2.4948889   L 33.645694,2.6449574   L 33.701833,2.7199916   L 33.776684,2.7762673   L 33.926387,2.8513016   L 35.385989,2.8513016   L 35.535691,2.7762673   L 35.610543,2.7199916   L 35.666681,2.6449574   L 35.741533,2.4948889   L 35.741533,2.401096   L 35.741533,2.3823375   z "
     id="path57" />
  <path
     style="fill:#000000;fill-rule:evenodd;fill-opacity:1;stroke:#000000;stroke-width:0.018712845px;stroke-linecap:round;stroke-linejoin:round;stroke-miterlimit:4;stroke-dasharray:none;stroke-opacity:1;"
     d="  M 38.829152,2.3823375   L 38.829152,2.2885447   L 38.754301,2.1384762   L 38.698162,2.0634419   L 38.623311,2.0071662   L 38.473608,1.932132   L 37.014006,1.932132   L 36.864303,2.0071662   L 36.789452,2.0634419   L 36.733313,2.1384762   L 36.658462,2.2885447   L 36.658462,2.4948889   L 36.733313,2.6449574   L 36.789452,2.7199916   L 36.864303,2.7762673   L 37.014006,2.8513016   L 38.473608,2.8513016   L 38.623311,2.7762673   L 38.698162,2.7199916   L 38.754301,2.6449574   L 38.829152,2.4948889   L 38.829152,2.401096   L 38.829152,2.3823375   z "
     id="path59" />
  <path
     style="fill:#000000;fill-rule:evenodd;fill-opacity:1;stroke:#000000;stroke-width:0.018712845px;stroke-linecap:round;stroke-linejoin:round;stroke-miterlimit:4;stroke-dasharray:none;stroke-opacity:1;"
     d="  M 41.916771,2.3823375   L 41.916771,2.2885447   L 41.84192,2.1384762   L 41.785781,2.0634419   L 41.71093,2.0071662   L 41.561227,1.932132   L 40.101625,1.932132   L 39.951923,2.0071662   L 39.877071,2.0634419   L 39.820933,2.1384762   L 39.746081,2.2885447   L 39.746081,2.4948889   L 39.820933,2.6449574   L 39.877071,2.7199916   L 39.951923,2.7762673   L 40.101625,2.8513016   L 41.561227,2.8513016   L 41.71093,2.7762673   L 41.785781,2.7199916   L 41.84192,2.6449574   L 41.916771,2.4948889   L 41.916771,2.401096   L 41.916771,2.3823375   z "
     id="path61" />
  <path
     style="fill:#000000;fill-rule:evenodd;fill-opacity:1;stroke:#000000;stroke-width:0.018712845px;stroke-linecap:round;stroke-linejoin:round;stroke-miterlimit:4;stroke-dasharray:none;stroke-opacity:1;"
     d="  M 45.004391,2.3823375   L 45.004391,2.2885447   L 44.929539,2.1384762   L 44.873401,2.0634419   L 44.798549,2.0071662   L 44.648846,1.932132   L 43.189245,1.932132   L 43.039542,2.0071662   L 42.96469,2.0634419   L 42.908552,2.1384762   L 42.833701,2.2885447   L 42.833701,2.4948889   L 42.908552,2.6449574   L 42.96469,2.7199916   L 43.039542,2.7762673   L 43.189245,2.8513016   L 44.648846,2.8513016   L 44.798549,2.7762673   L 44.873401,2.7199916   L 44.929539,2.6449574   L 45.004391,2.4948889   L 45.004391,2.401096   L 45.004391,2.3823375   z "
     id="path63" />
  <path
     style="fill:#000000;fill-rule:evenodd;fill-opacity:1;stroke:#000000;stroke-width:0.018712845px;stroke-linecap:round;stroke-linejoin:round;stroke-miterlimit:4;stroke-dasharray:none;stroke-opacity:1;"
     d="  M 48.09201,2.3823375   L 48.09201,2.2885447   L 48.017158,2.1384762   L 47.96102,2.0634419   L 47.886169,2.0071662   L 47.736466,1.932132   L 46.276864,1.932132   L 46.127161,2.0071662   L 46.05231,2.0634419   L 45.996171,2.1384762   L 45.92132,2.2885447   L 45.92132,2.4948889   L 45.996171,2.6449574   L 46.05231,2.7199916   L 46.127161,2.7762673   L 46.276864,2.8513016   L 47.736466,2.8513016   L 47.886169,2.7762673   L 47.96102,2.7199916   L 48.017158,2.6449574   L 48.09201,2.4948889   L 48.09201,2.401096   L 48.09201,2.3823375   z "
     id="path65" />
  <path
     style="fill:#000000;fill-rule:evenodd;fill-opacity:1;stroke:#000000;stroke-width:0.018712845px;stroke-linecap:round;stroke-linejoin:round;stroke-miterlimit:4;stroke-dasharray:none;stroke-opacity:1;"
     d="  M 51.179629,2.3823375   L 51.179629,2.2885447   L 51.104778,2.1384762   L 51.048639,2.0634419   L 50.973788,2.0071662   L 50.824085,1.932132   L 49.364483,1.932132   L 49.21478,2.0071662   L 49.139929,2.0634419   L 49.083791,2.1384762   L 49.008939,2.2885447   L 49.008939,2.4948889   L 49.083791,2.6449574   L 49.139929,2.7199916   L 49.21478,2.7762673   L 49.364483,2.8513016   L 50.824085,2.8513016   L 50.973788,2.7762673   L 51.048639,2.7199916   L 51.104778,2.6449574   L 51.179629,2.4948889   L 51.179629,2.401096   L 51.179629,2.3823375   z "
     id="path67" />
  <path
     style="fill:#000000;fill-rule:evenodd;fill-opacity:1;stroke:#000000;stroke-width:0.018712845px;stroke-linecap:round;stroke-linejoin:round;stroke-miterlimit:4;stroke-dasharray:none;stroke-opacity:1;"
     d="  M 54.267248,2.3823375   L 54.267248,2.2885447   L 54.192397,2.1384762   L 54.136259,2.0634419   L 54.061407,2.0071662   L 53.911704,1.932132   L 52.452103,1.932132   L 52.3024,2.0071662   L 52.227548,2.0634419   L 52.17141,2.1384762   L 52.096558,2.2885447   L 52.096558,2.4948889   L 52.17141,2.6449574   L 52.227548,2.7199916   L 52.3024,2.7762673   L 52.452103,2.8513016   L 53.911704,2.8513016   L 54.061407,2.7762673   L 54.136259,2.7199916   L 54.192397,2.6449574   L 54.267248,2.4948889   L 54.267248,2.401096   L 54.267248,2.3823375   z "
     id="path69" />
  <path
     style="fill:#000000;fill-rule:evenodd;fill-opacity:1;stroke:#000000;stroke-width:0.018712845px;stroke-linecap:round;stroke-linejoin:round;stroke-miterlimit:4;stroke-dasharray:none;stroke-opacity:1;"
     d="  M 57.354868,2.3823375   L 57.354868,2.2885447   L 57.280016,2.1384762   L 57.223878,2.0634419   L 57.149026,2.0071662   L 56.999324,1.932132   L 55.539722,1.932132   L 55.390019,2.0071662   L 55.315168,2.0634419   L 55.259029,2.1384762   L 55.184178,2.2885447   L 55.184178,2.4948889   L 55.259029,2.6449574   L 55.315168,2.7199916   L 55.390019,2.7762673   L 55.539722,2.8513016   L 56.999324,2.8513016   L 57.149026,2.7762673   L 57.223878,2.7199916   L 57.280016,2.6449574   L 57.354868,2.4948889   L 57.354868,2.401096   L 57.354868,2.3823375   z "
     id="path71" />
  <path
     style="fill:#000000;fill-rule:evenodd;fill-opacity:1;stroke:#000000;stroke-width:0.018712845px;stroke-linecap:round;stroke-linejoin:round;stroke-miterlimit:4;stroke-dasharray:none;stroke-opacity:1;"
     d="  M 60.442487,2.3823375   L 60.442487,2.2885447   L 60.367636,2.1384762   L 60.311497,2.0634419   L 60.236646,2.0071662   L 60.086943,1.932132   L 58.627341,1.932132   L 58.477638,2.0071662   L 58.402787,2.0634419   L 58.346648,2.1384762   L 58.271797,2.2885447   L 58.271797,2.4948889   L 58.346648,2.6449574   L 58.402787,2.7199916   L 58.477638,2.7762673   L 58.627341,2.8513016   L 60.086943,2.8513016   L 60.236646,2.7762673   L 60.311497,2.7199916   L 60.367636,2.6449574   L 60.442487,2.4948889   L 60.442487,2.401096   L 60.442487,2.3823375   z "
     id="path73" />
  <path
     style="fill:#000000;fill-rule:evenodd;fill-opacity:1;stroke:#000000;stroke-width:0.018712845px;stroke-linecap:round;stroke-linejoin:round;stroke-miterlimit:4;stroke-dasharray:none;stroke-opacity:1;"
     d="  M 63.530106,2.3823375   L 63.530106,2.2885447   L 63.455255,2.1384762   L 63.399116,2.0634419   L 63.324265,2.0071662   L 63.174562,1.932132   L 61.71496,1.932132   L 61.565258,2.0071662   L 61.490406,2.0634419   L 61.434268,2.1384762   L 61.359416,2.2885447   L 61.359416,2.4948889   L 61.434268,2.6449574   L 61.490406,2.7199916   L 61.565258,2.7762673   L 61.71496,2.8513016   L 63.174562,2.8513016   L 63.324265,2.7762673   L 63.399116,2.7199916   L 63.455255,2.6449574   L 63.530106,2.4948889   L 63.530106,2.401096   L 63.530106,2.3823375   z "
     id="path75" />
  <path
     style="fill:#000000;fill-rule:evenodd;fill-opacity:1;stroke:#000000;stroke-width:0.018712845px;stroke-linecap:round;stroke-linejoin:round;stroke-miterlimit:4;stroke-dasharray:none;stroke-opacity:1;"
     d="  M 66.617726,2.3823375   L 66.617726,2.2885447   L 66.542874,2.1384762   L 66.486736,2.0634419   L 66.411884,2.0071662   L 66.262182,1.932132   L 64.80258,1.932132   L 64.652877,2.0071662   L 64.578026,2.0634419   L 64.521887,2.1384762   L 64.447036,2.2885447   L 64.447036,2.4948889   L 64.521887,2.6449574   L 64.578026,2.7199916   L 64.652877,2.7762673   L 64.80258,2.8513016   L 66.262182,2.8513016   L 66.411884,2.7762673   L 66.486736,2.7199916   L 66.542874,2.6449574   L 66.617726,2.4948889   L 66.617726,2.401096   L 66.617726,2.3823375   z "
     id="path77" />
  <path
     style="fill:#000000;fill-rule:evenodd;fill-opacity:1;stroke:#000000;stroke-width:0.018712845px;stroke-linecap:round;stroke-linejoin:round;stroke-miterlimit:4;stroke-dasharray:none;stroke-opacity:1;"
     d="  M 69.724058,2.3823375   L 69.724058,2.2885447   L 69.649206,2.1384762   L 69.593068,2.0634419   L 69.518217,2.0071662   L 69.368514,1.932132   L 67.908912,1.932132   L 67.759209,2.0071662   L 67.684358,2.0634419   L 67.628219,2.1384762   L 67.553368,2.2885447   L 67.553368,2.4948889   L 67.628219,2.6449574   L 67.684358,2.7199916   L 67.759209,2.7762673   L 67.908912,2.8513016   L 69.368514,2.8513016   L 69.518217,2.7762673   L 69.593068,2.7199916   L 69.649206,2.6449574   L 69.724058,2.4948889   L 69.724058,2.401096   L 69.724058,2.3823375   z "
     id="path79" />
  <path
     style="fill:#000000;fill-rule:evenodd;fill-opacity:1;stroke:#000000;stroke-width:0.018712845px;stroke-linecap:round;stroke-linejoin:round;stroke-miterlimit:4;stroke-dasharray:none;stroke-opacity:1;"
     d="  M 11.040578,4.033091   L 11.040578,3.9392982   L 10.965727,3.7892297   L 10.909588,3.7141954   L 10.834737,3.6579198   L 10.685034,3.5828855   L 9.2254322,3.5828855   L 9.0757295,3.6579198   L 9.0008781,3.7141954   L 8.9447396,3.7892297   L 8.8698882,3.9392982   L 8.8698882,4.1456424   L 8.9447396,4.2957109   L 9.0008781,4.3707451   L 9.0757295,4.4270208   L 9.2254322,4.5020551   L 10.685034,4.5020551   L 10.834737,4.4270208   L 10.909588,4.3707451   L 10.965727,4.2957109   L 11.040578,4.1456424   L 11.040578,4.0518496   L 11.040578,4.033091   z "
     id="path81" />
  <path
     style="fill:#000000;fill-rule:evenodd;fill-opacity:1;stroke:#000000;stroke-width:0.018712845px;stroke-linecap:round;stroke-linejoin:round;stroke-miterlimit:4;stroke-dasharray:none;stroke-opacity:1;"
     d="  M 14.128197,4.033091   L 14.128197,3.9392982   L 14.053346,3.7892297   L 13.997208,3.7141954   L 13.922356,3.6579198   L 13.772653,3.5828855   L 12.313052,3.5828855   L 12.163349,3.6579198   L 12.088497,3.7141954   L 12.032359,3.7892297   L 11.957508,3.9392982   L 11.957508,4.1456424   L 12.032359,4.2957109   L 12.088497,4.3707451   L 12.163349,4.4270208   L 12.313052,4.5020551   L 13.772653,4.5020551   L 13.922356,4.4270208   L 13.997208,4.3707451   L 14.053346,4.2957109   L 14.128197,4.1456424   L 14.128197,4.0518496   L 14.128197,4.033091   z "
     id="path83" />
  <path
     style="fill:#000000;fill-rule:evenodd;fill-opacity:1;stroke:#000000;stroke-width:0.018712845px;stroke-linecap:round;stroke-linejoin:round;stroke-miterlimit:4;stroke-dasharray:none;stroke-opacity:1;"
     d="  M 17.215817,4.033091   L 17.215817,3.9392982   L 17.140965,3.7892297   L 17.084827,3.7141954   L 17.009975,3.6579198   L 16.860273,3.5828855   L 15.400671,3.5828855   L 15.250968,3.6579198   L 15.176117,3.7141954   L 15.119978,3.7892297   L 15.045127,3.9392982   L 15.045127,4.1456424   L 15.119978,4.2957109   L 15.176117,4.3707451   L 15.250968,4.4270208   L 15.400671,4.5020551   L 16.860273,4.5020551   L 17.009975,4.4270208   L 17.084827,4.3707451   L 17.140965,4.2957109   L 17.215817,4.1456424   L 17.215817,4.0518496   L 17.215817,4.033091   z "
     id="path85" />
  <path
     style="fill:#000000;fill-rule:evenodd;fill-opacity:1;stroke:#000000;stroke-width:0.018712845px;stroke-linecap:round;stroke-linejoin:round;stroke-miterlimit:4;stroke-dasharray:none;stroke-opacity:1;"
     d="  M 20.303436,4.033091   L 20.303436,3.9392982   L 20.228585,3.7892297   L 20.172446,3.7141954   L 20.097595,3.6579198   L 19.947892,3.5828855   L 18.48829,3.5828855   L 18.338587,3.6579198   L 18.263736,3.7141954   L 18.207597,3.7892297   L 18.132746,3.9392982   L 18.132746,4.1456424   L 18.207597,4.2957109   L 18.263736,4.3707451   L 18.338587,4.4270208   L 18.48829,4.5020551   L 19.947892,4.5020551   L 20.097595,4.4270208   L 20.172446,4.3707451   L 20.228585,4.2957109   L 20.303436,4.1456424   L 20.303436,4.0518496   L 20.303436,4.033091   z "
     id="path87" />
  <path
     style="fill:#000000;fill-rule:evenodd;fill-opacity:1;stroke:#000000;stroke-width:0.018712845px;stroke-linecap:round;stroke-linejoin:round;stroke-miterlimit:4;stroke-dasharray:none;stroke-opacity:1;"
     d="  M 23.391055,4.033091   L 23.391055,3.9392982   L 23.316204,3.7892297   L 23.260065,3.7141954   L 23.185214,3.6579198   L 23.035511,3.5828855   L 21.575909,3.5828855   L 21.426207,3.6579198   L 21.351355,3.7141954   L 21.295217,3.7892297   L 21.220365,3.9392982   L 21.220365,4.1456424   L 21.295217,4.2957109   L 21.351355,4.3707451   L 21.426207,4.4270208   L 21.575909,4.5020551   L 23.035511,4.5020551   L 23.185214,4.4270208   L 23.260065,4.3707451   L 23.316204,4.2957109   L 23.391055,4.1456424   L 23.391055,4.0518496   L 23.391055,4.033091   z "
     id="path89" />
  <path
     style="fill:#000000;fill-rule:evenodd;fill-opacity:1;stroke:#000000;stroke-width:0.018712845px;stroke-linecap:round;stroke-linejoin:round;stroke-miterlimit:4;stroke-dasharray:none;stroke-opacity:1;"
     d="  M 26.478675,4.033091   L 26.478675,3.9392982   L 26.403823,3.7892297   L 26.347685,3.7141954   L 26.272833,3.6579198   L 26.123131,3.5828855   L 24.663529,3.5828855   L 24.513826,3.6579198   L 24.438975,3.7141954   L 24.382836,3.7892297   L 24.307985,3.9392982   L 24.307985,4.1456424   L 24.382836,4.2957109   L 24.438975,4.3707451   L 24.513826,4.4270208   L 24.663529,4.5020551   L 26.123131,4.5020551   L 26.272833,4.4270208   L 26.347685,4.3707451   L 26.403823,4.2957109   L 26.478675,4.1456424   L 26.478675,4.0518496   L 26.478675,4.033091   z "
     id="path91" />
  <path
     style="fill:#000000;fill-rule:evenodd;fill-opacity:1;stroke:#000000;stroke-width:0.018712845px;stroke-linecap:round;stroke-linejoin:round;stroke-miterlimit:4;stroke-dasharray:none;stroke-opacity:1;"
     d="  M 29.566294,4.033091   L 29.566294,3.9392982   L 29.491443,3.7892297   L 29.435304,3.7141954   L 29.360453,3.6579198   L 29.21075,3.5828855   L 27.751148,3.5828855   L 27.601445,3.6579198   L 27.526594,3.7141954   L 27.470455,3.7892297   L 27.395604,3.9392982   L 27.395604,4.1456424   L 27.470455,4.2957109   L 27.526594,4.3707451   L 27.601445,4.4270208   L 27.751148,4.5020551   L 29.21075,4.5020551   L 29.360453,4.4270208   L 29.435304,4.3707451   L 29.491443,4.2957109   L 29.566294,4.1456424   L 29.566294,4.0518496   L 29.566294,4.033091   z "
     id="path93" />
  <path
     style="fill:#000000;fill-rule:evenodd;fill-opacity:1;stroke:#000000;stroke-width:0.018712845px;stroke-linecap:round;stroke-linejoin:round;stroke-miterlimit:4;stroke-dasharray:none;stroke-opacity:1;"
     d="  M 32.653913,4.033091   L 32.653913,3.9392982   L 32.579062,3.7892297   L 32.522923,3.7141954   L 32.448072,3.6579198   L 32.298369,3.5828855   L 30.838767,3.5828855   L 30.689065,3.6579198   L 30.614213,3.7141954   L 30.558075,3.7892297   L 30.483223,3.9392982   L 30.483223,4.1456424   L 30.558075,4.2957109   L 30.614213,4.3707451   L 30.689065,4.4270208   L 30.838767,4.5020551   L 32.298369,4.5020551   L 32.448072,4.4270208   L 32.522923,4.3707451   L 32.579062,4.2957109   L 32.653913,4.1456424   L 32.653913,4.0518496   L 32.653913,4.033091   z "
     id="path95" />
  <path
     style="fill:#000000;fill-rule:evenodd;fill-opacity:1;stroke:#000000;stroke-width:0.018712845px;stroke-linecap:round;stroke-linejoin:round;stroke-miterlimit:4;stroke-dasharray:none;stroke-opacity:1;"
     d="  M 35.741533,4.033091   L 35.741533,3.9392982   L 35.666681,3.7892297   L 35.610543,3.7141954   L 35.535691,3.6579198   L 35.385989,3.5828855   L 33.926387,3.5828855   L 33.776684,3.6579198   L 33.701833,3.7141954   L 33.645694,3.7892297   L 33.570843,3.9392982   L 33.570843,4.1456424   L 33.645694,4.2957109   L 33.701833,4.3707451   L 33.776684,4.4270208   L 33.926387,4.5020551   L 35.385989,4.5020551   L 35.535691,4.4270208   L 35.610543,4.3707451   L 35.666681,4.2957109   L 35.741533,4.1456424   L 35.741533,4.0518496   L 35.741533,4.033091   z "
     id="path97" />
  <path
     style="fill:#000000;fill-rule:evenodd;fill-opacity:1;stroke:#000000;stroke-width:0.018712845px;stroke-linecap:round;stroke-linejoin:round;stroke-miterlimit:4;stroke-dasharray:none;stroke-opacity:1;"
     d="  M 38.829152,4.033091   L 38.829152,3.9392982   L 38.754301,3.7892297   L 38.698162,3.7141954   L 38.623311,3.6579198   L 38.473608,3.5828855   L 37.014006,3.5828855   L 36.864303,3.6579198   L 36.789452,3.7141954   L 36.733313,3.7892297   L 36.658462,3.9392982   L 36.658462,4.1456424   L 36.733313,4.2957109   L 36.789452,4.3707451   L 36.864303,4.4270208   L 37.014006,4.5020551   L 38.473608,4.5020551   L 38.623311,4.4270208   L 38.698162,4.3707451   L 38.754301,4.2957109   L 38.829152,4.1456424   L 38.829152,4.0518496   L 38.829152,4.033091   z "
     id="path99" />
  <path
     style="fill:#000000;fill-rule:evenodd;fill-opacity:1;stroke:#000000;stroke-width:0.018712845px;stroke-linecap:round;stroke-linejoin:round;stroke-miterlimit:4;stroke-dasharray:none;stroke-opacity:1;"
     d="  M 41.916771,4.033091   L 41.916771,3.9392982   L 41.84192,3.7892297   L 41.785781,3.7141954   L 41.71093,3.6579198   L 41.561227,3.5828855   L 40.101625,3.5828855   L 39.951923,3.6579198   L 39.877071,3.7141954   L 39.820933,3.7892297   L 39.746081,3.9392982   L 39.746081,4.1456424   L 39.820933,4.2957109   L 39.877071,4.3707451   L 39.951923,4.4270208   L 40.101625,4.5020551   L 41.561227,4.5020551   L 41.71093,4.4270208   L 41.785781,4.3707451   L 41.84192,4.2957109   L 41.916771,4.1456424   L 41.916771,4.0518496   L 41.916771,4.033091   z "
     id="path101" />
  <path
     style="fill:#000000;fill-rule:evenodd;fill-opacity:1;stroke:#000000;stroke-width:0.018712845px;stroke-linecap:round;stroke-linejoin:round;stroke-miterlimit:4;stroke-dasharray:none;stroke-opacity:1;"
     d="  M 45.004391,4.033091   L 45.004391,3.9392982   L 44.929539,3.7892297   L 44.873401,3.7141954   L 44.798549,3.6579198   L 44.648846,3.5828855   L 43.189245,3.5828855   L 43.039542,3.6579198   L 42.96469,3.7141954   L 42.908552,3.7892297   L 42.833701,3.9392982   L 42.833701,4.1456424   L 42.908552,4.2957109   L 42.96469,4.3707451   L 43.039542,4.4270208   L 43.189245,4.5020551   L 44.648846,4.5020551   L 44.798549,4.4270208   L 44.873401,4.3707451   L 44.929539,4.2957109   L 45.004391,4.1456424   L 45.004391,4.0518496   L 45.004391,4.033091   z "
     id="path103" />
  <path
     style="fill:#000000;fill-rule:evenodd;fill-opacity:1;stroke:#000000;stroke-width:0.018712845px;stroke-linecap:round;stroke-linejoin:round;stroke-miterlimit:4;stroke-dasharray:none;stroke-opacity:1;"
     d="  M 48.09201,4.033091   L 48.09201,3.9392982   L 48.017158,3.7892297   L 47.96102,3.7141954   L 47.886169,3.6579198   L 47.736466,3.5828855   L 46.276864,3.5828855   L 46.127161,3.6579198   L 46.05231,3.7141954   L 45.996171,3.7892297   L 45.92132,3.9392982   L 45.92132,4.1456424   L 45.996171,4.2957109   L 46.05231,4.3707451   L 46.127161,4.4270208   L 46.276864,4.5020551   L 47.736466,4.5020551   L 47.886169,4.4270208   L 47.96102,4.3707451   L 48.017158,4.2957109   L 48.09201,4.1456424   L 48.09201,4.0518496   L 48.09201,4.033091   z "
     id="path105" />
  <path
     style="fill:#000000;fill-rule:evenodd;fill-opacity:1;stroke:#000000;stroke-width:0.018712845px;stroke-linecap:round;stroke-linejoin:round;stroke-miterlimit:4;stroke-dasharray:none;stroke-opacity:1;"
     d="  M 51.179629,4.033091   L 51.179629,3.9392982   L 51.104778,3.7892297   L 51.048639,3.7141954   L 50.973788,3.6579198   L 50.824085,3.5828855   L 49.364483,3.5828855   L 49.21478,3.6579198   L 49.139929,3.7141954   L 49.083791,3.7892297   L 49.008939,3.9392982   L 49.008939,4.1456424   L 49.083791,4.2957109   L 49.139929,4.3707451   L 49.21478,4.4270208   L 49.364483,4.5020551   L 50.824085,4.5020551   L 50.973788,4.4270208   L 51.048639,4.3707451   L 51.104778,4.2957109   L 51.179629,4.1456424   L 51.179629,4.0518496   L 51.179629,4.033091   z "
     id="path107" />
  <path
     style="fill:#000000;fill-rule:evenodd;fill-opacity:1;stroke:#000000;stroke-width:0.018712845px;stroke-linecap:round;stroke-linejoin:round;stroke-miterlimit:4;stroke-dasharray:none;stroke-opacity:1;"
     d="  M 54.267248,4.033091   L 54.267248,3.9392982   L 54.192397,3.7892297   L 54.136259,3.7141954   L 54.061407,3.6579198   L 53.911704,3.5828855   L 52.452103,3.5828855   L 52.3024,3.6579198   L 52.227548,3.7141954   L 52.17141,3.7892297   L 52.096558,3.9392982   L 52.096558,4.1456424   L 52.17141,4.2957109   L 52.227548,4.3707451   L 52.3024,4.4270208   L 52.452103,4.5020551   L 53.911704,4.5020551   L 54.061407,4.4270208   L 54.136259,4.3707451   L 54.192397,4.2957109   L 54.267248,4.1456424   L 54.267248,4.0518496   L 54.267248,4.033091   z "
     id="path109" />
  <path
     style="fill:#000000;fill-rule:evenodd;fill-opacity:1;stroke:#000000;stroke-width:0.018712845px;stroke-linecap:round;stroke-linejoin:round;stroke-miterlimit:4;stroke-dasharray:none;stroke-opacity:1;"
     d="  M 57.354868,4.033091   L 57.354868,3.9392982   L 57.280016,3.7892297   L 57.223878,3.7141954   L 57.149026,3.6579198   L 56.999324,3.5828855   L 55.539722,3.5828855   L 55.390019,3.6579198   L 55.315168,3.7141954   L 55.259029,3.7892297   L 55.184178,3.9392982   L 55.184178,4.1456424   L 55.259029,4.2957109   L 55.315168,4.3707451   L 55.390019,4.4270208   L 55.539722,4.5020551   L 56.999324,4.5020551   L 57.149026,4.4270208   L 57.223878,4.3707451   L 57.280016,4.2957109   L 57.354868,4.1456424   L 57.354868,4.0518496   L 57.354868,4.033091   z "
     id="path111" />
  <path
     style="fill:#000000;fill-rule:evenodd;fill-opacity:1;stroke:#000000;stroke-width:0.018712845px;stroke-linecap:round;stroke-linejoin:round;stroke-miterlimit:4;stroke-dasharray:none;stroke-opacity:1;"
     d="  M 60.442487,4.033091   L 60.442487,3.9392982   L 60.367636,3.7892297   L 60.311497,3.7141954   L 60.236646,3.6579198   L 60.086943,3.5828855   L 58.627341,3.5828855   L 58.477638,3.6579198   L 58.402787,3.7141954   L 58.346648,3.7892297   L 58.271797,3.9392982   L 58.271797,4.1456424   L 58.346648,4.2957109   L 58.402787,4.3707451   L 58.477638,4.4270208   L 58.627341,4.5020551   L 60.086943,4.5020551   L 60.236646,4.4270208   L 60.311497,4.3707451   L 60.367636,4.2957109   L 60.442487,4.1456424   L 60.442487,4.0518496   L 60.442487,4.033091   z "
     id="path113" />
  <path
     style="fill:#000000;fill-rule:evenodd;fill-opacity:1;stroke:#000000;stroke-width:0.018712845px;stroke-linecap:round;stroke-linejoin:round;stroke-miterlimit:4;stroke-dasharray:none;stroke-opacity:1;"
     d="  M 63.530106,4.033091   L 63.530106,3.9392982   L 63.455255,3.7892297   L 63.399116,3.7141954   L 63.324265,3.6579198   L 63.174562,3.5828855   L 61.71496,3.5828855   L 61.565258,3.6579198   L 61.490406,3.7141954   L 61.434268,3.7892297   L 61.359416,3.9392982   L 61.359416,4.1456424   L 61.434268,4.2957109   L 61.490406,4.3707451   L 61.565258,4.4270208   L 61.71496,4.5020551   L 63.174562,4.5020551   L 63.324265,4.4270208   L 63.399116,4.3707451   L 63.455255,4.2957109   L 63.530106,4.1456424   L 63.530106,4.0518496   L 63.530106,4.033091   z "
     id="path115" />
  <path
     style="fill:#000000;fill-rule:evenodd;fill-opacity:1;stroke:#000000;stroke-width:0.018712845px;stroke-linecap:round;stroke-linejoin:round;stroke-miterlimit:4;stroke-dasharray:none;stroke-opacity:1;"
     d="  M 66.617726,4.033091   L 66.617726,3.9392982   L 66.542874,3.7892297   L 66.486736,3.7141954   L 66.411884,3.6579198   L 66.262182,3.5828855   L 64.80258,3.5828855   L 64.652877,3.6579198   L 64.578026,3.7141954   L 64.521887,3.7892297   L 64.447036,3.9392982   L 64.447036,4.1456424   L 64.521887,4.2957109   L 64.578026,4.3707451   L 64.652877,4.4270208   L 64.80258,4.5020551   L 66.262182,4.5020551   L 66.411884,4.4270208   L 66.486736,4.3707451   L 66.542874,4.2957109   L 66.617726,4.1456424   L 66.617726,4.0518496   L 66.617726,4.033091   z "
     id="path117" />
  <path
     style="fill:#000000;fill-rule:evenodd;fill-opacity:1;stroke:#000000;stroke-width:0.018712845px;stroke-linecap:round;stroke-linejoin:round;stroke-miterlimit:4;stroke-dasharray:none;stroke-opacity:1;"
     d="  M 69.724058,4.033091   L 69.724058,3.9392982   L 69.649206,3.7892297   L 69.593068,3.7141954   L 69.518217,3.6579198   L 69.368514,3.5828855   L 67.908912,3.5828855   L 67.759209,3.6579198   L 67.684358,3.7141954   L 67.628219,3.7892297   L 67.553368,3.9392982   L 67.553368,4.1456424   L 67.628219,4.2957109   L 67.684358,4.3707451   L 67.759209,4.4270208   L 67.908912,4.5020551   L 69.368514,4.5020551   L 69.518217,4.4270208   L 69.593068,4.3707451   L 69.649206,4.2957109   L 69.724058,4.1456424   L 69.724058,4.0518496   L 69.724058,4.033091   z "
     id="path119" />
  <path
     style="fill:#ffffff;fill-rule:evenodd;fill-opacity:1;stroke:#000000;stroke-width:0.018712845px;stroke-linecap:round;stroke-linejoin:round;stroke-miterlimit:4;stroke-dasharray:none;stroke-opacity:1;"
     d="  M 26.197982,7.3908738   L 20.677693,7.3908738   L 20.677693,12.099273   L 26.197982,12.099273   L 26.197982,7.3908738   z "
     id="path121" />
  <path
     style="fill:#ffffff;fill-rule:evenodd;fill-opacity:1;stroke:#000000;stroke-width:0.018712845px;stroke-linecap:round;stroke-linejoin:round;stroke-miterlimit:4;stroke-dasharray:none;stroke-opacity:1;"
     d="  M 31.77441,7.3908738   L 26.254121,7.3908738   L 26.254121,12.099273   L 31.77441,12.099273   L 31.77441,7.3908738   z "
     id="path123" />
  <path
     style="fill:#ffffff;fill-rule:evenodd;fill-opacity:1;stroke:#000000;stroke-width:0.018712845px;stroke-linecap:round;stroke-linejoin:round;stroke-miterlimit:4;stroke-dasharray:none;stroke-opacity:1;"
     d="  M 37.350837,7.3908738   L 31.830548,7.3908738   L 31.830548,12.099273   L 37.350837,12.099273   L 37.350837,7.3908738   z "
     id="path125" />
  <path
     style="fill:#ffffff;fill-rule:evenodd;fill-opacity:1;stroke:#000000;stroke-width:0.018712845px;stroke-linecap:round;stroke-linejoin:round;stroke-miterlimit:4;stroke-dasharray:none;stroke-opacity:1;"
     d="  M 42.927265,7.3908738   L 37.406976,7.3908738   L 37.406976,12.099273   L 42.927265,12.099273   L 42.927265,7.3908738   z "
     id="path127" />
  <path
     style="fill:#ffffff;fill-rule:evenodd;fill-opacity:1;stroke:#000000;stroke-width:0.018712845px;stroke-linecap:round;stroke-linejoin:round;stroke-miterlimit:4;stroke-dasharray:none;stroke-opacity:1;"
     d="  M 48.503692,7.3908738   L 42.983403,7.3908738   L 42.983403,12.099273   L 48.503692,12.099273   L 48.503692,7.3908738   z "
     id="path129" />
  <text
     xml:space="preserve"
     style="font-size:0.812500px;font-style:normal;font-variant:normal;font-weight:400;font-stretch:Normal;line-height:125.000000%;letter-spacing:0px;word-spacing:0px;fill:#000000;fill-opacity:1;stroke:none;font-family:Arial;text-align:start;text-anchor:start;"
     transform="matrix(1.000000,-0.000000,0.000000,1.000000,13.254777,12.559329)"
     x="0.000000"
     y="0.592313"
     id="text135"><tspan
       x="0.000000"
       y="0.592313"
       id="tspan133"><tspan
         dx="0.000000"
         dy="0.000000"
         style="fill:#000000;font-size:0.812500px;font-style:normal;font-variant:normal;font-weight:400;font-stretch:Normal;font-family:Arial;"
         id="tspan131">CONSOLE</tspan></tspan></text>
  <text
     xml:space="preserve"
     style="font-size:0.812500px;font-style:normal;font-variant:normal;font-weight:400;font-stretch:Normal;line-height:125.000000%;letter-spacing:0px;word-spacing:0px;fill:#000000;fill-opacity:1;stroke:none;font-family:Arial;text-align:start;text-anchor:start;"
     transform="matrix(1.000000,-0.000000,0.000000,1.000000,13.254777,12.559329)"
     x="-4.418259"
     y="0.592313"
     id="text141"><tspan
       x="-4.418259"
       y="0.592313"
       id="tspan139"><tspan
         dx="0.000000"
         dy="0.000000"
         style="fill:#000000;font-size:0.812500px;font-style:normal;font-variant:normal;font-weight:400;font-stretch:Normal;font-family:Arial;"
         id="tspan137">USB</tspan></tspan></text>
  <text
     xml:space="preserve"
     style="font-size:0.687500px;font-style:normal;font-variant:normal;font-weight:400;font-stretch:Normal;line-height:125.000000%;letter-spacing:0px;word-spacing:0px;fill:#000000;fill-opacity:1;stroke:none;font-family:Arial;text-align:start;text-anchor:start;"
     transform="matrix(1.000000,-0.000000,0.000000,1.000000,13.254777,12.559329)"
     x="-5.766202"
     y="2.080504"
     id="text147"><tspan
       x="-5.766202"
       y="2.080504"
       id="tspan145"><tspan
         dx="0.000000"
         dy="0.000000"
         style="fill:#000000;font-size:0.687500px;font-style:normal;font-variant:normal;font-weight:400;font-stretch:Normal;font-family:Arial;"
         id="tspan143">RESET</tspan></tspan></text>
  <text
     xml:space="preserve"
     style="font-size:0.812500px;font-style:normal;font-variant:normal;font-weight:400;font-stretch:Normal;line-height:125.000000%;letter-spacing:0px;word-spacing:0px;fill:#000000;fill-opacity:1;stroke:none;font-family:Arial;text-align:start;text-anchor:start;"
     transform="matrix(1.000000,-0.000000,0.000000,1.000000,13.254777,12.559329)"
     x="9.136061"
     y="0.592313"
     id="text153"><tspan
       x="9.136061"
       y="0.592313"
       id="tspan151"><tspan
         dx="0.000000"
         dy="0.000000"
         style="fill:#000000;font-size:0.812500px;font-style:normal;font-variant:normal;font-weight:400;font-stretch:Normal;font-family:Arial;"
         id="tspan149">WAN</tspan></tspan></text>
  <text
     xml:space="preserve"
     style="font-size:0.812500px;font-style:normal;font-variant:normal;font-weight:400;font-stretch:Normal;line-height:125.000000%;letter-spacing:0px;word-spacing:0px;fill:#000000;fill-opacity:1;stroke:none;font-family:Arial;text-align:start;text-anchor:start;"
     transform="matrix(1.000000,-0.000000,0.000000,1.000000,13.254777,12.559329)"
     x="14.902263"
     y="0.592313"
     id="text159"><tspan
       x="14.902263"
       y="0.592313"
       id="tspan157"><tspan
         dx="0.000000"
         dy="0.000000"
         style="fill:#000000;font-size:0.812500px;font-style:normal;font-variant:normal;font-weight:400;font-stretch:Normal;font-family:Arial;"
         id="tspan155">DMZ</tspan></tspan></text>
  <text
     xml:space="preserve"
     style="font-size:0.812500px;font-style:normal;font-variant:normal;font-weight:400;font-stretch:Normal;line-height:125.000000%;letter-spacing:0px;word-spacing:0px;fill:#000000;fill-opacity:1;stroke:none;font-family:Arial;text-align:start;text-anchor:start;"
     transform="matrix(1.000000,-0.000000,0.000000,1.000000,13.254777,12.559329)"
     x="21.042894"
     y="0.592313"
     id="text165"><tspan
       x="21.042894"
       y="0.592313"
       id="tspan163"><tspan
         dx="0.000000"
         dy="0.000000"
         style="fill:#000000;font-size:0.812500px;font-style:normal;font-variant:normal;font-weight:400;font-stretch:Normal;font-family:Arial;"
         id="tspan161">7</tspan></tspan></text>
  <text
     xml:space="preserve"
     style="font-size:0.812500px;font-style:normal;font-variant:normal;font-weight:400;font-stretch:Normal;line-height:125.000000%;letter-spacing:0px;word-spacing:0px;fill:#000000;fill-opacity:1;stroke:none;font-family:Arial;text-align:start;text-anchor:start;"
     transform="matrix(1.000000,-0.000000,0.000000,1.000000,13.254777,12.559329)"
     x="26.659325"
     y="0.592313"
     id="text171"><tspan
       x="26.659325"
       y="0.592313"
       id="tspan169"><tspan
         dx="0.000000"
         dy="0.000000"
         style="fill:#000000;font-size:0.812500px;font-style:normal;font-variant:normal;font-weight:400;font-stretch:Normal;font-family:Arial;"
         id="tspan167">6</tspan></tspan></text>
  <text
     xml:space="preserve"
     style="font-size:0.812500px;font-style:normal;font-variant:normal;font-weight:400;font-stretch:Normal;line-height:125.000000%;letter-spacing:0px;word-spacing:0px;fill:#000000;fill-opacity:1;stroke:none;font-family:Arial;text-align:start;text-anchor:start;"
     transform="matrix(1.000000,-0.000000,0.000000,1.000000,13.254777,12.559329)"
     x="32.200870"
     y="0.592313"
     id="text177"><tspan
       x="32.200870"
       y="0.592313"
       id="tspan175"><tspan
         dx="0.000000"
         dy="0.000000"
         style="fill:#000000;font-size:0.812500px;font-style:normal;font-variant:normal;font-weight:400;font-stretch:Normal;font-family:Arial;"
         id="tspan173">5</tspan></tspan></text>
  <text
     xml:space="preserve"
     style="font-size:0.812500px;font-style:normal;font-variant:normal;font-weight:400;font-stretch:Normal;line-height:125.000000%;letter-spacing:0px;word-spacing:0px;fill:#000000;fill-opacity:1;stroke:none;font-family:Arial;text-align:start;text-anchor:start;"
     transform="matrix(1.000000,-0.000000,0.000000,1.000000,13.254777,12.559329)"
     x="39.839216"
     y="0.592313"
     id="text183"><tspan
       x="39.839216"
       y="0.592313"
       id="tspan181"><tspan
         dx="0.000000"
         dy="0.000000"
         style="fill:#000000;font-size:0.812500px;font-style:normal;font-variant:normal;font-weight:400;font-stretch:Normal;font-family:Arial;"
         id="tspan179">4</tspan></tspan></text>
  <text
     xml:space="preserve"
     style="font-size:0.812500px;font-style:normal;font-variant:normal;font-weight:400;font-stretch:Normal;line-height:125.000000%;letter-spacing:0px;word-spacing:0px;fill:#000000;fill-opacity:1;stroke:none;font-family:Arial;text-align:start;text-anchor:start;"
     transform="matrix(1.000000,-0.000000,0.000000,1.000000,13.254777,12.559329)"
     x="45.455647"
     y="0.592313"
     id="text189"><tspan
       x="45.455647"
       y="0.592313"
       id="tspan187"><tspan
         dx="0.000000"
         dy="0.000000"
         style="fill:#000000;font-size:0.812500px;font-style:normal;font-variant:normal;font-weight:400;font-stretch:Normal;font-family:Arial;"
         id="tspan185">3</tspan></tspan></text>
  <text
     xml:space="preserve"
     style="font-size:0.812500px;font-style:normal;font-variant:normal;font-weight:400;font-stretch:Normal;line-height:125.000000%;letter-spacing:0px;word-spacing:0px;fill:#000000;fill-opacity:1;stroke:none;font-family:Arial;text-align:start;text-anchor:start;"
     transform="matrix(1.000000,-0.000000,0.000000,1.000000,13.254777,12.559329)"
     x="50.997192"
     y="0.592313"
     id="text195"><tspan
       x="50.997192"
       y="0.592313"
       id="tspan193"><tspan
         dx="0.000000"
         dy="0.000000"
         style="fill:#000000;font-size:0.812500px;font-style:normal;font-variant:normal;font-weight:400;font-stretch:Normal;font-family:Arial;"
         id="tspan191">2</tspan></tspan></text>
  <text
     xml:space="preserve"
     style="font-size:0.812500px;font-style:normal;font-variant:normal;font-weight:400;font-stretch:Normal;line-height:125.000000%;letter-spacing:0px;word-spacing:0px;fill:#000000;fill-opacity:1;stroke:none;font-family:Arial;text-align:start;text-anchor:start;"
     transform="matrix(1.000000,-0.000000,0.000000,1.000000,13.254777,12.559329)"
     x="56.613623"
     y="0.592313"
     id="text201"><tspan
       x="56.613623"
       y="0.592313"
       id="tspan199"><tspan
         dx="0.000000"
         dy="0.000000"
         style="fill:#000000;font-size:0.812500px;font-style:normal;font-variant:normal;font-weight:400;font-stretch:Normal;font-family:Arial;"
         id="tspan197">1</tspan></tspan></text>
  <text
     xml:space="preserve"
     style="font-size:0.812500px;font-style:normal;font-variant:normal;font-weight:400;font-stretch:Normal;line-height:125.000000%;letter-spacing:0px;word-spacing:0px;fill:#000000;fill-opacity:1;stroke:none;font-family:Arial;text-align:start;text-anchor:start;"
     transform="matrix(1.000000,-0.000000,0.000000,1.000000,13.254777,12.559329)"
     x="62.754254"
     y="0.592313"
     id="text207"><tspan
       x="62.754254"
       y="0.592313"
       id="tspan205"><tspan
         dx="0.000000"
         dy="0.000000"
         style="fill:#000000;font-size:0.812500px;font-style:normal;font-variant:normal;font-weight:400;font-stretch:Normal;font-family:Arial;"
         id="tspan203">DSL</tspan></tspan></text>
  <text
     xml:space="preserve"
     style="font-size:0.812500px;font-style:normal;font-variant:normal;font-weight:400;font-stretch:Normal;line-height:125.000000%;letter-spacing:0px;word-spacing:0px;fill:#000000;fill-opacity:1;stroke:none;font-family:Arial;text-align:start;text-anchor:start;"
     transform="matrix(1.000000,-0.000000,0.000000,1.000000,13.254777,12.559329)"
     x="-9.884918"
     y="0.592313"
     id="text213"><tspan
       x="-9.884918"
       y="0.592313"
       id="tspan211"><tspan
         dx="0.000000"
         dy="0.000000"
         style="fill:#000000;font-size:0.812500px;font-style:normal;font-variant:normal;font-weight:400;font-stretch:Normal;font-family:Arial;"
         id="tspan209">DC+12V</tspan></tspan></text>
  <path
     style="fill:none;stroke:#000000;stroke-width:0.021677453px;stroke-linecap:round;stroke-linejoin:round;stroke-miterlimit:4;stroke-dasharray:none;stroke-opacity:1;"
     d="  M 1.8425834,10.006556   L 1.8425834,11.144641  "
     id="path215" />
  <path
     style="fill:none;stroke:#000000;stroke-width:0.021677453px;stroke-linecap:round;stroke-linejoin:round;stroke-miterlimit:4;stroke-dasharray:none;stroke-opacity:1;"
     d="  M 1.0405177,11.380847   L 2.6446492,11.380847  "
     id="path217" />
  <path
     style="fill:none;stroke:#000000;stroke-width:0.021677453px;stroke-linecap:round;stroke-linejoin:round;stroke-miterlimit:4;stroke-dasharray:none;stroke-opacity:1;"
     d="  M 1.3006471,11.638527   L 2.4061972,11.638527  "
     id="path219" />
  <path
     style="fill:none;stroke:#000000;stroke-width:0.021677453px;stroke-linecap:round;stroke-linejoin:round;stroke-miterlimit:4;stroke-dasharray:none;stroke-opacity:1;"
     d="  M 1.3006471,11.638527   L 2.4061972,11.638527  "
     id="path221" />
  <path
     style="fill:none;stroke:#000000;stroke-width:0.021677453px;stroke-linecap:round;stroke-linejoin:round;stroke-miterlimit:4;stroke-dasharray:none;stroke-opacity:1;"
     d="  M 1.582454,11.917679   L 2.1027129,11.917679  "
     id="path223" />
  <path
     style="fill:#000000;fill-rule:evenodd;fill-opacity:1;stroke:#161616;stroke-width:0.018576441px;stroke-linecap:round;stroke-linejoin:round;stroke-miterlimit:4;stroke-dasharray:none;stroke-opacity:1;"
     d="  M 74.435799,7.7527788   L 74.435799,10.590518   L 75.624691,10.590518   L 75.624691,11.258222   L 76.107678,11.258222   L 76.107678,11.925925   L 77.519488,11.925925   L 77.519488,11.258222   L 78.002475,11.258222   L 78.002475,10.590518   L 79.191367,10.590518   L 79.191367,7.7527788   L 74.435799,7.7527788   z "
     id="path225" />
  <path
     style="fill:#000000;fill-rule:evenodd;fill-opacity:1;stroke:#161616;stroke-width:0.018576441px;stroke-linecap:round;stroke-linejoin:round;stroke-miterlimit:4;stroke-dasharray:none;stroke-opacity:1;"
     d="  M 67.766856,7.7527788   L 67.766856,10.590518   L 68.955749,10.590518   L 68.955749,11.258222   L 69.438736,11.258222   L 69.438736,11.925925   L 70.850545,11.925925   L 70.850545,11.258222   L 71.333533,11.258222   L 71.333533,10.590518   L 72.522425,10.590518   L 72.522425,7.7527788   L 67.766856,7.7527788   z "
     id="path227" />
  <path
     style="fill:#000000;fill-rule:evenodd;fill-opacity:1;stroke:#161616;stroke-width:0.018576441px;stroke-linecap:round;stroke-linejoin:round;stroke-miterlimit:4;stroke-dasharray:none;stroke-opacity:1;"
     d="  M 62.156771,7.7527788   L 62.156771,10.590518   L 63.345663,10.590518   L 63.345663,11.258222   L 63.828651,11.258222   L 63.828651,11.925925   L 65.24046,11.925925   L 65.24046,11.258222   L 65.723448,11.258222   L 65.723448,10.590518   L 66.91234,10.590518   L 66.91234,7.7527788   L 62.156771,7.7527788   z "
     id="path229" />
  <path
     style="fill:#000000;fill-rule:evenodd;fill-opacity:1;stroke:#161616;stroke-width:0.018576441px;stroke-linecap:round;stroke-linejoin:round;stroke-miterlimit:4;stroke-dasharray:none;stroke-opacity:1;"
     d="  M 56.620992,7.7527788   L 56.620992,10.590518   L 57.809884,10.590518   L 57.809884,11.258222   L 58.292871,11.258222   L 58.292871,11.925925   L 59.704681,11.925925   L 59.704681,11.258222   L 60.187668,11.258222   L 60.187668,10.590518   L 61.376561,10.590518   L 61.376561,7.7527788   L 56.620992,7.7527788   z "
     id="path231" />
  <path
     style="fill:#000000;fill-rule:evenodd;fill-opacity:1;stroke:#161616;stroke-width:0.018576441px;stroke-linecap:round;stroke-linejoin:round;stroke-miterlimit:4;stroke-dasharray:none;stroke-opacity:1;"
     d="  M 50.99233,7.7527788   L 50.99233,10.590518   L 52.181222,10.590518   L 52.181222,11.258222   L 52.66421,11.258222   L 52.66421,11.925925   L 54.076019,11.925925   L 54.076019,11.258222   L 54.559007,11.258222   L 54.559007,10.590518   L 55.747899,10.590518   L 55.747899,7.7527788   L 50.99233,7.7527788   z "
     id="path233" />
  <path
     style="fill:#000000;fill-rule:evenodd;fill-opacity:1;stroke:#161616;stroke-width:0.018576441px;stroke-linecap:round;stroke-linejoin:round;stroke-miterlimit:4;stroke-dasharray:none;stroke-opacity:1;"
     d="  M 43.357413,7.7527788   L 43.357413,10.590518   L 44.546305,10.590518   L 44.546305,11.258222   L 45.029293,11.258222   L 45.029293,11.925925   L 46.441102,11.925925   L 46.441102,11.258222   L 46.92409,11.258222   L 46.92409,10.590518   L 48.112982,10.590518   L 48.112982,7.7527788   L 43.357413,7.7527788   z "
     id="path235" />
  <path
     style="fill:#000000;fill-rule:evenodd;fill-opacity:1;stroke:#161616;stroke-width:0.018576441px;stroke-linecap:round;stroke-linejoin:round;stroke-miterlimit:4;stroke-dasharray:none;stroke-opacity:1;"
     d="  M 37.821634,7.7527788   L 37.821634,10.590518   L 39.010526,10.590518   L 39.010526,11.258222   L 39.493513,11.258222   L 39.493513,11.925925   L 40.905323,11.925925   L 40.905323,11.258222   L 41.38831,11.258222   L 41.38831,10.590518   L 42.577202,10.590518   L 42.577202,7.7527788   L 37.821634,7.7527788   z "
     id="path237" />
  <path
     style="fill:#000000;fill-rule:evenodd;fill-opacity:1;stroke:#161616;stroke-width:0.018576441px;stroke-linecap:round;stroke-linejoin:round;stroke-miterlimit:4;stroke-dasharray:none;stroke-opacity:1;"
     d="  M 32.192972,7.7527788   L 32.192972,10.590518   L 33.381864,10.590518   L 33.381864,11.258222   L 33.864852,11.258222   L 33.864852,11.925925   L 35.276661,11.925925   L 35.276661,11.258222   L 35.759649,11.258222   L 35.759649,10.590518   L 36.948541,10.590518   L 36.948541,7.7527788   L 32.192972,7.7527788   z "
     id="path239" />
  <path
     style="fill:#000000;fill-rule:evenodd;fill-opacity:1;stroke:#161616;stroke-width:0.018576441px;stroke-linecap:round;stroke-linejoin:round;stroke-miterlimit:4;stroke-dasharray:none;stroke-opacity:1;"
     d="  M 26.657193,7.7527788   L 26.657193,10.590518   L 27.846085,10.590518   L 27.846085,11.258222   L 28.329072,11.258222   L 28.329072,11.925925   L 29.740882,11.925925   L 29.740882,11.258222   L 30.223869,11.258222   L 30.223869,10.590518   L 31.412762,10.590518   L 31.412762,7.7527788   L 26.657193,7.7527788   z "
     id="path241" />
  <path
     style="fill:#000000;fill-rule:evenodd;fill-opacity:1;stroke:#161616;stroke-width:0.018576441px;stroke-linecap:round;stroke-linejoin:round;stroke-miterlimit:4;stroke-dasharray:none;stroke-opacity:1;"
     d="  M 21.047108,7.7527788   L 21.047108,10.590518   L 22.236,10.590518   L 22.236,11.258222   L 22.718987,11.258222   L 22.718987,11.925925   L 24.130797,11.925925   L 24.130797,11.258222   L 24.613784,11.258222   L 24.613784,10.590518   L 25.802676,10.590518   L 25.802676,7.7527788   L 21.047108,7.7527788   z "
     id="path243" />
  <path
     style="fill:#000000;fill-rule:evenodd;fill-opacity:1;stroke:#161616;stroke-width:0.018576441px;stroke-linecap:round;stroke-linejoin:round;stroke-miterlimit:4;stroke-dasharray:none;stroke-opacity:1;"
     d="  M 12.799168,11.833189   L 12.799168,8.9954491   L 13.98806,8.9954491   L 13.98806,8.3277457   L 14.471047,8.3277457   L 14.471047,7.6600422   L 15.882857,7.6600422   L 15.882857,8.3277457   L 16.365844,8.3277457   L 16.365844,8.9954491   L 17.554737,8.9954491   L 17.554737,11.833189   L 12.799168,11.833189   z "
     id="path245" />
  <path
     style="fill:#494949;fill-rule:evenodd;fill-opacity:1;stroke:#000000;stroke-width:0.018280784px;stroke-linecap:round;stroke-linejoin:round;stroke-miterlimit:4;stroke-dasharray:none;stroke-opacity:1;"
     d="  M 10.803943,7.3760285   L 10.803943,7.3200081   L 10.785662,7.3200081   L 10.785662,7.2826611   L 10.767382,7.2639876   L 10.767382,7.2453141   L 10.749101,7.2453141   L 10.749101,7.2266406   L 10.73082,7.2266406   L 10.73082,7.2079671   L 10.712539,7.2079671   L 10.694258,7.1892936   L 10.657697,7.1892936   L 10.657697,7.1706202   L 8.86618,7.1706202   L 8.86618,7.1892936   L 8.8296185,7.1892936   L 8.8113377,7.2079671   L 8.7930569,7.2079671   L 8.7930569,7.2266406   L 8.7747761,7.2266406   L 8.7747761,7.2453141   L 8.7564953,7.2453141   L 8.7564953,7.2639876   L 8.7382145,7.2826611   L 8.7382145,7.3200081   L 8.7199338,7.3200081   L 8.7199338,11.988381   L 8.7382145,11.988381   L 8.7382145,12.025728   L 8.7564953,12.044401   L 8.7564953,12.063075   L 8.7747761,12.063075   L 8.7747761,12.081748   L 8.7930569,12.081748   L 8.7930569,12.100422   L 8.8113377,12.100422   L 8.8296185,12.119095   L 8.86618,12.119095   L 8.86618,12.137768   L 10.657697,12.137768   L 10.657697,12.119095   L 10.694258,12.119095   L 10.712539,12.100422   L 10.73082,12.100422   L 10.73082,12.081748   L 10.749101,12.081748   L 10.749101,12.063075   L 10.767382,12.063075   L 10.767382,12.044401   L 10.785662,12.025728   L 10.785662,11.988381   L 10.803943,11.988381   L 10.803943,7.394702   L 10.803943,7.3760285   z "
     id="path247" />
  <path
     style="fill:#000000;fill-rule:evenodd;fill-opacity:1;stroke:#494949;stroke-width:0.018280784px;stroke-linecap:round;stroke-linejoin:round;stroke-miterlimit:4;stroke-dasharray:none;stroke-opacity:1;"
     d="  M 10.639416,7.4507225   L 10.639416,7.394702   L 10.621135,7.394702   L 10.621135,7.3760285   L 10.602854,7.3573551   L 10.584574,7.3573551   L 10.584574,7.3386816   L 8.9393032,7.3386816   L 8.9210224,7.3573551   L 8.9027416,7.3573551   L 8.9027416,7.3760285   L 8.8844608,7.3760285   L 8.8844608,7.394702   L 8.86618,7.4133755   L 8.86618,11.913687   L 8.8844608,11.913687   L 8.8844608,11.93236   L 8.9027416,11.93236   L 8.9027416,11.951034   L 8.9210224,11.951034   L 8.9393032,11.969707   L 10.584574,11.969707   L 10.584574,11.951034   L 10.621135,11.951034   L 10.621135,11.913687   L 10.639416,11.913687   L 10.639416,7.469396   L 10.639416,7.4507225   z "
     id="path249" />
  <path
     style="fill:#494949;fill-rule:evenodd;fill-opacity:1;stroke:#494949;stroke-width:0.018280784px;stroke-linecap:round;stroke-linejoin:round;stroke-miterlimit:4;stroke-dasharray:none;stroke-opacity:1;"
     d="  M 9.6522537,8.4404175   L 9.6522537,8.0296007   L 9.7436576,8.0296007   L 9.7436576,8.4404175   L 9.6522537,8.4404175   z "
     id="path251" />
  <path
     style="fill:#494949;fill-rule:evenodd;fill-opacity:1;stroke:#494949;stroke-width:0.018280784px;stroke-linecap:round;stroke-linejoin:round;stroke-miterlimit:4;stroke-dasharray:none;stroke-opacity:1;"
     d="  M 9.6522537,9.374092   L 9.6522537,8.9632752   L 9.7436576,8.9632752   L 9.7436576,9.374092   L 9.6522537,9.374092   z "
     id="path253" />
  <path
     style="fill:#494949;fill-rule:evenodd;fill-opacity:1;stroke:#494949;stroke-width:0.018280784px;stroke-linecap:round;stroke-linejoin:round;stroke-miterlimit:4;stroke-dasharray:none;stroke-opacity:1;"
     d="  M 9.6522537,10.289093   L 9.6522537,9.8782762   L 9.7436576,9.8782762   L 9.7436576,10.289093   L 9.6522537,10.289093   z "
     id="path255" />
  <path
     style="fill:#494949;fill-rule:evenodd;fill-opacity:1;stroke:#494949;stroke-width:0.018280784px;stroke-linecap:round;stroke-linejoin:round;stroke-miterlimit:4;stroke-dasharray:none;stroke-opacity:1;"
     d="  M 9.6522537,11.241441   L 9.6522537,10.830624   L 9.7436576,10.830624   L 9.7436576,11.241441   L 9.6522537,11.241441   z "
     id="path257" />
  <path
     style="fill:#494949;fill-rule:evenodd;fill-opacity:1;stroke:#494949;stroke-width:0.018280784px;stroke-linecap:round;stroke-linejoin:round;stroke-miterlimit:4;stroke-dasharray:none;stroke-opacity:1;"
     d="  M 10.218958,11.689605   L 10.25552,11.689605   L 10.292081,11.670931   L 10.310362,11.633584   L 10.310362,7.6748044   L 10.292081,7.6374574   L 10.25552,7.6187839   L 9.7985,7.6187839   L 9.7619384,7.6374574   L 9.7436576,7.6748044   L 9.7436576,11.633584   L 9.7619384,11.670931   L 9.7985,11.689605   L 9.8350615,11.689605   L 10.218958,11.689605   z "
     id="path259" />
  <path
     style="fill:#0000ff;fill-rule:evenodd;fill-opacity:1;stroke:#0000ff;stroke-width:0.018280784px;stroke-linecap:round;stroke-linejoin:round;stroke-miterlimit:4;stroke-dasharray:none;stroke-opacity:1;"
     d="  M 10.03615,11.540217   L 10.109273,11.521543   L 10.182396,11.446849   L 10.200677,11.372155   L 10.200677,7.9362332   L 10.182396,7.8615393   L 10.109273,7.7868453   L 10.03615,7.7681718   L 9.963027,7.7868453   L 9.8899039,7.8615393   L 9.8716231,7.9362332   L 9.8716231,11.372155   L 9.8899039,11.446849   L 9.963027,11.521543   L 10.03615,11.540217   z "
     id="path261" />
  <path
     style="fill:#7f7f7f;fill-rule:evenodd;fill-opacity:1;stroke:#000000;stroke-width:0.018280784px;stroke-linecap:round;stroke-linejoin:round;stroke-miterlimit:4;stroke-dasharray:none;stroke-opacity:1;"
     d="  M 10.474889,7.3386816   L 10.474889,7.1332732   L 10.456608,7.1332732   L 10.456608,7.1145997   L 10.438327,7.1145997   L 10.438327,7.0959262   L 10.420047,7.0959262   L 10.401766,7.0772527   L 9.122111,7.0772527   L 9.1038302,7.0959262   L 9.0855494,7.0959262   L 9.0855494,7.1145997   L 9.0672686,7.1145997   L 9.0672686,7.1332732   L 9.0489879,7.1332732   L 9.0489879,7.3386816   L 10.456608,7.3386816   L 10.474889,7.3386816   z "
     id="path263" />
  <path
     style="fill:#7f7f7f;fill-rule:evenodd;fill-opacity:1;stroke:#000000;stroke-width:0.018280784px;stroke-linecap:round;stroke-linejoin:round;stroke-miterlimit:4;stroke-dasharray:none;stroke-opacity:1;"
     d="  M 10.474889,11.969707   L 10.474889,12.175115   L 10.456608,12.175115   L 10.456608,12.193789   L 10.438327,12.193789   L 10.438327,12.212462   L 10.420047,12.212462   L 10.401766,12.231136   L 9.122111,12.231136   L 9.1038302,12.212462   L 9.0855494,12.212462   L 9.0855494,12.193789   L 9.0672686,12.193789   L 9.0672686,12.175115   L 9.0489879,12.175115   L 9.0489879,11.969707   L 10.456608,11.969707   L 10.474889,11.969707   z "
     id="path265" />
  <path
     style="fill:#7f7f7f;fill-rule:evenodd;fill-opacity:1;stroke:#000000;stroke-width:0.018280784px;stroke-linecap:round;stroke-linejoin:round;stroke-miterlimit:4;stroke-dasharray:none;stroke-opacity:1;"
     d="  M 10.639416,7.6001104   L 10.840505,7.6001104   L 10.840505,7.6187839   L 10.858785,7.6187839   L 10.877066,7.6374574   L 10.877066,7.6561309   L 10.895347,7.6561309   L 10.895347,11.614911   L 10.877066,11.614911   L 10.877066,11.652258   L 10.840505,11.652258   L 10.840505,11.670931   L 10.639416,11.670931   L 10.639416,7.6187839   L 10.639416,7.6001104   z "
     id="path267" />
  <path
     style="fill:#7f7f7f;fill-rule:evenodd;fill-opacity:1;stroke:#000000;stroke-width:0.018280784px;stroke-linecap:round;stroke-linejoin:round;stroke-miterlimit:4;stroke-dasharray:none;stroke-opacity:1;"
     d="  M 8.86618,7.6001104   L 8.6650914,7.6001104   L 8.6650914,7.6187839   L 8.6468106,7.6187839   L 8.6285298,7.6374574   L 8.6285298,7.6561309   L 8.6102491,7.6561309   L 8.6102491,11.614911   L 8.6285298,11.614911   L 8.6285298,11.652258   L 8.6650914,11.652258   L 8.6650914,11.670931   L 8.86618,11.670931   L 8.86618,7.6187839   L 8.86618,7.6001104   z "
     id="path269" />
  <path
     style="fill:#000000;fill-rule:evenodd;fill-opacity:1;stroke:#000000;stroke-width:0.018458709px;stroke-linecap:round;stroke-linejoin:round;stroke-miterlimit:4;stroke-dasharray:none;stroke-opacity:1;"
     d="  M 6.2575023,5.8701313   L 6.2575023,12.226324   L 3.673283,12.226324   L 3.673283,5.8701313   L 4.1716682,5.8701313   L 4.1716682,6.3748879   L 5.7591171,6.3748879   L 5.7591171,5.8701313   L 6.2575023,5.8701313   z "
     id="path271" />
  <path
     style="fill:#666666;fill-rule:evenodd;fill-opacity:1;stroke:#000000;stroke-width:0.018458709px;stroke-linecap:round;stroke-linejoin:round;stroke-miterlimit:4;stroke-dasharray:none;stroke-opacity:1;"
     d="  M 6.1836674,6.5618347   L 3.7471179,6.5618347   L 3.7471179,12.132851   L 6.1836674,12.132851   L 6.1836674,6.5618347   z "
     id="path273" />
  <path
     style="fill:#000000;fill-rule:evenodd;fill-opacity:1;stroke:#000000;stroke-width:0.018458709px;stroke-linecap:round;stroke-linejoin:round;stroke-miterlimit:4;stroke-dasharray:none;stroke-opacity:1;"
     d="  M 5.9252455,9.5716791   L 4.0055398,9.5716791   L 4.0055398,11.515926   L 5.9252455,11.515926   L 5.9252455,9.5716791   z "
     id="path275" />
  <ellipse
     style="fill:#bfbfbf;fill-rule:evenodd;fill-opacity:1;stroke:#000000;stroke-width:0.018458709px;stroke-linecap:round;stroke-linejoin:round;stroke-miterlimit:4;stroke-dasharray:none;stroke-opacity:1;"
     cx="4.8823285"
     cy="10.459677"
     rx="0.15689902"
     ry="0.15689902"
     id="ellipse277" />
  <ellipse
     style="fill:none;stroke:#000000;stroke-width:0.018458709px;stroke-linecap:round;stroke-linejoin:round;stroke-miterlimit:4;stroke-dasharray:none;stroke-opacity:1;"
     cx="4.8823285"
     cy="10.459677"
     rx="0.15689902"
     ry="0.15689902"
     id="ellipse279" />
  <path
     style="fill:#000000;fill-rule:evenodd;fill-opacity:1;stroke:#000000;stroke-width:0.018458709px;stroke-linecap:round;stroke-linejoin:round;stroke-miterlimit:4;stroke-dasharray:none;stroke-opacity:1;"
     d="  M 5.9252455,7.2161487   L 4.0055398,7.2161487   L 4.0055398,8.6743342   L 4.4854662,9.160396   L 5.4822365,9.160396   L 5.9252455,8.7117236   L 5.9252455,7.2161487   z "
     id="path281" />
  <ellipse
     style="fill:#bfbfbf;fill-rule:evenodd;fill-opacity:1;stroke:#000000;stroke-width:0.018458709px;stroke-linecap:round;stroke-linejoin:round;stroke-miterlimit:4;stroke-dasharray:none;stroke-opacity:1;"
     cx="4.8823285"
     cy="8.1041463"
     rx="0.15689902"
     ry="0.15689902"
     id="ellipse283" />
  <ellipse
     style="fill:none;stroke:#000000;stroke-width:0.018458709px;stroke-linecap:round;stroke-linejoin:round;stroke-miterlimit:4;stroke-dasharray:none;stroke-opacity:1;"
     cx="4.8823285"
     cy="8.1041463"
     rx="0.15689902"
     ry="0.15689902"
     id="ellipse285" />
  <ellipse
     style="fill:#666666;fill-rule:evenodd;fill-opacity:1;stroke:#000000;stroke-width:0.026004648px;stroke-linecap:round;stroke-linejoin:round;stroke-miterlimit:4;stroke-dasharray:none;stroke-opacity:1;"
     cx="1.7423114"
     cy="9.4748282"
     rx="0.83214873"
     ry="0.83214873"
     id="ellipse287" />
  <ellipse
     style="fill:none;stroke:#000000;stroke-width:0.026004648px;stroke-linecap:round;stroke-linejoin:round;stroke-miterlimit:4;stroke-dasharray:none;stroke-opacity:1;"
     cx="1.7423114"
     cy="9.4748282"
     rx="0.83214873"
     ry="0.83214873"
     id="ellipse289" />
  <ellipse
     style="fill:#7f7f7f;fill-rule:evenodd;fill-opacity:1;stroke:#000000;stroke-width:0.026004648px;stroke-linecap:round;stroke-linejoin:round;stroke-miterlimit:4;stroke-dasharray:none;stroke-opacity:1;"
     cx="1.7423114"
     cy="9.4748282"
     rx="0.75413479"
     ry="0.75413479"
     id="ellipse291" />
  <ellipse
     style="fill:none;stroke:#7f7f7f;stroke-width:0.026004648px;stroke-linecap:round;stroke-linejoin:round;stroke-miterlimit:4;stroke-dasharray:none;stroke-opacity:1;"
     cx="1.7423114"
     cy="9.4748282"
     rx="0.75413479"
     ry="0.75413479"
     id="ellipse293" />
  <path
     style="fill:#494949;fill-rule:evenodd;fill-opacity:1;stroke:#161616;stroke-width:0.026004648px;stroke-linecap:round;stroke-linejoin:round;stroke-miterlimit:4;stroke-dasharray:none;stroke-opacity:1;"
     d="  M 1.1702091,9.4226253   L 1.1442045,9.4226253   L 1.1181999,9.4487267   L 1.1181999,9.4748282   L 1.0921952,9.4748282   L 1.0921952,9.6314369   L 1.1181999,9.6314369   L 1.1181999,9.6575384   L 1.1442045,9.6836398   L 1.6903021,9.6836398   L 1.6903021,10.257872   L 1.7163068,10.257872   L 1.7163068,10.283973   L 1.7423114,10.283973   L 1.7423114,10.310075   L 1.8983393,10.310075   L 1.8983393,10.283973   L 1.9243439,10.283973   L 1.9243439,10.257872   L 1.9503486,10.257872   L 1.9503486,9.6836398   L 2.5224508,9.6836398   L 2.5224508,9.6575384   L 2.5484555,9.6575384   L 2.5484555,9.6314369   L 2.5744601,9.6314369   L 2.5744601,9.4748282   L 2.5484555,9.4748282   L 2.5484555,9.4487267   L 2.5224508,9.4487267   L 2.5224508,9.4226253   L 1.9503486,9.4226253   L 1.9503486,8.8744947   L 1.9243439,8.8483933   L 1.8983393,8.8483933   L 1.8983393,8.8222918   L 1.7423114,8.8222918   L 1.7423114,8.8483933   L 1.7163068,8.8483933   L 1.6903021,8.8744947   L 1.6903021,9.4226253   L 1.1962138,9.4226253   L 1.1702091,9.4226253   z "
     id="path295" />
  <path
     style="fill:none;stroke:#bfbfbf;stroke-width:0.026004648px;stroke-linecap:round;stroke-linejoin:round;stroke-miterlimit:4;stroke-dasharray:none;stroke-opacity:1;"
     d="  M 1.0661906,9.5009297   L 1.0661906,9.6314369   L 1.0921952,9.6575384   L 1.1181999,9.6575384   L 1.1181999,9.6836398   L 1.6903021,9.6836398   L 1.6903021,10.283973   L 1.7163068,10.310075   L 1.7423114,10.310075   L 1.7423114,10.336176   L 1.8203253,10.336176   L 1.84633,10.336176  "
     id="path297" />
  <path
     style="fill:none;stroke:#bfbfbf;stroke-width:0.026004648px;stroke-linecap:round;stroke-linejoin:round;stroke-miterlimit:4;stroke-dasharray:none;stroke-opacity:1;"
     d="  M 1.6903021,8.8744947   L 1.6903021,9.3965238   L 1.6903021,9.4226253  "
     id="path299" />
</svg>
