<?xml version="1.0" encoding="UTF-8" standalone="no"?>
<svg
   version="1.0"
   width="2.8299999mm"
   height="1.08mm"
   id="svg63"
   xmlns="http://www.w3.org/2000/svg"
   xmlns:svg="http://www.w3.org/2000/svg">
  <defs
     id="defs3">
    <pattern
       id="EMFhbasepattern"
       patternUnits="userSpaceOnUse"
       width="6"
       height="6"
       x="0"
       y="0" />
  </defs>
  <path
     style="fill:#bfbfbf;fill-rule:evenodd;fill-opacity:1;stroke:#000000;stroke-width:0.018795626px;stroke-linecap:round;stroke-linejoin:round;stroke-miterlimit:4;stroke-dasharray:none;stroke-opacity:1;"
     d="  M 4.0791535,1.6891171   M 5.454149,1.6891171   M 0,0   L 0,3.9605626   L 10.675916,3.9605626   L 10.675916,0   L 0,0   z "
     id="path5" />
  <path
     style="fill:#efefef;fill-rule:evenodd;fill-opacity:1;stroke:#848484;stroke-width:0.018795626px;stroke-linecap:round;stroke-linejoin:round;stroke-miterlimit:4;stroke-dasharray:none;stroke-opacity:1;"
     d="  M 0.22554752,0.18507302   L 0.22554752,3.7569823   L 10.450368,3.7569823   L 10.450368,0.18507302   L 0.22554752,0.18507302   z "
     id="path7" />
  <path
     style="fill:#eaeaea;fill-rule:evenodd;fill-opacity:1;stroke:#bfbfbf;stroke-width:0.018795626px;stroke-linecap:round;stroke-linejoin:round;stroke-miterlimit:4;stroke-dasharray:none;stroke-opacity:1;"
     d="  M 3.3080302,0.55521906   L 3.3080302,3.3313144   L 3.3268258,3.3313144   L 3.3268258,3.368329   L 3.3456215,3.3868363   L 3.3456215,3.4053436   L 3.3644171,3.4053436   L 3.3644171,3.4238509   L 3.3832127,3.4238509   L 3.3832127,3.4423582   L 3.4020084,3.4423582   L 3.420804,3.4608655   L 3.4583952,3.4608655   L 3.4583952,3.4793728   L 7.2175205,3.4793728   L 7.2175205,3.4608655   L 7.2551117,3.4608655   L 7.2739074,3.4423582   L 7.292703,3.4423582   L 7.292703,3.4238509   L 7.3114986,3.4238509   L 7.3114986,3.4053436   L 7.3302942,3.4053436   L 7.3302942,3.3868363   L 7.3490899,3.368329   L 7.3490899,3.3313144   L 7.3678855,3.3313144   L 7.3678855,0.55521906   L 3.3268258,0.55521906   L 3.3080302,0.55521906   z "
     id="path9" />
  <path
     style="fill:#efefef;fill-rule:evenodd;fill-opacity:1;stroke:#848484;stroke-width:0.018795626px;stroke-linecap:round;stroke-linejoin:round;stroke-miterlimit:4;stroke-dasharray:none;stroke-opacity:1;"
     d="  M 0.22554752,0.18507302   L 0.22554752,0.55521906   L 10.450368,0.55521906   L 10.450368,0.18507302   L 0.22554752,0.18507302   z "
     id="path11" />
  <path
     style="fill:#333333;fill-rule:evenodd;fill-opacity:1;stroke:#000000;stroke-width:0.018795626px;stroke-linecap:round;stroke-linejoin:round;stroke-miterlimit:4;stroke-dasharray:none;stroke-opacity:1;"
     d="  M 3.6275559,0.55521906   L 3.6275559,2.8501245   L 7.0671555,2.8501245   L 7.0671555,0.55521906   L 3.6275559,0.55521906   z "
     id="path13" />
  <path
     style="fill:#999974;fill-rule:evenodd;fill-opacity:1;stroke:#000000;stroke-width:0.011458296px;stroke-linecap:round;stroke-linejoin:round;stroke-miterlimit:4;stroke-dasharray:none;stroke-opacity:1;"
     d="  M 6.9208109,2.7926737   L 3.8499875,2.7926737   L 3.8499875,0.74321154   L 6.9208109,0.74321154   L 6.9208109,2.7926737   z "
     id="path15" />
  <path
     style="fill:#ccccb9;fill-rule:evenodd;fill-opacity:1;stroke:#7f7f7f;stroke-width:0.011458296px;stroke-linecap:round;stroke-linejoin:round;stroke-miterlimit:4;stroke-dasharray:none;stroke-opacity:1;"
     d="  M 6.8749777,0.93464482   L 6.8749777,0.90086247   L 6.8406028,0.83329779   L 6.7718531,0.79951545   L 3.9989454,0.79951545   L 3.9301956,0.83329779   L 3.8958207,0.90086247   L 3.8958207,2.6462835   L 3.9301956,2.7138482   L 3.9989454,2.7476305   L 6.7718531,2.7476305   L 6.8406028,2.7138482   L 6.8749777,2.6462835   L 6.8749777,2.6125012   L 6.8749777,0.93464482   z "
     id="path17" />
  <path
     style="fill:#938476;fill-rule:evenodd;fill-opacity:1;stroke:#000000;stroke-width:0.011458296px;stroke-linecap:round;stroke-linejoin:round;stroke-miterlimit:4;stroke-dasharray:none;stroke-opacity:1;"
     d="  M 4.0791535,2.6125012   L 4.0791535,1.3850761   L 4.1822781,1.3850761   L 4.1822781,1.2612075   L 4.0791535,1.2612075   L 4.0791535,1.0697742   L 4.2968611,1.0697742   L 4.2968611,0.84455857   L 5.0416503,0.84455857   L 5.0416503,1.0697742   L 5.2708163,1.0697742   L 5.2708163,1.2612075   L 5.1676916,1.2612075   L 5.1676916,1.3850761   L 5.2708163,1.3850761   L 5.2708163,2.6125012   L 4.0791535,2.6125012   z "
     id="path19" />
  <path
     style="fill:#938476;fill-rule:evenodd;fill-opacity:1;stroke:#000000;stroke-width:0.011458296px;stroke-linecap:round;stroke-linejoin:round;stroke-miterlimit:4;stroke-dasharray:none;stroke-opacity:1;"
     d="  M 4.0791535,1.1711212   L 4.0791535,1.0697742   L 4.2968611,1.0697742   L 4.2968611,0.83329779   L 5.0416503,0.83329779   L 5.0416503,1.0697742   L 5.2708163,1.0697742   L 5.2708163,1.1711212   L 4.0791535,1.1711212   z "
     id="path21" />
  <path
     style="fill:#706257;fill-rule:evenodd;fill-opacity:1;stroke:#000000;stroke-width:0.011458296px;stroke-linecap:round;stroke-linejoin:round;stroke-miterlimit:4;stroke-dasharray:none;stroke-opacity:1;"
     d="  M 4.0791535,1.1711212   L 4.0791535,1.2161643   L 5.2708163,1.2161643   L 5.2708163,1.1711212   L 4.0791535,1.1711212   z "
     id="path23" />
  <path
     style="fill:none;stroke:#000000;stroke-width:0.011458296px;stroke-linecap:round;stroke-linejoin:round;stroke-miterlimit:4;stroke-dasharray:none;stroke-opacity:1;"
     d="  M 4.0791535,1.6891171   L 5.259358,1.6891171  "
     id="path25" />
  <path
     style="fill:#a09183;fill-rule:evenodd;fill-opacity:1;stroke:#000000;stroke-width:0.011458296px;stroke-linecap:round;stroke-linejoin:round;stroke-miterlimit:4;stroke-dasharray:none;stroke-opacity:1;"
     d="  M 5.0989418,2.6125012   L 5.144775,2.567458   L 5.1562333,2.5449365   L 5.1791499,2.5224149   L 5.1906082,2.4998934   L 5.2020665,2.466111   L 5.2249831,2.4210679   L 5.2364414,2.3872856   L 5.259358,2.3422424   L 5.259358,2.2859385   L 5.2708163,2.2521562   L 5.2708163,2.1395484   L 5.259358,2.105766   L 5.259358,2.0494621   L 5.2364414,2.004419   L 5.2249831,1.9706367   L 5.2020665,1.9255935   L 5.1906082,1.8918112   L 5.1791499,1.8692896   L 5.1562333,1.8467681   L 5.144775,1.8242465   L 5.0531086,1.7341603   L 5.030192,1.7228995   L 5.0072754,1.7003779   L 4.9843589,1.6891171   L 4.949984,1.6778564   L 4.9041508,1.6553348   L 4.8697759,1.644074   L 4.8239427,1.6215525   L 4.7666512,1.6215525   L 4.7322763,1.6102917   L 4.6176934,1.6102917   L 4.5833185,1.6215525   L 4.526027,1.6215525   L 4.4801938,1.644074   L 4.4458189,1.6553348   L 4.3999857,1.6778564   L 4.3656109,1.6891171   L 4.3426943,1.7003779   L 4.3197777,1.7228995   L 4.2968611,1.7341603   L 4.2051947,1.8242465   L 4.1937364,1.8467681   L 4.1708198,1.8692896   L 4.1593615,1.8918112   L 4.1479032,1.9255935   L 4.1249866,1.9706367   L 4.1135283,2.004419   L 4.0906118,2.0494621   L 4.0906118,2.105766   L 4.0791535,2.1395484   L 4.0791535,2.2521562   L 4.0906118,2.2859385   L 4.0906118,2.3422424   L 4.1135283,2.3872856   L 4.1249866,2.4210679   L 4.1479032,2.466111   L 4.1593615,2.4998934   L 4.1708198,2.5224149   L 4.1937364,2.5449365   L 4.2051947,2.567458   L 4.2510279,2.6125012   L 5.0874835,2.6125012   L 5.0989418,2.6125012   z "
     id="path27" />
  <ellipse
     style="fill:none;stroke:#494949;stroke-width:0.011458296px;stroke-linecap:round;stroke-linejoin:round;stroke-miterlimit:4;stroke-dasharray:none;stroke-opacity:1;"
     cx="4.5947768"
     cy="2.1170268"
     rx="0.20624933"
     ry="0.20624933"
     id="ellipse29" />
  <ellipse
     style="fill:#706257;fill-rule:evenodd;fill-opacity:1;stroke:#000000;stroke-width:0.011458296px;stroke-linecap:round;stroke-linejoin:round;stroke-miterlimit:4;stroke-dasharray:none;stroke-opacity:1;"
     cx="4.5947768"
     cy="2.1113964"
     rx="0.11458296"
     ry="0.12031211"
     id="ellipse31" />
  <ellipse
     style="fill:none;stroke:#000000;stroke-width:0.011458296px;stroke-linecap:round;stroke-linejoin:round;stroke-miterlimit:4;stroke-dasharray:none;stroke-opacity:1;"
     cx="4.5947768"
     cy="2.1113964"
     rx="0.11458296"
     ry="0.12031211"
     id="ellipse33" />
  <ellipse
     style="fill:#9b8c81;fill-rule:evenodd;fill-opacity:1;stroke:#000000;stroke-width:0.011458296px;stroke-linecap:round;stroke-linejoin:round;stroke-miterlimit:4;stroke-dasharray:none;stroke-opacity:1;"
     cx="4.5947768"
     cy="2.105766"
     rx="0.10312467"
     ry="0.10312467"
     id="ellipse35" />
  <ellipse
     style="fill:none;stroke:#000000;stroke-width:0.011458296px;stroke-linecap:round;stroke-linejoin:round;stroke-miterlimit:4;stroke-dasharray:none;stroke-opacity:1;"
     cx="4.5947768"
     cy="2.105766"
     rx="0.10312467"
     ry="0.10312467"
     id="ellipse37" />
  <path
     style="fill:#4f443c;fill-rule:evenodd;fill-opacity:1;stroke:#000000;stroke-width:0.011458296px;stroke-linecap:round;stroke-linejoin:round;stroke-miterlimit:4;stroke-dasharray:none;stroke-opacity:1;"
     d="  M 4.7093597,2.0269406   L 4.6520683,2.0269406   L 4.6520683,2.3760248   L 4.7093597,2.3760248   L 4.7093597,2.0269406   z "
     id="path39" />
  <path
     style="fill:#938476;fill-rule:evenodd;fill-opacity:1;stroke:#000000;stroke-width:0.011458296px;stroke-linecap:round;stroke-linejoin:round;stroke-miterlimit:4;stroke-dasharray:none;stroke-opacity:1;"
     d="  M 5.454149,2.6125012   L 5.454149,1.3850761   L 5.5572737,1.3850761   L 5.5572737,1.2612075   L 5.454149,1.2612075   L 5.454149,1.0697742   L 5.6718566,1.0697742   L 5.6718566,0.84455857   L 6.4166459,0.84455857   L 6.4166459,1.0697742   L 6.6458118,1.0697742   L 6.6458118,1.2612075   L 6.5426871,1.2612075   L 6.5426871,1.3850761   L 6.6458118,1.3850761   L 6.6458118,2.6125012   L 5.454149,2.6125012   z "
     id="path41" />
  <path
     style="fill:#938476;fill-rule:evenodd;fill-opacity:1;stroke:#000000;stroke-width:0.011458296px;stroke-linecap:round;stroke-linejoin:round;stroke-miterlimit:4;stroke-dasharray:none;stroke-opacity:1;"
     d="  M 5.454149,1.1711212   L 5.454149,1.0697742   L 5.6718566,1.0697742   L 5.6718566,0.83329779   L 6.4166459,0.83329779   L 6.4166459,1.0697742   L 6.6458118,1.0697742   L 6.6458118,1.1711212   L 5.454149,1.1711212   z "
     id="path43" />
  <path
     style="fill:#706257;fill-rule:evenodd;fill-opacity:1;stroke:#000000;stroke-width:0.011458296px;stroke-linecap:round;stroke-linejoin:round;stroke-miterlimit:4;stroke-dasharray:none;stroke-opacity:1;"
     d="  M 5.454149,1.1711212   L 5.454149,1.2161643   L 6.6458118,1.2161643   L 6.6458118,1.1711212   L 5.454149,1.1711212   z "
     id="path45" />
  <path
     style="fill:none;stroke:#000000;stroke-width:0.011458296px;stroke-linecap:round;stroke-linejoin:round;stroke-miterlimit:4;stroke-dasharray:none;stroke-opacity:1;"
     d="  M 5.454149,1.6891171   L 6.6343535,1.6891171  "
     id="path47" />
  <path
     style="fill:#a09183;fill-rule:evenodd;fill-opacity:1;stroke:#000000;stroke-width:0.011458296px;stroke-linecap:round;stroke-linejoin:round;stroke-miterlimit:4;stroke-dasharray:none;stroke-opacity:1;"
     d="  M 6.4739374,2.6125012   L 6.5197705,2.567458   L 6.5312288,2.5449365   L 6.5541454,2.5224149   L 6.5656037,2.4998934   L 6.577062,2.466111   L 6.5999786,2.4210679   L 6.6114369,2.3872856   L 6.6343535,2.3422424   L 6.6343535,2.2859385   L 6.6458118,2.2521562   L 6.6458118,2.1395484   L 6.6343535,2.105766   L 6.6343535,2.0494621   L 6.6114369,2.004419   L 6.5999786,1.9706367   L 6.577062,1.9255935   L 6.5656037,1.8918112   L 6.5541454,1.8692896   L 6.5312288,1.8467681   L 6.5197705,1.8242465   L 6.4281042,1.7341603   L 6.4051876,1.7228995   L 6.382271,1.7003779   L 6.3593544,1.6891171   L 6.3249795,1.6778564   L 6.2791463,1.6553348   L 6.2447714,1.644074   L 6.1989383,1.6215525   L 6.1416468,1.6215525   L 6.1072719,1.6102917   L 5.9926889,1.6102917   L 5.958314,1.6215525   L 5.9010226,1.6215525   L 5.8551894,1.644074   L 5.8208145,1.6553348   L 5.7749813,1.6778564   L 5.7406064,1.6891171   L 5.7176898,1.7003779   L 5.6947732,1.7228995   L 5.6718566,1.7341603   L 5.5801903,1.8242465   L 5.568732,1.8467681   L 5.5458154,1.8692896   L 5.5343571,1.8918112   L 5.5228988,1.9255935   L 5.4999822,1.9706367   L 5.4885239,2.004419   L 5.4656073,2.0494621   L 5.4656073,2.105766   L 5.454149,2.1395484   L 5.454149,2.2521562   L 5.4656073,2.2859385   L 5.4656073,2.3422424   L 5.4885239,2.3872856   L 5.4999822,2.4210679   L 5.5228988,2.466111   L 5.5343571,2.4998934   L 5.5458154,2.5224149   L 5.568732,2.5449365   L 5.5801903,2.567458   L 5.6260234,2.6125012   L 6.4624791,2.6125012   L 6.4739374,2.6125012   z "
     id="path49" />
  <ellipse
     style="fill:none;stroke:#494949;stroke-width:0.011458296px;stroke-linecap:round;stroke-linejoin:round;stroke-miterlimit:4;stroke-dasharray:none;stroke-opacity:1;"
     cx="5.9640432"
     cy="2.1170268"
     rx="0.21197848"
     ry="0.20624933"
     id="ellipse51" />
  <ellipse
     style="fill:#706257;fill-rule:evenodd;fill-opacity:1;stroke:#000000;stroke-width:0.011458296px;stroke-linecap:round;stroke-linejoin:round;stroke-miterlimit:4;stroke-dasharray:none;stroke-opacity:1;"
     cx="5.9697723"
     cy="2.1113964"
     rx="0.11458296"
     ry="0.12031211"
     id="ellipse53" />
  <ellipse
     style="fill:none;stroke:#000000;stroke-width:0.011458296px;stroke-linecap:round;stroke-linejoin:round;stroke-miterlimit:4;stroke-dasharray:none;stroke-opacity:1;"
     cx="5.9697723"
     cy="2.1113964"
     rx="0.11458296"
     ry="0.12031211"
     id="ellipse55" />
  <ellipse
     style="fill:#9b8c81;fill-rule:evenodd;fill-opacity:1;stroke:#000000;stroke-width:0.011458296px;stroke-linecap:round;stroke-linejoin:round;stroke-miterlimit:4;stroke-dasharray:none;stroke-opacity:1;"
     cx="5.9640432"
     cy="2.105766"
     rx="0.097395518"
     ry="0.10312467"
     id="ellipse57" />
  <ellipse
     style="fill:none;stroke:#000000;stroke-width:0.011458296px;stroke-linecap:round;stroke-linejoin:round;stroke-miterlimit:4;stroke-dasharray:none;stroke-opacity:1;"
     cx="5.9640432"
     cy="2.105766"
     rx="0.097395518"
     ry="0.10312467"
     id="ellipse59" />
  <path
     style="fill:#4f443c;fill-rule:evenodd;fill-opacity:1;stroke:#000000;stroke-width:0.011458296px;stroke-linecap:round;stroke-linejoin:round;stroke-miterlimit:4;stroke-dasharray:none;stroke-opacity:1;"
     d="  M 6.0843553,2.0269406   L 6.0270638,2.0269406   L 6.0270638,2.3760248   L 6.0843553,2.3760248   L 6.0843553,2.0269406   z "
     id="path61" />
</svg>
