<?xml version="1.0" encoding="UTF-8" standalone="no"?>
<svg
   version="1.0"
   width="17.809999mm"
   height="28.98mm"
   id="svg151"
   xmlns="http://www.w3.org/2000/svg"
   xmlns:svg="http://www.w3.org/2000/svg">
  <defs
     id="defs3">
    <pattern
       id="EMFhbasepattern"
       patternUnits="userSpaceOnUse"
       width="6"
       height="6"
       x="0"
       y="0" />
  </defs>
  <path
     style="fill:none;stroke:none;"
     d="  M 25.46067,59.51039   M 24.843328,59.304147   M 25.198767,59.49164   M 25.198767,59.49164   M 24.450474,59.49164   M 28.109876,74.800842   L 28.109876,76.828255   L 29.917279,76.828255   M 29.917279,74.800842   L 33.484522,74.800842   M 31.677119,74.800842   L 31.677119,76.828255   M 34.388224,74.800842   L 34.388224,76.828255   M 34.388224,74.800842   L 34.388224,76.828255  "
     id="path5" />
  <path
     style="fill:none;stroke:none;"
     d="  M 36.148064,76.828255   L 36.148064,74.800842   L 37.955467,76.828255   L 39.76287,74.800842   L 39.76287,76.828255  "
     id="path7" />
  <path
     style="fill:none;stroke:none;"
     d="  M 40.619008,76.828255   L 42.426412,74.800842   L 44.233815,76.828255   M 41.094641,76.321402   L 43.758182,76.321402  "
     id="path9" />
  <path
     style="fill:none;stroke:none;"
     d="  M 22.73523,76.828255   L 24.542633,74.800842   L 26.350036,76.828255   M 23.210862,76.321402   L 25.874404,76.321402  "
     id="path11" />
  <path
     style="fill:#efefef;fill-rule:evenodd;fill-opacity:1;stroke:#000000;stroke-width:0.093536623px;stroke-linecap:round;stroke-linejoin:round;stroke-miterlimit:4;stroke-dasharray:none;stroke-opacity:1;"
     d="  M 67.084468,0.71247474   L 67.065761,0.58122939   L 67.028346,0.44998404   L 66.972224,0.33748803   L 66.897395,0.24374136   L 66.785151,0.14999468   L 66.672907,0.093746676   L 66.541956,0.056248005   L 66.411004,0.03749867   L 0.71087836,0.03749867   L 0.57992708,0.056248005   L 0.4489758,0.093746676   L 0.33673185,0.14999468   L 0.1496586,0.33748803   L 0.093536626,0.44998404   L 0.056121976,0.58122939   L 0.03741465,0.71247474   L 0.03741465,108.78364   L 0.056121976,108.91489   L 0.093536626,109.04613   L 0.1496586,109.15863   L 0.24319523,109.27113   L 0.33673185,109.34612   L 0.4489758,109.40237   L 0.57992708,109.43987   L 0.71087836,109.45862   L 66.411004,109.45862   L 66.541956,109.43987   L 66.672907,109.40237   L 66.785151,109.34612   L 66.897395,109.27113   L 66.972224,109.15863   L 67.028346,109.04613   L 67.065761,108.91489   L 67.084468,108.78364   L 67.084468,0.71247474   z "
     id="path13" />
  <path
     style="fill:#000000;fill-rule:evenodd;fill-opacity:1;stroke:#000000;stroke-width:0.018707326px;stroke-linecap:round;stroke-linejoin:round;stroke-miterlimit:4;stroke-dasharray:none;stroke-opacity:1;"
     d="  M 67.084468,57.166723   L 0.03741465,57.166723   L 0.03741465,57.429214   L 67.084468,57.429214   L 67.084468,57.166723   z "
     id="path15" />
  <path
     style="fill:#000000;fill-rule:evenodd;fill-opacity:1;stroke:#000000;stroke-width:0.018707326px;stroke-linecap:round;stroke-linejoin:round;stroke-miterlimit:4;stroke-dasharray:none;stroke-opacity:1;"
     d="  M 67.084468,65.116441   L 0.03741465,65.116441   L 0.03741465,65.378932   L 67.084468,65.378932   L 67.084468,65.116441   z "
     id="path17" />
  <path
     style="fill:#0a0a0a;fill-rule:evenodd;fill-opacity:1;stroke:#000000;stroke-width:0.018707326px;stroke-linecap:round;stroke-linejoin:round;stroke-miterlimit:4;stroke-dasharray:none;stroke-opacity:1;"
     d="  M 52.156023,61.272827   L 52.137315,61.179081   L 52.118608,61.066585   L 52.006364,60.91659   L 51.856705,60.804094   L 51.744461,60.785345   L 51.650925,60.766595   L 15.470958,60.766595   L 15.377421,60.785345   L 15.265177,60.804094   L 15.115519,60.91659   L 15.003275,61.066585   L 14.984567,61.179081   L 14.96586,61.272827   L 14.984567,61.366574   L 15.003275,61.47907   L 15.115519,61.629065   L 15.265177,61.741561   L 15.377421,61.76031   L 15.470958,61.779059   L 51.650925,61.779059   L 51.744461,61.76031   L 51.856705,61.741561   L 52.006364,61.629065   L 52.118608,61.47907   L 52.137315,61.366574   L 52.156023,61.272827   z "
     id="path19" />
  <path
     style="fill:#7f7f7f;fill-rule:evenodd;fill-opacity:1;stroke:#7f7f7f;stroke-width:0.018707326px;stroke-linecap:round;stroke-linejoin:round;stroke-miterlimit:4;stroke-dasharray:none;stroke-opacity:1;"
     d="  M 50.098217,58.760416   L 48.639045,58.891662   L 48.639045,60.222865   L 50.098217,60.222865   L 50.098217,58.760416   z "
     id="path21" />
  <path
     style="fill:#7f7f7f;fill-rule:evenodd;fill-opacity:1;stroke:#7f7f7f;stroke-width:0.018707326px;stroke-linecap:round;stroke-linejoin:round;stroke-miterlimit:4;stroke-dasharray:none;stroke-opacity:1;"
     d="  M 45.608459,59.097904   L 44.448605,59.191651   L 44.448605,60.222865   L 45.608459,60.222865   L 45.608459,59.097904   z "
     id="path23" />
  <path
     style="fill:#7f7f7f;fill-rule:evenodd;fill-opacity:1;stroke:#7f7f7f;stroke-width:0.018707326px;stroke-linecap:round;stroke-linejoin:round;stroke-miterlimit:4;stroke-dasharray:none;stroke-opacity:1;"
     d="  M 41.436725,59.416643   L 40.276871,59.51039   L 40.276871,60.222865   L 41.436725,60.222865   L 41.436725,59.416643   z "
     id="path25" />
  <path
     style="fill:#7f7f7f;fill-rule:evenodd;fill-opacity:1;stroke:#7f7f7f;stroke-width:0.018707326px;stroke-linecap:round;stroke-linejoin:round;stroke-miterlimit:4;stroke-dasharray:none;stroke-opacity:1;"
     d="  M 37.246284,59.754131   L 36.08643,59.847878   L 36.08643,60.222865   L 37.246284,60.222865   L 37.246284,59.754131   z "
     id="path27" />
  <path
     style="fill:none;stroke:#7f7f7f;stroke-width:0.056121975px;stroke-linecap:round;stroke-linejoin:round;stroke-miterlimit:4;stroke-dasharray:none;stroke-opacity:1;"
     d="  M 33.14938,59.435392   L 33.130673,59.416643   L 33.111966,59.416643   L 33.111966,59.397894   L 33.093258,59.397894   L 33.093258,59.379144   L 33.074551,59.379144   L 33.074551,59.360395   L 33.055844,59.360395   L 33.018429,59.322896   L 32.999722,59.322896   L 32.981014,59.304147   L 32.962307,59.304147   L 32.9436,59.285398   L 32.906185,59.285398   L 32.906185,59.266648   L 32.86877,59.266648   L 32.850063,59.247899   L 32.793941,59.247899   L 32.793941,59.22915   L 32.606868,59.22915   L 32.58816,59.247899   L 32.550746,59.247899   L 32.532038,59.266648   L 32.494624,59.266648   L 32.475917,59.285398   L 32.457209,59.285398   L 32.438502,59.304147   L 32.419795,59.304147   L 32.38238,59.341646   L 32.363673,59.341646   L 32.363673,59.360395   L 32.344965,59.360395   L 32.270136,59.435392   L 32.270136,59.472891   L 32.251429,59.472891   L 32.251429,59.49164  "
     id="path29" />
  <path
     style="fill:none;stroke:#7f7f7f;stroke-width:0.056121975px;stroke-linecap:round;stroke-linejoin:round;stroke-miterlimit:4;stroke-dasharray:none;stroke-opacity:1;"
     d="  M 32.999722,59.585387   L 32.981014,59.585387   L 32.981014,59.566638   L 32.962307,59.566638   L 32.962307,59.547888   L 32.924892,59.547888   L 32.924892,59.529139   L 32.887478,59.529139   L 32.86877,59.51039   L 32.812648,59.51039   L 32.793941,59.49164   L 32.606868,59.49164   L 32.58816,59.51039   L 32.532038,59.51039   L 32.513331,59.529139   L 32.475917,59.529139   L 32.475917,59.547888   L 32.457209,59.547888   L 32.457209,59.566638   L 32.438502,59.566638   L 32.438502,59.585387   L 32.419795,59.585387   L 32.419795,59.604136   L 32.401087,59.622886   L 32.401087,59.641635  "
     id="path31" />
  <path
     style="fill:none;stroke:#7f7f7f;stroke-width:0.056121975px;stroke-linecap:round;stroke-linejoin:round;stroke-miterlimit:4;stroke-dasharray:none;stroke-opacity:1;"
     d="  M 32.887478,59.79163   L 32.887478,59.77288   L 32.86877,59.77288   L 32.86877,59.754131   L 32.831356,59.716632   L 32.812648,59.716632   L 32.812648,59.697883   L 32.775234,59.697883   L 32.775234,59.679134   L 32.625575,59.679134   L 32.625575,59.697883   L 32.58816,59.697883   L 32.58816,59.716632   L 32.550746,59.716632   L 32.550746,59.735382   L 32.532038,59.735382   L 32.532038,59.77288   L 32.513331,59.77288   L 32.513331,59.79163  "
     id="path33" />
  <path
     style="fill:none;stroke:#7f7f7f;stroke-width:0.018707326px;stroke-linecap:round;stroke-linejoin:round;stroke-miterlimit:4;stroke-dasharray:none;stroke-opacity:1;"
     d="  M 25.46067,59.51039   L 24.225986,59.51039  "
     id="path35" />
  <path
     style="fill:none;stroke:#7f7f7f;stroke-width:0.018707326px;stroke-linecap:round;stroke-linejoin:round;stroke-miterlimit:4;stroke-dasharray:none;stroke-opacity:1;"
     d="  M 24.843328,59.304147   L 24.843328,59.49164  "
     id="path37" />
  <path
     style="fill:#7f7f7f;fill-rule:evenodd;fill-opacity:1;stroke:#7f7f7f;stroke-width:0.018707326px;stroke-linecap:round;stroke-linejoin:round;stroke-miterlimit:4;stroke-dasharray:none;stroke-opacity:1;"
     d="  M 24.992986,59.004158   L 24.693669,59.004158   L 24.693669,59.304147   L 24.992986,59.304147   L 24.992986,59.004158   z "
     id="path39" />
  <path
     style="fill:none;stroke:#7f7f7f;stroke-width:0.018707326px;stroke-linecap:round;stroke-linejoin:round;stroke-miterlimit:4;stroke-dasharray:none;stroke-opacity:1;"
     d="  M 25.198767,59.49164   L 25.198767,59.697883  "
     id="path41" />
  <path
     style="fill:none;stroke:#7f7f7f;stroke-width:0.018707326px;stroke-linecap:round;stroke-linejoin:round;stroke-miterlimit:4;stroke-dasharray:none;stroke-opacity:1;"
     d="  M 25.198767,59.49164   L 25.198767,59.697883  "
     id="path43" />
  <path
     style="fill:#7f7f7f;fill-rule:evenodd;fill-opacity:1;stroke:#7f7f7f;stroke-width:0.018707326px;stroke-linecap:round;stroke-linejoin:round;stroke-miterlimit:4;stroke-dasharray:none;stroke-opacity:1;"
     d="  M 25.067816,59.679134   L 25.367133,59.679134   L 25.367133,59.979123   L 25.067816,59.979123   L 25.067816,59.679134   z "
     id="path45" />
  <path
     style="fill:none;stroke:#7f7f7f;stroke-width:0.018707326px;stroke-linecap:round;stroke-linejoin:round;stroke-miterlimit:4;stroke-dasharray:none;stroke-opacity:1;"
     d="  M 24.450474,59.49164   L 24.450474,59.697883  "
     id="path47" />
  <path
     style="fill:#7f7f7f;fill-rule:evenodd;fill-opacity:1;stroke:#7f7f7f;stroke-width:0.018707326px;stroke-linecap:round;stroke-linejoin:round;stroke-miterlimit:4;stroke-dasharray:none;stroke-opacity:1;"
     d="  M 24.61884,59.679134   L 24.319523,59.679134   L 24.319523,59.979123   L 24.61884,59.979123   L 24.61884,59.679134   z "
     id="path49" />
  <path
     style="fill:#7f7f7f;fill-rule:evenodd;fill-opacity:1;stroke:#7f7f7f;stroke-width:0.018707326px;stroke-linecap:round;stroke-linejoin:round;stroke-miterlimit:4;stroke-dasharray:none;stroke-opacity:1;"
     d="  M 17.229446,59.266648   L 17.248154,59.266648   L 17.248154,59.285398   L 17.266861,59.285398   L 17.285568,59.304147   L 17.304276,59.304147   L 17.304276,59.322896   L 17.322983,59.322896   L 17.322983,59.341646   L 17.34169,59.360395   L 17.34169,59.379144   L 17.360398,59.379144   L 17.360398,59.397894   L 17.379105,59.397894   L 17.379105,59.454142   L 17.397812,59.472891   L 17.397812,59.622886   L 17.379105,59.641635   L 17.379105,59.679134   L 17.360398,59.697883   L 17.360398,59.716632   L 17.322983,59.754131   L 17.322983,59.77288   L 17.304276,59.77288   L 17.304276,59.79163   L 17.285568,59.79163   L 17.248154,59.829128   L 17.229446,59.829128   L 17.210739,59.847878   L 17.173325,59.847878   L 17.154617,59.866627   L 17.004959,59.866627   L 16.986251,59.847878   L 16.948837,59.847878   L 16.930129,59.829128   L 16.911422,59.829128   L 16.874007,59.79163   L 16.8553,59.79163   L 16.8553,59.77288   L 16.836593,59.77288   L 16.836593,59.754131   L 16.799178,59.716632   L 16.799178,59.697883   L 16.780471,59.679134   L 16.780471,59.641635   L 16.761763,59.622886   L 16.761763,59.472891   L 16.780471,59.472891   L 16.780471,59.416643   L 16.799178,59.416643   L 16.799178,59.379144   L 16.817885,59.379144   L 16.817885,59.360395   L 16.892715,59.285398   L 16.892715,59.304147   L 16.911422,59.304147   L 16.911422,59.322896   L 16.930129,59.322896   L 16.930129,59.341646   L 16.911422,59.341646   L 16.911422,59.360395   L 16.892715,59.360395   L 16.892715,59.379144   L 16.874007,59.379144   L 16.874007,59.397894   L 16.8553,59.416643   L 16.8553,59.435392   L 16.836593,59.435392   L 16.836593,59.472891   L 16.817885,59.49164   L 16.817885,59.622886   L 16.836593,59.622886   L 16.836593,59.660384   L 16.8553,59.679134   L 16.8553,59.697883   L 16.874007,59.697883   L 16.874007,59.716632   L 16.911422,59.754131   L 16.930129,59.754131   L 16.930129,59.77288   L 16.948837,59.77288   L 16.967544,59.79163   L 17.004959,59.79163   L 17.004959,59.810379   L 17.154617,59.810379   L 17.154617,59.79163   L 17.192032,59.79163   L 17.210739,59.77288   L 17.229446,59.77288   L 17.229446,59.754131   L 17.248154,59.754131   L 17.285568,59.716632   L 17.285568,59.697883   L 17.304276,59.697883   L 17.304276,59.679134   L 17.322983,59.660384   L 17.322983,59.622886   L 17.34169,59.622886   L 17.34169,59.49164   L 17.322983,59.472891   L 17.322983,59.435392   L 17.304276,59.435392   L 17.304276,59.397894   L 17.285568,59.397894   L 17.285568,59.379144   L 17.266861,59.379144   L 17.266861,59.360395   L 17.248154,59.360395   L 17.248154,59.341646   L 17.229446,59.341646   L 17.229446,59.322896   L 17.210739,59.322896   L 17.210739,59.304147   L 17.229446,59.304147   L 17.229446,59.285398   L 17.229446,59.266648   z "
     id="path51" />
  <path
     style="fill:#7f7f7f;fill-rule:evenodd;fill-opacity:1;stroke:#7f7f7f;stroke-width:0.018707326px;stroke-linecap:round;stroke-linejoin:round;stroke-miterlimit:4;stroke-dasharray:none;stroke-opacity:1;"
     d="  M 17.098495,59.116654   L 17.023666,59.116654   L 17.023666,59.566638   L 17.098495,59.566638   L 17.098495,59.116654   z "
     id="path53" />
  <ellipse
     style="fill:#7f7f7f;fill-rule:evenodd;fill-opacity:1;stroke:#000000;stroke-width:0.018707326px;stroke-linecap:round;stroke-linejoin:round;stroke-miterlimit:4;stroke-dasharray:none;stroke-opacity:1;"
     cx="20.73707"
     cy="59.416643"
     rx="0.21513424"
     ry="0.2244879"
     id="ellipse55" />
  <ellipse
     style="fill:none;stroke:#7f7f7f;stroke-width:0.018707326px;stroke-linecap:round;stroke-linejoin:round;stroke-miterlimit:4;stroke-dasharray:none;stroke-opacity:1;"
     cx="20.73707"
     cy="59.416643"
     rx="0.21513424"
     ry="0.2244879"
     id="ellipse57" />
  <path
     style="fill:#7f7f7f;fill-rule:evenodd;fill-opacity:1;stroke:#7f7f7f;stroke-width:0.018707326px;stroke-linecap:round;stroke-linejoin:round;stroke-miterlimit:4;stroke-dasharray:none;stroke-opacity:1;"
     d="  M 20.877375,59.097904   L 20.765131,59.097904   L 20.765131,59.885376   L 20.877375,59.885376   L 20.877375,59.097904   z "
     id="path59" />
  <path
     style="fill:#7f7f7f;fill-rule:evenodd;fill-opacity:1;stroke:#7f7f7f;stroke-width:0.018707326px;stroke-linecap:round;stroke-linejoin:round;stroke-miterlimit:4;stroke-dasharray:none;stroke-opacity:1;"
     d="  M 20.578058,59.172902   L 20.503228,59.247899   L 21.064448,59.810379   L 21.139277,59.735382   L 20.578058,59.172902   z "
     id="path61" />
  <path
     style="fill:#7f7f7f;fill-rule:evenodd;fill-opacity:1;stroke:#7f7f7f;stroke-width:0.018707326px;stroke-linecap:round;stroke-linejoin:round;stroke-miterlimit:4;stroke-dasharray:none;stroke-opacity:1;"
     d="  M 20.428399,59.435392   L 20.428399,59.547888   L 21.214107,59.547888   L 21.214107,59.435392   L 20.428399,59.435392   z "
     id="path63" />
  <path
     style="fill:#7f7f7f;fill-rule:evenodd;fill-opacity:1;stroke:#7f7f7f;stroke-width:0.018707326px;stroke-linecap:round;stroke-linejoin:round;stroke-miterlimit:4;stroke-dasharray:none;stroke-opacity:1;"
     d="  M 20.503228,59.735382   L 20.578058,59.810379   L 21.139277,59.247899   L 21.064448,59.172902   L 20.503228,59.735382   z "
     id="path65" />
  <ellipse
     style="fill:#efefef;fill-rule:evenodd;fill-opacity:1;stroke:#000000;stroke-width:0.018707326px;stroke-linecap:round;stroke-linejoin:round;stroke-miterlimit:4;stroke-dasharray:none;stroke-opacity:1;"
     cx="20.73707"
     cy="59.416643"
     rx="0.065475638"
     ry="0.074829301"
     id="ellipse67" />
  <ellipse
     style="fill:none;stroke:#efefef;stroke-width:0.018707326px;stroke-linecap:round;stroke-linejoin:round;stroke-miterlimit:4;stroke-dasharray:none;stroke-opacity:1;"
     cx="20.73707"
     cy="59.416643"
     rx="0.065475638"
     ry="0.074829301"
     id="ellipse69" />
  <path
     style="fill:#7f7f7f;fill-rule:evenodd;fill-opacity:1;stroke:#7f7f7f;stroke-width:0.018707326px;stroke-linecap:round;stroke-linejoin:round;stroke-miterlimit:4;stroke-dasharray:none;stroke-opacity:1;"
     d="  M 28.771866,59.397894   L 28.491256,59.979123   L 28.622208,59.979123   L 28.902817,59.716632   L 28.88411,59.716632   L 29.146013,59.979123   L 29.295671,59.979123   L 28.977647,59.397894   L 28.771866,59.397894   z "
     id="path71" />
  <ellipse
     style="fill:#7f7f7f;fill-rule:evenodd;fill-opacity:1;stroke:#000000;stroke-width:0.018707326px;stroke-linecap:round;stroke-linejoin:round;stroke-miterlimit:4;stroke-dasharray:none;stroke-opacity:1;"
     cx="28.799927"
     cy="59.154152"
     rx="0.065475638"
     ry="0.074829301"
     id="ellipse73" />
  <ellipse
     style="fill:none;stroke:#7f7f7f;stroke-width:0.018707326px;stroke-linecap:round;stroke-linejoin:round;stroke-miterlimit:4;stroke-dasharray:none;stroke-opacity:1;"
     cx="28.799927"
     cy="59.154152"
     rx="0.065475638"
     ry="0.074829301"
     id="ellipse75" />
  <path
     style="fill:#494949;fill-rule:evenodd;fill-opacity:1;stroke:#494949;stroke-width:0.018707326px;stroke-linecap:round;stroke-linejoin:round;stroke-miterlimit:4;stroke-dasharray:none;stroke-opacity:1;"
     d="  M 18.875691,61.010337   L 16.069592,61.010337   L 16.069592,61.535318   L 18.875691,61.535318   L 18.875691,61.010337   z "
     id="path77" />
  <path
     style="fill:#494949;fill-rule:evenodd;fill-opacity:1;stroke:#494949;stroke-width:0.018707326px;stroke-linecap:round;stroke-linejoin:round;stroke-miterlimit:4;stroke-dasharray:none;stroke-opacity:1;"
     d="  M 22.953888,61.010337   L 20.147789,61.010337   L 20.147789,61.535318   L 22.953888,61.535318   L 22.953888,61.010337   z "
     id="path79" />
  <path
     style="fill:#494949;fill-rule:evenodd;fill-opacity:1;stroke:#494949;stroke-width:0.018707326px;stroke-linecap:round;stroke-linejoin:round;stroke-miterlimit:4;stroke-dasharray:none;stroke-opacity:1;"
     d="  M 27.050792,61.010337   L 24.244693,61.010337   L 24.244693,61.535318   L 27.050792,61.535318   L 27.050792,61.010337   z "
     id="path81" />
  <path
     style="fill:#494949;fill-rule:evenodd;fill-opacity:1;stroke:#494949;stroke-width:0.018707326px;stroke-linecap:round;stroke-linejoin:round;stroke-miterlimit:4;stroke-dasharray:none;stroke-opacity:1;"
     d="  M 38.574505,61.010337   L 28.32289,61.010337   L 28.32289,61.535318   L 38.574505,61.535318   L 38.574505,61.010337   z "
     id="path83" />
  <path
     style="fill:#494949;fill-rule:evenodd;fill-opacity:1;stroke:#494949;stroke-width:0.018707326px;stroke-linecap:round;stroke-linejoin:round;stroke-miterlimit:4;stroke-dasharray:none;stroke-opacity:1;"
     d="  M 42.652701,61.010337   L 39.846603,61.010337   L 39.846603,61.535318   L 42.652701,61.535318   L 42.652701,61.010337   z "
     id="path85" />
  <path
     style="fill:#494949;fill-rule:evenodd;fill-opacity:1;stroke:#494949;stroke-width:0.018707326px;stroke-linecap:round;stroke-linejoin:round;stroke-miterlimit:4;stroke-dasharray:none;stroke-opacity:1;"
     d="  M 46.749606,61.010337   L 43.943507,61.010337   L 43.943507,61.535318   L 46.749606,61.535318   L 46.749606,61.010337   z "
     id="path87" />
  <path
     style="fill:#494949;fill-rule:evenodd;fill-opacity:1;stroke:#494949;stroke-width:0.018707326px;stroke-linecap:round;stroke-linejoin:round;stroke-miterlimit:4;stroke-dasharray:none;stroke-opacity:1;"
     d="  M 50.827803,61.010337   L 48.021704,61.010337   L 48.021704,61.535318   L 50.827803,61.535318   L 50.827803,61.010337   z "
     id="path89" />
  <path
     style="fill:none;stroke:#7f7f7f;stroke-width:0.056121975px;stroke-linecap:round;stroke-linejoin:round;stroke-miterlimit:4;stroke-dasharray:none;stroke-opacity:1;"
     d="  M 29.370501,59.454142   L 29.389208,59.454142   L 29.389208,59.435392   L 29.407915,59.435392   L 29.407915,59.416643   L 29.426623,59.397894   L 29.426623,59.379144   L 29.44533,59.379144   L 29.44533,59.360395   L 29.464037,59.341646   L 29.464037,59.304147   L 29.482744,59.285398   L 29.482744,59.172902   L 29.464037,59.154152   L 29.464037,59.116654   L 29.44533,59.097904   L 29.44533,59.079155   L 29.426623,59.079155   L 29.426623,59.060406   L 29.407915,59.060406   L 29.407915,59.041656   L 29.389208,59.041656   L 29.389208,59.022907   L 29.370501,59.022907   L 29.351793,59.004158   L 29.333086,59.004158  "
     id="path91" />
  <path
     style="fill:none;stroke:#7f7f7f;stroke-width:0.056121975px;stroke-linecap:round;stroke-linejoin:round;stroke-miterlimit:4;stroke-dasharray:none;stroke-opacity:1;"
     d="  M 29.276964,59.379144   L 29.295671,59.379144   L 29.295671,59.360395   L 29.314379,59.360395   L 29.314379,59.322896   L 29.333086,59.322896   L 29.333086,59.135403   L 29.314379,59.135403   L 29.314379,59.097904   L 29.295671,59.097904   L 29.295671,59.079155   L 29.276964,59.079155   L 29.258257,59.079155  "
     id="path93" />
  <path
     style="fill:none;stroke:#7f7f7f;stroke-width:0.056121975px;stroke-linecap:round;stroke-linejoin:round;stroke-miterlimit:4;stroke-dasharray:none;stroke-opacity:1;"
     d="  M 29.16472,59.322896   L 29.183427,59.322896   L 29.183427,59.304147   L 29.220842,59.304147   L 29.220842,59.285398   L 29.239549,59.285398   L 29.239549,59.172902   L 29.220842,59.172902   L 29.220842,59.154152   L 29.202135,59.154152   L 29.202135,59.135403   L 29.183427,59.135403   L 29.16472,59.135403  "
     id="path95" />
  <path
     style="fill:none;stroke:#7f7f7f;stroke-width:0.056121975px;stroke-linecap:round;stroke-linejoin:round;stroke-miterlimit:4;stroke-dasharray:none;stroke-opacity:1;"
     d="  M 28.416427,59.454142   L 28.39772,59.454142   L 28.39772,59.435392   L 28.379012,59.435392   L 28.379012,59.416643   L 28.360305,59.397894   L 28.360305,59.379144   L 28.341598,59.379144   L 28.341598,59.360395   L 28.32289,59.341646   L 28.32289,59.304147   L 28.304183,59.285398   L 28.304183,59.172902   L 28.32289,59.154152   L 28.32289,59.116654   L 28.341598,59.097904   L 28.341598,59.079155   L 28.360305,59.079155   L 28.360305,59.060406   L 28.379012,59.060406   L 28.379012,59.041656   L 28.39772,59.041656   L 28.39772,59.022907   L 28.416427,59.022907   L 28.435134,59.004158   L 28.453842,59.004158  "
     id="path97" />
  <path
     style="fill:none;stroke:#7f7f7f;stroke-width:0.056121975px;stroke-linecap:round;stroke-linejoin:round;stroke-miterlimit:4;stroke-dasharray:none;stroke-opacity:1;"
     d="  M 28.509964,59.379144   L 28.491256,59.379144   L 28.491256,59.360395   L 28.472549,59.360395   L 28.472549,59.322896   L 28.453842,59.322896   L 28.453842,59.135403   L 28.472549,59.135403   L 28.472549,59.097904   L 28.491256,59.097904   L 28.491256,59.079155   L 28.509964,59.079155   L 28.528671,59.079155  "
     id="path99" />
  <path
     style="fill:none;stroke:#7f7f7f;stroke-width:0.056121975px;stroke-linecap:round;stroke-linejoin:round;stroke-miterlimit:4;stroke-dasharray:none;stroke-opacity:1;"
     d="  M 28.622208,59.322896   L 28.6035,59.322896   L 28.6035,59.304147   L 28.566086,59.304147   L 28.566086,59.285398   L 28.547378,59.285398   L 28.547378,59.172902   L 28.566086,59.172902   L 28.566086,59.154152   L 28.584793,59.154152   L 28.584793,59.135403   L 28.6035,59.135403   L 28.622208,59.135403  "
     id="path101" />
  <path
     style="fill:#000000;fill-rule:evenodd;fill-opacity:1;stroke:#000000;stroke-width:0.018707326px;stroke-linecap:round;stroke-linejoin:round;stroke-miterlimit:4;stroke-dasharray:none;stroke-opacity:1;"
     d="  M 67.084468,51.804413   L 0.03741465,51.804413   L 0.03741465,52.066904   L 67.084468,52.066904   L 67.084468,51.804413   z "
     id="path103" />
  <path
     style="fill:#7f7f7f;fill-rule:evenodd;fill-opacity:1;stroke:#7f7f7f;stroke-width:0.018686505px;stroke-linecap:round;stroke-linejoin:round;stroke-miterlimit:4;stroke-dasharray:none;stroke-opacity:1;"
     d="  M 29.917279,74.800842   M 31.677119,74.800842   M 34.388224,74.800842   M 34.388224,74.800842   M 41.094641,76.321402   M 23.210862,76.321402   M 22.610671,77.011495   L 22.573298,77.011495   L 22.554611,76.993027   L 22.535925,76.993027   L 22.479865,76.937623   L 22.479865,76.919155   L 22.461178,76.900687   L 22.461178,74.758401   L 22.479865,74.739933   L 22.479865,74.721465   L 22.498551,74.702997   L 22.517238,74.702997   L 22.517238,74.684529   L 22.535925,74.666061   L 22.554611,74.666061   L 22.573298,74.647593   L 25.114662,74.647593   L 25.133349,74.666061   L 25.152035,74.666061   L 25.208095,74.721465   L 25.208095,74.739933   L 25.226781,74.758401   L 25.226781,75.183165   L 25.208095,75.183165   L 25.208095,75.164697   L 25.189408,75.164697   L 25.189408,75.146229   L 25.170722,75.146229   L 25.170722,75.127761   L 25.133349,75.127761   L 25.133349,75.109293   L 23.077833,75.109293   L 23.077833,75.127761   L 23.04046,75.127761   L 23.04046,75.146229   L 23.021774,75.146229   L 23.021774,75.183165   L 23.003087,75.183165   L 23.003087,76.937623   L 23.021774,76.937623   L 23.021774,76.974559   L 23.04046,76.974559   L 23.04046,76.993027   L 23.059147,76.993027   L 23.059147,77.011495   L 22.629357,77.011495   L 22.610671,77.011495   z "
     id="path105" />
  <path
     style="fill:#7f7f7f;fill-rule:evenodd;fill-opacity:1;stroke:#7f7f7f;stroke-width:0.018686505px;stroke-linecap:round;stroke-linejoin:round;stroke-miterlimit:4;stroke-dasharray:none;stroke-opacity:1;"
     d="  M 25.039916,75.644864   L 23.189952,75.644864   L 23.189952,75.626396   L 23.152579,75.626396   L 23.152579,75.607928   L 23.133893,75.607928   L 23.133893,75.570993   L 23.115206,75.570993   L 23.115206,76.032692   L 23.133893,76.032692   L 23.133893,76.069628   L 23.152579,76.069628   L 23.152579,76.088096   L 23.189952,76.088096   L 23.189952,76.106564   L 25.077289,76.106564   L 25.114662,76.069628   L 25.133349,76.069628   L 25.170722,76.032692   L 25.170722,76.014224   L 25.189408,75.995756   L 25.189408,75.977288   L 25.208095,75.95882   L 25.208095,75.921884   L 25.226781,75.903416   L 25.226781,75.848012   L 25.208095,75.829544   L 25.208095,75.77414   L 25.170722,75.737204   L 25.170722,75.718736   L 25.152035,75.700268   L 25.133349,75.700268   L 25.133349,75.6818   L 25.114662,75.6818   L 25.095976,75.663332   L 25.077289,75.663332   L 25.058603,75.644864   L 25.039916,75.644864   z "
     id="path107" />
  <path
     style="fill:#7f7f7f;fill-rule:evenodd;fill-opacity:1;stroke:#7f7f7f;stroke-width:0.018686505px;stroke-linecap:round;stroke-linejoin:round;stroke-miterlimit:4;stroke-dasharray:none;stroke-opacity:1;"
     d="  M 29.356499,76.106564   L 29.319126,76.106564   L 29.319126,76.088096   L 29.281753,76.088096   L 29.281753,76.069628   L 29.263066,76.069628   L 29.263066,76.032692   L 29.24438,76.032692   L 29.24438,75.570993   L 29.263066,75.570993   L 29.263066,75.607928   L 29.281753,75.607928   L 29.281753,75.626396   L 29.319126,75.626396   L 29.319126,75.644864   L 30.814046,75.644864   L 30.814046,75.109293   L 29.207007,75.109293   L 29.207007,75.127761   L 29.169634,75.127761   L 29.169634,75.146229   L 29.150947,75.146229   L 29.150947,75.183165   L 29.132261,75.183165   L 29.132261,76.937623   L 29.150947,76.937623   L 29.150947,76.974559   L 29.169634,76.974559   L 29.169634,76.993027   L 29.18832,76.993027   L 29.18832,77.011495   L 28.702471,77.011495   L 28.683785,76.993027   L 28.665098,76.993027   L 28.609038,76.937623   L 28.609038,76.919155   L 28.590352,76.900687   L 28.590352,74.758401   L 28.609038,74.739933   L 28.609038,74.721465   L 28.627725,74.702997   L 28.646411,74.702997   L 28.646411,74.684529   L 28.665098,74.666061   L 28.683785,74.666061   L 28.702471,74.647593   L 31.243836,74.647593   L 31.262522,74.666061   L 31.281209,74.666061   L 31.337268,74.721465   L 31.337268,74.739933   L 31.355955,74.758401   L 31.355955,75.921884   L 31.337268,75.940352   L 31.337268,75.977288   L 31.318582,75.977288   L 31.318582,75.995756   L 31.299895,76.014224   L 31.299895,76.032692   L 31.281209,76.032692   L 31.281209,76.05116   L 31.262522,76.05116   L 31.262522,76.069628   L 31.243836,76.069628   L 31.243836,76.088096   L 31.225149,76.088096   L 31.206463,76.106564   L 31.225149,76.125032   L 31.243836,76.125032   L 31.243836,76.1435   L 31.262522,76.1435   L 31.262522,76.161968   L 31.281209,76.161968   L 31.281209,76.180436   L 31.299895,76.180436   L 31.299895,76.198904   L 31.318582,76.217372   L 31.318582,76.23584   L 31.337268,76.23584   L 31.337268,76.272776   L 31.355955,76.291244   L 31.355955,76.937623   L 31.374641,76.937623   L 31.374641,76.974559   L 31.393328,76.974559   L 31.393328,76.993027   L 31.412014,76.993027   L 31.412014,77.011495   L 30.926165,77.011495   L 30.907479,76.993027   L 30.888792,76.993027   L 30.832733,76.937623   L 30.832733,76.919155   L 30.814046,76.900687   L 30.814046,76.106564   L 29.375185,76.106564   L 29.356499,76.106564   z "
     id="path109" />
  <path
     style="fill:#7f7f7f;fill-rule:evenodd;fill-opacity:1;stroke:#7f7f7f;stroke-width:0.018686505px;stroke-linecap:round;stroke-linejoin:round;stroke-miterlimit:4;stroke-dasharray:none;stroke-opacity:1;"
     d="  M 32.327653,75.109293   L 31.767058,75.109293   L 31.748371,75.090825   L 31.729685,75.090825   L 31.673625,75.035421   L 31.673625,75.016953   L 31.654939,74.998485   L 31.654939,74.758401   L 31.673625,74.739933   L 31.673625,74.721465   L 31.692312,74.702997   L 31.710998,74.702997   L 31.710998,74.684529   L 31.729685,74.666061   L 31.748371,74.666061   L 31.767058,74.647593   L 34.308422,74.647593   L 34.327109,74.666061   L 34.345795,74.666061   L 34.401855,74.721465   L 34.401855,74.739933   L 34.420541,74.758401   L 34.420541,75.183165   L 34.401855,75.183165   L 34.401855,75.164697   L 34.383168,75.164697   L 34.383168,75.146229   L 34.364482,75.146229   L 34.364482,75.127761   L 34.327109,75.127761   L 34.327109,75.109293   L 32.944308,75.109293   L 32.944308,75.127761   L 32.906935,75.127761   L 32.906935,75.146229   L 32.888248,75.146229   L 32.888248,75.183165   L 32.869562,75.183165   L 32.869562,76.937623   L 32.888248,76.937623   L 32.888248,76.974559   L 32.906935,76.974559   L 32.906935,76.993027   L 32.925621,76.993027   L 32.925621,77.011495   L 32.439772,77.011495   L 32.421085,76.993027   L 32.402399,76.993027   L 32.346339,76.937623   L 32.346339,76.919155   L 32.327653,76.900687   L 32.327653,75.164697   L 32.327653,75.109293   z "
     id="path111" />
  <path
     style="fill:#7f7f7f;fill-rule:evenodd;fill-opacity:1;stroke:#7f7f7f;stroke-width:0.018686505px;stroke-linecap:round;stroke-linejoin:round;stroke-miterlimit:4;stroke-dasharray:none;stroke-opacity:1;"
     d="  M 35.261434,76.882219   L 35.261434,76.937623   L 35.280121,76.937623   L 35.280121,76.974559   L 35.298807,76.974559   L 35.298807,76.993027   L 35.317494,76.993027   L 35.317494,77.011495   L 34.831645,77.011495   L 34.812958,76.993027   L 34.794271,76.993027   L 34.738212,76.937623   L 34.738212,76.919155   L 34.719525,76.900687   L 34.719525,74.721465   L 34.700839,74.721465   L 34.700839,74.684529   L 34.682152,74.684529   L 34.682152,74.666061   L 34.663466,74.666061   L 34.663466,74.647593   L 35.149315,74.647593   L 35.168002,74.666061   L 35.186688,74.666061   L 35.242748,74.721465   L 35.242748,74.739933   L 35.261434,74.758401   L 35.261434,76.863751   L 35.261434,76.882219   z "
     id="path113" />
  <path
     style="fill:#7f7f7f;fill-rule:evenodd;fill-opacity:1;stroke:#7f7f7f;stroke-width:0.018686505px;stroke-linecap:round;stroke-linejoin:round;stroke-miterlimit:4;stroke-dasharray:none;stroke-opacity:1;"
     d="  M 37.914918,75.109293   L 36.307878,75.109293   L 36.307878,75.127761   L 36.270505,75.127761   L 36.270505,75.146229   L 36.251819,75.146229   L 36.251819,75.183165   L 36.233132,75.183165   L 36.233132,76.937623   L 36.251819,76.937623   L 36.251819,76.974559   L 36.270505,76.974559   L 36.270505,76.993027   L 36.289192,76.993027   L 36.289192,77.011495   L 35.803343,77.011495   L 35.784656,76.993027   L 35.76597,76.993027   L 35.70991,76.937623   L 35.70991,76.919155   L 35.691224,76.900687   L 35.691224,74.758401   L 35.70991,74.739933   L 35.70991,74.721465   L 35.728597,74.702997   L 35.747283,74.702997   L 35.747283,74.684529   L 35.76597,74.666061   L 35.784656,74.666061   L 35.803343,74.647593   L 38.344707,74.647593   L 38.363394,74.666061   L 38.38208,74.666061   L 38.43814,74.721465   L 38.43814,74.739933   L 38.456826,74.758401   L 38.456826,76.937623   L 38.475513,76.937623   L 38.475513,76.974559   L 38.494199,76.974559   L 38.494199,76.993027   L 38.512886,76.993027   L 38.512886,77.011495   L 38.027037,77.011495   L 38.00835,76.993027   L 37.989664,76.993027   L 37.933604,76.937623   L 37.933604,76.919155   L 37.914918,76.900687   L 37.914918,75.164697   L 37.914918,75.109293   z "
     id="path115" />
  <path
     style="fill:#7f7f7f;fill-rule:evenodd;fill-opacity:1;stroke:#7f7f7f;stroke-width:0.018686505px;stroke-linecap:round;stroke-linejoin:round;stroke-miterlimit:4;stroke-dasharray:none;stroke-opacity:1;"
     d="  M 41.203743,75.644864   L 39.484584,75.644864   L 39.465898,75.626396   L 39.447211,75.626396   L 39.447211,75.607928   L 39.428525,75.607928   L 39.428525,75.570993   L 39.409838,75.570993   L 39.409838,76.032692   L 39.428525,76.032692   L 39.428525,76.069628   L 39.447211,76.069628   L 39.447211,76.088096   L 39.465898,76.088096   L 39.484584,76.106564   L 41.222429,76.106564   L 41.259802,76.069628   L 41.278489,76.069628   L 41.315862,76.032692   L 41.315862,76.014224   L 41.334548,75.995756   L 41.334548,75.977288   L 41.353235,75.95882   L 41.353235,75.921884   L 41.371921,75.903416   L 41.371921,75.829544   L 41.353235,75.811076   L 41.353235,75.755672   L 41.334548,75.755672   L 41.334548,75.737204   L 41.278489,75.6818   L 41.259802,75.6818   L 41.259802,75.663332   L 41.241116,75.663332   L 41.222429,75.644864   L 41.203743,75.644864   z "
     id="path117" />
  <path
     style="fill:#7f7f7f;fill-rule:evenodd;fill-opacity:1;stroke:#7f7f7f;stroke-width:0.018686505px;stroke-linecap:round;stroke-linejoin:round;stroke-miterlimit:4;stroke-dasharray:none;stroke-opacity:1;"
     d="  M 42.493111,75.109293   L 41.932516,75.109293   L 41.91383,75.090825   L 41.895143,75.090825   L 41.839084,75.035421   L 41.839084,75.016953   L 41.820397,74.998485   L 41.820397,74.758401   L 41.839084,74.739933   L 41.839084,74.721465   L 41.85777,74.702997   L 41.876457,74.702997   L 41.876457,74.684529   L 41.895143,74.666061   L 41.91383,74.666061   L 41.932516,74.647593   L 44.473881,74.647593   L 44.492567,74.666061   L 44.511254,74.666061   L 44.567313,74.721465   L 44.567313,74.739933   L 44.586,74.758401   L 44.586,75.183165   L 44.567313,75.183165   L 44.567313,75.164697   L 44.548627,75.164697   L 44.548627,75.146229   L 44.52994,75.146229   L 44.52994,75.127761   L 44.492567,75.127761   L 44.492567,75.109293   L 43.109766,75.109293   L 43.109766,75.127761   L 43.072393,75.127761   L 43.072393,75.146229   L 43.053707,75.146229   L 43.053707,75.183165   L 43.03502,75.183165   L 43.03502,76.937623   L 43.053707,76.937623   L 43.053707,76.974559   L 43.072393,76.974559   L 43.072393,76.993027   L 43.09108,76.993027   L 43.09108,77.011495   L 42.60523,77.011495   L 42.586544,76.993027   L 42.567857,76.993027   L 42.511798,76.937623   L 42.511798,76.919155   L 42.493111,76.900687   L 42.493111,75.164697   L 42.493111,75.109293   z "
     id="path119" />
  <path
     style="fill:#7f7f7f;fill-rule:evenodd;fill-opacity:1;stroke:#7f7f7f;stroke-width:0.018686505px;stroke-linecap:round;stroke-linejoin:round;stroke-miterlimit:4;stroke-dasharray:none;stroke-opacity:1;"
     d="  M 41.390608,76.549796   L 41.427981,76.549796   L 41.427981,76.531328   L 41.465354,76.531328   L 41.465354,76.51286   L 41.48404,76.51286   L 41.48404,76.494392   L 41.502727,76.494392   L 41.502727,76.475924   L 41.521413,76.475924   L 41.521413,76.900687   L 41.502727,76.919155   L 41.502727,76.937623   L 41.48404,76.956091   L 41.48404,76.974559   L 41.465354,76.974559   L 41.446667,76.993027   L 41.427981,76.993027   L 41.409294,77.011495   L 38.867929,77.011495   L 38.849243,76.993027   L 38.830556,76.993027   L 38.774497,76.937623   L 38.774497,76.919155   L 38.75581,76.900687   L 38.75581,74.758401   L 38.774497,74.739933   L 38.774497,74.721465   L 38.793183,74.702997   L 38.81187,74.702997   L 38.81187,74.684529   L 38.830556,74.666061   L 38.849243,74.666061   L 38.867929,74.647593   L 41.409294,74.647593   L 41.427981,74.666061   L 41.446667,74.666061   L 41.502727,74.721465   L 41.502727,74.739933   L 41.521413,74.758401   L 41.521413,75.183165   L 41.502727,75.183165   L 41.502727,75.164697   L 41.48404,75.164697   L 41.48404,75.146229   L 41.465354,75.146229   L 41.465354,75.127761   L 41.427981,75.127761   L 41.427981,75.109293   L 39.372465,75.109293   L 39.372465,75.127761   L 39.335092,75.127761   L 39.335092,75.146229   L 39.316406,75.146229   L 39.316406,75.183165   L 39.297719,75.183165   L 39.297719,76.549796   L 41.371921,76.549796   L 41.390608,76.549796   z "
     id="path121" />
  <path
     style="fill:#ff0000;fill-rule:evenodd;fill-opacity:1;stroke:#ff0000;stroke-width:0.018686505px;stroke-linecap:round;stroke-linejoin:round;stroke-miterlimit:4;stroke-dasharray:none;stroke-opacity:1;"
     d="  M 26.46009,76.32818   L 26.46009,77.011495   L 27.357043,77.011495   L 27.357043,76.32818   L 26.46009,76.32818   z "
     id="path123" />
  <path
     style="fill:#ff0000;fill-rule:evenodd;fill-opacity:1;stroke:#ff0000;stroke-width:0.018686505px;stroke-linecap:round;stroke-linejoin:round;stroke-miterlimit:4;stroke-dasharray:none;stroke-opacity:1;"
     d="  M 25.525765,75.497121   L 26.291912,75.497121   L 26.291912,76.161968   L 25.525765,76.161968   L 25.525765,75.497121   z "
     id="path125" />
  <path
     style="fill:#ff0000;fill-rule:evenodd;fill-opacity:1;stroke:#ff0000;stroke-width:0.018686505px;stroke-linecap:round;stroke-linejoin:round;stroke-miterlimit:4;stroke-dasharray:none;stroke-opacity:1;"
     d="  M 27.525221,76.32818   L 27.525221,77.011495   L 27.805519,77.011495   L 27.824205,76.993027   L 27.898951,76.993027   L 27.917638,76.974559   L 27.955011,76.974559   L 27.992384,76.956091   L 28.01107,76.937623   L 28.048443,76.919155   L 28.085816,76.882219   L 28.123189,76.863751   L 28.141876,76.845283   L 28.160562,76.808347   L 28.179249,76.789879   L 28.253995,76.642136   L 28.253995,76.6052   L 28.272681,76.549796   L 28.272681,76.494392   L 28.291368,76.438988   L 28.291368,76.32818   L 27.543908,76.32818   L 27.525221,76.32818   z "
     id="path127" />
  <path
     style="fill:#ff0000;fill-rule:evenodd;fill-opacity:1;stroke:#ff0000;stroke-width:0.018686505px;stroke-linecap:round;stroke-linejoin:round;stroke-miterlimit:4;stroke-dasharray:none;stroke-opacity:1;"
     d="  M 27.525221,75.497121   L 28.291368,75.497121   L 28.291368,76.161968   L 27.525221,76.161968   L 27.525221,75.497121   z "
     id="path129" />
  <path
     style="fill:#ff0000;fill-rule:evenodd;fill-opacity:1;stroke:#ff0000;stroke-width:0.018686505px;stroke-linecap:round;stroke-linejoin:round;stroke-miterlimit:4;stroke-dasharray:none;stroke-opacity:1;"
     d="  M 26.291912,76.32818   L 26.291912,77.011495   L 26.011614,77.011495   L 25.992928,76.993027   L 25.918182,76.993027   L 25.899495,76.974559   L 25.862122,76.974559   L 25.824749,76.956091   L 25.806063,76.937623   L 25.76869,76.919155   L 25.731317,76.882219   L 25.693944,76.863751   L 25.675257,76.845283   L 25.656571,76.808347   L 25.637884,76.789879   L 25.563138,76.642136   L 25.563138,76.6052   L 25.544452,76.549796   L 25.544452,76.494392   L 25.525765,76.438988   L 25.525765,76.32818   L 26.273225,76.32818   L 26.291912,76.32818   z "
     id="path131" />
  <path
     style="fill:#ff0000;fill-rule:evenodd;fill-opacity:1;stroke:#ff0000;stroke-width:0.018686505px;stroke-linecap:round;stroke-linejoin:round;stroke-miterlimit:4;stroke-dasharray:none;stroke-opacity:1;"
     d="  M 26.46009,74.647593   L 26.46009,75.330909   L 27.357043,75.330909   L 27.357043,74.647593   L 26.46009,74.647593   z "
     id="path133" />
  <path
     style="fill:#ff0000;fill-rule:evenodd;fill-opacity:1;stroke:#ff0000;stroke-width:0.018686505px;stroke-linecap:round;stroke-linejoin:round;stroke-miterlimit:4;stroke-dasharray:none;stroke-opacity:1;"
     d="  M 27.525221,75.330909   L 27.525221,74.647593   L 27.805519,74.647593   L 27.824205,74.666061   L 27.898951,74.666061   L 27.917638,74.684529   L 27.955011,74.684529   L 27.992384,74.702997   L 28.01107,74.721465   L 28.048443,74.739933   L 28.085816,74.776869   L 28.123189,74.795337   L 28.141876,74.813805   L 28.160562,74.850741   L 28.179249,74.869209   L 28.253995,75.016953   L 28.253995,75.053889   L 28.272681,75.109293   L 28.272681,75.164697   L 28.291368,75.220101   L 28.291368,75.330909   L 27.543908,75.330909   L 27.525221,75.330909   z "
     id="path135" />
  <path
     style="fill:#ff0000;fill-rule:evenodd;fill-opacity:1;stroke:#ff0000;stroke-width:0.018686505px;stroke-linecap:round;stroke-linejoin:round;stroke-miterlimit:4;stroke-dasharray:none;stroke-opacity:1;"
     d="  M 26.291912,75.330909   L 26.291912,74.647593   L 26.011614,74.647593   L 25.992928,74.666061   L 25.918182,74.666061   L 25.899495,74.684529   L 25.862122,74.684529   L 25.824749,74.702997   L 25.806063,74.721465   L 25.76869,74.739933   L 25.731317,74.776869   L 25.693944,74.795337   L 25.675257,74.813805   L 25.656571,74.850741   L 25.637884,74.869209   L 25.563138,75.016953   L 25.563138,75.053889   L 25.544452,75.109293   L 25.544452,75.164697   L 25.525765,75.220101   L 25.525765,75.330909   L 26.273225,75.330909   L 26.291912,75.330909   z "
     id="path137" />
  <text
     xml:space="preserve"
     style="font-size:0.750000px;font-style:normal;font-variant:normal;font-weight:400;font-stretch:Condensed;line-height:125.000000%;letter-spacing:0px;word-spacing:0px;fill:#000000;fill-opacity:1;stroke:none;font-family:Times New Roman;text-align:start;text-anchor:start;"
     transform="matrix(1.000000,-0.000000,0.000000,1.000000,43.581768,77.007776)"
     x="0.000000"
     y="0.000000"
     id="text143"><tspan
       x="0.000000"
       y="0.000000"
       id="tspan141"><tspan
         dx="0.000000"
         dy="0.000000"
         style="fill:#7F7F7F;font-size:0.750000px;font-style:normal;font-variant:normal;font-weight:400;font-stretch:Condensed;font-family:Times New Roman;"
         id="tspan139">®</tspan></tspan></text>
  <text
     xml:space="preserve"
     style="font-size:1.500000px;font-style:normal;font-variant:normal;font-weight:400;font-stretch:Normal;line-height:125.000000%;letter-spacing:0px;word-spacing:0px;fill:#000000;fill-opacity:1;stroke:none;font-family:Arial;text-align:start;text-anchor:start;"
     transform="matrix(1.000000,-0.000000,0.000000,1.000000,30.322760,78.324038)"
     x="0.000000"
     y="1.093500"
     id="text149"><tspan
       x="0.000000"
       y="1.093500"
       id="tspan147"><tspan
         dx="0.000000"
         dy="0.000000"
         style="fill:#808080;font-size:1.500000px;font-style:normal;font-variant:normal;font-weight:400;font-stretch:Normal;font-family:Arial;"
         id="tspan145">FEX-20D</tspan></tspan></text>
</svg>
