<?xml version="1.0" encoding="UTF-8" standalone="no"?>
<svg
   version="1.0"
   width="1.42mm"
   height="0.95999998mm"
   id="svg55"
   xmlns="http://www.w3.org/2000/svg"
   xmlns:svg="http://www.w3.org/2000/svg">
  <defs
     id="defs3">
    <pattern
       id="EMFhbasepattern"
       patternUnits="userSpaceOnUse"
       width="6"
       height="6"
       x="0"
       y="0" />
  </defs>
  <path
     style="fill:#dddddd;fill-rule:evenodd;fill-opacity:1;stroke:#000000;stroke-width:0.018580288px;stroke-linecap:round;stroke-linejoin:round;stroke-miterlimit:4;stroke-dasharray:none;stroke-opacity:1;"
     d="  M 0.51660998,1.6856451   M 2.7306528,1.6856451   M 5.2396414,3.6400503   L 0,3.6400503   L 0,0   L 5.2396414,0   L 5.2396414,3.6400503   z "
     id="path5" />
  <path
     style="fill:#999974;fill-rule:evenodd;fill-opacity:1;stroke:#000000;stroke-width:0.018450357px;stroke-linecap:round;stroke-linejoin:round;stroke-miterlimit:4;stroke-dasharray:none;stroke-opacity:1;"
     d="  M 5.0922984,3.5628407   L 0.14760285,3.5628407   L 0.14760285,0.07662023   L 5.0922984,0.07662023   L 5.0922984,3.5628407   z "
     id="path7" />
  <path
     style="fill:#ccccb9;fill-rule:evenodd;fill-opacity:1;stroke:#7f7f7f;stroke-width:0.018450357px;stroke-linecap:round;stroke-linejoin:round;stroke-miterlimit:4;stroke-dasharray:none;stroke-opacity:1;"
     d="  M 5.0184969,0.40225621   L 5.0184969,0.34479104   L 4.9631459,0.22986069   L 4.8524437,0.17239552   L 0.38745748,0.17239552   L 0.27675535,0.22986069   L 0.22140428,0.34479104   L 0.22140428,3.313825   L 0.27675535,3.4287553   L 0.38745748,3.4862205   L 4.8524437,3.4862205   L 4.9631459,3.4287553   L 5.0184969,3.313825   L 5.0184969,3.2563598   L 5.0184969,0.40225621   z "
     id="path9" />
  <path
     style="fill:#938476;fill-rule:evenodd;fill-opacity:1;stroke:#000000;stroke-width:0.018450357px;stroke-linecap:round;stroke-linejoin:round;stroke-miterlimit:4;stroke-dasharray:none;stroke-opacity:1;"
     d="  M 0.51660998,3.2563598   L 0.51660998,1.1684585   L 0.68266319,1.1684585   L 0.68266319,0.95775288   L 0.51660998,0.95775288   L 0.51660998,0.6321169   L 0.86716675,0.6321169   L 0.86716675,0.24901575   L 2.0664399,0.24901575   L 2.0664399,0.6321169   L 2.435447,0.6321169   L 2.435447,0.95775288   L 2.2693938,0.95775288   L 2.2693938,1.1684585   L 2.435447,1.1684585   L 2.435447,3.2563598   L 0.51660998,3.2563598   z "
     id="path11" />
  <path
     style="fill:#938476;fill-rule:evenodd;fill-opacity:1;stroke:#000000;stroke-width:0.018450357px;stroke-linecap:round;stroke-linejoin:round;stroke-miterlimit:4;stroke-dasharray:none;stroke-opacity:1;"
     d="  M 0.51660998,0.80451242   L 0.51660998,0.6321169   L 0.86716675,0.6321169   L 0.86716675,0.22986069   L 2.0664399,0.22986069   L 2.0664399,0.6321169   L 2.435447,0.6321169   L 2.435447,0.80451242   L 0.51660998,0.80451242   z "
     id="path13" />
  <path
     style="fill:#706257;fill-rule:evenodd;fill-opacity:1;stroke:#000000;stroke-width:0.018450357px;stroke-linecap:round;stroke-linejoin:round;stroke-miterlimit:4;stroke-dasharray:none;stroke-opacity:1;"
     d="  M 0.51660998,0.80451242   L 0.51660998,0.88113265   L 2.435447,0.88113265   L 2.435447,0.80451242   L 0.51660998,0.80451242   z "
     id="path15" />
  <path
     style="fill:none;stroke:#000000;stroke-width:0.018450357px;stroke-linecap:round;stroke-linejoin:round;stroke-miterlimit:4;stroke-dasharray:none;stroke-opacity:1;"
     d="  M 0.51660998,1.6856451   L 2.4169967,1.6856451  "
     id="path17" />
  <path
     style="fill:#a09183;fill-rule:evenodd;fill-opacity:1;stroke:#000000;stroke-width:0.018450357px;stroke-linecap:round;stroke-linejoin:round;stroke-miterlimit:4;stroke-dasharray:none;stroke-opacity:1;"
     d="  M 2.1586917,3.2563598   L 2.2324931,3.1797396   L 2.2509435,3.1414294   L 2.2878442,3.1031193   L 2.3062946,3.0648092   L 2.3247449,3.007344   L 2.3616456,2.9307238   L 2.380096,2.8732586   L 2.4169967,2.7966384   L 2.4169967,2.7008631   L 2.435447,2.6433979   L 2.435447,2.4518474   L 2.4169967,2.3943822   L 2.4169967,2.2986069   L 2.380096,2.2219867   L 2.3616456,2.1645215   L 2.3247449,2.0879013   L 2.3062946,2.0304361   L 2.2878442,1.992126   L 2.2509435,1.9538159   L 2.2324931,1.9155058   L 2.0848903,1.7622653   L 2.0479896,1.7431102   L 2.0110889,1.7048001   L 1.9741881,1.6856451   L 1.9188371,1.66649   L 1.8450356,1.6281799   L 1.7896846,1.6090248   L 1.7158831,1.5707147   L 1.6236314,1.5707147   L 1.5682803,1.5515597   L 1.3837767,1.5515597   L 1.3284257,1.5707147   L 1.2361739,1.5707147   L 1.1623725,1.6090248   L 1.1070214,1.6281799   L 1.03322,1.66649   L 0.97786889,1.6856451   L 0.94096818,1.7048001   L 0.90406746,1.7431102   L 0.86716675,1.7622653   L 0.7195639,1.9155058   L 0.70111354,1.9538159   L 0.66421283,1.992126   L 0.64576247,2.0304361   L 0.62731212,2.0879013   L 0.59041141,2.1645215   L 0.57196105,2.2219867   L 0.53506034,2.2986069   L 0.53506034,2.3943822   L 0.51660998,2.4518474   L 0.51660998,2.6433979   L 0.53506034,2.7008631   L 0.53506034,2.7966384   L 0.57196105,2.8732586   L 0.59041141,2.9307238   L 0.62731212,3.007344   L 0.64576247,3.0648092   L 0.66421283,3.1031193   L 0.70111354,3.1414294   L 0.7195639,3.1797396   L 0.79336533,3.2563598   L 2.1402413,3.2563598   L 2.1586917,3.2563598   z "
     id="path19" />
  <ellipse
     style="fill:none;stroke:#494949;stroke-width:0.018450357px;stroke-linecap:round;stroke-linejoin:round;stroke-miterlimit:4;stroke-dasharray:none;stroke-opacity:1;"
     cx="1.3930019"
     cy="2.4710024"
     rx="0.37823231"
     ry="0.38745748"
     id="ellipse21" />
  <ellipse
     style="fill:#706257;fill-rule:evenodd;fill-opacity:1;stroke:#000000;stroke-width:0.018450357px;stroke-linecap:round;stroke-linejoin:round;stroke-miterlimit:4;stroke-dasharray:none;stroke-opacity:1;"
     cx="1.3930019"
     cy="2.4710024"
     rx="0.23062946"
     ry="0.23985463"
     id="ellipse23" />
  <ellipse
     style="fill:none;stroke:#000000;stroke-width:0.018450357px;stroke-linecap:round;stroke-linejoin:round;stroke-miterlimit:4;stroke-dasharray:none;stroke-opacity:1;"
     cx="1.3930019"
     cy="2.4710024"
     rx="0.23062946"
     ry="0.23985463"
     id="ellipse25" />
  <ellipse
     style="fill:#9b8c81;fill-rule:evenodd;fill-opacity:1;stroke:#000000;stroke-width:0.018450357px;stroke-linecap:round;stroke-linejoin:round;stroke-miterlimit:4;stroke-dasharray:none;stroke-opacity:1;"
     cx="1.3930019"
     cy="2.4710024"
     rx="0.2121791"
     ry="0.22140428"
     id="ellipse27" />
  <ellipse
     style="fill:none;stroke:#000000;stroke-width:0.018450357px;stroke-linecap:round;stroke-linejoin:round;stroke-miterlimit:4;stroke-dasharray:none;stroke-opacity:1;"
     cx="1.3930019"
     cy="2.4710024"
     rx="0.2121791"
     ry="0.22140428"
     id="ellipse29" />
  <path
     style="fill:#4f443c;fill-rule:evenodd;fill-opacity:1;stroke:#000000;stroke-width:0.018450357px;stroke-linecap:round;stroke-linejoin:round;stroke-miterlimit:4;stroke-dasharray:none;stroke-opacity:1;"
     d="  M 1.5313796,2.2602968   L 1.4391278,2.2602968   L 1.4391278,2.8541036   L 1.5313796,2.8541036   L 1.5313796,2.2602968   z "
     id="path31" />
  <path
     style="fill:#938476;fill-rule:evenodd;fill-opacity:1;stroke:#000000;stroke-width:0.018450357px;stroke-linecap:round;stroke-linejoin:round;stroke-miterlimit:4;stroke-dasharray:none;stroke-opacity:1;"
     d="  M 2.7306528,3.2563598   L 2.7306528,1.1684585   L 2.896706,1.1684585   L 2.896706,0.95775288   L 2.7306528,0.95775288   L 2.7306528,0.6321169   L 3.0812095,0.6321169   L 3.0812095,0.24901575   L 4.2804827,0.24901575   L 4.2804827,0.6321169   L 4.6494898,0.6321169   L 4.6494898,0.95775288   L 4.4834366,0.95775288   L 4.4834366,1.1684585   L 4.6494898,1.1684585   L 4.6494898,3.2563598   L 2.7306528,3.2563598   z "
     id="path33" />
  <path
     style="fill:#938476;fill-rule:evenodd;fill-opacity:1;stroke:#000000;stroke-width:0.018450357px;stroke-linecap:round;stroke-linejoin:round;stroke-miterlimit:4;stroke-dasharray:none;stroke-opacity:1;"
     d="  M 2.7306528,0.80451242   L 2.7306528,0.6321169   L 3.0812095,0.6321169   L 3.0812095,0.22986069   L 4.2804827,0.22986069   L 4.2804827,0.6321169   L 4.6494898,0.6321169   L 4.6494898,0.80451242   L 2.7306528,0.80451242   z "
     id="path35" />
  <path
     style="fill:#706257;fill-rule:evenodd;fill-opacity:1;stroke:#000000;stroke-width:0.018450357px;stroke-linecap:round;stroke-linejoin:round;stroke-miterlimit:4;stroke-dasharray:none;stroke-opacity:1;"
     d="  M 2.7306528,0.80451242   L 2.7306528,0.88113265   L 4.6494898,0.88113265   L 4.6494898,0.80451242   L 2.7306528,0.80451242   z "
     id="path37" />
  <path
     style="fill:none;stroke:#000000;stroke-width:0.018450357px;stroke-linecap:round;stroke-linejoin:round;stroke-miterlimit:4;stroke-dasharray:none;stroke-opacity:1;"
     d="  M 2.7306528,1.6856451   L 4.6310395,1.6856451  "
     id="path39" />
  <path
     style="fill:#a09183;fill-rule:evenodd;fill-opacity:1;stroke:#000000;stroke-width:0.018450357px;stroke-linecap:round;stroke-linejoin:round;stroke-miterlimit:4;stroke-dasharray:none;stroke-opacity:1;"
     d="  M 4.3727345,3.2563598   L 4.4465359,3.1797396   L 4.4649863,3.1414294   L 4.501887,3.1031193   L 4.5203373,3.0648092   L 4.5387877,3.007344   L 4.5756884,2.9307238   L 4.5941388,2.8732586   L 4.6310395,2.7966384   L 4.6310395,2.7008631   L 4.6494898,2.6433979   L 4.6494898,2.4518474   L 4.6310395,2.3943822   L 4.6310395,2.2986069   L 4.5941388,2.2219867   L 4.5756884,2.1645215   L 4.5387877,2.0879013   L 4.5203373,2.0304361   L 4.501887,1.992126   L 4.4649863,1.9538159   L 4.4465359,1.9155058   L 4.298933,1.7622653   L 4.2620323,1.7431102   L 4.2251316,1.7048001   L 4.1882309,1.6856451   L 4.1328798,1.66649   L 4.0590784,1.6281799   L 4.0037273,1.6090248   L 3.9299259,1.5707147   L 3.8376741,1.5707147   L 3.7823231,1.5515597   L 3.5978195,1.5515597   L 3.5424684,1.5707147   L 3.4502167,1.5707147   L 3.3764152,1.6090248   L 3.3210642,1.6281799   L 3.2472627,1.66649   L 3.1919117,1.6856451   L 3.1550109,1.7048001   L 3.1181102,1.7431102   L 3.0812095,1.7622653   L 2.9336067,1.9155058   L 2.9151563,1.9538159   L 2.8782556,1.992126   L 2.8598052,2.0304361   L 2.8413549,2.0879013   L 2.8044542,2.1645215   L 2.7860038,2.2219867   L 2.7491031,2.2986069   L 2.7491031,2.3943822   L 2.7306528,2.4518474   L 2.7306528,2.6433979   L 2.7491031,2.7008631   L 2.7491031,2.7966384   L 2.7860038,2.8732586   L 2.8044542,2.9307238   L 2.8413549,3.007344   L 2.8598052,3.0648092   L 2.8782556,3.1031193   L 2.9151563,3.1414294   L 2.9336067,3.1797396   L 3.0074081,3.2563598   L 4.3542841,3.2563598   L 4.3727345,3.2563598   z "
     id="path41" />
  <ellipse
     style="fill:none;stroke:#494949;stroke-width:0.018450357px;stroke-linecap:round;stroke-linejoin:round;stroke-miterlimit:4;stroke-dasharray:none;stroke-opacity:1;"
     cx="3.6162699"
     cy="2.4710024"
     rx="0.38745748"
     ry="0.38745748"
     id="ellipse43" />
  <ellipse
     style="fill:#706257;fill-rule:evenodd;fill-opacity:1;stroke:#000000;stroke-width:0.018450357px;stroke-linecap:round;stroke-linejoin:round;stroke-miterlimit:4;stroke-dasharray:none;stroke-opacity:1;"
     cx="3.6162699"
     cy="2.4710024"
     rx="0.23985463"
     ry="0.23985463"
     id="ellipse45" />
  <ellipse
     style="fill:none;stroke:#000000;stroke-width:0.018450357px;stroke-linecap:round;stroke-linejoin:round;stroke-miterlimit:4;stroke-dasharray:none;stroke-opacity:1;"
     cx="3.6162699"
     cy="2.4710024"
     rx="0.23985463"
     ry="0.23985463"
     id="ellipse47" />
  <ellipse
     style="fill:#9b8c81;fill-rule:evenodd;fill-opacity:1;stroke:#000000;stroke-width:0.018450357px;stroke-linecap:round;stroke-linejoin:round;stroke-miterlimit:4;stroke-dasharray:none;stroke-opacity:1;"
     cx="3.6070447"
     cy="2.4710024"
     rx="0.2121791"
     ry="0.22140428"
     id="ellipse49" />
  <ellipse
     style="fill:none;stroke:#000000;stroke-width:0.018450357px;stroke-linecap:round;stroke-linejoin:round;stroke-miterlimit:4;stroke-dasharray:none;stroke-opacity:1;"
     cx="3.6070447"
     cy="2.4710024"
     rx="0.2121791"
     ry="0.22140428"
     id="ellipse51" />
  <path
     style="fill:#4f443c;fill-rule:evenodd;fill-opacity:1;stroke:#000000;stroke-width:0.018450357px;stroke-linecap:round;stroke-linejoin:round;stroke-miterlimit:4;stroke-dasharray:none;stroke-opacity:1;"
     d="  M 3.7454224,2.2602968   L 3.6531706,2.2602968   L 3.6531706,2.8541036   L 3.7454224,2.8541036   L 3.7454224,2.2602968   z "
     id="path53" />
</svg>
