<?xml version="1.0" encoding="UTF-8" standalone="no"?>
<svg
   version="1.0"
   width="18.639999mm"
   height="4.02mm"
   id="svg383"
   xmlns="http://www.w3.org/2000/svg"
   xmlns:svg="http://www.w3.org/2000/svg">
  <defs
     id="defs3">
    <pattern
       id="EMFhbasepattern"
       patternUnits="userSpaceOnUse"
       width="6"
       height="6"
       x="0"
       y="0" />
  </defs>
  <path
     style="fill:#bcbc7e;fill-rule:evenodd;fill-opacity:1;stroke:#000000;stroke-width:0.018722022px;stroke-linecap:round;stroke-linejoin:round;stroke-miterlimit:4;stroke-dasharray:none;stroke-opacity:1;"
     d="  M 12.244202,11.85257   M 27.31543,11.25244   M 20.7093,10.592302   M 0,4.7260246   L 4.9800579,4.7260246   L 4.9800579,7.5016264   L 0,7.5016264   L 0,4.7260246   z "
     id="path5" />
  <path
     style="fill:#cccc9b;fill-rule:evenodd;fill-opacity:1;stroke:#cccc9b;stroke-width:0.018722022px;stroke-linecap:round;stroke-linejoin:round;stroke-miterlimit:4;stroke-dasharray:none;stroke-opacity:1;"
     d="  M 0,5.1386141   L 4.9800579,5.1386141   L 4.9800579,7.0890369   L 0,7.0890369   L 0,5.1386141   z "
     id="path7" />
  <path
     style="fill:#d6d6b1;fill-rule:evenodd;fill-opacity:1;stroke:#d6d6b1;stroke-width:0.018722022px;stroke-linecap:round;stroke-linejoin:round;stroke-miterlimit:4;stroke-dasharray:none;stroke-opacity:1;"
     d="  M 0,5.6262198   L 4.9800579,5.6262198   L 4.9800579,6.6014312   L 0,6.6014312   L 0,5.6262198   z "
     id="path9" />
  <path
     style="fill:#e2e2cc;fill-rule:evenodd;fill-opacity:1;stroke:#e2e2cc;stroke-width:0.018722022px;stroke-linecap:round;stroke-linejoin:round;stroke-miterlimit:4;stroke-dasharray:none;stroke-opacity:1;"
     d="  M 0,5.9825471   L 4.9800579,5.9825471   L 4.9800579,6.245104   L 0,6.245104   L 0,5.9825471   z "
     id="path11" />
  <path
     style="fill:#bcbc7e;fill-rule:evenodd;fill-opacity:1;stroke:#000000;stroke-width:0.018722022px;stroke-linecap:round;stroke-linejoin:round;stroke-miterlimit:4;stroke-dasharray:none;stroke-opacity:1;"
     d="  M 0.39316246,4.7260246   L 2.1343105,4.7260246   L 2.1343105,7.5016264   L 0.39316246,7.5016264   L 0.39316246,4.7260246   z "
     id="path13" />
  <path
     style="fill:#cccc9b;fill-rule:evenodd;fill-opacity:1;stroke:#000000;stroke-width:0.018722022px;stroke-linecap:round;stroke-linejoin:round;stroke-miterlimit:4;stroke-dasharray:none;stroke-opacity:1;"
     d="  M 1.9658123,4.7260246   L 2.1343105,4.7260246   L 2.1343105,7.5016264   L 1.9658123,7.5016264   L 1.9658123,4.7260246   z "
     id="path15" />
  <path
     style="fill:#cccc9b;fill-rule:evenodd;fill-opacity:1;stroke:#000000;stroke-width:0.018722022px;stroke-linecap:round;stroke-linejoin:round;stroke-miterlimit:4;stroke-dasharray:none;stroke-opacity:1;"
     d="  M 1.66626,4.7260246   L 1.8347582,4.7260246   L 1.8347582,7.5016264   L 1.66626,7.5016264   L 1.66626,4.7260246   z "
     id="path17" />
  <path
     style="fill:#cccc9b;fill-rule:evenodd;fill-opacity:1;stroke:#000000;stroke-width:0.018722022px;stroke-linecap:round;stroke-linejoin:round;stroke-miterlimit:4;stroke-dasharray:none;stroke-opacity:1;"
     d="  M 1.3479856,4.7260246   L 1.5164838,4.7260246   L 1.5164838,7.5016264   L 1.3479856,7.5016264   L 1.3479856,4.7260246   z "
     id="path19" />
  <path
     style="fill:#cccc9b;fill-rule:evenodd;fill-opacity:1;stroke:#000000;stroke-width:0.018722022px;stroke-linecap:round;stroke-linejoin:round;stroke-miterlimit:4;stroke-dasharray:none;stroke-opacity:1;"
     d="  M 1.0484332,4.7260246   L 1.2169314,4.7260246   L 1.2169314,7.5016264   L 1.0484332,7.5016264   L 1.0484332,4.7260246   z "
     id="path21" />
  <path
     style="fill:#cccc9b;fill-rule:evenodd;fill-opacity:1;stroke:#000000;stroke-width:0.018722022px;stroke-linecap:round;stroke-linejoin:round;stroke-miterlimit:4;stroke-dasharray:none;stroke-opacity:1;"
     d="  M 0.73015886,4.7260246   L 0.89865706,4.7260246   L 0.89865706,7.5016264   L 0.73015886,7.5016264   L 0.73015886,4.7260246   z "
     id="path23" />
  <path
     style="fill:#cccc9b;fill-rule:evenodd;fill-opacity:1;stroke:#000000;stroke-width:0.018722022px;stroke-linecap:round;stroke-linejoin:round;stroke-miterlimit:4;stroke-dasharray:none;stroke-opacity:1;"
     d="  M 0.39316246,4.7260246   L 0.56166066,4.7260246   L 0.56166066,7.5016264   L 0.39316246,7.5016264   L 0.39316246,4.7260246   z "
     id="path25" />
  <path
     style="fill:none;stroke:#000000;stroke-width:0.018722022px;stroke-linecap:round;stroke-linejoin:round;stroke-miterlimit:4;stroke-dasharray:none;stroke-opacity:1;"
     d="  M 0,4.7260246   L 4.9800579,4.7260246   L 4.9800579,7.5016264   L 0,7.5016264   L 0,4.7260246   z "
     id="path27" />
  <path
     style="fill:#bcbc7e;fill-rule:evenodd;fill-opacity:1;stroke:#000000;stroke-width:0.018722022px;stroke-linecap:round;stroke-linejoin:round;stroke-miterlimit:4;stroke-dasharray:none;stroke-opacity:1;"
     d="  M 70.319915,4.7260246   L 65.339857,4.7260246   L 65.339857,7.5016264   L 70.319915,7.5016264   L 70.319915,4.7260246   z "
     id="path29" />
  <path
     style="fill:#cccc9b;fill-rule:evenodd;fill-opacity:1;stroke:#cccc9b;stroke-width:0.018722022px;stroke-linecap:round;stroke-linejoin:round;stroke-miterlimit:4;stroke-dasharray:none;stroke-opacity:1;"
     d="  M 70.319915,5.1386141   L 65.339857,5.1386141   L 65.339857,7.0890369   L 70.319915,7.0890369   L 70.319915,5.1386141   z "
     id="path31" />
  <path
     style="fill:#d6d6b1;fill-rule:evenodd;fill-opacity:1;stroke:#d6d6b1;stroke-width:0.018722022px;stroke-linecap:round;stroke-linejoin:round;stroke-miterlimit:4;stroke-dasharray:none;stroke-opacity:1;"
     d="  M 70.319915,5.6262198   L 65.339857,5.6262198   L 65.339857,6.6014312   L 70.319915,6.6014312   L 70.319915,5.6262198   z "
     id="path33" />
  <path
     style="fill:#e2e2cc;fill-rule:evenodd;fill-opacity:1;stroke:#e2e2cc;stroke-width:0.018722022px;stroke-linecap:round;stroke-linejoin:round;stroke-miterlimit:4;stroke-dasharray:none;stroke-opacity:1;"
     d="  M 70.319915,5.9825471   L 65.339857,5.9825471   L 65.339857,6.245104   L 70.319915,6.245104   L 70.319915,5.9825471   z "
     id="path35" />
  <path
     style="fill:#bcbc7e;fill-rule:evenodd;fill-opacity:1;stroke:#000000;stroke-width:0.018722022px;stroke-linecap:round;stroke-linejoin:round;stroke-miterlimit:4;stroke-dasharray:none;stroke-opacity:1;"
     d="  M 69.926753,4.7260246   L 68.185605,4.7260246   L 68.185605,7.5016264   L 69.926753,7.5016264   L 69.926753,4.7260246   z "
     id="path37" />
  <path
     style="fill:#cccc9b;fill-rule:evenodd;fill-opacity:1;stroke:#000000;stroke-width:0.018722022px;stroke-linecap:round;stroke-linejoin:round;stroke-miterlimit:4;stroke-dasharray:none;stroke-opacity:1;"
     d="  M 68.354103,4.7260246   L 68.185605,4.7260246   L 68.185605,7.5016264   L 68.354103,7.5016264   L 68.354103,4.7260246   z "
     id="path39" />
  <path
     style="fill:#cccc9b;fill-rule:evenodd;fill-opacity:1;stroke:#000000;stroke-width:0.018722022px;stroke-linecap:round;stroke-linejoin:round;stroke-miterlimit:4;stroke-dasharray:none;stroke-opacity:1;"
     d="  M 68.653655,4.7260246   L 68.485157,4.7260246   L 68.485157,7.5016264   L 68.653655,7.5016264   L 68.653655,4.7260246   z "
     id="path41" />
  <path
     style="fill:#cccc9b;fill-rule:evenodd;fill-opacity:1;stroke:#000000;stroke-width:0.018722022px;stroke-linecap:round;stroke-linejoin:round;stroke-miterlimit:4;stroke-dasharray:none;stroke-opacity:1;"
     d="  M 68.97193,4.7260246   L 68.803431,4.7260246   L 68.803431,7.5016264   L 68.97193,7.5016264   L 68.97193,4.7260246   z "
     id="path43" />
  <path
     style="fill:#cccc9b;fill-rule:evenodd;fill-opacity:1;stroke:#000000;stroke-width:0.018722022px;stroke-linecap:round;stroke-linejoin:round;stroke-miterlimit:4;stroke-dasharray:none;stroke-opacity:1;"
     d="  M 69.271482,4.7260246   L 69.102984,4.7260246   L 69.102984,7.5016264   L 69.271482,7.5016264   L 69.271482,4.7260246   z "
     id="path45" />
  <path
     style="fill:#cccc9b;fill-rule:evenodd;fill-opacity:1;stroke:#000000;stroke-width:0.018722022px;stroke-linecap:round;stroke-linejoin:round;stroke-miterlimit:4;stroke-dasharray:none;stroke-opacity:1;"
     d="  M 69.589756,4.7260246   L 69.421258,4.7260246   L 69.421258,7.5016264   L 69.589756,7.5016264   L 69.589756,4.7260246   z "
     id="path47" />
  <path
     style="fill:#cccc9b;fill-rule:evenodd;fill-opacity:1;stroke:#000000;stroke-width:0.018722022px;stroke-linecap:round;stroke-linejoin:round;stroke-miterlimit:4;stroke-dasharray:none;stroke-opacity:1;"
     d="  M 69.926753,4.7260246   L 69.758254,4.7260246   L 69.758254,7.5016264   L 69.926753,7.5016264   L 69.926753,4.7260246   z "
     id="path49" />
  <path
     style="fill:none;stroke:#000000;stroke-width:0.018722022px;stroke-linecap:round;stroke-linejoin:round;stroke-miterlimit:4;stroke-dasharray:none;stroke-opacity:1;"
     d="  M 70.319915,4.7260246   L 65.339857,4.7260246   L 65.339857,7.5016264   L 70.319915,7.5016264   L 70.319915,4.7260246   z "
     id="path51" />
  <path
     style="fill:#f7f7f7;fill-rule:evenodd;fill-opacity:1;stroke:#000000;stroke-width:0.018722022px;stroke-linecap:round;stroke-linejoin:round;stroke-miterlimit:4;stroke-dasharray:none;stroke-opacity:1;"
     d="  M 65.339857,0.037508132   L 4.9800579,0.037508132   L 4.9800579,15.115777   L 65.339857,15.115777   L 65.339857,0.037508132   z "
     id="path53" />
  <path
     style="fill:#efefef;fill-rule:evenodd;fill-opacity:1;stroke:#efefef;stroke-width:0.018722022px;stroke-linecap:round;stroke-linejoin:round;stroke-miterlimit:4;stroke-dasharray:none;stroke-opacity:1;"
     d="  M 10.18478,0.037508132   L 4.9800579,0.037508132   L 4.9800579,15.115777   L 10.18478,15.115777   L 10.18478,0.037508132   z "
     id="path55" />
  <path
     style="fill:#eaeaea;fill-rule:evenodd;fill-opacity:1;stroke:#eaeaea;stroke-width:0.018722022px;stroke-linecap:round;stroke-linejoin:round;stroke-miterlimit:4;stroke-dasharray:none;stroke-opacity:1;"
     d="  M 8.6870183,0.037508132   L 4.9800579,0.037508132   L 4.9800579,15.115777   L 8.6870183,15.115777   L 8.6870183,0.037508132   z "
     id="path57" />
  <path
     style="fill:#e2e2e2;fill-rule:evenodd;fill-opacity:1;stroke:#e2e2e2;stroke-width:0.018722022px;stroke-linecap:round;stroke-linejoin:round;stroke-miterlimit:4;stroke-dasharray:none;stroke-opacity:1;"
     d="  M 7.2454226,0.037508132   L 4.9800579,0.037508132   L 4.9800579,15.115777   L 7.2454226,15.115777   L 7.2454226,0.037508132   z "
     id="path59" />
  <path
     style="fill:#dddddd;fill-rule:evenodd;fill-opacity:1;stroke:#dddddd;stroke-width:0.018722022px;stroke-linecap:round;stroke-linejoin:round;stroke-miterlimit:4;stroke-dasharray:none;stroke-opacity:1;"
     d="  M 6.0659352,0.037508132   L 4.9800579,0.037508132   L 4.9800579,15.115777   L 6.0659352,15.115777   L 6.0659352,0.037508132   z "
     id="path61" />
  <path
     style="fill:#efefef;fill-rule:evenodd;fill-opacity:1;stroke:#efefef;stroke-width:0.018722022px;stroke-linecap:round;stroke-linejoin:round;stroke-miterlimit:4;stroke-dasharray:none;stroke-opacity:1;"
     d="  M 65.339857,0.037508132   L 60.135135,0.037508132   L 60.135135,15.115777   L 65.339857,15.115777   L 65.339857,0.037508132   z "
     id="path63" />
  <path
     style="fill:#eaeaea;fill-rule:evenodd;fill-opacity:1;stroke:#eaeaea;stroke-width:0.018722022px;stroke-linecap:round;stroke-linejoin:round;stroke-miterlimit:4;stroke-dasharray:none;stroke-opacity:1;"
     d="  M 65.339857,0.037508132   L 61.632897,0.037508132   L 61.632897,15.115777   L 65.339857,15.115777   L 65.339857,0.037508132   z "
     id="path65" />
  <path
     style="fill:#e2e2e2;fill-rule:evenodd;fill-opacity:1;stroke:#e2e2e2;stroke-width:0.018722022px;stroke-linecap:round;stroke-linejoin:round;stroke-miterlimit:4;stroke-dasharray:none;stroke-opacity:1;"
     d="  M 65.339857,0.037508132   L 63.074493,0.037508132   L 63.074493,15.115777   L 65.339857,15.115777   L 65.339857,0.037508132   z "
     id="path67" />
  <path
     style="fill:#dddddd;fill-rule:evenodd;fill-opacity:1;stroke:#dddddd;stroke-width:0.018722022px;stroke-linecap:round;stroke-linejoin:round;stroke-miterlimit:4;stroke-dasharray:none;stroke-opacity:1;"
     d="  M 65.339857,0.037508132   L 64.25398,0.037508132   L 64.25398,15.115777   L 65.339857,15.115777   L 65.339857,0.037508132   z "
     id="path69" />
  <path
     style="fill:#efefef;fill-rule:evenodd;fill-opacity:1;stroke:#000000;stroke-width:0.018722022px;stroke-linecap:round;stroke-linejoin:round;stroke-miterlimit:4;stroke-dasharray:none;stroke-opacity:1;"
     d="  M 13.70452,1.5753415   L 13.554744,1.5753415   L 13.105415,1.6878659   L 13.049249,1.7253741   L 12.974361,1.7628822   L 12.918195,1.8003903   L 12.843307,1.8378985   L 12.787141,1.8754066   L 12.730975,1.9316688   L 12.674809,1.9691769   L 12.562477,2.0817013   L 12.525033,2.1379635   L 12.468867,2.1942257   L 12.431423,2.2504879   L 12.393979,2.3255042   L 12.356535,2.3817664   L 12.319091,2.4567826   L 12.281647,2.5130448   L 12.169314,2.9631424   L 12.169314,15.115777   L 58.150601,15.115777   L 58.150601,2.9631424   L 58.038269,2.5130448   L 58.000825,2.4567826   L 57.963381,2.3817664   L 57.925936,2.3255042   L 57.888492,2.2504879   L 57.851048,2.1942257   L 57.794882,2.1379635   L 57.757438,2.0817013   L 57.645106,1.9691769   L 57.58894,1.9316688   L 57.532774,1.8754066   L 57.476608,1.8378985   L 57.40172,1.8003903   L 57.345554,1.7628822   L 57.270666,1.7253741   L 57.2145,1.6878659   L 56.765171,1.5753415   L 13.835574,1.5753415   L 13.70452,1.5753415   z "
     id="path71" />
  <path
     style="fill:none;stroke:#000000;stroke-width:0.018722022px;stroke-linecap:round;stroke-linejoin:round;stroke-miterlimit:4;stroke-dasharray:none;stroke-opacity:1;"
     d="  M 12.244202,11.85257   L 58.075713,11.85257  "
     id="path73" />
  <path
     style="fill:#000000;fill-rule:evenodd;fill-opacity:1;stroke:#000000;stroke-width:0.018722022px;stroke-linecap:round;stroke-linejoin:round;stroke-miterlimit:4;stroke-dasharray:none;stroke-opacity:1;"
     d="  M 14.90273,12.677749   L 14.90273,12.621486   L 14.865286,12.54647   L 14.790397,12.471454   L 14.715509,12.433946   L 12.824585,12.433946   L 12.749697,12.471454   L 12.674809,12.54647   L 12.637365,12.621486   L 12.637365,12.734011   L 12.674809,12.809027   L 12.749697,12.884043   L 12.824585,12.921551   L 14.715509,12.921551   L 14.790397,12.884043   L 14.865286,12.809027   L 14.90273,12.734011   L 14.90273,12.677749   z "
     id="path75" />
  <path
     style="fill:#000000;fill-rule:evenodd;fill-opacity:1;stroke:#000000;stroke-width:0.018722022px;stroke-linecap:round;stroke-linejoin:round;stroke-miterlimit:4;stroke-dasharray:none;stroke-opacity:1;"
     d="  M 14.90273,13.690468   L 14.90273,13.634206   L 14.865286,13.55919   L 14.790397,13.484173   L 14.715509,13.446665   L 12.824585,13.446665   L 12.749697,13.484173   L 12.674809,13.55919   L 12.637365,13.634206   L 12.637365,13.74673   L 12.674809,13.821747   L 12.749697,13.896763   L 12.824585,13.934271   L 14.715509,13.934271   L 14.790397,13.896763   L 14.865286,13.821747   L 14.90273,13.74673   L 14.90273,13.690468   z "
     id="path77" />
  <path
     style="fill:#000000;fill-rule:evenodd;fill-opacity:1;stroke:#000000;stroke-width:0.018722022px;stroke-linecap:round;stroke-linejoin:round;stroke-miterlimit:4;stroke-dasharray:none;stroke-opacity:1;"
     d="  M 17.916975,12.677749   L 17.916975,12.621486   L 17.879531,12.54647   L 17.804643,12.471454   L 17.729755,12.433946   L 15.838831,12.433946   L 15.763943,12.471454   L 15.689055,12.54647   L 15.651611,12.621486   L 15.651611,12.734011   L 15.689055,12.809027   L 15.763943,12.884043   L 15.838831,12.921551   L 17.729755,12.921551   L 17.804643,12.884043   L 17.879531,12.809027   L 17.916975,12.734011   L 17.916975,12.677749   z "
     id="path79" />
  <path
     style="fill:#000000;fill-rule:evenodd;fill-opacity:1;stroke:#000000;stroke-width:0.018722022px;stroke-linecap:round;stroke-linejoin:round;stroke-miterlimit:4;stroke-dasharray:none;stroke-opacity:1;"
     d="  M 17.916975,13.690468   L 17.916975,13.634206   L 17.879531,13.55919   L 17.804643,13.484173   L 17.729755,13.446665   L 15.838831,13.446665   L 15.763943,13.484173   L 15.689055,13.55919   L 15.651611,13.634206   L 15.651611,13.74673   L 15.689055,13.821747   L 15.763943,13.896763   L 15.838831,13.934271   L 17.729755,13.934271   L 17.804643,13.896763   L 17.879531,13.821747   L 17.916975,13.74673   L 17.916975,13.690468   z "
     id="path81" />
  <path
     style="fill:#000000;fill-rule:evenodd;fill-opacity:1;stroke:#000000;stroke-width:0.018722022px;stroke-linecap:round;stroke-linejoin:round;stroke-miterlimit:4;stroke-dasharray:none;stroke-opacity:1;"
     d="  M 20.968665,12.677749   L 20.968665,12.621486   L 20.931221,12.54647   L 20.856333,12.471454   L 20.781445,12.433946   L 18.89052,12.433946   L 18.815632,12.471454   L 18.740744,12.54647   L 18.7033,12.621486   L 18.7033,12.734011   L 18.740744,12.809027   L 18.815632,12.884043   L 18.89052,12.921551   L 20.781445,12.921551   L 20.856333,12.884043   L 20.931221,12.809027   L 20.968665,12.734011   L 20.968665,12.677749   z "
     id="path83" />
  <path
     style="fill:#000000;fill-rule:evenodd;fill-opacity:1;stroke:#000000;stroke-width:0.018722022px;stroke-linecap:round;stroke-linejoin:round;stroke-miterlimit:4;stroke-dasharray:none;stroke-opacity:1;"
     d="  M 20.968665,13.690468   L 20.968665,13.634206   L 20.931221,13.55919   L 20.856333,13.484173   L 20.781445,13.446665   L 18.89052,13.446665   L 18.815632,13.484173   L 18.740744,13.55919   L 18.7033,13.634206   L 18.7033,13.74673   L 18.740744,13.821747   L 18.815632,13.896763   L 18.89052,13.934271   L 20.781445,13.934271   L 20.856333,13.896763   L 20.931221,13.821747   L 20.968665,13.74673   L 20.968665,13.690468   z "
     id="path85" />
  <path
     style="fill:#000000;fill-rule:evenodd;fill-opacity:1;stroke:#000000;stroke-width:0.018722022px;stroke-linecap:round;stroke-linejoin:round;stroke-miterlimit:4;stroke-dasharray:none;stroke-opacity:1;"
     d="  M 24.001632,12.677749   L 24.001632,12.621486   L 23.964188,12.54647   L 23.8893,12.471454   L 23.814412,12.433946   L 21.923488,12.433946   L 21.8486,12.471454   L 21.773712,12.54647   L 21.736268,12.621486   L 21.736268,12.734011   L 21.773712,12.809027   L 21.8486,12.884043   L 21.923488,12.921551   L 23.814412,12.921551   L 23.8893,12.884043   L 23.964188,12.809027   L 24.001632,12.734011   L 24.001632,12.677749   z "
     id="path87" />
  <path
     style="fill:#000000;fill-rule:evenodd;fill-opacity:1;stroke:#000000;stroke-width:0.018722022px;stroke-linecap:round;stroke-linejoin:round;stroke-miterlimit:4;stroke-dasharray:none;stroke-opacity:1;"
     d="  M 24.001632,13.690468   L 24.001632,13.634206   L 23.964188,13.55919   L 23.8893,13.484173   L 23.814412,13.446665   L 21.923488,13.446665   L 21.8486,13.484173   L 21.773712,13.55919   L 21.736268,13.634206   L 21.736268,13.74673   L 21.773712,13.821747   L 21.8486,13.896763   L 21.923488,13.934271   L 23.814412,13.934271   L 23.8893,13.896763   L 23.964188,13.821747   L 24.001632,13.74673   L 24.001632,13.690468   z "
     id="path89" />
  <path
     style="fill:#000000;fill-rule:evenodd;fill-opacity:1;stroke:#000000;stroke-width:0.018722022px;stroke-linecap:round;stroke-linejoin:round;stroke-miterlimit:4;stroke-dasharray:none;stroke-opacity:1;"
     d="  M 27.0346,12.677749   L 27.0346,12.621486   L 26.997156,12.54647   L 26.922268,12.471454   L 26.84738,12.433946   L 24.956456,12.433946   L 24.881567,12.471454   L 24.806679,12.54647   L 24.769235,12.621486   L 24.769235,12.734011   L 24.806679,12.809027   L 24.881567,12.884043   L 24.956456,12.921551   L 26.84738,12.921551   L 26.922268,12.884043   L 26.997156,12.809027   L 27.0346,12.734011   L 27.0346,12.677749   z "
     id="path91" />
  <path
     style="fill:#000000;fill-rule:evenodd;fill-opacity:1;stroke:#000000;stroke-width:0.018722022px;stroke-linecap:round;stroke-linejoin:round;stroke-miterlimit:4;stroke-dasharray:none;stroke-opacity:1;"
     d="  M 27.0346,13.690468   L 27.0346,13.634206   L 26.997156,13.55919   L 26.922268,13.484173   L 26.84738,13.446665   L 24.956456,13.446665   L 24.881567,13.484173   L 24.806679,13.55919   L 24.769235,13.634206   L 24.769235,13.74673   L 24.806679,13.821747   L 24.881567,13.896763   L 24.956456,13.934271   L 26.84738,13.934271   L 26.922268,13.896763   L 26.997156,13.821747   L 27.0346,13.74673   L 27.0346,13.690468   z "
     id="path93" />
  <path
     style="fill:#000000;fill-rule:evenodd;fill-opacity:1;stroke:#000000;stroke-width:0.018722022px;stroke-linecap:round;stroke-linejoin:round;stroke-miterlimit:4;stroke-dasharray:none;stroke-opacity:1;"
     d="  M 30.067568,12.677749   L 30.067568,12.621486   L 30.030124,12.54647   L 29.955235,12.471454   L 29.880347,12.433946   L 27.989423,12.433946   L 27.914535,12.471454   L 27.839647,12.54647   L 27.802203,12.621486   L 27.802203,12.734011   L 27.839647,12.809027   L 27.914535,12.884043   L 27.989423,12.921551   L 29.880347,12.921551   L 29.955235,12.884043   L 30.030124,12.809027   L 30.067568,12.734011   L 30.067568,12.677749   z "
     id="path95" />
  <path
     style="fill:#000000;fill-rule:evenodd;fill-opacity:1;stroke:#000000;stroke-width:0.018722022px;stroke-linecap:round;stroke-linejoin:round;stroke-miterlimit:4;stroke-dasharray:none;stroke-opacity:1;"
     d="  M 30.067568,13.690468   L 30.067568,13.634206   L 30.030124,13.55919   L 29.955235,13.484173   L 29.880347,13.446665   L 27.989423,13.446665   L 27.914535,13.484173   L 27.839647,13.55919   L 27.802203,13.634206   L 27.802203,13.74673   L 27.839647,13.821747   L 27.914535,13.896763   L 27.989423,13.934271   L 29.880347,13.934271   L 29.955235,13.896763   L 30.030124,13.821747   L 30.067568,13.74673   L 30.067568,13.690468   z "
     id="path97" />
  <path
     style="fill:#000000;fill-rule:evenodd;fill-opacity:1;stroke:#000000;stroke-width:0.018722022px;stroke-linecap:round;stroke-linejoin:round;stroke-miterlimit:4;stroke-dasharray:none;stroke-opacity:1;"
     d="  M 33.119257,12.677749   L 33.119257,12.621486   L 33.081813,12.54647   L 33.006925,12.471454   L 32.932037,12.433946   L 31.041113,12.433946   L 30.966225,12.471454   L 30.891337,12.54647   L 30.853892,12.621486   L 30.853892,12.734011   L 30.891337,12.809027   L 30.966225,12.884043   L 31.041113,12.921551   L 32.932037,12.921551   L 33.006925,12.884043   L 33.081813,12.809027   L 33.119257,12.734011   L 33.119257,12.677749   z "
     id="path99" />
  <path
     style="fill:#000000;fill-rule:evenodd;fill-opacity:1;stroke:#000000;stroke-width:0.018722022px;stroke-linecap:round;stroke-linejoin:round;stroke-miterlimit:4;stroke-dasharray:none;stroke-opacity:1;"
     d="  M 33.119257,13.690468   L 33.119257,13.634206   L 33.081813,13.55919   L 33.006925,13.484173   L 32.932037,13.446665   L 31.041113,13.446665   L 30.966225,13.484173   L 30.891337,13.55919   L 30.853892,13.634206   L 30.853892,13.74673   L 30.891337,13.821747   L 30.966225,13.896763   L 31.041113,13.934271   L 32.932037,13.934271   L 33.006925,13.896763   L 33.081813,13.821747   L 33.119257,13.74673   L 33.119257,13.690468   z "
     id="path101" />
  <path
     style="fill:#000000;fill-rule:evenodd;fill-opacity:1;stroke:#000000;stroke-width:0.018722022px;stroke-linecap:round;stroke-linejoin:round;stroke-miterlimit:4;stroke-dasharray:none;stroke-opacity:1;"
     d="  M 36.152225,12.677749   L 36.152225,12.621486   L 36.114781,12.54647   L 36.039893,12.471454   L 35.965005,12.433946   L 34.07408,12.433946   L 33.999192,12.471454   L 33.924304,12.54647   L 33.88686,12.621486   L 33.88686,12.734011   L 33.924304,12.809027   L 33.999192,12.884043   L 34.07408,12.921551   L 35.965005,12.921551   L 36.039893,12.884043   L 36.114781,12.809027   L 36.152225,12.734011   L 36.152225,12.677749   z "
     id="path103" />
  <path
     style="fill:#000000;fill-rule:evenodd;fill-opacity:1;stroke:#000000;stroke-width:0.018722022px;stroke-linecap:round;stroke-linejoin:round;stroke-miterlimit:4;stroke-dasharray:none;stroke-opacity:1;"
     d="  M 36.152225,13.690468   L 36.152225,13.634206   L 36.114781,13.55919   L 36.039893,13.484173   L 35.965005,13.446665   L 34.07408,13.446665   L 33.999192,13.484173   L 33.924304,13.55919   L 33.88686,13.634206   L 33.88686,13.74673   L 33.924304,13.821747   L 33.999192,13.896763   L 34.07408,13.934271   L 35.965005,13.934271   L 36.039893,13.896763   L 36.114781,13.821747   L 36.152225,13.74673   L 36.152225,13.690468   z "
     id="path105" />
  <path
     style="fill:#000000;fill-rule:evenodd;fill-opacity:1;stroke:#000000;stroke-width:0.018722022px;stroke-linecap:round;stroke-linejoin:round;stroke-miterlimit:4;stroke-dasharray:none;stroke-opacity:1;"
     d="  M 39.185192,12.677749   L 39.185192,12.621486   L 39.147748,12.54647   L 39.07286,12.471454   L 38.997972,12.433946   L 37.107048,12.433946   L 37.03216,12.471454   L 36.957272,12.54647   L 36.919828,12.621486   L 36.919828,12.734011   L 36.957272,12.809027   L 37.03216,12.884043   L 37.107048,12.921551   L 38.997972,12.921551   L 39.07286,12.884043   L 39.147748,12.809027   L 39.185192,12.734011   L 39.185192,12.677749   z "
     id="path107" />
  <path
     style="fill:#000000;fill-rule:evenodd;fill-opacity:1;stroke:#000000;stroke-width:0.018722022px;stroke-linecap:round;stroke-linejoin:round;stroke-miterlimit:4;stroke-dasharray:none;stroke-opacity:1;"
     d="  M 39.185192,13.690468   L 39.185192,13.634206   L 39.147748,13.55919   L 39.07286,13.484173   L 38.997972,13.446665   L 37.107048,13.446665   L 37.03216,13.484173   L 36.957272,13.55919   L 36.919828,13.634206   L 36.919828,13.74673   L 36.957272,13.821747   L 37.03216,13.896763   L 37.107048,13.934271   L 38.997972,13.934271   L 39.07286,13.896763   L 39.147748,13.821747   L 39.185192,13.74673   L 39.185192,13.690468   z "
     id="path109" />
  <path
     style="fill:#000000;fill-rule:evenodd;fill-opacity:1;stroke:#000000;stroke-width:0.018722022px;stroke-linecap:round;stroke-linejoin:round;stroke-miterlimit:4;stroke-dasharray:none;stroke-opacity:1;"
     d="  M 42.236882,12.677749   L 42.236882,12.621486   L 42.199438,12.54647   L 42.12455,12.471454   L 42.049662,12.433946   L 40.158737,12.433946   L 40.083849,12.471454   L 40.008961,12.54647   L 39.971517,12.621486   L 39.971517,12.734011   L 40.008961,12.809027   L 40.083849,12.884043   L 40.158737,12.921551   L 42.049662,12.921551   L 42.12455,12.884043   L 42.199438,12.809027   L 42.236882,12.734011   L 42.236882,12.677749   z "
     id="path111" />
  <path
     style="fill:#000000;fill-rule:evenodd;fill-opacity:1;stroke:#000000;stroke-width:0.018722022px;stroke-linecap:round;stroke-linejoin:round;stroke-miterlimit:4;stroke-dasharray:none;stroke-opacity:1;"
     d="  M 42.236882,13.690468   L 42.236882,13.634206   L 42.199438,13.55919   L 42.12455,13.484173   L 42.049662,13.446665   L 40.158737,13.446665   L 40.083849,13.484173   L 40.008961,13.55919   L 39.971517,13.634206   L 39.971517,13.74673   L 40.008961,13.821747   L 40.083849,13.896763   L 40.158737,13.934271   L 42.049662,13.934271   L 42.12455,13.896763   L 42.199438,13.821747   L 42.236882,13.74673   L 42.236882,13.690468   z "
     id="path113" />
  <path
     style="fill:#000000;fill-rule:evenodd;fill-opacity:1;stroke:#000000;stroke-width:0.018722022px;stroke-linecap:round;stroke-linejoin:round;stroke-miterlimit:4;stroke-dasharray:none;stroke-opacity:1;"
     d="  M 45.26985,12.677749   L 45.26985,12.621486   L 45.232405,12.54647   L 45.157517,12.471454   L 45.082629,12.433946   L 43.191705,12.433946   L 43.116817,12.471454   L 43.041929,12.54647   L 43.004485,12.621486   L 43.004485,12.734011   L 43.041929,12.809027   L 43.116817,12.884043   L 43.191705,12.921551   L 45.082629,12.921551   L 45.157517,12.884043   L 45.232405,12.809027   L 45.26985,12.734011   L 45.26985,12.677749   z "
     id="path115" />
  <path
     style="fill:#000000;fill-rule:evenodd;fill-opacity:1;stroke:#000000;stroke-width:0.018722022px;stroke-linecap:round;stroke-linejoin:round;stroke-miterlimit:4;stroke-dasharray:none;stroke-opacity:1;"
     d="  M 45.26985,13.690468   L 45.26985,13.634206   L 45.232405,13.55919   L 45.157517,13.484173   L 45.082629,13.446665   L 43.191705,13.446665   L 43.116817,13.484173   L 43.041929,13.55919   L 43.004485,13.634206   L 43.004485,13.74673   L 43.041929,13.821747   L 43.116817,13.896763   L 43.191705,13.934271   L 45.082629,13.934271   L 45.157517,13.896763   L 45.232405,13.821747   L 45.26985,13.74673   L 45.26985,13.690468   z "
     id="path117" />
  <path
     style="fill:#000000;fill-rule:evenodd;fill-opacity:1;stroke:#000000;stroke-width:0.018722022px;stroke-linecap:round;stroke-linejoin:round;stroke-miterlimit:4;stroke-dasharray:none;stroke-opacity:1;"
     d="  M 48.302817,12.677749   L 48.302817,12.621486   L 48.265373,12.54647   L 48.190485,12.471454   L 48.115597,12.433946   L 46.224673,12.433946   L 46.149785,12.471454   L 46.074896,12.54647   L 46.037452,12.621486   L 46.037452,12.734011   L 46.074896,12.809027   L 46.149785,12.884043   L 46.224673,12.921551   L 48.115597,12.921551   L 48.190485,12.884043   L 48.265373,12.809027   L 48.302817,12.734011   L 48.302817,12.677749   z "
     id="path119" />
  <path
     style="fill:#000000;fill-rule:evenodd;fill-opacity:1;stroke:#000000;stroke-width:0.018722022px;stroke-linecap:round;stroke-linejoin:round;stroke-miterlimit:4;stroke-dasharray:none;stroke-opacity:1;"
     d="  M 48.302817,13.690468   L 48.302817,13.634206   L 48.265373,13.55919   L 48.190485,13.484173   L 48.115597,13.446665   L 46.224673,13.446665   L 46.149785,13.484173   L 46.074896,13.55919   L 46.037452,13.634206   L 46.037452,13.74673   L 46.074896,13.821747   L 46.149785,13.896763   L 46.224673,13.934271   L 48.115597,13.934271   L 48.190485,13.896763   L 48.265373,13.821747   L 48.302817,13.74673   L 48.302817,13.690468   z "
     id="path121" />
  <path
     style="fill:#000000;fill-rule:evenodd;fill-opacity:1;stroke:#000000;stroke-width:0.018722022px;stroke-linecap:round;stroke-linejoin:round;stroke-miterlimit:4;stroke-dasharray:none;stroke-opacity:1;"
     d="  M 51.335785,12.677749   L 51.335785,12.621486   L 51.298341,12.54647   L 51.223453,12.471454   L 51.148564,12.433946   L 49.25764,12.433946   L 49.182752,12.471454   L 49.107864,12.54647   L 49.07042,12.621486   L 49.07042,12.734011   L 49.107864,12.809027   L 49.182752,12.884043   L 49.25764,12.921551   L 51.148564,12.921551   L 51.223453,12.884043   L 51.298341,12.809027   L 51.335785,12.734011   L 51.335785,12.677749   z "
     id="path123" />
  <path
     style="fill:#000000;fill-rule:evenodd;fill-opacity:1;stroke:#000000;stroke-width:0.018722022px;stroke-linecap:round;stroke-linejoin:round;stroke-miterlimit:4;stroke-dasharray:none;stroke-opacity:1;"
     d="  M 51.335785,13.690468   L 51.335785,13.634206   L 51.298341,13.55919   L 51.223453,13.484173   L 51.148564,13.446665   L 49.25764,13.446665   L 49.182752,13.484173   L 49.107864,13.55919   L 49.07042,13.634206   L 49.07042,13.74673   L 49.107864,13.821747   L 49.182752,13.896763   L 49.25764,13.934271   L 51.148564,13.934271   L 51.223453,13.896763   L 51.298341,13.821747   L 51.335785,13.74673   L 51.335785,13.690468   z "
     id="path125" />
  <path
     style="fill:#000000;fill-rule:evenodd;fill-opacity:1;stroke:#000000;stroke-width:0.018722022px;stroke-linecap:round;stroke-linejoin:round;stroke-miterlimit:4;stroke-dasharray:none;stroke-opacity:1;"
     d="  M 54.387474,12.677749   L 54.387474,12.621486   L 54.35003,12.54647   L 54.275142,12.471454   L 54.200254,12.433946   L 52.30933,12.433946   L 52.234442,12.471454   L 52.159554,12.54647   L 52.12211,12.621486   L 52.12211,12.734011   L 52.159554,12.809027   L 52.234442,12.884043   L 52.30933,12.921551   L 54.200254,12.921551   L 54.275142,12.884043   L 54.35003,12.809027   L 54.387474,12.734011   L 54.387474,12.677749   z "
     id="path127" />
  <path
     style="fill:#000000;fill-rule:evenodd;fill-opacity:1;stroke:#000000;stroke-width:0.018722022px;stroke-linecap:round;stroke-linejoin:round;stroke-miterlimit:4;stroke-dasharray:none;stroke-opacity:1;"
     d="  M 54.387474,13.690468   L 54.387474,13.634206   L 54.35003,13.55919   L 54.275142,13.484173   L 54.200254,13.446665   L 52.30933,13.446665   L 52.234442,13.484173   L 52.159554,13.55919   L 52.12211,13.634206   L 52.12211,13.74673   L 52.159554,13.821747   L 52.234442,13.896763   L 52.30933,13.934271   L 54.200254,13.934271   L 54.275142,13.896763   L 54.35003,13.821747   L 54.387474,13.74673   L 54.387474,13.690468   z "
     id="path129" />
  <path
     style="fill:#000000;fill-rule:evenodd;fill-opacity:1;stroke:#000000;stroke-width:0.018722022px;stroke-linecap:round;stroke-linejoin:round;stroke-miterlimit:4;stroke-dasharray:none;stroke-opacity:1;"
     d="  M 57.439164,12.677749   L 57.439164,12.621486   L 57.40172,12.54647   L 57.326832,12.471454   L 57.251944,12.433946   L 55.361019,12.433946   L 55.286131,12.471454   L 55.211243,12.54647   L 55.173799,12.621486   L 55.173799,12.734011   L 55.211243,12.809027   L 55.286131,12.884043   L 55.361019,12.921551   L 57.251944,12.921551   L 57.326832,12.884043   L 57.40172,12.809027   L 57.439164,12.734011   L 57.439164,12.677749   z "
     id="path131" />
  <path
     style="fill:#000000;fill-rule:evenodd;fill-opacity:1;stroke:#000000;stroke-width:0.018722022px;stroke-linecap:round;stroke-linejoin:round;stroke-miterlimit:4;stroke-dasharray:none;stroke-opacity:1;"
     d="  M 57.439164,13.690468   L 57.439164,13.634206   L 57.40172,13.55919   L 57.326832,13.484173   L 57.251944,13.446665   L 55.361019,13.446665   L 55.286131,13.484173   L 55.211243,13.55919   L 55.173799,13.634206   L 55.173799,13.74673   L 55.211243,13.821747   L 55.286131,13.896763   L 55.361019,13.934271   L 57.251944,13.934271   L 57.326832,13.896763   L 57.40172,13.821747   L 57.439164,13.74673   L 57.439164,13.690468   z "
     id="path133" />
  <path
     style="fill:#2399d3;fill-rule:evenodd;fill-opacity:1;stroke:#000000;stroke-width:0.018722022px;stroke-linecap:round;stroke-linejoin:round;stroke-miterlimit:4;stroke-dasharray:none;stroke-opacity:1;"
     d="  M 19.133907,3.3007156   L 12.543755,3.3007156   L 12.543755,9.0019517   L 19.133907,9.0019517   L 19.133907,3.3007156   z "
     id="path135" />
  <path
     style="fill:#494949;fill-rule:evenodd;fill-opacity:1;stroke:#000000;stroke-width:0.018722022px;stroke-linecap:round;stroke-linejoin:round;stroke-miterlimit:4;stroke-dasharray:none;stroke-opacity:1;"
     d="  M 57.738716,4.6697624   L 54.293864,4.6697624   L 54.293864,9.0019517   L 57.738716,9.0019517   L 57.738716,4.6697624   z "
     id="path137" />
  <path
     style="fill:#e2e2e2;fill-rule:evenodd;fill-opacity:1;stroke:#000000;stroke-width:0.018722022px;stroke-linecap:round;stroke-linejoin:round;stroke-miterlimit:4;stroke-dasharray:none;stroke-opacity:1;"
     d="  M 53.88198,3.3007156   L 25.499394,3.3007156   L 25.499394,9.0019517   L 53.88198,9.0019517   L 53.88198,3.3007156   z "
     id="path139" />
  <path
     style="fill:none;stroke:#000000;stroke-width:0.018722022px;stroke-linecap:round;stroke-linejoin:round;stroke-miterlimit:4;stroke-dasharray:none;stroke-opacity:1;"
     d="  M 27.31543,11.25244   L 51.541727,11.25244  "
     id="path141" />
  <path
     style="fill:none;stroke:#000000;stroke-width:0.093610108px;stroke-linecap:round;stroke-linejoin:round;stroke-miterlimit:4;stroke-dasharray:none;stroke-opacity:1;"
     d="  M 65.339857,0.037508132   L 4.9800579,0.037508132   L 4.9800579,15.115777   L 65.339857,15.115777   L 65.339857,0.037508132   z "
     id="path143" />
  <path
     style="fill:#494949;fill-rule:evenodd;fill-opacity:1;stroke:#494949;stroke-width:0.018722022px;stroke-linecap:round;stroke-linejoin:round;stroke-miterlimit:4;stroke-dasharray:none;stroke-opacity:1;"
     d="  M 52.421662,2.0066851   L 49.032976,2.0066851   L 49.032976,3.113175   L 52.421662,3.113175   L 52.421662,2.0066851   z "
     id="path145" />
  <path
     style="fill:none;stroke:#000000;stroke-width:0.0081000878px;stroke-linecap:round;stroke-linejoin:round;stroke-miterlimit:4;stroke-dasharray:none;stroke-opacity:1;"
     d="  M 70.341159,5.3399418   L 70.057656,5.3399418   L 70.057656,5.6244136   L 70.341159,5.6244136   L 70.341159,5.3399418   z "
     id="path147" />
  <path
     style="fill:none;stroke:#000000;stroke-width:0.0081000878px;stroke-linecap:round;stroke-linejoin:round;stroke-miterlimit:4;stroke-dasharray:none;stroke-opacity:1;"
     d="  M 0.28350306,5.3399418   L 0,5.3399418   L 0,5.6244136   L 0.28350306,5.6244136   L 0.28350306,5.3399418   z "
     id="path149" />
  <path
     style="fill:none;stroke:#000000;stroke-width:0.0081000878px;stroke-linecap:round;stroke-linejoin:round;stroke-miterlimit:4;stroke-dasharray:none;stroke-opacity:1;"
     d="  M 70.341159,6.0145464   L 70.057656,6.0145464   L 70.057656,6.2990182   L 70.341159,6.2990182   L 70.341159,6.0145464   z "
     id="path151" />
  <path
     style="fill:none;stroke:#000000;stroke-width:0.0081000878px;stroke-linecap:round;stroke-linejoin:round;stroke-miterlimit:4;stroke-dasharray:none;stroke-opacity:1;"
     d="  M 0.28350306,6.0145464   L 0,6.0145464   L 0,6.2990182   L 0.28350306,6.2990182   L 0.28350306,6.0145464   z "
     id="path153" />
  <path
     style="fill:none;stroke:#000000;stroke-width:0.0081000878px;stroke-linecap:round;stroke-linejoin:round;stroke-miterlimit:4;stroke-dasharray:none;stroke-opacity:1;"
     d="  M 70.341159,6.6891509   L 70.057656,6.6891509   L 70.057656,6.9736227   L 70.341159,6.9736227   L 70.341159,6.6891509   z "
     id="path155" />
  <path
     style="fill:none;stroke:#000000;stroke-width:0.0081000878px;stroke-linecap:round;stroke-linejoin:round;stroke-miterlimit:4;stroke-dasharray:none;stroke-opacity:1;"
     d="  M 0.28350306,6.6891509   L 0,6.6891509   L 0,6.9736227   L 0.28350306,6.9736227   L 0.28350306,6.6891509   z "
     id="path157" />
  <text
     xml:space="preserve"
     style="font-size:0.687500px;font-style:normal;font-variant:normal;font-weight:400;font-stretch:Normal;line-height:125.000000%;letter-spacing:0px;word-spacing:0px;fill:#000000;fill-opacity:1;stroke:none;font-family:Arial;text-align:start;text-anchor:start;"
     transform="matrix(1.000000,-0.000000,0.000000,1.000000,14.011529,10.152263)"
     x="0.000000"
     y="0.501188"
     id="text163"><tspan
       x="0.000000"
       y="0.501188"
       id="tspan161"><tspan
         dx="0.000000"
         dy="0.000000"
         style="fill:#000000;font-size:0.687500px;font-style:normal;font-variant:normal;font-weight:400;font-stretch:Normal;font-family:Arial;"
         id="tspan159">CONSOLE</tspan></tspan></text>
  <text
     xml:space="preserve"
     style="font-size:0.687500px;font-style:normal;font-variant:normal;font-weight:400;font-stretch:Normal;line-height:125.000000%;letter-spacing:0px;word-spacing:0px;fill:#000000;fill-opacity:1;stroke:none;font-family:Arial;text-align:start;text-anchor:start;"
     transform="matrix(1.000000,-0.000000,0.000000,1.000000,14.011529,10.152263)"
     x="13.786746"
     y="0.501188"
     id="text169"><tspan
       x="13.786746"
       y="0.501188"
       id="tspan167"><tspan
         dx="0.000000"
         dy="0.000000"
         style="fill:#000000;font-size:0.687500px;font-style:normal;font-variant:normal;font-weight:400;font-stretch:Normal;font-family:Arial;"
         id="tspan165">WAN</tspan></tspan></text>
  <text
     xml:space="preserve"
     style="font-size:0.687500px;font-style:normal;font-variant:normal;font-weight:400;font-stretch:Normal;line-height:125.000000%;letter-spacing:0px;word-spacing:0px;fill:#000000;fill-opacity:1;stroke:none;font-family:Arial;text-align:start;text-anchor:start;"
     transform="matrix(1.000000,-0.000000,0.000000,1.000000,14.011529,10.152263)"
     x="19.930839"
     y="0.501188"
     id="text175"><tspan
       x="19.930839"
       y="0.501188"
       id="tspan173"><tspan
         dx="0.000000"
         dy="0.000000"
         style="fill:#000000;font-size:0.687500px;font-style:normal;font-variant:normal;font-weight:400;font-stretch:Normal;font-family:Arial;"
         id="tspan171">1</tspan></tspan></text>
  <text
     xml:space="preserve"
     style="font-size:0.687500px;font-style:normal;font-variant:normal;font-weight:400;font-stretch:Normal;line-height:125.000000%;letter-spacing:0px;word-spacing:0px;fill:#000000;fill-opacity:1;stroke:none;font-family:Arial;text-align:start;text-anchor:start;"
     transform="matrix(1.000000,-0.000000,0.000000,1.000000,14.011529,10.152263)"
     x="25.475508"
     y="0.501188"
     id="text181"><tspan
       x="25.475508"
       y="0.501188"
       id="tspan179"><tspan
         dx="0.000000"
         dy="0.000000"
         style="fill:#000000;font-size:0.687500px;font-style:normal;font-variant:normal;font-weight:400;font-stretch:Normal;font-family:Arial;"
         id="tspan177">2</tspan></tspan></text>
  <text
     xml:space="preserve"
     style="font-size:0.687500px;font-style:normal;font-variant:normal;font-weight:400;font-stretch:Normal;line-height:125.000000%;letter-spacing:0px;word-spacing:0px;fill:#000000;fill-opacity:1;stroke:none;font-family:Arial;text-align:start;text-anchor:start;"
     transform="matrix(1.000000,-0.000000,0.000000,1.000000,14.011529,10.152263)"
     x="31.020178"
     y="0.501188"
     id="text187"><tspan
       x="31.020178"
       y="0.501188"
       id="tspan185"><tspan
         dx="0.000000"
         dy="0.000000"
         style="fill:#000000;font-size:0.687500px;font-style:normal;font-variant:normal;font-weight:400;font-stretch:Normal;font-family:Arial;"
         id="tspan183">3</tspan></tspan></text>
  <text
     xml:space="preserve"
     style="font-size:0.687500px;font-style:normal;font-variant:normal;font-weight:400;font-stretch:Normal;line-height:125.000000%;letter-spacing:0px;word-spacing:0px;fill:#000000;fill-opacity:1;stroke:none;font-family:Arial;text-align:start;text-anchor:start;"
     transform="matrix(1.000000,-0.000000,0.000000,1.000000,14.011529,10.152263)"
     x="36.564847"
     y="0.501188"
     id="text193"><tspan
       x="36.564847"
       y="0.501188"
       id="tspan191"><tspan
         dx="0.000000"
         dy="0.000000"
         style="fill:#000000;font-size:0.687500px;font-style:normal;font-variant:normal;font-weight:400;font-stretch:Normal;font-family:Arial;"
         id="tspan189">4</tspan></tspan></text>
  <text
     xml:space="preserve"
     style="font-size:0.687500px;font-style:normal;font-variant:normal;font-weight:400;font-stretch:Normal;line-height:125.000000%;letter-spacing:0px;word-spacing:0px;fill:#000000;fill-opacity:1;stroke:none;font-family:Arial;text-align:start;text-anchor:start;"
     transform="matrix(1.000000,-0.000000,0.000000,1.000000,14.011529,10.152263)"
     x="40.760813"
     y="0.501188"
     id="text199"><tspan
       x="40.760813"
       y="0.501188"
       id="tspan197"><tspan
         dx="0.000000"
         dy="0.000000"
         style="fill:#000000;font-size:0.687500px;font-style:normal;font-variant:normal;font-weight:400;font-stretch:Normal;font-family:Arial;"
         id="tspan195">12VDC</tspan></tspan></text>
  <path
     style="fill:#83ff00;fill-rule:evenodd;fill-opacity:1;stroke:#000000;stroke-width:0.018086724px;stroke-linecap:round;stroke-linejoin:round;stroke-miterlimit:4;stroke-dasharray:none;stroke-opacity:1;"
     d="  M 29.191974,9.4096115   L 28.179117,9.4096115   L 28.179117,9.8262733   L 29.191974,9.8262733   L 29.191974,9.4096115   z "
     id="path201" />
  <path
     style="fill:#83ff00;fill-rule:evenodd;fill-opacity:1;stroke:#000000;stroke-width:0.018086724px;stroke-linecap:round;stroke-linejoin:round;stroke-miterlimit:4;stroke-dasharray:none;stroke-opacity:1;"
     d="  M 34.726511,9.4096115   L 33.713655,9.4096115   L 33.713655,9.8262733   L 34.726511,9.8262733   L 34.726511,9.4096115   z "
     id="path203" />
  <path
     style="fill:#83ff00;fill-rule:evenodd;fill-opacity:1;stroke:#000000;stroke-width:0.018086724px;stroke-linecap:round;stroke-linejoin:round;stroke-miterlimit:4;stroke-dasharray:none;stroke-opacity:1;"
     d="  M 40.279136,9.4096115   L 39.266279,9.4096115   L 39.266279,9.8262733   L 40.279136,9.8262733   L 40.279136,9.4096115   z "
     id="path205" />
  <path
     style="fill:#83ff00;fill-rule:evenodd;fill-opacity:1;stroke:#000000;stroke-width:0.018086724px;stroke-linecap:round;stroke-linejoin:round;stroke-miterlimit:4;stroke-dasharray:none;stroke-opacity:1;"
     d="  M 45.813674,9.4096115   L 44.800817,9.4096115   L 44.800817,9.8262733   L 45.813674,9.8262733   L 45.813674,9.4096115   z "
     id="path207" />
  <path
     style="fill:#83ff00;fill-rule:evenodd;fill-opacity:1;stroke:#000000;stroke-width:0.018086724px;stroke-linecap:round;stroke-linejoin:round;stroke-miterlimit:4;stroke-dasharray:none;stroke-opacity:1;"
     d="  M 51.366298,9.4096115   L 50.353442,9.4096115   L 50.353442,9.8262733   L 51.366298,9.8262733   L 51.366298,9.4096115   z "
     id="path209" />
  <ellipse
     style="fill:#000000;fill-rule:evenodd;fill-opacity:1;stroke:#000000;stroke-width:0.064595446px;stroke-linecap:round;stroke-linejoin:round;stroke-miterlimit:4;stroke-dasharray:none;stroke-opacity:1;"
     cx="20.489675"
     cy="10.50737"
     rx="0.077514535"
     ry="0.064595445"
     id="ellipse211" />
  <ellipse
     style="fill:none;stroke:#000000;stroke-width:0.064595446px;stroke-linecap:round;stroke-linejoin:round;stroke-miterlimit:4;stroke-dasharray:none;stroke-opacity:1;"
     cx="20.489675"
     cy="10.50737"
     rx="0.077514535"
     ry="0.064595445"
     id="ellipse213" />
  <path
     style="fill:none;stroke:#000000;stroke-width:0.064595446px;stroke-linecap:round;stroke-linejoin:round;stroke-miterlimit:4;stroke-dasharray:none;stroke-opacity:1;"
     d="  M 20.7093,10.592302   L 21.910775,10.592302  "
     id="path215" />
  <path
     style="fill:none;stroke:#000000;stroke-width:0.064595446px;stroke-linecap:round;stroke-linejoin:round;stroke-miterlimit:4;stroke-dasharray:none;stroke-opacity:1;"
     d="  M 20.864329,10.592302   L 21.122711,10.349638   L 21.432769,10.349638  "
     id="path217" />
  <path
     style="fill:none;stroke:#000000;stroke-width:0.064595446px;stroke-linecap:round;stroke-linejoin:round;stroke-miterlimit:4;stroke-dasharray:none;stroke-opacity:1;"
     d="  M 21.083953,10.592302   L 21.342335,10.834967   L 21.536122,10.834967  "
     id="path219" />
  <ellipse
     style="fill:#000000;fill-rule:evenodd;fill-opacity:1;stroke:#000000;stroke-width:0.064595446px;stroke-linecap:round;stroke-linejoin:round;stroke-miterlimit:4;stroke-dasharray:none;stroke-opacity:1;"
     cx="21.445688"
     cy="10.264705"
     rx="0.025838178"
     ry="0.025838178"
     id="ellipse221" />
  <ellipse
     style="fill:none;stroke:#000000;stroke-width:0.064595446px;stroke-linecap:round;stroke-linejoin:round;stroke-miterlimit:4;stroke-dasharray:none;stroke-opacity:1;"
     cx="21.445688"
     cy="10.264705"
     rx="0.025838178"
     ry="0.025838178"
     id="ellipse223" />
  <path
     style="fill:#000000;fill-rule:evenodd;fill-opacity:1;stroke:#000000;stroke-width:0.064595446px;stroke-linecap:round;stroke-linejoin:round;stroke-miterlimit:4;stroke-dasharray:none;stroke-opacity:1;"
     d="  M 21.729908,10.750034   L 21.536122,10.750034   L 21.536122,10.932033   L 21.729908,10.932033   L 21.729908,10.750034   z "
     id="path225" />
  <path
     style="fill:#000000;fill-rule:evenodd;fill-opacity:1;stroke:#000000;stroke-width:0.064595446px;stroke-linecap:round;stroke-linejoin:round;stroke-miterlimit:4;stroke-dasharray:none;stroke-opacity:1;"
     d="  M 22.207914,10.592302   L 21.910775,10.495237   L 21.910775,10.689368   L 22.207914,10.592302   z "
     id="path227" />
  <text
     xml:space="preserve"
     style="font-size:0.687500px;font-style:normal;font-variant:normal;font-weight:400;font-stretch:Normal;line-height:125.000000%;letter-spacing:0px;word-spacing:0px;fill:#000000;fill-opacity:1;stroke:none;font-family:Arial;text-align:start;text-anchor:start;"
     transform="matrix(1.000000,-0.000000,0.000000,1.000000,49.452457,2.105655)"
     x="0.000000"
     y="0.501188"
     id="text233"><tspan
       x="0.000000"
       y="0.501188"
       id="tspan231"><tspan
         dx="0.000000"
         dy="0.000000"
         style="fill:#FFFFFF;font-size:0.687500px;font-style:normal;font-variant:normal;font-weight:400;font-stretch:Normal;font-family:Arial;"
         id="tspan229">POE PD</tspan></tspan></text>
  <path
     style="fill:#1e82b5;fill-rule:evenodd;fill-opacity:1;stroke:#161616;stroke-width:0.01858847px;stroke-linecap:round;stroke-linejoin:round;stroke-miterlimit:4;stroke-dasharray:none;stroke-opacity:1;"
     d="  M 13.420875,8.0127262   L 13.420875,4.6740903   L 14.610537,4.6740903   L 14.610537,4.2289388   L 15.093838,4.2289388   L 15.093838,3.8394313   L 16.506561,3.8394313   L 16.506561,4.2289388   L 16.989862,4.2289388   L 16.989862,4.6740903   L 18.179524,4.6740903   L 18.179524,8.0127262   L 17.547516,8.0127262   L 17.547516,7.4377389   L 14.052883,7.4377389   L 14.052883,8.0127262   L 13.420875,8.0127262   z "
     id="path235" />
  <path
     style="fill:#d6d6b1;fill-rule:evenodd;fill-opacity:1;stroke:#000000;stroke-width:0.01858847px;stroke-linecap:round;stroke-linejoin:round;stroke-miterlimit:4;stroke-dasharray:none;stroke-opacity:1;"
     d="  M 14.33171,7.3264511   L 14.164414,7.3264511   L 14.164414,7.4191909   L 14.33171,7.4191909   L 14.33171,7.3264511   z "
     id="path237" />
  <path
     style="fill:#d6d6b1;fill-rule:evenodd;fill-opacity:1;stroke:#000000;stroke-width:0.01858847px;stroke-linecap:round;stroke-linejoin:round;stroke-miterlimit:4;stroke-dasharray:none;stroke-opacity:1;"
     d="  M 14.759245,7.3264511   L 14.591949,7.3264511   L 14.591949,7.4191909   L 14.759245,7.4191909   L 14.759245,7.3264511   z "
     id="path239" />
  <path
     style="fill:#d6d6b1;fill-rule:evenodd;fill-opacity:1;stroke:#000000;stroke-width:0.01858847px;stroke-linecap:round;stroke-linejoin:round;stroke-miterlimit:4;stroke-dasharray:none;stroke-opacity:1;"
     d="  M 15.205369,7.3264511   L 15.038072,7.3264511   L 15.038072,7.4191909   L 15.205369,7.4191909   L 15.205369,7.3264511   z "
     id="path241" />
  <path
     style="fill:#d6d6b1;fill-rule:evenodd;fill-opacity:1;stroke:#000000;stroke-width:0.01858847px;stroke-linecap:round;stroke-linejoin:round;stroke-miterlimit:4;stroke-dasharray:none;stroke-opacity:1;"
     d="  M 15.651492,7.3264511   L 15.484196,7.3264511   L 15.484196,7.4191909   L 15.651492,7.4191909   L 15.651492,7.3264511   z "
     id="path243" />
  <path
     style="fill:#d6d6b1;fill-rule:evenodd;fill-opacity:1;stroke:#000000;stroke-width:0.01858847px;stroke-linecap:round;stroke-linejoin:round;stroke-miterlimit:4;stroke-dasharray:none;stroke-opacity:1;"
     d="  M 16.097615,7.3264511   L 15.930319,7.3264511   L 15.930319,7.4191909   L 16.097615,7.4191909   L 16.097615,7.3264511   z "
     id="path245" />
  <path
     style="fill:#d6d6b1;fill-rule:evenodd;fill-opacity:1;stroke:#000000;stroke-width:0.01858847px;stroke-linecap:round;stroke-linejoin:round;stroke-miterlimit:4;stroke-dasharray:none;stroke-opacity:1;"
     d="  M 16.543738,7.3264511   L 16.376442,7.3264511   L 16.376442,7.4191909   L 16.543738,7.4191909   L 16.543738,7.3264511   z "
     id="path247" />
  <path
     style="fill:#d6d6b1;fill-rule:evenodd;fill-opacity:1;stroke:#000000;stroke-width:0.01858847px;stroke-linecap:round;stroke-linejoin:round;stroke-miterlimit:4;stroke-dasharray:none;stroke-opacity:1;"
     d="  M 16.989862,7.3264511   L 16.822565,7.3264511   L 16.822565,7.4191909   L 16.989862,7.4191909   L 16.989862,7.3264511   z "
     id="path249" />
  <path
     style="fill:#d6d6b1;fill-rule:evenodd;fill-opacity:1;stroke:#000000;stroke-width:0.01858847px;stroke-linecap:round;stroke-linejoin:round;stroke-miterlimit:4;stroke-dasharray:none;stroke-opacity:1;"
     d="  M 17.454573,7.3264511   L 17.287277,7.3264511   L 17.287277,7.4191909   L 17.454573,7.4191909   L 17.454573,7.3264511   z "
     id="path251" />
  <path
     style="fill:#494949;fill-rule:evenodd;fill-opacity:1;stroke:#000000;stroke-width:0.01828889px;stroke-linecap:round;stroke-linejoin:round;stroke-miterlimit:4;stroke-dasharray:none;stroke-opacity:1;"
     d="  M 20.245801,8.4538445   L 20.245801,8.5098302   L 20.26409,8.5098302   L 20.26409,8.5471541   L 20.282379,8.565816   L 20.282379,8.5844779   L 20.300668,8.5844779   L 20.300668,8.6031398   L 20.318957,8.6031398   L 20.318957,8.6218017   L 20.337245,8.6218017   L 20.355534,8.6404636   L 20.392112,8.6404636   L 20.392112,8.6591255   L 22.184423,8.6591255   L 22.184423,8.6404636   L 22.221001,8.6404636   L 22.23929,8.6218017   L 22.257579,8.6218017   L 22.257579,8.6031398   L 22.275868,8.6031398   L 22.275868,8.5844779   L 22.294157,8.5844779   L 22.294157,8.565816   L 22.312446,8.5471541   L 22.312446,8.5098302   L 22.330734,8.5098302   L 22.330734,3.8443531   L 22.312446,3.8443531   L 22.312446,3.8070293   L 22.294157,3.7883674   L 22.294157,3.7697055   L 22.275868,3.7697055   L 22.275868,3.7510436   L 22.257579,3.7510436   L 22.257579,3.7323817   L 22.23929,3.7323817   L 22.221001,3.7137198   L 22.184423,3.7137198   L 22.184423,3.6950579   L 20.392112,3.6950579   L 20.392112,3.7137198   L 20.355534,3.7137198   L 20.337245,3.7323817   L 20.318957,3.7323817   L 20.318957,3.7510436   L 20.300668,3.7510436   L 20.300668,3.7697055   L 20.282379,3.7697055   L 20.282379,3.7883674   L 20.26409,3.8070293   L 20.26409,3.8443531   L 20.245801,3.8443531   L 20.245801,8.4351826   L 20.245801,8.4538445   z "
     id="path253" />
  <path
     style="fill:#000000;fill-rule:evenodd;fill-opacity:1;stroke:#494949;stroke-width:0.01828889px;stroke-linecap:round;stroke-linejoin:round;stroke-miterlimit:4;stroke-dasharray:none;stroke-opacity:1;"
     d="  M 20.410401,8.3791969   L 20.410401,8.4351826   L 20.42869,8.4351826   L 20.42869,8.4538445   L 20.446979,8.4725064   L 20.465268,8.4725064   L 20.465268,8.4911683   L 22.111268,8.4911683   L 22.129557,8.4725064   L 22.147846,8.4725064   L 22.147846,8.4538445   L 22.166134,8.4538445   L 22.166134,8.4351826   L 22.184423,8.4165207   L 22.184423,3.9190008   L 22.166134,3.9190008   L 22.166134,3.9003389   L 22.147846,3.9003389   L 22.147846,3.881677   L 22.129557,3.881677   L 22.111268,3.863015   L 20.465268,3.863015   L 20.465268,3.881677   L 20.446979,3.881677   L 20.42869,3.9003389   L 20.42869,3.9190008   L 20.410401,3.9190008   L 20.410401,8.360535   L 20.410401,8.3791969   z "
     id="path255" />
  <path
     style="fill:#494949;fill-rule:evenodd;fill-opacity:1;stroke:#494949;stroke-width:0.01828889px;stroke-linecap:round;stroke-linejoin:round;stroke-miterlimit:4;stroke-dasharray:none;stroke-opacity:1;"
     d="  M 21.398001,7.3901157   L 21.398001,7.8006777   L 21.306557,7.8006777   L 21.306557,7.3901157   L 21.398001,7.3901157   z "
     id="path257" />
  <path
     style="fill:#494949;fill-rule:evenodd;fill-opacity:1;stroke:#494949;stroke-width:0.01828889px;stroke-linecap:round;stroke-linejoin:round;stroke-miterlimit:4;stroke-dasharray:none;stroke-opacity:1;"
     d="  M 21.398001,6.4570203   L 21.398001,6.8675823   L 21.306557,6.8675823   L 21.306557,6.4570203   L 21.398001,6.4570203   z "
     id="path259" />
  <path
     style="fill:#494949;fill-rule:evenodd;fill-opacity:1;stroke:#494949;stroke-width:0.01828889px;stroke-linecap:round;stroke-linejoin:round;stroke-miterlimit:4;stroke-dasharray:none;stroke-opacity:1;"
     d="  M 21.398001,5.5425868   L 21.398001,5.9531488   L 21.306557,5.9531488   L 21.306557,5.5425868   L 21.398001,5.5425868   z "
     id="path261" />
  <path
     style="fill:#494949;fill-rule:evenodd;fill-opacity:1;stroke:#494949;stroke-width:0.01828889px;stroke-linecap:round;stroke-linejoin:round;stroke-miterlimit:4;stroke-dasharray:none;stroke-opacity:1;"
     d="  M 21.398001,4.5908295   L 21.398001,5.0013915   L 21.306557,5.0013915   L 21.306557,4.5908295   L 21.398001,4.5908295   z "
     id="path263" />
  <path
     style="fill:#494949;fill-rule:evenodd;fill-opacity:1;stroke:#494949;stroke-width:0.01828889px;stroke-linecap:round;stroke-linejoin:round;stroke-miterlimit:4;stroke-dasharray:none;stroke-opacity:1;"
     d="  M 20.831046,4.1429437   L 20.794468,4.1429437   L 20.75789,4.1616056   L 20.739601,4.1989294   L 20.739601,8.155254   L 20.75789,8.1925778   L 20.794468,8.2112397   L 21.25169,8.2112397   L 21.288268,8.1925778   L 21.306557,8.155254   L 21.306557,4.1989294   L 21.288268,4.1616056   L 21.25169,4.1429437   L 21.215112,4.1429437   L 20.831046,4.1429437   z "
     id="path265" />
  <path
     style="fill:#333333;fill-rule:evenodd;fill-opacity:1;stroke:#333333;stroke-width:0.01828889px;stroke-linecap:round;stroke-linejoin:round;stroke-miterlimit:4;stroke-dasharray:none;stroke-opacity:1;"
     d="  M 21.013934,4.2922389   L 20.940779,4.3109008   L 20.867623,4.3855485   L 20.849334,4.4601961   L 20.849334,7.8939873   L 20.867623,7.9686349   L 20.940779,8.0432825   L 21.013934,8.0619444   L 21.08709,8.0432825   L 21.160246,7.9686349   L 21.178534,7.8939873   L 21.178534,4.4601961   L 21.160246,4.3855485   L 21.08709,4.3109008   L 21.013934,4.2922389   z "
     id="path267" />
  <path
     style="fill:#eaeaea;fill-rule:evenodd;fill-opacity:1;stroke:#000000;stroke-width:0.01828889px;stroke-linecap:round;stroke-linejoin:round;stroke-miterlimit:4;stroke-dasharray:none;stroke-opacity:1;"
     d="  M 20.575001,8.4911683   L 20.575001,8.6964493   L 20.59329,8.6964493   L 20.59329,8.7151112   L 20.611579,8.7151112   L 20.611579,8.7337731   L 20.629868,8.7337731   L 20.648157,8.7524351   L 21.928379,8.7524351   L 21.946668,8.7337731   L 21.964957,8.7337731   L 21.964957,8.7151112   L 21.983246,8.7151112   L 21.983246,8.6964493   L 22.001534,8.6964493   L 22.001534,8.4911683   L 20.59329,8.4911683   L 20.575001,8.4911683   z "
     id="path269" />
  <path
     style="fill:#eaeaea;fill-rule:evenodd;fill-opacity:1;stroke:#000000;stroke-width:0.01828889px;stroke-linecap:round;stroke-linejoin:round;stroke-miterlimit:4;stroke-dasharray:none;stroke-opacity:1;"
     d="  M 20.575001,3.863015   L 20.575001,3.6577341   L 20.59329,3.6577341   L 20.59329,3.6390721   L 20.611579,3.6390721   L 20.611579,3.6204102   L 20.629868,3.6204102   L 20.648157,3.6017483   L 21.928379,3.6017483   L 21.946668,3.6204102   L 21.964957,3.6204102   L 21.964957,3.6390721   L 21.983246,3.6390721   L 21.983246,3.6577341   L 22.001534,3.6577341   L 22.001534,3.863015   L 20.59329,3.863015   L 20.575001,3.863015   z "
     id="path271" />
  <path
     style="fill:#eaeaea;fill-rule:evenodd;fill-opacity:1;stroke:#000000;stroke-width:0.01828889px;stroke-linecap:round;stroke-linejoin:round;stroke-miterlimit:4;stroke-dasharray:none;stroke-opacity:1;"
     d="  M 20.410401,8.2299016   L 20.209223,8.2299016   L 20.209223,8.2112397   L 20.172645,8.2112397   L 20.172645,8.1739159   L 20.154357,8.1739159   L 20.154357,4.2175913   L 20.172645,4.2175913   L 20.172645,4.1989294   L 20.190934,4.1802675   L 20.209223,4.1802675   L 20.209223,4.1616056   L 20.410401,4.1616056   L 20.410401,8.2112397   L 20.410401,8.2299016   z "
     id="path273" />
  <path
     style="fill:#eaeaea;fill-rule:evenodd;fill-opacity:1;stroke:#000000;stroke-width:0.01828889px;stroke-linecap:round;stroke-linejoin:round;stroke-miterlimit:4;stroke-dasharray:none;stroke-opacity:1;"
     d="  M 22.184423,8.2299016   L 22.385601,8.2299016   L 22.385601,8.2112397   L 22.422179,8.2112397   L 22.422179,8.1739159   L 22.440468,8.1739159   L 22.440468,4.2175913   L 22.422179,4.2175913   L 22.422179,4.1989294   L 22.40389,4.1802675   L 22.385601,4.1802675   L 22.385601,4.1616056   L 22.184423,4.1616056   L 22.184423,8.2112397   L 22.184423,8.2299016   z "
     id="path275" />
  <path
     style="fill:#bfbfbf;fill-rule:evenodd;fill-opacity:1;stroke:#161616;stroke-width:0.018731991px;stroke-linecap:round;stroke-linejoin:round;stroke-miterlimit:4;stroke-dasharray:none;stroke-opacity:1;"
     d="  M 26.318448,8.0127262   L 26.318448,6.528888   L 26.074932,6.528888   L 26.074932,5.5272973   L 26.318448,5.5272973   L 26.318448,4.6740903   L 27.517295,4.6740903   L 27.517295,4.2289388   L 28.004327,4.2289388   L 28.004327,3.8394313   L 29.427958,3.8394313   L 29.427958,4.2289388   L 29.91499,4.2289388   L 29.91499,4.6740903   L 31.113837,4.6740903   L 31.113837,5.5272973   L 31.357353,5.5272973   L 31.357353,6.528888   L 31.113837,6.528888   L 31.113837,8.0127262   L 30.47695,8.0127262   L 30.47695,7.4377389   L 26.955335,7.4377389   L 26.955335,8.0127262   L 26.318448,8.0127262   z "
     id="path277" />
  <path
     style="fill:#d6d6b1;fill-rule:evenodd;fill-opacity:1;stroke:#000000;stroke-width:0.018731991px;stroke-linecap:round;stroke-linejoin:round;stroke-miterlimit:4;stroke-dasharray:none;stroke-opacity:1;"
     d="  M 27.236315,7.3264511   L 27.067727,7.3264511   L 27.067727,7.4191909   L 27.236315,7.4191909   L 27.236315,7.3264511   z "
     id="path279" />
  <path
     style="fill:#d6d6b1;fill-rule:evenodd;fill-opacity:1;stroke:#000000;stroke-width:0.018731991px;stroke-linecap:round;stroke-linejoin:round;stroke-miterlimit:4;stroke-dasharray:none;stroke-opacity:1;"
     d="  M 27.667151,7.3264511   L 27.498563,7.3264511   L 27.498563,7.4191909   L 27.667151,7.4191909   L 27.667151,7.3264511   z "
     id="path281" />
  <path
     style="fill:#d6d6b1;fill-rule:evenodd;fill-opacity:1;stroke:#000000;stroke-width:0.018731991px;stroke-linecap:round;stroke-linejoin:round;stroke-miterlimit:4;stroke-dasharray:none;stroke-opacity:1;"
     d="  M 28.116719,7.3264511   L 27.948131,7.3264511   L 27.948131,7.4191909   L 28.116719,7.4191909   L 28.116719,7.3264511   z "
     id="path283" />
  <path
     style="fill:#d6d6b1;fill-rule:evenodd;fill-opacity:1;stroke:#000000;stroke-width:0.018731991px;stroke-linecap:round;stroke-linejoin:round;stroke-miterlimit:4;stroke-dasharray:none;stroke-opacity:1;"
     d="  M 28.566287,7.3264511   L 28.397699,7.3264511   L 28.397699,7.4191909   L 28.566287,7.4191909   L 28.566287,7.3264511   z "
     id="path285" />
  <path
     style="fill:#d6d6b1;fill-rule:evenodd;fill-opacity:1;stroke:#000000;stroke-width:0.018731991px;stroke-linecap:round;stroke-linejoin:round;stroke-miterlimit:4;stroke-dasharray:none;stroke-opacity:1;"
     d="  M 29.015854,7.3264511   L 28.847267,7.3264511   L 28.847267,7.4191909   L 29.015854,7.4191909   L 29.015854,7.3264511   z "
     id="path287" />
  <path
     style="fill:#d6d6b1;fill-rule:evenodd;fill-opacity:1;stroke:#000000;stroke-width:0.018731991px;stroke-linecap:round;stroke-linejoin:round;stroke-miterlimit:4;stroke-dasharray:none;stroke-opacity:1;"
     d="  M 29.465422,7.3264511   L 29.296834,7.3264511   L 29.296834,7.4191909   L 29.465422,7.4191909   L 29.465422,7.3264511   z "
     id="path289" />
  <path
     style="fill:#d6d6b1;fill-rule:evenodd;fill-opacity:1;stroke:#000000;stroke-width:0.018731991px;stroke-linecap:round;stroke-linejoin:round;stroke-miterlimit:4;stroke-dasharray:none;stroke-opacity:1;"
     d="  M 29.91499,7.3264511   L 29.746402,7.3264511   L 29.746402,7.4191909   L 29.91499,7.4191909   L 29.91499,7.3264511   z "
     id="path291" />
  <path
     style="fill:#d6d6b1;fill-rule:evenodd;fill-opacity:1;stroke:#000000;stroke-width:0.018731991px;stroke-linecap:round;stroke-linejoin:round;stroke-miterlimit:4;stroke-dasharray:none;stroke-opacity:1;"
     d="  M 30.38329,7.3264511   L 30.214702,7.3264511   L 30.214702,7.4191909   L 30.38329,7.4191909   L 30.38329,7.3264511   z "
     id="path293" />
  <path
     style="fill:#bfbfbf;fill-rule:evenodd;fill-opacity:1;stroke:#161616;stroke-width:0.018731991px;stroke-linecap:round;stroke-linejoin:round;stroke-miterlimit:4;stroke-dasharray:none;stroke-opacity:1;"
     d="  M 31.863117,8.0127262   L 31.863117,6.528888   L 31.619601,6.528888   L 31.619601,5.5272973   L 31.863117,5.5272973   L 31.863117,4.6740903   L 33.061965,4.6740903   L 33.061965,4.2289388   L 33.548996,4.2289388   L 33.548996,3.8394313   L 34.972628,3.8394313   L 34.972628,4.2289388   L 35.459659,4.2289388   L 35.459659,4.6740903   L 36.658507,4.6740903   L 36.658507,5.5272973   L 36.902023,5.5272973   L 36.902023,6.528888   L 36.658507,6.528888   L 36.658507,8.0127262   L 36.021619,8.0127262   L 36.021619,7.4377389   L 32.500005,7.4377389   L 32.500005,8.0127262   L 31.863117,8.0127262   z "
     id="path295" />
  <path
     style="fill:#d6d6b1;fill-rule:evenodd;fill-opacity:1;stroke:#000000;stroke-width:0.018731991px;stroke-linecap:round;stroke-linejoin:round;stroke-miterlimit:4;stroke-dasharray:none;stroke-opacity:1;"
     d="  M 32.780985,7.3264511   L 32.612397,7.3264511   L 32.612397,7.4191909   L 32.780985,7.4191909   L 32.780985,7.3264511   z "
     id="path297" />
  <path
     style="fill:#d6d6b1;fill-rule:evenodd;fill-opacity:1;stroke:#000000;stroke-width:0.018731991px;stroke-linecap:round;stroke-linejoin:round;stroke-miterlimit:4;stroke-dasharray:none;stroke-opacity:1;"
     d="  M 33.211821,7.3264511   L 33.043233,7.3264511   L 33.043233,7.4191909   L 33.211821,7.4191909   L 33.211821,7.3264511   z "
     id="path299" />
  <path
     style="fill:#d6d6b1;fill-rule:evenodd;fill-opacity:1;stroke:#000000;stroke-width:0.018731991px;stroke-linecap:round;stroke-linejoin:round;stroke-miterlimit:4;stroke-dasharray:none;stroke-opacity:1;"
     d="  M 33.661388,7.3264511   L 33.4928,7.3264511   L 33.4928,7.4191909   L 33.661388,7.4191909   L 33.661388,7.3264511   z "
     id="path301" />
  <path
     style="fill:#d6d6b1;fill-rule:evenodd;fill-opacity:1;stroke:#000000;stroke-width:0.018731991px;stroke-linecap:round;stroke-linejoin:round;stroke-miterlimit:4;stroke-dasharray:none;stroke-opacity:1;"
     d="  M 34.110956,7.3264511   L 33.942368,7.3264511   L 33.942368,7.4191909   L 34.110956,7.4191909   L 34.110956,7.3264511   z "
     id="path303" />
  <path
     style="fill:#d6d6b1;fill-rule:evenodd;fill-opacity:1;stroke:#000000;stroke-width:0.018731991px;stroke-linecap:round;stroke-linejoin:round;stroke-miterlimit:4;stroke-dasharray:none;stroke-opacity:1;"
     d="  M 34.560524,7.3264511   L 34.391936,7.3264511   L 34.391936,7.4191909   L 34.560524,7.4191909   L 34.560524,7.3264511   z "
     id="path305" />
  <path
     style="fill:#d6d6b1;fill-rule:evenodd;fill-opacity:1;stroke:#000000;stroke-width:0.018731991px;stroke-linecap:round;stroke-linejoin:round;stroke-miterlimit:4;stroke-dasharray:none;stroke-opacity:1;"
     d="  M 35.010092,7.3264511   L 34.841504,7.3264511   L 34.841504,7.4191909   L 35.010092,7.4191909   L 35.010092,7.3264511   z "
     id="path307" />
  <path
     style="fill:#d6d6b1;fill-rule:evenodd;fill-opacity:1;stroke:#000000;stroke-width:0.018731991px;stroke-linecap:round;stroke-linejoin:round;stroke-miterlimit:4;stroke-dasharray:none;stroke-opacity:1;"
     d="  M 35.459659,7.3264511   L 35.291072,7.3264511   L 35.291072,7.4191909   L 35.459659,7.4191909   L 35.459659,7.3264511   z "
     id="path309" />
  <path
     style="fill:#d6d6b1;fill-rule:evenodd;fill-opacity:1;stroke:#000000;stroke-width:0.018731991px;stroke-linecap:round;stroke-linejoin:round;stroke-miterlimit:4;stroke-dasharray:none;stroke-opacity:1;"
     d="  M 35.927959,7.3264511   L 35.759371,7.3264511   L 35.759371,7.4191909   L 35.927959,7.4191909   L 35.927959,7.3264511   z "
     id="path311" />
  <path
     style="fill:#bfbfbf;fill-rule:evenodd;fill-opacity:1;stroke:#161616;stroke-width:0.018731991px;stroke-linecap:round;stroke-linejoin:round;stroke-miterlimit:4;stroke-dasharray:none;stroke-opacity:1;"
     d="  M 37.407787,8.0127262   L 37.407787,6.528888   L 37.164271,6.528888   L 37.164271,5.5272973   L 37.407787,5.5272973   L 37.407787,4.6740903   L 38.606634,4.6740903   L 38.606634,4.2289388   L 39.093666,4.2289388   L 39.093666,3.8394313   L 40.517297,3.8394313   L 40.517297,4.2289388   L 41.004329,4.2289388   L 41.004329,4.6740903   L 42.203176,4.6740903   L 42.203176,5.5272973   L 42.446692,5.5272973   L 42.446692,6.528888   L 42.203176,6.528888   L 42.203176,8.0127262   L 41.566289,8.0127262   L 41.566289,7.4377389   L 38.044674,7.4377389   L 38.044674,8.0127262   L 37.407787,8.0127262   z "
     id="path313" />
  <path
     style="fill:#d6d6b1;fill-rule:evenodd;fill-opacity:1;stroke:#000000;stroke-width:0.018731991px;stroke-linecap:round;stroke-linejoin:round;stroke-miterlimit:4;stroke-dasharray:none;stroke-opacity:1;"
     d="  M 38.325654,7.3264511   L 38.157066,7.3264511   L 38.157066,7.4191909   L 38.325654,7.4191909   L 38.325654,7.3264511   z "
     id="path315" />
  <path
     style="fill:#d6d6b1;fill-rule:evenodd;fill-opacity:1;stroke:#000000;stroke-width:0.018731991px;stroke-linecap:round;stroke-linejoin:round;stroke-miterlimit:4;stroke-dasharray:none;stroke-opacity:1;"
     d="  M 38.75649,7.3264511   L 38.587902,7.3264511   L 38.587902,7.4191909   L 38.75649,7.4191909   L 38.75649,7.3264511   z "
     id="path317" />
  <path
     style="fill:#d6d6b1;fill-rule:evenodd;fill-opacity:1;stroke:#000000;stroke-width:0.018731991px;stroke-linecap:round;stroke-linejoin:round;stroke-miterlimit:4;stroke-dasharray:none;stroke-opacity:1;"
     d="  M 39.206058,7.3264511   L 39.03747,7.3264511   L 39.03747,7.4191909   L 39.206058,7.4191909   L 39.206058,7.3264511   z "
     id="path319" />
  <path
     style="fill:#d6d6b1;fill-rule:evenodd;fill-opacity:1;stroke:#000000;stroke-width:0.018731991px;stroke-linecap:round;stroke-linejoin:round;stroke-miterlimit:4;stroke-dasharray:none;stroke-opacity:1;"
     d="  M 39.655625,7.3264511   L 39.487038,7.3264511   L 39.487038,7.4191909   L 39.655625,7.4191909   L 39.655625,7.3264511   z "
     id="path321" />
  <path
     style="fill:#d6d6b1;fill-rule:evenodd;fill-opacity:1;stroke:#000000;stroke-width:0.018731991px;stroke-linecap:round;stroke-linejoin:round;stroke-miterlimit:4;stroke-dasharray:none;stroke-opacity:1;"
     d="  M 40.105193,7.3264511   L 39.936605,7.3264511   L 39.936605,7.4191909   L 40.105193,7.4191909   L 40.105193,7.3264511   z "
     id="path323" />
  <path
     style="fill:#d6d6b1;fill-rule:evenodd;fill-opacity:1;stroke:#000000;stroke-width:0.018731991px;stroke-linecap:round;stroke-linejoin:round;stroke-miterlimit:4;stroke-dasharray:none;stroke-opacity:1;"
     d="  M 40.554761,7.3264511   L 40.386173,7.3264511   L 40.386173,7.4191909   L 40.554761,7.4191909   L 40.554761,7.3264511   z "
     id="path325" />
  <path
     style="fill:#d6d6b1;fill-rule:evenodd;fill-opacity:1;stroke:#000000;stroke-width:0.018731991px;stroke-linecap:round;stroke-linejoin:round;stroke-miterlimit:4;stroke-dasharray:none;stroke-opacity:1;"
     d="  M 41.004329,7.3264511   L 40.835741,7.3264511   L 40.835741,7.4191909   L 41.004329,7.4191909   L 41.004329,7.3264511   z "
     id="path327" />
  <path
     style="fill:#d6d6b1;fill-rule:evenodd;fill-opacity:1;stroke:#000000;stroke-width:0.018731991px;stroke-linecap:round;stroke-linejoin:round;stroke-miterlimit:4;stroke-dasharray:none;stroke-opacity:1;"
     d="  M 41.472629,7.3264511   L 41.304041,7.3264511   L 41.304041,7.4191909   L 41.472629,7.4191909   L 41.472629,7.3264511   z "
     id="path329" />
  <path
     style="fill:#bfbfbf;fill-rule:evenodd;fill-opacity:1;stroke:#161616;stroke-width:0.018731991px;stroke-linecap:round;stroke-linejoin:round;stroke-miterlimit:4;stroke-dasharray:none;stroke-opacity:1;"
     d="  M 42.952456,8.0127262   L 42.952456,6.528888   L 42.70894,6.528888   L 42.70894,5.5272973   L 42.952456,5.5272973   L 42.952456,4.6740903   L 44.151303,4.6740903   L 44.151303,4.2289388   L 44.638335,4.2289388   L 44.638335,3.8394313   L 46.061967,3.8394313   L 46.061967,4.2289388   L 46.548998,4.2289388   L 46.548998,4.6740903   L 47.747846,4.6740903   L 47.747846,5.5272973   L 47.991362,5.5272973   L 47.991362,6.528888   L 47.747846,6.528888   L 47.747846,8.0127262   L 47.110958,8.0127262   L 47.110958,7.4377389   L 43.589344,7.4377389   L 43.589344,8.0127262   L 42.952456,8.0127262   z "
     id="path331" />
  <path
     style="fill:#d6d6b1;fill-rule:evenodd;fill-opacity:1;stroke:#000000;stroke-width:0.018731991px;stroke-linecap:round;stroke-linejoin:round;stroke-miterlimit:4;stroke-dasharray:none;stroke-opacity:1;"
     d="  M 43.870324,7.3264511   L 43.701736,7.3264511   L 43.701736,7.4191909   L 43.870324,7.4191909   L 43.870324,7.3264511   z "
     id="path333" />
  <path
     style="fill:#d6d6b1;fill-rule:evenodd;fill-opacity:1;stroke:#000000;stroke-width:0.018731991px;stroke-linecap:round;stroke-linejoin:round;stroke-miterlimit:4;stroke-dasharray:none;stroke-opacity:1;"
     d="  M 44.301159,7.3264511   L 44.132571,7.3264511   L 44.132571,7.4191909   L 44.301159,7.4191909   L 44.301159,7.3264511   z "
     id="path335" />
  <path
     style="fill:#d6d6b1;fill-rule:evenodd;fill-opacity:1;stroke:#000000;stroke-width:0.018731991px;stroke-linecap:round;stroke-linejoin:round;stroke-miterlimit:4;stroke-dasharray:none;stroke-opacity:1;"
     d="  M 44.750727,7.3264511   L 44.582139,7.3264511   L 44.582139,7.4191909   L 44.750727,7.4191909   L 44.750727,7.3264511   z "
     id="path337" />
  <path
     style="fill:#d6d6b1;fill-rule:evenodd;fill-opacity:1;stroke:#000000;stroke-width:0.018731991px;stroke-linecap:round;stroke-linejoin:round;stroke-miterlimit:4;stroke-dasharray:none;stroke-opacity:1;"
     d="  M 45.200295,7.3264511   L 45.031707,7.3264511   L 45.031707,7.4191909   L 45.200295,7.4191909   L 45.200295,7.3264511   z "
     id="path339" />
  <path
     style="fill:#d6d6b1;fill-rule:evenodd;fill-opacity:1;stroke:#000000;stroke-width:0.018731991px;stroke-linecap:round;stroke-linejoin:round;stroke-miterlimit:4;stroke-dasharray:none;stroke-opacity:1;"
     d="  M 45.649863,7.3264511   L 45.481275,7.3264511   L 45.481275,7.4191909   L 45.649863,7.4191909   L 45.649863,7.3264511   z "
     id="path341" />
  <path
     style="fill:#d6d6b1;fill-rule:evenodd;fill-opacity:1;stroke:#000000;stroke-width:0.018731991px;stroke-linecap:round;stroke-linejoin:round;stroke-miterlimit:4;stroke-dasharray:none;stroke-opacity:1;"
     d="  M 46.09943,7.3264511   L 45.930843,7.3264511   L 45.930843,7.4191909   L 46.09943,7.4191909   L 46.09943,7.3264511   z "
     id="path343" />
  <path
     style="fill:#d6d6b1;fill-rule:evenodd;fill-opacity:1;stroke:#000000;stroke-width:0.018731991px;stroke-linecap:round;stroke-linejoin:round;stroke-miterlimit:4;stroke-dasharray:none;stroke-opacity:1;"
     d="  M 46.548998,7.3264511   L 46.38041,7.3264511   L 46.38041,7.4191909   L 46.548998,7.4191909   L 46.548998,7.3264511   z "
     id="path345" />
  <path
     style="fill:#d6d6b1;fill-rule:evenodd;fill-opacity:1;stroke:#000000;stroke-width:0.018731991px;stroke-linecap:round;stroke-linejoin:round;stroke-miterlimit:4;stroke-dasharray:none;stroke-opacity:1;"
     d="  M 47.017298,7.3264511   L 46.84871,7.3264511   L 46.84871,7.4191909   L 47.017298,7.4191909   L 47.017298,7.3264511   z "
     id="path347" />
  <path
     style="fill:#bfbfbf;fill-rule:evenodd;fill-opacity:1;stroke:#161616;stroke-width:0.018731991px;stroke-linecap:round;stroke-linejoin:round;stroke-miterlimit:4;stroke-dasharray:none;stroke-opacity:1;"
     d="  M 48.497125,8.0127262   L 48.497125,6.528888   L 48.253609,6.528888   L 48.253609,5.5272973   L 48.497125,5.5272973   L 48.497125,4.6740903   L 49.695973,4.6740903   L 49.695973,4.2289388   L 50.183005,4.2289388   L 50.183005,3.8394313   L 51.606636,3.8394313   L 51.606636,4.2289388   L 52.093668,4.2289388   L 52.093668,4.6740903   L 53.292515,4.6740903   L 53.292515,5.5272973   L 53.536031,5.5272973   L 53.536031,6.528888   L 53.292515,6.528888   L 53.292515,8.0127262   L 52.655627,8.0127262   L 52.655627,7.4377389   L 49.134013,7.4377389   L 49.134013,8.0127262   L 48.497125,8.0127262   z "
     id="path349" />
  <path
     style="fill:#d6d6b1;fill-rule:evenodd;fill-opacity:1;stroke:#000000;stroke-width:0.018731991px;stroke-linecap:round;stroke-linejoin:round;stroke-miterlimit:4;stroke-dasharray:none;stroke-opacity:1;"
     d="  M 49.414993,7.3264511   L 49.246405,7.3264511   L 49.246405,7.4191909   L 49.414993,7.4191909   L 49.414993,7.3264511   z "
     id="path351" />
  <path
     style="fill:#d6d6b1;fill-rule:evenodd;fill-opacity:1;stroke:#000000;stroke-width:0.018731991px;stroke-linecap:round;stroke-linejoin:round;stroke-miterlimit:4;stroke-dasharray:none;stroke-opacity:1;"
     d="  M 49.845829,7.3264511   L 49.677241,7.3264511   L 49.677241,7.4191909   L 49.845829,7.4191909   L 49.845829,7.3264511   z "
     id="path353" />
  <path
     style="fill:#d6d6b1;fill-rule:evenodd;fill-opacity:1;stroke:#000000;stroke-width:0.018731991px;stroke-linecap:round;stroke-linejoin:round;stroke-miterlimit:4;stroke-dasharray:none;stroke-opacity:1;"
     d="  M 50.295397,7.3264511   L 50.126809,7.3264511   L 50.126809,7.4191909   L 50.295397,7.4191909   L 50.295397,7.3264511   z "
     id="path355" />
  <path
     style="fill:#d6d6b1;fill-rule:evenodd;fill-opacity:1;stroke:#000000;stroke-width:0.018731991px;stroke-linecap:round;stroke-linejoin:round;stroke-miterlimit:4;stroke-dasharray:none;stroke-opacity:1;"
     d="  M 50.744964,7.3264511   L 50.576376,7.3264511   L 50.576376,7.4191909   L 50.744964,7.4191909   L 50.744964,7.3264511   z "
     id="path357" />
  <path
     style="fill:#d6d6b1;fill-rule:evenodd;fill-opacity:1;stroke:#000000;stroke-width:0.018731991px;stroke-linecap:round;stroke-linejoin:round;stroke-miterlimit:4;stroke-dasharray:none;stroke-opacity:1;"
     d="  M 51.194532,7.3264511   L 51.025944,7.3264511   L 51.025944,7.4191909   L 51.194532,7.4191909   L 51.194532,7.3264511   z "
     id="path359" />
  <path
     style="fill:#d6d6b1;fill-rule:evenodd;fill-opacity:1;stroke:#000000;stroke-width:0.018731991px;stroke-linecap:round;stroke-linejoin:round;stroke-miterlimit:4;stroke-dasharray:none;stroke-opacity:1;"
     d="  M 51.6441,7.3264511   L 51.475512,7.3264511   L 51.475512,7.4191909   L 51.6441,7.4191909   L 51.6441,7.3264511   z "
     id="path361" />
  <path
     style="fill:#d6d6b1;fill-rule:evenodd;fill-opacity:1;stroke:#000000;stroke-width:0.018731991px;stroke-linecap:round;stroke-linejoin:round;stroke-miterlimit:4;stroke-dasharray:none;stroke-opacity:1;"
     d="  M 52.093668,7.3264511   L 51.92508,7.3264511   L 51.92508,7.4191909   L 52.093668,7.4191909   L 52.093668,7.3264511   z "
     id="path363" />
  <path
     style="fill:#d6d6b1;fill-rule:evenodd;fill-opacity:1;stroke:#000000;stroke-width:0.018731991px;stroke-linecap:round;stroke-linejoin:round;stroke-miterlimit:4;stroke-dasharray:none;stroke-opacity:1;"
     d="  M 52.561967,7.3264511   L 52.39338,7.3264511   L 52.39338,7.4191909   L 52.561967,7.4191909   L 52.561967,7.3264511   z "
     id="path365" />
  <ellipse
     style="fill:#000000;fill-rule:evenodd;fill-opacity:1;stroke:#000000;stroke-width:0.015189413px;stroke-linecap:round;stroke-linejoin:round;stroke-miterlimit:4;stroke-dasharray:none;stroke-opacity:1;"
     cx="55.874254"
     cy="6.2926757"
     rx="1.0252854"
     ry="1.0328801"
     id="ellipse367" />
  <ellipse
     style="fill:none;stroke:#000000;stroke-width:0.015189413px;stroke-linecap:round;stroke-linejoin:round;stroke-miterlimit:4;stroke-dasharray:none;stroke-opacity:1;"
     cx="55.874254"
     cy="6.2926757"
     rx="1.0252854"
     ry="1.0328801"
     id="ellipse369" />
  <ellipse
     style="fill:#dddddd;fill-rule:evenodd;fill-opacity:1;stroke:#000000;stroke-width:0.015189413px;stroke-linecap:round;stroke-linejoin:round;stroke-miterlimit:4;stroke-dasharray:none;stroke-opacity:1;"
     cx="55.881849"
     cy="6.2850575"
     rx="0.37973532"
     ry="0.37214061"
     id="ellipse371" />
  <ellipse
     style="fill:none;stroke:#000000;stroke-width:0.015189413px;stroke-linecap:round;stroke-linejoin:round;stroke-miterlimit:4;stroke-dasharray:none;stroke-opacity:1;"
     cx="55.881849"
     cy="6.2850575"
     rx="0.37973532"
     ry="0.37214061"
     id="ellipse373" />
  <ellipse
     style="fill:#000000;fill-rule:evenodd;fill-opacity:1;stroke:#000000;stroke-width:0.015189413px;stroke-linecap:round;stroke-linejoin:round;stroke-miterlimit:4;stroke-dasharray:none;stroke-opacity:1;"
     cx="55.874254"
     cy="6.2926757"
     rx="0.25062531"
     ry="0.25822001"
     id="ellipse375" />
  <ellipse
     style="fill:none;stroke:#000000;stroke-width:0.015189413px;stroke-linecap:round;stroke-linejoin:round;stroke-miterlimit:4;stroke-dasharray:none;stroke-opacity:1;"
     cx="55.874254"
     cy="6.2926757"
     rx="0.25062531"
     ry="0.25822001"
     id="ellipse377" />
  <ellipse
     style="fill:#dddddd;fill-rule:evenodd;fill-opacity:1;stroke:#000000;stroke-width:0.015189413px;stroke-linecap:round;stroke-linejoin:round;stroke-miterlimit:4;stroke-dasharray:none;stroke-opacity:1;"
     cx="55.874254"
     cy="6.2926757"
     rx="0.22024648"
     ry="0.22784119"
     id="ellipse379" />
  <ellipse
     style="fill:none;stroke:#000000;stroke-width:0.015189413px;stroke-linecap:round;stroke-linejoin:round;stroke-miterlimit:4;stroke-dasharray:none;stroke-opacity:1;"
     cx="55.874254"
     cy="6.2926757"
     rx="0.22024648"
     ry="0.22784119"
     id="ellipse381" />
</svg>
