<?xml version="1.0" encoding="UTF-8" standalone="no"?>
<svg
   version="1.0"
   width="19mm"
   height="4.8499999mm"
   id="svg359"
   xmlns="http://www.w3.org/2000/svg"
   xmlns:svg="http://www.w3.org/2000/svg">
  <defs
     id="defs3">
    <pattern
       id="EMFhbasepattern"
       patternUnits="userSpaceOnUse"
       width="6"
       height="6"
       x="0"
       y="0" />
  </defs>
  <path
     style="fill:#998746;fill-rule:evenodd;fill-opacity:1;stroke:#000000;stroke-width:0.01870407px;stroke-linecap:round;stroke-linejoin:round;stroke-miterlimit:4;stroke-dasharray:none;stroke-opacity:1;"
     d="  M 16.482918,13.431701   M 20.950497,9.3451559   M 23.179273,9.3451559   M 68.756157,6.5244711   L 67.970586,6.5244711   L 67.970586,10.585813   L 68.756157,10.585813   L 68.756157,6.5244711   z "
     id="path5" />
  <path
     style="fill:#998746;fill-rule:evenodd;fill-opacity:1;stroke:#000000;stroke-width:0.01870407px;stroke-linecap:round;stroke-linejoin:round;stroke-miterlimit:4;stroke-dasharray:none;stroke-opacity:1;"
     d="  M 68.756157,6.9757314   L 69.429504,6.9757314   L 69.429504,10.134553   L 68.756157,10.134553   L 68.756157,6.9757314   z "
     id="path7" />
  <path
     style="fill:#998746;fill-rule:evenodd;fill-opacity:1;stroke:#000000;stroke-width:0.01870407px;stroke-linecap:round;stroke-linejoin:round;stroke-miterlimit:4;stroke-dasharray:none;stroke-opacity:1;"
     d="  M 71.599176,7.2765716   L 69.429504,7.2765716   L 69.429504,9.833713   L 71.599176,9.833713   L 71.599176,7.2765716   z "
     id="path9" />
  <path
     style="fill:#af9e56;fill-rule:evenodd;fill-opacity:1;stroke:#af9e56;stroke-width:0.01870407px;stroke-linecap:round;stroke-linejoin:round;stroke-miterlimit:4;stroke-dasharray:none;stroke-opacity:1;"
     d="  M 68.756157,7.1261515   L 67.970586,7.1261515   L 67.970586,9.9841331   L 68.756157,9.9841331   L 68.756157,7.1261515   z "
     id="path11" />
  <path
     style="fill:#af9e56;fill-rule:evenodd;fill-opacity:1;stroke:#af9e56;stroke-width:0.01870407px;stroke-linecap:round;stroke-linejoin:round;stroke-miterlimit:4;stroke-dasharray:none;stroke-opacity:1;"
     d="  M 68.756157,7.4457941   L 69.429504,7.4457941   L 69.429504,9.6644904   L 68.756157,9.6644904   L 68.756157,7.4457941   z "
     id="path13" />
  <path
     style="fill:#af9e56;fill-rule:evenodd;fill-opacity:1;stroke:#af9e56;stroke-width:0.01870407px;stroke-linecap:round;stroke-linejoin:round;stroke-miterlimit:4;stroke-dasharray:none;stroke-opacity:1;"
     d="  M 71.599176,7.6526218   L 69.429504,7.6526218   L 69.429504,9.4576628   L 71.599176,9.4576628   L 71.599176,7.6526218   z "
     id="path15" />
  <path
     style="fill:#bcad74;fill-rule:evenodd;fill-opacity:1;stroke:#bcad74;stroke-width:0.01870407px;stroke-linecap:round;stroke-linejoin:round;stroke-miterlimit:4;stroke-dasharray:none;stroke-opacity:1;"
     d="  M 68.756157,7.8406469   L 67.970586,7.8406469   L 67.970586,9.2696377   L 68.756157,9.2696377   L 68.756157,7.8406469   z "
     id="path17" />
  <path
     style="fill:#bcad74;fill-rule:evenodd;fill-opacity:1;stroke:#bcad74;stroke-width:0.01870407px;stroke-linecap:round;stroke-linejoin:round;stroke-miterlimit:4;stroke-dasharray:none;stroke-opacity:1;"
     d="  M 68.756157,7.9910669   L 69.429504,7.9910669   L 69.429504,9.1192176   L 68.756157,9.1192176   L 68.756157,7.9910669   z "
     id="path19" />
  <path
     style="fill:#bcad74;fill-rule:evenodd;fill-opacity:1;stroke:#bcad74;stroke-width:0.01870407px;stroke-linecap:round;stroke-linejoin:round;stroke-miterlimit:4;stroke-dasharray:none;stroke-opacity:1;"
     d="  M 71.599176,8.103882   L 69.429504,8.103882   L 69.429504,9.0064025   L 71.599176,9.0064025   L 71.599176,8.103882   z "
     id="path21" />
  <path
     style="fill:none;stroke:#000000;stroke-width:0.01870407px;stroke-linecap:round;stroke-linejoin:round;stroke-miterlimit:4;stroke-dasharray:none;stroke-opacity:1;"
     d="  M 68.756157,6.9757314   L 69.429504,6.9757314   L 69.429504,10.134553   L 68.756157,10.134553   L 68.756157,6.9757314   z "
     id="path23" />
  <path
     style="fill:none;stroke:#000000;stroke-width:0.01870407px;stroke-linecap:round;stroke-linejoin:round;stroke-miterlimit:4;stroke-dasharray:none;stroke-opacity:1;"
     d="  M 71.599176,7.2765716   L 69.429504,7.2765716   L 69.429504,9.833713   L 71.599176,9.833713   L 71.599176,7.2765716   z "
     id="path25" />
  <path
     style="fill:none;stroke:#000000;stroke-width:0.01870407px;stroke-linecap:round;stroke-linejoin:round;stroke-miterlimit:4;stroke-dasharray:none;stroke-opacity:1;"
     d="  M 68.756157,6.5244711   L 67.970586,6.5244711   L 67.970586,10.585813   L 68.756157,10.585813   L 68.756157,6.5244711   z "
     id="path27" />
  <path
     style="fill:#efefef;fill-rule:evenodd;fill-opacity:1;stroke:#000000;stroke-width:0.01870407px;stroke-linecap:round;stroke-linejoin:round;stroke-miterlimit:4;stroke-dasharray:none;stroke-opacity:1;"
     d="  M 67.970586,2.4067213   L 67.951882,2.4067213   L 67.914474,2.3879188   L 67.858362,2.3691163   L 67.764842,2.3503138   L 67.652617,2.3315113   L 67.521689,2.2939063   L 67.372056,2.2563013   L 67.20372,2.2186962   L 67.016679,2.1622887   L 66.810934,2.1246837   L 66.605189,2.0682762   L 66.362036,2.0118686   L 66.118884,1.9366586   L 65.59517,1.8238435   L 65.034048,1.6734234   L 63.836987,1.3725833   L 63.201049,1.2221632   L 62.901784,1.1469531   L 62.583815,1.0717431   L 62.284549,0.99653305   L 61.96658,0.92132301   L 61.667315,0.84611297   L 61.386754,0.77090293   L 61.087489,0.69569289   L 60.806928,0.63928536   L 60.545071,0.56407531   L 60.432847,0.5452728   L 60.301918,0.50766778   L 60.189694,0.48886527   L 60.058765,0.45126025   L 59.927837,0.43245774   L 59.796908,0.39485272   L 59.404123,0.33844519   L 59.273194,0.30084017   L 59.123562,0.28203766   L 58.861705,0.24443264   L 58.712072,0.22563013   L 58.581144,0.20682762   L 58.431511,0.1880251   L 58.300583,0.16922259   L 58.15095,0.15042008   L 58.020022,0.13161757   L 57.870389,0.13161757   L 57.739461,0.11281506   L 57.589828,0.094012552   L 57.4589,0.094012552   L 57.309267,0.075210042   L 57.178339,0.075210042   L 57.04741,0.056407531   L 56.766849,0.056407531   L 56.635921,0.037605021   L 11.372074,0.037605021   L 11.241145,0.056407531   L 10.960584,0.056407531   L 10.829656,0.075210042   L 10.698727,0.075210042   L 10.549095,0.094012552   L 10.418166,0.094012552   L 10.268534,0.11281506   L 10.137605,0.13161757   L 9.9879728,0.13161757   L 9.8570443,0.15042008   L 9.7074118,0.16922259   L 9.5764833,0.1880251   L 9.4268507,0.20682762   L 9.2959222,0.22563013   L 9.1462897,0.24443264   L 8.8844327,0.28203766   L 8.7348002,0.30084017   L 8.6038717,0.33844519   L 8.2110862,0.39485272   L 8.0801578,0.43245774   L 7.9492293,0.45126025   L 7.8183008,0.48886527   L 7.7060764,0.50766778   L 7.5751479,0.5452728   L 7.4629235,0.56407531   L 7.2010665,0.63928536   L 6.9205055,0.69569289   L 6.6212404,0.77090293   L 6.3406794,0.84611297   L 6.0414143,0.92132301   L 5.7234451,0.99653305   L 5.42418,1.0717431   L 5.1062108,1.1469531   L 4.8069457,1.2221632   L 4.1710074,1.3725833   L 2.973947,1.6734234   L 2.4128249,1.8238435   L 1.889111,1.9366586   L 1.6459581,2.0118686   L 1.4028052,2.0682762   L 1.1970604,2.1246837   L 0.99131565,2.1622887   L 0.80427496,2.2186962   L 0.63593834,2.2563013   L 0.48630579,2.2939063   L 0.35537731,2.3315113   L 0.2431529,2.3503138   L 0.14963255,2.3691163   L 0.093520345,2.3879188   L 0.056112207,2.4067213   L 0.037408138,2.4067213   L 0.037408138,14.30871   L 0.056112207,14.30871   L 0.093520345,14.346315   L 0.14963255,14.383921   L 0.2431529,14.421526   L 0.35537731,14.496736   L 0.48630579,14.571946   L 0.63593834,14.647156   L 0.80427496,14.741168   L 1.1783563,14.966798   L 1.5898459,15.192428   L 2.4876412,15.718899   L 2.71209,15.831714   L 3.3854365,16.226567   L 3.796926,16.452197   L 4.1710074,16.677827   L 4.339344,16.771839   L 4.4889765,16.847049   L 4.619905,16.922259   L 4.7321294,16.997469   L 4.8256498,17.035074   L 4.881762,17.07268   L 4.9191701,17.110285   L 63.088824,17.110285   L 63.126233,17.07268   L 63.182345,17.035074   L 63.275865,16.997469   L 63.38809,16.922259   L 63.519018,16.847049   L 63.668651,16.771839   L 63.836987,16.677827   L 64.211069,16.452197   L 64.622558,16.226567   L 65.295905,15.831714   L 65.520353,15.718899   L 66.418149,15.192428   L 66.829638,14.966798   L 67.20372,14.741168   L 67.372056,14.647156   L 67.521689,14.571946   L 67.652617,14.496736   L 67.764842,14.421526   L 67.858362,14.383921   L 67.914474,14.346315   L 67.951882,14.30871   L 67.970586,14.30871   L 67.970586,2.4443264   L 67.970586,2.4067213   z "
     id="path29" />
  <path
     style="fill:#7f7f7f;fill-rule:evenodd;fill-opacity:1;stroke:#000000;stroke-width:0.093520343px;stroke-linecap:round;stroke-linejoin:round;stroke-miterlimit:4;stroke-dasharray:none;stroke-opacity:1;"
     d="  M 15.150296,17.110285   L 6.7334648,17.110285   L 6.7334648,18.313645   L 15.150296,18.313645   L 15.150296,17.110285   z "
     id="path31" />
  <path
     style="fill:#7f7f7f;fill-rule:evenodd;fill-opacity:1;stroke:#000000;stroke-width:0.093520343px;stroke-linecap:round;stroke-linejoin:round;stroke-miterlimit:4;stroke-dasharray:none;stroke-opacity:1;"
     d="  M 61.27453,17.110285   L 52.857699,17.110285   L 52.857699,18.313645   L 61.27453,18.313645   L 61.27453,17.110285   z "
     id="path33" />
  <path
     style="fill:#eaeaea;fill-rule:evenodd;fill-opacity:1;stroke:#eaeaea;stroke-width:0.01870407px;stroke-linecap:round;stroke-linejoin:round;stroke-miterlimit:4;stroke-dasharray:none;stroke-opacity:1;"
     d="  M 2.992651,2.4067213   L 0.037408138,2.4067213   L 0.037408138,14.30871   L 2.992651,14.30871   L 2.992651,2.4067213   z "
     id="path35" />
  <path
     style="fill:#e2e2e2;fill-rule:evenodd;fill-opacity:1;stroke:#e2e2e2;stroke-width:0.01870407px;stroke-linecap:round;stroke-linejoin:round;stroke-miterlimit:4;stroke-dasharray:none;stroke-opacity:1;"
     d="  M 2.2257842,2.4067213   L 0.037408138,2.4067213   L 0.037408138,14.30871   L 2.2257842,14.30871   L 2.2257842,2.4067213   z "
     id="path37" />
  <path
     style="fill:#dddddd;fill-rule:evenodd;fill-opacity:1;stroke:#dddddd;stroke-width:0.01870407px;stroke-linecap:round;stroke-linejoin:round;stroke-miterlimit:4;stroke-dasharray:none;stroke-opacity:1;"
     d="  M 1.4028052,2.4067213   L 0.037408138,2.4067213   L 0.037408138,14.30871   L 1.4028052,14.30871   L 1.4028052,2.4067213   z "
     id="path39" />
  <path
     style="fill:#d8d8d8;fill-rule:evenodd;fill-opacity:1;stroke:#d8d8d8;stroke-width:0.01870407px;stroke-linecap:round;stroke-linejoin:round;stroke-miterlimit:4;stroke-dasharray:none;stroke-opacity:1;"
     d="  M 0.67334648,2.4067213   L 0.037408138,2.4067213   L 0.037408138,14.30871   L 0.67334648,14.30871   L 0.67334648,2.4067213   z "
     id="path41" />
  <path
     style="fill:#eaeaea;fill-rule:evenodd;fill-opacity:1;stroke:#eaeaea;stroke-width:0.01870407px;stroke-linecap:round;stroke-linejoin:round;stroke-miterlimit:4;stroke-dasharray:none;stroke-opacity:1;"
     d="  M 67.970586,2.4067213   L 65.015343,2.4067213   L 65.015343,14.30871   L 67.970586,14.30871   L 67.970586,2.4067213   z "
     id="path43" />
  <path
     style="fill:#e2e2e2;fill-rule:evenodd;fill-opacity:1;stroke:#e2e2e2;stroke-width:0.01870407px;stroke-linecap:round;stroke-linejoin:round;stroke-miterlimit:4;stroke-dasharray:none;stroke-opacity:1;"
     d="  M 67.970586,2.4067213   L 65.78221,2.4067213   L 65.78221,14.30871   L 67.970586,14.30871   L 67.970586,2.4067213   z "
     id="path45" />
  <path
     style="fill:#dddddd;fill-rule:evenodd;fill-opacity:1;stroke:#dddddd;stroke-width:0.01870407px;stroke-linecap:round;stroke-linejoin:round;stroke-miterlimit:4;stroke-dasharray:none;stroke-opacity:1;"
     d="  M 67.970586,2.4067213   L 66.605189,2.4067213   L 66.605189,14.30871   L 67.970586,14.30871   L 67.970586,2.4067213   z "
     id="path47" />
  <path
     style="fill:#d8d8d8;fill-rule:evenodd;fill-opacity:1;stroke:#d8d8d8;stroke-width:0.01870407px;stroke-linecap:round;stroke-linejoin:round;stroke-miterlimit:4;stroke-dasharray:none;stroke-opacity:1;"
     d="  M 67.970586,2.4067213   L 67.334648,2.4067213   L 67.334648,14.30871   L 67.970586,14.30871   L 67.970586,2.4067213   z "
     id="path49" />
  <path
     style="fill:#eaeaea;fill-rule:evenodd;fill-opacity:1;stroke:#000000;stroke-width:0.01870407px;stroke-linecap:round;stroke-linejoin:round;stroke-miterlimit:4;stroke-dasharray:none;stroke-opacity:1;"
     d="  M 67.970586,2.4067213   L 67.951882,2.4067213   L 67.914474,2.3879188   L 67.858362,2.3691163   L 67.764842,2.3503138   L 67.652617,2.3315113   L 67.521689,2.2939063   L 67.372056,2.2563013   L 67.20372,2.2186962   L 67.016679,2.1622887   L 66.810934,2.1246837   L 66.605189,2.0682762   L 66.362036,2.0118686   L 66.118884,1.9366586   L 65.59517,1.8238435   L 65.034048,1.6734234   L 63.836987,1.3725833   L 63.201049,1.2221632   L 62.901784,1.1469531   L 62.583815,1.0717431   L 62.284549,0.99653305   L 61.96658,0.92132301   L 61.667315,0.84611297   L 61.386754,0.77090293   L 61.087489,0.69569289   L 60.806928,0.63928536   L 60.545071,0.56407531   L 60.432847,0.5452728   L 60.301918,0.50766778   L 60.189694,0.48886527   L 60.058765,0.45126025   L 59.927837,0.43245774   L 59.796908,0.39485272   L 59.404123,0.33844519   L 59.273194,0.30084017   L 59.123562,0.28203766   L 58.861705,0.24443264   L 58.712072,0.22563013   L 58.581144,0.20682762   L 58.431511,0.1880251   L 58.300583,0.16922259   L 58.15095,0.15042008   L 58.020022,0.13161757   L 57.870389,0.13161757   L 57.739461,0.11281506   L 57.589828,0.094012552   L 57.4589,0.094012552   L 57.309267,0.075210042   L 57.178339,0.075210042   L 57.04741,0.056407531   L 56.766849,0.056407531   L 56.635921,0.037605021   L 11.372074,0.037605021   L 11.241145,0.056407531   L 10.960584,0.056407531   L 10.829656,0.075210042   L 10.698727,0.075210042   L 10.549095,0.094012552   L 10.418166,0.094012552   L 10.268534,0.11281506   L 10.137605,0.13161757   L 9.9879728,0.13161757   L 9.8570443,0.15042008   L 9.7074118,0.16922259   L 9.5764833,0.1880251   L 9.4268507,0.20682762   L 9.2959222,0.22563013   L 9.1462897,0.24443264   L 8.8844327,0.28203766   L 8.7348002,0.30084017   L 8.6038717,0.33844519   L 8.2110862,0.39485272   L 8.0801578,0.43245774   L 7.9492293,0.45126025   L 7.8183008,0.48886527   L 7.7060764,0.50766778   L 7.5751479,0.5452728   L 7.4629235,0.56407531   L 7.2010665,0.63928536   L 6.9205055,0.69569289   L 6.6212404,0.77090293   L 6.3406794,0.84611297   L 6.0414143,0.92132301   L 5.7234451,0.99653305   L 5.42418,1.0717431   L 5.1062108,1.1469531   L 4.8069457,1.2221632   L 4.1710074,1.3725833   L 2.973947,1.6734234   L 2.4128249,1.8238435   L 1.889111,1.9366586   L 1.6459581,2.0118686   L 1.4028052,2.0682762   L 1.1970604,2.1246837   L 0.99131565,2.1622887   L 0.80427496,2.2186962   L 0.63593834,2.2563013   L 0.48630579,2.2939063   L 0.35537731,2.3315113   L 0.2431529,2.3503138   L 0.14963255,2.3691163   L 0.093520345,2.3879188   L 0.056112207,2.4067213   L 67.783546,2.4067213   L 67.970586,2.4067213   z "
     id="path51" />
  <path
     style="fill:#cccccc;fill-rule:evenodd;fill-opacity:1;stroke:#cccccc;stroke-width:0.01870407px;stroke-linecap:round;stroke-linejoin:round;stroke-miterlimit:4;stroke-dasharray:none;stroke-opacity:1;"
     d="  M 0.037408138,14.30871   L 0.056112207,14.30871   L 0.093520345,14.346315   L 0.14963255,14.383921   L 0.2431529,14.421526   L 0.35537731,14.496736   L 0.48630579,14.571946   L 0.63593834,14.647156   L 0.80427496,14.741168   L 1.1783563,14.966798   L 1.5898459,15.192428   L 2.4876412,15.718899   L 2.71209,15.831714   L 3.3854365,16.226567   L 3.796926,16.452197   L 4.1710074,16.677827   L 4.339344,16.771839   L 4.4889765,16.847049   L 4.619905,16.922259   L 4.7321294,16.997469   L 4.8256498,17.035074   L 4.881762,17.07268   L 4.9191701,17.110285   L 63.088824,17.110285   L 63.126233,17.07268   L 63.182345,17.035074   L 63.275865,16.997469   L 63.38809,16.922259   L 63.519018,16.847049   L 63.668651,16.771839   L 63.836987,16.677827   L 64.211069,16.452197   L 64.622558,16.226567   L 65.295905,15.831714   L 65.520353,15.718899   L 66.418149,15.192428   L 66.829638,14.966798   L 67.20372,14.741168   L 67.372056,14.647156   L 67.521689,14.571946   L 67.652617,14.496736   L 67.764842,14.421526   L 67.858362,14.383921   L 67.914474,14.346315   L 67.951882,14.30871   L 0.22444883,14.30871   L 0.037408138,14.30871   z "
     id="path53" />
  <path
     style="fill:#f7f7f7;fill-rule:evenodd;fill-opacity:1;stroke:#f7f7f7;stroke-width:0.01870407px;stroke-linecap:round;stroke-linejoin:round;stroke-miterlimit:4;stroke-dasharray:none;stroke-opacity:1;"
     d="  M 0.037408138,2.4067213   L 67.933178,2.4067213   L 67.933178,2.3879188   L 67.858362,2.3879188   L 67.839658,2.3691163   L 67.783546,2.3691163   L 67.764842,2.3503138   L 67.727433,2.3503138   L 67.690025,2.3315113   L 67.633913,2.3315113   L 67.596505,2.3127088   L 67.577801,2.3127088   L 67.540393,2.2939063   L 67.502985,2.2939063   L 67.484281,2.2751038   L 67.428168,2.2751038   L 67.409464,2.2563013   L 67.334648,2.2563013   L 67.334648,2.2374987   L 0.69205055,2.2374987   L 0.69205055,2.2563013   L 0.61723427,2.2563013   L 0.5985302,2.2751038   L 0.542418,2.2751038   L 0.50500986,2.2939063   L 0.48630579,2.2939063   L 0.44889765,2.3127088   L 0.41148952,2.3127088   L 0.39278545,2.3315113   L 0.31796917,2.3315113   L 0.28056103,2.3503138   L 0.26185696,2.3503138   L 0.22444883,2.3691163   L 0.16833662,2.3691163   L 0.14963255,2.3879188   L 0.074816276,2.3879188   L 0.074816276,2.4067213   L 0.056112207,2.4067213   L 0.037408138,2.4067213   z "
     id="path55" />
  <path
     style="fill:none;stroke:#7f7f7f;stroke-width:0.01870407px;stroke-linecap:round;stroke-linejoin:round;stroke-miterlimit:4;stroke-dasharray:none;stroke-opacity:1;"
     d="  M 0.037408138,2.4067213   L 67.783546,2.4067213   L 67.970586,2.4067213  "
     id="path57" />
  <path
     style="fill:none;stroke:#000000;stroke-width:0.093520343px;stroke-linecap:round;stroke-linejoin:round;stroke-miterlimit:4;stroke-dasharray:none;stroke-opacity:1;"
     d="  M 67.970586,2.4067213   L 67.951882,2.4067213   L 67.914474,2.3879188   L 67.858362,2.3691163   L 67.764842,2.3503138   L 67.652617,2.3315113   L 67.521689,2.2939063   L 67.372056,2.2563013   L 67.20372,2.2186962   L 67.016679,2.1622887   L 66.810934,2.1246837   L 66.605189,2.0682762   L 66.362036,2.0118686   L 66.118884,1.9366586   L 65.59517,1.8238435   L 65.034048,1.6734234   L 63.836987,1.3725833   L 63.201049,1.2221632   L 62.901784,1.1469531   L 62.583815,1.0717431   L 62.284549,0.99653305   L 61.96658,0.92132301   L 61.667315,0.84611297   L 61.386754,0.77090293   L 61.087489,0.69569289   L 60.806928,0.63928536   L 60.545071,0.56407531   L 60.432847,0.5452728   L 60.301918,0.50766778   L 60.189694,0.48886527   L 60.058765,0.45126025   L 59.927837,0.43245774   L 59.796908,0.39485272   L 59.404123,0.33844519   L 59.273194,0.30084017   L 59.123562,0.28203766   L 58.861705,0.24443264   L 58.712072,0.22563013   L 58.581144,0.20682762   L 58.431511,0.1880251   L 58.300583,0.16922259   L 58.15095,0.15042008   L 58.020022,0.13161757   L 57.870389,0.13161757   L 57.739461,0.11281506   L 57.589828,0.094012552   L 57.4589,0.094012552   L 57.309267,0.075210042   L 57.178339,0.075210042   L 57.04741,0.056407531   L 56.766849,0.056407531   L 56.635921,0.037605021   L 11.372074,0.037605021   L 11.241145,0.056407531   L 10.960584,0.056407531   L 10.829656,0.075210042   L 10.698727,0.075210042   L 10.549095,0.094012552   L 10.418166,0.094012552   L 10.268534,0.11281506   L 10.137605,0.13161757   L 9.9879728,0.13161757   L 9.8570443,0.15042008   L 9.7074118,0.16922259   L 9.5764833,0.1880251   L 9.4268507,0.20682762   L 9.2959222,0.22563013   L 9.1462897,0.24443264   L 8.8844327,0.28203766   L 8.7348002,0.30084017   L 8.6038717,0.33844519   L 8.2110862,0.39485272   L 8.0801578,0.43245774   L 7.9492293,0.45126025   L 7.8183008,0.48886527   L 7.7060764,0.50766778   L 7.5751479,0.5452728   L 7.4629235,0.56407531   L 7.2010665,0.63928536   L 6.9205055,0.69569289   L 6.6212404,0.77090293   L 6.3406794,0.84611297   L 6.0414143,0.92132301   L 5.7234451,0.99653305   L 5.42418,1.0717431   L 5.1062108,1.1469531   L 4.8069457,1.2221632   L 4.1710074,1.3725833   L 2.973947,1.6734234   L 2.4128249,1.8238435   L 1.889111,1.9366586   L 1.6459581,2.0118686   L 1.4028052,2.0682762   L 1.1970604,2.1246837   L 0.99131565,2.1622887   L 0.80427496,2.2186962   L 0.63593834,2.2563013   L 0.48630579,2.2939063   L 0.35537731,2.3315113   L 0.2431529,2.3503138   L 0.14963255,2.3691163   L 0.093520345,2.3879188   L 0.056112207,2.4067213   L 0.037408138,2.4067213   L 0.037408138,14.30871   L 0.056112207,14.30871   L 0.093520345,14.346315   L 0.14963255,14.383921   L 0.2431529,14.421526   L 0.35537731,14.496736   L 0.48630579,14.571946   L 0.63593834,14.647156   L 0.80427496,14.741168   L 1.1783563,14.966798   L 1.5898459,15.192428   L 2.4876412,15.718899   L 2.71209,15.831714   L 3.3854365,16.226567   L 3.796926,16.452197   L 4.1710074,16.677827   L 4.339344,16.771839   L 4.4889765,16.847049   L 4.619905,16.922259   L 4.7321294,16.997469   L 4.8256498,17.035074   L 4.881762,17.07268   L 4.9191701,17.110285   L 63.088824,17.110285   L 63.126233,17.07268   L 63.182345,17.035074   L 63.275865,16.997469   L 63.38809,16.922259   L 63.519018,16.847049   L 63.668651,16.771839   L 63.836987,16.677827   L 64.211069,16.452197   L 64.622558,16.226567   L 65.295905,15.831714   L 65.520353,15.718899   L 66.418149,15.192428   L 66.829638,14.966798   L 67.20372,14.741168   L 67.372056,14.647156   L 67.521689,14.571946   L 67.652617,14.496736   L 67.764842,14.421526   L 67.858362,14.383921   L 67.914474,14.346315   L 67.951882,14.30871   L 67.970586,14.30871   L 67.970586,2.4443264   L 67.970586,2.4067213   z "
     id="path59" />
  <path
     style="fill:#eaeaea;fill-rule:evenodd;fill-opacity:1;stroke:#000000;stroke-width:0.01870407px;stroke-linecap:round;stroke-linejoin:round;stroke-miterlimit:4;stroke-dasharray:none;stroke-opacity:1;"
     d="  M 6.9766177,14.534341   L 61.181009,14.534341   L 61.199713,14.515538   L 61.218418,14.515538   L 61.237122,14.496736   L 61.255826,14.496736   L 61.27453,14.477933   L 61.27453,14.459131   L 61.293234,14.459131   L 61.293234,14.440328   L 61.311938,14.421526   L 61.311938,14.402723   L 61.330642,14.402723   L 61.330642,14.327513   L 61.349346,14.327513   L 61.349346,5.7535682   L 61.330642,5.6971607   L 61.330642,5.6407531   L 61.255826,5.415123   L 61.237122,5.377518   L 61.199713,5.3211105   L 61.181009,5.2835054   L 61.143601,5.2270979   L 61.124897,5.1894929   L 60.937856,5.0014678   L 60.881744,4.9638628   L 60.844336,4.9450603   L 60.788224,4.9074552   L 60.750816,4.8886527   L 60.694704,4.8698502   L 60.638591,4.8322452   L 60.601183,4.8134427   L 60.545071,4.8134427   L 60.432847,4.7758377   L 60.376734,4.7758377   L 60.320622,4.7570351   L 7.6873723,4.7570351   L 7.6312601,4.7758377   L 7.5751479,4.7758377   L 7.4629235,4.8134427   L 7.4068113,4.8134427   L 7.3694031,4.8322452   L 7.3132909,4.8698502   L 7.2571787,4.8886527   L 7.2197706,4.9074552   L 7.1636584,4.9450603   L 7.1262503,4.9638628   L 7.070138,5.0014678   L 6.8830974,5.1894929   L 6.8643933,5.2270979   L 6.8269851,5.2835054   L 6.8082811,5.3211105   L 6.7708729,5.377518   L 6.7521689,5.415123   L 6.6773526,5.6407531   L 6.6773526,5.6971607   L 6.6586485,5.7535682   L 6.6586485,14.421526   L 6.6773526,14.421526   L 6.6773526,14.440328   L 6.7147607,14.477933   L 6.7334648,14.477933   L 6.7334648,14.496736   L 6.7708729,14.496736   L 6.7708729,14.515538   L 6.8456892,14.515538   L 6.8643933,14.534341   L 6.9579136,14.534341   L 6.9766177,14.534341   z "
     id="path61" />
  <path
     style="fill:#2f97d8;fill-rule:evenodd;fill-opacity:1;stroke:#000000;stroke-width:0.01870407px;stroke-linecap:round;stroke-linejoin:round;stroke-miterlimit:4;stroke-dasharray:none;stroke-opacity:1;"
     d="  M 14.720102,6.374051   L 8.7909124,6.374051   L 8.7909124,11.544741   L 14.720102,11.544741   L 14.720102,6.374051   z "
     id="path63" />
  <path
     style="fill:#bfbfbf;fill-rule:evenodd;fill-opacity:1;stroke:#000000;stroke-width:0.01870407px;stroke-linecap:round;stroke-linejoin:round;stroke-miterlimit:4;stroke-dasharray:none;stroke-opacity:1;"
     d="  M 54.915146,6.4868661   L 27.251828,6.4868661   L 27.251828,11.544741   L 54.915146,11.544741   L 54.915146,6.4868661   z "
     id="path65" />
  <path
     style="fill:#333333;fill-rule:evenodd;fill-opacity:1;stroke:#000000;stroke-width:0.01870407px;stroke-linecap:round;stroke-linejoin:round;stroke-miterlimit:4;stroke-dasharray:none;stroke-opacity:1;"
     d="  M 59.348011,7.1637565   L 56.243135,7.1637565   L 56.243135,11.544741   L 59.348011,11.544741   L 59.348011,7.1637565   z "
     id="path67" />
  <path
     style="fill:#7f7f7f;fill-rule:evenodd;fill-opacity:1;stroke:#7f7f7f;stroke-width:0.01870407px;stroke-linecap:round;stroke-linejoin:round;stroke-miterlimit:4;stroke-dasharray:none;stroke-opacity:1;"
     d="  M 25.661983,11.319111   L 20.387435,11.319111   L 20.387435,7.6902268   L 25.661983,7.6902268   L 25.661983,11.319111   z "
     id="path69" />
  <path
     style="fill:none;stroke:#000000;stroke-width:0.01870407px;stroke-linecap:round;stroke-linejoin:round;stroke-miterlimit:4;stroke-dasharray:none;stroke-opacity:1;"
     d="  M 25.923839,11.544741   L 20.125578,11.544741   L 20.125578,7.4645967   L 25.923839,7.4645967   L 25.923839,11.544741   z "
     id="path71" />
  <path
     style="fill:#7f7f7f;fill-rule:evenodd;fill-opacity:1;stroke:#7f7f7f;stroke-width:0.01870407px;stroke-linecap:round;stroke-linejoin:round;stroke-miterlimit:4;stroke-dasharray:none;stroke-opacity:1;"
     d="  M 53.998647,4.9074552   L 49.50967,4.9074552   L 49.50967,6.223631   L 53.998647,6.223631   L 53.998647,4.9074552   z "
     id="path73" />
  <text
     xml:space="preserve"
     style="font-size:1.062500px;font-style:normal;font-variant:normal;font-weight:400;font-stretch:Normal;line-height:125.000000%;letter-spacing:0px;word-spacing:0px;fill:#000000;fill-opacity:1;stroke:none;font-family:Arial;text-align:start;text-anchor:start;"
     transform="matrix(1.000000,-0.000000,0.000000,1.000000,9.132354,12.811907)"
     x="0.000000"
     y="0.774563"
     id="text79"><tspan
       x="0.000000"
       y="0.774563"
       id="tspan77"><tspan
         dx="0.000000"
         dy="0.000000"
         style="fill:#000000;font-size:1.062500px;font-style:normal;font-variant:normal;font-weight:400;font-stretch:Normal;font-family:Arial;"
         id="tspan75">CONSOLE</tspan></tspan></text>
  <text
     xml:space="preserve"
     style="font-size:1.062500px;font-style:normal;font-variant:normal;font-weight:400;font-stretch:Normal;line-height:125.000000%;letter-spacing:0px;word-spacing:0px;fill:#000000;fill-opacity:1;stroke:none;font-family:Arial;text-align:start;text-anchor:start;"
     transform="matrix(1.000000,-0.000000,0.000000,1.000000,9.132354,12.811907)"
     x="12.800267"
     y="0.774563"
     id="text85"><tspan
       x="12.800267"
       y="0.774563"
       id="tspan83"><tspan
         dx="0.000000"
         dy="0.000000"
         style="fill:#000000;font-size:1.062500px;font-style:normal;font-variant:normal;font-weight:400;font-stretch:Normal;font-family:Arial;"
         id="tspan81">SFP</tspan></tspan></text>
  <text
     xml:space="preserve"
     style="font-size:1.062500px;font-style:normal;font-variant:normal;font-weight:400;font-stretch:Normal;line-height:125.000000%;letter-spacing:0px;word-spacing:0px;fill:#000000;fill-opacity:1;stroke:none;font-family:Arial;text-align:start;text-anchor:start;"
     transform="matrix(1.000000,-0.000000,0.000000,1.000000,9.132354,12.811907)"
     x="19.686961"
     y="0.774563"
     id="text91"><tspan
       x="19.686961"
       y="0.774563"
       id="tspan89"><tspan
         dx="0.000000"
         dy="0.000000"
         style="fill:#000000;font-size:1.062500px;font-style:normal;font-variant:normal;font-weight:400;font-stretch:Normal;font-family:Arial;"
         id="tspan87">WAN</tspan></tspan></text>
  <text
     xml:space="preserve"
     style="font-size:1.062500px;font-style:normal;font-variant:normal;font-weight:400;font-stretch:Normal;line-height:125.000000%;letter-spacing:0px;word-spacing:0px;fill:#000000;fill-opacity:1;stroke:none;font-family:Arial;text-align:start;text-anchor:start;"
     transform="matrix(1.000000,-0.000000,0.000000,1.000000,9.132354,12.811907)"
     x="25.974812"
     y="0.774563"
     id="text97"><tspan
       x="25.974812"
       y="0.774563"
       id="tspan95"><tspan
         dx="0.000000"
         dy="0.000000"
         style="fill:#000000;font-size:1.062500px;font-style:normal;font-variant:normal;font-weight:400;font-stretch:Normal;font-family:Arial;"
         id="tspan93">1</tspan></tspan></text>
  <text
     xml:space="preserve"
     style="font-size:1.062500px;font-style:normal;font-variant:normal;font-weight:400;font-stretch:Normal;line-height:125.000000%;letter-spacing:0px;word-spacing:0px;fill:#000000;fill-opacity:1;stroke:none;font-family:Arial;text-align:start;text-anchor:start;"
     transform="matrix(1.000000,-0.000000,0.000000,1.000000,9.132354,12.811907)"
     x="31.439253"
     y="0.774563"
     id="text103"><tspan
       x="31.439253"
       y="0.774563"
       id="tspan101"><tspan
         dx="0.000000"
         dy="0.000000"
         style="fill:#000000;font-size:1.062500px;font-style:normal;font-variant:normal;font-weight:400;font-stretch:Normal;font-family:Arial;"
         id="tspan99">2</tspan></tspan></text>
  <text
     xml:space="preserve"
     style="font-size:1.062500px;font-style:normal;font-variant:normal;font-weight:400;font-stretch:Normal;line-height:125.000000%;letter-spacing:0px;word-spacing:0px;fill:#000000;fill-opacity:1;stroke:none;font-family:Arial;text-align:start;text-anchor:start;"
     transform="matrix(1.000000,-0.000000,0.000000,1.000000,9.132354,12.811907)"
     x="36.978550"
     y="0.774563"
     id="text109"><tspan
       x="36.978550"
       y="0.774563"
       id="tspan107"><tspan
         dx="0.000000"
         dy="0.000000"
         style="fill:#000000;font-size:1.062500px;font-style:normal;font-variant:normal;font-weight:400;font-stretch:Normal;font-family:Arial;"
         id="tspan105">3</tspan></tspan></text>
  <text
     xml:space="preserve"
     style="font-size:1.062500px;font-style:normal;font-variant:normal;font-weight:400;font-stretch:Normal;line-height:125.000000%;letter-spacing:0px;word-spacing:0px;fill:#000000;fill-opacity:1;stroke:none;font-family:Arial;text-align:start;text-anchor:start;"
     transform="matrix(1.000000,-0.000000,0.000000,1.000000,9.132354,12.811907)"
     x="42.442992"
     y="0.774563"
     id="text115"><tspan
       x="42.442992"
       y="0.774563"
       id="tspan113"><tspan
         dx="0.000000"
         dy="0.000000"
         style="fill:#000000;font-size:1.062500px;font-style:normal;font-variant:normal;font-weight:400;font-stretch:Normal;font-family:Arial;"
         id="tspan111">4</tspan></tspan></text>
  <text
     xml:space="preserve"
     style="font-size:1.062500px;font-style:normal;font-variant:normal;font-weight:400;font-stretch:Normal;line-height:125.000000%;letter-spacing:0px;word-spacing:0px;fill:#000000;fill-opacity:1;stroke:none;font-family:Arial;text-align:start;text-anchor:start;"
     transform="matrix(1.000000,-0.000000,0.000000,1.000000,9.132354,12.811907)"
     x="46.859458"
     y="0.774563"
     id="text121"><tspan
       x="46.859458"
       y="0.774563"
       id="tspan119"><tspan
         dx="0.000000"
         dy="0.000000"
         style="fill:#000000;font-size:1.062500px;font-style:normal;font-variant:normal;font-weight:400;font-stretch:Normal;font-family:Arial;"
         id="tspan117">12VDC</tspan></tspan></text>
  <ellipse
     style="fill:#000000;fill-rule:evenodd;fill-opacity:1;stroke:#000000;stroke-width:0.092913859px;stroke-linecap:round;stroke-linejoin:round;stroke-miterlimit:4;stroke-dasharray:none;stroke-opacity:1;"
     cx="16.194885"
     cy="13.349689"
     rx="0.13937079"
     ry="0.13937079"
     id="ellipse123" />
  <ellipse
     style="fill:none;stroke:#000000;stroke-width:0.092913859px;stroke-linecap:round;stroke-linejoin:round;stroke-miterlimit:4;stroke-dasharray:none;stroke-opacity:1;"
     cx="16.194885"
     cy="13.349689"
     rx="0.13937079"
     ry="0.13937079"
     id="ellipse125" />
  <path
     style="fill:none;stroke:#000000;stroke-width:0.092913859px;stroke-linecap:round;stroke-linejoin:round;stroke-miterlimit:4;stroke-dasharray:none;stroke-opacity:1;"
     d="  M 16.482918,13.431701   L 18.211116,13.431701  "
     id="path127" />
  <path
     style="fill:none;stroke:#000000;stroke-width:0.092913859px;stroke-linecap:round;stroke-linejoin:round;stroke-miterlimit:4;stroke-dasharray:none;stroke-opacity:1;"
     d="  M 16.705912,13.431701   L 17.077567,13.067204   L 17.523553,13.067204  "
     id="path129" />
  <path
     style="fill:none;stroke:#000000;stroke-width:0.092913859px;stroke-linecap:round;stroke-linejoin:round;stroke-miterlimit:4;stroke-dasharray:none;stroke-opacity:1;"
     d="  M 17.021819,13.431701   L 17.393474,13.796198   L 17.672216,13.796198  "
     id="path131" />
  <ellipse
     style="fill:#000000;fill-rule:evenodd;fill-opacity:1;stroke:#000000;stroke-width:0.092913859px;stroke-linecap:round;stroke-linejoin:round;stroke-miterlimit:4;stroke-dasharray:none;stroke-opacity:1;"
     cx="17.579302"
     cy="12.985193"
     rx="0.074331086"
     ry="0.0650397"
     id="ellipse133" />
  <ellipse
     style="fill:none;stroke:#000000;stroke-width:0.092913859px;stroke-linecap:round;stroke-linejoin:round;stroke-miterlimit:4;stroke-dasharray:none;stroke-opacity:1;"
     cx="17.579302"
     cy="12.985193"
     rx="0.074331086"
     ry="0.0650397"
     id="ellipse135" />
  <path
     style="fill:#000000;fill-rule:evenodd;fill-opacity:1;stroke:#000000;stroke-width:0.092913859px;stroke-linecap:round;stroke-linejoin:round;stroke-miterlimit:4;stroke-dasharray:none;stroke-opacity:1;"
     d="  M 17.950957,13.668624   L 17.672216,13.668624   L 17.672216,13.941996   L 17.950957,13.941996   L 17.950957,13.668624   z "
     id="path137" />
  <path
     style="fill:#000000;fill-rule:evenodd;fill-opacity:1;stroke:#000000;stroke-width:0.092913859px;stroke-linecap:round;stroke-linejoin:round;stroke-miterlimit:4;stroke-dasharray:none;stroke-opacity:1;"
     d="  M 18.63852,13.431701   L 18.211116,13.285902   L 18.211116,13.5775   L 18.63852,13.431701   z "
     id="path139" />
  <path
     style="fill:#83ff00;fill-rule:evenodd;fill-opacity:1;stroke:#000000;stroke-width:0.018067235px;stroke-linecap:round;stroke-linejoin:round;stroke-miterlimit:4;stroke-dasharray:none;stroke-opacity:1;"
     d="  M 23.541606,11.917092   L 22.529841,11.917092   L 22.529841,12.334625   L 23.541606,12.334625   L 23.541606,11.917092   z "
     id="path141" />
  <path
     style="fill:#83ff00;fill-rule:evenodd;fill-opacity:1;stroke:#000000;stroke-width:0.018067235px;stroke-linecap:round;stroke-linejoin:round;stroke-miterlimit:4;stroke-dasharray:none;stroke-opacity:1;"
     d="  M 30.56976,11.917092   L 29.557995,11.917092   L 29.557995,12.334625   L 30.56976,12.334625   L 30.56976,11.917092   z "
     id="path143" />
  <path
     style="fill:#83ff00;fill-rule:evenodd;fill-opacity:1;stroke:#000000;stroke-width:0.018067235px;stroke-linecap:round;stroke-linejoin:round;stroke-miterlimit:4;stroke-dasharray:none;stroke-opacity:1;"
     d="  M 36.044132,11.917092   L 35.032367,11.917092   L 35.032367,12.334625   L 36.044132,12.334625   L 36.044132,11.917092   z "
     id="path145" />
  <path
     style="fill:#83ff00;fill-rule:evenodd;fill-opacity:1;stroke:#000000;stroke-width:0.018067235px;stroke-linecap:round;stroke-linejoin:round;stroke-miterlimit:4;stroke-dasharray:none;stroke-opacity:1;"
     d="  M 41.572706,11.917092   L 40.560941,11.917092   L 40.560941,12.334625   L 41.572706,12.334625   L 41.572706,11.917092   z "
     id="path147" />
  <path
     style="fill:#83ff00;fill-rule:evenodd;fill-opacity:1;stroke:#000000;stroke-width:0.018067235px;stroke-linecap:round;stroke-linejoin:round;stroke-miterlimit:4;stroke-dasharray:none;stroke-opacity:1;"
     d="  M 47.047078,11.917092   L 46.035313,11.917092   L 46.035313,12.334625   L 47.047078,12.334625   L 47.047078,11.917092   z "
     id="path149" />
  <path
     style="fill:#83ff00;fill-rule:evenodd;fill-opacity:1;stroke:#000000;stroke-width:0.018067235px;stroke-linecap:round;stroke-linejoin:round;stroke-miterlimit:4;stroke-dasharray:none;stroke-opacity:1;"
     d="  M 52.503383,11.917092   L 51.491618,11.917092   L 51.491618,12.334625   L 52.503383,12.334625   L 52.503383,11.917092   z "
     id="path151" />
  <path
     style="fill:#1e82b5;fill-rule:evenodd;fill-opacity:1;stroke:#161616;stroke-width:0.018568322px;stroke-linecap:round;stroke-linejoin:round;stroke-miterlimit:4;stroke-dasharray:none;stroke-opacity:1;"
     d="  M 9.358434,11.118843   L 9.358434,7.7720339   L 10.546807,7.7720339   L 10.546807,7.3257927   L 11.029583,7.3257927   L 11.029583,6.9353317   L 12.440775,6.9353317   L 12.440775,7.3257927   L 12.923552,7.3257927   L 12.923552,7.7720339   L 14.111924,7.7720339   L 14.111924,11.118843   L 13.480601,11.118843   L 13.480601,10.542448   L 9.9897569,10.542448   L 9.9897569,11.118843   L 9.358434,11.118843   z "
     id="path153" />
  <path
     style="fill:#d6d6b1;fill-rule:evenodd;fill-opacity:1;stroke:#000000;stroke-width:0.018568322px;stroke-linecap:round;stroke-linejoin:round;stroke-miterlimit:4;stroke-dasharray:none;stroke-opacity:1;"
     d="  M 10.268282,10.430888   L 10.101167,10.430888   L 10.101167,10.523854   L 10.268282,10.523854   L 10.268282,10.430888   z "
     id="path155" />
  <path
     style="fill:#d6d6b1;fill-rule:evenodd;fill-opacity:1;stroke:#000000;stroke-width:0.018568322px;stroke-linecap:round;stroke-linejoin:round;stroke-miterlimit:4;stroke-dasharray:none;stroke-opacity:1;"
     d="  M 10.695353,10.430888   L 10.528238,10.430888   L 10.528238,10.523854   L 10.695353,10.523854   L 10.695353,10.430888   z "
     id="path157" />
  <path
     style="fill:#d6d6b1;fill-rule:evenodd;fill-opacity:1;stroke:#000000;stroke-width:0.018568322px;stroke-linecap:round;stroke-linejoin:round;stroke-miterlimit:4;stroke-dasharray:none;stroke-opacity:1;"
     d="  M 11.140993,10.430888   L 10.973878,10.430888   L 10.973878,10.523854   L 11.140993,10.523854   L 11.140993,10.430888   z "
     id="path159" />
  <path
     style="fill:#d6d6b1;fill-rule:evenodd;fill-opacity:1;stroke:#000000;stroke-width:0.018568322px;stroke-linecap:round;stroke-linejoin:round;stroke-miterlimit:4;stroke-dasharray:none;stroke-opacity:1;"
     d="  M 11.586633,10.430888   L 11.419518,10.430888   L 11.419518,10.523854   L 11.586633,10.523854   L 11.586633,10.430888   z "
     id="path161" />
  <path
     style="fill:#d6d6b1;fill-rule:evenodd;fill-opacity:1;stroke:#000000;stroke-width:0.018568322px;stroke-linecap:round;stroke-linejoin:round;stroke-miterlimit:4;stroke-dasharray:none;stroke-opacity:1;"
     d="  M 12.032272,10.430888   L 11.865157,10.430888   L 11.865157,10.523854   L 12.032272,10.523854   L 12.032272,10.430888   z "
     id="path163" />
  <path
     style="fill:#d6d6b1;fill-rule:evenodd;fill-opacity:1;stroke:#000000;stroke-width:0.018568322px;stroke-linecap:round;stroke-linejoin:round;stroke-miterlimit:4;stroke-dasharray:none;stroke-opacity:1;"
     d="  M 12.477912,10.430888   L 12.310797,10.430888   L 12.310797,10.523854   L 12.477912,10.523854   L 12.477912,10.430888   z "
     id="path165" />
  <path
     style="fill:#d6d6b1;fill-rule:evenodd;fill-opacity:1;stroke:#000000;stroke-width:0.018568322px;stroke-linecap:round;stroke-linejoin:round;stroke-miterlimit:4;stroke-dasharray:none;stroke-opacity:1;"
     d="  M 12.923552,10.430888   L 12.756437,10.430888   L 12.756437,10.523854   L 12.923552,10.523854   L 12.923552,10.430888   z "
     id="path167" />
  <path
     style="fill:#d6d6b1;fill-rule:evenodd;fill-opacity:1;stroke:#000000;stroke-width:0.018568322px;stroke-linecap:round;stroke-linejoin:round;stroke-miterlimit:4;stroke-dasharray:none;stroke-opacity:1;"
     d="  M 13.38776,10.430888   L 13.220645,10.430888   L 13.220645,10.523854   L 13.38776,10.523854   L 13.38776,10.430888   z "
     id="path169" />
  <path
     style="fill:#bfbfbf;fill-rule:evenodd;fill-opacity:1;stroke:#000000;stroke-width:0.018713841px;stroke-linecap:round;stroke-linejoin:round;stroke-miterlimit:4;stroke-dasharray:none;stroke-opacity:1;"
     d="  M 16.318469,11.285783   L 16.318469,11.342306   L 16.337183,11.342306   L 16.337183,11.379988   L 16.355897,11.398829   L 16.355897,11.41767   L 16.374611,11.41767   L 16.374611,11.436511   L 16.393325,11.436511   L 16.393325,11.455352   L 16.412039,11.455352   L 16.430753,11.474193   L 16.46818,11.474193   L 16.46818,11.493035   L 18.302137,11.493035   L 18.302137,11.474193   L 18.339564,11.474193   L 18.358278,11.455352   L 18.376992,11.455352   L 18.376992,11.436511   L 18.395706,11.436511   L 18.395706,11.41767   L 18.41442,11.41767   L 18.41442,11.398829   L 18.433134,11.379988   L 18.433134,11.342306   L 18.451847,11.342306   L 18.451847,6.6320462   L 18.433134,6.6320462   L 18.433134,6.5943641   L 18.41442,6.575523   L 18.41442,6.556682   L 18.395706,6.556682   L 18.395706,6.537841   L 18.376992,6.537841   L 18.376992,6.5189999   L 18.358278,6.5189999   L 18.339564,6.5001589   L 18.302137,6.5001589   L 18.302137,6.4813178   L 16.46818,6.4813178   L 16.46818,6.5001589   L 16.430753,6.5001589   L 16.412039,6.5189999   L 16.393325,6.5189999   L 16.393325,6.537841   L 16.374611,6.537841   L 16.374611,6.556682   L 16.355897,6.556682   L 16.355897,6.575523   L 16.337183,6.5943641   L 16.337183,6.6320462   L 16.318469,6.6320462   L 16.318469,11.266942   L 16.318469,11.285783   z "
     id="path171" />
  <path
     style="fill:#000000;fill-rule:evenodd;fill-opacity:1;stroke:#7f7f7f;stroke-width:0.018713841px;stroke-linecap:round;stroke-linejoin:round;stroke-miterlimit:4;stroke-dasharray:none;stroke-opacity:1;"
     d="  M 16.486894,11.210419   L 16.486894,11.266942   L 16.505608,11.266942   L 16.505608,11.285783   L 16.524322,11.304624   L 16.543036,11.304624   L 16.543036,11.323465   L 18.227281,11.323465   L 18.245995,11.304624   L 18.264709,11.304624   L 18.264709,11.285783   L 18.283423,11.285783   L 18.283423,11.266942   L 18.302137,11.248101   L 18.302137,6.7074103   L 18.283423,6.7074103   L 18.283423,6.6885693   L 18.264709,6.6885693   L 18.264709,6.6697282   L 18.245995,6.6697282   L 18.227281,6.6508872   L 16.543036,6.6508872   L 16.543036,6.6697282   L 16.524322,6.6697282   L 16.505608,6.6885693   L 16.505608,6.7074103   L 16.486894,6.7074103   L 16.486894,11.191578   L 16.486894,11.210419   z "
     id="path173" />
  <path
     style="fill:#e2e2cc;fill-rule:evenodd;fill-opacity:1;stroke:#000000;stroke-width:0.018713841px;stroke-linecap:round;stroke-linejoin:round;stroke-miterlimit:4;stroke-dasharray:none;stroke-opacity:1;"
     d="  M 17.422586,10.211844   L 17.422586,10.626347   L 17.329017,10.626347   L 17.329017,10.211844   L 17.422586,10.211844   z "
     id="path175" />
  <path
     style="fill:#e2e2cc;fill-rule:evenodd;fill-opacity:1;stroke:#000000;stroke-width:0.018713841px;stroke-linecap:round;stroke-linejoin:round;stroke-miterlimit:4;stroke-dasharray:none;stroke-opacity:1;"
     d="  M 17.422586,9.2697918   L 17.422586,9.6842947   L 17.329017,9.6842947   L 17.329017,9.2697918   L 17.422586,9.2697918   z "
     id="path177" />
  <path
     style="fill:#e2e2cc;fill-rule:evenodd;fill-opacity:1;stroke:#000000;stroke-width:0.018713841px;stroke-linecap:round;stroke-linejoin:round;stroke-miterlimit:4;stroke-dasharray:none;stroke-opacity:1;"
     d="  M 17.422586,8.3465808   L 17.422586,8.7610837   L 17.329017,8.7610837   L 17.329017,8.3465808   L 17.422586,8.3465808   z "
     id="path179" />
  <path
     style="fill:#e2e2cc;fill-rule:evenodd;fill-opacity:1;stroke:#000000;stroke-width:0.018713841px;stroke-linecap:round;stroke-linejoin:round;stroke-miterlimit:4;stroke-dasharray:none;stroke-opacity:1;"
     d="  M 17.422586,7.3856878   L 17.422586,7.8001906   L 17.329017,7.8001906   L 17.329017,7.3856878   L 17.422586,7.3856878   z "
     id="path181" />
  <path
     style="fill:#0000ff;fill-rule:evenodd;fill-opacity:1;stroke:#000000;stroke-width:0.018713841px;stroke-linecap:round;stroke-linejoin:round;stroke-miterlimit:4;stroke-dasharray:none;stroke-opacity:1;"
     d="  M 16.842457,6.9335028   L 16.805029,6.9335028   L 16.767602,6.9523438   L 16.748888,6.9900259   L 16.748888,10.984326   L 16.767602,11.022009   L 16.805029,11.04085   L 17.272875,11.04085   L 17.310303,11.022009   L 17.329017,10.984326   L 17.329017,6.9900259   L 17.310303,6.9523438   L 17.272875,6.9335028   L 17.235448,6.9335028   L 16.842457,6.9335028   z "
     id="path183" />
  <path
     style="fill:#4c4cff;fill-rule:evenodd;fill-opacity:1;stroke:#4c4cff;stroke-width:0.018713841px;stroke-linecap:round;stroke-linejoin:round;stroke-miterlimit:4;stroke-dasharray:none;stroke-opacity:1;"
     d="  M 17.029595,7.0842311   L 16.95474,7.1030722   L 16.879885,7.1784363   L 16.861171,7.2538005   L 16.861171,10.720552   L 16.879885,10.795916   L 16.95474,10.87128   L 17.029595,10.890121   L 17.104451,10.87128   L 17.179306,10.795916   L 17.19802,10.720552   L 17.19802,7.2538005   L 17.179306,7.1784363   L 17.104451,7.1030722   L 17.029595,7.0842311   z "
     id="path185" />
  <path
     style="fill:#7f7f7f;fill-rule:evenodd;fill-opacity:1;stroke:#000000;stroke-width:0.018713841px;stroke-linecap:round;stroke-linejoin:round;stroke-miterlimit:4;stroke-dasharray:none;stroke-opacity:1;"
     d="  M 25.712818,11.263406   L 20.435515,11.263406   L 20.435515,7.6821252   L 25.712818,7.6821252   L 25.712818,11.263406   z "
     id="path187" />
  <path
     style="fill:#dddddd;fill-rule:evenodd;fill-opacity:1;stroke:#000000;stroke-width:0.018713841px;stroke-linecap:round;stroke-linejoin:round;stroke-miterlimit:4;stroke-dasharray:none;stroke-opacity:1;"
     d="  M 25.712818,11.263406   L 20.435515,11.263406   L 20.435515,7.6821252   L 25.712818,7.6821252   L 25.712818,11.263406   z "
     id="path189" />
  <path
     style="fill:#999974;fill-rule:evenodd;fill-opacity:1;stroke:#000000;stroke-width:0.018573135px;stroke-linecap:round;stroke-linejoin:round;stroke-miterlimit:4;stroke-dasharray:none;stroke-opacity:1;"
     d="  M 25.556635,11.191578   L 20.579034,11.191578   L 20.579034,7.7625086   L 25.556635,7.7625086   L 25.556635,11.191578   z "
     id="path191" />
  <path
     style="fill:#ccccb9;fill-rule:evenodd;fill-opacity:1;stroke:#7f7f7f;stroke-width:0.018573135px;stroke-linecap:round;stroke-linejoin:round;stroke-miterlimit:4;stroke-dasharray:none;stroke-opacity:1;"
     d="  M 25.482342,8.0828062   L 25.482342,8.0262831   L 25.426623,7.9132369   L 25.315184,7.8567138   L 20.820485,7.8567138   L 20.709046,7.9132369   L 20.653327,8.0262831   L 20.653327,10.946644   L 20.709046,11.059691   L 20.820485,11.116214   L 25.315184,11.116214   L 25.426623,11.059691   L 25.482342,10.946644   L 25.482342,10.890121   L 25.482342,8.0828062   z "
     id="path193" />
  <path
     style="fill:#938476;fill-rule:evenodd;fill-opacity:1;stroke:#000000;stroke-width:0.018573135px;stroke-linecap:round;stroke-linejoin:round;stroke-miterlimit:4;stroke-dasharray:none;stroke-opacity:1;"
     d="  M 20.950497,10.890121   L 20.950497,8.8364479   L 21.117655,8.8364479   L 21.117655,8.6291964   L 20.950497,8.6291964   L 20.950497,8.3088987   L 21.303386,8.3088987   L 21.303386,7.9320779   L 22.51064,7.9320779   L 22.51064,8.3088987   L 22.882103,8.3088987   L 22.882103,8.6291964   L 22.714945,8.6291964   L 22.714945,8.8364479   L 22.882103,8.8364479   L 22.882103,10.890121   L 20.950497,10.890121   z "
     id="path195" />
  <path
     style="fill:#938476;fill-rule:evenodd;fill-opacity:1;stroke:#000000;stroke-width:0.018573135px;stroke-linecap:round;stroke-linejoin:round;stroke-miterlimit:4;stroke-dasharray:none;stroke-opacity:1;"
     d="  M 20.950497,8.4784681   L 20.950497,8.3088987   L 21.303386,8.3088987   L 21.303386,7.9132369   L 22.51064,7.9132369   L 22.51064,8.3088987   L 22.882103,8.3088987   L 22.882103,8.4784681   L 20.950497,8.4784681   z "
     id="path197" />
  <path
     style="fill:#706257;fill-rule:evenodd;fill-opacity:1;stroke:#000000;stroke-width:0.018573135px;stroke-linecap:round;stroke-linejoin:round;stroke-miterlimit:4;stroke-dasharray:none;stroke-opacity:1;"
     d="  M 20.950497,8.4784681   L 20.950497,8.5538323   L 22.882103,8.5538323   L 22.882103,8.4784681   L 20.950497,8.4784681   z "
     id="path199" />
  <path
     style="fill:none;stroke:#000000;stroke-width:0.018573135px;stroke-linecap:round;stroke-linejoin:round;stroke-miterlimit:4;stroke-dasharray:none;stroke-opacity:1;"
     d="  M 20.950497,9.3451559   L 22.86353,9.3451559  "
     id="path201" />
  <path
     style="fill:#a09183;fill-rule:evenodd;fill-opacity:1;stroke:#000000;stroke-width:0.018573135px;stroke-linecap:round;stroke-linejoin:round;stroke-miterlimit:4;stroke-dasharray:none;stroke-opacity:1;"
     d="  M 22.603506,10.890121   L 22.677799,10.814757   L 22.696372,10.777075   L 22.733518,10.739393   L 22.752091,10.701711   L 22.770664,10.645188   L 22.80781,10.569824   L 22.826384,10.5133   L 22.86353,10.437936   L 22.86353,10.343731   L 22.882103,10.287208   L 22.882103,10.098798   L 22.86353,10.042274   L 22.86353,9.9480692   L 22.826384,9.8727051   L 22.80781,9.8161819   L 22.770664,9.7408178   L 22.752091,9.6842947   L 22.733518,9.6466126   L 22.696372,9.6089305   L 22.677799,9.5712484   L 22.529213,9.4205201   L 22.492067,9.4016791   L 22.454921,9.363997   L 22.417775,9.3451559   L 22.362055,9.3263149   L 22.287763,9.2886328   L 22.232043,9.2697918   L 22.157751,9.2321097   L 22.064885,9.2321097   L 22.009166,9.2132687   L 21.823434,9.2132687   L 21.767715,9.2321097   L 21.674849,9.2321097   L 21.600557,9.2697918   L 21.544837,9.2886328   L 21.470545,9.3263149   L 21.414825,9.3451559   L 21.377679,9.363997   L 21.340533,9.4016791   L 21.303386,9.4205201   L 21.154801,9.5712484   L 21.136228,9.6089305   L 21.099082,9.6466126   L 21.080509,9.6842947   L 21.061936,9.7408178   L 21.024789,9.8161819   L 21.006216,9.8727051   L 20.96907,9.9480692   L 20.96907,10.042274   L 20.950497,10.098798   L 20.950497,10.287208   L 20.96907,10.343731   L 20.96907,10.437936   L 21.006216,10.5133   L 21.024789,10.569824   L 21.061936,10.645188   L 21.080509,10.701711   L 21.099082,10.739393   L 21.136228,10.777075   L 21.154801,10.814757   L 21.229094,10.890121   L 22.584933,10.890121   L 22.603506,10.890121   z "
     id="path203" />
  <ellipse
     style="fill:none;stroke:#494949;stroke-width:0.018573135px;stroke-linecap:round;stroke-linejoin:round;stroke-miterlimit:4;stroke-dasharray:none;stroke-opacity:1;"
     cx="21.832721"
     cy="10.108218"
     rx="0.38074928"
     ry="0.38074928"
     id="ellipse205" />
  <ellipse
     style="fill:#706257;fill-rule:evenodd;fill-opacity:1;stroke:#000000;stroke-width:0.018573135px;stroke-linecap:round;stroke-linejoin:round;stroke-miterlimit:4;stroke-dasharray:none;stroke-opacity:1;"
     cx="21.832721"
     cy="10.117639"
     rx="0.23216419"
     ry="0.24145076"
     id="ellipse207" />
  <ellipse
     style="fill:none;stroke:#000000;stroke-width:0.018573135px;stroke-linecap:round;stroke-linejoin:round;stroke-miterlimit:4;stroke-dasharray:none;stroke-opacity:1;"
     cx="21.832721"
     cy="10.117639"
     rx="0.23216419"
     ry="0.24145076"
     id="ellipse209" />
  <ellipse
     style="fill:#9b8c81;fill-rule:evenodd;fill-opacity:1;stroke:#000000;stroke-width:0.018573135px;stroke-linecap:round;stroke-linejoin:round;stroke-miterlimit:4;stroke-dasharray:none;stroke-opacity:1;"
     cx="21.842007"
     cy="10.108218"
     rx="0.22287763"
     ry="0.21359106"
     id="ellipse211" />
  <ellipse
     style="fill:none;stroke:#000000;stroke-width:0.018573135px;stroke-linecap:round;stroke-linejoin:round;stroke-miterlimit:4;stroke-dasharray:none;stroke-opacity:1;"
     cx="21.842007"
     cy="10.108218"
     rx="0.22287763"
     ry="0.21359106"
     id="ellipse213" />
  <path
     style="fill:#4f443c;fill-rule:evenodd;fill-opacity:1;stroke:#000000;stroke-width:0.018573135px;stroke-linecap:round;stroke-linejoin:round;stroke-miterlimit:4;stroke-dasharray:none;stroke-opacity:1;"
     d="  M 21.972019,9.9103871   L 21.879154,9.9103871   L 21.879154,10.494459   L 21.972019,10.494459   L 21.972019,9.9103871   z "
     id="path215" />
  <path
     style="fill:#938476;fill-rule:evenodd;fill-opacity:1;stroke:#000000;stroke-width:0.018573135px;stroke-linecap:round;stroke-linejoin:round;stroke-miterlimit:4;stroke-dasharray:none;stroke-opacity:1;"
     d="  M 23.179273,10.890121   L 23.179273,8.8364479   L 23.346431,8.8364479   L 23.346431,8.6291964   L 23.179273,8.6291964   L 23.179273,8.3088987   L 23.532163,8.3088987   L 23.532163,7.9320779   L 24.739417,7.9320779   L 24.739417,8.3088987   L 25.110879,8.3088987   L 25.110879,8.6291964   L 24.943721,8.6291964   L 24.943721,8.8364479   L 25.110879,8.8364479   L 25.110879,10.890121   L 23.179273,10.890121   z "
     id="path217" />
  <path
     style="fill:#938476;fill-rule:evenodd;fill-opacity:1;stroke:#000000;stroke-width:0.018573135px;stroke-linecap:round;stroke-linejoin:round;stroke-miterlimit:4;stroke-dasharray:none;stroke-opacity:1;"
     d="  M 23.179273,8.4784681   L 23.179273,8.3088987   L 23.532163,8.3088987   L 23.532163,7.9132369   L 24.739417,7.9132369   L 24.739417,8.3088987   L 25.110879,8.3088987   L 25.110879,8.4784681   L 23.179273,8.4784681   z "
     id="path219" />
  <path
     style="fill:#706257;fill-rule:evenodd;fill-opacity:1;stroke:#000000;stroke-width:0.018573135px;stroke-linecap:round;stroke-linejoin:round;stroke-miterlimit:4;stroke-dasharray:none;stroke-opacity:1;"
     d="  M 23.179273,8.4784681   L 23.179273,8.5538323   L 25.110879,8.5538323   L 25.110879,8.4784681   L 23.179273,8.4784681   z "
     id="path221" />
  <path
     style="fill:none;stroke:#000000;stroke-width:0.018573135px;stroke-linecap:round;stroke-linejoin:round;stroke-miterlimit:4;stroke-dasharray:none;stroke-opacity:1;"
     d="  M 23.179273,9.3451559   L 25.092306,9.3451559  "
     id="path223" />
  <path
     style="fill:#a09183;fill-rule:evenodd;fill-opacity:1;stroke:#000000;stroke-width:0.018573135px;stroke-linecap:round;stroke-linejoin:round;stroke-miterlimit:4;stroke-dasharray:none;stroke-opacity:1;"
     d="  M 24.832282,10.890121   L 24.906575,10.814757   L 24.925148,10.777075   L 24.962294,10.739393   L 24.980867,10.701711   L 24.99944,10.645188   L 25.036587,10.569824   L 25.05516,10.5133   L 25.092306,10.437936   L 25.092306,10.343731   L 25.110879,10.287208   L 25.110879,10.098798   L 25.092306,10.042274   L 25.092306,9.9480692   L 25.05516,9.8727051   L 25.036587,9.8161819   L 24.99944,9.7408178   L 24.980867,9.6842947   L 24.962294,9.6466126   L 24.925148,9.6089305   L 24.906575,9.5712484   L 24.75799,9.4205201   L 24.720843,9.4016791   L 24.683697,9.363997   L 24.646551,9.3451559   L 24.590831,9.3263149   L 24.516539,9.2886328   L 24.46082,9.2697918   L 24.386527,9.2321097   L 24.293661,9.2321097   L 24.237942,9.2132687   L 24.052211,9.2132687   L 23.996491,9.2321097   L 23.903625,9.2321097   L 23.829333,9.2697918   L 23.773614,9.2886328   L 23.699321,9.3263149   L 23.643602,9.3451559   L 23.606455,9.363997   L 23.569309,9.4016791   L 23.532163,9.4205201   L 23.383578,9.5712484   L 23.365005,9.6089305   L 23.327858,9.6466126   L 23.309285,9.6842947   L 23.290712,9.7408178   L 23.253566,9.8161819   L 23.234993,9.8727051   L 23.197846,9.9480692   L 23.197846,10.042274   L 23.179273,10.098798   L 23.179273,10.287208   L 23.197846,10.343731   L 23.197846,10.437936   L 23.234993,10.5133   L 23.253566,10.569824   L 23.290712,10.645188   L 23.309285,10.701711   L 23.327858,10.739393   L 23.365005,10.777075   L 23.383578,10.814757   L 23.45787,10.890121   L 24.813709,10.890121   L 24.832282,10.890121   z "
     id="path225" />
  <ellipse
     style="fill:none;stroke:#494949;stroke-width:0.018573135px;stroke-linecap:round;stroke-linejoin:round;stroke-miterlimit:4;stroke-dasharray:none;stroke-opacity:1;"
     cx="24.061497"
     cy="10.108218"
     rx="0.38074928"
     ry="0.38074928"
     id="ellipse227" />
  <ellipse
     style="fill:#706257;fill-rule:evenodd;fill-opacity:1;stroke:#000000;stroke-width:0.018573135px;stroke-linecap:round;stroke-linejoin:round;stroke-miterlimit:4;stroke-dasharray:none;stroke-opacity:1;"
     cx="24.061497"
     cy="10.117639"
     rx="0.23216419"
     ry="0.24145076"
     id="ellipse229" />
  <ellipse
     style="fill:none;stroke:#000000;stroke-width:0.018573135px;stroke-linecap:round;stroke-linejoin:round;stroke-miterlimit:4;stroke-dasharray:none;stroke-opacity:1;"
     cx="24.061497"
     cy="10.117639"
     rx="0.23216419"
     ry="0.24145076"
     id="ellipse231" />
  <ellipse
     style="fill:#9b8c81;fill-rule:evenodd;fill-opacity:1;stroke:#000000;stroke-width:0.018573135px;stroke-linecap:round;stroke-linejoin:round;stroke-miterlimit:4;stroke-dasharray:none;stroke-opacity:1;"
     cx="24.070784"
     cy="10.108218"
     rx="0.22287763"
     ry="0.21359106"
     id="ellipse233" />
  <ellipse
     style="fill:none;stroke:#000000;stroke-width:0.018573135px;stroke-linecap:round;stroke-linejoin:round;stroke-miterlimit:4;stroke-dasharray:none;stroke-opacity:1;"
     cx="24.070784"
     cy="10.108218"
     rx="0.22287763"
     ry="0.21359106"
     id="ellipse235" />
  <path
     style="fill:#4f443c;fill-rule:evenodd;fill-opacity:1;stroke:#000000;stroke-width:0.018573135px;stroke-linecap:round;stroke-linejoin:round;stroke-miterlimit:4;stroke-dasharray:none;stroke-opacity:1;"
     d="  M 24.200796,9.9103871   L 24.10793,9.9103871   L 24.10793,10.494459   L 24.200796,10.494459   L 24.200796,9.9103871   z "
     id="path237" />
  <path
     style="fill:#999999;fill-rule:evenodd;fill-opacity:1;stroke:#161616;stroke-width:0.018713841px;stroke-linecap:round;stroke-linejoin:round;stroke-miterlimit:4;stroke-dasharray:none;stroke-opacity:1;"
     d="  M 27.715199,11.118843   L 27.715199,9.6313721   L 27.471919,9.6313721   L 27.471919,8.6273295   L 27.715199,8.6273295   L 27.715199,7.7720339   L 28.912885,7.7720339   L 28.912885,7.3257927   L 29.399444,7.3257927   L 29.399444,6.9353317   L 30.821696,6.9353317   L 30.821696,7.3257927   L 31.308256,7.3257927   L 31.308256,7.7720339   L 32.505942,7.7720339   L 32.505942,8.6273295   L 32.749222,8.6273295   L 32.749222,9.6313721   L 32.505942,9.6313721   L 32.505942,11.118843   L 31.869671,11.118843   L 31.869671,10.542448   L 28.351469,10.542448   L 28.351469,11.118843   L 27.715199,11.118843   z "
     id="path239" />
  <path
     style="fill:#d6d6b1;fill-rule:evenodd;fill-opacity:1;stroke:#000000;stroke-width:0.018713841px;stroke-linecap:round;stroke-linejoin:round;stroke-miterlimit:4;stroke-dasharray:none;stroke-opacity:1;"
     d="  M 28.632177,10.430888   L 28.463752,10.430888   L 28.463752,10.523854   L 28.632177,10.523854   L 28.632177,10.430888   z "
     id="path241" />
  <path
     style="fill:#d6d6b1;fill-rule:evenodd;fill-opacity:1;stroke:#000000;stroke-width:0.018713841px;stroke-linecap:round;stroke-linejoin:round;stroke-miterlimit:4;stroke-dasharray:none;stroke-opacity:1;"
     d="  M 29.062595,10.430888   L 28.894171,10.430888   L 28.894171,10.523854   L 29.062595,10.523854   L 29.062595,10.430888   z "
     id="path243" />
  <path
     style="fill:#d6d6b1;fill-rule:evenodd;fill-opacity:1;stroke:#000000;stroke-width:0.018713841px;stroke-linecap:round;stroke-linejoin:round;stroke-miterlimit:4;stroke-dasharray:none;stroke-opacity:1;"
     d="  M 29.511727,10.430888   L 29.343303,10.430888   L 29.343303,10.523854   L 29.511727,10.523854   L 29.511727,10.430888   z "
     id="path245" />
  <path
     style="fill:#d6d6b1;fill-rule:evenodd;fill-opacity:1;stroke:#000000;stroke-width:0.018713841px;stroke-linecap:round;stroke-linejoin:round;stroke-miterlimit:4;stroke-dasharray:none;stroke-opacity:1;"
     d="  M 29.96086,10.430888   L 29.792435,10.430888   L 29.792435,10.523854   L 29.96086,10.523854   L 29.96086,10.430888   z "
     id="path247" />
  <path
     style="fill:#d6d6b1;fill-rule:evenodd;fill-opacity:1;stroke:#000000;stroke-width:0.018713841px;stroke-linecap:round;stroke-linejoin:round;stroke-miterlimit:4;stroke-dasharray:none;stroke-opacity:1;"
     d="  M 30.409992,10.430888   L 30.241567,10.430888   L 30.241567,10.523854   L 30.409992,10.523854   L 30.409992,10.430888   z "
     id="path249" />
  <path
     style="fill:#d6d6b1;fill-rule:evenodd;fill-opacity:1;stroke:#000000;stroke-width:0.018713841px;stroke-linecap:round;stroke-linejoin:round;stroke-miterlimit:4;stroke-dasharray:none;stroke-opacity:1;"
     d="  M 30.859124,10.430888   L 30.690699,10.430888   L 30.690699,10.523854   L 30.859124,10.523854   L 30.859124,10.430888   z "
     id="path251" />
  <path
     style="fill:#d6d6b1;fill-rule:evenodd;fill-opacity:1;stroke:#000000;stroke-width:0.018713841px;stroke-linecap:round;stroke-linejoin:round;stroke-miterlimit:4;stroke-dasharray:none;stroke-opacity:1;"
     d="  M 31.308256,10.430888   L 31.139832,10.430888   L 31.139832,10.523854   L 31.308256,10.523854   L 31.308256,10.430888   z "
     id="path253" />
  <path
     style="fill:#d6d6b1;fill-rule:evenodd;fill-opacity:1;stroke:#000000;stroke-width:0.018713841px;stroke-linecap:round;stroke-linejoin:round;stroke-miterlimit:4;stroke-dasharray:none;stroke-opacity:1;"
     d="  M 31.776102,10.430888   L 31.607678,10.430888   L 31.607678,10.523854   L 31.776102,10.523854   L 31.776102,10.430888   z "
     id="path255" />
  <path
     style="fill:#999999;fill-rule:evenodd;fill-opacity:1;stroke:#161616;stroke-width:0.018713841px;stroke-linecap:round;stroke-linejoin:round;stroke-miterlimit:4;stroke-dasharray:none;stroke-opacity:1;"
     d="  M 33.17964,11.118843   L 33.17964,9.6313721   L 32.93636,9.6313721   L 32.93636,8.6273295   L 33.17964,8.6273295   L 33.17964,7.7720339   L 34.377326,7.7720339   L 34.377326,7.3257927   L 34.863886,7.3257927   L 34.863886,6.9353317   L 36.286138,6.9353317   L 36.286138,7.3257927   L 36.772698,7.3257927   L 36.772698,7.7720339   L 37.970384,7.7720339   L 37.970384,8.6273295   L 38.213664,8.6273295   L 38.213664,9.6313721   L 37.970384,9.6313721   L 37.970384,11.118843   L 37.334113,11.118843   L 37.334113,10.542448   L 33.815911,10.542448   L 33.815911,11.118843   L 33.17964,11.118843   z "
     id="path257" />
  <path
     style="fill:#d6d6b1;fill-rule:evenodd;fill-opacity:1;stroke:#000000;stroke-width:0.018713841px;stroke-linecap:round;stroke-linejoin:round;stroke-miterlimit:4;stroke-dasharray:none;stroke-opacity:1;"
     d="  M 34.096619,10.430888   L 33.928194,10.430888   L 33.928194,10.523854   L 34.096619,10.523854   L 34.096619,10.430888   z "
     id="path259" />
  <path
     style="fill:#d6d6b1;fill-rule:evenodd;fill-opacity:1;stroke:#000000;stroke-width:0.018713841px;stroke-linecap:round;stroke-linejoin:round;stroke-miterlimit:4;stroke-dasharray:none;stroke-opacity:1;"
     d="  M 34.527037,10.430888   L 34.358612,10.430888   L 34.358612,10.523854   L 34.527037,10.523854   L 34.527037,10.430888   z "
     id="path261" />
  <path
     style="fill:#d6d6b1;fill-rule:evenodd;fill-opacity:1;stroke:#000000;stroke-width:0.018713841px;stroke-linecap:round;stroke-linejoin:round;stroke-miterlimit:4;stroke-dasharray:none;stroke-opacity:1;"
     d="  M 34.976169,10.430888   L 34.807745,10.430888   L 34.807745,10.523854   L 34.976169,10.523854   L 34.976169,10.430888   z "
     id="path263" />
  <path
     style="fill:#d6d6b1;fill-rule:evenodd;fill-opacity:1;stroke:#000000;stroke-width:0.018713841px;stroke-linecap:round;stroke-linejoin:round;stroke-miterlimit:4;stroke-dasharray:none;stroke-opacity:1;"
     d="  M 35.425301,10.430888   L 35.256877,10.430888   L 35.256877,10.523854   L 35.425301,10.523854   L 35.425301,10.430888   z "
     id="path265" />
  <path
     style="fill:#d6d6b1;fill-rule:evenodd;fill-opacity:1;stroke:#000000;stroke-width:0.018713841px;stroke-linecap:round;stroke-linejoin:round;stroke-miterlimit:4;stroke-dasharray:none;stroke-opacity:1;"
     d="  M 35.874433,10.430888   L 35.706009,10.430888   L 35.706009,10.523854   L 35.874433,10.523854   L 35.874433,10.430888   z "
     id="path267" />
  <path
     style="fill:#d6d6b1;fill-rule:evenodd;fill-opacity:1;stroke:#000000;stroke-width:0.018713841px;stroke-linecap:round;stroke-linejoin:round;stroke-miterlimit:4;stroke-dasharray:none;stroke-opacity:1;"
     d="  M 36.323566,10.430888   L 36.155141,10.430888   L 36.155141,10.523854   L 36.323566,10.523854   L 36.323566,10.430888   z "
     id="path269" />
  <path
     style="fill:#d6d6b1;fill-rule:evenodd;fill-opacity:1;stroke:#000000;stroke-width:0.018713841px;stroke-linecap:round;stroke-linejoin:round;stroke-miterlimit:4;stroke-dasharray:none;stroke-opacity:1;"
     d="  M 36.772698,10.430888   L 36.604273,10.430888   L 36.604273,10.523854   L 36.772698,10.523854   L 36.772698,10.430888   z "
     id="path271" />
  <path
     style="fill:#d6d6b1;fill-rule:evenodd;fill-opacity:1;stroke:#000000;stroke-width:0.018713841px;stroke-linecap:round;stroke-linejoin:round;stroke-miterlimit:4;stroke-dasharray:none;stroke-opacity:1;"
     d="  M 37.240544,10.430888   L 37.072119,10.430888   L 37.072119,10.523854   L 37.240544,10.523854   L 37.240544,10.430888   z "
     id="path273" />
  <path
     style="fill:#999999;fill-rule:evenodd;fill-opacity:1;stroke:#161616;stroke-width:0.018713841px;stroke-linecap:round;stroke-linejoin:round;stroke-miterlimit:4;stroke-dasharray:none;stroke-opacity:1;"
     d="  M 38.718937,11.118843   L 38.718937,9.6313721   L 38.475657,9.6313721   L 38.475657,8.6273295   L 38.718937,8.6273295   L 38.718937,7.7720339   L 39.916623,7.7720339   L 39.916623,7.3257927   L 40.403183,7.3257927   L 40.403183,6.9353317   L 41.825435,6.9353317   L 41.825435,7.3257927   L 42.311995,7.3257927   L 42.311995,7.7720339   L 43.509681,7.7720339   L 43.509681,8.6273295   L 43.752961,8.6273295   L 43.752961,9.6313721   L 43.509681,9.6313721   L 43.509681,11.118843   L 42.87341,11.118843   L 42.87341,10.542448   L 39.355208,10.542448   L 39.355208,11.118843   L 38.718937,11.118843   z "
     id="path275" />
  <path
     style="fill:#d6d6b1;fill-rule:evenodd;fill-opacity:1;stroke:#000000;stroke-width:0.018713841px;stroke-linecap:round;stroke-linejoin:round;stroke-miterlimit:4;stroke-dasharray:none;stroke-opacity:1;"
     d="  M 39.635916,10.430888   L 39.467491,10.430888   L 39.467491,10.523854   L 39.635916,10.523854   L 39.635916,10.430888   z "
     id="path277" />
  <path
     style="fill:#d6d6b1;fill-rule:evenodd;fill-opacity:1;stroke:#000000;stroke-width:0.018713841px;stroke-linecap:round;stroke-linejoin:round;stroke-miterlimit:4;stroke-dasharray:none;stroke-opacity:1;"
     d="  M 40.066334,10.430888   L 39.897909,10.430888   L 39.897909,10.523854   L 40.066334,10.523854   L 40.066334,10.430888   z "
     id="path279" />
  <path
     style="fill:#d6d6b1;fill-rule:evenodd;fill-opacity:1;stroke:#000000;stroke-width:0.018713841px;stroke-linecap:round;stroke-linejoin:round;stroke-miterlimit:4;stroke-dasharray:none;stroke-opacity:1;"
     d="  M 40.515466,10.430888   L 40.347042,10.430888   L 40.347042,10.523854   L 40.515466,10.523854   L 40.515466,10.430888   z "
     id="path281" />
  <path
     style="fill:#d6d6b1;fill-rule:evenodd;fill-opacity:1;stroke:#000000;stroke-width:0.018713841px;stroke-linecap:round;stroke-linejoin:round;stroke-miterlimit:4;stroke-dasharray:none;stroke-opacity:1;"
     d="  M 40.964598,10.430888   L 40.796174,10.430888   L 40.796174,10.523854   L 40.964598,10.523854   L 40.964598,10.430888   z "
     id="path283" />
  <path
     style="fill:#d6d6b1;fill-rule:evenodd;fill-opacity:1;stroke:#000000;stroke-width:0.018713841px;stroke-linecap:round;stroke-linejoin:round;stroke-miterlimit:4;stroke-dasharray:none;stroke-opacity:1;"
     d="  M 41.41373,10.430888   L 41.245306,10.430888   L 41.245306,10.523854   L 41.41373,10.523854   L 41.41373,10.430888   z "
     id="path285" />
  <path
     style="fill:#d6d6b1;fill-rule:evenodd;fill-opacity:1;stroke:#000000;stroke-width:0.018713841px;stroke-linecap:round;stroke-linejoin:round;stroke-miterlimit:4;stroke-dasharray:none;stroke-opacity:1;"
     d="  M 41.862863,10.430888   L 41.694438,10.430888   L 41.694438,10.523854   L 41.862863,10.523854   L 41.862863,10.430888   z "
     id="path287" />
  <path
     style="fill:#d6d6b1;fill-rule:evenodd;fill-opacity:1;stroke:#000000;stroke-width:0.018713841px;stroke-linecap:round;stroke-linejoin:round;stroke-miterlimit:4;stroke-dasharray:none;stroke-opacity:1;"
     d="  M 42.311995,10.430888   L 42.14357,10.430888   L 42.14357,10.523854   L 42.311995,10.523854   L 42.311995,10.430888   z "
     id="path289" />
  <path
     style="fill:#d6d6b1;fill-rule:evenodd;fill-opacity:1;stroke:#000000;stroke-width:0.018713841px;stroke-linecap:round;stroke-linejoin:round;stroke-miterlimit:4;stroke-dasharray:none;stroke-opacity:1;"
     d="  M 42.779841,10.430888   L 42.611416,10.430888   L 42.611416,10.523854   L 42.779841,10.523854   L 42.779841,10.430888   z "
     id="path291" />
  <path
     style="fill:#999999;fill-rule:evenodd;fill-opacity:1;stroke:#161616;stroke-width:0.018713841px;stroke-linecap:round;stroke-linejoin:round;stroke-miterlimit:4;stroke-dasharray:none;stroke-opacity:1;"
     d="  M 44.183379,11.118843   L 44.183379,9.6313721   L 43.940099,9.6313721   L 43.940099,8.6273295   L 44.183379,8.6273295   L 44.183379,7.7720339   L 45.381065,7.7720339   L 45.381065,7.3257927   L 45.867625,7.3257927   L 45.867625,6.9353317   L 47.289877,6.9353317   L 47.289877,7.3257927   L 47.776436,7.3257927   L 47.776436,7.7720339   L 48.974122,7.7720339   L 48.974122,8.6273295   L 49.217402,8.6273295   L 49.217402,9.6313721   L 48.974122,9.6313721   L 48.974122,11.118843   L 48.337852,11.118843   L 48.337852,10.542448   L 44.81965,10.542448   L 44.81965,11.118843   L 44.183379,11.118843   z "
     id="path293" />
  <path
     style="fill:#d6d6b1;fill-rule:evenodd;fill-opacity:1;stroke:#000000;stroke-width:0.018713841px;stroke-linecap:round;stroke-linejoin:round;stroke-miterlimit:4;stroke-dasharray:none;stroke-opacity:1;"
     d="  M 45.100357,10.430888   L 44.931933,10.430888   L 44.931933,10.523854   L 45.100357,10.523854   L 45.100357,10.430888   z "
     id="path295" />
  <path
     style="fill:#d6d6b1;fill-rule:evenodd;fill-opacity:1;stroke:#000000;stroke-width:0.018713841px;stroke-linecap:round;stroke-linejoin:round;stroke-miterlimit:4;stroke-dasharray:none;stroke-opacity:1;"
     d="  M 45.530775,10.430888   L 45.362351,10.430888   L 45.362351,10.523854   L 45.530775,10.523854   L 45.530775,10.430888   z "
     id="path297" />
  <path
     style="fill:#d6d6b1;fill-rule:evenodd;fill-opacity:1;stroke:#000000;stroke-width:0.018713841px;stroke-linecap:round;stroke-linejoin:round;stroke-miterlimit:4;stroke-dasharray:none;stroke-opacity:1;"
     d="  M 45.979908,10.430888   L 45.811483,10.430888   L 45.811483,10.523854   L 45.979908,10.523854   L 45.979908,10.430888   z "
     id="path299" />
  <path
     style="fill:#d6d6b1;fill-rule:evenodd;fill-opacity:1;stroke:#000000;stroke-width:0.018713841px;stroke-linecap:round;stroke-linejoin:round;stroke-miterlimit:4;stroke-dasharray:none;stroke-opacity:1;"
     d="  M 46.42904,10.430888   L 46.260615,10.430888   L 46.260615,10.523854   L 46.42904,10.523854   L 46.42904,10.430888   z "
     id="path301" />
  <path
     style="fill:#d6d6b1;fill-rule:evenodd;fill-opacity:1;stroke:#000000;stroke-width:0.018713841px;stroke-linecap:round;stroke-linejoin:round;stroke-miterlimit:4;stroke-dasharray:none;stroke-opacity:1;"
     d="  M 46.878172,10.430888   L 46.709747,10.430888   L 46.709747,10.523854   L 46.878172,10.523854   L 46.878172,10.430888   z "
     id="path303" />
  <path
     style="fill:#d6d6b1;fill-rule:evenodd;fill-opacity:1;stroke:#000000;stroke-width:0.018713841px;stroke-linecap:round;stroke-linejoin:round;stroke-miterlimit:4;stroke-dasharray:none;stroke-opacity:1;"
     d="  M 47.327304,10.430888   L 47.15888,10.430888   L 47.15888,10.523854   L 47.327304,10.523854   L 47.327304,10.430888   z "
     id="path305" />
  <path
     style="fill:#d6d6b1;fill-rule:evenodd;fill-opacity:1;stroke:#000000;stroke-width:0.018713841px;stroke-linecap:round;stroke-linejoin:round;stroke-miterlimit:4;stroke-dasharray:none;stroke-opacity:1;"
     d="  M 47.776436,10.430888   L 47.608012,10.430888   L 47.608012,10.523854   L 47.776436,10.523854   L 47.776436,10.430888   z "
     id="path307" />
  <path
     style="fill:#d6d6b1;fill-rule:evenodd;fill-opacity:1;stroke:#000000;stroke-width:0.018713841px;stroke-linecap:round;stroke-linejoin:round;stroke-miterlimit:4;stroke-dasharray:none;stroke-opacity:1;"
     d="  M 48.244282,10.430888   L 48.075858,10.430888   L 48.075858,10.523854   L 48.244282,10.523854   L 48.244282,10.430888   z "
     id="path309" />
  <path
     style="fill:#999999;fill-rule:evenodd;fill-opacity:1;stroke:#161616;stroke-width:0.018713841px;stroke-linecap:round;stroke-linejoin:round;stroke-miterlimit:4;stroke-dasharray:none;stroke-opacity:1;"
     d="  M 49.647821,11.118843   L 49.647821,9.6313721   L 49.404541,9.6313721   L 49.404541,8.6273295   L 49.647821,8.6273295   L 49.647821,7.7720339   L 50.845506,7.7720339   L 50.845506,7.3257927   L 51.332066,7.3257927   L 51.332066,6.9353317   L 52.754318,6.9353317   L 52.754318,7.3257927   L 53.240878,7.3257927   L 53.240878,7.7720339   L 54.438564,7.7720339   L 54.438564,8.6273295   L 54.681844,8.6273295   L 54.681844,9.6313721   L 54.438564,9.6313721   L 54.438564,11.118843   L 53.802293,11.118843   L 53.802293,10.542448   L 50.284091,10.542448   L 50.284091,11.118843   L 49.647821,11.118843   z "
     id="path311" />
  <path
     style="fill:#d6d6b1;fill-rule:evenodd;fill-opacity:1;stroke:#000000;stroke-width:0.018713841px;stroke-linecap:round;stroke-linejoin:round;stroke-miterlimit:4;stroke-dasharray:none;stroke-opacity:1;"
     d="  M 50.564799,10.430888   L 50.396374,10.430888   L 50.396374,10.523854   L 50.564799,10.523854   L 50.564799,10.430888   z "
     id="path313" />
  <path
     style="fill:#d6d6b1;fill-rule:evenodd;fill-opacity:1;stroke:#000000;stroke-width:0.018713841px;stroke-linecap:round;stroke-linejoin:round;stroke-miterlimit:4;stroke-dasharray:none;stroke-opacity:1;"
     d="  M 50.995217,10.430888   L 50.826793,10.430888   L 50.826793,10.523854   L 50.995217,10.523854   L 50.995217,10.430888   z "
     id="path315" />
  <path
     style="fill:#d6d6b1;fill-rule:evenodd;fill-opacity:1;stroke:#000000;stroke-width:0.018713841px;stroke-linecap:round;stroke-linejoin:round;stroke-miterlimit:4;stroke-dasharray:none;stroke-opacity:1;"
     d="  M 51.444349,10.430888   L 51.275925,10.430888   L 51.275925,10.523854   L 51.444349,10.523854   L 51.444349,10.430888   z "
     id="path317" />
  <path
     style="fill:#d6d6b1;fill-rule:evenodd;fill-opacity:1;stroke:#000000;stroke-width:0.018713841px;stroke-linecap:round;stroke-linejoin:round;stroke-miterlimit:4;stroke-dasharray:none;stroke-opacity:1;"
     d="  M 51.893481,10.430888   L 51.725057,10.430888   L 51.725057,10.523854   L 51.893481,10.523854   L 51.893481,10.430888   z "
     id="path319" />
  <path
     style="fill:#d6d6b1;fill-rule:evenodd;fill-opacity:1;stroke:#000000;stroke-width:0.018713841px;stroke-linecap:round;stroke-linejoin:round;stroke-miterlimit:4;stroke-dasharray:none;stroke-opacity:1;"
     d="  M 52.342614,10.430888   L 52.174189,10.430888   L 52.174189,10.523854   L 52.342614,10.523854   L 52.342614,10.430888   z "
     id="path321" />
  <path
     style="fill:#d6d6b1;fill-rule:evenodd;fill-opacity:1;stroke:#000000;stroke-width:0.018713841px;stroke-linecap:round;stroke-linejoin:round;stroke-miterlimit:4;stroke-dasharray:none;stroke-opacity:1;"
     d="  M 52.791746,10.430888   L 52.623321,10.430888   L 52.623321,10.523854   L 52.791746,10.523854   L 52.791746,10.430888   z "
     id="path323" />
  <path
     style="fill:#d6d6b1;fill-rule:evenodd;fill-opacity:1;stroke:#000000;stroke-width:0.018713841px;stroke-linecap:round;stroke-linejoin:round;stroke-miterlimit:4;stroke-dasharray:none;stroke-opacity:1;"
     d="  M 53.240878,10.430888   L 53.072453,10.430888   L 53.072453,10.523854   L 53.240878,10.523854   L 53.240878,10.430888   z "
     id="path325" />
  <path
     style="fill:#d6d6b1;fill-rule:evenodd;fill-opacity:1;stroke:#000000;stroke-width:0.018713841px;stroke-linecap:round;stroke-linejoin:round;stroke-miterlimit:4;stroke-dasharray:none;stroke-opacity:1;"
     d="  M 53.708724,10.430888   L 53.5403,10.430888   L 53.5403,10.523854   L 53.708724,10.523854   L 53.708724,10.430888   z "
     id="path327" />
  <ellipse
     style="fill:#000000;fill-rule:evenodd;fill-opacity:1;stroke:#000000;stroke-width:0.017701158px;stroke-linecap:round;stroke-linejoin:round;stroke-miterlimit:4;stroke-dasharray:none;stroke-opacity:1;"
     cx="57.732325"
     cy="8.6865959"
     rx="1.2125293"
     ry="1.2125293"
     id="ellipse329" />
  <ellipse
     style="fill:none;stroke:#000000;stroke-width:0.017701158px;stroke-linecap:round;stroke-linejoin:round;stroke-miterlimit:4;stroke-dasharray:none;stroke-opacity:1;"
     cx="57.732325"
     cy="8.6865959"
     rx="1.2125293"
     ry="1.2125293"
     id="ellipse331" />
  <ellipse
     style="fill:#dddddd;fill-rule:evenodd;fill-opacity:1;stroke:#000000;stroke-width:0.017701158px;stroke-linecap:round;stroke-linejoin:round;stroke-miterlimit:4;stroke-dasharray:none;stroke-opacity:1;"
     cx="57.723474"
     cy="8.6865959"
     rx="0.44252893"
     ry="0.45137951"
     id="ellipse333" />
  <ellipse
     style="fill:none;stroke:#000000;stroke-width:0.017701158px;stroke-linecap:round;stroke-linejoin:round;stroke-miterlimit:4;stroke-dasharray:none;stroke-opacity:1;"
     cx="57.723474"
     cy="8.6865959"
     rx="0.44252893"
     ry="0.45137951"
     id="ellipse335" />
  <ellipse
     style="fill:#000000;fill-rule:evenodd;fill-opacity:1;stroke:#000000;stroke-width:0.017701158px;stroke-linecap:round;stroke-linejoin:round;stroke-miterlimit:4;stroke-dasharray:none;stroke-opacity:1;"
     cx="57.732325"
     cy="8.6865959"
     rx="0.30977025"
     ry="0.30977025"
     id="ellipse337" />
  <ellipse
     style="fill:none;stroke:#000000;stroke-width:0.017701158px;stroke-linecap:round;stroke-linejoin:round;stroke-miterlimit:4;stroke-dasharray:none;stroke-opacity:1;"
     cx="57.732325"
     cy="8.6865959"
     rx="0.30977025"
     ry="0.30977025"
     id="ellipse339" />
  <ellipse
     style="fill:#dddddd;fill-rule:evenodd;fill-opacity:1;stroke:#000000;stroke-width:0.017701158px;stroke-linecap:round;stroke-linejoin:round;stroke-miterlimit:4;stroke-dasharray:none;stroke-opacity:1;"
     cx="57.732325"
     cy="8.6865959"
     rx="0.27436794"
     ry="0.27436794"
     id="ellipse341" />
  <ellipse
     style="fill:none;stroke:#000000;stroke-width:0.017701158px;stroke-linecap:round;stroke-linejoin:round;stroke-miterlimit:4;stroke-dasharray:none;stroke-opacity:1;"
     cx="57.732325"
     cy="8.6865959"
     rx="0.27436794"
     ry="0.27436794"
     id="ellipse343" />
  <path
     style="fill:none;stroke:#000000;stroke-width:0.0080927005px;stroke-linecap:round;stroke-linejoin:round;stroke-miterlimit:4;stroke-dasharray:none;stroke-opacity:1;"
     d="  M 71.620398,7.4630888   L 71.337154,7.4630888   L 71.337154,7.7482505   L 71.620398,7.7482505   L 71.620398,7.4630888   z "
     id="path345" />
  <path
     style="fill:none;stroke:#000000;stroke-width:0.0080927005px;stroke-linecap:round;stroke-linejoin:round;stroke-miterlimit:4;stroke-dasharray:none;stroke-opacity:1;"
     d="  M 71.620398,8.0660021   L 71.337154,8.0660021   L 71.337154,8.3511638   L 71.620398,8.3511638   L 71.620398,8.0660021   z "
     id="path347" />
  <path
     style="fill:none;stroke:#000000;stroke-width:0.0080927005px;stroke-linecap:round;stroke-linejoin:round;stroke-miterlimit:4;stroke-dasharray:none;stroke-opacity:1;"
     d="  M 71.620398,8.6689154   L 71.337154,8.6689154   L 71.337154,8.9540771   L 71.620398,8.9540771   L 71.620398,8.6689154   z "
     id="path349" />
  <path
     style="fill:none;stroke:#000000;stroke-width:0.0080927005px;stroke-linecap:round;stroke-linejoin:round;stroke-miterlimit:4;stroke-dasharray:none;stroke-opacity:1;"
     d="  M 71.620398,9.2718286   L 71.337154,9.2718286   L 71.337154,9.5569903   L 71.620398,9.5569903   L 71.620398,9.2718286   z "
     id="path351" />
  <text
     xml:space="preserve"
     style="font-size:1.062500px;font-style:normal;font-variant:normal;font-weight:400;font-stretch:Normal;line-height:125.000000%;letter-spacing:0px;word-spacing:0px;fill:#000000;fill-opacity:1;stroke:none;font-family:Arial;text-align:start;text-anchor:start;"
     transform="matrix(1.000000,-0.000000,0.000000,1.000000,49.778817,4.974035)"
     x="0.000000"
     y="0.774563"
     id="text357"><tspan
       x="0.000000"
       y="0.774563"
       id="tspan355"><tspan
         dx="0.000000"
         dy="0.000000"
         style="fill:#FFFFFF;font-size:1.062500px;font-style:normal;font-variant:normal;font-weight:400;font-stretch:Normal;font-family:Arial;"
         id="tspan353">POE PD</tspan></tspan></text>
</svg>
