<?xml version="1.0" encoding="UTF-8" standalone="no"?>
<svg
   version="1.0"
   width="21.879999mm"
   height="34.299999mm"
   id="svg139"
   xmlns="http://www.w3.org/2000/svg"
   xmlns:svg="http://www.w3.org/2000/svg">
  <defs
     id="defs3">
    <pattern
       id="EMFhbasepattern"
       patternUnits="userSpaceOnUse"
       width="6"
       height="6"
       x="0"
       y="0" />
  </defs>
  <path
     style="fill:#333333;fill-rule:evenodd;fill-opacity:1;stroke:#000000;stroke-width:0.018709749px;stroke-linecap:round;stroke-linejoin:round;stroke-miterlimit:4;stroke-dasharray:none;stroke-opacity:1;"
     d="  M 23.368477,120.13304   L 23.368477,119.64531   L 13.321341,119.64531   L 13.321341,120.13304   L 23.368477,120.13304   z "
     id="path5" />
  <path
     style="fill:#494949;fill-rule:evenodd;fill-opacity:1;stroke:#000000;stroke-width:0.018709749px;stroke-linecap:round;stroke-linejoin:round;stroke-miterlimit:4;stroke-dasharray:none;stroke-opacity:1;"
     d="  M 23.630413,120.13304   L 23.630413,120.86465   L 13.059405,120.86465   L 13.059405,120.13304   L 23.630413,120.13304   z "
     id="path7" />
  <path
     style="fill:#494949;fill-rule:evenodd;fill-opacity:1;stroke:#000000;stroke-width:0.018709749px;stroke-linecap:round;stroke-linejoin:round;stroke-miterlimit:4;stroke-dasharray:none;stroke-opacity:1;"
     d="  M 23.630413,120.86465   L 23.630413,121.59625   L 13.059405,121.59625   L 13.059405,120.86465   L 23.630413,120.86465   z "
     id="path9" />
  <path
     style="fill:#494949;fill-rule:evenodd;fill-opacity:1;stroke:#000000;stroke-width:0.018709749px;stroke-linecap:round;stroke-linejoin:round;stroke-miterlimit:4;stroke-dasharray:none;stroke-opacity:1;"
     d="  M 22.133633,120.86465   L 22.133633,121.59625   L 14.537475,121.59625   L 14.537475,120.86465   L 22.133633,120.86465   z "
     id="path11" />
  <path
     style="fill:#333333;fill-rule:evenodd;fill-opacity:1;stroke:#000000;stroke-width:0.018709749px;stroke-linecap:round;stroke-linejoin:round;stroke-miterlimit:4;stroke-dasharray:none;stroke-opacity:1;"
     d="  M 23.10654,121.59625   L 23.10654,122.32785   L 13.583278,122.32785   L 13.583278,121.59625   L 23.10654,121.59625   z "
     id="path13" />
  <path
     style="fill:#494949;fill-rule:evenodd;fill-opacity:1;stroke:#000000;stroke-width:0.018709749px;stroke-linecap:round;stroke-linejoin:round;stroke-miterlimit:4;stroke-dasharray:none;stroke-opacity:1;"
     d="  M 23.630413,122.32785   L 23.630413,128.98732   L 13.059405,128.98732   L 13.059405,122.32785   L 23.630413,122.32785   z "
     id="path15" />
  <path
     style="fill:#494949;fill-rule:evenodd;fill-opacity:1;stroke:#000000;stroke-width:0.018709749px;stroke-linecap:round;stroke-linejoin:round;stroke-miterlimit:4;stroke-dasharray:none;stroke-opacity:1;"
     d="  M 23.368477,128.98732   L 13.340051,128.98732   L 13.340051,129.30622   L 13.358761,129.32498   L 13.358761,129.34374   L 13.377471,129.3625   L 13.377471,129.38126   L 13.39618,129.38126   L 13.39618,129.40002   L 13.41489,129.40002   L 13.41489,129.41878   L 13.4336,129.41878   L 13.4336,129.43754   L 13.45231,129.43754   L 13.471019,129.4563   L 13.489729,129.4563   L 13.508439,129.47506   L 13.545858,129.47506   L 13.545858,129.49381   L 23.16267,129.49381   L 23.16267,129.47506   L 23.200089,129.47506   L 23.218799,129.4563   L 23.237508,129.4563   L 23.256218,129.43754   L 23.274928,129.43754   L 23.293638,129.41878   L 23.293638,129.40002   L 23.312347,129.40002   L 23.312347,129.38126   L 23.331057,129.38126   L 23.331057,129.3625   L 23.349767,129.34374   L 23.349767,129.32498   L 23.368477,129.30622   L 23.368477,129.00608   L 23.368477,128.98732   z "
     id="path17" />
  <path
     style="fill:none;stroke:#000000;stroke-width:0.018709749px;stroke-linecap:round;stroke-linejoin:round;stroke-miterlimit:4;stroke-dasharray:none;stroke-opacity:1;"
     d="  M 21.890407,122.36537   L 21.890407,128.04937   L 21.909116,128.04937   L 21.909116,128.08688   L 21.927826,128.08688   L 21.927826,128.10564   L 21.965246,128.14316   L 21.965246,128.16192   L 21.983955,128.16192   L 22.021375,128.19944   L 22.040085,128.19944   L 22.058794,128.2182   L 22.096214,128.2182   L 22.114924,128.23696   L 23.555574,128.23696   L 23.611703,128.23696  "
     id="path19" />
  <path
     style="fill:none;stroke:#000000;stroke-width:0.018709749px;stroke-linecap:round;stroke-linejoin:round;stroke-miterlimit:4;stroke-dasharray:none;stroke-opacity:1;"
     d="  M 14.799412,122.36537   L 14.799412,128.04937   L 14.780702,128.04937   L 14.780702,128.08688   L 14.761992,128.08688   L 14.761992,128.10564   L 14.724573,128.14316   L 14.724573,128.16192   L 14.705863,128.16192   L 14.668443,128.19944   L 14.649734,128.19944   L 14.631024,128.2182   L 14.593604,128.2182   L 14.574895,128.23696   L 13.134244,128.23696   L 13.078115,128.23696  "
     id="path21" />
  <path
     style="fill:none;stroke:#000000;stroke-width:0.018709749px;stroke-linecap:round;stroke-linejoin:round;stroke-miterlimit:4;stroke-dasharray:none;stroke-opacity:1;"
     d="  M 16.876194,127.97433   L 16.876194,128.04937   L 16.894904,128.04937   L 16.894904,128.08688   L 16.913613,128.08688   L 16.913613,128.10564   L 16.951033,128.14316   L 16.951033,128.16192   L 16.969743,128.16192   L 17.007162,128.19944   L 17.025872,128.19944   L 17.044582,128.2182   L 17.082001,128.2182   L 17.100711,128.23696   L 19.626527,128.23696   L 19.645237,128.2182   L 19.682656,128.2182   L 19.701366,128.19944   L 19.720076,128.19944   L 19.738785,128.18068   L 19.757495,128.18068   L 19.757495,128.16192   L 19.776205,128.16192   L 19.794915,128.14316   L 19.794915,128.1244   L 19.813624,128.1244   L 19.813624,128.10564   L 19.832334,128.08688   L 19.832334,128.04937   L 19.851044,128.04937   L 19.851044,122.32785   L 16.876194,122.32785   L 16.876194,127.95557   L 16.876194,127.97433  "
     id="path23" />
  <path
     style="fill:#333333;fill-rule:evenodd;fill-opacity:1;stroke:#000000;stroke-width:0.018709749px;stroke-linecap:round;stroke-linejoin:round;stroke-miterlimit:4;stroke-dasharray:none;stroke-opacity:1;"
     d="  M 46.2505,120.13304   L 46.2505,119.64531   L 36.203365,119.64531   L 36.203365,120.13304   L 46.2505,120.13304   z "
     id="path25" />
  <path
     style="fill:#494949;fill-rule:evenodd;fill-opacity:1;stroke:#000000;stroke-width:0.018709749px;stroke-linecap:round;stroke-linejoin:round;stroke-miterlimit:4;stroke-dasharray:none;stroke-opacity:1;"
     d="  M 46.512436,120.13304   L 46.512436,120.86465   L 35.941428,120.86465   L 35.941428,120.13304   L 46.512436,120.13304   z "
     id="path27" />
  <path
     style="fill:#494949;fill-rule:evenodd;fill-opacity:1;stroke:#000000;stroke-width:0.018709749px;stroke-linecap:round;stroke-linejoin:round;stroke-miterlimit:4;stroke-dasharray:none;stroke-opacity:1;"
     d="  M 46.512436,120.86465   L 46.512436,121.59625   L 35.941428,121.59625   L 35.941428,120.86465   L 46.512436,120.86465   z "
     id="path29" />
  <path
     style="fill:#494949;fill-rule:evenodd;fill-opacity:1;stroke:#000000;stroke-width:0.018709749px;stroke-linecap:round;stroke-linejoin:round;stroke-miterlimit:4;stroke-dasharray:none;stroke-opacity:1;"
     d="  M 45.015657,120.86465   L 45.015657,121.59625   L 37.419498,121.59625   L 37.419498,120.86465   L 45.015657,120.86465   z "
     id="path31" />
  <path
     style="fill:#333333;fill-rule:evenodd;fill-opacity:1;stroke:#000000;stroke-width:0.018709749px;stroke-linecap:round;stroke-linejoin:round;stroke-miterlimit:4;stroke-dasharray:none;stroke-opacity:1;"
     d="  M 45.988564,121.59625   L 45.988564,122.32785   L 36.465301,122.32785   L 36.465301,121.59625   L 45.988564,121.59625   z "
     id="path33" />
  <path
     style="fill:#494949;fill-rule:evenodd;fill-opacity:1;stroke:#000000;stroke-width:0.018709749px;stroke-linecap:round;stroke-linejoin:round;stroke-miterlimit:4;stroke-dasharray:none;stroke-opacity:1;"
     d="  M 46.512436,122.32785   L 46.512436,128.98732   L 35.941428,128.98732   L 35.941428,122.32785   L 46.512436,122.32785   z "
     id="path35" />
  <path
     style="fill:#494949;fill-rule:evenodd;fill-opacity:1;stroke:#000000;stroke-width:0.018709749px;stroke-linecap:round;stroke-linejoin:round;stroke-miterlimit:4;stroke-dasharray:none;stroke-opacity:1;"
     d="  M 46.2505,128.98732   L 36.222074,128.98732   L 36.222074,129.30622   L 36.240784,129.32498   L 36.240784,129.34374   L 36.259494,129.3625   L 36.259494,129.38126   L 36.278204,129.38126   L 36.278204,129.40002   L 36.296913,129.40002   L 36.296913,129.41878   L 36.315623,129.41878   L 36.315623,129.43754   L 36.334333,129.43754   L 36.353043,129.4563   L 36.371752,129.4563   L 36.390462,129.47506   L 36.427882,129.47506   L 36.427882,129.49381   L 46.044693,129.49381   L 46.044693,129.47506   L 46.082112,129.47506   L 46.100822,129.4563   L 46.119532,129.4563   L 46.138242,129.43754   L 46.156951,129.43754   L 46.175661,129.41878   L 46.175661,129.40002   L 46.194371,129.40002   L 46.194371,129.38126   L 46.213081,129.38126   L 46.213081,129.3625   L 46.23179,129.34374   L 46.23179,129.32498   L 46.2505,129.30622   L 46.2505,129.00608   L 46.2505,128.98732   z "
     id="path37" />
  <path
     style="fill:none;stroke:#000000;stroke-width:0.018709749px;stroke-linecap:round;stroke-linejoin:round;stroke-miterlimit:4;stroke-dasharray:none;stroke-opacity:1;"
     d="  M 44.77243,122.36537   L 44.77243,128.04937   L 44.79114,128.04937   L 44.79114,128.08688   L 44.809849,128.08688   L 44.809849,128.10564   L 44.847269,128.14316   L 44.847269,128.16192   L 44.865979,128.16192   L 44.903398,128.19944   L 44.922108,128.19944   L 44.940818,128.2182   L 44.978237,128.2182   L 44.996947,128.23696   L 46.437597,128.23696   L 46.493727,128.23696  "
     id="path39" />
  <path
     style="fill:none;stroke:#000000;stroke-width:0.018709749px;stroke-linecap:round;stroke-linejoin:round;stroke-miterlimit:4;stroke-dasharray:none;stroke-opacity:1;"
     d="  M 37.681435,122.36537   L 37.681435,128.04937   L 37.662725,128.04937   L 37.662725,128.08688   L 37.644015,128.08688   L 37.644015,128.10564   L 37.606596,128.14316   L 37.606596,128.16192   L 37.587886,128.16192   L 37.550467,128.19944   L 37.531757,128.19944   L 37.513047,128.2182   L 37.475628,128.2182   L 37.456918,128.23696   L 36.016267,128.23696   L 35.960138,128.23696  "
     id="path41" />
  <path
     style="fill:none;stroke:#000000;stroke-width:0.018709749px;stroke-linecap:round;stroke-linejoin:round;stroke-miterlimit:4;stroke-dasharray:none;stroke-opacity:1;"
     d="  M 39.758217,127.97433   L 39.758217,128.04937   L 39.776927,128.04937   L 39.776927,128.08688   L 39.795637,128.08688   L 39.795637,128.10564   L 39.833056,128.14316   L 39.833056,128.16192   L 39.851766,128.16192   L 39.889185,128.19944   L 39.907895,128.19944   L 39.926605,128.2182   L 39.964024,128.2182   L 39.982734,128.23696   L 42.50855,128.23696   L 42.52726,128.2182   L 42.564679,128.2182   L 42.583389,128.19944   L 42.602099,128.19944   L 42.620809,128.18068   L 42.639518,128.18068   L 42.639518,128.16192   L 42.658228,128.16192   L 42.676938,128.14316   L 42.676938,128.1244   L 42.695648,128.1244   L 42.695648,128.10564   L 42.714357,128.08688   L 42.714357,128.04937   L 42.733067,128.04937   L 42.733067,122.32785   L 39.758217,122.32785   L 39.758217,127.95557   L 39.758217,127.97433  "
     id="path43" />
  <path
     style="fill:#333333;fill-rule:evenodd;fill-opacity:1;stroke:#000000;stroke-width:0.018709749px;stroke-linecap:round;stroke-linejoin:round;stroke-miterlimit:4;stroke-dasharray:none;stroke-opacity:1;"
     d="  M 69.169943,120.13304   L 69.169943,119.64531   L 59.122807,119.64531   L 59.122807,120.13304   L 69.169943,120.13304   z "
     id="path45" />
  <path
     style="fill:#494949;fill-rule:evenodd;fill-opacity:1;stroke:#000000;stroke-width:0.018709749px;stroke-linecap:round;stroke-linejoin:round;stroke-miterlimit:4;stroke-dasharray:none;stroke-opacity:1;"
     d="  M 69.431879,120.13304   L 69.431879,120.86465   L 58.860871,120.86465   L 58.860871,120.13304   L 69.431879,120.13304   z "
     id="path47" />
  <path
     style="fill:#494949;fill-rule:evenodd;fill-opacity:1;stroke:#000000;stroke-width:0.018709749px;stroke-linecap:round;stroke-linejoin:round;stroke-miterlimit:4;stroke-dasharray:none;stroke-opacity:1;"
     d="  M 69.431879,120.86465   L 69.431879,121.59625   L 58.860871,121.59625   L 58.860871,120.86465   L 69.431879,120.86465   z "
     id="path49" />
  <path
     style="fill:#494949;fill-rule:evenodd;fill-opacity:1;stroke:#000000;stroke-width:0.018709749px;stroke-linecap:round;stroke-linejoin:round;stroke-miterlimit:4;stroke-dasharray:none;stroke-opacity:1;"
     d="  M 67.935099,120.86465   L 67.935099,121.59625   L 60.338941,121.59625   L 60.338941,120.86465   L 67.935099,120.86465   z "
     id="path51" />
  <path
     style="fill:#333333;fill-rule:evenodd;fill-opacity:1;stroke:#000000;stroke-width:0.018709749px;stroke-linecap:round;stroke-linejoin:round;stroke-miterlimit:4;stroke-dasharray:none;stroke-opacity:1;"
     d="  M 68.908006,121.59625   L 68.908006,122.32785   L 59.384744,122.32785   L 59.384744,121.59625   L 68.908006,121.59625   z "
     id="path53" />
  <path
     style="fill:#494949;fill-rule:evenodd;fill-opacity:1;stroke:#000000;stroke-width:0.018709749px;stroke-linecap:round;stroke-linejoin:round;stroke-miterlimit:4;stroke-dasharray:none;stroke-opacity:1;"
     d="  M 69.431879,122.32785   L 69.431879,128.98732   L 58.860871,128.98732   L 58.860871,122.32785   L 69.431879,122.32785   z "
     id="path55" />
  <path
     style="fill:#494949;fill-rule:evenodd;fill-opacity:1;stroke:#000000;stroke-width:0.018709749px;stroke-linecap:round;stroke-linejoin:round;stroke-miterlimit:4;stroke-dasharray:none;stroke-opacity:1;"
     d="  M 69.169943,128.98732   L 59.141517,128.98732   L 59.141517,129.30622   L 59.160227,129.32498   L 59.160227,129.34374   L 59.178937,129.3625   L 59.178937,129.38126   L 59.197646,129.38126   L 59.197646,129.40002   L 59.216356,129.40002   L 59.216356,129.41878   L 59.235066,129.41878   L 59.235066,129.43754   L 59.253776,129.43754   L 59.272485,129.4563   L 59.291195,129.4563   L 59.309905,129.47506   L 59.347324,129.47506   L 59.347324,129.49381   L 68.964136,129.49381   L 68.964136,129.47506   L 69.001555,129.47506   L 69.020265,129.4563   L 69.038975,129.4563   L 69.057684,129.43754   L 69.076394,129.43754   L 69.095104,129.41878   L 69.095104,129.40002   L 69.113814,129.40002   L 69.113814,129.38126   L 69.132523,129.38126   L 69.132523,129.3625   L 69.151233,129.34374   L 69.151233,129.32498   L 69.169943,129.30622   L 69.169943,129.00608   L 69.169943,128.98732   z "
     id="path57" />
  <path
     style="fill:none;stroke:#000000;stroke-width:0.018709749px;stroke-linecap:round;stroke-linejoin:round;stroke-miterlimit:4;stroke-dasharray:none;stroke-opacity:1;"
     d="  M 67.691873,122.36537   L 67.691873,128.04937   L 67.710582,128.04937   L 67.710582,128.08688   L 67.729292,128.08688   L 67.729292,128.10564   L 67.766712,128.14316   L 67.766712,128.16192   L 67.785421,128.16192   L 67.822841,128.19944   L 67.841551,128.19944   L 67.86026,128.2182   L 67.89768,128.2182   L 67.91639,128.23696   L 69.35704,128.23696   L 69.41317,128.23696  "
     id="path59" />
  <path
     style="fill:none;stroke:#000000;stroke-width:0.018709749px;stroke-linecap:round;stroke-linejoin:round;stroke-miterlimit:4;stroke-dasharray:none;stroke-opacity:1;"
     d="  M 60.600878,122.36537   L 60.600878,128.04937   L 60.582168,128.04937   L 60.582168,128.08688   L 60.563458,128.08688   L 60.563458,128.10564   L 60.526039,128.14316   L 60.526039,128.16192   L 60.507329,128.16192   L 60.469909,128.19944   L 60.4512,128.19944   L 60.43249,128.2182   L 60.39507,128.2182   L 60.376361,128.23696   L 58.93571,128.23696   L 58.879581,128.23696  "
     id="path61" />
  <path
     style="fill:none;stroke:#000000;stroke-width:0.018709749px;stroke-linecap:round;stroke-linejoin:round;stroke-miterlimit:4;stroke-dasharray:none;stroke-opacity:1;"
     d="  M 62.67766,127.97433   L 62.67766,128.04937   L 62.69637,128.04937   L 62.69637,128.08688   L 62.715079,128.08688   L 62.715079,128.10564   L 62.752499,128.14316   L 62.752499,128.16192   L 62.771209,128.16192   L 62.808628,128.19944   L 62.827338,128.19944   L 62.846048,128.2182   L 62.883467,128.2182   L 62.902177,128.23696   L 65.427993,128.23696   L 65.446703,128.2182   L 65.484122,128.2182   L 65.502832,128.19944   L 65.521542,128.19944   L 65.540251,128.18068   L 65.558961,128.18068   L 65.558961,128.16192   L 65.577671,128.16192   L 65.596381,128.14316   L 65.596381,128.1244   L 65.61509,128.1244   L 65.61509,128.10564   L 65.6338,128.08688   L 65.6338,128.04937   L 65.65251,128.04937   L 65.65251,122.32785   L 62.67766,122.32785   L 62.67766,127.95557   L 62.67766,127.97433  "
     id="path63" />
  <path
     style="fill:#eaeaea;fill-rule:evenodd;fill-opacity:1;stroke:#000000;stroke-width:0.093548745px;stroke-linecap:round;stroke-linejoin:round;stroke-miterlimit:4;stroke-dasharray:none;stroke-opacity:1;"
     d="  M 82.435155,2.9826911   L 82.435155,2.8326186   L 82.379026,2.3824011   L 82.341606,2.2510876   L 82.304187,2.1010151   L 82.266767,1.9697017   L 82.154509,1.7070748   L 82.004831,1.4444479   L 81.855153,1.2193391   L 81.668055,0.99423036   L 81.480958,0.80663973   L 81.256441,0.61904909   L 81.031924,0.46897658   L 80.769987,0.31890408   L 80.508051,0.2063497   L 80.377083,0.16883157   L 80.227405,0.13131344   L 80.096436,0.093795317   L 79.647402,0.037518127   L 2.8251721,0.037518127   L 2.3761381,0.093795317   L 2.2451699,0.13131344   L 2.0954919,0.16883157   L 1.9645237,0.2063497   L 1.7025872,0.31890408   L 1.4406507,0.46897658   L 1.2161337,0.61904909   L 0.99161671,0.80663973   L 0.80451922,0.99423036   L 0.61742172,1.2193391   L 0.46774373,1.4444479   L 0.31806574,1.7070748   L 0.20580724,1.9697017   L 0.16838774,2.1010151   L 0.13096824,2.2510876   L 0.093548746,2.3824011   L 0.037419498,2.8326186   L 0.037419498,116.85021   L 0.093548746,117.30042   L 0.13096824,117.43174   L 0.16838774,117.58181   L 0.20580724,117.71312   L 0.31806574,117.97575   L 0.46774373,118.23838   L 0.61742172,118.46349   L 0.80451922,118.68859   L 0.99161671,118.87618   L 1.2161337,119.06378   L 1.4406507,119.21385   L 1.7025872,119.36392   L 1.9645237,119.47647   L 2.0954919,119.51399   L 2.2451699,119.55151   L 2.3761381,119.58903   L 2.8251721,119.64531   L 79.647402,119.64531   L 80.096436,119.58903   L 80.227405,119.55151   L 80.377083,119.51399   L 80.508051,119.47647   L 80.769987,119.36392   L 81.031924,119.21385   L 81.256441,119.06378   L 81.480958,118.87618   L 81.668055,118.68859   L 81.855153,118.46349   L 82.004831,118.23838   L 82.154509,117.97575   L 82.266767,117.71312   L 82.304187,117.58181   L 82.341606,117.43174   L 82.379026,117.30042   L 82.435155,116.85021   L 82.435155,116.70013   L 82.435155,2.9826911   z "
     id="path65" />
  <path
     style="fill:#f7f7f7;fill-rule:evenodd;fill-opacity:1;stroke:#f7f7f7;stroke-width:0.093548745px;stroke-linecap:round;stroke-linejoin:round;stroke-miterlimit:4;stroke-dasharray:none;stroke-opacity:1;"
     d="  M 2.9748501,0.037518127   L 2.8251721,0.037518127   L 2.3761381,0.093795317   L 2.2451699,0.13131344   L 2.0954919,0.16883157   L 1.9645237,0.2063497   L 1.7025872,0.31890408   L 1.4406507,0.46897658   L 1.2161337,0.61904909   L 0.99161671,0.80663973   L 0.80451922,0.99423036   L 0.61742172,1.2193391   L 0.46774373,1.4444479   L 0.31806574,1.7070748   L 0.20580724,1.9697017   L 0.16838774,2.1010151   L 0.13096824,2.2510876   L 0.093548746,2.3824011   L 0.037419498,2.8326186   L 0.037419498,116.85021   L 0.093548746,117.30042   L 0.13096824,117.43174   L 0.16838774,117.58181   L 0.20580724,117.71312   L 0.31806574,117.97575   L 0.46774373,118.23838   L 0.61742172,118.46349   L 0.80451922,118.68859   L 0.99161671,118.87618   L 1.2161337,119.06378   L 1.4406507,119.21385   L 1.7025872,119.36392   L 1.9645237,119.47647   L 2.0954919,119.51399   L 2.2451699,119.55151   L 2.3761381,119.58903   L 2.8251721,119.64531   L 2.9748501,119.64531   L 2.9748501,0.37518127   L 2.9748501,0.037518127   z "
     id="path67" />
  <path
     style="fill:#dddddd;fill-rule:evenodd;fill-opacity:1;stroke:#dddddd;stroke-width:0.093548745px;stroke-linecap:round;stroke-linejoin:round;stroke-miterlimit:4;stroke-dasharray:none;stroke-opacity:1;"
     d="  M 79.497724,0.037518127   L 79.647402,0.037518127   L 80.096436,0.093795317   L 80.227405,0.13131344   L 80.377083,0.16883157   L 80.508051,0.2063497   L 80.769987,0.31890408   L 81.031924,0.46897658   L 81.256441,0.61904909   L 81.480958,0.80663973   L 81.668055,0.99423036   L 81.855153,1.2193391   L 82.004831,1.4444479   L 82.154509,1.7070748   L 82.266767,1.9697017   L 82.304187,2.1010151   L 82.341606,2.2510876   L 82.379026,2.3824011   L 82.435155,2.8326186   L 82.435155,116.85021   L 82.379026,117.30042   L 82.341606,117.43174   L 82.304187,117.58181   L 82.266767,117.71312   L 82.154509,117.97575   L 82.004831,118.23838   L 81.855153,118.46349   L 81.668055,118.68859   L 81.480958,118.87618   L 81.256441,119.06378   L 81.031924,119.21385   L 80.769987,119.36392   L 80.508051,119.47647   L 80.377083,119.51399   L 80.227405,119.55151   L 80.096436,119.58903   L 79.647402,119.64531   L 79.497724,119.64531   L 79.497724,0.37518127   L 79.497724,0.037518127   z "
     id="path69" />
  <path
     style="fill:none;stroke:#000000;stroke-width:0.093548745px;stroke-linecap:round;stroke-linejoin:round;stroke-miterlimit:4;stroke-dasharray:none;stroke-opacity:1;"
     d="  M 82.435155,2.9826911   L 82.435155,2.8326186   L 82.379026,2.3824011   L 82.341606,2.2510876   L 82.304187,2.1010151   L 82.266767,1.9697017   L 82.154509,1.7070748   L 82.004831,1.4444479   L 81.855153,1.2193391   L 81.668055,0.99423036   L 81.480958,0.80663973   L 81.256441,0.61904909   L 81.031924,0.46897658   L 80.769987,0.31890408   L 80.508051,0.2063497   L 80.377083,0.16883157   L 80.227405,0.13131344   L 80.096436,0.093795317   L 79.647402,0.037518127   L 2.8251721,0.037518127   L 2.3761381,0.093795317   L 2.2451699,0.13131344   L 2.0954919,0.16883157   L 1.9645237,0.2063497   L 1.7025872,0.31890408   L 1.4406507,0.46897658   L 1.2161337,0.61904909   L 0.99161671,0.80663973   L 0.80451922,0.99423036   L 0.61742172,1.2193391   L 0.46774373,1.4444479   L 0.31806574,1.7070748   L 0.20580724,1.9697017   L 0.16838774,2.1010151   L 0.13096824,2.2510876   L 0.093548746,2.3824011   L 0.037419498,2.8326186   L 0.037419498,116.85021   L 0.093548746,117.30042   L 0.13096824,117.43174   L 0.16838774,117.58181   L 0.20580724,117.71312   L 0.31806574,117.97575   L 0.46774373,118.23838   L 0.61742172,118.46349   L 0.80451922,118.68859   L 0.99161671,118.87618   L 1.2161337,119.06378   L 1.4406507,119.21385   L 1.7025872,119.36392   L 1.9645237,119.47647   L 2.0954919,119.51399   L 2.2451699,119.55151   L 2.3761381,119.58903   L 2.8251721,119.64531   L 79.647402,119.64531   L 80.096436,119.58903   L 80.227405,119.55151   L 80.377083,119.51399   L 80.508051,119.47647   L 80.769987,119.36392   L 81.031924,119.21385   L 81.256441,119.06378   L 81.480958,118.87618   L 81.668055,118.68859   L 81.855153,118.46349   L 82.004831,118.23838   L 82.154509,117.97575   L 82.266767,117.71312   L 82.304187,117.58181   L 82.341606,117.43174   L 82.379026,117.30042   L 82.435155,116.85021   L 82.435155,116.70013   L 82.435155,2.9826911   z "
     id="path71" />
  <path
     style="fill:#a5a5a5;fill-rule:evenodd;fill-opacity:1;stroke:#a5a5a5;stroke-width:0.018709749px;stroke-linecap:round;stroke-linejoin:round;stroke-miterlimit:4;stroke-dasharray:none;stroke-opacity:1;"
     d="  M 27.559461,58.059301   L 27.503331,58.059301   L 27.503331,58.040542   L 27.465912,58.040542   L 27.465912,58.021783   L 27.447202,58.021783   L 27.409783,57.984265   L 27.409783,57.965506   L 27.391073,57.965506   L 27.391073,57.927988   L 27.372363,57.927988   L 27.372363,55.189164   L 27.391073,55.189164   L 27.391073,55.151646   L 27.409783,55.151646   L 27.409783,55.132887   L 27.447202,55.095369   L 27.465912,55.095369   L 27.465912,55.07661   L 27.503331,55.07661   L 27.503331,55.057851   L 30.721408,55.057851   L 30.721408,55.07661   L 30.758828,55.07661   L 30.758828,55.095369   L 30.777537,55.095369   L 30.814957,55.132887   L 30.814957,55.151646   L 30.833667,55.151646   L 30.833667,55.189164   L 30.852376,55.189164   L 30.852376,55.751936   L 30.833667,55.733177   L 30.833667,55.714418   L 30.814957,55.714418   L 30.814957,55.695659   L 30.796247,55.695659   L 30.796247,55.6769   L 30.777537,55.6769   L 30.777537,55.658141   L 30.740118,55.658141   L 30.721408,55.639382   L 28.158173,55.639382   L 28.158173,55.658141   L 28.120753,55.658141   L 28.120753,55.6769   L 28.102043,55.6769   L 28.102043,55.695659   L 28.083334,55.695659   L 28.083334,55.733177   L 28.064624,55.733177   L 28.064624,57.946747   L 28.083334,57.965506   L 28.083334,58.003024   L 28.102043,58.003024   L 28.102043,58.021783   L 28.120753,58.021783   L 28.120753,58.040542   L 28.139463,58.040542   L 28.139463,58.059301   L 27.57817,58.059301   L 27.559461,58.059301   z "
     id="path73" />
  <path
     style="fill:#a5a5a5;fill-rule:evenodd;fill-opacity:1;stroke:#a5a5a5;stroke-width:0.018709749px;stroke-linecap:round;stroke-linejoin:round;stroke-miterlimit:4;stroke-dasharray:none;stroke-opacity:1;"
     d="  M 30.60915,56.333467   L 28.307851,56.333467   L 28.289141,56.314708   L 28.270431,56.314708   L 28.214302,56.258431   L 28.214302,56.239672   L 28.195592,56.220913   L 28.195592,56.821203   L 28.214302,56.821203   L 28.214302,56.858721   L 28.233012,56.858721   L 28.270431,56.896239   L 28.289141,56.896239   L 28.307851,56.914998   L 30.665279,56.914998   L 30.683989,56.896239   L 30.721408,56.87748   L 30.777537,56.821203   L 30.777537,56.802444   L 30.796247,56.783685   L 30.814957,56.746167   L 30.814957,56.727408   L 30.833667,56.708649   L 30.833667,56.633612   L 30.852376,56.614853   L 30.833667,56.596094   L 30.833667,56.521058   L 30.814957,56.48354   L 30.814957,56.464781   L 30.796247,56.464781   L 30.758828,56.427263   L 30.758828,56.408504   L 30.721408,56.370985   L 30.702698,56.370985   L 30.683989,56.352226   L 30.665279,56.352226   L 30.627859,56.333467   L 30.60915,56.333467   z "
     id="path75" />
  <path
     style="fill:#a5a5a5;fill-rule:evenodd;fill-opacity:1;stroke:#a5a5a5;stroke-width:0.018709749px;stroke-linecap:round;stroke-linejoin:round;stroke-miterlimit:4;stroke-dasharray:none;stroke-opacity:1;"
     d="  M 36.016267,56.914998   L 35.978848,56.914998   L 35.978848,56.896239   L 35.941428,56.896239   L 35.941428,56.87748   L 35.922718,56.87748   L 35.922718,56.858721   L 35.904009,56.858721   L 35.904009,56.821203   L 35.885299,56.821203   L 35.885299,56.220913   L 35.904009,56.239672   L 35.904009,56.258431   L 35.941428,56.295949   L 35.960138,56.295949   L 35.978848,56.314708   L 37.849823,56.314708   L 37.849823,55.639382   L 35.847879,55.639382   L 35.82917,55.658141   L 35.81046,55.658141   L 35.79175,55.6769   L 35.79175,55.695659   L 35.77304,55.695659   L 35.754331,55.714418   L 35.754331,55.733177   L 35.735621,55.751936   L 35.735621,57.946747   L 35.754331,57.946747   L 35.754331,57.984265   L 35.77304,58.003024   L 35.77304,58.021783   L 35.79175,58.021783   L 35.79175,58.040542   L 35.81046,58.040542   L 35.81046,58.059301   L 35.193038,58.059301   L 35.193038,58.040542   L 35.155619,58.040542   L 35.155619,58.021783   L 35.136909,58.021783   L 35.099489,57.984265   L 35.099489,57.965506   L 35.08078,57.965506   L 35.08078,57.927988   L 35.06207,57.927988   L 35.06207,55.189164   L 35.08078,55.189164   L 35.08078,55.151646   L 35.099489,55.151646   L 35.099489,55.132887   L 35.136909,55.095369   L 35.155619,55.095369   L 35.155619,55.07661   L 35.193038,55.07661   L 35.193038,55.057851   L 38.392405,55.057851   L 38.392405,55.07661   L 38.429825,55.07661   L 38.429825,55.095369   L 38.448535,55.095369   L 38.485954,55.132887   L 38.485954,55.151646   L 38.504664,55.151646   L 38.504664,55.189164   L 38.523374,55.189164   L 38.523374,56.67113   L 38.504664,56.68989   L 38.504664,56.727408   L 38.485954,56.727408   L 38.485954,56.764926   L 38.467244,56.764926   L 38.467244,56.783685   L 38.429825,56.821203   L 38.429825,56.839962   L 38.411115,56.839962   L 38.411115,56.858721   L 38.392405,56.858721   L 38.392405,56.87748   L 38.373696,56.87748   L 38.336276,56.914998   L 38.373696,56.952516   L 38.392405,56.952516   L 38.392405,56.971276   L 38.411115,56.971276   L 38.411115,56.990035   L 38.429825,56.990035   L 38.429825,57.008794   L 38.467244,57.046312   L 38.467244,57.065071   L 38.485954,57.065071   L 38.485954,57.102589   L 38.504664,57.102589   L 38.504664,57.140107   L 38.523374,57.158866   L 38.523374,57.946747   L 38.542083,57.946747   L 38.542083,57.984265   L 38.560793,58.003024   L 38.560793,58.021783   L 38.579503,58.021783   L 38.579503,58.040542   L 38.598213,58.040542   L 38.598213,58.059301   L 37.980791,58.059301   L 37.980791,58.040542   L 37.943371,58.040542   L 37.943371,58.021783   L 37.924662,58.021783   L 37.887242,57.984265   L 37.887242,57.965506   L 37.868532,57.965506   L 37.868532,57.927988   L 37.849823,57.927988   L 37.849823,56.914998   L 36.034977,56.914998   L 36.016267,56.914998   z "
     id="path77" />
  <path
     style="fill:#a5a5a5;fill-rule:evenodd;fill-opacity:1;stroke:#a5a5a5;stroke-width:0.018709749px;stroke-linecap:round;stroke-linejoin:round;stroke-miterlimit:4;stroke-dasharray:none;stroke-opacity:1;"
     d="  M 39.720798,55.639382   L 39.009827,55.639382   L 39.009827,55.620623   L 38.972408,55.620623   L 38.972408,55.601864   L 38.953698,55.601864   L 38.916278,55.564346   L 38.916278,55.545587   L 38.897569,55.545587   L 38.897569,55.508069   L 38.878859,55.508069   L 38.878859,55.189164   L 38.897569,55.189164   L 38.897569,55.151646   L 38.916278,55.151646   L 38.916278,55.132887   L 38.953698,55.095369   L 38.972408,55.095369   L 38.972408,55.07661   L 39.009827,55.07661   L 39.009827,55.057851   L 42.227904,55.057851   L 42.227904,55.07661   L 42.265323,55.07661   L 42.265323,55.095369   L 42.284033,55.095369   L 42.321453,55.132887   L 42.321453,55.151646   L 42.340162,55.151646   L 42.340162,55.189164   L 42.358872,55.189164   L 42.358872,55.751936   L 42.340162,55.733177   L 42.340162,55.714418   L 42.321453,55.714418   L 42.321453,55.695659   L 42.302743,55.695659   L 42.302743,55.6769   L 42.284033,55.6769   L 42.284033,55.658141   L 42.246614,55.658141   L 42.227904,55.639382   L 40.506607,55.639382   L 40.506607,55.658141   L 40.469188,55.658141   L 40.469188,55.6769   L 40.450478,55.6769   L 40.450478,55.695659   L 40.431768,55.695659   L 40.431768,55.733177   L 40.413058,55.733177   L 40.413058,57.946747   L 40.431768,57.965506   L 40.431768,58.003024   L 40.450478,58.003024   L 40.450478,58.021783   L 40.469188,58.021783   L 40.469188,58.040542   L 40.487897,58.040542   L 40.487897,58.059301   L 39.851766,58.059301   L 39.851766,58.040542   L 39.814346,58.040542   L 39.814346,58.021783   L 39.795637,58.021783   L 39.758217,57.984265   L 39.758217,57.965506   L 39.739507,57.965506   L 39.739507,57.927988   L 39.720798,57.927988   L 39.720798,55.714418   L 39.720798,55.639382   z "
     id="path79" />
  <path
     style="fill:#a5a5a5;fill-rule:evenodd;fill-opacity:1;stroke:#a5a5a5;stroke-width:0.018709749px;stroke-linecap:round;stroke-linejoin:round;stroke-miterlimit:4;stroke-dasharray:none;stroke-opacity:1;"
     d="  M 43.425328,57.89047   L 43.425328,57.946747   L 43.444038,57.965506   L 43.444038,58.003024   L 43.462747,58.003024   L 43.462747,58.021783   L 43.481457,58.021783   L 43.481457,58.040542   L 43.500167,58.040542   L 43.500167,58.059301   L 42.864035,58.059301   L 42.864035,58.040542   L 42.826616,58.040542   L 42.826616,58.021783   L 42.807906,58.021783   L 42.770487,57.984265   L 42.770487,57.965506   L 42.751777,57.965506   L 42.751777,57.927988   L 42.733067,57.927988   L 42.733067,55.170405   L 42.714357,55.151646   L 42.714357,55.114128   L 42.695648,55.114128   L 42.695648,55.095369   L 42.676938,55.095369   L 42.676938,55.07661   L 42.658228,55.07661   L 42.658228,55.057851   L 43.29436,55.057851   L 43.29436,55.07661   L 43.331779,55.07661   L 43.331779,55.095369   L 43.350489,55.095369   L 43.387908,55.132887   L 43.387908,55.151646   L 43.406618,55.151646   L 43.406618,55.189164   L 43.425328,55.189164   L 43.425328,57.852951   L 43.425328,57.89047   z "
     id="path81" />
  <path
     style="fill:#a5a5a5;fill-rule:evenodd;fill-opacity:1;stroke:#a5a5a5;stroke-width:0.018709749px;stroke-linecap:round;stroke-linejoin:round;stroke-miterlimit:4;stroke-dasharray:none;stroke-opacity:1;"
     d="  M 46.736953,55.639382   L 44.73501,55.639382   L 44.716301,55.658141   L 44.697591,55.658141   L 44.678881,55.6769   L 44.678881,55.695659   L 44.660171,55.695659   L 44.641462,55.714418   L 44.641462,55.733177   L 44.622752,55.751936   L 44.622752,57.946747   L 44.641462,57.946747   L 44.641462,57.984265   L 44.660171,58.003024   L 44.660171,58.021783   L 44.678881,58.021783   L 44.678881,58.040542   L 44.697591,58.040542   L 44.697591,58.059301   L 44.080169,58.059301   L 44.080169,58.040542   L 44.04275,58.040542   L 44.04275,58.021783   L 44.02404,58.021783   L 43.98662,57.984265   L 43.98662,57.965506   L 43.967911,57.965506   L 43.967911,57.927988   L 43.949201,57.927988   L 43.949201,55.189164   L 43.967911,55.189164   L 43.967911,55.151646   L 43.98662,55.151646   L 43.98662,55.132887   L 44.02404,55.095369   L 44.04275,55.095369   L 44.04275,55.07661   L 44.080169,55.07661   L 44.080169,55.057851   L 47.279536,55.057851   L 47.279536,55.07661   L 47.316956,55.07661   L 47.316956,55.095369   L 47.335665,55.095369   L 47.373085,55.132887   L 47.373085,55.151646   L 47.391795,55.151646   L 47.391795,55.189164   L 47.410504,55.189164   L 47.410504,57.946747   L 47.429214,57.946747   L 47.429214,57.984265   L 47.447924,58.003024   L 47.447924,58.021783   L 47.466634,58.021783   L 47.466634,58.040542   L 47.485343,58.040542   L 47.485343,58.059301   L 46.867922,58.059301   L 46.867922,58.040542   L 46.830502,58.040542   L 46.830502,58.021783   L 46.811792,58.021783   L 46.774373,57.984265   L 46.774373,57.965506   L 46.755663,57.965506   L 46.755663,57.927988   L 46.736953,57.927988   L 46.736953,55.714418   L 46.736953,55.639382   z "
     id="path83" />
  <path
     style="fill:#a5a5a5;fill-rule:evenodd;fill-opacity:1;stroke:#a5a5a5;stroke-width:0.018709749px;stroke-linecap:round;stroke-linejoin:round;stroke-miterlimit:4;stroke-dasharray:none;stroke-opacity:1;"
     d="  M 50.853098,56.333467   L 48.682767,56.333467   L 48.682767,56.314708   L 48.645348,56.314708   L 48.645348,56.295949   L 48.626638,56.295949   L 48.626638,56.27719   L 48.607928,56.258431   L 48.607928,56.239672   L 48.589219,56.220913   L 48.589219,56.821203   L 48.607928,56.821203   L 48.607928,56.858721   L 48.626638,56.858721   L 48.626638,56.87748   L 48.645348,56.87748   L 48.645348,56.896239   L 48.682767,56.896239   L 48.682767,56.914998   L 50.871808,56.914998   L 50.890518,56.896239   L 50.927937,56.87748   L 51.002776,56.802444   L 51.002776,56.783685   L 51.021486,56.746167   L 51.021486,56.727408   L 51.040196,56.708649   L 51.040196,56.67113   L 51.058906,56.633612   L 51.058906,56.577335   L 51.040196,56.558576   L 51.040196,56.48354   L 50.984067,56.427263   L 50.984067,56.408504   L 50.946647,56.370985   L 50.927937,56.370985   L 50.909228,56.352226   L 50.890518,56.352226   L 50.871808,56.333467   L 50.853098,56.333467   z "
     id="path85" />
  <path
     style="fill:#a5a5a5;fill-rule:evenodd;fill-opacity:1;stroke:#a5a5a5;stroke-width:0.018709749px;stroke-linecap:round;stroke-linejoin:round;stroke-miterlimit:4;stroke-dasharray:none;stroke-opacity:1;"
     d="  M 52.462137,55.639382   L 51.751166,55.639382   L 51.751166,55.620623   L 51.713747,55.620623   L 51.713747,55.601864   L 51.695037,55.601864   L 51.657618,55.564346   L 51.657618,55.545587   L 51.638908,55.545587   L 51.638908,55.508069   L 51.620198,55.508069   L 51.620198,55.189164   L 51.638908,55.189164   L 51.638908,55.151646   L 51.657618,55.151646   L 51.657618,55.132887   L 51.695037,55.095369   L 51.713747,55.095369   L 51.713747,55.07661   L 51.751166,55.07661   L 51.751166,55.057851   L 54.969243,55.057851   L 54.969243,55.07661   L 55.006663,55.07661   L 55.006663,55.095369   L 55.025372,55.095369   L 55.062792,55.132887   L 55.062792,55.151646   L 55.081502,55.151646   L 55.081502,55.189164   L 55.100211,55.189164   L 55.100211,55.751936   L 55.081502,55.733177   L 55.081502,55.714418   L 55.062792,55.714418   L 55.062792,55.695659   L 55.044082,55.695659   L 55.044082,55.6769   L 55.025372,55.6769   L 55.025372,55.658141   L 54.987953,55.658141   L 54.969243,55.639382   L 53.247946,55.639382   L 53.247946,55.658141   L 53.210527,55.658141   L 53.210527,55.6769   L 53.191817,55.6769   L 53.191817,55.695659   L 53.173107,55.695659   L 53.173107,55.733177   L 53.154397,55.733177   L 53.154397,57.946747   L 53.173107,57.965506   L 53.173107,58.003024   L 53.191817,58.003024   L 53.191817,58.021783   L 53.210527,58.021783   L 53.210527,58.040542   L 53.229236,58.040542   L 53.229236,58.059301   L 52.593105,58.059301   L 52.593105,58.040542   L 52.555685,58.040542   L 52.555685,58.021783   L 52.536976,58.021783   L 52.499556,57.984265   L 52.499556,57.965506   L 52.480846,57.965506   L 52.480846,57.927988   L 52.462137,57.927988   L 52.462137,55.714418   L 52.462137,55.639382   z "
     id="path87" />
  <path
     style="fill:#a5a5a5;fill-rule:evenodd;fill-opacity:1;stroke:#a5a5a5;stroke-width:0.018709749px;stroke-linecap:round;stroke-linejoin:round;stroke-miterlimit:4;stroke-dasharray:none;stroke-opacity:1;"
     d="  M 51.096325,57.47777   L 51.133745,57.47777   L 51.152454,57.459011   L 51.189874,57.459011   L 51.189874,57.440252   L 51.208584,57.440252   L 51.208584,57.421493   L 51.227293,57.421493   L 51.227293,57.402734   L 51.246003,57.402734   L 51.246003,57.383975   L 51.264713,57.365216   L 51.264713,57.927988   L 51.246003,57.927988   L 51.246003,57.965506   L 51.227293,57.965506   L 51.227293,57.984265   L 51.189874,58.021783   L 51.171164,58.021783   L 51.171164,58.040542   L 51.133745,58.040542   L 51.133745,58.059301   L 47.915668,58.059301   L 47.915668,58.040542   L 47.878248,58.040542   L 47.878248,58.021783   L 47.859538,58.021783   L 47.822119,57.984265   L 47.822119,57.965506   L 47.803409,57.965506   L 47.803409,57.927988   L 47.784699,57.927988   L 47.784699,55.189164   L 47.803409,55.189164   L 47.803409,55.151646   L 47.822119,55.151646   L 47.822119,55.132887   L 47.859538,55.095369   L 47.878248,55.095369   L 47.878248,55.07661   L 47.915668,55.07661   L 47.915668,55.057851   L 51.133745,55.057851   L 51.133745,55.07661   L 51.171164,55.07661   L 51.171164,55.095369   L 51.189874,55.095369   L 51.227293,55.132887   L 51.227293,55.151646   L 51.246003,55.151646   L 51.246003,55.189164   L 51.264713,55.189164   L 51.264713,55.751936   L 51.246003,55.733177   L 51.246003,55.714418   L 51.227293,55.714418   L 51.227293,55.695659   L 51.208584,55.695659   L 51.208584,55.6769   L 51.189874,55.6769   L 51.189874,55.658141   L 51.152454,55.658141   L 51.133745,55.639382   L 48.570509,55.639382   L 48.570509,55.658141   L 48.533089,55.658141   L 48.533089,55.6769   L 48.51438,55.6769   L 48.51438,55.695659   L 48.49567,55.695659   L 48.49567,55.733177   L 48.47696,55.733177   L 48.47696,57.47777   L 51.058906,57.47777   L 51.096325,57.47777   z "
     id="path89" />
  <path
     style="fill:#a5a5a5;fill-rule:evenodd;fill-opacity:1;stroke:#a5a5a5;stroke-width:0.018709749px;stroke-linecap:round;stroke-linejoin:round;stroke-miterlimit:4;stroke-dasharray:none;stroke-opacity:1;"
     d="  M 32.386576,57.177625   L 32.386576,58.059301   L 33.509161,58.059301   L 33.509161,57.177625   L 32.386576,57.177625   z "
     id="path91" />
  <path
     style="fill:#a5a5a5;fill-rule:evenodd;fill-opacity:1;stroke:#a5a5a5;stroke-width:0.018709749px;stroke-linecap:round;stroke-linejoin:round;stroke-miterlimit:4;stroke-dasharray:none;stroke-opacity:1;"
     d="  M 31.226571,56.127118   L 32.180769,56.127118   L 32.180769,56.990035   L 31.226571,56.990035   L 31.226571,56.127118   z "
     id="path93" />
  <path
     style="fill:#a5a5a5;fill-rule:evenodd;fill-opacity:1;stroke:#a5a5a5;stroke-width:0.018709749px;stroke-linecap:round;stroke-linejoin:round;stroke-miterlimit:4;stroke-dasharray:none;stroke-opacity:1;"
     d="  M 33.733678,57.196384   L 33.733678,58.07806   L 34.033034,58.07806   L 34.070453,58.059301   L 34.164002,58.059301   L 34.238841,58.021783   L 34.276261,58.021783   L 34.388519,57.965506   L 34.444648,57.909229   L 34.482068,57.89047   L 34.519487,57.815433   L 34.556907,57.777915   L 34.575617,57.740397   L 34.594326,57.68412   L 34.613036,57.646602   L 34.669165,57.47777   L 34.669165,57.421493   L 34.687875,57.346457   L 34.687875,57.196384   L 33.752388,57.196384   L 33.733678,57.196384   z "
     id="path95" />
  <path
     style="fill:#a5a5a5;fill-rule:evenodd;fill-opacity:1;stroke:#a5a5a5;stroke-width:0.018709749px;stroke-linecap:round;stroke-linejoin:round;stroke-miterlimit:4;stroke-dasharray:none;stroke-opacity:1;"
     d="  M 33.733678,56.127118   L 34.687875,56.127118   L 34.687875,56.990035   L 33.733678,56.990035   L 33.733678,56.127118   z "
     id="path97" />
  <path
     style="fill:#a5a5a5;fill-rule:evenodd;fill-opacity:1;stroke:#a5a5a5;stroke-width:0.018709749px;stroke-linecap:round;stroke-linejoin:round;stroke-miterlimit:4;stroke-dasharray:none;stroke-opacity:1;"
     d="  M 32.180769,57.196384   L 32.180769,58.07806   L 31.881413,58.07806   L 31.843993,58.059301   L 31.750444,58.059301   L 31.675605,58.021783   L 31.638186,58.021783   L 31.563347,57.984265   L 31.544637,57.965506   L 31.507218,57.946747   L 31.469798,57.909229   L 31.432379,57.89047   L 31.394959,57.815433   L 31.35754,57.777915   L 31.33883,57.740397   L 31.32012,57.68412   L 31.30141,57.646602   L 31.245281,57.47777   L 31.245281,57.421493   L 31.226571,57.346457   L 31.226571,57.196384   L 32.162059,57.196384   L 32.180769,57.196384   z "
     id="path99" />
  <path
     style="fill:#a5a5a5;fill-rule:evenodd;fill-opacity:1;stroke:#a5a5a5;stroke-width:0.018709749px;stroke-linecap:round;stroke-linejoin:round;stroke-miterlimit:4;stroke-dasharray:none;stroke-opacity:1;"
     d="  M 32.386576,55.039092   L 32.386576,55.920768   L 33.509161,55.920768   L 33.509161,55.039092   L 32.386576,55.039092   z "
     id="path101" />
  <path
     style="fill:#a5a5a5;fill-rule:evenodd;fill-opacity:1;stroke:#a5a5a5;stroke-width:0.018709749px;stroke-linecap:round;stroke-linejoin:round;stroke-miterlimit:4;stroke-dasharray:none;stroke-opacity:1;"
     d="  M 33.733678,55.920768   L 33.733678,55.039092   L 34.033034,55.039092   L 34.070453,55.057851   L 34.164002,55.057851   L 34.238841,55.095369   L 34.276261,55.095369   L 34.388519,55.151646   L 34.444648,55.207924   L 34.482068,55.226683   L 34.519487,55.301719   L 34.556907,55.339237   L 34.575617,55.376755   L 34.594326,55.433032   L 34.613036,55.47055   L 34.669165,55.639382   L 34.669165,55.695659   L 34.687875,55.770695   L 34.687875,55.920768   L 33.752388,55.920768   L 33.733678,55.920768   z "
     id="path103" />
  <path
     style="fill:#a5a5a5;fill-rule:evenodd;fill-opacity:1;stroke:#a5a5a5;stroke-width:0.018709749px;stroke-linecap:round;stroke-linejoin:round;stroke-miterlimit:4;stroke-dasharray:none;stroke-opacity:1;"
     d="  M 32.180769,55.920768   L 32.180769,55.039092   L 31.881413,55.039092   L 31.843993,55.057851   L 31.750444,55.057851   L 31.675605,55.095369   L 31.638186,55.095369   L 31.563347,55.132887   L 31.544637,55.151646   L 31.507218,55.170405   L 31.469798,55.207924   L 31.432379,55.226683   L 31.394959,55.301719   L 31.35754,55.339237   L 31.33883,55.376755   L 31.32012,55.433032   L 31.30141,55.47055   L 31.245281,55.639382   L 31.245281,55.695659   L 31.226571,55.770695   L 31.226571,55.920768   L 32.162059,55.920768   L 32.180769,55.920768   z "
     id="path105" />
  <text
     xml:space="preserve"
     style="font-size:2.937500px;font-style:normal;font-variant:normal;font-weight:400;font-stretch:Normal;line-height:125.000000%;letter-spacing:0px;word-spacing:0px;fill:#000000;fill-opacity:1;stroke:none;font-family:Arial;text-align:start;text-anchor:start;"
     transform="matrix(1.000000,-0.000000,0.000000,1.000000,34.744004,63.930888)"
     x="0.000000"
     y="0.000000"
     id="text125"><tspan
       x="0.000000"
       y="0.000000"
       id="tspan123"><tspan
         dx="0.000000"
         dy="0.000000"
         style="fill:#A5A5A5;font-size:2.937500px;font-style:normal;font-variant:normal;font-weight:400;font-stretch:Normal;font-family:Arial;"
         id="tspan107">F</tspan><tspan
         dx="0.000000"
         dy="0.000000"
         style="fill:#A5A5A5;font-size:2.937500px;font-style:normal;font-variant:normal;font-weight:400;font-stretch:Normal;font-family:Arial;"
         id="tspan109">A</tspan><tspan
         dx="0.000000"
         dy="0.000000"
         style="fill:#A5A5A5;font-size:2.937500px;font-style:normal;font-variant:normal;font-weight:400;font-stretch:Normal;font-family:Arial;"
         id="tspan111">P</tspan><tspan
         dx="0.000000"
         dy="0.000000"
         style="fill:#A5A5A5;font-size:2.937500px;font-style:normal;font-variant:normal;font-weight:400;font-stretch:Normal;font-family:Arial;"
         id="tspan113">-</tspan><tspan
         dx="0.000000"
         dy="0.000000"
         style="fill:#A5A5A5;font-size:2.937500px;font-style:normal;font-variant:normal;font-weight:400;font-stretch:Normal;font-family:Arial;"
         id="tspan115">x</tspan><tspan
         dx="0.000000"
         dy="0.000000"
         style="fill:#A5A5A5;font-size:2.937500px;font-style:normal;font-variant:normal;font-weight:400;font-stretch:Normal;font-family:Arial;"
         id="tspan117">x</tspan><tspan
         dx="0.000000"
         dy="0.000000"
         style="fill:#A5A5A5;font-size:2.937500px;font-style:normal;font-variant:normal;font-weight:400;font-stretch:Normal;font-family:Arial;"
         id="tspan119">x</tspan><tspan
         dx="0.000000"
         dy="0.000000"
         style="fill:#A5A5A5;font-size:2.937500px;font-style:normal;font-variant:normal;font-weight:400;font-stretch:Normal;font-family:Arial;"
         id="tspan121">F</tspan></tspan></text>
  <text
     xml:space="preserve"
     style="font-size:0.625000px;font-style:normal;font-variant:normal;font-weight:400;font-stretch:Condensed;line-height:125.000000%;letter-spacing:0px;word-spacing:0px;fill:#000000;fill-opacity:1;stroke:none;font-family:Times New Roman;text-align:start;text-anchor:start;"
     transform="matrix(1.000000,-0.000000,0.000000,1.000000,34.744004,63.930888)"
     x="19.083944"
     y="-5.909105"
     id="text131"><tspan
       x="19.083944"
       y="-5.909105"
       id="tspan129"><tspan
         dx="0.000000"
         dy="0.000000"
         style="fill:#A5A5A5;font-size:0.625000px;font-style:normal;font-variant:normal;font-weight:400;font-stretch:Condensed;font-family:Times New Roman;"
         id="tspan127">®</tspan></tspan></text>
  <path
     style="fill:none;stroke:#000000;stroke-width:0.0080939764px;stroke-linecap:round;stroke-linejoin:round;stroke-miterlimit:4;stroke-dasharray:none;stroke-opacity:1;"
     d="  M 18.624239,129.38122   L 18.34095,129.38122   L 18.34095,129.66518   L 18.624239,129.66518   L 18.624239,129.38122   z "
     id="path133" />
  <path
     style="fill:none;stroke:#000000;stroke-width:0.0080939764px;stroke-linecap:round;stroke-linejoin:round;stroke-miterlimit:4;stroke-dasharray:none;stroke-opacity:1;"
     d="  M 41.384501,129.38122   L 41.101211,129.38122   L 41.101211,129.66518   L 41.384501,129.66518   L 41.384501,129.38122   z "
     id="path135" />
  <path
     style="fill:none;stroke:#000000;stroke-width:0.0080939764px;stroke-linecap:round;stroke-linejoin:round;stroke-miterlimit:4;stroke-dasharray:none;stroke-opacity:1;"
     d="  M 63.99907,129.38122   L 63.715781,129.38122   L 63.715781,129.66518   L 63.99907,129.66518   L 63.99907,129.38122   z "
     id="path137" />
</svg>
