<?xml version="1.0" encoding="UTF-8" standalone="no"?>
<svg
   version="1.0"
   width="16.540001mm"
   height="11.02mm"
   id="svg173"
   xmlns="http://www.w3.org/2000/svg"
   xmlns:svg="http://www.w3.org/2000/svg">
  <defs
     id="defs3">
    <pattern
       id="EMFhbasepattern"
       patternUnits="userSpaceOnUse"
       width="6"
       height="6"
       x="0"
       y="0" />
  </defs>
  <path
     style="fill:#eaeaea;fill-rule:evenodd;fill-opacity:1;stroke:#000000;stroke-width:0.018704921px;stroke-linecap:round;stroke-linejoin:round;stroke-miterlimit:4;stroke-dasharray:none;stroke-opacity:1;"
     d="  M 31.854479,27.522753   M 31.087578,27.391334   M 31.536496,27.503979   M 31.536496,27.503979   M 30.60125,27.503979   M 58.714745,32.986   L 58.714745,34.807083   L 58.73345,34.807083   L 58.73345,34.844631   L 58.752155,34.863405   L 58.77086,34.863405   L 58.77086,34.882179   L 58.88309,34.882179   L 58.88309,34.863405   L 58.920499,34.863405   L 58.939204,34.844631   L 58.957909,34.844631   L 58.957909,34.825857   L 58.976614,34.807083   L 58.995319,34.807083   L 59.219778,34.581794   L 59.257188,34.56302   L 59.275893,34.525472   L 59.87445,33.924703   L 59.87445,33.905929   L 59.91186,33.868381   L 59.91186,33.849607   L 59.930565,33.830832   L 59.930565,33.77451   L 59.94927,33.755736   L 59.94927,33.736962   L 59.967975,33.718188   L 59.967975,33.661866   L 59.98668,33.643092   L 59.98668,33.567996   L 60.005385,33.530448   L 60.005385,33.417803   L 60.02409,33.380255   L 60.02409,31.671817   L 58.73345,32.967226   L 58.714745,32.986   z "
     id="path5" />
  <path
     style="fill:#dddddd;fill-rule:evenodd;fill-opacity:1;stroke:#000000;stroke-width:0.018704921px;stroke-linecap:round;stroke-linejoin:round;stroke-miterlimit:4;stroke-dasharray:none;stroke-opacity:1;"
     d="  M 58.714745,32.986   L 58.714745,34.807083   L 58.73345,34.807083   L 58.73345,34.844631   L 58.77086,34.882179   L 58.88309,34.882179   L 58.88309,34.863405   L 58.864385,34.863405   L 58.864385,34.882179   L 58.789565,34.882179   L 58.789565,34.900953   L 58.73345,34.900953   L 58.73345,34.919727   L 58.65863,34.919727   L 58.639926,34.938501   L 58.490286,34.938501   L 58.471581,34.919727   L 58.396762,34.919727   L 58.378057,34.900953   L 58.359352,34.900953   L 58.303237,34.844631   L 58.303237,34.731987   L 58.284532,34.656891   L 58.284532,34.600568   L 58.265827,34.525472   L 58.265827,34.450376   L 58.247122,34.394054   L 58.247122,34.318958   L 58.228417,34.262636   L 58.228417,34.206313   L 58.209712,34.149991   L 58.209712,34.093669   L 58.191007,34.037347   L 58.191007,33.981025   L 58.172303,33.924703   L 58.172303,33.830832   L 58.153598,33.793284   L 58.153598,33.718188   L 58.134893,33.68064   L 58.134893,33.605544   L 58.116188,33.58677   L 58.116188,33.511674   L 58.097483,33.4929   L 58.097483,33.455352   L 58.134893,33.417803   L 58.153598,33.417803   L 58.209712,33.361481   L 58.247122,33.342707   L 58.284532,33.305159   L 58.321942,33.286385   L 58.340647,33.267611   L 58.415467,33.230063   L 58.434171,33.192515   L 58.471581,33.173741   L 58.490286,33.154967   L 58.527696,33.136193   L 58.565106,33.098645   L 58.602516,33.079871   L 58.65863,33.023548   L 58.677335,33.023548   L 58.69604,33.004774   L 58.714745,32.986   z "
     id="path7" />
  <path
     style="fill:#eaeaea;fill-rule:evenodd;fill-opacity:1;stroke:#000000;stroke-width:0.018704921px;stroke-linecap:round;stroke-linejoin:round;stroke-miterlimit:4;stroke-dasharray:none;stroke-opacity:1;"
     d="  M 3.9654431,32.986   L 3.9654431,34.807083   L 3.9467382,34.807083   L 3.9467382,34.844631   L 3.9280333,34.863405   L 3.9093284,34.863405   L 3.9093284,34.882179   L 3.7970988,34.882179   L 3.7970988,34.863405   L 3.759689,34.863405   L 3.7409841,34.844631   L 3.7222792,34.844631   L 3.7222792,34.825857   L 3.7035742,34.807083   L 3.6848693,34.807083   L 2.8057381,33.924703   L 2.8057381,33.905929   L 2.7683282,33.868381   L 2.7683282,33.849607   L 2.7496233,33.830832   L 2.7496233,33.77451   L 2.7309184,33.755736   L 2.7309184,33.736962   L 2.7122135,33.718188   L 2.7122135,33.661866   L 2.6935085,33.643092   L 2.6935085,33.567996   L 2.6748036,33.530448   L 2.6748036,33.417803   L 2.6560987,33.380255   L 2.6560987,31.671817   L 3.9467382,32.967226   L 3.9654431,32.986   z "
     id="path9" />
  <path
     style="fill:#dddddd;fill-rule:evenodd;fill-opacity:1;stroke:#000000;stroke-width:0.018704921px;stroke-linecap:round;stroke-linejoin:round;stroke-miterlimit:4;stroke-dasharray:none;stroke-opacity:1;"
     d="  M 3.9654431,32.986   L 3.9654431,34.807083   L 3.9467382,34.807083   L 3.9467382,34.844631   L 3.9093284,34.882179   L 3.7970988,34.882179   L 3.7970988,34.863405   L 3.8158038,34.863405   L 3.8158038,34.882179   L 3.8906235,34.882179   L 3.8906235,34.900953   L 3.9467382,34.900953   L 3.9467382,34.919727   L 4.0215579,34.919727   L 4.0402628,34.938501   L 4.1899022,34.938501   L 4.2086071,34.919727   L 4.2834268,34.919727   L 4.3021317,34.900953   L 4.3208366,34.900953   L 4.3769514,34.844631   L 4.3769514,34.731987   L 4.3956563,34.656891   L 4.3956563,34.600568   L 4.4143612,34.525472   L 4.4143612,34.450376   L 4.4330661,34.394054   L 4.4330661,34.318958   L 4.4517711,34.262636   L 4.4517711,34.206313   L 4.470476,34.149991   L 4.470476,34.093669   L 4.4891809,34.037347   L 4.4891809,33.981025   L 4.5078858,33.924703   L 4.5078858,33.830832   L 4.5265907,33.793284   L 4.5265907,33.718188   L 4.5452957,33.68064   L 4.5452957,33.605544   L 4.5640006,33.58677   L 4.5640006,33.511674   L 4.5827055,33.4929   L 4.5827055,33.455352   L 4.5452957,33.417803   L 4.5265907,33.417803   L 4.470476,33.361481   L 4.4330661,33.342707   L 4.3956563,33.305159   L 4.3582465,33.286385   L 4.3395415,33.267611   L 4.3021317,33.248837   L 4.2460169,33.192515   L 4.2086071,33.173741   L 4.1899022,33.154967   L 4.1524923,33.136193   L 4.1150825,33.098645   L 4.0776727,33.079871   L 4.0215579,33.023548   L 4.002853,33.023548   L 3.9841481,33.004774   L 3.9654431,32.986   z "
     id="path11" />
  <path
     style="fill:#eaeaea;fill-rule:evenodd;fill-opacity:1;stroke:#000000;stroke-width:0.093524605px;stroke-linecap:round;stroke-linejoin:round;stroke-miterlimit:4;stroke-dasharray:none;stroke-opacity:1;"
     d="  M 62.287385,15.807747   L 62.249975,16.615031   L 62.119041,17.422316   L 61.931992,18.210825   L 61.651418,18.999335   L 61.314729,19.750297   L 60.884516,20.501259   L 60.398188,21.233447   L 59.83704,21.965635   L 59.219778,22.660275   L 58.527696,23.33614   L 57.779499,23.993232   L 56.975188,24.63155   L 56.096056,25.251093   L 55.179515,25.851863   L 54.206859,26.433858   L 53.178089,26.978305   L 52.093203,27.503979   L 50.952203,27.992104   L 49.792498,28.461455   L 48.557973,28.912032   L 47.304744,29.306287   L 45.995399,29.700542   L 44.648645,30.038475   L 43.283186,30.357634   L 41.861612,30.639245   L 40.421333,30.883307   L 38.943644,31.108596   L 37.428546,31.277562   L 35.894742,31.40898   L 34.342234,31.521625   L 32.771021,31.577947   L 31.162397,31.596721   L 29.553774,31.577947   L 27.982561,31.521625   L 26.430053,31.40898   L 24.896249,31.277562   L 23.381151,31.108596   L 21.903462,30.883307   L 20.463183,30.639245   L 19.041609,30.357634   L 17.67615,30.038475   L 16.329396,29.700542   L 15.020051,29.306287   L 13.766821,28.912032   L 12.532297,28.461455   L 11.372592,27.992104   L 10.231591,27.503979   L 9.1467061,26.978305   L 8.1179355,26.433858   L 7.1452796,25.851863   L 6.2287385,25.251093   L 5.3496072,24.63155   L 4.5452957,23.993232   L 3.7970988,23.33614   L 3.1050168,22.660275   L 2.4877544,21.965635   L 1.9266068,21.233447   L 1.4402789,20.501259   L 1.0100657,19.750297   L 0.67337714,18.999335   L 0.39280333,18.210825   L 0.20575412,17.422316   L 0.074819682,16.615031   L 0.037409841,15.807747   L 0.037409841,25.870637   L 0.074819682,26.677921   L 0.20575412,27.485205   L 0.39280333,28.273715   L 0.67337714,29.062225   L 1.0100657,29.813186   L 1.4402789,30.564148   L 1.9266068,31.296336   L 2.4877544,32.028524   L 3.1050168,32.723164   L 3.7970988,33.399029   L 4.5452957,34.056121   L 5.3496072,34.694439   L 6.2287385,35.313982   L 7.1452796,35.914752   L 8.1179355,36.496747   L 9.1467061,37.041195   L 10.231591,37.566868   L 11.372592,38.054993   L 12.532297,38.524344   L 13.766821,38.974921   L 15.020051,39.369176   L 16.329396,39.763431   L 17.67615,40.101364   L 19.041609,40.420523   L 20.463183,40.702134   L 21.903462,40.946196   L 23.381151,41.171485   L 24.896249,41.340451   L 26.430053,41.47187   L 27.982561,41.584514   L 29.553774,41.640836   L 31.162397,41.65961   L 32.771021,41.640836   L 34.342234,41.584514   L 35.894742,41.47187   L 37.428546,41.340451   L 38.943644,41.171485   L 40.421333,40.946196   L 41.861612,40.702134   L 43.283186,40.420523   L 44.648645,40.101364   L 45.995399,39.763431   L 47.304744,39.369176   L 48.557973,38.974921   L 49.792498,38.524344   L 50.952203,38.054993   L 52.093203,37.566868   L 53.178089,37.041195   L 54.206859,36.496747   L 55.179515,35.914752   L 56.096056,35.313982   L 56.975188,34.694439   L 57.779499,34.056121   L 58.527696,33.399029   L 59.219778,32.723164   L 59.83704,32.028524   L 60.398188,31.296336   L 60.884516,30.564148   L 61.314729,29.813186   L 61.651418,29.062225   L 61.931992,28.273715   L 62.119041,27.485205   L 62.249975,26.677921   L 62.287385,25.870637   L 62.287385,15.845296   L 62.287385,15.807747   z "
     id="path13" />
  <path
     style="fill:#bfbfbf;fill-rule:evenodd;fill-opacity:1;stroke:#000000;stroke-width:0.093524605px;stroke-linecap:round;stroke-linejoin:round;stroke-miterlimit:4;stroke-dasharray:none;stroke-opacity:1;"
     d="  M 62.287385,15.807747   L 62.249975,15.000463   L 62.119041,14.193179   L 61.931992,13.404669   L 61.651418,12.634934   L 61.314729,11.865198   L 60.884516,11.114236   L 60.398188,10.382048   L 59.83704,9.6686341   L 59.219778,8.9739944   L 58.527696,8.2981287   L 57.779499,7.622263   L 56.975188,6.9839454   L 56.096056,6.3644019   L 55.179515,5.7824064   L 54.206859,5.200411   L 53.178089,4.6559636   L 52.093203,4.1302903   L 50.952203,3.6421651   L 49.792498,3.1728139   L 48.557973,2.7222368   L 47.304744,2.3279818   L 45.995399,1.9337268   L 44.648645,1.595794   L 43.283186,1.2766352   L 41.861612,0.99502449   L 40.421333,0.75096188   L 38.943644,0.52567331   L 37.428546,0.35670689   L 35.894742,0.22528856   L 34.342234,0.11264428   L 32.771021,0.056322141   L 31.162397,0.037548094   L 29.553774,0.056322141   L 27.982561,0.11264428   L 26.430053,0.22528856   L 24.896249,0.35670689   L 23.381151,0.52567331   L 21.903462,0.75096188   L 20.463183,0.99502449   L 19.041609,1.2766352   L 17.67615,1.595794   L 16.329396,1.9337268   L 15.020051,2.3279818   L 13.766821,2.7222368   L 12.532297,3.1728139   L 11.372592,3.6421651   L 10.231591,4.1302903   L 9.1467061,4.6559636   L 8.1179355,5.200411   L 7.1452796,5.7824064   L 6.2287385,6.3644019   L 5.3496072,6.9839454   L 4.5452957,7.622263   L 3.7970988,8.2981287   L 3.1050168,8.9739944   L 2.4877544,9.6686341   L 1.9266068,10.382048   L 1.4402789,11.114236   L 1.0100657,11.865198   L 0.67337714,12.634934   L 0.39280333,13.404669   L 0.20575412,14.193179   L 0.074819682,15.000463   L 0.037409841,15.807747   L 0.074819682,16.615031   L 0.20575412,17.422316   L 0.39280333,18.210825   L 0.67337714,18.999335   L 1.0100657,19.750297   L 1.4402789,20.501259   L 1.9266068,21.233447   L 2.4877544,21.965635   L 3.1050168,22.660275   L 3.7970988,23.33614   L 4.5452957,23.993232   L 5.3496072,24.63155   L 6.2287385,25.251093   L 7.1452796,25.851863   L 8.1179355,26.433858   L 9.1467061,26.978305   L 10.231591,27.503979   L 11.372592,27.992104   L 12.532297,28.461455   L 13.766821,28.912032   L 15.020051,29.306287   L 16.329396,29.700542   L 17.67615,30.038475   L 19.041609,30.357634   L 20.463183,30.639245   L 21.903462,30.883307   L 23.381151,31.108596   L 24.896249,31.277562   L 26.430053,31.40898   L 27.982561,31.521625   L 29.553774,31.577947   L 31.162397,31.596721   L 32.771021,31.577947   L 34.342234,31.521625   L 35.894742,31.40898   L 37.428546,31.277562   L 38.943644,31.108596   L 40.421333,30.883307   L 41.861612,30.639245   L 43.283186,30.357634   L 44.648645,30.038475   L 45.995399,29.700542   L 47.304744,29.306287   L 48.557973,28.912032   L 49.792498,28.461455   L 50.952203,27.992104   L 52.093203,27.503979   L 53.178089,26.978305   L 54.206859,26.433858   L 55.179515,25.851863   L 56.096056,25.251093   L 56.975188,24.63155   L 57.779499,23.993232   L 58.527696,23.33614   L 59.219778,22.660275   L 59.83704,21.965635   L 60.398188,21.233447   L 60.884516,20.501259   L 61.314729,19.750297   L 61.651418,18.999335   L 61.931992,18.210825   L 62.119041,17.422316   L 62.249975,16.615031   L 62.287385,15.807747   z "
     id="path15" />
  <path
     style="fill:#eaeaea;fill-rule:evenodd;fill-opacity:1;stroke:#eaeaea;stroke-width:0.093524605px;stroke-linecap:round;stroke-linejoin:round;stroke-miterlimit:4;stroke-dasharray:none;stroke-opacity:1;"
     d="  M 61.670123,15.807747   L 61.632713,15.019238   L 61.520483,14.249502   L 61.314729,13.479766   L 61.05286,12.728804   L 60.716172,11.977842   L 60.304663,11.264428   L 59.818336,10.551014   L 59.275893,9.8563746   L 58.65863,9.1805089   L 57.985253,8.5234173   L 57.255761,7.8663256   L 56.470155,7.2467821   L 55.609728,6.6460126   L 54.711892,6.0827912   L 53.739236,5.5195698   L 52.729171,4.9938965   L 51.681695,4.4869972   L 50.578105,3.998872   L 49.4184,3.5482949   L 48.221285,3.1164918   L 46.98676,2.7222368   L 45.714826,2.3467559   L 44.386776,2.008823   L 43.040022,1.7084383   L 41.655858,1.4268276   L 40.234284,1.201539   L 38.794005,0.99502449   L 37.316316,0.82605806   L 35.801218,0.67586569   L 34.286119,0.58199545   L 32.733611,0.52567331   L 31.162397,0.50689927   L 29.591184,0.52567331   L 28.038676,0.58199545   L 26.523577,0.67586569   L 25.008479,0.82605806   L 23.53079,0.99502449   L 22.090511,1.201539   L 20.668937,1.4268276   L 19.284773,1.7084383   L 17.938019,2.008823   L 16.609969,2.3467559   L 15.338035,2.7222368   L 14.10351,3.1164918   L 12.906395,3.5482949   L 11.74669,3.998872   L 10.6431,4.4869972   L 9.5956242,4.9938965   L 8.5855585,5.5195698   L 7.6129026,6.0827912   L 6.7150664,6.6460126   L 5.8546401,7.2467821   L 5.0690334,7.8663256   L 4.3395415,8.5234173   L 3.6661644,9.1805089   L 3.048902,9.8563746   L 2.5064593,10.551014   L 2.0201314,11.264428   L 1.6086232,11.977842   L 1.2719346,12.728804   L 1.0100657,13.479766   L 0.80431158,14.249502   L 0.69208206,15.019238   L 0.65467222,15.807747   L 0.69208206,16.596257   L 0.80431158,17.365993   L 1.0100657,18.135729   L 1.2719346,18.905465   L 1.6086232,19.637653   L 2.0201314,20.369841   L 2.5064593,21.083255   L 3.048902,21.777894   L 3.6661644,22.45376   L 4.3395415,23.110852   L 5.0690334,23.749169   L 5.8546401,24.368713   L 6.7150664,24.969482   L 7.6129026,25.551478   L 8.5855585,26.114699   L 9.5956242,26.640373   L 10.6431,27.147272   L 11.74669,27.635397   L 12.906395,28.085974   L 14.10351,28.517777   L 15.338035,28.912032   L 16.609969,29.287513   L 17.938019,29.625446   L 19.284773,29.925831   L 20.668937,30.207441   L 22.090511,30.43273   L 23.53079,30.639245   L 25.008479,30.808211   L 26.523577,30.958403   L 28.038676,31.052274   L 29.591184,31.108596   L 31.162397,31.12737   L 32.733611,31.108596   L 34.286119,31.052274   L 35.801218,30.958403   L 37.316316,30.808211   L 38.794005,30.639245   L 40.234284,30.43273   L 41.655858,30.207441   L 43.040022,29.925831   L 44.386776,29.625446   L 45.714826,29.287513   L 46.98676,28.912032   L 48.221285,28.517777   L 49.4184,28.085974   L 50.578105,27.635397   L 51.681695,27.147272   L 52.729171,26.640373   L 53.739236,26.114699   L 54.711892,25.551478   L 55.609728,24.969482   L 56.470155,24.368713   L 57.255761,23.749169   L 57.985253,23.110852   L 58.65863,22.45376   L 59.275893,21.777894   L 59.818336,21.083255   L 60.304663,20.369841   L 60.716172,19.637653   L 61.05286,18.905465   L 61.314729,18.135729   L 61.520483,17.365993   L 61.632713,16.596257   L 61.670123,15.807747   z "
     id="path17" />
  <path
     style="fill:none;stroke:#d1d1d1;stroke-width:0.093524605px;stroke-linecap:round;stroke-linejoin:round;stroke-miterlimit:4;stroke-dasharray:none;stroke-opacity:1;"
     d="  M 31.162397,5.6885362   L 30.114922,5.7073103   L 29.104856,5.7448583   L 28.09479,5.8011805   L 27.10343,5.8950507   L 26.112069,6.007695   L 25.158118,6.1391133   L 24.222872,6.3080798   L 23.306331,6.4770462   L 22.408495,6.6835607   L 21.548068,6.9088493   L 20.687642,7.1529119   L 19.88333,7.4157485   L 19.079019,7.6973592   L 18.330822,7.997744   L 17.582625,8.3169028   L 16.890543,8.6548356   L 16.217166,8.9927685   L 15.581199,9.3682494   L 14.982641,9.7437303   L 14.421494,10.156759   L 13.897756,10.551014   L 13.411428,10.982817   L 12.96251,11.414621   L 12.569707,11.865198   L 12.195608,12.334549   L 11.896329,12.8039   L 11.615756,13.273251   L 11.391297,13.761376   L 11.204247,14.268276   L 11.092018,14.775175   L 10.998493,15.282074   L 10.979788,15.807747   L 10.998493,16.333421   L 11.092018,16.84032   L 11.204247,17.347219   L 11.391297,17.854119   L 11.615756,18.342244   L 11.896329,18.811595   L 12.195608,19.29972   L 12.569707,19.750297   L 12.96251,20.200874   L 13.411428,20.632678   L 13.897756,21.064481   L 14.421494,21.47751   L 14.982641,21.871765   L 15.581199,22.247246   L 16.217166,22.622727   L 16.890543,22.979433   L 17.582625,23.317366   L 18.330822,23.636525   L 19.079019,23.93691   L 19.88333,24.21852   L 20.687642,24.481357   L 21.548068,24.72542   L 22.408495,24.950708   L 23.306331,25.157223   L 24.222872,25.326189   L 25.158118,25.495156   L 26.112069,25.626574   L 27.10343,25.739218   L 28.09479,25.833089   L 29.104856,25.889411   L 30.114922,25.926959   L 31.162397,25.945733  "
     id="path19" />
  <path
     style="fill:none;stroke:#d1d1d1;stroke-width:0.093524605px;stroke-linecap:round;stroke-linejoin:round;stroke-miterlimit:4;stroke-dasharray:none;stroke-opacity:1;"
     d="  M 31.162397,25.438834   L 32.153758,25.420059   L 33.126414,25.382511   L 34.080365,25.326189   L 35.034316,25.251093   L 35.950857,25.138449   L 36.867398,25.00703   L 37.746529,24.856838   L 38.625661,24.687872   L 40.309104,24.274843   L 41.09471,24.049554   L 41.880317,23.786717   L 42.628514,23.523881   L 43.358006,23.24227   L 44.050088,22.941885   L 44.723465,22.622727   L 45.359432,22.284794   L 45.95799,21.928087   L 46.519137,21.57138   L 47.06158,21.195899   L 47.566613,20.801644   L 48.015531,20.388615   L 48.445744,19.975586   L 48.819842,19.562557   L 49.175236,19.11198   L 49.474515,18.661403   L 49.736383,18.210825   L 49.942138,17.741474   L 50.110482,17.272123   L 50.241416,16.783998   L 50.316236,16.295873   L 50.334941,15.807747   L 50.316236,15.319622   L 50.241416,14.831497   L 50.110482,14.343372   L 49.942138,13.874021   L 49.736383,13.404669   L 49.474515,12.954092   L 49.175236,12.503515   L 48.819842,12.071712   L 48.445744,11.639909   L 48.015531,11.22688   L 47.566613,10.813851   L 47.06158,10.43837   L 46.519137,10.062889   L 45.95799,9.6874082   L 45.359432,9.3494754   L 44.723465,9.0115425   L 44.050088,8.6923837   L 43.358006,8.391999   L 42.628514,8.1103883   L 41.880317,7.8287776   L 41.09471,7.5847149   L 40.309104,7.3594264   L 39.467382,7.1341378   L 38.625661,6.9463973   L 37.746529,6.7774309   L 36.867398,6.6272386   L 35.950857,6.4958202   L 35.034316,6.3831759   L 34.080365,6.3080798   L 33.126414,6.2517576   L 32.153758,6.2142095   L 31.162397,6.1954355  "
     id="path21" />
  <path
     style="fill:none;stroke:#ffffff;stroke-width:0.093524605px;stroke-linecap:round;stroke-linejoin:round;stroke-miterlimit:4;stroke-dasharray:none;stroke-opacity:1;"
     d="  M 31.162397,6.1766614   L 30.171037,6.1954355   L 29.198381,6.2329836   L 28.24443,6.2893057   L 27.290479,6.3644019   L 26.373938,6.4770462   L 25.457397,6.6084645   L 24.578265,6.7586569   L 23.699134,6.9276233   L 22.015691,7.3406523   L 21.230085,7.5659409   L 20.444478,7.8287776   L 19.696281,8.0916142   L 18.966789,8.3732249   L 18.274707,8.6736097   L 17.60133,8.9927685   L 16.965363,9.3307013   L 16.366805,9.6874082   L 15.805658,10.044115   L 15.263215,10.419596   L 14.758182,10.813851   L 14.309264,11.22688   L 13.879051,11.639909   L 13.504953,12.052938   L 13.149559,12.503515   L 12.85028,12.954092   L 12.588411,13.404669   L 12.382657,13.874021   L 12.214313,14.343372   L 12.083379,14.831497   L 12.008559,15.319622   L 11.989854,15.807747   L 12.008559,16.295873   L 12.083379,16.783998   L 12.214313,17.272123   L 12.382657,17.741474   L 12.588411,18.210825   L 12.85028,18.661403   L 13.149559,19.11198   L 13.504953,19.562557   L 13.879051,19.975586   L 14.309264,20.388615   L 14.758182,20.801644   L 15.263215,21.195899   L 15.805658,21.57138   L 16.366805,21.928087   L 16.965363,22.284794   L 17.60133,22.622727   L 18.274707,22.941885   L 18.966789,23.24227   L 19.696281,23.523881   L 20.444478,23.786717   L 21.230085,24.049554   L 22.015691,24.274843   L 23.699134,24.687872   L 24.578265,24.856838   L 25.457397,25.00703   L 26.373938,25.138449   L 27.290479,25.251093   L 28.24443,25.326189   L 29.198381,25.382511   L 30.171037,25.420059   L 31.162397,25.438834  "
     id="path23" />
  <path
     style="fill:none;stroke:#ffffff;stroke-width:0.093524605px;stroke-linecap:round;stroke-linejoin:round;stroke-miterlimit:4;stroke-dasharray:none;stroke-opacity:1;"
     d="  M 31.162397,25.945733   L 32.209873,25.926959   L 33.219939,25.889411   L 34.230004,25.833089   L 35.221365,25.739218   L 36.212726,25.626574   L 37.166677,25.495156   L 38.101923,25.326189   L 39.018464,25.157223   L 39.9163,24.950708   L 40.776727,24.72542   L 41.637153,24.481357   L 42.441464,24.21852   L 43.245776,23.93691   L 43.993973,23.636525   L 44.74217,23.317366   L 45.434252,22.979433   L 46.107629,22.622727   L 46.743596,22.247246   L 47.342154,21.871765   L 47.903301,21.47751   L 48.427039,21.064481   L 48.913367,20.632678   L 49.362285,20.200874   L 49.755088,19.750297   L 50.129187,19.29972   L 50.428465,18.811595   L 50.709039,18.342244   L 50.933498,17.854119   L 51.120548,17.347219   L 51.232777,16.84032   L 51.326302,16.333421   L 51.345007,15.807747   L 51.326302,15.282074   L 51.232777,14.775175   L 51.120548,14.268276   L 50.933498,13.761376   L 50.709039,13.273251   L 50.428465,12.8039   L 50.129187,12.315775   L 49.755088,11.865198   L 49.362285,11.414621   L 48.913367,10.982817   L 48.427039,10.551014   L 47.903301,10.137985   L 47.342154,9.7437303   L 46.743596,9.3682494   L 46.107629,8.9927685   L 45.434252,8.6360616   L 44.74217,8.2981287   L 43.993973,7.9789699   L 43.245776,7.6785852   L 42.441464,7.3969745   L 41.637153,7.1341378   L 40.776727,6.8900752   L 39.9163,6.6647866   L 39.018464,6.4582721   L 38.101923,6.2893057   L 37.166677,6.1203393   L 36.212726,5.988921   L 35.221365,5.8762767   L 34.230004,5.7824064   L 33.219939,5.7260843   L 32.209873,5.6885362   L 31.162397,5.6697622  "
     id="path25" />
  <path
     style="fill:#bfbfbf;fill-rule:evenodd;fill-opacity:1;stroke:#c1c1c1;stroke-width:0.018704921px;stroke-linecap:round;stroke-linejoin:round;stroke-miterlimit:4;stroke-dasharray:none;stroke-opacity:1;"
     d="  M 21.342314,15.469815   L 21.286199,15.469815   L 21.267495,15.451041   L 21.230085,15.451041   L 21.230085,15.432267   L 21.21138,15.432267   L 21.21138,15.413492   L 21.192675,15.413492   L 21.192675,14.437242   L 21.21138,14.437242   L 21.21138,14.418468   L 21.230085,14.418468   L 21.230085,14.399694   L 21.267495,14.399694   L 21.286199,14.38092   L 23.60561,14.38092   L 23.624315,14.399694   L 23.661724,14.399694   L 23.661724,14.418468   L 23.680429,14.418468   L 23.680429,14.437242   L 23.699134,14.437242   L 23.699134,14.624983   L 23.680429,14.624983   L 23.661724,14.606208   L 23.624315,14.606208   L 23.624315,14.587434   L 21.753822,14.587434   L 21.735118,14.606208   L 21.716413,14.606208   L 21.716413,14.624983   L 21.697708,14.624983   L 21.697708,15.432267   L 21.716413,15.451041   L 21.735118,15.451041   L 21.735118,15.469815   L 21.361019,15.469815   L 21.342314,15.469815   z "
     id="path27" />
  <path
     style="fill:#bfbfbf;fill-rule:evenodd;fill-opacity:1;stroke:#c1c1c1;stroke-width:0.018704921px;stroke-linecap:round;stroke-linejoin:round;stroke-miterlimit:4;stroke-dasharray:none;stroke-opacity:1;"
     d="  M 23.512085,14.831497   L 21.847347,14.831497   L 21.847347,14.812723   L 21.809937,14.812723   L 21.809937,14.793949   L 21.791232,14.793949   L 21.791232,15.019238   L 21.828642,15.019238   L 21.828642,15.038012   L 23.5682,15.038012   L 23.586905,15.019238   L 23.60561,15.019238   L 23.624315,15.000463   L 23.643019,15.000463   L 23.661724,14.981689   L 23.661724,14.962915   L 23.680429,14.962915   L 23.680429,14.906593   L 23.661724,14.906593   L 23.661724,14.887819   L 23.643019,14.869045   L 23.624315,14.869045   L 23.60561,14.850271   L 23.5682,14.850271   L 23.5682,14.831497   L 23.53079,14.831497   L 23.512085,14.831497   z "
     id="path29" />
  <path
     style="fill:#bfbfbf;fill-rule:evenodd;fill-opacity:1;stroke:#c1c1c1;stroke-width:0.018704921px;stroke-linecap:round;stroke-linejoin:round;stroke-miterlimit:4;stroke-dasharray:none;stroke-opacity:1;"
     d="  M 27.421413,15.056786   L 27.365299,15.056786   L 27.346594,15.038012   L 27.327889,15.038012   L 27.327889,15.019238   L 27.309184,15.019238   L 27.309184,14.812723   L 27.346594,14.812723   L 27.346594,14.831497   L 28.730758,14.831497   L 28.730758,14.587434   L 27.271774,14.587434   L 27.253069,14.606208   L 27.234364,14.606208   L 27.234364,14.624983   L 27.215659,14.624983   L 27.215659,15.432267   L 27.234364,15.432267   L 27.234364,15.451041   L 27.253069,15.451041   L 27.253069,15.469815   L 26.804151,15.469815   L 26.804151,15.451041   L 26.766741,15.451041   L 26.766741,15.432267   L 26.748036,15.432267   L 26.748036,15.413492   L 26.729331,15.413492   L 26.729331,14.437242   L 26.748036,14.437242   L 26.748036,14.418468   L 26.766741,14.418468   L 26.766741,14.399694   L 26.804151,14.399694   L 26.804151,14.38092   L 29.142266,14.38092   L 29.142266,14.399694   L 29.179676,14.399694   L 29.179676,14.418468   L 29.198381,14.418468   L 29.198381,14.437242   L 29.217086,14.437242   L 29.217086,14.981689   L 29.198381,14.981689   L 29.198381,15.000463   L 29.179676,15.000463   L 29.179676,15.019238   L 29.160971,15.019238   L 29.142266,15.038012   L 29.104856,15.038012   L 29.104856,15.056786   L 29.104856,15.07556   L 29.142266,15.07556   L 29.160971,15.094334   L 29.179676,15.094334   L 29.179676,15.113108   L 29.198381,15.113108   L 29.198381,15.131882   L 29.217086,15.131882   L 29.217086,15.432267   L 29.235791,15.432267   L 29.235791,15.451041   L 29.254496,15.451041   L 29.254496,15.469815   L 28.805577,15.469815   L 28.805577,15.451041   L 28.768168,15.451041   L 28.768168,15.432267   L 28.749463,15.432267   L 28.749463,15.413492   L 28.730758,15.413492   L 28.730758,15.056786   L 27.440118,15.056786   L 27.421413,15.056786   z "
     id="path31" />
  <path
     style="fill:#bfbfbf;fill-rule:evenodd;fill-opacity:1;stroke:#c1c1c1;stroke-width:0.018704921px;stroke-linecap:round;stroke-linejoin:round;stroke-miterlimit:4;stroke-dasharray:none;stroke-opacity:1;"
     d="  M 30.096217,14.587434   L 29.553774,14.587434   L 29.553774,14.56866   L 29.516364,14.56866   L 29.49766,14.549886   L 29.478955,14.549886   L 29.478955,14.437242   L 29.49766,14.437242   L 29.49766,14.418468   L 29.516364,14.418468   L 29.516364,14.399694   L 29.553774,14.399694   L 29.572479,14.38092   L 31.891889,14.38092   L 31.910594,14.399694   L 31.948004,14.399694   L 31.948004,14.418468   L 31.966709,14.418468   L 31.966709,14.437242   L 31.985414,14.437242   L 31.985414,14.624983   L 31.966709,14.624983   L 31.948004,14.606208   L 31.910594,14.606208   L 31.910594,14.587434   L 30.63866,14.587434   L 30.63866,14.606208   L 30.60125,14.606208   L 30.60125,14.624983   L 30.582545,14.624983   L 30.582545,15.432267   L 30.60125,15.432267   L 30.60125,15.451041   L 30.619955,15.451041   L 30.619955,15.469815   L 30.171037,15.469815   L 30.171037,15.451041   L 30.133627,15.451041   L 30.133627,15.432267   L 30.114922,15.432267   L 30.114922,15.413492   L 30.096217,15.413492   L 30.096217,14.606208   L 30.096217,14.587434   z "
     id="path33" />
  <path
     style="fill:#bfbfbf;fill-rule:evenodd;fill-opacity:1;stroke:#c1c1c1;stroke-width:0.018704921px;stroke-linecap:round;stroke-linejoin:round;stroke-miterlimit:4;stroke-dasharray:none;stroke-opacity:1;"
     d="  M 32.714906,15.413492   L 32.714906,15.432267   L 32.733611,15.432267   L 32.733611,15.451041   L 32.752316,15.451041   L 32.771021,15.469815   L 32.322103,15.469815   L 32.303398,15.451041   L 32.265988,15.451041   L 32.265988,15.432267   L 32.247283,15.432267   L 32.247283,15.413492   L 32.228578,15.413492   L 32.228578,14.418468   L 32.209873,14.399694   L 32.191168,14.399694   L 32.191168,14.38092   L 32.640086,14.38092   L 32.640086,14.399694   L 32.677496,14.399694   L 32.677496,14.418468   L 32.696201,14.418468   L 32.696201,14.437242   L 32.714906,14.437242   L 32.714906,15.394718   L 32.714906,15.413492   z "
     id="path35" />
  <path
     style="fill:#bfbfbf;fill-rule:evenodd;fill-opacity:1;stroke:#c1c1c1;stroke-width:0.018704921px;stroke-linecap:round;stroke-linejoin:round;stroke-miterlimit:4;stroke-dasharray:none;stroke-opacity:1;"
     d="  M 35.127841,14.587434   L 33.668857,14.587434   L 33.650152,14.606208   L 33.631447,14.606208   L 33.631447,14.624983   L 33.612742,14.624983   L 33.612742,15.432267   L 33.631447,15.432267   L 33.631447,15.451041   L 33.650152,15.451041   L 33.650152,15.469815   L 33.201234,15.469815   L 33.201234,15.451041   L 33.163824,15.451041   L 33.163824,15.432267   L 33.145119,15.432267   L 33.145119,15.413492   L 33.126414,15.413492   L 33.126414,14.437242   L 33.145119,14.437242   L 33.145119,14.418468   L 33.163824,14.418468   L 33.163824,14.399694   L 33.201234,14.399694   L 33.201234,14.38092   L 35.539349,14.38092   L 35.539349,14.399694   L 35.576759,14.399694   L 35.576759,14.418468   L 35.595464,14.418468   L 35.595464,14.437242   L 35.614169,14.437242   L 35.614169,15.432267   L 35.632873,15.432267   L 35.632873,15.451041   L 35.651578,15.451041   L 35.651578,15.469815   L 35.20266,15.469815   L 35.20266,15.451041   L 35.16525,15.451041   L 35.16525,15.432267   L 35.146545,15.432267   L 35.146545,15.413492   L 35.127841,15.413492   L 35.127841,14.606208   L 35.127841,14.587434   z "
     id="path37" />
  <path
     style="fill:#bfbfbf;fill-rule:evenodd;fill-opacity:1;stroke:#c1c1c1;stroke-width:0.018704921px;stroke-linecap:round;stroke-linejoin:round;stroke-miterlimit:4;stroke-dasharray:none;stroke-opacity:1;"
     d="  M 38.083218,14.831497   L 36.512005,14.831497   L 36.512005,14.812723   L 36.474595,14.812723   L 36.474595,14.793949   L 36.45589,14.793949   L 36.45589,15.019238   L 36.4933,15.019238   L 36.4933,15.038012   L 38.120628,15.038012   L 38.139333,15.019238   L 38.158038,15.019238   L 38.176743,15.000463   L 38.195448,15.000463   L 38.195448,14.981689   L 38.214152,14.981689   L 38.214152,14.944141   L 38.232857,14.944141   L 38.232857,14.906593   L 38.214152,14.906593   L 38.214152,14.887819   L 38.195448,14.869045   L 38.176743,14.869045   L 38.176743,14.850271   L 38.139333,14.850271   L 38.120628,14.831497   L 38.101923,14.831497   L 38.083218,14.831497   z "
     id="path39" />
  <path
     style="fill:#bfbfbf;fill-rule:evenodd;fill-opacity:1;stroke:#c1c1c1;stroke-width:0.018704921px;stroke-linecap:round;stroke-linejoin:round;stroke-miterlimit:4;stroke-dasharray:none;stroke-opacity:1;"
     d="  M 39.242923,14.587434   L 38.70048,14.587434   L 38.70048,14.56866   L 38.663071,14.56866   L 38.644366,14.549886   L 38.625661,14.549886   L 38.625661,14.437242   L 38.644366,14.437242   L 38.644366,14.418468   L 38.663071,14.418468   L 38.663071,14.399694   L 38.70048,14.399694   L 38.719185,14.38092   L 41.038595,14.38092   L 41.0573,14.399694   L 41.09471,14.399694   L 41.09471,14.418468   L 41.113415,14.418468   L 41.113415,14.437242   L 41.13212,14.437242   L 41.13212,14.624983   L 41.113415,14.624983   L 41.09471,14.606208   L 41.0573,14.606208   L 41.0573,14.587434   L 39.785366,14.587434   L 39.785366,14.606208   L 39.747956,14.606208   L 39.747956,14.624983   L 39.729251,14.624983   L 39.729251,15.432267   L 39.747956,15.432267   L 39.747956,15.451041   L 39.766661,15.451041   L 39.766661,15.469815   L 39.317743,15.469815   L 39.317743,15.451041   L 39.280333,15.451041   L 39.280333,15.432267   L 39.261628,15.432267   L 39.261628,15.413492   L 39.242923,15.413492   L 39.242923,14.606208   L 39.242923,14.587434   z "
     id="path41" />
  <path
     style="fill:#bfbfbf;fill-rule:evenodd;fill-opacity:1;stroke:#c1c1c1;stroke-width:0.018704921px;stroke-linecap:round;stroke-linejoin:round;stroke-miterlimit:4;stroke-dasharray:none;stroke-opacity:1;"
     d="  M 38.251562,15.2633   L 38.307677,15.2633   L 38.307677,15.244526   L 38.345087,15.244526   L 38.363792,15.225752   L 38.382497,15.225752   L 38.382497,15.413492   L 38.363792,15.413492   L 38.363792,15.432267   L 38.345087,15.432267   L 38.345087,15.451041   L 38.307677,15.451041   L 38.288972,15.469815   L 35.969562,15.469815   L 35.950857,15.451041   L 35.913447,15.451041   L 35.913447,15.432267   L 35.894742,15.432267   L 35.894742,15.413492   L 35.876037,15.413492   L 35.876037,14.437242   L 35.894742,14.437242   L 35.894742,14.418468   L 35.913447,14.418468   L 35.913447,14.399694   L 35.950857,14.399694   L 35.969562,14.38092   L 38.288972,14.38092   L 38.307677,14.399694   L 38.345087,14.399694   L 38.345087,14.418468   L 38.363792,14.418468   L 38.363792,14.437242   L 38.382497,14.437242   L 38.382497,14.624983   L 38.363792,14.624983   L 38.345087,14.606208   L 38.307677,14.606208   L 38.307677,14.587434   L 36.437185,14.587434   L 36.41848,14.606208   L 36.399775,14.606208   L 36.399775,14.624983   L 36.38107,14.624983   L 36.38107,15.2633   L 38.232857,15.2633   L 38.251562,15.2633   z "
     id="path43" />
  <path
     style="fill:#bfbfbf;fill-rule:evenodd;fill-opacity:1;stroke:#c1c1c1;stroke-width:0.018704921px;stroke-linecap:round;stroke-linejoin:round;stroke-miterlimit:4;stroke-dasharray:none;stroke-opacity:1;"
     d="  M 24.78402,15.150656   L 24.78402,15.469815   L 25.607036,15.469815   L 25.607036,15.150656   L 24.78402,15.150656   z "
     id="path45" />
  <path
     style="fill:#bfbfbf;fill-rule:evenodd;fill-opacity:1;stroke:#c1c1c1;stroke-width:0.018704921px;stroke-linecap:round;stroke-linejoin:round;stroke-miterlimit:4;stroke-dasharray:none;stroke-opacity:1;"
     d="  M 23.961003,14.775175   L 24.653085,14.775175   L 24.653085,15.07556   L 23.961003,15.07556   L 23.961003,14.775175   z "
     id="path47" />
  <path
     style="fill:#bfbfbf;fill-rule:evenodd;fill-opacity:1;stroke:#c1c1c1;stroke-width:0.018704921px;stroke-linecap:round;stroke-linejoin:round;stroke-miterlimit:4;stroke-dasharray:none;stroke-opacity:1;"
     d="  M 25.756675,15.150656   L 25.756675,15.469815   L 26.112069,15.469815   L 26.149479,15.451041   L 26.205594,15.451041   L 26.224298,15.432267   L 26.243003,15.432267   L 26.261708,15.413492   L 26.299118,15.413492   L 26.336528,15.375944   L 26.355233,15.375944   L 26.373938,15.35717   L 26.373938,15.338396   L 26.411348,15.300848   L 26.411348,15.282074   L 26.430053,15.2633   L 26.430053,15.225752   L 26.448757,15.206978   L 26.448757,15.150656   L 25.77538,15.150656   L 25.756675,15.150656   z "
     id="path49" />
  <path
     style="fill:#bfbfbf;fill-rule:evenodd;fill-opacity:1;stroke:#c1c1c1;stroke-width:0.018704921px;stroke-linecap:round;stroke-linejoin:round;stroke-miterlimit:4;stroke-dasharray:none;stroke-opacity:1;"
     d="  M 25.756675,14.775175   L 26.448757,14.775175   L 26.448757,15.07556   L 25.756675,15.07556   L 25.756675,14.775175   z "
     id="path51" />
  <path
     style="fill:#bfbfbf;fill-rule:evenodd;fill-opacity:1;stroke:#c1c1c1;stroke-width:0.018704921px;stroke-linecap:round;stroke-linejoin:round;stroke-miterlimit:4;stroke-dasharray:none;stroke-opacity:1;"
     d="  M 24.653085,15.150656   L 24.653085,15.469815   L 24.297692,15.469815   L 24.260282,15.451041   L 24.204167,15.451041   L 24.185462,15.432267   L 24.166757,15.432267   L 24.148052,15.413492   L 24.110642,15.413492   L 24.073233,15.375944   L 24.054528,15.375944   L 24.035823,15.35717   L 24.035823,15.338396   L 23.998413,15.300848   L 23.998413,15.282074   L 23.979708,15.2633   L 23.979708,15.225752   L 23.961003,15.206978   L 23.961003,15.150656   L 24.63438,15.150656   L 24.653085,15.150656   z "
     id="path53" />
  <path
     style="fill:#bfbfbf;fill-rule:evenodd;fill-opacity:1;stroke:#c1c1c1;stroke-width:0.018704921px;stroke-linecap:round;stroke-linejoin:round;stroke-miterlimit:4;stroke-dasharray:none;stroke-opacity:1;"
     d="  M 24.78402,14.38092   L 24.78402,14.700079   L 25.607036,14.700079   L 25.607036,14.38092   L 24.78402,14.38092   z "
     id="path55" />
  <path
     style="fill:#bfbfbf;fill-rule:evenodd;fill-opacity:1;stroke:#c1c1c1;stroke-width:0.018704921px;stroke-linecap:round;stroke-linejoin:round;stroke-miterlimit:4;stroke-dasharray:none;stroke-opacity:1;"
     d="  M 25.756675,14.700079   L 25.756675,14.38092   L 26.112069,14.38092   L 26.149479,14.399694   L 26.205594,14.399694   L 26.224298,14.418468   L 26.243003,14.418468   L 26.261708,14.437242   L 26.299118,14.437242   L 26.336528,14.47479   L 26.355233,14.47479   L 26.373938,14.493564   L 26.373938,14.512338   L 26.411348,14.549886   L 26.411348,14.56866   L 26.430053,14.587434   L 26.430053,14.624983   L 26.448757,14.643757   L 26.448757,14.700079   L 25.77538,14.700079   L 25.756675,14.700079   z "
     id="path57" />
  <path
     style="fill:#bfbfbf;fill-rule:evenodd;fill-opacity:1;stroke:#c1c1c1;stroke-width:0.018704921px;stroke-linecap:round;stroke-linejoin:round;stroke-miterlimit:4;stroke-dasharray:none;stroke-opacity:1;"
     d="  M 24.653085,14.700079   L 24.653085,14.38092   L 24.297692,14.38092   L 24.260282,14.399694   L 24.204167,14.399694   L 24.185462,14.418468   L 24.166757,14.418468   L 24.148052,14.437242   L 24.110642,14.437242   L 24.073233,14.47479   L 24.054528,14.47479   L 24.035823,14.493564   L 24.035823,14.512338   L 23.998413,14.549886   L 23.998413,14.56866   L 23.979708,14.587434   L 23.979708,14.624983   L 23.961003,14.643757   L 23.961003,14.700079   L 24.63438,14.700079   L 24.653085,14.700079   z "
     id="path59" />
  <text
     xml:space="preserve"
     style="font-size:1.750000px;font-style:normal;font-variant:normal;font-weight:400;font-stretch:Normal;line-height:125.000000%;letter-spacing:0px;word-spacing:0px;fill:#000000;fill-opacity:1;stroke:none;font-family:Arial;text-align:start;text-anchor:start;"
     transform="matrix(1.000000,-0.000000,0.000000,1.000000,23.512085,16.971738)"
     x="0.000000"
     y="0.000000"
     id="text89"><tspan
       x="0.000000"
       y="0.000000"
       id="tspan87"><tspan
         dx="0.000000"
         dy="0.000000"
         style="fill:#BFBFBF;font-size:1.750000px;font-style:normal;font-variant:normal;font-weight:400;font-stretch:Normal;font-family:Arial;"
         id="tspan61">F</tspan><tspan
         dx="0.000000"
         dy="0.000000"
         style="fill:#BFBFBF;font-size:1.750000px;font-style:normal;font-variant:normal;font-weight:400;font-stretch:Normal;font-family:Arial;"
         id="tspan63">o</tspan><tspan
         dx="0.000000"
         dy="0.000000"
         style="fill:#BFBFBF;font-size:1.750000px;font-style:normal;font-variant:normal;font-weight:400;font-stretch:Normal;font-family:Arial;"
         id="tspan65">r</tspan><tspan
         dx="0.000000"
         dy="0.000000"
         style="fill:#BFBFBF;font-size:1.750000px;font-style:normal;font-variant:normal;font-weight:400;font-stretch:Normal;font-family:Arial;"
         id="tspan67">t</tspan><tspan
         dx="0.000000"
         dy="0.000000"
         style="fill:#BFBFBF;font-size:1.750000px;font-style:normal;font-variant:normal;font-weight:400;font-stretch:Normal;font-family:Arial;"
         id="tspan69">i</tspan><tspan
         dx="0.000000"
         dy="0.000000"
         style="fill:#BFBFBF;font-size:1.750000px;font-style:normal;font-variant:normal;font-weight:400;font-stretch:Normal;font-family:Arial;"
         id="tspan71">A</tspan><tspan
         dx="0.000000"
         dy="0.000000"
         style="fill:#BFBFBF;font-size:1.750000px;font-style:normal;font-variant:normal;font-weight:400;font-stretch:Normal;font-family:Arial;"
         id="tspan73">P</tspan><tspan
         dx="0.000000"
         dy="0.000000"
         style="fill:#BFBFBF;font-size:1.750000px;font-style:normal;font-variant:normal;font-weight:400;font-stretch:Normal;font-family:Arial;"
         id="tspan75"> </tspan><tspan
         dx="0.000000"
         dy="0.000000"
         style="fill:#BFBFBF;font-size:1.750000px;font-style:normal;font-variant:normal;font-weight:400;font-stretch:Normal;font-family:Arial;"
         id="tspan77">S</tspan><tspan
         dx="0.000000"
         dy="0.000000"
         style="fill:#BFBFBF;font-size:1.750000px;font-style:normal;font-variant:normal;font-weight:400;font-stretch:Normal;font-family:Arial;"
         id="tspan79">3</tspan><tspan
         dx="0.000000"
         dy="0.000000"
         style="fill:#BFBFBF;font-size:1.750000px;font-style:normal;font-variant:normal;font-weight:400;font-stretch:Normal;font-family:Arial;"
         id="tspan81">1</tspan><tspan
         dx="0.000000"
         dy="0.000000"
         style="fill:#BFBFBF;font-size:1.750000px;font-style:normal;font-variant:normal;font-weight:400;font-stretch:Normal;font-family:Arial;"
         id="tspan83">1</tspan><tspan
         dx="0.000000"
         dy="0.000000"
         style="fill:#BFBFBF;font-size:1.750000px;font-style:normal;font-variant:normal;font-weight:400;font-stretch:Normal;font-family:Arial;"
         id="tspan85">C</tspan></tspan></text>
  <path
     style="fill:#00ff00;fill-rule:evenodd;fill-opacity:1;stroke:#000000;stroke-width:0.018704921px;stroke-linecap:round;stroke-linejoin:round;stroke-miterlimit:4;stroke-dasharray:none;stroke-opacity:1;"
     d="  M 31.66743,28.348811   L 31.648725,28.292489   L 31.63002,28.254941   L 31.517791,28.179844   L 31.442971,28.142296   L 31.368152,28.123522   L 31.255922,28.104748   L 31.068873,28.104748   L 30.956643,28.123522   L 30.881824,28.142296   L 30.807004,28.179844   L 30.694774,28.254941   L 30.67607,28.292489   L 30.657365,28.348811   L 30.694774,28.461455   L 30.807004,28.536551   L 30.881824,28.574099   L 30.956643,28.592873   L 31.068873,28.611647   L 31.255922,28.611647   L 31.368152,28.592873   L 31.442971,28.574099   L 31.517791,28.536551   L 31.63002,28.461455   L 31.648725,28.405133   L 31.66743,28.348811   z "
     id="path91" />
  <path
     style="fill:#00ff00;fill-rule:evenodd;fill-opacity:1;stroke:#000000;stroke-width:0.018704921px;stroke-linecap:round;stroke-linejoin:round;stroke-miterlimit:4;stroke-dasharray:none;stroke-opacity:1;"
     d="  M 35.950857,28.16107   L 35.932152,28.104748   L 35.913447,28.0672   L 35.801218,27.992104   L 35.726398,27.954556   L 35.651578,27.935782   L 35.539349,27.917008   L 35.3523,27.917008   L 35.24007,27.935782   L 35.16525,27.954556   L 35.090431,27.992104   L 34.978201,28.0672   L 34.959496,28.104748   L 34.940791,28.16107   L 34.978201,28.273715   L 35.090431,28.348811   L 35.16525,28.386359   L 35.24007,28.405133   L 35.3523,28.423907   L 35.539349,28.423907   L 35.651578,28.405133   L 35.726398,28.386359   L 35.801218,28.348811   L 35.913447,28.273715   L 35.932152,28.217392   L 35.950857,28.16107   z "
     id="path93" />
  <path
     style="fill:#00ff00;fill-rule:evenodd;fill-opacity:1;stroke:#000000;stroke-width:0.018704921px;stroke-linecap:round;stroke-linejoin:round;stroke-miterlimit:4;stroke-dasharray:none;stroke-opacity:1;"
     d="  M 40.215579,27.597849   L 40.196874,27.541527   L 40.178169,27.503979   L 40.06594,27.428883   L 39.99112,27.391334   L 39.9163,27.37256   L 39.804071,27.353786   L 39.617021,27.353786   L 39.504792,27.37256   L 39.429972,27.391334   L 39.355153,27.428883   L 39.242923,27.503979   L 39.224218,27.541527   L 39.205513,27.597849   L 39.242923,27.710493   L 39.355153,27.785589   L 39.429972,27.823137   L 39.504792,27.841912   L 39.617021,27.860686   L 39.804071,27.860686   L 39.9163,27.841912   L 39.99112,27.823137   L 40.06594,27.785589   L 40.178169,27.710493   L 40.196874,27.654171   L 40.215579,27.597849   z "
     id="path95" />
  <path
     style="fill:#00ff00;fill-rule:evenodd;fill-opacity:1;stroke:#000000;stroke-width:0.018704921px;stroke-linecap:round;stroke-linejoin:round;stroke-miterlimit:4;stroke-dasharray:none;stroke-opacity:1;"
     d="  M 23.119282,27.597849   L 23.100577,27.541527   L 23.081872,27.503979   L 22.969642,27.428883   L 22.894823,27.391334   L 22.820003,27.37256   L 22.707773,27.353786   L 22.520724,27.353786   L 22.408495,27.37256   L 22.333675,27.391334   L 22.258855,27.428883   L 22.146626,27.503979   L 22.127921,27.541527   L 22.109216,27.597849   L 22.146626,27.710493   L 22.258855,27.785589   L 22.333675,27.823137   L 22.408495,27.841912   L 22.520724,27.860686   L 22.707773,27.860686   L 22.820003,27.841912   L 22.894823,27.823137   L 22.969642,27.785589   L 23.081872,27.710493   L 23.100577,27.654171   L 23.119282,27.597849   z "
     id="path97" />
  <path
     style="fill:#00ff00;fill-rule:evenodd;fill-opacity:1;stroke:#000000;stroke-width:0.018704921px;stroke-linecap:round;stroke-linejoin:round;stroke-miterlimit:4;stroke-dasharray:none;stroke-opacity:1;"
     d="  M 27.402708,28.16107   L 27.384004,28.104748   L 27.365299,28.0672   L 27.253069,27.992104   L 27.178249,27.954556   L 27.10343,27.935782   L 26.9912,27.917008   L 26.804151,27.917008   L 26.691921,27.935782   L 26.617102,27.954556   L 26.542282,27.992104   L 26.430053,28.0672   L 26.411348,28.104748   L 26.392643,28.16107   L 26.430053,28.273715   L 26.542282,28.348811   L 26.617102,28.386359   L 26.691921,28.405133   L 26.804151,28.423907   L 26.9912,28.423907   L 27.10343,28.405133   L 27.178249,28.386359   L 27.253069,28.348811   L 27.365299,28.273715   L 27.384004,28.217392   L 27.402708,28.16107   z "
     id="path99" />
  <path
     style="fill:none;stroke:#7f7f7f;stroke-width:0.018704921px;stroke-linecap:round;stroke-linejoin:round;stroke-miterlimit:4;stroke-dasharray:none;stroke-opacity:1;"
     d="  M 31.854479,27.522753   L 30.320676,27.522753  "
     id="path101" />
  <path
     style="fill:none;stroke:#7f7f7f;stroke-width:0.018704921px;stroke-linecap:round;stroke-linejoin:round;stroke-miterlimit:4;stroke-dasharray:none;stroke-opacity:1;"
     d="  M 31.087578,27.391334   L 31.087578,27.503979  "
     id="path103" />
  <path
     style="fill:#7f7f7f;fill-rule:evenodd;fill-opacity:1;stroke:#7f7f7f;stroke-width:0.018704921px;stroke-linecap:round;stroke-linejoin:round;stroke-miterlimit:4;stroke-dasharray:none;stroke-opacity:1;"
     d="  M 31.274627,27.203594   L 30.900529,27.203594   L 30.900529,27.391334   L 31.274627,27.391334   L 31.274627,27.203594   z "
     id="path105" />
  <path
     style="fill:none;stroke:#7f7f7f;stroke-width:0.018704921px;stroke-linecap:round;stroke-linejoin:round;stroke-miterlimit:4;stroke-dasharray:none;stroke-opacity:1;"
     d="  M 31.536496,27.503979   L 31.536496,27.616623  "
     id="path107" />
  <path
     style="fill:none;stroke:#7f7f7f;stroke-width:0.018704921px;stroke-linecap:round;stroke-linejoin:round;stroke-miterlimit:4;stroke-dasharray:none;stroke-opacity:1;"
     d="  M 31.536496,27.503979   L 31.536496,27.616623  "
     id="path109" />
  <path
     style="fill:#7f7f7f;fill-rule:evenodd;fill-opacity:1;stroke:#7f7f7f;stroke-width:0.018704921px;stroke-linecap:round;stroke-linejoin:round;stroke-miterlimit:4;stroke-dasharray:none;stroke-opacity:1;"
     d="  M 31.368152,27.616623   L 31.74225,27.616623   L 31.74225,27.804363   L 31.368152,27.804363   L 31.368152,27.616623   z "
     id="path111" />
  <path
     style="fill:none;stroke:#7f7f7f;stroke-width:0.018704921px;stroke-linecap:round;stroke-linejoin:round;stroke-miterlimit:4;stroke-dasharray:none;stroke-opacity:1;"
     d="  M 30.60125,27.503979   L 30.60125,27.616623  "
     id="path113" />
  <path
     style="fill:#7f7f7f;fill-rule:evenodd;fill-opacity:1;stroke:#7f7f7f;stroke-width:0.018704921px;stroke-linecap:round;stroke-linejoin:round;stroke-miterlimit:4;stroke-dasharray:none;stroke-opacity:1;"
     d="  M 30.807004,27.616623   L 30.432906,27.616623   L 30.432906,27.804363   L 30.807004,27.804363   L 30.807004,27.616623   z "
     id="path115" />
  <path
     style="fill:none;stroke:#7f7f7f;stroke-width:0.018704921px;stroke-linecap:round;stroke-linejoin:round;stroke-miterlimit:4;stroke-dasharray:none;stroke-opacity:1;"
     d="  M 22.184036,26.809339   L 22.165331,26.809339   L 22.165331,26.790565   L 22.146626,26.790565   L 22.127921,26.771791   L 22.109216,26.771791   L 22.109216,26.753017   L 22.090511,26.753017   L 22.090511,26.734243   L 22.053101,26.696695   L 22.053101,26.677921   L 22.034396,26.659147   L 22.034396,26.58405   L 22.053101,26.565276   L 22.053101,26.546502   L 22.127921,26.471406   L 22.146626,26.471406   L 22.146626,26.452632   L 22.202741,26.452632   L 22.202741,26.433858   L 22.221445,26.433858   L 22.24015,26.433858  "
     id="path117" />
  <path
     style="fill:none;stroke:#7f7f7f;stroke-width:0.018704921px;stroke-linecap:round;stroke-linejoin:round;stroke-miterlimit:4;stroke-dasharray:none;stroke-opacity:1;"
     d="  M 22.24015,26.753017   L 22.184036,26.696695   L 22.184036,26.677921   L 22.165331,26.677921   L 22.165331,26.565276   L 22.184036,26.565276   L 22.184036,26.546502   L 22.221445,26.508954   L 22.24015,26.508954   L 22.258855,26.49018   L 22.27756,26.49018  "
     id="path119" />
  <path
     style="fill:none;stroke:#7f7f7f;stroke-width:0.018704921px;stroke-linecap:round;stroke-linejoin:round;stroke-miterlimit:4;stroke-dasharray:none;stroke-opacity:1;"
     d="  M 22.35238,26.696695   L 22.333675,26.696695   L 22.333675,26.677921   L 22.296265,26.677921   L 22.296265,26.659147   L 22.27756,26.659147   L 22.27756,26.58405   L 22.296265,26.58405   L 22.296265,26.565276   L 22.31497,26.565276   L 22.31497,26.546502   L 22.333675,26.546502   L 22.35238,26.546502  "
     id="path121" />
  <path
     style="fill:none;stroke:#7f7f7f;stroke-width:0.018704921px;stroke-linecap:round;stroke-linejoin:round;stroke-miterlimit:4;stroke-dasharray:none;stroke-opacity:1;"
     d="  M 22.894823,26.809339   L 22.913528,26.809339   L 22.913528,26.790565   L 22.932232,26.790565   L 22.950937,26.771791   L 22.969642,26.771791   L 22.969642,26.753017   L 22.988347,26.753017   L 22.988347,26.734243   L 23.007052,26.734243   L 23.007052,26.715469   L 23.025757,26.715469   L 23.025757,26.696695   L 23.044462,26.696695   L 23.044462,26.677921   L 23.063167,26.659147   L 23.063167,26.58405   L 23.044462,26.58405   L 23.044462,26.546502   L 23.025757,26.546502   L 23.025757,26.527728   L 23.007052,26.527728   L 23.007052,26.508954   L 22.988347,26.508954   L 22.988347,26.49018   L 22.969642,26.49018   L 22.969642,26.471406   L 22.950937,26.471406   L 22.932232,26.452632   L 22.894823,26.452632   L 22.894823,26.433858   L 22.876118,26.433858   L 22.857413,26.433858  "
     id="path123" />
  <path
     style="fill:none;stroke:#7f7f7f;stroke-width:0.018704921px;stroke-linecap:round;stroke-linejoin:round;stroke-miterlimit:4;stroke-dasharray:none;stroke-opacity:1;"
     d="  M 22.838708,26.753017   L 22.894823,26.696695   L 22.894823,26.677921   L 22.913528,26.677921   L 22.913528,26.565276   L 22.894823,26.565276   L 22.894823,26.527728   L 22.876118,26.527728   L 22.857413,26.508954   L 22.838708,26.508954   L 22.820003,26.49018   L 22.801298,26.49018  "
     id="path125" />
  <path
     style="fill:none;stroke:#7f7f7f;stroke-width:0.018704921px;stroke-linecap:round;stroke-linejoin:round;stroke-miterlimit:4;stroke-dasharray:none;stroke-opacity:1;"
     d="  M 22.745183,26.696695   L 22.763888,26.696695   L 22.763888,26.677921   L 22.801298,26.677921   L 22.801298,26.659147   L 22.820003,26.659147   L 22.820003,26.58405   L 22.801298,26.58405   L 22.801298,26.565276   L 22.782593,26.565276   L 22.782593,26.546502   L 22.763888,26.546502   L 22.745183,26.546502  "
     id="path127" />
  <path
     style="fill:#7f7f7f;fill-rule:evenodd;fill-opacity:1;stroke:#7f7f7f;stroke-width:0.018704921px;stroke-linecap:round;stroke-linejoin:round;stroke-miterlimit:4;stroke-dasharray:none;stroke-opacity:1;"
     d="  M 22.464609,27.072176   L 22.520724,26.659147   L 22.614249,26.659147   L 22.670364,27.072176   L 22.464609,27.072176   z "
     id="path129" />
  <path
     style="fill:none;stroke:#7f7f7f;stroke-width:0.018704921px;stroke-linecap:round;stroke-linejoin:round;stroke-miterlimit:4;stroke-dasharray:none;stroke-opacity:1;"
     d="  M 26.542282,27.428883   L 26.523577,27.428883   L 26.523577,27.410108   L 26.504872,27.410108   L 26.486167,27.391334   L 26.467462,27.391334   L 26.467462,27.37256   L 26.448757,27.37256   L 26.448757,27.353786   L 26.411348,27.316238   L 26.411348,27.297464   L 26.392643,27.27869   L 26.392643,27.203594   L 26.411348,27.18482   L 26.411348,27.166046   L 26.486167,27.09095   L 26.504872,27.09095   L 26.504872,27.072176   L 26.560987,27.072176   L 26.560987,27.053402   L 26.579692,27.053402   L 26.598397,27.053402  "
     id="path131" />
  <path
     style="fill:none;stroke:#7f7f7f;stroke-width:0.018704921px;stroke-linecap:round;stroke-linejoin:round;stroke-miterlimit:4;stroke-dasharray:none;stroke-opacity:1;"
     d="  M 26.598397,27.37256   L 26.542282,27.316238   L 26.542282,27.297464   L 26.523577,27.297464   L 26.523577,27.18482   L 26.542282,27.18482   L 26.542282,27.166046   L 26.579692,27.128498   L 26.598397,27.128498   L 26.617102,27.109724   L 26.635807,27.109724  "
     id="path133" />
  <path
     style="fill:none;stroke:#7f7f7f;stroke-width:0.018704921px;stroke-linecap:round;stroke-linejoin:round;stroke-miterlimit:4;stroke-dasharray:none;stroke-opacity:1;"
     d="  M 26.710626,27.316238   L 26.691921,27.316238   L 26.691921,27.297464   L 26.654512,27.297464   L 26.654512,27.27869   L 26.635807,27.27869   L 26.635807,27.203594   L 26.654512,27.203594   L 26.654512,27.18482   L 26.673217,27.18482   L 26.673217,27.166046   L 26.691921,27.166046   L 26.710626,27.166046  "
     id="path135" />
  <path
     style="fill:none;stroke:#7f7f7f;stroke-width:0.018704921px;stroke-linecap:round;stroke-linejoin:round;stroke-miterlimit:4;stroke-dasharray:none;stroke-opacity:1;"
     d="  M 27.253069,27.428883   L 27.271774,27.428883   L 27.271774,27.410108   L 27.290479,27.410108   L 27.309184,27.391334   L 27.327889,27.391334   L 27.327889,27.37256   L 27.346594,27.37256   L 27.346594,27.353786   L 27.365299,27.353786   L 27.365299,27.335012   L 27.384004,27.335012   L 27.384004,27.316238   L 27.402708,27.316238   L 27.402708,27.297464   L 27.421413,27.27869   L 27.421413,27.203594   L 27.402708,27.203594   L 27.402708,27.166046   L 27.384004,27.166046   L 27.384004,27.147272   L 27.365299,27.147272   L 27.365299,27.128498   L 27.346594,27.128498   L 27.346594,27.109724   L 27.327889,27.109724   L 27.327889,27.09095   L 27.309184,27.09095   L 27.290479,27.072176   L 27.253069,27.072176   L 27.253069,27.053402   L 27.234364,27.053402   L 27.215659,27.053402  "
     id="path137" />
  <path
     style="fill:none;stroke:#7f7f7f;stroke-width:0.018704921px;stroke-linecap:round;stroke-linejoin:round;stroke-miterlimit:4;stroke-dasharray:none;stroke-opacity:1;"
     d="  M 27.196954,27.37256   L 27.253069,27.316238   L 27.253069,27.297464   L 27.271774,27.297464   L 27.271774,27.18482   L 27.253069,27.18482   L 27.253069,27.147272   L 27.234364,27.147272   L 27.215659,27.128498   L 27.196954,27.128498   L 27.178249,27.109724   L 27.159544,27.109724  "
     id="path139" />
  <path
     style="fill:none;stroke:#7f7f7f;stroke-width:0.018704921px;stroke-linecap:round;stroke-linejoin:round;stroke-miterlimit:4;stroke-dasharray:none;stroke-opacity:1;"
     d="  M 27.10343,27.316238   L 27.122135,27.316238   L 27.122135,27.297464   L 27.159544,27.297464   L 27.159544,27.27869   L 27.178249,27.27869   L 27.178249,27.203594   L 27.159544,27.203594   L 27.159544,27.18482   L 27.14084,27.18482   L 27.14084,27.166046   L 27.122135,27.166046   L 27.10343,27.166046  "
     id="path141" />
  <path
     style="fill:#7f7f7f;fill-rule:evenodd;fill-opacity:1;stroke:#7f7f7f;stroke-width:0.018704921px;stroke-linecap:round;stroke-linejoin:round;stroke-miterlimit:4;stroke-dasharray:none;stroke-opacity:1;"
     d="  M 26.822856,27.691719   L 26.878971,27.27869   L 26.972495,27.27869   L 27.02861,27.691719   L 26.822856,27.691719   z "
     id="path143" />
  <text
     xml:space="preserve"
     style="font-size:0.500000px;font-style:normal;font-variant:normal;font-weight:400;font-stretch:Condensed;line-height:125.000000%;letter-spacing:0px;word-spacing:0px;fill:#000000;fill-opacity:1;stroke:none;font-family:Times New Roman;text-align:start;text-anchor:start;"
     transform="matrix(1.000000,-0.000000,0.000000,1.000000,40.402628,15.451041)"
     x="0.000000"
     y="0.000000"
     id="text149"><tspan
       x="0.000000"
       y="0.000000"
       id="tspan147"><tspan
         dx="0.000000"
         dy="0.000000"
         style="fill:#7F7F7F;font-size:0.500000px;font-style:normal;font-variant:normal;font-weight:400;font-stretch:Condensed;font-family:Times New Roman;"
         id="tspan145"></tspan></tspan></text>
  <path
     style="fill:#7f7f7f;fill-rule:evenodd;fill-opacity:1;stroke:#7f7f7f;stroke-width:0.018704921px;stroke-linecap:round;stroke-linejoin:round;stroke-miterlimit:4;stroke-dasharray:none;stroke-opacity:1;"
     d="  M 35.969562,27.672945   L 36.025677,27.672945   L 36.025677,27.654171   L 36.044382,27.654171   L 36.044382,27.616623   L 35.950857,27.522753   L 35.932152,27.522753   L 35.913447,27.503979   L 35.876037,27.485205   L 35.857332,27.447657   L 35.819923,27.410108   L 35.782513,27.391334   L 35.726398,27.335012   L 35.688988,27.316238   L 35.651578,27.27869   L 35.632873,27.241142   L 35.595464,27.222368   L 35.558054,27.18482   L 35.539349,27.18482   L 35.483234,27.128498   L 35.483234,27.109724   L 35.464529,27.109724   L 35.445824,27.09095   L 35.445824,27.072176   L 35.408414,27.072176   L 35.408414,27.053402   L 35.27748,27.053402   L 35.27748,27.072176   L 35.258775,27.072176   L 35.24007,27.09095   L 35.221365,27.09095   L 35.221365,27.109724   L 35.20266,27.128498   L 35.183955,27.128498   L 35.053021,27.259916   L 35.015611,27.27869   L 34.903382,27.391334   L 34.865972,27.410108   L 34.847267,27.428883   L 34.828562,27.466431   L 34.809857,27.485205   L 34.772447,27.503979   L 34.660218,27.616623   L 34.641513,27.616623   L 34.641513,27.635397   L 34.622808,27.635397   L 34.622808,27.654171   L 34.660218,27.654171   L 34.660218,27.672945   L 35.950857,27.672945   L 35.950857,27.654171   L 35.988267,27.654171   L 35.988267,27.635397   L 36.006972,27.635397   L 36.006972,27.616623   L 35.988267,27.616623   L 35.988267,27.597849   L 35.969562,27.597849   L 35.969562,27.579075   L 35.950857,27.579075   L 35.950857,27.560301   L 35.932152,27.560301   L 35.894742,27.522753   L 35.876037,27.522753   L 35.707693,27.353786   L 35.670283,27.335012   L 35.539349,27.203594   L 35.520644,27.203594   L 35.501939,27.18482   L 35.501939,27.166046   L 35.483234,27.166046   L 35.408414,27.09095   L 35.389709,27.09095   L 35.389709,27.072176   L 35.296185,27.072176   L 35.296185,27.09095   L 35.27748,27.09095   L 35.27748,27.109724   L 35.258775,27.109724   L 35.258775,27.128498   L 35.24007,27.147272   L 35.221365,27.147272   L 35.221365,27.166046   L 35.20266,27.18482   L 35.183955,27.18482   L 35.071726,27.297464   L 35.034316,27.316238   L 34.978201,27.37256   L 34.940791,27.391334   L 34.772447,27.560301   L 34.753742,27.560301   L 34.716332,27.597849   L 34.697627,27.597849   L 34.697627,27.616623   L 34.678922,27.616623   L 34.678922,27.635397   L 34.697627,27.635397   L 34.697627,27.654171   L 35.950857,27.654171   L 35.950857,27.672945   L 35.969562,27.672945   z "
     id="path151" />
  <path
     style="fill:#7f7f7f;fill-rule:evenodd;fill-opacity:1;stroke:#7f7f7f;stroke-width:0.018704921px;stroke-linecap:round;stroke-linejoin:round;stroke-miterlimit:4;stroke-dasharray:none;stroke-opacity:1;"
     d="  M 35.333595,27.541527   L 35.333595,27.503979   L 35.3523,27.503979   L 35.3523,27.447657   L 35.371005,27.447657   L 35.371005,27.391334   L 35.389709,27.391334   L 35.389709,27.316238   L 35.408414,27.316238   L 35.408414,27.259916   L 35.427119,27.259916   L 35.427119,27.203594   L 35.408414,27.203594   L 35.389709,27.18482   L 35.27748,27.18482   L 35.258775,27.203594   L 35.258775,27.259916   L 35.27748,27.27869   L 35.27748,27.335012   L 35.296185,27.353786   L 35.296185,27.410108   L 35.31489,27.428883   L 35.31489,27.485205   L 35.333595,27.503979   L 35.333595,27.522753   L 35.333595,27.541527   z "
     id="path153" />
  <path
     style="fill:#7f7f7f;fill-rule:evenodd;fill-opacity:1;stroke:#7f7f7f;stroke-width:0.018704921px;stroke-linecap:round;stroke-linejoin:round;stroke-miterlimit:4;stroke-dasharray:none;stroke-opacity:1;"
     d="  M 35.408414,27.597849   L 35.389709,27.579075   L 35.333595,27.560301   L 35.27748,27.579075   L 35.258775,27.597849   L 35.27748,27.616623   L 35.333595,27.635397   L 35.389709,27.616623   L 35.408414,27.597849   z "
     id="path155" />
  <path
     style="fill:#7f7f7f;fill-rule:evenodd;fill-opacity:1;stroke:#7f7f7f;stroke-width:0.018704921px;stroke-linecap:round;stroke-linejoin:round;stroke-miterlimit:4;stroke-dasharray:none;stroke-opacity:1;"
     d="  M 39.785366,26.640373   L 39.804071,26.640373   L 39.822776,26.659147   L 39.860185,26.659147   L 39.87889,26.677921   L 39.897595,26.677921   L 39.9163,26.696695   L 39.935005,26.696695   L 39.935005,26.715469   L 39.95371,26.715469   L 39.972415,26.734243   L 39.972415,26.753017   L 39.99112,26.753017   L 39.99112,26.771791   L 40.009825,26.771791   L 40.009825,26.809339   L 40.02853,26.828113   L 40.02853,26.903209   L 40.009825,26.921983   L 40.009825,26.940757   L 39.99112,26.959531   L 39.99112,26.978305   L 39.972415,26.978305   L 39.972415,26.997079   L 39.95371,26.997079   L 39.897595,27.053402   L 39.860185,27.053402   L 39.841481,27.072176   L 39.822776,27.072176   L 39.804071,27.09095   L 39.766661,27.09095   L 39.747956,27.109724   L 39.673136,27.109724   L 39.654431,27.128498   L 39.392562,27.128498   L 39.373858,27.109724   L 39.299038,27.109724   L 39.280333,27.09095   L 39.242923,27.09095   L 39.224218,27.072176   L 39.205513,27.072176   L 39.186808,27.053402   L 39.149398,27.053402   L 39.093284,26.997079   L 39.074579,26.997079   L 39.074579,26.978305   L 39.055874,26.978305   L 39.055874,26.959531   L 39.037169,26.940757   L 39.037169,26.921983   L 39.018464,26.903209   L 39.018464,26.809339   L 39.037169,26.809339   L 39.037169,26.771791   L 39.055874,26.771791   L 39.055874,26.753017   L 39.074579,26.753017   L 39.074579,26.734243   L 39.093284,26.734243   L 39.093284,26.715469   L 39.111989,26.696695   L 39.130694,26.696695   L 39.130694,26.677921   L 39.149398,26.677921   L 39.168103,26.659147   L 39.205513,26.659147   L 39.205513,26.640373   L 39.224218,26.640373   L 39.280333,26.696695   L 39.261628,26.696695   L 39.261628,26.715469   L 39.224218,26.715469   L 39.205513,26.734243   L 39.186808,26.734243   L 39.186808,26.753017   L 39.168103,26.753017   L 39.168103,26.771791   L 39.149398,26.771791   L 39.149398,26.790565   L 39.130694,26.790565   L 39.130694,26.828113   L 39.111989,26.828113   L 39.111989,26.921983   L 39.130694,26.921983   L 39.130694,26.940757   L 39.205513,27.015853   L 39.224218,27.015853   L 39.242923,27.034628   L 39.261628,27.034628   L 39.280333,27.053402   L 39.317743,27.053402   L 39.336448,27.072176   L 39.411267,27.072176   L 39.429972,27.09095   L 39.617021,27.09095   L 39.635726,27.072176   L 39.710546,27.072176   L 39.729251,27.053402   L 39.766661,27.053402   L 39.785366,27.034628   L 39.822776,27.034628   L 39.822776,27.015853   L 39.841481,27.015853   L 39.9163,26.940757   L 39.9163,26.921983   L 39.935005,26.921983   L 39.935005,26.828113   L 39.9163,26.809339   L 39.9163,26.790565   L 39.897595,26.790565   L 39.897595,26.771791   L 39.87889,26.771791   L 39.87889,26.753017   L 39.860185,26.753017   L 39.860185,26.734243   L 39.841481,26.734243   L 39.822776,26.715469   L 39.804071,26.715469   L 39.785366,26.696695   L 39.747956,26.696695   L 39.729251,26.677921   L 39.729251,26.659147   L 39.766661,26.659147   L 39.766661,26.640373   L 39.785366,26.640373   z "
     id="path157" />
  <path
     style="fill:#7f7f7f;fill-rule:evenodd;fill-opacity:1;stroke:#7f7f7f;stroke-width:0.018704921px;stroke-linecap:round;stroke-linejoin:round;stroke-miterlimit:4;stroke-dasharray:none;stroke-opacity:1;"
     d="  M 39.560907,26.527728   L 39.448677,26.527728   L 39.448677,26.884435   L 39.560907,26.884435   L 39.560907,26.527728   z "
     id="path159" />
  <path
     style="fill:#dddddd;fill-rule:evenodd;fill-opacity:1;stroke:#bfbfbf;stroke-width:0.093524605px;stroke-linecap:round;stroke-linejoin:round;stroke-miterlimit:4;stroke-dasharray:none;stroke-opacity:1;"
     d="  M 55.23563,35.877204   L 54.693187,36.196362   L 54.13204,36.515521   L 53.552187,36.83468   L 52.355072,37.43545   L 51.083138,37.998671   L 50.428465,38.261508   L 49.081711,38.787181   L 48.389629,39.031243   L 47.678842,39.256532   L 46.94935,39.481821   L 46.219858,39.688335   L 45.452957,39.89485   L 44.70476,40.101364   L 42.34794,40.608263   L 41.543628,40.758456   L 40.720612,40.908648   L 39.897595,41.021292   L 39.055874,41.152711   L 38.214152,41.246581   L 36.4933,41.434321   L 35.632873,41.490644   L 34.753742,41.546966   L 33.855906,41.603288   L 32.976775,41.640836   L 32.060234,41.65961   L 30.56384,41.65961   L 29.983987,41.640836   L 29.38543,41.640836   L 28.805577,41.622062   L 28.225725,41.584514   L 27.645872,41.56574   L 27.06602,41.528192   L 26.504872,41.490644   L 25.92502,41.434321   L 23.680429,41.209033   L 22.053101,40.983744   L 20.968216,40.796004   L 19.92074,40.608263   L 18.873265,40.382975   L 17.863199,40.157686   L 17.358166,40.026268   L 16.853133,39.913624   L 16.366805,39.763431   L 15.39415,39.500595   L 13.99128,39.050018   L 14.009985,39.068792   L 14.047395,39.031243   L 14.0661,38.993695   L 14.10351,38.956147   L 14.17833,38.843503   L 14.234444,38.768407   L 14.290559,38.712085   L 14.346674,38.636989   L 14.402789,38.543118   L 14.477608,38.468022   L 14.533723,38.374152   L 14.608543,38.280282   L 14.683363,38.167637   L 14.758182,38.073767   L 14.833002,37.961123   L 14.926527,37.867253   L 15.076166,37.641964   L 15.16969,37.548094   L 15.31933,37.322805   L 15.412854,37.210161   L 15.487674,37.116291   L 15.562494,37.003646   L 15.786953,36.722036   L 15.843068,36.628165   L 15.917887,36.534295   L 15.974002,36.459199   L 16.030117,36.402877   L 16.067527,36.384103   L 16.104936,36.346555   L 16.179756,36.309007   L 16.198461,36.290233   L 16.235871,36.271459   L 16.273281,36.271459   L 16.291986,36.252685   L 16.329396,36.23391   L 16.366805,36.23391   L 16.404215,36.215136   L 16.441625,36.215136   L 16.479035,36.196362   L 16.53515,36.196362   L 16.57256,36.177588   L 16.647379,36.177588   L 16.684789,36.158814   L 16.927953,36.158814   L 17.863199,36.346555   L 18.835855,36.496747   L 19.845921,36.628165   L 20.893396,36.74081   L 21.978282,36.83468   L 23.100577,36.92855   L 24.241577,36.984872   L 25.419987,37.02242   L 26.617102,37.041195   L 27.814217,37.041195   L 29.048741,37.02242   L 30.283266,36.984872   L 31.536496,36.947324   L 34.042955,36.797132   L 35.296185,36.703262   L 36.549415,36.590617   L 39.018464,36.327781   L 40.234284,36.177588   L 42.628514,35.839656   L 43.788219,35.651915   L 44.910514,35.445401   L 46.014104,35.238886   L 47.080285,35.013597   L 48.12776,34.788309   L 49.119121,34.544246   L 50.073072,34.300184   L 50.970908,34.037347   L 51.831335,33.77451   L 52.635646,33.4929   L 52.934925,33.4929   L 52.95363,33.511674   L 53.009745,33.511674   L 53.047154,33.530448   L 53.084564,33.530448   L 53.103269,33.549222   L 53.140679,33.549222   L 53.178089,33.567996   L 53.196794,33.567996   L 53.234204,33.58677   L 53.252908,33.605544   L 53.290318,33.605544   L 53.309023,33.624318   L 53.346433,33.643092   L 53.365138,33.661866   L 53.402548,33.68064   L 53.533482,33.812058   L 53.589597,33.887155   L 53.664417,33.962251   L 53.720531,34.037347   L 53.795351,34.112443   L 53.851466,34.206313   L 53.926286,34.28141   L 54.001105,34.37528   L 54.075925,34.450376   L 54.150745,34.544246   L 54.225564,34.619342   L 54.375204,34.807083   L 54.450023,34.882179   L 54.524843,34.976049   L 54.599663,35.051146   L 54.655778,35.126242   L 54.730597,35.201338   L 54.786712,35.295208   L 54.861532,35.35153   L 54.973761,35.501723   L 55.029876,35.558045   L 55.067286,35.614367   L 55.123401,35.651915   L 55.16081,35.708237   L 55.19822,35.745785   L 55.216925,35.783333   L 55.27304,35.839656   L 55.254335,35.85843   L 55.23563,35.877204   z "
     id="path161" />
  <path
     style="fill:#bfbfbf;fill-rule:evenodd;fill-opacity:1;stroke:#bfbfbf;stroke-width:0.093524605px;stroke-linecap:round;stroke-linejoin:round;stroke-miterlimit:4;stroke-dasharray:none;stroke-opacity:1;"
     d="  M 54.225564,36.459199   L 54.206859,36.421651   L 54.113335,36.327781   L 54.09463,36.290233   L 54.05722,36.271459   L 54.01981,36.196362   L 53.9824,36.177588   L 53.944991,36.102492   L 53.907581,36.083718   L 53.888876,36.04617   L 53.870171,36.027396   L 53.851466,35.989848   L 53.776646,35.914752   L 53.757941,35.877204   L 53.739236,35.85843   L 53.720531,35.820881   L 53.683122,35.802107   L 53.664417,35.783333   L 53.645712,35.745785   L 53.608302,35.708237   L 53.589597,35.670689   L 53.570892,35.651915   L 53.533482,35.633141   L 53.514777,35.595593   L 53.402548,35.482949   L 53.365138,35.464175   L 53.346433,35.445401   L 53.309023,35.426626   L 53.290318,35.407852   L 53.252908,35.407852   L 53.234204,35.389078   L 53.196794,35.370304   L 53.178089,35.370304   L 53.140679,35.35153   L 53.103269,35.35153   L 53.084564,35.332756   L 53.047154,35.332756   L 53.009745,35.313982   L 52.95363,35.313982   L 52.934925,35.295208   L 52.635646,35.295208   L 51.831335,35.576819   L 50.970908,35.839656   L 50.073072,36.102492   L 49.119121,36.346555   L 48.12776,36.590617   L 47.080285,36.815906   L 46.014104,37.041195   L 44.910514,37.247709   L 43.788219,37.454224   L 42.628514,37.641964   L 40.234284,37.979897   L 39.018464,38.130089   L 36.549415,38.392926   L 35.296185,38.50557   L 34.042955,38.59944   L 31.536496,38.749633   L 30.283266,38.787181   L 29.048741,38.824729   L 27.814217,38.843503   L 26.617102,38.843503   L 25.419987,38.824729   L 24.241577,38.787181   L 23.100577,38.730859   L 21.978282,38.636989   L 20.893396,38.543118   L 19.845921,38.430474   L 18.835855,38.299056   L 17.863199,38.148863   L 16.927953,37.961123   L 16.684789,37.961123   L 16.647379,37.979897   L 16.57256,37.979897   L 16.53515,37.998671   L 16.479035,37.998671   L 16.441625,38.017445   L 16.404215,38.017445   L 16.366805,38.036219   L 16.329396,38.036219   L 16.291986,38.054993   L 16.273281,38.073767   L 16.235871,38.073767   L 16.198461,38.092541   L 16.179756,38.111315   L 16.104936,38.148863   L 16.067527,38.186411   L 16.030117,38.205185   L 15.955297,38.280282   L 15.936592,38.31783   L 15.899182,38.336604   L 15.861773,38.4117   L 15.805658,38.468022   L 15.768248,38.543118   L 15.730838,38.561892   L 15.712133,38.59944   L 15.674723,38.636989   L 15.656018,38.674537   L 15.618609,38.712085   L 15.581199,38.787181   L 15.506379,38.862277   L 15.487674,38.899825   L 15.450264,38.937373   L 15.431559,38.974921   L 15.39415,39.012469   L 15.375445,39.050018   L 15.338035,39.087566   L 15.31933,39.125114   L 15.28192,39.162662   L 15.263215,39.218984   L 15.225805,39.256532   L 15.2071,39.29408   L 15.16969,39.331628   L 15.150986,39.369176   L 15.113576,39.406724   L 15.094871,39.406724   L 15.094871,39.38795   L 15.076166,39.38795   L 16.42292,39.782205   L 16.871838,39.89485   L 17.339461,40.026268   L 18.274707,40.251557   L 18.74233,40.345427   L 19.209953,40.458071   L 20.668937,40.739682   L 21.17397,40.833552   L 21.660298,40.908648   L 23.680429,41.209033   L 24.727905,41.321677   L 25.232938,41.377999   L 25.77538,41.415547   L 26.299118,41.47187   L 26.822856,41.509418   L 27.365299,41.546966   L 27.889036,41.56574   L 28.431479,41.603288   L 29.516364,41.640836   L 30.058807,41.640836   L 30.619955,41.65961   L 32.022824,41.65961   L 32.864545,41.640836   L 33.706267,41.603288   L 34.529283,41.56574   L 35.371005,41.509418   L 36.194021,41.453096   L 37.802644,41.302903   L 38.606956,41.209033   L 40.178169,40.983744   L 40.945071,40.8711   L 41.711973,40.720908   L 42.478874,40.589489   L 43.227071,40.439297   L 44.686055,40.101364   L 46.107629,39.725883   L 46.799711,39.519369   L 48.146465,39.10634   L 48.819842,38.881051   L 50.091777,38.392926   L 50.709039,38.148863   L 51.326302,37.886027   L 51.924859,37.62319   L 52.504712,37.360353   L 53.627007,36.797132   L 54.16945,36.496747   L 54.188154,36.496747   L 54.188154,36.477973   L 54.206859,36.477973   L 54.206859,36.459199   L 54.225564,36.459199   z "
     id="path163" />
  <path
     style="fill:none;stroke:#000000;stroke-width:0.0080937324px;stroke-linecap:round;stroke-linejoin:round;stroke-miterlimit:4;stroke-dasharray:none;stroke-opacity:1;"
     d="  M 31.282274,0   L 30.998993,0   L 30.998993,0.28451786   L 31.282274,0.28451786   L 31.282274,0   z "
     id="path165" />
  <path
     style="fill:none;stroke:#000000;stroke-width:0.0080937324px;stroke-linecap:round;stroke-linejoin:round;stroke-miterlimit:4;stroke-dasharray:none;stroke-opacity:1;"
     d="  M 0.28328062,21.355098   L 0,21.355098   L 0,21.639616   L 0.28328062,21.639616   L 0.28328062,21.355098   z "
     id="path167" />
  <path
     style="fill:none;stroke:#000000;stroke-width:0.0080937324px;stroke-linecap:round;stroke-linejoin:round;stroke-miterlimit:4;stroke-dasharray:none;stroke-opacity:1;"
     d="  M 62.346017,21.355098   L 62.062737,21.355098   L 62.062737,21.639616   L 62.346017,21.639616   L 62.346017,21.355098   z "
     id="path169" />
  <path
     style="fill:none;stroke:#000000;stroke-width:0.0080937324px;stroke-linecap:round;stroke-linejoin:round;stroke-miterlimit:4;stroke-dasharray:none;stroke-opacity:1;"
     d="  M 31.282274,34.743696   L 30.998993,34.743696   L 30.998993,35.028214   L 31.282274,35.028214   L 31.282274,34.743696   z "
     id="path171" />
</svg>
