<?xml version="1.0" encoding="UTF-8" standalone="no"?>
<svg
   version="1.0"
   width="48.290001mm"
   height="4.4200001mm"
   id="svg327"
   xmlns="http://www.w3.org/2000/svg"
   xmlns:svg="http://www.w3.org/2000/svg">
  <defs
     id="defs3">
    <pattern
       id="EMFhbasepattern"
       patternUnits="userSpaceOnUse"
       width="6"
       height="6"
       x="0"
       y="0" />
  </defs>
  <path
     style="fill:none;stroke:none;"
     d="  M 14.405063,2.0375399   L 14.405063,3.1761651   L 15.510906,3.1761651   M 15.510906,2.0375399   L 17.693491,2.0375399   M 16.587648,2.0375399   L 16.587648,3.1761651   M 18.246413,2.0375399   L 18.246413,3.1761651   M 18.246413,2.0375399   L 18.246413,3.1761651  "
     id="path5" />
  <path
     style="fill:none;stroke:none;"
     d="  M 19.323155,3.1761651   L 19.323155,2.0375399   L 20.428998,3.1761651   L 21.534841,2.0375399   L 21.534841,3.1761651  "
     id="path7" />
  <path
     style="fill:none;stroke:none;"
     d="  M 22.058662,3.1761651   L 23.164505,2.0375399   L 24.270348,3.1761651   M 22.349673,2.8915088   L 23.979337,2.8915088  "
     id="path9" />
  <path
     style="fill:none;stroke:none;"
     d="  M 11.116634,3.1761651   L 12.222477,2.0375399   L 13.328321,3.1761651   M 11.407646,2.8915088   L 13.037309,2.8915088  "
     id="path11" />
  <path
     style="fill:#eaeaea;fill-rule:evenodd;fill-opacity:1;stroke:#000000;stroke-width:0.093635462px;stroke-linecap:round;stroke-linejoin:round;stroke-miterlimit:4;stroke-dasharray:none;stroke-opacity:1;"
     d="  M 182.21461,0.63530036   L 182.19589,0.50450323   L 182.17716,0.3923914   L 182.12098,0.29896488   L 182.04607,0.20553835   L 181.95243,0.13079713   L 181.8588,0.074741219   L 181.74644,0.056055914   L 181.61535,0.03737061   L 0.63672116,0.03737061   L 0.50563151,0.056055914   L 0.39326895,0.074741219   L 0.29963349,0.13079713   L 0.20599802,0.20553835   L 0.13108965,0.29896488   L 0.074908371,0.3923914   L 0.056181278,0.50450323   L 0.037454186,0.63530036   L 0.037454186,15.95725   L 0.056181278,16.088047   L 0.074908371,16.200159   L 0.13108965,16.293586   L 0.20599802,16.387012   L 0.29963349,16.461754   L 0.39326895,16.517809   L 0.50563151,16.536495   L 0.63672116,16.55518   L 181.61535,16.55518   L 181.74644,16.536495   L 181.8588,16.517809   L 181.95243,16.461754   L 182.04607,16.387012   L 182.12098,16.293586   L 182.17716,16.200159   L 182.19589,16.088047   L 182.21461,15.95725   L 182.21461,0.63530036   z "
     id="path13" />
  <path
     style="fill:#eaeaea;fill-rule:evenodd;fill-opacity:1;stroke:#000000;stroke-width:0.093635462px;stroke-linecap:round;stroke-linejoin:round;stroke-miterlimit:4;stroke-dasharray:none;stroke-opacity:1;"
     d="  M 174.16196,0.03737061   L 8.0901041,0.03737061   L 8.0901041,16.55518   L 174.16196,16.55518   L 174.16196,0.03737061   z "
     id="path15" />
  <path
     style="fill:#ffffff;fill-rule:evenodd;fill-opacity:1;stroke:#000000;stroke-width:0.018727092px;stroke-linecap:round;stroke-linejoin:round;stroke-miterlimit:4;stroke-dasharray:none;stroke-opacity:1;"
     d="  M 6.9664785,2.8775369   L 6.9664785,2.7280545   L 6.9290243,2.5785721   L 6.854116,2.3169778   L 6.7979347,2.1861807   L 6.7230263,2.0553835   L 6.6293909,1.9432717   L 6.4421199,1.7564186   L 6.3297574,1.6629921   L 6.1986677,1.5882509   L 6.0675781,1.532195   L 5.8053988,1.4574538   L 5.655582,1.4200832   L 2.5468846,1.4200832   L 2.3970679,1.4574538   L 2.1348886,1.532195   L 2.0037989,1.5882509   L 1.8727093,1.6629921   L 1.7603467,1.7564186   L 1.5730758,1.9432717   L 1.4794403,2.0553835   L 1.404532,2.1861807   L 1.3483507,2.3169778   L 1.2734423,2.5785721   L 1.2359881,2.7280545   L 1.2359881,3.0457047   L 1.2734423,3.1951871   L 1.3483507,3.4567814   L 1.404532,3.5875785   L 1.4794403,3.7183757   L 1.5730758,3.8304875   L 1.7603467,4.0173405   L 1.8727093,4.1107671   L 2.0037989,4.1855083   L 2.1348886,4.2415642   L 2.3970679,4.3163054   L 2.5468846,4.353676   L 5.655582,4.353676   L 5.8053988,4.3163054   L 6.0675781,4.2415642   L 6.1986677,4.1855083   L 6.3297574,4.1107671   L 6.4421199,4.0173405   L 6.6293909,3.8304875   L 6.7230263,3.7183757   L 6.7979347,3.5875785   L 6.854116,3.4567814   L 6.9290243,3.1951871   L 6.9664785,3.0457047   L 6.9664785,2.8962222   L 6.9664785,2.8775369   z "
     id="path17" />
  <path
     style="fill:#ffffff;fill-rule:evenodd;fill-opacity:1;stroke:#000000;stroke-width:0.018727092px;stroke-linecap:round;stroke-linejoin:round;stroke-miterlimit:4;stroke-dasharray:none;stroke-opacity:1;"
     d="  M 6.9664785,13.715014   L 6.9664785,13.565531   L 6.9290243,13.416049   L 6.854116,13.154455   L 6.7979347,13.023657   L 6.7230263,12.89286   L 6.6293909,12.780748   L 6.4421199,12.593895   L 6.3297574,12.500469   L 6.1986677,12.425728   L 6.0675781,12.369672   L 5.8053988,12.294931   L 5.655582,12.25756   L 2.5468846,12.25756   L 2.3970679,12.294931   L 2.1348886,12.369672   L 2.0037989,12.425728   L 1.8727093,12.500469   L 1.7603467,12.593895   L 1.5730758,12.780748   L 1.4794403,12.89286   L 1.404532,13.023657   L 1.3483507,13.154455   L 1.2734423,13.416049   L 1.2359881,13.565531   L 1.2359881,13.883181   L 1.2734423,14.032664   L 1.3483507,14.294258   L 1.404532,14.425055   L 1.4794403,14.555852   L 1.5730758,14.667964   L 1.7603467,14.854817   L 1.8727093,14.948244   L 2.0037989,15.022985   L 2.1348886,15.079041   L 2.3970679,15.153782   L 2.5468846,15.191153   L 5.655582,15.191153   L 5.8053988,15.153782   L 6.0675781,15.079041   L 6.1986677,15.022985   L 6.3297574,14.948244   L 6.4421199,14.854817   L 6.6293909,14.667964   L 6.7230263,14.555852   L 6.7979347,14.425055   L 6.854116,14.294258   L 6.9290243,14.032664   L 6.9664785,13.883181   L 6.9664785,13.733699   L 6.9664785,13.715014   z "
     id="path19" />
  <path
     style="fill:#ffffff;fill-rule:evenodd;fill-opacity:1;stroke:#000000;stroke-width:0.018727092px;stroke-linecap:round;stroke-linejoin:round;stroke-miterlimit:4;stroke-dasharray:none;stroke-opacity:1;"
     d="  M 181.01608,2.8775369   L 181.01608,2.7280545   L 180.97863,2.5785721   L 180.90372,2.3169778   L 180.84754,2.1861807   L 180.77263,2.0553835   L 180.67899,1.9432717   L 180.49172,1.7564186   L 180.37936,1.6629921   L 180.24827,1.5882509   L 180.11718,1.532195   L 179.855,1.4574538   L 179.70518,1.4200832   L 176.59649,1.4200832   L 176.44667,1.4574538   L 176.18449,1.532195   L 176.0534,1.5882509   L 175.92231,1.6629921   L 175.80995,1.7564186   L 175.62268,1.9432717   L 175.52904,2.0553835   L 175.45413,2.1861807   L 175.39795,2.3169778   L 175.32304,2.5785721   L 175.28559,2.7280545   L 175.28559,3.0457047   L 175.32304,3.1951871   L 175.39795,3.4567814   L 175.45413,3.5875785   L 175.52904,3.7183757   L 175.62268,3.8304875   L 175.80995,4.0173405   L 175.92231,4.1107671   L 176.0534,4.1855083   L 176.18449,4.2415642   L 176.44667,4.3163054   L 176.59649,4.353676   L 179.70518,4.353676   L 179.855,4.3163054   L 180.11718,4.2415642   L 180.24827,4.1855083   L 180.37936,4.1107671   L 180.49172,4.0173405   L 180.67899,3.8304875   L 180.77263,3.7183757   L 180.84754,3.5875785   L 180.90372,3.4567814   L 180.97863,3.1951871   L 181.01608,3.0457047   L 181.01608,2.8962222   L 181.01608,2.8775369   z "
     id="path21" />
  <path
     style="fill:#ffffff;fill-rule:evenodd;fill-opacity:1;stroke:#000000;stroke-width:0.018727092px;stroke-linecap:round;stroke-linejoin:round;stroke-miterlimit:4;stroke-dasharray:none;stroke-opacity:1;"
     d="  M 181.01608,13.715014   L 181.01608,13.565531   L 180.97863,13.416049   L 180.90372,13.154455   L 180.84754,13.023657   L 180.77263,12.89286   L 180.67899,12.780748   L 180.49172,12.593895   L 180.37936,12.500469   L 180.24827,12.425728   L 180.11718,12.369672   L 179.855,12.294931   L 179.70518,12.25756   L 176.59649,12.25756   L 176.44667,12.294931   L 176.18449,12.369672   L 176.0534,12.425728   L 175.92231,12.500469   L 175.80995,12.593895   L 175.62268,12.780748   L 175.52904,12.89286   L 175.45413,13.023657   L 175.39795,13.154455   L 175.32304,13.416049   L 175.28559,13.565531   L 175.28559,13.883181   L 175.32304,14.032664   L 175.39795,14.294258   L 175.45413,14.425055   L 175.52904,14.555852   L 175.62268,14.667964   L 175.80995,14.854817   L 175.92231,14.948244   L 176.0534,15.022985   L 176.18449,15.079041   L 176.44667,15.153782   L 176.59649,15.191153   L 179.70518,15.191153   L 179.855,15.153782   L 180.11718,15.079041   L 180.24827,15.022985   L 180.37936,14.948244   L 180.49172,14.854817   L 180.67899,14.667964   L 180.77263,14.555852   L 180.84754,14.425055   L 180.90372,14.294258   L 180.97863,14.032664   L 181.01608,13.883181   L 181.01608,13.733699   L 181.01608,13.715014   z "
     id="path23" />
  <path
     style="fill:none;stroke:#c1c1c1;stroke-width:0.018727092px;stroke-linecap:round;stroke-linejoin:round;stroke-miterlimit:4;stroke-dasharray:none;stroke-opacity:1;"
     d="  M 9.0264587,1.8685305   L 9.0264587,1.7377333   L 9.0451858,1.6629921   L 9.0451858,1.5882509   L 9.08264,1.4761391   L 9.1013671,1.4013979   L 9.1388213,1.3453419   L 9.1575484,1.289286   L 9.1950026,1.2332301   L 9.2137297,1.1771742   L 9.3260922,1.0090065   L 9.5133632,0.82215341   L 9.681907,0.71004158   L 9.7380883,0.69135628   L 9.7942695,0.65398567   L 9.8504508,0.63530036   L 9.9066321,0.59792975   L 9.9815405,0.57924445   L 10.093903,0.54187384   L 10.168811,0.54187384   L 10.24372,0.52318853   L 172.00835,0.52318853   L 172.08326,0.54187384   L 172.15816,0.54187384   L 172.27053,0.57924445   L 172.34544,0.59792975   L 172.40162,0.63530036   L 172.4578,0.65398567   L 172.51398,0.69135628   L 172.57016,0.71004158   L 172.7387,0.82215341   L 172.92598,1.0090065   L 173.03834,1.1771742   L 173.05706,1.2332301   L 173.09452,1.289286   L 173.11325,1.3453419   L 173.1507,1.4013979   L 173.16943,1.4761391   L 173.20688,1.5882509   L 173.20688,1.6629921   L 173.22561,1.7377333   L 173.22561,14.854817   L 173.20688,14.929559   L 173.20688,15.0043   L 173.16943,15.116412   L 173.1507,15.191153   L 173.11325,15.247209   L 173.09452,15.303265   L 173.05706,15.359321   L 173.03834,15.415376   L 172.92598,15.583544   L 172.7387,15.770397   L 172.57016,15.882509   L 172.51398,15.901194   L 172.4578,15.938565   L 172.40162,15.95725   L 172.34544,15.994621   L 172.27053,16.013306   L 172.15816,16.050677   L 172.08326,16.050677   L 172.00835,16.069362   L 10.24372,16.069362   L 10.168811,16.050677   L 10.093903,16.050677   L 9.9815405,16.013306   L 9.9066321,15.994621   L 9.8504508,15.95725   L 9.7942695,15.938565   L 9.7380883,15.901194   L 9.681907,15.882509   L 9.5133632,15.770397   L 9.3260922,15.583544   L 9.2137297,15.415376   L 9.1950026,15.359321   L 9.1575484,15.303265   L 9.1388213,15.247209   L 9.1013671,15.191153   L 9.08264,15.116412   L 9.0451858,15.0043   L 9.0451858,14.929559   L 9.0264587,14.854817   L 9.0264587,1.9059011   L 9.0264587,1.8685305  "
     id="path25" />
  <path
     style="fill:#bfbfbf;fill-rule:evenodd;fill-opacity:1;stroke:#000000;stroke-width:0.018727092px;stroke-linecap:round;stroke-linejoin:round;stroke-miterlimit:4;stroke-dasharray:none;stroke-opacity:1;"
     d="  M 58.110169,8.4457578   L 51.948955,8.4457578   L 51.948955,13.640272   L 58.110169,13.640272   L 58.110169,8.4457578   z "
     id="path27" />
  <path
     style="fill:#bfbfbf;fill-rule:evenodd;fill-opacity:1;stroke:#000000;stroke-width:0.018727092px;stroke-linecap:round;stroke-linejoin:round;stroke-miterlimit:4;stroke-dasharray:none;stroke-opacity:1;"
     d="  M 77.211804,8.4457578   L 70.863319,8.4457578   L 70.863319,13.640272   L 77.211804,13.640272   L 77.211804,8.4457578   z "
     id="path29" />
  <path
     style="fill:#bfbfbf;fill-rule:evenodd;fill-opacity:1;stroke:#000000;stroke-width:0.018727092px;stroke-linecap:round;stroke-linejoin:round;stroke-miterlimit:4;stroke-dasharray:none;stroke-opacity:1;"
     d="  M 84.365553,8.4457578   L 78.017069,8.4457578   L 78.017069,13.640272   L 84.365553,13.640272   L 84.365553,8.4457578   z "
     id="path31" />
  <path
     style="fill:#bfbfbf;fill-rule:evenodd;fill-opacity:1;stroke:#000000;stroke-width:0.018727092px;stroke-linecap:round;stroke-linejoin:round;stroke-miterlimit:4;stroke-dasharray:none;stroke-opacity:1;"
     d="  M 91.519303,8.4457578   L 85.170818,8.4457578   L 85.170818,13.640272   L 91.519303,13.640272   L 91.519303,8.4457578   z "
     id="path33" />
  <path
     style="fill:#bfbfbf;fill-rule:evenodd;fill-opacity:1;stroke:#000000;stroke-width:0.018727092px;stroke-linecap:round;stroke-linejoin:round;stroke-miterlimit:4;stroke-dasharray:none;stroke-opacity:1;"
     d="  M 98.673052,8.4457578   L 92.324568,8.4457578   L 92.324568,13.640272   L 98.673052,13.640272   L 98.673052,8.4457578   z "
     id="path35" />
  <ellipse
     style="fill:#000000;fill-rule:evenodd;fill-opacity:1;stroke:#000000;stroke-width:0.018727092px;stroke-linecap:round;stroke-linejoin:round;stroke-miterlimit:4;stroke-dasharray:none;stroke-opacity:1;"
     cx="68.428797"
     cy="11.51949"
     rx="0.48690441"
     ry="0.47754087"
     id="ellipse37" />
  <ellipse
     style="fill:none;stroke:#000000;stroke-width:0.018727092px;stroke-linecap:round;stroke-linejoin:round;stroke-miterlimit:4;stroke-dasharray:none;stroke-opacity:1;"
     cx="68.428797"
     cy="11.51949"
     rx="0.48690441"
     ry="0.47754087"
     id="ellipse39" />
  <ellipse
     style="fill:#333333;fill-rule:evenodd;fill-opacity:1;stroke:#000000;stroke-width:0.018727092px;stroke-linecap:round;stroke-linejoin:round;stroke-miterlimit:4;stroke-dasharray:none;stroke-opacity:1;"
     cx="68.419434"
     cy="11.51949"
     rx="0.36517831"
     ry="0.36517831"
     id="ellipse41" />
  <ellipse
     style="fill:none;stroke:#494949;stroke-width:0.018727092px;stroke-linecap:round;stroke-linejoin:round;stroke-miterlimit:4;stroke-dasharray:none;stroke-opacity:1;"
     cx="68.419434"
     cy="11.51949"
     rx="0.36517831"
     ry="0.36517831"
     id="ellipse43" />
  <ellipse
     style="fill:#000000;fill-rule:evenodd;fill-opacity:1;stroke:#000000;stroke-width:0.018727092px;stroke-linecap:round;stroke-linejoin:round;stroke-miterlimit:4;stroke-dasharray:none;stroke-opacity:1;"
     cx="70.704139"
     cy="2.1581527"
     rx="0.53372215"
     ry="0.53372215"
     id="ellipse45" />
  <ellipse
     style="fill:none;stroke:#000000;stroke-width:0.018727092px;stroke-linecap:round;stroke-linejoin:round;stroke-miterlimit:4;stroke-dasharray:none;stroke-opacity:1;"
     cx="70.704139"
     cy="2.1581527"
     rx="0.53372215"
     ry="0.53372215"
     id="ellipse47" />
  <ellipse
     style="fill:#000000;fill-rule:evenodd;fill-opacity:1;stroke:#000000;stroke-width:0.018727092px;stroke-linecap:round;stroke-linejoin:round;stroke-miterlimit:4;stroke-dasharray:none;stroke-opacity:1;"
     cx="74.178015"
     cy="2.1581527"
     rx="0.54308569"
     ry="0.53372215"
     id="ellipse49" />
  <ellipse
     style="fill:none;stroke:#000000;stroke-width:0.018727092px;stroke-linecap:round;stroke-linejoin:round;stroke-miterlimit:4;stroke-dasharray:none;stroke-opacity:1;"
     cx="74.178015"
     cy="2.1581527"
     rx="0.54308569"
     ry="0.53372215"
     id="ellipse51" />
  <ellipse
     style="fill:#000000;fill-rule:evenodd;fill-opacity:1;stroke:#000000;stroke-width:0.018727092px;stroke-linecap:round;stroke-linejoin:round;stroke-miterlimit:4;stroke-dasharray:none;stroke-opacity:1;"
     cx="77.633163"
     cy="2.1581527"
     rx="0.53372215"
     ry="0.53372215"
     id="ellipse53" />
  <ellipse
     style="fill:none;stroke:#000000;stroke-width:0.018727092px;stroke-linecap:round;stroke-linejoin:round;stroke-miterlimit:4;stroke-dasharray:none;stroke-opacity:1;"
     cx="77.633163"
     cy="2.1581527"
     rx="0.53372215"
     ry="0.53372215"
     id="ellipse55" />
  <ellipse
     style="fill:#000000;fill-rule:evenodd;fill-opacity:1;stroke:#000000;stroke-width:0.018727092px;stroke-linecap:round;stroke-linejoin:round;stroke-miterlimit:4;stroke-dasharray:none;stroke-opacity:1;"
     cx="81.097675"
     cy="2.1581527"
     rx="0.53372215"
     ry="0.53372215"
     id="ellipse57" />
  <ellipse
     style="fill:none;stroke:#000000;stroke-width:0.018727092px;stroke-linecap:round;stroke-linejoin:round;stroke-miterlimit:4;stroke-dasharray:none;stroke-opacity:1;"
     cx="81.097675"
     cy="2.1581527"
     rx="0.53372215"
     ry="0.53372215"
     id="ellipse59" />
  <ellipse
     style="fill:#000000;fill-rule:evenodd;fill-opacity:1;stroke:#000000;stroke-width:0.018727092px;stroke-linecap:round;stroke-linejoin:round;stroke-miterlimit:4;stroke-dasharray:none;stroke-opacity:1;"
     cx="84.571551"
     cy="2.1581527"
     rx="0.54308569"
     ry="0.53372215"
     id="ellipse61" />
  <ellipse
     style="fill:none;stroke:#000000;stroke-width:0.018727092px;stroke-linecap:round;stroke-linejoin:round;stroke-miterlimit:4;stroke-dasharray:none;stroke-opacity:1;"
     cx="84.571551"
     cy="2.1581527"
     rx="0.54308569"
     ry="0.53372215"
     id="ellipse63" />
  <ellipse
     style="fill:#000000;fill-rule:evenodd;fill-opacity:1;stroke:#000000;stroke-width:0.018727092px;stroke-linecap:round;stroke-linejoin:round;stroke-miterlimit:4;stroke-dasharray:none;stroke-opacity:1;"
     cx="88.0267"
     cy="2.1581527"
     rx="0.53372215"
     ry="0.53372215"
     id="ellipse65" />
  <ellipse
     style="fill:none;stroke:#000000;stroke-width:0.018727092px;stroke-linecap:round;stroke-linejoin:round;stroke-miterlimit:4;stroke-dasharray:none;stroke-opacity:1;"
     cx="88.0267"
     cy="2.1581527"
     rx="0.53372215"
     ry="0.53372215"
     id="ellipse67" />
  <ellipse
     style="fill:#000000;fill-rule:evenodd;fill-opacity:1;stroke:#000000;stroke-width:0.018727092px;stroke-linecap:round;stroke-linejoin:round;stroke-miterlimit:4;stroke-dasharray:none;stroke-opacity:1;"
     cx="91.491212"
     cy="2.1581527"
     rx="0.53372215"
     ry="0.53372215"
     id="ellipse69" />
  <ellipse
     style="fill:none;stroke:#000000;stroke-width:0.018727092px;stroke-linecap:round;stroke-linejoin:round;stroke-miterlimit:4;stroke-dasharray:none;stroke-opacity:1;"
     cx="91.491212"
     cy="2.1581527"
     rx="0.53372215"
     ry="0.53372215"
     id="ellipse71" />
  <ellipse
     style="fill:#000000;fill-rule:evenodd;fill-opacity:1;stroke:#000000;stroke-width:0.018727092px;stroke-linecap:round;stroke-linejoin:round;stroke-miterlimit:4;stroke-dasharray:none;stroke-opacity:1;"
     cx="94.965088"
     cy="2.1581527"
     rx="0.54308569"
     ry="0.53372215"
     id="ellipse73" />
  <ellipse
     style="fill:none;stroke:#000000;stroke-width:0.018727092px;stroke-linecap:round;stroke-linejoin:round;stroke-miterlimit:4;stroke-dasharray:none;stroke-opacity:1;"
     cx="94.965088"
     cy="2.1581527"
     rx="0.54308569"
     ry="0.53372215"
     id="ellipse75" />
  <ellipse
     style="fill:#000000;fill-rule:evenodd;fill-opacity:1;stroke:#000000;stroke-width:0.018727092px;stroke-linecap:round;stroke-linejoin:round;stroke-miterlimit:4;stroke-dasharray:none;stroke-opacity:1;"
     cx="98.420236"
     cy="2.1581527"
     rx="0.53372215"
     ry="0.53372215"
     id="ellipse77" />
  <ellipse
     style="fill:none;stroke:#000000;stroke-width:0.018727092px;stroke-linecap:round;stroke-linejoin:round;stroke-miterlimit:4;stroke-dasharray:none;stroke-opacity:1;"
     cx="98.420236"
     cy="2.1581527"
     rx="0.53372215"
     ry="0.53372215"
     id="ellipse79" />
  <ellipse
     style="fill:#000000;fill-rule:evenodd;fill-opacity:1;stroke:#000000;stroke-width:0.018727092px;stroke-linecap:round;stroke-linejoin:round;stroke-miterlimit:4;stroke-dasharray:none;stroke-opacity:1;"
     cx="101.89411"
     cy="2.1581527"
     rx="0.54308569"
     ry="0.53372215"
     id="ellipse81" />
  <ellipse
     style="fill:none;stroke:#000000;stroke-width:0.018727092px;stroke-linecap:round;stroke-linejoin:round;stroke-miterlimit:4;stroke-dasharray:none;stroke-opacity:1;"
     cx="101.89411"
     cy="2.1581527"
     rx="0.54308569"
     ry="0.53372215"
     id="ellipse83" />
  <ellipse
     style="fill:#000000;fill-rule:evenodd;fill-opacity:1;stroke:#000000;stroke-width:0.018727092px;stroke-linecap:round;stroke-linejoin:round;stroke-miterlimit:4;stroke-dasharray:none;stroke-opacity:1;"
     cx="105.35862"
     cy="2.1581527"
     rx="0.54308569"
     ry="0.53372215"
     id="ellipse85" />
  <ellipse
     style="fill:none;stroke:#000000;stroke-width:0.018727092px;stroke-linecap:round;stroke-linejoin:round;stroke-miterlimit:4;stroke-dasharray:none;stroke-opacity:1;"
     cx="105.35862"
     cy="2.1581527"
     rx="0.54308569"
     ry="0.53372215"
     id="ellipse87" />
  <ellipse
     style="fill:#000000;fill-rule:evenodd;fill-opacity:1;stroke:#000000;stroke-width:0.018727092px;stroke-linecap:round;stroke-linejoin:round;stroke-miterlimit:4;stroke-dasharray:none;stroke-opacity:1;"
     cx="108.81377"
     cy="2.1581527"
     rx="0.53372215"
     ry="0.53372215"
     id="ellipse89" />
  <ellipse
     style="fill:none;stroke:#000000;stroke-width:0.018727092px;stroke-linecap:round;stroke-linejoin:round;stroke-miterlimit:4;stroke-dasharray:none;stroke-opacity:1;"
     cx="108.81377"
     cy="2.1581527"
     rx="0.53372215"
     ry="0.53372215"
     id="ellipse91" />
  <ellipse
     style="fill:#000000;fill-rule:evenodd;fill-opacity:1;stroke:#000000;stroke-width:0.018727092px;stroke-linecap:round;stroke-linejoin:round;stroke-miterlimit:4;stroke-dasharray:none;stroke-opacity:1;"
     cx="112.28765"
     cy="2.1581527"
     rx="0.54308569"
     ry="0.53372215"
     id="ellipse93" />
  <ellipse
     style="fill:none;stroke:#000000;stroke-width:0.018727092px;stroke-linecap:round;stroke-linejoin:round;stroke-miterlimit:4;stroke-dasharray:none;stroke-opacity:1;"
     cx="112.28765"
     cy="2.1581527"
     rx="0.54308569"
     ry="0.53372215"
     id="ellipse95" />
  <ellipse
     style="fill:#000000;fill-rule:evenodd;fill-opacity:1;stroke:#000000;stroke-width:0.018727092px;stroke-linecap:round;stroke-linejoin:round;stroke-miterlimit:4;stroke-dasharray:none;stroke-opacity:1;"
     cx="72.445759"
     cy="3.9612846"
     rx="0.53372215"
     ry="0.54308569"
     id="ellipse97" />
  <ellipse
     style="fill:none;stroke:#000000;stroke-width:0.018727092px;stroke-linecap:round;stroke-linejoin:round;stroke-miterlimit:4;stroke-dasharray:none;stroke-opacity:1;"
     cx="72.445759"
     cy="3.9612846"
     rx="0.53372215"
     ry="0.54308569"
     id="ellipse99" />
  <ellipse
     style="fill:#000000;fill-rule:evenodd;fill-opacity:1;stroke:#000000;stroke-width:0.018727092px;stroke-linecap:round;stroke-linejoin:round;stroke-miterlimit:4;stroke-dasharray:none;stroke-opacity:1;"
     cx="75.919634"
     cy="3.9612846"
     rx="0.54308569"
     ry="0.54308569"
     id="ellipse101" />
  <ellipse
     style="fill:none;stroke:#000000;stroke-width:0.018727092px;stroke-linecap:round;stroke-linejoin:round;stroke-miterlimit:4;stroke-dasharray:none;stroke-opacity:1;"
     cx="75.919634"
     cy="3.9612846"
     rx="0.54308569"
     ry="0.54308569"
     id="ellipse103" />
  <ellipse
     style="fill:#000000;fill-rule:evenodd;fill-opacity:1;stroke:#000000;stroke-width:0.018727092px;stroke-linecap:round;stroke-linejoin:round;stroke-miterlimit:4;stroke-dasharray:none;stroke-opacity:1;"
     cx="79.384146"
     cy="3.9612846"
     rx="0.54308569"
     ry="0.54308569"
     id="ellipse105" />
  <ellipse
     style="fill:none;stroke:#000000;stroke-width:0.018727092px;stroke-linecap:round;stroke-linejoin:round;stroke-miterlimit:4;stroke-dasharray:none;stroke-opacity:1;"
     cx="79.384146"
     cy="3.9612846"
     rx="0.54308569"
     ry="0.54308569"
     id="ellipse107" />
  <ellipse
     style="fill:#000000;fill-rule:evenodd;fill-opacity:1;stroke:#000000;stroke-width:0.018727092px;stroke-linecap:round;stroke-linejoin:round;stroke-miterlimit:4;stroke-dasharray:none;stroke-opacity:1;"
     cx="82.839295"
     cy="3.9612846"
     rx="0.53372215"
     ry="0.54308569"
     id="ellipse109" />
  <ellipse
     style="fill:none;stroke:#000000;stroke-width:0.018727092px;stroke-linecap:round;stroke-linejoin:round;stroke-miterlimit:4;stroke-dasharray:none;stroke-opacity:1;"
     cx="82.839295"
     cy="3.9612846"
     rx="0.53372215"
     ry="0.54308569"
     id="ellipse111" />
  <ellipse
     style="fill:#000000;fill-rule:evenodd;fill-opacity:1;stroke:#000000;stroke-width:0.018727092px;stroke-linecap:round;stroke-linejoin:round;stroke-miterlimit:4;stroke-dasharray:none;stroke-opacity:1;"
     cx="86.313171"
     cy="3.9612846"
     rx="0.54308569"
     ry="0.54308569"
     id="ellipse113" />
  <ellipse
     style="fill:none;stroke:#000000;stroke-width:0.018727092px;stroke-linecap:round;stroke-linejoin:round;stroke-miterlimit:4;stroke-dasharray:none;stroke-opacity:1;"
     cx="86.313171"
     cy="3.9612846"
     rx="0.54308569"
     ry="0.54308569"
     id="ellipse115" />
  <ellipse
     style="fill:#000000;fill-rule:evenodd;fill-opacity:1;stroke:#000000;stroke-width:0.018727092px;stroke-linecap:round;stroke-linejoin:round;stroke-miterlimit:4;stroke-dasharray:none;stroke-opacity:1;"
     cx="89.777683"
     cy="3.9612846"
     rx="0.54308569"
     ry="0.54308569"
     id="ellipse117" />
  <ellipse
     style="fill:none;stroke:#000000;stroke-width:0.018727092px;stroke-linecap:round;stroke-linejoin:round;stroke-miterlimit:4;stroke-dasharray:none;stroke-opacity:1;"
     cx="89.777683"
     cy="3.9612846"
     rx="0.54308569"
     ry="0.54308569"
     id="ellipse119" />
  <ellipse
     style="fill:#000000;fill-rule:evenodd;fill-opacity:1;stroke:#000000;stroke-width:0.018727092px;stroke-linecap:round;stroke-linejoin:round;stroke-miterlimit:4;stroke-dasharray:none;stroke-opacity:1;"
     cx="93.232832"
     cy="3.9612846"
     rx="0.53372215"
     ry="0.54308569"
     id="ellipse121" />
  <ellipse
     style="fill:none;stroke:#000000;stroke-width:0.018727092px;stroke-linecap:round;stroke-linejoin:round;stroke-miterlimit:4;stroke-dasharray:none;stroke-opacity:1;"
     cx="93.232832"
     cy="3.9612846"
     rx="0.53372215"
     ry="0.54308569"
     id="ellipse123" />
  <ellipse
     style="fill:#000000;fill-rule:evenodd;fill-opacity:1;stroke:#000000;stroke-width:0.018727092px;stroke-linecap:round;stroke-linejoin:round;stroke-miterlimit:4;stroke-dasharray:none;stroke-opacity:1;"
     cx="96.706707"
     cy="3.9612846"
     rx="0.54308569"
     ry="0.54308569"
     id="ellipse125" />
  <ellipse
     style="fill:none;stroke:#000000;stroke-width:0.018727092px;stroke-linecap:round;stroke-linejoin:round;stroke-miterlimit:4;stroke-dasharray:none;stroke-opacity:1;"
     cx="96.706707"
     cy="3.9612846"
     rx="0.54308569"
     ry="0.54308569"
     id="ellipse127" />
  <ellipse
     style="fill:#000000;fill-rule:evenodd;fill-opacity:1;stroke:#000000;stroke-width:0.018727092px;stroke-linecap:round;stroke-linejoin:round;stroke-miterlimit:4;stroke-dasharray:none;stroke-opacity:1;"
     cx="100.17122"
     cy="3.9612846"
     rx="0.54308569"
     ry="0.54308569"
     id="ellipse129" />
  <ellipse
     style="fill:none;stroke:#000000;stroke-width:0.018727092px;stroke-linecap:round;stroke-linejoin:round;stroke-miterlimit:4;stroke-dasharray:none;stroke-opacity:1;"
     cx="100.17122"
     cy="3.9612846"
     rx="0.54308569"
     ry="0.54308569"
     id="ellipse131" />
  <ellipse
     style="fill:#000000;fill-rule:evenodd;fill-opacity:1;stroke:#000000;stroke-width:0.018727092px;stroke-linecap:round;stroke-linejoin:round;stroke-miterlimit:4;stroke-dasharray:none;stroke-opacity:1;"
     cx="103.62637"
     cy="3.9612846"
     rx="0.53372215"
     ry="0.54308569"
     id="ellipse133" />
  <ellipse
     style="fill:none;stroke:#000000;stroke-width:0.018727092px;stroke-linecap:round;stroke-linejoin:round;stroke-miterlimit:4;stroke-dasharray:none;stroke-opacity:1;"
     cx="103.62637"
     cy="3.9612846"
     rx="0.53372215"
     ry="0.54308569"
     id="ellipse135" />
  <ellipse
     style="fill:#000000;fill-rule:evenodd;fill-opacity:1;stroke:#000000;stroke-width:0.018727092px;stroke-linecap:round;stroke-linejoin:round;stroke-miterlimit:4;stroke-dasharray:none;stroke-opacity:1;"
     cx="107.10024"
     cy="3.9612846"
     rx="0.54308569"
     ry="0.54308569"
     id="ellipse137" />
  <ellipse
     style="fill:none;stroke:#000000;stroke-width:0.018727092px;stroke-linecap:round;stroke-linejoin:round;stroke-miterlimit:4;stroke-dasharray:none;stroke-opacity:1;"
     cx="107.10024"
     cy="3.9612846"
     rx="0.54308569"
     ry="0.54308569"
     id="ellipse139" />
  <ellipse
     style="fill:#000000;fill-rule:evenodd;fill-opacity:1;stroke:#000000;stroke-width:0.018727092px;stroke-linecap:round;stroke-linejoin:round;stroke-miterlimit:4;stroke-dasharray:none;stroke-opacity:1;"
     cx="110.56476"
     cy="3.9612846"
     rx="0.54308569"
     ry="0.54308569"
     id="ellipse141" />
  <ellipse
     style="fill:none;stroke:#000000;stroke-width:0.018727092px;stroke-linecap:round;stroke-linejoin:round;stroke-miterlimit:4;stroke-dasharray:none;stroke-opacity:1;"
     cx="110.56476"
     cy="3.9612846"
     rx="0.54308569"
     ry="0.54308569"
     id="ellipse143" />
  <path
     style="fill:#000000;fill-rule:evenodd;fill-opacity:1;stroke:#000000;stroke-width:0.011434546px;stroke-linecap:round;stroke-linejoin:round;stroke-miterlimit:4;stroke-dasharray:none;stroke-opacity:1;"
     d="  M 15.510906,2.0375399   M 16.587648,2.0375399   M 18.246413,2.0375399   M 18.246413,2.0375399   M 22.349673,2.8915088   M 11.407646,2.8915088   M 11.034336,3.2782627   L 11.011467,3.2782627   L 11.000033,3.2678885   L 10.988598,3.2678885   L 10.954294,3.2367657   L 10.954294,3.2263915   L 10.94286,3.2160172   L 10.94286,2.0126043   L 10.954294,2.0022301   L 10.954294,1.9918558   L 10.965729,1.9814816   L 10.977164,1.9814816   L 10.977164,1.9711073   L 10.988598,1.9607331   L 11.000033,1.9607331   L 11.011467,1.9503588   L 12.566565,1.9503588   L 12.578,1.9607331   L 12.589434,1.9607331   L 12.623738,1.9918558   L 12.623738,2.0022301   L 12.635173,2.0126043   L 12.635173,2.251212   L 12.623738,2.251212   L 12.623738,2.2408378   L 12.612303,2.2408378   L 12.612303,2.2304636   L 12.600869,2.2304636   L 12.600869,2.2200893   L 12.578,2.2200893   L 12.578,2.2097151   L 11.3202,2.2097151   L 11.3202,2.2200893   L 11.297331,2.2200893   L 11.297331,2.2304636   L 11.285896,2.2304636   L 11.285896,2.251212   L 11.274462,2.251212   L 11.274462,3.2367657   L 11.285896,3.2367657   L 11.285896,3.2575142   L 11.297331,3.2575142   L 11.297331,3.2678885   L 11.308765,3.2678885   L 11.308765,3.2782627   L 11.045771,3.2782627   L 11.034336,3.2782627   z "
     id="path145" />
  <path
     style="fill:#000000;fill-rule:evenodd;fill-opacity:1;stroke:#000000;stroke-width:0.011434546px;stroke-linecap:round;stroke-linejoin:round;stroke-miterlimit:4;stroke-dasharray:none;stroke-opacity:1;"
     d="  M 12.520827,2.5105683   L 11.388807,2.5105683   L 11.388807,2.500194   L 11.365938,2.500194   L 11.365938,2.4898198   L 11.354504,2.4898198   L 11.354504,2.4690713   L 11.343069,2.4690713   L 11.343069,2.7284275   L 11.354504,2.7284275   L 11.354504,2.749176   L 11.365938,2.749176   L 11.365938,2.7595503   L 11.388807,2.7595503   L 11.388807,2.7699245   L 12.543696,2.7699245   L 12.566565,2.749176   L 12.578,2.749176   L 12.600869,2.7284275   L 12.600869,2.7180533   L 12.612303,2.707679   L 12.612303,2.6973048   L 12.623738,2.6869305   L 12.623738,2.666182   L 12.635173,2.6558078   L 12.635173,2.624685   L 12.623738,2.6143108   L 12.623738,2.583188   L 12.600869,2.5624395   L 12.600869,2.5520653   L 12.589434,2.541691   L 12.578,2.541691   L 12.578,2.5313168   L 12.566565,2.5313168   L 12.555131,2.5209425   L 12.543696,2.5209425   L 12.532262,2.5105683   L 12.520827,2.5105683   z "
     id="path147" />
  <path
     style="fill:#000000;fill-rule:evenodd;fill-opacity:1;stroke:#000000;stroke-width:0.011434546px;stroke-linecap:round;stroke-linejoin:round;stroke-miterlimit:4;stroke-dasharray:none;stroke-opacity:1;"
     d="  M 15.162207,2.7699245   L 15.139338,2.7699245   L 15.139338,2.7595503   L 15.116469,2.7595503   L 15.116469,2.749176   L 15.105034,2.749176   L 15.105034,2.7284275   L 15.0936,2.7284275   L 15.0936,2.4690713   L 15.105034,2.4690713   L 15.105034,2.4898198   L 15.116469,2.4898198   L 15.116469,2.500194   L 15.139338,2.500194   L 15.139338,2.5105683   L 16.054102,2.5105683   L 16.054102,2.2097151   L 15.070731,2.2097151   L 15.070731,2.2200893   L 15.047862,2.2200893   L 15.047862,2.2304636   L 15.036427,2.2304636   L 15.036427,2.251212   L 15.024993,2.251212   L 15.024993,3.2367657   L 15.036427,3.2367657   L 15.036427,3.2575142   L 15.047862,3.2575142   L 15.047862,3.2678885   L 15.059296,3.2678885   L 15.059296,3.2782627   L 14.761998,3.2782627   L 14.750563,3.2678885   L 14.739129,3.2678885   L 14.704825,3.2367657   L 14.704825,3.2263915   L 14.693391,3.2160172   L 14.693391,2.0126043   L 14.704825,2.0022301   L 14.704825,1.9918558   L 14.71626,1.9814816   L 14.727694,1.9814816   L 14.727694,1.9711073   L 14.739129,1.9607331   L 14.750563,1.9607331   L 14.761998,1.9503588   L 16.317096,1.9503588   L 16.328531,1.9607331   L 16.339965,1.9607331   L 16.374269,1.9918558   L 16.374269,2.0022301   L 16.385703,2.0126043   L 16.385703,2.666182   L 16.374269,2.6765563   L 16.374269,2.6973048   L 16.362834,2.6973048   L 16.362834,2.707679   L 16.3514,2.7180533   L 16.3514,2.7284275   L 16.339965,2.7284275   L 16.339965,2.7388018   L 16.328531,2.7388018   L 16.328531,2.749176   L 16.317096,2.749176   L 16.317096,2.7595503   L 16.305662,2.7595503   L 16.294227,2.7699245   L 16.305662,2.7802988   L 16.317096,2.7802988   L 16.317096,2.790673   L 16.328531,2.790673   L 16.328531,2.8010472   L 16.339965,2.8010472   L 16.339965,2.8114215   L 16.3514,2.8114215   L 16.3514,2.8217957   L 16.362834,2.83217   L 16.362834,2.8425442   L 16.374269,2.8425442   L 16.374269,2.8632927   L 16.385703,2.873667   L 16.385703,3.2367657   L 16.397138,3.2367657   L 16.397138,3.2575142   L 16.408573,3.2575142   L 16.408573,3.2678885   L 16.420007,3.2678885   L 16.420007,3.2782627   L 16.122709,3.2782627   L 16.111274,3.2678885   L 16.09984,3.2678885   L 16.065536,3.2367657   L 16.065536,3.2263915   L 16.054102,3.2160172   L 16.054102,2.7699245   L 15.173642,2.7699245   L 15.162207,2.7699245   z "
     id="path149" />
  <path
     style="fill:#000000;fill-rule:evenodd;fill-opacity:1;stroke:#000000;stroke-width:0.011434546px;stroke-linecap:round;stroke-linejoin:round;stroke-miterlimit:4;stroke-dasharray:none;stroke-opacity:1;"
     d="  M 16.9803,2.2097151   L 16.637263,2.2097151   L 16.625829,2.1993408   L 16.614394,2.1993408   L 16.580091,2.1682181   L 16.580091,2.1578438   L 16.568656,2.1474696   L 16.568656,2.0126043   L 16.580091,2.0022301   L 16.580091,1.9918558   L 16.591525,1.9814816   L 16.60296,1.9814816   L 16.60296,1.9711073   L 16.614394,1.9607331   L 16.625829,1.9607331   L 16.637263,1.9503588   L 18.192362,1.9503588   L 18.203796,1.9607331   L 18.215231,1.9607331   L 18.249534,1.9918558   L 18.249534,2.0022301   L 18.260969,2.0126043   L 18.260969,2.251212   L 18.249534,2.251212   L 18.249534,2.2408378   L 18.2381,2.2408378   L 18.2381,2.2304636   L 18.226665,2.2304636   L 18.226665,2.2200893   L 18.203796,2.2200893   L 18.203796,2.2097151   L 17.35764,2.2097151   L 17.35764,2.2200893   L 17.334771,2.2200893   L 17.334771,2.2304636   L 17.323336,2.2304636   L 17.323336,2.251212   L 17.311902,2.251212   L 17.311902,3.2367657   L 17.323336,3.2367657   L 17.323336,3.2575142   L 17.334771,3.2575142   L 17.334771,3.2678885   L 17.346205,3.2678885   L 17.346205,3.2782627   L 17.048907,3.2782627   L 17.037473,3.2678885   L 17.026038,3.2678885   L 16.991734,3.2367657   L 16.991734,3.2263915   L 16.9803,3.2160172   L 16.9803,2.2408378   L 16.9803,2.2097151   z "
     id="path151" />
  <path
     style="fill:#000000;fill-rule:evenodd;fill-opacity:1;stroke:#000000;stroke-width:0.011434546px;stroke-linecap:round;stroke-linejoin:round;stroke-miterlimit:4;stroke-dasharray:none;stroke-opacity:1;"
     d="  M 18.775523,3.205643   L 18.775523,3.2367657   L 18.786958,3.2367657   L 18.786958,3.2575142   L 18.798393,3.2575142   L 18.798393,3.2678885   L 18.809827,3.2678885   L 18.809827,3.2782627   L 18.512529,3.2782627   L 18.501094,3.2678885   L 18.48966,3.2678885   L 18.455356,3.2367657   L 18.455356,3.2263915   L 18.443922,3.2160172   L 18.443922,1.9918558   L 18.432487,1.9918558   L 18.432487,1.9711073   L 18.421053,1.9711073   L 18.421053,1.9607331   L 18.409618,1.9607331   L 18.409618,1.9503588   L 18.706916,1.9503588   L 18.718351,1.9607331   L 18.729785,1.9607331   L 18.764089,1.9918558   L 18.764089,2.0022301   L 18.775523,2.0126043   L 18.775523,3.1952687   L 18.775523,3.205643   z "
     id="path153" />
  <path
     style="fill:#000000;fill-rule:evenodd;fill-opacity:1;stroke:#000000;stroke-width:0.011434546px;stroke-linecap:round;stroke-linejoin:round;stroke-miterlimit:4;stroke-dasharray:none;stroke-opacity:1;"
     d="  M 20.399229,2.2097151   L 19.415858,2.2097151   L 19.415858,2.2200893   L 19.392989,2.2200893   L 19.392989,2.2304636   L 19.381554,2.2304636   L 19.381554,2.251212   L 19.37012,2.251212   L 19.37012,3.2367657   L 19.381554,3.2367657   L 19.381554,3.2575142   L 19.392989,3.2575142   L 19.392989,3.2678885   L 19.404423,3.2678885   L 19.404423,3.2782627   L 19.107125,3.2782627   L 19.095691,3.2678885   L 19.084256,3.2678885   L 19.049953,3.2367657   L 19.049953,3.2263915   L 19.038518,3.2160172   L 19.038518,2.0126043   L 19.049953,2.0022301   L 19.049953,1.9918558   L 19.061387,1.9814816   L 19.072822,1.9814816   L 19.072822,1.9711073   L 19.084256,1.9607331   L 19.095691,1.9607331   L 19.107125,1.9503588   L 20.662223,1.9503588   L 20.673658,1.9607331   L 20.685092,1.9607331   L 20.719396,1.9918558   L 20.719396,2.0022301   L 20.730831,2.0126043   L 20.730831,3.2367657   L 20.742265,3.2367657   L 20.742265,3.2575142   L 20.7537,3.2575142   L 20.7537,3.2678885   L 20.765134,3.2678885   L 20.765134,3.2782627   L 20.467836,3.2782627   L 20.456402,3.2678885   L 20.444967,3.2678885   L 20.410663,3.2367657   L 20.410663,3.2263915   L 20.399229,3.2160172   L 20.399229,2.2408378   L 20.399229,2.2097151   z "
     id="path155" />
  <path
     style="fill:#000000;fill-rule:evenodd;fill-opacity:1;stroke:#000000;stroke-width:0.011434546px;stroke-linecap:round;stroke-linejoin:round;stroke-miterlimit:4;stroke-dasharray:none;stroke-opacity:1;"
     d="  M 22.411709,2.5105683   L 21.359731,2.5105683   L 21.348296,2.500194   L 21.336862,2.500194   L 21.336862,2.4898198   L 21.325427,2.4898198   L 21.325427,2.4690713   L 21.313992,2.4690713   L 21.313992,2.7284275   L 21.325427,2.7284275   L 21.325427,2.749176   L 21.336862,2.749176   L 21.336862,2.7595503   L 21.348296,2.7595503   L 21.359731,2.7699245   L 22.423143,2.7699245   L 22.446012,2.749176   L 22.457447,2.749176   L 22.480316,2.7284275   L 22.480316,2.7180533   L 22.491751,2.707679   L 22.491751,2.6973048   L 22.503185,2.6869305   L 22.503185,2.666182   L 22.51462,2.6558078   L 22.51462,2.6143108   L 22.503185,2.6039365   L 22.503185,2.5728138   L 22.491751,2.5728138   L 22.491751,2.5624395   L 22.457447,2.5313168   L 22.446012,2.5313168   L 22.446012,2.5209425   L 22.434578,2.5209425   L 22.423143,2.5105683   L 22.411709,2.5105683   z "
     id="path157" />
  <path
     style="fill:#000000;fill-rule:evenodd;fill-opacity:1;stroke:#000000;stroke-width:0.011434546px;stroke-linecap:round;stroke-linejoin:round;stroke-miterlimit:4;stroke-dasharray:none;stroke-opacity:1;"
     d="  M 23.200692,2.2097151   L 22.857656,2.2097151   L 22.846222,2.1993408   L 22.834787,2.1993408   L 22.800483,2.1682181   L 22.800483,2.1578438   L 22.789049,2.1474696   L 22.789049,2.0126043   L 22.800483,2.0022301   L 22.800483,1.9918558   L 22.811918,1.9814816   L 22.823352,1.9814816   L 22.823352,1.9711073   L 22.834787,1.9607331   L 22.846222,1.9607331   L 22.857656,1.9503588   L 24.412754,1.9503588   L 24.424189,1.9607331   L 24.435623,1.9607331   L 24.469927,1.9918558   L 24.469927,2.0022301   L 24.481362,2.0126043   L 24.481362,2.251212   L 24.469927,2.251212   L 24.469927,2.2408378   L 24.458492,2.2408378   L 24.458492,2.2304636   L 24.447058,2.2304636   L 24.447058,2.2200893   L 24.424189,2.2200893   L 24.424189,2.2097151   L 23.578032,2.2097151   L 23.578032,2.2200893   L 23.555163,2.2200893   L 23.555163,2.2304636   L 23.543729,2.2304636   L 23.543729,2.251212   L 23.532294,2.251212   L 23.532294,3.2367657   L 23.543729,3.2367657   L 23.543729,3.2575142   L 23.555163,3.2575142   L 23.555163,3.2678885   L 23.566598,3.2678885   L 23.566598,3.2782627   L 23.2693,3.2782627   L 23.257865,3.2678885   L 23.246431,3.2678885   L 23.212127,3.2367657   L 23.212127,3.2263915   L 23.200692,3.2160172   L 23.200692,2.2408378   L 23.200692,2.2097151   z "
     id="path159" />
  <path
     style="fill:#000000;fill-rule:evenodd;fill-opacity:1;stroke:#000000;stroke-width:0.011434546px;stroke-linecap:round;stroke-linejoin:round;stroke-miterlimit:4;stroke-dasharray:none;stroke-opacity:1;"
     d="  M 22.526054,3.0189065   L 22.548923,3.0189065   L 22.548923,3.0085322   L 22.571792,3.0085322   L 22.571792,2.998158   L 22.583227,2.998158   L 22.583227,2.9877837   L 22.594662,2.9877837   L 22.594662,2.9774095   L 22.606096,2.9774095   L 22.606096,3.2160172   L 22.594662,3.2263915   L 22.594662,3.2367657   L 22.583227,3.24714   L 22.583227,3.2575142   L 22.571792,3.2575142   L 22.560358,3.2678885   L 22.548923,3.2678885   L 22.537489,3.2782627   L 20.982391,3.2782627   L 20.970956,3.2678885   L 20.959522,3.2678885   L 20.925218,3.2367657   L 20.925218,3.2263915   L 20.913783,3.2160172   L 20.913783,2.0126043   L 20.925218,2.0022301   L 20.925218,1.9918558   L 20.936652,1.9814816   L 20.948087,1.9814816   L 20.948087,1.9711073   L 20.959522,1.9607331   L 20.970956,1.9607331   L 20.982391,1.9503588   L 22.537489,1.9503588   L 22.548923,1.9607331   L 22.560358,1.9607331   L 22.594662,1.9918558   L 22.594662,2.0022301   L 22.606096,2.0126043   L 22.606096,2.251212   L 22.594662,2.251212   L 22.594662,2.2408378   L 22.583227,2.2408378   L 22.583227,2.2304636   L 22.571792,2.2304636   L 22.571792,2.2200893   L 22.548923,2.2200893   L 22.548923,2.2097151   L 21.291123,2.2097151   L 21.291123,2.2200893   L 21.268254,2.2200893   L 21.268254,2.2304636   L 21.25682,2.2304636   L 21.25682,2.251212   L 21.245385,2.251212   L 21.245385,3.0189065   L 22.51462,3.0189065   L 22.526054,3.0189065   z "
     id="path161" />
  <path
     style="fill:#ff0000;fill-rule:evenodd;fill-opacity:1;stroke:#ff0000;stroke-width:0.011434546px;stroke-linecap:round;stroke-linejoin:round;stroke-miterlimit:4;stroke-dasharray:none;stroke-opacity:1;"
     d="  M 13.389853,2.8944155   L 13.389853,3.2782627   L 13.938711,3.2782627   L 13.938711,2.8944155   L 13.389853,2.8944155   z "
     id="path163" />
  <path
     style="fill:#ff0000;fill-rule:evenodd;fill-opacity:1;stroke:#ff0000;stroke-width:0.011434546px;stroke-linecap:round;stroke-linejoin:round;stroke-miterlimit:4;stroke-dasharray:none;stroke-opacity:1;"
     d="  M 12.818125,2.4275743   L 13.286942,2.4275743   L 13.286942,2.8010472   L 12.818125,2.8010472   L 12.818125,2.4275743   z "
     id="path165" />
  <path
     style="fill:#ff0000;fill-rule:evenodd;fill-opacity:1;stroke:#ff0000;stroke-width:0.011434546px;stroke-linecap:round;stroke-linejoin:round;stroke-miterlimit:4;stroke-dasharray:none;stroke-opacity:1;"
     d="  M 14.041622,2.8944155   L 14.041622,3.2782627   L 14.21314,3.2782627   L 14.224574,3.2678885   L 14.270313,3.2678885   L 14.281747,3.2575142   L 14.304616,3.2575142   L 14.327485,3.24714   L 14.33892,3.2367657   L 14.361789,3.2263915   L 14.384658,3.205643   L 14.407527,3.1952687   L 14.418962,3.1848945   L 14.430396,3.164146   L 14.441831,3.1537717   L 14.487569,3.0707777   L 14.487569,3.0500292   L 14.499003,3.0189065   L 14.499003,2.9877837   L 14.510438,2.956661   L 14.510438,2.8944155   L 14.053056,2.8944155   L 14.041622,2.8944155   z "
     id="path167" />
  <path
     style="fill:#ff0000;fill-rule:evenodd;fill-opacity:1;stroke:#ff0000;stroke-width:0.011434546px;stroke-linecap:round;stroke-linejoin:round;stroke-miterlimit:4;stroke-dasharray:none;stroke-opacity:1;"
     d="  M 14.041622,2.4275743   L 14.510438,2.4275743   L 14.510438,2.8010472   L 14.041622,2.8010472   L 14.041622,2.4275743   z "
     id="path169" />
  <path
     style="fill:#ff0000;fill-rule:evenodd;fill-opacity:1;stroke:#ff0000;stroke-width:0.011434546px;stroke-linecap:round;stroke-linejoin:round;stroke-miterlimit:4;stroke-dasharray:none;stroke-opacity:1;"
     d="  M 13.286942,2.8944155   L 13.286942,3.2782627   L 13.115423,3.2782627   L 13.103989,3.2678885   L 13.058251,3.2678885   L 13.046816,3.2575142   L 13.023947,3.2575142   L 13.001078,3.24714   L 12.989643,3.2367657   L 12.966774,3.2263915   L 12.943905,3.205643   L 12.921036,3.1952687   L 12.909602,3.1848945   L 12.898167,3.164146   L 12.886733,3.1537717   L 12.840994,3.0707777   L 12.840994,3.0500292   L 12.82956,3.0189065   L 12.82956,2.9877837   L 12.818125,2.956661   L 12.818125,2.8944155   L 13.275507,2.8944155   L 13.286942,2.8944155   z "
     id="path171" />
  <path
     style="fill:#ff0000;fill-rule:evenodd;fill-opacity:1;stroke:#ff0000;stroke-width:0.011434546px;stroke-linecap:round;stroke-linejoin:round;stroke-miterlimit:4;stroke-dasharray:none;stroke-opacity:1;"
     d="  M 13.389853,1.9503588   L 13.389853,2.334206   L 13.938711,2.334206   L 13.938711,1.9503588   L 13.389853,1.9503588   z "
     id="path173" />
  <path
     style="fill:#ff0000;fill-rule:evenodd;fill-opacity:1;stroke:#ff0000;stroke-width:0.011434546px;stroke-linecap:round;stroke-linejoin:round;stroke-miterlimit:4;stroke-dasharray:none;stroke-opacity:1;"
     d="  M 14.041622,2.334206   L 14.041622,1.9503588   L 14.21314,1.9503588   L 14.224574,1.9607331   L 14.270313,1.9607331   L 14.281747,1.9711073   L 14.304616,1.9711073   L 14.327485,1.9814816   L 14.33892,1.9918558   L 14.361789,2.0022301   L 14.384658,2.0229786   L 14.407527,2.0333528   L 14.418962,2.0437271   L 14.430396,2.0644756   L 14.441831,2.0748498   L 14.487569,2.1578438   L 14.487569,2.1785923   L 14.499003,2.2097151   L 14.499003,2.2408378   L 14.510438,2.2719605   L 14.510438,2.334206   L 14.053056,2.334206   L 14.041622,2.334206   z "
     id="path175" />
  <path
     style="fill:#ff0000;fill-rule:evenodd;fill-opacity:1;stroke:#ff0000;stroke-width:0.011434546px;stroke-linecap:round;stroke-linejoin:round;stroke-miterlimit:4;stroke-dasharray:none;stroke-opacity:1;"
     d="  M 13.286942,2.334206   L 13.286942,1.9503588   L 13.115423,1.9503588   L 13.103989,1.9607331   L 13.058251,1.9607331   L 13.046816,1.9711073   L 13.023947,1.9711073   L 13.001078,1.9814816   L 12.989643,1.9918558   L 12.966774,2.0022301   L 12.943905,2.0229786   L 12.921036,2.0333528   L 12.909602,2.0437271   L 12.898167,2.0644756   L 12.886733,2.0748498   L 12.840994,2.1578438   L 12.840994,2.1785923   L 12.82956,2.2097151   L 12.82956,2.2408378   L 12.818125,2.2719605   L 12.818125,2.334206   L 13.275507,2.334206   L 13.286942,2.334206   z "
     id="path177" />
  <text
     xml:space="preserve"
     style="font-size:0.437500px;font-style:normal;font-variant:normal;font-weight:400;font-stretch:Condensed;line-height:125.000000%;letter-spacing:0px;word-spacing:0px;fill:#000000;fill-opacity:1;stroke:none;font-family:Times New Roman;text-align:start;text-anchor:start;"
     transform="matrix(1.000000,-0.000000,0.000000,1.000000,23.897928,3.251924)"
     x="0.000000"
     y="0.000000"
     id="text183"><tspan
       x="0.000000"
       y="0.000000"
       id="tspan181"><tspan
         dx="0.000000"
         dy="0.000000"
         style="fill:#000000;font-size:0.437500px;font-style:normal;font-variant:normal;font-weight:400;font-stretch:Condensed;font-family:Times New Roman;"
         id="tspan179">®</tspan></tspan></text>
  <text
     xml:space="preserve"
     style="font-size:1.500000px;font-style:normal;font-variant:normal;font-weight:400;font-stretch:Normal;line-height:125.000000%;letter-spacing:0px;word-spacing:0px;fill:#000000;fill-opacity:1;stroke:none;font-family:Arial;text-align:start;text-anchor:start;"
     transform="matrix(1.000000,-0.000000,0.000000,1.000000,10.938870,3.820387)"
     x="0.000000"
     y="1.093500"
     id="text189"><tspan
       x="0.000000"
       y="1.093500"
       id="tspan187"><tspan
         dx="0.000000"
         dy="0.000000"
         style="fill:#808080;font-size:1.500000px;font-style:normal;font-variant:normal;font-weight:400;font-stretch:Normal;font-family:Arial;"
         id="tspan185">FortiWLC 50D</tspan></tspan></text>
  <ellipse
     style="fill:#00ff00;fill-rule:evenodd;fill-opacity:1;stroke:#000000;stroke-width:0.017980818px;stroke-linecap:round;stroke-linejoin:round;stroke-miterlimit:4;stroke-dasharray:none;stroke-opacity:1;"
     cx="49.654026"
     cy="8.8183528"
     rx="0.35062593"
     ry="0.35062593"
     id="ellipse191" />
  <ellipse
     style="fill:none;stroke:#000000;stroke-width:0.017980818px;stroke-linecap:round;stroke-linejoin:round;stroke-miterlimit:4;stroke-dasharray:none;stroke-opacity:1;"
     cx="49.654026"
     cy="8.8183528"
     rx="0.35062593"
     ry="0.35062593"
     id="ellipse193" />
  <ellipse
     style="fill:#ffff00;fill-rule:evenodd;fill-opacity:1;stroke:#000000;stroke-width:0.017980818px;stroke-linecap:round;stroke-linejoin:round;stroke-miterlimit:4;stroke-dasharray:none;stroke-opacity:1;"
     cx="49.654026"
     cy="10.993726"
     rx="0.35062593"
     ry="0.35062593"
     id="ellipse195" />
  <ellipse
     style="fill:none;stroke:#000000;stroke-width:0.017980818px;stroke-linecap:round;stroke-linejoin:round;stroke-miterlimit:4;stroke-dasharray:none;stroke-opacity:1;"
     cx="49.654026"
     cy="10.993726"
     rx="0.35062593"
     ry="0.35062593"
     id="ellipse197" />
  <ellipse
     style="fill:#00ff00;fill-rule:evenodd;fill-opacity:1;stroke:#000000;stroke-width:0.017980818px;stroke-linecap:round;stroke-linejoin:round;stroke-miterlimit:4;stroke-dasharray:none;stroke-opacity:1;"
     cx="49.654026"
     cy="13.079208"
     rx="0.35062593"
     ry="0.35062593"
     id="ellipse199" />
  <ellipse
     style="fill:none;stroke:#000000;stroke-width:0.017980818px;stroke-linecap:round;stroke-linejoin:round;stroke-miterlimit:4;stroke-dasharray:none;stroke-opacity:1;"
     cx="49.654026"
     cy="13.079208"
     rx="0.35062593"
     ry="0.35062593"
     id="ellipse201" />
  <text
     xml:space="preserve"
     style="font-size:0.812500px;font-style:normal;font-variant:normal;font-weight:400;font-stretch:Normal;line-height:267.369489%;letter-spacing:0px;word-spacing:0px;fill:#000000;fill-opacity:1;stroke:none;font-family:Arial;text-align:start;text-anchor:start;"
     transform="matrix(1.000000,-0.000000,0.000000,1.000000,45.253954,8.389870)"
     x="0.000000"
     y="0.592313"
     id="text211"><tspan
       x="0.000000"
       y="0.592313"
       id="tspan205"><tspan
         dx="0.000000"
         dy="0.000000"
         style="fill:#000000;font-size:0.812500px;font-style:normal;font-variant:normal;font-weight:400;font-stretch:Normal;font-family:Arial;"
         id="tspan203">POWER</tspan></tspan><tspan
       x="0.000000"
       y="2.764690"
       id="tspan209"><tspan
         dx="0.000000"
         dy="0.000000"
         style="fill:#000000;font-size:0.812500px;font-style:normal;font-variant:normal;font-weight:400;font-stretch:Normal;font-family:Arial;"
         id="tspan207">HDD</tspan></tspan></text>
  <text
     xml:space="preserve"
     style="font-size:0.812500px;font-style:normal;font-variant:normal;font-weight:400;font-stretch:Normal;line-height:125.000000%;letter-spacing:0px;word-spacing:0px;fill:#000000;fill-opacity:1;stroke:none;font-family:Arial;text-align:start;text-anchor:start;"
     transform="matrix(1.000000,-0.000000,0.000000,1.000000,45.253954,8.389870)"
     x="0.000000"
     y="4.862157"
     id="text217"><tspan
       x="0.000000"
       y="4.862157"
       id="tspan215"><tspan
         dx="0.000000"
         dy="0.000000"
         style="fill:#000000;font-size:0.812500px;font-style:normal;font-variant:normal;font-weight:400;font-stretch:Normal;font-family:Arial;"
         id="tspan213">STATUS</tspan></tspan></text>
  <text
     xml:space="preserve"
     style="font-size:0.812500px;font-style:normal;font-variant:normal;font-weight:400;font-stretch:Normal;line-height:125.000000%;letter-spacing:0px;word-spacing:0px;fill:#000000;fill-opacity:1;stroke:none;font-family:Arial;text-align:start;text-anchor:start;"
     transform="matrix(1.000000,-0.000000,0.000000,1.000000,45.253954,8.389870)"
     x="7.941919"
     y="6.435258"
     id="text223"><tspan
       x="7.941919"
       y="6.435258"
       id="tspan221"><tspan
         dx="0.000000"
         dy="0.000000"
         style="fill:#000000;font-size:0.812500px;font-style:normal;font-variant:normal;font-weight:400;font-stretch:Normal;font-family:Arial;"
         id="tspan219">CONSOLE</tspan></tspan></text>
  <text
     xml:space="preserve"
     style="font-size:0.812500px;font-style:normal;font-variant:normal;font-weight:400;font-stretch:Normal;line-height:125.000000%;letter-spacing:0px;word-spacing:0px;fill:#000000;fill-opacity:1;stroke:none;font-family:Arial;text-align:start;text-anchor:start;"
     transform="matrix(1.000000,-0.000000,0.000000,1.000000,45.253954,8.389870)"
     x="28.471031"
     y="6.435258"
     id="text229"><tspan
       x="28.471031"
       y="6.435258"
       id="tspan227"><tspan
         dx="0.000000"
         dy="0.000000"
         style="fill:#000000;font-size:0.812500px;font-style:normal;font-variant:normal;font-weight:400;font-stretch:Normal;font-family:Arial;"
         id="tspan225">1</tspan></tspan></text>
  <text
     xml:space="preserve"
     style="font-size:0.812500px;font-style:normal;font-variant:normal;font-weight:400;font-stretch:Normal;line-height:125.000000%;letter-spacing:0px;word-spacing:0px;fill:#000000;fill-opacity:1;stroke:none;font-family:Arial;text-align:start;text-anchor:start;"
     transform="matrix(1.000000,-0.000000,0.000000,1.000000,45.253954,8.389870)"
     x="35.588789"
     y="6.435258"
     id="text235"><tspan
       x="35.588789"
       y="6.435258"
       id="tspan233"><tspan
         dx="0.000000"
         dy="0.000000"
         style="fill:#000000;font-size:0.812500px;font-style:normal;font-variant:normal;font-weight:400;font-stretch:Normal;font-family:Arial;"
         id="tspan231">2</tspan></tspan></text>
  <text
     xml:space="preserve"
     style="font-size:0.812500px;font-style:normal;font-variant:normal;font-weight:400;font-stretch:Normal;line-height:125.000000%;letter-spacing:0px;word-spacing:0px;fill:#000000;fill-opacity:1;stroke:none;font-family:Arial;text-align:start;text-anchor:start;"
     transform="matrix(1.000000,-0.000000,0.000000,1.000000,45.253954,8.389870)"
     x="42.706546"
     y="6.435258"
     id="text241"><tspan
       x="42.706546"
       y="6.435258"
       id="tspan239"><tspan
         dx="0.000000"
         dy="0.000000"
         style="fill:#000000;font-size:0.812500px;font-style:normal;font-variant:normal;font-weight:400;font-stretch:Normal;font-family:Arial;"
         id="tspan237">3</tspan></tspan></text>
  <text
     xml:space="preserve"
     style="font-size:0.812500px;font-style:normal;font-variant:normal;font-weight:400;font-stretch:Normal;line-height:125.000000%;letter-spacing:0px;word-spacing:0px;fill:#000000;fill-opacity:1;stroke:none;font-family:Arial;text-align:start;text-anchor:start;"
     transform="matrix(1.000000,-0.000000,0.000000,1.000000,45.253954,8.389870)"
     x="49.899228"
     y="6.435258"
     id="text247"><tspan
       x="49.899228"
       y="6.435258"
       id="tspan245"><tspan
         dx="0.000000"
         dy="0.000000"
         style="fill:#000000;font-size:0.812500px;font-style:normal;font-variant:normal;font-weight:400;font-stretch:Normal;font-family:Arial;"
         id="tspan243">4</tspan></tspan></text>
  <text
     xml:space="preserve"
     style="font-size:0.812500px;font-style:normal;font-variant:normal;font-weight:400;font-stretch:Normal;line-height:125.000000%;letter-spacing:0px;word-spacing:0px;fill:#000000;fill-opacity:1;stroke:none;font-family:Arial;text-align:start;text-anchor:start;"
     transform="matrix(1.000000,-0.000000,0.000000,1.000000,45.253954,8.389870)"
     x="15.958762"
     y="6.435258"
     id="text253"><tspan
       x="15.958762"
       y="6.435258"
       id="tspan251"><tspan
         dx="0.000000"
         dy="0.000000"
         style="fill:#000000;font-size:0.812500px;font-style:normal;font-variant:normal;font-weight:400;font-stretch:Normal;font-family:Arial;"
         id="tspan249">USB</tspan></tspan></text>
  <text
     xml:space="preserve"
     style="font-size:0.812500px;font-style:normal;font-variant:normal;font-weight:400;font-stretch:Normal;line-height:125.000000%;letter-spacing:0px;word-spacing:0px;fill:#000000;fill-opacity:1;stroke:none;font-family:Arial;text-align:start;text-anchor:start;"
     transform="matrix(1.000000,-0.000000,0.000000,1.000000,45.253954,8.389870)"
     x="22.402206"
     y="6.435258"
     id="text259"><tspan
       x="22.402206"
       y="6.435258"
       id="tspan257"><tspan
         dx="0.000000"
         dy="0.000000"
         style="fill:#000000;font-size:0.812500px;font-style:normal;font-variant:normal;font-weight:400;font-stretch:Normal;font-family:Arial;"
         id="tspan255">RST</tspan></tspan></text>
  <path
     style="fill:#000000;fill-rule:evenodd;fill-opacity:1;stroke:#000000;stroke-width:0.018585799px;stroke-linecap:round;stroke-linejoin:round;stroke-miterlimit:4;stroke-dasharray:none;stroke-opacity:1;"
     d="  M 52.746499,12.846989   L 52.746499,11.723345   L 52.913771,11.723345   L 52.913771,10.674612   L 52.746499,10.674612   L 52.746499,9.7382422   L 53.58286,9.7382422   L 53.58286,9.2138753   L 53.991748,9.2138753   L 53.991748,8.6145989   L 56.240629,8.6145989   L 56.240629,9.2138753   L 56.649517,9.2138753   L 56.649517,9.7382422   L 57.504464,9.7382422   L 57.504464,10.674612   L 57.318606,10.674612   L 57.318606,11.723345   L 57.504464,11.723345   L 57.504464,12.846989   L 52.746499,12.846989   z "
     id="path261" />
  <path
     style="fill:#494949;fill-rule:evenodd;fill-opacity:1;stroke:#000000;stroke-width:0.018595278px;stroke-linecap:round;stroke-linejoin:round;stroke-miterlimit:4;stroke-dasharray:none;stroke-opacity:1;"
     d="  M 59.858204,10.665835   L 59.802418,10.665835   L 59.802418,10.68413   L 59.765227,10.68413   L 59.746632,10.702425   L 59.728037,10.702425   L 59.728037,10.720719   L 59.709441,10.720719   L 59.709441,10.739014   L 59.690846,10.739014   L 59.690846,10.757309   L 59.672251,10.775604   L 59.672251,10.812193   L 59.653656,10.812193   L 59.653656,12.605078   L 59.672251,12.605078   L 59.672251,12.641667   L 59.690846,12.659962   L 59.690846,12.678257   L 59.709441,12.678257   L 59.709441,12.696552   L 59.728037,12.696552   L 59.728037,12.714846   L 59.746632,12.714846   L 59.765227,12.733141   L 59.802418,12.733141   L 59.802418,12.751436   L 64.451238,12.751436   L 64.451238,12.733141   L 64.488428,12.733141   L 64.507023,12.714846   L 64.525619,12.714846   L 64.525619,12.696552   L 64.544214,12.696552   L 64.544214,12.678257   L 64.562809,12.678257   L 64.562809,12.659962   L 64.581404,12.641667   L 64.581404,12.605078   L 64.6,12.605078   L 64.6,10.812193   L 64.581404,10.812193   L 64.581404,10.775604   L 64.562809,10.757309   L 64.562809,10.739014   L 64.544214,10.739014   L 64.544214,10.720719   L 64.525619,10.720719   L 64.525619,10.702425   L 64.507023,10.702425   L 64.488428,10.68413   L 64.451238,10.68413   L 64.451238,10.665835   L 59.876799,10.665835   L 59.858204,10.665835   z "
     id="path263" />
  <path
     style="fill:#000000;fill-rule:evenodd;fill-opacity:1;stroke:#494949;stroke-width:0.018595278px;stroke-linecap:round;stroke-linejoin:round;stroke-miterlimit:4;stroke-dasharray:none;stroke-opacity:1;"
     d="  M 59.932585,10.830488   L 59.876799,10.830488   L 59.876799,10.848783   L 59.858204,10.848783   L 59.858204,10.867077   L 59.839608,10.867077   L 59.839608,10.885372   L 59.821013,10.885372   L 59.821013,12.531899   L 59.839608,12.550194   L 59.839608,12.568488   L 59.858204,12.568488   L 59.858204,12.586783   L 59.876799,12.586783   L 59.895394,12.605078   L 64.376856,12.605078   L 64.376856,12.586783   L 64.395452,12.586783   L 64.395452,12.568488   L 64.414047,12.568488   L 64.414047,12.550194   L 64.432642,12.531899   L 64.432642,10.885372   L 64.414047,10.885372   L 64.414047,10.867077   L 64.395452,10.848783   L 64.376856,10.848783   L 64.376856,10.830488   L 59.95118,10.830488   L 59.932585,10.830488   z "
     id="path265" />
  <path
     style="fill:#494949;fill-rule:evenodd;fill-opacity:1;stroke:#494949;stroke-width:0.018595278px;stroke-linecap:round;stroke-linejoin:round;stroke-miterlimit:4;stroke-dasharray:none;stroke-opacity:1;"
     d="  M 60.918134,11.818404   L 60.509038,11.818404   L 60.509038,11.72693   L 60.918134,11.72693   L 60.918134,11.818404   z "
     id="path267" />
  <path
     style="fill:#494949;fill-rule:evenodd;fill-opacity:1;stroke:#494949;stroke-width:0.018595278px;stroke-linecap:round;stroke-linejoin:round;stroke-miterlimit:4;stroke-dasharray:none;stroke-opacity:1;"
     d="  M 61.847898,11.818404   L 61.438802,11.818404   L 61.438802,11.72693   L 61.847898,11.72693   L 61.847898,11.818404   z "
     id="path269" />
  <path
     style="fill:#494949;fill-rule:evenodd;fill-opacity:1;stroke:#494949;stroke-width:0.018595278px;stroke-linecap:round;stroke-linejoin:round;stroke-miterlimit:4;stroke-dasharray:none;stroke-opacity:1;"
     d="  M 62.759067,11.818404   L 62.349971,11.818404   L 62.349971,11.72693   L 62.759067,11.72693   L 62.759067,11.818404   z "
     id="path271" />
  <path
     style="fill:#494949;fill-rule:evenodd;fill-opacity:1;stroke:#494949;stroke-width:0.018595278px;stroke-linecap:round;stroke-linejoin:round;stroke-miterlimit:4;stroke-dasharray:none;stroke-opacity:1;"
     d="  M 63.707426,11.818404   L 63.29833,11.818404   L 63.29833,11.72693   L 63.707426,11.72693   L 63.707426,11.818404   z "
     id="path273" />
  <path
     style="fill:#494949;fill-rule:evenodd;fill-opacity:1;stroke:#494949;stroke-width:0.018595278px;stroke-linecap:round;stroke-linejoin:round;stroke-miterlimit:4;stroke-dasharray:none;stroke-opacity:1;"
     d="  M 64.153713,11.251267   L 64.153713,11.214677   L 64.135118,11.178088   L 64.097927,11.159793   L 60.155728,11.159793   L 60.118537,11.178088   L 60.099942,11.214677   L 60.099942,11.672046   L 60.118537,11.708635   L 60.155728,11.72693   L 64.097927,11.72693   L 64.135118,11.708635   L 64.153713,11.672046   L 64.153713,11.635456   L 64.153713,11.251267   z "
     id="path275" />
  <path
     style="fill:#333333;fill-rule:evenodd;fill-opacity:1;stroke:#333333;stroke-width:0.018595278px;stroke-linecap:round;stroke-linejoin:round;stroke-miterlimit:4;stroke-dasharray:none;stroke-opacity:1;"
     d="  M 64.004951,11.434214   L 63.986356,11.361035   L 63.911974,11.287856   L 63.837593,11.269562   L 60.416062,11.269562   L 60.341681,11.287856   L 60.2673,11.361035   L 60.248704,11.434214   L 60.2673,11.507393   L 60.341681,11.580572   L 60.416062,11.598867   L 63.837593,11.598867   L 63.911974,11.580572   L 63.986356,11.507393   L 64.004951,11.434214   z "
     id="path277" />
  <path
     style="fill:#7f7f7f;fill-rule:evenodd;fill-opacity:1;stroke:#000000;stroke-width:0.018595278px;stroke-linecap:round;stroke-linejoin:round;stroke-miterlimit:4;stroke-dasharray:none;stroke-opacity:1;"
     d="  M 59.821013,10.99514   L 59.616465,10.99514   L 59.616465,11.013435   L 59.59787,11.013435   L 59.59787,11.03173   L 59.579274,11.03173   L 59.579274,11.050025   L 59.560679,11.068319   L 59.560679,12.348951   L 59.579274,12.367246   L 59.579274,12.385541   L 59.59787,12.385541   L 59.59787,12.403836   L 59.616465,12.403836   L 59.616465,12.42213   L 59.821013,12.42213   L 59.821013,11.013435   L 59.821013,10.99514   z "
     id="path279" />
  <path
     style="fill:#7f7f7f;fill-rule:evenodd;fill-opacity:1;stroke:#000000;stroke-width:0.018595278px;stroke-linecap:round;stroke-linejoin:round;stroke-miterlimit:4;stroke-dasharray:none;stroke-opacity:1;"
     d="  M 64.432642,10.99514   L 64.63719,10.99514   L 64.63719,11.013435   L 64.655786,11.013435   L 64.655786,11.03173   L 64.674381,11.03173   L 64.674381,11.050025   L 64.692976,11.068319   L 64.692976,12.348951   L 64.674381,12.367246   L 64.674381,12.385541   L 64.655786,12.385541   L 64.655786,12.403836   L 64.63719,12.403836   L 64.63719,12.42213   L 64.432642,12.42213   L 64.432642,11.013435   L 64.432642,10.99514   z "
     id="path281" />
  <path
     style="fill:#7f7f7f;fill-rule:evenodd;fill-opacity:1;stroke:#000000;stroke-width:0.018595278px;stroke-linecap:round;stroke-linejoin:round;stroke-miterlimit:4;stroke-dasharray:none;stroke-opacity:1;"
     d="  M 60.081347,10.830488   L 60.081347,10.629246   L 60.099942,10.629246   L 60.099942,10.610951   L 60.118537,10.592656   L 60.137133,10.592656   L 60.137133,10.574361   L 64.079332,10.574361   L 64.079332,10.592656   L 64.116523,10.592656   L 64.116523,10.629246   L 64.135118,10.629246   L 64.135118,10.830488   L 60.099942,10.830488   L 60.081347,10.830488   z "
     id="path283" />
  <path
     style="fill:#7f7f7f;fill-rule:evenodd;fill-opacity:1;stroke:#000000;stroke-width:0.018595278px;stroke-linecap:round;stroke-linejoin:round;stroke-miterlimit:4;stroke-dasharray:none;stroke-opacity:1;"
     d="  M 60.081347,12.605078   L 60.081347,12.80632   L 60.099942,12.80632   L 60.099942,12.824615   L 60.118537,12.842909   L 60.137133,12.842909   L 60.137133,12.861204   L 64.079332,12.861204   L 64.079332,12.842909   L 64.116523,12.842909   L 64.116523,12.80632   L 64.135118,12.80632   L 64.135118,12.605078   L 60.099942,12.605078   L 60.081347,12.605078   z "
     id="path285" />
  <path
     style="fill:#000000;fill-rule:evenodd;fill-opacity:1;stroke:#000000;stroke-width:0.018730942px;stroke-linecap:round;stroke-linejoin:round;stroke-miterlimit:4;stroke-dasharray:none;stroke-opacity:1;"
     d="  M 73.200519,8.5366929   L 73.200519,8.7399475   L 72.900824,8.7399475   L 72.900824,9.3127559   L 71.645851,9.3127559   L 71.645851,9.368189   L 71.252501,9.368189   L 71.252501,8.7399475   L 71.327425,8.7399475   L 71.327425,9.3127559   L 71.645851,9.3127559   L 71.645851,10.587717   L 71.776967,10.587717   L 71.776967,11.252913   L 71.645851,11.252913   L 71.645851,12.694173   L 76.440972,12.694173   L 76.440972,11.252913   L 76.309855,11.252913   L 76.309855,10.587717   L 76.440972,10.587717   L 76.440972,9.3127559   L 76.759398,9.3127559   L 76.759398,8.7399475   L 76.834322,8.7399475   L 76.834322,9.368189   L 76.440972,9.368189   L 76.440972,9.3127559   L 75.185999,9.3127559   L 75.185999,8.7399475   L 74.886304,8.7399475   L 74.886304,8.5366929   L 73.200519,8.5366929   z "
     id="path287" />
  <path
     style="fill:#000000;fill-rule:evenodd;fill-opacity:1;stroke:#494949;stroke-width:0.018730942px;stroke-linecap:round;stroke-linejoin:round;stroke-miterlimit:4;stroke-dasharray:none;stroke-opacity:1;"
     d="  M 72.900824,8.7584252   L 71.327425,8.7584252   L 71.327425,9.3312336   L 72.900824,9.3312336   L 72.900824,8.7584252   z "
     id="path289" />
  <path
     style="fill:#000000;fill-rule:evenodd;fill-opacity:1;stroke:#494949;stroke-width:0.018730942px;stroke-linecap:round;stroke-linejoin:round;stroke-miterlimit:4;stroke-dasharray:none;stroke-opacity:1;"
     d="  M 76.759398,8.7584252   L 75.185999,8.7584252   L 75.185999,9.3312336   L 76.759398,9.3312336   L 76.759398,8.7584252   z "
     id="path291" />
  <path
     style="fill:#000000;fill-rule:evenodd;fill-opacity:1;stroke:#000000;stroke-width:0.018730942px;stroke-linecap:round;stroke-linejoin:round;stroke-miterlimit:4;stroke-dasharray:none;stroke-opacity:1;"
     d="  M 80.318277,8.5366929   L 80.318277,8.7399475   L 80.018582,8.7399475   L 80.018582,9.3127559   L 78.763608,9.3127559   L 78.763608,9.368189   L 78.370259,9.368189   L 78.370259,8.7399475   L 78.445182,8.7399475   L 78.445182,9.3127559   L 78.763608,9.3127559   L 78.763608,10.587717   L 78.894725,10.587717   L 78.894725,11.252913   L 78.763608,11.252913   L 78.763608,12.694173   L 83.558729,12.694173   L 83.558729,11.252913   L 83.427613,11.252913   L 83.427613,10.587717   L 83.558729,10.587717   L 83.558729,9.3127559   L 83.877155,9.3127559   L 83.877155,8.7399475   L 83.952079,8.7399475   L 83.952079,9.368189   L 83.558729,9.368189   L 83.558729,9.3127559   L 82.303756,9.3127559   L 82.303756,8.7399475   L 82.004061,8.7399475   L 82.004061,8.5366929   L 80.318277,8.5366929   z "
     id="path293" />
  <path
     style="fill:#000000;fill-rule:evenodd;fill-opacity:1;stroke:#494949;stroke-width:0.018730942px;stroke-linecap:round;stroke-linejoin:round;stroke-miterlimit:4;stroke-dasharray:none;stroke-opacity:1;"
     d="  M 80.018582,8.7584252   L 78.445182,8.7584252   L 78.445182,9.3312336   L 80.018582,9.3312336   L 80.018582,8.7584252   z "
     id="path295" />
  <path
     style="fill:#000000;fill-rule:evenodd;fill-opacity:1;stroke:#494949;stroke-width:0.018730942px;stroke-linecap:round;stroke-linejoin:round;stroke-miterlimit:4;stroke-dasharray:none;stroke-opacity:1;"
     d="  M 83.877155,8.7584252   L 82.303756,8.7584252   L 82.303756,9.3312336   L 83.877155,9.3312336   L 83.877155,8.7584252   z "
     id="path297" />
  <path
     style="fill:#000000;fill-rule:evenodd;fill-opacity:1;stroke:#000000;stroke-width:0.018730942px;stroke-linecap:round;stroke-linejoin:round;stroke-miterlimit:4;stroke-dasharray:none;stroke-opacity:1;"
     d="  M 87.436034,8.5366929   L 87.436034,8.7399475   L 87.136339,8.7399475   L 87.136339,9.3127559   L 85.881366,9.3127559   L 85.881366,9.368189   L 85.488016,9.368189   L 85.488016,8.7399475   L 85.56294,8.7399475   L 85.56294,9.3127559   L 85.881366,9.3127559   L 85.881366,10.587717   L 86.012483,10.587717   L 86.012483,11.252913   L 85.881366,11.252913   L 85.881366,12.694173   L 90.676487,12.694173   L 90.676487,11.252913   L 90.545371,11.252913   L 90.545371,10.587717   L 90.676487,10.587717   L 90.676487,9.3127559   L 90.994913,9.3127559   L 90.994913,8.7399475   L 91.069837,8.7399475   L 91.069837,9.368189   L 90.676487,9.368189   L 90.676487,9.3127559   L 89.421514,9.3127559   L 89.421514,8.7399475   L 89.121819,8.7399475   L 89.121819,8.5366929   L 87.436034,8.5366929   z "
     id="path299" />
  <path
     style="fill:#000000;fill-rule:evenodd;fill-opacity:1;stroke:#494949;stroke-width:0.018730942px;stroke-linecap:round;stroke-linejoin:round;stroke-miterlimit:4;stroke-dasharray:none;stroke-opacity:1;"
     d="  M 87.136339,8.7584252   L 85.56294,8.7584252   L 85.56294,9.3312336   L 87.136339,9.3312336   L 87.136339,8.7584252   z "
     id="path301" />
  <path
     style="fill:#000000;fill-rule:evenodd;fill-opacity:1;stroke:#494949;stroke-width:0.018730942px;stroke-linecap:round;stroke-linejoin:round;stroke-miterlimit:4;stroke-dasharray:none;stroke-opacity:1;"
     d="  M 90.994913,8.7584252   L 89.421514,8.7584252   L 89.421514,9.3312336   L 90.994913,9.3312336   L 90.994913,8.7584252   z "
     id="path303" />
  <path
     style="fill:#000000;fill-rule:evenodd;fill-opacity:1;stroke:#000000;stroke-width:0.018730942px;stroke-linecap:round;stroke-linejoin:round;stroke-miterlimit:4;stroke-dasharray:none;stroke-opacity:1;"
     d="  M 94.628716,8.5366929   L 94.628716,8.7399475   L 94.329021,8.7399475   L 94.329021,9.3127559   L 93.074048,9.3127559   L 93.074048,9.368189   L 92.680698,9.368189   L 92.680698,8.7399475   L 92.755622,8.7399475   L 92.755622,9.3127559   L 93.074048,9.3127559   L 93.074048,10.587717   L 93.205164,10.587717   L 93.205164,11.252913   L 93.074048,11.252913   L 93.074048,12.694173   L 97.869169,12.694173   L 97.869169,11.252913   L 97.738052,11.252913   L 97.738052,10.587717   L 97.869169,10.587717   L 97.869169,9.3127559   L 98.187595,9.3127559   L 98.187595,8.7399475   L 98.262518,8.7399475   L 98.262518,9.368189   L 97.869169,9.368189   L 97.869169,9.3127559   L 96.614196,9.3127559   L 96.614196,8.7399475   L 96.314501,8.7399475   L 96.314501,8.5366929   L 94.628716,8.5366929   z "
     id="path305" />
  <path
     style="fill:#000000;fill-rule:evenodd;fill-opacity:1;stroke:#494949;stroke-width:0.018730942px;stroke-linecap:round;stroke-linejoin:round;stroke-miterlimit:4;stroke-dasharray:none;stroke-opacity:1;"
     d="  M 94.329021,8.7584252   L 92.755622,8.7584252   L 92.755622,9.3312336   L 94.329021,9.3312336   L 94.329021,8.7584252   z "
     id="path307" />
  <path
     style="fill:#000000;fill-rule:evenodd;fill-opacity:1;stroke:#494949;stroke-width:0.018730942px;stroke-linecap:round;stroke-linejoin:round;stroke-miterlimit:4;stroke-dasharray:none;stroke-opacity:1;"
     d="  M 98.187595,8.7584252   L 96.614196,8.7584252   L 96.614196,9.3312336   L 98.187595,9.3312336   L 98.187595,8.7584252   z "
     id="path309" />
  <path
     style="fill:#83ff00;fill-rule:evenodd;fill-opacity:1;stroke:#000000;stroke-width:0.018084278px;stroke-linecap:round;stroke-linejoin:round;stroke-miterlimit:4;stroke-dasharray:none;stroke-opacity:1;"
     d="  M 72.644544,8.8335652   L 71.631825,8.8335652   L 71.631825,9.2484489   L 72.644544,9.2484489   L 72.644544,8.8335652   z "
     id="path311" />
  <path
     style="fill:#83ff00;fill-rule:evenodd;fill-opacity:1;stroke:#000000;stroke-width:0.018084278px;stroke-linecap:round;stroke-linejoin:round;stroke-miterlimit:4;stroke-dasharray:none;stroke-opacity:1;"
     d="  M 76.38799,8.8335652   L 75.37527,8.8335652   L 75.37527,9.2484489   L 76.38799,9.2484489   L 76.38799,8.8335652   z "
     id="path313" />
  <path
     style="fill:#83ff00;fill-rule:evenodd;fill-opacity:1;stroke:#000000;stroke-width:0.018084278px;stroke-linecap:round;stroke-linejoin:round;stroke-miterlimit:4;stroke-dasharray:none;stroke-opacity:1;"
     d="  M 79.751666,8.8335652   L 78.738946,8.8335652   L 78.738946,9.2484489   L 79.751666,9.2484489   L 79.751666,8.8335652   z "
     id="path315" />
  <path
     style="fill:#83ff00;fill-rule:evenodd;fill-opacity:1;stroke:#000000;stroke-width:0.018084278px;stroke-linecap:round;stroke-linejoin:round;stroke-miterlimit:4;stroke-dasharray:none;stroke-opacity:1;"
     d="  M 83.495111,8.8335652   L 82.482392,8.8335652   L 82.482392,9.2484489   L 83.495111,9.2484489   L 83.495111,8.8335652   z "
     id="path317" />
  <path
     style="fill:#83ff00;fill-rule:evenodd;fill-opacity:1;stroke:#000000;stroke-width:0.018084278px;stroke-linecap:round;stroke-linejoin:round;stroke-miterlimit:4;stroke-dasharray:none;stroke-opacity:1;"
     d="  M 86.876871,8.8335652   L 85.864152,8.8335652   L 85.864152,9.2484489   L 86.876871,9.2484489   L 86.876871,8.8335652   z "
     id="path319" />
  <path
     style="fill:#83ff00;fill-rule:evenodd;fill-opacity:1;stroke:#000000;stroke-width:0.018084278px;stroke-linecap:round;stroke-linejoin:round;stroke-miterlimit:4;stroke-dasharray:none;stroke-opacity:1;"
     d="  M 90.620317,8.8335652   L 89.607597,8.8335652   L 89.607597,9.2484489   L 90.620317,9.2484489   L 90.620317,8.8335652   z "
     id="path321" />
  <path
     style="fill:#83ff00;fill-rule:evenodd;fill-opacity:1;stroke:#000000;stroke-width:0.018084278px;stroke-linecap:round;stroke-linejoin:round;stroke-miterlimit:4;stroke-dasharray:none;stroke-opacity:1;"
     d="  M 94.056329,8.8335652   L 93.04361,8.8335652   L 93.04361,9.2484489   L 94.056329,9.2484489   L 94.056329,8.8335652   z "
     id="path323" />
  <path
     style="fill:#83ff00;fill-rule:evenodd;fill-opacity:1;stroke:#000000;stroke-width:0.018084278px;stroke-linecap:round;stroke-linejoin:round;stroke-miterlimit:4;stroke-dasharray:none;stroke-opacity:1;"
     d="  M 97.817859,8.8335652   L 96.80514,8.8335652   L 96.80514,9.2484489   L 97.817859,9.2484489   L 97.817859,8.8335652   z "
     id="path325" />
</svg>
