<?xml version="1.0" encoding="UTF-8" standalone="no"?>
<svg
   version="1.0"
   width="21.52mm"
   height="21.52mm"
   id="svg93"
   xmlns="http://www.w3.org/2000/svg"
   xmlns:svg="http://www.w3.org/2000/svg">
  <defs
     id="defs3">
    <pattern
       id="EMFhbasepattern"
       patternUnits="userSpaceOnUse"
       width="6"
       height="6"
       x="0"
       y="0" />
  </defs>
  <path
     style="fill:#bfbfbf;fill-rule:evenodd;fill-opacity:1;stroke:#000000;stroke-width:0.093626983px;stroke-linecap:round;stroke-linejoin:round;stroke-miterlimit:4;stroke-dasharray:none;stroke-opacity:1;"
     d="  M 81.155868,13.959119   L 81.137142,13.246154   L 81.080966,12.533188   L 80.987339,11.838984   L 80.874987,11.144781   L 80.725184,10.46934   L 80.53793,9.8126606   L 80.313225,9.1747438   L 80.069795,8.5368271   L 79.788914,7.9176726   L 79.470582,7.3172804   L 79.15225,6.7356504   L 78.777742,6.1727827   L 78.403234,5.6286772   L 77.991276,5.103334   L 77.541866,4.596753   L 77.092457,4.1089344   L 76.605596,3.6586402   L 76.100011,3.208346   L 75.5757,2.7955763   L 75.032663,2.4203312   L 74.470901,2.045086   L 73.890414,1.7261277   L 73.291201,1.4071693   L 72.673263,1.1257354   L 72.0366,0.88182609   L 71.399936,0.65667901   L 70.744547,0.46905643   L 70.070433,0.31895837   L 69.377593,0.20638483   L 68.684754,0.11257354   L 67.973189,0.056286772   L 67.261624,0.037524515   L 13.931695,0.037524515   L 13.22013,0.056286772   L 12.508565,0.11257354   L 11.815725,0.20638483   L 11.122885,0.31895837   L 10.448771,0.46905643   L 9.7933823,0.65667901   L 9.1567188,0.88182609   L 8.5200553,1.1257354   L 7.9021172,1.4071693   L 7.3029046,1.7261277   L 6.7224173,2.045086   L 6.1606554,2.4203312   L 5.6176189,2.7955763   L 5.0933078,3.208346   L 4.5877221,3.6586402   L 4.1008618,4.1089344   L 3.6514523,4.596753   L 3.2020428,5.103334   L 2.7900841,5.6286772   L 2.4155761,6.1727827   L 2.0410682,6.7356504   L 1.7227365,7.3172804   L 1.4044047,7.9176726   L 1.1235238,8.5368271   L 0.88009363,9.1747438   L 0.65538887,9.8126606   L 0.46813491,10.46934   L 0.31833174,11.144781   L 0.20597936,11.838984   L 0.11235238,12.533188   L 0.056176189,13.246154   L 0.037450793,13.959119   L 0.037450793,67.394028   L 0.056176189,68.106994   L 0.11235238,68.81996   L 0.20597936,69.514163   L 0.31833174,70.208367   L 0.46813491,70.883808   L 0.65538887,71.540487   L 0.88009363,72.178404   L 1.1235238,72.816321   L 1.4044047,73.435475   L 1.7227365,74.035867   L 2.0410682,74.617497   L 2.4155761,75.180365   L 2.7900841,75.724471   L 3.2020428,76.249814   L 3.6514523,76.756395   L 4.1008618,77.244213   L 4.5877221,77.694508   L 5.0933078,78.144802   L 5.6176189,78.557571   L 6.1606554,78.932817   L 6.7224173,79.308062   L 7.3029046,79.62702   L 7.9021172,79.945979   L 8.5200553,80.227412   L 9.1567188,80.471322   L 9.7933823,80.696469   L 10.448771,80.884091   L 11.122885,81.034189   L 11.815725,81.146763   L 12.508565,81.240574   L 13.22013,81.296861   L 13.931695,81.315623   L 67.261624,81.315623   L 67.973189,81.296861   L 68.684754,81.240574   L 69.377593,81.146763   L 70.070433,81.034189   L 70.744547,80.884091   L 71.399936,80.696469   L 72.0366,80.471322   L 72.673263,80.227412   L 73.291201,79.945979   L 73.890414,79.62702   L 74.470901,79.308062   L 75.032663,78.932817   L 75.5757,78.557571   L 76.100011,78.144802   L 76.605596,77.694508   L 77.092457,77.244213   L 77.541866,76.756395   L 77.991276,76.249814   L 78.403234,75.724471   L 78.777742,75.180365   L 79.15225,74.617497   L 79.470582,74.035867   L 79.788914,73.435475   L 80.069795,72.816321   L 80.313225,72.178404   L 80.53793,71.540487   L 80.725184,70.883808   L 80.874987,70.208367   L 80.987339,69.514163   L 81.080966,68.81996   L 81.137142,68.106994   L 81.155868,67.394028   L 81.155868,13.959119   z "
     id="path5" />
  <path
     style="fill:#efefef;fill-rule:evenodd;fill-opacity:1;stroke:#efefef;stroke-width:0.018725397px;stroke-linecap:round;stroke-linejoin:round;stroke-miterlimit:4;stroke-dasharray:none;stroke-opacity:1;"
     d="  M 80.743909,14.240553   L 80.725184,13.527588   L 80.669007,12.833384   L 80.594106,12.13918   L 80.463028,11.463739   L 80.313225,10.80706   L 80.125971,10.150381   L 79.901266,9.5124645   L 79.657836,8.8745477   L 79.39568,8.2741555   L 79.077349,7.6737633   L 78.759017,7.1108955   L 78.403234,6.5480278   L 78.010001,6.0039223   L 77.598042,5.4785791   L 77.167358,4.9907605   L 76.717949,4.5029418   L 76.231088,4.0526476   L 75.744228,3.6211157   L 75.219917,3.208346   L 74.676881,2.8143386   L 74.115119,2.4578557   L 73.553357,2.1388973   L 72.954144,1.819939   L 72.354931,1.5572674   L 71.718268,1.313358   L 71.081604,1.0882109   L 70.426216,0.90058835   L 69.770827,0.75049029   L 69.096712,0.61915449   L 68.403873,0.54410546   L 67.711033,0.48781869   L 66.999468,0.46905643   L 14.212576,0.46905643   L 13.501011,0.48781869   L 12.808171,0.54410546   L 12.115331,0.61915449   L 11.441217,0.75049029   L 10.785828,0.90058835   L 10.130439,1.0882109   L 9.4937759,1.313358   L 8.8571125,1.5572674   L 8.2578998,1.819939   L 7.6586871,2.1388973   L 7.0969252,2.4578557   L 6.5351633,2.8143386   L 5.9921268,3.208346   L 5.4678157,3.6211157   L 4.9809554,4.0526476   L 4.4940951,4.5029418   L 4.0446856,4.9907605   L 3.6140015,5.4785791   L 3.2020428,6.0039223   L 2.8088094,6.5480278   L 2.4530269,7.1108955   L 2.1346952,7.6737633   L 1.8163634,8.2741555   L 1.5542079,8.8745477   L 1.3107777,9.5124645   L 1.086073,10.150381   L 0.89881902,10.80706   L 0.74901585,11.463739   L 0.61793808,12.13918   L 0.54303649,12.833384   L 0.4868603,13.527588   L 0.46813491,14.240553   L 0.46813491,67.131357   L 0.4868603,67.844323   L 0.54303649,68.538526   L 0.61793808,69.23273   L 0.74901585,69.908171   L 0.89881902,70.56485   L 1.086073,71.221529   L 1.3107777,71.859446   L 1.5542079,72.497362   L 1.8163634,73.097755   L 2.1346952,73.698147   L 2.4530269,74.261015   L 2.8088094,74.823882   L 3.2020428,75.367988   L 3.6140015,75.893331   L 4.0446856,76.38115   L 4.4940951,76.868968   L 4.9809554,77.319262   L 5.4678157,77.750794   L 5.9921268,78.163564   L 6.5351633,78.557571   L 7.0969252,78.914054   L 7.6586871,79.233013   L 8.2578998,79.551971   L 8.8571125,79.814643   L 9.4937759,80.058552   L 10.130439,80.283699   L 10.785828,80.471322   L 11.441217,80.62142   L 12.115331,80.752756   L 12.808171,80.827805   L 13.501011,80.884091   L 14.212576,80.902854   L 66.999468,80.902854   L 67.711033,80.884091   L 68.403873,80.827805   L 69.096712,80.752756   L 69.770827,80.62142   L 70.426216,80.471322   L 71.081604,80.283699   L 71.718268,80.058552   L 72.354931,79.814643   L 72.954144,79.551971   L 73.553357,79.233013   L 74.115119,78.914054   L 74.676881,78.557571   L 75.219917,78.163564   L 75.744228,77.750794   L 76.231088,77.319262   L 76.717949,76.868968   L 77.167358,76.38115   L 77.598042,75.893331   L 78.010001,75.367988   L 78.403234,74.823882   L 78.759017,74.261015   L 79.077349,73.698147   L 79.39568,73.097755   L 79.657836,72.497362   L 79.901266,71.859446   L 80.125971,71.221529   L 80.313225,70.56485   L 80.463028,69.908171   L 80.594106,69.23273   L 80.669007,68.538526   L 80.725184,67.844323   L 80.743909,67.131357   L 80.743909,14.240553   z "
     id="path7" />
  <path
     style="fill:#efefef;fill-rule:evenodd;fill-opacity:1;stroke:#bfbfbf;stroke-width:0.018725397px;stroke-linecap:round;stroke-linejoin:round;stroke-miterlimit:4;stroke-dasharray:none;stroke-opacity:1;"
     d="  M 75.313544,17.824144   L 75.294819,17.20499   L 75.257368,16.604598   L 75.182466,16.004206   L 75.070114,15.422576   L 74.939036,14.840946   L 74.770508,14.278078   L 74.601979,13.733972   L 74.377274,13.189867   L 74.133844,12.664524   L 73.871688,12.13918   L 73.590808,11.651362   L 73.291201,11.163543   L 72.954144,10.694487   L 72.598362,10.244193   L 72.223854,9.8126606   L 71.83062,9.3998909   L 71.418662,9.0058835   L 70.987977,8.6306384   L 70.538568,8.2741555   L 70.070433,7.9364349   L 69.583573,7.6362387   L 69.096712,7.3548049   L 68.572401,7.0921333   L 68.04809,6.8482239   L 67.505054,6.6230768   L 66.962017,6.4542165   L 66.400255,6.2853562   L 65.819768,6.1540204   L 65.239281,6.0414469   L 64.640068,5.9663978   L 64.040855,5.9288733   L 63.422917,5.9101111   L 17.789127,5.9101111   L 17.171188,5.9288733   L 16.571976,5.9663978   L 15.972763,6.0414469   L 15.392276,6.1540204   L 14.811788,6.2853562   L 14.250027,6.4542165   L 13.70699,6.6230768   L 13.163954,6.8482239   L 12.639643,7.0921333   L 12.115331,7.3548049   L 11.628471,7.6362387   L 11.141611,7.9364349   L 10.673476,8.2741555   L 10.224066,8.6306384   L 9.7933823,9.0058835   L 9.3814236,9.3998909   L 8.9881902,9.8126606   L 8.6136823,10.244193   L 8.2578998,10.694487   L 7.9208426,11.163543   L 7.6212363,11.651362   L 7.3403554,12.13918   L 7.0781998,12.664524   L 6.8347697,13.189867   L 6.6100649,13.733972   L 6.4415363,14.278078   L 6.2730078,14.840946   L 6.14193,15.422576   L 6.0295776,16.004206   L 5.954676,16.604598   L 5.9172252,17.20499   L 5.8984998,17.824144   L 5.8984998,63.547766   L 5.9172252,64.16692   L 5.954676,64.767312   L 6.0295776,65.367705   L 6.14193,65.949335   L 6.2730078,66.530965   L 6.4415363,67.093832   L 6.6100649,67.637938   L 6.8347697,68.182043   L 7.0781998,68.707386   L 7.3403554,69.23273   L 7.6212363,69.720548   L 7.9208426,70.208367   L 8.2578998,70.677423   L 8.6136823,71.127718   L 8.9881902,71.559249   L 9.3814236,71.972019   L 9.7933823,72.366027   L 10.224066,72.741272   L 10.673476,73.097755   L 11.141611,73.435475   L 11.628471,73.735671   L 12.115331,74.017105   L 12.639643,74.279777   L 13.163954,74.523686   L 13.70699,74.748833   L 14.250027,74.917694   L 14.811788,75.086554   L 15.392276,75.21789   L 15.972763,75.330463   L 16.571976,75.405512   L 17.171188,75.443037   L 17.789127,75.461799   L 63.422917,75.461799   L 64.040855,75.443037   L 64.640068,75.405512   L 65.239281,75.330463   L 65.819768,75.21789   L 66.400255,75.086554   L 66.962017,74.917694   L 67.505054,74.748833   L 68.04809,74.523686   L 68.572401,74.279777   L 69.096712,74.017105   L 69.583573,73.735671   L 70.070433,73.435475   L 70.538568,73.097755   L 70.987977,72.741272   L 71.418662,72.366027   L 71.83062,71.972019   L 72.223854,71.559249   L 72.598362,71.127718   L 72.954144,70.677423   L 73.291201,70.208367   L 73.590808,69.720548   L 73.871688,69.23273   L 74.133844,68.707386   L 74.377274,68.182043   L 74.601979,67.637938   L 74.770508,67.093832   L 74.939036,66.530965   L 75.070114,65.949335   L 75.182466,65.367705   L 75.257368,64.767312   L 75.294819,64.16692   L 75.313544,63.547766   L 75.313544,17.824144   z "
     id="path9" />
  <path
     style="fill:#000000;fill-rule:evenodd;fill-opacity:1;stroke:#000000;stroke-width:0.018725397px;stroke-linecap:round;stroke-linejoin:round;stroke-miterlimit:4;stroke-dasharray:none;stroke-opacity:1;"
     d="  M 29.679753,39.532076   L 29.642302,39.532076   L 29.642302,39.513314   L 29.623577,39.513314   L 29.623577,39.494552   L 29.604852,39.494552   L 29.604852,39.475789   L 29.586126,39.457027   L 29.586126,39.419503   L 29.567401,39.419503   L 29.567401,37.243081   L 29.586126,37.243081   L 29.586126,37.205556   L 29.604852,37.186794   L 29.604852,37.168032   L 29.623577,37.168032   L 29.623577,37.14927   L 29.642302,37.14927   L 29.642302,37.130507   L 32.226407,37.130507   L 32.226407,37.14927   L 32.245132,37.14927   L 32.245132,37.168032   L 32.263858,37.168032   L 32.263858,37.186794   L 32.282583,37.205556   L 32.282583,37.243081   L 32.301309,37.243081   L 32.301309,37.674613   L 32.282583,37.674613   L 32.282583,37.637088   L 32.245132,37.599564   L 32.226407,37.599564   L 32.226407,37.580801   L 30.166613,37.580801   L 30.166613,37.599564   L 30.147888,37.599564   L 30.147888,37.618326   L 30.129163,37.618326   L 30.129163,37.65585   L 30.110437,37.65585   L 30.110437,39.438265   L 30.129163,39.438265   L 30.129163,39.475789   L 30.147888,39.494552   L 30.147888,39.513314   L 30.166613,39.513314   L 30.166613,39.532076   L 29.698479,39.532076   L 29.679753,39.532076   z "
     id="path11" />
  <path
     style="fill:#000000;fill-rule:evenodd;fill-opacity:1;stroke:#000000;stroke-width:0.018725397px;stroke-linecap:round;stroke-linejoin:round;stroke-miterlimit:4;stroke-dasharray:none;stroke-opacity:1;"
     d="  M 32.114055,38.162431   L 30.278966,38.162431   L 30.278966,38.143669   L 30.241515,38.143669   L 30.241515,38.124907   L 30.22279,38.124907   L 30.22279,38.106145   L 30.204064,38.087382   L 30.204064,38.06862   L 30.185339,38.049858   L 30.185339,38.537677   L 30.204064,38.537677   L 30.204064,38.556439   L 30.22279,38.575201   L 30.241515,38.575201   L 30.241515,38.593963   L 30.26024,38.593963   L 30.278966,38.612726   L 32.170231,38.612726   L 32.282583,38.500152   L 32.282583,38.48139   L 32.301309,38.462628   L 32.301309,38.312529   L 32.282583,38.293767   L 32.282583,38.275005   L 32.245132,38.23748   L 32.245132,38.218718   L 32.226407,38.218718   L 32.188956,38.181194   L 32.151505,38.181194   L 32.13278,38.162431   L 32.114055,38.162431   z "
     id="path13" />
  <path
     style="fill:#000000;fill-rule:evenodd;fill-opacity:1;stroke:#000000;stroke-width:0.018725397px;stroke-linecap:round;stroke-linejoin:round;stroke-miterlimit:4;stroke-dasharray:none;stroke-opacity:1;"
     d="  M 36.420896,38.631488   L 36.40217,38.631488   L 36.40217,38.612726   L 36.383445,38.612726   L 36.36472,38.593963   L 36.36472,38.575201   L 36.345994,38.575201   L 36.345994,38.537677   L 36.327269,38.537677   L 36.327269,38.06862   L 36.345994,38.06862   L 36.345994,38.087382   L 36.36472,38.087382   L 36.36472,38.106145   L 36.383445,38.106145   L 36.383445,38.124907   L 37.881477,38.124907   L 37.881477,37.580801   L 36.289818,37.580801   L 36.289818,37.599564   L 36.271093,37.599564   L 36.271093,37.618326   L 36.252367,37.618326   L 36.252367,37.637088   L 36.233642,37.637088   L 36.233642,37.674613   L 36.214916,37.674613   L 36.214916,39.419503   L 36.233642,39.438265   L 36.233642,39.457027   L 36.252367,39.475789   L 36.252367,39.494552   L 36.271093,39.494552   L 36.271093,39.513314   L 36.289818,39.513314   L 36.289818,39.532076   L 35.784232,39.532076   L 35.784232,39.513314   L 35.765507,39.513314   L 35.690605,39.438265   L 35.690605,39.419503   L 35.67188,39.40074   L 35.67188,37.261843   L 35.690605,37.243081   L 35.690605,37.224319   L 35.765507,37.14927   L 35.784232,37.14927   L 35.784232,37.130507   L 38.330886,37.130507   L 38.330886,37.14927   L 38.349612,37.14927   L 38.368337,37.168032   L 38.387062,37.168032   L 38.387062,37.205556   L 38.405788,37.205556   L 38.405788,37.243081   L 38.424513,37.243081   L 38.424513,38.462628   L 38.405788,38.462628   L 38.405788,38.500152   L 38.387062,38.500152   L 38.387062,38.537677   L 38.368337,38.537677   L 38.368337,38.556439   L 38.349612,38.556439   L 38.349612,38.575201   L 38.330886,38.575201   L 38.330886,38.593963   L 38.312161,38.593963   L 38.312161,38.612726   L 38.293435,38.631488   L 38.312161,38.631488   L 38.312161,38.65025   L 38.330886,38.65025   L 38.330886,38.669012   L 38.349612,38.669012   L 38.349612,38.687775   L 38.368337,38.687775   L 38.368337,38.706537   L 38.387062,38.706537   L 38.387062,38.725299   L 38.405788,38.744061   L 38.405788,38.762824   L 38.424513,38.781586   L 38.424513,39.438265   L 38.443239,39.438265   L 38.443239,39.475789   L 38.461964,39.475789   L 38.461964,39.513314   L 38.480689,39.513314   L 38.480689,39.532076   L 37.993829,39.532076   L 37.993829,39.513314   L 37.975104,39.513314   L 37.900202,39.438265   L 37.900202,39.419503   L 37.881477,39.40074   L 37.881477,38.631488   L 36.439621,38.631488   L 36.420896,38.631488   z "
     id="path15" />
  <path
     style="fill:#000000;fill-rule:evenodd;fill-opacity:1;stroke:#000000;stroke-width:0.018725397px;stroke-linecap:round;stroke-linejoin:round;stroke-miterlimit:4;stroke-dasharray:none;stroke-opacity:1;"
     d="  M 39.398234,37.580801   L 38.817747,37.580801   L 38.799021,37.562039   L 38.780296,37.562039   L 38.780296,37.543277   L 38.76157,37.543277   L 38.76157,37.505752   L 38.742845,37.505752   L 38.742845,37.243081   L 38.76157,37.243081   L 38.76157,37.205556   L 38.780296,37.186794   L 38.780296,37.168032   L 38.799021,37.168032   L 38.799021,37.14927   L 38.817747,37.14927   L 38.817747,37.130507   L 41.401851,37.130507   L 41.401851,37.14927   L 41.420577,37.14927   L 41.420577,37.168032   L 41.439302,37.168032   L 41.439302,37.186794   L 41.458027,37.205556   L 41.458027,37.243081   L 41.476753,37.243081   L 41.476753,37.674613   L 41.458027,37.674613   L 41.458027,37.637088   L 41.420577,37.599564   L 41.401851,37.599564   L 41.401851,37.580801   L 40.016172,37.580801   L 40.016172,37.599564   L 39.997447,37.599564   L 39.997447,37.618326   L 39.978721,37.618326   L 39.978721,37.65585   L 39.959996,37.65585   L 39.959996,39.457027   L 39.978721,39.457027   L 39.978721,39.513314   L 39.997447,39.513314   L 39.997447,39.532076   L 39.491861,39.532076   L 39.491861,39.513314   L 39.473135,39.513314   L 39.473135,39.494552   L 39.45441,39.494552   L 39.435685,39.475789   L 39.435685,39.457027   L 39.416959,39.457027   L 39.416959,39.419503   L 39.398234,39.419503   L 39.398234,37.637088   L 39.398234,37.580801   z "
     id="path17" />
  <path
     style="fill:#000000;fill-rule:evenodd;fill-opacity:1;stroke:#000000;stroke-width:0.018725397px;stroke-linecap:round;stroke-linejoin:round;stroke-miterlimit:4;stroke-dasharray:none;stroke-opacity:1;"
     d="  M 42.356846,39.381978   L 42.356846,39.475789   L 42.375572,39.494552   L 42.375572,39.513314   L 42.394297,39.532076   L 41.888712,39.532076   L 41.888712,39.513314   L 41.869986,39.513314   L 41.869986,39.494552   L 41.851261,39.494552   L 41.832535,39.475789   L 41.832535,39.457027   L 41.81381,39.457027   L 41.81381,39.419503   L 41.795085,39.419503   L 41.795085,37.224319   L 41.776359,37.224319   L 41.776359,37.186794   L 41.757634,37.186794   L 41.757634,37.14927   L 41.738908,37.14927   L 41.738908,37.130507   L 42.225769,37.130507   L 42.244494,37.14927   L 42.263219,37.14927   L 42.263219,37.168032   L 42.281945,37.168032   L 42.319396,37.205556   L 42.319396,37.224319   L 42.338121,37.224319   L 42.338121,37.243081   L 42.356846,37.261843   L 42.356846,39.363216   L 42.356846,39.381978   z "
     id="path19" />
  <path
     style="fill:#000000;fill-rule:evenodd;fill-opacity:1;stroke:#000000;stroke-width:0.018725397px;stroke-linecap:round;stroke-linejoin:round;stroke-miterlimit:4;stroke-dasharray:none;stroke-opacity:1;"
     d="  M 44.959677,37.580801   L 43.368018,37.580801   L 43.368018,37.599564   L 43.349292,37.599564   L 43.349292,37.618326   L 43.330567,37.618326   L 43.330567,37.637088   L 43.311842,37.637088   L 43.311842,37.674613   L 43.293116,37.674613   L 43.293116,39.419503   L 43.311842,39.438265   L 43.311842,39.457027   L 43.330567,39.475789   L 43.330567,39.494552   L 43.349292,39.494552   L 43.349292,39.513314   L 43.368018,39.513314   L 43.368018,39.532076   L 42.862432,39.532076   L 42.862432,39.513314   L 42.843707,39.513314   L 42.768805,39.438265   L 42.768805,39.419503   L 42.75008,39.40074   L 42.75008,37.261843   L 42.768805,37.243081   L 42.768805,37.224319   L 42.843707,37.14927   L 42.862432,37.14927   L 42.862432,37.130507   L 45.409086,37.130507   L 45.409086,37.14927   L 45.427811,37.14927   L 45.446537,37.168032   L 45.465262,37.168032   L 45.465262,37.205556   L 45.483988,37.205556   L 45.483988,37.243081   L 45.502713,37.243081   L 45.502713,39.438265   L 45.521438,39.438265   L 45.521438,39.475789   L 45.540164,39.475789   L 45.540164,39.513314   L 45.558889,39.513314   L 45.558889,39.532076   L 45.072029,39.532076   L 45.072029,39.513314   L 45.053304,39.513314   L 44.978402,39.438265   L 44.978402,39.419503   L 44.959677,39.40074   L 44.959677,37.637088   L 44.959677,37.580801   z "
     id="path21" />
  <path
     style="fill:#000000;fill-rule:evenodd;fill-opacity:1;stroke:#000000;stroke-width:0.018725397px;stroke-linecap:round;stroke-linejoin:round;stroke-miterlimit:4;stroke-dasharray:none;stroke-opacity:1;"
     d="  M 48.255346,38.162431   L 46.551335,38.162431   L 46.53261,38.143669   L 46.513884,38.143669   L 46.513884,38.124907   L 46.495159,38.124907   L 46.495159,38.106145   L 46.476434,38.087382   L 46.476434,38.06862   L 46.457708,38.049858   L 46.457708,38.537677   L 46.476434,38.537677   L 46.476434,38.556439   L 46.513884,38.593963   L 46.53261,38.593963   L 46.53261,38.612726   L 48.255346,38.612726   L 48.330248,38.537677   L 48.348973,38.537677   L 48.367699,38.518914   L 48.367699,38.500152   L 48.386424,38.48139   L 48.386424,38.462628   L 48.405149,38.443865   L 48.405149,38.406341   L 48.423875,38.387579   L 48.423875,38.331292   L 48.405149,38.312529   L 48.405149,38.275005   L 48.386424,38.256243   L 48.386424,38.23748   L 48.367699,38.218718   L 48.348973,38.218718   L 48.348973,38.199956   L 48.330248,38.199956   L 48.311523,38.181194   L 48.292797,38.181194   L 48.274072,38.162431   L 48.255346,38.162431   z "
     id="path23" />
  <path
     style="fill:#000000;fill-rule:evenodd;fill-opacity:1;stroke:#000000;stroke-width:0.018725397px;stroke-linecap:round;stroke-linejoin:round;stroke-miterlimit:4;stroke-dasharray:none;stroke-opacity:1;"
     d="  M 49.547399,37.580801   L 48.966911,37.580801   L 48.948186,37.562039   L 48.929461,37.562039   L 48.929461,37.543277   L 48.910735,37.543277   L 48.910735,37.505752   L 48.89201,37.505752   L 48.89201,37.243081   L 48.910735,37.243081   L 48.910735,37.205556   L 48.929461,37.186794   L 48.929461,37.168032   L 48.948186,37.168032   L 48.948186,37.14927   L 48.966911,37.14927   L 48.966911,37.130507   L 51.551016,37.130507   L 51.551016,37.14927   L 51.569741,37.14927   L 51.569741,37.168032   L 51.588467,37.168032   L 51.588467,37.186794   L 51.607192,37.205556   L 51.607192,37.243081   L 51.625918,37.243081   L 51.625918,37.674613   L 51.607192,37.674613   L 51.607192,37.637088   L 51.569741,37.599564   L 51.551016,37.599564   L 51.551016,37.580801   L 50.165337,37.580801   L 50.165337,37.599564   L 50.146611,37.599564   L 50.146611,37.618326   L 50.127886,37.618326   L 50.127886,37.65585   L 50.109161,37.65585   L 50.109161,39.457027   L 50.127886,39.457027   L 50.127886,39.513314   L 50.146611,39.513314   L 50.146611,39.532076   L 49.641026,39.532076   L 49.641026,39.513314   L 49.6223,39.513314   L 49.6223,39.494552   L 49.603575,39.494552   L 49.584849,39.475789   L 49.584849,39.457027   L 49.566124,39.457027   L 49.566124,39.419503   L 49.547399,39.419503   L 49.547399,37.637088   L 49.547399,37.580801   z "
     id="path25" />
  <path
     style="fill:#000000;fill-rule:evenodd;fill-opacity:1;stroke:#000000;stroke-width:0.018725397px;stroke-linecap:round;stroke-linejoin:round;stroke-miterlimit:4;stroke-dasharray:none;stroke-opacity:1;"
     d="  M 48.4426,39.081782   L 48.480051,39.081782   L 48.480051,39.06302   L 48.498776,39.06302   L 48.536227,39.025495   L 48.536227,38.987971   L 48.554953,38.987971   L 48.554953,39.419503   L 48.536227,39.419503   L 48.536227,39.457027   L 48.517502,39.475789   L 48.517502,39.494552   L 48.498776,39.494552   L 48.498776,39.513314   L 48.480051,39.513314   L 48.480051,39.532076   L 45.895946,39.532076   L 45.895946,39.513314   L 45.877221,39.513314   L 45.877221,39.494552   L 45.858496,39.494552   L 45.858496,39.475789   L 45.83977,39.457027   L 45.83977,39.419503   L 45.821045,39.419503   L 45.821045,37.243081   L 45.83977,37.243081   L 45.83977,37.205556   L 45.858496,37.186794   L 45.858496,37.168032   L 45.877221,37.168032   L 45.877221,37.14927   L 45.895946,37.14927   L 45.895946,37.130507   L 48.480051,37.130507   L 48.480051,37.14927   L 48.498776,37.14927   L 48.498776,37.168032   L 48.517502,37.168032   L 48.517502,37.186794   L 48.536227,37.205556   L 48.536227,37.243081   L 48.554953,37.243081   L 48.554953,37.674613   L 48.536227,37.674613   L 48.536227,37.637088   L 48.498776,37.599564   L 48.480051,37.599564   L 48.480051,37.580801   L 46.420257,37.580801   L 46.420257,37.599564   L 46.401532,37.599564   L 46.401532,37.618326   L 46.382807,37.618326   L 46.382807,37.65585   L 46.364081,37.65585   L 46.364081,39.081782   L 48.423875,39.081782   L 48.4426,39.081782   z "
     id="path27" />
  <path
     style="fill:#000000;fill-rule:evenodd;fill-opacity:1;stroke:#000000;stroke-width:0.018725397px;stroke-linecap:round;stroke-linejoin:round;stroke-miterlimit:4;stroke-dasharray:none;stroke-opacity:1;"
     d="  M 33.55591,38.81911   L 33.55591,39.513314   L 34.454729,39.513314   L 34.454729,38.81911   L 33.55591,38.81911   z "
     id="path29" />
  <path
     style="fill:#000000;fill-rule:evenodd;fill-opacity:1;stroke:#000000;stroke-width:0.018725397px;stroke-linecap:round;stroke-linejoin:round;stroke-miterlimit:4;stroke-dasharray:none;stroke-opacity:1;"
     d="  M 32.675817,37.993571   L 33.406107,37.993571   L 33.406107,38.669012   L 32.675817,38.669012   L 32.675817,37.993571   z "
     id="path31" />
  <path
     style="fill:#000000;fill-rule:evenodd;fill-opacity:1;stroke:#000000;stroke-width:0.018725397px;stroke-linecap:round;stroke-linejoin:round;stroke-miterlimit:4;stroke-dasharray:none;stroke-opacity:1;"
     d="  M 34.641983,38.837873   L 34.641983,39.532076   L 34.904139,39.532076   L 34.94159,39.513314   L 34.960315,39.513314   L 34.997766,39.494552   L 35.016491,39.494552   L 35.053942,39.475789   L 35.072667,39.475789   L 35.110118,39.457027   L 35.128843,39.438265   L 35.166294,39.419503   L 35.203745,39.381978   L 35.22247,39.344454   L 35.241196,39.325691   L 35.259921,39.288167   L 35.278647,39.269405   L 35.316097,39.194356   L 35.334823,39.138069   L 35.334823,39.100544   L 35.353548,39.06302   L 35.353548,39.006733   L 35.372274,38.950446   L 35.372274,38.837873   L 34.660709,38.837873   L 34.641983,38.837873   z "
     id="path33" />
  <path
     style="fill:#000000;fill-rule:evenodd;fill-opacity:1;stroke:#000000;stroke-width:0.018725397px;stroke-linecap:round;stroke-linejoin:round;stroke-miterlimit:4;stroke-dasharray:none;stroke-opacity:1;"
     d="  M 34.641983,37.993571   L 35.372274,37.993571   L 35.372274,38.669012   L 34.641983,38.669012   L 34.641983,37.993571   z "
     id="path35" />
  <path
     style="fill:#000000;fill-rule:evenodd;fill-opacity:1;stroke:#000000;stroke-width:0.018725397px;stroke-linecap:round;stroke-linejoin:round;stroke-miterlimit:4;stroke-dasharray:none;stroke-opacity:1;"
     d="  M 33.406107,38.837873   L 33.406107,39.532076   L 33.143951,39.532076   L 33.106501,39.513314   L 33.087775,39.513314   L 33.050325,39.494552   L 33.012874,39.494552   L 32.994148,39.475789   L 32.956698,39.475789   L 32.937972,39.457027   L 32.900521,39.438265   L 32.863071,39.40074   L 32.82562,39.381978   L 32.806894,39.344454   L 32.788169,39.325691   L 32.769444,39.288167   L 32.750718,39.269405   L 32.731993,39.23188   L 32.731993,39.194356   L 32.713267,39.138069   L 32.694542,39.100544   L 32.694542,39.006733   L 32.675817,38.950446   L 32.675817,38.837873   L 33.387382,38.837873   L 33.406107,38.837873   z "
     id="path37" />
  <path
     style="fill:#000000;fill-rule:evenodd;fill-opacity:1;stroke:#000000;stroke-width:0.018725397px;stroke-linecap:round;stroke-linejoin:round;stroke-miterlimit:4;stroke-dasharray:none;stroke-opacity:1;"
     d="  M 33.55591,37.130507   L 33.55591,37.824711   L 34.454729,37.824711   L 34.454729,37.130507   L 33.55591,37.130507   z "
     id="path39" />
  <path
     style="fill:#000000;fill-rule:evenodd;fill-opacity:1;stroke:#000000;stroke-width:0.018725397px;stroke-linecap:round;stroke-linejoin:round;stroke-miterlimit:4;stroke-dasharray:none;stroke-opacity:1;"
     d="  M 34.641983,37.824711   L 34.641983,37.130507   L 34.904139,37.130507   L 34.94159,37.14927   L 34.960315,37.14927   L 34.997766,37.168032   L 35.016491,37.168032   L 35.053942,37.186794   L 35.072667,37.186794   L 35.110118,37.205556   L 35.128843,37.224319   L 35.166294,37.243081   L 35.203745,37.280605   L 35.22247,37.31813   L 35.241196,37.336892   L 35.259921,37.374417   L 35.278647,37.393179   L 35.316097,37.468228   L 35.334823,37.524515   L 35.334823,37.562039   L 35.353548,37.599564   L 35.353548,37.65585   L 35.372274,37.712137   L 35.372274,37.824711   L 34.660709,37.824711   L 34.641983,37.824711   z "
     id="path41" />
  <path
     style="fill:#000000;fill-rule:evenodd;fill-opacity:1;stroke:#000000;stroke-width:0.018725397px;stroke-linecap:round;stroke-linejoin:round;stroke-miterlimit:4;stroke-dasharray:none;stroke-opacity:1;"
     d="  M 33.406107,37.824711   L 33.406107,37.130507   L 33.143951,37.130507   L 33.106501,37.14927   L 33.087775,37.14927   L 33.050325,37.168032   L 33.012874,37.168032   L 32.994148,37.186794   L 32.956698,37.186794   L 32.937972,37.205556   L 32.900521,37.224319   L 32.863071,37.261843   L 32.82562,37.280605   L 32.806894,37.31813   L 32.788169,37.336892   L 32.769444,37.374417   L 32.750718,37.393179   L 32.731993,37.430703   L 32.731993,37.468228   L 32.713267,37.524515   L 32.694542,37.562039   L 32.694542,37.65585   L 32.675817,37.712137   L 32.675817,37.824711   L 33.387382,37.824711   L 33.406107,37.824711   z "
     id="path43" />
  <text
     xml:space="preserve"
     style="font-size:2.500000px;font-style:normal;font-variant:normal;font-weight:400;font-stretch:Normal;line-height:125.000000%;letter-spacing:0px;word-spacing:0px;fill:#000000;fill-opacity:1;stroke:none;font-family:Arial;text-align:start;text-anchor:start;"
     transform="matrix(1.000000,-0.000000,0.000000,1.000000,31.365039,43.641011)"
     x="0.000000"
     y="0.000000"
     id="text75"><tspan
       x="0.000000"
       y="0.000000"
       id="tspan73"><tspan
         dx="0.000000"
         dy="0.000000"
         style="fill:#000000;font-size:2.500000px;font-style:normal;font-variant:normal;font-weight:400;font-stretch:Normal;font-family:Arial;"
         id="tspan45">F</tspan><tspan
         dx="0.000000"
         dy="0.000000"
         style="fill:#000000;font-size:2.500000px;font-style:normal;font-variant:normal;font-weight:400;font-stretch:Normal;font-family:Arial;"
         id="tspan47">o</tspan><tspan
         dx="0.000000"
         dy="0.000000"
         style="fill:#000000;font-size:2.500000px;font-style:normal;font-variant:normal;font-weight:400;font-stretch:Normal;font-family:Arial;"
         id="tspan49">r</tspan><tspan
         dx="0.000000"
         dy="0.000000"
         style="fill:#000000;font-size:2.500000px;font-style:normal;font-variant:normal;font-weight:400;font-stretch:Normal;font-family:Arial;"
         id="tspan51">t</tspan><tspan
         dx="0.000000"
         dy="0.000000"
         style="fill:#000000;font-size:2.500000px;font-style:normal;font-variant:normal;font-weight:400;font-stretch:Normal;font-family:Arial;"
         id="tspan53">i</tspan><tspan
         dx="0.000000"
         dy="0.000000"
         style="fill:#000000;font-size:2.500000px;font-style:normal;font-variant:normal;font-weight:400;font-stretch:Normal;font-family:Arial;"
         id="tspan55">A</tspan><tspan
         dx="0.000000"
         dy="0.000000"
         style="fill:#000000;font-size:2.500000px;font-style:normal;font-variant:normal;font-weight:400;font-stretch:Normal;font-family:Arial;"
         id="tspan57">P</tspan><tspan
         dx="0.000000"
         dy="0.000000"
         style="fill:#000000;font-size:2.500000px;font-style:normal;font-variant:normal;font-weight:400;font-stretch:Normal;font-family:Arial;"
         id="tspan59"> </tspan><tspan
         dx="0.000000"
         dy="0.000000"
         style="fill:#000000;font-size:2.500000px;font-style:normal;font-variant:normal;font-weight:400;font-stretch:Normal;font-family:Arial;"
         id="tspan61">U</tspan><tspan
         dx="0.000000"
         dy="0.000000"
         style="fill:#000000;font-size:2.500000px;font-style:normal;font-variant:normal;font-weight:400;font-stretch:Normal;font-family:Arial;"
         id="tspan63">4</tspan><tspan
         dx="0.000000"
         dy="0.000000"
         style="fill:#000000;font-size:2.500000px;font-style:normal;font-variant:normal;font-weight:400;font-stretch:Normal;font-family:Arial;"
         id="tspan65">2</tspan><tspan
         dx="0.000000"
         dy="0.000000"
         style="fill:#000000;font-size:2.500000px;font-style:normal;font-variant:normal;font-weight:400;font-stretch:Normal;font-family:Arial;"
         id="tspan67">1</tspan><tspan
         dx="0.000000"
         dy="0.000000"
         style="fill:#000000;font-size:2.500000px;font-style:normal;font-variant:normal;font-weight:400;font-stretch:Normal;font-family:Arial;"
         id="tspan69">E</tspan><tspan
         dx="0.000000"
         dy="0.000000"
         style="fill:#000000;font-size:2.500000px;font-style:normal;font-variant:normal;font-weight:400;font-stretch:Normal;font-family:Arial;"
         id="tspan71">V</tspan></tspan></text>
  <text
     xml:space="preserve"
     style="font-size:0.812500px;font-style:normal;font-variant:normal;font-weight:400;font-stretch:Condensed;line-height:125.000000%;letter-spacing:0px;word-spacing:0px;fill:#000000;fill-opacity:1;stroke:none;font-family:Times New Roman;text-align:start;text-anchor:start;"
     transform="matrix(1.000000,-0.000000,0.000000,1.000000,31.365039,43.641011)"
     x="19.455687"
     y="-4.127697"
     id="text81"><tspan
       x="19.455687"
       y="-4.127697"
       id="tspan79"><tspan
         dx="0.000000"
         dy="0.000000"
         style="fill:#000000;font-size:0.812500px;font-style:normal;font-variant:normal;font-weight:400;font-stretch:Condensed;font-family:Times New Roman;"
         id="tspan77">®</tspan></tspan></text>
  <path
     style="fill:none;stroke:#000000;stroke-width:0.0081012035px;stroke-linecap:round;stroke-linejoin:round;stroke-miterlimit:4;stroke-dasharray:none;stroke-opacity:1;"
     d="  M 26.51524,0   L 26.231697,0   L 26.231697,0.28410028   L 26.51524,0.28410028   L 26.51524,0   z "
     id="path83" />
  <path
     style="fill:none;stroke:#000000;stroke-width:0.0081012035px;stroke-linecap:round;stroke-linejoin:round;stroke-miterlimit:4;stroke-dasharray:none;stroke-opacity:1;"
     d="  M 34.081764,0   L 33.798222,0   L 33.798222,0.28410028   L 34.081764,0.28410028   L 34.081764,0   z "
     id="path85" />
  <path
     style="fill:none;stroke:#000000;stroke-width:0.0081012035px;stroke-linecap:round;stroke-linejoin:round;stroke-miterlimit:4;stroke-dasharray:none;stroke-opacity:1;"
     d="  M 41.575377,0   L 41.291835,0   L 41.291835,0.28410028   L 41.575377,0.28410028   L 41.575377,0   z "
     id="path87" />
  <path
     style="fill:none;stroke:#000000;stroke-width:0.0081012035px;stroke-linecap:round;stroke-linejoin:round;stroke-miterlimit:4;stroke-dasharray:none;stroke-opacity:1;"
     d="  M 49.141901,0   L 48.858359,0   L 48.858359,0.28410028   L 49.141901,0.28410028   L 49.141901,0   z "
     id="path89" />
  <path
     style="fill:none;stroke:#000000;stroke-width:0.0081012035px;stroke-linecap:round;stroke-linejoin:round;stroke-miterlimit:4;stroke-dasharray:none;stroke-opacity:1;"
     d="  M 55.063881,0   L 54.780339,0   L 54.780339,0.28410028   L 55.063881,0.28410028   L 55.063881,0   z "
     id="path91" />
</svg>
