<?xml version="1.0" encoding="UTF-8" standalone="no"?>
<svg
   version="1.0"
   width="16.540001mm"
   height="16.540001mm"
   id="svg157"
   xmlns="http://www.w3.org/2000/svg"
   xmlns:svg="http://www.w3.org/2000/svg">
  <defs
     id="defs3">
    <pattern
       id="EMFhbasepattern"
       patternUnits="userSpaceOnUse"
       width="6"
       height="6"
       x="0"
       y="0" />
  </defs>
  <path
     style="fill:none;stroke:none;"
     d="  M 25.734518,24.271346   L 25.734518,25.665619   L 27.542118,25.665619   M 27.542118,24.271346   L 31.10975,24.271346   M 29.30215,24.271346   L 29.30215,25.665619   M 32.01355,24.271346   L 32.01355,25.665619   M 32.01355,24.271346   L 32.01355,25.665619  "
     id="path5" />
  <path
     style="fill:none;stroke:none;"
     d="  M 33.773582,25.665619   L 33.773582,24.271346   L 35.581182,25.665619   L 37.388782,24.271346   L 37.388782,25.665619  "
     id="path7" />
  <path
     style="fill:none;stroke:none;"
     d="  M 38.245013,25.665619   L 40.052614,24.271346   L 41.860214,25.665619   M 38.720698,25.317051   L 41.384529,25.317051  "
     id="path9" />
  <path
     style="fill:none;stroke:none;"
     d="  M 20.359286,25.665619   L 22.166886,24.271346   L 23.974486,25.665619   M 20.83497,25.317051   L 23.498802,25.317051  "
     id="path11" />
  <path
     style="fill:#dddddd;fill-rule:evenodd;fill-opacity:1;stroke:#000000;stroke-width:0.093524605px;stroke-linecap:round;stroke-linejoin:round;stroke-miterlimit:4;stroke-dasharray:none;stroke-opacity:1;"
     d="  M 62.287385,6.6760259   L 62.287385,6.338474   L 62.212565,5.6633703   L 62.156451,5.3445713   L 62.081631,5.0070194   L 61.988106,4.7069733   L 61.894582,4.3881743   L 61.632713,3.7880821   L 61.333434,3.2254957   L 61.16509,2.9629553   L 60.978041,2.700415   L 60.566532,2.21284   L 60.360778,1.9878055   L 60.117614,1.7627709   L 59.631286,1.3502075   L 59.369417,1.1626787   L 59.107549,0.99390273   L 58.546401,0.69385663   L 57.947844,0.43131628   L 57.62986,0.33755187   L 57.330581,0.24378746   L 56.993893,0.16877594   L 56.675909,0.11251729   L 56.002532,0.037505764   L 6.3222631,0.037505764   L 5.648886,0.11251729   L 5.3309023,0.16877594   L 4.9942138,0.24378746   L 4.694935,0.33755187   L 4.3769514,0.43131628   L 3.7783939,0.69385663   L 3.2172463,0.99390273   L 2.9553774,1.1626787   L 2.6935085,1.3502075   L 2.2071806,1.7627709   L 1.7582625,2.21284   L 1.3467543,2.700415   L 1.1597051,2.9629553   L 0.99136078,3.2254957   L 0.69208206,3.7880821   L 0.43021317,4.3881743   L 0.33668857,4.7069733   L 0.24316397,5.0070194   L 0.16834428,5.3445713   L 0.11222952,5.6633703   L 0.037409841,6.338474   L 0.037409841,45.94456   L 0.11222952,46.619664   L 0.16834428,46.938463   L 0.24316397,47.276015   L 0.33668857,47.576061   L 0.43021317,47.89486   L 0.69208206,48.494952   L 0.99136078,49.057539   L 1.1597051,49.320079   L 1.3467543,49.582619   L 1.7582625,50.070194   L 1.9827216,50.313982   L 2.2071806,50.520263   L 2.6935085,50.932827   L 2.9553774,51.120356   L 3.2172463,51.289132   L 3.7783939,51.589178   L 4.3769514,51.851718   L 4.694935,51.945482   L 4.9942138,52.039247   L 5.3309023,52.114258   L 5.648886,52.170517   L 6.3222631,52.245529   L 56.002532,52.245529   L 56.675909,52.170517   L 56.993893,52.114258   L 57.330581,52.039247   L 57.62986,51.945482   L 57.947844,51.851718   L 58.546401,51.589178   L 59.107549,51.289132   L 59.369417,51.120356   L 59.631286,50.932827   L 60.360778,50.313982   L 60.978041,49.582619   L 61.16509,49.320079   L 61.333434,49.057539   L 61.632713,48.494952   L 61.894582,47.89486   L 61.988106,47.576061   L 62.081631,47.276015   L 62.156451,46.938463   L 62.212565,46.619664   L 62.287385,45.94456   L 62.287385,6.7885432   L 62.287385,6.6760259   z "
     id="path13" />
  <path
     style="fill:#eaeaea;fill-rule:evenodd;fill-opacity:1;stroke:#eaeaea;stroke-width:0.018704921px;stroke-linecap:round;stroke-linejoin:round;stroke-miterlimit:4;stroke-dasharray:none;stroke-opacity:1;"
     d="  M 61.05286,7.6511758   L 61.05286,7.3136239   L 60.978041,6.6760259   L 60.921926,6.3572269   L 60.772286,5.7571347   L 60.660057,5.4570886   L 60.547827,5.1757954   L 60.435598,4.8757493   L 60.136319,4.3506686   L 59.799631,3.8255879   L 59.593877,3.6005533   L 59.406827,3.3567658   L 58.976614,2.9254496   L 58.73345,2.7379207   L 58.508991,2.531639   L 57.985253,2.1940872   L 57.461516,1.8940411   L 57.162237,1.7815238   L 56.881663,1.6690065   L 56.582384,1.5564892   L 55.983827,1.4064661   L 55.665843,1.3502075   L 55.029876,1.275196   L 7.294919,1.275196   L 6.6589517,1.3502075   L 6.340968,1.4064661   L 5.7424106,1.5564892   L 5.4431318,1.6690065   L 5.162558,1.7815238   L 4.8632793,1.8940411   L 4.3395415,2.1940872   L 3.8158038,2.531639   L 3.5913447,2.7379207   L 3.3481808,2.9254496   L 3.1424266,3.1504841   L 2.9179676,3.3567658   L 2.7309184,3.6005533   L 2.5251643,3.8255879   L 2.1884757,4.3506686   L 1.889197,4.8757493   L 1.7769674,5.1757954   L 1.6647379,5.4570886   L 1.5525084,5.7571347   L 1.402869,6.3572269   L 1.3467543,6.6760259   L 1.2719346,7.3136239   L 1.2719346,44.96941   L 1.3467543,45.607008   L 1.402869,45.925807   L 1.5525084,46.5259   L 1.6647379,46.825946   L 1.7769674,47.107239   L 1.889197,47.407285   L 2.1884757,47.932366   L 2.5251643,48.457446   L 2.7309184,48.682481   L 2.9179676,48.926269   L 3.3481808,49.357585   L 3.5913447,49.545114   L 3.8158038,49.751395   L 4.3395415,50.088947   L 4.8632793,50.388993   L 5.162558,50.501511   L 5.4431318,50.614028   L 5.7424106,50.726545   L 6.340968,50.876568   L 6.6589517,50.932827   L 7.294919,51.007838   L 55.029876,51.007838   L 55.665843,50.932827   L 55.983827,50.876568   L 56.582384,50.726545   L 56.881663,50.614028   L 57.162237,50.501511   L 57.461516,50.388993   L 57.985253,50.088947   L 58.508991,49.751395   L 58.73345,49.545114   L 58.976614,49.357585   L 59.201073,49.151303   L 59.406827,48.926269   L 59.593877,48.682481   L 59.799631,48.457446   L 60.136319,47.932366   L 60.435598,47.407285   L 60.547827,47.107239   L 60.660057,46.825946   L 60.772286,46.5259   L 60.921926,45.925807   L 60.978041,45.607008   L 61.05286,44.96941   L 61.05286,7.7636931   L 61.05286,7.6511758   z "
     id="path15" />
  <path
     style="fill:#dddddd;fill-rule:evenodd;fill-opacity:1;stroke:#000000;stroke-width:0.018704921px;stroke-linecap:round;stroke-linejoin:round;stroke-miterlimit:4;stroke-dasharray:none;stroke-opacity:1;"
     d="  M 62.287385,60.496797   L 62.287385,60.590561   L 62.26868,60.703078   L 62.26868,60.796843   L 62.23127,60.984372   L 62.19386,61.078136   L 62.175156,61.1719   L 62.137746,61.246912   L 62.100336,61.340676   L 62.044221,61.415688   L 62.006811,61.509452   L 61.782352,61.809498   L 61.707533,61.865757   L 61.651418,61.940768   L 61.352139,62.165803   L 61.258614,62.203309   L 61.183795,62.259567   L 61.09027,62.297073   L 61.01545,62.334579   L 60.921926,62.353332   L 60.828401,62.390838   L 60.641352,62.428343   L 60.547827,62.428343   L 60.435598,62.447096   L 1.889197,62.447096   L 1.7769674,62.428343   L 1.6834428,62.428343   L 1.4963936,62.390838   L 1.402869,62.353332   L 1.3093444,62.334579   L 1.2345247,62.297073   L 1.1410001,62.259567   L 1.0661805,62.203309   L 0.97265586,62.165803   L 0.67337714,61.940768   L 0.61726237,61.865757   L 0.54244269,61.809498   L 0.31798365,61.509452   L 0.28057381,61.415688   L 0.22445905,61.340676   L 0.1870492,61.246912   L 0.14963936,61.1719   L 0.13093444,61.078136   L 0.093524602,60.984372   L 0.056114761,60.796843   L 0.056114761,60.703078   L 0.037409841,60.590561   L 0.037409841,45.94456   L 0.11222952,46.619664   L 0.16834428,46.938463   L 0.24316397,47.276015   L 0.33668857,47.576061   L 0.43021317,47.89486   L 0.69208206,48.494952   L 0.99136078,49.057539   L 1.1597051,49.320079   L 1.3467543,49.582619   L 1.7582625,50.070194   L 1.9827216,50.313982   L 2.2071806,50.520263   L 2.6935085,50.932827   L 2.9553774,51.120356   L 3.2172463,51.289132   L 3.7783939,51.589178   L 4.3769514,51.851718   L 4.694935,51.945482   L 4.9942138,52.039247   L 5.3309023,52.114258   L 5.648886,52.170517   L 6.3222631,52.245529   L 56.002532,52.245529   L 56.675909,52.170517   L 56.993893,52.114258   L 57.330581,52.039247   L 57.62986,51.945482   L 57.947844,51.851718   L 58.546401,51.589178   L 59.107549,51.289132   L 59.369417,51.120356   L 59.631286,50.932827   L 60.360778,50.313982   L 60.978041,49.582619   L 61.16509,49.320079   L 61.333434,49.057539   L 61.632713,48.494952   L 61.894582,47.89486   L 61.988106,47.576061   L 62.081631,47.276015   L 62.156451,46.938463   L 62.212565,46.619664   L 62.287385,45.94456   L 62.287385,60.459291   L 62.287385,60.496797   z "
     id="path17" />
  <path
     style="fill:#e2e2e2;fill-rule:evenodd;fill-opacity:1;stroke:#e2e2e2;stroke-width:0.018704921px;stroke-linecap:round;stroke-linejoin:round;stroke-miterlimit:4;stroke-dasharray:none;stroke-opacity:1;"
     d="  M 1.9827216,62.447096   L 1.889197,62.447096   L 1.7769674,62.428343   L 1.6834428,62.428343   L 1.4963936,62.390838   L 1.402869,62.353332   L 1.3093444,62.334579   L 1.2345247,62.297073   L 1.1410001,62.259567   L 1.0661805,62.203309   L 0.97265586,62.165803   L 0.67337714,61.940768   L 0.61726237,61.865757   L 0.54244269,61.809498   L 0.31798365,61.509452   L 0.28057381,61.415688   L 0.22445905,61.340676   L 0.1870492,61.246912   L 0.14963936,61.1719   L 0.13093444,61.078136   L 0.093524602,60.984372   L 0.056114761,60.796843   L 0.056114761,60.703078   L 0.037409841,60.590561   L 0.037409841,45.94456   L 0.11222952,46.619664   L 0.16834428,46.938463   L 0.24316397,47.276015   L 0.33668857,47.576061   L 0.43021317,47.89486   L 0.69208206,48.494952   L 0.99136078,49.057539   L 1.1597051,49.320079   L 1.3467543,49.582619   L 1.7582625,50.070194   L 1.9827216,50.313982   L 2.2071806,50.520263   L 2.6935085,50.932827   L 2.9553774,51.120356   L 3.2172463,51.289132   L 3.7783939,51.589178   L 4.3769514,51.851718   L 4.694935,51.945482   L 4.9942138,52.039247   L 5.3309023,52.114258   L 5.648886,52.170517   L 6.3222631,52.245529   L 6.6589517,52.245529   L 6.6028369,52.358046   L 6.5467222,52.489316   L 6.4531975,52.676845   L 6.3596729,52.920632   L 6.2287385,53.183173   L 6.0790991,53.501972   L 5.9294598,53.839524   L 5.7611155,54.214581   L 5.5740663,54.608392   L 5.3870171,55.039708   L 5.181263,55.471024   L 4.9755088,55.921093   L 4.7510498,56.389915   L 4.5452957,56.87749   L 4.0963776,57.815134   L 3.8906235,58.302709   L 3.6661644,58.771531   L 3.4604103,59.221601   L 3.2546562,59.652917   L 3.067607,60.084233   L 2.8805577,60.478044   L 2.7122135,60.853101   L 2.5625741,61.190653   L 2.4129347,61.509452   L 2.2820003,61.771993   L 2.1884757,62.01578   L 2.0949511,62.203309   L 2.0388363,62.334579   L 2.0014265,62.409591   L 1.9827216,62.447096   z "
     id="path19" />
  <path
     style="fill:#e2e2e2;fill-rule:evenodd;fill-opacity:1;stroke:#e2e2e2;stroke-width:0.018704921px;stroke-linecap:round;stroke-linejoin:round;stroke-miterlimit:4;stroke-dasharray:none;stroke-opacity:1;"
     d="  M 55.665843,52.245529   L 56.002532,52.245529   L 56.675909,52.170517   L 56.993893,52.114258   L 57.330581,52.039247   L 57.62986,51.945482   L 57.947844,51.851718   L 58.546401,51.589178   L 59.107549,51.289132   L 59.369417,51.120356   L 59.631286,50.932827   L 60.360778,50.313982   L 60.978041,49.582619   L 61.16509,49.320079   L 61.333434,49.057539   L 61.632713,48.494952   L 61.894582,47.89486   L 61.988106,47.576061   L 62.081631,47.276015   L 62.156451,46.938463   L 62.212565,46.619664   L 62.287385,45.94456   L 62.287385,60.590561   L 62.26868,60.703078   L 62.26868,60.796843   L 62.23127,60.984372   L 62.19386,61.078136   L 62.175156,61.1719   L 62.137746,61.246912   L 62.100336,61.340676   L 62.044221,61.415688   L 62.006811,61.509452   L 61.782352,61.809498   L 61.707533,61.865757   L 61.651418,61.940768   L 61.352139,62.165803   L 61.258614,62.203309   L 61.183795,62.259567   L 61.09027,62.297073   L 61.01545,62.334579   L 60.921926,62.353332   L 60.828401,62.390838   L 60.641352,62.428343   L 60.547827,62.428343   L 60.435598,62.447096   L 60.342073,62.447096   L 60.285959,62.334579   L 60.229844,62.203309   L 60.136319,62.01578   L 60.042795,61.771993   L 59.91186,61.509452   L 59.762221,61.190653   L 59.612581,60.853101   L 59.444237,60.478044   L 59.257188,60.084233   L 59.070139,59.652917   L 58.864385,59.221601   L 58.65863,58.771531   L 58.434171,58.302709   L 58.228417,57.815134   L 57.779499,56.87749   L 57.573745,56.389915   L 57.349286,55.921093   L 57.143532,55.471024   L 56.937778,55.039708   L 56.750729,54.608392   L 56.563679,54.214581   L 56.395335,53.839524   L 56.245696,53.501972   L 56.096056,53.183173   L 55.965122,52.920632   L 55.871597,52.676845   L 55.778073,52.489316   L 55.721958,52.358046   L 55.684548,52.283034   L 55.665843,52.245529   z "
     id="path21" />
  <path
     style="fill:none;stroke:#000000;stroke-width:0.093524605px;stroke-linecap:round;stroke-linejoin:round;stroke-miterlimit:4;stroke-dasharray:none;stroke-opacity:1;"
     d="  M 62.287385,60.496797   L 62.287385,60.590561   L 62.26868,60.703078   L 62.26868,60.796843   L 62.23127,60.984372   L 62.19386,61.078136   L 62.175156,61.1719   L 62.137746,61.246912   L 62.100336,61.340676   L 62.044221,61.415688   L 62.006811,61.509452   L 61.782352,61.809498   L 61.707533,61.865757   L 61.651418,61.940768   L 61.352139,62.165803   L 61.258614,62.203309   L 61.183795,62.259567   L 61.09027,62.297073   L 61.01545,62.334579   L 60.921926,62.353332   L 60.828401,62.390838   L 60.641352,62.428343   L 60.547827,62.428343   L 60.435598,62.447096   L 1.889197,62.447096   L 1.7769674,62.428343   L 1.6834428,62.428343   L 1.4963936,62.390838   L 1.402869,62.353332   L 1.3093444,62.334579   L 1.2345247,62.297073   L 1.1410001,62.259567   L 1.0661805,62.203309   L 0.97265586,62.165803   L 0.67337714,61.940768   L 0.61726237,61.865757   L 0.54244269,61.809498   L 0.31798365,61.509452   L 0.28057381,61.415688   L 0.22445905,61.340676   L 0.1870492,61.246912   L 0.14963936,61.1719   L 0.13093444,61.078136   L 0.093524602,60.984372   L 0.056114761,60.796843   L 0.056114761,60.703078   L 0.037409841,60.590561   L 0.037409841,45.94456   L 0.11222952,46.619664   L 0.16834428,46.938463   L 0.24316397,47.276015   L 0.33668857,47.576061   L 0.43021317,47.89486   L 0.69208206,48.494952   L 0.99136078,49.057539   L 1.1597051,49.320079   L 1.3467543,49.582619   L 1.7582625,50.070194   L 1.9827216,50.313982   L 2.2071806,50.520263   L 2.6935085,50.932827   L 2.9553774,51.120356   L 3.2172463,51.289132   L 3.7783939,51.589178   L 4.3769514,51.851718   L 4.694935,51.945482   L 4.9942138,52.039247   L 5.3309023,52.114258   L 5.648886,52.170517   L 6.3222631,52.245529   L 56.002532,52.245529   L 56.675909,52.170517   L 56.993893,52.114258   L 57.330581,52.039247   L 57.62986,51.945482   L 57.947844,51.851718   L 58.546401,51.589178   L 59.107549,51.289132   L 59.369417,51.120356   L 59.631286,50.932827   L 60.360778,50.313982   L 60.978041,49.582619   L 61.16509,49.320079   L 61.333434,49.057539   L 61.632713,48.494952   L 61.894582,47.89486   L 61.988106,47.576061   L 62.081631,47.276015   L 62.156451,46.938463   L 62.212565,46.619664   L 62.287385,45.94456   L 62.287385,60.459291   L 62.287385,60.496797   z "
     id="path23" />
  <path
     style="fill:#000000;fill-rule:evenodd;fill-opacity:1;stroke:#e2e2e2;stroke-width:0.018704921px;stroke-linecap:round;stroke-linejoin:round;stroke-miterlimit:4;stroke-dasharray:none;stroke-opacity:1;"
     d="  M 19.340888,57.083772   L 19.322183,56.971255   L 19.303478,56.87749   L 19.247363,56.783726   L 19.191248,56.708714   L 19.097724,56.633703   L 19.004199,56.577444   L 18.910675,56.558691   L 18.798445,56.539939   L 16.366805,56.539939   L 16.254576,56.558691   L 16.161051,56.577444   L 16.067527,56.633703   L 15.917887,56.783726   L 15.861773,56.87749   L 15.843068,56.971255   L 15.824363,57.083772   L 15.843068,57.196289   L 15.861773,57.290054   L 15.917887,57.383818   L 15.992707,57.477583   L 16.067527,57.533841   L 16.161051,57.5901   L 16.254576,57.608853   L 16.366805,57.627606   L 18.798445,57.627606   L 18.910675,57.608853   L 19.004199,57.5901   L 19.191248,57.477583   L 19.303478,57.290054   L 19.322183,57.196289   L 19.340888,57.083772   z "
     id="path25" />
  <path
     style="fill:#bfbfbf;fill-rule:evenodd;fill-opacity:1;stroke:#bfbfbf;stroke-width:0.018704921px;stroke-linecap:round;stroke-linejoin:round;stroke-miterlimit:4;stroke-dasharray:none;stroke-opacity:1;"
     d="  M 15.861773,57.271301   L 15.861773,57.290054   L 15.880477,57.308807   L 15.880477,57.32756   L 15.899182,57.346312   L 15.899182,57.365065   L 15.917887,57.383818   L 15.917887,57.402571   L 15.936592,57.421324   L 15.955297,57.421324   L 15.955297,57.440077   L 16.011412,57.496335   L 16.030117,57.496335   L 16.086232,57.552594   L 16.104936,57.552594   L 16.123641,57.571347   L 16.142346,57.571347   L 16.161051,57.5901   L 16.198461,57.5901   L 16.217166,57.608853   L 16.273281,57.608853   L 16.291986,57.627606   L 18.89197,57.627606   L 18.910675,57.608853   L 18.966789,57.608853   L 18.985494,57.5901   L 19.004199,57.5901   L 19.022904,57.571347   L 19.041609,57.571347   L 19.060314,57.552594   L 19.079019,57.552594   L 19.097724,57.533841   L 19.116429,57.533841   L 19.209953,57.440077   L 19.209953,57.421324   L 19.228658,57.421324   L 19.247363,57.402571   L 19.247363,57.383818   L 19.266068,57.365065   L 19.266068,57.346312   L 19.284773,57.32756   L 19.284773,57.308807   L 19.303478,57.290054   L 19.303478,57.271301   L 15.936592,57.271301   L 15.861773,57.271301   z "
     id="path27" />
  <path
     style="fill:#bfbfbf;fill-rule:evenodd;fill-opacity:1;stroke:#bfbfbf;stroke-width:0.018704921px;stroke-linecap:round;stroke-linejoin:round;stroke-miterlimit:4;stroke-dasharray:none;stroke-opacity:1;"
     d="  M 15.300625,56.971255   L 15.28192,56.914996   L 15.263215,56.87749   L 15.225805,56.858738   L 15.16969,56.839985   L 14.758182,56.839985   L 14.702067,56.858738   L 14.664658,56.87749   L 14.645953,56.914996   L 14.627248,56.971255   L 14.627248,57.383818   L 14.645953,57.440077   L 14.664658,57.477583   L 14.702067,57.496335   L 14.758182,57.515088   L 15.16969,57.515088   L 15.225805,57.496335   L 15.263215,57.477583   L 15.28192,57.440077   L 15.300625,57.383818   L 15.300625,56.971255   z "
     id="path29" />
  <path
     style="fill:none;stroke:#bfbfbf;stroke-width:0.074819684px;stroke-linecap:round;stroke-linejoin:round;stroke-miterlimit:4;stroke-dasharray:none;stroke-opacity:1;"
     d="  M 15.2071,56.633703   L 15.188395,56.577444   L 15.16969,56.539939   L 15.132281,56.521186   L 15.076166,56.502433   L 14.851707,56.502433   L 14.795592,56.521186   L 14.758182,56.539939   L 14.739477,56.577444   L 14.720772,56.633703   L 14.720772,57.271301   L 14.739477,57.32756   L 14.758182,57.365065   L 14.795592,57.383818   L 14.851707,57.402571   L 15.076166,57.402571   L 15.132281,57.383818   L 15.16969,57.365065   L 15.188395,57.32756   L 15.2071,57.271301   L 15.2071,56.633703  "
     id="path31" />
  <text
     xml:space="preserve"
     style="font-size:0.437500px;font-style:normal;font-variant:normal;font-weight:400;font-stretch:Normal;line-height:125.000000%;letter-spacing:0px;word-spacing:0px;fill:#000000;fill-opacity:1;stroke:none;font-family:Arial;text-align:start;text-anchor:start;"
     transform="matrix(1.000000,-0.000000,0.000000,1.000000,14.851707,57.365065)"
     x="0.000000"
     y="0.000000"
     id="text37"><tspan
       x="0.000000"
       y="0.000000"
       id="tspan35"><tspan
         dx="0.000000"
         dy="0.000000"
         style="fill:#E2E2E2;font-size:0.437500px;font-style:normal;font-variant:normal;font-weight:400;font-stretch:Normal;font-family:Arial;"
         id="tspan33">K</tspan></tspan></text>
  <path
     style="fill:#7f7f7f;fill-rule:evenodd;fill-opacity:1;stroke:#7f7f7f;stroke-width:0.018682506px;stroke-linecap:round;stroke-linejoin:round;stroke-miterlimit:4;stroke-dasharray:none;stroke-opacity:1;"
     d="  M 27.542118,24.271346   M 29.30215,24.271346   M 32.01355,24.271346   M 32.01355,24.271346   M 38.720698,25.317051   M 20.83497,25.317051   M 20.214471,25.798944   L 20.177106,25.798944   L 20.158424,25.786241   L 20.139741,25.786241   L 20.083694,25.748133   L 20.083694,25.735431   L 20.065011,25.722728   L 20.065011,24.249229   L 20.083694,24.236526   L 20.083694,24.223824   L 20.102376,24.211121   L 20.121059,24.211121   L 20.121059,24.198418   L 20.139741,24.185716   L 20.158424,24.185716   L 20.177106,24.173013   L 22.717927,24.173013   L 22.73661,24.185716   L 22.755292,24.185716   L 22.81134,24.223824   L 22.81134,24.236526   L 22.830022,24.249229   L 22.830022,24.541388   L 22.81134,24.541388   L 22.81134,24.528686   L 22.792657,24.528686   L 22.792657,24.515983   L 22.773975,24.515983   L 22.773975,24.50328   L 22.73661,24.50328   L 22.73661,24.490578   L 20.681534,24.490578   L 20.681534,24.50328   L 20.644169,24.50328   L 20.644169,24.515983   L 20.625487,24.515983   L 20.625487,24.541388   L 20.606804,24.541388   L 20.606804,25.748133   L 20.625487,25.748133   L 20.625487,25.773539   L 20.644169,25.773539   L 20.644169,25.786241   L 20.662852,25.786241   L 20.662852,25.798944   L 20.233154,25.798944   L 20.214471,25.798944   z "
     id="path39" />
  <path
     style="fill:#7f7f7f;fill-rule:evenodd;fill-opacity:1;stroke:#7f7f7f;stroke-width:0.018682506px;stroke-linecap:round;stroke-linejoin:round;stroke-miterlimit:4;stroke-dasharray:none;stroke-opacity:1;"
     d="  M 22.643197,24.858953   L 20.793629,24.858953   L 20.793629,24.84625   L 20.756264,24.84625   L 20.756264,24.833547   L 20.737582,24.833547   L 20.737582,24.808142   L 20.718899,24.808142   L 20.718899,25.125707   L 20.737582,25.125707   L 20.737582,25.151112   L 20.756264,25.151112   L 20.756264,25.163815   L 20.793629,25.163815   L 20.793629,25.176517   L 22.680562,25.176517   L 22.717927,25.151112   L 22.73661,25.151112   L 22.773975,25.125707   L 22.773975,25.113004   L 22.792657,25.100302   L 22.792657,25.087599   L 22.81134,25.074897   L 22.81134,25.049491   L 22.830022,25.036789   L 22.830022,24.998681   L 22.81134,24.985978   L 22.81134,24.947871   L 22.773975,24.922466   L 22.773975,24.909763   L 22.755292,24.89706   L 22.73661,24.89706   L 22.73661,24.884358   L 22.717927,24.884358   L 22.699245,24.871655   L 22.680562,24.871655   L 22.66188,24.858953   L 22.643197,24.858953   z "
     id="path41" />
  <path
     style="fill:#7f7f7f;fill-rule:evenodd;fill-opacity:1;stroke:#7f7f7f;stroke-width:0.018682506px;stroke-linecap:round;stroke-linejoin:round;stroke-miterlimit:4;stroke-dasharray:none;stroke-opacity:1;"
     d="  M 26.958856,25.176517   L 26.921491,25.176517   L 26.921491,25.163815   L 26.884126,25.163815   L 26.884126,25.151112   L 26.865443,25.151112   L 26.865443,25.125707   L 26.846761,25.125707   L 26.846761,24.808142   L 26.865443,24.808142   L 26.865443,24.833547   L 26.884126,24.833547   L 26.884126,24.84625   L 26.921491,24.84625   L 26.921491,24.858953   L 28.416091,24.858953   L 28.416091,24.490578   L 26.809396,24.490578   L 26.809396,24.50328   L 26.772031,24.50328   L 26.772031,24.515983   L 26.753348,24.515983   L 26.753348,24.541388   L 26.734666,24.541388   L 26.734666,25.748133   L 26.753348,25.748133   L 26.753348,25.773539   L 26.772031,25.773539   L 26.772031,25.786241   L 26.790713,25.786241   L 26.790713,25.798944   L 26.304968,25.798944   L 26.286286,25.786241   L 26.267603,25.786241   L 26.211556,25.748133   L 26.211556,25.735431   L 26.192873,25.722728   L 26.192873,24.249229   L 26.211556,24.236526   L 26.211556,24.223824   L 26.230238,24.211121   L 26.248921,24.211121   L 26.248921,24.198418   L 26.267603,24.185716   L 26.286286,24.185716   L 26.304968,24.173013   L 28.845789,24.173013   L 28.864472,24.185716   L 28.883154,24.185716   L 28.939202,24.223824   L 28.939202,24.236526   L 28.957884,24.249229   L 28.957884,25.049491   L 28.939202,25.062194   L 28.939202,25.087599   L 28.920519,25.087599   L 28.920519,25.100302   L 28.901837,25.113004   L 28.901837,25.125707   L 28.883154,25.125707   L 28.883154,25.138409   L 28.864472,25.138409   L 28.864472,25.151112   L 28.845789,25.151112   L 28.845789,25.163815   L 28.827107,25.163815   L 28.808424,25.176517   L 28.827107,25.18922   L 28.845789,25.18922   L 28.845789,25.201922   L 28.864472,25.201922   L 28.864472,25.214625   L 28.883154,25.214625   L 28.883154,25.227328   L 28.901837,25.227328   L 28.901837,25.24003   L 28.920519,25.252733   L 28.920519,25.265435   L 28.939202,25.265435   L 28.939202,25.29084   L 28.957884,25.303543   L 28.957884,25.748133   L 28.976567,25.748133   L 28.976567,25.773539   L 28.995249,25.773539   L 28.995249,25.786241   L 29.013932,25.786241   L 29.013932,25.798944   L 28.528187,25.798944   L 28.509504,25.786241   L 28.490822,25.786241   L 28.434774,25.748133   L 28.434774,25.735431   L 28.416091,25.722728   L 28.416091,25.176517   L 26.977539,25.176517   L 26.958856,25.176517   z "
     id="path43" />
  <path
     style="fill:#7f7f7f;fill-rule:evenodd;fill-opacity:1;stroke:#7f7f7f;stroke-width:0.018682506px;stroke-linecap:round;stroke-linejoin:round;stroke-miterlimit:4;stroke-dasharray:none;stroke-opacity:1;"
     d="  M 29.929374,24.490578   L 29.368899,24.490578   L 29.350217,24.477875   L 29.331534,24.477875   L 29.275487,24.439767   L 29.275487,24.427065   L 29.256804,24.414362   L 29.256804,24.249229   L 29.275487,24.236526   L 29.275487,24.223824   L 29.294169,24.211121   L 29.312852,24.211121   L 29.312852,24.198418   L 29.331534,24.185716   L 29.350217,24.185716   L 29.368899,24.173013   L 31.90972,24.173013   L 31.928403,24.185716   L 31.947085,24.185716   L 32.003133,24.223824   L 32.003133,24.236526   L 32.021815,24.249229   L 32.021815,24.541388   L 32.003133,24.541388   L 32.003133,24.528686   L 31.98445,24.528686   L 31.98445,24.515983   L 31.965768,24.515983   L 31.965768,24.50328   L 31.928403,24.50328   L 31.928403,24.490578   L 30.545897,24.490578   L 30.545897,24.50328   L 30.508532,24.50328   L 30.508532,24.515983   L 30.48985,24.515983   L 30.48985,24.541388   L 30.471167,24.541388   L 30.471167,25.748133   L 30.48985,25.748133   L 30.48985,25.773539   L 30.508532,25.773539   L 30.508532,25.786241   L 30.527215,25.786241   L 30.527215,25.798944   L 30.04147,25.798944   L 30.022787,25.786241   L 30.004104,25.786241   L 29.948057,25.748133   L 29.948057,25.735431   L 29.929374,25.722728   L 29.929374,24.528686   L 29.929374,24.490578   z "
     id="path45" />
  <path
     style="fill:#7f7f7f;fill-rule:evenodd;fill-opacity:1;stroke:#7f7f7f;stroke-width:0.018682506px;stroke-linecap:round;stroke-linejoin:round;stroke-miterlimit:4;stroke-dasharray:none;stroke-opacity:1;"
     d="  M 32.862528,25.710026   L 32.862528,25.748133   L 32.88121,25.748133   L 32.88121,25.773539   L 32.899893,25.773539   L 32.899893,25.786241   L 32.918575,25.786241   L 32.918575,25.798944   L 32.43283,25.798944   L 32.414148,25.786241   L 32.395465,25.786241   L 32.339418,25.748133   L 32.339418,25.735431   L 32.320735,25.722728   L 32.320735,24.223824   L 32.302053,24.223824   L 32.302053,24.198418   L 32.28337,24.198418   L 32.28337,24.185716   L 32.264688,24.185716   L 32.264688,24.173013   L 32.750433,24.173013   L 32.769115,24.185716   L 32.787798,24.185716   L 32.843845,24.223824   L 32.843845,24.236526   L 32.862528,24.249229   L 32.862528,25.697323   L 32.862528,25.710026   z "
     id="path47" />
  <path
     style="fill:#7f7f7f;fill-rule:evenodd;fill-opacity:1;stroke:#7f7f7f;stroke-width:0.018682506px;stroke-linecap:round;stroke-linejoin:round;stroke-miterlimit:4;stroke-dasharray:none;stroke-opacity:1;"
     d="  M 35.515444,24.490578   L 33.908748,24.490578   L 33.908748,24.50328   L 33.871383,24.50328   L 33.871383,24.515983   L 33.852701,24.515983   L 33.852701,24.541388   L 33.834018,24.541388   L 33.834018,25.748133   L 33.852701,25.748133   L 33.852701,25.773539   L 33.871383,25.773539   L 33.871383,25.786241   L 33.890066,25.786241   L 33.890066,25.798944   L 33.404321,25.798944   L 33.385638,25.786241   L 33.366956,25.786241   L 33.310908,25.748133   L 33.310908,25.735431   L 33.292226,25.722728   L 33.292226,24.249229   L 33.310908,24.236526   L 33.310908,24.223824   L 33.329591,24.211121   L 33.348273,24.211121   L 33.348273,24.198418   L 33.366956,24.185716   L 33.385638,24.185716   L 33.404321,24.173013   L 35.945141,24.173013   L 35.963824,24.185716   L 35.982506,24.185716   L 36.038554,24.223824   L 36.038554,24.236526   L 36.057236,24.249229   L 36.057236,25.748133   L 36.075919,25.748133   L 36.075919,25.773539   L 36.094601,25.773539   L 36.094601,25.786241   L 36.113284,25.786241   L 36.113284,25.798944   L 35.627539,25.798944   L 35.608856,25.786241   L 35.590174,25.786241   L 35.534126,25.748133   L 35.534126,25.735431   L 35.515444,25.722728   L 35.515444,24.528686   L 35.515444,24.490578   z "
     id="path49" />
  <path
     style="fill:#7f7f7f;fill-rule:evenodd;fill-opacity:1;stroke:#7f7f7f;stroke-width:0.018682506px;stroke-linecap:round;stroke-linejoin:round;stroke-miterlimit:4;stroke-dasharray:none;stroke-opacity:1;"
     d="  M 38.803565,24.858953   L 37.084774,24.858953   L 37.066092,24.84625   L 37.047409,24.84625   L 37.047409,24.833547   L 37.028727,24.833547   L 37.028727,24.808142   L 37.010044,24.808142   L 37.010044,25.125707   L 37.028727,25.125707   L 37.028727,25.151112   L 37.047409,25.151112   L 37.047409,25.163815   L 37.066092,25.163815   L 37.084774,25.176517   L 38.822247,25.176517   L 38.859612,25.151112   L 38.878295,25.151112   L 38.91566,25.125707   L 38.91566,25.113004   L 38.934342,25.100302   L 38.934342,25.087599   L 38.953025,25.074897   L 38.953025,25.049491   L 38.971707,25.036789   L 38.971707,24.985978   L 38.953025,24.973276   L 38.953025,24.935168   L 38.934342,24.935168   L 38.934342,24.922466   L 38.878295,24.884358   L 38.859612,24.884358   L 38.859612,24.871655   L 38.84093,24.871655   L 38.822247,24.858953   L 38.803565,24.858953   z "
     id="path51" />
  <path
     style="fill:#7f7f7f;fill-rule:evenodd;fill-opacity:1;stroke:#7f7f7f;stroke-width:0.018682506px;stroke-linecap:round;stroke-linejoin:round;stroke-miterlimit:4;stroke-dasharray:none;stroke-opacity:1;"
     d="  M 40.092658,24.490578   L 39.532183,24.490578   L 39.5135,24.477875   L 39.494817,24.477875   L 39.43877,24.439767   L 39.43877,24.427065   L 39.420087,24.414362   L 39.420087,24.249229   L 39.43877,24.236526   L 39.43877,24.223824   L 39.457452,24.211121   L 39.476135,24.211121   L 39.476135,24.198418   L 39.494817,24.185716   L 39.5135,24.185716   L 39.532183,24.173013   L 42.073003,24.173013   L 42.091686,24.185716   L 42.110368,24.185716   L 42.166416,24.223824   L 42.166416,24.236526   L 42.185098,24.249229   L 42.185098,24.541388   L 42.166416,24.541388   L 42.166416,24.528686   L 42.147733,24.528686   L 42.147733,24.515983   L 42.129051,24.515983   L 42.129051,24.50328   L 42.091686,24.50328   L 42.091686,24.490578   L 40.70918,24.490578   L 40.70918,24.50328   L 40.671815,24.50328   L 40.671815,24.515983   L 40.653133,24.515983   L 40.653133,24.541388   L 40.63445,24.541388   L 40.63445,25.748133   L 40.653133,25.748133   L 40.653133,25.773539   L 40.671815,25.773539   L 40.671815,25.786241   L 40.690498,25.786241   L 40.690498,25.798944   L 40.204753,25.798944   L 40.18607,25.786241   L 40.167388,25.786241   L 40.11134,25.748133   L 40.11134,25.735431   L 40.092658,25.722728   L 40.092658,24.528686   L 40.092658,24.490578   z "
     id="path53" />
  <path
     style="fill:#7f7f7f;fill-rule:evenodd;fill-opacity:1;stroke:#7f7f7f;stroke-width:0.018682506px;stroke-linecap:round;stroke-linejoin:round;stroke-miterlimit:4;stroke-dasharray:none;stroke-opacity:1;"
     d="  M 38.99039,25.481379   L 39.027755,25.481379   L 39.027755,25.468677   L 39.06512,25.468677   L 39.06512,25.455974   L 39.083802,25.455974   L 39.083802,25.443271   L 39.102485,25.443271   L 39.102485,25.430569   L 39.121167,25.430569   L 39.121167,25.722728   L 39.102485,25.735431   L 39.102485,25.748133   L 39.083802,25.760836   L 39.083802,25.773539   L 39.06512,25.773539   L 39.046437,25.786241   L 39.027755,25.786241   L 39.009072,25.798944   L 36.468252,25.798944   L 36.449569,25.786241   L 36.430887,25.786241   L 36.374839,25.748133   L 36.374839,25.735431   L 36.356156,25.722728   L 36.356156,24.249229   L 36.374839,24.236526   L 36.374839,24.223824   L 36.393522,24.211121   L 36.412204,24.211121   L 36.412204,24.198418   L 36.430887,24.185716   L 36.449569,24.185716   L 36.468252,24.173013   L 39.009072,24.173013   L 39.027755,24.185716   L 39.046437,24.185716   L 39.102485,24.223824   L 39.102485,24.236526   L 39.121167,24.249229   L 39.121167,24.541388   L 39.102485,24.541388   L 39.102485,24.528686   L 39.083802,24.528686   L 39.083802,24.515983   L 39.06512,24.515983   L 39.06512,24.50328   L 39.027755,24.50328   L 39.027755,24.490578   L 36.972679,24.490578   L 36.972679,24.50328   L 36.935314,24.50328   L 36.935314,24.515983   L 36.916632,24.515983   L 36.916632,24.541388   L 36.897949,24.541388   L 36.897949,25.481379   L 38.971707,25.481379   L 38.99039,25.481379   z "
     id="path55" />
  <path
     style="fill:#7f7f7f;fill-rule:evenodd;fill-opacity:1;stroke:#7f7f7f;stroke-width:0.018682506px;stroke-linecap:round;stroke-linejoin:round;stroke-miterlimit:4;stroke-dasharray:none;stroke-opacity:1;"
     d="  M 24.063068,25.328948   L 24.063068,25.798944   L 24.959828,25.798944   L 24.959828,25.328948   L 24.063068,25.328948   z "
     id="path57" />
  <path
     style="fill:#7f7f7f;fill-rule:evenodd;fill-opacity:1;stroke:#7f7f7f;stroke-width:0.018682506px;stroke-linecap:round;stroke-linejoin:round;stroke-miterlimit:4;stroke-dasharray:none;stroke-opacity:1;"
     d="  M 23.128942,24.757332   L 23.894925,24.757332   L 23.894925,25.214625   L 23.128942,25.214625   L 23.128942,24.757332   z "
     id="path59" />
  <path
     style="fill:#7f7f7f;fill-rule:evenodd;fill-opacity:1;stroke:#7f7f7f;stroke-width:0.018682506px;stroke-linecap:round;stroke-linejoin:round;stroke-miterlimit:4;stroke-dasharray:none;stroke-opacity:1;"
     d="  M 25.12797,25.328948   L 25.12797,25.798944   L 25.408208,25.798944   L 25.426891,25.786241   L 25.501621,25.786241   L 25.520303,25.773539   L 25.557668,25.773539   L 25.595033,25.760836   L 25.613716,25.748133   L 25.651081,25.735431   L 25.688446,25.710026   L 25.725811,25.697323   L 25.744493,25.68462   L 25.763176,25.659215   L 25.781858,25.646513   L 25.856588,25.544892   L 25.856588,25.519487   L 25.875271,25.481379   L 25.875271,25.443271   L 25.893953,25.405164   L 25.893953,25.328948   L 25.146653,25.328948   L 25.12797,25.328948   z "
     id="path61" />
  <path
     style="fill:#7f7f7f;fill-rule:evenodd;fill-opacity:1;stroke:#7f7f7f;stroke-width:0.018682506px;stroke-linecap:round;stroke-linejoin:round;stroke-miterlimit:4;stroke-dasharray:none;stroke-opacity:1;"
     d="  M 25.12797,24.757332   L 25.893953,24.757332   L 25.893953,25.214625   L 25.12797,25.214625   L 25.12797,24.757332   z "
     id="path63" />
  <path
     style="fill:#7f7f7f;fill-rule:evenodd;fill-opacity:1;stroke:#7f7f7f;stroke-width:0.018682506px;stroke-linecap:round;stroke-linejoin:round;stroke-miterlimit:4;stroke-dasharray:none;stroke-opacity:1;"
     d="  M 23.894925,25.328948   L 23.894925,25.798944   L 23.614687,25.798944   L 23.596005,25.786241   L 23.521275,25.786241   L 23.502592,25.773539   L 23.465227,25.773539   L 23.427862,25.760836   L 23.40918,25.748133   L 23.371815,25.735431   L 23.33445,25.710026   L 23.297085,25.697323   L 23.278402,25.68462   L 23.25972,25.659215   L 23.241037,25.646513   L 23.166307,25.544892   L 23.166307,25.519487   L 23.147625,25.481379   L 23.147625,25.443271   L 23.128942,25.405164   L 23.128942,25.328948   L 23.876243,25.328948   L 23.894925,25.328948   z "
     id="path65" />
  <path
     style="fill:#7f7f7f;fill-rule:evenodd;fill-opacity:1;stroke:#7f7f7f;stroke-width:0.018682506px;stroke-linecap:round;stroke-linejoin:round;stroke-miterlimit:4;stroke-dasharray:none;stroke-opacity:1;"
     d="  M 24.063068,24.173013   L 24.063068,24.643009   L 24.959828,24.643009   L 24.959828,24.173013   L 24.063068,24.173013   z "
     id="path67" />
  <path
     style="fill:#7f7f7f;fill-rule:evenodd;fill-opacity:1;stroke:#7f7f7f;stroke-width:0.018682506px;stroke-linecap:round;stroke-linejoin:round;stroke-miterlimit:4;stroke-dasharray:none;stroke-opacity:1;"
     d="  M 25.12797,24.643009   L 25.12797,24.173013   L 25.408208,24.173013   L 25.426891,24.185716   L 25.501621,24.185716   L 25.520303,24.198418   L 25.557668,24.198418   L 25.595033,24.211121   L 25.613716,24.223824   L 25.651081,24.236526   L 25.688446,24.261931   L 25.725811,24.274634   L 25.744493,24.287336   L 25.763176,24.312742   L 25.781858,24.325444   L 25.856588,24.427065   L 25.856588,24.45247   L 25.875271,24.490578   L 25.875271,24.528686   L 25.893953,24.566793   L 25.893953,24.643009   L 25.146653,24.643009   L 25.12797,24.643009   z "
     id="path69" />
  <path
     style="fill:#7f7f7f;fill-rule:evenodd;fill-opacity:1;stroke:#7f7f7f;stroke-width:0.018682506px;stroke-linecap:round;stroke-linejoin:round;stroke-miterlimit:4;stroke-dasharray:none;stroke-opacity:1;"
     d="  M 23.894925,24.643009   L 23.894925,24.173013   L 23.614687,24.173013   L 23.596005,24.185716   L 23.521275,24.185716   L 23.502592,24.198418   L 23.465227,24.198418   L 23.427862,24.211121   L 23.40918,24.223824   L 23.371815,24.236526   L 23.33445,24.261931   L 23.297085,24.274634   L 23.278402,24.287336   L 23.25972,24.312742   L 23.241037,24.325444   L 23.166307,24.427065   L 23.166307,24.45247   L 23.147625,24.490578   L 23.147625,24.528686   L 23.128942,24.566793   L 23.128942,24.643009   L 23.876243,24.643009   L 23.894925,24.643009   z "
     id="path71" />
  <ellipse
     style="fill:#00ff00;fill-rule:evenodd;fill-opacity:1;stroke:#000000;stroke-width:0.020962086px;stroke-linecap:round;stroke-linejoin:round;stroke-miterlimit:4;stroke-dasharray:none;stroke-opacity:1;"
     cx="22.293178"
     cy="46.655153"
     rx="0.42972276"
     ry="0.41924171"
     id="ellipse73" />
  <ellipse
     style="fill:none;stroke:#000000;stroke-width:0.020962086px;stroke-linecap:round;stroke-linejoin:round;stroke-miterlimit:4;stroke-dasharray:none;stroke-opacity:1;"
     cx="22.293178"
     cy="46.655153"
     rx="0.42972276"
     ry="0.41924171"
     id="ellipse75" />
  <ellipse
     style="fill:#00ff00;fill-rule:evenodd;fill-opacity:1;stroke:#000000;stroke-width:0.020962086px;stroke-linecap:round;stroke-linejoin:round;stroke-miterlimit:4;stroke-dasharray:none;stroke-opacity:1;"
     cx="26.779064"
     cy="46.655153"
     rx="0.42972276"
     ry="0.41924171"
     id="ellipse77" />
  <ellipse
     style="fill:none;stroke:#000000;stroke-width:0.020962086px;stroke-linecap:round;stroke-linejoin:round;stroke-miterlimit:4;stroke-dasharray:none;stroke-opacity:1;"
     cx="26.779064"
     cy="46.655153"
     rx="0.42972276"
     ry="0.41924171"
     id="ellipse79" />
  <ellipse
     style="fill:#00ff00;fill-rule:evenodd;fill-opacity:1;stroke:#000000;stroke-width:0.020962086px;stroke-linecap:round;stroke-linejoin:round;stroke-miterlimit:4;stroke-dasharray:none;stroke-opacity:1;"
     cx="31.348799"
     cy="46.655153"
     rx="0.42972276"
     ry="0.41924171"
     id="ellipse81" />
  <ellipse
     style="fill:none;stroke:#000000;stroke-width:0.020962086px;stroke-linecap:round;stroke-linejoin:round;stroke-miterlimit:4;stroke-dasharray:none;stroke-opacity:1;"
     cx="31.348799"
     cy="46.655153"
     rx="0.42972276"
     ry="0.41924171"
     id="ellipse83" />
  <ellipse
     style="fill:#00ff00;fill-rule:evenodd;fill-opacity:1;stroke:#000000;stroke-width:0.020962086px;stroke-linecap:round;stroke-linejoin:round;stroke-miterlimit:4;stroke-dasharray:none;stroke-opacity:1;"
     cx="35.834685"
     cy="46.655153"
     rx="0.42972276"
     ry="0.41924171"
     id="ellipse85" />
  <ellipse
     style="fill:none;stroke:#000000;stroke-width:0.020962086px;stroke-linecap:round;stroke-linejoin:round;stroke-miterlimit:4;stroke-dasharray:none;stroke-opacity:1;"
     cx="35.834685"
     cy="46.655153"
     rx="0.42972276"
     ry="0.41924171"
     id="ellipse87" />
  <ellipse
     style="fill:#00ff00;fill-rule:evenodd;fill-opacity:1;stroke:#000000;stroke-width:0.020962086px;stroke-linecap:round;stroke-linejoin:round;stroke-miterlimit:4;stroke-dasharray:none;stroke-opacity:1;"
     cx="40.341534"
     cy="46.655153"
     rx="0.42972276"
     ry="0.41924171"
     id="ellipse89" />
  <ellipse
     style="fill:none;stroke:#000000;stroke-width:0.020962086px;stroke-linecap:round;stroke-linejoin:round;stroke-miterlimit:4;stroke-dasharray:none;stroke-opacity:1;"
     cx="40.341534"
     cy="46.655153"
     rx="0.42972276"
     ry="0.41924171"
     id="ellipse91" />
  <text
     xml:space="preserve"
     style="font-size:0.875000px;font-style:normal;font-variant:normal;font-weight:400;font-stretch:Normal;line-height:125.000000%;letter-spacing:0px;word-spacing:0px;fill:#000000;fill-opacity:1;stroke:none;font-family:Arial;text-align:start;text-anchor:start;"
     transform="matrix(1.000000,-0.000000,0.000000,1.000000,21.336409,44.358422)"
     x="0.000000"
     y="0.637875"
     id="text97"><tspan
       x="0.000000"
       y="0.637875"
       id="tspan95"><tspan
         dx="0.000000"
         dy="0.000000"
         style="fill:#808080;font-size:0.875000px;font-style:normal;font-variant:normal;font-weight:400;font-stretch:Normal;font-family:Arial;"
         id="tspan93">2.4G</tspan></tspan></text>
  <text
     xml:space="preserve"
     style="font-size:0.875000px;font-style:normal;font-variant:normal;font-weight:400;font-stretch:Normal;line-height:125.000000%;letter-spacing:0px;word-spacing:0px;fill:#000000;fill-opacity:1;stroke:none;font-family:Arial;text-align:start;text-anchor:start;"
     transform="matrix(1.000000,-0.000000,0.000000,1.000000,21.336409,44.358422)"
     x="4.866198"
     y="0.637875"
     id="text103"><tspan
       x="4.866198"
       y="0.637875"
       id="tspan101"><tspan
         dx="0.000000"
         dy="0.000000"
         style="fill:#808080;font-size:0.875000px;font-style:normal;font-variant:normal;font-weight:400;font-stretch:Normal;font-family:Arial;"
         id="tspan99">5G</tspan></tspan></text>
  <text
     xml:space="preserve"
     style="font-size:0.875000px;font-style:normal;font-variant:normal;font-weight:400;font-stretch:Normal;line-height:125.000000%;letter-spacing:0px;word-spacing:0px;fill:#000000;fill-opacity:1;stroke:none;font-family:Arial;text-align:start;text-anchor:start;"
     transform="matrix(1.000000,-0.000000,0.000000,1.000000,21.336409,44.358422)"
     x="10.406178"
     y="0.187536"
     id="text109"><tspan
       x="10.406178"
       y="0.187536"
       id="tspan107"><tspan
         dx="0.000000"
         dy="0.000000"
         style="fill:#808080;font-size:0.875000px;font-style:normal;font-variant:normal;font-weight:400;font-stretch:Normal;font-family:Arial;"
         id="tspan105">1</tspan></tspan></text>
  <text
     xml:space="preserve"
     style="font-size:0.875000px;font-style:normal;font-variant:normal;font-weight:400;font-stretch:Normal;line-height:125.000000%;letter-spacing:0px;word-spacing:0px;fill:#000000;fill-opacity:1;stroke:none;font-family:Arial;text-align:start;text-anchor:start;"
     transform="matrix(1.000000,-0.000000,0.000000,1.000000,21.336409,44.358422)"
     x="15.197512"
     y="0.187536"
     id="text115"><tspan
       x="15.197512"
       y="0.187536"
       id="tspan113"><tspan
         dx="0.000000"
         dy="0.000000"
         style="fill:#808080;font-size:0.875000px;font-style:normal;font-variant:normal;font-weight:400;font-stretch:Normal;font-family:Arial;"
         id="tspan111">2</tspan></tspan></text>
  <path
     style="fill:#898989;fill-rule:evenodd;fill-opacity:1;stroke:#898989;stroke-width:0.0081370305px;stroke-linecap:round;stroke-linejoin:round;stroke-miterlimit:4;stroke-dasharray:none;stroke-opacity:1;"
     d="  M 40.72584,44.468047   L 40.774662,44.49338   L 40.799073,44.518713   L 40.815347,44.527158   L 40.856032,44.569379   L 40.864169,44.586268   L 40.880443,44.594713   L 40.88858,44.611601   L 40.904854,44.62849   L 40.912991,44.645379   L 40.921128,44.653823   L 40.937402,44.687601   L 40.953676,44.704489   L 40.961813,44.721378   L 40.961813,44.738267   L 40.969951,44.7636   L 40.986225,44.797377   L 40.986225,44.814266   L 40.994362,44.831155   L 41.002499,44.856488   L 41.002499,44.890265   L 41.010636,44.915599   L 41.010636,45.03382   L 41.002499,45.059153   L 41.002499,45.09293   L 40.986225,45.143596   L 40.978088,45.177374   L 40.969951,45.202707   L 40.953676,45.22804   L 40.945539,45.253373   L 40.929265,45.270262   L 40.921128,45.295595   L 40.904854,45.320928   L 40.790936,45.439149   L 40.766525,45.456038   L 40.742114,45.464483   L 40.72584,45.481371   L 40.701429,45.489816   L 40.677017,45.506704   L 40.652606,45.515149   L 40.620058,45.523593   L 40.571236,45.540482   L 40.538688,45.540482   L 40.514277,45.548926   L 40.400358,45.548926   L 40.375947,45.540482   L 40.343399,45.540482   L 40.294577,45.523593   L 40.262029,45.515149   L 40.237618,45.506704   L 40.213207,45.489816   L 40.188796,45.481371   L 40.172521,45.464483   L 40.14811,45.456038   L 40.123699,45.439149   L 40.009781,45.320928   L 39.993507,45.295595   L 39.98537,45.270262   L 39.969096,45.253373   L 39.960959,45.22804   L 39.944685,45.202707   L 39.936548,45.177374   L 39.928411,45.143596   L 39.912137,45.09293   L 39.912137,45.059153   L 39.903999,45.03382   L 39.903999,44.915599   L 39.912137,44.89871   L 39.912137,44.864932   L 39.920274,44.848044   L 39.920274,44.831155   L 39.928411,44.814266   L 39.928411,44.797377   L 39.936548,44.780489   L 39.936548,44.7636   L 39.969096,44.696045   L 39.977233,44.687601   L 40.001644,44.636934   L 40.009781,44.62849   L 40.017918,44.611601   L 40.034192,44.603157   L 40.042329,44.586268   L 40.099288,44.527158   L 40.115562,44.518713   L 40.123699,44.501824   L 40.139973,44.49338   L 40.139973,44.501824   L 40.14811,44.501824   L 40.14811,44.510269   L 40.156247,44.510269   L 40.156247,44.518713   L 40.164384,44.527158   L 40.164384,44.535602   L 40.172521,44.535602   L 40.172521,44.552491   L 40.180659,44.552491   L 40.180659,44.560935   L 40.188796,44.569379   L 40.188796,44.577824   L 40.196933,44.577824   L 40.196933,44.586268   L 40.20507,44.586268   L 40.20507,44.594713   L 40.196933,44.603157   L 40.180659,44.611601   L 40.107425,44.687601   L 40.099288,44.704489   L 40.083014,44.721378   L 40.074877,44.738267   L 40.074877,44.746711   L 40.06674,44.7636   L 40.058603,44.772044   L 40.050466,44.788933   L 40.050466,44.797377   L 40.042329,44.814266   L 40.034192,44.82271   L 40.034192,44.839599   L 40.026055,44.856488   L 40.026055,44.864932   L 40.017918,44.881821   L 40.017918,44.907154   L 40.009781,44.924043   L 40.009781,45.03382   L 40.017918,45.050708   L 40.017918,45.076042   L 40.026055,45.101375   L 40.034192,45.118263   L 40.034192,45.143596   L 40.042329,45.160485   L 40.050466,45.185818   L 40.06674,45.202707   L 40.074877,45.219596   L 40.083014,45.244929   L 40.115562,45.278706   L 40.123699,45.295595   L 40.156247,45.329373   L 40.172521,45.337817   L 40.20507,45.371594   L 40.229481,45.380039   L 40.245755,45.388483   L 40.262029,45.405372   L 40.28644,45.413816   L 40.302714,45.422261   L 40.327125,45.422261   L 40.343399,45.430705   L 40.36781,45.439149   L 40.392221,45.439149   L 40.408495,45.447594   L 40.50614,45.447594   L 40.522414,45.439149   L 40.546825,45.439149   L 40.571236,45.430705   L 40.58751,45.422261   L 40.611921,45.422261   L 40.628195,45.413816   L 40.652606,45.405372   L 40.66888,45.388483   L 40.685154,45.380039   L 40.709566,45.371594   L 40.742114,45.337817   L 40.758388,45.329373   L 40.790936,45.295595   L 40.799073,45.278706   L 40.831621,45.244929   L 40.839758,45.219596   L 40.847895,45.202707   L 40.864169,45.185818   L 40.872306,45.160485   L 40.880443,45.143596   L 40.880443,45.118263   L 40.88858,45.101375   L 40.896717,45.076042   L 40.896717,45.050708   L 40.904854,45.03382   L 40.904854,44.932487   L 40.896717,44.915599   L 40.896717,44.890265   L 40.88858,44.873377   L 40.88858,44.856488   L 40.880443,44.839599   L 40.880443,44.82271   L 40.872306,44.814266   L 40.864169,44.797377   L 40.864169,44.780489   L 40.856032,44.772044   L 40.847895,44.755156   L 40.839758,44.746711   L 40.823484,44.712934   L 40.774662,44.662267   L 40.766525,44.645379   L 40.750251,44.636934   L 40.733977,44.620046   L 40.717703,44.611601   L 40.709566,44.603157   L 40.693291,44.594713   L 40.685154,44.586268   L 40.66888,44.577824   L 40.66888,44.569379   L 40.677017,44.569379   L 40.677017,44.552491   L 40.685154,44.552491   L 40.685154,44.544046   L 40.693291,44.535602   L 40.693291,44.527158   L 40.701429,44.527158   L 40.701429,44.510269   L 40.709566,44.501824   L 40.709566,44.49338   L 40.717703,44.49338   L 40.717703,44.476491   L 40.72584,44.476491   L 40.72584,44.468047   z "
     id="path117" />
  <path
     style="fill:#898989;fill-rule:evenodd;fill-opacity:1;stroke:#898989;stroke-width:0.0081370305px;stroke-linecap:round;stroke-linejoin:round;stroke-miterlimit:4;stroke-dasharray:none;stroke-opacity:1;"
     d="  M 40.50614,44.214716   L 40.384084,44.214716   L 40.384084,45.016931   L 40.50614,45.016931   L 40.50614,44.214716   z "
     id="path119" />
  <path
     style="fill:#7f7f7f;fill-rule:evenodd;fill-opacity:1;stroke:#7f7f7f;stroke-width:0.032525491px;stroke-linecap:round;stroke-linejoin:round;stroke-miterlimit:4;stroke-dasharray:none;stroke-opacity:1;"
     d="  M 30.779955,44.372344   L 30.357123,44.372344   L 30.357123,44.788933   L 30.779955,44.788933   L 30.779955,44.372344   z "
     id="path121" />
  <path
     style="fill:#7f7f7f;fill-rule:evenodd;fill-opacity:1;stroke:#7f7f7f;stroke-width:0.032525491px;stroke-linecap:round;stroke-linejoin:round;stroke-miterlimit:4;stroke-dasharray:none;stroke-opacity:1;"
     d="  M 30.313756,45.036634   L 29.890925,45.036634   L 29.890925,45.453223   L 30.313756,45.453223   L 30.313756,45.036634   z "
     id="path123" />
  <path
     style="fill:#7f7f7f;fill-rule:evenodd;fill-opacity:1;stroke:#7f7f7f;stroke-width:0.032525491px;stroke-linecap:round;stroke-linejoin:round;stroke-miterlimit:4;stroke-dasharray:none;stroke-opacity:1;"
     d="  M 31.246153,45.036634   L 30.823322,45.036634   L 30.823322,45.453223   L 31.246153,45.453223   L 31.246153,45.036634   z "
     id="path125" />
  <path
     style="fill:none;stroke:#7f7f7f;stroke-width:0.032525491px;stroke-linecap:round;stroke-linejoin:round;stroke-miterlimit:4;stroke-dasharray:none;stroke-opacity:1;"
     d="  M 29.80419,44.912784   L 31.332888,44.912784  "
     id="path127" />
  <path
     style="fill:none;stroke:#7f7f7f;stroke-width:0.032525491px;stroke-linecap:round;stroke-linejoin:round;stroke-miterlimit:4;stroke-dasharray:none;stroke-opacity:1;"
     d="  M 30.563118,44.788933   L 30.563118,44.912784  "
     id="path129" />
  <path
     style="fill:none;stroke:#7f7f7f;stroke-width:0.032525491px;stroke-linecap:round;stroke-linejoin:round;stroke-miterlimit:4;stroke-dasharray:none;stroke-opacity:1;"
     d="  M 31.040159,44.912784   L 31.040159,45.036634  "
     id="path131" />
  <path
     style="fill:none;stroke:#7f7f7f;stroke-width:0.032525491px;stroke-linecap:round;stroke-linejoin:round;stroke-miterlimit:4;stroke-dasharray:none;stroke-opacity:1;"
     d="  M 30.086078,44.912784   L 30.086078,45.036634  "
     id="path133" />
  <path
     style="fill:#7f7f7f;fill-rule:evenodd;fill-opacity:1;stroke:#7f7f7f;stroke-width:0.032525491px;stroke-linecap:round;stroke-linejoin:round;stroke-miterlimit:4;stroke-dasharray:none;stroke-opacity:1;"
     d="  M 35.572043,44.372344   L 35.149212,44.372344   L 35.149212,44.788933   L 35.572043,44.788933   L 35.572043,44.372344   z "
     id="path135" />
  <path
     style="fill:#7f7f7f;fill-rule:evenodd;fill-opacity:1;stroke:#7f7f7f;stroke-width:0.032525491px;stroke-linecap:round;stroke-linejoin:round;stroke-miterlimit:4;stroke-dasharray:none;stroke-opacity:1;"
     d="  M 35.105845,45.036634   L 34.683013,45.036634   L 34.683013,45.453223   L 35.105845,45.453223   L 35.105845,45.036634   z "
     id="path137" />
  <path
     style="fill:#7f7f7f;fill-rule:evenodd;fill-opacity:1;stroke:#7f7f7f;stroke-width:0.032525491px;stroke-linecap:round;stroke-linejoin:round;stroke-miterlimit:4;stroke-dasharray:none;stroke-opacity:1;"
     d="  M 36.038242,45.036634   L 35.615411,45.036634   L 35.615411,45.453223   L 36.038242,45.453223   L 36.038242,45.036634   z "
     id="path139" />
  <path
     style="fill:none;stroke:#7f7f7f;stroke-width:0.032525491px;stroke-linecap:round;stroke-linejoin:round;stroke-miterlimit:4;stroke-dasharray:none;stroke-opacity:1;"
     d="  M 34.596279,44.912784   L 36.124977,44.912784  "
     id="path141" />
  <path
     style="fill:none;stroke:#7f7f7f;stroke-width:0.032525491px;stroke-linecap:round;stroke-linejoin:round;stroke-miterlimit:4;stroke-dasharray:none;stroke-opacity:1;"
     d="  M 35.355207,44.788933   L 35.355207,44.912784  "
     id="path143" />
  <path
     style="fill:none;stroke:#7f7f7f;stroke-width:0.032525491px;stroke-linecap:round;stroke-linejoin:round;stroke-miterlimit:4;stroke-dasharray:none;stroke-opacity:1;"
     d="  M 35.832247,44.912784   L 35.832247,45.036634  "
     id="path145" />
  <path
     style="fill:none;stroke:#7f7f7f;stroke-width:0.032525491px;stroke-linecap:round;stroke-linejoin:round;stroke-miterlimit:4;stroke-dasharray:none;stroke-opacity:1;"
     d="  M 34.878166,44.912784   L 34.878166,45.036634  "
     id="path147" />
  <path
     style="fill:none;stroke:#000000;stroke-width:0.0080937324px;stroke-linecap:round;stroke-linejoin:round;stroke-miterlimit:4;stroke-dasharray:none;stroke-opacity:1;"
     d="  M 31.282274,0   L 30.998993,0   L 30.998993,0.28400698   L 31.282274,0.28400698   L 31.282274,0   z "
     id="path149" />
  <path
     style="fill:none;stroke:#000000;stroke-width:0.0080937324px;stroke-linecap:round;stroke-linejoin:round;stroke-miterlimit:4;stroke-dasharray:none;stroke-opacity:1;"
     d="  M 0.28328062,31.078478   L 0,31.078478   L 0,31.362485   L 0.28328062,31.362485   L 0.28328062,31.078478   z "
     id="path151" />
  <path
     style="fill:none;stroke:#000000;stroke-width:0.0080937324px;stroke-linecap:round;stroke-linejoin:round;stroke-miterlimit:4;stroke-dasharray:none;stroke-opacity:1;"
     d="  M 62.346017,31.078478   L 62.062737,31.078478   L 62.062737,31.362485   L 62.346017,31.362485   L 62.346017,31.078478   z "
     id="path153" />
  <path
     style="fill:none;stroke:#000000;stroke-width:0.0080937324px;stroke-linecap:round;stroke-linejoin:round;stroke-miterlimit:4;stroke-dasharray:none;stroke-opacity:1;"
     d="  M 31.282274,57.117861   L 30.998993,57.117861   L 30.998993,57.401868   L 31.282274,57.401868   L 31.282274,57.117861   z "
     id="path155" />
</svg>
