<?xml version="1.0" encoding="UTF-8" standalone="no"?>
<svg
   version="1.0"
   width="20.01mm"
   height="20.01mm"
   id="svg171"
   xmlns="http://www.w3.org/2000/svg"
   xmlns:svg="http://www.w3.org/2000/svg">
  <defs
     id="defs3">
    <pattern
       id="EMFhbasepattern"
       patternUnits="userSpaceOnUse"
       width="6"
       height="6"
       x="0"
       y="0" />
  </defs>
  <path
     style="fill:#bfbfbf;fill-rule:evenodd;fill-opacity:1;stroke:#000000;stroke-width:0.093547665px;stroke-linecap:round;stroke-linejoin:round;stroke-miterlimit:4;stroke-dasharray:none;stroke-opacity:1;"
     d="  M 42.657736,68.509476   M 42.040322,68.340733   M 42.395803,68.528225   M 42.395803,68.528225   M 41.647422,68.528225   M 35.323599,75.559164   L 34.425542,75.559164   L 32.629426,75.521666   L 29.935254,75.409171   L 29.055905,75.352924   L 28.157848,75.296676   L 27.2785,75.240428   L 25.557223,75.090435   L 23.835946,74.902943   L 22.994017,74.809198   L 21.347578,74.584207   L 20.524358,74.452963   L 19.719848,74.321719   L 18.934048,74.190475   L 18.148247,74.040481   L 17.381157,73.890488   L 16.632775,73.740495   L 15.884394,73.571752   L 15.173432,73.40301   L 14.462469,73.215518   L 13.770217,73.028026   L 13.096673,72.840534   L 11.787006,72.428053   L 11.169591,72.203063   L 10.570886,71.978073   L 9.9908909,71.753082   L 9.2425095,71.453096   L 8.8870284,71.303102   L 8.5502568,71.13436   L 7.8767136,70.834373   L 7.5773611,70.66563   L 7.259299,70.496888   L 6.978656,70.328145   L 6.6793034,70.140654   L 6.41737,69.971911   L 6.136727,69.784419   L 5.893503,69.596928   L 5.6315696,69.390687   L 5.4070552,69.184446   L 5.1638312,68.978205   L 4.9580264,68.753215   L 4.733512,68.528225   L 4.5277071,68.303235   L 4.1535164,67.815756   L 3.7793258,67.290779   L 3.6296495,67.009542   L 3.4612637,66.728304   L 3.1619112,66.128331   L 3.0309444,65.809595   L 2.8812682,65.47211   L 2.769011,65.134625   L 2.6380442,64.77839   L 2.525787,64.403407   L 2.2825631,63.672189   L 2.0393391,62.865975   L 1.8335343,62.003513   L 1.6277294,61.103553   L 1.4593436,60.147345   L 1.2909578,59.172388   L 1.122572,58.141183   L 0.99160527,57.09123   L 0.86063854,56.022527   L 0.72967181,54.935075   L 0.4490288,51.616471   L 0.37419067,50.51027   L 0.31806207,49.422818   L 0.26193347,48.354115   L 0.20580487,47.304162   L 0.1683858,46.272957   L 0.13096673,45.279251   L 0.1122572,44.323043   L 0.074838134,43.404334   L 0.0561286,42.541872   L 0.0561286,41.735658   L 0.037419067,40.985691   L 0.037419067,37.798331   L 0.0561286,36.729629   L 0.0561286,35.660926   L 0.093547667,33.561018   L 0.13096673,32.529814   L 0.14967627,31.498609   L 0.18709533,30.467405   L 0.2245144,29.45495   L 0.26193347,28.461244   L 0.31806207,27.467537   L 0.35548114,26.49258   L 0.41160974,25.536373   L 0.48644787,24.580165   L 0.54257647,23.642706   L 0.6174146,22.723997   L 0.80450994,20.924076   L 0.99160527,19.199152   L 1.1038625,18.374189   L 1.2348292,17.549225   L 1.3657959,16.76176   L 1.4967627,15.993044   L 1.6464389,15.224328   L 1.7961152,14.49311   L 1.964501,13.780642   L 2.1328868,13.105671   L 2.3199822,12.430701   L 2.5070775,11.793229   L 2.7128824,11.174507   L 2.9373968,10.593282   L 3.1619112,10.030807   L 3.3115874,9.7683188   L 3.4799732,9.5058304   L 3.6296495,9.243342   L 3.7980353,8.9996027   L 3.9477116,8.7746126   L 4.1160974,8.5308734   L 4.2657736,8.3058833   L 4.4341594,8.0996424   L 4.6025452,7.8746524   L 4.770931,7.6871606   L 5.1077026,7.2746789   L 5.6502791,6.7309529   L 5.856084,6.5622103   L 6.0431793,6.3934678   L 6.2489842,6.2247252   L 6.454789,6.0747318   L 6.6605939,5.9059893   L 7.1096227,5.6060025   L 7.3528467,5.4747583   L 7.5960706,5.3247649   L 7.8392945,5.1935207   L 8.3631615,4.9310323   L 8.9244475,4.6685439   L 9.2238,4.5560489   L 9.5231525,4.4248047   L 9.8412146,4.3123096   L 10.608305,4.0498212   L 12.179906,3.5623427   L 12.984416,3.3186035   L 13.807636,3.0936134   L 14.630855,2.8873725   L 15.472784,2.6623825   L 16.314713,2.4748907   L 17.156642,2.2686498   L 18.017281,2.0811581   L 18.877919,1.9124156   L 19.757267,1.7249239   L 20.636615,1.5749305   L 21.515963,1.4061879   L 22.395312,1.2749437   L 23.293369,1.1249503   L 24.172717,0.99370613   L 26.86689,0.65622103   L 28.663005,0.46872931   L 30.45912,0.31873593   L 31.338469,0.24373924   L 32.236526,0.18749172   L 34.87457,0.074996689   L 35.753918,0.056247517   L 36.614557,0.037498345   L 38.822282,0.037498345   L 39.68292,0.056247517   L 40.562269,0.074996689   L 43.200313,0.18749172   L 44.09837,0.24373924   L 44.977718,0.31873593   L 46.773834,0.46872931   L 48.569949,0.65622103   L 51.264122,0.99370613   L 52.14347,1.1249503   L 53.041527,1.2749437   L 53.920875,1.4061879   L 54.800224,1.5749305   L 55.679572,1.7249239   L 56.55892,1.9124156   L 57.419558,2.0811581   L 58.280197,2.2686498   L 59.122126,2.4748907   L 59.964055,2.6623825   L 60.805984,2.8873725   L 61.629203,3.0936134   L 62.452423,3.3186035   L 63.256933,3.5623427   L 64.828533,4.0498212   L 65.595624,4.3123096   L 65.913686,4.4248047   L 66.213039,4.5560489   L 66.512391,4.6685439   L 67.073677,4.9310323   L 67.597544,5.1935207   L 67.840768,5.3247649   L 68.083992,5.4747583   L 68.327216,5.6060025   L 68.776245,5.9059893   L 68.98205,6.0747318   L 69.187855,6.2247252   L 69.39366,6.3934678   L 69.580755,6.5622103   L 69.78656,6.7309529   L 70.329136,7.2746789   L 70.665908,7.6871606   L 70.834294,7.8746524   L 71.00268,8.0996424   L 71.171065,8.3058833   L 71.320742,8.5308734   L 71.489127,8.7746126   L 71.638804,8.9996027   L 71.807189,9.243342   L 71.956866,9.5058304   L 72.125252,9.7683188   L 72.274928,10.030807   L 72.499442,10.593282   L 72.723957,11.174507   L 72.929761,11.793229   L 73.116857,12.430701   L 73.303952,13.105671   L 73.472338,13.780642   L 73.640724,14.49311   L 73.7904,15.224328   L 73.940076,15.993044   L 74.071043,16.76176   L 74.20201,17.549225   L 74.332976,18.374189   L 74.445234,19.199152   L 74.632329,20.924076   L 74.819424,22.723997   L 74.894262,23.642706   L 74.950391,24.580165   L 75.025229,25.536373   L 75.081358,26.49258   L 75.118777,27.467537   L 75.174905,28.461244   L 75.212325,29.45495   L 75.249744,30.467405   L 75.287163,31.498609   L 75.305872,32.529814   L 75.343291,33.561018   L 75.38071,35.660926   L 75.38071,36.729629   L 75.39942,37.798331   L 75.39942,40.985691   L 75.38071,41.735658   L 75.38071,42.541872   L 75.362001,43.404334   L 75.324582,44.323043   L 75.305872,45.279251   L 75.268453,46.272957   L 75.231034,47.304162   L 75.174905,48.354115   L 75.118777,49.422818   L 75.062648,50.51027   L 74.98781,51.616471   L 74.707167,54.935075   L 74.5762,56.022527   L 74.445234,57.09123   L 74.314267,58.141183   L 74.145881,59.172388   L 73.977495,60.147345   L 73.80911,61.103553   L 73.603305,62.003513   L 73.3975,62.865975   L 73.154276,63.672189   L 72.911052,64.403407   L 72.798795,64.77839   L 72.667828,65.134625   L 72.555571,65.47211   L 72.405895,65.809595   L 72.274928,66.128331   L 71.975575,66.728304   L 71.807189,67.009542   L 71.657513,67.290779   L 71.283323,67.815756   L 70.909132,68.303235   L 70.703327,68.528225   L 70.478813,68.753215   L 70.273008,68.978205   L 70.029784,69.184446   L 69.805269,69.390687   L 69.543336,69.596928   L 69.300112,69.784419   L 69.019469,69.971911   L 68.757536,70.140654   L 68.458183,70.328145   L 68.17754,70.496888   L 67.859478,70.66563   L 67.560125,70.834373   L 66.886582,71.13436   L 66.549811,71.303102   L 66.194329,71.453096   L 65.445948,71.753082   L 64.865953,71.978073   L 64.267247,72.203063   L 63.649833,72.428053   L 62.340166,72.840534   L 61.666622,73.028026   L 60.97437,73.215518   L 60.263407,73.40301   L 59.552445,73.571752   L 58.804064,73.740495   L 58.055682,73.890488   L 57.288591,74.040481   L 56.502791,74.190475   L 55.716991,74.321719   L 54.107971,74.584207   L 53.266042,74.696702   L 52.442822,74.809198   L 51.600893,74.902943   L 49.879616,75.090435   L 48.158339,75.240428   L 47.278991,75.296676   L 46.380933,75.352924   L 45.501585,75.409171   L 42.807413,75.521666   L 41.011297,75.559164   L 35.342309,75.559164   L 35.323599,75.559164   z "
     id="path5" />
  <path
     style="fill:#eaeaea;fill-rule:evenodd;fill-opacity:1;stroke:#efefef;stroke-width:0.018709533px;stroke-linecap:round;stroke-linejoin:round;stroke-miterlimit:4;stroke-dasharray:none;stroke-opacity:1;"
     d="  M 35.342309,74.602957   L 34.462961,74.602957   L 33.602322,74.584207   L 32.722974,74.565458   L 31.862336,74.546709   L 30.982987,74.509211   L 30.122349,74.490462   L 29.26171,74.434214   L 28.401072,74.396716   L 27.540433,74.340468   L 26.698504,74.265472   L 25.856575,74.209224   L 25.033356,74.134227   L 23.386917,73.946736   L 21.777897,73.759244   L 20.206296,73.534254   L 19.439205,73.40301   L 18.690824,73.271765   L 17.942443,73.121772   L 17.212771,72.971779   L 15.790846,72.671792   L 15.098594,72.4843   L 14.42505,72.315558   L 13.770217,72.128066   L 13.134092,71.940574   L 12.516678,71.734333   L 11.917973,71.528092   L 11.337977,71.303102   L 10.402501,70.928119   L 9.6915383,70.628132   L 9.3547667,70.478139   L 8.7186426,70.178152   L 8.1199375,69.840667   L 7.5586515,69.503182   L 7.2967181,69.334439   L 6.7728511,68.959456   L 6.5483367,68.771964   L 6.3051128,68.565723   L 6.0805984,68.359482   L 5.8747935,68.153241   L 5.4631838,67.703261   L 4.9018978,66.972044   L 4.733512,66.709555   L 4.5838357,66.447067   L 4.4154499,66.14708   L 4.2657736,65.865842   L 4.1348069,65.565856   L 3.9851306,65.24712   L 3.8541639,64.928384   L 3.7419067,64.590899   L 3.61094,64.234664   L 3.4986828,63.87843   L 3.2367493,63.165962   L 2.9935254,62.453493   L 2.769011,61.741024   L 2.5819156,61.009807   L 2.2077249,59.509873   L 2.0580487,58.759906   L 1.7961152,57.222474   L 1.683858,56.453758   L 1.5903103,55.666293   L 1.4406341,54.091362   L 1.3657959,53.285148   L 1.3096673,52.478933   L 1.2348292,50.866504   L 1.2161197,50.06029   L 1.1974101,49.235326   L 1.1787006,48.429112   L 1.1787006,47.604149   L 1.1599911,46.779185   L 1.1787006,45.954221   L 1.1787006,44.304294   L 1.1974101,43.479331   L 1.1974101,42.654367   L 1.2161197,41.848153   L 1.2348292,41.023189   L 1.2348292,40.198225   L 1.2535387,39.373262   L 1.2535387,37.498345   L 1.2722483,36.429642   L 1.2722483,35.360939   L 1.3096673,33.261032   L 1.3470864,31.198623   L 1.3657959,30.186167   L 1.403215,29.173712   L 1.4780531,27.1863   L 1.5341817,26.211343   L 1.5903103,25.255135   L 1.6464389,24.317676   L 1.7212771,23.380218   L 1.8709533,21.580297   L 1.9457915,20.699086   L 2.0393391,19.836624   L 2.1515963,18.992912   L 2.2638536,18.167948   L 2.3761108,17.361734   L 2.5070775,16.574268   L 2.6567538,15.805552   L 2.7877205,15.074335   L 2.9561063,14.361866   L 3.1244921,13.668147   L 3.2928779,12.993176   L 3.4799732,12.355705   L 3.6857781,11.736982   L 3.891583,11.155758   L 4.1160974,10.593282   L 4.2283546,10.349543   L 4.3780308,10.124553   L 4.5089976,9.8808138   L 4.6773834,9.6558237   L 4.8644787,9.4120845   L 5.051574,9.1870944   L 5.2386694,8.9433552   L 5.4444742,8.7183651   L 6.3425318,7.8184049   L 7.3154276,6.9934413   L 7.5773611,6.8059495   L 8.0638089,6.4309661   L 8.3070329,6.2622236   L 8.5315473,6.1122302   L 8.7747712,5.9434876   L 8.9992856,5.8122434   L 9.2238,5.66225   L 9.8412146,5.3247649   L 10.02831,5.2310191   L 10.196696,5.1560224   L 10.346372,5.0810257   L 10.496048,5.0247782   L 10.627015,4.9872798   L 11.412815,4.7435406   L 13.021835,4.2560621   L 13.845055,4.031072   L 14.649565,3.8248312   L 15.472784,3.5998411   L 16.296004,3.4123494   L 17.137933,3.2061085   L 17.961152,3.0186167   L 20.486939,2.5123891   L 22.170797,2.2124023   L 23.012726,2.0811581   L 23.873365,1.9499139   L 24.715294,1.8374189   L 25.575932,1.7249239   L 26.417861,1.6124288   L 28.139138,1.4249371   L 28.981067,1.3499404   L 29.841706,1.2749437   L 30.683635,1.199947   L 31.544273,1.1436995   L 32.386202,1.087452   L 34.07006,1.0124553   L 36.595847,0.95620779   L 38.878411,0.95620779   L 41.404198,1.0124553   L 43.088056,1.087452   L 43.929985,1.1436995   L 44.790623,1.199947   L 45.632552,1.2749437   L 46.493191,1.3499404   L 47.33512,1.4249371   L 49.056397,1.6124288   L 49.898326,1.7249239   L 50.758964,1.8374189   L 51.600893,1.9499139   L 52.461532,2.0811581   L 53.303461,2.2124023   L 54.987319,2.5123891   L 57.513106,3.0186167   L 58.355035,3.2061085   L 59.178254,3.4123494   L 60.001474,3.5998411   L 60.824693,3.8248312   L 61.629203,4.031072   L 62.452423,4.2560621   L 64.061443,4.7435406   L 64.847243,4.9872798   L 64.97821,5.0247782   L 65.127886,5.0810257   L 65.277562,5.1560224   L 65.445948,5.2310191   L 65.633043,5.3247649   L 66.250458,5.66225   L 66.474972,5.8122434   L 66.699487,5.9434876   L 66.942711,6.1122302   L 67.167225,6.2622236   L 67.410449,6.4309661   L 67.896897,6.8059495   L 68.15883,6.9934413   L 69.131726,7.8184049   L 70.029784,8.7183651   L 70.235589,8.9433552   L 70.422684,9.1870944   L 70.609779,9.4120845   L 70.796875,9.6558237   L 70.96526,9.8808138   L 71.096227,10.124553   L 71.245903,10.349543   L 71.358161,10.593282   L 71.582675,11.155758   L 71.78848,11.736982   L 71.994285,12.355705   L 72.18138,12.993176   L 72.349766,13.668147   L 72.518152,14.361866   L 72.686538,15.074335   L 72.817504,15.805552   L 72.967181,16.574268   L 73.098147,17.361734   L 73.210404,18.167948   L 73.322662,18.992912   L 73.434919,19.836624   L 73.528467,20.699086   L 73.603305,21.580297   L 73.696852,22.480258   L 73.752981,23.380218   L 73.827819,24.317676   L 73.883948,25.255135   L 73.940076,26.211343   L 73.996205,27.1863   L 74.071043,29.173712   L 74.108462,30.186167   L 74.127172,31.198623   L 74.164591,33.261032   L 74.20201,35.360939   L 74.20201,36.429642   L 74.220719,37.498345   L 74.220719,39.373262   L 74.239429,40.198225   L 74.239429,41.023189   L 74.258138,41.848153   L 74.276848,42.654367   L 74.276848,43.479331   L 74.295557,44.304294   L 74.295557,45.954221   L 74.314267,46.779185   L 74.295557,47.604149   L 74.295557,48.429112   L 74.276848,49.235326   L 74.258138,50.06029   L 74.239429,50.866504   L 74.164591,52.478933   L 74.108462,53.285148   L 74.033624,54.091362   L 73.883948,55.666293   L 73.7904,56.453758   L 73.678143,57.222474   L 73.416209,58.759906   L 73.266533,59.509873   L 72.892342,61.009807   L 72.705247,61.741024   L 72.480733,62.453493   L 72.237509,63.165962   L 71.975575,63.87843   L 71.863318,64.234664   L 71.732351,64.590899   L 71.620094,64.928384   L 71.489127,65.24712   L 71.339451,65.565856   L 71.208484,65.865842   L 71.058808,66.14708   L 70.890422,66.447067   L 70.740746,66.709555   L 70.57236,66.972044   L 70.011074,67.703261   L 69.599465,68.153241   L 69.39366,68.359482   L 69.169145,68.565723   L 68.925921,68.771964   L 68.701407,68.959456   L 68.17754,69.334439   L 67.915607,69.503182   L 67.35432,69.840667   L 66.755615,70.178152   L 66.119491,70.478139   L 65.78272,70.628132   L 65.071757,70.928119   L 64.136281,71.303102   L 63.556285,71.528092   L 62.95758,71.734333   L 62.340166,71.940574   L 61.704041,72.128066   L 61.049208,72.315558   L 60.375665,72.4843   L 59.683412,72.671792   L 58.261487,72.971779   L 57.531815,73.121772   L 56.783434,73.271765   L 56.035053,73.40301   L 55.267962,73.534254   L 53.696361,73.759244   L 52.087341,73.946736   L 50.440902,74.134227   L 49.617683,74.209224   L 48.775754,74.265472   L 47.933825,74.340468   L 47.073186,74.396716   L 46.212548,74.434214   L 45.351909,74.490462   L 44.491271,74.509211   L 43.611923,74.546709   L 42.751284,74.565458   L 41.871936,74.584207   L 41.011297,74.602957   L 35.361018,74.602957   L 35.342309,74.602957   z "
     id="path7" />
  <ellipse
     style="fill:#000000;fill-rule:evenodd;fill-opacity:1;stroke:#000000;stroke-width:0.018709533px;stroke-linecap:round;stroke-linejoin:round;stroke-miterlimit:4;stroke-dasharray:none;stroke-opacity:1;"
     cx="28.896874"
     cy="70.11253"
     rx="0.62676937"
     ry="0.62676937"
     id="ellipse9" />
  <ellipse
     style="fill:none;stroke:#000000;stroke-width:0.018709533px;stroke-linecap:round;stroke-linejoin:round;stroke-miterlimit:4;stroke-dasharray:none;stroke-opacity:1;"
     cx="28.896874"
     cy="70.11253"
     rx="0.62676937"
     ry="0.62676937"
     id="ellipse11" />
  <ellipse
     style="fill:#00ff00;fill-rule:evenodd;fill-opacity:1;stroke:#000000;stroke-width:0.018709533px;stroke-linecap:round;stroke-linejoin:round;stroke-miterlimit:4;stroke-dasharray:none;stroke-opacity:1;"
     cx="28.896874"
     cy="70.11253"
     rx="0.4770931"
     ry="0.4770931"
     id="ellipse13" />
  <ellipse
     style="fill:none;stroke:#000000;stroke-width:0.018709533px;stroke-linecap:round;stroke-linejoin:round;stroke-miterlimit:4;stroke-dasharray:none;stroke-opacity:1;"
     cx="28.896874"
     cy="70.11253"
     rx="0.4770931"
     ry="0.4770931"
     id="ellipse15" />
  <ellipse
     style="fill:#000000;fill-rule:evenodd;fill-opacity:1;stroke:#000000;stroke-width:0.018709533px;stroke-linecap:round;stroke-linejoin:round;stroke-miterlimit:4;stroke-dasharray:none;stroke-opacity:1;"
     cx="33.256196"
     cy="70.11253"
     rx="0.62676937"
     ry="0.62676937"
     id="ellipse17" />
  <ellipse
     style="fill:none;stroke:#000000;stroke-width:0.018709533px;stroke-linecap:round;stroke-linejoin:round;stroke-miterlimit:4;stroke-dasharray:none;stroke-opacity:1;"
     cx="33.256196"
     cy="70.11253"
     rx="0.62676937"
     ry="0.62676937"
     id="ellipse19" />
  <ellipse
     style="fill:#00ff00;fill-rule:evenodd;fill-opacity:1;stroke:#000000;stroke-width:0.018709533px;stroke-linecap:round;stroke-linejoin:round;stroke-miterlimit:4;stroke-dasharray:none;stroke-opacity:1;"
     cx="33.256196"
     cy="70.11253"
     rx="0.4770931"
     ry="0.4770931"
     id="ellipse21" />
  <ellipse
     style="fill:none;stroke:#000000;stroke-width:0.018709533px;stroke-linecap:round;stroke-linejoin:round;stroke-miterlimit:4;stroke-dasharray:none;stroke-opacity:1;"
     cx="33.256196"
     cy="70.11253"
     rx="0.4770931"
     ry="0.4770931"
     id="ellipse23" />
  <ellipse
     style="fill:#000000;fill-rule:evenodd;fill-opacity:1;stroke:#000000;stroke-width:0.018709533px;stroke-linecap:round;stroke-linejoin:round;stroke-miterlimit:4;stroke-dasharray:none;stroke-opacity:1;"
     cx="37.587453"
     cy="70.11253"
     rx="0.63612414"
     ry="0.62676937"
     id="ellipse25" />
  <ellipse
     style="fill:none;stroke:#000000;stroke-width:0.018709533px;stroke-linecap:round;stroke-linejoin:round;stroke-miterlimit:4;stroke-dasharray:none;stroke-opacity:1;"
     cx="37.587453"
     cy="70.11253"
     rx="0.63612414"
     ry="0.62676937"
     id="ellipse27" />
  <ellipse
     style="fill:#00ff00;fill-rule:evenodd;fill-opacity:1;stroke:#000000;stroke-width:0.018709533px;stroke-linecap:round;stroke-linejoin:round;stroke-miterlimit:4;stroke-dasharray:none;stroke-opacity:1;"
     cx="37.587453"
     cy="70.11253"
     rx="0.48644787"
     ry="0.4770931"
     id="ellipse29" />
  <ellipse
     style="fill:none;stroke:#000000;stroke-width:0.018709533px;stroke-linecap:round;stroke-linejoin:round;stroke-miterlimit:4;stroke-dasharray:none;stroke-opacity:1;"
     cx="37.587453"
     cy="70.11253"
     rx="0.48644787"
     ry="0.4770931"
     id="ellipse31" />
  <ellipse
     style="fill:#000000;fill-rule:evenodd;fill-opacity:1;stroke:#000000;stroke-width:0.018709533px;stroke-linecap:round;stroke-linejoin:round;stroke-miterlimit:4;stroke-dasharray:none;stroke-opacity:1;"
     cx="46.259322"
     cy="70.11253"
     rx="0.62676937"
     ry="0.62676937"
     id="ellipse33" />
  <ellipse
     style="fill:none;stroke:#000000;stroke-width:0.018709533px;stroke-linecap:round;stroke-linejoin:round;stroke-miterlimit:4;stroke-dasharray:none;stroke-opacity:1;"
     cx="46.259322"
     cy="70.11253"
     rx="0.62676937"
     ry="0.62676937"
     id="ellipse35" />
  <ellipse
     style="fill:#00ff00;fill-rule:evenodd;fill-opacity:1;stroke:#000000;stroke-width:0.018709533px;stroke-linecap:round;stroke-linejoin:round;stroke-miterlimit:4;stroke-dasharray:none;stroke-opacity:1;"
     cx="46.259322"
     cy="70.11253"
     rx="0.4770931"
     ry="0.4770931"
     id="ellipse37" />
  <ellipse
     style="fill:none;stroke:#000000;stroke-width:0.018709533px;stroke-linecap:round;stroke-linejoin:round;stroke-miterlimit:4;stroke-dasharray:none;stroke-opacity:1;"
     cx="46.259322"
     cy="70.11253"
     rx="0.4770931"
     ry="0.4770931"
     id="ellipse39" />
  <ellipse
     style="fill:#000000;fill-rule:evenodd;fill-opacity:1;stroke:#000000;stroke-width:0.018709533px;stroke-linecap:round;stroke-linejoin:round;stroke-miterlimit:4;stroke-dasharray:none;stroke-opacity:1;"
     cx="41.946774"
     cy="70.11253"
     rx="0.63612414"
     ry="0.62676937"
     id="ellipse41" />
  <ellipse
     style="fill:none;stroke:#000000;stroke-width:0.018709533px;stroke-linecap:round;stroke-linejoin:round;stroke-miterlimit:4;stroke-dasharray:none;stroke-opacity:1;"
     cx="41.946774"
     cy="70.11253"
     rx="0.63612414"
     ry="0.62676937"
     id="ellipse43" />
  <ellipse
     style="fill:#00ff00;fill-rule:evenodd;fill-opacity:1;stroke:#000000;stroke-width:0.018709533px;stroke-linecap:round;stroke-linejoin:round;stroke-miterlimit:4;stroke-dasharray:none;stroke-opacity:1;"
     cx="41.946774"
     cy="70.11253"
     rx="0.48644787"
     ry="0.4770931"
     id="ellipse45" />
  <ellipse
     style="fill:none;stroke:#000000;stroke-width:0.018709533px;stroke-linecap:round;stroke-linejoin:round;stroke-miterlimit:4;stroke-dasharray:none;stroke-opacity:1;"
     cx="41.946774"
     cy="70.11253"
     rx="0.48644787"
     ry="0.4770931"
     id="ellipse47" />
  <path
     style="fill:#000000;fill-rule:evenodd;fill-opacity:1;stroke:#000000;stroke-width:0.018709533px;stroke-linecap:round;stroke-linejoin:round;stroke-miterlimit:4;stroke-dasharray:none;stroke-opacity:1;"
     d="  M 28.625586,35.173447   L 28.606877,35.173447   L 28.606877,35.154698   L 28.588167,35.154698   L 28.569458,35.135949   L 28.569458,35.1172   L 28.550748,35.1172   L 28.550748,35.079701   L 28.532039,35.079701   L 28.532039,33.279781   L 28.550748,33.279781   L 28.550748,33.242283   L 28.569458,33.242283   L 28.569458,33.223533   L 28.588167,33.204784   L 28.606877,33.204784   L 28.606877,33.186035   L 30.739763,33.186035   L 30.739763,33.204784   L 30.758473,33.204784   L 30.777183,33.223533   L 30.777183,33.242283   L 30.795892,33.242283   L 30.795892,33.261032   L 30.814602,33.279781   L 30.814602,33.617266   L 30.795892,33.617266   L 30.795892,33.598517   L 30.777183,33.598517   L 30.777183,33.579768   L 30.758473,33.579768   L 30.758473,33.561018   L 29.018486,33.561018   L 29.018486,33.579768   L 28.999777,33.579768   L 28.999777,33.617266   L 28.981067,33.617266   L 28.981067,35.098451   L 28.999777,35.098451   L 28.999777,35.135949   L 29.018486,35.135949   L 29.018486,35.154698   L 29.037196,35.154698   L 29.037196,35.173447   L 28.644296,35.173447   L 28.625586,35.173447   z "
     id="path49" />
  <path
     style="fill:#000000;fill-rule:evenodd;fill-opacity:1;stroke:#000000;stroke-width:0.018709533px;stroke-linecap:round;stroke-linejoin:round;stroke-miterlimit:4;stroke-dasharray:none;stroke-opacity:1;"
     d="  M 30.664925,34.029748   L 29.130744,34.029748   L 29.130744,34.010999   L 29.093325,34.010999   L 29.093325,33.992249   L 29.074615,33.992249   L 29.074615,33.954751   L 29.055905,33.954751   L 29.055905,34.348484   L 29.074615,34.348484   L 29.074615,34.367233   L 29.093325,34.385982   L 29.112034,34.385982   L 29.130744,34.404731   L 30.702344,34.404731   L 30.721054,34.385982   L 30.739763,34.385982   L 30.739763,34.367233   L 30.795892,34.310985   L 30.795892,34.292236   L 30.814602,34.273487   L 30.814602,34.142243   L 30.777183,34.104744   L 30.777183,34.085995   L 30.758473,34.067246   L 30.739763,34.067246   L 30.721054,34.048497   L 30.702344,34.048497   L 30.702344,34.029748   L 30.683635,34.029748   L 30.664925,34.029748   z "
     id="path51" />
  <path
     style="fill:#000000;fill-rule:evenodd;fill-opacity:1;stroke:#000000;stroke-width:0.018709533px;stroke-linecap:round;stroke-linejoin:round;stroke-miterlimit:4;stroke-dasharray:none;stroke-opacity:1;"
     d="  M 34.238446,34.42348   L 34.219737,34.42348   L 34.219737,34.404731   L 34.201027,34.404731   L 34.182318,34.385982   L 34.182318,34.367233   L 34.163608,34.348484   L 34.163608,33.9735   L 34.182318,33.9735   L 34.182318,33.992249   L 34.201027,33.992249   L 34.201027,34.010999   L 35.454566,34.010999   L 35.454566,33.561018   L 34.126189,33.561018   L 34.126189,33.579768   L 34.10748,33.579768   L 34.10748,33.598517   L 34.08877,33.598517   L 34.08877,33.617266   L 34.07006,33.636015   L 34.07006,35.098451   L 34.08877,35.098451   L 34.08877,35.135949   L 34.10748,35.135949   L 34.10748,35.154698   L 34.126189,35.154698   L 34.126189,35.173447   L 33.714579,35.173447   L 33.69587,35.154698   L 33.67716,35.154698   L 33.67716,35.135949   L 33.658451,35.135949   L 33.658451,35.1172   L 33.639741,35.1172   L 33.639741,35.079701   L 33.621032,35.079701   L 33.621032,33.279781   L 33.639741,33.279781   L 33.639741,33.242283   L 33.658451,33.242283   L 33.658451,33.223533   L 33.67716,33.223533   L 33.67716,33.204784   L 33.69587,33.204784   L 33.714579,33.186035   L 35.828757,33.186035   L 35.828757,33.204784   L 35.866176,33.204784   L 35.866176,33.223533   L 35.884885,33.223533   L 35.884885,33.261032   L 35.903595,33.261032   L 35.903595,34.292236   L 35.884885,34.292236   L 35.884885,34.329735   L 35.866176,34.329735   L 35.866176,34.348484   L 35.847466,34.367233   L 35.847466,34.385982   L 35.828757,34.385982   L 35.828757,34.404731   L 35.810047,34.404731   L 35.791338,34.42348   L 35.810047,34.42348   L 35.810047,34.44223   L 35.828757,34.44223   L 35.828757,34.460979   L 35.847466,34.460979   L 35.847466,34.479728   L 35.866176,34.479728   L 35.866176,34.498477   L 35.884885,34.498477   L 35.884885,34.535975   L 35.903595,34.535975   L 35.903595,35.098451   L 35.922304,35.098451   L 35.922304,35.135949   L 35.941014,35.135949   L 35.941014,35.154698   L 35.959723,35.154698   L 35.959723,35.173447   L 35.548114,35.173447   L 35.548114,35.154698   L 35.510695,35.154698   L 35.510695,35.135949   L 35.491985,35.135949   L 35.491985,35.1172   L 35.473275,35.1172   L 35.473275,35.079701   L 35.454566,35.079701   L 35.454566,34.42348   L 34.257156,34.42348   L 34.238446,34.42348   z "
     id="path53" />
  <path
     style="fill:#000000;fill-rule:evenodd;fill-opacity:1;stroke:#000000;stroke-width:0.018709533px;stroke-linecap:round;stroke-linejoin:round;stroke-miterlimit:4;stroke-dasharray:none;stroke-opacity:1;"
     d="  M 36.708105,33.561018   L 36.221657,33.561018   L 36.221657,33.542269   L 36.202947,33.542269   L 36.202947,33.52352   L 36.184238,33.52352   L 36.184238,33.504771   L 36.165528,33.486022   L 36.165528,33.279781   L 36.184238,33.279781   L 36.184238,33.242283   L 36.202947,33.242283   L 36.202947,33.223533   L 36.221657,33.204784   L 36.240366,33.204784   L 36.240366,33.186035   L 38.373253,33.186035   L 38.373253,33.204784   L 38.391963,33.204784   L 38.410672,33.223533   L 38.410672,33.242283   L 38.429382,33.242283   L 38.429382,33.261032   L 38.448091,33.279781   L 38.448091,33.617266   L 38.429382,33.617266   L 38.429382,33.598517   L 38.410672,33.598517   L 38.410672,33.579768   L 38.391963,33.579768   L 38.391963,33.561018   L 37.213262,33.561018   L 37.213262,33.579768   L 37.194553,33.579768   L 37.194553,33.617266   L 37.175843,33.617266   L 37.175843,35.1172   L 37.194553,35.1172   L 37.194553,35.154698   L 37.213262,35.154698   L 37.213262,35.173447   L 36.801652,35.173447   L 36.801652,35.154698   L 36.764233,35.154698   L 36.764233,35.135949   L 36.745524,35.135949   L 36.745524,35.1172   L 36.726814,35.1172   L 36.726814,35.079701   L 36.708105,35.079701   L 36.708105,33.598517   L 36.708105,33.561018   z "
     id="path55" />
  <path
     style="fill:#000000;fill-rule:evenodd;fill-opacity:1;stroke:#000000;stroke-width:0.018709533px;stroke-linecap:round;stroke-linejoin:round;stroke-miterlimit:4;stroke-dasharray:none;stroke-opacity:1;"
     d="  M 39.177763,35.060952   L 39.177763,35.135949   L 39.196473,35.135949   L 39.196473,35.154698   L 39.215182,35.173447   L 38.803572,35.173447   L 38.803572,35.154698   L 38.766153,35.154698   L 38.766153,35.135949   L 38.747444,35.135949   L 38.747444,35.1172   L 38.728734,35.1172   L 38.728734,35.079701   L 38.710025,35.079701   L 38.710025,33.242283   L 38.691315,33.242283   L 38.691315,33.204784   L 38.672606,33.204784   L 38.653896,33.186035   L 39.084215,33.186035   L 39.084215,33.204784   L 39.121634,33.204784   L 39.121634,33.223533   L 39.140344,33.223533   L 39.140344,33.242283   L 39.159054,33.242283   L 39.159054,33.279781   L 39.177763,33.279781   L 39.177763,35.042203   L 39.177763,35.060952   z "
     id="path57" />
  <path
     style="fill:#000000;fill-rule:evenodd;fill-opacity:1;stroke:#000000;stroke-width:0.018709533px;stroke-linecap:round;stroke-linejoin:round;stroke-miterlimit:4;stroke-dasharray:none;stroke-opacity:1;"
     d="  M 41.348069,33.561018   L 40.019692,33.561018   L 40.019692,33.579768   L 40.000983,33.579768   L 40.000983,33.598517   L 39.982273,33.598517   L 39.982273,33.617266   L 39.963563,33.636015   L 39.963563,35.098451   L 39.982273,35.098451   L 39.982273,35.135949   L 40.000983,35.135949   L 40.000983,35.154698   L 40.019692,35.154698   L 40.019692,35.173447   L 39.608082,35.173447   L 39.589373,35.154698   L 39.570663,35.154698   L 39.570663,35.135949   L 39.551954,35.135949   L 39.551954,35.1172   L 39.533244,35.1172   L 39.533244,35.079701   L 39.514535,35.079701   L 39.514535,33.279781   L 39.533244,33.279781   L 39.533244,33.242283   L 39.551954,33.242283   L 39.551954,33.223533   L 39.570663,33.223533   L 39.570663,33.204784   L 39.589373,33.204784   L 39.608082,33.186035   L 41.72226,33.186035   L 41.72226,33.204784   L 41.759679,33.204784   L 41.759679,33.223533   L 41.778388,33.223533   L 41.778388,33.261032   L 41.797098,33.261032   L 41.797098,35.098451   L 41.815807,35.098451   L 41.815807,35.135949   L 41.834517,35.135949   L 41.834517,35.154698   L 41.853226,35.154698   L 41.853226,35.173447   L 41.441617,35.173447   L 41.441617,35.154698   L 41.404198,35.154698   L 41.404198,35.135949   L 41.385488,35.135949   L 41.385488,35.1172   L 41.366779,35.1172   L 41.366779,35.079701   L 41.348069,35.079701   L 41.348069,33.598517   L 41.348069,33.561018   z "
     id="path59" />
  <path
     style="fill:#000000;fill-rule:evenodd;fill-opacity:1;stroke:#000000;stroke-width:0.018709533px;stroke-linecap:round;stroke-linejoin:round;stroke-miterlimit:4;stroke-dasharray:none;stroke-opacity:1;"
     d="  M 44.09837,34.029748   L 42.676446,34.029748   L 42.657736,34.010999   L 42.639027,34.010999   L 42.639027,33.992249   L 42.620317,33.992249   L 42.620317,33.954751   L 42.601608,33.954751   L 42.601608,34.348484   L 42.620317,34.348484   L 42.620317,34.367233   L 42.639027,34.385982   L 42.657736,34.385982   L 42.657736,34.404731   L 44.09837,34.404731   L 44.11708,34.385982   L 44.135789,34.385982   L 44.154499,34.367233   L 44.154499,34.348484   L 44.173209,34.329735   L 44.191918,34.329735   L 44.191918,34.310985   L 44.210628,34.292236   L 44.210628,34.273487   L 44.229337,34.254738   L 44.229337,34.142243   L 44.210628,34.123494   L 44.210628,34.104744   L 44.191918,34.104744   L 44.191918,34.085995   L 44.173209,34.067246   L 44.154499,34.067246   L 44.154499,34.048497   L 44.135789,34.048497   L 44.11708,34.029748   L 44.09837,34.029748   z "
     id="path61" />
  <path
     style="fill:#000000;fill-rule:evenodd;fill-opacity:1;stroke:#000000;stroke-width:0.018709533px;stroke-linecap:round;stroke-linejoin:round;stroke-miterlimit:4;stroke-dasharray:none;stroke-opacity:1;"
     d="  M 45.164814,33.561018   L 44.678366,33.561018   L 44.678366,33.542269   L 44.659656,33.542269   L 44.659656,33.52352   L 44.640947,33.52352   L 44.640947,33.504771   L 44.622237,33.486022   L 44.622237,33.279781   L 44.640947,33.279781   L 44.640947,33.242283   L 44.659656,33.242283   L 44.659656,33.223533   L 44.678366,33.204784   L 44.697075,33.204784   L 44.697075,33.186035   L 46.829962,33.186035   L 46.829962,33.204784   L 46.848672,33.204784   L 46.867381,33.223533   L 46.867381,33.242283   L 46.886091,33.242283   L 46.886091,33.261032   L 46.9048,33.279781   L 46.9048,33.617266   L 46.886091,33.617266   L 46.886091,33.598517   L 46.867381,33.598517   L 46.867381,33.579768   L 46.848672,33.579768   L 46.848672,33.561018   L 45.669971,33.561018   L 45.669971,33.579768   L 45.651262,33.579768   L 45.651262,33.617266   L 45.632552,33.617266   L 45.632552,35.1172   L 45.651262,35.1172   L 45.651262,35.154698   L 45.669971,35.154698   L 45.669971,35.173447   L 45.258361,35.173447   L 45.258361,35.154698   L 45.220942,35.154698   L 45.220942,35.135949   L 45.202233,35.135949   L 45.202233,35.1172   L 45.183523,35.1172   L 45.183523,35.079701   L 45.164814,35.079701   L 45.164814,33.598517   L 45.164814,33.561018   z "
     id="path63" />
  <path
     style="fill:#000000;fill-rule:evenodd;fill-opacity:1;stroke:#000000;stroke-width:0.018709533px;stroke-linecap:round;stroke-linejoin:round;stroke-miterlimit:4;stroke-dasharray:none;stroke-opacity:1;"
     d="  M 44.248047,34.798464   L 44.285466,34.798464   L 44.285466,34.779715   L 44.304175,34.779715   L 44.304175,34.760965   L 44.322885,34.760965   L 44.322885,34.742216   L 44.341594,34.742216   L 44.341594,35.079701   L 44.322885,35.098451   L 44.322885,35.1172   L 44.304175,35.1172   L 44.304175,35.135949   L 44.285466,35.154698   L 44.266756,35.154698   L 44.266756,35.173447   L 42.133869,35.173447   L 42.133869,35.154698   L 42.11516,35.154698   L 42.09645,35.135949   L 42.09645,35.1172   L 42.077741,35.1172   L 42.077741,35.079701   L 42.059031,35.079701   L 42.059031,33.279781   L 42.077741,33.279781   L 42.077741,33.242283   L 42.09645,33.242283   L 42.09645,33.223533   L 42.11516,33.204784   L 42.133869,33.204784   L 42.133869,33.186035   L 44.266756,33.186035   L 44.266756,33.204784   L 44.285466,33.204784   L 44.304175,33.223533   L 44.304175,33.242283   L 44.322885,33.242283   L 44.322885,33.261032   L 44.341594,33.279781   L 44.341594,33.617266   L 44.322885,33.617266   L 44.322885,33.598517   L 44.304175,33.598517   L 44.304175,33.579768   L 44.285466,33.579768   L 44.285466,33.561018   L 42.545479,33.561018   L 42.545479,33.579768   L 42.52677,33.579768   L 42.52677,33.617266   L 42.50806,33.617266   L 42.50806,34.798464   L 44.229337,34.798464   L 44.248047,34.798464   z "
     id="path65" />
  <path
     style="fill:#000000;fill-rule:evenodd;fill-opacity:1;stroke:#000000;stroke-width:0.018709533px;stroke-linecap:round;stroke-linejoin:round;stroke-miterlimit:4;stroke-dasharray:none;stroke-opacity:1;"
     d="  M 31.862336,34.592223   L 31.862336,35.173447   L 32.610717,35.173447   L 32.610717,34.592223   L 31.862336,34.592223   z "
     id="path67" />
  <path
     style="fill:#000000;fill-rule:evenodd;fill-opacity:1;stroke:#000000;stroke-width:0.018709533px;stroke-linecap:round;stroke-linejoin:round;stroke-miterlimit:4;stroke-dasharray:none;stroke-opacity:1;"
     d="  M 31.113954,33.898504   L 31.731369,33.898504   L 31.731369,34.460979   L 31.113954,34.460979   L 31.113954,33.898504   z "
     id="path69" />
  <path
     style="fill:#000000;fill-rule:evenodd;fill-opacity:1;stroke:#000000;stroke-width:0.018709533px;stroke-linecap:round;stroke-linejoin:round;stroke-miterlimit:4;stroke-dasharray:none;stroke-opacity:1;"
     d="  M 32.760393,34.592223   L 32.760393,35.173447   L 32.984908,35.173447   L 33.003617,35.154698   L 33.059746,35.154698   L 33.078455,35.135949   L 33.097165,35.135949   L 33.134584,35.1172   L 33.153293,35.1172   L 33.265551,35.004705   L 33.28426,34.967206   L 33.30297,34.948457   L 33.321679,34.910959   L 33.321679,34.89221   L 33.340389,34.854711   L 33.340389,34.817213   L 33.359098,34.779715   L 33.359098,34.723467   L 33.377808,34.685969   L 33.377808,34.592223   L 32.779103,34.592223   L 32.760393,34.592223   z "
     id="path71" />
  <path
     style="fill:#000000;fill-rule:evenodd;fill-opacity:1;stroke:#000000;stroke-width:0.018709533px;stroke-linecap:round;stroke-linejoin:round;stroke-miterlimit:4;stroke-dasharray:none;stroke-opacity:1;"
     d="  M 32.760393,33.898504   L 33.377808,33.898504   L 33.377808,34.460979   L 32.760393,34.460979   L 32.760393,33.898504   z "
     id="path73" />
  <path
     style="fill:#000000;fill-rule:evenodd;fill-opacity:1;stroke:#000000;stroke-width:0.018709533px;stroke-linecap:round;stroke-linejoin:round;stroke-miterlimit:4;stroke-dasharray:none;stroke-opacity:1;"
     d="  M 31.731369,34.592223   L 31.731369,35.173447   L 31.506854,35.173447   L 31.488145,35.154698   L 31.432016,35.154698   L 31.413307,35.135949   L 31.375888,35.135949   L 31.357178,35.1172   L 31.338469,35.1172   L 31.319759,35.098451   L 31.28234,35.079701   L 31.207502,35.004705   L 31.188792,34.967206   L 31.188792,34.948457   L 31.170083,34.910959   L 31.151373,34.89221   L 31.151373,34.854711   L 31.132664,34.817213   L 31.132664,34.779715   L 31.113954,34.723467   L 31.113954,34.592223   L 31.712659,34.592223   L 31.731369,34.592223   z "
     id="path75" />
  <path
     style="fill:#000000;fill-rule:evenodd;fill-opacity:1;stroke:#000000;stroke-width:0.018709533px;stroke-linecap:round;stroke-linejoin:round;stroke-miterlimit:4;stroke-dasharray:none;stroke-opacity:1;"
     d="  M 31.862336,33.186035   L 31.862336,33.767259   L 32.610717,33.767259   L 32.610717,33.186035   L 31.862336,33.186035   z "
     id="path77" />
  <path
     style="fill:#000000;fill-rule:evenodd;fill-opacity:1;stroke:#000000;stroke-width:0.018709533px;stroke-linecap:round;stroke-linejoin:round;stroke-miterlimit:4;stroke-dasharray:none;stroke-opacity:1;"
     d="  M 32.760393,33.767259   L 32.760393,33.186035   L 32.984908,33.186035   L 33.003617,33.204784   L 33.059746,33.204784   L 33.078455,33.223533   L 33.097165,33.223533   L 33.134584,33.242283   L 33.153293,33.242283   L 33.265551,33.354778   L 33.28426,33.392276   L 33.30297,33.411025   L 33.321679,33.448523   L 33.321679,33.467273   L 33.340389,33.504771   L 33.340389,33.542269   L 33.359098,33.579768   L 33.359098,33.636015   L 33.377808,33.673513   L 33.377808,33.767259   L 32.779103,33.767259   L 32.760393,33.767259   z "
     id="path79" />
  <path
     style="fill:#000000;fill-rule:evenodd;fill-opacity:1;stroke:#000000;stroke-width:0.018709533px;stroke-linecap:round;stroke-linejoin:round;stroke-miterlimit:4;stroke-dasharray:none;stroke-opacity:1;"
     d="  M 31.731369,33.767259   L 31.731369,33.186035   L 31.506854,33.186035   L 31.488145,33.204784   L 31.432016,33.204784   L 31.413307,33.223533   L 31.375888,33.223533   L 31.357178,33.242283   L 31.338469,33.242283   L 31.319759,33.261032   L 31.28234,33.279781   L 31.207502,33.354778   L 31.188792,33.392276   L 31.188792,33.411025   L 31.170083,33.448523   L 31.151373,33.467273   L 31.151373,33.504771   L 31.132664,33.542269   L 31.132664,33.579768   L 31.113954,33.636015   L 31.113954,33.767259   L 31.712659,33.767259   L 31.731369,33.767259   z "
     id="path81" />
  <text
     xml:space="preserve"
     style="font-size:2.125000px;font-style:normal;font-variant:normal;font-weight:400;font-stretch:Normal;line-height:125.000000%;letter-spacing:0px;word-spacing:0px;fill:#000000;fill-opacity:1;stroke:none;font-family:Arial;text-align:start;text-anchor:start;"
     transform="matrix(1.000000,-0.000000,0.000000,1.000000,30.028801,38.604546)"
     x="0.000000"
     y="0.000000"
     id="text113"><tspan
       x="0.000000"
       y="0.000000"
       id="tspan111"><tspan
         dx="0.000000"
         dy="0.000000"
         style="fill:#000000;font-size:2.125000px;font-style:normal;font-variant:normal;font-weight:400;font-stretch:Normal;font-family:Arial;"
         id="tspan83">F</tspan><tspan
         dx="0.000000"
         dy="0.000000"
         style="fill:#000000;font-size:2.125000px;font-style:normal;font-variant:normal;font-weight:400;font-stretch:Normal;font-family:Arial;"
         id="tspan85">o</tspan><tspan
         dx="0.000000"
         dy="0.000000"
         style="fill:#000000;font-size:2.125000px;font-style:normal;font-variant:normal;font-weight:400;font-stretch:Normal;font-family:Arial;"
         id="tspan87">r</tspan><tspan
         dx="0.000000"
         dy="0.000000"
         style="fill:#000000;font-size:2.125000px;font-style:normal;font-variant:normal;font-weight:400;font-stretch:Normal;font-family:Arial;"
         id="tspan89">t</tspan><tspan
         dx="0.000000"
         dy="0.000000"
         style="fill:#000000;font-size:2.125000px;font-style:normal;font-variant:normal;font-weight:400;font-stretch:Normal;font-family:Arial;"
         id="tspan91">i</tspan><tspan
         dx="0.000000"
         dy="0.000000"
         style="fill:#000000;font-size:2.125000px;font-style:normal;font-variant:normal;font-weight:400;font-stretch:Normal;font-family:Arial;"
         id="tspan93">A</tspan><tspan
         dx="0.000000"
         dy="0.000000"
         style="fill:#000000;font-size:2.125000px;font-style:normal;font-variant:normal;font-weight:400;font-stretch:Normal;font-family:Arial;"
         id="tspan95">P</tspan><tspan
         dx="0.000000"
         dy="0.000000"
         style="fill:#000000;font-size:2.125000px;font-style:normal;font-variant:normal;font-weight:400;font-stretch:Normal;font-family:Arial;"
         id="tspan97"> </tspan><tspan
         dx="0.000000"
         dy="0.000000"
         style="fill:#000000;font-size:2.125000px;font-style:normal;font-variant:normal;font-weight:400;font-stretch:Normal;font-family:Arial;"
         id="tspan99">U</tspan><tspan
         dx="0.000000"
         dy="0.000000"
         style="fill:#000000;font-size:2.125000px;font-style:normal;font-variant:normal;font-weight:400;font-stretch:Normal;font-family:Arial;"
         id="tspan101">2</tspan><tspan
         dx="0.000000"
         dy="0.000000"
         style="fill:#000000;font-size:2.125000px;font-style:normal;font-variant:normal;font-weight:400;font-stretch:Normal;font-family:Arial;"
         id="tspan103">2</tspan><tspan
         dx="0.000000"
         dy="0.000000"
         style="fill:#000000;font-size:2.125000px;font-style:normal;font-variant:normal;font-weight:400;font-stretch:Normal;font-family:Arial;"
         id="tspan105">1</tspan><tspan
         dx="0.000000"
         dy="0.000000"
         style="fill:#000000;font-size:2.125000px;font-style:normal;font-variant:normal;font-weight:400;font-stretch:Normal;font-family:Arial;"
         id="tspan107">E</tspan><tspan
         dx="0.000000"
         dy="0.000000"
         style="fill:#000000;font-size:2.125000px;font-style:normal;font-variant:normal;font-weight:400;font-stretch:Normal;font-family:Arial;"
         id="tspan109">V</tspan></tspan></text>
  <text
     xml:space="preserve"
     style="font-size:0.687500px;font-style:normal;font-variant:normal;font-weight:400;font-stretch:Condensed;line-height:125.000000%;letter-spacing:0px;word-spacing:0px;fill:#000000;fill-opacity:1;stroke:none;font-family:Times New Roman;text-align:start;text-anchor:start;"
     transform="matrix(1.000000,-0.000000,0.000000,1.000000,30.028801,38.604546)"
     x="16.202456"
     y="-3.449848"
     id="text119"><tspan
       x="16.202456"
       y="-3.449848"
       id="tspan117"><tspan
         dx="0.000000"
         dy="0.000000"
         style="fill:#000000;font-size:0.687500px;font-style:normal;font-variant:normal;font-weight:400;font-stretch:Condensed;font-family:Times New Roman;"
         id="tspan115">®</tspan></tspan></text>
  <path
     style="fill:none;stroke:#000000;stroke-width:0.056128599px;stroke-linecap:round;stroke-linejoin:round;stroke-miterlimit:4;stroke-dasharray:none;stroke-opacity:1;"
     d="  M 28.737843,68.790713   L 29.243001,68.265736   L 28.999777,68.021997   L 28.999777,69.034452   L 29.243001,68.790713   L 28.719134,68.265736  "
     id="path121" />
  <path
     style="fill:none;stroke:#000000;stroke-width:0.018709533px;stroke-linecap:round;stroke-linejoin:round;stroke-miterlimit:4;stroke-dasharray:none;stroke-opacity:1;"
     d="  M 42.657736,68.509476   L 41.422907,68.509476  "
     id="path123" />
  <path
     style="fill:none;stroke:#000000;stroke-width:0.018709533px;stroke-linecap:round;stroke-linejoin:round;stroke-miterlimit:4;stroke-dasharray:none;stroke-opacity:1;"
     d="  M 42.040322,68.340733   L 42.040322,68.528225  "
     id="path125" />
  <path
     style="fill:#0a0a0a;fill-rule:evenodd;fill-opacity:1;stroke:#000000;stroke-width:0.018709533px;stroke-linecap:round;stroke-linejoin:round;stroke-miterlimit:4;stroke-dasharray:none;stroke-opacity:1;"
     d="  M 42.189998,68.040746   L 41.890645,68.040746   L 41.890645,68.340733   L 42.189998,68.340733   L 42.189998,68.040746   z "
     id="path127" />
  <path
     style="fill:none;stroke:#000000;stroke-width:0.018709533px;stroke-linecap:round;stroke-linejoin:round;stroke-miterlimit:4;stroke-dasharray:none;stroke-opacity:1;"
     d="  M 42.395803,68.528225   L 42.395803,68.715717  "
     id="path129" />
  <path
     style="fill:none;stroke:#000000;stroke-width:0.018709533px;stroke-linecap:round;stroke-linejoin:round;stroke-miterlimit:4;stroke-dasharray:none;stroke-opacity:1;"
     d="  M 42.395803,68.528225   L 42.395803,68.715717  "
     id="path131" />
  <path
     style="fill:#0a0a0a;fill-rule:evenodd;fill-opacity:1;stroke:#000000;stroke-width:0.018709533px;stroke-linecap:round;stroke-linejoin:round;stroke-miterlimit:4;stroke-dasharray:none;stroke-opacity:1;"
     d="  M 42.264836,68.715717   L 42.564189,68.715717   L 42.564189,69.015703   L 42.264836,69.015703   L 42.264836,68.715717   z "
     id="path133" />
  <path
     style="fill:none;stroke:#000000;stroke-width:0.018709533px;stroke-linecap:round;stroke-linejoin:round;stroke-miterlimit:4;stroke-dasharray:none;stroke-opacity:1;"
     d="  M 41.647422,68.528225   L 41.647422,68.715717  "
     id="path135" />
  <path
     style="fill:#0a0a0a;fill-rule:evenodd;fill-opacity:1;stroke:#000000;stroke-width:0.018709533px;stroke-linecap:round;stroke-linejoin:round;stroke-miterlimit:4;stroke-dasharray:none;stroke-opacity:1;"
     d="  M 41.815807,68.715717   L 41.516455,68.715717   L 41.516455,69.015703   L 41.815807,69.015703   L 41.815807,68.715717   z "
     id="path137" />
  <path
     style="fill:#000000;fill-rule:evenodd;fill-opacity:1;stroke:#000000;stroke-width:0.018709533px;stroke-linecap:round;stroke-linejoin:round;stroke-miterlimit:4;stroke-dasharray:none;stroke-opacity:1;"
     d="  M 46.53061,68.246987   L 46.549319,68.246987   L 46.549319,68.265736   L 46.568029,68.265736   L 46.586738,68.284486   L 46.605448,68.284486   L 46.661576,68.340733   L 46.661576,68.359482   L 46.680286,68.359482   L 46.680286,68.378231   L 46.698996,68.396981   L 46.698996,68.41573   L 46.717705,68.434479   L 46.717705,68.490726   L 46.736415,68.509476   L 46.736415,68.678218   L 46.717705,68.696967   L 46.717705,68.753215   L 46.698996,68.771964   L 46.698996,68.790713   L 46.680286,68.809462   L 46.680286,68.828212   L 46.661576,68.846961   L 46.661576,68.86571   L 46.642867,68.86571   L 46.624157,68.884459   L 46.624157,68.903208   L 46.605448,68.903208   L 46.549319,68.959456   L 46.5119,68.959456   L 46.493191,68.978205   L 46.455772,68.978205   L 46.437062,68.996954   L 46.249967,68.996954   L 46.231257,68.978205   L 46.193838,68.978205   L 46.175129,68.959456   L 46.13771,68.959456   L 46.081581,68.903208   L 46.062871,68.903208   L 46.062871,68.884459   L 46.044162,68.86571   L 46.025452,68.86571   L 46.025452,68.846961   L 46.006743,68.828212   L 46.006743,68.809462   L 45.988033,68.790713   L 45.988033,68.771964   L 45.969324,68.753215   L 45.969324,68.696967   L 45.950614,68.678218   L 45.950614,68.509476   L 45.969324,68.490726   L 45.969324,68.434479   L 45.988033,68.434479   L 45.988033,68.396981   L 46.006743,68.378231   L 46.006743,68.359482   L 46.025452,68.359482   L 46.025452,68.340733   L 46.044162,68.321984   L 46.044162,68.303235   L 46.062871,68.303235   L 46.10029,68.265736   L 46.10029,68.284486   L 46.119,68.284486   L 46.119,68.303235   L 46.13771,68.303235   L 46.13771,68.321984   L 46.156419,68.321984   L 46.156419,68.340733   L 46.13771,68.340733   L 46.13771,68.359482   L 46.119,68.359482   L 46.062871,68.41573   L 46.062871,68.434479   L 46.044162,68.453228   L 46.044162,68.471977   L 46.025452,68.471977   L 46.025452,68.528225   L 46.006743,68.528225   L 46.006743,68.678218   L 46.025452,68.678218   L 46.025452,68.734466   L 46.062871,68.771964   L 46.062871,68.790713   L 46.081581,68.790713   L 46.081581,68.809462   L 46.119,68.846961   L 46.13771,68.846961   L 46.13771,68.86571   L 46.156419,68.86571   L 46.175129,68.884459   L 46.193838,68.884459   L 46.212548,68.903208   L 46.249967,68.903208   L 46.249967,68.921957   L 46.437062,68.921957   L 46.437062,68.903208   L 46.474481,68.903208   L 46.493191,68.884459   L 46.5119,68.884459   L 46.53061,68.86571   L 46.549319,68.86571   L 46.549319,68.846961   L 46.568029,68.846961   L 46.605448,68.809462   L 46.605448,68.790713   L 46.624157,68.790713   L 46.624157,68.771964   L 46.661576,68.734466   L 46.661576,68.678218   L 46.680286,68.678218   L 46.680286,68.528225   L 46.661576,68.528225   L 46.661576,68.471977   L 46.642867,68.471977   L 46.642867,68.434479   L 46.624157,68.434479   L 46.624157,68.41573   L 46.605448,68.396981   L 46.605448,68.378231   L 46.586738,68.378231   L 46.586738,68.359482   L 46.568029,68.359482   L 46.549319,68.340733   L 46.53061,68.340733   L 46.53061,68.321984   L 46.5119,68.321984   L 46.5119,68.284486   L 46.53061,68.284486   L 46.53061,68.265736   L 46.53061,68.246987   z "
     id="path139" />
  <path
     style="fill:#000000;fill-rule:evenodd;fill-opacity:1;stroke:#000000;stroke-width:0.018709533px;stroke-linecap:round;stroke-linejoin:round;stroke-miterlimit:4;stroke-dasharray:none;stroke-opacity:1;"
     d="  M 46.380933,68.059495   L 46.287386,68.059495   L 46.287386,68.621971   L 46.380933,68.621971   L 46.380933,68.059495   z "
     id="path141" />
  <text
     xml:space="preserve"
     style="font-size:0.687500px;font-style:normal;font-variant:normal;font-weight:400;font-stretch:Normal;line-height:125.000000%;letter-spacing:0px;word-spacing:0px;fill:#000000;fill-opacity:1;stroke:none;font-family:Arial;text-align:start;text-anchor:start;"
     transform="matrix(1.000000,-0.000000,0.000000,1.000000,32.367493,68.696967)"
     x="0.000000"
     y="0.000000"
     id="text155"><tspan
       x="0.000000"
       y="0.000000"
       id="tspan153"><tspan
         dx="0.000000"
         dy="0.000000"
         style="fill:#000000;font-size:0.687500px;font-style:normal;font-variant:normal;font-weight:400;font-stretch:Normal;font-family:Arial;"
         id="tspan143">W</tspan><tspan
         dx="0.000000"
         dy="0.000000"
         style="fill:#000000;font-size:0.687500px;font-style:normal;font-variant:normal;font-weight:400;font-stretch:Normal;font-family:Arial;"
         id="tspan145">i</tspan><tspan
         dx="0.000000"
         dy="0.000000"
         style="fill:#000000;font-size:0.687500px;font-style:normal;font-variant:normal;font-weight:400;font-stretch:Normal;font-family:Arial;"
         id="tspan147">F</tspan><tspan
         dx="0.000000"
         dy="0.000000"
         style="fill:#000000;font-size:0.687500px;font-style:normal;font-variant:normal;font-weight:400;font-stretch:Normal;font-family:Arial;"
         id="tspan149">i</tspan><tspan
         dx="0.000000"
         dy="0.000000"
         style="fill:#000000;font-size:0.687500px;font-style:normal;font-variant:normal;font-weight:400;font-stretch:Normal;font-family:Arial;"
         id="tspan151">2</tspan></tspan></text>
  <text
     xml:space="preserve"
     style="font-size:0.687500px;font-style:normal;font-variant:normal;font-weight:400;font-stretch:Normal;line-height:125.000000%;letter-spacing:0px;word-spacing:0px;fill:#000000;fill-opacity:1;stroke:none;font-family:Arial;text-align:start;text-anchor:start;"
     transform="matrix(1.000000,-0.000000,0.000000,1.000000,32.367493,68.696967)"
     x="4.284483"
     y="0.000000"
     id="text169"><tspan
       x="4.284483"
       y="0.000000"
       id="tspan167"><tspan
         dx="0.000000"
         dy="0.000000"
         style="fill:#000000;font-size:0.687500px;font-style:normal;font-variant:normal;font-weight:400;font-stretch:Normal;font-family:Arial;"
         id="tspan157">W</tspan><tspan
         dx="0.000000"
         dy="0.000000"
         style="fill:#000000;font-size:0.687500px;font-style:normal;font-variant:normal;font-weight:400;font-stretch:Normal;font-family:Arial;"
         id="tspan159">i</tspan><tspan
         dx="0.000000"
         dy="0.000000"
         style="fill:#000000;font-size:0.687500px;font-style:normal;font-variant:normal;font-weight:400;font-stretch:Normal;font-family:Arial;"
         id="tspan161">F</tspan><tspan
         dx="0.000000"
         dy="0.000000"
         style="fill:#000000;font-size:0.687500px;font-style:normal;font-variant:normal;font-weight:400;font-stretch:Normal;font-family:Arial;"
         id="tspan163">i</tspan><tspan
         dx="0.000000"
         dy="0.000000"
         style="fill:#000000;font-size:0.687500px;font-style:normal;font-variant:normal;font-weight:400;font-stretch:Normal;font-family:Arial;"
         id="tspan165">1</tspan></tspan></text>
</svg>
