<?xml version="1.0" encoding="UTF-8" standalone="no"?>
<svg
   version="1.0"
   width="21.52mm"
   height="21.52mm"
   id="svg151"
   xmlns="http://www.w3.org/2000/svg"
   xmlns:svg="http://www.w3.org/2000/svg">
  <defs
     id="defs3">
    <pattern
       id="EMFhbasepattern"
       patternUnits="userSpaceOnUse"
       width="6"
       height="6"
       x="0"
       y="0" />
  </defs>
  <path
     style="fill:#dddddd;fill-rule:evenodd;fill-opacity:1;stroke:#000000;stroke-width:0.093626983px;stroke-linecap:round;stroke-linejoin:round;stroke-miterlimit:4;stroke-dasharray:none;stroke-opacity:1;"
     d="  M 41.139696,67.506602   M 40.521758,67.337742   M 40.87754,67.525364   M 40.87754,67.525364   M 40.128524,67.525364   M 37.413342,67.506602   M 36.795404,67.337742   M 37.151186,67.525364   M 36.40217,67.525364   M 81.155868,18.612159   L 81.137142,17.655284   L 81.062241,16.717171   L 80.949888,15.779058   L 80.78136,14.859708   L 80.57538,13.977882   L 80.33195,13.096056   L 80.032344,12.232992   L 79.695287,11.38869   L 79.320779,10.563151   L 78.927545,9.7563738   L 78.478136,8.9871213   L 77.991276,8.2178687   L 77.466965,7.5049029   L 76.923928,6.7919372   L 76.343441,6.1164959   L 75.725503,5.4785791   L 75.088839,4.8594246   L 74.414725,4.2777947   L 73.70316,3.7336892   L 72.991595,3.208346   L 72.223854,2.7205273   L 71.456112,2.2702331   L 70.65092,1.8762257   L 69.827003,1.5009806   L 68.98436,1.16326   L 68.122992,0.86306384   L 67.242898,0.61915449   L 66.362805,0.41276966   L 65.44526,0.24390935   L 64.50899,0.1313358   L 63.572721,0.056286772   L 62.617725,0.037524515   L 18.575593,0.037524515   L 17.620598,0.056286772   L 16.684328,0.1313358   L 15.748058,0.24390935   L 14.830514,0.41276966   L 13.95042,0.61915449   L 13.070327,0.86306384   L 12.208958,1.16326   L 11.366316,1.5009806   L 10.542398,1.8762257   L 9.7372061,2.2702331   L 8.9694648,2.7205273   L 8.2017236,3.208346   L 7.4901585,3.7336892   L 6.7785935,4.2777947   L 6.1044792,4.8594246   L 5.4678157,5.4785791   L 4.8498776,6.1164959   L 4.2693904,6.7919372   L 3.7263539,7.5049029   L 3.2020428,8.2178687   L 2.7151825,8.9871213   L 2.265773,9.7563738   L 1.8725396,10.563151   L 1.4980317,11.38869   L 1.1609746,12.232992   L 0.86136823,13.096056   L 0.61793808,13.977882   L 0.41195872,14.859708   L 0.24343015,15.779058   L 0.13107777,16.717171   L 0.056176189,17.655284   L 0.037450793,18.612159   L 0.037450793,62.740989   L 0.056176189,63.697864   L 0.13107777,64.635977   L 0.24343015,65.574089   L 0.41195872,66.49344   L 0.61793808,67.375266   L 0.86136823,68.257092   L 1.1609746,69.120156   L 1.4980317,69.964458   L 1.8725396,70.789997   L 2.265773,71.596774   L 2.7151825,72.366027   L 3.2020428,73.135279   L 3.7263539,73.848245   L 4.2693904,74.561211   L 4.8498776,75.236652   L 5.4678157,75.874569   L 6.1044792,76.493723   L 6.7785935,77.075353   L 7.4901585,77.619459   L 8.2017236,78.144802   L 8.9694648,78.63262   L 9.7372061,79.082915   L 10.542398,79.476922   L 11.366316,79.852167   L 12.208958,80.189888   L 13.070327,80.490084   L 13.95042,80.733993   L 14.830514,80.940378   L 15.748058,81.109238   L 16.684328,81.221812   L 17.620598,81.296861   L 18.575593,81.315623   L 62.617725,81.315623   L 63.572721,81.296861   L 64.50899,81.221812   L 65.44526,81.109238   L 66.362805,80.940378   L 67.242898,80.733993   L 68.122992,80.490084   L 68.98436,80.189888   L 69.827003,79.852167   L 70.65092,79.476922   L 71.456112,79.082915   L 72.223854,78.63262   L 72.991595,78.144802   L 73.70316,77.619459   L 74.414725,77.075353   L 75.088839,76.493723   L 75.725503,75.874569   L 76.343441,75.236652   L 76.923928,74.561211   L 77.466965,73.848245   L 77.991276,73.135279   L 78.478136,72.366027   L 78.927545,71.596774   L 79.320779,70.789997   L 79.695287,69.964458   L 80.032344,69.120156   L 80.33195,68.257092   L 80.57538,67.375266   L 80.78136,66.49344   L 80.949888,65.574089   L 81.062241,64.635977   L 81.137142,63.697864   L 81.155868,62.740989   L 81.155868,18.612159   z "
     id="path5" />
  <path
     style="fill:#eaeaea;fill-rule:evenodd;fill-opacity:1;stroke:#eaeaea;stroke-width:0.018725397px;stroke-linecap:round;stroke-linejoin:round;stroke-miterlimit:4;stroke-dasharray:none;stroke-opacity:1;"
     d="  M 79.957442,19.268838   L 79.938717,18.349488   L 79.863815,17.430137   L 79.751463,16.529549   L 79.582934,15.647723   L 79.39568,14.765897   L 79.15225,13.921595   L 78.871369,13.077293   L 78.553038,12.251754   L 78.17853,11.463739   L 77.785296,10.675724   L 77.354612,9.9252341   L 76.886477,9.1935061   L 76.380892,8.4993026   L 75.85658,7.8050991   L 75.294819,7.1671823   L 74.695606,6.5292656   L 74.058942,5.9288733   L 73.422279,5.3660056   L 72.729439,4.8406624   L 72.0366,4.3340814   L 71.306309,3.865025   L 70.557293,3.4334931   L 69.770827,3.0394857   L 68.98436,2.6642405   L 68.160443,2.3452822   L 67.3178,2.0638483   L 66.475157,1.819939   L 65.595063,1.6323164   L 64.71497,1.4634561   L 63.816151,1.3508825   L 62.898606,1.2758335   L 61.981062,1.2570712   L 19.230982,1.2570712   L 18.313438,1.2758335   L 17.395893,1.3508825   L 16.497074,1.4634561   L 15.616981,1.6323164   L 14.736887,1.819939   L 13.894244,2.0638483   L 13.051601,2.3452822   L 12.227684,2.6642405   L 11.441217,3.0394857   L 10.654751,3.4334931   L 9.9057347,3.865025   L 9.1754442,4.3340814   L 8.4826045,4.8406624   L 7.7897649,5.3660056   L 7.1531014,5.9288733   L 6.5164379,6.5292656   L 5.9172252,7.1671823   L 5.3554633,7.8050991   L 4.8311523,8.4993026   L 4.3255665,9.1935061   L 3.8574316,9.9252341   L 3.4267475,10.675724   L 3.0335142,11.463739   L 2.6590063,12.251754   L 2.3406745,13.077293   L 2.0597936,13.921595   L 1.8163634,14.765897   L 1.6291095,15.647723   L 1.4605809,16.529549   L 1.3482285,17.430137   L 1.2733269,18.349488   L 1.2546016,19.268838   L 1.2546016,62.103072   L 1.2733269,63.022422   L 1.3482285,63.941773   L 1.4605809,64.842361   L 1.6291095,65.724187   L 1.8163634,66.606014   L 2.0597936,67.450315   L 2.3406745,68.294617   L 2.6590063,69.120156   L 3.0335142,69.908171   L 3.4267475,70.696186   L 3.8574316,71.446676   L 4.3255665,72.178404   L 4.8311523,72.872607   L 5.3554633,73.566811   L 5.9172252,74.204728   L 6.5164379,74.842645   L 7.1531014,75.443037   L 7.7897649,76.005904   L 8.4826045,76.531248   L 9.1754442,77.037829   L 9.9057347,77.506885   L 10.654751,77.938417   L 11.441217,78.332424   L 12.227684,78.70767   L 13.051601,79.026628   L 13.894244,79.308062   L 14.736887,79.551971   L 15.616981,79.739594   L 16.497074,79.908454   L 17.395893,80.021028   L 18.313438,80.096077   L 19.230982,80.114839   L 61.981062,80.114839   L 62.898606,80.096077   L 63.816151,80.021028   L 64.71497,79.908454   L 65.595063,79.739594   L 66.475157,79.551971   L 67.3178,79.308062   L 68.160443,79.026628   L 68.98436,78.70767   L 69.770827,78.332424   L 70.557293,77.938417   L 71.306309,77.506885   L 72.0366,77.037829   L 72.729439,76.531248   L 73.422279,76.005904   L 74.058942,75.443037   L 74.695606,74.842645   L 75.294819,74.204728   L 75.85658,73.566811   L 76.380892,72.872607   L 76.886477,72.178404   L 77.354612,71.446676   L 77.785296,70.696186   L 78.17853,69.908171   L 78.553038,69.120156   L 78.871369,68.294617   L 79.15225,67.450315   L 79.39568,66.606014   L 79.582934,65.724187   L 79.751463,64.842361   L 79.863815,63.941773   L 79.938717,63.022422   L 79.957442,62.103072   L 79.957442,19.268838   z "
     id="path7" />
  <path
     style="fill:#efefef;fill-rule:evenodd;fill-opacity:1;stroke:#efefef;stroke-width:0.018725397px;stroke-linecap:round;stroke-linejoin:round;stroke-miterlimit:4;stroke-dasharray:none;stroke-opacity:1;"
     d="  M 77.991276,20.338287   L 77.97255,19.456461   L 77.897649,18.593397   L 77.785296,17.730333   L 77.635493,16.886032   L 77.448239,16.060492   L 77.223534,15.253715   L 76.961379,14.446938   L 76.643047,13.677686   L 76.30599,12.908433   L 75.931482,12.176705   L 75.519523,11.463739   L 75.070114,10.769536   L 74.601979,10.094094   L 74.096393,9.4561777   L 73.553357,8.8370232   L 72.991595,8.236631   L 72.392382,7.6737633   L 71.774444,7.1296578   L 71.137781,6.6230768   L 70.463666,6.1540204   L 69.770827,5.7037262   L 69.059262,5.2909566   L 68.328971,4.9157114   L 67.56123,4.5779908   L 66.793489,4.2590324   L 65.988297,3.9963608   L 65.183105,3.7712137   L 64.359187,3.5835912   L 63.516544,3.4334931   L 62.655176,3.3209195   L 61.793808,3.2458705   L 60.913714,3.2271083   L 20.29833,3.2271083   L 19.418236,3.2458705   L 18.556868,3.3209195   L 17.6955,3.4334931   L 16.852857,3.5835912   L 16.028939,3.7712137   L 15.223747,3.9963608   L 14.418555,4.2590324   L 13.650814,4.5779908   L 12.883073,4.9157114   L 12.152782,5.2909566   L 11.441217,5.7037262   L 10.748377,6.1540204   L 10.074263,6.6230768   L 9.4375997,7.1296578   L 8.8196617,7.6737633   L 8.220449,8.236631   L 7.6586871,8.8370232   L 7.1156506,9.4561777   L 6.6100649,10.094094   L 6.14193,10.769536   L 5.6925205,11.463739   L 5.2805618,12.176705   L 4.9060538,12.908433   L 4.5689967,13.677686   L 4.250665,14.446938   L 3.9885094,15.253715   L 3.7638047,16.060492   L 3.5765507,16.886032   L 3.4267475,17.730333   L 3.3143951,18.593397   L 3.2394936,19.456461   L 3.2207682,20.338287   L 3.2207682,61.033623   L 3.2394936,61.915449   L 3.3143951,62.778513   L 3.4267475,63.641577   L 3.5765507,64.485878   L 3.7638047,65.311418   L 3.9885094,66.118195   L 4.250665,66.924972   L 4.5689967,67.694224   L 4.9060538,68.463477   L 5.2805618,69.195205   L 5.6925205,69.908171   L 6.14193,70.602374   L 6.6100649,71.277816   L 7.1156506,71.915732   L 7.6586871,72.534887   L 8.220449,73.135279   L 8.8196617,73.698147   L 9.4375997,74.242252   L 10.074263,74.748833   L 10.748377,75.21789   L 11.441217,75.668184   L 12.152782,76.080953   L 12.883073,76.456199   L 13.650814,76.793919   L 14.418555,77.112878   L 15.223747,77.375549   L 16.028939,77.600696   L 16.852857,77.788319   L 17.6955,77.938417   L 18.556868,78.050991   L 19.418236,78.12604   L 20.29833,78.144802   L 60.913714,78.144802   L 61.793808,78.12604   L 62.655176,78.050991   L 63.516544,77.938417   L 64.359187,77.788319   L 65.183105,77.600696   L 65.988297,77.375549   L 66.793489,77.112878   L 67.56123,76.793919   L 68.328971,76.456199   L 69.059262,76.080953   L 69.770827,75.668184   L 70.463666,75.21789   L 71.137781,74.748833   L 71.774444,74.242252   L 72.392382,73.698147   L 72.991595,73.135279   L 73.553357,72.534887   L 74.096393,71.915732   L 74.601979,71.277816   L 75.070114,70.602374   L 75.519523,69.908171   L 75.931482,69.195205   L 76.30599,68.463477   L 76.643047,67.694224   L 76.961379,66.924972   L 77.223534,66.118195   L 77.448239,65.311418   L 77.635493,64.485878   L 77.785296,63.641577   L 77.897649,62.778513   L 77.97255,61.915449   L 77.991276,61.033623   L 77.991276,20.338287   z "
     id="path9" />
  <path
     style="fill:#f7f7f7;fill-rule:evenodd;fill-opacity:1;stroke:#f7f7f7;stroke-width:0.018725397px;stroke-linecap:round;stroke-linejoin:round;stroke-miterlimit:4;stroke-dasharray:none;stroke-opacity:1;"
     d="  M 73.70316,22.664807   L 73.684435,21.876792   L 73.628258,21.10754   L 73.534631,20.357049   L 73.403554,19.606559   L 73.235025,18.874831   L 73.029046,18.161865   L 72.785615,17.448899   L 72.52346,16.773458   L 72.205128,16.098017   L 71.886796,15.441338   L 71.512289,14.803421   L 71.119055,14.203029   L 70.707096,13.602637   L 70.257687,13.039769   L 69.770827,12.476901   L 69.283966,11.951558   L 68.759655,11.463739   L 68.197893,10.975921   L 67.636132,10.525626   L 67.036919,10.112857   L 66.437706,9.7188493   L 65.801043,9.3436042   L 65.145654,9.0246458   L 64.47154,8.7056874   L 63.797425,8.4430158   L 63.08586,8.1991065   L 62.374295,7.9927216   L 61.644005,7.8238613   L 60.894989,7.6925255   L 60.145973,7.5987142   L 59.378232,7.5424274   L 58.591765,7.5236652   L 22.620279,7.5236652   L 21.833812,7.5424274   L 21.066071,7.5987142   L 20.317055,7.6925255   L 19.568039,7.8238613   L 18.837749,7.9927216   L 18.126184,8.1991065   L 17.414619,8.4430158   L 16.740504,8.7056874   L 16.06639,9.0246458   L 15.411001,9.3436042   L 14.774338,9.7188493   L 14.175125,10.112857   L 13.575912,10.525626   L 13.01415,10.975921   L 12.452389,11.463739   L 11.928077,11.951558   L 11.441217,12.476901   L 10.954357,13.039769   L 10.504947,13.602637   L 10.092989,14.203029   L 9.6997553,14.803421   L 9.3252474,15.441338   L 9.0069156,16.098017   L 8.6885839,16.773458   L 8.4264283,17.448899   L 8.1829982,18.161865   L 7.9770188,18.874831   L 7.8084903,19.606559   L 7.6774125,20.357049   L 7.5837855,21.10754   L 7.5276093,21.876792   L 7.5088839,22.664807   L 7.5088839,58.707103   L 7.5276093,59.495118   L 7.5837855,60.264371   L 7.6774125,61.014861   L 7.8084903,61.765351   L 7.9770188,62.497079   L 8.1829982,63.210045   L 8.4264283,63.923011   L 8.6885839,64.598452   L 9.0069156,65.273893   L 9.3252474,65.930572   L 9.6997553,66.568489   L 10.092989,67.168881   L 10.504947,67.769273   L 10.954357,68.332141   L 11.441217,68.895009   L 11.928077,69.420352   L 12.452389,69.908171   L 13.01415,70.39599   L 13.575912,70.846284   L 14.175125,71.259053   L 14.774338,71.653061   L 15.411001,72.028306   L 16.06639,72.347264   L 16.740504,72.666223   L 17.414619,72.928894   L 18.126184,73.172804   L 18.837749,73.379188   L 19.568039,73.548049   L 20.317055,73.679385   L 21.066071,73.773196   L 21.833812,73.829483   L 22.620279,73.848245   L 58.591765,73.848245   L 59.378232,73.829483   L 60.145973,73.773196   L 60.894989,73.679385   L 61.644005,73.548049   L 62.374295,73.379188   L 63.08586,73.172804   L 63.797425,72.928894   L 64.47154,72.666223   L 65.145654,72.347264   L 65.801043,72.028306   L 66.437706,71.653061   L 67.036919,71.259053   L 67.636132,70.846284   L 68.197893,70.39599   L 68.759655,69.908171   L 69.283966,69.420352   L 69.770827,68.895009   L 70.257687,68.332141   L 70.707096,67.769273   L 71.119055,67.168881   L 71.512289,66.568489   L 71.886796,65.930572   L 72.205128,65.273893   L 72.52346,64.598452   L 72.785615,63.923011   L 73.029046,63.210045   L 73.235025,62.497079   L 73.403554,61.765351   L 73.534631,61.014861   L 73.628258,60.264371   L 73.684435,59.495118   L 73.70316,58.707103   L 73.70316,22.664807   z "
     id="path11" />
  <path
     style="fill:#000000;fill-rule:evenodd;fill-opacity:1;stroke:#000000;stroke-width:0.018725397px;stroke-linecap:round;stroke-linejoin:round;stroke-miterlimit:4;stroke-dasharray:none;stroke-opacity:1;"
     d="  M 29.679753,39.532076   L 29.642302,39.532076   L 29.642302,39.513314   L 29.623577,39.513314   L 29.623577,39.494552   L 29.604852,39.494552   L 29.604852,39.475789   L 29.586126,39.457027   L 29.586126,39.419503   L 29.567401,39.419503   L 29.567401,37.243081   L 29.586126,37.243081   L 29.586126,37.205556   L 29.604852,37.186794   L 29.604852,37.168032   L 29.623577,37.168032   L 29.623577,37.14927   L 29.642302,37.14927   L 29.642302,37.130507   L 32.226407,37.130507   L 32.226407,37.14927   L 32.245132,37.14927   L 32.245132,37.168032   L 32.263858,37.168032   L 32.263858,37.186794   L 32.282583,37.205556   L 32.282583,37.243081   L 32.301309,37.243081   L 32.301309,37.674613   L 32.282583,37.674613   L 32.282583,37.637088   L 32.245132,37.599564   L 32.226407,37.599564   L 32.226407,37.580801   L 30.166613,37.580801   L 30.166613,37.599564   L 30.147888,37.599564   L 30.147888,37.618326   L 30.129163,37.618326   L 30.129163,37.65585   L 30.110437,37.65585   L 30.110437,39.438265   L 30.129163,39.438265   L 30.129163,39.475789   L 30.147888,39.494552   L 30.147888,39.513314   L 30.166613,39.513314   L 30.166613,39.532076   L 29.698479,39.532076   L 29.679753,39.532076   z "
     id="path13" />
  <path
     style="fill:#000000;fill-rule:evenodd;fill-opacity:1;stroke:#000000;stroke-width:0.018725397px;stroke-linecap:round;stroke-linejoin:round;stroke-miterlimit:4;stroke-dasharray:none;stroke-opacity:1;"
     d="  M 32.114055,38.162431   L 30.278966,38.162431   L 30.278966,38.143669   L 30.241515,38.143669   L 30.241515,38.124907   L 30.22279,38.124907   L 30.22279,38.106145   L 30.204064,38.087382   L 30.204064,38.06862   L 30.185339,38.049858   L 30.185339,38.537677   L 30.204064,38.537677   L 30.204064,38.556439   L 30.22279,38.575201   L 30.241515,38.575201   L 30.241515,38.593963   L 30.26024,38.593963   L 30.278966,38.612726   L 32.170231,38.612726   L 32.282583,38.500152   L 32.282583,38.48139   L 32.301309,38.462628   L 32.301309,38.312529   L 32.282583,38.293767   L 32.282583,38.275005   L 32.245132,38.23748   L 32.245132,38.218718   L 32.226407,38.218718   L 32.188956,38.181194   L 32.151505,38.181194   L 32.13278,38.162431   L 32.114055,38.162431   z "
     id="path15" />
  <path
     style="fill:#000000;fill-rule:evenodd;fill-opacity:1;stroke:#000000;stroke-width:0.018725397px;stroke-linecap:round;stroke-linejoin:round;stroke-miterlimit:4;stroke-dasharray:none;stroke-opacity:1;"
     d="  M 36.420896,38.631488   L 36.40217,38.631488   L 36.40217,38.612726   L 36.383445,38.612726   L 36.36472,38.593963   L 36.36472,38.575201   L 36.345994,38.575201   L 36.345994,38.537677   L 36.327269,38.537677   L 36.327269,38.06862   L 36.345994,38.06862   L 36.345994,38.087382   L 36.36472,38.087382   L 36.36472,38.106145   L 36.383445,38.106145   L 36.383445,38.124907   L 37.881477,38.124907   L 37.881477,37.580801   L 36.289818,37.580801   L 36.289818,37.599564   L 36.271093,37.599564   L 36.271093,37.618326   L 36.252367,37.618326   L 36.252367,37.637088   L 36.233642,37.637088   L 36.233642,37.674613   L 36.214916,37.674613   L 36.214916,39.419503   L 36.233642,39.438265   L 36.233642,39.457027   L 36.252367,39.475789   L 36.252367,39.494552   L 36.271093,39.494552   L 36.271093,39.513314   L 36.289818,39.513314   L 36.289818,39.532076   L 35.784232,39.532076   L 35.784232,39.513314   L 35.765507,39.513314   L 35.690605,39.438265   L 35.690605,39.419503   L 35.67188,39.40074   L 35.67188,37.261843   L 35.690605,37.243081   L 35.690605,37.224319   L 35.765507,37.14927   L 35.784232,37.14927   L 35.784232,37.130507   L 38.330886,37.130507   L 38.330886,37.14927   L 38.349612,37.14927   L 38.368337,37.168032   L 38.387062,37.168032   L 38.387062,37.205556   L 38.405788,37.205556   L 38.405788,37.243081   L 38.424513,37.243081   L 38.424513,38.462628   L 38.405788,38.462628   L 38.405788,38.500152   L 38.387062,38.500152   L 38.387062,38.537677   L 38.368337,38.537677   L 38.368337,38.556439   L 38.349612,38.556439   L 38.349612,38.575201   L 38.330886,38.575201   L 38.330886,38.593963   L 38.312161,38.593963   L 38.312161,38.612726   L 38.293435,38.631488   L 38.312161,38.631488   L 38.312161,38.65025   L 38.330886,38.65025   L 38.330886,38.669012   L 38.349612,38.669012   L 38.349612,38.687775   L 38.368337,38.687775   L 38.368337,38.706537   L 38.387062,38.706537   L 38.387062,38.725299   L 38.405788,38.744061   L 38.405788,38.762824   L 38.424513,38.781586   L 38.424513,39.438265   L 38.443239,39.438265   L 38.443239,39.475789   L 38.461964,39.475789   L 38.461964,39.513314   L 38.480689,39.513314   L 38.480689,39.532076   L 37.993829,39.532076   L 37.993829,39.513314   L 37.975104,39.513314   L 37.900202,39.438265   L 37.900202,39.419503   L 37.881477,39.40074   L 37.881477,38.631488   L 36.439621,38.631488   L 36.420896,38.631488   z "
     id="path17" />
  <path
     style="fill:#000000;fill-rule:evenodd;fill-opacity:1;stroke:#000000;stroke-width:0.018725397px;stroke-linecap:round;stroke-linejoin:round;stroke-miterlimit:4;stroke-dasharray:none;stroke-opacity:1;"
     d="  M 39.398234,37.580801   L 38.817747,37.580801   L 38.799021,37.562039   L 38.780296,37.562039   L 38.780296,37.543277   L 38.76157,37.543277   L 38.76157,37.505752   L 38.742845,37.505752   L 38.742845,37.243081   L 38.76157,37.243081   L 38.76157,37.205556   L 38.780296,37.186794   L 38.780296,37.168032   L 38.799021,37.168032   L 38.799021,37.14927   L 38.817747,37.14927   L 38.817747,37.130507   L 41.401851,37.130507   L 41.401851,37.14927   L 41.420577,37.14927   L 41.420577,37.168032   L 41.439302,37.168032   L 41.439302,37.186794   L 41.458027,37.205556   L 41.458027,37.243081   L 41.476753,37.243081   L 41.476753,37.674613   L 41.458027,37.674613   L 41.458027,37.637088   L 41.420577,37.599564   L 41.401851,37.599564   L 41.401851,37.580801   L 40.016172,37.580801   L 40.016172,37.599564   L 39.997447,37.599564   L 39.997447,37.618326   L 39.978721,37.618326   L 39.978721,37.65585   L 39.959996,37.65585   L 39.959996,39.457027   L 39.978721,39.457027   L 39.978721,39.513314   L 39.997447,39.513314   L 39.997447,39.532076   L 39.491861,39.532076   L 39.491861,39.513314   L 39.473135,39.513314   L 39.473135,39.494552   L 39.45441,39.494552   L 39.435685,39.475789   L 39.435685,39.457027   L 39.416959,39.457027   L 39.416959,39.419503   L 39.398234,39.419503   L 39.398234,37.637088   L 39.398234,37.580801   z "
     id="path19" />
  <path
     style="fill:#000000;fill-rule:evenodd;fill-opacity:1;stroke:#000000;stroke-width:0.018725397px;stroke-linecap:round;stroke-linejoin:round;stroke-miterlimit:4;stroke-dasharray:none;stroke-opacity:1;"
     d="  M 42.356846,39.381978   L 42.356846,39.475789   L 42.375572,39.494552   L 42.375572,39.513314   L 42.394297,39.532076   L 41.888712,39.532076   L 41.888712,39.513314   L 41.869986,39.513314   L 41.869986,39.494552   L 41.851261,39.494552   L 41.832535,39.475789   L 41.832535,39.457027   L 41.81381,39.457027   L 41.81381,39.419503   L 41.795085,39.419503   L 41.795085,37.224319   L 41.776359,37.224319   L 41.776359,37.186794   L 41.757634,37.186794   L 41.757634,37.14927   L 41.738908,37.14927   L 41.738908,37.130507   L 42.225769,37.130507   L 42.244494,37.14927   L 42.263219,37.14927   L 42.263219,37.168032   L 42.281945,37.168032   L 42.319396,37.205556   L 42.319396,37.224319   L 42.338121,37.224319   L 42.338121,37.243081   L 42.356846,37.261843   L 42.356846,39.363216   L 42.356846,39.381978   z "
     id="path21" />
  <path
     style="fill:#000000;fill-rule:evenodd;fill-opacity:1;stroke:#000000;stroke-width:0.018725397px;stroke-linecap:round;stroke-linejoin:round;stroke-miterlimit:4;stroke-dasharray:none;stroke-opacity:1;"
     d="  M 44.959677,37.580801   L 43.368018,37.580801   L 43.368018,37.599564   L 43.349292,37.599564   L 43.349292,37.618326   L 43.330567,37.618326   L 43.330567,37.637088   L 43.311842,37.637088   L 43.311842,37.674613   L 43.293116,37.674613   L 43.293116,39.419503   L 43.311842,39.438265   L 43.311842,39.457027   L 43.330567,39.475789   L 43.330567,39.494552   L 43.349292,39.494552   L 43.349292,39.513314   L 43.368018,39.513314   L 43.368018,39.532076   L 42.862432,39.532076   L 42.862432,39.513314   L 42.843707,39.513314   L 42.768805,39.438265   L 42.768805,39.419503   L 42.75008,39.40074   L 42.75008,37.261843   L 42.768805,37.243081   L 42.768805,37.224319   L 42.843707,37.14927   L 42.862432,37.14927   L 42.862432,37.130507   L 45.409086,37.130507   L 45.409086,37.14927   L 45.427811,37.14927   L 45.446537,37.168032   L 45.465262,37.168032   L 45.465262,37.205556   L 45.483988,37.205556   L 45.483988,37.243081   L 45.502713,37.243081   L 45.502713,39.438265   L 45.521438,39.438265   L 45.521438,39.475789   L 45.540164,39.475789   L 45.540164,39.513314   L 45.558889,39.513314   L 45.558889,39.532076   L 45.072029,39.532076   L 45.072029,39.513314   L 45.053304,39.513314   L 44.978402,39.438265   L 44.978402,39.419503   L 44.959677,39.40074   L 44.959677,37.637088   L 44.959677,37.580801   z "
     id="path23" />
  <path
     style="fill:#000000;fill-rule:evenodd;fill-opacity:1;stroke:#000000;stroke-width:0.018725397px;stroke-linecap:round;stroke-linejoin:round;stroke-miterlimit:4;stroke-dasharray:none;stroke-opacity:1;"
     d="  M 48.255346,38.162431   L 46.551335,38.162431   L 46.53261,38.143669   L 46.513884,38.143669   L 46.513884,38.124907   L 46.495159,38.124907   L 46.495159,38.106145   L 46.476434,38.087382   L 46.476434,38.06862   L 46.457708,38.049858   L 46.457708,38.537677   L 46.476434,38.537677   L 46.476434,38.556439   L 46.513884,38.593963   L 46.53261,38.593963   L 46.53261,38.612726   L 48.255346,38.612726   L 48.330248,38.537677   L 48.348973,38.537677   L 48.367699,38.518914   L 48.367699,38.500152   L 48.386424,38.48139   L 48.386424,38.462628   L 48.405149,38.443865   L 48.405149,38.406341   L 48.423875,38.387579   L 48.423875,38.331292   L 48.405149,38.312529   L 48.405149,38.275005   L 48.386424,38.256243   L 48.386424,38.23748   L 48.367699,38.218718   L 48.348973,38.218718   L 48.348973,38.199956   L 48.330248,38.199956   L 48.311523,38.181194   L 48.292797,38.181194   L 48.274072,38.162431   L 48.255346,38.162431   z "
     id="path25" />
  <path
     style="fill:#000000;fill-rule:evenodd;fill-opacity:1;stroke:#000000;stroke-width:0.018725397px;stroke-linecap:round;stroke-linejoin:round;stroke-miterlimit:4;stroke-dasharray:none;stroke-opacity:1;"
     d="  M 49.547399,37.580801   L 48.966911,37.580801   L 48.948186,37.562039   L 48.929461,37.562039   L 48.929461,37.543277   L 48.910735,37.543277   L 48.910735,37.505752   L 48.89201,37.505752   L 48.89201,37.243081   L 48.910735,37.243081   L 48.910735,37.205556   L 48.929461,37.186794   L 48.929461,37.168032   L 48.948186,37.168032   L 48.948186,37.14927   L 48.966911,37.14927   L 48.966911,37.130507   L 51.551016,37.130507   L 51.551016,37.14927   L 51.569741,37.14927   L 51.569741,37.168032   L 51.588467,37.168032   L 51.588467,37.186794   L 51.607192,37.205556   L 51.607192,37.243081   L 51.625918,37.243081   L 51.625918,37.674613   L 51.607192,37.674613   L 51.607192,37.637088   L 51.569741,37.599564   L 51.551016,37.599564   L 51.551016,37.580801   L 50.165337,37.580801   L 50.165337,37.599564   L 50.146611,37.599564   L 50.146611,37.618326   L 50.127886,37.618326   L 50.127886,37.65585   L 50.109161,37.65585   L 50.109161,39.457027   L 50.127886,39.457027   L 50.127886,39.513314   L 50.146611,39.513314   L 50.146611,39.532076   L 49.641026,39.532076   L 49.641026,39.513314   L 49.6223,39.513314   L 49.6223,39.494552   L 49.603575,39.494552   L 49.584849,39.475789   L 49.584849,39.457027   L 49.566124,39.457027   L 49.566124,39.419503   L 49.547399,39.419503   L 49.547399,37.637088   L 49.547399,37.580801   z "
     id="path27" />
  <path
     style="fill:#000000;fill-rule:evenodd;fill-opacity:1;stroke:#000000;stroke-width:0.018725397px;stroke-linecap:round;stroke-linejoin:round;stroke-miterlimit:4;stroke-dasharray:none;stroke-opacity:1;"
     d="  M 48.4426,39.081782   L 48.480051,39.081782   L 48.480051,39.06302   L 48.498776,39.06302   L 48.536227,39.025495   L 48.536227,38.987971   L 48.554953,38.987971   L 48.554953,39.419503   L 48.536227,39.419503   L 48.536227,39.457027   L 48.517502,39.475789   L 48.517502,39.494552   L 48.498776,39.494552   L 48.498776,39.513314   L 48.480051,39.513314   L 48.480051,39.532076   L 45.895946,39.532076   L 45.895946,39.513314   L 45.877221,39.513314   L 45.877221,39.494552   L 45.858496,39.494552   L 45.858496,39.475789   L 45.83977,39.457027   L 45.83977,39.419503   L 45.821045,39.419503   L 45.821045,37.243081   L 45.83977,37.243081   L 45.83977,37.205556   L 45.858496,37.186794   L 45.858496,37.168032   L 45.877221,37.168032   L 45.877221,37.14927   L 45.895946,37.14927   L 45.895946,37.130507   L 48.480051,37.130507   L 48.480051,37.14927   L 48.498776,37.14927   L 48.498776,37.168032   L 48.517502,37.168032   L 48.517502,37.186794   L 48.536227,37.205556   L 48.536227,37.243081   L 48.554953,37.243081   L 48.554953,37.674613   L 48.536227,37.674613   L 48.536227,37.637088   L 48.498776,37.599564   L 48.480051,37.599564   L 48.480051,37.580801   L 46.420257,37.580801   L 46.420257,37.599564   L 46.401532,37.599564   L 46.401532,37.618326   L 46.382807,37.618326   L 46.382807,37.65585   L 46.364081,37.65585   L 46.364081,39.081782   L 48.423875,39.081782   L 48.4426,39.081782   z "
     id="path29" />
  <path
     style="fill:#000000;fill-rule:evenodd;fill-opacity:1;stroke:#000000;stroke-width:0.018725397px;stroke-linecap:round;stroke-linejoin:round;stroke-miterlimit:4;stroke-dasharray:none;stroke-opacity:1;"
     d="  M 33.55591,38.81911   L 33.55591,39.513314   L 34.454729,39.513314   L 34.454729,38.81911   L 33.55591,38.81911   z "
     id="path31" />
  <path
     style="fill:#000000;fill-rule:evenodd;fill-opacity:1;stroke:#000000;stroke-width:0.018725397px;stroke-linecap:round;stroke-linejoin:round;stroke-miterlimit:4;stroke-dasharray:none;stroke-opacity:1;"
     d="  M 32.675817,37.993571   L 33.406107,37.993571   L 33.406107,38.669012   L 32.675817,38.669012   L 32.675817,37.993571   z "
     id="path33" />
  <path
     style="fill:#000000;fill-rule:evenodd;fill-opacity:1;stroke:#000000;stroke-width:0.018725397px;stroke-linecap:round;stroke-linejoin:round;stroke-miterlimit:4;stroke-dasharray:none;stroke-opacity:1;"
     d="  M 34.641983,38.837873   L 34.641983,39.532076   L 34.904139,39.532076   L 34.94159,39.513314   L 34.960315,39.513314   L 34.997766,39.494552   L 35.016491,39.494552   L 35.053942,39.475789   L 35.072667,39.475789   L 35.110118,39.457027   L 35.128843,39.438265   L 35.166294,39.419503   L 35.203745,39.381978   L 35.22247,39.344454   L 35.241196,39.325691   L 35.259921,39.288167   L 35.278647,39.269405   L 35.316097,39.194356   L 35.334823,39.138069   L 35.334823,39.100544   L 35.353548,39.06302   L 35.353548,39.006733   L 35.372274,38.950446   L 35.372274,38.837873   L 34.660709,38.837873   L 34.641983,38.837873   z "
     id="path35" />
  <path
     style="fill:#000000;fill-rule:evenodd;fill-opacity:1;stroke:#000000;stroke-width:0.018725397px;stroke-linecap:round;stroke-linejoin:round;stroke-miterlimit:4;stroke-dasharray:none;stroke-opacity:1;"
     d="  M 34.641983,37.993571   L 35.372274,37.993571   L 35.372274,38.669012   L 34.641983,38.669012   L 34.641983,37.993571   z "
     id="path37" />
  <path
     style="fill:#000000;fill-rule:evenodd;fill-opacity:1;stroke:#000000;stroke-width:0.018725397px;stroke-linecap:round;stroke-linejoin:round;stroke-miterlimit:4;stroke-dasharray:none;stroke-opacity:1;"
     d="  M 33.406107,38.837873   L 33.406107,39.532076   L 33.143951,39.532076   L 33.106501,39.513314   L 33.087775,39.513314   L 33.050325,39.494552   L 33.012874,39.494552   L 32.994148,39.475789   L 32.956698,39.475789   L 32.937972,39.457027   L 32.900521,39.438265   L 32.863071,39.40074   L 32.82562,39.381978   L 32.806894,39.344454   L 32.788169,39.325691   L 32.769444,39.288167   L 32.750718,39.269405   L 32.731993,39.23188   L 32.731993,39.194356   L 32.713267,39.138069   L 32.694542,39.100544   L 32.694542,39.006733   L 32.675817,38.950446   L 32.675817,38.837873   L 33.387382,38.837873   L 33.406107,38.837873   z "
     id="path39" />
  <path
     style="fill:#000000;fill-rule:evenodd;fill-opacity:1;stroke:#000000;stroke-width:0.018725397px;stroke-linecap:round;stroke-linejoin:round;stroke-miterlimit:4;stroke-dasharray:none;stroke-opacity:1;"
     d="  M 33.55591,37.130507   L 33.55591,37.824711   L 34.454729,37.824711   L 34.454729,37.130507   L 33.55591,37.130507   z "
     id="path41" />
  <path
     style="fill:#000000;fill-rule:evenodd;fill-opacity:1;stroke:#000000;stroke-width:0.018725397px;stroke-linecap:round;stroke-linejoin:round;stroke-miterlimit:4;stroke-dasharray:none;stroke-opacity:1;"
     d="  M 34.641983,37.824711   L 34.641983,37.130507   L 34.904139,37.130507   L 34.94159,37.14927   L 34.960315,37.14927   L 34.997766,37.168032   L 35.016491,37.168032   L 35.053942,37.186794   L 35.072667,37.186794   L 35.110118,37.205556   L 35.128843,37.224319   L 35.166294,37.243081   L 35.203745,37.280605   L 35.22247,37.31813   L 35.241196,37.336892   L 35.259921,37.374417   L 35.278647,37.393179   L 35.316097,37.468228   L 35.334823,37.524515   L 35.334823,37.562039   L 35.353548,37.599564   L 35.353548,37.65585   L 35.372274,37.712137   L 35.372274,37.824711   L 34.660709,37.824711   L 34.641983,37.824711   z "
     id="path43" />
  <path
     style="fill:#000000;fill-rule:evenodd;fill-opacity:1;stroke:#000000;stroke-width:0.018725397px;stroke-linecap:round;stroke-linejoin:round;stroke-miterlimit:4;stroke-dasharray:none;stroke-opacity:1;"
     d="  M 33.406107,37.824711   L 33.406107,37.130507   L 33.143951,37.130507   L 33.106501,37.14927   L 33.087775,37.14927   L 33.050325,37.168032   L 33.012874,37.168032   L 32.994148,37.186794   L 32.956698,37.186794   L 32.937972,37.205556   L 32.900521,37.224319   L 32.863071,37.261843   L 32.82562,37.280605   L 32.806894,37.31813   L 32.788169,37.336892   L 32.769444,37.374417   L 32.750718,37.393179   L 32.731993,37.430703   L 32.731993,37.468228   L 32.713267,37.524515   L 32.694542,37.562039   L 32.694542,37.65585   L 32.675817,37.712137   L 32.675817,37.824711   L 33.387382,37.824711   L 33.406107,37.824711   z "
     id="path45" />
  <text
     xml:space="preserve"
     style="font-size:2.500000px;font-style:normal;font-variant:normal;font-weight:400;font-stretch:Normal;line-height:125.000000%;letter-spacing:0px;word-spacing:0px;fill:#000000;fill-opacity:1;stroke:none;font-family:Arial;text-align:start;text-anchor:start;"
     transform="matrix(1.000000,-0.000000,0.000000,1.000000,32.226407,43.641011)"
     x="0.000000"
     y="0.000000"
     id="text75"><tspan
       x="0.000000"
       y="0.000000"
       id="tspan73"><tspan
         dx="0.000000"
         dy="0.000000"
         style="fill:#000000;font-size:2.500000px;font-style:normal;font-variant:normal;font-weight:400;font-stretch:Normal;font-family:Arial;"
         id="tspan47">F</tspan><tspan
         dx="0.000000"
         dy="0.000000"
         style="fill:#000000;font-size:2.500000px;font-style:normal;font-variant:normal;font-weight:400;font-stretch:Normal;font-family:Arial;"
         id="tspan49">o</tspan><tspan
         dx="0.000000"
         dy="0.000000"
         style="fill:#000000;font-size:2.500000px;font-style:normal;font-variant:normal;font-weight:400;font-stretch:Normal;font-family:Arial;"
         id="tspan51">r</tspan><tspan
         dx="0.000000"
         dy="0.000000"
         style="fill:#000000;font-size:2.500000px;font-style:normal;font-variant:normal;font-weight:400;font-stretch:Normal;font-family:Arial;"
         id="tspan53">t</tspan><tspan
         dx="0.000000"
         dy="0.000000"
         style="fill:#000000;font-size:2.500000px;font-style:normal;font-variant:normal;font-weight:400;font-stretch:Normal;font-family:Arial;"
         id="tspan55">i</tspan><tspan
         dx="0.000000"
         dy="0.000000"
         style="fill:#000000;font-size:2.500000px;font-style:normal;font-variant:normal;font-weight:400;font-stretch:Normal;font-family:Arial;"
         id="tspan57">A</tspan><tspan
         dx="0.000000"
         dy="0.000000"
         style="fill:#000000;font-size:2.500000px;font-style:normal;font-variant:normal;font-weight:400;font-stretch:Normal;font-family:Arial;"
         id="tspan59">P</tspan><tspan
         dx="0.000000"
         dy="0.000000"
         style="fill:#000000;font-size:2.500000px;font-style:normal;font-variant:normal;font-weight:400;font-stretch:Normal;font-family:Arial;"
         id="tspan61"> </tspan><tspan
         dx="0.000000"
         dy="0.000000"
         style="fill:#000000;font-size:2.500000px;font-style:normal;font-variant:normal;font-weight:400;font-stretch:Normal;font-family:Arial;"
         id="tspan63">U</tspan><tspan
         dx="0.000000"
         dy="0.000000"
         style="fill:#000000;font-size:2.500000px;font-style:normal;font-variant:normal;font-weight:400;font-stretch:Normal;font-family:Arial;"
         id="tspan65">4</tspan><tspan
         dx="0.000000"
         dy="0.000000"
         style="fill:#000000;font-size:2.500000px;font-style:normal;font-variant:normal;font-weight:400;font-stretch:Normal;font-family:Arial;"
         id="tspan67">3</tspan><tspan
         dx="0.000000"
         dy="0.000000"
         style="fill:#000000;font-size:2.500000px;font-style:normal;font-variant:normal;font-weight:400;font-stretch:Normal;font-family:Arial;"
         id="tspan69">1</tspan><tspan
         dx="0.000000"
         dy="0.000000"
         style="fill:#000000;font-size:2.500000px;font-style:normal;font-variant:normal;font-weight:400;font-stretch:Normal;font-family:Arial;"
         id="tspan71">F</tspan></tspan></text>
  <text
     xml:space="preserve"
     style="font-size:0.812500px;font-style:normal;font-variant:normal;font-weight:400;font-stretch:Condensed;line-height:125.000000%;letter-spacing:0px;word-spacing:0px;fill:#000000;fill-opacity:1;stroke:none;font-family:Times New Roman;text-align:start;text-anchor:start;"
     transform="matrix(1.000000,-0.000000,0.000000,1.000000,32.226407,43.641011)"
     x="18.594319"
     y="-4.127697"
     id="text81"><tspan
       x="18.594319"
       y="-4.127697"
       id="tspan79"><tspan
         dx="0.000000"
         dy="0.000000"
         style="fill:#000000;font-size:0.812500px;font-style:normal;font-variant:normal;font-weight:400;font-stretch:Condensed;font-family:Times New Roman;"
         id="tspan77">®</tspan></tspan></text>
  <path
     style="fill:none;stroke:#000000;stroke-width:0.056176189px;stroke-linecap:round;stroke-linejoin:round;stroke-miterlimit:4;stroke-dasharray:none;stroke-opacity:1;"
     d="  M 47.95574,67.788036   L 48.461326,67.262693   L 48.217896,67.018783   L 48.217896,68.031945   L 48.461326,67.788036   L 47.937015,67.262693  "
     id="path83" />
  <path
     style="fill:#000000;fill-rule:evenodd;fill-opacity:1;stroke:#000000;stroke-width:0.018725397px;stroke-linecap:round;stroke-linejoin:round;stroke-miterlimit:4;stroke-dasharray:none;stroke-opacity:1;"
     d="  M 33.31248,67.24393   L 33.331205,67.24393   L 33.331205,67.262693   L 33.349931,67.262693   L 33.368656,67.281455   L 33.387382,67.281455   L 33.443558,67.337742   L 33.443558,67.356504   L 33.462283,67.356504   L 33.462283,67.375266   L 33.481009,67.394028   L 33.481009,67.412791   L 33.499734,67.431553   L 33.499734,67.48784   L 33.518459,67.506602   L 33.518459,67.675462   L 33.499734,67.694224   L 33.499734,67.750511   L 33.481009,67.769273   L 33.481009,67.788036   L 33.462283,67.806798   L 33.462283,67.82556   L 33.443558,67.844323   L 33.443558,67.863085   L 33.424832,67.863085   L 33.406107,67.881847   L 33.406107,67.900609   L 33.387382,67.900609   L 33.331205,67.956896   L 33.293755,67.956896   L 33.275029,67.975658   L 33.237578,67.975658   L 33.218853,67.994421   L 33.031599,67.994421   L 33.012874,67.975658   L 32.975423,67.975658   L 32.956698,67.956896   L 32.919247,67.956896   L 32.863071,67.900609   L 32.844345,67.900609   L 32.844345,67.881847   L 32.82562,67.863085   L 32.806894,67.863085   L 32.806894,67.844323   L 32.788169,67.82556   L 32.788169,67.806798   L 32.769444,67.788036   L 32.769444,67.769273   L 32.750718,67.750511   L 32.750718,67.694224   L 32.731993,67.675462   L 32.731993,67.506602   L 32.750718,67.48784   L 32.750718,67.431553   L 32.769444,67.431553   L 32.769444,67.394028   L 32.788169,67.375266   L 32.788169,67.356504   L 32.806894,67.356504   L 32.806894,67.337742   L 32.82562,67.318979   L 32.82562,67.300217   L 32.844345,67.300217   L 32.881796,67.262693   L 32.881796,67.281455   L 32.900521,67.281455   L 32.900521,67.300217   L 32.919247,67.300217   L 32.919247,67.318979   L 32.937972,67.318979   L 32.937972,67.337742   L 32.919247,67.337742   L 32.919247,67.356504   L 32.900521,67.356504   L 32.844345,67.412791   L 32.844345,67.431553   L 32.82562,67.450315   L 32.82562,67.469077   L 32.806894,67.469077   L 32.806894,67.525364   L 32.788169,67.525364   L 32.788169,67.675462   L 32.806894,67.675462   L 32.806894,67.731749   L 32.844345,67.769273   L 32.844345,67.788036   L 32.863071,67.788036   L 32.863071,67.806798   L 32.900521,67.844323   L 32.919247,67.844323   L 32.919247,67.863085   L 32.937972,67.863085   L 32.956698,67.881847   L 32.975423,67.881847   L 32.994148,67.900609   L 33.031599,67.900609   L 33.031599,67.919372   L 33.218853,67.919372   L 33.218853,67.900609   L 33.256304,67.900609   L 33.275029,67.881847   L 33.293755,67.881847   L 33.31248,67.863085   L 33.331205,67.863085   L 33.331205,67.844323   L 33.349931,67.844323   L 33.387382,67.806798   L 33.387382,67.788036   L 33.406107,67.788036   L 33.406107,67.769273   L 33.443558,67.731749   L 33.443558,67.675462   L 33.462283,67.675462   L 33.462283,67.525364   L 33.443558,67.525364   L 33.443558,67.469077   L 33.424832,67.469077   L 33.424832,67.431553   L 33.406107,67.431553   L 33.406107,67.412791   L 33.387382,67.394028   L 33.387382,67.375266   L 33.368656,67.375266   L 33.368656,67.356504   L 33.349931,67.356504   L 33.331205,67.337742   L 33.31248,67.337742   L 33.31248,67.318979   L 33.293755,67.318979   L 33.293755,67.281455   L 33.31248,67.281455   L 33.31248,67.262693   L 33.31248,67.24393   z "
     id="path85" />
  <path
     style="fill:#000000;fill-rule:evenodd;fill-opacity:1;stroke:#000000;stroke-width:0.018725397px;stroke-linecap:round;stroke-linejoin:round;stroke-miterlimit:4;stroke-dasharray:none;stroke-opacity:1;"
     d="  M 33.162677,67.056308   L 33.06905,67.056308   L 33.06905,67.619175   L 33.162677,67.619175   L 33.162677,67.056308   z "
     id="path87" />
  <path
     style="fill:none;stroke:#000000;stroke-width:0.056176189px;stroke-linecap:round;stroke-linejoin:round;stroke-miterlimit:4;stroke-dasharray:none;stroke-opacity:1;"
     d="  M 44.940951,67.750511   L 44.997127,67.694224   L 45.015853,67.6567   L 45.053304,67.637938   L 45.072029,67.600413   L 45.090754,67.581651   L 45.10948,67.544126   L 45.10948,67.525364   L 45.146931,67.450315   L 45.146931,67.394028   L 45.165656,67.375266   L 45.165656,67.281455   L 45.146931,67.262693   L 45.146931,67.206406   L 45.128205,67.168881   L 45.128205,67.150119   L 45.10948,67.112594   L 45.10948,67.093832   L 45.090754,67.07507   L 45.072029,67.037545   L 45.034578,67.000021   L 45.015853,66.962496   L 44.959677,66.90621   L 44.940951,66.887447  "
     id="path89" />
  <path
     style="fill:none;stroke:#000000;stroke-width:0.056176189px;stroke-linecap:round;stroke-linejoin:round;stroke-miterlimit:4;stroke-dasharray:none;stroke-opacity:1;"
     d="  M 44.828599,67.6567   L 44.884775,67.600413   L 44.9035,67.562889   L 44.9035,67.544126   L 44.940951,67.506602   L 44.940951,67.48784   L 44.959677,67.450315   L 44.959677,67.394028   L 44.978402,67.356504   L 44.978402,67.300217   L 44.959677,67.281455   L 44.959677,67.206406   L 44.940951,67.187644   L 44.940951,67.150119   L 44.922226,67.131357   L 44.922226,67.112594   L 44.884775,67.07507   L 44.884775,67.056308   L 44.847324,67.018783   L 44.847324,67.000021   L 44.828599,66.981259  "
     id="path91" />
  <path
     style="fill:none;stroke:#000000;stroke-width:0.056176189px;stroke-linecap:round;stroke-linejoin:round;stroke-miterlimit:4;stroke-dasharray:none;stroke-opacity:1;"
     d="  M 44.716246,67.562889   L 44.753697,67.525364   L 44.753697,67.506602   L 44.772423,67.506602   L 44.791148,67.48784   L 44.791148,67.469077   L 44.809873,67.450315   L 44.809873,67.431553   L 44.828599,67.412791   L 44.828599,67.225168   L 44.809873,67.225168   L 44.809873,67.187644   L 44.772423,67.150119   L 44.772423,67.131357   L 44.734972,67.093832   L 44.716246,67.07507  "
     id="path93" />
  <path
     style="fill:none;stroke:#000000;stroke-width:0.056176189px;stroke-linecap:round;stroke-linejoin:round;stroke-miterlimit:4;stroke-dasharray:none;stroke-opacity:1;"
     d="  M 44.154485,67.750511   L 44.098308,67.694224   L 44.079583,67.6567   L 44.042132,67.637938   L 44.023407,67.600413   L 44.004681,67.581651   L 43.985956,67.544126   L 43.985956,67.525364   L 43.948505,67.450315   L 43.948505,67.394028   L 43.92978,67.375266   L 43.92978,67.281455   L 43.948505,67.262693   L 43.948505,67.206406   L 43.967231,67.168881   L 43.967231,67.150119   L 43.985956,67.112594   L 43.985956,67.093832   L 44.004681,67.07507   L 44.023407,67.037545   L 44.060858,67.000021   L 44.079583,66.962496   L 44.135759,66.90621   L 44.154485,66.887447  "
     id="path95" />
  <path
     style="fill:none;stroke:#000000;stroke-width:0.056176189px;stroke-linecap:round;stroke-linejoin:round;stroke-miterlimit:4;stroke-dasharray:none;stroke-opacity:1;"
     d="  M 44.266837,67.6567   L 44.210661,67.600413   L 44.191935,67.562889   L 44.17321,67.544126   L 44.17321,67.525364   L 44.154485,67.506602   L 44.154485,67.48784   L 44.135759,67.450315   L 44.135759,67.412791   L 44.117034,67.394028   L 44.117034,67.262693   L 44.135759,67.225168   L 44.135759,67.187644   L 44.154485,67.168881   L 44.154485,67.150119   L 44.17321,67.131357   L 44.17321,67.112594   L 44.191935,67.093832   L 44.191935,67.07507   L 44.229386,67.037545   L 44.229386,67.018783   L 44.248112,67.000021   L 44.266837,66.981259  "
     id="path97" />
  <path
     style="fill:none;stroke:#000000;stroke-width:0.056176189px;stroke-linecap:round;stroke-linejoin:round;stroke-miterlimit:4;stroke-dasharray:none;stroke-opacity:1;"
     d="  M 44.360464,67.562889   L 44.323013,67.525364   L 44.323013,67.506602   L 44.304288,67.506602   L 44.285562,67.48784   L 44.285562,67.469077   L 44.266837,67.450315   L 44.266837,67.431553   L 44.248112,67.412791   L 44.248112,67.225168   L 44.266837,67.225168   L 44.266837,67.187644   L 44.304288,67.150119   L 44.304288,67.131357   L 44.341738,67.093832   L 44.360464,67.07507  "
     id="path99" />
  <ellipse
     style="fill:#000000;fill-rule:evenodd;fill-opacity:1;stroke:#000000;stroke-width:0.018725397px;stroke-linecap:round;stroke-linejoin:round;stroke-miterlimit:4;stroke-dasharray:none;stroke-opacity:1;"
     cx="44.463454"
     cy="67.234549"
     rx="0.065538887"
     ry="0.065538887"
     id="ellipse101" />
  <ellipse
     style="fill:none;stroke:#000000;stroke-width:0.018725397px;stroke-linecap:round;stroke-linejoin:round;stroke-miterlimit:4;stroke-dasharray:none;stroke-opacity:1;"
     cx="44.463454"
     cy="67.234549"
     rx="0.065538887"
     ry="0.065538887"
     id="ellipse103" />
  <path
     style="fill:#000000;fill-rule:evenodd;fill-opacity:1;stroke:#000000;stroke-width:0.018725397px;stroke-linecap:round;stroke-linejoin:round;stroke-miterlimit:4;stroke-dasharray:none;stroke-opacity:1;"
     d="  M 44.603894,67.300217   L 44.491542,67.300217   L 44.491542,68.013183   L 44.603894,68.013183   L 44.603894,67.300217   z "
     id="path105" />
  <path
     style="fill:none;stroke:#000000;stroke-width:0.018725397px;stroke-linecap:round;stroke-linejoin:round;stroke-miterlimit:4;stroke-dasharray:none;stroke-opacity:1;"
     d="  M 41.139696,67.506602   L 39.90382,67.506602  "
     id="path107" />
  <path
     style="fill:none;stroke:#000000;stroke-width:0.018725397px;stroke-linecap:round;stroke-linejoin:round;stroke-miterlimit:4;stroke-dasharray:none;stroke-opacity:1;"
     d="  M 40.521758,67.337742   L 40.521758,67.525364  "
     id="path109" />
  <path
     style="fill:#0a0a0a;fill-rule:evenodd;fill-opacity:1;stroke:#000000;stroke-width:0.018725397px;stroke-linecap:round;stroke-linejoin:round;stroke-miterlimit:4;stroke-dasharray:none;stroke-opacity:1;"
     d="  M 40.671561,67.037545   L 40.371954,67.037545   L 40.371954,67.337742   L 40.671561,67.337742   L 40.671561,67.037545   z "
     id="path111" />
  <path
     style="fill:none;stroke:#000000;stroke-width:0.018725397px;stroke-linecap:round;stroke-linejoin:round;stroke-miterlimit:4;stroke-dasharray:none;stroke-opacity:1;"
     d="  M 40.87754,67.525364   L 40.87754,67.712987  "
     id="path113" />
  <path
     style="fill:none;stroke:#000000;stroke-width:0.018725397px;stroke-linecap:round;stroke-linejoin:round;stroke-miterlimit:4;stroke-dasharray:none;stroke-opacity:1;"
     d="  M 40.87754,67.525364   L 40.87754,67.712987  "
     id="path115" />
  <path
     style="fill:#0a0a0a;fill-rule:evenodd;fill-opacity:1;stroke:#000000;stroke-width:0.018725397px;stroke-linecap:round;stroke-linejoin:round;stroke-miterlimit:4;stroke-dasharray:none;stroke-opacity:1;"
     d="  M 40.746462,67.712987   L 41.046069,67.712987   L 41.046069,68.013183   L 40.746462,68.013183   L 40.746462,67.712987   z "
     id="path117" />
  <path
     style="fill:none;stroke:#000000;stroke-width:0.018725397px;stroke-linecap:round;stroke-linejoin:round;stroke-miterlimit:4;stroke-dasharray:none;stroke-opacity:1;"
     d="  M 40.128524,67.525364   L 40.128524,67.712987  "
     id="path119" />
  <path
     style="fill:#0a0a0a;fill-rule:evenodd;fill-opacity:1;stroke:#000000;stroke-width:0.018725397px;stroke-linecap:round;stroke-linejoin:round;stroke-miterlimit:4;stroke-dasharray:none;stroke-opacity:1;"
     d="  M 40.297053,67.712987   L 39.997447,67.712987   L 39.997447,68.013183   L 40.297053,68.013183   L 40.297053,67.712987   z "
     id="path121" />
  <text
     xml:space="preserve"
     style="font-size:0.687500px;font-style:normal;font-variant:normal;font-weight:400;font-stretch:Normal;line-height:125.000000%;letter-spacing:0px;word-spacing:0px;fill:#000000;fill-opacity:1;stroke:none;font-family:Arial;text-align:start;text-anchor:start;"
     transform="matrix(1.000000,-0.000000,0.000000,1.000000,41.383126,67.825560)"
     x="0.000000"
     y="0.000000"
     id="text127"><tspan
       x="0.000000"
       y="0.000000"
       id="tspan125"><tspan
         dx="0.000000"
         dy="0.000000"
         style="fill:#000000;font-size:0.687500px;font-style:normal;font-variant:normal;font-weight:400;font-stretch:Normal;font-family:Arial;"
         id="tspan123">2</tspan></tspan></text>
  <path
     style="fill:none;stroke:#000000;stroke-width:0.018725397px;stroke-linecap:round;stroke-linejoin:round;stroke-miterlimit:4;stroke-dasharray:none;stroke-opacity:1;"
     d="  M 37.413342,67.506602   L 36.177466,67.506602  "
     id="path129" />
  <path
     style="fill:none;stroke:#000000;stroke-width:0.018725397px;stroke-linecap:round;stroke-linejoin:round;stroke-miterlimit:4;stroke-dasharray:none;stroke-opacity:1;"
     d="  M 36.795404,67.337742   L 36.795404,67.525364  "
     id="path131" />
  <path
     style="fill:#0a0a0a;fill-rule:evenodd;fill-opacity:1;stroke:#000000;stroke-width:0.018725397px;stroke-linecap:round;stroke-linejoin:round;stroke-miterlimit:4;stroke-dasharray:none;stroke-opacity:1;"
     d="  M 36.945207,67.037545   L 36.645601,67.037545   L 36.645601,67.337742   L 36.945207,67.337742   L 36.945207,67.037545   z "
     id="path133" />
  <path
     style="fill:none;stroke:#000000;stroke-width:0.018725397px;stroke-linecap:round;stroke-linejoin:round;stroke-miterlimit:4;stroke-dasharray:none;stroke-opacity:1;"
     d="  M 37.151186,67.525364   L 37.151186,67.712987  "
     id="path135" />
  <path
     style="fill:#0a0a0a;fill-rule:evenodd;fill-opacity:1;stroke:#000000;stroke-width:0.018725397px;stroke-linecap:round;stroke-linejoin:round;stroke-miterlimit:4;stroke-dasharray:none;stroke-opacity:1;"
     d="  M 37.020109,67.712987   L 37.319715,67.712987   L 37.319715,68.013183   L 37.020109,68.013183   L 37.020109,67.712987   z "
     id="path137" />
  <path
     style="fill:none;stroke:#000000;stroke-width:0.018725397px;stroke-linecap:round;stroke-linejoin:round;stroke-miterlimit:4;stroke-dasharray:none;stroke-opacity:1;"
     d="  M 36.40217,67.525364   L 36.40217,67.712987  "
     id="path139" />
  <path
     style="fill:#0a0a0a;fill-rule:evenodd;fill-opacity:1;stroke:#000000;stroke-width:0.018725397px;stroke-linecap:round;stroke-linejoin:round;stroke-miterlimit:4;stroke-dasharray:none;stroke-opacity:1;"
     d="  M 36.570699,67.712987   L 36.271093,67.712987   L 36.271093,68.013183   L 36.570699,68.013183   L 36.570699,67.712987   z "
     id="path141" />
  <text
     xml:space="preserve"
     style="font-size:0.687500px;font-style:normal;font-variant:normal;font-weight:400;font-stretch:Normal;line-height:125.000000%;letter-spacing:0px;word-spacing:0px;fill:#000000;fill-opacity:1;stroke:none;font-family:Arial;text-align:start;text-anchor:start;"
     transform="matrix(1.000000,-0.000000,0.000000,1.000000,37.638047,67.825560)"
     x="0.000000"
     y="0.000000"
     id="text147"><tspan
       x="0.000000"
       y="0.000000"
       id="tspan145"><tspan
         dx="0.000000"
         dy="0.000000"
         style="fill:#000000;font-size:0.687500px;font-style:normal;font-variant:normal;font-weight:400;font-stretch:Normal;font-family:Arial;"
         id="tspan143">1</tspan></tspan></text>
  <path
     style="fill:#333333;fill-rule:evenodd;fill-opacity:1;stroke:#333333;stroke-width:0.018725397px;stroke-linecap:round;stroke-linejoin:round;stroke-miterlimit:4;stroke-dasharray:none;stroke-opacity:1;"
     d="  M 51.082881,68.707386   L 51.064156,68.632337   L 51.026705,68.576051   L 50.970529,68.538526   L 50.895627,68.519764   L 30.297691,68.519764   L 30.22279,68.538526   L 30.166613,68.576051   L 30.129163,68.632337   L 30.110437,68.707386   L 30.129163,68.782435   L 30.166613,68.838722   L 30.22279,68.876247   L 30.297691,68.895009   L 50.895627,68.895009   L 50.970529,68.876247   L 51.026705,68.838722   L 51.064156,68.782435   L 51.082881,68.707386   z "
     id="path149" />
</svg>
