<?xml version="1.0" encoding="UTF-8" standalone="no"?>
<svg
   version="1.0"
   width="16.02mm"
   height="16.02mm"
   id="svg169"
   xmlns="http://www.w3.org/2000/svg"
   xmlns:svg="http://www.w3.org/2000/svg">
  <defs
     id="defs3">
    <pattern
       id="EMFhbasepattern"
       patternUnits="userSpaceOnUse"
       width="6"
       height="6"
       x="0"
       y="0" />
  </defs>
  <ellipse
     style="fill:#7f7f7f;fill-rule:evenodd;fill-opacity:1;stroke:#000000;stroke-width:0.093565583px;stroke-linecap:round;stroke-linejoin:round;stroke-miterlimit:4;stroke-dasharray:none;stroke-opacity:1;"
     cx="30.128118"
     cy="30.198441"
     rx="30.090692"
     ry="30.081335"
     id="ellipse5" />
  <ellipse
     style="fill:none;stroke:#000000;stroke-width:0.093565583px;stroke-linecap:round;stroke-linejoin:round;stroke-miterlimit:4;stroke-dasharray:none;stroke-opacity:1;"
     cx="30.128118"
     cy="30.198441"
     rx="30.090692"
     ry="30.081335"
     id="ellipse7" />
  <ellipse
     style="fill:#eaeaea;fill-rule:evenodd;fill-opacity:1;stroke:#000000;stroke-width:0.093565583px;stroke-linecap:round;stroke-linejoin:round;stroke-miterlimit:4;stroke-dasharray:none;stroke-opacity:1;"
     cx="30.128118"
     cy="30.198441"
     rx="29.641577"
     ry="29.632221"
     id="ellipse9" />
  <ellipse
     style="fill:none;stroke:#eaeaea;stroke-width:0.093565583px;stroke-linecap:round;stroke-linejoin:round;stroke-miterlimit:4;stroke-dasharray:none;stroke-opacity:1;"
     cx="30.128118"
     cy="30.198441"
     rx="29.641577"
     ry="29.632221"
     id="ellipse11" />
  <path
     style="fill:none;stroke:#d1d1d1;stroke-width:0.093565583px;stroke-linecap:round;stroke-linejoin:round;stroke-miterlimit:4;stroke-dasharray:none;stroke-opacity:1;"
     d="  M 30.202971,10.038003   L 29.155036,10.056766   L 28.144528,10.150579   L 27.13402,10.263155   L 26.142224,10.450781   L 25.150429,10.675932   L 24.19606,10.957372   L 23.260404,11.257574   L 22.343462,11.632826   L 21.445232,12.026841   L 20.584429,12.477144   L 19.723625,12.964972   L 18.918961,13.490326   L 18.114297,14.053204   L 17.365773,14.653608   L 16.617248,15.291537   L 15.924863,15.966992   L 15.25119,16.661209   L 14.614944,17.411714   L 14.016125,18.162219   L 13.454731,18.969011   L 12.930764,19.775804   L 12.444223,20.638885   L 11.995108,21.501965   L 11.602132,22.402571   L 11.22787,23.32194   L 10.92846,24.260071   L 10.647764,25.216965   L 10.423206,26.211384   L 10.236075,27.205803   L 10.123796,28.218984   L 10.030231,29.232166   L 10.011518,30.282873   L 10.030231,31.33358   L 10.123796,32.346761   L 10.236075,33.359943   L 10.423206,34.354362   L 10.647764,35.348781   L 10.92846,36.305675   L 11.22787,37.243806   L 11.602132,38.163174   L 11.995108,39.06378   L 12.444223,39.926861   L 12.930764,40.789941   L 13.454731,41.596734   L 14.016125,42.403527   L 14.614944,43.154032   L 15.25119,43.904537   L 15.924863,44.598754   L 16.617248,45.274208   L 17.365773,45.912137   L 18.114297,46.512541   L 18.918961,47.07542   L 19.723625,47.600773   L 20.584429,48.088602   L 21.445232,48.538904   L 22.343462,48.93292   L 23.260404,49.308172   L 24.19606,49.608374   L 25.150429,49.889813   L 26.142224,50.114965   L 27.13402,50.302591   L 28.144528,50.415167   L 29.155036,50.50898   L 30.202971,50.527742  "
     id="path13" />
  <path
     style="fill:none;stroke:#d1d1d1;stroke-width:0.093565583px;stroke-linecap:round;stroke-linejoin:round;stroke-miterlimit:4;stroke-dasharray:none;stroke-opacity:1;"
     d="  M 30.202971,49.514561   L 31.194766,49.495798   L 32.167848,49.420748   L 33.122217,49.289409   L 34.076586,49.120546   L 34.993529,48.914157   L 35.910471,48.65148   L 36.789988,48.351278   L 37.669504,47.994788   L 38.511595,47.619536   L 39.353685,47.187996   L 40.139636,46.737693   L 40.925587,46.231102   L 41.674111,45.686986   L 42.403923,45.124107   L 43.096308,44.523703   L 43.76998,43.885774   L 44.406226,43.21032   L 45.005046,42.516103   L 45.56644,41.78436   L 46.10912,41.033855   L 46.614374,40.245825   L 47.063489,39.457795   L 47.493891,38.613477   L 47.868153,37.769159   L 48.223702,36.887316   L 48.523112,36.005473   L 48.785096,35.086104   L 48.99094,34.166736   L 49.159358,33.209842   L 49.29035,32.252948   L 49.365202,31.277292   L 49.383916,30.282873   L 49.365202,29.288454   L 49.29035,28.312797   L 49.159358,27.355904   L 48.99094,26.39901   L 48.785096,25.479641   L 48.523112,24.560273   L 48.223702,23.67843   L 47.868153,22.796586   L 47.493891,21.952268   L 47.063489,21.10795   L 46.614374,20.31992   L 46.10912,19.53189   L 45.56644,18.781385   L 45.005046,18.049643   L 44.406226,17.355426   L 43.76998,16.679971   L 43.096308,16.042042   L 42.403923,15.441638   L 41.674111,14.87876   L 40.925587,14.334644   L 40.139636,13.828053   L 39.353685,13.37775   L 38.511595,12.94621   L 37.669504,12.570957   L 36.789988,12.214467   L 35.910471,11.914265   L 34.993529,11.651589   L 34.076586,11.4452   L 33.122217,11.276336   L 32.167848,11.144998   L 31.194766,11.069947   L 30.202971,11.051185  "
     id="path15" />
  <path
     style="fill:none;stroke:#ffffff;stroke-width:0.093565583px;stroke-linecap:round;stroke-linejoin:round;stroke-miterlimit:4;stroke-dasharray:none;stroke-opacity:1;"
     d="  M 30.202971,11.051185   L 29.211176,11.069947   L 28.238093,11.144998   L 27.283724,11.276336   L 26.329356,11.4452   L 25.412413,11.651589   L 24.49547,11.914265   L 23.615954,12.214467   L 22.736437,12.570957   L 21.894347,12.94621   L 21.052257,13.37775   L 20.266306,13.828053   L 19.480355,14.334644   L 18.73183,14.87876   L 18.002018,15.441638   L 17.309633,16.042042   L 16.635961,16.679971   L 15.999715,17.355426   L 15.400895,18.049643   L 14.839502,18.781385   L 14.296821,19.53189   L 13.791567,20.31992   L 13.342452,21.10795   L 12.912051,21.952268   L 12.537788,22.796586   L 12.182239,23.67843   L 11.882829,24.560273   L 11.620846,25.479641   L 11.415001,26.39901   L 11.246583,27.355904   L 11.115591,28.312797   L 11.040739,29.288454   L 11.022026,30.282873   L 11.040739,31.277292   L 11.115591,32.252948   L 11.246583,33.209842   L 11.415001,34.166736   L 11.620846,35.086104   L 11.882829,36.005473   L 12.182239,36.887316   L 12.537788,37.769159   L 12.912051,38.613477   L 13.342452,39.457795   L 13.791567,40.245825   L 14.296821,41.033855   L 14.839502,41.78436   L 15.400895,42.516103   L 15.999715,43.21032   L 16.635961,43.885774   L 17.309633,44.523703   L 18.002018,45.124107   L 18.73183,45.686986   L 19.480355,46.231102   L 20.266306,46.737693   L 21.052257,47.187996   L 21.894347,47.619536   L 22.736437,47.994788   L 23.615954,48.351278   L 24.49547,48.65148   L 25.412413,48.914157   L 26.329356,49.120546   L 27.283724,49.289409   L 28.238093,49.420748   L 29.211176,49.495798   L 30.202971,49.514561  "
     id="path17" />
  <path
     style="fill:none;stroke:#ffffff;stroke-width:0.093565583px;stroke-linecap:round;stroke-linejoin:round;stroke-miterlimit:4;stroke-dasharray:none;stroke-opacity:1;"
     d="  M 30.202971,50.527742   L 31.250905,50.50898   L 32.261414,50.415167   L 33.271922,50.302591   L 34.263717,50.114965   L 35.255512,49.889813   L 36.209881,49.608374   L 37.145537,49.308172   L 38.06248,48.93292   L 38.960709,48.538904   L 39.821513,48.088602   L 40.682316,47.600773   L 41.48698,47.07542   L 42.291644,46.512541   L 43.040169,45.912137   L 43.788694,45.274208   L 44.481079,44.598754   L 45.154751,43.904537   L 45.790997,43.154032   L 46.389817,42.403527   L 46.95121,41.596734   L 47.475178,40.789941   L 47.961719,39.926861   L 48.410833,39.06378   L 48.803809,38.163174   L 49.178071,37.243806   L 49.477481,36.305675   L 49.758178,35.348781   L 49.982735,34.354362   L 50.169866,33.359943   L 50.282145,32.346761   L 50.375711,31.33358   L 50.394424,30.282873   L 50.375711,29.232166   L 50.282145,28.218984   L 50.169866,27.205803   L 49.982735,26.211384   L 49.758178,25.216965   L 49.477481,24.260071   L 49.178071,23.32194   L 48.803809,22.402571   L 48.410833,21.501965   L 47.961719,20.638885   L 47.475178,19.775804   L 46.95121,18.969011   L 46.389817,18.162219   L 45.790997,17.411714   L 45.154751,16.661209   L 44.481079,15.966992   L 43.788694,15.291537   L 43.040169,14.653608   L 42.291644,14.053204   L 41.48698,13.490326   L 40.682316,12.964972   L 39.821513,12.477144   L 38.960709,12.026841   L 38.06248,11.632826   L 37.145537,11.257574   L 36.209881,10.957372   L 35.255512,10.675932   L 34.263717,10.450781   L 33.271922,10.263155   L 32.261414,10.150579   L 31.250905,10.056766   L 30.202971,10.038003  "
     id="path19" />
  <ellipse
     style="fill:#00ff00;fill-rule:evenodd;fill-opacity:1;stroke:#000000;stroke-width:0.018713117px;stroke-linecap:round;stroke-linejoin:round;stroke-miterlimit:4;stroke-dasharray:none;stroke-opacity:1;"
     cx="30.128118"
     cy="55.265305"
     rx="0.43040169"
     ry="0.42104513"
     id="ellipse21" />
  <ellipse
     style="fill:none;stroke:#000000;stroke-width:0.018713117px;stroke-linecap:round;stroke-linejoin:round;stroke-miterlimit:4;stroke-dasharray:none;stroke-opacity:1;"
     cx="30.128118"
     cy="55.265305"
     rx="0.43040169"
     ry="0.42104513"
     id="ellipse23" />
  <ellipse
     style="fill:#00ff00;fill-rule:evenodd;fill-opacity:1;stroke:#000000;stroke-width:0.018713117px;stroke-linecap:round;stroke-linejoin:round;stroke-miterlimit:4;stroke-dasharray:none;stroke-opacity:1;"
     cx="34.404065"
     cy="54.890052"
     rx="0.42104513"
     ry="0.42104513"
     id="ellipse25" />
  <ellipse
     style="fill:none;stroke:#000000;stroke-width:0.018713117px;stroke-linecap:round;stroke-linejoin:round;stroke-miterlimit:4;stroke-dasharray:none;stroke-opacity:1;"
     cx="34.404065"
     cy="54.890052"
     rx="0.42104513"
     ry="0.42104513"
     id="ellipse27" />
  <ellipse
     style="fill:#00ff00;fill-rule:evenodd;fill-opacity:1;stroke:#000000;stroke-width:0.018713117px;stroke-linecap:round;stroke-linejoin:round;stroke-miterlimit:4;stroke-dasharray:none;stroke-opacity:1;"
     cx="38.670656"
     cy="53.773676"
     rx="0.42104513"
     ry="0.43040169"
     id="ellipse29" />
  <ellipse
     style="fill:none;stroke:#000000;stroke-width:0.018713117px;stroke-linecap:round;stroke-linejoin:round;stroke-miterlimit:4;stroke-dasharray:none;stroke-opacity:1;"
     cx="38.670656"
     cy="53.773676"
     rx="0.42104513"
     ry="0.43040169"
     id="ellipse31" />
  <ellipse
     style="fill:#00ff00;fill-rule:evenodd;fill-opacity:1;stroke:#000000;stroke-width:0.018713117px;stroke-linecap:round;stroke-linejoin:round;stroke-miterlimit:4;stroke-dasharray:none;stroke-opacity:1;"
     cx="21.566867"
     cy="53.773676"
     rx="0.42104513"
     ry="0.43040169"
     id="ellipse33" />
  <ellipse
     style="fill:none;stroke:#000000;stroke-width:0.018713117px;stroke-linecap:round;stroke-linejoin:round;stroke-miterlimit:4;stroke-dasharray:none;stroke-opacity:1;"
     cx="21.566867"
     cy="53.773676"
     rx="0.42104513"
     ry="0.43040169"
     id="ellipse35" />
  <ellipse
     style="fill:#00ff00;fill-rule:evenodd;fill-opacity:1;stroke:#000000;stroke-width:0.018713117px;stroke-linecap:round;stroke-linejoin:round;stroke-miterlimit:4;stroke-dasharray:none;stroke-opacity:1;"
     cx="25.861528"
     cy="54.890052"
     rx="0.43040169"
     ry="0.42104513"
     id="ellipse37" />
  <ellipse
     style="fill:none;stroke:#000000;stroke-width:0.018713117px;stroke-linecap:round;stroke-linejoin:round;stroke-miterlimit:4;stroke-dasharray:none;stroke-opacity:1;"
     cx="25.861528"
     cy="54.890052"
     rx="0.43040169"
     ry="0.42104513"
     id="ellipse39" />
  <path
     style="fill:none;stroke:#7f7f7f;stroke-width:0.018713117px;stroke-linecap:round;stroke-linejoin:round;stroke-miterlimit:4;stroke-dasharray:none;stroke-opacity:1;"
     d="  M 30.895356,53.679863   L 29.36088,53.679863  "
     id="path41" />
  <path
     style="fill:none;stroke:#7f7f7f;stroke-width:0.018713117px;stroke-linecap:round;stroke-linejoin:round;stroke-miterlimit:4;stroke-dasharray:none;stroke-opacity:1;"
     d="  M 30.128118,53.435949   L 30.128118,53.6611  "
     id="path43" />
  <path
     style="fill:#7f7f7f;fill-rule:evenodd;fill-opacity:1;stroke:#7f7f7f;stroke-width:0.018713117px;stroke-linecap:round;stroke-linejoin:round;stroke-miterlimit:4;stroke-dasharray:none;stroke-opacity:1;"
     d="  M 30.315249,53.060696   L 29.940987,53.060696   L 29.940987,53.435949   L 30.315249,53.435949   L 30.315249,53.060696   z "
     id="path45" />
  <path
     style="fill:none;stroke:#7f7f7f;stroke-width:0.018713117px;stroke-linecap:round;stroke-linejoin:round;stroke-miterlimit:4;stroke-dasharray:none;stroke-opacity:1;"
     d="  M 30.577233,53.6611   L 30.577233,53.905015  "
     id="path47" />
  <path
     style="fill:none;stroke:#7f7f7f;stroke-width:0.018713117px;stroke-linecap:round;stroke-linejoin:round;stroke-miterlimit:4;stroke-dasharray:none;stroke-opacity:1;"
     d="  M 30.577233,53.6611   L 30.577233,53.905015  "
     id="path49" />
  <path
     style="fill:#7f7f7f;fill-rule:evenodd;fill-opacity:1;stroke:#7f7f7f;stroke-width:0.018713117px;stroke-linecap:round;stroke-linejoin:round;stroke-miterlimit:4;stroke-dasharray:none;stroke-opacity:1;"
     d="  M 30.408815,53.886252   L 30.783077,53.886252   L 30.783077,54.261504   L 30.408815,54.261504   L 30.408815,53.886252   z "
     id="path51" />
  <path
     style="fill:none;stroke:#7f7f7f;stroke-width:0.018713117px;stroke-linecap:round;stroke-linejoin:round;stroke-miterlimit:4;stroke-dasharray:none;stroke-opacity:1;"
     d="  M 29.641577,53.6611   L 29.641577,53.905015  "
     id="path53" />
  <path
     style="fill:#7f7f7f;fill-rule:evenodd;fill-opacity:1;stroke:#7f7f7f;stroke-width:0.018713117px;stroke-linecap:round;stroke-linejoin:round;stroke-miterlimit:4;stroke-dasharray:none;stroke-opacity:1;"
     d="  M 29.847421,53.886252   L 29.473159,53.886252   L 29.473159,54.261504   L 29.847421,54.261504   L 29.847421,53.886252   z "
     id="path55" />
  <path
     style="fill:none;stroke:#7f7f7f;stroke-width:0.018713117px;stroke-linecap:round;stroke-linejoin:round;stroke-miterlimit:4;stroke-dasharray:none;stroke-opacity:1;"
     d="  M 21.220675,52.272666   L 21.201961,52.253904   L 21.201961,52.235141   L 21.183248,52.235141   L 21.183248,52.216378   L 21.164535,52.216378   L 21.164535,52.197616   L 21.145822,52.178853   L 21.145822,52.160091   L 21.127109,52.160091   L 21.127109,52.122565   L 21.108396,52.103803   L 21.108396,52.08504   L 21.089683,52.066277   L 21.089683,52.00999   L 21.07097,51.991227   L 21.07097,51.822363   L 21.089683,51.822363   L 21.089683,51.766076   L 21.108396,51.747313   L 21.108396,51.72855   L 21.127109,51.709788   L 21.127109,51.691025   L 21.145822,51.672262   L 21.145822,51.6535   L 21.220675,51.578449   L 21.239388,51.578449   L 21.258101,51.559687   L 21.276814,51.559687  "
     id="path57" />
  <path
     style="fill:none;stroke:#7f7f7f;stroke-width:0.018713117px;stroke-linecap:round;stroke-linejoin:round;stroke-miterlimit:4;stroke-dasharray:none;stroke-opacity:1;"
     d="  M 21.276814,52.160091   L 21.276814,52.141328   L 21.258101,52.141328   L 21.258101,52.122565   L 21.239388,52.103803   L 21.239388,52.08504   L 21.220675,52.066277   L 21.220675,52.028752   L 21.201961,52.00999   L 21.201961,51.822363   L 21.220675,51.803601   L 21.220675,51.766076   L 21.239388,51.747313   L 21.239388,51.72855   L 21.258101,51.709788   L 21.258101,51.691025   L 21.295527,51.691025   L 21.295527,51.672262   L 21.31424,51.672262  "
     id="path59" />
  <path
     style="fill:none;stroke:#7f7f7f;stroke-width:0.018713117px;stroke-linecap:round;stroke-linejoin:round;stroke-miterlimit:4;stroke-dasharray:none;stroke-opacity:1;"
     d="  M 21.389093,52.066277   L 21.37038,52.066277   L 21.37038,52.047515   L 21.351666,52.047515   L 21.351666,52.028752   L 21.332953,52.028752   L 21.332953,51.991227   L 21.31424,51.991227   L 21.31424,51.841126   L 21.332953,51.841126   L 21.332953,51.803601   L 21.351666,51.803601   L 21.351666,51.784838   L 21.37038,51.784838   L 21.37038,51.766076   L 21.389093,51.766076  "
     id="path61" />
  <path
     style="fill:none;stroke:#7f7f7f;stroke-width:0.018713117px;stroke-linecap:round;stroke-linejoin:round;stroke-miterlimit:4;stroke-dasharray:none;stroke-opacity:1;"
     d="  M 21.931773,52.272666   L 21.969199,52.235141   L 21.969199,52.216378   L 21.987912,52.216378   L 21.987912,52.197616   L 22.025339,52.160091   L 22.025339,52.141328   L 22.044052,52.141328   L 22.044052,52.103803   L 22.062765,52.103803   L 22.062765,52.066277   L 22.081478,52.047515   L 22.081478,52.00999   L 22.100191,51.991227   L 22.100191,51.841126   L 22.081478,51.822363   L 22.081478,51.766076   L 22.062765,51.766076   L 22.062765,51.72855   L 22.044052,51.72855   L 22.044052,51.691025   L 22.025339,51.691025   L 22.025339,51.6535   L 22.006625,51.6535   L 22.006625,51.634737   L 21.987912,51.634737   L 21.987912,51.615975   L 21.969199,51.615975   L 21.969199,51.597212   L 21.950486,51.597212   L 21.950486,51.578449   L 21.931773,51.578449   L 21.91306,51.559687   L 21.894347,51.559687  "
     id="path63" />
  <path
     style="fill:none;stroke:#7f7f7f;stroke-width:0.018713117px;stroke-linecap:round;stroke-linejoin:round;stroke-miterlimit:4;stroke-dasharray:none;stroke-opacity:1;"
     d="  M 21.875634,52.160091   L 21.875634,52.141328   L 21.894347,52.141328   L 21.894347,52.122565   L 21.91306,52.103803   L 21.91306,52.08504   L 21.931773,52.066277   L 21.931773,52.028752   L 21.950486,52.00999   L 21.950486,51.822363   L 21.931773,51.803601   L 21.931773,51.747313   L 21.91306,51.747313   L 21.91306,51.72855   L 21.894347,51.709788   L 21.894347,51.691025   L 21.856921,51.691025   L 21.856921,51.672262   L 21.838207,51.672262  "
     id="path65" />
  <path
     style="fill:none;stroke:#7f7f7f;stroke-width:0.018713117px;stroke-linecap:round;stroke-linejoin:round;stroke-miterlimit:4;stroke-dasharray:none;stroke-opacity:1;"
     d="  M 21.782068,52.066277   L 21.800781,52.066277   L 21.800781,52.047515   L 21.819494,52.047515   L 21.819494,52.028752   L 21.838207,52.028752   L 21.838207,51.991227   L 21.856921,51.991227   L 21.856921,51.841126   L 21.838207,51.841126   L 21.838207,51.803601   L 21.819494,51.803601   L 21.819494,51.784838   L 21.800781,51.784838   L 21.800781,51.766076   L 21.782068,51.766076  "
     id="path67" />
  <path
     style="fill:#7f7f7f;fill-rule:evenodd;fill-opacity:1;stroke:#7f7f7f;stroke-width:0.018713117px;stroke-linecap:round;stroke-linejoin:round;stroke-miterlimit:4;stroke-dasharray:none;stroke-opacity:1;"
     d="  M 21.501371,52.779257   L 21.557511,51.953702   L 21.651076,51.953702   L 21.707216,52.779257   L 21.501371,52.779257   z "
     id="path69" />
  <path
     style="fill:none;stroke:#7f7f7f;stroke-width:0.018713117px;stroke-linecap:round;stroke-linejoin:round;stroke-miterlimit:4;stroke-dasharray:none;stroke-opacity:1;"
     d="  M 25.580831,53.510999   L 25.562118,53.492237   L 25.562118,53.473474   L 25.543405,53.473474   L 25.543405,53.454712   L 25.524691,53.454712   L 25.524691,53.435949   L 25.505978,53.417186   L 25.505978,53.398424   L 25.487265,53.398424   L 25.487265,53.360898   L 25.468552,53.342136   L 25.468552,53.323373   L 25.449839,53.304611   L 25.449839,53.248323   L 25.431126,53.22956   L 25.431126,53.060696   L 25.449839,53.060696   L 25.449839,53.004409   L 25.468552,52.985646   L 25.468552,52.966883   L 25.487265,52.948121   L 25.487265,52.929358   L 25.505978,52.910596   L 25.505978,52.891833   L 25.580831,52.816782   L 25.599544,52.816782   L 25.618257,52.79802   L 25.63697,52.79802  "
     id="path71" />
  <path
     style="fill:none;stroke:#7f7f7f;stroke-width:0.018713117px;stroke-linecap:round;stroke-linejoin:round;stroke-miterlimit:4;stroke-dasharray:none;stroke-opacity:1;"
     d="  M 25.63697,53.398424   L 25.63697,53.379661   L 25.618257,53.379661   L 25.618257,53.360898   L 25.599544,53.342136   L 25.599544,53.323373   L 25.580831,53.304611   L 25.580831,53.267085   L 25.562118,53.248323   L 25.562118,53.060696   L 25.580831,53.041934   L 25.580831,53.004409   L 25.599544,52.985646   L 25.599544,52.966883   L 25.618257,52.948121   L 25.618257,52.929358   L 25.655683,52.929358   L 25.655683,52.910596   L 25.674396,52.910596  "
     id="path73" />
  <path
     style="fill:none;stroke:#7f7f7f;stroke-width:0.018713117px;stroke-linecap:round;stroke-linejoin:round;stroke-miterlimit:4;stroke-dasharray:none;stroke-opacity:1;"
     d="  M 25.749249,53.304611   L 25.730536,53.304611   L 25.730536,53.285848   L 25.711823,53.285848   L 25.711823,53.267085   L 25.69311,53.267085   L 25.69311,53.22956   L 25.674396,53.22956   L 25.674396,53.079459   L 25.69311,53.079459   L 25.69311,53.041934   L 25.711823,53.041934   L 25.711823,53.023171   L 25.730536,53.023171   L 25.730536,53.004409   L 25.749249,53.004409  "
     id="path75" />
  <path
     style="fill:none;stroke:#7f7f7f;stroke-width:0.018713117px;stroke-linecap:round;stroke-linejoin:round;stroke-miterlimit:4;stroke-dasharray:none;stroke-opacity:1;"
     d="  M 26.291929,53.510999   L 26.329356,53.473474   L 26.329356,53.454712   L 26.348069,53.454712   L 26.348069,53.435949   L 26.385495,53.398424   L 26.385495,53.379661   L 26.404208,53.379661   L 26.404208,53.342136   L 26.422921,53.342136   L 26.422921,53.304611   L 26.441634,53.285848   L 26.441634,53.248323   L 26.460347,53.22956   L 26.460347,53.079459   L 26.441634,53.060696   L 26.441634,53.004409   L 26.422921,53.004409   L 26.422921,52.966883   L 26.404208,52.966883   L 26.404208,52.929358   L 26.385495,52.929358   L 26.385495,52.891833   L 26.366782,52.891833   L 26.366782,52.87307   L 26.348069,52.87307   L 26.348069,52.854308   L 26.329356,52.854308   L 26.329356,52.835545   L 26.310642,52.835545   L 26.310642,52.816782   L 26.291929,52.816782   L 26.273216,52.79802   L 26.254503,52.79802  "
     id="path77" />
  <path
     style="fill:none;stroke:#7f7f7f;stroke-width:0.018713117px;stroke-linecap:round;stroke-linejoin:round;stroke-miterlimit:4;stroke-dasharray:none;stroke-opacity:1;"
     d="  M 26.23579,53.398424   L 26.23579,53.379661   L 26.254503,53.379661   L 26.254503,53.360898   L 26.273216,53.342136   L 26.273216,53.323373   L 26.291929,53.304611   L 26.291929,53.267085   L 26.310642,53.248323   L 26.310642,53.060696   L 26.291929,53.041934   L 26.291929,52.985646   L 26.273216,52.985646   L 26.273216,52.966883   L 26.254503,52.948121   L 26.254503,52.929358   L 26.217077,52.929358   L 26.217077,52.910596   L 26.198364,52.910596  "
     id="path79" />
  <path
     style="fill:none;stroke:#7f7f7f;stroke-width:0.018713117px;stroke-linecap:round;stroke-linejoin:round;stroke-miterlimit:4;stroke-dasharray:none;stroke-opacity:1;"
     d="  M 26.142224,53.304611   L 26.160937,53.304611   L 26.160937,53.285848   L 26.179651,53.285848   L 26.179651,53.267085   L 26.198364,53.267085   L 26.198364,53.22956   L 26.217077,53.22956   L 26.217077,53.079459   L 26.198364,53.079459   L 26.198364,53.041934   L 26.179651,53.041934   L 26.179651,53.023171   L 26.160937,53.023171   L 26.160937,53.004409   L 26.142224,53.004409  "
     id="path81" />
  <path
     style="fill:#7f7f7f;fill-rule:evenodd;fill-opacity:1;stroke:#7f7f7f;stroke-width:0.018713117px;stroke-linecap:round;stroke-linejoin:round;stroke-miterlimit:4;stroke-dasharray:none;stroke-opacity:1;"
     d="  M 25.861528,54.01759   L 25.917667,53.192035   L 26.011233,53.192035   L 26.067372,54.01759   L 25.861528,54.01759   z "
     id="path83" />
  <path
     style="fill:#7f7f7f;fill-rule:evenodd;fill-opacity:1;stroke:#7f7f7f;stroke-width:0.018713117px;stroke-linecap:round;stroke-linejoin:round;stroke-miterlimit:4;stroke-dasharray:none;stroke-opacity:1;"
     d="  M 35.012242,53.980065   L 35.049668,53.980065   L 35.049668,53.961302   L 35.068381,53.961302   L 35.068381,53.94254   L 35.087094,53.94254   L 35.087094,53.867489   L 35.068381,53.848727   L 35.068381,53.829964   L 35.049668,53.829964   L 35.049668,53.811201   L 35.030955,53.773676   L 35.012242,53.754914   L 34.956102,53.642338   L 34.918676,53.604813   L 34.88125,53.529762   L 34.862537,53.473474   L 34.825111,53.435949   L 34.768971,53.323373   L 34.731545,53.267085   L 34.675406,53.15451   L 34.637979,53.116984   L 34.600553,53.041934   L 34.58184,53.023171   L 34.544414,52.948121   L 34.525701,52.929358   L 34.525701,52.910596   L 34.506988,52.87307   L 34.488274,52.854308   L 34.488274,52.835545   L 34.469561,52.816782   L 34.469561,52.79802   L 34.450848,52.79802   L 34.450848,52.779257   L 34.413422,52.779257   L 34.413422,52.760495   L 34.375996,52.760495   L 34.375996,52.779257   L 34.33857,52.779257   L 34.28243,52.835545   L 34.28243,52.854308   L 34.263717,52.87307   L 34.263717,52.891833   L 34.226291,52.929358   L 34.188865,53.004409   L 34.170151,53.023171   L 34.095299,53.173272   L 34.057873,53.22956   L 34.020447,53.304611   L 33.98302,53.342136   L 33.964307,53.398424   L 33.945594,53.435949   L 33.908168,53.473474   L 33.889455,53.529762   L 33.852029,53.604813   L 33.814602,53.6611   L 33.73975,53.811201   L 33.721037,53.829964   L 33.702324,53.867489   L 33.68361,53.886252   L 33.68361,53.905015   L 33.664897,53.905015   L 33.664897,53.94254   L 33.68361,53.94254   L 33.68361,53.961302   L 33.702324,53.961302   L 33.721037,53.980065   L 35.012242,53.980065   L 34.974816,53.94254   L 35.030955,53.94254   L 35.030955,53.923777   L 35.049668,53.923777   L 35.049668,53.886252   L 35.030955,53.886252   L 35.030955,53.848727   L 34.993529,53.811201   L 34.993529,53.792439   L 34.974816,53.773676   L 34.956102,53.736151   L 34.937389,53.717388   L 34.899963,53.642338   L 34.88125,53.623575   L 34.750258,53.360898   L 34.712832,53.323373   L 34.619266,53.135747   L 34.600553,53.116984   L 34.563127,53.041934   L 34.544414,53.023171   L 34.544414,53.004409   L 34.525701,52.966883   L 34.506988,52.948121   L 34.506988,52.929358   L 34.488274,52.910596   L 34.488274,52.891833   L 34.469561,52.891833   L 34.469561,52.87307   L 34.450848,52.854308   L 34.450848,52.835545   L 34.432135,52.835545   L 34.432135,52.816782   L 34.413422,52.816782   L 34.413422,52.79802   L 34.375996,52.79802   L 34.357283,52.816782   L 34.33857,52.816782   L 34.33857,52.854308   L 34.319856,52.854308   L 34.319856,52.87307   L 34.301143,52.891833   L 34.301143,52.910596   L 34.263717,52.948121   L 34.263717,52.985646   L 34.245004,53.004409   L 34.226291,53.041934   L 34.207578,53.060696   L 34.170151,53.135747   L 34.151438,53.15451   L 34.114012,53.22956   L 34.076586,53.267085   L 34.057873,53.304611   L 34.03916,53.360898   L 34.020447,53.398424   L 33.98302,53.435949   L 33.852029,53.698626   L 33.833315,53.717388   L 33.795889,53.792439   L 33.758463,53.829964   L 33.758463,53.848727   L 33.73975,53.848727   L 33.73975,53.886252   L 33.721037,53.886252   L 33.721037,53.923777   L 33.73975,53.923777   L 33.73975,53.94254   L 34.974816,53.94254   L 34.993529,53.961302   L 35.012242,53.980065   z "
     id="path85" />
  <path
     style="fill:#7f7f7f;fill-rule:evenodd;fill-opacity:1;stroke:#7f7f7f;stroke-width:0.018713117px;stroke-linecap:round;stroke-linejoin:round;stroke-miterlimit:4;stroke-dasharray:none;stroke-opacity:1;"
     d="  M 34.375996,53.736151   L 34.375996,53.679863   L 34.394709,53.6611   L 34.394709,53.567287   L 34.413422,53.529762   L 34.413422,53.454712   L 34.432135,53.417186   L 34.432135,53.304611   L 34.450848,53.267085   L 34.450848,53.173272   L 34.469561,53.15451   L 34.469561,53.060696   L 34.450848,53.060696   L 34.450848,53.041934   L 34.432135,53.041934   L 34.413422,53.023171   L 34.33857,53.023171   L 34.33857,53.041934   L 34.319856,53.041934   L 34.319856,53.060696   L 34.301143,53.060696   L 34.301143,53.192035   L 34.319856,53.210797   L 34.319856,53.342136   L 34.33857,53.360898   L 34.33857,53.492237   L 34.357283,53.510999   L 34.357283,53.642338   L 34.375996,53.6611   L 34.375996,53.717388   L 34.375996,53.736151   z "
     id="path87" />
  <path
     style="fill:#7f7f7f;fill-rule:evenodd;fill-opacity:1;stroke:#7f7f7f;stroke-width:0.018713117px;stroke-linecap:round;stroke-linejoin:round;stroke-miterlimit:4;stroke-dasharray:none;stroke-opacity:1;"
     d="  M 38.829718,51.934939   L 38.848431,51.934939   L 38.848431,51.953702   L 38.867144,51.953702   L 38.885857,51.972464   L 38.90457,51.972464   L 38.90457,51.991227   L 38.923283,51.991227   L 38.923283,52.00999   L 38.941996,52.028752   L 38.960709,52.028752   L 38.960709,52.047515   L 38.998136,52.08504   L 38.998136,52.103803   L 39.016849,52.122565   L 39.016849,52.141328   L 39.035562,52.160091   L 39.035562,52.197616   L 39.054275,52.216378   L 39.054275,52.272666   L 39.072988,52.291429   L 39.072988,52.460293   L 39.054275,52.497818   L 39.054275,52.554106   L 39.035562,52.572868   L 39.035562,52.591631   L 39.016849,52.610394   L 39.016849,52.647919   L 38.979423,52.685444   L 38.979423,52.704207   L 38.867144,52.816782   L 38.848431,52.816782   L 38.811004,52.854308   L 38.792291,52.854308   L 38.773578,52.87307   L 38.736152,52.87307   L 38.717439,52.891833   L 38.6613,52.891833   L 38.642586,52.910596   L 38.492882,52.910596   L 38.474168,52.891833   L 38.418029,52.891833   L 38.399316,52.87307   L 38.36189,52.87307   L 38.343177,52.854308   L 38.324463,52.854308   L 38.287037,52.816782   L 38.268324,52.816782   L 38.156045,52.704207   L 38.156045,52.685444   L 38.118619,52.647919   L 38.118619,52.610394   L 38.099906,52.591631   L 38.099906,52.572868   L 38.081193,52.554106   L 38.081193,52.497818   L 38.06248,52.460293   L 38.06248,52.291429   L 38.081193,52.272666   L 38.081193,52.216378   L 38.099906,52.197616   L 38.099906,52.178853   L 38.118619,52.160091   L 38.118619,52.141328   L 38.137332,52.122565   L 38.137332,52.103803   L 38.156045,52.08504   L 38.156045,52.066277   L 38.174759,52.066277   L 38.174759,52.047515   L 38.268324,51.953702   L 38.268324,51.972464   L 38.287037,51.972464   L 38.287037,51.991227   L 38.30575,52.00999   L 38.30575,52.028752   L 38.324463,52.028752   L 38.324463,52.047515   L 38.249611,52.122565   L 38.249611,52.141328   L 38.230898,52.141328   L 38.230898,52.160091   L 38.212185,52.178853   L 38.212185,52.197616   L 38.193472,52.197616   L 38.193472,52.235141   L 38.174759,52.253904   L 38.174759,52.291429   L 38.156045,52.310192   L 38.156045,52.479055   L 38.174759,52.497818   L 38.174759,52.535343   L 38.193472,52.554106   L 38.193472,52.572868   L 38.212185,52.591631   L 38.212185,52.610394   L 38.230898,52.629156   L 38.230898,52.647919   L 38.268324,52.685444   L 38.287037,52.685444   L 38.287037,52.704207   L 38.324463,52.741732   L 38.343177,52.741732   L 38.36189,52.760495   L 38.380603,52.760495   L 38.399316,52.779257   L 38.418029,52.779257   L 38.418029,52.79802   L 38.474168,52.79802   L 38.492882,52.816782   L 38.642586,52.816782   L 38.6613,52.79802   L 38.717439,52.79802   L 38.754865,52.760495   L 38.773578,52.760495   L 38.792291,52.741732   L 38.811004,52.741732   L 38.90457,52.647919   L 38.90457,52.629156   L 38.923283,52.610394   L 38.923283,52.591631   L 38.941996,52.572868   L 38.941996,52.554106   L 38.960709,52.535343   L 38.960709,52.497818   L 38.979423,52.479055   L 38.979423,52.310192   L 38.960709,52.291429   L 38.960709,52.235141   L 38.941996,52.235141   L 38.941996,52.197616   L 38.923283,52.197616   L 38.923283,52.160091   L 38.90457,52.160091   L 38.90457,52.141328   L 38.885857,52.141328   L 38.885857,52.122565   L 38.867144,52.122565   L 38.867144,52.103803   L 38.848431,52.103803   L 38.848431,52.08504   L 38.829718,52.08504   L 38.792291,52.047515   L 38.773578,52.047515   L 38.773578,52.028752   L 38.754865,52.028752   L 38.754865,52.00999   L 38.773578,52.00999   L 38.773578,51.991227   L 38.792291,51.991227   L 38.792291,51.972464   L 38.811004,51.972464   L 38.811004,51.953702   L 38.829718,51.953702   L 38.829718,51.934939   z "
     id="path89" />
  <path
     style="fill:#7f7f7f;fill-rule:evenodd;fill-opacity:1;stroke:#7f7f7f;stroke-width:0.018713117px;stroke-linecap:round;stroke-linejoin:round;stroke-miterlimit:4;stroke-dasharray:none;stroke-opacity:1;"
     d="  M 38.60516,51.709788   L 38.492882,51.709788   L 38.492882,52.422767   L 38.60516,52.422767   L 38.60516,51.709788   z "
     id="path91" />
  <text
     xml:space="preserve"
     style="font-size:2.312500px;font-style:normal;font-variant:normal;font-weight:400;font-stretch:Normal;line-height:125.000000%;letter-spacing:0px;word-spacing:0px;fill:#000000;fill-opacity:1;stroke:none;font-family:Arial;text-align:start;text-anchor:start;"
     transform="matrix(1.000000,-0.000000,0.000000,1.000000,23.391396,32.590675)"
     x="0.000000"
     y="0.000000"
     id="text119"><tspan
       x="0.000000"
       y="0.000000"
       id="tspan117"><tspan
         dx="0.000000"
         dy="0.000000"
         style="fill:#BFBFBF;font-size:2.312500px;font-style:normal;font-variant:normal;font-weight:400;font-stretch:Normal;font-family:Arial;"
         id="tspan93">F</tspan><tspan
         dx="0.000000"
         dy="0.000000"
         style="fill:#BFBFBF;font-size:2.312500px;font-style:normal;font-variant:normal;font-weight:400;font-stretch:Normal;font-family:Arial;"
         id="tspan95">o</tspan><tspan
         dx="0.000000"
         dy="0.000000"
         style="fill:#BFBFBF;font-size:2.312500px;font-style:normal;font-variant:normal;font-weight:400;font-stretch:Normal;font-family:Arial;"
         id="tspan97">r</tspan><tspan
         dx="0.000000"
         dy="0.000000"
         style="fill:#BFBFBF;font-size:2.312500px;font-style:normal;font-variant:normal;font-weight:400;font-stretch:Normal;font-family:Arial;"
         id="tspan99">t</tspan><tspan
         dx="0.000000"
         dy="0.000000"
         style="fill:#BFBFBF;font-size:2.312500px;font-style:normal;font-variant:normal;font-weight:400;font-stretch:Normal;font-family:Arial;"
         id="tspan101">i</tspan><tspan
         dx="0.000000"
         dy="0.000000"
         style="fill:#BFBFBF;font-size:2.312500px;font-style:normal;font-variant:normal;font-weight:400;font-stretch:Normal;font-family:Arial;"
         id="tspan103">A</tspan><tspan
         dx="0.000000"
         dy="0.000000"
         style="fill:#BFBFBF;font-size:2.312500px;font-style:normal;font-variant:normal;font-weight:400;font-stretch:Normal;font-family:Arial;"
         id="tspan105">P</tspan><tspan
         dx="0.000000"
         dy="0.000000"
         style="fill:#BFBFBF;font-size:2.312500px;font-style:normal;font-variant:normal;font-weight:400;font-stretch:Normal;font-family:Arial;"
         id="tspan107"> </tspan><tspan
         dx="0.000000"
         dy="0.000000"
         style="fill:#BFBFBF;font-size:2.312500px;font-style:normal;font-variant:normal;font-weight:400;font-stretch:Normal;font-family:Arial;"
         id="tspan109">2</tspan><tspan
         dx="0.000000"
         dy="0.000000"
         style="fill:#BFBFBF;font-size:2.312500px;font-style:normal;font-variant:normal;font-weight:400;font-stretch:Normal;font-family:Arial;"
         id="tspan111">2</tspan><tspan
         dx="0.000000"
         dy="0.000000"
         style="fill:#BFBFBF;font-size:2.312500px;font-style:normal;font-variant:normal;font-weight:400;font-stretch:Normal;font-family:Arial;"
         id="tspan113">1</tspan><tspan
         dx="0.000000"
         dy="0.000000"
         style="fill:#BFBFBF;font-size:2.312500px;font-style:normal;font-variant:normal;font-weight:400;font-stretch:Normal;font-family:Arial;"
         id="tspan115">E</tspan></tspan></text>
  <path
     style="fill:#bfbfbf;fill-rule:evenodd;fill-opacity:1;stroke:#c1c1c1;stroke-width:0.018713117px;stroke-linecap:round;stroke-linejoin:round;stroke-miterlimit:4;stroke-dasharray:none;stroke-opacity:1;"
     d="  M 20.378584,29.607418   L 20.341158,29.607418   L 20.322445,29.588656   L 20.303732,29.588656   L 20.247593,29.532368   L 20.247593,29.513605   L 20.228879,29.494843   L 20.228879,27.54353   L 20.247593,27.524767   L 20.247593,27.506005   L 20.266306,27.487242   L 20.285019,27.487242   L 20.285019,27.468479   L 20.303732,27.449717   L 20.322445,27.449717   L 20.341158,27.430954   L 22.624158,27.430954   L 22.642871,27.449717   L 22.661585,27.449717   L 22.717724,27.506005   L 22.717724,27.524767   L 22.736437,27.54353   L 22.736437,27.937545   L 22.717724,27.937545   L 22.717724,27.918782   L 22.699011,27.90002   L 22.680298,27.90002   L 22.680298,27.881257   L 22.642871,27.881257   L 22.642871,27.862494   L 20.790273,27.862494   L 20.790273,27.881257   L 20.77156,27.881257   L 20.77156,27.90002   L 20.752847,27.90002   L 20.752847,27.918782   L 20.734134,27.918782   L 20.734134,29.55113   L 20.752847,29.55113   L 20.752847,29.588656   L 20.77156,29.588656   L 20.790273,29.607418   L 20.397297,29.607418   L 20.378584,29.607418   z "
     id="path121" />
  <path
     style="fill:#bfbfbf;fill-rule:evenodd;fill-opacity:1;stroke:#c1c1c1;stroke-width:0.018713117px;stroke-linecap:round;stroke-linejoin:round;stroke-miterlimit:4;stroke-dasharray:none;stroke-opacity:1;"
     d="  M 22.549306,28.350323   L 20.883838,28.350323   L 20.883838,28.33156   L 20.865125,28.33156   L 20.865125,28.312797   L 20.846412,28.312797   L 20.846412,28.294035   L 20.827699,28.275272   L 20.827699,28.706812   L 20.846412,28.706812   L 20.846412,28.725575   L 20.865125,28.725575   L 20.865125,28.744338   L 20.883838,28.744338   L 20.883838,28.7631   L 22.586732,28.7631   L 22.605445,28.744338   L 22.624158,28.744338   L 22.642871,28.725575   L 22.642871,28.706812   L 22.661585,28.68805   L 22.680298,28.68805   L 22.680298,28.669287   L 22.699011,28.650525   L 22.699011,28.612999   L 22.717724,28.612999   L 22.717724,28.500424   L 22.699011,28.481661   L 22.699011,28.462898   L 22.680298,28.444136   L 22.680298,28.425373   L 22.661585,28.425373   L 22.624158,28.387848   L 22.605445,28.387848   L 22.605445,28.369085   L 22.586732,28.369085   L 22.568019,28.350323   L 22.549306,28.350323   z "
     id="path123" />
  <path
     style="fill:#bfbfbf;fill-rule:evenodd;fill-opacity:1;stroke:#c1c1c1;stroke-width:0.018713117px;stroke-linecap:round;stroke-linejoin:round;stroke-miterlimit:4;stroke-dasharray:none;stroke-opacity:1;"
     d="  M 26.460347,28.7631   L 26.422921,28.7631   L 26.404208,28.744338   L 26.385495,28.744338   L 26.385495,28.725575   L 26.366782,28.725575   L 26.366782,28.706812   L 26.348069,28.706812   L 26.348069,28.275272   L 26.366782,28.294035   L 26.366782,28.312797   L 26.385495,28.312797   L 26.385495,28.33156   L 26.422921,28.33156   L 26.422921,28.350323   L 27.770266,28.350323   L 27.770266,27.862494   L 26.310642,27.862494   L 26.310642,27.881257   L 26.291929,27.881257   L 26.291929,27.90002   L 26.273216,27.90002   L 26.273216,27.918782   L 26.254503,27.918782   L 26.254503,29.532368   L 26.273216,29.532368   L 26.273216,29.569893   L 26.291929,29.569893   L 26.291929,29.588656   L 26.310642,29.588656   L 26.310642,29.607418   L 25.861528,29.607418   L 25.861528,29.588656   L 25.824101,29.588656   L 25.824101,29.569893   L 25.805388,29.569893   L 25.805388,29.55113   L 25.786675,29.55113   L 25.786675,29.513605   L 25.767962,29.513605   L 25.767962,27.524767   L 25.786675,27.524767   L 25.786675,27.487242   L 25.805388,27.487242   L 25.805388,27.468479   L 25.824101,27.468479   L 25.824101,27.449717   L 25.861528,27.449717   L 25.861528,27.430954   L 28.163241,27.430954   L 28.163241,27.449717   L 28.200667,27.449717   L 28.200667,27.468479   L 28.238093,27.506005   L 28.238093,27.524767   L 28.256807,27.54353   L 28.256807,28.612999   L 28.238093,28.612999   L 28.238093,28.650525   L 28.21938,28.650525   L 28.21938,28.669287   L 28.200667,28.68805   L 28.200667,28.706812   L 28.181954,28.706812   L 28.181954,28.725575   L 28.163241,28.725575   L 28.163241,28.744338   L 28.144528,28.744338   L 28.144528,28.7631   L 28.125815,28.7631   L 28.163241,28.800626   L 28.163241,28.819388   L 28.181954,28.819388   L 28.181954,28.838151   L 28.200667,28.838151   L 28.200667,28.856913   L 28.21938,28.875676   L 28.21938,28.894439   L 28.238093,28.894439   L 28.238093,28.931964   L 28.256807,28.931964   L 28.256807,29.532368   L 28.27552,29.532368   L 28.27552,29.569893   L 28.294233,29.569893   L 28.294233,29.588656   L 28.312946,29.588656   L 28.312946,29.607418   L 27.863831,29.607418   L 27.863831,29.588656   L 27.826405,29.588656   L 27.826405,29.569893   L 27.807692,29.569893   L 27.807692,29.55113   L 27.788979,29.55113   L 27.788979,29.513605   L 27.770266,29.513605   L 27.770266,28.7631   L 26.47906,28.7631   L 26.460347,28.7631   z "
     id="path125" />
  <path
     style="fill:#bfbfbf;fill-rule:evenodd;fill-opacity:1;stroke:#c1c1c1;stroke-width:0.018713117px;stroke-linecap:round;stroke-linejoin:round;stroke-miterlimit:4;stroke-dasharray:none;stroke-opacity:1;"
     d="  M 29.136323,27.862494   L 28.631069,27.862494   L 28.612356,27.843732   L 28.593643,27.843732   L 28.556216,27.806207   L 28.537503,27.806207   L 28.537503,27.768681   L 28.51879,27.768681   L 28.51879,27.54353   L 28.537503,27.524767   L 28.537503,27.506005   L 28.556216,27.487242   L 28.57493,27.487242   L 28.57493,27.468479   L 28.593643,27.449717   L 28.612356,27.449717   L 28.631069,27.430954   L 30.914069,27.430954   L 30.932782,27.449717   L 30.951495,27.449717   L 31.007635,27.506005   L 31.007635,27.524767   L 31.026348,27.54353   L 31.026348,27.937545   L 31.007635,27.937545   L 31.007635,27.918782   L 30.988922,27.90002   L 30.970209,27.90002   L 30.970209,27.881257   L 30.932782,27.881257   L 30.932782,27.862494   L 29.697717,27.862494   L 29.679003,27.881257   L 29.66029,27.881257   L 29.66029,27.90002   L 29.641577,27.90002   L 29.641577,27.918782   L 29.622864,27.937545   L 29.622864,29.532368   L 29.641577,29.532368   L 29.641577,29.569893   L 29.66029,29.569893   L 29.66029,29.588656   L 29.679003,29.588656   L 29.679003,29.607418   L 29.229889,29.607418   L 29.229889,29.588656   L 29.192462,29.588656   L 29.192462,29.569893   L 29.173749,29.569893   L 29.173749,29.55113   L 29.155036,29.55113   L 29.155036,29.513605   L 29.136323,29.513605   L 29.136323,27.918782   L 29.136323,27.862494   z "
     id="path127" />
  <path
     style="fill:#bfbfbf;fill-rule:evenodd;fill-opacity:1;stroke:#c1c1c1;stroke-width:0.018713117px;stroke-linecap:round;stroke-linejoin:round;stroke-miterlimit:4;stroke-dasharray:none;stroke-opacity:1;"
     d="  M 31.756159,29.47608   L 31.756159,29.532368   L 31.774873,29.532368   L 31.774873,29.569893   L 31.793586,29.569893   L 31.793586,29.588656   L 31.812299,29.588656   L 31.812299,29.607418   L 31.381897,29.607418   L 31.363184,29.588656   L 31.344471,29.588656   L 31.288331,29.532368   L 31.288331,29.513605   L 31.269618,29.494843   L 31.269618,27.487242   L 31.250905,27.487242   L 31.250905,27.449717   L 31.232192,27.449717   L 31.213479,27.430954   L 31.662594,27.430954   L 31.662594,27.449717   L 31.70002,27.449717   L 31.70002,27.468479   L 31.718733,27.468479   L 31.718733,27.487242   L 31.737446,27.487242   L 31.737446,27.524767   L 31.756159,27.524767   L 31.756159,29.457317   L 31.756159,29.47608   z "
     id="path129" />
  <path
     style="fill:#bfbfbf;fill-rule:evenodd;fill-opacity:1;stroke:#c1c1c1;stroke-width:0.018713117px;stroke-linecap:round;stroke-linejoin:round;stroke-miterlimit:4;stroke-dasharray:none;stroke-opacity:1;"
     d="  M 34.170151,27.862494   L 32.710528,27.862494   L 32.710528,27.881257   L 32.691815,27.881257   L 32.691815,27.90002   L 32.673102,27.90002   L 32.673102,27.918782   L 32.654389,27.918782   L 32.654389,29.532368   L 32.673102,29.532368   L 32.673102,29.569893   L 32.691815,29.569893   L 32.691815,29.588656   L 32.710528,29.588656   L 32.710528,29.607418   L 32.261414,29.607418   L 32.261414,29.588656   L 32.223987,29.588656   L 32.223987,29.569893   L 32.205274,29.569893   L 32.205274,29.55113   L 32.186561,29.55113   L 32.186561,29.513605   L 32.167848,29.513605   L 32.167848,27.524767   L 32.186561,27.524767   L 32.186561,27.487242   L 32.205274,27.487242   L 32.205274,27.468479   L 32.223987,27.468479   L 32.223987,27.449717   L 32.261414,27.449717   L 32.261414,27.430954   L 34.563127,27.430954   L 34.563127,27.449717   L 34.600553,27.449717   L 34.600553,27.468479   L 34.637979,27.506005   L 34.637979,27.524767   L 34.656693,27.54353   L 34.656693,29.532368   L 34.675406,29.532368   L 34.675406,29.569893   L 34.694119,29.569893   L 34.694119,29.588656   L 34.712832,29.588656   L 34.712832,29.607418   L 34.263717,29.607418   L 34.263717,29.588656   L 34.226291,29.588656   L 34.226291,29.569893   L 34.207578,29.569893   L 34.207578,29.55113   L 34.188865,29.55113   L 34.188865,29.513605   L 34.170151,29.513605   L 34.170151,27.918782   L 34.170151,27.862494   z "
     id="path131" />
  <path
     style="fill:#bfbfbf;fill-rule:evenodd;fill-opacity:1;stroke:#c1c1c1;stroke-width:0.018713117px;stroke-linecap:round;stroke-linejoin:round;stroke-miterlimit:4;stroke-dasharray:none;stroke-opacity:1;"
     d="  M 37.126824,28.350323   L 35.554922,28.350323   L 35.554922,28.33156   L 35.536209,28.33156   L 35.536209,28.312797   L 35.517496,28.312797   L 35.517496,28.294035   L 35.498783,28.275272   L 35.498783,28.706812   L 35.517496,28.706812   L 35.517496,28.725575   L 35.536209,28.725575   L 35.536209,28.744338   L 35.554922,28.744338   L 35.554922,28.7631   L 37.145537,28.7631   L 37.16425,28.744338   L 37.182963,28.744338   L 37.201676,28.725575   L 37.201676,28.706812   L 37.239103,28.669287   L 37.239103,28.650525   L 37.257816,28.631762   L 37.257816,28.594237   L 37.276529,28.575474   L 37.276529,28.519186   L 37.257816,28.500424   L 37.257816,28.462898   L 37.239103,28.444136   L 37.239103,28.425373   L 37.22039,28.425373   L 37.22039,28.40661   L 37.201676,28.40661   L 37.201676,28.387848   L 37.182963,28.387848   L 37.145537,28.350323   L 37.126824,28.350323   z "
     id="path133" />
  <path
     style="fill:#bfbfbf;fill-rule:evenodd;fill-opacity:1;stroke:#c1c1c1;stroke-width:0.018713117px;stroke-linecap:round;stroke-linejoin:round;stroke-miterlimit:4;stroke-dasharray:none;stroke-opacity:1;"
     d="  M 38.287037,27.862494   L 37.781783,27.862494   L 37.76307,27.843732   L 37.744357,27.843732   L 37.706931,27.806207   L 37.688217,27.806207   L 37.688217,27.768681   L 37.669504,27.768681   L 37.669504,27.54353   L 37.688217,27.524767   L 37.688217,27.506005   L 37.706931,27.487242   L 37.725644,27.487242   L 37.725644,27.468479   L 37.744357,27.449717   L 37.76307,27.449717   L 37.781783,27.430954   L 40.064783,27.430954   L 40.083496,27.449717   L 40.10221,27.449717   L 40.158349,27.506005   L 40.158349,27.524767   L 40.177062,27.54353   L 40.177062,27.937545   L 40.158349,27.937545   L 40.158349,27.918782   L 40.139636,27.90002   L 40.120923,27.90002   L 40.120923,27.881257   L 40.083496,27.881257   L 40.083496,27.862494   L 38.848431,27.862494   L 38.829718,27.881257   L 38.811004,27.881257   L 38.811004,27.90002   L 38.792291,27.90002   L 38.792291,27.918782   L 38.773578,27.937545   L 38.773578,29.532368   L 38.792291,29.532368   L 38.792291,29.569893   L 38.811004,29.569893   L 38.811004,29.588656   L 38.829718,29.588656   L 38.829718,29.607418   L 38.380603,29.607418   L 38.380603,29.588656   L 38.343177,29.588656   L 38.343177,29.569893   L 38.324463,29.569893   L 38.324463,29.55113   L 38.30575,29.55113   L 38.30575,29.513605   L 38.287037,29.513605   L 38.287037,27.918782   L 38.287037,27.862494   z "
     id="path135" />
  <path
     style="fill:#bfbfbf;fill-rule:evenodd;fill-opacity:1;stroke:#c1c1c1;stroke-width:0.018713117px;stroke-linecap:round;stroke-linejoin:round;stroke-miterlimit:4;stroke-dasharray:none;stroke-opacity:1;"
     d="  M 37.295242,29.175878   L 37.332668,29.175878   L 37.351381,29.157115   L 37.370094,29.157115   L 37.370094,29.138353   L 37.388808,29.138353   L 37.407521,29.11959   L 37.407521,29.100828   L 37.426234,29.100828   L 37.426234,29.494843   L 37.407521,29.513605   L 37.407521,29.532368   L 37.388808,29.55113   L 37.388808,29.569893   L 37.370094,29.569893   L 37.351381,29.588656   L 37.332668,29.588656   L 37.313955,29.607418   L 35.030955,29.607418   L 35.012242,29.588656   L 34.993529,29.588656   L 34.937389,29.532368   L 34.937389,29.513605   L 34.918676,29.494843   L 34.918676,27.54353   L 34.937389,27.524767   L 34.937389,27.506005   L 34.956102,27.487242   L 34.974816,27.487242   L 34.974816,27.468479   L 34.993529,27.449717   L 35.012242,27.449717   L 35.030955,27.430954   L 37.313955,27.430954   L 37.332668,27.449717   L 37.351381,27.449717   L 37.407521,27.506005   L 37.407521,27.524767   L 37.426234,27.54353   L 37.426234,27.937545   L 37.407521,27.937545   L 37.407521,27.918782   L 37.388808,27.90002   L 37.370094,27.90002   L 37.370094,27.881257   L 37.332668,27.881257   L 37.332668,27.862494   L 35.48007,27.862494   L 35.48007,27.881257   L 35.461357,27.881257   L 35.461357,27.90002   L 35.442643,27.90002   L 35.442643,27.918782   L 35.42393,27.918782   L 35.42393,29.175878   L 37.276529,29.175878   L 37.295242,29.175878   z "
     id="path137" />
  <path
     style="fill:#bfbfbf;fill-rule:evenodd;fill-opacity:1;stroke:#c1c1c1;stroke-width:0.018713117px;stroke-linecap:round;stroke-linejoin:round;stroke-miterlimit:4;stroke-dasharray:none;stroke-opacity:1;"
     d="  M 23.821798,28.969489   L 23.821798,29.588656   L 24.645175,29.588656   L 24.645175,28.969489   L 23.821798,28.969489   z "
     id="path139" />
  <path
     style="fill:#bfbfbf;fill-rule:evenodd;fill-opacity:1;stroke:#c1c1c1;stroke-width:0.018713117px;stroke-linecap:round;stroke-linejoin:round;stroke-miterlimit:4;stroke-dasharray:none;stroke-opacity:1;"
     d="  M 22.998421,28.218984   L 23.690806,28.218984   L 23.690806,28.819388   L 22.998421,28.819388   L 22.998421,28.218984   z "
     id="path141" />
  <path
     style="fill:#bfbfbf;fill-rule:evenodd;fill-opacity:1;stroke:#c1c1c1;stroke-width:0.018713117px;stroke-linecap:round;stroke-linejoin:round;stroke-miterlimit:4;stroke-dasharray:none;stroke-opacity:1;"
     d="  M 24.79488,28.969489   L 24.79488,29.588656   L 25.075577,29.588656   L 25.09429,29.569893   L 25.131716,29.569893   L 25.150429,29.55113   L 25.187855,29.55113   L 25.206568,29.532368   L 25.243995,29.532368   L 25.300134,29.47608   L 25.33756,29.457317   L 25.356273,29.438555   L 25.374987,29.401029   L 25.3937,29.382267   L 25.412413,29.344742   L 25.412413,29.325979   L 25.449839,29.250929   L 25.449839,29.213403   L 25.468552,29.175878   L 25.468552,29.11959   L 25.487265,29.082065   L 25.487265,28.969489   L 24.813593,28.969489   L 24.79488,28.969489   z "
     id="path143" />
  <path
     style="fill:#bfbfbf;fill-rule:evenodd;fill-opacity:1;stroke:#c1c1c1;stroke-width:0.018713117px;stroke-linecap:round;stroke-linejoin:round;stroke-miterlimit:4;stroke-dasharray:none;stroke-opacity:1;"
     d="  M 24.79488,28.218984   L 25.487265,28.218984   L 25.487265,28.819388   L 24.79488,28.819388   L 24.79488,28.218984   z "
     id="path145" />
  <path
     style="fill:#bfbfbf;fill-rule:evenodd;fill-opacity:1;stroke:#c1c1c1;stroke-width:0.018713117px;stroke-linecap:round;stroke-linejoin:round;stroke-miterlimit:4;stroke-dasharray:none;stroke-opacity:1;"
     d="  M 23.690806,28.969489   L 23.690806,29.588656   L 23.410109,29.588656   L 23.391396,29.569893   L 23.35397,29.569893   L 23.335257,29.55113   L 23.297831,29.55113   L 23.279117,29.532368   L 23.241691,29.532368   L 23.185552,29.47608   L 23.148126,29.457317   L 23.129413,29.438555   L 23.110699,29.401029   L 23.091986,29.382267   L 23.073273,29.344742   L 23.073273,29.325979   L 23.035847,29.250929   L 23.035847,29.213403   L 23.017134,29.175878   L 23.017134,29.11959   L 22.998421,29.082065   L 22.998421,28.969489   L 23.672093,28.969489   L 23.690806,28.969489   z "
     id="path147" />
  <path
     style="fill:#bfbfbf;fill-rule:evenodd;fill-opacity:1;stroke:#c1c1c1;stroke-width:0.018713117px;stroke-linecap:round;stroke-linejoin:round;stroke-miterlimit:4;stroke-dasharray:none;stroke-opacity:1;"
     d="  M 23.821798,27.449717   L 23.821798,28.068883   L 24.645175,28.068883   L 24.645175,27.449717   L 23.821798,27.449717   z "
     id="path149" />
  <path
     style="fill:#bfbfbf;fill-rule:evenodd;fill-opacity:1;stroke:#c1c1c1;stroke-width:0.018713117px;stroke-linecap:round;stroke-linejoin:round;stroke-miterlimit:4;stroke-dasharray:none;stroke-opacity:1;"
     d="  M 24.79488,28.068883   L 24.79488,27.449717   L 25.075577,27.449717   L 25.09429,27.468479   L 25.131716,27.468479   L 25.150429,27.487242   L 25.187855,27.487242   L 25.206568,27.506005   L 25.243995,27.506005   L 25.300134,27.562292   L 25.33756,27.581055   L 25.356273,27.599818   L 25.374987,27.637343   L 25.3937,27.656106   L 25.412413,27.693631   L 25.412413,27.712393   L 25.449839,27.787444   L 25.449839,27.824969   L 25.468552,27.862494   L 25.468552,27.918782   L 25.487265,27.956308   L 25.487265,28.068883   L 24.813593,28.068883   L 24.79488,28.068883   z "
     id="path151" />
  <path
     style="fill:#bfbfbf;fill-rule:evenodd;fill-opacity:1;stroke:#c1c1c1;stroke-width:0.018713117px;stroke-linecap:round;stroke-linejoin:round;stroke-miterlimit:4;stroke-dasharray:none;stroke-opacity:1;"
     d="  M 23.690806,28.068883   L 23.690806,27.449717   L 23.410109,27.449717   L 23.391396,27.468479   L 23.35397,27.468479   L 23.335257,27.487242   L 23.297831,27.487242   L 23.279117,27.506005   L 23.241691,27.506005   L 23.185552,27.562292   L 23.148126,27.581055   L 23.129413,27.599818   L 23.110699,27.637343   L 23.091986,27.656106   L 23.073273,27.693631   L 23.073273,27.712393   L 23.035847,27.787444   L 23.035847,27.824969   L 23.017134,27.862494   L 23.017134,27.918782   L 22.998421,27.956308   L 22.998421,28.068883   L 23.672093,28.068883   L 23.690806,28.068883   z "
     id="path153" />
  <text
     xml:space="preserve"
     style="font-size:0.625000px;font-style:normal;font-variant:normal;font-weight:400;font-stretch:Condensed;line-height:125.000000%;letter-spacing:0px;word-spacing:0px;fill:#000000;fill-opacity:1;stroke:none;font-family:Times New Roman;text-align:start;text-anchor:start;"
     transform="matrix(1.000000,-0.000000,0.000000,1.000000,39.447250,29.569893)"
     x="0.000000"
     y="0.000000"
     id="text159"><tspan
       x="0.000000"
       y="0.000000"
       id="tspan157"><tspan
         dx="0.000000"
         dy="0.000000"
         style="fill:#7F7F7F;font-size:0.625000px;font-style:normal;font-variant:normal;font-weight:400;font-stretch:Condensed;font-family:Times New Roman;"
         id="tspan155"></tspan></tspan></text>
  <ellipse
     style="fill:none;stroke:#000000;stroke-width:0.093565583px;stroke-linecap:round;stroke-linejoin:round;stroke-miterlimit:4;stroke-dasharray:none;stroke-opacity:1;"
     cx="30.128118"
     cy="30.198441"
     rx="30.090692"
     ry="30.081335"
     id="ellipse161" />
  <ellipse
     style="fill:none;stroke:#000000;stroke-width:0.093565583px;stroke-linecap:round;stroke-linejoin:round;stroke-miterlimit:4;stroke-dasharray:none;stroke-opacity:1;"
     cx="30.128118"
     cy="30.198441"
     rx="30.090692"
     ry="30.081335"
     id="ellipse163" />
  <ellipse
     style="fill:#00ff00;fill-rule:evenodd;fill-opacity:1;stroke:#000000;stroke-width:0.01797305px;stroke-linecap:round;stroke-linejoin:round;stroke-miterlimit:4;stroke-dasharray:none;stroke-opacity:1;"
     cx="30.077899"
     cy="8.8391033"
     rx="0.35047448"
     ry="0.35047448"
     id="ellipse165" />
  <ellipse
     style="fill:none;stroke:#000000;stroke-width:0.01797305px;stroke-linecap:round;stroke-linejoin:round;stroke-miterlimit:4;stroke-dasharray:none;stroke-opacity:1;"
     cx="30.077899"
     cy="8.8391033"
     rx="0.35047448"
     ry="0.35047448"
     id="ellipse167" />
</svg>
