<?xml version="1.0" encoding="UTF-8" standalone="no"?>
<svg
   version="1.0"
   width="21.26mm"
   height="21.1mm"
   id="svg335"
   xmlns="http://www.w3.org/2000/svg"
   xmlns:svg="http://www.w3.org/2000/svg">
  <defs
     id="defs3">
    <pattern
       id="EMFhbasepattern"
       patternUnits="userSpaceOnUse"
       width="6"
       height="6"
       x="0"
       y="0" />
  </defs>
  <path
     style="fill:#dddddd;fill-rule:evenodd;fill-opacity:1;stroke:#000000;stroke-width:0.018728733px;stroke-linecap:round;stroke-linejoin:round;stroke-miterlimit:4;stroke-dasharray:none;stroke-opacity:1;"
     d="  M 10.843937,39.520684   M 11.836559,39.070519   M 12.623166,39.895821   M 12.623166,39.895821   M 11.106139,39.895821   M 10.843937,45.822985   M 11.836559,45.372821   M 12.623166,46.198122   M 11.106139,46.198122   M 80.084063,22.114327   L 79.597116,22.114327   L 79.597116,27.947707   L 80.084063,27.947707   L 80.084063,22.114327   z "
     id="path5" />
  <path
     style="fill:#333333;fill-rule:evenodd;fill-opacity:1;stroke:#000000;stroke-width:0.018728733px;stroke-linecap:round;stroke-linejoin:round;stroke-miterlimit:4;stroke-dasharray:none;stroke-opacity:1;"
     d="  M 80.084063,36.950995   L 79.597116,36.950995   L 79.597116,42.784376   L 80.084063,42.784376   L 80.084063,36.950995   z "
     id="path7" />
  <path
     style="fill:#333333;fill-rule:evenodd;fill-opacity:1;stroke:#000000;stroke-width:0.018728733px;stroke-linecap:round;stroke-linejoin:round;stroke-miterlimit:4;stroke-dasharray:none;stroke-opacity:1;"
     d="  M 80.084063,51.825178   L 79.597116,51.825178   L 79.597116,57.658558   L 80.084063,57.658558   L 80.084063,51.825178   z "
     id="path9" />
  <path
     style="fill:#d1d1d1;fill-rule:evenodd;fill-opacity:1;stroke:#000000;stroke-width:0.093643665px;stroke-linecap:round;stroke-linejoin:round;stroke-miterlimit:4;stroke-dasharray:none;stroke-opacity:1;"
     d="  M 79.597116,17.087491   L 79.578388,16.205919   L 79.503473,15.343104   L 79.409829,14.499045   L 79.259999,13.654987   L 79.053983,12.829686   L 78.829238,12.023141   L 78.567036,11.216597   L 78.267376,10.447566   L 77.91153,9.6972916   L 77.536956,8.9657745   L 77.124924,8.2530142   L 76.694163,7.5590107   L 76.207216,6.8837641   L 75.70154,6.2460312   L 75.177135,5.6270551   L 74.615273,5.0268359   L 74.015954,4.4641304   L 73.397906,3.9389386   L 72.761129,3.4325036   L 72.086894,2.9448255   L 71.393931,2.5134179   L 70.682239,2.1007672   L 69.951819,1.7256302   L 69.202669,1.3692501   L 68.434791,1.0691405   L 67.629456,0.80654457   L 66.82412,0.58146236   L 66.000056,0.37513701   L 65.157263,0.2250822   L 64.31447,0.13129795   L 63.452948,0.056270551   L 62.572698,0.037513701   L 17.061876,0.037513701   L 16.181626,0.056270551   L 15.320104,0.13129795   L 14.477311,0.2250822   L 13.634518,0.37513701   L 12.810454,0.58146236   L 12.005118,0.80654457   L 11.199782,1.0691405   L 10.431904,1.3692501   L 9.6827551,1.7256302   L 8.9523345,2.1007672   L 8.2406426,2.5134179   L 7.5476795,2.9448255   L 6.8734451,3.4325036   L 6.2366682,3.9389386   L 5.61862,4.4641304   L 5.0193005,5.0268359   L 4.4574385,5.6270551   L 3.933034,6.2460312   L 3.4273582,6.8837641   L 2.9404111,7.5590107   L 2.5096503,8.2530142   L 2.0976181,8.9657745   L 1.7230435,9.6972916   L 1.3671975,10.447566   L 1.0675378,11.216597   L 0.80533553,12.023141   L 0.58059073,12.829686   L 0.37457466,13.654987   L 0.2247448,14.499045   L 0.13110113,15.343104   L 0.0561862,16.205919   L 0.037457466,17.087491   L 0.037457466,62.666637   L 0.0561862,63.548209   L 0.13110113,64.411024   L 0.2247448,65.255082   L 0.37457466,66.099141   L 0.58059073,66.924442   L 0.80533553,67.730987   L 1.0675378,68.537531   L 1.3671975,69.306562   L 1.7230435,70.056836   L 2.0976181,70.788353   L 2.5096503,71.501114   L 2.9404111,72.195117   L 3.4273582,72.870364   L 3.933034,73.508097   L 4.4574385,74.127073   L 5.0193005,74.727292   L 5.61862,75.289997   L 6.2366682,75.815189   L 6.8734451,76.321624   L 7.5476795,76.809302   L 8.2406426,77.24071   L 8.9523345,77.65336   L 9.6827551,78.028497   L 10.431904,78.384878   L 11.199782,78.684987   L 12.005118,78.947583   L 12.810454,79.172665   L 13.634518,79.378991   L 14.477311,79.529046   L 15.320104,79.62283   L 16.181626,79.697857   L 17.061876,79.716614   L 62.572698,79.716614   L 63.452948,79.697857   L 64.31447,79.62283   L 65.157263,79.529046   L 66.000056,79.378991   L 66.82412,79.172665   L 67.629456,78.947583   L 68.434791,78.684987   L 69.202669,78.384878   L 69.951819,78.028497   L 70.682239,77.65336   L 71.393931,77.24071   L 72.086894,76.809302   L 72.761129,76.321624   L 73.397906,75.815189   L 74.015954,75.289997   L 74.615273,74.727292   L 75.177135,74.127073   L 75.70154,73.508097   L 76.207216,72.870364   L 76.694163,72.195117   L 77.124924,71.501114   L 77.536956,70.788353   L 77.91153,70.056836   L 78.267376,69.306562   L 78.567036,68.537531   L 78.829238,67.730987   L 79.053983,66.924442   L 79.259999,66.099141   L 79.409829,65.255082   L 79.503473,64.411024   L 79.578388,63.548209   L 79.597116,62.666637   L 79.597116,17.087491   z "
     id="path11" />
  <path
     style="fill:#eaeaea;fill-rule:evenodd;fill-opacity:1;stroke:#eaeaea;stroke-width:0.093643665px;stroke-linecap:round;stroke-linejoin:round;stroke-miterlimit:4;stroke-dasharray:none;stroke-opacity:1;"
     d="  M 78.81051,17.725224   L 78.791781,16.862408   L 78.716866,15.999593   L 78.623222,15.155535   L 78.473392,14.330234   L 78.286105,13.504932   L 78.06136,12.698388   L 77.780429,11.929357   L 77.480769,11.160326   L 77.143652,10.410052   L 76.769078,9.6785348   L 76.375774,8.9657745   L 75.926285,8.2905279   L 75.458066,7.6340381   L 74.95239,6.9963052   L 74.427986,6.3773291   L 73.866124,5.7958668   L 73.285533,5.2331613   L 72.667485,4.7079694   L 72.030708,4.2015345   L 71.375202,3.7326132   L 70.700968,3.2824488   L 69.989276,2.888555   L 69.258856,2.5134179   L 68.509706,2.1757946   L 67.741828,1.875685   L 66.97395,1.5943323   L 66.168615,1.3692501   L 65.34455,1.1816816   L 64.520486,1.0316268   L 63.677693,0.93784252   L 62.816171,0.86281512   L 61.95465,0.84405827   L 17.698653,0.84405827   L 16.837131,0.86281512   L 15.975609,0.93784252   L 15.132816,1.0316268   L 14.308752,1.1816816   L 13.484688,1.3692501   L 12.679352,1.5943323   L 11.911474,1.875685   L 11.143596,2.1757946   L 10.394447,2.5134179   L 9.6640264,2.888555   L 8.9523345,3.2824488   L 8.2781001,3.7326132   L 7.6225944,4.2015345   L 6.9858175,4.7079694   L 6.3677693,5.2331613   L 5.7871786,5.7958668   L 5.2253166,6.3773291   L 4.700912,6.9963052   L 4.1952362,7.6340381   L 3.7270179,8.2905279   L 3.2775283,8.9657745   L 2.8842249,9.6785348   L 2.5096503,10.410052   L 2.1725331,11.160326   L 1.8728733,11.929357   L 1.5919423,12.698388   L 1.3671975,13.504932   L 1.1799102,14.330234   L 1.0300803,15.155535   L 0.93643666,15.999593   L 0.86152173,16.862408   L 0.842793,17.725224   L 0.842793,62.047661   L 0.86152173,62.910476   L 0.93643666,63.773291   L 1.0300803,64.617349   L 1.1799102,65.442651   L 1.3671975,66.267952   L 1.5919423,67.074497   L 1.8728733,67.843528   L 2.1725331,68.612559   L 2.5096503,69.362833   L 2.8842249,70.09435   L 3.2775283,70.80711   L 3.7270179,71.482357   L 4.1952362,72.138846   L 4.700912,72.776579   L 5.2253166,73.395555   L 5.7871786,73.977018   L 6.3677693,74.539723   L 6.9858175,75.064915   L 7.6225944,75.57135   L 8.2781001,76.040271   L 8.9523345,76.490436   L 9.6640264,76.88433   L 10.394447,77.259467   L 11.143596,77.59709   L 11.911474,77.8972   L 12.679352,78.178552   L 13.484688,78.403635   L 14.308752,78.591203   L 15.132816,78.741258   L 15.975609,78.835042   L 16.837131,78.910069   L 17.698653,78.928826   L 61.95465,78.928826   L 62.816171,78.910069   L 63.677693,78.835042   L 64.520486,78.741258   L 65.34455,78.591203   L 66.168615,78.403635   L 66.97395,78.178552   L 67.741828,77.8972   L 68.509706,77.59709   L 69.258856,77.259467   L 69.989276,76.88433   L 70.700968,76.490436   L 71.375202,76.040271   L 72.030708,75.57135   L 72.667485,75.064915   L 73.285533,74.539723   L 73.866124,73.977018   L 74.427986,73.395555   L 74.95239,72.776579   L 75.458066,72.138846   L 75.926285,71.482357   L 76.375774,70.80711   L 76.769078,70.09435   L 77.143652,69.362833   L 77.480769,68.612559   L 77.780429,67.843528   L 78.06136,67.074497   L 78.286105,66.267952   L 78.473392,65.442651   L 78.623222,64.617349   L 78.716866,63.773291   L 78.791781,62.910476   L 78.81051,62.047661   L 78.81051,17.725224   z "
     id="path13" />
  <path
     style="fill:#d8d8d8;fill-rule:evenodd;fill-opacity:1;stroke:#d8d8d8;stroke-width:0.018728733px;stroke-linecap:round;stroke-linejoin:round;stroke-miterlimit:4;stroke-dasharray:none;stroke-opacity:1;"
     d="  M 9.1583506,27.159919   L 4.6447258,27.159919   L 4.6072684,27.178676   L 4.5698109,27.178676   L 4.494896,27.21619   L 4.4574385,27.21619   L 4.3450661,27.27246   L 4.3263374,27.291217   L 4.2888799,27.309974   L 4.2326937,27.366245   L 4.1952362,27.385002   L 4.1765075,27.422515   L 4.1203213,27.478786   L 4.1015926,27.516299   L 4.0828638,27.535056   L 4.0266776,27.647597   L 4.0266776,27.685111   L 3.9892202,27.760139   L 3.9892202,27.797652   L 3.9704914,27.835166   L 3.9704914,28.060248   L 3.9892202,28.097762   L 3.9892202,28.135276   L 4.0266776,28.210303   L 4.0266776,28.247817   L 4.0828638,28.360358   L 4.1015926,28.379115   L 4.1203213,28.416628   L 4.1765075,28.472899   L 4.1952362,28.510413   L 4.2326937,28.529169   L 4.2888799,28.58544   L 4.3263374,28.604197   L 4.3450661,28.622954   L 4.4574385,28.679224   L 4.494896,28.679224   L 4.5698109,28.716738   L 4.6072684,28.716738   L 4.6447258,28.735495   L 9.1770793,28.735495   L 9.2145368,28.716738   L 9.3269092,28.604197   L 9.3456379,28.547926   L 9.3830954,28.510413   L 9.4392816,28.341601   L 9.4580103,28.266573   L 9.476739,28.210303   L 9.476739,28.135276   L 9.4954678,28.079005   L 9.4954678,27.722625   L 9.476739,27.666354   L 9.476739,27.591327   L 9.4018241,27.366245   L 9.3643666,27.291217   L 9.3269092,27.253704   L 9.3081804,27.21619   L 9.195808,27.159919   L 9.1583506,27.159919   z "
     id="path15" />
  <path
     style="fill:none;stroke:#bfbfbf;stroke-width:0.018728733px;stroke-linecap:round;stroke-linejoin:round;stroke-miterlimit:4;stroke-dasharray:none;stroke-opacity:1;"
     d="  M 9.5329252,27.159919   L 4.6447258,27.159919   L 4.6072684,27.178676   L 4.5698109,27.178676   L 4.494896,27.21619   L 4.4574385,27.21619   L 4.3450661,27.27246   L 4.3263374,27.291217   L 4.2888799,27.309974   L 4.2326937,27.366245   L 4.1952362,27.385002   L 4.1765075,27.422515   L 4.1203213,27.478786   L 4.1015926,27.516299   L 4.0828638,27.535056   L 4.0266776,27.647597   L 4.0266776,27.685111   L 3.9892202,27.760139   L 3.9892202,27.797652   L 3.9704914,27.835166   L 3.9704914,28.060248   L 3.9892202,28.097762   L 3.9892202,28.135276   L 4.0266776,28.210303   L 4.0266776,28.247817   L 4.0828638,28.360358   L 4.1015926,28.379115   L 4.1203213,28.416628   L 4.1765075,28.472899   L 4.1952362,28.510413   L 4.2326937,28.529169   L 4.2888799,28.58544   L 4.3263374,28.604197   L 4.3450661,28.622954   L 4.4574385,28.679224   L 4.494896,28.679224   L 4.5698109,28.716738   L 4.6072684,28.716738   L 4.6447258,28.735495   L 9.5141965,28.735495   L 9.5329252,28.735495  "
     id="path17" />
  <path
     style="fill:#00ff00;fill-rule:evenodd;fill-opacity:1;stroke:#000000;stroke-width:0.018728733px;stroke-linecap:round;stroke-linejoin:round;stroke-miterlimit:4;stroke-dasharray:none;stroke-opacity:1;"
     d="  M 5.262774,27.385002   L 4.8320132,27.385002   L 4.8320132,28.529169   L 5.262774,28.529169   L 5.262774,27.385002   z "
     id="path19" />
  <path
     style="fill:#00ff00;fill-rule:evenodd;fill-opacity:1;stroke:#000000;stroke-width:0.018728733px;stroke-linecap:round;stroke-linejoin:round;stroke-miterlimit:4;stroke-dasharray:none;stroke-opacity:1;"
     d="  M 6.9109026,27.385002   L 6.4801417,27.385002   L 6.4801417,28.529169   L 6.9109026,28.529169   L 6.9109026,27.385002   z "
     id="path21" />
  <path
     style="fill:#d8d8d8;fill-rule:evenodd;fill-opacity:1;stroke:#d8d8d8;stroke-width:0.018728733px;stroke-linecap:round;stroke-linejoin:round;stroke-miterlimit:4;stroke-dasharray:none;stroke-opacity:1;"
     d="  M 9.1583506,33.124598   L 4.6447258,33.124598   L 4.6072684,33.143355   L 4.5698109,33.143355   L 4.494896,33.180868   L 4.4574385,33.180868   L 4.3450661,33.237139   L 4.3263374,33.255896   L 4.2888799,33.274653   L 4.2326937,33.330923   L 4.1952362,33.34968   L 4.1765075,33.387194   L 4.1203213,33.443464   L 4.1015926,33.480978   L 4.0828638,33.499735   L 4.0266776,33.612276   L 4.0266776,33.64979   L 3.9892202,33.724817   L 3.9892202,33.762331   L 3.9704914,33.799844   L 3.9704914,34.024927   L 3.9892202,34.06244   L 3.9892202,34.099954   L 4.0266776,34.174981   L 4.0266776,34.212495   L 4.0828638,34.325036   L 4.1015926,34.343793   L 4.1203213,34.381307   L 4.1765075,34.437577   L 4.1952362,34.475091   L 4.2326937,34.493848   L 4.2888799,34.550118   L 4.3263374,34.568875   L 4.3450661,34.587632   L 4.4574385,34.643903   L 4.494896,34.643903   L 4.5698109,34.681416   L 4.6072684,34.681416   L 4.6447258,34.700173   L 9.1770793,34.700173   L 9.2145368,34.681416   L 9.3269092,34.568875   L 9.3456379,34.512605   L 9.3830954,34.475091   L 9.4392816,34.306279   L 9.4580103,34.231252   L 9.476739,34.174981   L 9.476739,34.099954   L 9.4954678,34.043683   L 9.4954678,33.687303   L 9.476739,33.631033   L 9.476739,33.556005   L 9.4018241,33.330923   L 9.3643666,33.255896   L 9.3269092,33.218382   L 9.3081804,33.180868   L 9.195808,33.124598   L 9.1583506,33.124598   z "
     id="path23" />
  <path
     style="fill:none;stroke:#bfbfbf;stroke-width:0.018728733px;stroke-linecap:round;stroke-linejoin:round;stroke-miterlimit:4;stroke-dasharray:none;stroke-opacity:1;"
     d="  M 9.5329252,33.124598   L 4.6447258,33.124598   L 4.6072684,33.143355   L 4.5698109,33.143355   L 4.494896,33.180868   L 4.4574385,33.180868   L 4.3450661,33.237139   L 4.3263374,33.255896   L 4.2888799,33.274653   L 4.2326937,33.330923   L 4.1952362,33.34968   L 4.1765075,33.387194   L 4.1203213,33.443464   L 4.1015926,33.480978   L 4.0828638,33.499735   L 4.0266776,33.612276   L 4.0266776,33.64979   L 3.9892202,33.724817   L 3.9892202,33.762331   L 3.9704914,33.799844   L 3.9704914,34.024927   L 3.9892202,34.06244   L 3.9892202,34.099954   L 4.0266776,34.174981   L 4.0266776,34.212495   L 4.0828638,34.325036   L 4.1015926,34.343793   L 4.1203213,34.381307   L 4.1765075,34.437577   L 4.1952362,34.475091   L 4.2326937,34.493848   L 4.2888799,34.550118   L 4.3263374,34.568875   L 4.3450661,34.587632   L 4.4574385,34.643903   L 4.494896,34.643903   L 4.5698109,34.681416   L 4.6072684,34.681416   L 4.6447258,34.700173   L 9.5141965,34.700173   L 9.5329252,34.700173  "
     id="path25" />
  <path
     style="fill:#00ff00;fill-rule:evenodd;fill-opacity:1;stroke:#000000;stroke-width:0.018728733px;stroke-linecap:round;stroke-linejoin:round;stroke-miterlimit:4;stroke-dasharray:none;stroke-opacity:1;"
     d="  M 5.262774,33.34968   L 4.8320132,33.34968   L 4.8320132,34.493848   L 5.262774,34.493848   L 5.262774,33.34968   z "
     id="path27" />
  <path
     style="fill:#00ff00;fill-rule:evenodd;fill-opacity:1;stroke:#000000;stroke-width:0.018728733px;stroke-linecap:round;stroke-linejoin:round;stroke-miterlimit:4;stroke-dasharray:none;stroke-opacity:1;"
     d="  M 6.9109026,33.34968   L 6.4801417,33.34968   L 6.4801417,34.493848   L 6.9109026,34.493848   L 6.9109026,33.34968   z "
     id="path29" />
  <path
     style="fill:#d8d8d8;fill-rule:evenodd;fill-opacity:1;stroke:#d8d8d8;stroke-width:0.018728733px;stroke-linecap:round;stroke-linejoin:round;stroke-miterlimit:4;stroke-dasharray:none;stroke-opacity:1;"
     d="  M 9.1583506,39.089276   L 4.6447258,39.089276   L 4.6072684,39.108033   L 4.5698109,39.108033   L 4.494896,39.145547   L 4.4574385,39.145547   L 4.3450661,39.201817   L 4.3263374,39.220574   L 4.2888799,39.239331   L 4.2326937,39.295602   L 4.1952362,39.314358   L 4.1765075,39.351872   L 4.1203213,39.408143   L 4.1015926,39.445656   L 4.0828638,39.464413   L 4.0266776,39.576954   L 4.0266776,39.614468   L 3.9892202,39.689495   L 3.9892202,39.727009   L 3.9704914,39.764523   L 3.9704914,39.989605   L 3.9892202,40.027119   L 3.9892202,40.064632   L 4.0266776,40.13966   L 4.0266776,40.177173   L 4.0828638,40.289715   L 4.1015926,40.308471   L 4.1203213,40.345985   L 4.1765075,40.402256   L 4.1952362,40.439769   L 4.2326937,40.458526   L 4.2888799,40.514797   L 4.3263374,40.533554   L 4.3450661,40.55231   L 4.4574385,40.608581   L 4.494896,40.608581   L 4.5698109,40.646095   L 4.6072684,40.646095   L 4.6447258,40.664852   L 9.1770793,40.664852   L 9.2145368,40.646095   L 9.3269092,40.533554   L 9.3456379,40.477283   L 9.3830954,40.439769   L 9.4392816,40.270958   L 9.4580103,40.19593   L 9.476739,40.13966   L 9.476739,40.064632   L 9.4954678,40.008362   L 9.4954678,39.651982   L 9.476739,39.595711   L 9.476739,39.520684   L 9.4018241,39.295602   L 9.3643666,39.220574   L 9.3269092,39.18306   L 9.3081804,39.145547   L 9.195808,39.089276   L 9.1583506,39.089276   z "
     id="path31" />
  <path
     style="fill:none;stroke:#bfbfbf;stroke-width:0.018728733px;stroke-linecap:round;stroke-linejoin:round;stroke-miterlimit:4;stroke-dasharray:none;stroke-opacity:1;"
     d="  M 9.5329252,39.089276   L 4.6447258,39.089276   L 4.6072684,39.108033   L 4.5698109,39.108033   L 4.494896,39.145547   L 4.4574385,39.145547   L 4.3450661,39.201817   L 4.3263374,39.220574   L 4.2888799,39.239331   L 4.2326937,39.295602   L 4.1952362,39.314358   L 4.1765075,39.351872   L 4.1203213,39.408143   L 4.1015926,39.445656   L 4.0828638,39.464413   L 4.0266776,39.576954   L 4.0266776,39.614468   L 3.9892202,39.689495   L 3.9892202,39.727009   L 3.9704914,39.764523   L 3.9704914,39.989605   L 3.9892202,40.027119   L 3.9892202,40.064632   L 4.0266776,40.13966   L 4.0266776,40.177173   L 4.0828638,40.289715   L 4.1015926,40.308471   L 4.1203213,40.345985   L 4.1765075,40.402256   L 4.1952362,40.439769   L 4.2326937,40.458526   L 4.2888799,40.514797   L 4.3263374,40.533554   L 4.3450661,40.55231   L 4.4574385,40.608581   L 4.494896,40.608581   L 4.5698109,40.646095   L 4.6072684,40.646095   L 4.6447258,40.664852   L 9.5141965,40.664852   L 9.5329252,40.664852  "
     id="path33" />
  <path
     style="fill:#00ff00;fill-rule:evenodd;fill-opacity:1;stroke:#000000;stroke-width:0.018728733px;stroke-linecap:round;stroke-linejoin:round;stroke-miterlimit:4;stroke-dasharray:none;stroke-opacity:1;"
     d="  M 5.262774,39.314358   L 4.8320132,39.314358   L 4.8320132,40.458526   L 5.262774,40.458526   L 5.262774,39.314358   z "
     id="path35" />
  <path
     style="fill:#00ff00;fill-rule:evenodd;fill-opacity:1;stroke:#000000;stroke-width:0.018728733px;stroke-linecap:round;stroke-linejoin:round;stroke-miterlimit:4;stroke-dasharray:none;stroke-opacity:1;"
     d="  M 6.9109026,39.314358   L 6.4801417,39.314358   L 6.4801417,40.458526   L 6.9109026,40.458526   L 6.9109026,39.314358   z "
     id="path37" />
  <path
     style="fill:#d8d8d8;fill-rule:evenodd;fill-opacity:1;stroke:#d8d8d8;stroke-width:0.018728733px;stroke-linecap:round;stroke-linejoin:round;stroke-miterlimit:4;stroke-dasharray:none;stroke-opacity:1;"
     d="  M 9.1583506,45.053955   L 4.6447258,45.053955   L 4.6072684,45.072711   L 4.5698109,45.072711   L 4.494896,45.110225   L 4.4574385,45.110225   L 4.3450661,45.166496   L 4.3263374,45.185253   L 4.2888799,45.204009   L 4.2326937,45.26028   L 4.1952362,45.279037   L 4.1765075,45.31655   L 4.1203213,45.372821   L 4.1015926,45.410335   L 4.0828638,45.429092   L 4.0266776,45.541633   L 4.0266776,45.579146   L 3.9892202,45.654174   L 3.9892202,45.691687   L 3.9704914,45.729201   L 3.9704914,45.954283   L 3.9892202,45.991797   L 3.9892202,46.029311   L 4.0266776,46.104338   L 4.0266776,46.141852   L 4.0828638,46.254393   L 4.1015926,46.27315   L 4.1203213,46.310664   L 4.1765075,46.366934   L 4.1952362,46.404448   L 4.2326937,46.423205   L 4.2888799,46.479475   L 4.3263374,46.498232   L 4.3450661,46.516989   L 4.4574385,46.573259   L 4.494896,46.573259   L 4.5698109,46.610773   L 4.6072684,46.610773   L 4.6447258,46.62953   L 9.1770793,46.62953   L 9.2145368,46.610773   L 9.3269092,46.498232   L 9.3456379,46.441961   L 9.3830954,46.404448   L 9.4392816,46.235636   L 9.4580103,46.160609   L 9.476739,46.104338   L 9.476739,46.029311   L 9.4954678,45.97304   L 9.4954678,45.61666   L 9.476739,45.56039   L 9.476739,45.485362   L 9.4018241,45.26028   L 9.3643666,45.185253   L 9.3269092,45.147739   L 9.3081804,45.110225   L 9.195808,45.053955   L 9.1583506,45.053955   z "
     id="path39" />
  <path
     style="fill:none;stroke:#bfbfbf;stroke-width:0.018728733px;stroke-linecap:round;stroke-linejoin:round;stroke-miterlimit:4;stroke-dasharray:none;stroke-opacity:1;"
     d="  M 9.5329252,45.053955   L 4.6447258,45.053955   L 4.6072684,45.072711   L 4.5698109,45.072711   L 4.494896,45.110225   L 4.4574385,45.110225   L 4.3450661,45.166496   L 4.3263374,45.185253   L 4.2888799,45.204009   L 4.2326937,45.26028   L 4.1952362,45.279037   L 4.1765075,45.31655   L 4.1203213,45.372821   L 4.1015926,45.410335   L 4.0828638,45.429092   L 4.0266776,45.541633   L 4.0266776,45.579146   L 3.9892202,45.654174   L 3.9892202,45.691687   L 3.9704914,45.729201   L 3.9704914,45.954283   L 3.9892202,45.991797   L 3.9892202,46.029311   L 4.0266776,46.104338   L 4.0266776,46.141852   L 4.0828638,46.254393   L 4.1015926,46.27315   L 4.1203213,46.310664   L 4.1765075,46.366934   L 4.1952362,46.404448   L 4.2326937,46.423205   L 4.2888799,46.479475   L 4.3263374,46.498232   L 4.3450661,46.516989   L 4.4574385,46.573259   L 4.494896,46.573259   L 4.5698109,46.610773   L 4.6072684,46.610773   L 4.6447258,46.62953   L 9.5141965,46.62953   L 9.5329252,46.62953  "
     id="path41" />
  <path
     style="fill:#00ff00;fill-rule:evenodd;fill-opacity:1;stroke:#000000;stroke-width:0.018728733px;stroke-linecap:round;stroke-linejoin:round;stroke-miterlimit:4;stroke-dasharray:none;stroke-opacity:1;"
     d="  M 5.262774,45.279037   L 4.8320132,45.279037   L 4.8320132,46.423205   L 5.262774,46.423205   L 5.262774,45.279037   z "
     id="path43" />
  <path
     style="fill:#00ff00;fill-rule:evenodd;fill-opacity:1;stroke:#000000;stroke-width:0.018728733px;stroke-linecap:round;stroke-linejoin:round;stroke-miterlimit:4;stroke-dasharray:none;stroke-opacity:1;"
     d="  M 6.9109026,45.279037   L 6.4801417,45.279037   L 6.4801417,46.423205   L 6.9109026,46.423205   L 6.9109026,45.279037   z "
     id="path45" />
  <path
     style="fill:#d8d8d8;fill-rule:evenodd;fill-opacity:1;stroke:#d8d8d8;stroke-width:0.018728733px;stroke-linecap:round;stroke-linejoin:round;stroke-miterlimit:4;stroke-dasharray:none;stroke-opacity:1;"
     d="  M 9.1583506,51.018633   L 4.6447258,51.018633   L 4.6072684,51.03739   L 4.5698109,51.03739   L 4.494896,51.074904   L 4.4574385,51.074904   L 4.3450661,51.131174   L 4.3263374,51.149931   L 4.2888799,51.168688   L 4.2326937,51.224958   L 4.1952362,51.243715   L 4.1765075,51.281229   L 4.1203213,51.337499   L 4.1015926,51.375013   L 4.0828638,51.39377   L 4.0266776,51.506311   L 4.0266776,51.543825   L 3.9892202,51.618852   L 3.9892202,51.656366   L 3.9704914,51.69388   L 3.9704914,51.918962   L 3.9892202,51.956475   L 3.9892202,51.993989   L 4.0266776,52.069017   L 4.0266776,52.10653   L 4.0828638,52.219071   L 4.1015926,52.237828   L 4.1203213,52.275342   L 4.1765075,52.331613   L 4.1952362,52.369126   L 4.2326937,52.387883   L 4.2888799,52.444154   L 4.3263374,52.46291   L 4.3450661,52.481667   L 4.4574385,52.537938   L 4.494896,52.537938   L 4.5698109,52.575452   L 4.6072684,52.575452   L 4.6447258,52.594208   L 9.1770793,52.594208   L 9.2145368,52.575452   L 9.3269092,52.46291   L 9.3456379,52.40664   L 9.3830954,52.369126   L 9.4392816,52.200315   L 9.4580103,52.125287   L 9.476739,52.069017   L 9.476739,51.993989   L 9.4954678,51.937719   L 9.4954678,51.581338   L 9.476739,51.525068   L 9.476739,51.450041   L 9.4018241,51.224958   L 9.3643666,51.149931   L 9.3269092,51.112417   L 9.3081804,51.074904   L 9.195808,51.018633   L 9.1583506,51.018633   z "
     id="path47" />
  <path
     style="fill:none;stroke:#bfbfbf;stroke-width:0.018728733px;stroke-linecap:round;stroke-linejoin:round;stroke-miterlimit:4;stroke-dasharray:none;stroke-opacity:1;"
     d="  M 9.5329252,51.018633   L 4.6447258,51.018633   L 4.6072684,51.03739   L 4.5698109,51.03739   L 4.494896,51.074904   L 4.4574385,51.074904   L 4.3450661,51.131174   L 4.3263374,51.149931   L 4.2888799,51.168688   L 4.2326937,51.224958   L 4.1952362,51.243715   L 4.1765075,51.281229   L 4.1203213,51.337499   L 4.1015926,51.375013   L 4.0828638,51.39377   L 4.0266776,51.506311   L 4.0266776,51.543825   L 3.9892202,51.618852   L 3.9892202,51.656366   L 3.9704914,51.69388   L 3.9704914,51.918962   L 3.9892202,51.956475   L 3.9892202,51.993989   L 4.0266776,52.069017   L 4.0266776,52.10653   L 4.0828638,52.219071   L 4.1015926,52.237828   L 4.1203213,52.275342   L 4.1765075,52.331613   L 4.1952362,52.369126   L 4.2326937,52.387883   L 4.2888799,52.444154   L 4.3263374,52.46291   L 4.3450661,52.481667   L 4.4574385,52.537938   L 4.494896,52.537938   L 4.5698109,52.575452   L 4.6072684,52.575452   L 4.6447258,52.594208   L 9.5141965,52.594208   L 9.5329252,52.594208  "
     id="path49" />
  <path
     style="fill:#00ff00;fill-rule:evenodd;fill-opacity:1;stroke:#000000;stroke-width:0.018728733px;stroke-linecap:round;stroke-linejoin:round;stroke-miterlimit:4;stroke-dasharray:none;stroke-opacity:1;"
     d="  M 5.262774,51.243715   L 4.8320132,51.243715   L 4.8320132,52.387883   L 5.262774,52.387883   L 5.262774,51.243715   z "
     id="path51" />
  <path
     style="fill:#00ff00;fill-rule:evenodd;fill-opacity:1;stroke:#000000;stroke-width:0.018728733px;stroke-linecap:round;stroke-linejoin:round;stroke-miterlimit:4;stroke-dasharray:none;stroke-opacity:1;"
     d="  M 6.9109026,51.243715   L 6.4801417,51.243715   L 6.4801417,52.387883   L 6.9109026,52.387883   L 6.9109026,51.243715   z "
     id="path53" />
  <text
     xml:space="preserve"
     style="font-size:1.562500px;font-style:normal;font-variant:normal;font-weight:400;font-stretch:Normal;line-height:380.538980%;letter-spacing:0px;word-spacing:0px;fill:#000000;fill-opacity:1;stroke:none;font-family:Arial;text-align:start;text-anchor:start;"
     transform="matrix(1.000000,-0.000000,0.000000,1.000000,11.518171,28.566683)"
     x="0.000000"
     y="0.000000"
     id="text79"><tspan
       x="0.000000"
       y="0.000000"
       id="tspan63"><tspan
         dx="0.000000"
         dy="0.000000"
         style="fill:#A5A5A5;font-size:1.562500px;font-style:normal;font-variant:normal;font-weight:400;font-stretch:Normal;font-family:Arial;"
         id="tspan55">5</tspan><tspan
         dx="0.000000"
         dy="0.000000"
         style="fill:#A5A5A5;font-size:1.562500px;font-style:normal;font-variant:normal;font-weight:400;font-stretch:Normal;font-family:Arial;"
         id="tspan57">G</tspan><tspan
         dx="0.000000"
         dy="0.000000"
         style="fill:#A5A5A5;font-size:1.562500px;font-style:normal;font-variant:normal;font-weight:400;font-stretch:Normal;font-family:Arial;"
         id="tspan59">H</tspan><tspan
         dx="0.000000"
         dy="0.000000"
         style="fill:#A5A5A5;font-size:1.562500px;font-style:normal;font-variant:normal;font-weight:400;font-stretch:Normal;font-family:Arial;"
         id="tspan61">z</tspan></tspan><tspan
       x="0.000000"
       y="5.945922"
       id="tspan77"><tspan
         dx="0.000000"
         dy="0.000000"
         style="fill:#A5A5A5;font-size:1.562500px;font-style:normal;font-variant:normal;font-weight:400;font-stretch:Normal;font-family:Arial;"
         id="tspan65">2</tspan><tspan
         dx="0.000000"
         dy="0.000000"
         style="fill:#A5A5A5;font-size:1.562500px;font-style:normal;font-variant:normal;font-weight:400;font-stretch:Normal;font-family:Arial;"
         id="tspan67">.</tspan><tspan
         dx="0.000000"
         dy="0.000000"
         style="fill:#A5A5A5;font-size:1.562500px;font-style:normal;font-variant:normal;font-weight:400;font-stretch:Normal;font-family:Arial;"
         id="tspan69">4</tspan><tspan
         dx="0.000000"
         dy="0.000000"
         style="fill:#A5A5A5;font-size:1.562500px;font-style:normal;font-variant:normal;font-weight:400;font-stretch:Normal;font-family:Arial;"
         id="tspan71">G</tspan><tspan
         dx="0.000000"
         dy="0.000000"
         style="fill:#A5A5A5;font-size:1.562500px;font-style:normal;font-variant:normal;font-weight:400;font-stretch:Normal;font-family:Arial;"
         id="tspan73">H</tspan><tspan
         dx="0.000000"
         dy="0.000000"
         style="fill:#A5A5A5;font-size:1.562500px;font-style:normal;font-variant:normal;font-weight:400;font-stretch:Normal;font-family:Arial;"
         id="tspan75">z</tspan></tspan></text>
  <ellipse
     style="fill:#a5a5a5;fill-rule:evenodd;fill-opacity:1;stroke:#000000;stroke-width:0.018728733px;stroke-linecap:round;stroke-linejoin:round;stroke-miterlimit:4;stroke-dasharray:none;stroke-opacity:1;"
     cx="11.771009"
     cy="38.807923"
     rx="0.17792297"
     ry="0.18728733"
     id="ellipse81" />
  <ellipse
     style="fill:none;stroke:#a5a5a5;stroke-width:0.018728733px;stroke-linecap:round;stroke-linejoin:round;stroke-miterlimit:4;stroke-dasharray:none;stroke-opacity:1;"
     cx="11.771009"
     cy="38.807923"
     rx="0.17792297"
     ry="0.18728733"
     id="ellipse83" />
  <ellipse
     style="fill:#a5a5a5;fill-rule:evenodd;fill-opacity:1;stroke:#000000;stroke-width:0.018728733px;stroke-linecap:round;stroke-linejoin:round;stroke-miterlimit:4;stroke-dasharray:none;stroke-opacity:1;"
     cx="12.520158"
     cy="40.064632"
     rx="0.17792297"
     ry="0.18728733"
     id="ellipse85" />
  <ellipse
     style="fill:none;stroke:#a5a5a5;stroke-width:0.018728733px;stroke-linecap:round;stroke-linejoin:round;stroke-miterlimit:4;stroke-dasharray:none;stroke-opacity:1;"
     cx="12.520158"
     cy="40.064632"
     rx="0.17792297"
     ry="0.18728733"
     id="ellipse87" />
  <ellipse
     style="fill:#a5a5a5;fill-rule:evenodd;fill-opacity:1;stroke:#000000;stroke-width:0.018728733px;stroke-linecap:round;stroke-linejoin:round;stroke-miterlimit:4;stroke-dasharray:none;stroke-opacity:1;"
     cx="11.031224"
     cy="40.064632"
     rx="0.18728733"
     ry="0.18728733"
     id="ellipse89" />
  <ellipse
     style="fill:none;stroke:#a5a5a5;stroke-width:0.018728733px;stroke-linecap:round;stroke-linejoin:round;stroke-miterlimit:4;stroke-dasharray:none;stroke-opacity:1;"
     cx="11.031224"
     cy="40.064632"
     rx="0.18728733"
     ry="0.18728733"
     id="ellipse91" />
  <path
     style="fill:none;stroke:#a5a5a5;stroke-width:0.056186199px;stroke-linecap:round;stroke-linejoin:round;stroke-miterlimit:4;stroke-dasharray:none;stroke-opacity:1;"
     d="  M 10.843937,39.520684   L 12.847911,39.520684  "
     id="path93" />
  <path
     style="fill:none;stroke:#a5a5a5;stroke-width:0.056186199px;stroke-linecap:round;stroke-linejoin:round;stroke-miterlimit:4;stroke-dasharray:none;stroke-opacity:1;"
     d="  M 11.836559,39.070519   L 11.836559,39.520684  "
     id="path95" />
  <path
     style="fill:none;stroke:#a5a5a5;stroke-width:0.056186199px;stroke-linecap:round;stroke-linejoin:round;stroke-miterlimit:4;stroke-dasharray:none;stroke-opacity:1;"
     d="  M 12.623166,39.895821   L 12.623166,39.539441  "
     id="path97" />
  <path
     style="fill:none;stroke:#a5a5a5;stroke-width:0.056186199px;stroke-linecap:round;stroke-linejoin:round;stroke-miterlimit:4;stroke-dasharray:none;stroke-opacity:1;"
     d="  M 12.623166,39.895821   L 12.623166,39.539441  "
     id="path99" />
  <path
     style="fill:none;stroke:#a5a5a5;stroke-width:0.056186199px;stroke-linecap:round;stroke-linejoin:round;stroke-miterlimit:4;stroke-dasharray:none;stroke-opacity:1;"
     d="  M 11.106139,39.895821   L 11.106139,39.539441  "
     id="path101" />
  <ellipse
     style="fill:#a5a5a5;fill-rule:evenodd;fill-opacity:1;stroke:#000000;stroke-width:0.018728733px;stroke-linecap:round;stroke-linejoin:round;stroke-miterlimit:4;stroke-dasharray:none;stroke-opacity:1;"
     cx="11.771009"
     cy="45.110225"
     rx="0.17792297"
     ry="0.18728733"
     id="ellipse103" />
  <ellipse
     style="fill:none;stroke:#a5a5a5;stroke-width:0.018728733px;stroke-linecap:round;stroke-linejoin:round;stroke-miterlimit:4;stroke-dasharray:none;stroke-opacity:1;"
     cx="11.771009"
     cy="45.110225"
     rx="0.17792297"
     ry="0.18728733"
     id="ellipse105" />
  <ellipse
     style="fill:#a5a5a5;fill-rule:evenodd;fill-opacity:1;stroke:#000000;stroke-width:0.018728733px;stroke-linecap:round;stroke-linejoin:round;stroke-miterlimit:4;stroke-dasharray:none;stroke-opacity:1;"
     cx="12.520158"
     cy="46.357556"
     rx="0.17792297"
     ry="0.17792297"
     id="ellipse107" />
  <ellipse
     style="fill:none;stroke:#a5a5a5;stroke-width:0.018728733px;stroke-linecap:round;stroke-linejoin:round;stroke-miterlimit:4;stroke-dasharray:none;stroke-opacity:1;"
     cx="12.520158"
     cy="46.357556"
     rx="0.17792297"
     ry="0.17792297"
     id="ellipse109" />
  <ellipse
     style="fill:#a5a5a5;fill-rule:evenodd;fill-opacity:1;stroke:#000000;stroke-width:0.018728733px;stroke-linecap:round;stroke-linejoin:round;stroke-miterlimit:4;stroke-dasharray:none;stroke-opacity:1;"
     cx="11.031224"
     cy="46.357556"
     rx="0.18728733"
     ry="0.17792297"
     id="ellipse111" />
  <ellipse
     style="fill:none;stroke:#a5a5a5;stroke-width:0.018728733px;stroke-linecap:round;stroke-linejoin:round;stroke-miterlimit:4;stroke-dasharray:none;stroke-opacity:1;"
     cx="11.031224"
     cy="46.357556"
     rx="0.18728733"
     ry="0.17792297"
     id="ellipse113" />
  <path
     style="fill:none;stroke:#a5a5a5;stroke-width:0.056186199px;stroke-linecap:round;stroke-linejoin:round;stroke-miterlimit:4;stroke-dasharray:none;stroke-opacity:1;"
     d="  M 10.843937,45.822985   L 12.847911,45.822985  "
     id="path115" />
  <path
     style="fill:none;stroke:#a5a5a5;stroke-width:0.056186199px;stroke-linecap:round;stroke-linejoin:round;stroke-miterlimit:4;stroke-dasharray:none;stroke-opacity:1;"
     d="  M 11.836559,45.372821   L 11.836559,45.822985  "
     id="path117" />
  <path
     style="fill:none;stroke:#a5a5a5;stroke-width:0.056186199px;stroke-linecap:round;stroke-linejoin:round;stroke-miterlimit:4;stroke-dasharray:none;stroke-opacity:1;"
     d="  M 12.623166,46.198122   L 12.623166,45.841742  "
     id="path119" />
  <path
     style="fill:none;stroke:#a5a5a5;stroke-width:0.056186199px;stroke-linecap:round;stroke-linejoin:round;stroke-miterlimit:4;stroke-dasharray:none;stroke-opacity:1;"
     d="  M 11.106139,46.198122   L 11.106139,45.841742  "
     id="path121" />
  <text
     xml:space="preserve"
     style="font-size:1.562500px;font-style:normal;font-variant:normal;font-weight:400;font-stretch:Normal;line-height:422.554325%;letter-spacing:0px;word-spacing:0px;fill:#000000;fill-opacity:1;stroke:none;font-family:Arial;text-align:start;text-anchor:start;"
     transform="matrix(1.000000,-0.000000,0.000000,1.000000,13.016470,38.789167)"
     x="0.000000"
     y="0.000000"
     id="text131"><tspan
       x="0.000000"
       y="0.000000"
       id="tspan125"><tspan
         dx="0.000000"
         dy="0.000000"
         style="fill:#A5A5A5;font-size:1.562500px;font-style:normal;font-variant:normal;font-weight:400;font-stretch:Normal;font-family:Arial;"
         id="tspan123">1</tspan></tspan><tspan
       x="0.000000"
       y="6.602411"
       id="tspan129"><tspan
         dx="0.000000"
         dy="0.000000"
         style="fill:#A5A5A5;font-size:1.562500px;font-style:normal;font-variant:normal;font-weight:400;font-stretch:Normal;font-family:Arial;"
         id="tspan127">2</tspan></tspan></text>
  <path
     style="fill:#a5a5a5;fill-rule:evenodd;fill-opacity:1;stroke:#a5a5a5;stroke-width:0.018728733px;stroke-linecap:round;stroke-linejoin:round;stroke-miterlimit:4;stroke-dasharray:none;stroke-opacity:1;"
     d="  M 12.154948,51.262472   L 12.173677,51.262472   L 12.211134,51.299986   L 12.229863,51.299986   L 12.229863,51.318743   L 12.248592,51.337499   L 12.26732,51.337499   L 12.304778,51.375013   L 12.304778,51.39377   L 12.323506,51.39377   L 12.342235,51.412527   L 12.342235,51.431284   L 12.379693,51.468797   L 12.379693,51.487554   L 12.398421,51.506311   L 12.398421,51.525068   L 12.41715,51.543825   L 12.41715,51.562582   L 12.435879,51.581338   L 12.435879,51.618852   L 12.454608,51.656366   L 12.454608,51.69388   L 12.473336,51.712636   L 12.473336,51.918962   L 12.454608,51.956475   L 12.454608,51.993989   L 12.435879,52.012746   L 12.435879,52.05026   L 12.41715,52.069017   L 12.41715,52.10653   L 12.398421,52.125287   L 12.379693,52.162801   L 12.342235,52.200315   L 12.323506,52.237828   L 12.248592,52.312856   L 12.211134,52.331613   L 12.173677,52.369126   L 12.136219,52.387883   L 12.11749,52.40664   L 12.080033,52.40664   L 12.061304,52.425397   L 12.023847,52.425397   L 12.005118,52.444154   L 11.967661,52.444154   L 11.930203,52.46291   L 11.742916,52.46291   L 11.705458,52.444154   L 11.668001,52.444154   L 11.649272,52.425397   L 11.611815,52.425397   L 11.593086,52.40664   L 11.555628,52.40664   L 11.5369,52.387883   L 11.499442,52.369126   L 11.461985,52.331613   L 11.424527,52.312856   L 11.349612,52.237828   L 11.330884,52.200315   L 11.293426,52.162801   L 11.274697,52.125287   L 11.255969,52.10653   L 11.255969,52.069017   L 11.23724,52.05026   L 11.23724,52.012746   L 11.218511,51.993989   L 11.218511,51.956475   L 11.199782,51.918962   L 11.199782,51.731393   L 11.218511,51.69388   L 11.218511,51.618852   L 11.23724,51.600095   L 11.23724,51.562582   L 11.274697,51.525068   L 11.274697,51.506311   L 11.293426,51.487554   L 11.293426,51.468797   L 11.312155,51.450041   L 11.312155,51.431284   L 11.368341,51.375013   L 11.368341,51.356256   L 11.38707,51.337499   L 11.405799,51.337499   L 11.424527,51.318743   L 11.424527,51.299986   L 11.443256,51.299986   L 11.461985,51.281229   L 11.461985,51.299986   L 11.480713,51.299986   L 11.480713,51.318743   L 11.499442,51.318743   L 11.499442,51.356256   L 11.518171,51.356256   L 11.518171,51.375013   L 11.5369,51.375013   L 11.5369,51.39377   L 11.518171,51.39377   L 11.518171,51.412527   L 11.499442,51.431284   L 11.480713,51.431284   L 11.480713,51.450041   L 11.461985,51.450041   L 11.461985,51.468797   L 11.443256,51.468797   L 11.443256,51.487554   L 11.405799,51.525068   L 11.405799,51.543825   L 11.368341,51.581338   L 11.368341,51.618852   L 11.349612,51.618852   L 11.349612,51.656366   L 11.330884,51.675123   L 11.330884,51.731393   L 11.312155,51.75015   L 11.312155,51.900205   L 11.330884,51.937719   L 11.330884,51.993989   L 11.349612,52.012746   L 11.349612,52.031503   L 11.368341,52.05026   L 11.368341,52.087773   L 11.443256,52.162801   L 11.443256,52.181558   L 11.518171,52.256585   L 11.555628,52.256585   L 11.593086,52.294099   L 11.611815,52.294099   L 11.630543,52.312856   L 11.668001,52.312856   L 11.68673,52.331613   L 11.724187,52.331613   L 11.761644,52.350369   L 11.911474,52.350369   L 11.948932,52.331613   L 11.986389,52.331613   L 12.005118,52.312856   L 12.042575,52.312856   L 12.061304,52.294099   L 12.080033,52.294099   L 12.11749,52.256585   L 12.154948,52.256585   L 12.229863,52.181558   L 12.229863,52.162801   L 12.304778,52.087773   L 12.304778,52.05026   L 12.323506,52.031503   L 12.323506,52.012746   L 12.342235,51.993989   L 12.342235,51.937719   L 12.360964,51.900205   L 12.360964,51.731393   L 12.342235,51.731393   L 12.342235,51.675123   L 12.323506,51.656366   L 12.323506,51.618852   L 12.304778,51.618852   L 12.304778,51.600095   L 12.286049,51.581338   L 12.286049,51.562582   L 12.248592,51.525068   L 12.248592,51.506311   L 12.229863,51.487554   L 12.211134,51.487554   L 12.211134,51.468797   L 12.192405,51.450041   L 12.173677,51.450041   L 12.173677,51.431284   L 12.154948,51.431284   L 12.136219,51.412527   L 12.11749,51.412527   L 12.11749,51.39377   L 12.098762,51.375013   L 12.080033,51.375013   L 12.080033,51.356256   L 12.098762,51.356256   L 12.098762,51.337499   L 12.11749,51.337499   L 12.11749,51.299986   L 12.136219,51.299986   L 12.136219,51.281229   L 12.154948,51.281229   L 12.154948,51.262472   z "
     id="path133" />
  <path
     style="fill:#a5a5a5;fill-rule:evenodd;fill-opacity:1;stroke:#a5a5a5;stroke-width:0.018728733px;stroke-linecap:round;stroke-linejoin:round;stroke-miterlimit:4;stroke-dasharray:none;stroke-opacity:1;"
     d="  M 11.892746,50.962362   L 11.742916,50.962362   L 11.742916,51.862691   L 11.892746,51.862691   L 11.892746,50.962362   z "
     id="path135" />
  <path
     style="fill:#a5a5a5;fill-rule:evenodd;fill-opacity:1;stroke:#a5a5a5;stroke-width:0.018728733px;stroke-linecap:round;stroke-linejoin:round;stroke-miterlimit:4;stroke-dasharray:none;stroke-opacity:1;"
     d="  M 26.126583,38.095163   L 26.070397,38.095163   L 26.070397,38.076406   L 26.032939,38.076406   L 26.032939,38.057649   L 26.01421,38.057649   L 25.976753,38.020136   L 25.976753,38.001379   L 25.958024,38.001379   L 25.958024,37.963865   L 25.939296,37.963865   L 25.939296,35.225365   L 25.958024,35.225365   L 25.958024,35.187851   L 25.976753,35.187851   L 25.976753,35.169094   L 26.01421,35.131581   L 26.032939,35.131581   L 26.032939,35.112824   L 26.070397,35.112824   L 26.070397,35.094067   L 29.291739,35.094067   L 29.291739,35.112824   L 29.329196,35.112824   L 29.329196,35.131581   L 29.347925,35.131581   L 29.385382,35.169094   L 29.385382,35.187851   L 29.404111,35.187851   L 29.404111,35.225365   L 29.42284,35.225365   L 29.42284,35.78807   L 29.404111,35.769314   L 29.404111,35.750557   L 29.385382,35.750557   L 29.385382,35.7318   L 29.366654,35.7318   L 29.366654,35.713043   L 29.347925,35.713043   L 29.347925,35.694286   L 29.310468,35.694286   L 29.291739,35.675529   L 26.725902,35.675529   L 26.725902,35.694286   L 26.688445,35.694286   L 26.688445,35.713043   L 26.669716,35.713043   L 26.669716,35.7318   L 26.650987,35.7318   L 26.650987,35.769314   L 26.632259,35.769314   L 26.632259,37.982622   L 26.650987,38.001379   L 26.650987,38.038893   L 26.669716,38.038893   L 26.669716,38.057649   L 26.688445,38.057649   L 26.688445,38.076406   L 26.707174,38.076406   L 26.707174,38.095163   L 26.145312,38.095163   L 26.126583,38.095163   z "
     id="path137" />
  <path
     style="fill:#a5a5a5;fill-rule:evenodd;fill-opacity:1;stroke:#a5a5a5;stroke-width:0.018728733px;stroke-linecap:round;stroke-linejoin:round;stroke-miterlimit:4;stroke-dasharray:none;stroke-opacity:1;"
     d="  M 29.179366,36.369533   L 26.875732,36.369533   L 26.857003,36.350776   L 26.838275,36.350776   L 26.782089,36.294505   L 26.782089,36.275749   L 26.76336,36.256992   L 26.76336,36.857211   L 26.782089,36.857211   L 26.782089,36.894725   L 26.800817,36.894725   L 26.838275,36.932238   L 26.857003,36.932238   L 26.875732,36.950995   L 29.235553,36.950995   L 29.254281,36.932238   L 29.291739,36.913482   L 29.347925,36.857211   L 29.347925,36.838454   L 29.366654,36.819697   L 29.385382,36.782184   L 29.385382,36.763427   L 29.404111,36.74467   L 29.404111,36.669642   L 29.42284,36.650886   L 29.404111,36.632129   L 29.404111,36.557101   L 29.385382,36.519588   L 29.385382,36.500831   L 29.366654,36.500831   L 29.329196,36.463317   L 29.329196,36.44456   L 29.291739,36.407047   L 29.27301,36.407047   L 29.254281,36.38829   L 29.235553,36.38829   L 29.198095,36.369533   L 29.179366,36.369533   z "
     id="path139" />
  <path
     style="fill:#a5a5a5;fill-rule:evenodd;fill-opacity:1;stroke:#a5a5a5;stroke-width:0.018728733px;stroke-linecap:round;stroke-linejoin:round;stroke-miterlimit:4;stroke-dasharray:none;stroke-opacity:1;"
     d="  M 34.59197,36.950995   L 34.554513,36.950995   L 34.554513,36.932238   L 34.517055,36.932238   L 34.517055,36.913482   L 34.498327,36.913482   L 34.498327,36.894725   L 34.479598,36.894725   L 34.479598,36.857211   L 34.460869,36.857211   L 34.460869,36.256992   L 34.479598,36.275749   L 34.479598,36.294505   L 34.517055,36.332019   L 34.535784,36.332019   L 34.554513,36.350776   L 36.427386,36.350776   L 36.427386,35.675529   L 34.423412,35.675529   L 34.404683,35.694286   L 34.385954,35.694286   L 34.367226,35.713043   L 34.367226,35.7318   L 34.348497,35.7318   L 34.329768,35.750557   L 34.329768,35.769314   L 34.311039,35.78807   L 34.311039,37.982622   L 34.329768,37.982622   L 34.329768,38.020136   L 34.348497,38.038893   L 34.348497,38.057649   L 34.367226,38.057649   L 34.367226,38.076406   L 34.385954,38.076406   L 34.385954,38.095163   L 33.767906,38.095163   L 33.767906,38.076406   L 33.730449,38.076406   L 33.730449,38.057649   L 33.71172,38.057649   L 33.674262,38.020136   L 33.674262,38.001379   L 33.655534,38.001379   L 33.655534,37.963865   L 33.636805,37.963865   L 33.636805,35.225365   L 33.655534,35.225365   L 33.655534,35.187851   L 33.674262,35.187851   L 33.674262,35.169094   L 33.71172,35.131581   L 33.730449,35.131581   L 33.730449,35.112824   L 33.767906,35.112824   L 33.767906,35.094067   L 36.970519,35.094067   L 36.970519,35.112824   L 37.007977,35.112824   L 37.007977,35.131581   L 37.026706,35.131581   L 37.064163,35.169094   L 37.064163,35.187851   L 37.082892,35.187851   L 37.082892,35.225365   L 37.101621,35.225365   L 37.101621,36.707156   L 37.082892,36.725913   L 37.082892,36.763427   L 37.064163,36.763427   L 37.064163,36.80094   L 37.045434,36.80094   L 37.045434,36.819697   L 37.007977,36.857211   L 37.007977,36.875968   L 36.989248,36.875968   L 36.989248,36.894725   L 36.970519,36.894725   L 36.970519,36.913482   L 36.951791,36.913482   L 36.914333,36.950995   L 36.951791,36.988509   L 36.970519,36.988509   L 36.970519,37.007266   L 36.989248,37.007266   L 36.989248,37.026023   L 37.007977,37.026023   L 37.007977,37.044779   L 37.045434,37.082293   L 37.045434,37.10105   L 37.064163,37.10105   L 37.064163,37.138564   L 37.082892,37.138564   L 37.082892,37.176077   L 37.101621,37.194834   L 37.101621,37.982622   L 37.120349,37.982622   L 37.120349,38.020136   L 37.139078,38.038893   L 37.139078,38.057649   L 37.157807,38.057649   L 37.157807,38.076406   L 37.176535,38.076406   L 37.176535,38.095163   L 36.558487,38.095163   L 36.558487,38.076406   L 36.52103,38.076406   L 36.52103,38.057649   L 36.502301,38.057649   L 36.464844,38.020136   L 36.464844,38.001379   L 36.446115,38.001379   L 36.446115,37.963865   L 36.427386,37.963865   L 36.427386,36.950995   L 34.610699,36.950995   L 34.59197,36.950995   z "
     id="path141" />
  <path
     style="fill:#a5a5a5;fill-rule:evenodd;fill-opacity:1;stroke:#a5a5a5;stroke-width:0.018728733px;stroke-linecap:round;stroke-linejoin:round;stroke-miterlimit:4;stroke-dasharray:none;stroke-opacity:1;"
     d="  M 38.300259,35.675529   L 37.588568,35.675529   L 37.588568,35.656773   L 37.55111,35.656773   L 37.55111,35.638016   L 37.532381,35.638016   L 37.494924,35.600502   L 37.494924,35.581745   L 37.476195,35.581745   L 37.476195,35.544231   L 37.457466,35.544231   L 37.457466,35.225365   L 37.476195,35.225365   L 37.476195,35.187851   L 37.494924,35.187851   L 37.494924,35.169094   L 37.532381,35.131581   L 37.55111,35.131581   L 37.55111,35.112824   L 37.588568,35.112824   L 37.588568,35.094067   L 40.80991,35.094067   L 40.80991,35.112824   L 40.847367,35.112824   L 40.847367,35.131581   L 40.866096,35.131581   L 40.903553,35.169094   L 40.903553,35.187851   L 40.922282,35.187851   L 40.922282,35.225365   L 40.941011,35.225365   L 40.941011,35.78807   L 40.922282,35.769314   L 40.922282,35.750557   L 40.903553,35.750557   L 40.903553,35.7318   L 40.884825,35.7318   L 40.884825,35.713043   L 40.866096,35.713043   L 40.866096,35.694286   L 40.828638,35.694286   L 40.80991,35.675529   L 39.086866,35.675529   L 39.086866,35.694286   L 39.049409,35.694286   L 39.049409,35.713043   L 39.03068,35.713043   L 39.03068,35.7318   L 39.011951,35.7318   L 39.011951,35.769314   L 38.993223,35.769314   L 38.993223,37.982622   L 39.011951,38.001379   L 39.011951,38.038893   L 39.03068,38.038893   L 39.03068,38.057649   L 39.049409,38.057649   L 39.049409,38.076406   L 39.068138,38.076406   L 39.068138,38.095163   L 38.431361,38.095163   L 38.431361,38.076406   L 38.393903,38.076406   L 38.393903,38.057649   L 38.375174,38.057649   L 38.337717,38.020136   L 38.337717,38.001379   L 38.318988,38.001379   L 38.318988,37.963865   L 38.300259,37.963865   L 38.300259,35.750557   L 38.300259,35.675529   z "
     id="path143" />
  <path
     style="fill:#a5a5a5;fill-rule:evenodd;fill-opacity:1;stroke:#a5a5a5;stroke-width:0.018728733px;stroke-linecap:round;stroke-linejoin:round;stroke-miterlimit:4;stroke-dasharray:none;stroke-opacity:1;"
     d="  M 42.008549,37.926351   L 42.008549,37.982622   L 42.027277,38.001379   L 42.027277,38.038893   L 42.046006,38.038893   L 42.046006,38.057649   L 42.064735,38.057649   L 42.064735,38.076406   L 42.083464,38.076406   L 42.083464,38.095163   L 41.446687,38.095163   L 41.446687,38.076406   L 41.409229,38.076406   L 41.409229,38.057649   L 41.3905,38.057649   L 41.353043,38.020136   L 41.353043,38.001379   L 41.334314,38.001379   L 41.334314,37.963865   L 41.315586,37.963865   L 41.315586,35.206608   L 41.296857,35.187851   L 41.296857,35.150338   L 41.278128,35.150338   L 41.278128,35.131581   L 41.259399,35.131581   L 41.259399,35.112824   L 41.240671,35.112824   L 41.240671,35.094067   L 41.877448,35.094067   L 41.877448,35.112824   L 41.914905,35.112824   L 41.914905,35.131581   L 41.933634,35.131581   L 41.971091,35.169094   L 41.971091,35.187851   L 41.98982,35.187851   L 41.98982,35.225365   L 42.008549,35.225365   L 42.008549,37.888838   L 42.008549,37.926351   z "
     id="path145" />
  <path
     style="fill:#a5a5a5;fill-rule:evenodd;fill-opacity:1;stroke:#a5a5a5;stroke-width:0.018728733px;stroke-linecap:round;stroke-linejoin:round;stroke-miterlimit:4;stroke-dasharray:none;stroke-opacity:1;"
     d="  M 45.323534,35.675529   L 43.31956,35.675529   L 43.300831,35.694286   L 43.282103,35.694286   L 43.263374,35.713043   L 43.263374,35.7318   L 43.244645,35.7318   L 43.225916,35.750557   L 43.225916,35.769314   L 43.207188,35.78807   L 43.207188,37.982622   L 43.225916,37.982622   L 43.225916,38.020136   L 43.244645,38.038893   L 43.244645,38.057649   L 43.263374,38.057649   L 43.263374,38.076406   L 43.282103,38.076406   L 43.282103,38.095163   L 42.664054,38.095163   L 42.664054,38.076406   L 42.626597,38.076406   L 42.626597,38.057649   L 42.607868,38.057649   L 42.570411,38.020136   L 42.570411,38.001379   L 42.551682,38.001379   L 42.551682,37.963865   L 42.532953,37.963865   L 42.532953,35.225365   L 42.551682,35.225365   L 42.551682,35.187851   L 42.570411,35.187851   L 42.570411,35.169094   L 42.607868,35.131581   L 42.626597,35.131581   L 42.626597,35.112824   L 42.664054,35.112824   L 42.664054,35.094067   L 45.866668,35.094067   L 45.866668,35.112824   L 45.904125,35.112824   L 45.904125,35.131581   L 45.922854,35.131581   L 45.960311,35.169094   L 45.960311,35.187851   L 45.97904,35.187851   L 45.97904,35.225365   L 45.997769,35.225365   L 45.997769,37.982622   L 46.016498,37.982622   L 46.016498,38.020136   L 46.035226,38.038893   L 46.035226,38.057649   L 46.053955,38.057649   L 46.053955,38.076406   L 46.072684,38.076406   L 46.072684,38.095163   L 45.454636,38.095163   L 45.454636,38.076406   L 45.417178,38.076406   L 45.417178,38.057649   L 45.398449,38.057649   L 45.360992,38.020136   L 45.360992,38.001379   L 45.342263,38.001379   L 45.342263,37.963865   L 45.323534,37.963865   L 45.323534,35.750557   L 45.323534,35.675529   z "
     id="path147" />
  <path
     style="fill:#a5a5a5;fill-rule:evenodd;fill-opacity:1;stroke:#a5a5a5;stroke-width:0.018728733px;stroke-linecap:round;stroke-linejoin:round;stroke-miterlimit:4;stroke-dasharray:none;stroke-opacity:1;"
     d="  M 49.443856,36.369533   L 47.271323,36.369533   L 47.271323,36.350776   L 47.233865,36.350776   L 47.233865,36.332019   L 47.215137,36.332019   L 47.215137,36.313262   L 47.196408,36.294505   L 47.196408,36.275749   L 47.177679,36.256992   L 47.177679,36.857211   L 47.196408,36.857211   L 47.196408,36.894725   L 47.215137,36.894725   L 47.215137,36.913482   L 47.233865,36.913482   L 47.233865,36.932238   L 47.271323,36.932238   L 47.271323,36.950995   L 49.462585,36.950995   L 49.481313,36.932238   L 49.518771,36.913482   L 49.593686,36.838454   L 49.593686,36.819697   L 49.612414,36.782184   L 49.612414,36.763427   L 49.631143,36.74467   L 49.631143,36.707156   L 49.649872,36.669642   L 49.649872,36.613372   L 49.631143,36.594615   L 49.631143,36.519588   L 49.574957,36.463317   L 49.574957,36.44456   L 49.537499,36.407047   L 49.518771,36.407047   L 49.500042,36.38829   L 49.481313,36.38829   L 49.462585,36.369533   L 49.443856,36.369533   z "
     id="path149" />
  <path
     style="fill:#a5a5a5;fill-rule:evenodd;fill-opacity:1;stroke:#a5a5a5;stroke-width:0.018728733px;stroke-linecap:round;stroke-linejoin:round;stroke-miterlimit:4;stroke-dasharray:none;stroke-opacity:1;"
     d="  M 51.054527,35.675529   L 50.342835,35.675529   L 50.342835,35.656773   L 50.305378,35.656773   L 50.305378,35.638016   L 50.286649,35.638016   L 50.249191,35.600502   L 50.249191,35.581745   L 50.230463,35.581745   L 50.230463,35.544231   L 50.211734,35.544231   L 50.211734,35.225365   L 50.230463,35.225365   L 50.230463,35.187851   L 50.249191,35.187851   L 50.249191,35.169094   L 50.286649,35.131581   L 50.305378,35.131581   L 50.305378,35.112824   L 50.342835,35.112824   L 50.342835,35.094067   L 53.564177,35.094067   L 53.564177,35.112824   L 53.601635,35.112824   L 53.601635,35.131581   L 53.620363,35.131581   L 53.657821,35.169094   L 53.657821,35.187851   L 53.676549,35.187851   L 53.676549,35.225365   L 53.695278,35.225365   L 53.695278,35.78807   L 53.676549,35.769314   L 53.676549,35.750557   L 53.657821,35.750557   L 53.657821,35.7318   L 53.639092,35.7318   L 53.639092,35.713043   L 53.620363,35.713043   L 53.620363,35.694286   L 53.582906,35.694286   L 53.564177,35.675529   L 51.841134,35.675529   L 51.841134,35.694286   L 51.803676,35.694286   L 51.803676,35.713043   L 51.784947,35.713043   L 51.784947,35.7318   L 51.766219,35.7318   L 51.766219,35.769314   L 51.74749,35.769314   L 51.74749,37.982622   L 51.766219,38.001379   L 51.766219,38.038893   L 51.784947,38.038893   L 51.784947,38.057649   L 51.803676,38.057649   L 51.803676,38.076406   L 51.822405,38.076406   L 51.822405,38.095163   L 51.185628,38.095163   L 51.185628,38.076406   L 51.14817,38.076406   L 51.14817,38.057649   L 51.129442,38.057649   L 51.091984,38.020136   L 51.091984,38.001379   L 51.073256,38.001379   L 51.073256,37.963865   L 51.054527,37.963865   L 51.054527,35.750557   L 51.054527,35.675529   z "
     id="path151" />
  <path
     style="fill:#a5a5a5;fill-rule:evenodd;fill-opacity:1;stroke:#a5a5a5;stroke-width:0.018728733px;stroke-linecap:round;stroke-linejoin:round;stroke-miterlimit:4;stroke-dasharray:none;stroke-opacity:1;"
     d="  M 49.687329,37.513701   L 49.724787,37.513701   L 49.743516,37.494944   L 49.780973,37.494944   L 49.780973,37.476187   L 49.799702,37.476187   L 49.799702,37.45743   L 49.81843,37.45743   L 49.81843,37.438673   L 49.837159,37.438673   L 49.837159,37.419916   L 49.855888,37.40116   L 49.855888,37.963865   L 49.837159,37.963865   L 49.837159,38.001379   L 49.81843,38.001379   L 49.81843,38.020136   L 49.780973,38.057649   L 49.762244,38.057649   L 49.762244,38.076406   L 49.724787,38.076406   L 49.724787,38.095163   L 46.503445,38.095163   L 46.503445,38.076406   L 46.465987,38.076406   L 46.465987,38.057649   L 46.447258,38.057649   L 46.409801,38.020136   L 46.409801,38.001379   L 46.391072,38.001379   L 46.391072,37.963865   L 46.372344,37.963865   L 46.372344,35.225365   L 46.391072,35.225365   L 46.391072,35.187851   L 46.409801,35.187851   L 46.409801,35.169094   L 46.447258,35.131581   L 46.465987,35.131581   L 46.465987,35.112824   L 46.503445,35.112824   L 46.503445,35.094067   L 49.724787,35.094067   L 49.724787,35.112824   L 49.762244,35.112824   L 49.762244,35.131581   L 49.780973,35.131581   L 49.81843,35.169094   L 49.81843,35.187851   L 49.837159,35.187851   L 49.837159,35.225365   L 49.855888,35.225365   L 49.855888,35.78807   L 49.837159,35.769314   L 49.837159,35.750557   L 49.81843,35.750557   L 49.81843,35.7318   L 49.799702,35.7318   L 49.799702,35.713043   L 49.780973,35.713043   L 49.780973,35.694286   L 49.743516,35.694286   L 49.724787,35.675529   L 47.15895,35.675529   L 47.15895,35.694286   L 47.121493,35.694286   L 47.121493,35.713043   L 47.102764,35.713043   L 47.102764,35.7318   L 47.084035,35.7318   L 47.084035,35.769314   L 47.065307,35.769314   L 47.065307,37.513701   L 49.649872,37.513701   L 49.687329,37.513701   z "
     id="path153" />
  <path
     style="fill:#a5a5a5;fill-rule:evenodd;fill-opacity:1;stroke:#a5a5a5;stroke-width:0.018728733px;stroke-linecap:round;stroke-linejoin:round;stroke-miterlimit:4;stroke-dasharray:none;stroke-opacity:1;"
     d="  M 30.958596,37.213591   L 30.958596,38.095163   L 32.08232,38.095163   L 32.08232,37.213591   L 30.958596,37.213591   z "
     id="path155" />
  <path
     style="fill:#a5a5a5;fill-rule:evenodd;fill-opacity:1;stroke:#a5a5a5;stroke-width:0.018728733px;stroke-linecap:round;stroke-linejoin:round;stroke-miterlimit:4;stroke-dasharray:none;stroke-opacity:1;"
     d="  M 29.797415,36.163207   L 30.75258,36.163207   L 30.75258,37.026023   L 29.797415,37.026023   L 29.797415,36.163207   z "
     id="path157" />
  <path
     style="fill:#a5a5a5;fill-rule:evenodd;fill-opacity:1;stroke:#a5a5a5;stroke-width:0.018728733px;stroke-linecap:round;stroke-linejoin:round;stroke-miterlimit:4;stroke-dasharray:none;stroke-opacity:1;"
     d="  M 32.307065,37.232348   L 32.307065,38.11392   L 32.606725,38.11392   L 32.644182,38.095163   L 32.737826,38.095163   L 32.812741,38.057649   L 32.850198,38.057649   L 32.962571,38.001379   L 33.018757,37.945108   L 33.056214,37.926351   L 33.093672,37.851324   L 33.131129,37.81381   L 33.149858,37.776297   L 33.168587,37.720026   L 33.187315,37.682512   L 33.243502,37.513701   L 33.243502,37.45743   L 33.26223,37.382403   L 33.26223,37.232348   L 32.325794,37.232348   L 32.307065,37.232348   z "
     id="path159" />
  <path
     style="fill:#a5a5a5;fill-rule:evenodd;fill-opacity:1;stroke:#a5a5a5;stroke-width:0.018728733px;stroke-linecap:round;stroke-linejoin:round;stroke-miterlimit:4;stroke-dasharray:none;stroke-opacity:1;"
     d="  M 32.307065,36.163207   L 33.26223,36.163207   L 33.26223,37.026023   L 32.307065,37.026023   L 32.307065,36.163207   z "
     id="path161" />
  <path
     style="fill:#a5a5a5;fill-rule:evenodd;fill-opacity:1;stroke:#a5a5a5;stroke-width:0.018728733px;stroke-linecap:round;stroke-linejoin:round;stroke-miterlimit:4;stroke-dasharray:none;stroke-opacity:1;"
     d="  M 30.75258,37.232348   L 30.75258,38.11392   L 30.45292,38.11392   L 30.415463,38.095163   L 30.321819,38.095163   L 30.246904,38.057649   L 30.209447,38.057649   L 30.134532,38.020136   L 30.115803,38.001379   L 30.078346,37.982622   L 30.040888,37.945108   L 30.003431,37.926351   L 29.965973,37.851324   L 29.928516,37.81381   L 29.909787,37.776297   L 29.891058,37.720026   L 29.87233,37.682512   L 29.816143,37.513701   L 29.816143,37.45743   L 29.797415,37.382403   L 29.797415,37.232348   L 30.733851,37.232348   L 30.75258,37.232348   z "
     id="path163" />
  <path
     style="fill:#a5a5a5;fill-rule:evenodd;fill-opacity:1;stroke:#a5a5a5;stroke-width:0.018728733px;stroke-linecap:round;stroke-linejoin:round;stroke-miterlimit:4;stroke-dasharray:none;stroke-opacity:1;"
     d="  M 30.958596,35.07531   L 30.958596,35.956882   L 32.08232,35.956882   L 32.08232,35.07531   L 30.958596,35.07531   z "
     id="path165" />
  <path
     style="fill:#a5a5a5;fill-rule:evenodd;fill-opacity:1;stroke:#a5a5a5;stroke-width:0.018728733px;stroke-linecap:round;stroke-linejoin:round;stroke-miterlimit:4;stroke-dasharray:none;stroke-opacity:1;"
     d="  M 32.307065,35.956882   L 32.307065,35.07531   L 32.606725,35.07531   L 32.644182,35.094067   L 32.737826,35.094067   L 32.812741,35.131581   L 32.850198,35.131581   L 32.962571,35.187851   L 33.018757,35.244122   L 33.056214,35.262879   L 33.093672,35.337906   L 33.131129,35.37542   L 33.149858,35.412933   L 33.168587,35.469204   L 33.187315,35.506718   L 33.243502,35.675529   L 33.243502,35.7318   L 33.26223,35.806827   L 33.26223,35.956882   L 32.325794,35.956882   L 32.307065,35.956882   z "
     id="path167" />
  <path
     style="fill:#a5a5a5;fill-rule:evenodd;fill-opacity:1;stroke:#a5a5a5;stroke-width:0.018728733px;stroke-linecap:round;stroke-linejoin:round;stroke-miterlimit:4;stroke-dasharray:none;stroke-opacity:1;"
     d="  M 30.75258,35.956882   L 30.75258,35.07531   L 30.45292,35.07531   L 30.415463,35.094067   L 30.321819,35.094067   L 30.246904,35.131581   L 30.209447,35.131581   L 30.134532,35.169094   L 30.115803,35.187851   L 30.078346,35.206608   L 30.040888,35.244122   L 30.003431,35.262879   L 29.965973,35.337906   L 29.928516,35.37542   L 29.909787,35.412933   L 29.891058,35.469204   L 29.87233,35.506718   L 29.816143,35.675529   L 29.816143,35.7318   L 29.797415,35.806827   L 29.797415,35.956882   L 30.733851,35.956882   L 30.75258,35.956882   z "
     id="path169" />
  <text
     xml:space="preserve"
     style="font-size:2.937500px;font-style:normal;font-variant:normal;font-weight:400;font-stretch:Normal;line-height:125.000000%;letter-spacing:0px;word-spacing:0px;fill:#000000;fill-opacity:1;stroke:none;font-family:Arial;text-align:start;text-anchor:start;"
     transform="matrix(1.000000,-0.000000,0.000000,1.000000,28.935893,43.966057)"
     x="0.000000"
     y="0.000000"
     id="text201"><tspan
       x="0.000000"
       y="0.000000"
       id="tspan199"><tspan
         dx="0.000000"
         dy="0.000000"
         style="fill:#A5A5A5;font-size:2.937500px;font-style:normal;font-variant:normal;font-weight:400;font-stretch:Normal;font-family:Arial;"
         id="tspan171">F</tspan><tspan
         dx="0.000000"
         dy="0.000000"
         style="fill:#A5A5A5;font-size:2.937500px;font-style:normal;font-variant:normal;font-weight:400;font-stretch:Normal;font-family:Arial;"
         id="tspan173">o</tspan><tspan
         dx="0.000000"
         dy="0.000000"
         style="fill:#A5A5A5;font-size:2.937500px;font-style:normal;font-variant:normal;font-weight:400;font-stretch:Normal;font-family:Arial;"
         id="tspan175">r</tspan><tspan
         dx="0.000000"
         dy="0.000000"
         style="fill:#A5A5A5;font-size:2.937500px;font-style:normal;font-variant:normal;font-weight:400;font-stretch:Normal;font-family:Arial;"
         id="tspan177">t</tspan><tspan
         dx="0.000000"
         dy="0.000000"
         style="fill:#A5A5A5;font-size:2.937500px;font-style:normal;font-variant:normal;font-weight:400;font-stretch:Normal;font-family:Arial;"
         id="tspan179">i</tspan><tspan
         dx="0.000000"
         dy="0.000000"
         style="fill:#A5A5A5;font-size:2.937500px;font-style:normal;font-variant:normal;font-weight:400;font-stretch:Normal;font-family:Arial;"
         id="tspan181">A</tspan><tspan
         dx="0.000000"
         dy="0.000000"
         style="fill:#A5A5A5;font-size:2.937500px;font-style:normal;font-variant:normal;font-weight:400;font-stretch:Normal;font-family:Arial;"
         id="tspan183">P</tspan><tspan
         dx="0.000000"
         dy="0.000000"
         style="fill:#A5A5A5;font-size:2.937500px;font-style:normal;font-variant:normal;font-weight:400;font-stretch:Normal;font-family:Arial;"
         id="tspan185"> </tspan><tspan
         dx="0.000000"
         dy="0.000000"
         style="fill:#A5A5A5;font-size:2.937500px;font-style:normal;font-variant:normal;font-weight:400;font-stretch:Normal;font-family:Arial;"
         id="tspan187">U</tspan><tspan
         dx="0.000000"
         dy="0.000000"
         style="fill:#A5A5A5;font-size:2.937500px;font-style:normal;font-variant:normal;font-weight:400;font-stretch:Normal;font-family:Arial;"
         id="tspan189">4</tspan><tspan
         dx="0.000000"
         dy="0.000000"
         style="fill:#A5A5A5;font-size:2.937500px;font-style:normal;font-variant:normal;font-weight:400;font-stretch:Normal;font-family:Arial;"
         id="tspan191">2</tspan><tspan
         dx="0.000000"
         dy="0.000000"
         style="fill:#A5A5A5;font-size:2.937500px;font-style:normal;font-variant:normal;font-weight:400;font-stretch:Normal;font-family:Arial;"
         id="tspan193">2</tspan><tspan
         dx="0.000000"
         dy="0.000000"
         style="fill:#A5A5A5;font-size:2.937500px;font-style:normal;font-variant:normal;font-weight:400;font-stretch:Normal;font-family:Arial;"
         id="tspan195">E</tspan><tspan
         dx="0.000000"
         dy="0.000000"
         style="fill:#A5A5A5;font-size:2.937500px;font-style:normal;font-variant:normal;font-weight:400;font-stretch:Normal;font-family:Arial;"
         id="tspan197">V</tspan></tspan></text>
  <text
     xml:space="preserve"
     style="font-size:0.625000px;font-style:normal;font-variant:normal;font-weight:400;font-stretch:Condensed;line-height:125.000000%;letter-spacing:0px;word-spacing:0px;fill:#000000;fill-opacity:1;stroke:none;font-family:Times New Roman;text-align:start;text-anchor:start;"
     transform="matrix(1.000000,-0.000000,0.000000,1.000000,28.935893,43.966057)"
     x="23.485831"
     y="-5.908408"
     id="text207"><tspan
       x="23.485831"
       y="-5.908408"
       id="tspan205"><tspan
         dx="0.000000"
         dy="0.000000"
         style="fill:#A5A5A5;font-size:0.625000px;font-style:normal;font-variant:normal;font-weight:400;font-stretch:Condensed;font-family:Times New Roman;"
         id="tspan203"></tspan></tspan></text>
  <path
     style="fill:none;stroke:#a5a5a5;stroke-width:0.056186199px;stroke-linecap:round;stroke-linejoin:round;stroke-miterlimit:4;stroke-dasharray:none;stroke-opacity:1;"
     d="  M 15.694678,26.991108   L 15.638492,26.934837   L 15.619764,26.934837   L 15.619764,26.91608   L 15.601035,26.91608   L 15.582306,26.897323   L 15.563577,26.897323   L 15.52612,26.85981   L 15.507391,26.85981   L 15.488662,26.841053   L 15.469934,26.841053   L 15.451205,26.822296   L 15.432476,26.822296   L 15.413747,26.803539   L 15.37629,26.803539   L 15.357561,26.784782   L 15.301375,26.784782   L 15.263918,26.766025   L 15.057902,26.766025   L 15.039173,26.784782   L 14.982987,26.784782   L 14.964258,26.803539   L 14.9268,26.803539   L 14.908072,26.822296   L 14.889343,26.822296   L 14.870614,26.841053   L 14.851885,26.841053   L 14.833157,26.85981   L 14.814428,26.85981   L 14.795699,26.878567   L 14.776971,26.878567   L 14.776971,26.897323   L 14.758242,26.91608   L 14.739513,26.91608   L 14.720784,26.934837   L 14.720784,26.953594   L 14.702056,26.953594   L 14.683327,26.972351   L 14.683327,26.991108   L 14.645869,27.028621   L 14.645869,27.047378  "
     id="path209" />
  <path
     style="fill:none;stroke:#a5a5a5;stroke-width:0.056186199px;stroke-linecap:round;stroke-linejoin:round;stroke-miterlimit:4;stroke-dasharray:none;stroke-opacity:1;"
     d="  M 15.52612,27.084892   L 15.507391,27.066135   L 15.488662,27.066135   L 15.488662,27.047378   L 15.469934,27.047378   L 15.451205,27.028621   L 15.432476,27.028621   L 15.432476,27.009865   L 15.395019,27.009865   L 15.395019,26.991108   L 15.357561,26.991108   L 15.338833,26.972351   L 15.282646,26.972351   L 15.263918,26.953594   L 15.07663,26.953594   L 15.057902,26.972351   L 15.001715,26.972351   L 14.982987,26.991108   L 14.945529,26.991108   L 14.945529,27.009865   L 14.908072,27.009865   L 14.908072,27.028621   L 14.889343,27.028621   L 14.889343,27.047378   L 14.870614,27.047378   L 14.851885,27.066135   L 14.851885,27.084892   L 14.833157,27.084892   L 14.833157,27.103649   L 14.814428,27.122406   L 14.814428,27.141162  "
     id="path211" />
  <path
     style="fill:none;stroke:#a5a5a5;stroke-width:0.056186199px;stroke-linecap:round;stroke-linejoin:round;stroke-miterlimit:4;stroke-dasharray:none;stroke-opacity:1;"
     d="  M 15.395019,27.234947   L 15.37629,27.21619   L 15.37629,27.197433   L 15.357561,27.197433   L 15.357561,27.178676   L 15.338833,27.178676   L 15.338833,27.159919   L 15.320104,27.159919   L 15.320104,27.141162   L 15.282646,27.141162   L 15.263918,27.122406   L 15.07663,27.122406   L 15.057902,27.141162   L 15.020444,27.141162   L 15.001715,27.159919   L 14.982987,27.159919   L 14.982987,27.178676   L 14.964258,27.197433   L 14.964258,27.21619   L 14.945529,27.21619   L 14.945529,27.234947  "
     id="path213" />
  <path
     style="fill:none;stroke:#a5a5a5;stroke-width:0.056186199px;stroke-linecap:round;stroke-linejoin:round;stroke-miterlimit:4;stroke-dasharray:none;stroke-opacity:1;"
     d="  M 17.061876,32.937029   L 17.00569,32.880759   L 16.986961,32.880759   L 16.986961,32.862002   L 16.968232,32.862002   L 16.949504,32.843245   L 16.930775,32.843245   L 16.893317,32.805731   L 16.874589,32.805731   L 16.85586,32.786974   L 16.837131,32.786974   L 16.818402,32.768218   L 16.799674,32.768218   L 16.780945,32.749461   L 16.743488,32.749461   L 16.724759,32.730704   L 16.668573,32.730704   L 16.631115,32.711947   L 16.425099,32.711947   L 16.40637,32.730704   L 16.350184,32.730704   L 16.331455,32.749461   L 16.293998,32.749461   L 16.275269,32.768218   L 16.25654,32.768218   L 16.237812,32.786974   L 16.219083,32.786974   L 16.200354,32.805731   L 16.181626,32.805731   L 16.162897,32.824488   L 16.144168,32.824488   L 16.144168,32.843245   L 16.125439,32.862002   L 16.106711,32.862002   L 16.087982,32.880759   L 16.087982,32.899516   L 16.069253,32.899516   L 16.050524,32.918272   L 16.050524,32.937029   L 16.013067,32.974543   L 16.013067,32.9933  "
     id="path215" />
  <path
     style="fill:none;stroke:#a5a5a5;stroke-width:0.056186199px;stroke-linecap:round;stroke-linejoin:round;stroke-miterlimit:4;stroke-dasharray:none;stroke-opacity:1;"
     d="  M 16.893317,33.030813   L 16.874589,33.012057   L 16.85586,33.012057   L 16.85586,32.9933   L 16.837131,32.9933   L 16.818402,32.974543   L 16.799674,32.974543   L 16.799674,32.955786   L 16.762216,32.955786   L 16.762216,32.937029   L 16.724759,32.937029   L 16.70603,32.918272   L 16.649844,32.918272   L 16.631115,32.899516   L 16.443828,32.899516   L 16.425099,32.918272   L 16.368913,32.918272   L 16.350184,32.937029   L 16.312727,32.937029   L 16.312727,32.955786   L 16.275269,32.955786   L 16.275269,32.974543   L 16.25654,32.974543   L 16.25654,32.9933   L 16.237812,32.9933   L 16.219083,33.012057   L 16.219083,33.030813   L 16.200354,33.030813   L 16.200354,33.04957   L 16.181626,33.068327   L 16.181626,33.087084  "
     id="path217" />
  <path
     style="fill:none;stroke:#a5a5a5;stroke-width:0.056186199px;stroke-linecap:round;stroke-linejoin:round;stroke-miterlimit:4;stroke-dasharray:none;stroke-opacity:1;"
     d="  M 16.762216,33.180868   L 16.743488,33.162111   L 16.743488,33.143355   L 16.724759,33.143355   L 16.724759,33.124598   L 16.70603,33.124598   L 16.70603,33.105841   L 16.687301,33.105841   L 16.687301,33.087084   L 16.649844,33.087084   L 16.631115,33.068327   L 16.443828,33.068327   L 16.425099,33.087084   L 16.387642,33.087084   L 16.368913,33.105841   L 16.350184,33.105841   L 16.350184,33.124598   L 16.331455,33.143355   L 16.331455,33.162111   L 16.312727,33.162111   L 16.312727,33.180868  "
     id="path219" />
  <text
     xml:space="preserve"
     style="font-size:2.000000px;font-style:normal;font-variant:normal;font-weight:400;font-stretch:Normal;line-height:127.606576%;letter-spacing:0px;word-spacing:0px;fill:#000000;fill-opacity:1;stroke:none;font-family:Arial;text-align:start;text-anchor:start;"
     transform="matrix(1.000000,-0.000000,0.000000,1.000000,12.291785,3.002508)"
     x="0.000000"
     y="1.458000"
     id="text229"><tspan
       x="0.000000"
       y="1.458000"
       id="tspan223"><tspan
         dx="0.000000"
         dy="0.000000"
         style="fill:#000000;font-size:2.000000px;font-style:normal;font-variant:normal;font-weight:400;font-stretch:Normal;font-family:Arial;"
         id="tspan221">A1</tspan></tspan><tspan
       x="0.000000"
       y="4.010132"
       id="tspan227"><tspan
         dx="0.000000"
         dy="0.000000"
         style="fill:#000000;font-size:2.000000px;font-style:normal;font-variant:normal;font-weight:400;font-stretch:Normal;font-family:Arial;"
         id="tspan225">2.4G</tspan></tspan></text>
  <text
     xml:space="preserve"
     style="font-size:2.000000px;font-style:normal;font-variant:normal;font-weight:400;font-stretch:Normal;line-height:125.000000%;letter-spacing:0px;word-spacing:0px;fill:#000000;fill-opacity:1;stroke:none;font-family:Arial;text-align:start;text-anchor:start;"
     transform="matrix(1.000000,-0.000000,0.000000,1.000000,12.291785,3.002508)"
     x="34.626857"
     y="4.010132"
     id="text235"><tspan
       x="34.626857"
       y="4.010132"
       id="tspan233"><tspan
         dx="0.000000"
         dy="0.000000"
         style="fill:#000000;font-size:2.000000px;font-style:normal;font-variant:normal;font-weight:400;font-stretch:Normal;font-family:Arial;"
         id="tspan231">2.4G</tspan></tspan></text>
  <text
     xml:space="preserve"
     style="font-size:2.000000px;font-style:normal;font-variant:normal;font-weight:400;font-stretch:Normal;line-height:125.000000%;letter-spacing:0px;word-spacing:0px;fill:#000000;fill-opacity:1;stroke:none;font-family:Arial;text-align:start;text-anchor:start;"
     transform="matrix(1.000000,-0.000000,0.000000,1.000000,12.291785,3.002508)"
     x="34.626857"
     y="1.458000"
     id="text241"><tspan
       x="34.626857"
       y="1.458000"
       id="tspan239"><tspan
         dx="0.000000"
         dy="0.000000"
         style="fill:#000000;font-size:2.000000px;font-style:normal;font-variant:normal;font-weight:400;font-stretch:Normal;font-family:Arial;"
         id="tspan237">A3</tspan></tspan></text>
  <text
     xml:space="preserve"
     style="font-size:2.000000px;font-style:normal;font-variant:normal;font-weight:400;font-stretch:Normal;line-height:125.000000%;letter-spacing:0px;word-spacing:0px;fill:#000000;fill-opacity:1;stroke:none;font-family:Arial;text-align:start;text-anchor:start;"
     transform="matrix(1.000000,-0.000000,0.000000,1.000000,12.291785,3.002508)"
     x="50.516238"
     y="4.010132"
     id="text247"><tspan
       x="50.516238"
       y="4.010132"
       id="tspan245"><tspan
         dx="0.000000"
         dy="0.000000"
         style="fill:#000000;font-size:2.000000px;font-style:normal;font-variant:normal;font-weight:400;font-stretch:Normal;font-family:Arial;"
         id="tspan243">5.0G</tspan></tspan></text>
  <text
     xml:space="preserve"
     style="font-size:2.000000px;font-style:normal;font-variant:normal;font-weight:400;font-stretch:Normal;line-height:125.000000%;letter-spacing:0px;word-spacing:0px;fill:#000000;fill-opacity:1;stroke:none;font-family:Arial;text-align:start;text-anchor:start;"
     transform="matrix(1.000000,-0.000000,0.000000,1.000000,12.291785,3.002508)"
     x="50.516238"
     y="1.458000"
     id="text253"><tspan
       x="50.516238"
       y="1.458000"
       id="tspan251"><tspan
         dx="0.000000"
         dy="0.000000"
         style="fill:#000000;font-size:2.000000px;font-style:normal;font-variant:normal;font-weight:400;font-stretch:Normal;font-family:Arial;"
         id="tspan249">A4</tspan></tspan></text>
  <text
     xml:space="preserve"
     style="font-size:2.000000px;font-style:normal;font-variant:normal;font-weight:400;font-stretch:Normal;line-height:125.000000%;letter-spacing:0px;word-spacing:0px;fill:#000000;fill-opacity:1;stroke:none;font-family:Arial;text-align:start;text-anchor:start;"
     transform="matrix(1.000000,-0.000000,0.000000,1.000000,12.291785,3.002508)"
     x="17.838078"
     y="4.010132"
     id="text259"><tspan
       x="17.838078"
       y="4.010132"
       id="tspan257"><tspan
         dx="0.000000"
         dy="0.000000"
         style="fill:#000000;font-size:2.000000px;font-style:normal;font-variant:normal;font-weight:400;font-stretch:Normal;font-family:Arial;"
         id="tspan255">5.0G</tspan></tspan></text>
  <text
     xml:space="preserve"
     style="font-size:2.000000px;font-style:normal;font-variant:normal;font-weight:400;font-stretch:Normal;line-height:125.000000%;letter-spacing:0px;word-spacing:0px;fill:#000000;fill-opacity:1;stroke:none;font-family:Arial;text-align:start;text-anchor:start;"
     transform="matrix(1.000000,-0.000000,0.000000,1.000000,12.291785,3.002508)"
     x="17.838078"
     y="1.458000"
     id="text265"><tspan
       x="17.838078"
       y="1.458000"
       id="tspan263"><tspan
         dx="0.000000"
         dy="0.000000"
         style="fill:#000000;font-size:2.000000px;font-style:normal;font-variant:normal;font-weight:400;font-stretch:Normal;font-family:Arial;"
         id="tspan261">A2</tspan></tspan></text>
  <text
     xml:space="preserve"
     style="font-size:2.000000px;font-style:normal;font-variant:normal;font-weight:400;font-stretch:Normal;line-height:127.606576%;letter-spacing:0px;word-spacing:0px;fill:#000000;fill-opacity:1;stroke:none;font-family:Arial;text-align:start;text-anchor:start;"
     transform="matrix(1.000000,-0.000000,0.000000,1.000000,12.291785,3.002508)"
     x="0.000000"
     y="70.290488"
     id="text275"><tspan
       x="0.000000"
       y="70.290488"
       id="tspan269"><tspan
         dx="0.000000"
         dy="0.000000"
         style="fill:#000000;font-size:2.000000px;font-style:normal;font-variant:normal;font-weight:400;font-stretch:Normal;font-family:Arial;"
         id="tspan267">A8</tspan></tspan><tspan
       x="0.000000"
       y="72.842620"
       id="tspan273"><tspan
         dx="0.000000"
         dy="0.000000"
         style="fill:#000000;font-size:2.000000px;font-style:normal;font-variant:normal;font-weight:400;font-stretch:Normal;font-family:Arial;"
         id="tspan271">5.0G</tspan></tspan></text>
  <text
     xml:space="preserve"
     style="font-size:2.000000px;font-style:normal;font-variant:normal;font-weight:400;font-stretch:Normal;line-height:125.000000%;letter-spacing:0px;word-spacing:0px;fill:#000000;fill-opacity:1;stroke:none;font-family:Arial;text-align:start;text-anchor:start;"
     transform="matrix(1.000000,-0.000000,0.000000,1.000000,12.291785,3.002508)"
     x="34.626857"
     y="72.842620"
     id="text281"><tspan
       x="34.626857"
       y="72.842620"
       id="tspan279"><tspan
         dx="0.000000"
         dy="0.000000"
         style="fill:#000000;font-size:2.000000px;font-style:normal;font-variant:normal;font-weight:400;font-stretch:Normal;font-family:Arial;"
         id="tspan277">5.0G</tspan></tspan></text>
  <text
     xml:space="preserve"
     style="font-size:2.000000px;font-style:normal;font-variant:normal;font-weight:400;font-stretch:Normal;line-height:125.000000%;letter-spacing:0px;word-spacing:0px;fill:#000000;fill-opacity:1;stroke:none;font-family:Arial;text-align:start;text-anchor:start;"
     transform="matrix(1.000000,-0.000000,0.000000,1.000000,12.291785,3.002508)"
     x="34.626857"
     y="70.290488"
     id="text287"><tspan
       x="34.626857"
       y="70.290488"
       id="tspan285"><tspan
         dx="0.000000"
         dy="0.000000"
         style="fill:#000000;font-size:2.000000px;font-style:normal;font-variant:normal;font-weight:400;font-stretch:Normal;font-family:Arial;"
         id="tspan283">A6</tspan></tspan></text>
  <text
     xml:space="preserve"
     style="font-size:2.000000px;font-style:normal;font-variant:normal;font-weight:400;font-stretch:Normal;line-height:125.000000%;letter-spacing:0px;word-spacing:0px;fill:#000000;fill-opacity:1;stroke:none;font-family:Arial;text-align:start;text-anchor:start;"
     transform="matrix(1.000000,-0.000000,0.000000,1.000000,12.291785,3.002508)"
     x="50.516238"
     y="72.842620"
     id="text293"><tspan
       x="50.516238"
       y="72.842620"
       id="tspan291"><tspan
         dx="0.000000"
         dy="0.000000"
         style="fill:#000000;font-size:2.000000px;font-style:normal;font-variant:normal;font-weight:400;font-stretch:Normal;font-family:Arial;"
         id="tspan289">5.0G</tspan></tspan></text>
  <text
     xml:space="preserve"
     style="font-size:2.000000px;font-style:normal;font-variant:normal;font-weight:400;font-stretch:Normal;line-height:125.000000%;letter-spacing:0px;word-spacing:0px;fill:#000000;fill-opacity:1;stroke:none;font-family:Arial;text-align:start;text-anchor:start;"
     transform="matrix(1.000000,-0.000000,0.000000,1.000000,12.291785,3.002508)"
     x="50.516238"
     y="70.290488"
     id="text299"><tspan
       x="50.516238"
       y="70.290488"
       id="tspan297"><tspan
         dx="0.000000"
         dy="0.000000"
         style="fill:#000000;font-size:2.000000px;font-style:normal;font-variant:normal;font-weight:400;font-stretch:Normal;font-family:Arial;"
         id="tspan295">A5</tspan></tspan></text>
  <text
     xml:space="preserve"
     style="font-size:2.000000px;font-style:normal;font-variant:normal;font-weight:400;font-stretch:Normal;line-height:125.000000%;letter-spacing:0px;word-spacing:0px;fill:#000000;fill-opacity:1;stroke:none;font-family:Arial;text-align:start;text-anchor:start;"
     transform="matrix(1.000000,-0.000000,0.000000,1.000000,12.291785,3.002508)"
     x="17.838078"
     y="72.842620"
     id="text305"><tspan
       x="17.838078"
       y="72.842620"
       id="tspan303"><tspan
         dx="0.000000"
         dy="0.000000"
         style="fill:#000000;font-size:2.000000px;font-style:normal;font-variant:normal;font-weight:400;font-stretch:Normal;font-family:Arial;"
         id="tspan301">2.4G</tspan></tspan></text>
  <text
     xml:space="preserve"
     style="font-size:2.000000px;font-style:normal;font-variant:normal;font-weight:400;font-stretch:Normal;line-height:125.000000%;letter-spacing:0px;word-spacing:0px;fill:#000000;fill-opacity:1;stroke:none;font-family:Arial;text-align:start;text-anchor:start;"
     transform="matrix(1.000000,-0.000000,0.000000,1.000000,12.291785,3.002508)"
     x="17.838078"
     y="70.290488"
     id="text311"><tspan
       x="17.838078"
       y="70.290488"
       id="tspan309"><tspan
         dx="0.000000"
         dy="0.000000"
         style="fill:#000000;font-size:2.000000px;font-style:normal;font-variant:normal;font-weight:400;font-stretch:Normal;font-family:Arial;"
         id="tspan307">A7</tspan></tspan></text>
  <path
     style="fill:none;stroke:#000000;stroke-width:0.0081024878px;stroke-linecap:round;stroke-linejoin:round;stroke-miterlimit:4;stroke-dasharray:none;stroke-opacity:1;"
     d="  M 14.900476,0.073032114   L 14.616889,0.073032114   L 14.616889,0.35704589   L 14.900476,0.35704589   L 14.900476,0.073032114   z "
     id="path313" />
  <path
     style="fill:none;stroke:#000000;stroke-width:0.0081024878px;stroke-linecap:round;stroke-linejoin:round;stroke-miterlimit:4;stroke-dasharray:none;stroke-opacity:1;"
     d="  M 31.761754,0.073032114   L 31.478167,0.073032114   L 31.478167,0.35704589   L 31.761754,0.35704589   L 31.761754,0.073032114   z "
     id="path315" />
  <path
     style="fill:none;stroke:#000000;stroke-width:0.0081024878px;stroke-linecap:round;stroke-linejoin:round;stroke-miterlimit:4;stroke-dasharray:none;stroke-opacity:1;"
     d="  M 48.550109,0.073032114   L 48.266522,0.073032114   L 48.266522,0.35704589   L 48.550109,0.35704589   L 48.550109,0.073032114   z "
     id="path317" />
  <path
     style="fill:none;stroke:#000000;stroke-width:0.0081024878px;stroke-linecap:round;stroke-linejoin:round;stroke-miterlimit:4;stroke-dasharray:none;stroke-opacity:1;"
     d="  M 65.411387,0.073032114   L 65.1278,0.073032114   L 65.1278,0.35704589   L 65.411387,0.35704589   L 65.411387,0.073032114   z "
     id="path319" />
  <path
     style="fill:none;stroke:#000000;stroke-width:0.0081024878px;stroke-linecap:round;stroke-linejoin:round;stroke-miterlimit:4;stroke-dasharray:none;stroke-opacity:1;"
     d="  M 65.411387,79.418366   L 65.1278,79.418366   L 65.1278,79.70238   L 65.411387,79.70238   L 65.411387,79.418366   z "
     id="path321" />
  <path
     style="fill:none;stroke:#000000;stroke-width:0.0081024878px;stroke-linecap:round;stroke-linejoin:round;stroke-miterlimit:4;stroke-dasharray:none;stroke-opacity:1;"
     d="  M 48.550109,79.418366   L 48.266522,79.418366   L 48.266522,79.70238   L 48.550109,79.70238   L 48.550109,79.418366   z "
     id="path323" />
  <path
     style="fill:none;stroke:#000000;stroke-width:0.0081024878px;stroke-linecap:round;stroke-linejoin:round;stroke-miterlimit:4;stroke-dasharray:none;stroke-opacity:1;"
     d="  M 31.761754,79.418366   L 31.478167,79.418366   L 31.478167,79.70238   L 31.761754,79.70238   L 31.761754,79.418366   z "
     id="path325" />
  <path
     style="fill:none;stroke:#000000;stroke-width:0.0081024878px;stroke-linecap:round;stroke-linejoin:round;stroke-miterlimit:4;stroke-dasharray:none;stroke-opacity:1;"
     d="  M 14.900476,79.418366   L 14.616889,79.418366   L 14.616889,79.70238   L 14.900476,79.70238   L 14.900476,79.418366   z "
     id="path327" />
  <path
     style="fill:none;stroke:#000000;stroke-width:0.0081024878px;stroke-linecap:round;stroke-linejoin:round;stroke-miterlimit:4;stroke-dasharray:none;stroke-opacity:1;"
     d="  M 80.101198,24.692969   L 79.817611,24.692969   L 79.817611,24.976983   L 80.101198,24.976983   L 80.101198,24.692969   z "
     id="path329" />
  <path
     style="fill:none;stroke:#000000;stroke-width:0.012153119px;stroke-linecap:round;stroke-linejoin:round;stroke-miterlimit:4;stroke-dasharray:none;stroke-opacity:1;"
     d="  M 80.247044,39.561073   L 79.821685,39.561073   L 79.821685,39.987115   L 80.247044,39.987115   L 80.247044,39.561073   z "
     id="path331" />
  <path
     style="fill:none;stroke:#000000;stroke-width:0.0081024878px;stroke-linecap:round;stroke-linejoin:round;stroke-miterlimit:4;stroke-dasharray:none;stroke-opacity:1;"
     d="  M 80.101198,54.64425   L 79.817611,54.64425   L 79.817611,54.928264   L 80.101198,54.928264   L 80.101198,54.64425   z "
     id="path333" />
</svg>
