<?xml version="1.0" encoding="UTF-8" standalone="no"?>
<svg
   version="1.0"
   width="21.860001mm"
   height="34.259998mm"
   id="svg277"
   xmlns="http://www.w3.org/2000/svg"
   xmlns:svg="http://www.w3.org/2000/svg">
  <defs
     id="defs3">
    <pattern
       id="EMFhbasepattern"
       patternUnits="userSpaceOnUse"
       width="6"
       height="6"
       x="0"
       y="0" />
  </defs>
  <path
     style="fill:#7f7f7f;fill-rule:evenodd;fill-opacity:1;stroke:#000000;stroke-width:0.093800038px;stroke-linecap:round;stroke-linejoin:round;stroke-miterlimit:4;stroke-dasharray:none;stroke-opacity:1;"
     d="  M 54.854263,105.94518   M 53.803703,107.7996   M 54.028823,108.17423   M 54.028823,108.17423   M 54.310223,108.53012   M 82.581555,2.9595719   L 82.581555,2.8097202   L 82.562795,2.6598684   L 82.544035,2.5100167   L 82.525275,2.3788964   L 82.487755,2.2290447   L 82.450235,2.0979244   L 82.412715,1.9480726   L 82.356435,1.8169524   L 82.300155,1.6858321   L 82.225115,1.5734433   L 82.150075,1.442323   L 82.075035,1.3299342   L 81.999995,1.2175454   L 81.906195,1.1051566   L 81.812395,0.99276779   L 81.718595,0.89911045   L 81.624795,0.80545311   L 81.512235,0.71179577   L 81.399675,0.61813843   L 81.287115,0.54321256   L 81.174555,0.46828669   L 81.043235,0.39336082   L 80.930675,0.31843495   L 80.799355,0.26224055   L 80.668035,0.20604614   L 80.517954,0.16858321   L 80.386634,0.13112027   L 80.236554,0.093657339   L 80.105234,0.074925871   L 79.955154,0.056194403   L 79.805074,0.037462935   L 79.654994,0.037462935   L 2.9640813,0.037462935   L 2.8140012,0.037462935   L 2.6639211,0.056194403   L 2.5138411,0.074925871   L 2.382521,0.093657339   L 2.232441,0.13112027   L 2.1011209,0.16858321   L 1.9510408,0.20604614   L 1.8197208,0.26224055   L 1.6884007,0.31843495   L 1.5758407,0.39336082   L 1.4445206,0.46828669   L 1.3319606,0.54321256   L 1.2194005,0.61813843   L 1.1068405,0.71179577   L 0.99428043,0.80545311   L 0.90048039,0.89911045   L 0.80668035,0.99276779   L 0.7128803,1.1051566   L 0.61908026,1.2175454   L 0.54404023,1.3299342   L 0.4690002,1.442323   L 0.39396017,1.5734433   L 0.31892014,1.6858321   L 0.26264011,1.8169524   L 0.20636009,1.9480726   L 0.16884007,2.0979244   L 0.13132006,2.2290447   L 0.09380004,2.3788964   L 0.075040032,2.5100167   L 0.056280024,2.6598684   L 0.037520016,2.8097202   L 0.037520016,2.9595719   L 0.037520016,116.54719   L 0.037520016,116.69704   L 0.056280024,116.8469   L 0.075040032,116.99675   L 0.09380004,117.12787   L 0.13132006,117.27772   L 0.16884007,117.40884   L 0.20636009,117.55869   L 0.26264011,117.68981   L 0.31892014,117.82093   L 0.39396017,117.93332   L 0.4690002,118.06444   L 0.54404023,118.17683   L 0.61908026,118.28922   L 0.7128803,118.40161   L 0.80668035,118.514   L 0.90048039,118.60765   L 0.99428043,118.70131   L 1.1068405,118.79497   L 1.2194005,118.88863   L 1.3319606,118.96355   L 1.4445206,119.03848   L 1.5758407,119.1134   L 1.6884007,119.18833   L 1.8197208,119.24452   L 1.9510408,119.30072   L 2.1011209,119.33818   L 2.232441,119.37564   L 2.382521,119.41311   L 2.5138411,119.43184   L 2.6639211,119.45057   L 2.8140012,119.4693   L 2.9640813,119.4693   L 79.654994,119.4693   L 79.805074,119.4693   L 79.955154,119.45057   L 80.105234,119.43184   L 80.236554,119.41311   L 80.386634,119.37564   L 80.517954,119.33818   L 80.668035,119.30072   L 80.799355,119.24452   L 80.930675,119.18833   L 81.043235,119.1134   L 81.174555,119.03848   L 81.287115,118.96355   L 81.399675,118.88863   L 81.512235,118.79497   L 81.624795,118.70131   L 81.718595,118.60765   L 81.812395,118.514   L 81.906195,118.40161   L 81.999995,118.28922   L 82.075035,118.17683   L 82.150075,118.06444   L 82.225115,117.93332   L 82.300155,117.82093   L 82.356435,117.68981   L 82.412715,117.55869   L 82.450235,117.40884   L 82.487755,117.27772   L 82.525275,117.12787   L 82.544035,116.99675   L 82.562795,116.8469   L 82.581555,116.69704   L 82.581555,116.54719   L 82.581555,2.9595719   z "
     id="path5" />
  <path
     style="fill:#333333;fill-rule:evenodd;fill-opacity:1;stroke:#000000;stroke-width:0.018760009px;stroke-linecap:round;stroke-linejoin:round;stroke-miterlimit:4;stroke-dasharray:none;stroke-opacity:1;"
     d="  M 23.39373,119.95632   L 23.39373,119.4693   L 13.319606,119.4693   L 13.319606,119.95632   L 23.39373,119.95632   z "
     id="path7" />
  <path
     style="fill:#494949;fill-rule:evenodd;fill-opacity:1;stroke:#000000;stroke-width:0.018760009px;stroke-linecap:round;stroke-linejoin:round;stroke-miterlimit:4;stroke-dasharray:none;stroke-opacity:1;"
     d="  M 23.65637,119.95632   L 23.65637,120.68685   L 13.056966,120.68685   L 13.056966,119.95632   L 23.65637,119.95632   z "
     id="path9" />
  <path
     style="fill:#494949;fill-rule:evenodd;fill-opacity:1;stroke:#000000;stroke-width:0.018760009px;stroke-linecap:round;stroke-linejoin:round;stroke-miterlimit:4;stroke-dasharray:none;stroke-opacity:1;"
     d="  M 23.65637,120.68685   L 23.65637,121.41737   L 13.056966,121.41737   L 13.056966,120.68685   L 23.65637,120.68685   z "
     id="path11" />
  <path
     style="fill:#494949;fill-rule:evenodd;fill-opacity:1;stroke:#000000;stroke-width:0.018760009px;stroke-linecap:round;stroke-linejoin:round;stroke-miterlimit:4;stroke-dasharray:none;stroke-opacity:1;"
     d="  M 22.155569,120.68685   L 22.155569,121.41737   L 14.539006,121.41737   L 14.539006,120.68685   L 22.155569,120.68685   z "
     id="path13" />
  <path
     style="fill:#333333;fill-rule:evenodd;fill-opacity:1;stroke:#000000;stroke-width:0.018760009px;stroke-linecap:round;stroke-linejoin:round;stroke-miterlimit:4;stroke-dasharray:none;stroke-opacity:1;"
     d="  M 23.13109,121.41737   L 23.13109,122.1479   L 13.582246,122.1479   L 13.582246,121.41737   L 23.13109,121.41737   z "
     id="path15" />
  <path
     style="fill:#494949;fill-rule:evenodd;fill-opacity:1;stroke:#000000;stroke-width:0.018760009px;stroke-linecap:round;stroke-linejoin:round;stroke-miterlimit:4;stroke-dasharray:none;stroke-opacity:1;"
     d="  M 23.65637,122.1479   L 23.65637,128.79757   L 13.056966,128.79757   L 13.056966,122.1479   L 23.65637,122.1479   z "
     id="path17" />
  <path
     style="fill:#494949;fill-rule:evenodd;fill-opacity:1;stroke:#000000;stroke-width:0.018760009px;stroke-linecap:round;stroke-linejoin:round;stroke-miterlimit:4;stroke-dasharray:none;stroke-opacity:1;"
     d="  M 23.39373,128.79757   L 23.35621,128.79757   L 23.28117,128.79757   L 23.14985,128.79757   L 22.96225,128.79757   L 22.73713,128.79757   L 22.47449,128.79757   L 22.155569,128.79757   L 21.817889,128.79757   L 21.461449,128.79757   L 21.067489,128.79757   L 20.654769,128.79757   L 20.204529,128.79757   L 19.754288,128.79757   L 19.304048,128.79757   L 18.835048,128.79757   L 18.366048,128.79757   L 17.897048,128.79757   L 17.428047,128.79757   L 16.977807,128.79757   L 16.527567,128.79757   L 16.077327,128.79757   L 15.664607,128.79757   L 15.270647,128.79757   L 14.914206,128.79757   L 14.576526,128.79757   L 14.257606,128.79757   L 13.994966,128.79757   L 13.769846,128.79757   L 13.582246,128.79757   L 13.450926,128.79757   L 13.375886,128.79757   L 13.338366,128.79757   L 13.338366,128.8163   L 13.338366,128.83503   L 13.338366,128.85377   L 13.338366,128.8725   L 13.338366,128.89123   L 13.338366,128.90996   L 13.338366,128.92869   L 13.338366,128.94742   L 13.338366,128.96616   L 13.338366,128.98489   L 13.338366,129.00362   L 13.338366,129.02235   L 13.338366,129.04108   L 13.338366,129.05981   L 13.338366,129.07854   L 13.338366,129.09728   L 13.338366,129.11601   L 13.357126,129.13474   L 13.357126,129.15347   L 13.375886,129.1722   L 13.375886,129.19093   L 13.394646,129.19093   L 13.394646,129.20966   L 13.413406,129.20966   L 13.413406,129.2284   L 13.432166,129.2284   L 13.432166,129.24713   L 13.450926,129.24713   L 13.469686,129.26586   L 13.488446,129.26586   L 13.507206,129.28459   L 13.525966,129.28459   L 13.544726,129.28459   L 13.544726,129.30332   L 13.563486,129.30332   L 13.582246,129.30332   L 13.601006,129.30332   L 13.619766,129.30332   L 13.638526,129.30332   L 13.732326,129.30332   L 13.863646,129.30332   L 14.032486,129.30332   L 14.238846,129.30332   L 14.501486,129.30332   L 14.782886,129.30332   L 15.101806,129.30332   L 15.458247,129.30332   L 15.814687,129.30332   L 16.208647,129.30332   L 16.621367,129.30332   L 17.052847,129.30332   L 17.484327,129.30332   L 17.915808,129.30332   L 18.366048,129.30332   L 18.816288,129.30332   L 19.247768,129.30332   L 19.679248,129.30332   L 20.110729,129.30332   L 20.523449,129.30332   L 20.917409,129.30332   L 21.273849,129.30332   L 21.630289,129.30332   L 21.949209,129.30332   L 22.23061,129.30332   L 22.49325,129.30332   L 22.69961,129.30332   L 22.86845,129.30332   L 22.99977,129.30332   L 23.09357,129.30332   L 23.11233,129.30332   L 23.13109,129.30332   L 23.14985,129.30332   L 23.16861,129.30332   L 23.18737,129.30332   L 23.18737,129.28459   L 23.20613,129.28459   L 23.22489,129.28459   L 23.24365,129.26586   L 23.26241,129.26586   L 23.28117,129.24713   L 23.29993,129.24713   L 23.31869,129.2284   L 23.31869,129.20966   L 23.33745,129.20966   L 23.33745,129.19093   L 23.35621,129.19093   L 23.35621,129.1722   L 23.37497,129.15347   L 23.37497,129.13474   L 23.39373,129.11601   L 23.39373,129.09728   L 23.39373,129.07854   L 23.39373,129.05981   L 23.39373,129.04108   L 23.39373,129.02235   L 23.39373,129.00362   L 23.39373,128.98489   L 23.39373,128.96616   L 23.39373,128.94742   L 23.39373,128.92869   L 23.39373,128.90996   L 23.39373,128.89123   L 23.39373,128.8725   L 23.39373,128.85377   L 23.39373,128.83503   L 23.39373,128.8163   L 23.39373,128.79757   z "
     id="path19" />
  <path
     style="fill:none;stroke:#000000;stroke-width:0.018760009px;stroke-linecap:round;stroke-linejoin:round;stroke-miterlimit:4;stroke-dasharray:none;stroke-opacity:1;"
     d="  M 21.911689,122.18536   L 21.911689,122.31648   L 21.911689,122.48507   L 21.911689,122.63492   L 21.911689,122.82223   L 21.911689,123.00955   L 21.911689,123.21559   L 21.911689,123.42164   L 21.911689,123.64642   L 21.911689,123.8712   L 21.911689,124.09597   L 21.911689,124.33948   L 21.911689,124.56426   L 21.911689,124.80777   L 21.911689,125.03255   L 21.911689,125.27606   L 21.911689,125.50083   L 21.911689,125.72561   L 21.911689,125.95039   L 21.911689,126.17517   L 21.911689,126.38121   L 21.911689,126.58726   L 21.911689,126.77457   L 21.911689,126.94316   L 21.911689,127.11174   L 21.911689,127.26159   L 21.911689,127.39271   L 21.911689,127.5051   L 21.911689,127.59876   L 21.911689,127.67368   L 21.911689,127.72988   L 21.911689,127.76734   L 21.911689,127.78607   L 21.911689,127.8048   L 21.911689,127.82354   L 21.911689,127.84227   L 21.911689,127.861   L 21.930449,127.861   L 21.930449,127.87973   L 21.930449,127.89846   L 21.949209,127.89846   L 21.949209,127.91719   L 21.967969,127.93592   L 21.986729,127.95466   L 21.986729,127.97339   L 22.005489,127.97339   L 22.024249,127.99212   L 22.043009,128.01085   L 22.061769,128.01085   L 22.080529,128.02958   L 22.099289,128.02958   L 22.118049,128.02958   L 22.136809,128.04831   L 22.155569,128.04831   L 22.174329,128.04831   L 22.193089,128.04831   L 22.21185,128.04831   L 22.23061,128.04831   L 22.24937,128.04831   L 22.26813,128.04831   L 22.28689,128.04831   L 22.30565,128.04831   L 22.34317,128.04831   L 22.38069,128.04831   L 22.39945,128.04831   L 22.43697,128.04831   L 22.49325,128.04831   L 22.53077,128.04831   L 22.56829,128.04831   L 22.62457,128.04831   L 22.68085,128.04831   L 22.71837,128.04831   L 22.77465,128.04831   L 22.83093,128.04831   L 22.88721,128.04831   L 22.94349,128.04831   L 22.99977,128.04831   L 23.07481,128.04831   L 23.13109,128.04831   L 23.18737,128.04831   L 23.26241,128.04831   L 23.31869,128.04831   L 23.37497,128.04831   L 23.45001,128.04831   L 23.50629,128.04831   L 23.58133,128.04831   L 23.63761,128.04831  "
     id="path21" />
  <path
     style="fill:none;stroke:#000000;stroke-width:0.018760009px;stroke-linecap:round;stroke-linejoin:round;stroke-miterlimit:4;stroke-dasharray:none;stroke-opacity:1;"
     d="  M 14.801646,122.18536   L 14.801646,122.31648   L 14.801646,122.48507   L 14.801646,122.63492   L 14.801646,122.82223   L 14.801646,123.00955   L 14.801646,123.21559   L 14.801646,123.42164   L 14.801646,123.64642   L 14.801646,123.8712   L 14.801646,124.09597   L 14.801646,124.33948   L 14.801646,124.56426   L 14.801646,124.80777   L 14.801646,125.03255   L 14.801646,125.27606   L 14.801646,125.50083   L 14.801646,125.72561   L 14.801646,125.95039   L 14.801646,126.17517   L 14.801646,126.38121   L 14.801646,126.58726   L 14.801646,126.77457   L 14.801646,126.94316   L 14.801646,127.11174   L 14.801646,127.26159   L 14.801646,127.39271   L 14.801646,127.5051   L 14.801646,127.59876   L 14.801646,127.67368   L 14.801646,127.72988   L 14.801646,127.76734   L 14.801646,127.78607   L 14.801646,127.8048   L 14.801646,127.82354   L 14.801646,127.84227   L 14.801646,127.861   L 14.782886,127.861   L 14.782886,127.87973   L 14.782886,127.89846   L 14.764126,127.89846   L 14.764126,127.91719   L 14.745366,127.93592   L 14.726606,127.95466   L 14.726606,127.97339   L 14.707846,127.97339   L 14.689086,127.99212   L 14.670326,128.01085   L 14.651566,128.01085   L 14.632806,128.02958   L 14.614046,128.02958   L 14.595286,128.02958   L 14.576526,128.04831   L 14.557766,128.04831   L 14.539006,128.04831   L 14.520246,128.04831   L 14.501486,128.04831   L 14.482726,128.04831   L 14.463966,128.04831   L 14.445206,128.04831   L 14.426446,128.04831   L 14.407686,128.04831   L 14.370166,128.04831   L 14.332646,128.04831   L 14.313886,128.04831   L 14.276366,128.04831   L 14.220086,128.04831   L 14.182566,128.04831   L 14.145046,128.04831   L 14.088766,128.04831   L 14.051246,128.04831   L 13.994966,128.04831   L 13.938686,128.04831   L 13.882406,128.04831   L 13.826126,128.04831   L 13.769846,128.04831   L 13.713566,128.04831   L 13.638526,128.04831   L 13.582246,128.04831   L 13.525966,128.04831   L 13.450926,128.04831   L 13.394646,128.04831   L 13.338366,128.04831   L 13.263326,128.04831   L 13.207046,128.04831   L 13.132006,128.04831   L 13.075726,128.04831  "
     id="path23" />
  <path
     style="fill:none;stroke:#000000;stroke-width:0.018760009px;stroke-linecap:round;stroke-linejoin:round;stroke-miterlimit:4;stroke-dasharray:none;stroke-opacity:1;"
     d="  M 16.884007,127.78607   L 16.884007,127.8048   L 16.884007,127.82354   L 16.884007,127.84227   L 16.884007,127.861   L 16.902767,127.861   L 16.902767,127.87973   L 16.902767,127.89846   L 16.921527,127.89846   L 16.921527,127.91719   L 16.940287,127.93592   L 16.959047,127.95466   L 16.959047,127.97339   L 16.977807,127.97339   L 16.996567,127.99212   L 17.015327,128.01085   L 17.034087,128.01085   L 17.052847,128.02958   L 17.071607,128.02958   L 17.090367,128.02958   L 17.109127,128.04831   L 17.127887,128.04831   L 17.146647,128.04831   L 17.165407,128.04831   L 17.184167,128.04831   L 17.202927,128.04831   L 17.240447,128.04831   L 17.277967,128.04831   L 17.334247,128.04831   L 17.409287,128.04831   L 17.484327,128.04831   L 17.559368,128.04831   L 17.634408,128.04831   L 17.728208,128.04831   L 17.840768,128.04831   L 17.934568,128.04831   L 18.047128,128.04831   L 18.159688,128.04831   L 18.272248,128.04831   L 18.384808,128.04831   L 18.478608,128.04831   L 18.591168,128.04831   L 18.703728,128.04831   L 18.816288,128.04831   L 18.910088,128.04831   L 19.022648,128.04831   L 19.116448,128.04831   L 19.191488,128.04831   L 19.266528,128.04831   L 19.341568,128.04831   L 19.416608,128.04831   L 19.472888,128.04831   L 19.510408,128.04831   L 19.547928,128.04831   L 19.566688,128.04831   L 19.585448,128.04831   L 19.604208,128.04831   L 19.622968,128.04831   L 19.641728,128.04831   L 19.660488,128.02958   L 19.679248,128.02958   L 19.698008,128.02958   L 19.716768,128.01085   L 19.735528,128.01085   L 19.754288,127.99212   L 19.773048,127.99212   L 19.773048,127.97339   L 19.791808,127.97339   L 19.810568,127.95466   L 19.810568,127.93592   L 19.829328,127.93592   L 19.829328,127.91719   L 19.848088,127.89846   L 19.848088,127.87973   L 19.848088,127.861   L 19.866848,127.861   L 19.866848,127.84227   L 19.866848,127.82354   L 19.866848,127.8048   L 19.866848,127.78607   L 19.866848,127.76734   L 19.866848,127.72988   L 19.866848,127.65495   L 19.866848,127.54256   L 19.866848,127.41144   L 19.866848,127.26159   L 19.866848,127.09301   L 19.866848,126.90569   L 19.866848,126.69965   L 19.866848,126.47487   L 19.866848,126.25009   L 19.866848,126.00658   L 19.866848,125.74434   L 19.866848,125.50083   L 19.866848,125.23859   L 19.866848,124.97635   L 19.866848,124.69538   L 19.866848,124.43314   L 19.866848,124.18963   L 19.866848,123.92739   L 19.866848,123.68388   L 19.866848,123.4591   L 19.866848,123.23433   L 19.866848,123.02828   L 19.866848,122.84097   L 19.866848,122.67238   L 19.866848,122.52253   L 19.866848,122.39141   L 19.866848,122.27902   L 19.866848,122.2041   L 19.866848,122.16663   L 19.866848,122.1479   L 19.829328,122.1479   L 19.791808,122.1479   L 19.735528,122.1479   L 19.679248,122.1479   L 19.585448,122.1479   L 19.510408,122.1479   L 19.397848,122.1479   L 19.285288,122.1479   L 19.172728,122.1479   L 19.060168,122.1479   L 18.928848,122.1479   L 18.797528,122.1479   L 18.647448,122.1479   L 18.516128,122.1479   L 18.384808,122.1479   L 18.234728,122.1479   L 18.103408,122.1479   L 17.953328,122.1479   L 17.822008,122.1479   L 17.690688,122.1479   L 17.578128,122.1479   L 17.465567,122.1479   L 17.353007,122.1479   L 17.240447,122.1479   L 17.165407,122.1479   L 17.071607,122.1479   L 17.015327,122.1479   L 16.959047,122.1479   L 16.921527,122.1479   L 16.884007,122.1479   L 16.884007,122.16663   L 16.884007,122.2041   L 16.884007,122.27902   L 16.884007,122.39141   L 16.884007,122.52253   L 16.884007,122.67238   L 16.884007,122.84097   L 16.884007,123.02828   L 16.884007,123.23433   L 16.884007,123.4591   L 16.884007,123.68388   L 16.884007,123.92739   L 16.884007,124.18963   L 16.884007,124.43314   L 16.884007,124.69538   L 16.884007,124.97635   L 16.884007,125.23859   L 16.884007,125.50083   L 16.884007,125.74434   L 16.884007,126.00658   L 16.884007,126.25009   L 16.884007,126.47487   L 16.884007,126.69965   L 16.884007,126.90569   L 16.884007,127.09301   L 16.884007,127.26159   L 16.884007,127.41144   L 16.884007,127.54256   L 16.884007,127.65495   L 16.884007,127.72988   L 16.884007,127.76734   L 16.884007,127.78607  "
     id="path25" />
  <path
     style="fill:#333333;fill-rule:evenodd;fill-opacity:1;stroke:#000000;stroke-width:0.018760009px;stroke-linecap:round;stroke-linejoin:round;stroke-miterlimit:4;stroke-dasharray:none;stroke-opacity:1;"
     d="  M 46.33722,119.95632   L 46.33722,119.4693   L 36.263096,119.4693   L 36.263096,119.95632   L 46.33722,119.95632   z "
     id="path27" />
  <path
     style="fill:#494949;fill-rule:evenodd;fill-opacity:1;stroke:#000000;stroke-width:0.018760009px;stroke-linecap:round;stroke-linejoin:round;stroke-miterlimit:4;stroke-dasharray:none;stroke-opacity:1;"
     d="  M 46.59986,119.95632   L 46.59986,120.68685   L 36.000455,120.68685   L 36.000455,119.95632   L 46.59986,119.95632   z "
     id="path29" />
  <path
     style="fill:#494949;fill-rule:evenodd;fill-opacity:1;stroke:#000000;stroke-width:0.018760009px;stroke-linecap:round;stroke-linejoin:round;stroke-miterlimit:4;stroke-dasharray:none;stroke-opacity:1;"
     d="  M 46.59986,120.68685   L 46.59986,121.41737   L 36.000455,121.41737   L 36.000455,120.68685   L 46.59986,120.68685   z "
     id="path31" />
  <path
     style="fill:#494949;fill-rule:evenodd;fill-opacity:1;stroke:#000000;stroke-width:0.018760009px;stroke-linecap:round;stroke-linejoin:round;stroke-miterlimit:4;stroke-dasharray:none;stroke-opacity:1;"
     d="  M 45.099059,120.68685   L 45.099059,121.41737   L 37.482496,121.41737   L 37.482496,120.68685   L 45.099059,120.68685   z "
     id="path33" />
  <path
     style="fill:#333333;fill-rule:evenodd;fill-opacity:1;stroke:#000000;stroke-width:0.018760009px;stroke-linecap:round;stroke-linejoin:round;stroke-miterlimit:4;stroke-dasharray:none;stroke-opacity:1;"
     d="  M 46.07458,121.41737   L 46.07458,122.1479   L 36.525736,122.1479   L 36.525736,121.41737   L 46.07458,121.41737   z "
     id="path35" />
  <path
     style="fill:#494949;fill-rule:evenodd;fill-opacity:1;stroke:#000000;stroke-width:0.018760009px;stroke-linecap:round;stroke-linejoin:round;stroke-miterlimit:4;stroke-dasharray:none;stroke-opacity:1;"
     d="  M 46.59986,122.1479   L 46.59986,128.79757   L 36.000455,128.79757   L 36.000455,122.1479   L 46.59986,122.1479   z "
     id="path37" />
  <path
     style="fill:#494949;fill-rule:evenodd;fill-opacity:1;stroke:#000000;stroke-width:0.018760009px;stroke-linecap:round;stroke-linejoin:round;stroke-miterlimit:4;stroke-dasharray:none;stroke-opacity:1;"
     d="  M 46.33722,128.79757   L 46.2997,128.79757   L 46.22466,128.79757   L 46.09334,128.79757   L 45.90574,128.79757   L 45.68062,128.79757   L 45.417979,128.79757   L 45.099059,128.79757   L 44.761379,128.79757   L 44.404939,128.79757   L 44.010979,128.79757   L 43.598259,128.79757   L 43.148018,128.79757   L 42.697778,128.79757   L 42.247538,128.79757   L 41.778538,128.79757   L 41.309538,128.79757   L 40.840537,128.79757   L 40.371537,128.79757   L 39.921297,128.79757   L 39.471057,128.79757   L 39.020817,128.79757   L 38.608097,128.79757   L 38.214136,128.79757   L 37.857696,128.79757   L 37.520016,128.79757   L 37.201096,128.79757   L 36.938456,128.79757   L 36.713336,128.79757   L 36.525736,128.79757   L 36.394416,128.79757   L 36.319376,128.79757   L 36.281856,128.79757   L 36.281856,128.8163   L 36.281856,128.83503   L 36.281856,128.85377   L 36.281856,128.8725   L 36.281856,128.89123   L 36.281856,128.90996   L 36.281856,128.92869   L 36.281856,128.94742   L 36.281856,128.96616   L 36.281856,128.98489   L 36.281856,129.00362   L 36.281856,129.02235   L 36.281856,129.04108   L 36.281856,129.05981   L 36.281856,129.07854   L 36.281856,129.09728   L 36.281856,129.11601   L 36.300616,129.13474   L 36.300616,129.15347   L 36.319376,129.1722   L 36.319376,129.19093   L 36.338136,129.19093   L 36.338136,129.20966   L 36.356896,129.20966   L 36.356896,129.2284   L 36.375656,129.2284   L 36.375656,129.24713   L 36.394416,129.24713   L 36.413176,129.26586   L 36.431936,129.26586   L 36.450696,129.28459   L 36.469456,129.28459   L 36.488216,129.28459   L 36.488216,129.30332   L 36.506976,129.30332   L 36.525736,129.30332   L 36.544496,129.30332   L 36.563256,129.30332   L 36.582016,129.30332   L 36.675816,129.30332   L 36.807136,129.30332   L 36.975976,129.30332   L 37.182336,129.30332   L 37.444976,129.30332   L 37.726376,129.30332   L 38.045296,129.30332   L 38.401736,129.30332   L 38.758177,129.30332   L 39.152137,129.30332   L 39.564857,129.30332   L 39.996337,129.30332   L 40.427817,129.30332   L 40.859297,129.30332   L 41.309538,129.30332   L 41.759778,129.30332   L 42.191258,129.30332   L 42.622738,129.30332   L 43.054218,129.30332   L 43.466939,129.30332   L 43.860899,129.30332   L 44.217339,129.30332   L 44.573779,129.30332   L 44.892699,129.30332   L 45.174099,129.30332   L 45.436739,129.30332   L 45.6431,129.30332   L 45.81194,129.30332   L 45.94326,129.30332   L 46.03706,129.30332   L 46.05582,129.30332   L 46.07458,129.30332   L 46.09334,129.30332   L 46.1121,129.30332   L 46.13086,129.30332   L 46.13086,129.28459   L 46.14962,129.28459   L 46.16838,129.28459   L 46.18714,129.26586   L 46.2059,129.26586   L 46.22466,129.24713   L 46.24342,129.24713   L 46.26218,129.2284   L 46.26218,129.20966   L 46.28094,129.20966   L 46.28094,129.19093   L 46.2997,129.19093   L 46.2997,129.1722   L 46.31846,129.15347   L 46.31846,129.13474   L 46.33722,129.11601   L 46.33722,129.09728   L 46.33722,129.07854   L 46.33722,129.05981   L 46.33722,129.04108   L 46.33722,129.02235   L 46.33722,129.00362   L 46.33722,128.98489   L 46.33722,128.96616   L 46.33722,128.94742   L 46.33722,128.92869   L 46.33722,128.90996   L 46.33722,128.89123   L 46.33722,128.8725   L 46.33722,128.85377   L 46.33722,128.83503   L 46.33722,128.8163   L 46.33722,128.79757   z "
     id="path39" />
  <path
     style="fill:none;stroke:#000000;stroke-width:0.018760009px;stroke-linecap:round;stroke-linejoin:round;stroke-miterlimit:4;stroke-dasharray:none;stroke-opacity:1;"
     d="  M 44.855179,122.18536   L 44.855179,122.31648   L 44.855179,122.48507   L 44.855179,122.63492   L 44.855179,122.82223   L 44.855179,123.00955   L 44.855179,123.21559   L 44.855179,123.42164   L 44.855179,123.64642   L 44.855179,123.8712   L 44.855179,124.09597   L 44.855179,124.33948   L 44.855179,124.56426   L 44.855179,124.80777   L 44.855179,125.03255   L 44.855179,125.27606   L 44.855179,125.50083   L 44.855179,125.72561   L 44.855179,125.95039   L 44.855179,126.17517   L 44.855179,126.38121   L 44.855179,126.58726   L 44.855179,126.77457   L 44.855179,126.94316   L 44.855179,127.11174   L 44.855179,127.26159   L 44.855179,127.39271   L 44.855179,127.5051   L 44.855179,127.59876   L 44.855179,127.67368   L 44.855179,127.72988   L 44.855179,127.76734   L 44.855179,127.78607   L 44.855179,127.8048   L 44.855179,127.82354   L 44.855179,127.84227   L 44.855179,127.861   L 44.873939,127.861   L 44.873939,127.87973   L 44.873939,127.89846   L 44.892699,127.89846   L 44.892699,127.91719   L 44.911459,127.93592   L 44.930219,127.95466   L 44.930219,127.97339   L 44.948979,127.97339   L 44.967739,127.99212   L 44.986499,128.01085   L 45.005259,128.01085   L 45.024019,128.02958   L 45.042779,128.02958   L 45.061539,128.02958   L 45.080299,128.04831   L 45.099059,128.04831   L 45.117819,128.04831   L 45.136579,128.04831   L 45.155339,128.04831   L 45.174099,128.04831   L 45.192859,128.04831   L 45.211619,128.04831   L 45.230379,128.04831   L 45.249139,128.04831   L 45.286659,128.04831   L 45.324179,128.04831   L 45.342939,128.04831   L 45.380459,128.04831   L 45.436739,128.04831   L 45.474259,128.04831   L 45.511779,128.04831   L 45.568059,128.04831   L 45.62434,128.04831   L 45.66186,128.04831   L 45.71814,128.04831   L 45.77442,128.04831   L 45.8307,128.04831   L 45.88698,128.04831   L 45.94326,128.04831   L 46.0183,128.04831   L 46.07458,128.04831   L 46.13086,128.04831   L 46.2059,128.04831   L 46.26218,128.04831   L 46.31846,128.04831   L 46.3935,128.04831   L 46.44978,128.04831   L 46.52482,128.04831   L 46.5811,128.04831  "
     id="path41" />
  <path
     style="fill:none;stroke:#000000;stroke-width:0.018760009px;stroke-linecap:round;stroke-linejoin:round;stroke-miterlimit:4;stroke-dasharray:none;stroke-opacity:1;"
     d="  M 37.745136,122.18536   L 37.745136,122.31648   L 37.745136,122.48507   L 37.745136,122.63492   L 37.745136,122.82223   L 37.745136,123.00955   L 37.745136,123.21559   L 37.745136,123.42164   L 37.745136,123.64642   L 37.745136,123.8712   L 37.745136,124.09597   L 37.745136,124.33948   L 37.745136,124.56426   L 37.745136,124.80777   L 37.745136,125.03255   L 37.745136,125.27606   L 37.745136,125.50083   L 37.745136,125.72561   L 37.745136,125.95039   L 37.745136,126.17517   L 37.745136,126.38121   L 37.745136,126.58726   L 37.745136,126.77457   L 37.745136,126.94316   L 37.745136,127.11174   L 37.745136,127.26159   L 37.745136,127.39271   L 37.745136,127.5051   L 37.745136,127.59876   L 37.745136,127.67368   L 37.745136,127.72988   L 37.745136,127.76734   L 37.745136,127.78607   L 37.745136,127.8048   L 37.745136,127.82354   L 37.745136,127.84227   L 37.745136,127.861   L 37.726376,127.861   L 37.726376,127.87973   L 37.726376,127.89846   L 37.707616,127.89846   L 37.707616,127.91719   L 37.688856,127.93592   L 37.670096,127.95466   L 37.670096,127.97339   L 37.651336,127.97339   L 37.632576,127.99212   L 37.613816,128.01085   L 37.595056,128.01085   L 37.576296,128.02958   L 37.557536,128.02958   L 37.538776,128.02958   L 37.520016,128.04831   L 37.501256,128.04831   L 37.482496,128.04831   L 37.463736,128.04831   L 37.444976,128.04831   L 37.426216,128.04831   L 37.407456,128.04831   L 37.388696,128.04831   L 37.369936,128.04831   L 37.351176,128.04831   L 37.313656,128.04831   L 37.276136,128.04831   L 37.257376,128.04831   L 37.219856,128.04831   L 37.163576,128.04831   L 37.126056,128.04831   L 37.088536,128.04831   L 37.032256,128.04831   L 36.994736,128.04831   L 36.938456,128.04831   L 36.882176,128.04831   L 36.825896,128.04831   L 36.769616,128.04831   L 36.713336,128.04831   L 36.657056,128.04831   L 36.582016,128.04831   L 36.525736,128.04831   L 36.469456,128.04831   L 36.394416,128.04831   L 36.338136,128.04831   L 36.281856,128.04831   L 36.206815,128.04831   L 36.150535,128.04831   L 36.075495,128.04831   L 36.019215,128.04831  "
     id="path43" />
  <path
     style="fill:none;stroke:#000000;stroke-width:0.018760009px;stroke-linecap:round;stroke-linejoin:round;stroke-miterlimit:4;stroke-dasharray:none;stroke-opacity:1;"
     d="  M 39.827497,127.78607   L 39.827497,127.8048   L 39.827497,127.82354   L 39.827497,127.84227   L 39.827497,127.861   L 39.846257,127.861   L 39.846257,127.87973   L 39.846257,127.89846   L 39.865017,127.89846   L 39.865017,127.91719   L 39.883777,127.93592   L 39.902537,127.95466   L 39.902537,127.97339   L 39.921297,127.97339   L 39.940057,127.99212   L 39.958817,128.01085   L 39.977577,128.01085   L 39.996337,128.02958   L 40.015097,128.02958   L 40.033857,128.02958   L 40.052617,128.04831   L 40.071377,128.04831   L 40.090137,128.04831   L 40.108897,128.04831   L 40.127657,128.04831   L 40.146417,128.04831   L 40.183937,128.04831   L 40.221457,128.04831   L 40.277737,128.04831   L 40.352777,128.04831   L 40.427817,128.04831   L 40.502857,128.04831   L 40.577897,128.04831   L 40.671697,128.04831   L 40.784257,128.04831   L 40.878057,128.04831   L 40.990618,128.04831   L 41.103178,128.04831   L 41.215738,128.04831   L 41.328298,128.04831   L 41.422098,128.04831   L 41.534658,128.04831   L 41.647218,128.04831   L 41.759778,128.04831   L 41.853578,128.04831   L 41.966138,128.04831   L 42.059938,128.04831   L 42.134978,128.04831   L 42.210018,128.04831   L 42.285058,128.04831   L 42.360098,128.04831   L 42.416378,128.04831   L 42.453898,128.04831   L 42.491418,128.04831   L 42.510178,128.04831   L 42.528938,128.04831   L 42.547698,128.04831   L 42.566458,128.04831   L 42.585218,128.04831   L 42.603978,128.02958   L 42.622738,128.02958   L 42.641498,128.02958   L 42.660258,128.01085   L 42.679018,128.01085   L 42.697778,127.99212   L 42.716538,127.99212   L 42.716538,127.97339   L 42.735298,127.97339   L 42.754058,127.95466   L 42.754058,127.93592   L 42.772818,127.93592   L 42.772818,127.91719   L 42.791578,127.89846   L 42.791578,127.87973   L 42.791578,127.861   L 42.810338,127.861   L 42.810338,127.84227   L 42.810338,127.82354   L 42.810338,127.8048   L 42.810338,127.78607   L 42.810338,127.76734   L 42.810338,127.72988   L 42.810338,127.65495   L 42.810338,127.54256   L 42.810338,127.41144   L 42.810338,127.26159   L 42.810338,127.09301   L 42.810338,126.90569   L 42.810338,126.69965   L 42.810338,126.47487   L 42.810338,126.25009   L 42.810338,126.00658   L 42.810338,125.74434   L 42.810338,125.50083   L 42.810338,125.23859   L 42.810338,124.97635   L 42.810338,124.69538   L 42.810338,124.43314   L 42.810338,124.18963   L 42.810338,123.92739   L 42.810338,123.68388   L 42.810338,123.4591   L 42.810338,123.23433   L 42.810338,123.02828   L 42.810338,122.84097   L 42.810338,122.67238   L 42.810338,122.52253   L 42.810338,122.39141   L 42.810338,122.27902   L 42.810338,122.2041   L 42.810338,122.16663   L 42.810338,122.1479   L 42.772818,122.1479   L 42.735298,122.1479   L 42.679018,122.1479   L 42.622738,122.1479   L 42.528938,122.1479   L 42.453898,122.1479   L 42.341338,122.1479   L 42.228778,122.1479   L 42.116218,122.1479   L 42.003658,122.1479   L 41.872338,122.1479   L 41.741018,122.1479   L 41.590938,122.1479   L 41.459618,122.1479   L 41.328298,122.1479   L 41.178218,122.1479   L 41.046898,122.1479   L 40.896817,122.1479   L 40.765497,122.1479   L 40.634177,122.1479   L 40.521617,122.1479   L 40.409057,122.1479   L 40.296497,122.1479   L 40.183937,122.1479   L 40.108897,122.1479   L 40.015097,122.1479   L 39.958817,122.1479   L 39.902537,122.1479   L 39.865017,122.1479   L 39.827497,122.1479   L 39.827497,122.16663   L 39.827497,122.2041   L 39.827497,122.27902   L 39.827497,122.39141   L 39.827497,122.52253   L 39.827497,122.67238   L 39.827497,122.84097   L 39.827497,123.02828   L 39.827497,123.23433   L 39.827497,123.4591   L 39.827497,123.68388   L 39.827497,123.92739   L 39.827497,124.18963   L 39.827497,124.43314   L 39.827497,124.69538   L 39.827497,124.97635   L 39.827497,125.23859   L 39.827497,125.50083   L 39.827497,125.74434   L 39.827497,126.00658   L 39.827497,126.25009   L 39.827497,126.47487   L 39.827497,126.69965   L 39.827497,126.90569   L 39.827497,127.09301   L 39.827497,127.26159   L 39.827497,127.41144   L 39.827497,127.54256   L 39.827497,127.65495   L 39.827497,127.72988   L 39.827497,127.76734   L 39.827497,127.78607  "
     id="path45" />
  <path
     style="fill:#333333;fill-rule:evenodd;fill-opacity:1;stroke:#000000;stroke-width:0.018760009px;stroke-linecap:round;stroke-linejoin:round;stroke-miterlimit:4;stroke-dasharray:none;stroke-opacity:1;"
     d="  M 69.31823,119.95632   L 69.31823,119.4693   L 59.244105,119.4693   L 59.244105,119.95632   L 69.31823,119.95632   z "
     id="path47" />
  <path
     style="fill:#494949;fill-rule:evenodd;fill-opacity:1;stroke:#000000;stroke-width:0.018760009px;stroke-linecap:round;stroke-linejoin:round;stroke-miterlimit:4;stroke-dasharray:none;stroke-opacity:1;"
     d="  M 69.58087,119.95632   L 69.58087,120.68685   L 58.981465,120.68685   L 58.981465,119.95632   L 69.58087,119.95632   z "
     id="path49" />
  <path
     style="fill:#494949;fill-rule:evenodd;fill-opacity:1;stroke:#000000;stroke-width:0.018760009px;stroke-linecap:round;stroke-linejoin:round;stroke-miterlimit:4;stroke-dasharray:none;stroke-opacity:1;"
     d="  M 69.58087,120.68685   L 69.58087,121.41737   L 58.981465,121.41737   L 58.981465,120.68685   L 69.58087,120.68685   z "
     id="path51" />
  <path
     style="fill:#494949;fill-rule:evenodd;fill-opacity:1;stroke:#000000;stroke-width:0.018760009px;stroke-linecap:round;stroke-linejoin:round;stroke-miterlimit:4;stroke-dasharray:none;stroke-opacity:1;"
     d="  M 68.080069,120.68685   L 68.080069,121.41737   L 60.463506,121.41737   L 60.463506,120.68685   L 68.080069,120.68685   z "
     id="path53" />
  <path
     style="fill:#333333;fill-rule:evenodd;fill-opacity:1;stroke:#000000;stroke-width:0.018760009px;stroke-linecap:round;stroke-linejoin:round;stroke-miterlimit:4;stroke-dasharray:none;stroke-opacity:1;"
     d="  M 69.05559,121.41737   L 69.05559,122.1479   L 59.506745,122.1479   L 59.506745,121.41737   L 69.05559,121.41737   z "
     id="path55" />
  <path
     style="fill:#494949;fill-rule:evenodd;fill-opacity:1;stroke:#000000;stroke-width:0.018760009px;stroke-linecap:round;stroke-linejoin:round;stroke-miterlimit:4;stroke-dasharray:none;stroke-opacity:1;"
     d="  M 69.58087,122.1479   L 69.58087,128.79757   L 58.981465,128.79757   L 58.981465,122.1479   L 69.58087,122.1479   z "
     id="path57" />
  <path
     style="fill:#494949;fill-rule:evenodd;fill-opacity:1;stroke:#000000;stroke-width:0.018760009px;stroke-linecap:round;stroke-linejoin:round;stroke-miterlimit:4;stroke-dasharray:none;stroke-opacity:1;"
     d="  M 69.31823,128.79757   L 69.28071,128.79757   L 69.20567,128.79757   L 69.07435,128.79757   L 68.886749,128.79757   L 68.661629,128.79757   L 68.398989,128.79757   L 68.080069,128.79757   L 67.742389,128.79757   L 67.385949,128.79757   L 66.991989,128.79757   L 66.579268,128.79757   L 66.129028,128.79757   L 65.678788,128.79757   L 65.228548,128.79757   L 64.759548,128.79757   L 64.290548,128.79757   L 63.821547,128.79757   L 63.352547,128.79757   L 62.902307,128.79757   L 62.452067,128.79757   L 62.001827,128.79757   L 61.589106,128.79757   L 61.195146,128.79757   L 60.838706,128.79757   L 60.501026,128.79757   L 60.182106,128.79757   L 59.919466,128.79757   L 59.694346,128.79757   L 59.506745,128.79757   L 59.375425,128.79757   L 59.300385,128.79757   L 59.262865,128.79757   L 59.262865,128.8163   L 59.262865,128.83503   L 59.262865,128.85377   L 59.262865,128.8725   L 59.262865,128.89123   L 59.262865,128.90996   L 59.262865,128.92869   L 59.262865,128.94742   L 59.262865,128.96616   L 59.262865,128.98489   L 59.262865,129.00362   L 59.262865,129.02235   L 59.262865,129.04108   L 59.262865,129.05981   L 59.262865,129.07854   L 59.262865,129.09728   L 59.262865,129.11601   L 59.281625,129.13474   L 59.281625,129.15347   L 59.300385,129.1722   L 59.300385,129.19093   L 59.319145,129.19093   L 59.319145,129.20966   L 59.337905,129.20966   L 59.337905,129.2284   L 59.356665,129.2284   L 59.356665,129.24713   L 59.375425,129.24713   L 59.394185,129.26586   L 59.412945,129.26586   L 59.431705,129.28459   L 59.450465,129.28459   L 59.469225,129.28459   L 59.469225,129.30332   L 59.487985,129.30332   L 59.506745,129.30332   L 59.525505,129.30332   L 59.544265,129.30332   L 59.563025,129.30332   L 59.656826,129.30332   L 59.788146,129.30332   L 59.956986,129.30332   L 60.163346,129.30332   L 60.425986,129.30332   L 60.707386,129.30332   L 61.026306,129.30332   L 61.382746,129.30332   L 61.739186,129.30332   L 62.133147,129.30332   L 62.545867,129.30332   L 62.977347,129.30332   L 63.408827,129.30332   L 63.840307,129.30332   L 64.290548,129.30332   L 64.740788,129.30332   L 65.172268,129.30332   L 65.603748,129.30332   L 66.035228,129.30332   L 66.447948,129.30332   L 66.841909,129.30332   L 67.198349,129.30332   L 67.554789,129.30332   L 67.873709,129.30332   L 68.155109,129.30332   L 68.417749,129.30332   L 68.624109,129.30332   L 68.792949,129.30332   L 68.924269,129.30332   L 69.01807,129.30332   L 69.03683,129.30332   L 69.05559,129.30332   L 69.07435,129.30332   L 69.09311,129.30332   L 69.11187,129.30332   L 69.11187,129.28459   L 69.13063,129.28459   L 69.14939,129.28459   L 69.16815,129.26586   L 69.18691,129.26586   L 69.20567,129.24713   L 69.22443,129.24713   L 69.24319,129.2284   L 69.24319,129.20966   L 69.26195,129.20966   L 69.26195,129.19093   L 69.28071,129.19093   L 69.28071,129.1722   L 69.29947,129.15347   L 69.29947,129.13474   L 69.31823,129.11601   L 69.31823,129.09728   L 69.31823,129.07854   L 69.31823,129.05981   L 69.31823,129.04108   L 69.31823,129.02235   L 69.31823,129.00362   L 69.31823,128.98489   L 69.31823,128.96616   L 69.31823,128.94742   L 69.31823,128.92869   L 69.31823,128.90996   L 69.31823,128.89123   L 69.31823,128.8725   L 69.31823,128.85377   L 69.31823,128.83503   L 69.31823,128.8163   L 69.31823,128.79757   z "
     id="path59" />
  <path
     style="fill:none;stroke:#000000;stroke-width:0.018760009px;stroke-linecap:round;stroke-linejoin:round;stroke-miterlimit:4;stroke-dasharray:none;stroke-opacity:1;"
     d="  M 67.836189,122.18536   L 67.836189,122.31648   L 67.836189,122.48507   L 67.836189,122.63492   L 67.836189,122.82223   L 67.836189,123.00955   L 67.836189,123.21559   L 67.836189,123.42164   L 67.836189,123.64642   L 67.836189,123.8712   L 67.836189,124.09597   L 67.836189,124.33948   L 67.836189,124.56426   L 67.836189,124.80777   L 67.836189,125.03255   L 67.836189,125.27606   L 67.836189,125.50083   L 67.836189,125.72561   L 67.836189,125.95039   L 67.836189,126.17517   L 67.836189,126.38121   L 67.836189,126.58726   L 67.836189,126.77457   L 67.836189,126.94316   L 67.836189,127.11174   L 67.836189,127.26159   L 67.836189,127.39271   L 67.836189,127.5051   L 67.836189,127.59876   L 67.836189,127.67368   L 67.836189,127.72988   L 67.836189,127.76734   L 67.836189,127.78607   L 67.836189,127.8048   L 67.836189,127.82354   L 67.836189,127.84227   L 67.836189,127.861   L 67.854949,127.861   L 67.854949,127.87973   L 67.854949,127.89846   L 67.873709,127.89846   L 67.873709,127.91719   L 67.892469,127.93592   L 67.911229,127.95466   L 67.911229,127.97339   L 67.929989,127.97339   L 67.948749,127.99212   L 67.967509,128.01085   L 67.986269,128.01085   L 68.005029,128.02958   L 68.023789,128.02958   L 68.042549,128.02958   L 68.061309,128.04831   L 68.080069,128.04831   L 68.098829,128.04831   L 68.117589,128.04831   L 68.136349,128.04831   L 68.155109,128.04831   L 68.173869,128.04831   L 68.192629,128.04831   L 68.211389,128.04831   L 68.230149,128.04831   L 68.267669,128.04831   L 68.305189,128.04831   L 68.323949,128.04831   L 68.361469,128.04831   L 68.417749,128.04831   L 68.455269,128.04831   L 68.492789,128.04831   L 68.549069,128.04831   L 68.605349,128.04831   L 68.642869,128.04831   L 68.699149,128.04831   L 68.755429,128.04831   L 68.811709,128.04831   L 68.867989,128.04831   L 68.924269,128.04831   L 68.99931,128.04831   L 69.05559,128.04831   L 69.11187,128.04831   L 69.18691,128.04831   L 69.24319,128.04831   L 69.29947,128.04831   L 69.37451,128.04831   L 69.43079,128.04831   L 69.50583,128.04831   L 69.56211,128.04831  "
     id="path61" />
  <path
     style="fill:none;stroke:#000000;stroke-width:0.018760009px;stroke-linecap:round;stroke-linejoin:round;stroke-miterlimit:4;stroke-dasharray:none;stroke-opacity:1;"
     d="  M 60.726146,122.18536   L 60.726146,122.31648   L 60.726146,122.48507   L 60.726146,122.63492   L 60.726146,122.82223   L 60.726146,123.00955   L 60.726146,123.21559   L 60.726146,123.42164   L 60.726146,123.64642   L 60.726146,123.8712   L 60.726146,124.09597   L 60.726146,124.33948   L 60.726146,124.56426   L 60.726146,124.80777   L 60.726146,125.03255   L 60.726146,125.27606   L 60.726146,125.50083   L 60.726146,125.72561   L 60.726146,125.95039   L 60.726146,126.17517   L 60.726146,126.38121   L 60.726146,126.58726   L 60.726146,126.77457   L 60.726146,126.94316   L 60.726146,127.11174   L 60.726146,127.26159   L 60.726146,127.39271   L 60.726146,127.5051   L 60.726146,127.59876   L 60.726146,127.67368   L 60.726146,127.72988   L 60.726146,127.76734   L 60.726146,127.78607   L 60.726146,127.8048   L 60.726146,127.82354   L 60.726146,127.84227   L 60.726146,127.861   L 60.707386,127.861   L 60.707386,127.87973   L 60.707386,127.89846   L 60.688626,127.89846   L 60.688626,127.91719   L 60.669866,127.93592   L 60.651106,127.95466   L 60.651106,127.97339   L 60.632346,127.97339   L 60.613586,127.99212   L 60.594826,128.01085   L 60.576066,128.01085   L 60.557306,128.02958   L 60.538546,128.02958   L 60.519786,128.02958   L 60.501026,128.04831   L 60.482266,128.04831   L 60.463506,128.04831   L 60.444746,128.04831   L 60.425986,128.04831   L 60.407226,128.04831   L 60.388466,128.04831   L 60.369706,128.04831   L 60.350946,128.04831   L 60.332186,128.04831   L 60.294666,128.04831   L 60.257146,128.04831   L 60.238386,128.04831   L 60.200866,128.04831   L 60.144586,128.04831   L 60.107066,128.04831   L 60.069546,128.04831   L 60.013266,128.04831   L 59.975746,128.04831   L 59.919466,128.04831   L 59.863186,128.04831   L 59.806906,128.04831   L 59.750626,128.04831   L 59.694346,128.04831   L 59.638066,128.04831   L 59.563025,128.04831   L 59.506745,128.04831   L 59.450465,128.04831   L 59.375425,128.04831   L 59.319145,128.04831   L 59.262865,128.04831   L 59.187825,128.04831   L 59.131545,128.04831   L 59.056505,128.04831   L 59.000225,128.04831  "
     id="path63" />
  <path
     style="fill:none;stroke:#000000;stroke-width:0.018760009px;stroke-linecap:round;stroke-linejoin:round;stroke-miterlimit:4;stroke-dasharray:none;stroke-opacity:1;"
     d="  M 62.808507,127.78607   L 62.808507,127.8048   L 62.808507,127.82354   L 62.808507,127.84227   L 62.808507,127.861   L 62.827267,127.861   L 62.827267,127.87973   L 62.827267,127.89846   L 62.846027,127.89846   L 62.846027,127.91719   L 62.864787,127.93592   L 62.883547,127.95466   L 62.883547,127.97339   L 62.902307,127.97339   L 62.921067,127.99212   L 62.939827,128.01085   L 62.958587,128.01085   L 62.977347,128.02958   L 62.996107,128.02958   L 63.014867,128.02958   L 63.033627,128.04831   L 63.052387,128.04831   L 63.071147,128.04831   L 63.089907,128.04831   L 63.108667,128.04831   L 63.127427,128.04831   L 63.164947,128.04831   L 63.202467,128.04831   L 63.258747,128.04831   L 63.333787,128.04831   L 63.408827,128.04831   L 63.483867,128.04831   L 63.558907,128.04831   L 63.652707,128.04831   L 63.765267,128.04831   L 63.859067,128.04831   L 63.971627,128.04831   L 64.084187,128.04831   L 64.196747,128.04831   L 64.309308,128.04831   L 64.403108,128.04831   L 64.515668,128.04831   L 64.628228,128.04831   L 64.740788,128.04831   L 64.834588,128.04831   L 64.947148,128.04831   L 65.040948,128.04831   L 65.115988,128.04831   L 65.191028,128.04831   L 65.266068,128.04831   L 65.341108,128.04831   L 65.397388,128.04831   L 65.434908,128.04831   L 65.472428,128.04831   L 65.491188,128.04831   L 65.509948,128.04831   L 65.528708,128.04831   L 65.547468,128.04831   L 65.566228,128.04831   L 65.584988,128.02958   L 65.603748,128.02958   L 65.622508,128.02958   L 65.641268,128.01085   L 65.660028,128.01085   L 65.678788,127.99212   L 65.697548,127.99212   L 65.697548,127.97339   L 65.716308,127.97339   L 65.735068,127.95466   L 65.735068,127.93592   L 65.753828,127.93592   L 65.753828,127.91719   L 65.772588,127.89846   L 65.772588,127.87973   L 65.772588,127.861   L 65.791348,127.861   L 65.791348,127.84227   L 65.791348,127.82354   L 65.791348,127.8048   L 65.791348,127.78607   L 65.791348,127.76734   L 65.791348,127.72988   L 65.791348,127.65495   L 65.791348,127.54256   L 65.791348,127.41144   L 65.791348,127.26159   L 65.791348,127.09301   L 65.791348,126.90569   L 65.791348,126.69965   L 65.791348,126.47487   L 65.791348,126.25009   L 65.791348,126.00658   L 65.791348,125.74434   L 65.791348,125.50083   L 65.791348,125.23859   L 65.791348,124.97635   L 65.791348,124.69538   L 65.791348,124.43314   L 65.791348,124.18963   L 65.791348,123.92739   L 65.791348,123.68388   L 65.791348,123.4591   L 65.791348,123.23433   L 65.791348,123.02828   L 65.791348,122.84097   L 65.791348,122.67238   L 65.791348,122.52253   L 65.791348,122.39141   L 65.791348,122.27902   L 65.791348,122.2041   L 65.791348,122.16663   L 65.791348,122.1479   L 65.753828,122.1479   L 65.716308,122.1479   L 65.660028,122.1479   L 65.603748,122.1479   L 65.509948,122.1479   L 65.434908,122.1479   L 65.322348,122.1479   L 65.209788,122.1479   L 65.097228,122.1479   L 64.984668,122.1479   L 64.853348,122.1479   L 64.722028,122.1479   L 64.571948,122.1479   L 64.440628,122.1479   L 64.309308,122.1479   L 64.159227,122.1479   L 64.027907,122.1479   L 63.877827,122.1479   L 63.746507,122.1479   L 63.615187,122.1479   L 63.502627,122.1479   L 63.390067,122.1479   L 63.277507,122.1479   L 63.164947,122.1479   L 63.089907,122.1479   L 62.996107,122.1479   L 62.939827,122.1479   L 62.883547,122.1479   L 62.846027,122.1479   L 62.808507,122.1479   L 62.808507,122.16663   L 62.808507,122.2041   L 62.808507,122.27902   L 62.808507,122.39141   L 62.808507,122.52253   L 62.808507,122.67238   L 62.808507,122.84097   L 62.808507,123.02828   L 62.808507,123.23433   L 62.808507,123.4591   L 62.808507,123.68388   L 62.808507,123.92739   L 62.808507,124.18963   L 62.808507,124.43314   L 62.808507,124.69538   L 62.808507,124.97635   L 62.808507,125.23859   L 62.808507,125.50083   L 62.808507,125.74434   L 62.808507,126.00658   L 62.808507,126.25009   L 62.808507,126.47487   L 62.808507,126.69965   L 62.808507,126.90569   L 62.808507,127.09301   L 62.808507,127.26159   L 62.808507,127.41144   L 62.808507,127.54256   L 62.808507,127.65495   L 62.808507,127.72988   L 62.808507,127.76734   L 62.808507,127.78607  "
     id="path65" />
  <ellipse
     style="fill:#333333;fill-rule:evenodd;fill-opacity:1;stroke:#000000;stroke-width:0.018760009px;stroke-linecap:round;stroke-linejoin:round;stroke-miterlimit:4;stroke-dasharray:none;stroke-opacity:1;"
     cx="31.319833"
     cy="3.4278586"
     rx="1.5289407"
     ry="1.5383207"
     id="ellipse67" />
  <ellipse
     style="fill:none;stroke:#000000;stroke-width:0.018760009px;stroke-linecap:round;stroke-linejoin:round;stroke-miterlimit:4;stroke-dasharray:none;stroke-opacity:1;"
     cx="31.319833"
     cy="3.4278586"
     rx="1.5289407"
     ry="1.5383207"
     id="ellipse69" />
  <ellipse
     style="fill:#494949;fill-rule:evenodd;fill-opacity:1;stroke:#000000;stroke-width:0.018760009px;stroke-linecap:round;stroke-linejoin:round;stroke-miterlimit:4;stroke-dasharray:none;stroke-opacity:1;"
     cx="31.329213"
     cy="3.4278586"
     rx="0.82544035"
     ry="0.82544035"
     id="ellipse71" />
  <ellipse
     style="fill:none;stroke:#000000;stroke-width:0.018760009px;stroke-linecap:round;stroke-linejoin:round;stroke-miterlimit:4;stroke-dasharray:none;stroke-opacity:1;"
     cx="31.329213"
     cy="3.4278586"
     rx="0.82544035"
     ry="0.82544035"
     id="ellipse73" />
  <ellipse
     style="fill:#333333;fill-rule:evenodd;fill-opacity:1;stroke:#000000;stroke-width:0.018760009px;stroke-linecap:round;stroke-linejoin:round;stroke-miterlimit:4;stroke-dasharray:none;stroke-opacity:1;"
     cx="51.139782"
     cy="3.4278586"
     rx="1.5383207"
     ry="1.5383207"
     id="ellipse75" />
  <ellipse
     style="fill:none;stroke:#000000;stroke-width:0.018760009px;stroke-linecap:round;stroke-linejoin:round;stroke-miterlimit:4;stroke-dasharray:none;stroke-opacity:1;"
     cx="51.139782"
     cy="3.4278586"
     rx="1.5383207"
     ry="1.5383207"
     id="ellipse77" />
  <ellipse
     style="fill:#494949;fill-rule:evenodd;fill-opacity:1;stroke:#000000;stroke-width:0.018760009px;stroke-linecap:round;stroke-linejoin:round;stroke-miterlimit:4;stroke-dasharray:none;stroke-opacity:1;"
     cx="51.139782"
     cy="3.4278586"
     rx="0.82544035"
     ry="0.82544035"
     id="ellipse79" />
  <ellipse
     style="fill:none;stroke:#000000;stroke-width:0.018760009px;stroke-linecap:round;stroke-linejoin:round;stroke-miterlimit:4;stroke-dasharray:none;stroke-opacity:1;"
     cx="51.139782"
     cy="3.4278586"
     rx="0.82544035"
     ry="0.82544035"
     id="ellipse81" />
  <ellipse
     style="fill:#333333;fill-rule:evenodd;fill-opacity:1;stroke:#000000;stroke-width:0.018760009px;stroke-linecap:round;stroke-linejoin:round;stroke-miterlimit:4;stroke-dasharray:none;stroke-opacity:1;"
     cx="3.4987415"
     cy="3.4278586"
     rx="1.5289407"
     ry="1.5383207"
     id="ellipse83" />
  <ellipse
     style="fill:none;stroke:#000000;stroke-width:0.018760009px;stroke-linecap:round;stroke-linejoin:round;stroke-miterlimit:4;stroke-dasharray:none;stroke-opacity:1;"
     cx="3.4987415"
     cy="3.4278586"
     rx="1.5289407"
     ry="1.5383207"
     id="ellipse85" />
  <ellipse
     style="fill:#494949;fill-rule:evenodd;fill-opacity:1;stroke:#000000;stroke-width:0.018760009px;stroke-linecap:round;stroke-linejoin:round;stroke-miterlimit:4;stroke-dasharray:none;stroke-opacity:1;"
     cx="3.5081215"
     cy="3.4278586"
     rx="0.82544035"
     ry="0.82544035"
     id="ellipse87" />
  <ellipse
     style="fill:none;stroke:#000000;stroke-width:0.018760009px;stroke-linecap:round;stroke-linejoin:round;stroke-miterlimit:4;stroke-dasharray:none;stroke-opacity:1;"
     cx="3.5081215"
     cy="3.4278586"
     rx="0.82544035"
     ry="0.82544035"
     id="ellipse89" />
  <ellipse
     style="fill:#333333;fill-rule:evenodd;fill-opacity:1;stroke:#000000;stroke-width:0.018760009px;stroke-linecap:round;stroke-linejoin:round;stroke-miterlimit:4;stroke-dasharray:none;stroke-opacity:1;"
     cx="78.951494"
     cy="3.4278586"
     rx="1.5289407"
     ry="1.5383207"
     id="ellipse91" />
  <ellipse
     style="fill:none;stroke:#000000;stroke-width:0.018760009px;stroke-linecap:round;stroke-linejoin:round;stroke-miterlimit:4;stroke-dasharray:none;stroke-opacity:1;"
     cx="78.951494"
     cy="3.4278586"
     rx="1.5289407"
     ry="1.5383207"
     id="ellipse93" />
  <ellipse
     style="fill:#494949;fill-rule:evenodd;fill-opacity:1;stroke:#000000;stroke-width:0.018760009px;stroke-linecap:round;stroke-linejoin:round;stroke-miterlimit:4;stroke-dasharray:none;stroke-opacity:1;"
     cx="78.960874"
     cy="3.4278586"
     rx="0.82544035"
     ry="0.82544035"
     id="ellipse95" />
  <ellipse
     style="fill:none;stroke:#000000;stroke-width:0.018760009px;stroke-linecap:round;stroke-linejoin:round;stroke-miterlimit:4;stroke-dasharray:none;stroke-opacity:1;"
     cx="78.960874"
     cy="3.4278586"
     rx="0.82544035"
     ry="0.82544035"
     id="ellipse97" />
  <ellipse
     style="fill:#333333;fill-rule:evenodd;fill-opacity:1;stroke:#000000;stroke-width:0.018760009px;stroke-linecap:round;stroke-linejoin:round;stroke-miterlimit:4;stroke-dasharray:none;stroke-opacity:1;"
     cx="29.603293"
     cy="115.20789"
     rx="1.5383207"
     ry="1.5289407"
     id="ellipse99" />
  <ellipse
     style="fill:none;stroke:#000000;stroke-width:0.018760009px;stroke-linecap:round;stroke-linejoin:round;stroke-miterlimit:4;stroke-dasharray:none;stroke-opacity:1;"
     cx="29.603293"
     cy="115.20789"
     rx="1.5383207"
     ry="1.5289407"
     id="ellipse101" />
  <ellipse
     style="fill:#494949;fill-rule:evenodd;fill-opacity:1;stroke:#000000;stroke-width:0.018760009px;stroke-linecap:round;stroke-linejoin:round;stroke-miterlimit:4;stroke-dasharray:none;stroke-opacity:1;"
     cx="29.593913"
     cy="115.20789"
     rx="0.81606035"
     ry="0.81606035"
     id="ellipse103" />
  <ellipse
     style="fill:none;stroke:#000000;stroke-width:0.018760009px;stroke-linecap:round;stroke-linejoin:round;stroke-miterlimit:4;stroke-dasharray:none;stroke-opacity:1;"
     cx="29.593913"
     cy="115.20789"
     rx="0.81606035"
     ry="0.81606035"
     id="ellipse105" />
  <ellipse
     style="fill:#333333;fill-rule:evenodd;fill-opacity:1;stroke:#000000;stroke-width:0.018760009px;stroke-linecap:round;stroke-linejoin:round;stroke-miterlimit:4;stroke-dasharray:none;stroke-opacity:1;"
     cx="52.781283"
     cy="115.20789"
     rx="1.5289407"
     ry="1.5289407"
     id="ellipse107" />
  <ellipse
     style="fill:none;stroke:#000000;stroke-width:0.018760009px;stroke-linecap:round;stroke-linejoin:round;stroke-miterlimit:4;stroke-dasharray:none;stroke-opacity:1;"
     cx="52.781283"
     cy="115.20789"
     rx="1.5289407"
     ry="1.5289407"
     id="ellipse109" />
  <ellipse
     style="fill:#494949;fill-rule:evenodd;fill-opacity:1;stroke:#000000;stroke-width:0.018760009px;stroke-linecap:round;stroke-linejoin:round;stroke-miterlimit:4;stroke-dasharray:none;stroke-opacity:1;"
     cx="52.790663"
     cy="115.20789"
     rx="0.82544035"
     ry="0.81606035"
     id="ellipse111" />
  <ellipse
     style="fill:none;stroke:#000000;stroke-width:0.018760009px;stroke-linecap:round;stroke-linejoin:round;stroke-miterlimit:4;stroke-dasharray:none;stroke-opacity:1;"
     cx="52.790663"
     cy="115.20789"
     rx="0.82544035"
     ry="0.81606035"
     id="ellipse113" />
  <ellipse
     style="fill:#333333;fill-rule:evenodd;fill-opacity:1;stroke:#000000;stroke-width:0.018760009px;stroke-linecap:round;stroke-linejoin:round;stroke-miterlimit:4;stroke-dasharray:none;stroke-opacity:1;"
     cx="3.4987415"
     cy="115.8073"
     rx="1.5289407"
     ry="1.5289407"
     id="ellipse115" />
  <ellipse
     style="fill:none;stroke:#000000;stroke-width:0.018760009px;stroke-linecap:round;stroke-linejoin:round;stroke-miterlimit:4;stroke-dasharray:none;stroke-opacity:1;"
     cx="3.4987415"
     cy="115.8073"
     rx="1.5289407"
     ry="1.5289407"
     id="ellipse117" />
  <ellipse
     style="fill:#494949;fill-rule:evenodd;fill-opacity:1;stroke:#000000;stroke-width:0.018760009px;stroke-linecap:round;stroke-linejoin:round;stroke-miterlimit:4;stroke-dasharray:none;stroke-opacity:1;"
     cx="3.5081215"
     cy="115.8073"
     rx="0.82544035"
     ry="0.81606035"
     id="ellipse119" />
  <ellipse
     style="fill:none;stroke:#000000;stroke-width:0.018760009px;stroke-linecap:round;stroke-linejoin:round;stroke-miterlimit:4;stroke-dasharray:none;stroke-opacity:1;"
     cx="3.5081215"
     cy="115.8073"
     rx="0.82544035"
     ry="0.81606035"
     id="ellipse121" />
  <ellipse
     style="fill:#333333;fill-rule:evenodd;fill-opacity:1;stroke:#000000;stroke-width:0.018760009px;stroke-linecap:round;stroke-linejoin:round;stroke-miterlimit:4;stroke-dasharray:none;stroke-opacity:1;"
     cx="78.951494"
     cy="115.8073"
     rx="1.5289407"
     ry="1.5289407"
     id="ellipse123" />
  <ellipse
     style="fill:none;stroke:#000000;stroke-width:0.018760009px;stroke-linecap:round;stroke-linejoin:round;stroke-miterlimit:4;stroke-dasharray:none;stroke-opacity:1;"
     cx="78.951494"
     cy="115.8073"
     rx="1.5289407"
     ry="1.5289407"
     id="ellipse125" />
  <ellipse
     style="fill:#494949;fill-rule:evenodd;fill-opacity:1;stroke:#000000;stroke-width:0.018760009px;stroke-linecap:round;stroke-linejoin:round;stroke-miterlimit:4;stroke-dasharray:none;stroke-opacity:1;"
     cx="78.960874"
     cy="115.8073"
     rx="0.82544035"
     ry="0.81606035"
     id="ellipse127" />
  <ellipse
     style="fill:none;stroke:#000000;stroke-width:0.018760009px;stroke-linecap:round;stroke-linejoin:round;stroke-miterlimit:4;stroke-dasharray:none;stroke-opacity:1;"
     cx="78.960874"
     cy="115.8073"
     rx="0.82544035"
     ry="0.81606035"
     id="ellipse129" />
  <ellipse
     style="fill:#333333;fill-rule:evenodd;fill-opacity:1;stroke:#000000;stroke-width:0.018760009px;stroke-linecap:round;stroke-linejoin:round;stroke-miterlimit:4;stroke-dasharray:none;stroke-opacity:1;"
     cx="78.951494"
     cy="37.800102"
     rx="1.5289407"
     ry="1.5383207"
     id="ellipse131" />
  <ellipse
     style="fill:none;stroke:#000000;stroke-width:0.018760009px;stroke-linecap:round;stroke-linejoin:round;stroke-miterlimit:4;stroke-dasharray:none;stroke-opacity:1;"
     cx="78.951494"
     cy="37.800102"
     rx="1.5289407"
     ry="1.5383207"
     id="ellipse133" />
  <ellipse
     style="fill:#494949;fill-rule:evenodd;fill-opacity:1;stroke:#000000;stroke-width:0.018760009px;stroke-linecap:round;stroke-linejoin:round;stroke-miterlimit:4;stroke-dasharray:none;stroke-opacity:1;"
     cx="78.960874"
     cy="37.790736"
     rx="0.82544035"
     ry="0.81606035"
     id="ellipse135" />
  <ellipse
     style="fill:none;stroke:#000000;stroke-width:0.018760009px;stroke-linecap:round;stroke-linejoin:round;stroke-miterlimit:4;stroke-dasharray:none;stroke-opacity:1;"
     cx="78.960874"
     cy="37.790736"
     rx="0.82544035"
     ry="0.81606035"
     id="ellipse137" />
  <ellipse
     style="fill:#333333;fill-rule:evenodd;fill-opacity:1;stroke:#000000;stroke-width:0.018760009px;stroke-linecap:round;stroke-linejoin:round;stroke-miterlimit:4;stroke-dasharray:none;stroke-opacity:1;"
     cx="78.951494"
     cy="81.55681"
     rx="1.5289407"
     ry="1.5383207"
     id="ellipse139" />
  <ellipse
     style="fill:none;stroke:#000000;stroke-width:0.018760009px;stroke-linecap:round;stroke-linejoin:round;stroke-miterlimit:4;stroke-dasharray:none;stroke-opacity:1;"
     cx="78.951494"
     cy="81.55681"
     rx="1.5289407"
     ry="1.5383207"
     id="ellipse141" />
  <ellipse
     style="fill:#494949;fill-rule:evenodd;fill-opacity:1;stroke:#000000;stroke-width:0.018760009px;stroke-linecap:round;stroke-linejoin:round;stroke-miterlimit:4;stroke-dasharray:none;stroke-opacity:1;"
     cx="78.960874"
     cy="81.547445"
     rx="0.82544035"
     ry="0.81606035"
     id="ellipse143" />
  <ellipse
     style="fill:none;stroke:#000000;stroke-width:0.018760009px;stroke-linecap:round;stroke-linejoin:round;stroke-miterlimit:4;stroke-dasharray:none;stroke-opacity:1;"
     cx="78.960874"
     cy="81.547445"
     rx="0.82544035"
     ry="0.81606035"
     id="ellipse145" />
  <ellipse
     style="fill:#333333;fill-rule:evenodd;fill-opacity:1;stroke:#000000;stroke-width:0.018760009px;stroke-linecap:round;stroke-linejoin:round;stroke-miterlimit:4;stroke-dasharray:none;stroke-opacity:1;"
     cx="3.4987415"
     cy="81.55681"
     rx="1.5289407"
     ry="1.5383207"
     id="ellipse147" />
  <ellipse
     style="fill:none;stroke:#000000;stroke-width:0.018760009px;stroke-linecap:round;stroke-linejoin:round;stroke-miterlimit:4;stroke-dasharray:none;stroke-opacity:1;"
     cx="3.4987415"
     cy="81.55681"
     rx="1.5289407"
     ry="1.5383207"
     id="ellipse149" />
  <ellipse
     style="fill:#494949;fill-rule:evenodd;fill-opacity:1;stroke:#000000;stroke-width:0.018760009px;stroke-linecap:round;stroke-linejoin:round;stroke-miterlimit:4;stroke-dasharray:none;stroke-opacity:1;"
     cx="3.5081215"
     cy="81.547445"
     rx="0.82544035"
     ry="0.81606035"
     id="ellipse151" />
  <ellipse
     style="fill:none;stroke:#000000;stroke-width:0.018760009px;stroke-linecap:round;stroke-linejoin:round;stroke-miterlimit:4;stroke-dasharray:none;stroke-opacity:1;"
     cx="3.5081215"
     cy="81.547445"
     rx="0.82544035"
     ry="0.81606035"
     id="ellipse153" />
  <path
     style="fill:none;stroke:#333333;stroke-width:0.018760009px;stroke-linecap:round;stroke-linejoin:round;stroke-miterlimit:4;stroke-dasharray:none;stroke-opacity:1;"
     d="  M 70.95035,10.564548   L 29.378173,10.564548   L 29.378173,23.283214   L 70.95035,23.283214   L 70.95035,10.564548  "
     id="path155" />
  <path
     style="fill:none;stroke:#333333;stroke-width:0.018760009px;stroke-linecap:round;stroke-linejoin:round;stroke-miterlimit:4;stroke-dasharray:none;stroke-opacity:1;"
     d="  M 28.777852,10.564548   L 11.668725,10.564548   L 11.668725,23.283214   L 28.777852,23.283214   L 28.777852,10.564548  "
     id="path157" />
  <path
     style="fill:none;stroke:#333333;stroke-width:0.018760009px;stroke-linecap:round;stroke-linejoin:round;stroke-miterlimit:4;stroke-dasharray:none;stroke-opacity:1;"
     d="  M 35.812855,1.723295   L 26.995652,1.723295   L 26.995652,5.2822739   L 35.812855,5.2822739   L 35.812855,1.723295  "
     id="path159" />
  <path
     style="fill:#848484;fill-rule:evenodd;fill-opacity:1;stroke:#333333;stroke-width:0.018760009px;stroke-linecap:round;stroke-linejoin:round;stroke-miterlimit:4;stroke-dasharray:none;stroke-opacity:1;"
     d="  M 12.325325,119.48803   L 12.362845,119.48803   L 12.456645,119.48803   L 12.625485,119.48803   L 12.850605,119.48803   L 13.113246,119.48803   L 13.432166,119.48803   L 13.807366,119.48803   L 14.220086,119.48803   L 14.651566,119.48803   L 15.120566,119.48803   L 15.627087,119.48803   L 16.152367,119.48803   L 16.677647,119.48803   L 17.240447,119.48803   L 17.803248,119.48803   L 18.366048,119.48803   L 18.928848,119.48803   L 19.491648,119.48803   L 20.054449,119.48803   L 20.579729,119.48803   L 21.105009,119.48803   L 21.611529,119.48803   L 22.080529,119.48803   L 22.51201,119.48803   L 22.92473,119.48803   L 23.29993,119.48803   L 23.61885,119.48803   L 23.88149,119.48803   L 24.10661,119.48803   L 24.27545,119.48803   L 24.36925,119.48803   L 24.40677,119.48803   L 24.40677,119.4693   L 24.40677,119.43184   L 24.40677,119.39438   L 24.40677,119.35691   L 24.40677,119.30072   L 24.40677,119.24452   L 24.40677,119.1696   L 24.40677,119.09467   L 24.40677,119.01975   L 24.40677,118.92609   L 24.40677,118.85116   L 24.40677,118.75751   L 24.40677,118.66385   L 24.40677,118.57019   L 24.40677,118.47653   L 24.40677,118.36414   L 24.40677,118.27049   L 24.40677,118.17683   L 24.40677,118.08317   L 24.40677,118.00825   L 24.40677,117.91459   L 24.40677,117.83966   L 24.40677,117.76474   L 24.40677,117.68981   L 24.40677,117.63362   L 24.40677,117.57742   L 24.40677,117.53996   L 24.40677,117.5025   L 24.40677,117.46503   L 24.40677,117.4463   L 24.40677,117.42757   L 24.40677,117.37138   L 24.40677,117.29645   L 24.40677,117.16533   L 24.40677,117.03421   L 24.40677,116.86563   L 24.40677,116.65958   L 24.40677,116.45353   L 24.40677,116.21003   L 24.40677,115.96652   L 24.40677,115.70428   L 24.40677,115.4233   L 24.40677,115.14233   L 24.40677,114.86136   L 24.40677,114.56166   L 24.40677,114.26195   L 24.40677,113.96225   L 24.40677,113.66255   L 24.40677,113.38157   L 24.40677,113.1006   L 24.40677,112.81963   L 24.40677,112.55739   L 24.40677,112.31388   L 24.40677,112.07037   L 24.40677,111.86433   L 24.40677,111.65828   L 24.40677,111.4897   L 24.40677,111.35858   L 24.40677,111.22746   L 24.40677,111.15253   L 24.40677,111.09634   L 24.40677,111.0776   L 24.40677,110.75917   L 24.36925,110.45947   L 24.33173,110.15976   L 24.29421,109.86006   L 24.21917,109.56035   L 24.14413,109.27938   L 24.05033,108.99841   L 23.93777,108.71744   L 23.80645,108.4552   L 23.67513,108.19296   L 23.54381,107.93072   L 23.37497,107.68721   L 23.20613,107.4437   L 23.03729,107.21892   L 22.84969,107.01288   L 22.64333,106.7881   L 22.43697,106.60078   L 22.21185,106.41347   L 21.986729,106.22615   L 21.761609,106.05757   L 21.498969,105.90772   L 21.255089,105.75787   L 20.992449,105.62675   L 20.729809,105.49563   L 20.448409,105.40197   L 20.167009,105.28958   L 19.885609,105.21465   L 19.585448,105.15846   L 19.285288,105.10227   L 18.985128,105.0648   L 18.684968,105.02734   L 18.366048,105.02734   L 18.047128,105.02734   L 17.746968,105.0648   L 17.446807,105.10227   L 17.146647,105.15846   L 16.846487,105.21465   L 16.565087,105.28958   L 16.283687,105.40197   L 16.002287,105.49563   L 15.739647,105.62675   L 15.477007,105.75787   L 15.233127,105.90772   L 14.970486,106.05757   L 14.745366,106.22615   L 14.520246,106.41347   L 14.295126,106.60078   L 14.088766,106.7881   L 13.882406,107.01288   L 13.694806,107.21892   L 13.525966,107.4437   L 13.357126,107.68721   L 13.188286,107.93072   L 13.056966,108.19296   L 12.925646,108.4552   L 12.794325,108.71744   L 12.681765,108.99841   L 12.587965,109.27938   L 12.512925,109.56035   L 12.437885,109.86006   L 12.400365,110.15976   L 12.362845,110.45947   L 12.325325,110.75917   L 12.325325,111.0776   L 12.325325,111.09634   L 12.325325,111.15253   L 12.325325,111.22746   L 12.325325,111.35858   L 12.325325,111.4897   L 12.325325,111.65828   L 12.325325,111.86433   L 12.325325,112.07037   L 12.325325,112.31388   L 12.325325,112.55739   L 12.325325,112.81963   L 12.325325,113.1006   L 12.325325,113.38157   L 12.325325,113.66255   L 12.325325,113.96225   L 12.325325,114.26195   L 12.325325,114.56166   L 12.325325,114.86136   L 12.325325,115.14233   L 12.325325,115.4233   L 12.325325,115.70428   L 12.325325,115.96652   L 12.325325,116.21003   L 12.325325,116.45353   L 12.325325,116.65958   L 12.325325,116.86563   L 12.325325,117.03421   L 12.325325,117.16533   L 12.325325,117.29645   L 12.325325,117.37138   L 12.325325,117.42757   L 12.325325,117.4463   L 12.325325,117.46503   L 12.325325,117.5025   L 12.325325,117.53996   L 12.325325,117.57742   L 12.325325,117.63362   L 12.325325,117.68981   L 12.325325,117.76474   L 12.325325,117.83966   L 12.325325,117.91459   L 12.325325,118.00825   L 12.325325,118.08317   L 12.325325,118.17683   L 12.325325,118.27049   L 12.325325,118.36414   L 12.325325,118.47653   L 12.325325,118.57019   L 12.325325,118.66385   L 12.325325,118.75751   L 12.325325,118.85116   L 12.325325,118.92609   L 12.325325,119.01975   L 12.325325,119.09467   L 12.325325,119.1696   L 12.325325,119.24452   L 12.325325,119.30072   L 12.325325,119.35691   L 12.325325,119.39438   L 12.325325,119.43184   L 12.325325,119.4693   L 12.325325,119.48803   z "
     id="path161" />
  <path
     style="fill:#848484;fill-rule:evenodd;fill-opacity:1;stroke:#333333;stroke-width:0.018760009px;stroke-linecap:round;stroke-linejoin:round;stroke-miterlimit:4;stroke-dasharray:none;stroke-opacity:1;"
     d="  M 35.212535,119.48803   L 35.250055,119.48803   L 35.343855,119.48803   L 35.512695,119.48803   L 35.737815,119.48803   L 36.000455,119.48803   L 36.319376,119.48803   L 36.694576,119.48803   L 37.107296,119.48803   L 37.538776,119.48803   L 38.007776,119.48803   L 38.514296,119.48803   L 39.039577,119.48803   L 39.564857,119.48803   L 40.127657,119.48803   L 40.690457,119.48803   L 41.253258,119.48803   L 41.816058,119.48803   L 42.378858,119.48803   L 42.941658,119.48803   L 43.466939,119.48803   L 43.992219,119.48803   L 44.498739,119.48803   L 44.967739,119.48803   L 45.399219,119.48803   L 45.81194,119.48803   L 46.18714,119.48803   L 46.50606,119.48803   L 46.7687,119.48803   L 46.99382,119.48803   L 47.16266,119.48803   L 47.25646,119.48803   L 47.29398,119.48803   L 47.29398,119.4693   L 47.29398,119.43184   L 47.29398,119.39438   L 47.29398,119.35691   L 47.29398,119.30072   L 47.29398,119.24452   L 47.29398,119.1696   L 47.29398,119.09467   L 47.29398,119.01975   L 47.29398,118.92609   L 47.29398,118.85116   L 47.29398,118.75751   L 47.29398,118.66385   L 47.29398,118.57019   L 47.29398,118.47653   L 47.29398,118.36414   L 47.29398,118.27049   L 47.29398,118.17683   L 47.29398,118.08317   L 47.29398,118.00825   L 47.29398,117.91459   L 47.29398,117.83966   L 47.29398,117.76474   L 47.29398,117.68981   L 47.29398,117.63362   L 47.29398,117.57742   L 47.29398,117.53996   L 47.29398,117.5025   L 47.29398,117.46503   L 47.29398,117.4463   L 47.29398,117.42757   L 47.29398,117.37138   L 47.29398,117.29645   L 47.29398,117.16533   L 47.29398,117.03421   L 47.29398,116.86563   L 47.29398,116.65958   L 47.29398,116.45353   L 47.29398,116.21003   L 47.29398,115.96652   L 47.29398,115.70428   L 47.29398,115.4233   L 47.29398,115.14233   L 47.29398,114.86136   L 47.29398,114.56166   L 47.29398,114.26195   L 47.29398,113.96225   L 47.29398,113.66255   L 47.29398,113.38157   L 47.29398,113.1006   L 47.29398,112.81963   L 47.29398,112.55739   L 47.29398,112.31388   L 47.29398,112.07037   L 47.29398,111.86433   L 47.29398,111.65828   L 47.29398,111.4897   L 47.29398,111.35858   L 47.29398,111.22746   L 47.29398,111.15253   L 47.29398,111.09634   L 47.29398,111.0776   L 47.29398,110.75917   L 47.25646,110.45947   L 47.21894,110.15976   L 47.18142,109.86006   L 47.10638,109.56035   L 47.03134,109.27938   L 46.93754,108.99841   L 46.82498,108.71744   L 46.69366,108.4552   L 46.56234,108.19296   L 46.43102,107.93072   L 46.26218,107.68721   L 46.09334,107.4437   L 45.9245,107.21892   L 45.7369,107.01288   L 45.530539,106.7881   L 45.324179,106.60078   L 45.099059,106.41347   L 44.873939,106.22615   L 44.648819,106.05757   L 44.386179,105.90772   L 44.142299,105.75787   L 43.879659,105.62675   L 43.617019,105.49563   L 43.335619,105.40197   L 43.054218,105.28958   L 42.772818,105.21465   L 42.472658,105.15846   L 42.172498,105.10227   L 41.872338,105.0648   L 41.572178,105.02734   L 41.253258,105.02734   L 40.934338,105.02734   L 40.634177,105.0648   L 40.334017,105.10227   L 40.033857,105.15846   L 39.733697,105.21465   L 39.452297,105.28958   L 39.170897,105.40197   L 38.889497,105.49563   L 38.626857,105.62675   L 38.364216,105.75787   L 38.120336,105.90772   L 37.857696,106.05757   L 37.632576,106.22615   L 37.407456,106.41347   L 37.182336,106.60078   L 36.975976,106.7881   L 36.769616,107.01288   L 36.582016,107.21892   L 36.413176,107.4437   L 36.244336,107.68721   L 36.075495,107.93072   L 35.944175,108.19296   L 35.812855,108.4552   L 35.681535,108.71744   L 35.568975,108.99841   L 35.475175,109.27938   L 35.400135,109.56035   L 35.325095,109.86006   L 35.287575,110.15976   L 35.250055,110.45947   L 35.212535,110.75917   L 35.212535,111.0776   L 35.212535,111.09634   L 35.212535,111.15253   L 35.212535,111.22746   L 35.212535,111.35858   L 35.212535,111.4897   L 35.212535,111.65828   L 35.212535,111.86433   L 35.212535,112.07037   L 35.212535,112.31388   L 35.212535,112.55739   L 35.212535,112.81963   L 35.212535,113.1006   L 35.212535,113.38157   L 35.212535,113.66255   L 35.212535,113.96225   L 35.212535,114.26195   L 35.212535,114.56166   L 35.212535,114.86136   L 35.212535,115.14233   L 35.212535,115.4233   L 35.212535,115.70428   L 35.212535,115.96652   L 35.212535,116.21003   L 35.212535,116.45353   L 35.212535,116.65958   L 35.212535,116.86563   L 35.212535,117.03421   L 35.212535,117.16533   L 35.212535,117.29645   L 35.212535,117.37138   L 35.212535,117.42757   L 35.212535,117.4463   L 35.212535,117.46503   L 35.212535,117.5025   L 35.212535,117.53996   L 35.212535,117.57742   L 35.212535,117.63362   L 35.212535,117.68981   L 35.212535,117.76474   L 35.212535,117.83966   L 35.212535,117.91459   L 35.212535,118.00825   L 35.212535,118.08317   L 35.212535,118.17683   L 35.212535,118.27049   L 35.212535,118.36414   L 35.212535,118.47653   L 35.212535,118.57019   L 35.212535,118.66385   L 35.212535,118.75751   L 35.212535,118.85116   L 35.212535,118.92609   L 35.212535,119.01975   L 35.212535,119.09467   L 35.212535,119.1696   L 35.212535,119.24452   L 35.212535,119.30072   L 35.212535,119.35691   L 35.212535,119.39438   L 35.212535,119.43184   L 35.212535,119.4693   L 35.212535,119.48803   z "
     id="path163" />
  <path
     style="fill:#848484;fill-rule:evenodd;fill-opacity:1;stroke:#333333;stroke-width:0.018760009px;stroke-linecap:round;stroke-linejoin:round;stroke-miterlimit:4;stroke-dasharray:none;stroke-opacity:1;"
     d="  M 58.099745,119.48803   L 58.137265,119.48803   L 58.231065,119.48803   L 58.399905,119.48803   L 58.625025,119.48803   L 58.887665,119.48803   L 59.206585,119.48803   L 59.581785,119.48803   L 59.994506,119.48803   L 60.425986,119.48803   L 60.894986,119.48803   L 61.401506,119.48803   L 61.926786,119.48803   L 62.452067,119.48803   L 63.014867,119.48803   L 63.577667,119.48803   L 64.140467,119.48803   L 64.703268,119.48803   L 65.266068,119.48803   L 65.828868,119.48803   L 66.354148,119.48803   L 66.879429,119.48803   L 67.385949,119.48803   L 67.854949,119.48803   L 68.286429,119.48803   L 68.699149,119.48803   L 69.07435,119.48803   L 69.39327,119.48803   L 69.65591,119.48803   L 69.88103,119.48803   L 70.04987,119.48803   L 70.14367,119.48803   L 70.18119,119.48803   L 70.18119,119.4693   L 70.18119,119.43184   L 70.18119,119.39438   L 70.18119,119.35691   L 70.18119,119.30072   L 70.18119,119.24452   L 70.18119,119.1696   L 70.18119,119.09467   L 70.18119,119.01975   L 70.18119,118.92609   L 70.18119,118.85116   L 70.18119,118.75751   L 70.18119,118.66385   L 70.18119,118.57019   L 70.18119,118.47653   L 70.18119,118.36414   L 70.18119,118.27049   L 70.18119,118.17683   L 70.18119,118.08317   L 70.18119,118.00825   L 70.18119,117.91459   L 70.18119,117.83966   L 70.18119,117.76474   L 70.18119,117.68981   L 70.18119,117.63362   L 70.18119,117.57742   L 70.18119,117.53996   L 70.18119,117.5025   L 70.18119,117.46503   L 70.18119,117.4463   L 70.18119,117.42757   L 70.18119,117.37138   L 70.18119,117.29645   L 70.18119,117.16533   L 70.18119,117.03421   L 70.18119,116.86563   L 70.18119,116.65958   L 70.18119,116.45353   L 70.18119,116.21003   L 70.18119,115.96652   L 70.18119,115.70428   L 70.18119,115.4233   L 70.18119,115.14233   L 70.18119,114.86136   L 70.18119,114.56166   L 70.18119,114.26195   L 70.18119,113.96225   L 70.18119,113.66255   L 70.18119,113.38157   L 70.18119,113.1006   L 70.18119,112.81963   L 70.18119,112.55739   L 70.18119,112.31388   L 70.18119,112.07037   L 70.18119,111.86433   L 70.18119,111.65828   L 70.18119,111.4897   L 70.18119,111.35858   L 70.18119,111.22746   L 70.18119,111.15253   L 70.18119,111.09634   L 70.18119,111.0776   L 70.18119,110.75917   L 70.14367,110.45947   L 70.10615,110.15976   L 70.06863,109.86006   L 69.99359,109.56035   L 69.91855,109.27938   L 69.82475,108.99841   L 69.71219,108.71744   L 69.58087,108.4552   L 69.44955,108.19296   L 69.31823,107.93072   L 69.14939,107.68721   L 68.98055,107.4437   L 68.811709,107.21892   L 68.624109,107.01288   L 68.417749,106.7881   L 68.211389,106.60078   L 67.986269,106.41347   L 67.761149,106.22615   L 67.536029,106.05757   L 67.273389,105.90772   L 67.029509,105.75787   L 66.766869,105.62675   L 66.504228,105.49563   L 66.222828,105.40197   L 65.941428,105.28958   L 65.660028,105.21465   L 65.359868,105.15846   L 65.059708,105.10227   L 64.759548,105.0648   L 64.459388,105.02734   L 64.140467,105.02734   L 63.821547,105.02734   L 63.521387,105.0648   L 63.221227,105.10227   L 62.921067,105.15846   L 62.620907,105.21465   L 62.339507,105.28958   L 62.058107,105.40197   L 61.776706,105.49563   L 61.514066,105.62675   L 61.251426,105.75787   L 61.007546,105.90772   L 60.744906,106.05757   L 60.519786,106.22615   L 60.294666,106.41347   L 60.069546,106.60078   L 59.863186,106.7881   L 59.656826,107.01288   L 59.469225,107.21892   L 59.300385,107.4437   L 59.131545,107.68721   L 58.962705,107.93072   L 58.831385,108.19296   L 58.700065,108.4552   L 58.568745,108.71744   L 58.456185,108.99841   L 58.362385,109.27938   L 58.287345,109.56035   L 58.212305,109.86006   L 58.174785,110.15976   L 58.137265,110.45947   L 58.099745,110.75917   L 58.099745,111.0776   L 58.099745,111.09634   L 58.099745,111.15253   L 58.099745,111.22746   L 58.099745,111.35858   L 58.099745,111.4897   L 58.099745,111.65828   L 58.099745,111.86433   L 58.099745,112.07037   L 58.099745,112.31388   L 58.099745,112.55739   L 58.099745,112.81963   L 58.099745,113.1006   L 58.099745,113.38157   L 58.099745,113.66255   L 58.099745,113.96225   L 58.099745,114.26195   L 58.099745,114.56166   L 58.099745,114.86136   L 58.099745,115.14233   L 58.099745,115.4233   L 58.099745,115.70428   L 58.099745,115.96652   L 58.099745,116.21003   L 58.099745,116.45353   L 58.099745,116.65958   L 58.099745,116.86563   L 58.099745,117.03421   L 58.099745,117.16533   L 58.099745,117.29645   L 58.099745,117.37138   L 58.099745,117.42757   L 58.099745,117.4463   L 58.099745,117.46503   L 58.099745,117.5025   L 58.099745,117.53996   L 58.099745,117.57742   L 58.099745,117.63362   L 58.099745,117.68981   L 58.099745,117.76474   L 58.099745,117.83966   L 58.099745,117.91459   L 58.099745,118.00825   L 58.099745,118.08317   L 58.099745,118.17683   L 58.099745,118.27049   L 58.099745,118.36414   L 58.099745,118.47653   L 58.099745,118.57019   L 58.099745,118.66385   L 58.099745,118.75751   L 58.099745,118.85116   L 58.099745,118.92609   L 58.099745,119.01975   L 58.099745,119.09467   L 58.099745,119.1696   L 58.099745,119.24452   L 58.099745,119.30072   L 58.099745,119.35691   L 58.099745,119.39438   L 58.099745,119.43184   L 58.099745,119.4693   L 58.099745,119.48803   z "
     id="path165" />
  <ellipse
     style="fill:none;stroke:#0a0a0a;stroke-width:0.018760009px;stroke-linecap:round;stroke-linejoin:round;stroke-miterlimit:4;stroke-dasharray:none;stroke-opacity:1;"
     cx="54.769843"
     cy="107.12526"
     rx="1.6415007"
     ry="1.6508807"
     id="ellipse167" />
  <path
     style="fill:none;stroke:#000000;stroke-width:0.056280024px;stroke-linecap:round;stroke-linejoin:round;stroke-miterlimit:4;stroke-dasharray:none;stroke-opacity:1;"
     d="  M 54.854263,105.94518   L 54.854263,107.49989  "
     id="path169" />
  <path
     style="fill:none;stroke:#000000;stroke-width:0.056280024px;stroke-linecap:round;stroke-linejoin:round;stroke-miterlimit:4;stroke-dasharray:none;stroke-opacity:1;"
     d="  M 53.803703,107.7996   L 55.904824,107.7996  "
     id="path171" />
  <path
     style="fill:none;stroke:#000000;stroke-width:0.056280024px;stroke-linecap:round;stroke-linejoin:round;stroke-miterlimit:4;stroke-dasharray:none;stroke-opacity:1;"
     d="  M 54.028823,108.17423   L 55.679704,108.17423  "
     id="path173" />
  <path
     style="fill:none;stroke:#000000;stroke-width:0.056280024px;stroke-linecap:round;stroke-linejoin:round;stroke-miterlimit:4;stroke-dasharray:none;stroke-opacity:1;"
     d="  M 54.028823,108.17423   L 55.679704,108.17423  "
     id="path175" />
  <path
     style="fill:none;stroke:#000000;stroke-width:0.056280024px;stroke-linecap:round;stroke-linejoin:round;stroke-miterlimit:4;stroke-dasharray:none;stroke-opacity:1;"
     d="  M 54.310223,108.53012   L 55.398304,108.53012  "
     id="path177" />
  <ellipse
     style="fill:#333333;fill-rule:evenodd;fill-opacity:1;stroke:#000000;stroke-width:0.018760009px;stroke-linecap:round;stroke-linejoin:round;stroke-miterlimit:4;stroke-dasharray:none;stroke-opacity:1;"
     cx="3.4987415"
     cy="37.800102"
     rx="1.5289407"
     ry="1.5383207"
     id="ellipse179" />
  <ellipse
     style="fill:none;stroke:#000000;stroke-width:0.018760009px;stroke-linecap:round;stroke-linejoin:round;stroke-miterlimit:4;stroke-dasharray:none;stroke-opacity:1;"
     cx="3.4987415"
     cy="37.800102"
     rx="1.5289407"
     ry="1.5383207"
     id="ellipse181" />
  <ellipse
     style="fill:#494949;fill-rule:evenodd;fill-opacity:1;stroke:#000000;stroke-width:0.018760009px;stroke-linecap:round;stroke-linejoin:round;stroke-miterlimit:4;stroke-dasharray:none;stroke-opacity:1;"
     cx="3.5081215"
     cy="37.790736"
     rx="0.82544035"
     ry="0.81606035"
     id="ellipse183" />
  <ellipse
     style="fill:none;stroke:#000000;stroke-width:0.018760009px;stroke-linecap:round;stroke-linejoin:round;stroke-miterlimit:4;stroke-dasharray:none;stroke-opacity:1;"
     cx="3.5081215"
     cy="37.790736"
     rx="0.82544035"
     ry="0.81606035"
     id="ellipse185" />
  <ellipse
     style="fill:none;stroke:#000000;stroke-width:0.018760009px;stroke-linecap:round;stroke-linejoin:round;stroke-miterlimit:4;stroke-dasharray:none;stroke-opacity:1;"
     cx="23.14985"
     cy="25.746402"
     rx="1.5383207"
     ry="1.5289407"
     id="ellipse187" />
  <ellipse
     style="fill:none;stroke:#000000;stroke-width:0.018760009px;stroke-linecap:round;stroke-linejoin:round;stroke-miterlimit:4;stroke-dasharray:none;stroke-opacity:1;"
     cx="23.14985"
     cy="25.746402"
     rx="1.5383207"
     ry="1.5289407"
     id="ellipse189" />
  <ellipse
     style="fill:#000000;fill-rule:evenodd;fill-opacity:1;stroke:#000000;stroke-width:0.018760009px;stroke-linecap:round;stroke-linejoin:round;stroke-miterlimit:4;stroke-dasharray:none;stroke-opacity:1;"
     cx="23.14047"
     cy="25.755768"
     rx="0.83482036"
     ry="0.84420036"
     id="ellipse191" />
  <ellipse
     style="fill:none;stroke:#000000;stroke-width:0.018760009px;stroke-linecap:round;stroke-linejoin:round;stroke-miterlimit:4;stroke-dasharray:none;stroke-opacity:1;"
     cx="23.14047"
     cy="25.755768"
     rx="0.83482036"
     ry="0.84420036"
     id="ellipse193" />
  <ellipse
     style="fill:none;stroke:#000000;stroke-width:0.018760009px;stroke-linecap:round;stroke-linejoin:round;stroke-miterlimit:4;stroke-dasharray:none;stroke-opacity:1;"
     cx="59.309765"
     cy="25.746402"
     rx="1.5289407"
     ry="1.5289407"
     id="ellipse195" />
  <ellipse
     style="fill:none;stroke:#000000;stroke-width:0.018760009px;stroke-linecap:round;stroke-linejoin:round;stroke-miterlimit:4;stroke-dasharray:none;stroke-opacity:1;"
     cx="59.309765"
     cy="25.746402"
     rx="1.5289407"
     ry="1.5289407"
     id="ellipse197" />
  <ellipse
     style="fill:#000000;fill-rule:evenodd;fill-opacity:1;stroke:#000000;stroke-width:0.018760009px;stroke-linecap:round;stroke-linejoin:round;stroke-miterlimit:4;stroke-dasharray:none;stroke-opacity:1;"
     cx="59.309765"
     cy="25.755768"
     rx="0.83482036"
     ry="0.84420036"
     id="ellipse199" />
  <ellipse
     style="fill:none;stroke:#000000;stroke-width:0.018760009px;stroke-linecap:round;stroke-linejoin:round;stroke-miterlimit:4;stroke-dasharray:none;stroke-opacity:1;"
     cx="59.309765"
     cy="25.755768"
     rx="0.83482036"
     ry="0.84420036"
     id="ellipse201" />
  <ellipse
     style="fill:none;stroke:#000000;stroke-width:0.018760009px;stroke-linecap:round;stroke-linejoin:round;stroke-miterlimit:4;stroke-dasharray:none;stroke-opacity:1;"
     cx="23.14985"
     cy="89.761193"
     rx="1.5383207"
     ry="1.5383207"
     id="ellipse203" />
  <ellipse
     style="fill:none;stroke:#000000;stroke-width:0.018760009px;stroke-linecap:round;stroke-linejoin:round;stroke-miterlimit:4;stroke-dasharray:none;stroke-opacity:1;"
     cx="23.14985"
     cy="89.761193"
     rx="1.5383207"
     ry="1.5383207"
     id="ellipse205" />
  <ellipse
     style="fill:#000000;fill-rule:evenodd;fill-opacity:1;stroke:#000000;stroke-width:0.018760009px;stroke-linecap:round;stroke-linejoin:round;stroke-miterlimit:4;stroke-dasharray:none;stroke-opacity:1;"
     cx="23.14047"
     cy="89.751828"
     rx="0.83482036"
     ry="0.83482036"
     id="ellipse207" />
  <ellipse
     style="fill:none;stroke:#000000;stroke-width:0.018760009px;stroke-linecap:round;stroke-linejoin:round;stroke-miterlimit:4;stroke-dasharray:none;stroke-opacity:1;"
     cx="23.14047"
     cy="89.751828"
     rx="0.83482036"
     ry="0.83482036"
     id="ellipse209" />
  <ellipse
     style="fill:none;stroke:#000000;stroke-width:0.018760009px;stroke-linecap:round;stroke-linejoin:round;stroke-miterlimit:4;stroke-dasharray:none;stroke-opacity:1;"
     cx="59.309765"
     cy="89.761193"
     rx="1.5289407"
     ry="1.5383207"
     id="ellipse211" />
  <ellipse
     style="fill:none;stroke:#000000;stroke-width:0.018760009px;stroke-linecap:round;stroke-linejoin:round;stroke-miterlimit:4;stroke-dasharray:none;stroke-opacity:1;"
     cx="59.309765"
     cy="89.761193"
     rx="1.5289407"
     ry="1.5383207"
     id="ellipse213" />
  <ellipse
     style="fill:#000000;fill-rule:evenodd;fill-opacity:1;stroke:#000000;stroke-width:0.018760009px;stroke-linecap:round;stroke-linejoin:round;stroke-miterlimit:4;stroke-dasharray:none;stroke-opacity:1;"
     cx="59.309765"
     cy="89.751828"
     rx="0.83482036"
     ry="0.83482036"
     id="ellipse215" />
  <ellipse
     style="fill:none;stroke:#000000;stroke-width:0.018760009px;stroke-linecap:round;stroke-linejoin:round;stroke-miterlimit:4;stroke-dasharray:none;stroke-opacity:1;"
     cx="59.309765"
     cy="89.751828"
     rx="0.83482036"
     ry="0.83482036"
     id="ellipse217" />
  <ellipse
     style="fill:none;stroke:#000000;stroke-width:0.018760009px;stroke-linecap:round;stroke-linejoin:round;stroke-miterlimit:4;stroke-dasharray:none;stroke-opacity:1;"
     cx="50.605122"
     cy="107.1159"
     rx="1.5289407"
     ry="1.5289407"
     id="ellipse219" />
  <ellipse
     style="fill:none;stroke:#000000;stroke-width:0.018760009px;stroke-linecap:round;stroke-linejoin:round;stroke-miterlimit:4;stroke-dasharray:none;stroke-opacity:1;"
     cx="50.605122"
     cy="107.1159"
     rx="1.5289407"
     ry="1.5289407"
     id="ellipse221" />
  <ellipse
     style="fill:#000000;fill-rule:evenodd;fill-opacity:1;stroke:#000000;stroke-width:0.018760009px;stroke-linecap:round;stroke-linejoin:round;stroke-miterlimit:4;stroke-dasharray:none;stroke-opacity:1;"
     cx="50.614502"
     cy="107.1159"
     rx="0.84420036"
     ry="0.83482036"
     id="ellipse223" />
  <ellipse
     style="fill:none;stroke:#000000;stroke-width:0.018760009px;stroke-linecap:round;stroke-linejoin:round;stroke-miterlimit:4;stroke-dasharray:none;stroke-opacity:1;"
     cx="50.614502"
     cy="107.1159"
     rx="0.84420036"
     ry="0.83482036"
     id="ellipse225" />
  <ellipse
     style="fill:#0a0a0a;fill-rule:evenodd;fill-opacity:1;stroke:#000000;stroke-width:0.018760009px;stroke-linecap:round;stroke-linejoin:round;stroke-miterlimit:4;stroke-dasharray:none;stroke-opacity:1;"
     cx="41.225118"
     cy="56.72825"
     rx="0.38458016"
     ry="0.38458016"
     id="ellipse227" />
  <ellipse
     style="fill:none;stroke:#000000;stroke-width:0.018760009px;stroke-linecap:round;stroke-linejoin:round;stroke-miterlimit:4;stroke-dasharray:none;stroke-opacity:1;"
     cx="41.225118"
     cy="56.72825"
     rx="0.38458016"
     ry="0.38458016"
     id="ellipse229" />
  <ellipse
     style="fill:#0a0a0a;fill-rule:evenodd;fill-opacity:1;stroke:#000000;stroke-width:0.018760009px;stroke-linecap:round;stroke-linejoin:round;stroke-miterlimit:4;stroke-dasharray:none;stroke-opacity:1;"
     cx="40.390297"
     cy="58.414082"
     rx="0.39396017"
     ry="0.38458016"
     id="ellipse231" />
  <ellipse
     style="fill:none;stroke:#000000;stroke-width:0.018760009px;stroke-linecap:round;stroke-linejoin:round;stroke-miterlimit:4;stroke-dasharray:none;stroke-opacity:1;"
     cx="40.390297"
     cy="58.414082"
     rx="0.39396017"
     ry="0.38458016"
     id="ellipse233" />
  <ellipse
     style="fill:#0a0a0a;fill-rule:evenodd;fill-opacity:1;stroke:#000000;stroke-width:0.018760009px;stroke-linecap:round;stroke-linejoin:round;stroke-miterlimit:4;stroke-dasharray:none;stroke-opacity:1;"
     cx="42.078698"
     cy="58.414082"
     rx="0.39396017"
     ry="0.38458016"
     id="ellipse235" />
  <ellipse
     style="fill:none;stroke:#000000;stroke-width:0.018760009px;stroke-linecap:round;stroke-linejoin:round;stroke-miterlimit:4;stroke-dasharray:none;stroke-opacity:1;"
     cx="42.078698"
     cy="58.414082"
     rx="0.39396017"
     ry="0.38458016"
     id="ellipse237" />
  <path
     style="fill:#494949;fill-rule:evenodd;fill-opacity:1;stroke:#333333;stroke-width:0.018760009px;stroke-linecap:round;stroke-linejoin:round;stroke-miterlimit:4;stroke-dasharray:none;stroke-opacity:1;"
     d="  M 79.748794,93.657339   L 79.748794,102.46113   L 81.962475,102.46113   L 81.962475,93.657339   L 79.748794,93.657339   z "
     id="path239" />
  <text
     xml:space="preserve"
     style="font-size:1.375000px;font-style:normal;font-variant:normal;font-weight:400;font-stretch:Normal;line-height:125.000000%;letter-spacing:0px;word-spacing:0px;fill:#000000;fill-opacity:1;stroke:none;font-family:Arial;text-align:start;text-anchor:start;"
     transform="matrix(1.000000,-0.000000,0.000000,1.000000,60.584807,117.201035)"
     x="0.000000"
     y="1.002375"
     id="text245"><tspan
       x="0.000000"
       y="1.002375"
       id="tspan243"><tspan
         dx="0.000000"
         dy="0.000000"
         style="fill:#FFFFFF;font-size:1.375000px;font-style:normal;font-variant:normal;font-weight:400;font-stretch:Normal;font-family:Arial;"
         id="tspan241">CONSOLE</tspan></tspan></text>
  <text
     xml:space="preserve"
     style="font-size:1.375000px;font-style:normal;font-variant:normal;font-weight:400;font-stretch:Normal;line-height:125.000000%;letter-spacing:0px;word-spacing:0px;fill:#000000;fill-opacity:1;stroke:none;font-family:Arial;text-align:start;text-anchor:start;"
     transform="matrix(1.000000,-0.000000,0.000000,1.000000,60.584807,117.201035)"
     x="-22.221937"
     y="1.002375"
     id="text251"><tspan
       x="-22.221937"
       y="1.002375"
       id="tspan249"><tspan
         dx="0.000000"
         dy="0.000000"
         style="fill:#FFFFFF;font-size:1.375000px;font-style:normal;font-variant:normal;font-weight:400;font-stretch:Normal;font-family:Arial;"
         id="tspan247">1G / PoE</tspan></tspan></text>
  <text
     xml:space="preserve"
     style="font-size:1.375000px;font-style:normal;font-variant:normal;font-weight:400;font-stretch:Normal;line-height:125.000000%;letter-spacing:0px;word-spacing:0px;fill:#000000;fill-opacity:1;stroke:none;font-family:Arial;text-align:start;text-anchor:start;"
     transform="matrix(1.000000,-0.000000,0.000000,1.000000,60.584807,117.201035)"
     x="-45.945355"
     y="1.002375"
     id="text257"><tspan
       x="-45.945355"
       y="1.002375"
       id="tspan255"><tspan
         dx="0.000000"
         dy="0.000000"
         style="fill:#FFFFFF;font-size:1.375000px;font-style:normal;font-variant:normal;font-weight:400;font-stretch:Normal;font-family:Arial;"
         id="tspan253">2.5G / PoE</tspan></tspan></text>
  <text
     xml:space="preserve"
     style="font-size:1.375000px;font-style:normal;font-variant:normal;font-weight:400;font-stretch:Normal;line-height:125.000000%;letter-spacing:0px;word-spacing:0px;fill:#000000;fill-opacity:1;stroke:none;font-family:Arial;text-align:start;text-anchor:start;"
     transform="matrix(1.000000,-0.000000,0.000000,1.000000,60.584807,117.201035)"
     x="-21.321047"
     y="-0.421423"
     id="text263"><tspan
       x="-21.321047"
       y="-0.421423"
       id="tspan261"><tspan
         dx="0.000000"
         dy="0.000000"
         style="fill:#FFFFFF;font-size:1.375000px;font-style:normal;font-variant:normal;font-weight:400;font-stretch:Normal;font-family:Arial;"
         id="tspan259">LAN 2</tspan></tspan></text>
  <text
     xml:space="preserve"
     style="font-size:1.375000px;font-style:normal;font-variant:normal;font-weight:400;font-stretch:Normal;line-height:125.000000%;letter-spacing:0px;word-spacing:0px;fill:#000000;fill-opacity:1;stroke:none;font-family:Arial;text-align:start;text-anchor:start;"
     transform="matrix(1.000000,-0.000000,0.000000,1.000000,60.584807,117.201035)"
     x="-44.518947"
     y="-0.421423"
     id="text269"><tspan
       x="-44.518947"
       y="-0.421423"
       id="tspan267"><tspan
         dx="0.000000"
         dy="0.000000"
         style="fill:#FFFFFF;font-size:1.375000px;font-style:normal;font-variant:normal;font-weight:400;font-stretch:Normal;font-family:Arial;"
         id="tspan265">LAN 1</tspan></tspan></text>
  <path
     style="fill:none;stroke:#000000;stroke-width:0.0081163188px;stroke-linecap:round;stroke-linejoin:round;stroke-miterlimit:4;stroke-dasharray:none;stroke-opacity:1;"
     d="  M 18.229253,129.04105   L 17.945182,129.04105   L 17.945182,129.32458   L 18.229253,129.32458   L 18.229253,129.04105   z "
     id="path271" />
  <path
     style="fill:none;stroke:#000000;stroke-width:0.0081163188px;stroke-linecap:round;stroke-linejoin:round;stroke-miterlimit:4;stroke-dasharray:none;stroke-opacity:1;"
     d="  M 41.425694,129.04105   L 41.141622,129.04105   L 41.141622,129.32458   L 41.425694,129.32458   L 41.425694,129.04105   z "
     id="path273" />
  <path
     style="fill:none;stroke:#000000;stroke-width:0.0081163188px;stroke-linecap:round;stroke-linejoin:round;stroke-miterlimit:4;stroke-dasharray:none;stroke-opacity:1;"
     d="  M 64.549087,129.04105   L 64.265016,129.04105   L 64.265016,129.32458   L 64.549087,129.32458   L 64.549087,129.04105   z "
     id="path275" />
</svg>
