<?xml version="1.0" encoding="UTF-8" standalone="no"?>
<svg
   version="1.0"
   width="22.02mm"
   height="24.91mm"
   id="svg75"
   xmlns="http://www.w3.org/2000/svg"
   xmlns:svg="http://www.w3.org/2000/svg">
  <defs
     id="defs3">
    <pattern
       id="EMFhbasepattern"
       patternUnits="userSpaceOnUse"
       width="6"
       height="6"
       x="0"
       y="0" />
  </defs>
  <path
     style="fill:none;stroke:none;"
     d="  M 34.655697,73.60284   L 34.655697,76.20099   L 36.94201,76.20099   M 36.94201,73.60284   L 41.454471,73.60284   M 39.168158,73.60284   L 39.168158,76.20099   M 42.597628,73.60284   L 42.597628,76.20099   M 42.597628,73.60284   L 42.597628,76.20099  "
     id="path5" />
  <path
     style="fill:none;stroke:none;"
     d="  M 44.823775,76.20099   L 44.823775,73.60284   L 47.110088,76.20099   L 49.396401,73.60284   L 49.396401,76.20099  "
     id="path7" />
  <path
     style="fill:none;stroke:none;"
     d="  M 50.479392,76.20099   L 52.765705,73.60284   L 55.052019,76.20099   M 51.081053,75.551453   L 54.450357,75.551453  "
     id="path9" />
  <path
     style="fill:none;stroke:none;"
     d="  M 27.856923,76.20099   L 30.143236,73.60284   L 32.42955,76.20099   M 28.458585,75.551453   L 31.827888,75.551453  "
     id="path11" />
  <path
     style="fill:#eaeaea;fill-rule:evenodd;fill-opacity:1;stroke:#000000;stroke-width:0.018735828px;stroke-linecap:round;stroke-linejoin:round;stroke-miterlimit:4;stroke-dasharray:none;stroke-opacity:1;"
     d="  M 83.074663,86.887588   L 83.037191,87.112637   L 82.99972,87.356439   L 82.962248,87.581488   L 82.849833,88.069094   L 82.793626,88.294143   L 82.718682,88.537946   L 82.531324,89.025551   L 82.437645,89.2506   L 82.32523,89.494403   L 82.212815,89.719452   L 82.081664,89.944501   L 81.781891,90.394598   L 81.613268,90.619647   L 81.42591,90.825942   L 81.219816,91.032236   L 81.013722,91.219777   L 80.564062,91.594858   L 80.30176,91.763645   L 80.020723,91.932432   L 79.739686,92.082464   L 79.439912,92.232497   L 79.121403,92.363775   L 78.409442,92.588824   L 78.034725,92.682594   L 77.641273,92.75761   L 77.210349,92.832627   L 76.779425,92.888889   L 76.292293,92.926397   L 75.730218,92.963905   L 75.111936,93.001413   L 74.437446,93.038921   L 73.706749,93.07643   L 72.93858,93.113938   L 72.114203,93.1702   L 71.233619,93.207708   L 70.315564,93.26397   L 69.378772,93.301478   L 68.385774,93.357741   L 67.355303,93.395249   L 66.324832,93.451511   L 65.238154,93.489019   L 64.151476,93.545281   L 61.903177,93.620297   L 60.760291,93.67656   L 58.437049,93.751576   L 57.275427,93.807838   L 56.113806,93.845346   L 54.97092,93.882854   L 53.809299,93.920363   L 52.666414,93.939117   L 50.418114,94.014133   L 49.331436,94.032887   L 48.263494,94.051641   L 47.214287,94.070395   L 46.202553,94.089149   L 45.209554,94.107903   L 37.902581,94.107903   L 36.909582,94.089149   L 35.897847,94.070395   L 34.848641,94.051641   L 33.780699,94.032887   L 32.694021,94.014133   L 30.445721,93.939117   L 29.302836,93.920363   L 28.141214,93.882854   L 26.998329,93.845346   L 25.836707,93.807838   L 24.675086,93.751576   L 22.351843,93.67656   L 21.208958,93.620297   L 18.960658,93.545281   L 17.87398,93.489019   L 16.787302,93.451511   L 15.756832,93.395249   L 14.726361,93.357741   L 13.733362,93.301478   L 12.796571,93.26397   L 11.878515,93.207708   L 10.997931,93.1702   L 10.173555,93.113938   L 9.4053858,93.07643   L 8.6746885,93.038921   L 8.0001987,93.001413   L 7.3819164,92.963905   L 6.8198415,92.926397   L 6.33271,92.888889   L 5.9017859,92.832627   L 5.4708619,92.75761   L 5.0774095,92.682594   L 4.7026929,92.588824   L 4.3467122,92.476299   L 3.9907314,92.345021   L 3.6722224,92.213743   L 3.3724491,92.06371   L 3.0914117,91.913677   L 2.8103743,91.744891   L 2.5480727,91.576104   L 2.0984128,91.201023   L 1.8923187,91.013482   L 1.6862246,90.807188   L 1.4988663,90.600893   L 1.3302438,90.375844   L 1.0304706,89.925746   L 0.89931976,89.700698   L 0.78690479,89.475649   L 0.67448982,89.231846   L 0.58081068,88.988043   L 0.48713154,88.762994   L 0.3934524,88.519192   L 0.31850908,88.275389   L 0.2623016,88.05034   L 0.20609411,87.806537   L 0.14988663,87.581488   L 0.11241497,87.337685   L 0.037471657,86.887588   L 0.037471657,7.2578235   L 0.11241497,6.807726   L 0.14988663,6.5639231   L 0.20609411,6.3388743   L 0.2623016,6.0950714   L 0.31850908,5.8700227   L 0.3934524,5.6262198   L 0.48713154,5.3824169   L 0.58081068,5.1573681   L 0.67448982,4.9135653   L 0.78690479,4.6697624   L 0.89931976,4.4447136   L 1.0304706,4.2196648   L 1.3302438,3.7695673   L 1.4988663,3.5632725   L 1.6862246,3.3382237   L 1.8923187,3.131929   L 2.0984128,2.9443884   L 2.5480727,2.569307   L 2.8103743,2.4005204   L 3.0914117,2.2317339   L 3.3724491,2.0817013   L 3.6722224,1.9316688   L 3.9907314,1.8003903   L 4.3467122,1.6691119   L 4.7026929,1.5565875   L 5.0774095,1.4628171   L 5.4708619,1.3878009   L 5.9017859,1.3127846   L 6.33271,1.2565224   L 6.8198415,1.2190143   L 7.3819164,1.1815062   L 8.0001987,1.143998   L 8.6746885,1.1064899   L 9.4053858,1.0689818   L 10.173555,1.0314736   L 10.997931,0.97521143   L 11.878515,0.9377033   L 12.796571,0.8814411   L 13.733362,0.84393297   L 14.726361,0.78767077   L 15.756832,0.75016264   L 16.787302,0.69390044   L 17.87398,0.65639231   L 18.960658,0.60013011   L 21.208958,0.52511385   L 22.351843,0.46885165   L 24.675086,0.39383539   L 25.836707,0.33757319   L 26.998329,0.30006506   L 28.141214,0.26255692   L 29.302836,0.22504879   L 30.445721,0.20629473   L 32.694021,0.13127846   L 33.780699,0.1125244   L 34.848641,0.09377033   L 35.897847,0.075016264   L 36.909582,0.056262198   L 37.902581,0.037508132   L 45.209554,0.037508132   L 46.202553,0.056262198   L 47.214287,0.075016264   L 48.263494,0.09377033   L 49.331436,0.1125244   L 50.418114,0.13127846   L 52.666414,0.20629473   L 53.809299,0.22504879   L 54.97092,0.26255692   L 56.113806,0.30006506   L 57.275427,0.33757319   L 58.437049,0.39383539   L 60.760291,0.46885165   L 61.903177,0.52511385   L 64.151476,0.60013011   L 65.238154,0.65639231   L 66.324832,0.69390044   L 67.355303,0.75016264   L 68.385774,0.78767077   L 69.378772,0.84393297   L 70.315564,0.8814411   L 71.233619,0.9377033   L 72.114203,0.97521143   L 72.93858,1.0314736   L 73.706749,1.0689818   L 74.437446,1.1064899   L 75.111936,1.143998   L 75.730218,1.1815062   L 76.292293,1.2190143   L 76.779425,1.2565224   L 77.210349,1.3127846   L 77.641273,1.3878009   L 78.034725,1.4628171   L 78.409442,1.5565875   L 79.121403,1.7816363   L 79.439912,1.9129147   L 79.739686,2.0629473   L 80.020723,2.2129798   L 80.30176,2.3817664   L 80.564062,2.550553   L 81.013722,2.9256343   L 81.219816,3.113175   L 81.42591,3.3194697   L 81.613268,3.5257644   L 81.781891,3.7508132   L 82.081664,4.2009108   L 82.212815,4.4259596   L 82.32523,4.6510084   L 82.437645,4.8948112   L 82.531324,5.11986   L 82.718682,5.6074657   L 82.793626,5.8512686   L 82.849833,6.0763174   L 82.962248,6.5639231   L 82.99972,6.7889719   L 83.037191,7.0327747   L 83.074663,7.2578235   L 83.074663,86.662539   L 83.074663,86.887588   z "
     id="path13" />
  <path
     style="fill:#efefef;fill-rule:evenodd;fill-opacity:1;stroke:#eaeaea;stroke-width:0.018735828px;stroke-linecap:round;stroke-linejoin:round;stroke-miterlimit:4;stroke-dasharray:none;stroke-opacity:1;"
     d="  M 82.662475,86.493752   L 82.587531,86.94385   L 82.55006,87.187653   L 82.493852,87.412702   L 82.437645,87.656504   L 82.381437,87.881553   L 82.306494,88.125356   L 82.212815,88.369159   L 82.137872,88.594208   L 82.025457,88.838011   L 81.800627,89.288108   L 81.669476,89.513157   L 81.369703,89.963255   L 81.20108,90.169549   L 80.826364,90.582139   L 80.620269,90.769679   L 80.39544,90.95722   L 80.151874,91.144761   L 79.908308,91.313547   L 79.627271,91.482334   L 79.346233,91.632366   L 79.04646,91.763645   L 78.727951,91.894923   L 78.390706,92.026202   L 78.034725,92.119972   L 77.660009,92.213743   L 77.24782,92.307513   L 76.835632,92.363775   L 76.404708,92.420037   L 75.917577,92.457545   L 75.374238,92.495054   L 74.755955,92.532562   L 74.100201,92.57007   L 73.38824,92.607578   L 72.601335,92.645086   L 71.795694,92.701348   L 70.933846,92.738856   L 70.034526,92.776364   L 69.078999,92.832627   L 68.104736,92.870135   L 67.093001,92.926397   L 66.062531,92.963905   L 64.994589,93.020167   L 63.907911,93.057675   L 62.821233,93.113938   L 61.697083,93.151446   L 60.554197,93.188954   L 59.411312,93.245216   L 57.125541,93.320232   L 55.963919,93.357741   L 53.678148,93.432757   L 51.429849,93.507773   L 50.324435,93.526527   L 49.256493,93.564035   L 48.188551,93.582789   L 47.15808,93.601543   L 46.146345,93.620297   L 45.172082,93.639052   L 37.940052,93.639052   L 36.965789,93.620297   L 35.954055,93.601543   L 34.923584,93.582789   L 33.855642,93.564035   L 32.7877,93.526527   L 31.682286,93.507773   L 29.433986,93.432757   L 27.148215,93.357741   L 25.986594,93.320232   L 23.700823,93.245216   L 22.557937,93.188954   L 21.415052,93.151446   L 20.309638,93.113938   L 19.204224,93.057675   L 18.117546,93.020167   L 17.049604,92.963905   L 16.019133,92.926397   L 15.007399,92.870135   L 14.033135,92.832627   L 13.077608,92.776364   L 12.178288,92.738856   L 11.31644,92.701348   L 10.5108,92.645086   L 9.7238949,92.607578   L 9.0119334,92.57007   L 8.3561795,92.532562   L 7.7378971,92.495054   L 7.1945581,92.457545   L 6.7074266,92.420037   L 6.2765025,92.363775   L 5.8643143,92.307513   L 5.4521261,92.213743   L 5.0774095,92.119972   L 4.7214287,92.007448   L 4.3841838,91.894923   L 4.0656748,91.763645   L 3.7659015,91.613612   L 3.4848641,91.46358   L 3.2038267,91.294793   L 2.7166951,90.95722   L 2.4918652,90.750925   L 2.2857711,90.563385   L 1.9110545,90.150795   L 1.742432,89.944501   L 1.4426588,89.494403   L 1.311508,89.269354   L 1.199093,89.044305   L 1.086678,88.800503   L 0.97426308,88.575454   L 0.89931976,88.331651   L 0.80564062,88.106602   L 0.73069731,87.862799   L 0.67448982,87.63775   L 0.61828234,87.393948   L 0.56207485,87.168899   L 0.44965988,86.493752   L 0.44965988,7.6516589   L 0.56207485,6.9765126   L 0.61828234,6.7514638   L 0.67448982,6.5076609   L 0.73069731,6.2826121   L 0.80564062,6.0388093   L 0.89931976,5.8137605   L 0.97426308,5.5699576   L 1.086678,5.3449088   L 1.199093,5.101106   L 1.311508,4.8760572   L 1.4426588,4.6510084   L 1.742432,4.2009108   L 1.9110545,3.9946161   L 2.2857711,3.5820266   L 2.4918652,3.3944859   L 2.7166951,3.1881912   L 3.2038267,2.850618   L 3.4848641,2.6818314   L 3.7659015,2.5317989   L 4.0656748,2.3817664   L 4.3841838,2.2504879   L 4.7214287,2.1379635   L 5.0774095,2.0254391   L 5.4521261,1.9316688   L 5.8643143,1.8378985   L 6.2765025,1.7816363   L 6.7074266,1.7253741   L 7.1945581,1.6878659   L 7.7378971,1.6503578   L 8.3561795,1.6128497   L 9.0119334,1.5753415   L 9.7238949,1.5378334   L 10.5108,1.5003253   L 11.31644,1.4440631   L 12.178288,1.4065549   L 13.077608,1.3690468   L 14.033135,1.3127846   L 15.007399,1.2752765   L 16.019133,1.2190143   L 17.049604,1.1815062   L 18.117546,1.125244   L 19.204224,1.0877358   L 20.309638,1.0314736   L 21.415052,0.9939655   L 22.557937,0.95645737   L 23.700823,0.90019517   L 25.986594,0.8251789   L 27.148215,0.78767077   L 29.433986,0.71265451   L 31.682286,0.63763824   L 32.7877,0.61888418   L 33.855642,0.58137605   L 34.923584,0.56262198   L 35.954055,0.54386791   L 36.965789,0.52511385   L 37.940052,0.50635978   L 45.172082,0.50635978   L 46.146345,0.52511385   L 47.15808,0.54386791   L 48.188551,0.56262198   L 49.256493,0.58137605   L 50.324435,0.61888418   L 51.429849,0.63763824   L 53.678148,0.71265451   L 55.963919,0.78767077   L 57.125541,0.8251789   L 59.411312,0.90019517   L 60.554197,0.95645737   L 61.697083,0.9939655   L 62.821233,1.0314736   L 63.907911,1.0877358   L 64.994589,1.125244   L 66.062531,1.1815062   L 67.093001,1.2190143   L 68.104736,1.2752765   L 69.078999,1.3127846   L 70.034526,1.3690468   L 70.933846,1.4065549   L 71.795694,1.4440631   L 72.601335,1.5003253   L 73.38824,1.5378334   L 74.100201,1.5753415   L 74.755955,1.6128497   L 75.374238,1.6503578   L 75.917577,1.6878659   L 76.404708,1.7253741   L 76.835632,1.7816363   L 77.24782,1.8378985   L 77.660009,1.9316688   L 78.034725,2.0254391   L 78.390706,2.1192095   L 78.727951,2.2504879   L 79.04646,2.3817664   L 79.346233,2.5130448   L 79.627271,2.6630774   L 79.908308,2.831864   L 80.151874,3.0006506   L 80.39544,3.1881912   L 80.620269,3.3757319   L 80.826364,3.5632725   L 81.20108,3.975862   L 81.369703,4.1821567   L 81.669476,4.6322543   L 81.800627,4.8573031   L 82.025457,5.3074007   L 82.137872,5.5512035   L 82.212815,5.7762523   L 82.306494,6.0200552   L 82.381437,6.263858   L 82.437645,6.4889068   L 82.493852,6.7327097   L 82.55006,6.9577585   L 82.587531,7.2015613   L 82.662475,7.6516589   L 82.662475,86.268704   L 82.662475,86.493752   z "
     id="path15" />
  <path
     style="fill:none;stroke:#000000;stroke-width:0.093679145px;stroke-linecap:round;stroke-linejoin:round;stroke-miterlimit:4;stroke-dasharray:none;stroke-opacity:1;"
     d="  M 83.074663,86.887588   L 83.037191,87.112637   L 82.99972,87.356439   L 82.962248,87.581488   L 82.849833,88.069094   L 82.793626,88.294143   L 82.718682,88.537946   L 82.531324,89.025551   L 82.437645,89.2506   L 82.32523,89.494403   L 82.212815,89.719452   L 82.081664,89.944501   L 81.781891,90.394598   L 81.613268,90.619647   L 81.42591,90.825942   L 81.219816,91.032236   L 81.013722,91.219777   L 80.564062,91.594858   L 80.30176,91.763645   L 80.020723,91.932432   L 79.739686,92.082464   L 79.439912,92.232497   L 79.121403,92.363775   L 78.409442,92.588824   L 78.034725,92.682594   L 77.641273,92.75761   L 77.210349,92.832627   L 76.779425,92.888889   L 76.292293,92.926397   L 75.730218,92.963905   L 75.111936,93.001413   L 74.437446,93.038921   L 73.706749,93.07643   L 72.93858,93.113938   L 72.114203,93.1702   L 71.233619,93.207708   L 70.315564,93.26397   L 69.378772,93.301478   L 68.385774,93.357741   L 67.355303,93.395249   L 66.324832,93.451511   L 65.238154,93.489019   L 64.151476,93.545281   L 61.903177,93.620297   L 60.760291,93.67656   L 58.437049,93.751576   L 57.275427,93.807838   L 56.113806,93.845346   L 54.97092,93.882854   L 53.809299,93.920363   L 52.666414,93.939117   L 50.418114,94.014133   L 49.331436,94.032887   L 48.263494,94.051641   L 47.214287,94.070395   L 46.202553,94.089149   L 45.209554,94.107903   L 37.902581,94.107903   L 36.909582,94.089149   L 35.897847,94.070395   L 34.848641,94.051641   L 33.780699,94.032887   L 32.694021,94.014133   L 30.445721,93.939117   L 29.302836,93.920363   L 28.141214,93.882854   L 26.998329,93.845346   L 25.836707,93.807838   L 24.675086,93.751576   L 22.351843,93.67656   L 21.208958,93.620297   L 18.960658,93.545281   L 17.87398,93.489019   L 16.787302,93.451511   L 15.756832,93.395249   L 14.726361,93.357741   L 13.733362,93.301478   L 12.796571,93.26397   L 11.878515,93.207708   L 10.997931,93.1702   L 10.173555,93.113938   L 9.4053858,93.07643   L 8.6746885,93.038921   L 8.0001987,93.001413   L 7.3819164,92.963905   L 6.8198415,92.926397   L 6.33271,92.888889   L 5.9017859,92.832627   L 5.4708619,92.75761   L 5.0774095,92.682594   L 4.7026929,92.588824   L 4.3467122,92.476299   L 3.9907314,92.345021   L 3.6722224,92.213743   L 3.3724491,92.06371   L 3.0914117,91.913677   L 2.8103743,91.744891   L 2.5480727,91.576104   L 2.0984128,91.201023   L 1.8923187,91.013482   L 1.6862246,90.807188   L 1.4988663,90.600893   L 1.3302438,90.375844   L 1.0304706,89.925746   L 0.89931976,89.700698   L 0.78690479,89.475649   L 0.67448982,89.231846   L 0.58081068,88.988043   L 0.48713154,88.762994   L 0.3934524,88.519192   L 0.31850908,88.275389   L 0.2623016,88.05034   L 0.20609411,87.806537   L 0.14988663,87.581488   L 0.11241497,87.337685   L 0.037471657,86.887588   L 0.037471657,7.2578235   L 0.11241497,6.807726   L 0.14988663,6.5639231   L 0.20609411,6.3388743   L 0.2623016,6.0950714   L 0.31850908,5.8700227   L 0.3934524,5.6262198   L 0.48713154,5.3824169   L 0.58081068,5.1573681   L 0.67448982,4.9135653   L 0.78690479,4.6697624   L 0.89931976,4.4447136   L 1.0304706,4.2196648   L 1.3302438,3.7695673   L 1.4988663,3.5632725   L 1.6862246,3.3382237   L 1.8923187,3.131929   L 2.0984128,2.9443884   L 2.5480727,2.569307   L 2.8103743,2.4005204   L 3.0914117,2.2317339   L 3.3724491,2.0817013   L 3.6722224,1.9316688   L 3.9907314,1.8003903   L 4.3467122,1.6691119   L 4.7026929,1.5565875   L 5.0774095,1.4628171   L 5.4708619,1.3878009   L 5.9017859,1.3127846   L 6.33271,1.2565224   L 6.8198415,1.2190143   L 7.3819164,1.1815062   L 8.0001987,1.143998   L 8.6746885,1.1064899   L 9.4053858,1.0689818   L 10.173555,1.0314736   L 10.997931,0.97521143   L 11.878515,0.9377033   L 12.796571,0.8814411   L 13.733362,0.84393297   L 14.726361,0.78767077   L 15.756832,0.75016264   L 16.787302,0.69390044   L 17.87398,0.65639231   L 18.960658,0.60013011   L 21.208958,0.52511385   L 22.351843,0.46885165   L 24.675086,0.39383539   L 25.836707,0.33757319   L 26.998329,0.30006506   L 28.141214,0.26255692   L 29.302836,0.22504879   L 30.445721,0.20629473   L 32.694021,0.13127846   L 33.780699,0.1125244   L 34.848641,0.09377033   L 35.897847,0.075016264   L 36.909582,0.056262198   L 37.902581,0.037508132   L 45.209554,0.037508132   L 46.202553,0.056262198   L 47.214287,0.075016264   L 48.263494,0.09377033   L 49.331436,0.1125244   L 50.418114,0.13127846   L 52.666414,0.20629473   L 53.809299,0.22504879   L 54.97092,0.26255692   L 56.113806,0.30006506   L 57.275427,0.33757319   L 58.437049,0.39383539   L 60.760291,0.46885165   L 61.903177,0.52511385   L 64.151476,0.60013011   L 65.238154,0.65639231   L 66.324832,0.69390044   L 67.355303,0.75016264   L 68.385774,0.78767077   L 69.378772,0.84393297   L 70.315564,0.8814411   L 71.233619,0.9377033   L 72.114203,0.97521143   L 72.93858,1.0314736   L 73.706749,1.0689818   L 74.437446,1.1064899   L 75.111936,1.143998   L 75.730218,1.1815062   L 76.292293,1.2190143   L 76.779425,1.2565224   L 77.210349,1.3127846   L 77.641273,1.3878009   L 78.034725,1.4628171   L 78.409442,1.5565875   L 79.121403,1.7816363   L 79.439912,1.9129147   L 79.739686,2.0629473   L 80.020723,2.2129798   L 80.30176,2.3817664   L 80.564062,2.550553   L 81.013722,2.9256343   L 81.219816,3.113175   L 81.42591,3.3194697   L 81.613268,3.5257644   L 81.781891,3.7508132   L 82.081664,4.2009108   L 82.212815,4.4259596   L 82.32523,4.6510084   L 82.437645,4.8948112   L 82.531324,5.11986   L 82.718682,5.6074657   L 82.793626,5.8512686   L 82.849833,6.0763174   L 82.962248,6.5639231   L 82.99972,6.7889719   L 83.037191,7.0327747   L 83.074663,7.2578235   L 83.074663,86.662539   L 83.074663,86.887588   z "
     id="path17" />
  <path
     style="fill:#7f7f7f;fill-rule:evenodd;fill-opacity:1;stroke:#7f7f7f;stroke-width:0.023642197px;stroke-linecap:round;stroke-linejoin:round;stroke-miterlimit:4;stroke-dasharray:none;stroke-opacity:1;"
     d="  M 36.94201,73.60284   M 39.168158,73.60284   M 42.597628,73.60284   M 42.597628,73.60284   M 51.081053,75.551453   M 28.458585,75.551453   M 27.708655,76.430421   L 27.66137,76.430421   L 27.637728,76.406751   L 27.614086,76.406751   L 27.543159,76.335741   L 27.543159,76.312071   L 27.519517,76.288401   L 27.519517,73.542682   L 27.543159,73.519012   L 27.543159,73.495342   L 27.566802,73.471672   L 27.590444,73.471672   L 27.590444,73.448002   L 27.614086,73.424332   L 27.637728,73.424332   L 27.66137,73.400662   L 30.876709,73.400662   L 30.900351,73.424332   L 30.923993,73.424332   L 30.99492,73.495342   L 30.99492,73.519012   L 31.018562,73.542682   L 31.018562,74.087092   L 30.99492,74.087092   L 30.99492,74.063422   L 30.971278,74.063422   L 30.971278,74.039752   L 30.947636,74.039752   L 30.947636,74.016082   L 30.900351,74.016082   L 30.900351,73.992412   L 28.29971,73.992412   L 28.29971,74.016082   L 28.252425,74.016082   L 28.252425,74.039752   L 28.228783,74.039752   L 28.228783,74.087092   L 28.205141,74.087092   L 28.205141,76.335741   L 28.228783,76.335741   L 28.228783,76.383081   L 28.252425,76.383081   L 28.252425,76.406751   L 28.276067,76.406751   L 28.276067,76.430421   L 27.732297,76.430421   L 27.708655,76.430421   z "
     id="path19" />
  <path
     style="fill:#7f7f7f;fill-rule:evenodd;fill-opacity:1;stroke:#7f7f7f;stroke-width:0.023642197px;stroke-linecap:round;stroke-linejoin:round;stroke-miterlimit:4;stroke-dasharray:none;stroke-opacity:1;"
     d="  M 30.78214,74.678842   L 28.441563,74.678842   L 28.441563,74.655172   L 28.394278,74.655172   L 28.394278,74.631502   L 28.370636,74.631502   L 28.370636,74.584162   L 28.346994,74.584162   L 28.346994,75.175912   L 28.370636,75.175912   L 28.370636,75.223252   L 28.394278,75.223252   L 28.394278,75.246922   L 28.441563,75.246922   L 28.441563,75.270592   L 30.829425,75.270592   L 30.876709,75.223252   L 30.900351,75.223252   L 30.947636,75.175912   L 30.947636,75.152242   L 30.971278,75.128572   L 30.971278,75.104902   L 30.99492,75.081232   L 30.99492,75.033892   L 31.018562,75.010222   L 31.018562,74.939212   L 30.99492,74.915542   L 30.99492,74.844532   L 30.947636,74.797192   L 30.947636,74.773522   L 30.923993,74.749852   L 30.900351,74.749852   L 30.900351,74.726182   L 30.876709,74.726182   L 30.853067,74.702512   L 30.829425,74.702512   L 30.805782,74.678842   L 30.78214,74.678842   z "
     id="path21" />
  <path
     style="fill:#7f7f7f;fill-rule:evenodd;fill-opacity:1;stroke:#7f7f7f;stroke-width:0.023642197px;stroke-linecap:round;stroke-linejoin:round;stroke-miterlimit:4;stroke-dasharray:none;stroke-opacity:1;"
     d="  M 36.243488,75.270592   L 36.196203,75.270592   L 36.196203,75.246922   L 36.148919,75.246922   L 36.148919,75.223252   L 36.125277,75.223252   L 36.125277,75.175912   L 36.101635,75.175912   L 36.101635,74.584162   L 36.125277,74.584162   L 36.125277,74.631502   L 36.148919,74.631502   L 36.148919,74.655172   L 36.196203,74.655172   L 36.196203,74.678842   L 38.087579,74.678842   L 38.087579,73.992412   L 36.05435,73.992412   L 36.05435,74.016082   L 36.007066,74.016082   L 36.007066,74.039752   L 35.983424,74.039752   L 35.983424,74.087092   L 35.959781,74.087092   L 35.959781,76.335741   L 35.983424,76.335741   L 35.983424,76.383081   L 36.007066,76.383081   L 36.007066,76.406751   L 36.030708,76.406751   L 36.030708,76.430421   L 35.416011,76.430421   L 35.392369,76.406751   L 35.368726,76.406751   L 35.2978,76.335741   L 35.2978,76.312071   L 35.274158,76.288401   L 35.274158,73.542682   L 35.2978,73.519012   L 35.2978,73.495342   L 35.321442,73.471672   L 35.345084,73.471672   L 35.345084,73.448002   L 35.368726,73.424332   L 35.392369,73.424332   L 35.416011,73.400662   L 38.63135,73.400662   L 38.654992,73.424332   L 38.678634,73.424332   L 38.749561,73.495342   L 38.749561,73.519012   L 38.773203,73.542682   L 38.773203,75.033892   L 38.749561,75.057562   L 38.749561,75.104902   L 38.725918,75.104902   L 38.725918,75.128572   L 38.702276,75.152242   L 38.702276,75.175912   L 38.678634,75.175912   L 38.678634,75.199582   L 38.654992,75.199582   L 38.654992,75.223252   L 38.63135,75.223252   L 38.63135,75.246922   L 38.607707,75.246922   L 38.584065,75.270592   L 38.607707,75.294262   L 38.63135,75.294262   L 38.63135,75.317932   L 38.654992,75.317932   L 38.654992,75.341602   L 38.678634,75.341602   L 38.678634,75.365272   L 38.702276,75.365272   L 38.702276,75.388942   L 38.725918,75.412612   L 38.725918,75.436282   L 38.749561,75.436282   L 38.749561,75.483622   L 38.773203,75.507292   L 38.773203,76.335741   L 38.796845,76.335741   L 38.796845,76.383081   L 38.820487,76.383081   L 38.820487,76.406751   L 38.844129,76.406751   L 38.844129,76.430421   L 38.229432,76.430421   L 38.20579,76.406751   L 38.182148,76.406751   L 38.111221,76.335741   L 38.111221,76.312071   L 38.087579,76.288401   L 38.087579,75.270592   L 36.26713,75.270592   L 36.243488,75.270592   z "
     id="path23" />
  <path
     style="fill:#7f7f7f;fill-rule:evenodd;fill-opacity:1;stroke:#7f7f7f;stroke-width:0.023642197px;stroke-linecap:round;stroke-linejoin:round;stroke-miterlimit:4;stroke-dasharray:none;stroke-opacity:1;"
     d="  M 40.002597,73.992412   L 39.293331,73.992412   L 39.269689,73.968742   L 39.246047,73.968742   L 39.17512,73.897732   L 39.17512,73.874062   L 39.151478,73.850392   L 39.151478,73.542682   L 39.17512,73.519012   L 39.17512,73.495342   L 39.198762,73.471672   L 39.222405,73.471672   L 39.222405,73.448002   L 39.246047,73.424332   L 39.269689,73.424332   L 39.293331,73.400662   L 42.50867,73.400662   L 42.532312,73.424332   L 42.555954,73.424332   L 42.626881,73.495342   L 42.626881,73.519012   L 42.650523,73.542682   L 42.650523,74.087092   L 42.626881,74.087092   L 42.626881,74.063422   L 42.603239,74.063422   L 42.603239,74.039752   L 42.579597,74.039752   L 42.579597,74.016082   L 42.532312,74.016082   L 42.532312,73.992412   L 40.78279,73.992412   L 40.78279,74.016082   L 40.735505,74.016082   L 40.735505,74.039752   L 40.711863,74.039752   L 40.711863,74.087092   L 40.688221,74.087092   L 40.688221,76.335741   L 40.711863,76.335741   L 40.711863,76.383081   L 40.735505,76.383081   L 40.735505,76.406751   L 40.759147,76.406751   L 40.759147,76.430421   L 40.14445,76.430421   L 40.120808,76.406751   L 40.097166,76.406751   L 40.026239,76.335741   L 40.026239,76.312071   L 40.002597,76.288401   L 40.002597,74.063422   L 40.002597,73.992412   z "
     id="path25" />
  <path
     style="fill:#7f7f7f;fill-rule:evenodd;fill-opacity:1;stroke:#7f7f7f;stroke-width:0.023642197px;stroke-linecap:round;stroke-linejoin:round;stroke-miterlimit:4;stroke-dasharray:none;stroke-opacity:1;"
     d="  M 43.714422,76.264731   L 43.714422,76.335741   L 43.738064,76.335741   L 43.738064,76.383081   L 43.761706,76.383081   L 43.761706,76.406751   L 43.785349,76.406751   L 43.785349,76.430421   L 43.170651,76.430421   L 43.147009,76.406751   L 43.123367,76.406751   L 43.05244,76.335741   L 43.05244,76.312071   L 43.028798,76.288401   L 43.028798,73.495342   L 43.005156,73.495342   L 43.005156,73.448002   L 42.981514,73.448002   L 42.981514,73.424332   L 42.957872,73.424332   L 42.957872,73.400662   L 43.572569,73.400662   L 43.596211,73.424332   L 43.619853,73.424332   L 43.69078,73.495342   L 43.69078,73.519012   L 43.714422,73.542682   L 43.714422,76.241061   L 43.714422,76.264731   z "
     id="path27" />
  <path
     style="fill:#7f7f7f;fill-rule:evenodd;fill-opacity:1;stroke:#7f7f7f;stroke-width:0.023642197px;stroke-linecap:round;stroke-linejoin:round;stroke-miterlimit:4;stroke-dasharray:none;stroke-opacity:1;"
     d="  M 47.071614,73.992412   L 45.038385,73.992412   L 45.038385,74.016082   L 44.991101,74.016082   L 44.991101,74.039752   L 44.967458,74.039752   L 44.967458,74.087092   L 44.943816,74.087092   L 44.943816,76.335741   L 44.967458,76.335741   L 44.967458,76.383081   L 44.991101,76.383081   L 44.991101,76.406751   L 45.014743,76.406751   L 45.014743,76.430421   L 44.400046,76.430421   L 44.376403,76.406751   L 44.352761,76.406751   L 44.281835,76.335741   L 44.281835,76.312071   L 44.258192,76.288401   L 44.258192,73.542682   L 44.281835,73.519012   L 44.281835,73.495342   L 44.305477,73.471672   L 44.329119,73.471672   L 44.329119,73.448002   L 44.352761,73.424332   L 44.376403,73.424332   L 44.400046,73.400662   L 47.615384,73.400662   L 47.639027,73.424332   L 47.662669,73.424332   L 47.733595,73.495342   L 47.733595,73.519012   L 47.757238,73.542682   L 47.757238,76.335741   L 47.78088,76.335741   L 47.78088,76.383081   L 47.804522,76.383081   L 47.804522,76.406751   L 47.828164,76.406751   L 47.828164,76.430421   L 47.213467,76.430421   L 47.189825,76.406751   L 47.166183,76.406751   L 47.095256,76.335741   L 47.095256,76.312071   L 47.071614,76.288401   L 47.071614,74.063422   L 47.071614,73.992412   z "
     id="path29" />
  <path
     style="fill:#7f7f7f;fill-rule:evenodd;fill-opacity:1;stroke:#7f7f7f;stroke-width:0.023642197px;stroke-linecap:round;stroke-linejoin:round;stroke-miterlimit:4;stroke-dasharray:none;stroke-opacity:1;"
     d="  M 51.232641,74.678842   L 49.057558,74.678842   L 49.033916,74.655172   L 49.010274,74.655172   L 49.010274,74.631502   L 48.986632,74.631502   L 48.986632,74.584162   L 48.96299,74.584162   L 48.96299,75.175912   L 48.986632,75.175912   L 48.986632,75.223252   L 49.010274,75.223252   L 49.010274,75.246922   L 49.033916,75.246922   L 49.057558,75.270592   L 51.256283,75.270592   L 51.303567,75.223252   L 51.327209,75.223252   L 51.374494,75.175912   L 51.374494,75.152242   L 51.398136,75.128572   L 51.398136,75.104902   L 51.421778,75.081232   L 51.421778,75.033892   L 51.44542,75.010222   L 51.44542,74.915542   L 51.421778,74.891872   L 51.421778,74.820862   L 51.398136,74.820862   L 51.398136,74.797192   L 51.327209,74.726182   L 51.303567,74.726182   L 51.303567,74.702512   L 51.279925,74.702512   L 51.256283,74.678842   L 51.232641,74.678842   z "
     id="path31" />
  <path
     style="fill:#7f7f7f;fill-rule:evenodd;fill-opacity:1;stroke:#7f7f7f;stroke-width:0.023642197px;stroke-linecap:round;stroke-linejoin:round;stroke-miterlimit:4;stroke-dasharray:none;stroke-opacity:1;"
     d="  M 52.863952,73.992412   L 52.154686,73.992412   L 52.131044,73.968742   L 52.107402,73.968742   L 52.036475,73.897732   L 52.036475,73.874062   L 52.012833,73.850392   L 52.012833,73.542682   L 52.036475,73.519012   L 52.036475,73.495342   L 52.060117,73.471672   L 52.08376,73.471672   L 52.08376,73.448002   L 52.107402,73.424332   L 52.131044,73.424332   L 52.154686,73.400662   L 55.370025,73.400662   L 55.393667,73.424332   L 55.417309,73.424332   L 55.488236,73.495342   L 55.488236,73.519012   L 55.511878,73.542682   L 55.511878,74.087092   L 55.488236,74.087092   L 55.488236,74.063422   L 55.464594,74.063422   L 55.464594,74.039752   L 55.440952,74.039752   L 55.440952,74.016082   L 55.393667,74.016082   L 55.393667,73.992412   L 53.644145,73.992412   L 53.644145,74.016082   L 53.59686,74.016082   L 53.59686,74.039752   L 53.573218,74.039752   L 53.573218,74.087092   L 53.549576,74.087092   L 53.549576,76.335741   L 53.573218,76.335741   L 53.573218,76.383081   L 53.59686,76.383081   L 53.59686,76.406751   L 53.620502,76.406751   L 53.620502,76.430421   L 53.005805,76.430421   L 52.982163,76.406751   L 52.958521,76.406751   L 52.887594,76.335741   L 52.887594,76.312071   L 52.863952,76.288401   L 52.863952,74.063422   L 52.863952,73.992412   z "
     id="path33" />
  <path
     style="fill:#7f7f7f;fill-rule:evenodd;fill-opacity:1;stroke:#7f7f7f;stroke-width:0.023642197px;stroke-linecap:round;stroke-linejoin:round;stroke-miterlimit:4;stroke-dasharray:none;stroke-opacity:1;"
     d="  M 51.469063,75.838671   L 51.516347,75.838671   L 51.516347,75.815002   L 51.563631,75.815002   L 51.563631,75.791332   L 51.587274,75.791332   L 51.587274,75.767662   L 51.610916,75.767662   L 51.610916,75.743992   L 51.634558,75.743992   L 51.634558,76.288401   L 51.610916,76.312071   L 51.610916,76.335741   L 51.587274,76.359411   L 51.587274,76.383081   L 51.563631,76.383081   L 51.539989,76.406751   L 51.516347,76.406751   L 51.492705,76.430421   L 48.277366,76.430421   L 48.253724,76.406751   L 48.230082,76.406751   L 48.159155,76.335741   L 48.159155,76.312071   L 48.135513,76.288401   L 48.135513,73.542682   L 48.159155,73.519012   L 48.159155,73.495342   L 48.182797,73.471672   L 48.206439,73.471672   L 48.206439,73.448002   L 48.230082,73.424332   L 48.253724,73.424332   L 48.277366,73.400662   L 51.492705,73.400662   L 51.516347,73.424332   L 51.539989,73.424332   L 51.610916,73.495342   L 51.610916,73.519012   L 51.634558,73.542682   L 51.634558,74.087092   L 51.610916,74.087092   L 51.610916,74.063422   L 51.587274,74.063422   L 51.587274,74.039752   L 51.563631,74.039752   L 51.563631,74.016082   L 51.516347,74.016082   L 51.516347,73.992412   L 48.915705,73.992412   L 48.915705,74.016082   L 48.868421,74.016082   L 48.868421,74.039752   L 48.844779,74.039752   L 48.844779,74.087092   L 48.821136,74.087092   L 48.821136,75.838671   L 51.44542,75.838671   L 51.469063,75.838671   z "
     id="path35" />
  <path
     style="fill:#7f7f7f;fill-rule:evenodd;fill-opacity:1;stroke:#7f7f7f;stroke-width:0.023642197px;stroke-linecap:round;stroke-linejoin:round;stroke-miterlimit:4;stroke-dasharray:none;stroke-opacity:1;"
     d="  M 32.578947,75.554632   L 32.578947,76.430421   L 33.713773,76.430421   L 33.713773,75.554632   L 32.578947,75.554632   z "
     id="path37" />
  <path
     style="fill:#7f7f7f;fill-rule:evenodd;fill-opacity:1;stroke:#7f7f7f;stroke-width:0.023642197px;stroke-linecap:round;stroke-linejoin:round;stroke-miterlimit:4;stroke-dasharray:none;stroke-opacity:1;"
     d="  M 31.396837,74.489482   L 32.366167,74.489482   L 32.366167,75.341602   L 31.396837,75.341602   L 31.396837,74.489482   z "
     id="path39" />
  <path
     style="fill:#7f7f7f;fill-rule:evenodd;fill-opacity:1;stroke:#7f7f7f;stroke-width:0.023642197px;stroke-linecap:round;stroke-linejoin:round;stroke-miterlimit:4;stroke-dasharray:none;stroke-opacity:1;"
     d="  M 33.926552,75.554632   L 33.926552,76.430421   L 34.281185,76.430421   L 34.304828,76.406751   L 34.399396,76.406751   L 34.423039,76.383081   L 34.470323,76.383081   L 34.517607,76.359411   L 34.54125,76.335741   L 34.588534,76.312071   L 34.635818,76.264731   L 34.683103,76.241061   L 34.706745,76.217391   L 34.730387,76.170051   L 34.754029,76.146381   L 34.848598,75.957021   L 34.848598,75.909681   L 34.87224,75.838671   L 34.87224,75.767662   L 34.895883,75.696652   L 34.895883,75.554632   L 33.950195,75.554632   L 33.926552,75.554632   z "
     id="path41" />
  <path
     style="fill:#7f7f7f;fill-rule:evenodd;fill-opacity:1;stroke:#7f7f7f;stroke-width:0.023642197px;stroke-linecap:round;stroke-linejoin:round;stroke-miterlimit:4;stroke-dasharray:none;stroke-opacity:1;"
     d="  M 33.926552,74.489482   L 34.895883,74.489482   L 34.895883,75.341602   L 33.926552,75.341602   L 33.926552,74.489482   z "
     id="path43" />
  <path
     style="fill:#7f7f7f;fill-rule:evenodd;fill-opacity:1;stroke:#7f7f7f;stroke-width:0.023642197px;stroke-linecap:round;stroke-linejoin:round;stroke-miterlimit:4;stroke-dasharray:none;stroke-opacity:1;"
     d="  M 32.366167,75.554632   L 32.366167,76.430421   L 32.011535,76.430421   L 31.987892,76.406751   L 31.893324,76.406751   L 31.869681,76.383081   L 31.822397,76.383081   L 31.775113,76.359411   L 31.75147,76.335741   L 31.704186,76.312071   L 31.656902,76.264731   L 31.609617,76.241061   L 31.585975,76.217391   L 31.562333,76.170051   L 31.538691,76.146381   L 31.444122,75.957021   L 31.444122,75.909681   L 31.42048,75.838671   L 31.42048,75.767662   L 31.396837,75.696652   L 31.396837,75.554632   L 32.342525,75.554632   L 32.366167,75.554632   z "
     id="path45" />
  <path
     style="fill:#7f7f7f;fill-rule:evenodd;fill-opacity:1;stroke:#7f7f7f;stroke-width:0.023642197px;stroke-linecap:round;stroke-linejoin:round;stroke-miterlimit:4;stroke-dasharray:none;stroke-opacity:1;"
     d="  M 32.578947,73.400662   L 32.578947,74.276452   L 33.713773,74.276452   L 33.713773,73.400662   L 32.578947,73.400662   z "
     id="path47" />
  <path
     style="fill:#7f7f7f;fill-rule:evenodd;fill-opacity:1;stroke:#7f7f7f;stroke-width:0.023642197px;stroke-linecap:round;stroke-linejoin:round;stroke-miterlimit:4;stroke-dasharray:none;stroke-opacity:1;"
     d="  M 33.926552,74.276452   L 33.926552,73.400662   L 34.281185,73.400662   L 34.304828,73.424332   L 34.399396,73.424332   L 34.423039,73.448002   L 34.470323,73.448002   L 34.517607,73.471672   L 34.54125,73.495342   L 34.588534,73.519012   L 34.635818,73.566352   L 34.683103,73.590022   L 34.706745,73.613692   L 34.730387,73.661032   L 34.754029,73.684702   L 34.848598,73.874062   L 34.848598,73.921402   L 34.87224,73.992412   L 34.87224,74.063422   L 34.895883,74.134432   L 34.895883,74.276452   L 33.950195,74.276452   L 33.926552,74.276452   z "
     id="path49" />
  <path
     style="fill:#7f7f7f;fill-rule:evenodd;fill-opacity:1;stroke:#7f7f7f;stroke-width:0.023642197px;stroke-linecap:round;stroke-linejoin:round;stroke-miterlimit:4;stroke-dasharray:none;stroke-opacity:1;"
     d="  M 32.366167,74.276452   L 32.366167,73.400662   L 32.011535,73.400662   L 31.987892,73.424332   L 31.893324,73.424332   L 31.869681,73.448002   L 31.822397,73.448002   L 31.775113,73.471672   L 31.75147,73.495342   L 31.704186,73.519012   L 31.656902,73.566352   L 31.609617,73.590022   L 31.585975,73.613692   L 31.562333,73.661032   L 31.538691,73.684702   L 31.444122,73.874062   L 31.444122,73.921402   L 31.42048,73.992412   L 31.42048,74.063422   L 31.396837,74.134432   L 31.396837,74.276452   L 32.342525,74.276452   L 32.366167,74.276452   z "
     id="path51" />
  <text
     xml:space="preserve"
     style="font-size:2.687500px;font-style:normal;font-variant:normal;font-weight:400;font-stretch:Normal;line-height:125.000000%;letter-spacing:0px;word-spacing:0px;fill:#000000;fill-opacity:1;stroke:none;font-family:Arial;text-align:start;text-anchor:start;"
     transform="matrix(1.000000,-0.000000,0.000000,1.000000,32.015223,78.798458)"
     x="0.000000"
     y="1.959188"
     id="text57"><tspan
       x="0.000000"
       y="1.959188"
       id="tspan55"><tspan
         dx="0.000000"
         dy="0.000000"
         style="fill:#808080;font-size:2.687500px;font-style:normal;font-variant:normal;font-weight:400;font-stretch:Normal;font-family:Arial;"
         id="tspan53">FortiAP 222E</tspan></tspan></text>
  <text
     xml:space="preserve"
     style="font-size:1.125000px;font-style:normal;font-variant:normal;font-weight:400;font-stretch:Condensed;line-height:125.000000%;letter-spacing:0px;word-spacing:0px;fill:#000000;fill-opacity:1;stroke:none;font-family:Times New Roman;text-align:start;text-anchor:start;"
     transform="matrix(1.000000,-0.000000,0.000000,1.000000,54.667764,76.407775)"
     x="0.000000"
     y="0.000000"
     id="text63"><tspan
       x="0.000000"
       y="0.000000"
       id="tspan61"><tspan
         dx="0.000000"
         dy="0.000000"
         style="fill:#7F7F7F;font-size:1.125000px;font-style:normal;font-variant:normal;font-weight:400;font-stretch:Condensed;font-family:Times New Roman;"
         id="tspan59">®</tspan></tspan></text>
  <path
     style="fill:none;stroke:#000000;stroke-width:0.0081058303px;stroke-linecap:round;stroke-linejoin:round;stroke-miterlimit:4;stroke-dasharray:none;stroke-opacity:1;"
     d="  M 17.151937,0.60035628   L 16.868233,0.60035628   L 16.868233,0.88430857   L 17.151937,0.88430857   L 17.151937,0.60035628   z "
     id="path65" />
  <path
     style="fill:none;stroke:#000000;stroke-width:0.0081058303px;stroke-linecap:round;stroke-linejoin:round;stroke-miterlimit:4;stroke-dasharray:none;stroke-opacity:1;"
     d="  M 66.192209,0.60035628   L 65.908505,0.60035628   L 65.908505,0.88430857   L 66.192209,0.88430857   L 66.192209,0.60035628   z "
     id="path67" />
  <path
     style="fill:none;stroke:#000000;stroke-width:0.0081058303px;stroke-linecap:round;stroke-linejoin:round;stroke-miterlimit:4;stroke-dasharray:none;stroke-opacity:1;"
     d="  M 17.151937,93.282385   L 16.868233,93.282385   L 16.868233,93.566337   L 17.151937,93.566337   L 17.151937,93.282385   z "
     id="path69" />
  <path
     style="fill:none;stroke:#000000;stroke-width:0.0081058303px;stroke-linecap:round;stroke-linejoin:round;stroke-miterlimit:4;stroke-dasharray:none;stroke-opacity:1;"
     d="  M 66.192209,93.282385   L 65.908505,93.282385   L 65.908505,93.566337   L 66.192209,93.566337   L 66.192209,93.282385   z "
     id="path71" />
  <path
     style="fill:none;stroke:#000000;stroke-width:0.0081058303px;stroke-linecap:round;stroke-linejoin:round;stroke-miterlimit:4;stroke-dasharray:none;stroke-opacity:1;"
     d="  M 27.802998,93.809725   L 27.519294,93.809725   L 27.519294,94.093677   L 27.802998,94.093677   L 27.802998,93.809725   z "
     id="path73" />
</svg>
