<?xml version="1.0" encoding="UTF-8" standalone="no"?>
<svg
   version="1.0"
   width="18.01mm"
   height="18.01mm"
   id="svg185"
   xmlns="http://www.w3.org/2000/svg"
   xmlns:svg="http://www.w3.org/2000/svg">
  <defs
     id="defs3">
    <pattern
       id="EMFhbasepattern"
       patternUnits="userSpaceOnUse"
       width="6"
       height="6"
       x="0"
       y="0" />
  </defs>
  <path
     style="fill:#d8d8d8;fill-rule:evenodd;fill-opacity:1;stroke:#000000;stroke-width:0.09360718px;stroke-linecap:round;stroke-linejoin:round;stroke-miterlimit:4;stroke-dasharray:none;stroke-opacity:1;"
     d="  M 30.160233,60.894004   M 29.542426,60.725114   M 29.898133,60.912769   M 29.898133,60.912769   M 29.149276,60.912769   M 67.883927,0.93827432   L 67.883927,0.84444689   L 67.865206,0.75061946   L 67.846484,0.67555751   L 67.809041,0.58173008   L 67.734156,0.43160619   L 67.677991,0.35654424   L 67.565663,0.24395132   L 67.490777,0.18765486   L 67.341005,0.11259292   L 67.247398,0.075061946   L 67.172513,0.056296459   L 67.078905,0.037530973   L 0.84246462,0.037530973   L 0.74885744,0.056296459   L 0.6739717,0.075061946   L 0.58036452,0.11259292   L 0.43059303,0.18765486   L 0.35570728,0.24395132   L 0.24337867,0.35654424   L 0.18721436,0.43160619   L 0.11232862,0.58173008   L 0.074885744,0.67555751   L 0.056164308,0.75061946   L 0.037442872,0.84444689   L 0.037442872,67.236738   L 0.056164308,67.330565   L 0.074885744,67.405627   L 0.11232862,67.499455   L 0.18721436,67.649579   L 0.24337867,67.724641   L 0.35570728,67.837234   L 0.43059303,67.89353   L 0.58036452,67.968592   L 0.6739717,68.006123   L 0.74885744,68.024888   L 0.84246462,68.043654   L 67.078905,68.043654   L 67.172513,68.024888   L 67.247398,68.006123   L 67.341005,67.968592   L 67.490777,67.89353   L 67.565663,67.837234   L 67.677991,67.724641   L 67.734156,67.649579   L 67.809041,67.499455   L 67.846484,67.405627   L 67.865206,67.330565   L 67.883927,67.236738   L 67.883927,67.142911   L 67.883927,0.93827432   z "
     id="path5" />
  <path
     style="fill:#efefef;fill-rule:evenodd;fill-opacity:1;stroke:#efefef;stroke-width:0.018721435px;stroke-linecap:round;stroke-linejoin:round;stroke-miterlimit:4;stroke-dasharray:none;stroke-opacity:1;"
     d="  M 67.546941,1.2760531   L 67.546941,1.1822256   L 67.52822,1.0883982   L 67.509498,1.0133363   L 67.472056,0.91950884   L 67.39717,0.76938495   L 67.341005,0.694323   L 67.228677,0.58173008   L 67.153791,0.52543362   L 67.00402,0.45037168   L 66.910412,0.4128407   L 66.835527,0.39407522   L 66.741919,0.37530973   L 1.1794505,0.37530973   L 1.0858433,0.39407522   L 1.0109575,0.4128407   L 0.91735037,0.45037168   L 0.76757888,0.52543362   L 0.69269313,0.58173008   L 0.58036452,0.694323   L 0.52420021,0.76938495   L 0.44931447,0.91950884   L 0.41187159,1.0133363   L 0.39315016,1.0883982   L 0.37442872,1.1822256   L 0.37442872,66.898959   L 0.39315016,66.992787   L 0.41187159,67.067849   L 0.44931447,67.161676   L 0.52420021,67.3118   L 0.58036452,67.386862   L 0.69269313,67.499455   L 0.76757888,67.555751   L 0.91735037,67.630813   L 1.0109575,67.668344   L 1.0858433,67.68711   L 1.1794505,67.705875   L 66.741919,67.705875   L 66.835527,67.68711   L 66.910412,67.668344   L 67.00402,67.630813   L 67.153791,67.555751   L 67.228677,67.499455   L 67.341005,67.386862   L 67.39717,67.3118   L 67.472056,67.161676   L 67.509498,67.067849   L 67.52822,66.992787   L 67.546941,66.898959   L 67.546941,66.805132   L 67.546941,1.2760531   z "
     id="path7" />
  <ellipse
     style="fill:#000000;fill-rule:evenodd;fill-opacity:1;stroke:#000000;stroke-width:0.018721435px;stroke-linecap:round;stroke-linejoin:round;stroke-miterlimit:4;stroke-dasharray:none;stroke-opacity:1;"
     cx="25.152249"
     cy="62.770552"
     rx="0.62716811"
     ry="0.63652883"
     id="ellipse9" />
  <ellipse
     style="fill:none;stroke:#000000;stroke-width:0.018721435px;stroke-linecap:round;stroke-linejoin:round;stroke-miterlimit:4;stroke-dasharray:none;stroke-opacity:1;"
     cx="25.152249"
     cy="62.770552"
     rx="0.62716811"
     ry="0.63652883"
     id="ellipse11" />
  <ellipse
     style="fill:#00ff00;fill-rule:evenodd;fill-opacity:1;stroke:#000000;stroke-width:0.018721435px;stroke-linecap:round;stroke-linejoin:round;stroke-miterlimit:4;stroke-dasharray:none;stroke-opacity:1;"
     cx="25.152249"
     cy="62.770552"
     rx="0.47739662"
     ry="0.48675734"
     id="ellipse13" />
  <ellipse
     style="fill:none;stroke:#000000;stroke-width:0.018721435px;stroke-linecap:round;stroke-linejoin:round;stroke-miterlimit:4;stroke-dasharray:none;stroke-opacity:1;"
     cx="25.152249"
     cy="62.770552"
     rx="0.47739662"
     ry="0.48675734"
     id="ellipse15" />
  <ellipse
     style="fill:#000000;fill-rule:evenodd;fill-opacity:1;stroke:#000000;stroke-width:0.018721435px;stroke-linecap:round;stroke-linejoin:round;stroke-miterlimit:4;stroke-dasharray:none;stroke-opacity:1;"
     cx="29.523705"
     cy="62.770552"
     rx="0.63652883"
     ry="0.63652883"
     id="ellipse17" />
  <ellipse
     style="fill:none;stroke:#000000;stroke-width:0.018721435px;stroke-linecap:round;stroke-linejoin:round;stroke-miterlimit:4;stroke-dasharray:none;stroke-opacity:1;"
     cx="29.523705"
     cy="62.770552"
     rx="0.63652883"
     ry="0.63652883"
     id="ellipse19" />
  <ellipse
     style="fill:#00ff00;fill-rule:evenodd;fill-opacity:1;stroke:#000000;stroke-width:0.018721435px;stroke-linecap:round;stroke-linejoin:round;stroke-miterlimit:4;stroke-dasharray:none;stroke-opacity:1;"
     cx="29.523705"
     cy="62.770552"
     rx="0.48675734"
     ry="0.48675734"
     id="ellipse21" />
  <ellipse
     style="fill:none;stroke:#000000;stroke-width:0.018721435px;stroke-linecap:round;stroke-linejoin:round;stroke-miterlimit:4;stroke-dasharray:none;stroke-opacity:1;"
     cx="29.523705"
     cy="62.770552"
     rx="0.48675734"
     ry="0.48675734"
     id="ellipse23" />
  <ellipse
     style="fill:#000000;fill-rule:evenodd;fill-opacity:1;stroke:#000000;stroke-width:0.018721435px;stroke-linecap:round;stroke-linejoin:round;stroke-miterlimit:4;stroke-dasharray:none;stroke-opacity:1;"
     cx="33.848356"
     cy="62.770552"
     rx="0.63652883"
     ry="0.63652883"
     id="ellipse25" />
  <ellipse
     style="fill:none;stroke:#000000;stroke-width:0.018721435px;stroke-linecap:round;stroke-linejoin:round;stroke-miterlimit:4;stroke-dasharray:none;stroke-opacity:1;"
     cx="33.848356"
     cy="62.770552"
     rx="0.63652883"
     ry="0.63652883"
     id="ellipse27" />
  <ellipse
     style="fill:#00ff00;fill-rule:evenodd;fill-opacity:1;stroke:#000000;stroke-width:0.018721435px;stroke-linecap:round;stroke-linejoin:round;stroke-miterlimit:4;stroke-dasharray:none;stroke-opacity:1;"
     cx="33.848356"
     cy="62.770552"
     rx="0.48675734"
     ry="0.48675734"
     id="ellipse29" />
  <ellipse
     style="fill:none;stroke:#000000;stroke-width:0.018721435px;stroke-linecap:round;stroke-linejoin:round;stroke-miterlimit:4;stroke-dasharray:none;stroke-opacity:1;"
     cx="33.848356"
     cy="62.770552"
     rx="0.48675734"
     ry="0.48675734"
     id="ellipse31" />
  <ellipse
     style="fill:#000000;fill-rule:evenodd;fill-opacity:1;stroke:#000000;stroke-width:0.018721435px;stroke-linecap:round;stroke-linejoin:round;stroke-miterlimit:4;stroke-dasharray:none;stroke-opacity:1;"
     cx="42.535103"
     cy="62.770552"
     rx="0.63652883"
     ry="0.63652883"
     id="ellipse33" />
  <ellipse
     style="fill:none;stroke:#000000;stroke-width:0.018721435px;stroke-linecap:round;stroke-linejoin:round;stroke-miterlimit:4;stroke-dasharray:none;stroke-opacity:1;"
     cx="42.535103"
     cy="62.770552"
     rx="0.63652883"
     ry="0.63652883"
     id="ellipse35" />
  <ellipse
     style="fill:#00ff00;fill-rule:evenodd;fill-opacity:1;stroke:#000000;stroke-width:0.018721435px;stroke-linecap:round;stroke-linejoin:round;stroke-miterlimit:4;stroke-dasharray:none;stroke-opacity:1;"
     cx="42.535103"
     cy="62.770552"
     rx="0.48675734"
     ry="0.48675734"
     id="ellipse37" />
  <ellipse
     style="fill:none;stroke:#000000;stroke-width:0.018721435px;stroke-linecap:round;stroke-linejoin:round;stroke-miterlimit:4;stroke-dasharray:none;stroke-opacity:1;"
     cx="42.535103"
     cy="62.770552"
     rx="0.48675734"
     ry="0.48675734"
     id="ellipse39" />
  <ellipse
     style="fill:#000000;fill-rule:evenodd;fill-opacity:1;stroke:#000000;stroke-width:0.018721435px;stroke-linecap:round;stroke-linejoin:round;stroke-miterlimit:4;stroke-dasharray:none;stroke-opacity:1;"
     cx="38.144926"
     cy="62.770552"
     rx="0.62716811"
     ry="0.63652883"
     id="ellipse41" />
  <ellipse
     style="fill:none;stroke:#000000;stroke-width:0.018721435px;stroke-linecap:round;stroke-linejoin:round;stroke-miterlimit:4;stroke-dasharray:none;stroke-opacity:1;"
     cx="38.144926"
     cy="62.770552"
     rx="0.62716811"
     ry="0.63652883"
     id="ellipse43" />
  <ellipse
     style="fill:#00ff00;fill-rule:evenodd;fill-opacity:1;stroke:#000000;stroke-width:0.018721435px;stroke-linecap:round;stroke-linejoin:round;stroke-miterlimit:4;stroke-dasharray:none;stroke-opacity:1;"
     cx="38.144926"
     cy="62.770552"
     rx="0.47739662"
     ry="0.48675734"
     id="ellipse45" />
  <ellipse
     style="fill:none;stroke:#000000;stroke-width:0.018721435px;stroke-linecap:round;stroke-linejoin:round;stroke-miterlimit:4;stroke-dasharray:none;stroke-opacity:1;"
     cx="38.144926"
     cy="62.770552"
     rx="0.47739662"
     ry="0.48675734"
     id="ellipse47" />
  <path
     style="fill:#000000;fill-rule:evenodd;fill-opacity:1;stroke:#000000;stroke-width:0.018721435px;stroke-linecap:round;stroke-linejoin:round;stroke-miterlimit:4;stroke-dasharray:none;stroke-opacity:1;"
     d="  M 25.273939,60.631287   L 25.29266,60.631287   L 25.29266,60.650052   L 25.311382,60.650052   L 25.330103,60.668818   L 25.348824,60.668818   L 25.404989,60.725114   L 25.404989,60.74388   L 25.42371,60.74388   L 25.42371,60.762645   L 25.442432,60.781411   L 25.442432,60.800176   L 25.461153,60.818942   L 25.461153,60.875238   L 25.479874,60.894004   L 25.479874,61.062893   L 25.461153,61.081658   L 25.461153,61.137955   L 25.442432,61.15672   L 25.442432,61.175486   L 25.42371,61.194251   L 25.42371,61.213017   L 25.404989,61.231782   L 25.404989,61.250548   L 25.386267,61.250548   L 25.367546,61.269313   L 25.367546,61.288079   L 25.348824,61.288079   L 25.29266,61.344375   L 25.255217,61.344375   L 25.236496,61.363141   L 25.199053,61.363141   L 25.180331,61.381906   L 24.993117,61.381906   L 24.974396,61.363141   L 24.936953,61.363141   L 24.918231,61.344375   L 24.880789,61.344375   L 24.824624,61.288079   L 24.805903,61.288079   L 24.805903,61.269313   L 24.787181,61.250548   L 24.76846,61.250548   L 24.76846,61.231782   L 24.749738,61.213017   L 24.749738,61.194251   L 24.731017,61.175486   L 24.731017,61.15672   L 24.712296,61.137955   L 24.712296,61.081658   L 24.693574,61.062893   L 24.693574,60.894004   L 24.712296,60.875238   L 24.712296,60.818942   L 24.731017,60.818942   L 24.731017,60.781411   L 24.749738,60.762645   L 24.749738,60.74388   L 24.76846,60.74388   L 24.76846,60.725114   L 24.787181,60.706349   L 24.787181,60.687583   L 24.805903,60.687583   L 24.843346,60.650052   L 24.843346,60.668818   L 24.862067,60.668818   L 24.862067,60.687583   L 24.880789,60.687583   L 24.880789,60.706349   L 24.89951,60.706349   L 24.89951,60.725114   L 24.880789,60.725114   L 24.880789,60.74388   L 24.862067,60.74388   L 24.805903,60.800176   L 24.805903,60.818942   L 24.787181,60.837707   L 24.787181,60.856473   L 24.76846,60.856473   L 24.76846,60.912769   L 24.749738,60.912769   L 24.749738,61.062893   L 24.76846,61.062893   L 24.76846,61.119189   L 24.805903,61.15672   L 24.805903,61.175486   L 24.824624,61.175486   L 24.824624,61.194251   L 24.862067,61.231782   L 24.880789,61.231782   L 24.880789,61.250548   L 24.89951,61.250548   L 24.918231,61.269313   L 24.936953,61.269313   L 24.955674,61.288079   L 24.993117,61.288079   L 24.993117,61.306844   L 25.180331,61.306844   L 25.180331,61.288079   L 25.217774,61.288079   L 25.236496,61.269313   L 25.255217,61.269313   L 25.273939,61.250548   L 25.29266,61.250548   L 25.29266,61.231782   L 25.311382,61.231782   L 25.348824,61.194251   L 25.348824,61.175486   L 25.367546,61.175486   L 25.367546,61.15672   L 25.404989,61.119189   L 25.404989,61.062893   L 25.42371,61.062893   L 25.42371,60.912769   L 25.404989,60.912769   L 25.404989,60.856473   L 25.386267,60.856473   L 25.386267,60.818942   L 25.367546,60.818942   L 25.367546,60.800176   L 25.348824,60.781411   L 25.348824,60.762645   L 25.330103,60.762645   L 25.330103,60.74388   L 25.311382,60.74388   L 25.29266,60.725114   L 25.273939,60.725114   L 25.273939,60.706349   L 25.255217,60.706349   L 25.255217,60.668818   L 25.273939,60.668818   L 25.273939,60.650052   L 25.273939,60.631287   z "
     id="path49" />
  <path
     style="fill:#000000;fill-rule:evenodd;fill-opacity:1;stroke:#000000;stroke-width:0.018721435px;stroke-linecap:round;stroke-linejoin:round;stroke-miterlimit:4;stroke-dasharray:none;stroke-opacity:1;"
     d="  M 25.124167,60.443632   L 25.03056,60.443632   L 25.03056,61.006597   L 25.124167,61.006597   L 25.124167,60.443632   z "
     id="path51" />
  <path
     style="fill:none;stroke:#000000;stroke-width:0.018721435px;stroke-linecap:round;stroke-linejoin:round;stroke-miterlimit:4;stroke-dasharray:none;stroke-opacity:1;"
     d="  M 30.160233,60.894004   L 28.924619,60.894004  "
     id="path53" />
  <path
     style="fill:none;stroke:#000000;stroke-width:0.018721435px;stroke-linecap:round;stroke-linejoin:round;stroke-miterlimit:4;stroke-dasharray:none;stroke-opacity:1;"
     d="  M 29.542426,60.725114   L 29.542426,60.912769  "
     id="path55" />
  <path
     style="fill:#0a0a0a;fill-rule:evenodd;fill-opacity:1;stroke:#000000;stroke-width:0.018721435px;stroke-linecap:round;stroke-linejoin:round;stroke-miterlimit:4;stroke-dasharray:none;stroke-opacity:1;"
     d="  M 29.692198,60.424866   L 29.392655,60.424866   L 29.392655,60.725114   L 29.692198,60.725114   L 29.692198,60.424866   z "
     id="path57" />
  <path
     style="fill:none;stroke:#000000;stroke-width:0.018721435px;stroke-linecap:round;stroke-linejoin:round;stroke-miterlimit:4;stroke-dasharray:none;stroke-opacity:1;"
     d="  M 29.898133,60.912769   L 29.898133,61.100424  "
     id="path59" />
  <path
     style="fill:none;stroke:#000000;stroke-width:0.018721435px;stroke-linecap:round;stroke-linejoin:round;stroke-miterlimit:4;stroke-dasharray:none;stroke-opacity:1;"
     d="  M 29.898133,60.912769   L 29.898133,61.100424  "
     id="path61" />
  <path
     style="fill:#0a0a0a;fill-rule:evenodd;fill-opacity:1;stroke:#000000;stroke-width:0.018721435px;stroke-linecap:round;stroke-linejoin:round;stroke-miterlimit:4;stroke-dasharray:none;stroke-opacity:1;"
     d="  M 29.767083,61.100424   L 30.066626,61.100424   L 30.066626,61.400672   L 29.767083,61.400672   L 29.767083,61.100424   z "
     id="path63" />
  <path
     style="fill:none;stroke:#000000;stroke-width:0.018721435px;stroke-linecap:round;stroke-linejoin:round;stroke-miterlimit:4;stroke-dasharray:none;stroke-opacity:1;"
     d="  M 29.149276,60.912769   L 29.149276,61.100424  "
     id="path65" />
  <path
     style="fill:#0a0a0a;fill-rule:evenodd;fill-opacity:1;stroke:#000000;stroke-width:0.018721435px;stroke-linecap:round;stroke-linejoin:round;stroke-miterlimit:4;stroke-dasharray:none;stroke-opacity:1;"
     d="  M 29.317769,61.100424   L 29.018226,61.100424   L 29.018226,61.400672   L 29.317769,61.400672   L 29.317769,61.100424   z "
     id="path67" />
  <path
     style="fill:none;stroke:#000000;stroke-width:0.056164309px;stroke-linecap:round;stroke-linejoin:round;stroke-miterlimit:4;stroke-dasharray:none;stroke-opacity:1;"
     d="  M 42.404053,61.175486   L 42.909531,60.650052   L 42.666153,60.406101   L 42.666153,61.419437   L 42.909531,61.175486   L 42.385331,60.650052  "
     id="path69" />
  <path
     style="fill:#000000;fill-rule:evenodd;fill-opacity:1;stroke:#000000;stroke-width:0.018721435px;stroke-linecap:round;stroke-linejoin:round;stroke-miterlimit:4;stroke-dasharray:none;stroke-opacity:1;"
     d="  M 19.713672,30.85046   L 19.694951,30.85046   L 19.676229,30.831694   L 19.657508,30.831694   L 19.657508,30.812929   L 19.638786,30.812929   L 19.638786,30.794163   L 19.620065,30.775398   L 19.620065,30.756632   L 19.601344,30.737867   L 19.601344,30.700336   L 19.582622,30.700336   L 19.582622,27.885513   L 19.601344,27.885513   L 19.601344,27.847982   L 19.620065,27.829216   L 19.620065,27.810451   L 19.638786,27.791685   L 19.638786,27.77292   L 19.657508,27.77292   L 19.657508,27.754155   L 19.676229,27.754155   L 19.694951,27.735389   L 23.027366,27.735389   L 23.046088,27.754155   L 23.064809,27.754155   L 23.064809,27.77292   L 23.083531,27.77292   L 23.083531,27.791685   L 23.102252,27.810451   L 23.102252,27.829216   L 23.120974,27.847982   L 23.120974,27.885513   L 23.139695,27.885513   L 23.139695,28.429712   L 23.120974,28.429712   L 23.120974,28.392181   L 23.102252,28.392181   L 23.102252,28.373416   L 23.083531,28.373416   L 23.083531,28.35465   L 23.064809,28.35465   L 23.046088,28.335885   L 20.350201,28.335885   L 20.350201,28.35465   L 20.312758,28.35465   L 20.312758,28.373416   L 20.294037,28.392181   L 20.294037,28.410947   L 20.275315,28.429712   L 20.275315,30.719101   L 20.294037,30.719101   L 20.294037,30.756632   L 20.312758,30.756632   L 20.312758,30.794163   L 20.33148,30.794163   L 20.33148,30.812929   L 20.350201,30.812929   L 20.350201,30.831694   L 20.368922,30.831694   L 20.368922,30.85046   L 19.732394,30.85046   L 19.713672,30.85046   z "
     id="path71" />
  <path
     style="fill:#000000;fill-rule:evenodd;fill-opacity:1;stroke:#000000;stroke-width:0.018721435px;stroke-linecap:round;stroke-linejoin:round;stroke-miterlimit:4;stroke-dasharray:none;stroke-opacity:1;"
     d="  M 22.915038,29.067739   L 20.499972,29.067739   L 20.499972,29.048973   L 20.481251,29.048973   L 20.481251,29.030208   L 20.46253,29.030208   L 20.443808,29.011442   L 20.443808,28.992677   L 20.425087,28.992677   L 20.425087,28.955146   L 20.406365,28.955146   L 20.406365,29.574407   L 20.425087,29.593172   L 20.425087,29.611938   L 20.443808,29.611938   L 20.443808,29.630703   L 20.481251,29.630703   L 20.481251,29.649469   L 22.971202,29.649469   L 22.989923,29.630703   L 23.027366,29.611938   L 23.102252,29.536876   L 23.102252,29.51811   L 23.120974,29.480579   L 23.139695,29.461814   L 23.139695,29.424283   L 23.158416,29.405517   L 23.158416,29.292924   L 23.139695,29.274159   L 23.139695,29.255393   L 23.120974,29.217862   L 23.120974,29.199097   L 23.102252,29.199097   L 23.102252,29.180331   L 23.027366,29.10527   L 23.008645,29.10527   L 22.989923,29.086504   L 22.971202,29.086504   L 22.933759,29.067739   L 22.915038,29.067739   z "
     id="path73" />
  <path
     style="fill:#000000;fill-rule:evenodd;fill-opacity:1;stroke:#000000;stroke-width:0.018721435px;stroke-linecap:round;stroke-linejoin:round;stroke-miterlimit:4;stroke-dasharray:none;stroke-opacity:1;"
     d="  M 28.494026,29.668234   L 28.475304,29.668234   L 28.456583,29.649469   L 28.437861,29.649469   L 28.437861,29.630703   L 28.41914,29.630703   L 28.41914,29.593172   L 28.400418,29.593172   L 28.400418,29.555641   L 28.381697,29.555641   L 28.381697,28.93638   L 28.400418,28.955146   L 28.400418,28.973911   L 28.41914,28.973911   L 28.41914,28.992677   L 28.437861,28.992677   L 28.437861,29.011442   L 28.456583,29.011442   L 28.475304,29.030208   L 30.422334,29.030208   L 30.422334,28.335885   L 28.344254,28.335885   L 28.344254,28.35465   L 28.306811,28.35465   L 28.306811,28.373416   L 28.28809,28.373416   L 28.28809,28.392181   L 28.269368,28.392181   L 28.269368,28.429712   L 28.250647,28.429712   L 28.250647,30.719101   L 28.269368,30.719101   L 28.269368,30.756632   L 28.28809,30.775398   L 28.28809,30.794163   L 28.306811,30.794163   L 28.306811,30.812929   L 28.344254,30.85046   L 27.689004,30.85046   L 27.689004,30.831694   L 27.651561,30.831694   L 27.651561,30.812929   L 27.63284,30.812929   L 27.63284,30.794163   L 27.614118,30.794163   L 27.614118,30.775398   L 27.595397,30.775398   L 27.595397,30.756632   L 27.576675,30.756632   L 27.576675,30.737867   L 27.557954,30.719101   L 27.557954,30.700336   L 27.539232,30.700336   L 27.539232,27.885513   L 27.557954,27.885513   L 27.557954,27.866747   L 27.576675,27.847982   L 27.576675,27.829216   L 27.595397,27.829216   L 27.595397,27.810451   L 27.614118,27.810451   L 27.614118,27.791685   L 27.63284,27.791685   L 27.63284,27.77292   L 27.651561,27.77292   L 27.651561,27.754155   L 27.689004,27.754155   L 27.689004,27.735389   L 31.002698,27.735389   L 31.002698,27.754155   L 31.040141,27.754155   L 31.040141,27.77292   L 31.058862,27.77292   L 31.058862,27.791685   L 31.077584,27.791685   L 31.077584,27.810451   L 31.096305,27.810451   L 31.096305,27.847982   L 31.115027,27.847982   L 31.115027,27.885513   L 31.133748,27.885513   L 31.133748,29.443048   L 31.115027,29.461814   L 31.115027,29.499345   L 31.096305,29.499345   L 31.096305,29.536876   L 31.077584,29.536876   L 31.077584,29.555641   L 31.058862,29.555641   L 31.058862,29.574407   L 31.040141,29.574407   L 31.040141,29.593172   L 31.002698,29.630703   L 30.983977,29.630703   L 30.983977,29.649469   L 30.965255,29.649469   L 30.965255,29.668234   L 30.965255,29.687   L 30.983977,29.687   L 30.983977,29.705765   L 31.002698,29.705765   L 31.040141,29.743296   L 31.040141,29.762062   L 31.058862,29.762062   L 31.058862,29.780827   L 31.077584,29.780827   L 31.077584,29.799593   L 31.096305,29.818358   L 31.096305,29.837124   L 31.115027,29.855889   L 31.115027,29.89342   L 31.133748,29.89342   L 31.133748,30.737867   L 31.15247,30.737867   L 31.15247,30.775398   L 31.171191,30.775398   L 31.171191,30.812929   L 31.189912,30.812929   L 31.189912,30.831694   L 31.208634,30.831694   L 31.208634,30.85046   L 30.590826,30.85046   L 30.572105,30.831694   L 30.553384,30.831694   L 30.534662,30.812929   L 30.515941,30.812929   L 30.515941,30.794163   L 30.497219,30.794163   L 30.497219,30.775398   L 30.478498,30.775398   L 30.478498,30.756632   L 30.441055,30.719101   L 30.441055,30.700336   L 30.422334,30.700336   L 30.422334,29.668234   L 28.512747,29.668234   L 28.494026,29.668234   z "
     id="path75" />
  <path
     style="fill:#000000;fill-rule:evenodd;fill-opacity:1;stroke:#000000;stroke-width:0.018721435px;stroke-linecap:round;stroke-linejoin:round;stroke-miterlimit:4;stroke-dasharray:none;stroke-opacity:1;"
     d="  M 32.369363,28.335885   L 31.620505,28.335885   L 31.620505,28.317119   L 31.601784,28.317119   L 31.564341,28.279588   L 31.564341,28.260823   L 31.54562,28.260823   L 31.54562,28.223292   L 31.526898,28.204526   L 31.526898,27.885513   L 31.54562,27.885513   L 31.54562,27.847982   L 31.564341,27.829216   L 31.564341,27.810451   L 31.583063,27.791685   L 31.583063,27.77292   L 31.601784,27.77292   L 31.601784,27.754155   L 31.620505,27.754155   L 31.639227,27.735389   L 34.971643,27.735389   L 34.990364,27.754155   L 35.009085,27.754155   L 35.009085,27.77292   L 35.027807,27.77292   L 35.027807,27.791685   L 35.046528,27.810451   L 35.046528,27.829216   L 35.06525,27.847982   L 35.06525,27.885513   L 35.083971,27.885513   L 35.083971,28.429712   L 35.06525,28.429712   L 35.06525,28.392181   L 35.046528,28.392181   L 35.046528,28.373416   L 35.027807,28.373416   L 35.027807,28.35465   L 35.009085,28.35465   L 34.990364,28.335885   L 33.174385,28.335885   L 33.174385,28.35465   L 33.136942,28.35465   L 33.136942,28.373416   L 33.11822,28.373416   L 33.11822,28.410947   L 33.099499,28.429712   L 33.099499,30.737867   L 33.11822,30.756632   L 33.11822,30.794163   L 33.136942,30.812929   L 33.136942,30.831694   L 33.155663,30.831694   L 33.155663,30.85046   L 32.519134,30.85046   L 32.519134,30.831694   L 32.481692,30.831694   L 32.481692,30.812929   L 32.46297,30.812929   L 32.425527,30.775398   L 32.425527,30.756632   L 32.406806,30.756632   L 32.406806,30.737867   L 32.388084,30.737867   L 32.388084,30.700336   L 32.369363,30.700336   L 32.369363,28.410947   L 32.369363,28.335885   z "
     id="path77" />
  <path
     style="fill:#000000;fill-rule:evenodd;fill-opacity:1;stroke:#000000;stroke-width:0.018721435px;stroke-linecap:round;stroke-linejoin:round;stroke-miterlimit:4;stroke-dasharray:none;stroke-opacity:1;"
     d="  M 36.225979,30.68157   L 36.225979,30.756632   L 36.2447,30.775398   L 36.2447,30.812929   L 36.263422,30.812929   L 36.263422,30.831694   L 36.282143,30.831694   L 36.282143,30.85046   L 35.645614,30.85046   L 35.645614,30.831694   L 35.608171,30.831694   L 35.608171,30.812929   L 35.58945,30.812929   L 35.552007,30.775398   L 35.552007,30.756632   L 35.533286,30.756632   L 35.533286,30.737867   L 35.514564,30.737867   L 35.514564,30.700336   L 35.495843,30.700336   L 35.495843,27.847982   L 35.477121,27.829216   L 35.477121,27.791685   L 35.4584,27.791685   L 35.4584,27.77292   L 35.439678,27.754155   L 35.420957,27.754155   L 35.420957,27.735389   L 36.076207,27.735389   L 36.076207,27.754155   L 36.11365,27.754155   L 36.11365,27.77292   L 36.132372,27.77292   L 36.132372,27.791685   L 36.151093,27.791685   L 36.169814,27.810451   L 36.169814,27.829216   L 36.188536,27.829216   L 36.188536,27.847982   L 36.207257,27.866747   L 36.207257,27.885513   L 36.225979,27.885513   L 36.225979,30.644039   L 36.225979,30.68157   z "
     id="path79" />
  <path
     style="fill:#000000;fill-rule:evenodd;fill-opacity:1;stroke:#000000;stroke-width:0.018721435px;stroke-linecap:round;stroke-linejoin:round;stroke-miterlimit:4;stroke-dasharray:none;stroke-opacity:1;"
     d="  M 39.652002,28.335885   L 37.573922,28.335885   L 37.573922,28.35465   L 37.536479,28.35465   L 37.536479,28.373416   L 37.517758,28.373416   L 37.517758,28.392181   L 37.499036,28.392181   L 37.499036,28.429712   L 37.480315,28.429712   L 37.480315,30.719101   L 37.499036,30.719101   L 37.499036,30.756632   L 37.517758,30.775398   L 37.517758,30.794163   L 37.536479,30.794163   L 37.536479,30.812929   L 37.573922,30.85046   L 36.918672,30.85046   L 36.918672,30.831694   L 36.881229,30.831694   L 36.881229,30.812929   L 36.862508,30.812929   L 36.862508,30.794163   L 36.843786,30.794163   L 36.843786,30.775398   L 36.825065,30.775398   L 36.825065,30.756632   L 36.806343,30.756632   L 36.806343,30.737867   L 36.787622,30.719101   L 36.787622,30.700336   L 36.7689,30.700336   L 36.7689,27.885513   L 36.787622,27.885513   L 36.787622,27.866747   L 36.806343,27.847982   L 36.806343,27.829216   L 36.825065,27.829216   L 36.825065,27.810451   L 36.843786,27.810451   L 36.843786,27.791685   L 36.862508,27.791685   L 36.862508,27.77292   L 36.881229,27.77292   L 36.881229,27.754155   L 36.918672,27.754155   L 36.918672,27.735389   L 40.232366,27.735389   L 40.232366,27.754155   L 40.269809,27.754155   L 40.269809,27.77292   L 40.28853,27.77292   L 40.28853,27.791685   L 40.307252,27.791685   L 40.307252,27.810451   L 40.325973,27.810451   L 40.325973,27.847982   L 40.344695,27.847982   L 40.344695,27.885513   L 40.363416,27.885513   L 40.363416,30.737867   L 40.382138,30.737867   L 40.382138,30.775398   L 40.400859,30.775398   L 40.400859,30.812929   L 40.41958,30.812929   L 40.41958,30.831694   L 40.438302,30.831694   L 40.438302,30.85046   L 39.820494,30.85046   L 39.801773,30.831694   L 39.783052,30.831694   L 39.76433,30.812929   L 39.745609,30.812929   L 39.745609,30.794163   L 39.726887,30.794163   L 39.726887,30.775398   L 39.708166,30.775398   L 39.708166,30.756632   L 39.670723,30.719101   L 39.670723,30.700336   L 39.652002,30.700336   L 39.652002,28.410947   L 39.652002,28.335885   z "
     id="path81" />
  <path
     style="fill:#000000;fill-rule:evenodd;fill-opacity:1;stroke:#000000;stroke-width:0.018721435px;stroke-linecap:round;stroke-linejoin:round;stroke-miterlimit:4;stroke-dasharray:none;stroke-opacity:1;"
     d="  M 43.957932,29.067739   L 41.71136,29.067739   L 41.71136,29.048973   L 41.692638,29.048973   L 41.692638,29.030208   L 41.673917,29.030208   L 41.673917,29.011442   L 41.655195,29.011442   L 41.655195,28.992677   L 41.636474,28.992677   L 41.636474,28.955146   L 41.617752,28.93638   L 41.617752,29.574407   L 41.636474,29.574407   L 41.636474,29.611938   L 41.655195,29.611938   L 41.655195,29.630703   L 41.692638,29.630703   L 41.692638,29.649469   L 43.957932,29.649469   L 43.995375,29.630703   L 44.032818,29.593172   L 44.07026,29.574407   L 44.126425,29.51811   L 44.126425,29.480579   L 44.163868,29.443048   L 44.163868,29.405517   L 44.182589,29.367986   L 44.182589,29.31169   L 44.163868,29.292924   L 44.163868,29.255393   L 44.145146,29.217862   L 44.145146,29.199097   L 44.126425,29.199097   L 44.126425,29.180331   L 44.051539,29.10527   L 44.032818,29.10527   L 44.014096,29.086504   L 43.995375,29.086504   L 43.976653,29.067739   L 43.957932,29.067739   z "
     id="path83" />
  <path
     style="fill:#000000;fill-rule:evenodd;fill-opacity:1;stroke:#000000;stroke-width:0.018721435px;stroke-linecap:round;stroke-linejoin:round;stroke-miterlimit:4;stroke-dasharray:none;stroke-opacity:1;"
     d="  M 45.62414,28.335885   L 44.875282,28.335885   L 44.875282,28.317119   L 44.856561,28.317119   L 44.819118,28.279588   L 44.819118,28.260823   L 44.800396,28.260823   L 44.800396,28.223292   L 44.781675,28.204526   L 44.781675,27.885513   L 44.800396,27.885513   L 44.800396,27.847982   L 44.819118,27.829216   L 44.819118,27.810451   L 44.837839,27.791685   L 44.837839,27.77292   L 44.856561,27.77292   L 44.856561,27.754155   L 44.875282,27.754155   L 44.894004,27.735389   L 48.226419,27.735389   L 48.245141,27.754155   L 48.263862,27.754155   L 48.263862,27.77292   L 48.282584,27.77292   L 48.282584,27.791685   L 48.301305,27.810451   L 48.301305,27.829216   L 48.320026,27.847982   L 48.320026,27.885513   L 48.338748,27.885513   L 48.338748,28.429712   L 48.320026,28.429712   L 48.320026,28.392181   L 48.301305,28.392181   L 48.301305,28.373416   L 48.282584,28.373416   L 48.282584,28.35465   L 48.263862,28.35465   L 48.245141,28.335885   L 46.429161,28.335885   L 46.429161,28.35465   L 46.391719,28.35465   L 46.391719,28.373416   L 46.372997,28.373416   L 46.372997,28.410947   L 46.354276,28.429712   L 46.354276,30.737867   L 46.372997,30.756632   L 46.372997,30.794163   L 46.391719,30.812929   L 46.391719,30.831694   L 46.41044,30.831694   L 46.41044,30.85046   L 45.773911,30.85046   L 45.773911,30.831694   L 45.736468,30.831694   L 45.736468,30.812929   L 45.717747,30.812929   L 45.680304,30.775398   L 45.680304,30.756632   L 45.661583,30.756632   L 45.661583,30.737867   L 45.642861,30.737867   L 45.642861,30.700336   L 45.62414,30.700336   L 45.62414,28.410947   L 45.62414,28.335885   z "
     id="path85" />
  <path
     style="fill:#000000;fill-rule:evenodd;fill-opacity:1;stroke:#000000;stroke-width:0.018721435px;stroke-linecap:round;stroke-linejoin:round;stroke-miterlimit:4;stroke-dasharray:none;stroke-opacity:1;"
     d="  M 44.182589,30.249964   L 44.220032,30.249964   L 44.238753,30.231199   L 44.257475,30.231199   L 44.257475,30.212433   L 44.276196,30.212433   L 44.276196,30.193668   L 44.294918,30.193668   L 44.294918,30.156137   L 44.313639,30.156137   L 44.313639,30.700336   L 44.294918,30.700336   L 44.294918,30.737867   L 44.276196,30.756632   L 44.276196,30.775398   L 44.257475,30.794163   L 44.257475,30.812929   L 44.238753,30.812929   L 44.238753,30.831694   L 44.220032,30.831694   L 44.201311,30.85046   L 40.868895,30.85046   L 40.850173,30.831694   L 40.831452,30.831694   L 40.831452,30.812929   L 40.812731,30.812929   L 40.812731,30.794163   L 40.794009,30.775398   L 40.794009,30.756632   L 40.775288,30.737867   L 40.775288,30.700336   L 40.756566,30.700336   L 40.756566,27.885513   L 40.775288,27.885513   L 40.775288,27.847982   L 40.794009,27.829216   L 40.794009,27.810451   L 40.812731,27.791685   L 40.812731,27.77292   L 40.831452,27.77292   L 40.831452,27.754155   L 40.850173,27.754155   L 40.868895,27.735389   L 44.201311,27.735389   L 44.220032,27.754155   L 44.238753,27.754155   L 44.238753,27.77292   L 44.257475,27.77292   L 44.257475,27.791685   L 44.276196,27.810451   L 44.276196,27.829216   L 44.294918,27.847982   L 44.294918,27.885513   L 44.313639,27.885513   L 44.313639,28.429712   L 44.294918,28.429712   L 44.294918,28.392181   L 44.276196,28.392181   L 44.276196,28.373416   L 44.257475,28.373416   L 44.257475,28.35465   L 44.238753,28.35465   L 44.220032,28.335885   L 41.524145,28.335885   L 41.524145,28.35465   L 41.486702,28.35465   L 41.486702,28.373416   L 41.467981,28.392181   L 41.467981,28.410947   L 41.449259,28.429712   L 41.449259,30.249964   L 44.145146,30.249964   L 44.182589,30.249964   z "
     id="path87" />
  <path
     style="fill:#000000;fill-rule:evenodd;fill-opacity:1;stroke:#000000;stroke-width:0.018721435px;stroke-linecap:round;stroke-linejoin:round;stroke-miterlimit:4;stroke-dasharray:none;stroke-opacity:1;"
     d="  M 24.805903,29.930951   L 24.805903,30.85046   L 25.966632,30.85046   L 25.966632,29.930951   L 24.805903,29.930951   z "
     id="path89" />
  <path
     style="fill:#000000;fill-rule:evenodd;fill-opacity:1;stroke:#000000;stroke-width:0.018721435px;stroke-linecap:round;stroke-linejoin:round;stroke-miterlimit:4;stroke-dasharray:none;stroke-opacity:1;"
     d="  M 23.645174,28.842553   L 24.599967,28.842553   L 24.599967,29.743296   L 23.645174,29.743296   L 23.645174,28.842553   z "
     id="path91" />
  <path
     style="fill:#000000;fill-rule:evenodd;fill-opacity:1;stroke:#000000;stroke-width:0.018721435px;stroke-linecap:round;stroke-linejoin:round;stroke-miterlimit:4;stroke-dasharray:none;stroke-opacity:1;"
     d="  M 26.21001,29.949716   L 26.21001,30.869225   L 26.472111,30.869225   L 26.509553,30.85046   L 26.603161,30.85046   L 26.640603,30.831694   L 26.678046,30.831694   L 26.865261,30.737867   L 26.883982,30.700336   L 26.921425,30.68157   L 26.977589,30.625274   L 26.996311,30.587743   L 27.033754,30.550212   L 27.052475,30.493916   L 27.071197,30.456385   L 27.146082,30.231199   L 27.146082,30.174902   L 27.164804,30.09984   L 27.164804,29.949716   L 26.228732,29.949716   L 26.21001,29.949716   z "
     id="path93" />
  <path
     style="fill:#000000;fill-rule:evenodd;fill-opacity:1;stroke:#000000;stroke-width:0.018721435px;stroke-linecap:round;stroke-linejoin:round;stroke-miterlimit:4;stroke-dasharray:none;stroke-opacity:1;"
     d="  M 26.21001,28.842553   L 27.164804,28.842553   L 27.164804,29.743296   L 26.21001,29.743296   L 26.21001,28.842553   z "
     id="path95" />
  <path
     style="fill:#000000;fill-rule:evenodd;fill-opacity:1;stroke:#000000;stroke-width:0.018721435px;stroke-linecap:round;stroke-linejoin:round;stroke-miterlimit:4;stroke-dasharray:none;stroke-opacity:1;"
     d="  M 24.599967,29.949716   L 24.599967,30.869225   L 24.337867,30.869225   L 24.300424,30.85046   L 24.206817,30.85046   L 24.169374,30.831694   L 24.131931,30.831694   L 23.944717,30.737867   L 23.794945,30.587743   L 23.776224,30.550212   L 23.757502,30.493916   L 23.720059,30.456385   L 23.701338,30.400088   L 23.701338,30.343792   L 23.663895,30.231199   L 23.663895,30.174902   L 23.645174,30.09984   L 23.645174,29.949716   L 24.581246,29.949716   L 24.599967,29.949716   z "
     id="path97" />
  <path
     style="fill:#000000;fill-rule:evenodd;fill-opacity:1;stroke:#000000;stroke-width:0.018721435px;stroke-linecap:round;stroke-linejoin:round;stroke-miterlimit:4;stroke-dasharray:none;stroke-opacity:1;"
     d="  M 24.805903,27.716624   L 24.805903,28.636132   L 25.966632,28.636132   L 25.966632,27.716624   L 24.805903,27.716624   z "
     id="path99" />
  <path
     style="fill:#000000;fill-rule:evenodd;fill-opacity:1;stroke:#000000;stroke-width:0.018721435px;stroke-linecap:round;stroke-linejoin:round;stroke-miterlimit:4;stroke-dasharray:none;stroke-opacity:1;"
     d="  M 26.21001,28.636132   L 26.21001,27.716624   L 26.472111,27.716624   L 26.509553,27.735389   L 26.603161,27.735389   L 26.640603,27.754155   L 26.678046,27.754155   L 26.865261,27.847982   L 26.883982,27.885513   L 26.921425,27.904278   L 26.977589,27.960575   L 26.996311,27.998106   L 27.033754,28.035637   L 27.052475,28.091933   L 27.071197,28.129464   L 27.146082,28.35465   L 27.146082,28.410947   L 27.164804,28.486008   L 27.164804,28.636132   L 26.228732,28.636132   L 26.21001,28.636132   z "
     id="path101" />
  <path
     style="fill:#000000;fill-rule:evenodd;fill-opacity:1;stroke:#000000;stroke-width:0.018721435px;stroke-linecap:round;stroke-linejoin:round;stroke-miterlimit:4;stroke-dasharray:none;stroke-opacity:1;"
     d="  M 24.599967,28.636132   L 24.599967,27.716624   L 24.337867,27.716624   L 24.300424,27.735389   L 24.206817,27.735389   L 24.169374,27.754155   L 24.131931,27.754155   L 23.944717,27.847982   L 23.794945,27.998106   L 23.776224,28.035637   L 23.757502,28.091933   L 23.720059,28.129464   L 23.701338,28.185761   L 23.701338,28.242057   L 23.663895,28.35465   L 23.663895,28.410947   L 23.645174,28.486008   L 23.645174,28.636132   L 24.581246,28.636132   L 24.599967,28.636132   z "
     id="path103" />
  <text
     xml:space="preserve"
     style="font-size:2.125000px;font-style:normal;font-variant:normal;font-weight:400;font-stretch:Normal;line-height:125.000000%;letter-spacing:0px;word-spacing:0px;fill:#000000;fill-opacity:1;stroke:none;font-family:Arial;text-align:start;text-anchor:start;"
     transform="matrix(1.000000,-0.000000,0.000000,1.000000,27.651561,34.697385)"
     x="0.000000"
     y="0.000000"
     id="text131"><tspan
       x="0.000000"
       y="0.000000"
       id="tspan129"><tspan
         dx="0.000000"
         dy="0.000000"
         style="fill:#000000;font-size:2.125000px;font-style:normal;font-variant:normal;font-weight:400;font-stretch:Normal;font-family:Arial;"
         id="tspan105">F</tspan><tspan
         dx="0.000000"
         dy="0.000000"
         style="fill:#000000;font-size:2.125000px;font-style:normal;font-variant:normal;font-weight:400;font-stretch:Normal;font-family:Arial;"
         id="tspan107">o</tspan><tspan
         dx="0.000000"
         dy="0.000000"
         style="fill:#000000;font-size:2.125000px;font-style:normal;font-variant:normal;font-weight:400;font-stretch:Normal;font-family:Arial;"
         id="tspan109">r</tspan><tspan
         dx="0.000000"
         dy="0.000000"
         style="fill:#000000;font-size:2.125000px;font-style:normal;font-variant:normal;font-weight:400;font-stretch:Normal;font-family:Arial;"
         id="tspan111">t</tspan><tspan
         dx="0.000000"
         dy="0.000000"
         style="fill:#000000;font-size:2.125000px;font-style:normal;font-variant:normal;font-weight:400;font-stretch:Normal;font-family:Arial;"
         id="tspan113">i</tspan><tspan
         dx="0.000000"
         dy="0.000000"
         style="fill:#000000;font-size:2.125000px;font-style:normal;font-variant:normal;font-weight:400;font-stretch:Normal;font-family:Arial;"
         id="tspan115">A</tspan><tspan
         dx="0.000000"
         dy="0.000000"
         style="fill:#000000;font-size:2.125000px;font-style:normal;font-variant:normal;font-weight:400;font-stretch:Normal;font-family:Arial;"
         id="tspan117">P</tspan><tspan
         dx="0.000000"
         dy="0.000000"
         style="fill:#000000;font-size:2.125000px;font-style:normal;font-variant:normal;font-weight:400;font-stretch:Normal;font-family:Arial;"
         id="tspan119"> </tspan><tspan
         dx="0.000000"
         dy="0.000000"
         style="fill:#000000;font-size:2.125000px;font-style:normal;font-variant:normal;font-weight:400;font-stretch:Normal;font-family:Arial;"
         id="tspan121">3</tspan><tspan
         dx="0.000000"
         dy="0.000000"
         style="fill:#000000;font-size:2.125000px;font-style:normal;font-variant:normal;font-weight:400;font-stretch:Normal;font-family:Arial;"
         id="tspan123">2</tspan><tspan
         dx="0.000000"
         dy="0.000000"
         style="fill:#000000;font-size:2.125000px;font-style:normal;font-variant:normal;font-weight:400;font-stretch:Normal;font-family:Arial;"
         id="tspan125">1</tspan><tspan
         dx="0.000000"
         dy="0.000000"
         style="fill:#000000;font-size:2.125000px;font-style:normal;font-variant:normal;font-weight:400;font-stretch:Normal;font-family:Arial;"
         id="tspan127">E</tspan></tspan></text>
  <text
     xml:space="preserve"
     style="font-size:1.062500px;font-style:normal;font-variant:normal;font-weight:400;font-stretch:Condensed;line-height:125.000000%;letter-spacing:0px;word-spacing:0px;fill:#000000;fill-opacity:1;stroke:none;font-family:Times New Roman;text-align:start;text-anchor:start;"
     transform="matrix(1.000000,-0.000000,0.000000,1.000000,27.651561,34.697385)"
     x="19.620065"
     y="-3.865690"
     id="text137"><tspan
       x="19.620065"
       y="-3.865690"
       id="tspan135"><tspan
         dx="0.000000"
         dy="0.000000"
         style="fill:#000000;font-size:1.062500px;font-style:normal;font-variant:normal;font-weight:400;font-stretch:Condensed;font-family:Times New Roman;"
         id="tspan133">®</tspan></tspan></text>
  <path
     style="fill:#000000;fill-rule:evenodd;fill-opacity:1;stroke:#000000;stroke-width:0.018721435px;stroke-linecap:round;stroke-linejoin:round;stroke-miterlimit:4;stroke-dasharray:none;stroke-opacity:1;"
     d="  M 33.960685,61.456968   L 33.941964,61.438203   L 33.923242,61.438203   L 33.923242,61.419437   L 33.810913,61.419437   L 33.810913,61.438203   L 33.792192,61.438203   L 33.754749,61.475734   L 33.754749,61.494499   L 33.736028,61.494499   L 33.736028,61.607092   L 33.754749,61.607092   L 33.754749,61.625858   L 33.792192,61.663389   L 33.810913,61.663389   L 33.810913,61.682154   L 33.923242,61.682154   L 33.923242,61.663389   L 33.941964,61.663389   L 33.979406,61.625858   L 33.979406,61.607092   L 33.998128,61.607092   L 33.998128,61.494499   L 33.979406,61.494499   L 33.979406,61.475734   L 33.960685,61.456968   z "
     id="path139" />
  <path
     style="fill:#000000;fill-rule:evenodd;fill-opacity:1;stroke:#000000;stroke-width:0.018721435px;stroke-linecap:round;stroke-linejoin:round;stroke-miterlimit:4;stroke-dasharray:none;stroke-opacity:1;"
     d="  M 33.455206,61.15672   L 33.473928,61.137955   L 33.511371,61.119189   L 33.530092,61.100424   L 33.567535,61.100424   L 33.586256,61.081658   L 33.623699,61.062893   L 33.642421,61.062893   L 33.661142,61.044128   L 33.717306,61.044128   L 33.754749,61.025362   L 34.016849,61.025362   L 34.035571,61.044128   L 34.091735,61.044128   L 34.110456,61.062893   L 34.129178,61.062893   L 34.166621,61.081658   L 34.185342,61.100424   L 34.204064,61.100424   L 34.241507,61.119189   L 34.278949,61.15672   L 34.241507,61.194251   L 34.222785,61.175486   L 34.185342,61.15672   L 34.166621,61.15672   L 34.147899,61.137955   L 34.110456,61.137955   L 34.073014,61.100424   L 34.016849,61.100424   L 33.998128,61.081658   L 33.736028,61.081658   L 33.717306,61.100424   L 33.661142,61.100424   L 33.642421,61.119189   L 33.623699,61.119189   L 33.604978,61.137955   L 33.586256,61.137955   L 33.548813,61.15672   L 33.530092,61.175486   L 33.511371,61.175486   L 33.492649,61.194251   L 33.473928,61.175486   L 33.455206,61.15672   z "
     id="path141" />
  <path
     style="fill:#000000;fill-rule:evenodd;fill-opacity:1;stroke:#000000;stroke-width:0.018721435px;stroke-linecap:round;stroke-linejoin:round;stroke-miterlimit:4;stroke-dasharray:none;stroke-opacity:1;"
     d="  M 33.136942,60.725114   L 33.174385,60.687583   L 33.230549,60.650052   L 33.267992,60.612521   L 33.324156,60.593756   L 33.361599,60.556225   L 33.417763,60.537459   L 33.455206,60.518694   L 33.511371,60.499928   L 33.548813,60.481163   L 33.604978,60.462397   L 33.642421,60.443632   L 33.698585,60.443632   L 33.736028,60.424866   L 33.979406,60.424866   L 34.016849,60.443632   L 34.073014,60.443632   L 34.110456,60.462397   L 34.166621,60.462397   L 34.204064,60.481163   L 34.260228,60.499928   L 34.335114,60.537459   L 34.391278,60.57499   L 34.428721,60.593756   L 34.466164,60.631287   L 34.522328,60.650052   L 34.597214,60.725114   L 34.597214,60.706349   L 34.615935,60.706349   L 34.615935,60.687583   L 34.634657,60.687583   L 34.634657,60.668818   L 34.597214,60.631287   L 34.54105,60.593756   L 34.503607,60.556225   L 34.447442,60.518694   L 34.409999,60.499928   L 34.353835,60.462397   L 34.316392,60.443632   L 34.260228,60.424866   L 34.222785,60.406101   L 34.110456,60.36857   L 34.073014,60.36857   L 34.016849,60.349805   L 33.717306,60.349805   L 33.661142,60.36857   L 33.623699,60.36857   L 33.511371,60.406101   L 33.473928,60.424866   L 33.417763,60.443632   L 33.38032,60.462397   L 33.324156,60.499928   L 33.286713,60.518694   L 33.230549,60.556225   L 33.193106,60.593756   L 33.136942,60.631287   L 33.099499,60.668818   L 33.099499,60.687583   L 33.11822,60.687583   L 33.11822,60.706349   L 33.136942,60.706349   L 33.136942,60.725114   z "
     id="path143" />
  <path
     style="fill:#000000;fill-rule:evenodd;fill-opacity:1;stroke:#000000;stroke-width:0.018721435px;stroke-linecap:round;stroke-linejoin:round;stroke-miterlimit:4;stroke-dasharray:none;stroke-opacity:1;"
     d="  M 33.286713,60.912769   L 33.324156,60.894004   L 33.361599,60.856473   L 33.473928,60.800176   L 33.492649,60.781411   L 33.604978,60.725114   L 33.642421,60.725114   L 33.679863,60.706349   L 33.717306,60.706349   L 33.754749,60.687583   L 33.979406,60.687583   L 34.016849,60.706349   L 34.054292,60.706349   L 34.091735,60.725114   L 34.129178,60.725114   L 34.241507,60.781411   L 34.260228,60.800176   L 34.372557,60.856473   L 34.409999,60.894004   L 34.447442,60.912769   L 34.409999,60.9503   L 34.372557,60.931535   L 34.316392,60.875238   L 34.204064,60.818942   L 34.166621,60.818942   L 34.147899,60.800176   L 34.110456,60.781411   L 34.073014,60.781411   L 34.035571,60.762645   L 33.941964,60.762645   L 33.904521,60.74388   L 33.867078,60.762645   L 33.736028,60.762645   L 33.698585,60.781411   L 33.661142,60.781411   L 33.623699,60.800176   L 33.586256,60.800176   L 33.567535,60.818942   L 33.417763,60.894004   L 33.399042,60.912769   L 33.324156,60.9503   L 33.305435,60.931535   L 33.286713,60.912769   z "
     id="path145" />
  <path
     style="fill:#000000;fill-rule:evenodd;fill-opacity:1;stroke:#000000;stroke-width:0.018721435px;stroke-linecap:round;stroke-linejoin:round;stroke-miterlimit:4;stroke-dasharray:none;stroke-opacity:1;"
     d="  M 38.32278,61.456968   L 38.304058,61.438203   L 38.285337,61.438203   L 38.285337,61.419437   L 38.173008,61.419437   L 38.173008,61.438203   L 38.154287,61.438203   L 38.116844,61.475734   L 38.116844,61.494499   L 38.098122,61.494499   L 38.098122,61.607092   L 38.116844,61.607092   L 38.116844,61.625858   L 38.154287,61.663389   L 38.173008,61.663389   L 38.173008,61.682154   L 38.285337,61.682154   L 38.285337,61.663389   L 38.304058,61.663389   L 38.341501,61.625858   L 38.341501,61.607092   L 38.360222,61.607092   L 38.360222,61.494499   L 38.341501,61.494499   L 38.341501,61.475734   L 38.32278,61.456968   z "
     id="path147" />
  <path
     style="fill:#000000;fill-rule:evenodd;fill-opacity:1;stroke:#000000;stroke-width:0.018721435px;stroke-linecap:round;stroke-linejoin:round;stroke-miterlimit:4;stroke-dasharray:none;stroke-opacity:1;"
     d="  M 37.817301,61.15672   L 37.836022,61.137955   L 37.873465,61.119189   L 37.892187,61.100424   L 37.929629,61.100424   L 37.948351,61.081658   L 37.985794,61.062893   L 38.004515,61.062893   L 38.023237,61.044128   L 38.079401,61.044128   L 38.116844,61.025362   L 38.378944,61.025362   L 38.397665,61.044128   L 38.45383,61.044128   L 38.472551,61.062893   L 38.491273,61.062893   L 38.528715,61.081658   L 38.547437,61.100424   L 38.566158,61.100424   L 38.603601,61.119189   L 38.641044,61.15672   L 38.603601,61.194251   L 38.58488,61.175486   L 38.547437,61.15672   L 38.528715,61.15672   L 38.509994,61.137955   L 38.472551,61.137955   L 38.435108,61.100424   L 38.378944,61.100424   L 38.360222,61.081658   L 38.098122,61.081658   L 38.079401,61.100424   L 38.023237,61.100424   L 38.004515,61.119189   L 37.985794,61.119189   L 37.967072,61.137955   L 37.948351,61.137955   L 37.910908,61.15672   L 37.892187,61.175486   L 37.873465,61.175486   L 37.854744,61.194251   L 37.836022,61.175486   L 37.817301,61.15672   z "
     id="path149" />
  <path
     style="fill:#000000;fill-rule:evenodd;fill-opacity:1;stroke:#000000;stroke-width:0.018721435px;stroke-linecap:round;stroke-linejoin:round;stroke-miterlimit:4;stroke-dasharray:none;stroke-opacity:1;"
     d="  M 37.499036,60.725114   L 37.536479,60.687583   L 37.592644,60.650052   L 37.630086,60.612521   L 37.686251,60.593756   L 37.723694,60.556225   L 37.779858,60.537459   L 37.817301,60.518694   L 37.873465,60.499928   L 37.910908,60.481163   L 37.967072,60.462397   L 38.004515,60.443632   L 38.060679,60.443632   L 38.098122,60.424866   L 38.341501,60.424866   L 38.378944,60.443632   L 38.435108,60.443632   L 38.472551,60.462397   L 38.528715,60.462397   L 38.566158,60.481163   L 38.622323,60.499928   L 38.697208,60.537459   L 38.753373,60.57499   L 38.790815,60.593756   L 38.828258,60.631287   L 38.884423,60.650052   L 38.959308,60.725114   L 38.959308,60.706349   L 38.97803,60.706349   L 38.97803,60.687583   L 38.996751,60.687583   L 38.996751,60.668818   L 38.959308,60.631287   L 38.903144,60.593756   L 38.865701,60.556225   L 38.809537,60.518694   L 38.772094,60.499928   L 38.71593,60.462397   L 38.678487,60.443632   L 38.622323,60.424866   L 38.58488,60.406101   L 38.472551,60.36857   L 38.435108,60.36857   L 38.378944,60.349805   L 38.079401,60.349805   L 38.023237,60.36857   L 37.985794,60.36857   L 37.873465,60.406101   L 37.836022,60.424866   L 37.779858,60.443632   L 37.742415,60.462397   L 37.686251,60.499928   L 37.648808,60.518694   L 37.592644,60.556225   L 37.555201,60.593756   L 37.499036,60.631287   L 37.461594,60.668818   L 37.461594,60.687583   L 37.480315,60.687583   L 37.480315,60.706349   L 37.499036,60.706349   L 37.499036,60.725114   z "
     id="path151" />
  <path
     style="fill:#000000;fill-rule:evenodd;fill-opacity:1;stroke:#000000;stroke-width:0.018721435px;stroke-linecap:round;stroke-linejoin:round;stroke-miterlimit:4;stroke-dasharray:none;stroke-opacity:1;"
     d="  M 37.648808,60.912769   L 37.686251,60.894004   L 37.723694,60.856473   L 37.836022,60.800176   L 37.854744,60.781411   L 37.967072,60.725114   L 38.004515,60.725114   L 38.041958,60.706349   L 38.079401,60.706349   L 38.116844,60.687583   L 38.341501,60.687583   L 38.378944,60.706349   L 38.416387,60.706349   L 38.45383,60.725114   L 38.491273,60.725114   L 38.603601,60.781411   L 38.622323,60.800176   L 38.734651,60.856473   L 38.772094,60.894004   L 38.809537,60.912769   L 38.772094,60.9503   L 38.734651,60.931535   L 38.678487,60.875238   L 38.566158,60.818942   L 38.528715,60.818942   L 38.509994,60.800176   L 38.472551,60.781411   L 38.435108,60.781411   L 38.397665,60.762645   L 38.304058,60.762645   L 38.266615,60.74388   L 38.229172,60.762645   L 38.098122,60.762645   L 38.060679,60.781411   L 38.023237,60.781411   L 37.985794,60.800176   L 37.948351,60.800176   L 37.929629,60.818942   L 37.779858,60.894004   L 37.761137,60.912769   L 37.686251,60.9503   L 37.667529,60.931535   L 37.648808,60.912769   z "
     id="path153" />
  <text
     xml:space="preserve"
     style="font-size:0.500000px;font-style:normal;font-variant:normal;font-weight:400;font-stretch:Normal;line-height:125.000000%;letter-spacing:0px;word-spacing:0px;fill:#000000;fill-opacity:1;stroke:none;font-family:Arial;text-align:start;text-anchor:start;"
     transform="matrix(1.000000,-0.000000,0.000000,1.000000,33.080777,61.719685)"
     x="0.000000"
     y="0.000000"
     id="text159"><tspan
       x="0.000000"
       y="0.000000"
       id="tspan157"><tspan
         dx="0.000000"
         dy="0.000000"
         style="fill:#000000;font-size:0.500000px;font-style:normal;font-variant:normal;font-weight:400;font-stretch:Normal;font-family:Arial;"
         id="tspan155">2</tspan></tspan></text>
  <text
     xml:space="preserve"
     style="font-size:0.500000px;font-style:normal;font-variant:normal;font-weight:400;font-stretch:Normal;line-height:125.000000%;letter-spacing:0px;word-spacing:0px;fill:#000000;fill-opacity:1;stroke:none;font-family:Arial;text-align:start;text-anchor:start;"
     transform="matrix(1.000000,-0.000000,0.000000,1.000000,33.080777,61.719685)"
     x="1.310501"
     y="0.000000"
     id="text165"><tspan
       x="1.310501"
       y="0.000000"
       id="tspan163"><tspan
         dx="0.000000"
         dy="0.000000"
         style="fill:#000000;font-size:0.500000px;font-style:normal;font-variant:normal;font-weight:400;font-stretch:Normal;font-family:Arial;"
         id="tspan161">G</tspan></tspan></text>
  <text
     xml:space="preserve"
     style="font-size:0.500000px;font-style:normal;font-variant:normal;font-weight:400;font-stretch:Normal;line-height:125.000000%;letter-spacing:0px;word-spacing:0px;fill:#000000;fill-opacity:1;stroke:none;font-family:Arial;text-align:start;text-anchor:start;"
     transform="matrix(1.000000,-0.000000,0.000000,1.000000,33.080777,61.719685)"
     x="4.362095"
     y="0.000000"
     id="text171"><tspan
       x="4.362095"
       y="0.000000"
       id="tspan169"><tspan
         dx="0.000000"
         dy="0.000000"
         style="fill:#000000;font-size:0.500000px;font-style:normal;font-variant:normal;font-weight:400;font-stretch:Normal;font-family:Arial;"
         id="tspan167">5</tspan></tspan></text>
  <text
     xml:space="preserve"
     style="font-size:0.500000px;font-style:normal;font-variant:normal;font-weight:400;font-stretch:Normal;line-height:125.000000%;letter-spacing:0px;word-spacing:0px;fill:#000000;fill-opacity:1;stroke:none;font-family:Arial;text-align:start;text-anchor:start;"
     transform="matrix(1.000000,-0.000000,0.000000,1.000000,33.080777,61.719685)"
     x="5.672595"
     y="0.000000"
     id="text177"><tspan
       x="5.672595"
       y="0.000000"
       id="tspan175"><tspan
         dx="0.000000"
         dy="0.000000"
         style="fill:#000000;font-size:0.500000px;font-style:normal;font-variant:normal;font-weight:400;font-stretch:Normal;font-family:Arial;"
         id="tspan173">G</tspan></tspan></text>
  <path
     style="fill:none;stroke:#000000;stroke-width:0.0080999779px;stroke-linecap:round;stroke-linejoin:round;stroke-miterlimit:4;stroke-dasharray:none;stroke-opacity:1;"
     d="  M 67.942613,22.457255   L 67.659114,22.457255   L 67.659114,22.741421   L 67.942613,22.741421   L 67.942613,22.457255   z "
     id="path179" />
  <path
     style="fill:none;stroke:#000000;stroke-width:0.0080999779px;stroke-linecap:round;stroke-linejoin:round;stroke-miterlimit:4;stroke-dasharray:none;stroke-opacity:1;"
     d="  M 67.942613,30.267768   L 67.659114,30.267768   L 67.659114,30.551934   L 67.942613,30.551934   L 67.942613,30.267768   z "
     id="path181" />
  <path
     style="fill:none;stroke:#000000;stroke-width:0.0080999779px;stroke-linecap:round;stroke-linejoin:round;stroke-miterlimit:4;stroke-dasharray:none;stroke-opacity:1;"
     d="  M 67.942613,43.112084   L 67.659114,43.112084   L 67.659114,43.39625   L 67.942613,43.39625   L 67.942613,43.112084   z "
     id="path183" />
</svg>
