<?xml version="1.0" encoding="UTF-8" standalone="no"?>
<svg
   version="1.0"
   width="20.01mm"
   height="20.030001mm"
   id="svg193"
   xmlns="http://www.w3.org/2000/svg"
   xmlns:svg="http://www.w3.org/2000/svg">
  <defs
     id="defs3">
    <pattern
       id="EMFhbasepattern"
       patternUnits="userSpaceOnUse"
       width="6"
       height="6"
       x="0"
       y="0" />
  </defs>
  <path
     style="fill:#d8d8d8;fill-rule:evenodd;fill-opacity:1;stroke:#000000;stroke-width:0.093547665px;stroke-linecap:round;stroke-linejoin:round;stroke-miterlimit:4;stroke-dasharray:none;stroke-opacity:1;"
     d="  M 33.67716,3.1158531   M 33.059746,2.9469213   M 33.415227,3.1346233   M 33.415227,3.1346233   M 32.666845,3.1346233   M 38.148739,3.1158531   M 37.531324,2.9469213   M 37.886805,3.1346233   M 37.138424,3.1346233   M 66.17562,4.899022   L 65.857558,4.71132   L 65.502077,4.523618   L 65.090467,4.335916   L 64.622729,4.148214   L 64.117571,3.9417418   L 63.556285,3.7352696   L 62.95758,3.5287974   L 62.321456,3.3410955   L 61.629203,3.1346233   L 60.918241,2.9281511   L 60.15115,2.7216789   L 59.34664,2.5152067   L 58.504711,2.3275047   L 57.644073,2.1210325   L 56.727305,1.9333305   L 55.791829,1.7456285   L 54.818933,1.5766967   L 53.808618,1.3889947   L 52.779594,1.2388331   L 51.73186,1.0699014   L 50.646707,0.91973976   L 49.542845,0.78834836   L 48.420273,0.65695697   L 47.260282,0.52556558   L 46.081581,0.41294438   L 44.90288,0.31909339   L 42.470641,0.16893179   L 41.217102,0.11262119   L 39.963563,0.075080797   L 38.691315,0.037540398   L 36.595847,0.037540398   L 34.949409,0.075080797   L 33.30297,0.15016159   L 32.461041,0.18770199   L 31.637821,0.24401259   L 30.795892,0.31909339   L 29.972673,0.39417418   L 29.130744,0.46925498   L 27.446886,0.65695697   L 26.604957,0.76957817   L 25.781737,0.88219936   L 24.939808,0.99482056   L 24.097879,1.1449821   L 23.27466,1.2763735   L 22.432731,1.4265351   L 21.609511,1.5766967   L 20.767582,1.7456285   L 19.944363,1.9145603   L 17.474704,2.4776663   L 15.865684,2.8906107   L 15.042465,3.1158531   L 14.256665,3.3410955   L 13.452155,3.5663378   L 11.880554,4.054363   L 11.094753,4.3171458   L 10.963787,4.3546862   L 10.83282,4.429767   L 10.683144,4.4860776   L 10.514758,4.5799286   L 10.327662,4.6737796   L 10.140567,4.7864008   L 9.9347623,4.899022   L 9.7289574,5.0304134   L 9.504443,5.1618048   L 9.2799286,5.3119664   L 8.8308998,5.6498299   L 8.5876759,5.8187617   L 7.8580041,6.3818677   L 7.1283323,7.0012843   L 6.2302746,7.9022538   L 6.0244698,8.1274962   L 5.8186649,8.3715088   L 5.6315696,8.6155214   L 5.4444742,8.8407638   L 5.1077026,9.328789   L 4.9767359,9.5728016   L 4.8457692,9.798044   L 4.733512,10.042057   L 4.5089976,10.623933   L 4.2844832,11.224579   L 4.0599688,11.843996   L 3.8541639,12.519723   L 3.6296495,13.19545   L 3.4238446,13.908718   L 3.1993302,14.640755   L 2.9935254,15.410334   L 2.7877205,16.198682   L 2.6006252,17.0058   L 2.3948203,17.831689   L 2.2077249,18.676348   L 2.0393391,19.539777   L 1.8522438,20.440747   L 1.683858,21.341716   L 1.5154722,22.261456   L 1.3657959,23.199966   L 1.1974101,24.157246   L 1.0664434,25.133297   L 0.91676714,26.128117   L 0.80450994,27.122938   L 0.6735432,28.136529   L 0.561286,29.150119   L 0.46773834,30.20125   L 0.37419067,31.233611   L 0.29935254,32.303513   L 0.2245144,33.354644   L 0.1683858,34.424545   L 0.1122572,35.513217   L 0.074838134,36.601888   L 0.037419067,38.779231   L 0.037419067,40.449779   L 0.0561286,41.275668   L 0.074838134,42.120327   L 0.1122572,42.964986   L 0.14967627,43.790875   L 0.18709533,44.635534   L 0.24322394,45.480193   L 0.31806207,46.306081   L 0.3929002,47.15074   L 0.46773834,47.976629   L 0.74838134,50.454295   L 0.86063854,51.280184   L 0.99160527,52.106073   L 1.122572,52.913191   L 1.2535387,53.73908   L 1.403215,54.546199   L 1.5716008,55.353317   L 1.9083724,56.930014   L 2.2825631,58.506711   L 2.6941728,60.045867   L 2.8999777,60.796675   L 3.1432016,61.547483   L 3.367716,62.298291   L 3.61094,63.030329   L 3.8728734,63.762367   L 4.1348069,64.475634   L 4.2470641,64.851038   L 4.3593213,65.207672   L 4.4715785,65.545535   L 4.6025452,65.883399   L 4.733512,66.202492   L 5.0328645,66.803139   L 5.332217,67.366245   L 5.6689886,67.89181   L 6.0431793,68.379836   L 6.2302746,68.605078   L 6.4360795,68.83032   L 6.8663988,69.262035   L 7.0909132,69.468507   L 7.3341371,69.674979   L 7.5773611,69.862681   L 7.8392945,70.050383   L 8.101228,70.219315   L 8.3631615,70.407017   L 8.6438045,70.575949   L 9.2425095,70.913812   L 9.5418621,71.063974   L 9.8599241,71.214136   L 10.196696,71.383067   L 10.533467,71.533229   L 11.24443,71.833552   L 12.367002,72.284037   L 12.965707,72.509279   L 13.564412,72.715752   L 14.200536,72.922224   L 14.83666,73.109926   L 15.491494,73.297628   L 16.165037,73.48533   L 16.85729,73.654261   L 17.568252,73.823193   L 18.279214,73.973355   L 19.008886,74.123516   L 19.757267,74.273678   L 20.505649,74.405069   L 22.03983,74.667852   L 22.825631,74.780473   L 23.630141,74.893095   L 25.239161,75.080797   L 26.06238,75.174648   L 27.708819,75.324809   L 30.234606,75.493741   L 31.076535,75.531281   L 32.797812,75.606362   L 33.639741,75.625132   L 34.50038,75.643903   L 36.446171,75.643903   L 37.550034,75.625132   L 38.635187,75.606362   L 39.70163,75.568822   L 40.786783,75.531281   L 41.853226,75.493741   L 42.91967,75.43743   L 45.015138,75.287269   L 46.044162,75.212188   L 47.073186,75.118337   L 48.083501,75.024486   L 49.056397,74.911865   L 50.029293,74.818014   L 51.002188,74.705393   L 51.937665,74.574001   L 52.854432,74.44261   L 53.73378,74.329989   L 54.613128,74.179827   L 55.455057,74.048436   L 56.278277,73.898274   L 57.082787,73.766883   L 57.849877,73.616721   L 58.579549,73.447789   L 59.290512,73.297628   L 59.964055,73.147466   L 60.618888,72.978534   L 61.217594,72.828373   L 61.797589,72.659441   L 62.340166,72.490509   L 62.826613,72.340348   L 63.294352,72.171416   L 63.687252,72.058795   L 64.061443,71.927403   L 64.772405,71.66462   L 65.726591,71.270446   L 66.025944,71.139055   L 66.306587,70.988893   L 66.56852,70.857502   L 66.830454,70.70734   L 67.073677,70.575949   L 67.316901,70.425787   L 67.76593,70.125464   L 68.17754,69.825141   L 68.364635,69.693749   L 68.551731,69.543588   L 69.056888,69.093103   L 69.505917,68.642618   L 70.029784,68.041972   L 70.142041,67.89181   L 70.254298,67.760419   L 70.366555,67.610257   L 70.703327,66.408965   L 71.040099,65.226442   L 71.358161,64.06269   L 71.657513,62.880167   L 71.938156,61.716415   L 72.218799,60.571433   L 72.480733,59.426451   L 72.967181,57.174027   L 73.191695,56.047815   L 73.3975,54.940373   L 73.603305,53.851701   L 73.7904,52.74426   L 73.977495,51.674358   L 74.145881,50.604457   L 74.445234,48.502195   L 74.5762,47.451063   L 74.688458,46.418703   L 74.912972,44.391521   L 75.00652,43.3967   L 75.156196,41.4446   L 75.268453,39.530039   L 75.343291,37.65302   L 75.38071,36.73328   L 75.38071,35.83231   L 75.39942,34.950111   L 75.39942,34.067911   L 75.38071,33.035551   L 75.362001,32.02196   L 75.287163,30.032319   L 75.231034,29.075038   L 75.174905,28.136529   L 75.100067,27.216789   L 75.025229,26.315819   L 74.931682,25.43362   L 74.838134,24.588961   L 74.725877,23.744302   L 74.613619,22.918413   L 74.482653,22.130065   L 74.370396,21.360487   L 74.220719,20.609679   L 74.089753,19.877641   L 73.940076,19.164373   L 73.7904,18.488646   L 73.640724,17.831689   L 73.472338,17.193502   L 73.135566,15.99221   L 72.967181,15.429104   L 72.780085,14.903538   L 72.611699,14.396743   L 72.424604,13.908718   L 72.237509,13.439463   L 72.050413,13.007748   L 71.863318,12.594804   L 71.676223,12.2194   L 71.489127,11.862766   L 71.302032,11.543672   L 71.189775,11.262119   L 71.058808,10.999337   L 70.946551,10.736554   L 70.722037,10.248529   L 70.609779,10.023286   L 70.497522,9.7792738   L 70.385265,9.5540314   L 70.160751,9.141087   L 70.029784,8.9346148   L 69.917527,8.7281426   L 69.78656,8.5216704   L 69.655593,8.3339684   L 69.524626,8.1274962   L 69.39366,7.9397942   L 69.094307,7.5643903   L 68.944631,7.3954585   L 68.794955,7.2077565   L 68.626569,7.0200545   L 68.252378,6.6446505   L 68.065283,6.4757187   L 67.653673,6.1003147   L 67.447868,5.8938425   L 66.96142,5.5184386   L 66.718196,5.3119664   L 66.456263,5.1054942   L 66.17562,4.899022   z "
     id="path5" />
  <path
     style="fill:#efefef;fill-rule:evenodd;fill-opacity:1;stroke:#efefef;stroke-width:0.018709533px;stroke-linecap:round;stroke-linejoin:round;stroke-miterlimit:4;stroke-dasharray:none;stroke-opacity:1;"
     d="  M 65.614334,5.555979   L 65.314981,5.368277   L 64.9595,5.1993452   L 64.54789,5.0116432   L 64.098862,4.8239412   L 63.593704,4.6362392   L 63.051128,4.429767   L 62.471132,4.242065   L 61.835008,4.054363   L 61.161465,3.8478908   L 60.450503,3.6601888   L 59.702121,3.4724868   L 58.916321,3.2847849   L 58.093101,3.0970829   L 57.251172,2.9093809   L 56.353115,2.7216789   L 55.436348,2.5527471   L 54.482161,2.3838153   L 53.490556,2.2148835   L 52.480241,2.0647219   L 51.451217,1.9145603   L 50.384774,1.7831689   L 49.299621,1.6517775   L 48.195758,1.5203861   L 47.073186,1.4077649   L 44.753204,1.2200629   L 42.358384,1.0699014   L 41.142264,1.032361   L 38.672606,0.95728016   L 36.614557,0.95728016   L 34.201027,1.0135908   L 33.396517,1.0511312   L 32.573298,1.0886716   L 31.750078,1.1449821   L 30.945568,1.2012927   L 28.47591,1.4265351   L 27.65269,1.5203861   L 26.848181,1.6142371   L 24.378522,1.9521007   L 23.555303,2.0834921   L 22.750793,2.2148835   L 21.927573,2.3650451   L 21.123063,2.5152067   L 20.299844,2.6841385   L 18.690824,3.0220021   L 17.886314,3.2097041   L 17.100514,3.4161762   L 16.296004,3.6038782   L 15.510203,3.8291206   L 14.724403,4.0355928   L 13.938602,4.2608352   L 11.63733,4.992873   L 11.506363,5.0304134   L 11.375396,5.086724   L 11.22572,5.1618048   L 11.057334,5.2368856   L 10.870239,5.3307366   L 10.496048,5.555979   L 10.290243,5.6686001   L 10.065729,5.8187617   L 9.8599241,5.9501531   L 9.6354097,6.1190849   L 9.3921858,6.2692465   L 9.1676714,6.4381783   L 8.9244475,6.6258803   L 8.6999331,6.8135823   L 8.4567091,7.0012843   L 8.2134852,7.2077565   L 7.9889708,7.4142287   L 7.7457469,7.6207009   L 7.5212325,7.827173   L 6.8476893,8.5029002   L 6.6418844,8.7281426   L 6.454789,8.953385   L 6.2489842,9.1973976   L 6.0805984,9.42264   L 5.9122126,9.6666526   L 5.7625363,9.891895   L 5.61286,10.135908   L 5.4818933,10.36115   L 5.3696361,10.605163   L 5.1451217,11.168268   L 4.9393168,11.750145   L 4.7148024,12.369561   L 4.5089976,13.026518   L 4.2844832,13.683475   L 3.8728734,15.11001   L 3.6670686,15.860818   L 3.4612637,16.630396   L 3.2554588,17.418745   L 3.0683635,18.225863   L 2.8812682,19.051752   L 2.5070775,20.77861   L 2.3386917,21.66081   L 2.0019201,23.500289   L 1.7025675,25.377309   L 1.4406341,27.32941   L 1.3096673,28.324231   L 1.1974101,29.337821   L 1.0103148,31.365003   L 0.91676714,32.397364   L 0.84192901,33.448495   L 0.78580041,34.499626   L 0.74838134,35.550757   L 0.71096227,36.620659   L 0.6735432,38.760461   L 0.6735432,40.393469   L 0.69225274,41.219357   L 0.71096227,42.026476   L 0.78580041,43.678253   L 0.84192901,44.485372   L 0.89805761,45.311261   L 0.97289574,46.13715   L 1.0477339,46.944268   L 1.122572,47.770157   L 1.3096673,49.384394   L 1.4219245,50.210283   L 1.5341817,51.017401   L 1.6651485,51.80575   L 1.7961152,52.612868   L 1.9457915,53.401217   L 2.0954677,54.208335   L 2.245144,54.996684   L 2.4135298,55.766262   L 2.5819156,56.55461   L 2.9561063,58.093766   L 3.367716,59.595382   L 3.5922304,60.34619   L 4.0412592,61.810266   L 4.5277071,63.236801   L 4.7896406,63.950069   L 5.014155,64.663336   L 5.1264122,65.0012   L 5.3883456,65.639386   L 5.5380219,65.93971   L 5.6689886,66.221263   L 5.8186649,66.521586   L 5.9870507,66.784369   L 6.136727,67.047151   L 6.3051128,67.291164   L 6.6793034,67.779189   L 7.0534941,68.229674   L 7.2780085,68.436146   L 7.4838134,68.642618   L 7.7083278,68.849091   L 7.9328422,69.036793   L 8.4192901,69.412196   L 8.943157,69.75006   L 9.504443,70.087924   L 9.8037955,70.256855   L 10.103148,70.407017   L 10.739272,70.70734   L 11.412815,71.007663   L 11.768297,71.157825   L 12.310873,71.383067   L 12.872159,71.60831   L 13.452155,71.814782   L 14.05086,72.021254   L 15.285689,72.396658   L 15.940523,72.56559   L 16.595356,72.753292   L 17.287609,72.903454   L 17.961152,73.053615   L 19.383077,73.353938   L 20.112748,73.48533   L 20.86113,73.616721   L 22.357892,73.841963   L 23.143693,73.935814   L 23.910784,74.029665   L 24.696584,74.123516   L 25.501094,74.217367   L 26.305604,74.292448   L 27.110114,74.348759   L 27.914624,74.42384   L 28.737843,74.48015   L 29.561063,74.517691   L 30.402992,74.574001   L 31.226211,74.592771   L 32.06814,74.630312   L 32.89136,74.649082   L 34.575218,74.686622   L 36.48359,74.686622   L 39.68292,74.630312   L 41.778388,74.555231   L 42.826122,74.49892   L 43.855146,74.44261   L 44.884171,74.367529   L 45.894486,74.311218   L 46.886091,74.217367   L 47.877696,74.142287   L 49.786069,73.954585   L 50.721545,73.841963   L 51.657022,73.748112   L 52.53637,73.616721   L 53.415718,73.5041   L 54.276357,73.391479   L 55.099576,73.260087   L 55.904086,73.128696   L 56.689886,72.997305   L 57.438268,72.847143   L 58.16794,72.715752   L 58.860192,72.56559   L 59.515026,72.415428   L 60.15115,72.265267   L 60.749855,72.115105   L 61.311141,71.964944   L 61.835008,71.814782   L 62.321456,71.64585   L 62.770485,71.495689   L 63.144675,71.383067   L 63.518866,71.251676   L 63.874347,71.139055   L 64.211119,71.007663   L 64.847243,70.744881   L 65.146596,70.613489   L 65.427239,70.482098   L 65.707882,70.331936   L 65.969815,70.200545   L 66.231748,70.050383   L 66.474972,69.918992   L 66.718196,69.76883   L 66.942711,69.637439   L 67.560125,69.186954   L 67.747221,69.055563   L 67.915607,68.905401   L 68.102702,68.75524   L 68.252378,68.605078   L 68.420764,68.454916   L 68.57044,68.304755   L 68.720116,68.173363   L 68.851083,68.023202   L 69.131726,67.741649   L 69.243983,67.591487   L 69.37495,67.441326   L 69.487207,67.309934   L 69.599465,67.159773   L 69.711722,67.028381   L 70.048493,65.864629   L 70.684617,63.537124   L 70.98397,62.392142   L 71.264613,61.24716   L 71.526546,60.120948   L 71.78848,59.013506   L 72.050413,57.887294   L 72.274928,56.779852   L 72.723957,54.602509   L 72.929761,53.532608   L 73.116857,52.462707   L 73.285243,51.392805   L 73.453628,50.341674   L 73.622014,49.309313   L 73.77169,48.276952   L 74.033624,46.249771   L 74.145881,45.25495   L 74.239429,44.26013   L 74.351686,43.284079   L 74.501362,41.369519   L 74.5762,40.431009   L 74.632329,39.492499   L 74.707167,37.65302   L 74.725877,36.77082   L 74.744586,35.869851   L 74.763296,35.006421   L 74.763296,34.142992   L 74.744586,33.129402   L 74.725877,32.134581   L 74.707167,31.158531   L 74.59491,29.24397   L 74.538781,28.324231   L 74.463943,27.423261   L 74.389105,26.541062   L 74.295557,25.677632   L 74.1833,24.832973   L 73.958786,23.218736   L 73.846529,22.449158   L 73.715562,21.67958   L 73.565886,20.947542   L 73.434919,20.234275   L 73.285243,19.539777   L 73.116857,18.88282   L 72.967181,18.225863   L 72.798795,17.606447   L 72.630409,17.0058   L 72.293637,15.879588   L 72.106542,15.354023   L 71.938156,14.865998   L 71.751061,14.377973   L 71.563966,13.927488   L 71.39558,13.514543   L 71.208484,13.101599   L 71.021389,12.726195   L 70.834294,12.388331   L 70.647198,12.069238   L 70.310427,11.28089   L 70.085912,10.792865   L 69.861398,10.34238   L 69.749141,10.135908   L 69.636884,9.9106652   L 69.524626,9.704193   L 69.39366,9.4977208   L 69.281402,9.3100188   L 69.150436,9.1035466   L 68.626569,8.3527386   L 68.476893,8.1838068   L 68.327216,7.9961048   L 68.15883,7.827173   L 68.009154,7.6394711   L 67.466578,7.0951353   L 67.054968,6.7197313   L 66.849163,6.5507995   L 66.624649,6.3443273   L 66.138201,5.9689233   L 65.876267,5.7624511   L 65.614334,5.555979   z "
     id="path7" />
  <ellipse
     style="fill:#000000;fill-rule:evenodd;fill-opacity:1;stroke:#000000;stroke-width:0.018709533px;stroke-linecap:round;stroke-linejoin:round;stroke-miterlimit:4;stroke-dasharray:none;stroke-opacity:1;"
     cx="28.896874"
     cy="4.7207051"
     rx="0.62676937"
     ry="0.62676937"
     id="ellipse9" />
  <ellipse
     style="fill:none;stroke:#000000;stroke-width:0.018709533px;stroke-linecap:round;stroke-linejoin:round;stroke-miterlimit:4;stroke-dasharray:none;stroke-opacity:1;"
     cx="28.896874"
     cy="4.7207051"
     rx="0.62676937"
     ry="0.62676937"
     id="ellipse11" />
  <ellipse
     style="fill:#00ff00;fill-rule:evenodd;fill-opacity:1;stroke:#000000;stroke-width:0.018709533px;stroke-linecap:round;stroke-linejoin:round;stroke-miterlimit:4;stroke-dasharray:none;stroke-opacity:1;"
     cx="28.896874"
     cy="4.7207051"
     rx="0.4770931"
     ry="0.4770931"
     id="ellipse13" />
  <ellipse
     style="fill:none;stroke:#000000;stroke-width:0.018709533px;stroke-linecap:round;stroke-linejoin:round;stroke-miterlimit:4;stroke-dasharray:none;stroke-opacity:1;"
     cx="28.896874"
     cy="4.7207051"
     rx="0.4770931"
     ry="0.4770931"
     id="ellipse15" />
  <ellipse
     style="fill:#000000;fill-rule:evenodd;fill-opacity:1;stroke:#000000;stroke-width:0.018709533px;stroke-linecap:round;stroke-linejoin:round;stroke-miterlimit:4;stroke-dasharray:none;stroke-opacity:1;"
     cx="33.256196"
     cy="4.7207051"
     rx="0.62676937"
     ry="0.62676937"
     id="ellipse17" />
  <ellipse
     style="fill:none;stroke:#000000;stroke-width:0.018709533px;stroke-linecap:round;stroke-linejoin:round;stroke-miterlimit:4;stroke-dasharray:none;stroke-opacity:1;"
     cx="33.256196"
     cy="4.7207051"
     rx="0.62676937"
     ry="0.62676937"
     id="ellipse19" />
  <ellipse
     style="fill:#00ff00;fill-rule:evenodd;fill-opacity:1;stroke:#000000;stroke-width:0.018709533px;stroke-linecap:round;stroke-linejoin:round;stroke-miterlimit:4;stroke-dasharray:none;stroke-opacity:1;"
     cx="33.256196"
     cy="4.7207051"
     rx="0.4770931"
     ry="0.4770931"
     id="ellipse21" />
  <ellipse
     style="fill:none;stroke:#000000;stroke-width:0.018709533px;stroke-linecap:round;stroke-linejoin:round;stroke-miterlimit:4;stroke-dasharray:none;stroke-opacity:1;"
     cx="33.256196"
     cy="4.7207051"
     rx="0.4770931"
     ry="0.4770931"
     id="ellipse23" />
  <ellipse
     style="fill:#000000;fill-rule:evenodd;fill-opacity:1;stroke:#000000;stroke-width:0.018709533px;stroke-linecap:round;stroke-linejoin:round;stroke-miterlimit:4;stroke-dasharray:none;stroke-opacity:1;"
     cx="37.587453"
     cy="4.7207051"
     rx="0.63612414"
     ry="0.62676937"
     id="ellipse25" />
  <ellipse
     style="fill:none;stroke:#000000;stroke-width:0.018709533px;stroke-linecap:round;stroke-linejoin:round;stroke-miterlimit:4;stroke-dasharray:none;stroke-opacity:1;"
     cx="37.587453"
     cy="4.7207051"
     rx="0.63612414"
     ry="0.62676937"
     id="ellipse27" />
  <ellipse
     style="fill:#00ff00;fill-rule:evenodd;fill-opacity:1;stroke:#000000;stroke-width:0.018709533px;stroke-linecap:round;stroke-linejoin:round;stroke-miterlimit:4;stroke-dasharray:none;stroke-opacity:1;"
     cx="37.587453"
     cy="4.7207051"
     rx="0.48644787"
     ry="0.4770931"
     id="ellipse29" />
  <ellipse
     style="fill:none;stroke:#000000;stroke-width:0.018709533px;stroke-linecap:round;stroke-linejoin:round;stroke-miterlimit:4;stroke-dasharray:none;stroke-opacity:1;"
     cx="37.587453"
     cy="4.7207051"
     rx="0.48644787"
     ry="0.4770931"
     id="ellipse31" />
  <ellipse
     style="fill:#000000;fill-rule:evenodd;fill-opacity:1;stroke:#000000;stroke-width:0.018709533px;stroke-linecap:round;stroke-linejoin:round;stroke-miterlimit:4;stroke-dasharray:none;stroke-opacity:1;"
     cx="46.259322"
     cy="4.7207051"
     rx="0.62676937"
     ry="0.62676937"
     id="ellipse33" />
  <ellipse
     style="fill:none;stroke:#000000;stroke-width:0.018709533px;stroke-linecap:round;stroke-linejoin:round;stroke-miterlimit:4;stroke-dasharray:none;stroke-opacity:1;"
     cx="46.259322"
     cy="4.7207051"
     rx="0.62676937"
     ry="0.62676937"
     id="ellipse35" />
  <ellipse
     style="fill:#00ff00;fill-rule:evenodd;fill-opacity:1;stroke:#000000;stroke-width:0.018709533px;stroke-linecap:round;stroke-linejoin:round;stroke-miterlimit:4;stroke-dasharray:none;stroke-opacity:1;"
     cx="46.259322"
     cy="4.7207051"
     rx="0.4770931"
     ry="0.4770931"
     id="ellipse37" />
  <ellipse
     style="fill:none;stroke:#000000;stroke-width:0.018709533px;stroke-linecap:round;stroke-linejoin:round;stroke-miterlimit:4;stroke-dasharray:none;stroke-opacity:1;"
     cx="46.259322"
     cy="4.7207051"
     rx="0.4770931"
     ry="0.4770931"
     id="ellipse39" />
  <ellipse
     style="fill:#000000;fill-rule:evenodd;fill-opacity:1;stroke:#000000;stroke-width:0.018709533px;stroke-linecap:round;stroke-linejoin:round;stroke-miterlimit:4;stroke-dasharray:none;stroke-opacity:1;"
     cx="41.946774"
     cy="4.7207051"
     rx="0.63612414"
     ry="0.62676937"
     id="ellipse41" />
  <ellipse
     style="fill:none;stroke:#000000;stroke-width:0.018709533px;stroke-linecap:round;stroke-linejoin:round;stroke-miterlimit:4;stroke-dasharray:none;stroke-opacity:1;"
     cx="41.946774"
     cy="4.7207051"
     rx="0.63612414"
     ry="0.62676937"
     id="ellipse43" />
  <ellipse
     style="fill:#00ff00;fill-rule:evenodd;fill-opacity:1;stroke:#000000;stroke-width:0.018709533px;stroke-linecap:round;stroke-linejoin:round;stroke-miterlimit:4;stroke-dasharray:none;stroke-opacity:1;"
     cx="41.946774"
     cy="4.7207051"
     rx="0.48644787"
     ry="0.4770931"
     id="ellipse45" />
  <ellipse
     style="fill:none;stroke:#000000;stroke-width:0.018709533px;stroke-linecap:round;stroke-linejoin:round;stroke-miterlimit:4;stroke-dasharray:none;stroke-opacity:1;"
     cx="41.946774"
     cy="4.7207051"
     rx="0.48644787"
     ry="0.4770931"
     id="ellipse47" />
  <path
     style="fill:#000000;fill-rule:evenodd;fill-opacity:1;stroke:#000000;stroke-width:0.018709533px;stroke-linecap:round;stroke-linejoin:round;stroke-miterlimit:4;stroke-dasharray:none;stroke-opacity:1;"
     d="  M 28.625586,35.212894   L 28.606877,35.212894   L 28.606877,35.194123   L 28.588167,35.194123   L 28.569458,35.175353   L 28.569458,35.156583   L 28.550748,35.156583   L 28.550748,35.119043   L 28.532039,35.119043   L 28.532039,33.317104   L 28.550748,33.317104   L 28.550748,33.279563   L 28.569458,33.279563   L 28.569458,33.260793   L 28.588167,33.242023   L 28.606877,33.242023   L 28.606877,33.223253   L 30.739763,33.223253   L 30.739763,33.242023   L 30.758473,33.242023   L 30.777183,33.260793   L 30.777183,33.279563   L 30.795892,33.279563   L 30.795892,33.298333   L 30.814602,33.317104   L 30.814602,33.654967   L 30.795892,33.654967   L 30.795892,33.636197   L 30.777183,33.636197   L 30.777183,33.617427   L 30.758473,33.617427   L 30.758473,33.598656   L 29.018486,33.598656   L 29.018486,33.617427   L 28.999777,33.617427   L 28.999777,33.654967   L 28.981067,33.654967   L 28.981067,35.137813   L 28.999777,35.137813   L 28.999777,35.175353   L 29.018486,35.175353   L 29.018486,35.194123   L 29.037196,35.194123   L 29.037196,35.212894   L 28.644296,35.212894   L 28.625586,35.212894   z "
     id="path49" />
  <path
     style="fill:#000000;fill-rule:evenodd;fill-opacity:1;stroke:#000000;stroke-width:0.018709533px;stroke-linecap:round;stroke-linejoin:round;stroke-miterlimit:4;stroke-dasharray:none;stroke-opacity:1;"
     d="  M 30.664925,34.067911   L 29.130744,34.067911   L 29.130744,34.049141   L 29.093325,34.049141   L 29.093325,34.030371   L 29.074615,34.030371   L 29.074615,33.992831   L 29.055905,33.992831   L 29.055905,34.387005   L 29.074615,34.387005   L 29.074615,34.405775   L 29.093325,34.424545   L 29.112034,34.424545   L 29.130744,34.443315   L 30.702344,34.443315   L 30.721054,34.424545   L 30.739763,34.424545   L 30.739763,34.405775   L 30.795892,34.349464   L 30.795892,34.330694   L 30.814602,34.311924   L 30.814602,34.180533   L 30.777183,34.142992   L 30.777183,34.124222   L 30.758473,34.105452   L 30.739763,34.105452   L 30.721054,34.086682   L 30.702344,34.086682   L 30.702344,34.067911   L 30.683635,34.067911   L 30.664925,34.067911   z "
     id="path51" />
  <path
     style="fill:#000000;fill-rule:evenodd;fill-opacity:1;stroke:#000000;stroke-width:0.018709533px;stroke-linecap:round;stroke-linejoin:round;stroke-miterlimit:4;stroke-dasharray:none;stroke-opacity:1;"
     d="  M 34.238446,34.462086   L 34.219737,34.462086   L 34.219737,34.443315   L 34.201027,34.443315   L 34.182318,34.424545   L 34.182318,34.405775   L 34.163608,34.387005   L 34.163608,34.011601   L 34.182318,34.011601   L 34.182318,34.030371   L 34.201027,34.030371   L 34.201027,34.049141   L 35.454566,34.049141   L 35.454566,33.598656   L 34.126189,33.598656   L 34.126189,33.617427   L 34.10748,33.617427   L 34.10748,33.636197   L 34.08877,33.636197   L 34.08877,33.654967   L 34.07006,33.673737   L 34.07006,35.137813   L 34.08877,35.137813   L 34.08877,35.175353   L 34.10748,35.175353   L 34.10748,35.194123   L 34.126189,35.194123   L 34.126189,35.212894   L 33.714579,35.212894   L 33.69587,35.194123   L 33.67716,35.194123   L 33.67716,35.175353   L 33.658451,35.175353   L 33.658451,35.156583   L 33.639741,35.156583   L 33.639741,35.119043   L 33.621032,35.119043   L 33.621032,33.317104   L 33.639741,33.317104   L 33.639741,33.279563   L 33.658451,33.279563   L 33.658451,33.260793   L 33.67716,33.260793   L 33.67716,33.242023   L 33.69587,33.242023   L 33.714579,33.223253   L 35.828757,33.223253   L 35.828757,33.242023   L 35.866176,33.242023   L 35.866176,33.260793   L 35.884885,33.260793   L 35.884885,33.298333   L 35.903595,33.298333   L 35.903595,34.330694   L 35.884885,34.330694   L 35.884885,34.368235   L 35.866176,34.368235   L 35.866176,34.387005   L 35.847466,34.405775   L 35.847466,34.424545   L 35.828757,34.424545   L 35.828757,34.443315   L 35.810047,34.443315   L 35.791338,34.462086   L 35.810047,34.462086   L 35.810047,34.480856   L 35.828757,34.480856   L 35.828757,34.499626   L 35.847466,34.499626   L 35.847466,34.518396   L 35.866176,34.518396   L 35.866176,34.537166   L 35.884885,34.537166   L 35.884885,34.574707   L 35.903595,34.574707   L 35.903595,35.137813   L 35.922304,35.137813   L 35.922304,35.175353   L 35.941014,35.175353   L 35.941014,35.194123   L 35.959723,35.194123   L 35.959723,35.212894   L 35.548114,35.212894   L 35.548114,35.194123   L 35.510695,35.194123   L 35.510695,35.175353   L 35.491985,35.175353   L 35.491985,35.156583   L 35.473275,35.156583   L 35.473275,35.119043   L 35.454566,35.119043   L 35.454566,34.462086   L 34.257156,34.462086   L 34.238446,34.462086   z "
     id="path53" />
  <path
     style="fill:#000000;fill-rule:evenodd;fill-opacity:1;stroke:#000000;stroke-width:0.018709533px;stroke-linecap:round;stroke-linejoin:round;stroke-miterlimit:4;stroke-dasharray:none;stroke-opacity:1;"
     d="  M 36.708105,33.598656   L 36.221657,33.598656   L 36.221657,33.579886   L 36.202947,33.579886   L 36.202947,33.561116   L 36.184238,33.561116   L 36.184238,33.542346   L 36.165528,33.523576   L 36.165528,33.317104   L 36.184238,33.317104   L 36.184238,33.279563   L 36.202947,33.279563   L 36.202947,33.260793   L 36.221657,33.242023   L 36.240366,33.242023   L 36.240366,33.223253   L 38.373253,33.223253   L 38.373253,33.242023   L 38.391963,33.242023   L 38.410672,33.260793   L 38.410672,33.279563   L 38.429382,33.279563   L 38.429382,33.298333   L 38.448091,33.317104   L 38.448091,33.654967   L 38.429382,33.654967   L 38.429382,33.636197   L 38.410672,33.636197   L 38.410672,33.617427   L 38.391963,33.617427   L 38.391963,33.598656   L 37.213262,33.598656   L 37.213262,33.617427   L 37.194553,33.617427   L 37.194553,33.654967   L 37.175843,33.654967   L 37.175843,35.156583   L 37.194553,35.156583   L 37.194553,35.194123   L 37.213262,35.194123   L 37.213262,35.212894   L 36.801652,35.212894   L 36.801652,35.194123   L 36.764233,35.194123   L 36.764233,35.175353   L 36.745524,35.175353   L 36.745524,35.156583   L 36.726814,35.156583   L 36.726814,35.119043   L 36.708105,35.119043   L 36.708105,33.636197   L 36.708105,33.598656   z "
     id="path55" />
  <path
     style="fill:#000000;fill-rule:evenodd;fill-opacity:1;stroke:#000000;stroke-width:0.018709533px;stroke-linecap:round;stroke-linejoin:round;stroke-miterlimit:4;stroke-dasharray:none;stroke-opacity:1;"
     d="  M 39.177763,35.100272   L 39.177763,35.175353   L 39.196473,35.175353   L 39.196473,35.194123   L 39.215182,35.212894   L 38.803572,35.212894   L 38.803572,35.194123   L 38.766153,35.194123   L 38.766153,35.175353   L 38.747444,35.175353   L 38.747444,35.156583   L 38.728734,35.156583   L 38.728734,35.119043   L 38.710025,35.119043   L 38.710025,33.279563   L 38.691315,33.279563   L 38.691315,33.242023   L 38.672606,33.242023   L 38.653896,33.223253   L 39.084215,33.223253   L 39.084215,33.242023   L 39.121634,33.242023   L 39.121634,33.260793   L 39.140344,33.260793   L 39.140344,33.279563   L 39.159054,33.279563   L 39.159054,33.317104   L 39.177763,33.317104   L 39.177763,35.081502   L 39.177763,35.100272   z "
     id="path57" />
  <path
     style="fill:#000000;fill-rule:evenodd;fill-opacity:1;stroke:#000000;stroke-width:0.018709533px;stroke-linecap:round;stroke-linejoin:round;stroke-miterlimit:4;stroke-dasharray:none;stroke-opacity:1;"
     d="  M 41.348069,33.598656   L 40.019692,33.598656   L 40.019692,33.617427   L 40.000983,33.617427   L 40.000983,33.636197   L 39.982273,33.636197   L 39.982273,33.654967   L 39.963563,33.673737   L 39.963563,35.137813   L 39.982273,35.137813   L 39.982273,35.175353   L 40.000983,35.175353   L 40.000983,35.194123   L 40.019692,35.194123   L 40.019692,35.212894   L 39.608082,35.212894   L 39.589373,35.194123   L 39.570663,35.194123   L 39.570663,35.175353   L 39.551954,35.175353   L 39.551954,35.156583   L 39.533244,35.156583   L 39.533244,35.119043   L 39.514535,35.119043   L 39.514535,33.317104   L 39.533244,33.317104   L 39.533244,33.279563   L 39.551954,33.279563   L 39.551954,33.260793   L 39.570663,33.260793   L 39.570663,33.242023   L 39.589373,33.242023   L 39.608082,33.223253   L 41.72226,33.223253   L 41.72226,33.242023   L 41.759679,33.242023   L 41.759679,33.260793   L 41.778388,33.260793   L 41.778388,33.298333   L 41.797098,33.298333   L 41.797098,35.137813   L 41.815807,35.137813   L 41.815807,35.175353   L 41.834517,35.175353   L 41.834517,35.194123   L 41.853226,35.194123   L 41.853226,35.212894   L 41.441617,35.212894   L 41.441617,35.194123   L 41.404198,35.194123   L 41.404198,35.175353   L 41.385488,35.175353   L 41.385488,35.156583   L 41.366779,35.156583   L 41.366779,35.119043   L 41.348069,35.119043   L 41.348069,33.636197   L 41.348069,33.598656   z "
     id="path59" />
  <path
     style="fill:#000000;fill-rule:evenodd;fill-opacity:1;stroke:#000000;stroke-width:0.018709533px;stroke-linecap:round;stroke-linejoin:round;stroke-miterlimit:4;stroke-dasharray:none;stroke-opacity:1;"
     d="  M 44.09837,34.067911   L 42.676446,34.067911   L 42.657736,34.049141   L 42.639027,34.049141   L 42.639027,34.030371   L 42.620317,34.030371   L 42.620317,33.992831   L 42.601608,33.992831   L 42.601608,34.387005   L 42.620317,34.387005   L 42.620317,34.405775   L 42.639027,34.424545   L 42.657736,34.424545   L 42.657736,34.443315   L 44.09837,34.443315   L 44.11708,34.424545   L 44.135789,34.424545   L 44.154499,34.405775   L 44.154499,34.387005   L 44.173209,34.368235   L 44.191918,34.368235   L 44.191918,34.349464   L 44.210628,34.330694   L 44.210628,34.311924   L 44.229337,34.293154   L 44.229337,34.180533   L 44.210628,34.161762   L 44.210628,34.142992   L 44.191918,34.142992   L 44.191918,34.124222   L 44.173209,34.105452   L 44.154499,34.105452   L 44.154499,34.086682   L 44.135789,34.086682   L 44.11708,34.067911   L 44.09837,34.067911   z "
     id="path61" />
  <path
     style="fill:#000000;fill-rule:evenodd;fill-opacity:1;stroke:#000000;stroke-width:0.018709533px;stroke-linecap:round;stroke-linejoin:round;stroke-miterlimit:4;stroke-dasharray:none;stroke-opacity:1;"
     d="  M 45.164814,33.598656   L 44.678366,33.598656   L 44.678366,33.579886   L 44.659656,33.579886   L 44.659656,33.561116   L 44.640947,33.561116   L 44.640947,33.542346   L 44.622237,33.523576   L 44.622237,33.317104   L 44.640947,33.317104   L 44.640947,33.279563   L 44.659656,33.279563   L 44.659656,33.260793   L 44.678366,33.242023   L 44.697075,33.242023   L 44.697075,33.223253   L 46.829962,33.223253   L 46.829962,33.242023   L 46.848672,33.242023   L 46.867381,33.260793   L 46.867381,33.279563   L 46.886091,33.279563   L 46.886091,33.298333   L 46.9048,33.317104   L 46.9048,33.654967   L 46.886091,33.654967   L 46.886091,33.636197   L 46.867381,33.636197   L 46.867381,33.617427   L 46.848672,33.617427   L 46.848672,33.598656   L 45.669971,33.598656   L 45.669971,33.617427   L 45.651262,33.617427   L 45.651262,33.654967   L 45.632552,33.654967   L 45.632552,35.156583   L 45.651262,35.156583   L 45.651262,35.194123   L 45.669971,35.194123   L 45.669971,35.212894   L 45.258361,35.212894   L 45.258361,35.194123   L 45.220942,35.194123   L 45.220942,35.175353   L 45.202233,35.175353   L 45.202233,35.156583   L 45.183523,35.156583   L 45.183523,35.119043   L 45.164814,35.119043   L 45.164814,33.636197   L 45.164814,33.598656   z "
     id="path63" />
  <path
     style="fill:#000000;fill-rule:evenodd;fill-opacity:1;stroke:#000000;stroke-width:0.018709533px;stroke-linecap:round;stroke-linejoin:round;stroke-miterlimit:4;stroke-dasharray:none;stroke-opacity:1;"
     d="  M 44.248047,34.83749   L 44.285466,34.83749   L 44.285466,34.818719   L 44.304175,34.818719   L 44.304175,34.799949   L 44.322885,34.799949   L 44.322885,34.781179   L 44.341594,34.781179   L 44.341594,35.119043   L 44.322885,35.137813   L 44.322885,35.156583   L 44.304175,35.156583   L 44.304175,35.175353   L 44.285466,35.194123   L 44.266756,35.194123   L 44.266756,35.212894   L 42.133869,35.212894   L 42.133869,35.194123   L 42.11516,35.194123   L 42.09645,35.175353   L 42.09645,35.156583   L 42.077741,35.156583   L 42.077741,35.119043   L 42.059031,35.119043   L 42.059031,33.317104   L 42.077741,33.317104   L 42.077741,33.279563   L 42.09645,33.279563   L 42.09645,33.260793   L 42.11516,33.242023   L 42.133869,33.242023   L 42.133869,33.223253   L 44.266756,33.223253   L 44.266756,33.242023   L 44.285466,33.242023   L 44.304175,33.260793   L 44.304175,33.279563   L 44.322885,33.279563   L 44.322885,33.298333   L 44.341594,33.317104   L 44.341594,33.654967   L 44.322885,33.654967   L 44.322885,33.636197   L 44.304175,33.636197   L 44.304175,33.617427   L 44.285466,33.617427   L 44.285466,33.598656   L 42.545479,33.598656   L 42.545479,33.617427   L 42.52677,33.617427   L 42.52677,33.654967   L 42.50806,33.654967   L 42.50806,34.83749   L 44.229337,34.83749   L 44.248047,34.83749   z "
     id="path65" />
  <path
     style="fill:#000000;fill-rule:evenodd;fill-opacity:1;stroke:#000000;stroke-width:0.018709533px;stroke-linecap:round;stroke-linejoin:round;stroke-miterlimit:4;stroke-dasharray:none;stroke-opacity:1;"
     d="  M 31.862336,34.631017   L 31.862336,35.212894   L 32.610717,35.212894   L 32.610717,34.631017   L 31.862336,34.631017   z "
     id="path67" />
  <path
     style="fill:#000000;fill-rule:evenodd;fill-opacity:1;stroke:#000000;stroke-width:0.018709533px;stroke-linecap:round;stroke-linejoin:round;stroke-miterlimit:4;stroke-dasharray:none;stroke-opacity:1;"
     d="  M 31.113954,33.93652   L 31.731369,33.93652   L 31.731369,34.499626   L 31.113954,34.499626   L 31.113954,33.93652   z "
     id="path69" />
  <path
     style="fill:#000000;fill-rule:evenodd;fill-opacity:1;stroke:#000000;stroke-width:0.018709533px;stroke-linecap:round;stroke-linejoin:round;stroke-miterlimit:4;stroke-dasharray:none;stroke-opacity:1;"
     d="  M 32.760393,34.631017   L 32.760393,35.212894   L 32.984908,35.212894   L 33.003617,35.194123   L 33.059746,35.194123   L 33.078455,35.175353   L 33.097165,35.175353   L 33.134584,35.156583   L 33.153293,35.156583   L 33.265551,35.043962   L 33.28426,35.006421   L 33.30297,34.987651   L 33.321679,34.950111   L 33.321679,34.931341   L 33.340389,34.8938   L 33.340389,34.85626   L 33.359098,34.818719   L 33.359098,34.762409   L 33.377808,34.724868   L 33.377808,34.631017   L 32.779103,34.631017   L 32.760393,34.631017   z "
     id="path71" />
  <path
     style="fill:#000000;fill-rule:evenodd;fill-opacity:1;stroke:#000000;stroke-width:0.018709533px;stroke-linecap:round;stroke-linejoin:round;stroke-miterlimit:4;stroke-dasharray:none;stroke-opacity:1;"
     d="  M 32.760393,33.93652   L 33.377808,33.93652   L 33.377808,34.499626   L 32.760393,34.499626   L 32.760393,33.93652   z "
     id="path73" />
  <path
     style="fill:#000000;fill-rule:evenodd;fill-opacity:1;stroke:#000000;stroke-width:0.018709533px;stroke-linecap:round;stroke-linejoin:round;stroke-miterlimit:4;stroke-dasharray:none;stroke-opacity:1;"
     d="  M 31.731369,34.631017   L 31.731369,35.212894   L 31.506854,35.212894   L 31.488145,35.194123   L 31.432016,35.194123   L 31.413307,35.175353   L 31.375888,35.175353   L 31.357178,35.156583   L 31.338469,35.156583   L 31.319759,35.137813   L 31.28234,35.119043   L 31.207502,35.043962   L 31.188792,35.006421   L 31.188792,34.987651   L 31.170083,34.950111   L 31.151373,34.931341   L 31.151373,34.8938   L 31.132664,34.85626   L 31.132664,34.818719   L 31.113954,34.762409   L 31.113954,34.631017   L 31.712659,34.631017   L 31.731369,34.631017   z "
     id="path75" />
  <path
     style="fill:#000000;fill-rule:evenodd;fill-opacity:1;stroke:#000000;stroke-width:0.018709533px;stroke-linecap:round;stroke-linejoin:round;stroke-miterlimit:4;stroke-dasharray:none;stroke-opacity:1;"
     d="  M 31.862336,33.223253   L 31.862336,33.805129   L 32.610717,33.805129   L 32.610717,33.223253   L 31.862336,33.223253   z "
     id="path77" />
  <path
     style="fill:#000000;fill-rule:evenodd;fill-opacity:1;stroke:#000000;stroke-width:0.018709533px;stroke-linecap:round;stroke-linejoin:round;stroke-miterlimit:4;stroke-dasharray:none;stroke-opacity:1;"
     d="  M 32.760393,33.805129   L 32.760393,33.223253   L 32.984908,33.223253   L 33.003617,33.242023   L 33.059746,33.242023   L 33.078455,33.260793   L 33.097165,33.260793   L 33.134584,33.279563   L 33.153293,33.279563   L 33.265551,33.392184   L 33.28426,33.429725   L 33.30297,33.448495   L 33.321679,33.486035   L 33.321679,33.504805   L 33.340389,33.542346   L 33.340389,33.579886   L 33.359098,33.617427   L 33.359098,33.673737   L 33.377808,33.711278   L 33.377808,33.805129   L 32.779103,33.805129   L 32.760393,33.805129   z "
     id="path79" />
  <path
     style="fill:#000000;fill-rule:evenodd;fill-opacity:1;stroke:#000000;stroke-width:0.018709533px;stroke-linecap:round;stroke-linejoin:round;stroke-miterlimit:4;stroke-dasharray:none;stroke-opacity:1;"
     d="  M 31.731369,33.805129   L 31.731369,33.223253   L 31.506854,33.223253   L 31.488145,33.242023   L 31.432016,33.242023   L 31.413307,33.260793   L 31.375888,33.260793   L 31.357178,33.279563   L 31.338469,33.279563   L 31.319759,33.298333   L 31.28234,33.317104   L 31.207502,33.392184   L 31.188792,33.429725   L 31.188792,33.448495   L 31.170083,33.486035   L 31.151373,33.504805   L 31.151373,33.542346   L 31.132664,33.579886   L 31.132664,33.617427   L 31.113954,33.673737   L 31.113954,33.805129   L 31.712659,33.805129   L 31.731369,33.805129   z "
     id="path81" />
  <text
     xml:space="preserve"
     style="font-size:2.125000px;font-style:normal;font-variant:normal;font-weight:400;font-stretch:Normal;line-height:125.000000%;letter-spacing:0px;word-spacing:0px;fill:#000000;fill-opacity:1;stroke:none;font-family:Arial;text-align:start;text-anchor:start;"
     transform="matrix(1.000000,-0.000000,0.000000,1.000000,31.413307,38.647840)"
     x="0.000000"
     y="0.000000"
     id="text109"><tspan
       x="0.000000"
       y="0.000000"
       id="tspan107"><tspan
         dx="0.000000"
         dy="0.000000"
         style="fill:#000000;font-size:2.125000px;font-style:normal;font-variant:normal;font-weight:400;font-stretch:Normal;font-family:Arial;"
         id="tspan83">F</tspan><tspan
         dx="0.000000"
         dy="0.000000"
         style="fill:#000000;font-size:2.125000px;font-style:normal;font-variant:normal;font-weight:400;font-stretch:Normal;font-family:Arial;"
         id="tspan85">o</tspan><tspan
         dx="0.000000"
         dy="0.000000"
         style="fill:#000000;font-size:2.125000px;font-style:normal;font-variant:normal;font-weight:400;font-stretch:Normal;font-family:Arial;"
         id="tspan87">r</tspan><tspan
         dx="0.000000"
         dy="0.000000"
         style="fill:#000000;font-size:2.125000px;font-style:normal;font-variant:normal;font-weight:400;font-stretch:Normal;font-family:Arial;"
         id="tspan89">t</tspan><tspan
         dx="0.000000"
         dy="0.000000"
         style="fill:#000000;font-size:2.125000px;font-style:normal;font-variant:normal;font-weight:400;font-stretch:Normal;font-family:Arial;"
         id="tspan91">i</tspan><tspan
         dx="0.000000"
         dy="0.000000"
         style="fill:#000000;font-size:2.125000px;font-style:normal;font-variant:normal;font-weight:400;font-stretch:Normal;font-family:Arial;"
         id="tspan93">A</tspan><tspan
         dx="0.000000"
         dy="0.000000"
         style="fill:#000000;font-size:2.125000px;font-style:normal;font-variant:normal;font-weight:400;font-stretch:Normal;font-family:Arial;"
         id="tspan95">P</tspan><tspan
         dx="0.000000"
         dy="0.000000"
         style="fill:#000000;font-size:2.125000px;font-style:normal;font-variant:normal;font-weight:400;font-stretch:Normal;font-family:Arial;"
         id="tspan97"> </tspan><tspan
         dx="0.000000"
         dy="0.000000"
         style="fill:#000000;font-size:2.125000px;font-style:normal;font-variant:normal;font-weight:400;font-stretch:Normal;font-family:Arial;"
         id="tspan99">2</tspan><tspan
         dx="0.000000"
         dy="0.000000"
         style="fill:#000000;font-size:2.125000px;font-style:normal;font-variant:normal;font-weight:400;font-stretch:Normal;font-family:Arial;"
         id="tspan101">3</tspan><tspan
         dx="0.000000"
         dy="0.000000"
         style="fill:#000000;font-size:2.125000px;font-style:normal;font-variant:normal;font-weight:400;font-stretch:Normal;font-family:Arial;"
         id="tspan103">1</tspan><tspan
         dx="0.000000"
         dy="0.000000"
         style="fill:#000000;font-size:2.125000px;font-style:normal;font-variant:normal;font-weight:400;font-stretch:Normal;font-family:Arial;"
         id="tspan105">E</tspan></tspan></text>
  <text
     xml:space="preserve"
     style="font-size:0.687500px;font-style:normal;font-variant:normal;font-weight:400;font-stretch:Condensed;line-height:125.000000%;letter-spacing:0px;word-spacing:0px;fill:#000000;fill-opacity:1;stroke:none;font-family:Times New Roman;text-align:start;text-anchor:start;"
     transform="matrix(1.000000,-0.000000,0.000000,1.000000,31.413307,38.647840)"
     x="14.817951"
     y="-3.453717"
     id="text115"><tspan
       x="14.817951"
       y="-3.453717"
       id="tspan113"><tspan
         dx="0.000000"
         dy="0.000000"
         style="fill:#000000;font-size:0.687500px;font-style:normal;font-variant:normal;font-weight:400;font-stretch:Condensed;font-family:Times New Roman;"
         id="tspan111">®</tspan></tspan></text>
  <path
     style="fill:#000000;fill-rule:evenodd;fill-opacity:1;stroke:#000000;stroke-width:0.018709533px;stroke-linecap:round;stroke-linejoin:round;stroke-miterlimit:4;stroke-dasharray:none;stroke-opacity:1;"
     d="  M 29.018486,2.8530703   L 29.037196,2.8530703   L 29.037196,2.8718405   L 29.055905,2.8718405   L 29.074615,2.8906107   L 29.093325,2.8906107   L 29.149453,2.9469213   L 29.149453,2.9656915   L 29.168163,2.9656915   L 29.168163,2.9844617   L 29.186872,3.0032319   L 29.186872,3.0220021   L 29.205582,3.0407723   L 29.205582,3.0970829   L 29.224291,3.1158531   L 29.224291,3.2847849   L 29.205582,3.3035551   L 29.205582,3.3598656   L 29.186872,3.3786358   L 29.186872,3.397406   L 29.168163,3.4161762   L 29.168163,3.4349464   L 29.149453,3.4537166   L 29.149453,3.4724868   L 29.130744,3.4724868   L 29.112034,3.491257   L 29.112034,3.5100272   L 29.093325,3.5100272   L 29.037196,3.5663378   L 28.999777,3.5663378   L 28.981067,3.585108   L 28.943648,3.585108   L 28.924939,3.6038782   L 28.737843,3.6038782   L 28.719134,3.585108   L 28.681715,3.585108   L 28.663005,3.5663378   L 28.625586,3.5663378   L 28.569458,3.5100272   L 28.550748,3.5100272   L 28.550748,3.491257   L 28.532039,3.4724868   L 28.513329,3.4724868   L 28.513329,3.4537166   L 28.494619,3.4349464   L 28.494619,3.4161762   L 28.47591,3.397406   L 28.47591,3.3786358   L 28.4572,3.3598656   L 28.4572,3.3035551   L 28.438491,3.2847849   L 28.438491,3.1158531   L 28.4572,3.0970829   L 28.4572,3.0407723   L 28.47591,3.0407723   L 28.47591,3.0032319   L 28.494619,2.9844617   L 28.494619,2.9656915   L 28.513329,2.9656915   L 28.513329,2.9469213   L 28.532039,2.9281511   L 28.532039,2.9093809   L 28.550748,2.9093809   L 28.588167,2.8718405   L 28.588167,2.8906107   L 28.606877,2.8906107   L 28.606877,2.9093809   L 28.625586,2.9093809   L 28.625586,2.9281511   L 28.644296,2.9281511   L 28.644296,2.9469213   L 28.625586,2.9469213   L 28.625586,2.9656915   L 28.606877,2.9656915   L 28.550748,3.0220021   L 28.550748,3.0407723   L 28.532039,3.0595425   L 28.532039,3.0783127   L 28.513329,3.0783127   L 28.513329,3.1346233   L 28.494619,3.1346233   L 28.494619,3.2847849   L 28.513329,3.2847849   L 28.513329,3.3410955   L 28.550748,3.3786358   L 28.550748,3.397406   L 28.569458,3.397406   L 28.569458,3.4161762   L 28.606877,3.4537166   L 28.625586,3.4537166   L 28.625586,3.4724868   L 28.644296,3.4724868   L 28.663005,3.491257   L 28.681715,3.491257   L 28.700424,3.5100272   L 28.737843,3.5100272   L 28.737843,3.5287974   L 28.924939,3.5287974   L 28.924939,3.5100272   L 28.962358,3.5100272   L 28.981067,3.491257   L 28.999777,3.491257   L 29.018486,3.4724868   L 29.037196,3.4724868   L 29.037196,3.4537166   L 29.055905,3.4537166   L 29.093325,3.4161762   L 29.093325,3.397406   L 29.112034,3.397406   L 29.112034,3.3786358   L 29.149453,3.3410955   L 29.149453,3.2847849   L 29.168163,3.2847849   L 29.168163,3.1346233   L 29.149453,3.1346233   L 29.149453,3.0783127   L 29.130744,3.0783127   L 29.130744,3.0407723   L 29.112034,3.0407723   L 29.112034,3.0220021   L 29.093325,3.0032319   L 29.093325,2.9844617   L 29.074615,2.9844617   L 29.074615,2.9656915   L 29.055905,2.9656915   L 29.037196,2.9469213   L 29.018486,2.9469213   L 29.018486,2.9281511   L 28.999777,2.9281511   L 28.999777,2.8906107   L 29.018486,2.8906107   L 29.018486,2.8718405   L 29.018486,2.8530703   z "
     id="path117" />
  <path
     style="fill:#000000;fill-rule:evenodd;fill-opacity:1;stroke:#000000;stroke-width:0.018709533px;stroke-linecap:round;stroke-linejoin:round;stroke-miterlimit:4;stroke-dasharray:none;stroke-opacity:1;"
     d="  M 28.86881,2.6653683   L 28.775262,2.6653683   L 28.775262,3.2284743   L 28.86881,3.2284743   L 28.86881,2.6653683   z "
     id="path119" />
  <path
     style="fill:none;stroke:#000000;stroke-width:0.018709533px;stroke-linecap:round;stroke-linejoin:round;stroke-miterlimit:4;stroke-dasharray:none;stroke-opacity:1;"
     d="  M 33.67716,3.1158531   L 32.442331,3.1158531  "
     id="path121" />
  <path
     style="fill:none;stroke:#000000;stroke-width:0.018709533px;stroke-linecap:round;stroke-linejoin:round;stroke-miterlimit:4;stroke-dasharray:none;stroke-opacity:1;"
     d="  M 33.059746,2.9469213   L 33.059746,3.1346233  "
     id="path123" />
  <path
     style="fill:#0a0a0a;fill-rule:evenodd;fill-opacity:1;stroke:#000000;stroke-width:0.018709533px;stroke-linecap:round;stroke-linejoin:round;stroke-miterlimit:4;stroke-dasharray:none;stroke-opacity:1;"
     d="  M 33.209422,2.6465981   L 32.910069,2.6465981   L 32.910069,2.9469213   L 33.209422,2.9469213   L 33.209422,2.6465981   z "
     id="path125" />
  <path
     style="fill:none;stroke:#000000;stroke-width:0.018709533px;stroke-linecap:round;stroke-linejoin:round;stroke-miterlimit:4;stroke-dasharray:none;stroke-opacity:1;"
     d="  M 33.415227,3.1346233   L 33.415227,3.3223253  "
     id="path127" />
  <path
     style="fill:none;stroke:#000000;stroke-width:0.018709533px;stroke-linecap:round;stroke-linejoin:round;stroke-miterlimit:4;stroke-dasharray:none;stroke-opacity:1;"
     d="  M 33.415227,3.1346233   L 33.415227,3.3223253  "
     id="path129" />
  <path
     style="fill:#0a0a0a;fill-rule:evenodd;fill-opacity:1;stroke:#000000;stroke-width:0.018709533px;stroke-linecap:round;stroke-linejoin:round;stroke-miterlimit:4;stroke-dasharray:none;stroke-opacity:1;"
     d="  M 33.28426,3.3223253   L 33.583613,3.3223253   L 33.583613,3.6226484   L 33.28426,3.6226484   L 33.28426,3.3223253   z "
     id="path131" />
  <path
     style="fill:none;stroke:#000000;stroke-width:0.018709533px;stroke-linecap:round;stroke-linejoin:round;stroke-miterlimit:4;stroke-dasharray:none;stroke-opacity:1;"
     d="  M 32.666845,3.1346233   L 32.666845,3.3223253  "
     id="path133" />
  <path
     style="fill:#0a0a0a;fill-rule:evenodd;fill-opacity:1;stroke:#000000;stroke-width:0.018709533px;stroke-linecap:round;stroke-linejoin:round;stroke-miterlimit:4;stroke-dasharray:none;stroke-opacity:1;"
     d="  M 32.835231,3.3223253   L 32.535879,3.3223253   L 32.535879,3.6226484   L 32.835231,3.6226484   L 32.835231,3.3223253   z "
     id="path135" />
  <text
     xml:space="preserve"
     style="font-size:0.687500px;font-style:normal;font-variant:normal;font-weight:400;font-stretch:Normal;line-height:125.000000%;letter-spacing:0px;word-spacing:0px;fill:#000000;fill-opacity:1;stroke:none;font-family:Arial;text-align:start;text-anchor:start;"
     transform="matrix(1.000000,-0.000000,0.000000,1.000000,33.770708,3.303555)"
     x="0.000000"
     y="0.000000"
     id="text141"><tspan
       x="0.000000"
       y="0.000000"
       id="tspan139"><tspan
         dx="0.000000"
         dy="0.000000"
         style="fill:#000000;font-size:0.687500px;font-style:normal;font-variant:normal;font-weight:400;font-stretch:Normal;font-family:Arial;"
         id="tspan137">1</tspan></tspan></text>
  <path
     style="fill:none;stroke:#000000;stroke-width:0.018709533px;stroke-linecap:round;stroke-linejoin:round;stroke-miterlimit:4;stroke-dasharray:none;stroke-opacity:1;"
     d="  M 38.148739,3.1158531   L 36.91391,3.1158531  "
     id="path143" />
  <path
     style="fill:none;stroke:#000000;stroke-width:0.018709533px;stroke-linecap:round;stroke-linejoin:round;stroke-miterlimit:4;stroke-dasharray:none;stroke-opacity:1;"
     d="  M 37.531324,2.9469213   L 37.531324,3.1346233  "
     id="path145" />
  <path
     style="fill:#0a0a0a;fill-rule:evenodd;fill-opacity:1;stroke:#000000;stroke-width:0.018709533px;stroke-linecap:round;stroke-linejoin:round;stroke-miterlimit:4;stroke-dasharray:none;stroke-opacity:1;"
     d="  M 37.681,2.6465981   L 37.381648,2.6465981   L 37.381648,2.9469213   L 37.681,2.9469213   L 37.681,2.6465981   z "
     id="path147" />
  <path
     style="fill:none;stroke:#000000;stroke-width:0.018709533px;stroke-linecap:round;stroke-linejoin:round;stroke-miterlimit:4;stroke-dasharray:none;stroke-opacity:1;"
     d="  M 37.886805,3.1346233   L 37.886805,3.3223253  "
     id="path149" />
  <path
     style="fill:#0a0a0a;fill-rule:evenodd;fill-opacity:1;stroke:#000000;stroke-width:0.018709533px;stroke-linecap:round;stroke-linejoin:round;stroke-miterlimit:4;stroke-dasharray:none;stroke-opacity:1;"
     d="  M 37.755839,3.3223253   L 38.055191,3.3223253   L 38.055191,3.6226484   L 37.755839,3.6226484   L 37.755839,3.3223253   z "
     id="path151" />
  <path
     style="fill:none;stroke:#000000;stroke-width:0.018709533px;stroke-linecap:round;stroke-linejoin:round;stroke-miterlimit:4;stroke-dasharray:none;stroke-opacity:1;"
     d="  M 37.138424,3.1346233   L 37.138424,3.3223253  "
     id="path153" />
  <path
     style="fill:#0a0a0a;fill-rule:evenodd;fill-opacity:1;stroke:#000000;stroke-width:0.018709533px;stroke-linecap:round;stroke-linejoin:round;stroke-miterlimit:4;stroke-dasharray:none;stroke-opacity:1;"
     d="  M 37.30681,3.3223253   L 37.007457,3.3223253   L 37.007457,3.6226484   L 37.30681,3.6226484   L 37.30681,3.3223253   z "
     id="path155" />
  <text
     xml:space="preserve"
     style="font-size:0.687500px;font-style:normal;font-variant:normal;font-weight:400;font-stretch:Normal;line-height:125.000000%;letter-spacing:0px;word-spacing:0px;fill:#000000;fill-opacity:1;stroke:none;font-family:Arial;text-align:start;text-anchor:start;"
     transform="matrix(1.000000,-0.000000,0.000000,1.000000,38.279705,3.303555)"
     x="0.000000"
     y="0.000000"
     id="text161"><tspan
       x="0.000000"
       y="0.000000"
       id="tspan159"><tspan
         dx="0.000000"
         dy="0.000000"
         style="fill:#000000;font-size:0.687500px;font-style:normal;font-variant:normal;font-weight:400;font-stretch:Normal;font-family:Arial;"
         id="tspan157">2</tspan></tspan></text>
  <path
     style="fill:none;stroke:#000000;stroke-width:0.056128599px;stroke-linecap:round;stroke-linejoin:round;stroke-miterlimit:4;stroke-dasharray:none;stroke-opacity:1;"
     d="  M 42.395803,3.4537166   L 42.451931,3.397406   L 42.470641,3.3598656   L 42.50806,3.3410955   L 42.52677,3.3035551   L 42.545479,3.2847849   L 42.564189,3.2472445   L 42.564189,3.2284743   L 42.601608,3.1533935   L 42.601608,3.0970829   L 42.620317,3.0783127   L 42.620317,2.9844617   L 42.601608,2.9656915   L 42.601608,2.9093809   L 42.582898,2.8718405   L 42.582898,2.8530703   L 42.564189,2.8155299   L 42.564189,2.7967597   L 42.545479,2.7779895   L 42.52677,2.7404491   L 42.489351,2.7029087   L 42.470641,2.6653683   L 42.414512,2.6090577   L 42.395803,2.5902875  "
     id="path163" />
  <path
     style="fill:none;stroke:#000000;stroke-width:0.056128599px;stroke-linecap:round;stroke-linejoin:round;stroke-miterlimit:4;stroke-dasharray:none;stroke-opacity:1;"
     d="  M 42.283546,3.3598656   L 42.339674,3.3035551   L 42.358384,3.2660147   L 42.358384,3.2472445   L 42.395803,3.2097041   L 42.395803,3.1909339   L 42.414512,3.1533935   L 42.414512,3.0970829   L 42.433222,3.0595425   L 42.433222,3.0032319   L 42.414512,2.9844617   L 42.414512,2.9093809   L 42.395803,2.8906107   L 42.395803,2.8530703   L 42.377093,2.8343001   L 42.377093,2.8155299   L 42.339674,2.7779895   L 42.339674,2.7592193   L 42.302255,2.7216789   L 42.302255,2.7029087   L 42.283546,2.6841385  "
     id="path165" />
  <path
     style="fill:none;stroke:#000000;stroke-width:0.056128599px;stroke-linecap:round;stroke-linejoin:round;stroke-miterlimit:4;stroke-dasharray:none;stroke-opacity:1;"
     d="  M 42.171288,3.2660147   L 42.208708,3.2284743   L 42.208708,3.2097041   L 42.227417,3.2097041   L 42.246127,3.1909339   L 42.246127,3.1721637   L 42.264836,3.1533935   L 42.264836,3.1346233   L 42.283546,3.1158531   L 42.283546,2.9281511   L 42.264836,2.9281511   L 42.264836,2.8906107   L 42.227417,2.8530703   L 42.227417,2.8343001   L 42.189998,2.7967597   L 42.171288,2.7779895  "
     id="path167" />
  <path
     style="fill:none;stroke:#000000;stroke-width:0.056128599px;stroke-linecap:round;stroke-linejoin:round;stroke-miterlimit:4;stroke-dasharray:none;stroke-opacity:1;"
     d="  M 41.610002,3.4537166   L 41.553874,3.397406   L 41.535164,3.3598656   L 41.497745,3.3410955   L 41.479036,3.3035551   L 41.460326,3.2847849   L 41.441617,3.2472445   L 41.441617,3.2284743   L 41.404198,3.1533935   L 41.404198,3.0970829   L 41.385488,3.0783127   L 41.385488,2.9844617   L 41.404198,2.9656915   L 41.404198,2.9093809   L 41.422907,2.8718405   L 41.422907,2.8530703   L 41.441617,2.8155299   L 41.441617,2.7967597   L 41.460326,2.7779895   L 41.479036,2.7404491   L 41.516455,2.7029087   L 41.535164,2.6653683   L 41.591293,2.6090577   L 41.610002,2.5902875  "
     id="path169" />
  <path
     style="fill:none;stroke:#000000;stroke-width:0.056128599px;stroke-linecap:round;stroke-linejoin:round;stroke-miterlimit:4;stroke-dasharray:none;stroke-opacity:1;"
     d="  M 41.72226,3.3598656   L 41.666131,3.3035551   L 41.647422,3.2660147   L 41.628712,3.2472445   L 41.628712,3.2284743   L 41.610002,3.2097041   L 41.610002,3.1909339   L 41.591293,3.1533935   L 41.591293,3.1158531   L 41.572583,3.0970829   L 41.572583,2.9656915   L 41.591293,2.9281511   L 41.591293,2.8906107   L 41.610002,2.8718405   L 41.610002,2.8530703   L 41.628712,2.8343001   L 41.628712,2.8155299   L 41.647422,2.7967597   L 41.647422,2.7779895   L 41.684841,2.7404491   L 41.684841,2.7216789   L 41.70355,2.7029087   L 41.72226,2.6841385  "
     id="path171" />
  <path
     style="fill:none;stroke:#000000;stroke-width:0.056128599px;stroke-linecap:round;stroke-linejoin:round;stroke-miterlimit:4;stroke-dasharray:none;stroke-opacity:1;"
     d="  M 41.815807,3.2660147   L 41.778388,3.2284743   L 41.778388,3.2097041   L 41.759679,3.2097041   L 41.740969,3.1909339   L 41.740969,3.1721637   L 41.72226,3.1533935   L 41.72226,3.1346233   L 41.70355,3.1158531   L 41.70355,2.9281511   L 41.72226,2.9281511   L 41.72226,2.8906107   L 41.759679,2.8530703   L 41.759679,2.8343001   L 41.797098,2.7967597   L 41.815807,2.7779895  "
     id="path173" />
  <ellipse
     style="fill:#000000;fill-rule:evenodd;fill-opacity:1;stroke:#000000;stroke-width:0.018709533px;stroke-linecap:round;stroke-linejoin:round;stroke-miterlimit:4;stroke-dasharray:none;stroke-opacity:1;"
     cx="41.928065"
     cy="2.9375362"
     rx="0.074838134"
     ry="0.065483367"
     id="ellipse175" />
  <ellipse
     style="fill:none;stroke:#000000;stroke-width:0.018709533px;stroke-linecap:round;stroke-linejoin:round;stroke-miterlimit:4;stroke-dasharray:none;stroke-opacity:1;"
     cx="41.928065"
     cy="2.9375362"
     rx="0.074838134"
     ry="0.065483367"
     id="ellipse177" />
  <path
     style="fill:#000000;fill-rule:evenodd;fill-opacity:1;stroke:#000000;stroke-width:0.018709533px;stroke-linecap:round;stroke-linejoin:round;stroke-miterlimit:4;stroke-dasharray:none;stroke-opacity:1;"
     d="  M 42.059031,3.0032319   L 41.946774,3.0032319   L 41.946774,3.7164994   L 42.059031,3.7164994   L 42.059031,3.0032319   z "
     id="path179" />
  <path
     style="fill:none;stroke:#000000;stroke-width:0.056128599px;stroke-linecap:round;stroke-linejoin:round;stroke-miterlimit:4;stroke-dasharray:none;stroke-opacity:1;"
     d="  M 46.13771,3.397406   L 46.642867,2.8718405   L 46.399643,2.6278279   L 46.399643,3.6414186   L 46.642867,3.397406   L 46.119,2.8718405  "
     id="path181" />
  <path
     style="fill:none;stroke:#000000;stroke-width:0.0080946218px;stroke-linecap:round;stroke-linejoin:round;stroke-miterlimit:4;stroke-dasharray:none;stroke-opacity:1;"
     d="  M 21.547884,74.372875   L 21.264573,74.372875   L 21.264573,74.657113   L 21.547884,74.657113   L 21.547884,74.372875   z "
     id="path183" />
  <path
     style="fill:none;stroke:#000000;stroke-width:0.0080946218px;stroke-linecap:round;stroke-linejoin:round;stroke-miterlimit:4;stroke-dasharray:none;stroke-opacity:1;"
     d="  M 36.822437,75.493584   L 36.539125,75.493584   L 36.539125,75.777822   L 36.822437,75.777822   L 36.822437,75.493584   z "
     id="path185" />
  <path
     style="fill:none;stroke:#000000;stroke-width:0.0080946218px;stroke-linecap:round;stroke-linejoin:round;stroke-miterlimit:4;stroke-dasharray:none;stroke-opacity:1;"
     d="  M 28.590206,75.193104   L 28.306894,75.193104   L 28.306894,75.477342   L 28.590206,75.477342   L 28.590206,75.193104   z "
     id="path187" />
  <path
     style="fill:none;stroke:#000000;stroke-width:0.0080946218px;stroke-linecap:round;stroke-linejoin:round;stroke-miterlimit:4;stroke-dasharray:none;stroke-opacity:1;"
     d="  M 45.135614,75.120014   L 44.852302,75.120014   L 44.852302,75.404252   L 45.135614,75.404252   L 45.135614,75.120014   z "
     id="path189" />
  <path
     style="fill:none;stroke:#000000;stroke-width:0.0080946218px;stroke-linecap:round;stroke-linejoin:round;stroke-miterlimit:4;stroke-dasharray:none;stroke-opacity:1;"
     d="  M 52.695991,74.372875   L 52.412679,74.372875   L 52.412679,74.657113   L 52.695991,74.657113   L 52.695991,74.372875   z "
     id="path191" />
</svg>
