<?xml version="1.0" encoding="UTF-8" standalone="no"?>
<svg
   version="1.0"
   width="15.27mm"
   height="15.27mm"
   id="svg157"
   xmlns="http://www.w3.org/2000/svg"
   xmlns:svg="http://www.w3.org/2000/svg">
  <defs
     id="defs3">
    <pattern
       id="EMFhbasepattern"
       patternUnits="userSpaceOnUse"
       width="6"
       height="6"
       x="0"
       y="0" />
  </defs>
  <path
     style="fill:#e2e2e2;fill-rule:evenodd;fill-opacity:1;stroke:#000000;stroke-width:0.093510576px;stroke-linecap:round;stroke-linejoin:round;stroke-miterlimit:4;stroke-dasharray:none;stroke-opacity:1;"
     d="  M 29.306215,49.960832   M 28.689045,49.792045   M 29.044386,49.979586   M 29.044386,49.979586   M 28.296301,49.979586   M 25.584494,49.960832   M 24.967324,49.792045   M 25.322665,49.979586   M 24.57458,49.979586   M 57.490304,9.7896225   L 57.471601,9.2832627   L 57.434197,8.795657   L 57.378091,8.3080512   L 57.28458,7.8204455   L 57.19107,7.3515939   L 57.060155,6.8827422   L 56.891836,6.4326446   L 56.723517,6.0013011   L 56.536496,5.5699576   L 56.31207,5.1386141   L 56.087645,4.7260246   L 55.825815,4.3321892   L 55.563986,3.9571079   L 55.264752,3.5820266   L 54.965518,3.2256994   L 54.647582,2.8881262   L 54.310944,2.569307   L 53.955604,2.269242   L 53.581561,1.9691769   L 53.207519,1.70662   L 52.814775,1.4440631   L 52.403328,1.2190143   L 51.973179,0.9939655   L 51.543031,0.80642484   L 51.112882,0.63763824   L 50.664031,0.46885165   L 50.196478,0.33757319   L 49.728926,0.24380286   L 49.242671,0.15003253   L 48.756416,0.09377033   L 48.270161,0.056262198   L 47.765203,0.037508132   L 9.7625044,0.037508132   L 9.2575473,0.056262198   L 8.7712923,0.09377033   L 8.2850372,0.15003253   L 7.7987822,0.24380286   L 7.3312293,0.33757319   L 6.8636765,0.46885165   L 6.4148257,0.63763824   L 5.984677,0.80642484   L 5.5545284,0.9939655   L 5.1243797,1.2190143   L 4.7129332,1.4440631   L 4.3201887,1.70662   L 3.9461464,1.9691769   L 3.5721041,2.269242   L 3.2167639,2.569307   L 2.8801258,2.8881262   L 2.5621898,3.2256994   L 2.262956,3.5820266   L 1.9637221,3.9571079   L 1.7018925,4.3321892   L 1.4400629,4.7260246   L 1.2156375,5.1386141   L 0.99121213,5.5699576   L 0.80419097,6.0013011   L 0.63587193,6.4326446   L 0.46755289,6.8827422   L 0.33663808,7.3515939   L 0.2431275,7.8204455   L 0.14961693,8.3080512   L 0.093510578,8.795657   L 0.056106347,9.2832627   L 0.037404231,9.7896225   L 0.037404231,47.897885   L 0.056106347,48.404244   L 0.093510578,48.89185   L 0.14961693,49.379456   L 0.2431275,49.867061   L 0.33663808,50.335913   L 0.46755289,50.804765   L 0.63587193,51.254862   L 0.80419097,51.686206   L 0.99121213,52.117549   L 1.2156375,52.548893   L 1.4400629,52.961482   L 1.7018925,53.355318   L 1.9637221,53.730399   L 2.262956,54.10548   L 2.5621898,54.461808   L 2.8801258,54.799381   L 3.2167639,55.1182   L 3.5721041,55.418265   L 3.9461464,55.71833   L 4.3201887,55.980887   L 4.7129332,56.243444   L 5.1243797,56.468493   L 5.5545284,56.693542   L 5.984677,56.881082   L 6.4148257,57.049869   L 6.8636765,57.218655   L 7.3312293,57.349934   L 7.7987822,57.443704   L 8.2850372,57.537474   L 8.7712923,57.593737   L 9.2575473,57.631245   L 9.7625044,57.649999   L 47.765203,57.649999   L 48.270161,57.631245   L 48.756416,57.593737   L 49.242671,57.537474   L 49.728926,57.443704   L 50.196478,57.349934   L 50.664031,57.218655   L 51.112882,57.049869   L 51.543031,56.881082   L 51.973179,56.693542   L 52.403328,56.468493   L 52.814775,56.243444   L 53.207519,55.980887   L 53.581561,55.71833   L 53.955604,55.418265   L 54.310944,55.1182   L 54.647582,54.799381   L 54.965518,54.461808   L 55.264752,54.10548   L 55.563986,53.730399   L 55.825815,53.355318   L 56.087645,52.961482   L 56.31207,52.548893   L 56.536496,52.117549   L 56.723517,51.686206   L 56.891836,51.254862   L 57.060155,50.804765   L 57.19107,50.335913   L 57.28458,49.867061   L 57.378091,49.379456   L 57.434197,48.89185   L 57.471601,48.404244   L 57.490304,47.897885   L 57.490304,9.7896225   z "
     id="path5" />
  <path
     style="fill:#efefef;fill-rule:evenodd;fill-opacity:1;stroke:#efefef;stroke-width:0.018702116px;stroke-linecap:round;stroke-linejoin:round;stroke-miterlimit:4;stroke-dasharray:none;stroke-opacity:1;"
     d="  M 56.92924,10.183458   L 56.910538,9.6958521   L 56.873134,9.2082464   L 56.817027,8.7206407   L 56.742219,8.251789   L 56.630006,7.7829374   L 56.499091,7.3328398   L 56.349475,6.9014963   L 56.181155,6.4513987   L 55.994134,6.0388093   L 55.788411,5.6262198   L 55.545284,5.2136303   L 55.302156,4.838549   L 55.040326,4.4634677   L 54.759795,4.0883864   L 54.460561,3.7508132   L 54.142625,3.41324   L 53.805987,3.0944209   L 53.469349,2.7943558   L 53.095306,2.5130448   L 52.721264,2.2504879   L 52.347222,2.0066851   L 51.935775,1.7628822   L 51.524329,1.5565875   L 51.112882,1.3690468   L 50.664031,1.2002602   L 50.233883,1.0502277   L 49.785032,0.91894923   L 49.317479,0.80642484   L 48.849926,0.73140857   L 48.363671,0.67514638   L 47.877416,0.63763824   L 47.391161,0.61888418   L 10.155249,0.61888418   L 9.6689938,0.63763824   L 9.1827388,0.67514638   L 8.6964838,0.73140857   L 8.2289309,0.80642484   L 7.761378,0.91894923   L 7.3125272,1.0502277   L 6.8823786,1.2002602   L 6.4335278,1.3690468   L 6.0220812,1.5565875   L 5.6106347,1.7628822   L 5.1991882,2.0066851   L 4.8251458,2.2504879   L 4.4511035,2.5130448   L 4.0770612,2.7943558   L 3.7404231,3.0944209   L 3.4037851,3.41324   L 3.0858491,3.7508132   L 2.7866152,4.0883864   L 2.5060835,4.4634677   L 2.2442539,4.838549   L 2.0011264,5.2136303   L 1.7579989,5.6262198   L 1.5522756,6.0388093   L 1.3652544,6.4513987   L 1.1969354,6.9014963   L 1.0473185,7.3328398   L 0.91640367,7.7829374   L 0.80419097,8.251789   L 0.72938251,8.7206407   L 0.67327616,9.2082464   L 0.63587193,9.6958521   L 0.61716982,10.183458   L 0.61716982,47.522803   L 0.63587193,48.010409   L 0.67327616,48.498015   L 0.72938251,48.98562   L 0.80419097,49.454472   L 0.91640367,49.923324   L 1.0473185,50.373421   L 1.1969354,50.804765   L 1.3652544,51.254862   L 1.5522756,51.667452   L 1.7579989,52.080041   L 2.0011264,52.492631   L 2.2442539,52.867712   L 2.5060835,53.242793   L 2.7866152,53.617875   L 3.0858491,53.955448   L 3.4037851,54.293021   L 3.7404231,54.61184   L 4.0770612,54.911905   L 4.4511035,55.193216   L 4.8251458,55.455773   L 5.1991882,55.699576   L 5.6106347,55.943379   L 6.0220812,56.149674   L 6.4335278,56.337214   L 6.8823786,56.506001   L 7.3125272,56.656033   L 7.761378,56.787312   L 8.2289309,56.899836   L 8.6964838,56.974853   L 9.1827388,57.031115   L 9.6689938,57.068623   L 10.155249,57.087377   L 47.391161,57.087377   L 47.877416,57.068623   L 48.363671,57.031115   L 48.849926,56.974853   L 49.317479,56.899836   L 49.785032,56.787312   L 50.233883,56.656033   L 50.664031,56.506001   L 51.112882,56.337214   L 51.524329,56.149674   L 51.935775,55.943379   L 52.347222,55.699576   L 52.721264,55.455773   L 53.095306,55.193216   L 53.469349,54.911905   L 53.805987,54.61184   L 54.142625,54.293021   L 54.460561,53.955448   L 54.759795,53.617875   L 55.040326,53.242793   L 55.302156,52.867712   L 55.545284,52.492631   L 55.788411,52.080041   L 55.994134,51.667452   L 56.181155,51.254862   L 56.349475,50.804765   L 56.499091,50.373421   L 56.630006,49.923324   L 56.742219,49.454472   L 56.817027,48.98562   L 56.873134,48.498015   L 56.910538,48.010409   L 56.92924,47.522803   L 56.92924,10.183458   z "
     id="path7" />
  <path
     style="fill:#f7f7f7;fill-rule:evenodd;fill-opacity:1;stroke:#f7f7f7;stroke-width:0.018702116px;stroke-linecap:round;stroke-linejoin:round;stroke-miterlimit:4;stroke-dasharray:none;stroke-opacity:1;"
     d="  M 53.544157,12.415192   L 53.506753,11.552505   L 53.450647,11.139915   L 53.375838,10.727326   L 53.282328,10.314736   L 53.170115,9.9021468   L 53.0392,9.5270655   L 52.889583,9.1332301   L 52.721264,8.7581488   L 52.534243,8.4018216   L 52.32852,8.0454943   L 51.879669,7.3703479   L 51.617839,7.0515288   L 51.35601,6.7514638   L 51.09418,6.4701528   L 50.794946,6.1888418   L 50.495712,5.9262849   L 50.177776,5.6637279   L 49.5045,5.2136303   L 49.14916,5.0073356   L 48.79382,4.819795   L 48.419777,4.6510084   L 48.027033,4.5009758   L 47.652991,4.3696974   L 47.241544,4.257173   L 46.830098,4.1634027   L 46.418651,4.0883864   L 46.007205,4.0321242   L 45.146907,3.9946161   L 12.380801,3.9946161   L 11.520503,4.0321242   L 11.109057,4.0883864   L 10.69761,4.1634027   L 10.286164,4.257173   L 9.8747171,4.3696974   L 9.5006748,4.5009758   L 9.1079303,4.6510084   L 8.733888,4.819795   L 8.3785478,5.0073356   L 8.0232076,5.2136303   L 7.3499315,5.6637279   L 7.0319955,5.9262849   L 6.7327616,6.1888418   L 6.1716982,6.7514638   L 5.9098686,7.0515288   L 5.6480389,7.3703479   L 5.1991882,8.0454943   L 4.9934649,8.4018216   L 4.8064437,8.7581488   L 4.6381247,9.1332301   L 4.4885078,9.5270655   L 4.357593,9.9021468   L 4.2453803,10.314736   L 4.1518697,10.727326   L 4.0770612,11.139915   L 4.0209549,11.552505   L 3.9835506,12.415192   L 3.9835506,45.272315   L 4.0209549,46.135002   L 4.0770612,46.547592   L 4.1518697,46.960181   L 4.2453803,47.372771   L 4.357593,47.78536   L 4.4885078,48.160441   L 4.6381247,48.554277   L 4.8064437,48.929358   L 4.9934649,49.285685   L 5.1991882,49.642013   L 5.6480389,50.317159   L 5.9098686,50.635978   L 6.1716982,50.936043   L 6.4522299,51.236108   L 6.7327616,51.498665   L 7.0319955,51.761222   L 7.3499315,52.023779   L 8.0232076,52.473877   L 8.3785478,52.680171   L 8.733888,52.867712   L 9.1079303,53.036499   L 9.5006748,53.186531   L 9.8747171,53.31781   L 10.286164,53.430334   L 10.69761,53.524104   L 11.109057,53.599121   L 11.520503,53.655383   L 12.380801,53.692891   L 45.146907,53.692891   L 46.007205,53.655383   L 46.418651,53.599121   L 46.830098,53.524104   L 47.241544,53.430334   L 47.652991,53.31781   L 48.027033,53.186531   L 48.419777,53.036499   L 48.79382,52.867712   L 49.14916,52.680171   L 49.5045,52.473877   L 50.177776,52.023779   L 50.495712,51.761222   L 51.09418,51.236108   L 51.617839,50.635978   L 51.879669,50.317159   L 52.32852,49.642013   L 52.534243,49.285685   L 52.721264,48.929358   L 52.889583,48.554277   L 53.0392,48.160441   L 53.170115,47.78536   L 53.282328,47.372771   L 53.375838,46.960181   L 53.450647,46.547592   L 53.506753,46.135002   L 53.544157,45.272315   L 53.544157,12.415192   z "
     id="path9" />
  <path
     style="fill:#000000;fill-rule:evenodd;fill-opacity:1;stroke:#000000;stroke-width:0.018702116px;stroke-linecap:round;stroke-linejoin:round;stroke-miterlimit:4;stroke-dasharray:none;stroke-opacity:1;"
     d="  M 20.029966,27.924804   L 20.011264,27.924804   L 20.011264,27.90605   L 19.992562,27.90605   L 19.992562,27.887296   L 19.97386,27.887296   L 19.97386,27.849788   L 19.955157,27.849788   L 19.955157,26.086906   L 19.97386,26.086906   L 19.97386,26.049398   L 19.992562,26.049398   L 19.992562,26.030644   L 20.011264,26.030644   L 20.011264,26.01189   L 22.068496,26.01189   L 22.068496,26.030644   L 22.087199,26.030644   L 22.087199,26.049398   L 22.105901,26.049398   L 22.105901,26.086906   L 22.124603,26.086906   L 22.124603,26.424479   L 22.105901,26.424479   L 22.105901,26.386971   L 22.087199,26.386971   L 22.087199,26.368217   L 20.42271,26.368217   L 20.404008,26.386971   L 20.404008,26.405725   L 20.385306,26.405725   L 20.385306,27.868542   L 20.404008,27.868542   L 20.404008,27.90605   L 20.42271,27.90605   L 20.42271,27.924804   L 20.048668,27.924804   L 20.029966,27.924804   z "
     id="path11" />
  <path
     style="fill:#000000;fill-rule:evenodd;fill-opacity:1;stroke:#000000;stroke-width:0.018702116px;stroke-linecap:round;stroke-linejoin:round;stroke-miterlimit:4;stroke-dasharray:none;stroke-opacity:1;"
     d="  M 21.974986,26.837068   L 20.516221,26.837068   L 20.516221,26.818314   L 20.497519,26.818314   L 20.478817,26.79956   L 20.478817,26.780806   L 20.460115,26.780806   L 20.460115,26.743298   L 20.441412,26.743298   L 20.441412,27.137133   L 20.460115,27.137133   L 20.460115,27.155888   L 20.478817,27.155888   L 20.478817,27.174642   L 20.497519,27.174642   L 20.497519,27.193396   L 22.031092,27.193396   L 22.049794,27.174642   L 22.068496,27.174642   L 22.068496,27.155888   L 22.087199,27.137133   L 22.087199,27.118379   L 22.105901,27.118379   L 22.105901,27.099625   L 22.124603,27.080871   L 22.124603,26.930839   L 22.105901,26.930839   L 22.105901,26.912085   L 22.087199,26.893331   L 22.087199,26.874577   L 22.049794,26.874577   L 22.049794,26.855823   L 22.01239,26.855823   L 22.01239,26.837068   L 21.993688,26.837068   L 21.974986,26.837068   z "
     id="path13" />
  <path
     style="fill:#000000;fill-rule:evenodd;fill-opacity:1;stroke:#000000;stroke-width:0.018702116px;stroke-linecap:round;stroke-linejoin:round;stroke-miterlimit:4;stroke-dasharray:none;stroke-opacity:1;"
     d="  M 25.416175,27.21215   L 25.397473,27.21215   L 25.397473,27.193396   L 25.378771,27.193396   L 25.378771,27.174642   L 25.360069,27.174642   L 25.360069,27.137133   L 25.341367,27.137133   L 25.341367,26.762052   L 25.360069,26.762052   L 25.360069,26.780806   L 25.378771,26.780806   L 25.378771,26.79956   L 26.594408,26.79956   L 26.594408,26.368217   L 25.322665,26.368217   L 25.303963,26.386971   L 25.28526,26.386971   L 25.28526,26.405725   L 25.266558,26.405725   L 25.266558,26.443233   L 25.247856,26.443233   L 25.247856,27.849788   L 25.266558,27.849788   L 25.266558,27.887296   L 25.28526,27.887296   L 25.28526,27.90605   L 25.303963,27.90605   L 25.303963,27.924804   L 24.911218,27.924804   L 24.911218,27.90605   L 24.873814,27.90605   L 24.873814,27.887296   L 24.855112,27.887296   L 24.855112,27.868542   L 24.83641,27.868542   L 24.83641,27.831034   L 24.817708,27.831034   L 24.817708,26.10566   L 24.83641,26.10566   L 24.83641,26.068152   L 24.855112,26.068152   L 24.855112,26.049398   L 24.873814,26.049398   L 24.873814,26.030644   L 24.911218,26.030644   L 24.911218,26.01189   L 26.949749,26.01189   L 26.949749,26.030644   L 26.968451,26.030644   L 26.968451,26.049398   L 26.987153,26.049398   L 26.987153,26.068152   L 27.005855,26.068152   L 27.005855,26.10566   L 27.024557,26.10566   L 27.024557,27.080871   L 27.005855,27.080871   L 27.005855,27.118379   L 26.987153,27.118379   L 26.987153,27.137133   L 26.968451,27.137133   L 26.968451,27.155888   L 26.949749,27.155888   L 26.949749,27.174642   L 26.912344,27.21215   L 26.931047,27.21215   L 26.931047,27.230904   L 26.949749,27.230904   L 26.987153,27.268412   L 26.987153,27.287166   L 27.005855,27.287166   L 27.005855,27.324674   L 27.024557,27.324674   L 27.024557,27.868542   L 27.043259,27.868542   L 27.043259,27.90605   L 27.061961,27.90605   L 27.080664,27.924804   L 26.687919,27.924804   L 26.669217,27.90605   L 26.650515,27.90605   L 26.650515,27.887296   L 26.631813,27.887296   L 26.631813,27.868542   L 26.613111,27.868542   L 26.613111,27.831034   L 26.594408,27.831034   L 26.594408,27.21215   L 25.434877,27.21215   L 25.416175,27.21215   z "
     id="path15" />
  <path
     style="fill:#000000;fill-rule:evenodd;fill-opacity:1;stroke:#000000;stroke-width:0.018702116px;stroke-linecap:round;stroke-linejoin:round;stroke-miterlimit:4;stroke-dasharray:none;stroke-opacity:1;"
     d="  M 27.810046,26.368217   L 27.323791,26.368217   L 27.323791,26.349463   L 27.305089,26.349463   L 27.305089,26.311955   L 27.286387,26.311955   L 27.286387,26.086906   L 27.305089,26.086906   L 27.305089,26.049398   L 27.323791,26.049398   L 27.323791,26.030644   L 27.342493,26.030644   L 27.342493,26.01189   L 29.399726,26.01189   L 29.399726,26.030644   L 29.418428,26.030644   L 29.418428,26.049398   L 29.43713,26.049398   L 29.43713,26.086906   L 29.455832,26.086906   L 29.455832,26.424479   L 29.43713,26.424479   L 29.43713,26.386971   L 29.418428,26.386971   L 29.418428,26.368217   L 28.296301,26.368217   L 28.277599,26.386971   L 28.277599,26.405725   L 28.258897,26.405725   L 28.258897,27.90605   L 28.277599,27.90605   L 28.277599,27.924804   L 27.884854,27.924804   L 27.884854,27.90605   L 27.84745,27.90605   L 27.84745,27.887296   L 27.828748,27.868542   L 27.828748,27.849788   L 27.810046,27.849788   L 27.810046,26.405725   L 27.810046,26.368217   z "
     id="path17" />
  <path
     style="fill:#000000;fill-rule:evenodd;fill-opacity:1;stroke:#000000;stroke-width:0.018702116px;stroke-linecap:round;stroke-linejoin:round;stroke-miterlimit:4;stroke-dasharray:none;stroke-opacity:1;"
     d="  M 30.166513,27.81228   L 30.166513,27.90605   L 30.185215,27.90605   L 30.185215,27.924804   L 29.79247,27.924804   L 29.79247,27.90605   L 29.755066,27.90605   L 29.755066,27.887296   L 29.736364,27.868542   L 29.736364,27.849788   L 29.717662,27.849788   L 29.717662,26.086906   L 29.69896,26.086906   L 29.69896,26.049398   L 29.680258,26.049398   L 29.680258,26.030644   L 29.661555,26.030644   L 29.661555,26.01189   L 30.073002,26.01189   L 30.073002,26.030644   L 30.110406,26.030644   L 30.110406,26.049398   L 30.129108,26.049398   L 30.129108,26.068152   L 30.14781,26.068152   L 30.14781,26.10566   L 30.166513,26.10566   L 30.166513,27.793526   L 30.166513,27.81228   z "
     id="path19" />
  <path
     style="fill:#000000;fill-rule:evenodd;fill-opacity:1;stroke:#000000;stroke-width:0.018702116px;stroke-linecap:round;stroke-linejoin:round;stroke-miterlimit:4;stroke-dasharray:none;stroke-opacity:1;"
     d="  M 32.26115,26.368217   L 30.989406,26.368217   L 30.970704,26.386971   L 30.952001,26.386971   L 30.952001,26.405725   L 30.933299,26.405725   L 30.933299,26.443233   L 30.914597,26.443233   L 30.914597,27.849788   L 30.933299,27.849788   L 30.933299,27.887296   L 30.952001,27.887296   L 30.952001,27.90605   L 30.970704,27.90605   L 30.970704,27.924804   L 30.577959,27.924804   L 30.577959,27.90605   L 30.540555,27.90605   L 30.540555,27.887296   L 30.521853,27.887296   L 30.521853,27.868542   L 30.503151,27.868542   L 30.503151,27.831034   L 30.484449,27.831034   L 30.484449,26.10566   L 30.503151,26.10566   L 30.503151,26.068152   L 30.521853,26.068152   L 30.521853,26.049398   L 30.540555,26.049398   L 30.540555,26.030644   L 30.577959,26.030644   L 30.577959,26.01189   L 32.61649,26.01189   L 32.61649,26.030644   L 32.635192,26.030644   L 32.635192,26.049398   L 32.653894,26.049398   L 32.653894,26.068152   L 32.672596,26.068152   L 32.672596,26.10566   L 32.691298,26.10566   L 32.691298,27.868542   L 32.71,27.868542   L 32.71,27.90605   L 32.728702,27.90605   L 32.747405,27.924804   L 32.35466,27.924804   L 32.335958,27.90605   L 32.317256,27.90605   L 32.317256,27.887296   L 32.298554,27.887296   L 32.298554,27.868542   L 32.279852,27.868542   L 32.279852,27.831034   L 32.26115,27.831034   L 32.26115,26.405725   L 32.26115,26.368217   z "
     id="path21" />
  <path
     style="fill:#000000;fill-rule:evenodd;fill-opacity:1;stroke:#000000;stroke-width:0.018702116px;stroke-linecap:round;stroke-linejoin:round;stroke-miterlimit:4;stroke-dasharray:none;stroke-opacity:1;"
     d="  M 34.898148,26.837068   L 33.532893,26.837068   L 33.532893,26.818314   L 33.514191,26.818314   L 33.495489,26.79956   L 33.495489,26.780806   L 33.476787,26.780806   L 33.476787,26.743298   L 33.458085,26.743298   L 33.458085,27.137133   L 33.476787,27.137133   L 33.476787,27.155888   L 33.495489,27.155888   L 33.495489,27.174642   L 33.514191,27.174642   L 33.514191,27.193396   L 34.898148,27.193396   L 34.91685,27.174642   L 34.935552,27.174642   L 34.954254,27.155888   L 34.954254,27.137133   L 34.991658,27.099625   L 34.991658,27.080871   L 35.010361,27.062117   L 35.010361,27.043363   L 35.029063,27.024609   L 35.029063,26.949593   L 35.010361,26.930839   L 35.010361,26.893331   L 34.991658,26.893331   L 34.991658,26.874577   L 34.972956,26.874577   L 34.954254,26.855823   L 34.935552,26.855823   L 34.91685,26.837068   L 34.898148,26.837068   z "
     id="path23" />
  <path
     style="fill:#000000;fill-rule:evenodd;fill-opacity:1;stroke:#000000;stroke-width:0.018702116px;stroke-linecap:round;stroke-linejoin:round;stroke-miterlimit:4;stroke-dasharray:none;stroke-opacity:1;"
     d="  M 35.926764,26.368217   L 35.440509,26.368217   L 35.440509,26.349463   L 35.421807,26.349463   L 35.421807,26.311955   L 35.403105,26.311955   L 35.403105,26.086906   L 35.421807,26.086906   L 35.421807,26.049398   L 35.440509,26.049398   L 35.440509,26.030644   L 35.459211,26.030644   L 35.459211,26.01189   L 37.516444,26.01189   L 37.516444,26.030644   L 37.535146,26.030644   L 37.535146,26.049398   L 37.553848,26.049398   L 37.553848,26.086906   L 37.57255,26.086906   L 37.57255,26.424479   L 37.553848,26.424479   L 37.553848,26.386971   L 37.535146,26.386971   L 37.535146,26.368217   L 36.413019,26.368217   L 36.394317,26.386971   L 36.394317,26.405725   L 36.375615,26.405725   L 36.375615,27.90605   L 36.394317,27.90605   L 36.394317,27.924804   L 36.001573,27.924804   L 36.001573,27.90605   L 35.964168,27.90605   L 35.964168,27.887296   L 35.945466,27.868542   L 35.945466,27.849788   L 35.926764,27.849788   L 35.926764,26.405725   L 35.926764,26.368217   z "
     id="path25" />
  <path
     style="fill:#000000;fill-rule:evenodd;fill-opacity:1;stroke:#000000;stroke-width:0.018702116px;stroke-linecap:round;stroke-linejoin:round;stroke-miterlimit:4;stroke-dasharray:none;stroke-opacity:1;"
     d="  M 35.047765,27.568477   L 35.085169,27.568477   L 35.085169,27.549723   L 35.103871,27.549723   L 35.103871,27.512215   L 35.122573,27.512215   L 35.122573,27.849788   L 35.103871,27.849788   L 35.103871,27.887296   L 35.085169,27.887296   L 35.085169,27.90605   L 35.066467,27.90605   L 35.066467,27.924804   L 33.009234,27.924804   L 33.009234,27.90605   L 32.990532,27.90605   L 32.990532,27.887296   L 32.97183,27.887296   L 32.97183,27.849788   L 32.953128,27.849788   L 32.953128,26.086906   L 32.97183,26.086906   L 32.97183,26.049398   L 32.990532,26.049398   L 32.990532,26.030644   L 33.009234,26.030644   L 33.009234,26.01189   L 35.066467,26.01189   L 35.066467,26.030644   L 35.085169,26.030644   L 35.085169,26.049398   L 35.103871,26.049398   L 35.103871,26.086906   L 35.122573,26.086906   L 35.122573,26.424479   L 35.103871,26.424479   L 35.103871,26.386971   L 35.085169,26.386971   L 35.085169,26.368217   L 33.420681,26.368217   L 33.401979,26.386971   L 33.401979,26.405725   L 33.383276,26.405725   L 33.383276,27.568477   L 35.029063,27.568477   L 35.047765,27.568477   z "
     id="path27" />
  <path
     style="fill:#000000;fill-rule:evenodd;fill-opacity:1;stroke:#000000;stroke-width:0.018702116px;stroke-linecap:round;stroke-linejoin:round;stroke-miterlimit:4;stroke-dasharray:none;stroke-opacity:1;"
     d="  M 23.134517,27.362182   L 23.134517,27.90605   L 23.845197,27.90605   L 23.845197,27.362182   L 23.134517,27.362182   z "
     id="path29" />
  <path
     style="fill:#000000;fill-rule:evenodd;fill-opacity:1;stroke:#000000;stroke-width:0.018702116px;stroke-linecap:round;stroke-linejoin:round;stroke-miterlimit:4;stroke-dasharray:none;stroke-opacity:1;"
     d="  M 22.442539,26.70579   L 23.022304,26.70579   L 23.022304,27.230904   L 22.442539,27.230904   L 22.442539,26.70579   z "
     id="path31" />
  <path
     style="fill:#000000;fill-rule:evenodd;fill-opacity:1;stroke:#000000;stroke-width:0.018702116px;stroke-linecap:round;stroke-linejoin:round;stroke-miterlimit:4;stroke-dasharray:none;stroke-opacity:1;"
     d="  M 24.013517,27.380936   L 24.013517,27.924804   L 24.237942,27.924804   L 24.275346,27.90605   L 24.31275,27.90605   L 24.331452,27.887296   L 24.368857,27.887296   L 24.406261,27.849788   L 24.424963,27.849788   L 24.499772,27.774772   L 24.499772,27.737264   L 24.518474,27.71851   L 24.537176,27.681001   L 24.537176,27.662247   L 24.57458,27.587231   L 24.57458,27.512215   L 24.593282,27.474707   L 24.593282,27.380936   L 24.032219,27.380936   L 24.013517,27.380936   z "
     id="path33" />
  <path
     style="fill:#000000;fill-rule:evenodd;fill-opacity:1;stroke:#000000;stroke-width:0.018702116px;stroke-linecap:round;stroke-linejoin:round;stroke-miterlimit:4;stroke-dasharray:none;stroke-opacity:1;"
     d="  M 24.013517,26.70579   L 24.593282,26.70579   L 24.593282,27.230904   L 24.013517,27.230904   L 24.013517,26.70579   z "
     id="path35" />
  <path
     style="fill:#000000;fill-rule:evenodd;fill-opacity:1;stroke:#000000;stroke-width:0.018702116px;stroke-linecap:round;stroke-linejoin:round;stroke-miterlimit:4;stroke-dasharray:none;stroke-opacity:1;"
     d="  M 23.022304,27.380936   L 23.022304,27.924804   L 22.779177,27.924804   L 22.760475,27.90605   L 22.723071,27.90605   L 22.685666,27.887296   L 22.666964,27.887296   L 22.62956,27.849788   L 22.610858,27.849788   L 22.536049,27.774772   L 22.517347,27.737264   L 22.498645,27.71851   L 22.498645,27.681001   L 22.479943,27.662247   L 22.479943,27.624739   L 22.461241,27.587231   L 22.461241,27.549723   L 22.442539,27.512215   L 22.442539,27.380936   L 23.003602,27.380936   L 23.022304,27.380936   z "
     id="path37" />
  <path
     style="fill:#000000;fill-rule:evenodd;fill-opacity:1;stroke:#000000;stroke-width:0.018702116px;stroke-linecap:round;stroke-linejoin:round;stroke-miterlimit:4;stroke-dasharray:none;stroke-opacity:1;"
     d="  M 23.134517,26.01189   L 23.134517,26.555757   L 23.845197,26.555757   L 23.845197,26.01189   L 23.134517,26.01189   z "
     id="path39" />
  <path
     style="fill:#000000;fill-rule:evenodd;fill-opacity:1;stroke:#000000;stroke-width:0.018702116px;stroke-linecap:round;stroke-linejoin:round;stroke-miterlimit:4;stroke-dasharray:none;stroke-opacity:1;"
     d="  M 24.013517,26.555757   L 24.013517,26.01189   L 24.237942,26.01189   L 24.275346,26.030644   L 24.31275,26.030644   L 24.331452,26.049398   L 24.368857,26.049398   L 24.406261,26.086906   L 24.424963,26.086906   L 24.499772,26.161922   L 24.499772,26.19943   L 24.518474,26.218184   L 24.537176,26.255692   L 24.537176,26.274446   L 24.57458,26.349463   L 24.57458,26.424479   L 24.593282,26.461987   L 24.593282,26.555757   L 24.032219,26.555757   L 24.013517,26.555757   z "
     id="path41" />
  <path
     style="fill:#000000;fill-rule:evenodd;fill-opacity:1;stroke:#000000;stroke-width:0.018702116px;stroke-linecap:round;stroke-linejoin:round;stroke-miterlimit:4;stroke-dasharray:none;stroke-opacity:1;"
     d="  M 23.022304,26.555757   L 23.022304,26.01189   L 22.779177,26.01189   L 22.760475,26.030644   L 22.723071,26.030644   L 22.685666,26.049398   L 22.666964,26.049398   L 22.62956,26.086906   L 22.610858,26.086906   L 22.536049,26.161922   L 22.517347,26.19943   L 22.498645,26.218184   L 22.498645,26.255692   L 22.479943,26.274446   L 22.479943,26.311955   L 22.461241,26.349463   L 22.461241,26.386971   L 22.442539,26.424479   L 22.442539,26.555757   L 23.003602,26.555757   L 23.022304,26.555757   z "
     id="path43" />
  <text
     xml:space="preserve"
     style="font-size:1.812500px;font-style:normal;font-variant:normal;font-weight:400;font-stretch:Normal;line-height:125.000000%;letter-spacing:0px;word-spacing:0px;fill:#000000;fill-opacity:1;stroke:none;font-family:Arial;text-align:start;text-anchor:start;"
     transform="matrix(1.000000,-0.000000,0.000000,1.000000,21.189497,30.756668)"
     x="0.000000"
     y="0.000000"
     id="text81"><tspan
       x="0.000000"
       y="0.000000"
       id="tspan79"><tspan
         dx="0.000000"
         dy="0.000000"
         style="fill:#000000;font-size:1.812500px;font-style:normal;font-variant:normal;font-weight:400;font-stretch:Normal;font-family:Arial;"
         id="tspan45">F</tspan><tspan
         dx="0.000000"
         dy="0.000000"
         style="fill:#000000;font-size:1.812500px;font-style:normal;font-variant:normal;font-weight:400;font-stretch:Normal;font-family:Arial;"
         id="tspan47">o</tspan><tspan
         dx="0.000000"
         dy="0.000000"
         style="fill:#000000;font-size:1.812500px;font-style:normal;font-variant:normal;font-weight:400;font-stretch:Normal;font-family:Arial;"
         id="tspan49">r</tspan><tspan
         dx="0.000000"
         dy="0.000000"
         style="fill:#000000;font-size:1.812500px;font-style:normal;font-variant:normal;font-weight:400;font-stretch:Normal;font-family:Arial;"
         id="tspan51">t</tspan><tspan
         dx="0.000000"
         dy="0.000000"
         style="fill:#000000;font-size:1.812500px;font-style:normal;font-variant:normal;font-weight:400;font-stretch:Normal;font-family:Arial;"
         id="tspan53">i</tspan><tspan
         dx="0.000000"
         dy="0.000000"
         style="fill:#000000;font-size:1.812500px;font-style:normal;font-variant:normal;font-weight:400;font-stretch:Normal;font-family:Arial;"
         id="tspan55">A</tspan><tspan
         dx="0.000000"
         dy="0.000000"
         style="fill:#000000;font-size:1.812500px;font-style:normal;font-variant:normal;font-weight:400;font-stretch:Normal;font-family:Arial;"
         id="tspan57">P</tspan><tspan
         dx="0.000000"
         dy="0.000000"
         style="fill:#000000;font-size:1.812500px;font-style:normal;font-variant:normal;font-weight:400;font-stretch:Normal;font-family:Arial;"
         id="tspan59"> </tspan><tspan
         dx="0.000000"
         dy="0.000000"
         style="fill:#000000;font-size:1.812500px;font-style:normal;font-variant:normal;font-weight:400;font-stretch:Normal;font-family:Arial;"
         id="tspan61">2</tspan><tspan
         dx="0.000000"
         dy="0.000000"
         style="fill:#000000;font-size:1.812500px;font-style:normal;font-variant:normal;font-weight:400;font-stretch:Normal;font-family:Arial;"
         id="tspan63">3</tspan><tspan
         dx="0.000000"
         dy="0.000000"
         style="fill:#000000;font-size:1.812500px;font-style:normal;font-variant:normal;font-weight:400;font-stretch:Normal;font-family:Arial;"
         id="tspan65">x</tspan><tspan
         dx="0.000000"
         dy="0.000000"
         style="fill:#000000;font-size:1.812500px;font-style:normal;font-variant:normal;font-weight:400;font-stretch:Normal;font-family:Arial;"
         id="tspan67">F</tspan><tspan
         dx="0.000000"
         dy="0.000000"
         style="fill:#000000;font-size:1.812500px;font-style:normal;font-variant:normal;font-weight:400;font-stretch:Normal;font-family:Arial;"
         id="tspan69">/</tspan><tspan
         dx="0.000000"
         dy="0.000000"
         style="fill:#000000;font-size:1.812500px;font-style:normal;font-variant:normal;font-weight:400;font-stretch:Normal;font-family:Arial;"
         id="tspan71">4</tspan><tspan
         dx="0.000000"
         dy="0.000000"
         style="fill:#000000;font-size:1.812500px;font-style:normal;font-variant:normal;font-weight:400;font-stretch:Normal;font-family:Arial;"
         id="tspan73">3</tspan><tspan
         dx="0.000000"
         dy="0.000000"
         style="fill:#000000;font-size:1.812500px;font-style:normal;font-variant:normal;font-weight:400;font-stretch:Normal;font-family:Arial;"
         id="tspan75">x</tspan><tspan
         dx="0.000000"
         dy="0.000000"
         style="fill:#000000;font-size:1.812500px;font-style:normal;font-variant:normal;font-weight:400;font-stretch:Normal;font-family:Arial;"
         id="tspan77">F</tspan></tspan></text>
  <text
     xml:space="preserve"
     style="font-size:0.625000px;font-style:normal;font-variant:normal;font-weight:400;font-stretch:Condensed;line-height:125.000000%;letter-spacing:0px;word-spacing:0px;fill:#000000;fill-opacity:1;stroke:none;font-family:Times New Roman;text-align:start;text-anchor:start;"
     transform="matrix(1.000000,-0.000000,0.000000,1.000000,21.189497,30.756668)"
     x="15.747181"
     y="-2.850618"
     id="text87"><tspan
       x="15.747181"
       y="-2.850618"
       id="tspan85"><tspan
         dx="0.000000"
         dy="0.000000"
         style="fill:#000000;font-size:0.625000px;font-style:normal;font-variant:normal;font-weight:400;font-stretch:Condensed;font-family:Times New Roman;"
         id="tspan83">®</tspan></tspan></text>
  <path
     style="fill:none;stroke:#000000;stroke-width:0.056106348px;stroke-linecap:round;stroke-linejoin:round;stroke-miterlimit:4;stroke-dasharray:none;stroke-opacity:1;"
     d="  M 36.113785,50.242143   L 36.618742,49.717029   L 36.375615,49.473226   L 36.375615,50.485946   L 36.618742,50.242143   L 36.095083,49.717029  "
     id="path89" />
  <path
     style="fill:#000000;fill-rule:evenodd;fill-opacity:1;stroke:#000000;stroke-width:0.018702116px;stroke-linecap:round;stroke-linejoin:round;stroke-miterlimit:4;stroke-dasharray:none;stroke-opacity:1;"
     d="  M 21.488731,49.698275   L 21.507433,49.698275   L 21.507433,49.717029   L 21.526135,49.717029   L 21.544837,49.735783   L 21.563539,49.735783   L 21.619646,49.792045   L 21.619646,49.810799   L 21.638348,49.810799   L 21.638348,49.829553   L 21.65705,49.848307   L 21.65705,49.867061   L 21.675752,49.885816   L 21.675752,49.942078   L 21.694454,49.960832   L 21.694454,50.129618   L 21.675752,50.148372   L 21.675752,50.204635   L 21.65705,50.223389   L 21.65705,50.242143   L 21.638348,50.260897   L 21.638348,50.279651   L 21.619646,50.298405   L 21.619646,50.317159   L 21.600944,50.317159   L 21.582241,50.335913   L 21.582241,50.354667   L 21.563539,50.354667   L 21.507433,50.410929   L 21.470029,50.410929   L 21.451327,50.429683   L 21.413922,50.429683   L 21.39522,50.448438   L 21.208199,50.448438   L 21.189497,50.429683   L 21.152093,50.429683   L 21.133391,50.410929   L 21.095986,50.410929   L 21.03988,50.354667   L 21.021178,50.354667   L 21.021178,50.335913   L 21.002476,50.317159   L 20.983774,50.317159   L 20.983774,50.298405   L 20.965072,50.279651   L 20.965072,50.260897   L 20.94637,50.242143   L 20.94637,50.223389   L 20.927667,50.204635   L 20.927667,50.148372   L 20.908965,50.129618   L 20.908965,49.960832   L 20.927667,49.942078   L 20.927667,49.885816   L 20.94637,49.885816   L 20.94637,49.848307   L 20.965072,49.829553   L 20.965072,49.810799   L 20.983774,49.810799   L 20.983774,49.792045   L 21.002476,49.773291   L 21.002476,49.754537   L 21.021178,49.754537   L 21.058582,49.717029   L 21.058582,49.735783   L 21.077284,49.735783   L 21.077284,49.754537   L 21.095986,49.754537   L 21.095986,49.773291   L 21.114689,49.773291   L 21.114689,49.792045   L 21.095986,49.792045   L 21.095986,49.810799   L 21.077284,49.810799   L 21.021178,49.867061   L 21.021178,49.885816   L 21.002476,49.90457   L 21.002476,49.923324   L 20.983774,49.923324   L 20.983774,49.979586   L 20.965072,49.979586   L 20.965072,50.129618   L 20.983774,50.129618   L 20.983774,50.185881   L 21.021178,50.223389   L 21.021178,50.242143   L 21.03988,50.242143   L 21.03988,50.260897   L 21.077284,50.298405   L 21.095986,50.298405   L 21.095986,50.317159   L 21.114689,50.317159   L 21.133391,50.335913   L 21.152093,50.335913   L 21.170795,50.354667   L 21.208199,50.354667   L 21.208199,50.373421   L 21.39522,50.373421   L 21.39522,50.354667   L 21.432625,50.354667   L 21.451327,50.335913   L 21.470029,50.335913   L 21.488731,50.317159   L 21.507433,50.317159   L 21.507433,50.298405   L 21.526135,50.298405   L 21.563539,50.260897   L 21.563539,50.242143   L 21.582241,50.242143   L 21.582241,50.223389   L 21.619646,50.185881   L 21.619646,50.129618   L 21.638348,50.129618   L 21.638348,49.979586   L 21.619646,49.979586   L 21.619646,49.923324   L 21.600944,49.923324   L 21.600944,49.885816   L 21.582241,49.885816   L 21.582241,49.867061   L 21.563539,49.848307   L 21.563539,49.829553   L 21.544837,49.829553   L 21.544837,49.810799   L 21.526135,49.810799   L 21.507433,49.792045   L 21.488731,49.792045   L 21.488731,49.773291   L 21.470029,49.773291   L 21.470029,49.735783   L 21.488731,49.735783   L 21.488731,49.717029   L 21.488731,49.698275   z "
     id="path91" />
  <path
     style="fill:#000000;fill-rule:evenodd;fill-opacity:1;stroke:#000000;stroke-width:0.018702116px;stroke-linecap:round;stroke-linejoin:round;stroke-miterlimit:4;stroke-dasharray:none;stroke-opacity:1;"
     d="  M 21.339114,49.510734   L 21.245603,49.510734   L 21.245603,50.073356   L 21.339114,50.073356   L 21.339114,49.510734   z "
     id="path93" />
  <path
     style="fill:none;stroke:#000000;stroke-width:0.056106348px;stroke-linecap:round;stroke-linejoin:round;stroke-miterlimit:4;stroke-dasharray:none;stroke-opacity:1;"
     d="  M 33.102745,50.204635   L 33.158851,50.148372   L 33.177553,50.110864   L 33.214957,50.09211   L 33.23366,50.054602   L 33.252362,50.035848   L 33.271064,49.99834   L 33.271064,49.979586   L 33.308468,49.90457   L 33.308468,49.848307   L 33.32717,49.829553   L 33.32717,49.735783   L 33.308468,49.717029   L 33.308468,49.660767   L 33.289766,49.623259   L 33.289766,49.604505   L 33.271064,49.566996   L 33.271064,49.548242   L 33.252362,49.529488   L 33.23366,49.49198   L 33.196255,49.454472   L 33.177553,49.416964   L 33.121447,49.360702   L 33.102745,49.341948  "
     id="path95" />
  <path
     style="fill:none;stroke:#000000;stroke-width:0.056106348px;stroke-linecap:round;stroke-linejoin:round;stroke-miterlimit:4;stroke-dasharray:none;stroke-opacity:1;"
     d="  M 32.990532,50.110864   L 33.046638,50.054602   L 33.065341,50.017094   L 33.065341,49.99834   L 33.102745,49.960832   L 33.102745,49.942078   L 33.121447,49.90457   L 33.121447,49.848307   L 33.140149,49.810799   L 33.140149,49.754537   L 33.121447,49.735783   L 33.121447,49.660767   L 33.102745,49.642013   L 33.102745,49.604505   L 33.084043,49.58575   L 33.084043,49.566996   L 33.046638,49.529488   L 33.046638,49.510734   L 33.009234,49.473226   L 33.009234,49.454472   L 32.990532,49.435718  "
     id="path97" />
  <path
     style="fill:none;stroke:#000000;stroke-width:0.056106348px;stroke-linecap:round;stroke-linejoin:round;stroke-miterlimit:4;stroke-dasharray:none;stroke-opacity:1;"
     d="  M 32.878319,50.017094   L 32.915724,49.979586   L 32.915724,49.960832   L 32.934426,49.960832   L 32.953128,49.942078   L 32.953128,49.923324   L 32.97183,49.90457   L 32.97183,49.885816   L 32.990532,49.867061   L 32.990532,49.679521   L 32.97183,49.679521   L 32.97183,49.642013   L 32.934426,49.604505   L 32.934426,49.58575   L 32.897021,49.548242   L 32.878319,49.529488  "
     id="path99" />
  <path
     style="fill:none;stroke:#000000;stroke-width:0.056106348px;stroke-linecap:round;stroke-linejoin:round;stroke-miterlimit:4;stroke-dasharray:none;stroke-opacity:1;"
     d="  M 32.317256,50.204635   L 32.26115,50.148372   L 32.242447,50.110864   L 32.205043,50.09211   L 32.186341,50.054602   L 32.167639,50.035848   L 32.148937,49.99834   L 32.148937,49.979586   L 32.111533,49.90457   L 32.111533,49.848307   L 32.092831,49.829553   L 32.092831,49.735783   L 32.111533,49.717029   L 32.111533,49.660767   L 32.130235,49.623259   L 32.130235,49.604505   L 32.148937,49.566996   L 32.148937,49.548242   L 32.167639,49.529488   L 32.186341,49.49198   L 32.223745,49.454472   L 32.242447,49.416964   L 32.298554,49.360702   L 32.317256,49.341948  "
     id="path101" />
  <path
     style="fill:none;stroke:#000000;stroke-width:0.056106348px;stroke-linecap:round;stroke-linejoin:round;stroke-miterlimit:4;stroke-dasharray:none;stroke-opacity:1;"
     d="  M 32.429469,50.110864   L 32.373362,50.054602   L 32.35466,50.017094   L 32.335958,49.99834   L 32.335958,49.979586   L 32.317256,49.960832   L 32.317256,49.942078   L 32.298554,49.90457   L 32.298554,49.867061   L 32.279852,49.848307   L 32.279852,49.717029   L 32.298554,49.679521   L 32.298554,49.642013   L 32.317256,49.623259   L 32.317256,49.604505   L 32.335958,49.58575   L 32.335958,49.566996   L 32.35466,49.548242   L 32.35466,49.529488   L 32.392064,49.49198   L 32.392064,49.473226   L 32.410766,49.454472   L 32.429469,49.435718  "
     id="path103" />
  <path
     style="fill:none;stroke:#000000;stroke-width:0.056106348px;stroke-linecap:round;stroke-linejoin:round;stroke-miterlimit:4;stroke-dasharray:none;stroke-opacity:1;"
     d="  M 32.522979,50.017094   L 32.485575,49.979586   L 32.485575,49.960832   L 32.466873,49.960832   L 32.448171,49.942078   L 32.448171,49.923324   L 32.429469,49.90457   L 32.429469,49.885816   L 32.410766,49.867061   L 32.410766,49.679521   L 32.429469,49.679521   L 32.429469,49.642013   L 32.466873,49.604505   L 32.466873,49.58575   L 32.504277,49.548242   L 32.522979,49.529488  "
     id="path105" />
  <ellipse
     style="fill:#000000;fill-rule:evenodd;fill-opacity:1;stroke:#000000;stroke-width:0.018702116px;stroke-linecap:round;stroke-linejoin:round;stroke-miterlimit:4;stroke-dasharray:none;stroke-opacity:1;"
     cx="32.625841"
     cy="49.688898"
     rx="0.065457405"
     ry="0.065457405"
     id="ellipse107" />
  <ellipse
     style="fill:none;stroke:#000000;stroke-width:0.018702116px;stroke-linecap:round;stroke-linejoin:round;stroke-miterlimit:4;stroke-dasharray:none;stroke-opacity:1;"
     cx="32.625841"
     cy="49.688898"
     rx="0.065457405"
     ry="0.065457405"
     id="ellipse109" />
  <path
     style="fill:#000000;fill-rule:evenodd;fill-opacity:1;stroke:#000000;stroke-width:0.018702116px;stroke-linecap:round;stroke-linejoin:round;stroke-miterlimit:4;stroke-dasharray:none;stroke-opacity:1;"
     d="  M 32.766107,49.754537   L 32.653894,49.754537   L 32.653894,50.467192   L 32.766107,50.467192   L 32.766107,49.754537   z "
     id="path111" />
  <path
     style="fill:none;stroke:#000000;stroke-width:0.018702116px;stroke-linecap:round;stroke-linejoin:round;stroke-miterlimit:4;stroke-dasharray:none;stroke-opacity:1;"
     d="  M 29.306215,49.960832   L 28.071876,49.960832  "
     id="path113" />
  <path
     style="fill:none;stroke:#000000;stroke-width:0.018702116px;stroke-linecap:round;stroke-linejoin:round;stroke-miterlimit:4;stroke-dasharray:none;stroke-opacity:1;"
     d="  M 28.689045,49.792045   L 28.689045,49.979586  "
     id="path115" />
  <path
     style="fill:#0a0a0a;fill-rule:evenodd;fill-opacity:1;stroke:#000000;stroke-width:0.018702116px;stroke-linecap:round;stroke-linejoin:round;stroke-miterlimit:4;stroke-dasharray:none;stroke-opacity:1;"
     d="  M 28.838662,49.49198   L 28.539429,49.49198   L 28.539429,49.792045   L 28.838662,49.792045   L 28.838662,49.49198   z "
     id="path117" />
  <path
     style="fill:none;stroke:#000000;stroke-width:0.018702116px;stroke-linecap:round;stroke-linejoin:round;stroke-miterlimit:4;stroke-dasharray:none;stroke-opacity:1;"
     d="  M 29.044386,49.979586   L 29.044386,50.167127  "
     id="path119" />
  <path
     style="fill:none;stroke:#000000;stroke-width:0.018702116px;stroke-linecap:round;stroke-linejoin:round;stroke-miterlimit:4;stroke-dasharray:none;stroke-opacity:1;"
     d="  M 29.044386,49.979586   L 29.044386,50.167127  "
     id="path121" />
  <path
     style="fill:#0a0a0a;fill-rule:evenodd;fill-opacity:1;stroke:#000000;stroke-width:0.018702116px;stroke-linecap:round;stroke-linejoin:round;stroke-miterlimit:4;stroke-dasharray:none;stroke-opacity:1;"
     d="  M 28.913471,50.167127   L 29.212705,50.167127   L 29.212705,50.467192   L 28.913471,50.467192   L 28.913471,50.167127   z "
     id="path123" />
  <path
     style="fill:none;stroke:#000000;stroke-width:0.018702116px;stroke-linecap:round;stroke-linejoin:round;stroke-miterlimit:4;stroke-dasharray:none;stroke-opacity:1;"
     d="  M 28.296301,49.979586   L 28.296301,50.167127  "
     id="path125" />
  <path
     style="fill:#0a0a0a;fill-rule:evenodd;fill-opacity:1;stroke:#000000;stroke-width:0.018702116px;stroke-linecap:round;stroke-linejoin:round;stroke-miterlimit:4;stroke-dasharray:none;stroke-opacity:1;"
     d="  M 28.46462,50.167127   L 28.165386,50.167127   L 28.165386,50.467192   L 28.46462,50.467192   L 28.46462,50.167127   z "
     id="path127" />
  <text
     xml:space="preserve"
     style="font-size:0.500000px;font-style:normal;font-variant:normal;font-weight:400;font-stretch:Normal;line-height:125.000000%;letter-spacing:0px;word-spacing:0px;fill:#000000;fill-opacity:1;stroke:none;font-family:Arial;text-align:start;text-anchor:start;"
     transform="matrix(1.000000,-0.000000,0.000000,1.000000,29.231407,49.848307)"
     x="0.000000"
     y="0.000000"
     id="text133"><tspan
       x="0.000000"
       y="0.000000"
       id="tspan131"><tspan
         dx="0.000000"
         dy="0.000000"
         style="fill:#000000;font-size:0.500000px;font-style:normal;font-variant:normal;font-weight:400;font-stretch:Normal;font-family:Arial;"
         id="tspan129">2</tspan></tspan></text>
  <path
     style="fill:none;stroke:#000000;stroke-width:0.018702116px;stroke-linecap:round;stroke-linejoin:round;stroke-miterlimit:4;stroke-dasharray:none;stroke-opacity:1;"
     d="  M 25.584494,49.960832   L 24.350155,49.960832  "
     id="path135" />
  <path
     style="fill:none;stroke:#000000;stroke-width:0.018702116px;stroke-linecap:round;stroke-linejoin:round;stroke-miterlimit:4;stroke-dasharray:none;stroke-opacity:1;"
     d="  M 24.967324,49.792045   L 24.967324,49.979586  "
     id="path137" />
  <path
     style="fill:#0a0a0a;fill-rule:evenodd;fill-opacity:1;stroke:#000000;stroke-width:0.018702116px;stroke-linecap:round;stroke-linejoin:round;stroke-miterlimit:4;stroke-dasharray:none;stroke-opacity:1;"
     d="  M 25.116941,49.49198   L 24.817708,49.49198   L 24.817708,49.792045   L 25.116941,49.792045   L 25.116941,49.49198   z "
     id="path139" />
  <path
     style="fill:none;stroke:#000000;stroke-width:0.018702116px;stroke-linecap:round;stroke-linejoin:round;stroke-miterlimit:4;stroke-dasharray:none;stroke-opacity:1;"
     d="  M 25.322665,49.979586   L 25.322665,50.167127  "
     id="path141" />
  <path
     style="fill:#0a0a0a;fill-rule:evenodd;fill-opacity:1;stroke:#000000;stroke-width:0.018702116px;stroke-linecap:round;stroke-linejoin:round;stroke-miterlimit:4;stroke-dasharray:none;stroke-opacity:1;"
     d="  M 25.19175,50.167127   L 25.490984,50.167127   L 25.490984,50.467192   L 25.19175,50.467192   L 25.19175,50.167127   z "
     id="path143" />
  <path
     style="fill:none;stroke:#000000;stroke-width:0.018702116px;stroke-linecap:round;stroke-linejoin:round;stroke-miterlimit:4;stroke-dasharray:none;stroke-opacity:1;"
     d="  M 24.57458,49.979586   L 24.57458,50.167127  "
     id="path145" />
  <path
     style="fill:#0a0a0a;fill-rule:evenodd;fill-opacity:1;stroke:#000000;stroke-width:0.018702116px;stroke-linecap:round;stroke-linejoin:round;stroke-miterlimit:4;stroke-dasharray:none;stroke-opacity:1;"
     d="  M 24.742899,50.167127   L 24.443665,50.167127   L 24.443665,50.467192   L 24.742899,50.467192   L 24.742899,50.167127   z "
     id="path147" />
  <text
     xml:space="preserve"
     style="font-size:0.500000px;font-style:normal;font-variant:normal;font-weight:400;font-stretch:Normal;line-height:125.000000%;letter-spacing:0px;word-spacing:0px;fill:#000000;fill-opacity:1;stroke:none;font-family:Arial;text-align:start;text-anchor:start;"
     transform="matrix(1.000000,-0.000000,0.000000,1.000000,25.490984,49.848307)"
     x="0.000000"
     y="0.000000"
     id="text153"><tspan
       x="0.000000"
       y="0.000000"
       id="tspan151"><tspan
         dx="0.000000"
         dy="0.000000"
         style="fill:#000000;font-size:0.500000px;font-style:normal;font-variant:normal;font-weight:400;font-stretch:Normal;font-family:Arial;"
         id="tspan149">1</tspan></tspan></text>
  <path
     style="fill:#333333;fill-rule:evenodd;fill-opacity:1;stroke:#333333;stroke-width:0.018702116px;stroke-linecap:round;stroke-linejoin:round;stroke-miterlimit:4;stroke-dasharray:none;stroke-opacity:1;"
     d="  M 38.171018,48.310474   L 38.171018,48.272966   L 38.114912,48.160441   L 38.002699,48.104179   L 19.525009,48.104179   L 19.412796,48.160441   L 19.35669,48.272966   L 19.35669,48.366736   L 19.412796,48.479261   L 19.525009,48.535523   L 38.002699,48.535523   L 38.114912,48.479261   L 38.171018,48.366736   L 38.171018,48.329228   L 38.171018,48.310474   z "
     id="path155" />
</svg>
