<?xml version="1.0" encoding="UTF-8" standalone="no"?>
<svg
   version="1.0"
   width="5.3499999mm"
   height="3.28mm"
   id="svg105"
   xmlns="http://www.w3.org/2000/svg"
   xmlns:svg="http://www.w3.org/2000/svg">
  <defs
     id="defs3">
    <pattern
       id="EMFhbasepattern"
       patternUnits="userSpaceOnUse"
       width="6"
       height="6"
       x="0"
       y="0" />
  </defs>
  <path
     style="fill:#333333;fill-rule:evenodd;fill-opacity:1;stroke:#000000;stroke-width:0.093449861px;stroke-linecap:round;stroke-linejoin:round;stroke-miterlimit:4;stroke-dasharray:none;stroke-opacity:1;"
     d="  M 0.85973869,0.91135099   M 1.5886476,0.390579   M 19.269361,0.91135099   M 19.269361,0.91135099   M 18.540452,0.390579   M 0.85973869,11.382588   M 1.5886476,11.90336   M 19.213291,11.382588   M 18.540452,11.866162   M 19.77399,0.98574699   L 19.77399,0.89275199   L 19.7553,0.83695499   L 19.7553,0.79975699   L 19.73661,0.74395999   L 19.73661,0.70676199   L 19.71792,0.66956399   L 19.69923,0.61376699   L 19.64316,0.50217299   L 19.60578,0.46497499   L 19.58709,0.42777699   L 19.54971,0.390579   L 19.53102,0.353381   L 19.45626,0.278985   L 19.41888,0.260386   L 19.3815,0.223188   L 19.34412,0.204589   L 19.306741,0.167391   L 19.194601,0.111594   L 19.138531,0.092994999   L 19.101151,0.074395999   L 19.063771,0.074395999   L 19.007701,0.055796999   L 18.970321,0.055796999   L 18.914251,0.037198   L 1.1961582,0.037198   L 1.1400883,0.055796999   L 1.1027083,0.055796999   L 1.0466384,0.074395999   L 1.0092585,0.074395999   L 0.97187852,0.092994999   L 0.9158086,0.111594   L 0.80366877,0.167391   L 0.76628883,0.204589   L 0.72890889,0.223188   L 0.69152894,0.260386   L 0.654149,0.278985   L 0.57938911,0.353381   L 0.56069914,0.390579   L 0.5233192,0.42777699   L 0.50462923,0.46497499   L 0.46724929,0.50217299   L 0.41117937,0.61376699   L 0.3924894,0.66956399   L 0.37379943,0.70676199   L 0.37379943,0.74395999   L 0.35510946,0.79975699   L 0.35510946,0.83695499   L 0.33641949,0.89275199   L 0.33641949,1.060143   L 0.31772951,1.097341   L 0.31772951,1.246133   L 0.29903954,1.320529   L 0.29903954,1.432123   L 0.2616596,1.655311   L 0.2616596,1.785504   L 0.20558969,2.23188   L 0.20558969,2.41787   L 0.18689971,2.585261   L 0.16820974,2.771251   L 0.16820974,2.957241   L 0.11213983,3.571008   L 0.11213983,3.794196   L 0.093449857,4.017384   L 0.093449857,4.240572   L 0.056069914,4.6869479   L 0.056069914,5.1705219   L 0.037379943,5.4123089   L 0.037379943,6.8444319   L 0.056069914,7.0862189   L 0.056069914,7.5511939   L 0.074759886,7.7929809   L 0.093449857,8.0161689   L 0.093449857,8.2393569   L 0.11213983,8.4625449   L 0.11213983,8.6857329   L 0.16820974,9.2994999   L 0.16820974,9.4854899   L 0.18689971,9.6714799   L 0.20558969,9.8388709   L 0.20558969,10.024861   L 0.2616596,10.471237   L 0.2616596,10.60143   L 0.28034957,10.731623   L 0.29903954,10.843217   L 0.29903954,10.936212   L 0.31772951,11.029207   L 0.31772951,11.177999   L 0.33641949,11.215197   L 0.33641949,11.382588   L 0.35510946,11.438385   L 0.35510946,11.475583   L 0.37379943,11.53138   L 0.37379943,11.568578   L 0.3924894,11.605776   L 0.41117937,11.661573   L 0.46724929,11.773167   L 0.50462923,11.810365   L 0.5233192,11.847563   L 0.56069914,11.884761   L 0.57938911,11.921959   L 0.654149,11.996355   L 0.69152894,12.014954   L 0.72890889,12.052152   L 0.76628883,12.070751   L 0.80366877,12.107949   L 0.9158086,12.163746   L 0.97187852,12.182345   L 1.0092585,12.200944   L 1.0466384,12.200944   L 1.1027083,12.219543   L 1.1400883,12.219543   L 1.1961582,12.238142   L 18.914251,12.238142   L 18.970321,12.219543   L 19.007701,12.219543   L 19.063771,12.200944   L 19.101151,12.200944   L 19.138531,12.182345   L 19.194601,12.163746   L 19.306741,12.107949   L 19.34412,12.070751   L 19.3815,12.052152   L 19.41888,12.014954   L 19.45626,11.996355   L 19.53102,11.921959   L 19.54971,11.884761   L 19.58709,11.847563   L 19.60578,11.810365   L 19.64316,11.773167   L 19.69923,11.661573   L 19.71792,11.605776   L 19.73661,11.568578   L 19.73661,11.53138   L 19.7553,11.475583   L 19.7553,11.438385   L 19.77399,11.382588   L 19.77399,11.215197   L 19.79268,11.177999   L 19.79268,11.029207   L 19.81137,10.954811   L 19.83006,10.843217   L 19.83006,10.731623   L 19.84875,10.620029   L 19.84875,10.489836   L 19.90482,10.04346   L 19.90482,9.8760689   L 19.9422,9.5040889   L 19.9422,9.3180989   L 19.998269,8.7043319   L 19.998269,8.4997429   L 20.035649,8.0533669   L 20.035649,7.8301789   L 20.054339,7.5883919   L 20.054339,7.1234169   L 20.073029,6.8816299   L 20.073029,5.4309079   L 20.054339,5.1891209   L 20.054339,4.7241459   L 20.035649,4.5009579   L 20.035649,4.259171   L 19.998269,3.812795   L 19.998269,3.608206   L 19.979579,3.385018   L 19.96089,3.180429   L 19.9422,2.994439   L 19.9422,2.78985   L 19.92351,2.60386   L 19.90482,2.436469   L 19.90482,2.250479   L 19.84875,1.804103   L 19.84875,1.67391   L 19.83006,1.543717   L 19.83006,1.432123   L 19.79268,1.246133   L 19.79268,1.097341   L 19.77399,1.060143   L 19.77399,1.022945   L 19.77399,0.98574699   z "
     id="path5" />
  <path
     style="fill:#494949;fill-rule:evenodd;fill-opacity:1;stroke:#494949;stroke-width:0.018689971px;stroke-linecap:round;stroke-linejoin:round;stroke-miterlimit:4;stroke-dasharray:none;stroke-opacity:1;"
     d="  M 19.49364,1.153138   L 19.49364,1.060143   L 19.47495,1.004346   L 19.47495,0.96714799   L 19.45626,0.91135099   L 19.45626,0.87415299   L 19.43757,0.83695499   L 19.41888,0.78115799   L 19.36281,0.66956399   L 19.32543,0.63236599   L 19.306741,0.59516799   L 19.269361,0.55796999   L 19.250671,0.52077199   L 19.213291,0.50217299   L 19.175911,0.46497499   L 19.157221,0.42777699   L 19.119841,0.409178   L 19.082461,0.37198   L 19.007701,0.334782   L 18.951631,0.316183   L 18.839491,0.260386   L 18.783421,0.260386   L 18.746041,0.241787   L 18.689971,0.241787   L 18.652592,0.223188   L 1.4578178,0.223188   L 1.4204378,0.241787   L 1.3643679,0.241787   L 1.326988,0.260386   L 1.2709181,0.260386   L 1.1587782,0.316183   L 1.1027083,0.334782   L 1.0279484,0.37198   L 0.99056849,0.409178   L 0.95318854,0.42777699   L 0.93449857,0.46497499   L 0.89711863,0.50217299   L 0.85973869,0.52077199   L 0.84104872,0.55796999   L 0.80366877,0.59516799   L 0.7849788,0.63236599   L 0.74759886,0.66956399   L 0.69152894,0.78115799   L 0.67283897,0.83695499   L 0.654149,0.87415299   L 0.654149,0.91135099   L 0.63545903,0.96714799   L 0.63545903,1.004346   L 0.61676906,1.060143   L 0.61676906,1.208935   L 0.59807909,1.264732   L 0.59807909,1.394925   L 0.57938911,1.48792   L 0.57938911,1.580915   L 0.56069914,1.67391   L 0.56069914,1.804103   L 0.5233192,2.064489   L 0.5233192,2.213281   L 0.50462923,2.362073   L 0.48593926,2.529464   L 0.48593926,2.696855   L 0.42986934,3.254825   L 0.42986934,3.440815   L 0.41117937,3.645404   L 0.3924894,3.868592   L 0.3924894,4.073181   L 0.37379943,4.2963689   L 0.37379943,4.5195569   L 0.35510946,4.7427449   L 0.35510946,5.1891209   L 0.33641949,5.4309079   L 0.33641949,6.8258329   L 0.35510946,7.0676199   L 0.35510946,7.5139959   L 0.37379943,7.7371839   L 0.37379943,7.9603719   L 0.3924894,8.1835599   L 0.3924894,8.3881489   L 0.42986934,8.7973269   L 0.42986934,9.0019159   L 0.48593926,9.5598859   L 0.48593926,9.7272769   L 0.50462923,9.8946679   L 0.5233192,10.04346   L 0.5233192,10.192252   L 0.54200917,10.341044   L 0.56069914,10.471237   L 0.56069914,10.582831   L 0.57938911,10.694425   L 0.57938911,10.78742   L 0.59807909,10.880415   L 0.59807909,11.010608   L 0.61676906,11.066405   L 0.61676906,11.215197   L 0.63545903,11.270994   L 0.63545903,11.308192   L 0.654149,11.363989   L 0.654149,11.401187   L 0.67283897,11.438385   L 0.69152894,11.494182   L 0.74759886,11.605776   L 0.7849788,11.642974   L 0.80366877,11.680172   L 0.84104872,11.71737   L 0.85973869,11.754568   L 0.89711863,11.791766   L 0.93449857,11.810365   L 0.95318854,11.847563   L 0.99056849,11.866162   L 1.0279484,11.90336   L 1.1027083,11.940558   L 1.1587782,11.959157   L 1.2709181,12.014954   L 1.326988,12.014954   L 1.3643679,12.033553   L 1.4204378,12.033553   L 1.4578178,12.052152   L 18.652592,12.052152   L 18.689971,12.033553   L 18.746041,12.033553   L 18.783421,12.014954   L 18.839491,12.014954   L 18.951631,11.959157   L 19.007701,11.940558   L 19.082461,11.90336   L 19.119841,11.866162   L 19.157221,11.847563   L 19.175911,11.810365   L 19.213291,11.791766   L 19.250671,11.754568   L 19.269361,11.71737   L 19.306741,11.680172   L 19.32543,11.642974   L 19.36281,11.605776   L 19.41888,11.494182   L 19.43757,11.438385   L 19.45626,11.401187   L 19.45626,11.363989   L 19.47495,11.308192   L 19.47495,11.270994   L 19.49364,11.215197   L 19.49364,11.066405   L 19.51233,11.010608   L 19.51233,10.880415   L 19.53102,10.78742   L 19.53102,10.694425   L 19.54971,10.60143   L 19.54971,10.471237   L 19.58709,10.210851   L 19.58709,10.062059   L 19.60578,9.9132669   L 19.64316,9.5784849   L 19.64316,9.4110939   L 19.66185,9.2251039   L 19.68054,9.0205149   L 19.68054,8.8345249   L 19.71792,8.4253469   L 19.71792,8.2021589   L 19.73661,7.9975699   L 19.73661,7.7743819   L 19.7553,7.5511939   L 19.7553,7.0862189   L 19.77399,6.8630309   L 19.77399,5.4495069   L 19.7553,5.2263189   L 19.7553,4.7613439   L 19.73661,4.5381559   L 19.73661,4.3149679   L 19.71792,4.110379   L 19.71792,3.887191   L 19.68054,3.478013   L 19.68054,3.273424   L 19.64316,2.901444   L 19.64316,2.715454   L 19.60578,2.380672   L 19.58709,2.23188   L 19.58709,2.083088   L 19.5684,1.934296   L 19.54971,1.804103   L 19.54971,1.692509   L 19.53102,1.580915   L 19.53102,1.48792   L 19.51233,1.394925   L 19.51233,1.264732   L 19.49364,1.208935   L 19.49364,1.190336   L 19.49364,1.153138   z "
     id="path7" />
  <path
     style="fill:#494949;fill-rule:evenodd;fill-opacity:1;stroke:#000000;stroke-width:0.018689971px;stroke-linecap:round;stroke-linejoin:round;stroke-miterlimit:4;stroke-dasharray:none;stroke-opacity:1;"
     d="  M 19.34412,1.30193   L 19.34412,1.208935   L 19.32543,1.153138   L 19.32543,1.11594   L 19.306741,1.060143   L 19.306741,1.022945   L 19.269361,0.94854899   L 19.250671,0.89275199   L 19.213291,0.85555399   L 19.175911,0.78115799   L 19.138531,0.74395999   L 19.119841,0.70676199   L 19.082461,0.68816299   L 18.951631,0.55796999   L 18.914251,0.53937099   L 18.858181,0.52077199   L 18.708661,0.44637599   L 18.652592,0.42777699   L 18.615212,0.409178   L 18.521762,0.409178   L 18.484382,0.390579   L 1.6260275,0.390579   L 1.5886476,0.409178   L 1.5325777,0.409178   L 1.4951977,0.42777699   L 1.4578178,0.42777699   L 1.4204378,0.44637599   L 1.3643679,0.46497499   L 1.2148481,0.53937099   L 1.1774682,0.57656899   L 1.1400883,0.59516799   L 1.1027083,0.63236599   L 1.0840183,0.66956399   L 1.0466384,0.68816299   L 1.0279484,0.72536099   L 0.99056849,0.76255899   L 0.97187852,0.79975699   L 0.93449857,0.83695499   L 0.87842866,0.94854899   L 0.85973869,1.004346   L 0.84104872,1.041544   L 0.84104872,1.078742   L 0.82235874,1.134539   L 0.82235874,1.171737   L 0.80366877,1.227534   L 0.80366877,1.376326   L 0.7849788,1.432123   L 0.7849788,1.562316   L 0.76628883,1.636712   L 0.76628883,1.729707   L 0.74759886,1.822702   L 0.74759886,1.934296   L 0.71021891,2.194682   L 0.71021891,2.324875   L 0.69152894,2.473667   L 0.67283897,2.641058   L 0.67283897,2.808449   L 0.63545903,3.143231   L 0.61676906,3.329221   L 0.61676906,3.53381   L 0.59807909,3.7198   L 0.57938911,3.924389   L 0.57938911,4.128978   L 0.56069914,4.3335669   L 0.56069914,4.5567549   L 0.54200917,4.7799429   L 0.54200917,5.2263189   L 0.5233192,5.4495069   L 0.5233192,6.8072339   L 0.54200917,7.0304219   L 0.54200917,7.4767979   L 0.56069914,7.6999859   L 0.56069914,7.9045749   L 0.57938911,8.1277629   L 0.57938911,8.3323519   L 0.59807909,8.5369409   L 0.61676906,8.7229309   L 0.61676906,8.9089209   L 0.654149,9.2809009   L 0.67283897,9.4482919   L 0.67283897,9.6156829   L 0.69152894,9.7830739   L 0.71021891,9.9318659   L 0.71021891,10.062059   L 0.74759886,10.322445   L 0.74759886,10.434039   L 0.76628883,10.545633   L 0.76628883,10.638628   L 0.7849788,10.713024   L 0.7849788,10.843217   L 0.80366877,10.899014   L 0.80366877,11.047806   L 0.82235874,11.103603   L 0.82235874,11.140801   L 0.84104872,11.196598   L 0.84104872,11.233796   L 0.85973869,11.270994   L 0.87842866,11.326791   L 0.93449857,11.438385   L 0.97187852,11.475583   L 0.99056849,11.512781   L 1.0279484,11.549979   L 1.0466384,11.587177   L 1.1400883,11.680172   L 1.1774682,11.698771   L 1.2148481,11.735969   L 1.3643679,11.810365   L 1.4204378,11.828964   L 1.4578178,11.847563   L 1.4951977,11.847563   L 1.5325777,11.866162   L 1.5886476,11.866162   L 1.6260275,11.884761   L 18.484382,11.884761   L 18.521762,11.866162   L 18.577832,11.866162   L 18.615212,11.847563   L 18.652592,11.847563   L 18.689971,11.828964   L 18.746041,11.810365   L 18.895561,11.735969   L 18.932941,11.698771   L 18.970321,11.680172   L 19.063771,11.587177   L 19.082461,11.549979   L 19.119841,11.512781   L 19.138531,11.475583   L 19.175911,11.438385   L 19.231981,11.326791   L 19.250671,11.270994   L 19.269361,11.233796   L 19.269361,11.196598   L 19.288051,11.140801   L 19.288051,11.103603   L 19.306741,11.047806   L 19.306741,10.899014   L 19.32543,10.843217   L 19.32543,10.731623   L 19.34412,10.638628   L 19.34412,10.545633   L 19.36281,10.452638   L 19.36281,10.341044   L 19.40019,10.080658   L 19.40019,9.9504649   L 19.41888,9.8016729   L 19.43757,9.6342819   L 19.45626,9.4854899   L 19.45626,9.2994999   L 19.47495,9.1321089   L 19.49364,8.9461189   L 19.49364,8.7601289   L 19.53102,8.3509509   L 19.53102,8.1463619   L 19.54971,7.9417729   L 19.54971,7.7371839   L 19.5684,7.5139959   L 19.5684,7.0676199   L 19.58709,6.8444319   L 19.58709,5.4681059   L 19.5684,5.2449179   L 19.5684,4.7985419   L 19.54971,4.5939529   L 19.54971,4.3707649   L 19.53102,4.166176   L 19.53102,3.942988   L 19.51233,3.756998   L 19.51233,3.552409   L 19.49364,3.34782   L 19.49364,3.16183   L 19.47495,2.994439   L 19.47495,2.808449   L 19.45626,2.641058   L 19.43757,2.492266   L 19.43757,2.343474   L 19.41888,2.194682   L 19.41888,2.064489   L 19.40019,1.934296   L 19.40019,1.822702   L 19.3815,1.711108   L 19.3815,1.618113   L 19.36281,1.543717   L 19.36281,1.413524   L 19.34412,1.357727   L 19.34412,1.320529   L 19.34412,1.30193   z "
     id="path9" />
  <path
     style="fill:none;stroke:#000000;stroke-width:0.018689971px;stroke-linecap:round;stroke-linejoin:round;stroke-miterlimit:4;stroke-dasharray:none;stroke-opacity:1;"
     d="  M 0.85973869,0.91135099   L 0.35510946,0.91135099  "
     id="path11" />
  <path
     style="fill:none;stroke:#000000;stroke-width:0.018689971px;stroke-linecap:round;stroke-linejoin:round;stroke-miterlimit:4;stroke-dasharray:none;stroke-opacity:1;"
     d="  M 1.5886476,0.390579   L 1.5886476,0.055796999  "
     id="path13" />
  <path
     style="fill:none;stroke:#000000;stroke-width:0.018689971px;stroke-linecap:round;stroke-linejoin:round;stroke-miterlimit:4;stroke-dasharray:none;stroke-opacity:1;"
     d="  M 19.269361,0.91135099   L 19.77399,0.91135099  "
     id="path15" />
  <path
     style="fill:none;stroke:#000000;stroke-width:0.018689971px;stroke-linecap:round;stroke-linejoin:round;stroke-miterlimit:4;stroke-dasharray:none;stroke-opacity:1;"
     d="  M 19.269361,0.91135099   L 19.77399,0.91135099  "
     id="path17" />
  <path
     style="fill:none;stroke:#000000;stroke-width:0.018689971px;stroke-linecap:round;stroke-linejoin:round;stroke-miterlimit:4;stroke-dasharray:none;stroke-opacity:1;"
     d="  M 18.540452,0.390579   L 18.540452,0.037198  "
     id="path19" />
  <path
     style="fill:none;stroke:#000000;stroke-width:0.018689971px;stroke-linecap:round;stroke-linejoin:round;stroke-miterlimit:4;stroke-dasharray:none;stroke-opacity:1;"
     d="  M 0.85973869,11.382588   L 0.35510946,11.382588  "
     id="path21" />
  <path
     style="fill:none;stroke:#000000;stroke-width:0.018689971px;stroke-linecap:round;stroke-linejoin:round;stroke-miterlimit:4;stroke-dasharray:none;stroke-opacity:1;"
     d="  M 1.5886476,11.90336   L 1.5886476,12.238142  "
     id="path23" />
  <path
     style="fill:none;stroke:#000000;stroke-width:0.018689971px;stroke-linecap:round;stroke-linejoin:round;stroke-miterlimit:4;stroke-dasharray:none;stroke-opacity:1;"
     d="  M 19.213291,11.382588   L 19.77399,11.382588  "
     id="path25" />
  <path
     style="fill:none;stroke:#000000;stroke-width:0.018689971px;stroke-linecap:round;stroke-linejoin:round;stroke-miterlimit:4;stroke-dasharray:none;stroke-opacity:1;"
     d="  M 18.540452,11.866162   L 18.540452,12.256741  "
     id="path27" />
  <path
     style="fill:#3d3d3d;fill-rule:evenodd;fill-opacity:1;stroke:#000000;stroke-width:0.018689971px;stroke-linecap:round;stroke-linejoin:round;stroke-miterlimit:4;stroke-dasharray:none;stroke-opacity:1;"
     d="  M 18.484382,3.16183   L 1.6260275,3.16183   L 1.6260275,9.4482919   L 18.484382,9.4482919   L 18.484382,3.16183   z "
     id="path29" />
  <path
     style="fill:#000000;fill-rule:evenodd;fill-opacity:1;stroke:#000000;stroke-width:0.018689971px;stroke-linecap:round;stroke-linejoin:round;stroke-miterlimit:4;stroke-dasharray:none;stroke-opacity:1;"
     d="  M 19.5684,5.5425019   L 0.056069914,5.5425019   L 0.056069914,5.6168979   L 19.5684,5.6168979   L 19.5684,5.5425019   z "
     id="path31" />
  <path
     style="fill:#282828;fill-rule:evenodd;fill-opacity:1;stroke:#282828;stroke-width:0.018689971px;stroke-linecap:round;stroke-linejoin:round;stroke-miterlimit:4;stroke-dasharray:none;stroke-opacity:1;"
     d="  M 16.970494,3.849993   L 4.7472527,3.849993   L 4.7472527,9.0577129   L 16.970494,9.0577129   L 16.970494,3.849993   z "
     id="path33" />
  <path
     style="fill:#bfbfbf;fill-rule:evenodd;fill-opacity:1;stroke:#000000;stroke-width:0.018689971px;stroke-linecap:round;stroke-linejoin:round;stroke-miterlimit:4;stroke-dasharray:none;stroke-opacity:1;"
     d="  M 10.802803,3.980186   L 4.9341525,3.980186   L 4.9341525,8.9275199   L 10.802803,8.9275199   L 10.802803,3.980186   z "
     id="path35" />
  <path
     style="fill:#bfbfbf;fill-rule:evenodd;fill-opacity:1;stroke:#000000;stroke-width:0.018689971px;stroke-linecap:round;stroke-linejoin:round;stroke-miterlimit:4;stroke-dasharray:none;stroke-opacity:1;"
     d="  M 16.764904,3.980186   L 10.896253,3.980186   L 10.896253,8.9275199   L 16.764904,8.9275199   L 16.764904,3.980186   z "
     id="path37" />
  <path
     style="fill:#00ff00;fill-rule:evenodd;fill-opacity:1;stroke:#000000;stroke-width:0.018689971px;stroke-linecap:round;stroke-linejoin:round;stroke-miterlimit:4;stroke-dasharray:none;stroke-opacity:1;"
     d="  M 2.7287358,0.055796999   L 1.9063771,0.055796999   L 1.9063771,1.060143   L 2.7287358,1.060143   L 2.7287358,0.055796999   z "
     id="path39" />
  <path
     style="fill:#494949;fill-rule:evenodd;fill-opacity:1;stroke:#000000;stroke-width:0.018689971px;stroke-linecap:round;stroke-linejoin:round;stroke-miterlimit:4;stroke-dasharray:none;stroke-opacity:1;"
     d="  M 5.4761616,10.750222   L 1.3456779,10.750222   L 1.3456779,12.200944   L 5.4761616,12.200944   L 5.4761616,10.750222   z "
     id="path41" />
  <path
     style="fill:#3d3d3d;fill-rule:evenodd;fill-opacity:1;stroke:#3d3d3d;stroke-width:0.018689971px;stroke-linecap:round;stroke-linejoin:round;stroke-miterlimit:4;stroke-dasharray:none;stroke-opacity:1;"
     d="  M 2.1306567,10.750222   L 1.3456779,10.750222   L 1.3456779,12.200944   L 2.1306567,12.200944   L 2.1306567,10.750222   z "
     id="path43" />
  <path
     style="fill:#383838;fill-rule:evenodd;fill-opacity:1;stroke:#383838;stroke-width:0.018689971px;stroke-linecap:round;stroke-linejoin:round;stroke-miterlimit:4;stroke-dasharray:none;stroke-opacity:1;"
     d="  M 1.8689971,10.750222   L 1.3456779,10.750222   L 1.3456779,12.200944   L 1.8689971,12.200944   L 1.8689971,10.750222   z "
     id="path45" />
  <path
     style="fill:#333333;fill-rule:evenodd;fill-opacity:1;stroke:#333333;stroke-width:0.018689971px;stroke-linecap:round;stroke-linejoin:round;stroke-miterlimit:4;stroke-dasharray:none;stroke-opacity:1;"
     d="  M 1.5699576,10.750222   L 1.3456779,10.750222   L 1.3456779,12.200944   L 1.5699576,12.200944   L 1.5699576,10.750222   z "
     id="path47" />
  <path
     style="fill:#3d3d3d;fill-rule:evenodd;fill-opacity:1;stroke:#3d3d3d;stroke-width:0.018689971px;stroke-linecap:round;stroke-linejoin:round;stroke-miterlimit:4;stroke-dasharray:none;stroke-opacity:1;"
     d="  M 5.4761616,10.750222   L 4.6911828,10.750222   L 4.6911828,12.200944   L 5.4761616,12.200944   L 5.4761616,10.750222   z "
     id="path49" />
  <path
     style="fill:#383838;fill-rule:evenodd;fill-opacity:1;stroke:#383838;stroke-width:0.018689971px;stroke-linecap:round;stroke-linejoin:round;stroke-miterlimit:4;stroke-dasharray:none;stroke-opacity:1;"
     d="  M 5.4761616,10.750222   L 4.9528424,10.750222   L 4.9528424,12.200944   L 5.4761616,12.200944   L 5.4761616,10.750222   z "
     id="path51" />
  <path
     style="fill:#333333;fill-rule:evenodd;fill-opacity:1;stroke:#333333;stroke-width:0.018689971px;stroke-linecap:round;stroke-linejoin:round;stroke-miterlimit:4;stroke-dasharray:none;stroke-opacity:1;"
     d="  M 5.4761616,10.750222   L 5.251882,10.750222   L 5.251882,12.200944   L 5.4761616,12.200944   L 5.4761616,10.750222   z "
     id="path53" />
  <path
     style="fill:none;stroke:#000000;stroke-width:0.018689971px;stroke-linecap:round;stroke-linejoin:round;stroke-miterlimit:4;stroke-dasharray:none;stroke-opacity:1;"
     d="  M 5.4761616,10.750222   L 1.3456779,10.750222   L 1.3456779,12.200944   L 5.4761616,12.200944   L 5.4761616,10.750222   z "
     id="path55" />
  <path
     style="fill:#545454;fill-rule:evenodd;fill-opacity:1;stroke:#000000;stroke-width:0.018689971px;stroke-linecap:round;stroke-linejoin:round;stroke-miterlimit:4;stroke-dasharray:none;stroke-opacity:1;"
     d="  M 1.7568573,10.750222   L 1.3456779,10.750222   L 1.3456779,9.6528809   L 1.7568573,9.6528809   L 1.7568573,10.750222   z "
     id="path57" />
  <path
     style="fill:#545454;fill-rule:evenodd;fill-opacity:1;stroke:#000000;stroke-width:0.018689971px;stroke-linecap:round;stroke-linejoin:round;stroke-miterlimit:4;stroke-dasharray:none;stroke-opacity:1;"
     d="  M 5.4761616,10.750222   L 5.0649823,10.750222   L 5.0649823,9.6528809   L 5.4761616,9.6528809   L 5.4761616,10.750222   z "
     id="path59" />
  <text
     xml:space="preserve"
     style="font-size:0.687500px;font-style:normal;font-variant:normal;font-weight:400;font-stretch:Normal;line-height:119.394306%;letter-spacing:0px;word-spacing:0px;fill:#000000;fill-opacity:1;stroke:none;font-family:Arial;text-align:start;text-anchor:start;"
     transform="matrix(1.000000,-0.000000,0.000000,1.000000,2.172066,3.507208)"
     x="0.000000"
     y="0.501188"
     id="text69"><tspan
       x="0.000000"
       y="0.501188"
       id="tspan63"><tspan
         dx="0.000000"
         dy="0.000000"
         style="fill:#000000;font-size:0.687500px;font-style:normal;font-variant:normal;font-weight:400;font-stretch:Normal;font-family:Arial;"
         id="tspan61">PORT</tspan></tspan><tspan
       x="0.449393"
       y="1.322023"
       id="tspan67"><tspan
         dx="0.000000"
         dy="0.000000"
         style="fill:#000000;font-size:0.687500px;font-style:normal;font-variant:normal;font-weight:400;font-stretch:Normal;font-family:Arial;"
         id="tspan65">ON</tspan></tspan></text>
  <text
     xml:space="preserve"
     style="font-size:0.687500px;font-style:normal;font-variant:normal;font-weight:400;font-stretch:Normal;line-height:125.000000%;letter-spacing:0px;word-spacing:0px;fill:#000000;fill-opacity:1;stroke:none;font-family:Arial;text-align:start;text-anchor:start;"
     transform="matrix(1.000000,-0.000000,0.000000,1.000000,2.172066,3.507208)"
     x="4.868425"
     y="-1.215106"
     id="text75"><tspan
       x="4.868425"
       y="-1.215106"
       id="tspan73"><tspan
         dx="0.000000"
         dy="0.000000"
         style="fill:#000000;font-size:0.687500px;font-style:normal;font-variant:normal;font-weight:400;font-stretch:Normal;font-family:Arial;"
         id="tspan71">OUT</tspan></tspan></text>
  <text
     xml:space="preserve"
     style="font-size:0.687500px;font-style:normal;font-variant:normal;font-weight:400;font-stretch:Normal;line-height:119.394306%;letter-spacing:0px;word-spacing:0px;fill:#000000;fill-opacity:1;stroke:none;font-family:Arial;text-align:start;text-anchor:start;"
     transform="matrix(1.000000,-0.000000,0.000000,1.000000,2.172066,3.507208)"
     x="10.635636"
     y="-2.035942"
     id="text85"><tspan
       x="10.635636"
       y="-2.035942"
       id="tspan79"><tspan
         dx="0.000000"
         dy="0.000000"
         style="fill:#000000;font-size:0.687500px;font-style:normal;font-variant:normal;font-weight:400;font-stretch:Normal;font-family:Arial;"
         id="tspan77">DATA</tspan></tspan><tspan
       x="11.159928"
       y="-1.215106"
       id="tspan83"><tspan
         dx="0.000000"
         dy="0.000000"
         style="fill:#000000;font-size:0.687500px;font-style:normal;font-variant:normal;font-weight:400;font-stretch:Normal;font-family:Arial;"
         id="tspan81">IN</tspan></tspan></text>
  <text
     xml:space="preserve"
     style="font-size:0.687500px;font-style:normal;font-variant:normal;font-weight:400;font-stretch:Normal;line-height:125.000000%;letter-spacing:0px;word-spacing:0px;fill:#000000;fill-opacity:1;stroke:none;font-family:Arial;text-align:start;text-anchor:start;"
     transform="matrix(1.000000,-0.000000,0.000000,1.000000,2.172066,3.507208)"
     x="2.921055"
     y="-2.035942"
     id="text91"><tspan
       x="2.921055"
       y="-2.035942"
       id="tspan89"><tspan
         dx="0.000000"
         dy="0.000000"
         style="fill:#000000;font-size:0.687500px;font-style:normal;font-variant:normal;font-weight:400;font-stretch:Normal;font-family:Arial;"
         id="tspan87">DATA</tspan></tspan></text>
  <text
     xml:space="preserve"
     style="font-size:0.687500px;font-style:normal;font-variant:normal;font-weight:400;font-stretch:Normal;line-height:125.000000%;letter-spacing:0px;word-spacing:0px;fill:#000000;fill-opacity:1;stroke:none;font-family:Arial;text-align:start;text-anchor:start;"
     transform="matrix(1.000000,-0.000000,0.000000,1.000000,2.172066,3.507208)"
     x="5.617413"
     y="-2.035942"
     id="text97"><tspan
       x="5.617413"
       y="-2.035942"
       id="tspan95"><tspan
         dx="0.000000"
         dy="0.000000"
         style="fill:#000000;font-size:0.687500px;font-style:normal;font-variant:normal;font-weight:400;font-stretch:Normal;font-family:Arial;"
         id="tspan93">POWER</tspan></tspan></text>
  <path
     style="fill:#000000;fill-rule:evenodd;fill-opacity:1;stroke:#000000;stroke-width:0.02364764px;stroke-linecap:round;stroke-linejoin:round;stroke-miterlimit:4;stroke-dasharray:none;stroke-opacity:1;"
     d="  M 7.4726542,1.6132034   L 7.4963019,1.6132034   L 7.4963019,1.636927   L 7.5199495,1.636927   L 7.5199495,1.6606506   L 7.5672448,1.6606506   L 7.5672448,1.636927   L 7.5908924,1.636927   L 7.5199495,1.5657563   L 7.5199495,1.5420327   L 7.5435971,1.5420327   L 7.5435971,1.4945855   L 7.5672448,1.4945855   L 7.5672448,1.4708619   L 7.5435971,1.4708619   L 7.5199495,1.4471384   L 7.4963019,1.4471384   L 7.4963019,1.4945855   L 7.4726542,1.4945855   L 7.4726542,1.4708619   L 7.4490066,1.4708619   L 7.4490066,1.4471384   L 7.4253589,1.4471384   L 7.4253589,1.4234148   L 7.4017113,1.4234148   L 7.4017113,1.3996912   L 7.354416,1.352244   L 7.354416,1.3285205   L 7.3307684,1.3285205   L 7.3307684,1.2810733   L 7.3071207,1.2810733   L 7.3071207,1.2573497   L 7.3307684,1.2573497   L 7.3307684,1.2336261   L 7.4017113,1.2336261   L 7.4017113,1.2573497   L 7.4253589,1.2573497   L 7.4253589,1.3047969   L 7.4017113,1.3285205   L 7.3780637,1.3285205   L 7.3780637,1.352244   L 7.354416,1.352244   L 7.4017113,1.3996912   L 7.4253589,1.3996912   L 7.4253589,1.3759676   L 7.4490066,1.3759676   L 7.4490066,1.352244   L 7.4726542,1.352244   L 7.4726542,1.2336261   L 7.4490066,1.2099026   L 7.4253589,1.2099026   L 7.4253589,1.186179   L 7.3307684,1.186179   L 7.3071207,1.2099026   L 7.2834731,1.2099026   L 7.2834731,1.2336261   L 7.2598255,1.2336261   L 7.2598255,1.352244   L 7.2834731,1.352244   L 7.2834731,1.3759676   L 7.3071207,1.3759676   L 7.3071207,1.3996912   L 7.2834731,1.3996912   L 7.2834731,1.4234148   L 7.2598255,1.4234148   L 7.2598255,1.4471384   L 7.2361778,1.4471384   L 7.2361778,1.4708619   L 7.2125302,1.4708619   L 7.2125302,1.5183091   L 7.1888825,1.5183091   L 7.1888825,1.5894798   L 7.2125302,1.5894798   L 7.2125302,1.636927   L 7.2598255,1.636927   L 7.2598255,1.6606506   L 7.4253589,1.6606506   L 7.4253589,1.636927   L 7.4726542,1.636927   L 7.4726542,1.5894798   L 7.4490066,1.5894798   L 7.4490066,1.5657563   L 7.4253589,1.5894798   L 7.4017113,1.5894798   L 7.4017113,1.6132034   L 7.3071207,1.6132034   L 7.2834731,1.5894798   L 7.2834731,1.5657563   L 7.2598255,1.5657563   L 7.2598255,1.4945855   L 7.2834731,1.4945855   L 7.2834731,1.4708619   L 7.3071207,1.4708619   L 7.3071207,1.4471384   L 7.3307684,1.4471384   L 7.4490066,1.5657563   L 7.4490066,1.5894798   L 7.4726542,1.5894798   L 7.4726542,1.6132034   z "
     id="path99" />
  <path
     style="fill:#000000;fill-rule:evenodd;fill-opacity:1;stroke:#161616;stroke-width:0.018586522px;stroke-linecap:round;stroke-linejoin:round;stroke-miterlimit:4;stroke-dasharray:none;stroke-opacity:1;"
     d="  M 5.4644373,4.6195022   L 5.4644373,7.4353741   L 6.6539747,7.4353741   L 6.6539747,8.0979322   L 7.1372242,8.0979322   L 7.1372242,8.7604903   L 8.5497999,8.7604903   L 8.5497999,8.0979322   L 9.0330494,8.0979322   L 9.0330494,7.4353741   L 10.222587,7.4353741   L 10.222587,4.6195022   L 5.4644373,4.6195022   z "
     id="path101" />
  <path
     style="fill:#000000;fill-rule:evenodd;fill-opacity:1;stroke:#161616;stroke-width:0.018586522px;stroke-linecap:round;stroke-linejoin:round;stroke-miterlimit:4;stroke-dasharray:none;stroke-opacity:1;"
     d="  M 11.393538,4.6195022   L 11.393538,7.4353741   L 12.583075,7.4353741   L 12.583075,8.0979322   L 13.066325,8.0979322   L 13.066325,8.7604903   L 14.4789,8.7604903   L 14.4789,8.0979322   L 14.96215,8.0979322   L 14.96215,7.4353741   L 16.151687,7.4353741   L 16.151687,4.6195022   L 11.393538,4.6195022   z "
     id="path103" />
</svg>
