<?xml version="1.0" encoding="UTF-8" standalone="no"?>
<svg
   version="1.0"
   width="16.540001mm"
   height="11.92mm"
   id="svg195"
   xmlns="http://www.w3.org/2000/svg"
   xmlns:svg="http://www.w3.org/2000/svg">
  <defs
     id="defs3">
    <pattern
       id="EMFhbasepattern"
       patternUnits="userSpaceOnUse"
       width="6"
       height="6"
       x="0"
       y="0" />
  </defs>
  <path
     style="fill:none;stroke:none;"
     d="  M 25.734518,13.295315   L 25.734518,15.135832   L 27.542118,15.135832   M 27.542118,13.295315   L 31.10975,13.295315   M 29.30215,13.295315   L 29.30215,15.135832   M 32.01355,13.295315   L 32.01355,15.135832   M 32.01355,13.295315   L 32.01355,15.135832  "
     id="path5" />
  <path
     style="fill:none;stroke:none;"
     d="  M 33.773582,15.135832   L 33.773582,13.295315   L 35.581182,15.135832   L 37.388782,13.295315   L 37.388782,15.135832  "
     id="path7" />
  <path
     style="fill:none;stroke:none;"
     d="  M 38.245013,15.135832   L 40.052614,13.295315   L 41.860214,15.135832   M 38.720698,14.675703   L 41.384529,14.675703  "
     id="path9" />
  <path
     style="fill:none;stroke:none;"
     d="  M 20.359286,15.135832   L 22.166886,13.295315   L 23.974486,15.135832   M 20.83497,14.675703   L 23.498802,14.675703  "
     id="path11" />
  <path
     style="fill:#eaeaea;fill-rule:evenodd;fill-opacity:1;stroke:#000000;stroke-width:0.093524605px;stroke-linecap:round;stroke-linejoin:round;stroke-miterlimit:4;stroke-dasharray:none;stroke-opacity:1;"
     d="  M 62.287385,15.731748   L 62.249975,16.538986   L 62.119041,17.32745   L 61.931992,18.115915   L 61.651418,18.885607   L 61.314729,19.636525   L 60.884516,20.368671   L 60.398188,21.100817   L 59.83704,21.81419   L 59.219778,22.490017   L 58.527696,23.165844   L 57.779499,23.822897   L 56.975188,24.461178   L 56.096056,25.080686   L 55.179515,25.662648   L 54.206859,26.225837   L 53.178089,26.770254   L 52.093203,27.295897   L 50.952203,27.783994   L 49.792498,28.253318   L 48.557973,28.685096   L 47.304744,29.079329   L 45.995399,29.454788   L 44.648645,29.811474   L 43.283186,30.130615   L 41.861612,30.393437   L 40.421333,30.656258   L 38.943644,30.862761   L 37.428546,31.031717   L 35.894742,31.163128   L 34.342234,31.275766   L 32.771021,31.332085   L 31.162397,31.350858   L 29.553774,31.332085   L 27.982561,31.275766   L 26.430053,31.163128   L 24.896249,31.031717   L 23.381151,30.862761   L 21.903462,30.656258   L 20.463183,30.393437   L 19.041609,30.130615   L 17.67615,29.811474   L 16.329396,29.454788   L 15.020051,29.079329   L 13.766821,28.685096   L 12.532297,28.253318   L 11.372592,27.783994   L 10.231591,27.295897   L 9.1467061,26.770254   L 8.1179355,26.225837   L 7.1452796,25.662648   L 6.2287385,25.080686   L 5.3496072,24.461178   L 4.5452957,23.822897   L 3.7970988,23.165844   L 3.1050168,22.490017   L 2.4877544,21.81419   L 1.9266068,21.100817   L 1.4402789,20.368671   L 1.0100657,19.636525   L 0.67337714,18.885607   L 0.39280333,18.115915   L 0.20575412,17.32745   L 0.074819682,16.538986   L 0.037409841,15.731748   L 0.037409841,21.138363   L 0.074819682,21.945601   L 0.20575412,22.734065   L 0.39280333,23.52253   L 0.67337714,24.292222   L 1.0100657,25.04314   L 1.4402789,25.775286   L 1.9266068,26.507432   L 2.4877544,27.220805   L 3.1050168,27.896632   L 3.7970988,28.572459   L 4.5452957,29.229512   L 5.3496072,29.867793   L 6.2287385,30.487301   L 7.1452796,31.069263   L 8.1179355,31.632452   L 9.1467061,32.176869   L 10.231591,32.702512   L 11.372592,33.190609   L 12.532297,33.659933   L 13.766821,34.091711   L 15.020051,34.485944   L 16.329396,34.861403   L 17.67615,35.21809   L 19.041609,35.53723   L 20.463183,35.800052   L 21.903462,36.062873   L 23.381151,36.269376   L 24.896249,36.438332   L 26.430053,36.569743   L 27.982561,36.682381   L 29.553774,36.7387   L 31.162397,36.757473   L 32.771021,36.7387   L 34.342234,36.682381   L 35.894742,36.569743   L 37.428546,36.438332   L 38.943644,36.269376   L 40.421333,36.062873   L 41.861612,35.800052   L 43.283186,35.53723   L 44.648645,35.21809   L 45.995399,34.861403   L 47.304744,34.485944   L 48.557973,34.091711   L 49.792498,33.659933   L 50.952203,33.190609   L 52.093203,32.702512   L 53.178089,32.176869   L 54.206859,31.632452   L 55.179515,31.069263   L 56.096056,30.487301   L 56.975188,29.867793   L 57.779499,29.229512   L 58.527696,28.572459   L 59.219778,27.896632   L 59.83704,27.220805   L 60.398188,26.507432   L 60.884516,25.775286   L 61.314729,25.04314   L 61.651418,24.292222   L 61.931992,23.52253   L 62.119041,22.734065   L 62.249975,21.945601   L 62.287385,21.138363   L 62.287385,15.750521   L 62.287385,15.731748   z "
     id="path13" />
  <path
     style="fill:#bfbfbf;fill-rule:evenodd;fill-opacity:1;stroke:#000000;stroke-width:0.093524605px;stroke-linecap:round;stroke-linejoin:round;stroke-miterlimit:4;stroke-dasharray:none;stroke-opacity:1;"
     d="  M 62.287385,15.731748   L 62.249975,14.92451   L 62.119041,14.136046   L 61.931992,13.347581   L 61.651418,12.577889   L 61.314729,11.82697   L 60.884516,11.094825   L 60.398188,10.362679   L 59.83704,9.649306   L 59.219778,8.9734791   L 58.527696,8.2976522   L 57.779499,7.6405983   L 56.975188,7.0023174   L 56.096056,6.3828094   L 55.179515,5.8008474   L 54.206859,5.2376583   L 53.178089,4.6932422   L 52.093203,4.1675991   L 50.952203,3.6795019   L 49.792498,3.2101777   L 48.557973,2.7783994   L 47.304744,2.384167   L 45.995399,2.0087077   L 44.648645,1.6520213   L 43.283186,1.3328808   L 41.861612,1.0700592   L 40.421333,0.80723766   L 38.943644,0.600735   L 37.428546,0.43177828   L 35.894742,0.3003675   L 34.342234,0.18772969   L 32.771021,0.13141078   L 31.162397,0.11263781   L 29.553774,0.13141078   L 27.982561,0.18772969   L 26.430053,0.3003675   L 24.896249,0.43177828   L 23.381151,0.600735   L 21.903462,0.80723766   L 20.463183,1.0700592   L 19.041609,1.3328808   L 17.67615,1.6520213   L 16.329396,2.0087077   L 15.020051,2.384167   L 13.766821,2.7783994   L 12.532297,3.2101777   L 11.372592,3.6795019   L 10.231591,4.1675991   L 9.1467061,4.6932422   L 8.1179355,5.2376583   L 7.1452796,5.8008474   L 6.2287385,6.3828094   L 5.3496072,7.0023174   L 4.5452957,7.6405983   L 3.7970988,8.2976522   L 3.1050168,8.9734791   L 2.4877544,9.649306   L 1.9266068,10.362679   L 1.4402789,11.094825   L 1.0100657,11.82697   L 0.67337714,12.577889   L 0.39280333,13.347581   L 0.20575412,14.136046   L 0.074819682,14.92451   L 0.037409841,15.731748   L 0.074819682,16.538986   L 0.20575412,17.32745   L 0.39280333,18.115915   L 0.67337714,18.885607   L 1.0100657,19.636525   L 1.4402789,20.368671   L 1.9266068,21.100817   L 2.4877544,21.81419   L 3.1050168,22.490017   L 3.7970988,23.165844   L 4.5452957,23.822897   L 5.3496072,24.461178   L 6.2287385,25.080686   L 7.1452796,25.662648   L 8.1179355,26.225837   L 9.1467061,26.770254   L 10.231591,27.295897   L 11.372592,27.783994   L 12.532297,28.253318   L 13.766821,28.685096   L 15.020051,29.079329   L 16.329396,29.454788   L 17.67615,29.811474   L 19.041609,30.130615   L 20.463183,30.393437   L 21.903462,30.656258   L 23.381151,30.862761   L 24.896249,31.031717   L 26.430053,31.163128   L 27.982561,31.275766   L 29.553774,31.332085   L 31.162397,31.350858   L 32.771021,31.332085   L 34.342234,31.275766   L 35.894742,31.163128   L 37.428546,31.031717   L 38.943644,30.862761   L 40.421333,30.656258   L 41.861612,30.393437   L 43.283186,30.130615   L 44.648645,29.811474   L 45.995399,29.454788   L 47.304744,29.079329   L 48.557973,28.685096   L 49.792498,28.253318   L 50.952203,27.783994   L 52.093203,27.295897   L 53.178089,26.770254   L 54.206859,26.225837   L 55.179515,25.662648   L 56.096056,25.080686   L 56.975188,24.461178   L 57.779499,23.822897   L 58.527696,23.165844   L 59.219778,22.490017   L 59.83704,21.81419   L 60.398188,21.100817   L 60.884516,20.368671   L 61.314729,19.636525   L 61.651418,18.885607   L 61.931992,18.115915   L 62.119041,17.32745   L 62.249975,16.538986   L 62.287385,15.731748   z "
     id="path15" />
  <path
     style="fill:#eaeaea;fill-rule:evenodd;fill-opacity:1;stroke:#eaeaea;stroke-width:0.093524605px;stroke-linecap:round;stroke-linejoin:round;stroke-miterlimit:4;stroke-dasharray:none;stroke-opacity:1;"
     d="  M 61.670123,15.731748   L 61.632713,14.962056   L 61.520483,14.192364   L 61.314729,13.441446   L 61.05286,12.7093   L 60.716172,11.977154   L 60.304663,11.282554   L 59.818336,10.569181   L 59.275893,9.8933546   L 58.65863,9.2363007   L 57.985253,8.5792468   L 57.255761,7.9597388   L 56.470155,7.3402308   L 55.609728,6.7582688   L 54.711892,6.1950797   L 53.739236,5.6506636   L 52.729171,5.1250205   L 51.681695,4.6369233   L 50.578105,4.1675991   L 49.4184,3.7170478   L 48.221285,3.3040425   L 46.98676,2.9098102   L 45.714826,2.5343508   L 44.386776,2.2152103   L 43.040022,1.9148428   L 41.655858,1.6520213   L 40.234284,1.4079727   L 38.794005,1.20147   L 37.316316,1.0325133   L 35.801218,0.9011025   L 34.286119,0.80723766   L 32.733611,0.75091875   L 31.162397,0.73214578   L 29.591184,0.75091875   L 28.038676,0.80723766   L 26.523577,0.9011025   L 25.008479,1.0325133   L 23.53079,1.20147   L 22.090511,1.4079727   L 20.668937,1.6520213   L 19.284773,1.9148428   L 17.938019,2.2152103   L 16.609969,2.5343508   L 15.338035,2.9098102   L 14.10351,3.3040425   L 12.906395,3.7170478   L 11.74669,4.1675991   L 10.6431,4.6369233   L 9.5956242,5.1250205   L 8.5855585,5.6506636   L 7.6129026,6.1950797   L 6.7150664,6.7582688   L 5.8546401,7.3402308   L 5.0690334,7.9597388   L 4.3395415,8.5792468   L 3.6661644,9.2363007   L 3.048902,9.8933546   L 2.5064593,10.569181   L 2.0201314,11.282554   L 1.6086232,11.977154   L 1.2719346,12.7093   L 1.0100657,13.441446   L 0.80431158,14.192364   L 0.69208206,14.962056   L 0.65467222,15.731748   L 0.69208206,16.50144   L 0.80431158,17.271131   L 1.0100657,18.02205   L 1.2719346,18.754196   L 1.6086232,19.486342   L 2.0201314,20.180941   L 2.5064593,20.894314   L 3.048902,21.570141   L 3.6661644,22.227195   L 4.3395415,22.884249   L 5.0690334,23.503757   L 5.8546401,24.123265   L 6.7150664,24.705227   L 7.6129026,25.268416   L 8.5855585,25.812832   L 9.5956242,26.338475   L 10.6431,26.826572   L 11.74669,27.295897   L 12.906395,27.746448   L 14.10351,28.159453   L 15.338035,28.553686   L 16.609969,28.929145   L 17.938019,29.248285   L 19.284773,29.548653   L 20.668937,29.811474   L 22.090511,30.055523   L 23.53079,30.262026   L 25.008479,30.430982   L 26.523577,30.562393   L 28.038676,30.656258   L 29.591184,30.712577   L 31.162397,30.73135   L 32.733611,30.712577   L 34.286119,30.656258   L 35.801218,30.562393   L 37.316316,30.430982   L 38.794005,30.262026   L 40.234284,30.055523   L 41.655858,29.811474   L 43.040022,29.548653   L 44.386776,29.248285   L 45.714826,28.929145   L 46.98676,28.553686   L 48.221285,28.159453   L 49.4184,27.746448   L 50.578105,27.295897   L 51.681695,26.826572   L 52.729171,26.338475   L 53.739236,25.812832   L 54.711892,25.268416   L 55.609728,24.705227   L 56.470155,24.123265   L 57.255761,23.503757   L 57.985253,22.884249   L 58.65863,22.227195   L 59.275893,21.570141   L 59.818336,20.894314   L 60.304663,20.180941   L 60.716172,19.486342   L 61.05286,18.754196   L 61.314729,18.02205   L 61.520483,17.271131   L 61.632713,16.50144   L 61.670123,15.731748   z "
     id="path17" />
  <path
     style="fill:#efefef;fill-rule:evenodd;fill-opacity:1;stroke:#efefef;stroke-width:0.093524605px;stroke-linecap:round;stroke-linejoin:round;stroke-miterlimit:4;stroke-dasharray:none;stroke-opacity:1;"
     d="  M 46.425613,15.731748   L 46.406908,15.337516   L 46.350793,14.943283   L 46.257268,14.567824   L 46.107629,14.192364   L 45.939285,13.816905   L 45.73353,13.460219   L 45.509071,13.103532   L 45.228498,12.746846   L 44.929219,12.408932   L 44.59253,12.089792   L 44.218432,11.770651   L 43.825629,11.451511   L 43.395415,11.151143   L 42.946497,10.869549   L 42.460169,10.587954   L 41.955137,10.325133   L 41.431399,10.062311   L 40.870251,9.8182627   L 40.290399,9.5929871   L 39.691841,9.3864844   L 39.074579,9.1799818   L 38.438611,8.9922521   L 37.783939,8.8232953   L 37.110562,8.6731116   L 36.41848,8.5417008   L 35.707693,8.41029   L 34.248709,8.2225603   L 32.714906,8.1099225   L 31.948004,8.0911496   L 31.162397,8.0723766   L 30.376791,8.0911496   L 29.609889,8.1099225   L 28.076086,8.2225603   L 26.617102,8.41029   L 25.906315,8.5417008   L 25.214233,8.6731116   L 24.540856,8.8232953   L 23.886183,8.9922521   L 23.250216,9.1799818   L 22.632954,9.3864844   L 22.034396,9.5929871   L 21.454544,9.8182627   L 20.893396,10.062311   L 20.369658,10.325133   L 19.864626,10.587954   L 19.378298,10.869549   L 18.929379,11.151143   L 18.499166,11.451511   L 18.106363,11.770651   L 17.732265,12.089792   L 17.395576,12.408932   L 17.096297,12.746846   L 16.815723,13.103532   L 16.591264,13.460219   L 16.38551,13.816905   L 16.217166,14.192364   L 16.067527,14.567824   L 15.974002,14.943283   L 15.917887,15.337516   L 15.899182,15.731748   L 15.917887,16.12598   L 15.974002,16.520213   L 16.067527,16.895672   L 16.217166,17.271131   L 16.38551,17.646591   L 16.591264,18.003277   L 16.815723,18.359964   L 17.096297,18.71665   L 17.395576,19.054563   L 17.732265,19.373704   L 18.106363,19.692844   L 18.499166,20.011985   L 18.929379,20.312352   L 19.378298,20.593947   L 19.864626,20.875541   L 20.369658,21.138363   L 20.893396,21.401184   L 21.454544,21.645233   L 22.034396,21.870509   L 22.632954,22.077011   L 23.250216,22.283514   L 23.886183,22.471244   L 24.540856,22.6402   L 25.214233,22.790384   L 25.906315,22.921795   L 26.617102,23.053206   L 28.076086,23.240935   L 29.609889,23.353573   L 30.376791,23.372346   L 31.162397,23.391119   L 31.948004,23.372346   L 32.714906,23.353573   L 34.248709,23.240935   L 35.707693,23.053206   L 36.41848,22.921795   L 37.110562,22.790384   L 37.783939,22.6402   L 38.438611,22.471244   L 39.074579,22.283514   L 39.691841,22.077011   L 40.290399,21.870509   L 40.870251,21.645233   L 41.431399,21.401184   L 41.955137,21.138363   L 42.460169,20.875541   L 42.946497,20.593947   L 43.395415,20.312352   L 43.825629,20.011985   L 44.218432,19.692844   L 44.59253,19.373704   L 44.929219,19.054563   L 45.228498,18.71665   L 45.509071,18.359964   L 45.73353,18.003277   L 45.939285,17.646591   L 46.107629,17.271131   L 46.257268,16.895672   L 46.350793,16.520213   L 46.406908,16.12598   L 46.425613,15.731748   z "
     id="path19" />
  <path
     style="fill:#bfbfbf;fill-rule:evenodd;fill-opacity:1;stroke:#bfbfbf;stroke-width:0.018704921px;stroke-linecap:round;stroke-linejoin:round;stroke-miterlimit:4;stroke-dasharray:none;stroke-opacity:1;"
     d="  M 60.229844,26.732708   L 59.780926,27.277124   L 59.313303,27.802767   L 58.789565,28.32841   L 58.228417,28.854053   L 57.648565,29.34215   L 57.012597,29.830247   L 56.357925,30.299572   L 55.665843,30.768896   L 54.936351,31.219447   L 54.16945,31.651225   L 53.383843,32.064231   L 52.560826,32.477236   L 51.7004,32.871468   L 50.821269,33.246928   L 49.923433,33.603614   L 48.988187,33.941528   L 48.034236,34.260668   L 47.042875,34.579809   L 46.032809,34.861403   L 45.004039,35.124225   L 43.956563,35.387046   L 42.871678,35.612322   L 41.786792,35.818825   L 39.542202,36.194284   L 37.222792,36.457105   L 36.025677,36.569743   L 34.828562,36.644835   L 33.631447,36.701154   L 32.396922,36.7387   L 31.162397,36.757473   L 29.946578,36.7387   L 28.749463,36.719927   L 27.552348,36.644835   L 26.392643,36.569743   L 25.214233,36.475878   L 24.073233,36.344468   L 22.950937,36.213057   L 21.828642,36.0441   L 20.743757,35.85637   L 19.658871,35.649868   L 18.611396,35.443365   L 17.56392,35.199317   L 16.553855,34.936495   L 15.562494,34.6549   L 14.589838,34.354533   L 13.635887,34.054165   L 12.719346,33.716252   L 11.82151,33.378339   L 10.942378,33.021652   L 10.100657,32.646193   L 9.2776405,32.25196   L 8.4920339,31.838955   L 7.7438371,31.42595   L 7.0143452,30.994172   L 6.3222631,30.54362   L 5.648886,30.093069   L 5.0129187,29.623745   L 4.4143612,29.135648   L 3.8532136,28.628777   L 3.3294758,28.14068   L 2.824443,27.615037   L 2.3755249,27.089394   L 2.7870331,27.44608   L 3.2546562,27.82154   L 3.7409841,28.196999   L 4.2834268,28.572459   L 4.8632793,28.947918   L 5.4618368,29.323377   L 6.116509,29.71761   L 6.7898861,30.093069   L 7.5006731,30.468528   L 8.2488699,30.843988   L 9.0157716,31.219447   L 9.8200832,31.594907   L 10.661805,31.951593   L 11.522231,32.308279   L 12.401362,32.646193   L 13.336608,32.984106   L 14.271854,33.303247   L 15.24451,33.603614   L 16.235871,33.903982   L 17.245937,34.185576   L 18.274707,34.448398   L 19.340888,34.711219   L 20.407068,34.936495   L 22.614249,35.3495   L 23.755249,35.518457   L 24.896249,35.649868   L 26.055954,35.781279   L 27.234364,35.875143   L 28.431479,35.950235   L 29.628594,35.987781   L 30.844414,36.006554   L 32.078939,35.987781   L 33.313463,35.950235   L 34.529283,35.893916   L 35.726398,35.818825   L 36.904808,35.706187   L 38.083218,35.574776   L 39.242923,35.424592   L 40.365218,35.255635   L 41.487514,35.049133   L 42.591104,34.84263   L 43.675989,34.617355   L 44.74217,34.373306   L 45.77094,34.110484   L 46.799711,33.82889   L 47.791072,33.528522   L 48.763728,33.209382   L 49.698974,32.890241   L 50.615515,32.552328   L 51.513351,32.195642   L 52.373777,31.820182   L 53.215499,31.444723   L 54.01981,31.069263   L 54.786712,30.656258   L 55.534909,30.262026   L 56.245696,29.84902   L 56.919073,29.417242   L 57.55504,28.985464   L 58.172303,28.534913   L 58.73345,28.103134   L 59.275893,27.652583   L 59.780926,27.183259   L 60.229844,26.732708   z "
     id="path21" />
  <path
     style="fill:none;stroke:#000000;stroke-width:0.093524605px;stroke-linecap:round;stroke-linejoin:round;stroke-miterlimit:4;stroke-dasharray:none;stroke-opacity:1;"
     d="  M 62.287385,15.731748   L 62.249975,16.538986   L 62.119041,17.32745   L 61.931992,18.115915   L 61.651418,18.885607   L 61.314729,19.636525   L 60.884516,20.368671   L 60.398188,21.100817   L 59.83704,21.81419   L 59.219778,22.490017   L 58.527696,23.165844   L 57.779499,23.822897   L 56.975188,24.461178   L 56.096056,25.080686   L 55.179515,25.662648   L 54.206859,26.225837   L 53.178089,26.770254   L 52.093203,27.295897   L 50.952203,27.783994   L 49.792498,28.253318   L 48.557973,28.685096   L 47.304744,29.079329   L 45.995399,29.454788   L 44.648645,29.811474   L 43.283186,30.130615   L 41.861612,30.393437   L 40.421333,30.656258   L 38.943644,30.862761   L 37.428546,31.031717   L 35.894742,31.163128   L 34.342234,31.275766   L 32.771021,31.332085   L 31.162397,31.350858   L 29.553774,31.332085   L 27.982561,31.275766   L 26.430053,31.163128   L 24.896249,31.031717   L 23.381151,30.862761   L 21.903462,30.656258   L 20.463183,30.393437   L 19.041609,30.130615   L 17.67615,29.811474   L 16.329396,29.454788   L 15.020051,29.079329   L 13.766821,28.685096   L 12.532297,28.253318   L 11.372592,27.783994   L 10.231591,27.295897   L 9.1467061,26.770254   L 8.1179355,26.225837   L 7.1452796,25.662648   L 6.2287385,25.080686   L 5.3496072,24.461178   L 4.5452957,23.822897   L 3.7970988,23.165844   L 3.1050168,22.490017   L 2.4877544,21.81419   L 1.9266068,21.100817   L 1.4402789,20.368671   L 1.0100657,19.636525   L 0.67337714,18.885607   L 0.39280333,18.115915   L 0.20575412,17.32745   L 0.074819682,16.538986   L 0.037409841,15.731748   L 0.037409841,21.138363   L 0.074819682,21.945601   L 0.20575412,22.734065   L 0.39280333,23.52253   L 0.67337714,24.292222   L 1.0100657,25.04314   L 1.4402789,25.775286   L 1.9266068,26.507432   L 2.4877544,27.220805   L 3.1050168,27.896632   L 3.7970988,28.572459   L 4.5452957,29.229512   L 5.3496072,29.867793   L 6.2287385,30.487301   L 7.1452796,31.069263   L 8.1179355,31.632452   L 9.1467061,32.176869   L 10.231591,32.702512   L 11.372592,33.190609   L 12.532297,33.659933   L 13.766821,34.091711   L 15.020051,34.485944   L 16.329396,34.861403   L 17.67615,35.21809   L 19.041609,35.53723   L 20.463183,35.800052   L 21.903462,36.062873   L 23.381151,36.269376   L 24.896249,36.438332   L 26.430053,36.569743   L 27.982561,36.682381   L 29.553774,36.7387   L 31.162397,36.757473   L 32.771021,36.7387   L 34.342234,36.682381   L 35.894742,36.569743   L 37.428546,36.438332   L 38.943644,36.269376   L 40.421333,36.062873   L 41.861612,35.800052   L 43.283186,35.53723   L 44.648645,35.21809   L 45.995399,34.861403   L 47.304744,34.485944   L 48.557973,34.091711   L 49.792498,33.659933   L 50.952203,33.190609   L 52.093203,32.702512   L 53.178089,32.176869   L 54.206859,31.632452   L 55.179515,31.069263   L 56.096056,30.487301   L 56.975188,29.867793   L 57.779499,29.229512   L 58.527696,28.572459   L 59.219778,27.896632   L 59.83704,27.220805   L 60.398188,26.507432   L 60.884516,25.775286   L 61.314729,25.04314   L 61.651418,24.292222   L 61.931992,23.52253   L 62.119041,22.734065   L 62.249975,21.945601   L 62.287385,21.138363   L 62.287385,15.750521   L 62.287385,15.731748   z "
     id="path23" />
  <path
     style="fill:#e2e2e2;fill-rule:evenodd;fill-opacity:1;stroke:#000000;stroke-width:0.093524605px;stroke-linecap:round;stroke-linejoin:round;stroke-miterlimit:4;stroke-dasharray:none;stroke-opacity:1;"
     d="  M 47.117695,42.652185   L 47.117695,42.670958   L 47.136399,42.670958   L 47.155104,42.689731   L 47.173809,42.727277   L 47.192514,42.74605   L 47.229924,42.821142   L 47.267334,42.858688   L 47.286039,42.896234   L 47.323449,42.952553   L 47.342154,42.990099   L 47.379563,43.046418   L 47.416973,43.083963   L 47.491793,43.196601   L 47.510498,43.234147   L 47.547908,43.290466   L 47.585318,43.328012   L 47.622727,43.384331   L 47.641432,43.421877   L 47.678842,43.478196   L 47.697547,43.515742   L 47.734957,43.553288   L 47.772367,43.62838   L 47.791072,43.647153   L 47.809777,43.684698   L 47.828482,43.703471   L 47.847186,43.703471   L 47.847186,43.722244   L 47.865891,43.722244   L 47.884596,43.703471   L 47.922006,43.703471   L 47.959416,43.684698   L 48.12776,43.62838   L 48.2774,43.590834   L 48.352219,43.553288   L 48.427039,43.534515   L 48.501859,43.496969   L 48.595383,43.478196   L 48.670203,43.44065   L 48.857252,43.403104   L 48.932072,43.365558   L 49.025596,43.346785   L 49.100416,43.309239   L 49.175236,43.290466   L 49.250056,43.25292   L 49.399695,43.215374   L 49.568039,43.159055   L 49.605449,43.140282   L 49.642859,43.140282   L 49.661564,43.121509   L 49.680269,43.121509   L 49.680269,43.06519   L 49.698974,43.046418   L 49.698974,42.93378   L 49.717679,42.877461   L 49.717679,42.783596   L 49.736383,42.727277   L 49.736383,42.670958   L 49.755088,42.614639   L 49.755088,42.55832   L 49.773793,42.502001   L 49.773793,42.370591   L 49.792498,42.314272   L 49.792498,42.257953   L 49.811203,42.201634   L 49.811203,42.107769   L 49.829908,42.05145   L 49.829908,41.938812   L 49.848613,41.920039   L 49.848613,41.86372   L 49.829908,41.844948   L 50.222711,41.713537   L 50.59681,41.600899   L 50.989613,41.469488   L 51.345007,41.35685   L 52.055794,41.094029   L 52.392482,40.981391   L 53.028449,40.718569   L 53.346433,40.605932   L 53.627007,40.474521   L 53.926286,40.361883   L 54.188154,40.230472   L 54.450023,40.117834   L 55.385269,39.64851   L 55.946417,39.310597   L 56.096056,39.197959   L 56.245696,39.104094   L 56.37663,38.991456   L 56.48886,38.897591   L 56.601089,38.784954   L 56.750729,38.597224   L 56.806843,38.503359   L 56.844253,38.428267   L 56.881663,38.334402   L 56.881663,38.25931   L 56.844253,37.865078   L 56.825548,37.4333   L 56.825548,37.020295   L 56.844253,36.569743   L 56.881663,36.119192   L 56.937778,35.668641   L 57.012597,35.21809   L 57.199647,34.279441   L 57.311876,33.810117   L 57.442811,33.359566   L 57.573745,32.890241   L 57.70468,32.43969   L 57.854319,31.989139   L 58.003958,31.557361   L 58.172303,31.125582   L 58.471581,30.299572   L 58.621221,29.924112   L 58.789565,29.548653   L 58.939204,29.210739   L 59.070139,28.872826   L 59.201073,28.572459   L 59.332008,28.290864   L 59.462942,28.028042   L 59.556467,27.802767   L 59.649991,27.615037   L 59.743516,27.44608   L 59.799631,27.31467   L 59.855745,27.220805   L 59.87445,27.164486   L 59.893155,27.145713   L 59.893155,27.164486   L 59.87445,27.164486   L 59.87445,27.183259   L 59.855745,27.183259   L 59.855745,27.202032   L 59.83704,27.202032   L 59.83704,27.220805   L 59.818336,27.220805   L 59.818336,27.239578   L 59.799631,27.239578   L 59.799631,27.258351   L 59.332008,27.783994   L 58.84568,28.290864   L 58.303237,28.778961   L 57.742089,29.267058   L 57.143532,29.736383   L 56.507565,30.205707   L 55.834187,30.656258   L 55.142105,31.088036   L 54.412614,31.519815   L 53.645712,31.93282   L 52.860105,32.327052   L 52.055794,32.721285   L 51.214072,33.077971   L 50.334941,33.434657   L 49.437105,33.772571   L 48.520564,34.091711   L 47.585318,34.410852   L 45.640006,34.974041   L 44.62994,35.21809   L 43.60117,35.462138   L 42.553694,35.668641   L 41.468809,35.875143   L 40.383923,36.062873   L 39.299038,36.213057   L 38.176743,36.363241   L 37.035742,36.475878   L 35.894742,36.569743   L 34.716332,36.663608   L 33.556627,36.719927   L 31.162397,36.757473   L 28.768168,36.719927   L 27.571053,36.663608   L 25.251643,36.475878   L 24.110642,36.363241   L 22.988347,36.213057   L 21.884757,36.0441   L 20.799872,35.875143   L 19.714986,35.668641   L 18.667511,35.443365   L 17.63874,35.199317   L 16.628674,34.955268   L 15.637313,34.673673   L 14.664658,34.373306   L 13.729412,34.072938   L 12.794166,33.753798   L 11.896329,33.397112   L 11.035903,33.040425   L 10.194182,32.683739   L 9.3711651,32.289506   L 8.5855585,31.876501   L 7.8373617,31.463496   L 7.1078698,31.031717   L 6.3970828,30.599939   L 5.7424106,30.149388   L 5.1064433,29.680064   L 4.5078858,29.191967   L 3.9280333,28.703869   L 3.4042955,28.196999   L 2.9179676,27.690129   L 2.4503446,27.164486   L 2.4316397,27.164486   L 2.4316397,27.145713   L 2.4129347,27.145713   L 2.4316397,27.164486   L 2.4503446,27.220805   L 2.5064593,27.31467   L 2.5625741,27.44608   L 2.6560987,27.615037   L 2.7496233,27.802767   L 2.8431479,28.028042   L 2.9740823,28.290864   L 3.1050168,28.572459   L 3.2359512,28.872826   L 3.3668857,29.210739   L 3.516525,29.548653   L 3.6848693,29.924112   L 3.8345087,30.299572   L 3.9841481,30.712577   L 4.1524923,31.125582   L 4.4517711,31.989139   L 4.6014104,32.43969   L 4.7323449,32.890241   L 4.8632793,33.359566   L 4.9942138,33.810117   L 5.1064433,34.279441   L 5.2934925,35.21809   L 5.3683122,35.668641   L 5.4244269,36.119192   L 5.4618368,36.569743   L 5.4805417,37.020295   L 5.4805417,37.4333   L 5.4618368,37.865078   L 5.4244269,38.25931   L 5.4244269,38.334402   L 5.4618368,38.428267   L 5.4805417,38.503359   L 5.5927712,38.691089   L 5.6675909,38.784954   L 5.7611155,38.878818   L 5.9855745,39.066548   L 6.0978041,39.179186   L 6.2474434,39.273051   L 6.3970828,39.385689   L 6.7337714,39.610964   L 7.1078698,39.83624   L 7.3136239,39.948878   L 7.762542,40.174153   L 8.0057059,40.286791   L 8.2488699,40.418202   L 8.5107388,40.53084   L 8.7913126,40.66225   L 9.0531815,40.774888   L 9.3524602,40.887526   L 9.6517389,41.018937   L 9.9510177,41.131575   L 10.586985,41.394396   L 10.904969,41.507034   L 11.260362,41.638445   L 11.597051,41.751083   L 11.615756,41.751083   L 11.615756,41.769856   L 11.653165,41.769856   L 11.653165,41.788629   L 11.690575,41.788629   L 11.690575,41.807402   L 11.70928,41.807402   L 11.70928,41.86372   L 11.727985,41.901266   L 11.727985,42.013904   L 11.74669,42.05145   L 11.74669,42.164088   L 11.765395,42.220407   L 11.765395,42.333045   L 11.7841,42.408137   L 11.7841,42.520774   L 11.802805,42.595866   L 11.802805,42.708504   L 11.82151,42.764823   L 11.82151,42.877461   L 11.840215,42.915007   L 11.840215,43.027645   L 11.85892,43.06519   L 11.85892,43.121509   L 11.877624,43.121509   L 11.896329,43.140282   L 11.933739,43.140282   L 11.971149,43.159055   L 12.139493,43.215374   L 12.289133,43.25292   L 12.363952,43.290466   L 12.438772,43.309239   L 12.513592,43.346785   L 12.607116,43.365558   L 12.681936,43.403104   L 12.868985,43.44065   L 12.943805,43.478196   L 13.03733,43.496969   L 13.112149,43.534515   L 13.186969,43.553288   L 13.261789,43.590834   L 13.411428,43.62838   L 13.579772,43.684698   L 13.617182,43.703471   L 13.654592,43.703471   L 13.673297,43.722244   L 13.692002,43.722244   L 13.692002,43.703471   L 13.710707,43.703471   L 13.729412,43.684698   L 13.748117,43.647153   L 13.766821,43.62838   L 13.804231,43.553288   L 13.841641,43.515742   L 13.860346,43.478196   L 13.897756,43.421877   L 13.916461,43.384331   L 13.953871,43.328012   L 13.99128,43.290466   L 14.02869,43.234147   L 14.0661,43.196601   L 14.084805,43.140282   L 14.122215,43.083963   L 14.159625,43.046418   L 14.197035,42.990099   L 14.21574,42.952553   L 14.253149,42.896234   L 14.271854,42.858688   L 14.309264,42.821142   L 14.346674,42.74605   L 14.365379,42.727277   L 14.384084,42.689731   L 14.402789,42.670958   L 14.421494,42.670958   L 14.421494,42.652185   L 14.402789,42.652185   L 14.833002,42.783596   L 15.263215,42.896234   L 16.161051,43.121509   L 16.609969,43.25292   L 17.077592,43.365558   L 17.52651,43.459423   L 17.994133,43.572061   L 18.480461,43.684698   L 18.948084,43.778563   L 20.893396,44.154023   L 21.398429,44.247888   L 21.884757,44.322979   L 23.399855,44.548255   L 25.92502,44.82985   L 26.448757,44.867395   L 27.458823,44.942487   L 27.963856,44.96126   L 28.487594,44.980033   L 29.49766,45.017579   L 31.106283,45.017579   L 31.648725,44.998806   L 32.209873,44.980033   L 32.771021,44.942487   L 33.313463,44.923714   L 34.435759,44.848623   L 34.978201,44.792304   L 35.539349,44.754758   L 36.100496,44.698439   L 36.661644,44.623347   L 37.204087,44.567028   L 37.765234,44.491936   L 38.85012,44.341752   L 39.411267,44.26666   L 39.95371,44.172796   L 40.477448,44.078931   L 41.562333,43.891201   L 42.086071,43.797336   L 42.609809,43.684698   L 43.133547,43.590834   L 45.153678,43.140282   L 45.640006,43.027645   L 46.126334,42.896234   L 46.612662,42.783596   L 47.080285,42.652185   L 47.09899,42.652185   L 47.117695,42.652185   z "
     id="path25" />
  <path
     style="fill:#000000;fill-rule:evenodd;fill-opacity:1;stroke:#000000;stroke-width:0.018704921px;stroke-linecap:round;stroke-linejoin:round;stroke-miterlimit:4;stroke-dasharray:none;stroke-opacity:1;"
     d="  M 31.181102,38.25931   L 30.283266,38.25931   L 30.283266,43.928747   L 31.181102,43.928747   L 31.181102,38.25931   z "
     id="path27" />
  <path
     style="fill:#bfbfbf;fill-rule:evenodd;fill-opacity:1;stroke:#bfbfbf;stroke-width:0.018704921px;stroke-linecap:round;stroke-linejoin:round;stroke-miterlimit:4;stroke-dasharray:none;stroke-opacity:1;"
     d="  M 31.181102,40.174153   L 30.283266,40.174153   L 30.283266,43.928747   L 31.181102,43.928747   L 31.181102,40.174153   z "
     id="path29" />
  <path
     style="fill:#000000;fill-rule:evenodd;fill-opacity:1;stroke:#000000;stroke-width:0.018704921px;stroke-linecap:round;stroke-linejoin:round;stroke-miterlimit:4;stroke-dasharray:none;stroke-opacity:1;"
     d="  M 28.992627,38.202992   L 28.09479,38.202992   L 28.09479,43.872428   L 28.992627,43.872428   L 28.992627,38.202992   z "
     id="path31" />
  <path
     style="fill:#bfbfbf;fill-rule:evenodd;fill-opacity:1;stroke:#bfbfbf;stroke-width:0.018704921px;stroke-linecap:round;stroke-linejoin:round;stroke-miterlimit:4;stroke-dasharray:none;stroke-opacity:1;"
     d="  M 28.992627,40.117834   L 28.09479,40.117834   L 28.09479,43.872428   L 28.992627,43.872428   L 28.992627,40.117834   z "
     id="path33" />
  <path
     style="fill:#000000;fill-rule:evenodd;fill-opacity:1;stroke:#000000;stroke-width:0.018704921px;stroke-linecap:round;stroke-linejoin:round;stroke-miterlimit:4;stroke-dasharray:none;stroke-opacity:1;"
     d="  M 26.822856,38.071581   L 25.92502,38.071581   L 25.92502,43.741017   L 26.822856,43.741017   L 26.822856,38.071581   z "
     id="path35" />
  <path
     style="fill:#bfbfbf;fill-rule:evenodd;fill-opacity:1;stroke:#bfbfbf;stroke-width:0.018704921px;stroke-linecap:round;stroke-linejoin:round;stroke-miterlimit:4;stroke-dasharray:none;stroke-opacity:1;"
     d="  M 26.822856,39.986424   L 25.92502,39.986424   L 25.92502,43.741017   L 26.822856,43.741017   L 26.822856,39.986424   z "
     id="path37" />
  <path
     style="fill:#000000;fill-rule:evenodd;fill-opacity:1;stroke:#000000;stroke-width:0.018704921px;stroke-linecap:round;stroke-linejoin:round;stroke-miterlimit:4;stroke-dasharray:none;stroke-opacity:1;"
     d="  M 24.63438,37.827532   L 23.736544,37.827532   L 23.736544,43.496969   L 24.63438,43.496969   L 24.63438,37.827532   z "
     id="path39" />
  <path
     style="fill:#bfbfbf;fill-rule:evenodd;fill-opacity:1;stroke:#bfbfbf;stroke-width:0.018704921px;stroke-linecap:round;stroke-linejoin:round;stroke-miterlimit:4;stroke-dasharray:none;stroke-opacity:1;"
     d="  M 24.63438,39.742375   L 23.736544,39.742375   L 23.736544,43.496969   L 24.63438,43.496969   L 24.63438,39.742375   z "
     id="path41" />
  <path
     style="fill:#000000;fill-rule:evenodd;fill-opacity:1;stroke:#000000;stroke-width:0.018704921px;stroke-linecap:round;stroke-linejoin:round;stroke-miterlimit:4;stroke-dasharray:none;stroke-opacity:1;"
     d="  M 22.445905,37.508392   L 21.548068,37.508392   L 21.548068,43.177828   L 22.445905,43.177828   L 22.445905,37.508392   z "
     id="path43" />
  <path
     style="fill:#bfbfbf;fill-rule:evenodd;fill-opacity:1;stroke:#bfbfbf;stroke-width:0.018704921px;stroke-linecap:round;stroke-linejoin:round;stroke-miterlimit:4;stroke-dasharray:none;stroke-opacity:1;"
     d="  M 22.445905,39.423235   L 21.548068,39.423235   L 21.548068,43.177828   L 22.445905,43.177828   L 22.445905,39.423235   z "
     id="path45" />
  <path
     style="fill:#000000;fill-rule:evenodd;fill-opacity:1;stroke:#000000;stroke-width:0.018704921px;stroke-linecap:round;stroke-linejoin:round;stroke-miterlimit:4;stroke-dasharray:none;stroke-opacity:1;"
     d="  M 20.257429,37.095386   L 19.359593,37.095386   L 19.359593,42.764823   L 20.257429,42.764823   L 20.257429,37.095386   z "
     id="path47" />
  <path
     style="fill:#bfbfbf;fill-rule:evenodd;fill-opacity:1;stroke:#bfbfbf;stroke-width:0.018704921px;stroke-linecap:round;stroke-linejoin:round;stroke-miterlimit:4;stroke-dasharray:none;stroke-opacity:1;"
     d="  M 20.257429,39.010229   L 19.359593,39.010229   L 19.359593,42.764823   L 20.257429,42.764823   L 20.257429,39.010229   z "
     id="path49" />
  <path
     style="fill:#000000;fill-rule:evenodd;fill-opacity:1;stroke:#000000;stroke-width:0.018704921px;stroke-linecap:round;stroke-linejoin:round;stroke-miterlimit:4;stroke-dasharray:none;stroke-opacity:1;"
     d="  M 18.087658,36.626062   L 17.189822,36.626062   L 17.189822,42.295499   L 18.087658,42.295499   L 18.087658,36.626062   z "
     id="path51" />
  <path
     style="fill:#bfbfbf;fill-rule:evenodd;fill-opacity:1;stroke:#bfbfbf;stroke-width:0.018704921px;stroke-linecap:round;stroke-linejoin:round;stroke-miterlimit:4;stroke-dasharray:none;stroke-opacity:1;"
     d="  M 18.087658,38.540905   L 17.189822,38.540905   L 17.189822,42.295499   L 18.087658,42.295499   L 18.087658,38.540905   z "
     id="path53" />
  <path
     style="fill:#000000;fill-rule:evenodd;fill-opacity:1;stroke:#000000;stroke-width:0.018704921px;stroke-linecap:round;stroke-linejoin:round;stroke-miterlimit:4;stroke-dasharray:none;stroke-opacity:1;"
     d="  M 15.899182,36.081646   L 15.001346,36.081646   L 15.001346,41.751083   L 15.899182,41.751083   L 15.899182,36.081646   z "
     id="path55" />
  <path
     style="fill:#bfbfbf;fill-rule:evenodd;fill-opacity:1;stroke:#bfbfbf;stroke-width:0.018704921px;stroke-linecap:round;stroke-linejoin:round;stroke-miterlimit:4;stroke-dasharray:none;stroke-opacity:1;"
     d="  M 15.899182,37.996489   L 15.001346,37.996489   L 15.001346,41.751083   L 15.899182,41.751083   L 15.899182,37.996489   z "
     id="path57" />
  <path
     style="fill:#000000;fill-rule:evenodd;fill-opacity:1;stroke:#000000;stroke-width:0.018704921px;stroke-linecap:round;stroke-linejoin:round;stroke-miterlimit:4;stroke-dasharray:none;stroke-opacity:1;"
     d="  M 46.463022,36.119192   L 45.565186,36.119192   L 45.565186,41.788629   L 46.463022,41.788629   L 46.463022,36.119192   z "
     id="path59" />
  <path
     style="fill:#bfbfbf;fill-rule:evenodd;fill-opacity:1;stroke:#bfbfbf;stroke-width:0.018704921px;stroke-linecap:round;stroke-linejoin:round;stroke-miterlimit:4;stroke-dasharray:none;stroke-opacity:1;"
     d="  M 46.463022,38.034035   L 45.565186,38.034035   L 45.565186,41.788629   L 46.463022,41.788629   L 46.463022,38.034035   z "
     id="path61" />
  <path
     style="fill:#000000;fill-rule:evenodd;fill-opacity:1;stroke:#000000;stroke-width:0.018704921px;stroke-linecap:round;stroke-linejoin:round;stroke-miterlimit:4;stroke-dasharray:none;stroke-opacity:1;"
     d="  M 44.274547,36.569743   L 43.37671,36.569743   L 43.37671,42.23918   L 44.274547,42.23918   L 44.274547,36.569743   z "
     id="path63" />
  <path
     style="fill:#bfbfbf;fill-rule:evenodd;fill-opacity:1;stroke:#bfbfbf;stroke-width:0.018704921px;stroke-linecap:round;stroke-linejoin:round;stroke-miterlimit:4;stroke-dasharray:none;stroke-opacity:1;"
     d="  M 44.274547,38.484586   L 43.37671,38.484586   L 43.37671,42.23918   L 44.274547,42.23918   L 44.274547,38.484586   z "
     id="path65" />
  <path
     style="fill:#000000;fill-rule:evenodd;fill-opacity:1;stroke:#000000;stroke-width:0.018704921px;stroke-linecap:round;stroke-linejoin:round;stroke-miterlimit:4;stroke-dasharray:none;stroke-opacity:1;"
     d="  M 42.104776,37.039067   L 41.20694,37.039067   L 41.20694,42.708504   L 42.104776,42.708504   L 42.104776,37.039067   z "
     id="path67" />
  <path
     style="fill:#bfbfbf;fill-rule:evenodd;fill-opacity:1;stroke:#bfbfbf;stroke-width:0.018704921px;stroke-linecap:round;stroke-linejoin:round;stroke-miterlimit:4;stroke-dasharray:none;stroke-opacity:1;"
     d="  M 42.104776,38.95391   L 41.20694,38.95391   L 41.20694,42.708504   L 42.104776,42.708504   L 42.104776,38.95391   z "
     id="path69" />
  <path
     style="fill:#000000;fill-rule:evenodd;fill-opacity:1;stroke:#000000;stroke-width:0.018704921px;stroke-linecap:round;stroke-linejoin:round;stroke-miterlimit:4;stroke-dasharray:none;stroke-opacity:1;"
     d="  M 39.9163,37.414527   L 39.018464,37.414527   L 39.018464,43.083963   L 39.9163,43.083963   L 39.9163,37.414527   z "
     id="path71" />
  <path
     style="fill:#bfbfbf;fill-rule:evenodd;fill-opacity:1;stroke:#bfbfbf;stroke-width:0.018704921px;stroke-linecap:round;stroke-linejoin:round;stroke-miterlimit:4;stroke-dasharray:none;stroke-opacity:1;"
     d="  M 39.9163,39.32937   L 39.018464,39.32937   L 39.018464,43.083963   L 39.9163,43.083963   L 39.9163,39.32937   z "
     id="path73" />
  <path
     style="fill:#000000;fill-rule:evenodd;fill-opacity:1;stroke:#000000;stroke-width:0.018704921px;stroke-linecap:round;stroke-linejoin:round;stroke-miterlimit:4;stroke-dasharray:none;stroke-opacity:1;"
     d="  M 37.727825,37.733667   L 36.829988,37.733667   L 36.829988,43.403104   L 37.727825,43.403104   L 37.727825,37.733667   z "
     id="path75" />
  <path
     style="fill:#bfbfbf;fill-rule:evenodd;fill-opacity:1;stroke:#bfbfbf;stroke-width:0.018704921px;stroke-linecap:round;stroke-linejoin:round;stroke-miterlimit:4;stroke-dasharray:none;stroke-opacity:1;"
     d="  M 37.727825,39.64851   L 36.829988,39.64851   L 36.829988,43.403104   L 37.727825,43.403104   L 37.727825,39.64851   z "
     id="path77" />
  <path
     style="fill:#000000;fill-rule:evenodd;fill-opacity:1;stroke:#000000;stroke-width:0.018704921px;stroke-linecap:round;stroke-linejoin:round;stroke-miterlimit:4;stroke-dasharray:none;stroke-opacity:1;"
     d="  M 35.539349,38.015262   L 34.641513,38.015262   L 34.641513,43.684698   L 35.539349,43.684698   L 35.539349,38.015262   z "
     id="path79" />
  <path
     style="fill:#bfbfbf;fill-rule:evenodd;fill-opacity:1;stroke:#bfbfbf;stroke-width:0.018704921px;stroke-linecap:round;stroke-linejoin:round;stroke-miterlimit:4;stroke-dasharray:none;stroke-opacity:1;"
     d="  M 35.539349,39.930105   L 34.641513,39.930105   L 34.641513,43.684698   L 35.539349,43.684698   L 35.539349,39.930105   z "
     id="path81" />
  <path
     style="fill:#000000;fill-rule:evenodd;fill-opacity:1;stroke:#000000;stroke-width:0.018704921px;stroke-linecap:round;stroke-linejoin:round;stroke-miterlimit:4;stroke-dasharray:none;stroke-opacity:1;"
     d="  M 33.369578,38.165446   L 32.471742,38.165446   L 32.471742,43.834882   L 33.369578,43.834882   L 33.369578,38.165446   z "
     id="path83" />
  <path
     style="fill:#bfbfbf;fill-rule:evenodd;fill-opacity:1;stroke:#bfbfbf;stroke-width:0.018704921px;stroke-linecap:round;stroke-linejoin:round;stroke-miterlimit:4;stroke-dasharray:none;stroke-opacity:1;"
     d="  M 33.369578,40.080288   L 32.471742,40.080288   L 32.471742,43.834882   L 33.369578,43.834882   L 33.369578,40.080288   z "
     id="path85" />
  <path
     style="fill:#d1d1d1;fill-rule:evenodd;fill-opacity:1;stroke:#c1c1c1;stroke-width:0.018704921px;stroke-linecap:round;stroke-linejoin:round;stroke-miterlimit:4;stroke-dasharray:none;stroke-opacity:1;"
     d="  M 52.486007,37.24557   L 52.486007,37.020295   L 52.467302,36.813792   L 52.429892,36.607289   L 52.355072,36.23183   L 52.298958,36.0441   L 52.224138,35.875143   L 52.149318,35.72496   L 52.074498,35.593549   L 51.980974,35.462138   L 51.906154,35.368273   L 51.793925,35.274408   L 51.7004,35.199317   L 51.588171,35.142998   L 51.363712,35.105452   L 51.139252,35.142998   L 51.027023,35.199317   L 50.933498,35.274408   L 50.821269,35.368273   L 50.746449,35.462138   L 50.652925,35.593549   L 50.578105,35.72496   L 50.503285,35.875143   L 50.428465,36.0441   L 50.372351,36.23183   L 50.297531,36.607289   L 50.260121,36.813792   L 50.241416,37.020295   L 50.241416,37.470846   L 50.260121,37.677348   L 50.297531,37.883851   L 50.372351,38.25931   L 50.428465,38.44704   L 50.503285,38.615997   L 50.578105,38.766181   L 50.652925,38.897591   L 50.746449,39.029002   L 50.821269,39.122867   L 50.933498,39.216732   L 51.027023,39.291824   L 51.139252,39.348143   L 51.363712,39.385689   L 51.588171,39.348143   L 51.7004,39.291824   L 51.793925,39.216732   L 51.906154,39.122867   L 51.980974,39.029002   L 52.074498,38.897591   L 52.149318,38.766181   L 52.224138,38.615997   L 52.298958,38.44704   L 52.355072,38.25931   L 52.429892,37.883851   L 52.467302,37.677348   L 52.486007,37.470846   L 52.486007,37.24557   z "
     id="path87" />
  <path
     style="fill:#d1d1d1;fill-rule:evenodd;fill-opacity:1;stroke:#c1c1c1;stroke-width:0.018704921px;stroke-linecap:round;stroke-linejoin:round;stroke-miterlimit:4;stroke-dasharray:none;stroke-opacity:1;"
     d="  M 12.008559,37.24557   L 12.008559,37.020295   L 11.989854,36.813792   L 11.952444,36.607289   L 11.877624,36.23183   L 11.82151,36.0441   L 11.74669,35.875143   L 11.67187,35.72496   L 11.597051,35.593549   L 11.503526,35.462138   L 11.428706,35.368273   L 11.316477,35.274408   L 11.222952,35.199317   L 11.110723,35.142998   L 10.886264,35.105452   L 10.661805,35.142998   L 10.549575,35.199317   L 10.456051,35.274408   L 10.343821,35.368273   L 10.269001,35.462138   L 10.175477,35.593549   L 10.100657,35.72496   L 10.025837,35.875143   L 9.9510177,36.0441   L 9.8949029,36.23183   L 9.8200832,36.607289   L 9.7826734,36.813792   L 9.7639685,37.020295   L 9.7639685,37.470846   L 9.7826734,37.677348   L 9.8200832,37.883851   L 9.8949029,38.25931   L 9.9510177,38.44704   L 10.025837,38.615997   L 10.100657,38.766181   L 10.175477,38.897591   L 10.269001,39.029002   L 10.343821,39.122867   L 10.456051,39.216732   L 10.549575,39.291824   L 10.661805,39.348143   L 10.886264,39.385689   L 11.110723,39.348143   L 11.222952,39.291824   L 11.316477,39.216732   L 11.428706,39.122867   L 11.503526,39.029002   L 11.597051,38.897591   L 11.67187,38.766181   L 11.74669,38.615997   L 11.82151,38.44704   L 11.877624,38.25931   L 11.952444,37.883851   L 11.989854,37.677348   L 12.008559,37.470846   L 12.008559,37.24557   z "
     id="path89" />
  <path
     style="fill:#e2e2e2;fill-rule:evenodd;fill-opacity:1;stroke:#e2e2e2;stroke-width:0.018704921px;stroke-linecap:round;stroke-linejoin:round;stroke-miterlimit:4;stroke-dasharray:none;stroke-opacity:1;"
     d="  M 52.486007,37.24557   L 52.486007,37.283116   L 52.467302,37.320662   L 52.392482,37.358208   L 52.280253,37.395754   L 52.055794,37.452073   L 51.868744,37.489619   L 51.77522,37.489619   L 51.681695,37.508392   L 51.588171,37.508392   L 51.475941,37.527165   L 50.952203,37.527165   L 50.858679,37.508392   L 50.765154,37.508392   L 50.690334,37.489619   L 50.59681,37.470846   L 50.52199,37.452073   L 50.44717,37.414527   L 50.391056,37.395754   L 50.334941,37.358208   L 50.260121,37.283116   L 50.241416,37.24557   L 50.241416,37.470846   L 50.260121,37.564711   L 50.260121,37.677348   L 50.278826,37.789986   L 50.372351,38.25931   L 50.409761,38.353175   L 50.428465,38.44704   L 50.465875,38.522132   L 50.503285,38.615997   L 50.578105,38.766181   L 50.615515,38.8225   L 50.652925,38.897591   L 50.690334,38.95391   L 50.746449,39.029002   L 50.783859,39.085321   L 50.877384,39.179186   L 50.933498,39.216732   L 50.970908,39.254278   L 51.027023,39.291824   L 51.083138,39.310597   L 51.139252,39.348143   L 51.195367,39.366916   L 51.251482,39.366916   L 51.307597,39.385689   L 51.419826,39.385689   L 51.475941,39.366916   L 51.532056,39.366916   L 51.588171,39.348143   L 51.644285,39.310597   L 51.7004,39.291824   L 51.756515,39.254278   L 51.793925,39.216732   L 51.850039,39.179186   L 51.943564,39.085321   L 51.980974,39.029002   L 52.037089,38.95391   L 52.074498,38.897591   L 52.111908,38.8225   L 52.149318,38.766181   L 52.224138,38.615997   L 52.261548,38.522132   L 52.298958,38.44704   L 52.317662,38.353175   L 52.355072,38.25931   L 52.448597,37.789986   L 52.467302,37.677348   L 52.467302,37.564711   L 52.486007,37.470846   L 52.486007,37.358208   L 52.486007,37.24557   z "
     id="path91" />
  <path
     style="fill:none;stroke:#c1c1c1;stroke-width:0.018704921px;stroke-linecap:round;stroke-linejoin:round;stroke-miterlimit:4;stroke-dasharray:none;stroke-opacity:1;"
     d="  M 52.486007,37.24557   L 52.486007,37.020295   L 52.467302,36.813792   L 52.429892,36.607289   L 52.355072,36.23183   L 52.298958,36.0441   L 52.224138,35.875143   L 52.149318,35.72496   L 52.074498,35.593549   L 51.980974,35.462138   L 51.906154,35.368273   L 51.793925,35.274408   L 51.7004,35.199317   L 51.588171,35.142998   L 51.363712,35.105452   L 51.139252,35.142998   L 51.027023,35.199317   L 50.933498,35.274408   L 50.821269,35.368273   L 50.746449,35.462138   L 50.652925,35.593549   L 50.578105,35.72496   L 50.503285,35.875143   L 50.428465,36.0441   L 50.372351,36.23183   L 50.297531,36.607289   L 50.260121,36.813792   L 50.241416,37.020295   L 50.241416,37.470846   L 50.260121,37.677348   L 50.297531,37.883851   L 50.372351,38.25931   L 50.428465,38.44704   L 50.503285,38.615997   L 50.578105,38.766181   L 50.652925,38.897591   L 50.746449,39.029002   L 50.821269,39.122867   L 50.933498,39.216732   L 51.027023,39.291824   L 51.139252,39.348143   L 51.363712,39.385689   L 51.588171,39.348143   L 51.7004,39.291824   L 51.793925,39.216732   L 51.906154,39.122867   L 51.980974,39.029002   L 52.074498,38.897591   L 52.149318,38.766181   L 52.224138,38.615997   L 52.298958,38.44704   L 52.355072,38.25931   L 52.429892,37.883851   L 52.467302,37.677348   L 52.486007,37.470846   L 52.486007,37.24557   z "
     id="path93" />
  <path
     style="fill:#e2e2e2;fill-rule:evenodd;fill-opacity:1;stroke:#e2e2e2;stroke-width:0.018704921px;stroke-linecap:round;stroke-linejoin:round;stroke-miterlimit:4;stroke-dasharray:none;stroke-opacity:1;"
     d="  M 12.008559,37.24557   L 12.008559,37.283116   L 11.989854,37.320662   L 11.915034,37.358208   L 11.802805,37.395754   L 11.578346,37.452073   L 11.391297,37.489619   L 11.297772,37.489619   L 11.204247,37.508392   L 11.110723,37.508392   L 10.998493,37.527165   L 10.474755,37.527165   L 10.381231,37.508392   L 10.287706,37.508392   L 10.212887,37.489619   L 10.119362,37.470846   L 10.044542,37.452073   L 9.9697226,37.414527   L 9.9136078,37.395754   L 9.8574931,37.358208   L 9.7826734,37.283116   L 9.7639685,37.24557   L 9.7639685,37.470846   L 9.7826734,37.564711   L 9.7826734,37.677348   L 9.8013783,37.789986   L 9.8949029,38.25931   L 9.9323128,38.353175   L 9.9510177,38.44704   L 9.9884275,38.522132   L 10.025837,38.615997   L 10.100657,38.766181   L 10.138067,38.8225   L 10.175477,38.897591   L 10.212887,38.95391   L 10.269001,39.029002   L 10.306411,39.085321   L 10.399936,39.179186   L 10.456051,39.216732   L 10.49346,39.254278   L 10.549575,39.291824   L 10.60569,39.310597   L 10.661805,39.348143   L 10.717919,39.366916   L 10.774034,39.366916   L 10.830149,39.385689   L 10.942378,39.385689   L 10.998493,39.366916   L 11.054608,39.366916   L 11.110723,39.348143   L 11.166837,39.310597   L 11.222952,39.291824   L 11.279067,39.254278   L 11.316477,39.216732   L 11.372592,39.179186   L 11.466116,39.085321   L 11.503526,39.029002   L 11.559641,38.95391   L 11.597051,38.897591   L 11.634461,38.8225   L 11.67187,38.766181   L 11.74669,38.615997   L 11.7841,38.522132   L 11.82151,38.44704   L 11.840215,38.353175   L 11.877624,38.25931   L 11.971149,37.789986   L 11.989854,37.677348   L 11.989854,37.564711   L 12.008559,37.470846   L 12.008559,37.358208   L 12.008559,37.24557   z "
     id="path95" />
  <path
     style="fill:none;stroke:#c1c1c1;stroke-width:0.018704921px;stroke-linecap:round;stroke-linejoin:round;stroke-miterlimit:4;stroke-dasharray:none;stroke-opacity:1;"
     d="  M 12.008559,37.24557   L 12.008559,37.020295   L 11.989854,36.813792   L 11.952444,36.607289   L 11.877624,36.23183   L 11.82151,36.0441   L 11.74669,35.875143   L 11.67187,35.72496   L 11.597051,35.593549   L 11.503526,35.462138   L 11.428706,35.368273   L 11.316477,35.274408   L 11.222952,35.199317   L 11.110723,35.142998   L 10.886264,35.105452   L 10.661805,35.142998   L 10.549575,35.199317   L 10.456051,35.274408   L 10.343821,35.368273   L 10.269001,35.462138   L 10.175477,35.593549   L 10.100657,35.72496   L 10.025837,35.875143   L 9.9510177,36.0441   L 9.8949029,36.23183   L 9.8200832,36.607289   L 9.7826734,36.813792   L 9.7639685,37.020295   L 9.7639685,37.470846   L 9.7826734,37.677348   L 9.8200832,37.883851   L 9.8949029,38.25931   L 9.9510177,38.44704   L 10.025837,38.615997   L 10.100657,38.766181   L 10.175477,38.897591   L 10.269001,39.029002   L 10.343821,39.122867   L 10.456051,39.216732   L 10.549575,39.291824   L 10.661805,39.348143   L 10.886264,39.385689   L 11.110723,39.348143   L 11.222952,39.291824   L 11.316477,39.216732   L 11.428706,39.122867   L 11.503526,39.029002   L 11.597051,38.897591   L 11.67187,38.766181   L 11.74669,38.615997   L 11.82151,38.44704   L 11.877624,38.25931   L 11.952444,37.883851   L 11.989854,37.677348   L 12.008559,37.470846   L 12.008559,37.24557   z "
     id="path97" />
  <ellipse
     style="fill:#00ff00;fill-rule:evenodd;fill-opacity:1;stroke:#000000;stroke-width:0.017966639px;stroke-linecap:round;stroke-linejoin:round;stroke-miterlimit:4;stroke-dasharray:none;stroke-opacity:1;"
     cx="22.593049"
     cy="26.476555"
     rx="0.35034946"
     ry="0.32339951"
     id="ellipse99" />
  <ellipse
     style="fill:none;stroke:#000000;stroke-width:0.017966639px;stroke-linecap:round;stroke-linejoin:round;stroke-miterlimit:4;stroke-dasharray:none;stroke-opacity:1;"
     cx="22.593049"
     cy="26.476555"
     rx="0.35034946"
     ry="0.32339951"
     id="ellipse101" />
  <ellipse
     style="fill:#00ff00;fill-rule:evenodd;fill-opacity:1;stroke:#000000;stroke-width:0.017966639px;stroke-linecap:round;stroke-linejoin:round;stroke-miterlimit:4;stroke-dasharray:none;stroke-opacity:1;"
     cx="31.037369"
     cy="28.275932"
     rx="0.35034946"
     ry="0.32339951"
     id="ellipse103" />
  <ellipse
     style="fill:none;stroke:#000000;stroke-width:0.017966639px;stroke-linecap:round;stroke-linejoin:round;stroke-miterlimit:4;stroke-dasharray:none;stroke-opacity:1;"
     cx="31.037369"
     cy="28.275932"
     rx="0.35034946"
     ry="0.32339951"
     id="ellipse105" />
  <ellipse
     style="fill:#00ff00;fill-rule:evenodd;fill-opacity:1;stroke:#000000;stroke-width:0.017966639px;stroke-linecap:round;stroke-linejoin:round;stroke-miterlimit:4;stroke-dasharray:none;stroke-opacity:1;"
     cx="39.499656"
     cy="26.476555"
     rx="0.35034946"
     ry="0.32339951"
     id="ellipse107" />
  <ellipse
     style="fill:none;stroke:#000000;stroke-width:0.017966639px;stroke-linecap:round;stroke-linejoin:round;stroke-miterlimit:4;stroke-dasharray:none;stroke-opacity:1;"
     cx="39.499656"
     cy="26.476555"
     rx="0.35034946"
     ry="0.32339951"
     id="ellipse109" />
  <path
     style="fill:#7f7f7f;fill-rule:evenodd;fill-opacity:1;stroke:#7f7f7f;stroke-width:0.046469603px;stroke-linecap:round;stroke-linejoin:round;stroke-miterlimit:4;stroke-dasharray:none;stroke-opacity:1;"
     d="  M 31.42894,25.647739   L 30.824835,25.647739   L 30.824835,26.231718   L 31.42894,26.231718   L 31.42894,25.647739   z "
     id="path111" />
  <path
     style="fill:#7f7f7f;fill-rule:evenodd;fill-opacity:1;stroke:#7f7f7f;stroke-width:0.046469603px;stroke-linecap:round;stroke-linejoin:round;stroke-miterlimit:4;stroke-dasharray:none;stroke-opacity:1;"
     d="  M 30.762876,26.578949   L 30.158771,26.578949   L 30.158771,27.162929   L 30.762876,27.162929   L 30.762876,26.578949   z "
     id="path113" />
  <path
     style="fill:#7f7f7f;fill-rule:evenodd;fill-opacity:1;stroke:#7f7f7f;stroke-width:0.046469603px;stroke-linecap:round;stroke-linejoin:round;stroke-miterlimit:4;stroke-dasharray:none;stroke-opacity:1;"
     d="  M 32.095005,26.578949   L 31.4909,26.578949   L 31.4909,27.162929   L 32.095005,27.162929   L 32.095005,26.578949   z "
     id="path115" />
  <path
     style="fill:none;stroke:#7f7f7f;stroke-width:0.046469603px;stroke-linecap:round;stroke-linejoin:round;stroke-miterlimit:4;stroke-dasharray:none;stroke-opacity:1;"
     d="  M 30.034852,26.405334   L 32.218923,26.405334  "
     id="path117" />
  <path
     style="fill:none;stroke:#7f7f7f;stroke-width:0.046469603px;stroke-linecap:round;stroke-linejoin:round;stroke-miterlimit:4;stroke-dasharray:none;stroke-opacity:1;"
     d="  M 31.119143,26.231718   L 31.119143,26.405334  "
     id="path119" />
  <path
     style="fill:none;stroke:#7f7f7f;stroke-width:0.046469603px;stroke-linecap:round;stroke-linejoin:round;stroke-miterlimit:4;stroke-dasharray:none;stroke-opacity:1;"
     d="  M 31.800697,26.405334   L 31.800697,26.578949  "
     id="path121" />
  <path
     style="fill:none;stroke:#7f7f7f;stroke-width:0.046469603px;stroke-linecap:round;stroke-linejoin:round;stroke-miterlimit:4;stroke-dasharray:none;stroke-opacity:1;"
     d="  M 30.437589,26.405334   L 30.437589,26.578949  "
     id="path123" />
  <path
     style="fill:#7f7f7f;fill-rule:evenodd;fill-opacity:1;stroke:#7f7f7f;stroke-width:0.010307803px;stroke-linecap:round;stroke-linejoin:round;stroke-miterlimit:4;stroke-dasharray:none;stroke-opacity:1;"
     d="  M 39.973658,24.209929   L 40.035505,24.240927   L 40.066428,24.271926   L 40.087044,24.282259   L 40.138583,24.333923   L 40.14889,24.354589   L 40.169506,24.364922   L 40.179814,24.385587   L 40.200429,24.406253   L 40.210737,24.426919   L 40.221045,24.437252   L 40.241661,24.478583   L 40.262276,24.499249   L 40.272584,24.519915   L 40.272584,24.540581   L 40.282892,24.571579   L 40.303508,24.612911   L 40.303508,24.633577   L 40.313815,24.654242   L 40.324123,24.685241   L 40.324123,24.726572   L 40.334431,24.757571   L 40.334431,24.902231   L 40.324123,24.93323   L 40.324123,24.974561   L 40.303508,25.036559   L 40.2932,25.07789   L 40.282892,25.108889   L 40.262276,25.139887   L 40.251969,25.170886   L 40.231353,25.191552   L 40.221045,25.22255   L 40.200429,25.253549   L 40.05612,25.398209   L 40.025197,25.418875   L 39.994273,25.429208   L 39.973658,25.449874   L 39.942734,25.460207   L 39.911811,25.480872   L 39.880888,25.491205   L 39.839656,25.501538   L 39.77781,25.522204   L 39.736578,25.522204   L 39.705655,25.532537   L 39.561346,25.532537   L 39.530422,25.522204   L 39.489191,25.522204   L 39.427344,25.501538   L 39.386113,25.491205   L 39.35519,25.480872   L 39.324266,25.460207   L 39.293343,25.449874   L 39.272727,25.429208   L 39.241804,25.418875   L 39.21088,25.398209   L 39.066571,25.253549   L 39.045956,25.22255   L 39.035648,25.191552   L 39.015032,25.170886   L 39.004724,25.139887   L 38.984109,25.108889   L 38.973801,25.07789   L 38.963493,25.036559   L 38.942878,24.974561   L 38.942878,24.93323   L 38.93257,24.902231   L 38.93257,24.757571   L 38.942878,24.736905   L 38.942878,24.695574   L 38.953185,24.674908   L 38.953185,24.654242   L 38.963493,24.633577   L 38.963493,24.612911   L 38.973801,24.592245   L 38.973801,24.571579   L 39.015032,24.488916   L 39.02534,24.478583   L 39.056263,24.416586   L 39.066571,24.406253   L 39.076879,24.385587   L 39.097495,24.375255   L 39.107802,24.354589   L 39.179957,24.282259   L 39.200573,24.271926   L 39.21088,24.25126   L 39.231496,24.240927   L 39.231496,24.25126   L 39.241804,24.25126   L 39.241804,24.261593   L 39.252112,24.261593   L 39.252112,24.271926   L 39.262419,24.282259   L 39.262419,24.292592   L 39.272727,24.292592   L 39.272727,24.313257   L 39.283035,24.313257   L 39.283035,24.32359   L 39.293343,24.333923   L 39.293343,24.344256   L 39.303651,24.344256   L 39.303651,24.354589   L 39.313958,24.354589   L 39.313958,24.364922   L 39.303651,24.375255   L 39.283035,24.385587   L 39.190265,24.478583   L 39.179957,24.499249   L 39.159341,24.519915   L 39.149034,24.540581   L 39.149034,24.550914   L 39.138726,24.571579   L 39.128418,24.581912   L 39.11811,24.602578   L 39.11811,24.612911   L 39.107802,24.633577   L 39.097495,24.643909   L 39.097495,24.664575   L 39.087187,24.685241   L 39.087187,24.695574   L 39.076879,24.71624   L 39.076879,24.747238   L 39.066571,24.767904   L 39.066571,24.902231   L 39.076879,24.922897   L 39.076879,24.953896   L 39.087187,24.984894   L 39.097495,25.00556   L 39.097495,25.036559   L 39.107802,25.057224   L 39.11811,25.088223   L 39.138726,25.108889   L 39.149034,25.129555   L 39.159341,25.160553   L 39.200573,25.201885   L 39.21088,25.22255   L 39.252112,25.263882   L 39.272727,25.274215   L 39.313958,25.315546   L 39.344882,25.325879   L 39.365497,25.336212   L 39.386113,25.356878   L 39.417037,25.367211   L 39.437652,25.377544   L 39.468576,25.377544   L 39.489191,25.387876   L 39.520115,25.398209   L 39.551038,25.398209   L 39.571654,25.408542   L 39.695347,25.408542   L 39.715963,25.398209   L 39.746886,25.398209   L 39.77781,25.387876   L 39.798425,25.377544   L 39.829349,25.377544   L 39.849964,25.367211   L 39.880888,25.356878   L 39.901503,25.336212   L 39.922119,25.325879   L 39.953042,25.315546   L 39.994273,25.274215   L 40.014889,25.263882   L 40.05612,25.22255   L 40.066428,25.201885   L 40.107659,25.160553   L 40.117967,25.129555   L 40.128275,25.108889   L 40.14889,25.088223   L 40.159198,25.057224   L 40.169506,25.036559   L 40.169506,25.00556   L 40.179814,24.984894   L 40.190122,24.953896   L 40.190122,24.922897   L 40.200429,24.902231   L 40.200429,24.778237   L 40.190122,24.757571   L 40.190122,24.726572   L 40.179814,24.705907   L 40.179814,24.685241   L 40.169506,24.664575   L 40.169506,24.643909   L 40.159198,24.633577   L 40.14889,24.612911   L 40.14889,24.592245   L 40.138583,24.581912   L 40.128275,24.561246   L 40.117967,24.550914   L 40.097351,24.509582   L 40.035505,24.447585   L 40.025197,24.426919   L 40.004581,24.416586   L 39.983966,24.39592   L 39.96335,24.385587   L 39.953042,24.375255   L 39.932427,24.364922   L 39.922119,24.354589   L 39.901503,24.344256   L 39.901503,24.333923   L 39.911811,24.333923   L 39.911811,24.313257   L 39.922119,24.313257   L 39.922119,24.302924   L 39.932427,24.292592   L 39.932427,24.282259   L 39.942734,24.282259   L 39.942734,24.261593   L 39.953042,24.25126   L 39.953042,24.240927   L 39.96335,24.240927   L 39.96335,24.220261   L 39.973658,24.220261   L 39.973658,24.209929   z "
     id="path125" />
  <path
     style="fill:#7f7f7f;fill-rule:evenodd;fill-opacity:1;stroke:#7f7f7f;stroke-width:0.010307803px;stroke-linecap:round;stroke-linejoin:round;stroke-miterlimit:4;stroke-dasharray:none;stroke-opacity:1;"
     d="  M 39.695347,23.899942   L 39.54073,23.899942   L 39.54073,24.881566   L 39.695347,24.881566   L 39.695347,23.899942   z "
     id="path127" />
  <path
     style="fill:none;stroke:#7f7f7f;stroke-width:0.027581692px;stroke-linecap:round;stroke-linejoin:round;stroke-miterlimit:4;stroke-dasharray:none;stroke-opacity:1;"
     d="  M 22.148098,24.848081   L 22.120517,24.82116   L 22.120517,24.794239   L 22.092935,24.794239   L 22.092935,24.767318   L 22.065353,24.767318   L 22.065353,24.740397   L 22.037772,24.713476   L 22.037772,24.686555   L 22.01019,24.686555   L 22.01019,24.632713   L 21.982608,24.605792   L 21.982608,24.578871   L 21.955027,24.55195   L 21.955027,24.471187   L 21.927445,24.444266   L 21.927445,24.201977   L 21.955027,24.201977   L 21.955027,24.121214   L 21.982608,24.094293   L 21.982608,24.067372   L 22.01019,24.040451   L 22.01019,24.01353   L 22.037772,23.986609   L 22.037772,23.959688   L 22.148098,23.852004   L 22.17568,23.852004   L 22.203262,23.825083   L 22.230843,23.825083  "
     id="path129" />
  <path
     style="fill:none;stroke:#7f7f7f;stroke-width:0.027581692px;stroke-linecap:round;stroke-linejoin:round;stroke-miterlimit:4;stroke-dasharray:none;stroke-opacity:1;"
     d="  M 22.230843,24.686555   L 22.230843,24.659634   L 22.203262,24.659634   L 22.203262,24.632713   L 22.17568,24.605792   L 22.17568,24.578871   L 22.148098,24.55195   L 22.148098,24.498108   L 22.120517,24.471187   L 22.120517,24.201977   L 22.148098,24.175056   L 22.148098,24.121214   L 22.17568,24.094293   L 22.17568,24.067372   L 22.203262,24.040451   L 22.203262,24.01353   L 22.258425,24.01353   L 22.258425,23.986609   L 22.286007,23.986609  "
     id="path131" />
  <path
     style="fill:none;stroke:#7f7f7f;stroke-width:0.027581692px;stroke-linecap:round;stroke-linejoin:round;stroke-miterlimit:4;stroke-dasharray:none;stroke-opacity:1;"
     d="  M 22.396334,24.55195   L 22.368752,24.55195   L 22.368752,24.525029   L 22.34117,24.525029   L 22.34117,24.498108   L 22.313589,24.498108   L 22.313589,24.444266   L 22.286007,24.444266   L 22.286007,24.228898   L 22.313589,24.228898   L 22.313589,24.175056   L 22.34117,24.175056   L 22.34117,24.148135   L 22.368752,24.148135   L 22.368752,24.121214   L 22.396334,24.121214  "
     id="path133" />
  <path
     style="fill:none;stroke:#7f7f7f;stroke-width:0.027581692px;stroke-linecap:round;stroke-linejoin:round;stroke-miterlimit:4;stroke-dasharray:none;stroke-opacity:1;"
     d="  M 23.196203,24.848081   L 23.251366,24.794239   L 23.251366,24.767318   L 23.278948,24.767318   L 23.278948,24.740397   L 23.334111,24.686555   L 23.334111,24.659634   L 23.361693,24.659634   L 23.361693,24.605792   L 23.389274,24.605792   L 23.389274,24.55195   L 23.416856,24.525029   L 23.416856,24.471187   L 23.444438,24.444266   L 23.444438,24.228898   L 23.416856,24.201977   L 23.416856,24.121214   L 23.389274,24.121214   L 23.389274,24.067372   L 23.361693,24.067372   L 23.361693,24.01353   L 23.334111,24.01353   L 23.334111,23.959688   L 23.306529,23.959688   L 23.306529,23.932767   L 23.278948,23.932767   L 23.278948,23.905846   L 23.251366,23.905846   L 23.251366,23.878925   L 23.223784,23.878925   L 23.223784,23.852004   L 23.196203,23.852004   L 23.168621,23.825083   L 23.141039,23.825083  "
     id="path135" />
  <path
     style="fill:none;stroke:#7f7f7f;stroke-width:0.027581692px;stroke-linecap:round;stroke-linejoin:round;stroke-miterlimit:4;stroke-dasharray:none;stroke-opacity:1;"
     d="  M 23.113458,24.686555   L 23.113458,24.659634   L 23.141039,24.659634   L 23.141039,24.632713   L 23.168621,24.605792   L 23.168621,24.578871   L 23.196203,24.55195   L 23.196203,24.498108   L 23.223784,24.471187   L 23.223784,24.201977   L 23.196203,24.175056   L 23.196203,24.094293   L 23.168621,24.094293   L 23.168621,24.067372   L 23.141039,24.040451   L 23.141039,24.01353   L 23.085876,24.01353   L 23.085876,23.986609   L 23.058294,23.986609  "
     id="path137" />
  <path
     style="fill:none;stroke:#7f7f7f;stroke-width:0.027581692px;stroke-linecap:round;stroke-linejoin:round;stroke-miterlimit:4;stroke-dasharray:none;stroke-opacity:1;"
     d="  M 22.975549,24.55195   L 23.003131,24.55195   L 23.003131,24.525029   L 23.030712,24.525029   L 23.030712,24.498108   L 23.058294,24.498108   L 23.058294,24.444266   L 23.085876,24.444266   L 23.085876,24.228898   L 23.058294,24.228898   L 23.058294,24.175056   L 23.030712,24.175056   L 23.030712,24.148135   L 23.003131,24.148135   L 23.003131,24.121214   L 22.975549,24.121214  "
     id="path139" />
  <path
     style="fill:#7f7f7f;fill-rule:evenodd;fill-opacity:1;stroke:#7f7f7f;stroke-width:0.027581692px;stroke-linecap:round;stroke-linejoin:round;stroke-miterlimit:4;stroke-dasharray:none;stroke-opacity:1;"
     d="  M 22.561824,25.574948   L 22.644569,24.390424   L 22.782477,24.390424   L 22.865222,25.574948   L 22.561824,25.574948   z "
     id="path141" />
  <ellipse
     style="fill:#d8d8d8;fill-rule:evenodd;fill-opacity:1;stroke:#000000;stroke-width:0.018716147px;stroke-linecap:round;stroke-linejoin:round;stroke-miterlimit:4;stroke-dasharray:none;stroke-opacity:1;"
     cx="31.087522"
     cy="2.6398001"
     rx="0.4679037"
     ry="0.45854562"
     id="ellipse143" />
  <ellipse
     style="fill:none;stroke:#d8d8d8;stroke-width:0.018716147px;stroke-linecap:round;stroke-linejoin:round;stroke-miterlimit:4;stroke-dasharray:none;stroke-opacity:1;"
     cx="31.087522"
     cy="2.6398001"
     rx="0.4679037"
     ry="0.45854562"
     id="ellipse145" />
  <path
     style="fill:#7f7f7f;fill-rule:evenodd;fill-opacity:1;stroke:#7f7f7f;stroke-width:0.018682506px;stroke-linecap:round;stroke-linejoin:round;stroke-miterlimit:4;stroke-dasharray:none;stroke-opacity:1;"
     d="  M 27.542118,13.295315   M 29.30215,13.295315   M 32.01355,13.295315   M 32.01355,13.295315   M 38.720698,14.675703   M 20.83497,14.675703   M 20.214471,15.287924   L 20.177106,15.287924   L 20.158424,15.271161   L 20.139741,15.271161   L 20.083694,15.220872   L 20.083694,15.204109   L 20.065011,15.187346   L 20.065011,13.242829   L 20.083694,13.226066   L 20.083694,13.209303   L 20.102376,13.19254   L 20.121059,13.19254   L 20.121059,13.175777   L 20.139741,13.159014   L 20.158424,13.159014   L 20.177106,13.142251   L 22.717927,13.142251   L 22.73661,13.159014   L 22.755292,13.159014   L 22.81134,13.209303   L 22.81134,13.226066   L 22.830022,13.242829   L 22.830022,13.62838   L 22.81134,13.62838   L 22.81134,13.611617   L 22.792657,13.611617   L 22.792657,13.594854   L 22.773975,13.594854   L 22.773975,13.578091   L 22.73661,13.578091   L 22.73661,13.561327   L 20.681534,13.561327   L 20.681534,13.578091   L 20.644169,13.578091   L 20.644169,13.594854   L 20.625487,13.594854   L 20.625487,13.62838   L 20.606804,13.62838   L 20.606804,15.220872   L 20.625487,15.220872   L 20.625487,15.254398   L 20.644169,15.254398   L 20.644169,15.271161   L 20.662852,15.271161   L 20.662852,15.287924   L 20.233154,15.287924   L 20.214471,15.287924   z "
     id="path147" />
  <path
     style="fill:#7f7f7f;fill-rule:evenodd;fill-opacity:1;stroke:#7f7f7f;stroke-width:0.018682506px;stroke-linecap:round;stroke-linejoin:round;stroke-miterlimit:4;stroke-dasharray:none;stroke-opacity:1;"
     d="  M 22.643197,14.047457   L 20.793629,14.047457   L 20.793629,14.030694   L 20.756264,14.030694   L 20.756264,14.013931   L 20.737582,14.013931   L 20.737582,13.980404   L 20.718899,13.980404   L 20.718899,14.399481   L 20.737582,14.399481   L 20.737582,14.433007   L 20.756264,14.433007   L 20.756264,14.44977   L 20.793629,14.44977   L 20.793629,14.466534   L 22.680562,14.466534   L 22.717927,14.433007   L 22.73661,14.433007   L 22.773975,14.399481   L 22.773975,14.382718   L 22.792657,14.365955   L 22.792657,14.349192   L 22.81134,14.332429   L 22.81134,14.298903   L 22.830022,14.28214   L 22.830022,14.23185   L 22.81134,14.215087   L 22.81134,14.164798   L 22.773975,14.131272   L 22.773975,14.114509   L 22.755292,14.097746   L 22.73661,14.097746   L 22.73661,14.080983   L 22.717927,14.080983   L 22.699245,14.06422   L 22.680562,14.06422   L 22.66188,14.047457   L 22.643197,14.047457   z "
     id="path149" />
  <path
     style="fill:#7f7f7f;fill-rule:evenodd;fill-opacity:1;stroke:#7f7f7f;stroke-width:0.018682506px;stroke-linecap:round;stroke-linejoin:round;stroke-miterlimit:4;stroke-dasharray:none;stroke-opacity:1;"
     d="  M 26.958856,14.466534   L 26.921491,14.466534   L 26.921491,14.44977   L 26.884126,14.44977   L 26.884126,14.433007   L 26.865443,14.433007   L 26.865443,14.399481   L 26.846761,14.399481   L 26.846761,13.980404   L 26.865443,13.980404   L 26.865443,14.013931   L 26.884126,14.013931   L 26.884126,14.030694   L 26.921491,14.030694   L 26.921491,14.047457   L 28.416091,14.047457   L 28.416091,13.561327   L 26.809396,13.561327   L 26.809396,13.578091   L 26.772031,13.578091   L 26.772031,13.594854   L 26.753348,13.594854   L 26.753348,13.62838   L 26.734666,13.62838   L 26.734666,15.220872   L 26.753348,15.220872   L 26.753348,15.254398   L 26.772031,15.254398   L 26.772031,15.271161   L 26.790713,15.271161   L 26.790713,15.287924   L 26.304968,15.287924   L 26.286286,15.271161   L 26.267603,15.271161   L 26.211556,15.220872   L 26.211556,15.204109   L 26.192873,15.187346   L 26.192873,13.242829   L 26.211556,13.226066   L 26.211556,13.209303   L 26.230238,13.19254   L 26.248921,13.19254   L 26.248921,13.175777   L 26.267603,13.159014   L 26.286286,13.159014   L 26.304968,13.142251   L 28.845789,13.142251   L 28.864472,13.159014   L 28.883154,13.159014   L 28.939202,13.209303   L 28.939202,13.226066   L 28.957884,13.242829   L 28.957884,14.298903   L 28.939202,14.315666   L 28.939202,14.349192   L 28.920519,14.349192   L 28.920519,14.365955   L 28.901837,14.382718   L 28.901837,14.399481   L 28.883154,14.399481   L 28.883154,14.416244   L 28.864472,14.416244   L 28.864472,14.433007   L 28.845789,14.433007   L 28.845789,14.44977   L 28.827107,14.44977   L 28.808424,14.466534   L 28.827107,14.483297   L 28.845789,14.483297   L 28.845789,14.50006   L 28.864472,14.50006   L 28.864472,14.516823   L 28.883154,14.516823   L 28.883154,14.533586   L 28.901837,14.533586   L 28.901837,14.550349   L 28.920519,14.567112   L 28.920519,14.583875   L 28.939202,14.583875   L 28.939202,14.617401   L 28.957884,14.634164   L 28.957884,15.220872   L 28.976567,15.220872   L 28.976567,15.254398   L 28.995249,15.254398   L 28.995249,15.271161   L 29.013932,15.271161   L 29.013932,15.287924   L 28.528187,15.287924   L 28.509504,15.271161   L 28.490822,15.271161   L 28.434774,15.220872   L 28.434774,15.204109   L 28.416091,15.187346   L 28.416091,14.466534   L 26.977539,14.466534   L 26.958856,14.466534   z "
     id="path151" />
  <path
     style="fill:#7f7f7f;fill-rule:evenodd;fill-opacity:1;stroke:#7f7f7f;stroke-width:0.018682506px;stroke-linecap:round;stroke-linejoin:round;stroke-miterlimit:4;stroke-dasharray:none;stroke-opacity:1;"
     d="  M 29.929374,13.561327   L 29.368899,13.561327   L 29.350217,13.544564   L 29.331534,13.544564   L 29.275487,13.494275   L 29.275487,13.477512   L 29.256804,13.460749   L 29.256804,13.242829   L 29.275487,13.226066   L 29.275487,13.209303   L 29.294169,13.19254   L 29.312852,13.19254   L 29.312852,13.175777   L 29.331534,13.159014   L 29.350217,13.159014   L 29.368899,13.142251   L 31.90972,13.142251   L 31.928403,13.159014   L 31.947085,13.159014   L 32.003133,13.209303   L 32.003133,13.226066   L 32.021815,13.242829   L 32.021815,13.62838   L 32.003133,13.62838   L 32.003133,13.611617   L 31.98445,13.611617   L 31.98445,13.594854   L 31.965768,13.594854   L 31.965768,13.578091   L 31.928403,13.578091   L 31.928403,13.561327   L 30.545897,13.561327   L 30.545897,13.578091   L 30.508532,13.578091   L 30.508532,13.594854   L 30.48985,13.594854   L 30.48985,13.62838   L 30.471167,13.62838   L 30.471167,15.220872   L 30.48985,15.220872   L 30.48985,15.254398   L 30.508532,15.254398   L 30.508532,15.271161   L 30.527215,15.271161   L 30.527215,15.287924   L 30.04147,15.287924   L 30.022787,15.271161   L 30.004104,15.271161   L 29.948057,15.220872   L 29.948057,15.204109   L 29.929374,15.187346   L 29.929374,13.611617   L 29.929374,13.561327   z "
     id="path153" />
  <path
     style="fill:#7f7f7f;fill-rule:evenodd;fill-opacity:1;stroke:#7f7f7f;stroke-width:0.018682506px;stroke-linecap:round;stroke-linejoin:round;stroke-miterlimit:4;stroke-dasharray:none;stroke-opacity:1;"
     d="  M 32.862528,15.170583   L 32.862528,15.220872   L 32.88121,15.220872   L 32.88121,15.254398   L 32.899893,15.254398   L 32.899893,15.271161   L 32.918575,15.271161   L 32.918575,15.287924   L 32.43283,15.287924   L 32.414148,15.271161   L 32.395465,15.271161   L 32.339418,15.220872   L 32.339418,15.204109   L 32.320735,15.187346   L 32.320735,13.209303   L 32.302053,13.209303   L 32.302053,13.175777   L 32.28337,13.175777   L 32.28337,13.159014   L 32.264688,13.159014   L 32.264688,13.142251   L 32.750433,13.142251   L 32.769115,13.159014   L 32.787798,13.159014   L 32.843845,13.209303   L 32.843845,13.226066   L 32.862528,13.242829   L 32.862528,15.15382   L 32.862528,15.170583   z "
     id="path155" />
  <path
     style="fill:#7f7f7f;fill-rule:evenodd;fill-opacity:1;stroke:#7f7f7f;stroke-width:0.018682506px;stroke-linecap:round;stroke-linejoin:round;stroke-miterlimit:4;stroke-dasharray:none;stroke-opacity:1;"
     d="  M 35.515444,13.561327   L 33.908748,13.561327   L 33.908748,13.578091   L 33.871383,13.578091   L 33.871383,13.594854   L 33.852701,13.594854   L 33.852701,13.62838   L 33.834018,13.62838   L 33.834018,15.220872   L 33.852701,15.220872   L 33.852701,15.254398   L 33.871383,15.254398   L 33.871383,15.271161   L 33.890066,15.271161   L 33.890066,15.287924   L 33.404321,15.287924   L 33.385638,15.271161   L 33.366956,15.271161   L 33.310908,15.220872   L 33.310908,15.204109   L 33.292226,15.187346   L 33.292226,13.242829   L 33.310908,13.226066   L 33.310908,13.209303   L 33.329591,13.19254   L 33.348273,13.19254   L 33.348273,13.175777   L 33.366956,13.159014   L 33.385638,13.159014   L 33.404321,13.142251   L 35.945141,13.142251   L 35.963824,13.159014   L 35.982506,13.159014   L 36.038554,13.209303   L 36.038554,13.226066   L 36.057236,13.242829   L 36.057236,15.220872   L 36.075919,15.220872   L 36.075919,15.254398   L 36.094601,15.254398   L 36.094601,15.271161   L 36.113284,15.271161   L 36.113284,15.287924   L 35.627539,15.287924   L 35.608856,15.271161   L 35.590174,15.271161   L 35.534126,15.220872   L 35.534126,15.204109   L 35.515444,15.187346   L 35.515444,13.611617   L 35.515444,13.561327   z "
     id="path157" />
  <path
     style="fill:#7f7f7f;fill-rule:evenodd;fill-opacity:1;stroke:#7f7f7f;stroke-width:0.018682506px;stroke-linecap:round;stroke-linejoin:round;stroke-miterlimit:4;stroke-dasharray:none;stroke-opacity:1;"
     d="  M 38.803565,14.047457   L 37.084774,14.047457   L 37.066092,14.030694   L 37.047409,14.030694   L 37.047409,14.013931   L 37.028727,14.013931   L 37.028727,13.980404   L 37.010044,13.980404   L 37.010044,14.399481   L 37.028727,14.399481   L 37.028727,14.433007   L 37.047409,14.433007   L 37.047409,14.44977   L 37.066092,14.44977   L 37.084774,14.466534   L 38.822247,14.466534   L 38.859612,14.433007   L 38.878295,14.433007   L 38.91566,14.399481   L 38.91566,14.382718   L 38.934342,14.365955   L 38.934342,14.349192   L 38.953025,14.332429   L 38.953025,14.298903   L 38.971707,14.28214   L 38.971707,14.215087   L 38.953025,14.198324   L 38.953025,14.148035   L 38.934342,14.148035   L 38.934342,14.131272   L 38.878295,14.080983   L 38.859612,14.080983   L 38.859612,14.06422   L 38.84093,14.06422   L 38.822247,14.047457   L 38.803565,14.047457   z "
     id="path159" />
  <path
     style="fill:#7f7f7f;fill-rule:evenodd;fill-opacity:1;stroke:#7f7f7f;stroke-width:0.018682506px;stroke-linecap:round;stroke-linejoin:round;stroke-miterlimit:4;stroke-dasharray:none;stroke-opacity:1;"
     d="  M 40.092658,13.561327   L 39.532183,13.561327   L 39.5135,13.544564   L 39.494817,13.544564   L 39.43877,13.494275   L 39.43877,13.477512   L 39.420087,13.460749   L 39.420087,13.242829   L 39.43877,13.226066   L 39.43877,13.209303   L 39.457452,13.19254   L 39.476135,13.19254   L 39.476135,13.175777   L 39.494817,13.159014   L 39.5135,13.159014   L 39.532183,13.142251   L 42.073003,13.142251   L 42.091686,13.159014   L 42.110368,13.159014   L 42.166416,13.209303   L 42.166416,13.226066   L 42.185098,13.242829   L 42.185098,13.62838   L 42.166416,13.62838   L 42.166416,13.611617   L 42.147733,13.611617   L 42.147733,13.594854   L 42.129051,13.594854   L 42.129051,13.578091   L 42.091686,13.578091   L 42.091686,13.561327   L 40.70918,13.561327   L 40.70918,13.578091   L 40.671815,13.578091   L 40.671815,13.594854   L 40.653133,13.594854   L 40.653133,13.62838   L 40.63445,13.62838   L 40.63445,15.220872   L 40.653133,15.220872   L 40.653133,15.254398   L 40.671815,15.254398   L 40.671815,15.271161   L 40.690498,15.271161   L 40.690498,15.287924   L 40.204753,15.287924   L 40.18607,15.271161   L 40.167388,15.271161   L 40.11134,15.220872   L 40.11134,15.204109   L 40.092658,15.187346   L 40.092658,13.611617   L 40.092658,13.561327   z "
     id="path161" />
  <path
     style="fill:#7f7f7f;fill-rule:evenodd;fill-opacity:1;stroke:#7f7f7f;stroke-width:0.018682506px;stroke-linecap:round;stroke-linejoin:round;stroke-miterlimit:4;stroke-dasharray:none;stroke-opacity:1;"
     d="  M 38.99039,14.868847   L 39.027755,14.868847   L 39.027755,14.852084   L 39.06512,14.852084   L 39.06512,14.835321   L 39.083802,14.835321   L 39.083802,14.818558   L 39.102485,14.818558   L 39.102485,14.801795   L 39.121167,14.801795   L 39.121167,15.187346   L 39.102485,15.204109   L 39.102485,15.220872   L 39.083802,15.237635   L 39.083802,15.254398   L 39.06512,15.254398   L 39.046437,15.271161   L 39.027755,15.271161   L 39.009072,15.287924   L 36.468252,15.287924   L 36.449569,15.271161   L 36.430887,15.271161   L 36.374839,15.220872   L 36.374839,15.204109   L 36.356156,15.187346   L 36.356156,13.242829   L 36.374839,13.226066   L 36.374839,13.209303   L 36.393522,13.19254   L 36.412204,13.19254   L 36.412204,13.175777   L 36.430887,13.159014   L 36.449569,13.159014   L 36.468252,13.142251   L 39.009072,13.142251   L 39.027755,13.159014   L 39.046437,13.159014   L 39.102485,13.209303   L 39.102485,13.226066   L 39.121167,13.242829   L 39.121167,13.62838   L 39.102485,13.62838   L 39.102485,13.611617   L 39.083802,13.611617   L 39.083802,13.594854   L 39.06512,13.594854   L 39.06512,13.578091   L 39.027755,13.578091   L 39.027755,13.561327   L 36.972679,13.561327   L 36.972679,13.578091   L 36.935314,13.578091   L 36.935314,13.594854   L 36.916632,13.594854   L 36.916632,13.62838   L 36.897949,13.62838   L 36.897949,14.868847   L 38.971707,14.868847   L 38.99039,14.868847   z "
     id="path163" />
  <path
     style="fill:#7f7f7f;fill-rule:evenodd;fill-opacity:1;stroke:#7f7f7f;stroke-width:0.018682506px;stroke-linecap:round;stroke-linejoin:round;stroke-miterlimit:4;stroke-dasharray:none;stroke-opacity:1;"
     d="  M 24.063068,14.66769   L 24.063068,15.287924   L 24.959828,15.287924   L 24.959828,14.66769   L 24.063068,14.66769   z "
     id="path165" />
  <path
     style="fill:#7f7f7f;fill-rule:evenodd;fill-opacity:1;stroke:#7f7f7f;stroke-width:0.018682506px;stroke-linecap:round;stroke-linejoin:round;stroke-miterlimit:4;stroke-dasharray:none;stroke-opacity:1;"
     d="  M 23.128942,13.913352   L 23.894925,13.913352   L 23.894925,14.516823   L 23.128942,14.516823   L 23.128942,13.913352   z "
     id="path167" />
  <path
     style="fill:#7f7f7f;fill-rule:evenodd;fill-opacity:1;stroke:#7f7f7f;stroke-width:0.018682506px;stroke-linecap:round;stroke-linejoin:round;stroke-miterlimit:4;stroke-dasharray:none;stroke-opacity:1;"
     d="  M 25.12797,14.66769   L 25.12797,15.287924   L 25.408208,15.287924   L 25.426891,15.271161   L 25.501621,15.271161   L 25.520303,15.254398   L 25.557668,15.254398   L 25.595033,15.237635   L 25.613716,15.220872   L 25.651081,15.204109   L 25.688446,15.170583   L 25.725811,15.15382   L 25.744493,15.137057   L 25.763176,15.10353   L 25.781858,15.086767   L 25.856588,14.952663   L 25.856588,14.919137   L 25.875271,14.868847   L 25.875271,14.818558   L 25.893953,14.768269   L 25.893953,14.66769   L 25.146653,14.66769   L 25.12797,14.66769   z "
     id="path169" />
  <path
     style="fill:#7f7f7f;fill-rule:evenodd;fill-opacity:1;stroke:#7f7f7f;stroke-width:0.018682506px;stroke-linecap:round;stroke-linejoin:round;stroke-miterlimit:4;stroke-dasharray:none;stroke-opacity:1;"
     d="  M 25.12797,13.913352   L 25.893953,13.913352   L 25.893953,14.516823   L 25.12797,14.516823   L 25.12797,13.913352   z "
     id="path171" />
  <path
     style="fill:#7f7f7f;fill-rule:evenodd;fill-opacity:1;stroke:#7f7f7f;stroke-width:0.018682506px;stroke-linecap:round;stroke-linejoin:round;stroke-miterlimit:4;stroke-dasharray:none;stroke-opacity:1;"
     d="  M 23.894925,14.66769   L 23.894925,15.287924   L 23.614687,15.287924   L 23.596005,15.271161   L 23.521275,15.271161   L 23.502592,15.254398   L 23.465227,15.254398   L 23.427862,15.237635   L 23.40918,15.220872   L 23.371815,15.204109   L 23.33445,15.170583   L 23.297085,15.15382   L 23.278402,15.137057   L 23.25972,15.10353   L 23.241037,15.086767   L 23.166307,14.952663   L 23.166307,14.919137   L 23.147625,14.868847   L 23.147625,14.818558   L 23.128942,14.768269   L 23.128942,14.66769   L 23.876243,14.66769   L 23.894925,14.66769   z "
     id="path173" />
  <path
     style="fill:#7f7f7f;fill-rule:evenodd;fill-opacity:1;stroke:#7f7f7f;stroke-width:0.018682506px;stroke-linecap:round;stroke-linejoin:round;stroke-miterlimit:4;stroke-dasharray:none;stroke-opacity:1;"
     d="  M 24.063068,13.142251   L 24.063068,13.762484   L 24.959828,13.762484   L 24.959828,13.142251   L 24.063068,13.142251   z "
     id="path175" />
  <path
     style="fill:#7f7f7f;fill-rule:evenodd;fill-opacity:1;stroke:#7f7f7f;stroke-width:0.018682506px;stroke-linecap:round;stroke-linejoin:round;stroke-miterlimit:4;stroke-dasharray:none;stroke-opacity:1;"
     d="  M 25.12797,13.762484   L 25.12797,13.142251   L 25.408208,13.142251   L 25.426891,13.159014   L 25.501621,13.159014   L 25.520303,13.175777   L 25.557668,13.175777   L 25.595033,13.19254   L 25.613716,13.209303   L 25.651081,13.226066   L 25.688446,13.259592   L 25.725811,13.276355   L 25.744493,13.293118   L 25.763176,13.326644   L 25.781858,13.343408   L 25.856588,13.477512   L 25.856588,13.511038   L 25.875271,13.561327   L 25.875271,13.611617   L 25.893953,13.661906   L 25.893953,13.762484   L 25.146653,13.762484   L 25.12797,13.762484   z "
     id="path177" />
  <path
     style="fill:#7f7f7f;fill-rule:evenodd;fill-opacity:1;stroke:#7f7f7f;stroke-width:0.018682506px;stroke-linecap:round;stroke-linejoin:round;stroke-miterlimit:4;stroke-dasharray:none;stroke-opacity:1;"
     d="  M 23.894925,13.762484   L 23.894925,13.142251   L 23.614687,13.142251   L 23.596005,13.159014   L 23.521275,13.159014   L 23.502592,13.175777   L 23.465227,13.175777   L 23.427862,13.19254   L 23.40918,13.209303   L 23.371815,13.226066   L 23.33445,13.259592   L 23.297085,13.276355   L 23.278402,13.293118   L 23.25972,13.326644   L 23.241037,13.343408   L 23.166307,13.477512   L 23.166307,13.511038   L 23.147625,13.561327   L 23.147625,13.611617   L 23.128942,13.661906   L 23.128942,13.762484   L 23.876243,13.762484   L 23.894925,13.762484   z "
     id="path179" />
  <text
     xml:space="preserve"
     style="font-size:0.812500px;font-style:normal;font-variant:normal;font-weight:400;font-stretch:Condensed;line-height:125.000000%;letter-spacing:0px;word-spacing:0px;fill:#000000;fill-opacity:1;stroke:none;font-family:Times New Roman;text-align:start;text-anchor:start;"
     transform="matrix(1.000000,-0.000000,0.000000,1.000000,41.625145,15.315719)"
     x="0.000000"
     y="0.000000"
     id="text185"><tspan
       x="0.000000"
       y="0.000000"
       id="tspan183"><tspan
         dx="0.000000"
         dy="0.000000"
         style="fill:#7F7F7F;font-size:0.812500px;font-style:normal;font-variant:normal;font-weight:400;font-stretch:Condensed;font-family:Times New Roman;"
         id="tspan181"></tspan></tspan></text>
  <path
     style="fill:none;stroke:#000000;stroke-width:0.0080937324px;stroke-linecap:round;stroke-linejoin:round;stroke-miterlimit:4;stroke-dasharray:none;stroke-opacity:1;"
     d="  M 31.282274,0   L 30.998993,0   L 30.998993,0.2843682   L 31.282274,0.2843682   L 31.282274,0   z "
     id="path187" />
  <path
     style="fill:none;stroke:#000000;stroke-width:0.0080937324px;stroke-linecap:round;stroke-linejoin:round;stroke-miterlimit:4;stroke-dasharray:none;stroke-opacity:1;"
     d="  M 0.28328062,19.540157   L 0,19.540157   L 0,19.824526   L 0.28328062,19.824526   L 0.28328062,19.540157   z "
     id="path189" />
  <path
     style="fill:none;stroke:#000000;stroke-width:0.0080937324px;stroke-linecap:round;stroke-linejoin:round;stroke-miterlimit:4;stroke-dasharray:none;stroke-opacity:1;"
     d="  M 62.346017,19.540157   L 62.062737,19.540157   L 62.062737,19.824526   L 62.346017,19.824526   L 62.346017,19.540157   z "
     id="path191" />
  <path
     style="fill:none;stroke:#000000;stroke-width:0.0080937324px;stroke-linecap:round;stroke-linejoin:round;stroke-miterlimit:4;stroke-dasharray:none;stroke-opacity:1;"
     d="  M 31.282274,33.067959   L 30.998993,33.067959   L 30.998993,33.352327   L 31.282274,33.352327   L 31.282274,33.067959   z "
     id="path193" />
</svg>
